G75*
G70*
%OFA0B0*%
%FSLAX24Y24*%
%IPPOS*%
%LPD*%
%AMOC8*
5,1,8,0,0,1.08239X$1,22.5*
%
%ADD10C,0.0160*%
%ADD11C,0.0357*%
D10*
X001174Y002600D02*
X001174Y008120D01*
X004214Y008120D01*
X004214Y002600D01*
X001174Y002600D01*
X001174Y002636D02*
X004214Y002636D01*
X004214Y002795D02*
X001174Y002795D01*
X001174Y002953D02*
X004214Y002953D01*
X004214Y003112D02*
X001174Y003112D01*
X001174Y003270D02*
X004214Y003270D01*
X004214Y003429D02*
X001174Y003429D01*
X001174Y003587D02*
X004214Y003587D01*
X004214Y003746D02*
X001174Y003746D01*
X001174Y003904D02*
X004214Y003904D01*
X004214Y004063D02*
X001174Y004063D01*
X001174Y004221D02*
X004214Y004221D01*
X004214Y004380D02*
X001174Y004380D01*
X001174Y004538D02*
X004214Y004538D01*
X004214Y004697D02*
X001174Y004697D01*
X001174Y004855D02*
X004214Y004855D01*
X004214Y005014D02*
X001174Y005014D01*
X001174Y005172D02*
X004214Y005172D01*
X004214Y005331D02*
X001174Y005331D01*
X001174Y005489D02*
X004214Y005489D01*
X004214Y005648D02*
X001174Y005648D01*
X001174Y005806D02*
X004214Y005806D01*
X004214Y005965D02*
X001174Y005965D01*
X001174Y006123D02*
X004214Y006123D01*
X004214Y006282D02*
X001174Y006282D01*
X001174Y006440D02*
X004214Y006440D01*
X004214Y006599D02*
X001174Y006599D01*
X001174Y006757D02*
X004214Y006757D01*
X004214Y006916D02*
X001174Y006916D01*
X001174Y007074D02*
X004214Y007074D01*
X004214Y007233D02*
X001174Y007233D01*
X001174Y007391D02*
X004214Y007391D01*
X004214Y007550D02*
X001174Y007550D01*
X001174Y007708D02*
X004214Y007708D01*
X004214Y007867D02*
X001174Y007867D01*
X001174Y008025D02*
X004214Y008025D01*
D11*
X002694Y007350D03*
M02*
