G75*
G70*
%OFA0B0*%
%FSLAX24Y24*%
%IPPOS*%
%LPD*%
%AMOC8*
5,1,8,0,0,1.08239X$1,22.5*
%
%ADD10C,0.0030*%
D10*
X001559Y000677D02*
X001621Y000615D01*
X001868Y000615D01*
X001929Y000677D01*
X001929Y000800D01*
X001868Y000862D01*
X001744Y000862D01*
X001744Y000738D01*
X001621Y000862D02*
X001559Y000800D01*
X001559Y000677D01*
X001559Y000983D02*
X001929Y001230D01*
X001559Y001230D01*
X001559Y001352D02*
X001559Y001537D01*
X001621Y001599D01*
X001868Y001599D01*
X001929Y001537D01*
X001929Y001352D01*
X001559Y001352D01*
X001559Y000983D02*
X001929Y000983D01*
X002559Y000983D02*
X002929Y000983D01*
X002929Y001230D01*
X002929Y001352D02*
X002559Y001352D01*
X002682Y001475D01*
X002559Y001599D01*
X002929Y001599D01*
X002929Y001720D02*
X002559Y001720D01*
X002559Y001905D01*
X002621Y001967D01*
X002744Y001967D01*
X002806Y001905D01*
X002806Y001720D01*
X002559Y001230D02*
X002559Y000983D01*
X002559Y000862D02*
X002559Y000615D01*
X002559Y000738D02*
X002929Y000738D01*
X002744Y000983D02*
X002744Y001107D01*
X003434Y001229D02*
X003434Y001353D01*
X003496Y001414D01*
X003557Y001414D01*
X003619Y001353D01*
X003681Y001414D01*
X003743Y001414D01*
X003804Y001353D01*
X003804Y001229D01*
X003743Y001167D01*
X003743Y001045D02*
X003804Y001045D01*
X003804Y000983D01*
X003743Y000983D01*
X003743Y001045D01*
X003743Y000862D02*
X003681Y000862D01*
X003619Y000800D01*
X003619Y000738D01*
X003619Y000800D02*
X003557Y000862D01*
X003496Y000862D01*
X003434Y000800D01*
X003434Y000677D01*
X003496Y000615D01*
X003743Y000615D02*
X003804Y000677D01*
X003804Y000800D01*
X003743Y000862D01*
X003496Y001167D02*
X003434Y001229D01*
X003434Y001536D02*
X003681Y001536D01*
X003804Y001659D01*
X003681Y001783D01*
X003434Y001783D01*
X003619Y001353D02*
X003619Y001291D01*
M02*
