G75*
G70*
%OFA0B0*%
%FSLAX24Y24*%
%IPPOS*%
%LPD*%
%AMOC8*
5,1,8,0,0,1.08239X$1,22.5*
%
%ADD10C,0.0030*%
%ADD11C,0.0160*%
D10*
X013347Y014055D02*
X013408Y013993D01*
X013470Y013993D01*
X013532Y014055D01*
X013532Y014178D01*
X013593Y014240D01*
X013655Y014240D01*
X013717Y014178D01*
X013717Y014055D01*
X013655Y013993D01*
X013347Y014055D02*
X013347Y014178D01*
X013408Y014240D01*
X013347Y014361D02*
X013347Y014546D01*
X013408Y014608D01*
X013655Y014608D01*
X013717Y014546D01*
X013717Y014361D01*
X013347Y014361D01*
X013470Y014730D02*
X013347Y014853D01*
X013470Y014976D01*
X013717Y014976D01*
X013532Y014976D02*
X013532Y014730D01*
X013470Y014730D02*
X013717Y014730D01*
X014232Y014730D02*
X014603Y014730D01*
X014603Y014976D01*
X014541Y014608D02*
X014603Y014546D01*
X014603Y014423D01*
X014541Y014361D01*
X014294Y014361D01*
X014232Y014423D01*
X014232Y014546D01*
X014294Y014608D01*
X014294Y014240D02*
X014232Y014178D01*
X014232Y014055D01*
X014294Y013993D01*
X014356Y013993D01*
X014418Y014055D01*
X014418Y014178D01*
X014479Y014240D01*
X014541Y014240D01*
X014603Y014178D01*
X014603Y014055D01*
X014541Y013993D01*
X015266Y014055D02*
X015328Y013993D01*
X015574Y013993D01*
X015636Y014055D01*
X015636Y014178D01*
X015574Y014240D01*
X015451Y014240D01*
X015451Y014116D01*
X015328Y014240D02*
X015266Y014178D01*
X015266Y014055D01*
X015266Y014361D02*
X015636Y014608D01*
X015266Y014608D01*
X015266Y014730D02*
X015266Y014915D01*
X015328Y014976D01*
X015574Y014976D01*
X015636Y014915D01*
X015636Y014730D01*
X015266Y014730D01*
X015266Y014361D02*
X015636Y014361D01*
X015390Y034318D02*
X015390Y034565D01*
X015390Y034686D02*
X015390Y034933D01*
X015390Y035054D02*
X015390Y035240D01*
X015328Y035301D01*
X015082Y035301D01*
X015020Y035240D01*
X015020Y035054D01*
X015390Y035054D01*
X015205Y034810D02*
X015205Y034686D01*
X015020Y034686D02*
X015390Y034686D01*
X015390Y034318D02*
X015020Y034318D01*
X015020Y034686D02*
X015020Y034933D01*
X016004Y034933D02*
X016374Y034933D01*
X016004Y034686D01*
X016374Y034686D01*
X016313Y034565D02*
X016189Y034565D01*
X016189Y034441D01*
X016066Y034318D02*
X016313Y034318D01*
X016374Y034379D01*
X016374Y034503D01*
X016313Y034565D01*
X016066Y034565D02*
X016004Y034503D01*
X016004Y034379D01*
X016066Y034318D01*
X016004Y035054D02*
X016004Y035240D01*
X016066Y035301D01*
X016313Y035301D01*
X016374Y035240D01*
X016374Y035054D01*
X016004Y035054D01*
X018668Y036631D02*
X018668Y036878D01*
X018792Y037001D01*
X018915Y036878D01*
X018915Y036631D01*
X018915Y036816D02*
X018668Y036816D01*
X019652Y036816D02*
X019838Y036816D01*
X019899Y036754D01*
X019899Y036692D01*
X019838Y036631D01*
X019652Y036631D01*
X019652Y037001D01*
X019838Y037001D01*
X019899Y036939D01*
X019899Y036878D01*
X019838Y036816D01*
D11*
X012256Y005317D02*
X012258Y005330D01*
X012263Y005342D01*
X012272Y005353D01*
X012282Y005361D01*
X012295Y005365D01*
X012308Y005366D01*
X012321Y005363D01*
X012333Y005357D01*
X012343Y005348D01*
X012350Y005337D01*
X012354Y005324D01*
X012354Y005310D01*
X012350Y005297D01*
X012343Y005286D01*
X012333Y005277D01*
X012321Y005271D01*
X012308Y005268D01*
X012295Y005269D01*
X012282Y005273D01*
X012272Y005281D01*
X012263Y005292D01*
X012258Y005304D01*
X012256Y005317D01*
X015012Y004578D02*
X015014Y004591D01*
X015019Y004603D01*
X015028Y004614D01*
X015038Y004622D01*
X015051Y004626D01*
X015064Y004627D01*
X015077Y004624D01*
X015089Y004618D01*
X015099Y004609D01*
X015106Y004598D01*
X015110Y004585D01*
X015110Y004571D01*
X015106Y004558D01*
X015099Y004547D01*
X015089Y004538D01*
X015077Y004532D01*
X015064Y004529D01*
X015051Y004530D01*
X015038Y004534D01*
X015028Y004542D01*
X015019Y004553D01*
X015014Y004565D01*
X015012Y004578D01*
X018161Y003791D02*
X018163Y003804D01*
X018168Y003816D01*
X018177Y003827D01*
X018187Y003835D01*
X018200Y003839D01*
X018213Y003840D01*
X018226Y003837D01*
X018238Y003831D01*
X018248Y003822D01*
X018255Y003811D01*
X018259Y003798D01*
X018259Y003784D01*
X018255Y003771D01*
X018248Y003760D01*
X018238Y003751D01*
X018226Y003745D01*
X018213Y003742D01*
X018200Y003743D01*
X018187Y003747D01*
X018177Y003755D01*
X018168Y003766D01*
X018163Y003778D01*
X018161Y003791D01*
X020523Y003791D02*
X020525Y003804D01*
X020530Y003816D01*
X020539Y003827D01*
X020549Y003835D01*
X020562Y003839D01*
X020575Y003840D01*
X020588Y003837D01*
X020600Y003831D01*
X020610Y003822D01*
X020617Y003811D01*
X020621Y003798D01*
X020621Y003784D01*
X020617Y003771D01*
X020610Y003760D01*
X020600Y003751D01*
X020588Y003745D01*
X020575Y003742D01*
X020562Y003743D01*
X020549Y003747D01*
X020539Y003755D01*
X020530Y003766D01*
X020525Y003778D01*
X020523Y003791D01*
X029726Y013141D02*
X029728Y013154D01*
X029733Y013166D01*
X029742Y013177D01*
X029752Y013185D01*
X029765Y013189D01*
X029778Y013190D01*
X029791Y013187D01*
X029803Y013181D01*
X029813Y013172D01*
X029820Y013161D01*
X029824Y013148D01*
X029824Y013134D01*
X029820Y013121D01*
X029813Y013110D01*
X029803Y013101D01*
X029791Y013095D01*
X029778Y013092D01*
X029765Y013093D01*
X029752Y013097D01*
X029742Y013105D01*
X029733Y013116D01*
X029728Y013128D01*
X029726Y013141D01*
X026183Y021606D02*
X026185Y021619D01*
X026190Y021631D01*
X026199Y021642D01*
X026209Y021650D01*
X026222Y021654D01*
X026235Y021655D01*
X026248Y021652D01*
X026260Y021646D01*
X026270Y021637D01*
X026277Y021626D01*
X026281Y021613D01*
X026281Y021599D01*
X026277Y021586D01*
X026270Y021575D01*
X026260Y021566D01*
X026248Y021560D01*
X026235Y021557D01*
X026222Y021558D01*
X026209Y021562D01*
X026199Y021570D01*
X026190Y021581D01*
X026185Y021593D01*
X026183Y021606D01*
X026183Y025543D02*
X026185Y025556D01*
X026190Y025568D01*
X026199Y025579D01*
X026209Y025587D01*
X026222Y025591D01*
X026235Y025592D01*
X026248Y025589D01*
X026260Y025583D01*
X026270Y025574D01*
X026277Y025563D01*
X026281Y025550D01*
X026281Y025536D01*
X026277Y025523D01*
X026270Y025512D01*
X026260Y025503D01*
X026248Y025497D01*
X026235Y025494D01*
X026222Y025495D01*
X026209Y025499D01*
X026199Y025507D01*
X026190Y025518D01*
X026185Y025530D01*
X026183Y025543D01*
X026183Y029086D02*
X026185Y029099D01*
X026190Y029111D01*
X026199Y029122D01*
X026209Y029130D01*
X026222Y029134D01*
X026235Y029135D01*
X026248Y029132D01*
X026260Y029126D01*
X026270Y029117D01*
X026277Y029106D01*
X026281Y029093D01*
X026281Y029079D01*
X026277Y029066D01*
X026270Y029055D01*
X026260Y029046D01*
X026248Y029040D01*
X026235Y029037D01*
X026222Y029038D01*
X026209Y029042D01*
X026199Y029050D01*
X026190Y029061D01*
X026185Y029073D01*
X026183Y029086D01*
X029185Y031350D02*
X029187Y031363D01*
X029192Y031375D01*
X029201Y031386D01*
X029211Y031394D01*
X029224Y031398D01*
X029237Y031399D01*
X029250Y031396D01*
X029262Y031390D01*
X029272Y031381D01*
X029279Y031370D01*
X029283Y031357D01*
X029283Y031343D01*
X029279Y031330D01*
X029272Y031319D01*
X029262Y031310D01*
X029250Y031304D01*
X029237Y031301D01*
X029224Y031302D01*
X029211Y031306D01*
X029201Y031314D01*
X029192Y031325D01*
X029187Y031337D01*
X029185Y031350D01*
X021655Y027069D02*
X021657Y027082D01*
X021662Y027094D01*
X021671Y027105D01*
X021681Y027113D01*
X021694Y027117D01*
X021707Y027118D01*
X021720Y027115D01*
X021732Y027109D01*
X021742Y027100D01*
X021749Y027089D01*
X021753Y027076D01*
X021753Y027062D01*
X021749Y027049D01*
X021742Y027038D01*
X021732Y027029D01*
X021720Y027023D01*
X021707Y027020D01*
X021694Y027021D01*
X021681Y027025D01*
X021671Y027033D01*
X021662Y027044D01*
X021657Y027056D01*
X021655Y027069D01*
X021655Y023919D02*
X021657Y023932D01*
X021662Y023944D01*
X021671Y023955D01*
X021681Y023963D01*
X021694Y023967D01*
X021707Y023968D01*
X021720Y023965D01*
X021732Y023959D01*
X021742Y023950D01*
X021749Y023939D01*
X021753Y023926D01*
X021753Y023912D01*
X021749Y023899D01*
X021742Y023888D01*
X021732Y023879D01*
X021720Y023873D01*
X021707Y023870D01*
X021694Y023871D01*
X021681Y023875D01*
X021671Y023883D01*
X021662Y023894D01*
X021657Y023906D01*
X021655Y023919D01*
X017718Y020622D02*
X017720Y020635D01*
X017725Y020647D01*
X017734Y020658D01*
X017744Y020666D01*
X017757Y020670D01*
X017770Y020671D01*
X017783Y020668D01*
X017795Y020662D01*
X017805Y020653D01*
X017812Y020642D01*
X017816Y020629D01*
X017816Y020615D01*
X017812Y020602D01*
X017805Y020591D01*
X017795Y020582D01*
X017783Y020576D01*
X017770Y020573D01*
X017757Y020574D01*
X017744Y020578D01*
X017734Y020586D01*
X017725Y020597D01*
X017720Y020609D01*
X017718Y020622D01*
X009155Y017767D02*
X009157Y017780D01*
X009162Y017792D01*
X009171Y017803D01*
X009181Y017811D01*
X009194Y017815D01*
X009207Y017816D01*
X009220Y017813D01*
X009232Y017807D01*
X009242Y017798D01*
X009249Y017787D01*
X009253Y017774D01*
X009253Y017760D01*
X009249Y017747D01*
X009242Y017736D01*
X009232Y017727D01*
X009220Y017721D01*
X009207Y017718D01*
X009194Y017719D01*
X009181Y017723D01*
X009171Y017731D01*
X009162Y017742D01*
X009157Y017754D01*
X009155Y017767D01*
X003545Y024559D02*
X003547Y024572D01*
X003552Y024584D01*
X003561Y024595D01*
X003571Y024603D01*
X003584Y024607D01*
X003597Y024608D01*
X003610Y024605D01*
X003622Y024599D01*
X003632Y024590D01*
X003639Y024579D01*
X003643Y024566D01*
X003643Y024552D01*
X003639Y024539D01*
X003632Y024528D01*
X003622Y024519D01*
X003610Y024513D01*
X003597Y024510D01*
X003584Y024511D01*
X003571Y024515D01*
X003561Y024523D01*
X003552Y024534D01*
X003547Y024546D01*
X003545Y024559D01*
X005071Y028594D02*
X005073Y028607D01*
X005078Y028619D01*
X005087Y028630D01*
X005097Y028638D01*
X005110Y028642D01*
X005123Y028643D01*
X005136Y028640D01*
X005148Y028634D01*
X005158Y028625D01*
X005165Y028614D01*
X005169Y028601D01*
X005169Y028587D01*
X005165Y028574D01*
X005158Y028563D01*
X005148Y028554D01*
X005136Y028548D01*
X005123Y028545D01*
X005110Y028546D01*
X005097Y028550D01*
X005087Y028558D01*
X005078Y028569D01*
X005073Y028581D01*
X005071Y028594D01*
X009008Y026773D02*
X009010Y026786D01*
X009015Y026798D01*
X009024Y026809D01*
X009034Y026817D01*
X009047Y026821D01*
X009060Y026822D01*
X009073Y026819D01*
X009085Y026813D01*
X009095Y026804D01*
X009102Y026793D01*
X009106Y026780D01*
X009106Y026766D01*
X009102Y026753D01*
X009095Y026742D01*
X009085Y026733D01*
X009073Y026727D01*
X009060Y026724D01*
X009047Y026725D01*
X009034Y026729D01*
X009024Y026737D01*
X009015Y026748D01*
X009010Y026760D01*
X009008Y026773D01*
M02*
