G75*
G70*
%OFA0B0*%
%FSLAX24Y24*%
%IPPOS*%
%LPD*%
%AMOC8*
5,1,8,0,0,1.08239X$1,22.5*
%
%ADD10C,0.0060*%
%ADD11C,0.0050*%
%ADD12C,0.0040*%
%ADD13C,0.0100*%
D10*
X002452Y010650D02*
X002352Y010750D01*
X002352Y011550D01*
X002452Y011650D01*
X003252Y011650D01*
X003352Y011550D01*
X003452Y011650D01*
X004252Y011650D01*
X004352Y011550D01*
X004352Y010750D01*
X004252Y010650D01*
X003452Y010650D01*
X003352Y010750D01*
X003252Y010650D01*
X002452Y010650D01*
X002452Y012150D02*
X002352Y012250D01*
X002352Y013050D01*
X002452Y013150D01*
X002352Y013250D01*
X002352Y014050D01*
X002452Y014150D01*
X003252Y014150D01*
X003352Y014050D01*
X003352Y013250D01*
X003252Y013150D01*
X003352Y013050D01*
X003352Y012250D01*
X003252Y012150D01*
X002452Y012150D01*
X002452Y018775D02*
X003252Y018775D01*
X003352Y018875D01*
X003352Y019675D01*
X003252Y019775D01*
X003352Y019875D01*
X003352Y020675D01*
X003252Y020775D01*
X002452Y020775D01*
X002352Y020675D01*
X002352Y019875D01*
X002452Y019775D01*
X002352Y019675D01*
X002352Y018875D01*
X002452Y018775D01*
X007967Y023465D02*
X007967Y023685D01*
X007967Y023465D02*
X008287Y023465D01*
X007967Y024365D02*
X007967Y024585D01*
X008287Y024585D01*
X004912Y024710D02*
X004592Y024710D01*
X004592Y024490D01*
X004592Y023810D02*
X004592Y023590D01*
X004912Y023590D01*
X016102Y027500D02*
X016202Y027400D01*
X017002Y027400D01*
X017102Y027500D01*
X017102Y028300D01*
X017002Y028400D01*
X017102Y028500D01*
X017102Y029300D01*
X017002Y029400D01*
X016202Y029400D01*
X016102Y029300D01*
X016102Y028500D01*
X016202Y028400D01*
X016102Y028300D01*
X016102Y027500D01*
X016202Y029900D02*
X017002Y029900D01*
X017102Y030000D01*
X017102Y030800D01*
X017002Y030900D01*
X017102Y031000D01*
X017102Y031800D01*
X017002Y031900D01*
X016202Y031900D01*
X016102Y031800D01*
X016102Y031000D01*
X016202Y030900D01*
X016102Y030800D01*
X016102Y030000D01*
X016202Y029900D01*
X022852Y027050D02*
X022852Y026250D01*
X022952Y026150D01*
X022852Y026050D01*
X022852Y025250D01*
X022952Y025150D01*
X023752Y025150D01*
X023852Y025250D01*
X023852Y026050D01*
X023752Y026150D01*
X023852Y026250D01*
X023852Y027050D01*
X023752Y027150D01*
X022952Y027150D01*
X022852Y027050D01*
X022952Y024400D02*
X022852Y024300D01*
X022852Y023500D01*
X022952Y023400D01*
X022852Y023300D01*
X022852Y022500D01*
X022952Y022400D01*
X023752Y022400D01*
X023852Y022500D01*
X023852Y023300D01*
X023752Y023400D01*
X023852Y023500D01*
X023852Y024300D01*
X023752Y024400D01*
X022952Y024400D01*
X026452Y016150D02*
X026352Y016050D01*
X026352Y015250D01*
X026452Y015150D01*
X026352Y015050D01*
X026352Y014250D01*
X026452Y014150D01*
X027252Y014150D01*
X027352Y014250D01*
X027352Y015050D01*
X027252Y015150D01*
X027352Y015250D01*
X027352Y016050D01*
X027252Y016150D01*
X026452Y016150D01*
X026452Y013650D02*
X026352Y013550D01*
X026352Y012750D01*
X026452Y012650D01*
X026352Y012550D01*
X026352Y011750D01*
X026452Y011650D01*
X027252Y011650D01*
X027352Y011750D01*
X027352Y012550D01*
X027252Y012650D01*
X027352Y012750D01*
X027352Y013550D01*
X027252Y013650D01*
X026452Y013650D01*
X028132Y013571D02*
X028132Y012930D01*
X028453Y012930D01*
X028560Y013037D01*
X028560Y013144D01*
X028453Y013250D01*
X028132Y013250D01*
X028132Y013571D02*
X028453Y013571D01*
X028560Y013464D01*
X028560Y013357D01*
X028453Y013250D01*
X028777Y013250D02*
X029204Y013250D01*
X029204Y013357D02*
X029204Y012930D01*
X028777Y012930D02*
X028777Y013357D01*
X028991Y013571D01*
X029204Y013357D01*
X029422Y013571D02*
X029849Y013571D01*
X029635Y013571D02*
X029635Y012930D01*
X029635Y012446D02*
X029635Y011805D01*
X029204Y011805D02*
X029204Y012232D01*
X028991Y012446D01*
X028777Y012232D01*
X028777Y011805D01*
X028560Y011912D02*
X028453Y011805D01*
X028132Y011805D01*
X028132Y012446D01*
X028453Y012446D01*
X028560Y012339D01*
X028560Y012232D01*
X028453Y012125D01*
X028132Y012125D01*
X028453Y012125D02*
X028560Y012019D01*
X028560Y011912D01*
X028777Y012125D02*
X029204Y012125D01*
X029422Y012446D02*
X029849Y012446D01*
X030066Y012125D02*
X030493Y012125D01*
X030280Y013037D02*
X030280Y013464D01*
X030493Y013250D02*
X030066Y013250D01*
X028252Y007275D02*
X027452Y007275D01*
X027352Y007175D01*
X027352Y006375D01*
X027452Y006275D01*
X027352Y006175D01*
X027352Y005375D01*
X027452Y005275D01*
X028252Y005275D01*
X028352Y005375D01*
X028352Y006175D01*
X028252Y006275D01*
X028352Y006375D01*
X028352Y007175D01*
X028252Y007275D01*
D11*
X006239Y002485D02*
X006239Y001815D01*
X007341Y001815D01*
X007341Y002485D01*
X006239Y002485D01*
X006239Y002690D02*
X006239Y003360D01*
X007341Y003360D01*
X007341Y002690D01*
X006239Y002690D01*
X007598Y004210D02*
X007598Y004840D01*
X008857Y004840D01*
X008857Y004210D01*
X007598Y004210D01*
X007505Y005025D02*
X007505Y005525D01*
X008450Y005525D01*
X008450Y005025D01*
X007505Y005025D01*
X008467Y005666D02*
X008467Y007634D01*
X010238Y007634D01*
X010238Y005666D01*
X008467Y005666D01*
X006754Y006713D02*
X004076Y006713D01*
X004076Y009587D01*
X006754Y009587D01*
X006754Y006713D01*
X007046Y008397D02*
X007046Y011153D01*
X009409Y011153D01*
X009409Y008397D01*
X007046Y008397D01*
X008566Y007437D02*
X008568Y007456D01*
X008573Y007475D01*
X008583Y007491D01*
X008595Y007506D01*
X008610Y007518D01*
X008626Y007528D01*
X008645Y007533D01*
X008664Y007535D01*
X008683Y007533D01*
X008702Y007528D01*
X008718Y007518D01*
X008733Y007506D01*
X008745Y007491D01*
X008755Y007475D01*
X008760Y007456D01*
X008762Y007437D01*
X008760Y007418D01*
X008755Y007399D01*
X008745Y007383D01*
X008733Y007368D01*
X008718Y007356D01*
X008702Y007346D01*
X008683Y007341D01*
X008664Y007339D01*
X008645Y007341D01*
X008626Y007346D01*
X008610Y007356D01*
X008595Y007368D01*
X008583Y007383D01*
X008573Y007399D01*
X008568Y007418D01*
X008566Y007437D01*
X009610Y008395D02*
X010595Y008395D01*
X010595Y009655D01*
X009610Y009655D01*
X009610Y008395D01*
X010727Y008678D02*
X010727Y009622D01*
X011227Y009622D01*
X011227Y008678D01*
X010727Y008678D01*
X011318Y008400D02*
X011318Y007900D01*
X012262Y007900D01*
X012262Y008400D01*
X011318Y008400D01*
X011227Y007685D02*
X011727Y007685D01*
X011727Y006740D01*
X011227Y006740D01*
X011227Y007685D01*
X011852Y007372D02*
X012352Y007372D01*
X012352Y006428D01*
X011852Y006428D01*
X011852Y007372D01*
X012200Y006275D02*
X011255Y006275D01*
X011255Y005775D01*
X012200Y005775D01*
X012200Y006275D01*
X012200Y005650D02*
X012200Y005150D01*
X011255Y005150D01*
X011255Y005650D01*
X012200Y005650D01*
X011665Y005060D02*
X011665Y004115D01*
X011165Y004115D01*
X011165Y005060D01*
X011665Y005060D01*
X010727Y005497D02*
X010227Y005497D01*
X010227Y004553D01*
X010727Y004553D01*
X010727Y005497D01*
X013477Y005803D02*
X013977Y005803D01*
X013977Y006747D01*
X013477Y006747D01*
X013477Y005803D01*
X013600Y005217D02*
X014230Y005217D01*
X014230Y003958D01*
X013600Y003958D01*
X013600Y005217D01*
X015065Y005363D02*
X016640Y005363D01*
X016640Y006937D01*
X015065Y006937D01*
X015065Y005363D01*
X013977Y006928D02*
X013477Y006928D01*
X013477Y007872D01*
X013977Y007872D01*
X013977Y006928D01*
X015165Y009678D02*
X015165Y010622D01*
X015665Y010622D01*
X015665Y009678D01*
X015165Y009678D01*
X015852Y009678D02*
X016352Y009678D01*
X016352Y010622D01*
X015852Y010622D01*
X015852Y009678D01*
X016554Y009874D02*
X016554Y010426D01*
X017401Y010426D01*
X017401Y009874D01*
X016554Y009874D01*
X017127Y010150D02*
X017127Y010400D01*
X017127Y010150D02*
X017377Y010150D01*
X018165Y009678D02*
X018165Y010622D01*
X018665Y010622D01*
X018665Y009678D01*
X018165Y009678D01*
X018852Y010122D02*
X018852Y009178D01*
X019352Y009178D01*
X019352Y010122D01*
X018852Y010122D01*
X019554Y009874D02*
X019554Y010426D01*
X020401Y010426D01*
X020401Y009874D01*
X019554Y009874D01*
X020127Y010150D02*
X020127Y010400D01*
X020127Y010150D02*
X020377Y010150D01*
X021065Y008937D02*
X021065Y007363D01*
X022640Y007363D01*
X022640Y008937D01*
X021065Y008937D01*
X020220Y006905D02*
X019235Y006905D01*
X019235Y005645D01*
X020220Y005645D01*
X020220Y006905D01*
X019095Y006905D02*
X018110Y006905D01*
X018110Y005645D01*
X019095Y005645D01*
X019095Y006905D01*
X017915Y006872D02*
X017415Y006872D01*
X017415Y005928D01*
X017915Y005928D01*
X017915Y006872D01*
X021230Y006375D02*
X021230Y004800D01*
X022475Y004800D01*
X022475Y006375D01*
X021230Y006375D01*
X022345Y004800D02*
X022347Y004819D01*
X022352Y004838D01*
X022362Y004854D01*
X022374Y004869D01*
X022389Y004881D01*
X022405Y004891D01*
X022424Y004896D01*
X022443Y004898D01*
X022462Y004896D01*
X022481Y004891D01*
X022497Y004881D01*
X022512Y004869D01*
X022524Y004854D01*
X022534Y004838D01*
X022539Y004819D01*
X022541Y004800D01*
X022539Y004781D01*
X022534Y004762D01*
X022524Y004746D01*
X022512Y004731D01*
X022497Y004719D01*
X022481Y004709D01*
X022462Y004704D01*
X022443Y004702D01*
X022424Y004704D01*
X022405Y004709D01*
X022389Y004719D01*
X022374Y004731D01*
X022362Y004746D01*
X022352Y004762D01*
X022347Y004781D01*
X022345Y004800D01*
X022727Y004810D02*
X023227Y004810D01*
X023227Y003865D01*
X022727Y003865D01*
X022727Y004810D01*
X023477Y004810D02*
X023977Y004810D01*
X023977Y003865D01*
X023477Y003865D01*
X023477Y004810D01*
X023477Y004928D02*
X023977Y004928D01*
X023977Y005872D01*
X023477Y005872D01*
X023477Y004928D01*
X023610Y006270D02*
X023610Y007530D01*
X024595Y007530D01*
X024595Y006270D01*
X023610Y006270D01*
X024798Y006270D02*
X024798Y007530D01*
X025782Y007530D01*
X025782Y006270D01*
X024798Y006270D01*
X025985Y006270D02*
X025985Y007530D01*
X026970Y007530D01*
X026970Y006270D01*
X025985Y006270D01*
X027321Y007863D02*
X027321Y009437D01*
X028384Y009437D01*
X028384Y007863D01*
X027321Y007863D01*
X028637Y008355D02*
X028637Y008945D01*
X029818Y008945D01*
X029818Y008355D01*
X028637Y008355D01*
X028352Y009150D02*
X027352Y009150D01*
X030005Y009150D02*
X030005Y009650D01*
X030950Y009650D01*
X030950Y009150D01*
X030005Y009150D01*
X025540Y012053D02*
X025040Y012053D01*
X025040Y012997D01*
X025540Y012997D01*
X025540Y012053D01*
X024345Y014270D02*
X023360Y014270D01*
X023360Y015530D01*
X024345Y015530D01*
X024345Y014270D01*
X024610Y014520D02*
X025595Y014520D01*
X025595Y015780D01*
X024610Y015780D01*
X024610Y014520D01*
X022872Y013880D02*
X017833Y013880D01*
X017833Y018920D01*
X022872Y018920D01*
X022872Y013880D01*
X021920Y013402D02*
X021920Y012773D01*
X020660Y012773D01*
X020660Y013402D01*
X021920Y013402D01*
X023848Y016460D02*
X025107Y016460D01*
X025107Y017090D01*
X023848Y017090D01*
X023848Y016460D01*
X024598Y018210D02*
X024598Y018840D01*
X025857Y018840D01*
X025857Y018210D01*
X024598Y018210D01*
X026321Y018437D02*
X026321Y016863D01*
X027384Y016863D01*
X027384Y018437D01*
X026321Y018437D01*
X026352Y018150D02*
X027352Y018150D01*
X027637Y017945D02*
X027637Y017355D01*
X028818Y017355D01*
X028818Y017945D01*
X027637Y017945D01*
X029005Y017900D02*
X029005Y018400D01*
X029950Y018400D01*
X029950Y017900D01*
X029005Y017900D01*
X029824Y020713D02*
X028131Y020713D01*
X028131Y023587D01*
X029824Y023587D01*
X029824Y020713D01*
X027824Y020713D02*
X026131Y020713D01*
X026131Y023587D01*
X027824Y023587D01*
X027824Y020713D01*
X025824Y020713D02*
X024131Y020713D01*
X024131Y023587D01*
X025824Y023587D01*
X025824Y020713D01*
X021398Y026059D02*
X020807Y026059D01*
X020807Y027241D01*
X021398Y027241D01*
X021398Y026059D01*
X021398Y027559D02*
X020807Y027559D01*
X020807Y028741D01*
X021398Y028741D01*
X021398Y027559D01*
X022848Y028210D02*
X022848Y028840D01*
X024107Y028840D01*
X024107Y028210D01*
X022848Y028210D01*
X022140Y029119D02*
X022140Y030181D01*
X020565Y030181D01*
X020565Y029119D01*
X022140Y029119D01*
X021852Y029150D02*
X021852Y030150D01*
X022848Y029965D02*
X022848Y029335D01*
X024107Y029335D01*
X024107Y029965D01*
X022848Y029965D01*
X019167Y025530D02*
X018538Y025530D01*
X018538Y024270D01*
X019167Y024270D01*
X019167Y025530D01*
X017390Y025744D02*
X017390Y026806D01*
X015815Y026806D01*
X015815Y025744D01*
X017390Y025744D01*
X017102Y025775D02*
X017102Y026775D01*
X016898Y025491D02*
X016307Y025491D01*
X016307Y024309D01*
X016898Y024309D01*
X016898Y025491D01*
X016977Y024122D02*
X017477Y024122D01*
X017477Y023178D01*
X016977Y023178D01*
X016977Y024122D01*
X017418Y018331D02*
X014662Y018331D01*
X014662Y015969D01*
X017418Y015969D01*
X017418Y018331D01*
X016540Y018150D02*
X016540Y016150D01*
X016176Y015735D02*
X016176Y015065D01*
X017279Y015065D01*
X017279Y015735D01*
X016176Y015735D01*
X015640Y014625D02*
X014065Y014625D01*
X014065Y013050D01*
X015640Y013050D01*
X015640Y014625D01*
X016571Y014562D02*
X016571Y012988D01*
X017634Y012988D01*
X017634Y014562D01*
X016571Y014562D01*
X016602Y014275D02*
X017602Y014275D01*
X015887Y012713D02*
X015887Y012213D01*
X014943Y012213D01*
X014943Y012713D01*
X015887Y012713D01*
X015568Y012025D02*
X015568Y011525D01*
X016512Y011525D01*
X016512Y012025D01*
X015568Y012025D01*
X014575Y012213D02*
X013630Y012213D01*
X013630Y012713D01*
X014575Y012713D01*
X014575Y012213D01*
X013852Y011497D02*
X013352Y011497D01*
X013352Y010553D01*
X013852Y010553D01*
X013852Y011497D01*
X014040Y010872D02*
X014540Y010872D01*
X014540Y009928D01*
X014040Y009928D01*
X014040Y010872D01*
X013227Y010553D02*
X012727Y010553D01*
X012727Y011497D01*
X013227Y011497D01*
X013227Y010553D01*
X012450Y011150D02*
X012450Y011650D01*
X011505Y011650D01*
X011505Y011150D01*
X012450Y011150D01*
X012477Y011803D02*
X011977Y011803D01*
X011977Y012747D01*
X012477Y012747D01*
X012477Y011803D01*
X011852Y011803D02*
X011352Y011803D01*
X011352Y012747D01*
X011852Y012747D01*
X011852Y011803D01*
X011137Y011713D02*
X011137Y012213D01*
X010193Y012213D01*
X010193Y011713D01*
X011137Y011713D01*
X010852Y012678D02*
X010352Y012678D01*
X010352Y013622D01*
X010852Y013622D01*
X010852Y012678D01*
X009727Y013053D02*
X009727Y013997D01*
X009227Y013997D01*
X009227Y013053D01*
X009727Y013053D01*
X010380Y013775D02*
X010380Y014275D01*
X011325Y014275D01*
X011325Y013775D01*
X010380Y013775D01*
X010380Y014400D02*
X010380Y014900D01*
X011325Y014900D01*
X011325Y014400D01*
X010380Y014400D01*
X010852Y014990D02*
X010852Y015935D01*
X011352Y015935D01*
X011352Y014990D01*
X010852Y014990D01*
X010727Y015240D02*
X010227Y015240D01*
X010227Y016185D01*
X010727Y016185D01*
X010727Y015240D01*
X010443Y016400D02*
X010443Y016900D01*
X011387Y016900D01*
X011387Y016400D01*
X010443Y016400D01*
X010227Y016678D02*
X009727Y016678D01*
X009727Y017622D01*
X010227Y017622D01*
X010227Y016678D01*
X009595Y016895D02*
X009595Y018155D01*
X008610Y018155D01*
X008610Y016895D01*
X009595Y016895D01*
X009238Y016134D02*
X007467Y016134D01*
X007467Y014166D01*
X009238Y014166D01*
X009238Y016134D01*
X008409Y016897D02*
X008409Y019653D01*
X006046Y019653D01*
X006046Y016897D01*
X008409Y016897D01*
X007566Y015937D02*
X007568Y015956D01*
X007573Y015975D01*
X007583Y015991D01*
X007595Y016006D01*
X007610Y016018D01*
X007626Y016028D01*
X007645Y016033D01*
X007664Y016035D01*
X007683Y016033D01*
X007702Y016028D01*
X007718Y016018D01*
X007733Y016006D01*
X007745Y015991D01*
X007755Y015975D01*
X007760Y015956D01*
X007762Y015937D01*
X007760Y015918D01*
X007755Y015899D01*
X007745Y015883D01*
X007733Y015868D01*
X007718Y015856D01*
X007702Y015846D01*
X007683Y015841D01*
X007664Y015839D01*
X007645Y015841D01*
X007626Y015846D01*
X007610Y015856D01*
X007595Y015868D01*
X007583Y015883D01*
X007573Y015899D01*
X007568Y015918D01*
X007566Y015937D01*
X005941Y015213D02*
X003264Y015213D01*
X003264Y018087D01*
X005941Y018087D01*
X005941Y015213D01*
X006505Y014025D02*
X007450Y014025D01*
X007450Y013525D01*
X006505Y013525D01*
X006505Y014025D01*
X006598Y013340D02*
X006598Y012710D01*
X007857Y012710D01*
X007857Y013340D01*
X006598Y013340D01*
X007227Y010275D02*
X009227Y010275D01*
X017849Y002650D02*
X018349Y002650D01*
X018349Y002150D01*
X020349Y002150D01*
X020349Y002650D01*
X020849Y002650D01*
X020849Y000450D01*
X017849Y000450D01*
X017849Y002650D01*
X018349Y002650D02*
X020349Y002650D01*
X020977Y002178D02*
X021477Y002178D01*
X021477Y003122D01*
X020977Y003122D01*
X020977Y002178D01*
X035799Y011865D02*
X035799Y017435D01*
X037157Y017435D01*
X037157Y011865D01*
X035799Y011865D01*
X036173Y012435D02*
X036173Y012681D01*
X035927Y012681D01*
X035799Y020357D02*
X035799Y024943D01*
X037157Y024943D01*
X037157Y020357D01*
X035799Y020357D01*
X035927Y020681D02*
X036173Y020681D01*
X036173Y020435D01*
X017646Y033158D02*
X017646Y034516D01*
X013059Y034516D01*
X013059Y033158D01*
X017646Y033158D01*
X013384Y034142D02*
X013384Y034388D01*
X013384Y034142D02*
X013138Y034142D01*
X008404Y028985D02*
X008404Y028315D01*
X007301Y028315D01*
X007301Y028985D01*
X008404Y028985D01*
X008602Y028122D02*
X009102Y028122D01*
X009102Y027178D01*
X008602Y027178D01*
X008602Y028122D01*
X006477Y026400D02*
X006479Y026422D01*
X006485Y026443D01*
X006494Y026462D01*
X006506Y026480D01*
X006522Y026496D01*
X006539Y026508D01*
X006559Y026517D01*
X006580Y026523D01*
X006602Y026525D01*
X006624Y026523D01*
X006645Y026517D01*
X006664Y026508D01*
X006682Y026496D01*
X006698Y026480D01*
X006710Y026462D01*
X006719Y026443D01*
X006725Y026422D01*
X006727Y026400D01*
X006725Y026378D01*
X006719Y026357D01*
X006710Y026338D01*
X006698Y026320D01*
X006682Y026304D01*
X006665Y026292D01*
X006645Y026283D01*
X006624Y026277D01*
X006602Y026275D01*
X006580Y026277D01*
X006559Y026283D01*
X006539Y026292D01*
X006522Y026304D01*
X006506Y026320D01*
X006494Y026337D01*
X006485Y026357D01*
X006479Y026378D01*
X006477Y026400D01*
X006102Y027178D02*
X005602Y027178D01*
X005602Y028122D01*
X006102Y028122D01*
X006102Y027178D01*
X004404Y028315D02*
X004404Y028985D01*
X003301Y028985D01*
X003301Y028315D01*
X004404Y028315D01*
X003477Y026400D02*
X003479Y026422D01*
X003485Y026443D01*
X003494Y026462D01*
X003506Y026480D01*
X003522Y026496D01*
X003539Y026508D01*
X003559Y026517D01*
X003580Y026523D01*
X003602Y026525D01*
X003624Y026523D01*
X003645Y026517D01*
X003664Y026508D01*
X003682Y026496D01*
X003698Y026480D01*
X003710Y026462D01*
X003719Y026443D01*
X003725Y026422D01*
X003727Y026400D01*
X003725Y026378D01*
X003719Y026357D01*
X003710Y026338D01*
X003698Y026320D01*
X003682Y026304D01*
X003665Y026292D01*
X003645Y026283D01*
X003624Y026277D01*
X003602Y026275D01*
X003580Y026277D01*
X003559Y026283D01*
X003539Y026292D01*
X003522Y026304D01*
X003506Y026320D01*
X003494Y026337D01*
X003485Y026357D01*
X003479Y026378D01*
X003477Y026400D01*
X005727Y024122D02*
X006227Y024122D01*
X006227Y023178D01*
X005727Y023178D01*
X005727Y024122D01*
X006880Y023400D02*
X007825Y023400D01*
X007825Y022900D01*
X006880Y022900D01*
X006880Y023400D01*
X009130Y023400D02*
X009130Y023900D01*
X010075Y023900D01*
X010075Y023400D01*
X009130Y023400D01*
X004102Y023622D02*
X004102Y022678D01*
X003602Y022678D01*
X003602Y023622D01*
X004102Y023622D01*
X006227Y018775D02*
X008227Y018775D01*
D12*
X012944Y033662D02*
X013251Y033662D01*
X013097Y033662D02*
X013097Y034123D01*
X012944Y033969D01*
X025727Y020477D02*
X025727Y020170D01*
X025574Y020323D02*
X025881Y020323D01*
X027574Y020323D02*
X027881Y020323D01*
X027727Y020170D02*
X027727Y020477D01*
X029574Y020323D02*
X029881Y020323D01*
X029727Y020170D02*
X029727Y020477D01*
X036192Y020395D02*
X036346Y020241D01*
X036192Y020395D02*
X036653Y020395D01*
X036653Y020548D02*
X036653Y020241D01*
X036653Y012548D02*
X036653Y012241D01*
X036653Y012395D02*
X036192Y012395D01*
X036346Y012241D01*
D13*
X035492Y005354D02*
X033142Y005354D01*
X033142Y031954D01*
X035492Y031954D01*
X035492Y005354D01*
M02*
