G75*
G70*
%OFA0B0*%
%FSLAX24Y24*%
%IPPOS*%
%LPD*%
%AMOC8*
5,1,8,0,0,1.08239X$1,22.5*
%
%ADD10C,0.2300*%
%ADD11C,0.0660*%
%ADD12C,0.0600*%
%ADD13C,0.1500*%
%ADD14C,0.0461*%
%ADD15C,0.0850*%
%ADD16C,0.0100*%
%ADD17C,0.0396*%
%ADD18C,0.0278*%
%ADD19C,0.0160*%
%ADD20C,0.0317*%
%ADD21C,0.0120*%
%ADD22C,0.0357*%
%ADD23C,0.0320*%
%ADD24C,0.0475*%
%ADD25C,0.0450*%
D10*
X003693Y003693D03*
X033615Y003693D03*
X033615Y033615D03*
X003693Y033615D03*
D11*
X019150Y026900D03*
X019150Y025900D03*
X025650Y012650D03*
X025650Y011650D03*
X002650Y017025D03*
X002650Y018025D03*
D12*
X033115Y018154D03*
X033115Y017154D03*
X034115Y017154D03*
X034115Y018154D03*
X034115Y019154D03*
X034115Y020154D03*
X034115Y021154D03*
X034115Y022154D03*
X034115Y023154D03*
X034115Y024154D03*
X034115Y025154D03*
X034115Y026154D03*
X034115Y027154D03*
X034115Y028154D03*
X034115Y029154D03*
X034115Y030154D03*
X034115Y031154D03*
X033115Y031154D03*
X033115Y030154D03*
X033115Y029154D03*
X033115Y028154D03*
X033115Y027154D03*
X033115Y026154D03*
X033115Y025154D03*
X033115Y024154D03*
X033115Y023154D03*
X033115Y022154D03*
X033115Y021154D03*
X033115Y020154D03*
X033115Y019154D03*
X033115Y016154D03*
X034115Y016154D03*
X034115Y015154D03*
X034115Y014154D03*
X034115Y013154D03*
X034115Y012154D03*
X034115Y011154D03*
X034115Y010154D03*
X034115Y009154D03*
X034115Y008154D03*
X034115Y007154D03*
X034115Y006154D03*
X033115Y006154D03*
X033115Y007154D03*
X033115Y008154D03*
X033115Y009154D03*
X033115Y010154D03*
X033115Y011154D03*
X033115Y012154D03*
X033115Y013154D03*
X033115Y014154D03*
X033115Y015154D03*
D13*
X030855Y025563D03*
X026804Y025563D03*
X024433Y025563D03*
D14*
X022392Y022380D02*
X022392Y021920D01*
X021408Y021920D02*
X021408Y022380D01*
X019380Y029158D02*
X018920Y029158D01*
X018920Y030142D02*
X019380Y030142D01*
X009150Y029380D02*
X009150Y028920D01*
X008150Y028920D02*
X008150Y029380D01*
X007150Y029380D02*
X007150Y028920D01*
X020650Y007880D02*
X020650Y007420D01*
X021650Y007420D02*
X021650Y007880D01*
X022650Y007880D02*
X022650Y007420D01*
X025158Y007420D02*
X025158Y007880D01*
X026142Y007880D02*
X026142Y007420D01*
D15*
X002650Y020150D03*
D16*
X000798Y000840D02*
X027653Y000840D01*
X027653Y000938D02*
X000721Y000938D01*
X000751Y000886D02*
X000656Y001051D01*
X000606Y001236D01*
X000600Y001331D01*
X000600Y033615D01*
X000606Y033710D01*
X000656Y033894D01*
X000751Y034060D01*
X000886Y034195D01*
X001051Y034290D01*
X001236Y034339D01*
X001331Y034346D01*
X002019Y034346D01*
X002019Y031998D01*
X002077Y031940D01*
X005310Y031940D01*
X005368Y031998D01*
X005368Y034346D01*
X031940Y034346D01*
X031940Y031998D01*
X031998Y031940D01*
X035231Y031940D01*
X035289Y031998D01*
X035289Y034346D01*
X035977Y034346D01*
X036072Y034339D01*
X036257Y034290D01*
X036422Y034195D01*
X036557Y034060D01*
X036652Y033894D01*
X036702Y033710D01*
X036708Y033615D01*
X036708Y003693D01*
X036702Y003598D01*
X036652Y003414D01*
X036557Y003248D01*
X036422Y003113D01*
X036257Y003018D01*
X036072Y002968D01*
X035977Y002962D01*
X035289Y002962D01*
X035289Y005310D01*
X035231Y005368D01*
X031998Y005368D01*
X031940Y005310D01*
X031940Y002962D01*
X028694Y002962D01*
X028321Y002841D01*
X028004Y002611D01*
X028004Y002611D01*
X028004Y002611D01*
X027774Y002294D01*
X027774Y002294D01*
X027653Y001921D01*
X027653Y000600D01*
X001331Y000600D01*
X001236Y000606D01*
X001051Y000656D01*
X000886Y000751D01*
X000751Y000886D01*
X000664Y001037D02*
X027653Y001037D01*
X027653Y001135D02*
X000633Y001135D01*
X000607Y001234D02*
X027653Y001234D01*
X027653Y001332D02*
X000600Y001332D01*
X000600Y001431D02*
X027653Y001431D01*
X027653Y001529D02*
X000600Y001529D01*
X000600Y001628D02*
X027653Y001628D01*
X027653Y001726D02*
X018296Y001726D01*
X018239Y001703D02*
X018403Y001771D01*
X018413Y001780D01*
X018724Y001780D01*
X018860Y001836D01*
X020860Y003836D01*
X020964Y003940D01*
X021020Y004076D01*
X021020Y007167D01*
X021023Y007170D01*
X021090Y007332D01*
X021090Y007968D01*
X021023Y008130D01*
X020899Y008254D01*
X020738Y008321D01*
X020562Y008321D01*
X020401Y008254D01*
X020277Y008130D01*
X020210Y007968D01*
X020210Y007332D01*
X020277Y007170D01*
X020280Y007167D01*
X020280Y004303D01*
X019994Y004017D01*
X020019Y004077D01*
X020019Y004223D01*
X019963Y004359D01*
X019908Y004414D01*
X019946Y004452D01*
X019999Y004581D01*
X019999Y004719D01*
X019946Y004848D01*
X019848Y004946D01*
X019719Y004999D01*
X019581Y004999D01*
X019452Y004946D01*
X019426Y004920D01*
X018846Y004920D01*
X018747Y004879D01*
X018671Y004803D01*
X018163Y004295D01*
X016471Y004295D01*
X016372Y004254D01*
X016361Y004242D01*
X016344Y004249D01*
X016206Y004249D01*
X016077Y004196D01*
X015979Y004098D01*
X015926Y003969D01*
X015926Y003831D01*
X015979Y003702D01*
X015991Y003690D01*
X015134Y003690D01*
X014223Y004487D01*
X014189Y004521D01*
X014180Y004525D01*
X014173Y004531D01*
X014127Y004547D01*
X014083Y004565D01*
X014073Y004565D01*
X014063Y004568D01*
X014015Y004565D01*
X013979Y004565D01*
X013973Y004571D01*
X013844Y004624D01*
X013706Y004624D01*
X013670Y004609D01*
X013670Y006926D01*
X013696Y006952D01*
X013749Y007081D01*
X013749Y007219D01*
X013696Y007348D01*
X013684Y007360D01*
X017891Y007360D01*
X017930Y007321D01*
X018073Y007262D01*
X018227Y007262D01*
X018370Y007321D01*
X018479Y007430D01*
X018538Y007573D01*
X018538Y007727D01*
X018479Y007870D01*
X018370Y007979D01*
X018227Y008038D01*
X018073Y008038D01*
X017930Y007979D01*
X017891Y007940D01*
X017618Y007940D01*
X017624Y007956D01*
X017624Y008094D01*
X017571Y008223D01*
X017473Y008321D01*
X017344Y008374D01*
X017206Y008374D01*
X017077Y008321D01*
X017051Y008295D01*
X016499Y008295D01*
X016473Y008321D01*
X016344Y008374D01*
X016206Y008374D01*
X016077Y008321D01*
X015979Y008223D01*
X015926Y008094D01*
X015926Y007956D01*
X015932Y007940D01*
X009381Y007940D01*
X009359Y007963D01*
X009223Y008019D01*
X009077Y008019D01*
X008941Y007963D01*
X008837Y007859D01*
X008781Y007723D01*
X008781Y007577D01*
X008837Y007441D01*
X008941Y007337D01*
X009077Y007281D01*
X009223Y007281D01*
X009359Y007337D01*
X009381Y007360D01*
X013116Y007360D01*
X013104Y007348D01*
X013051Y007219D01*
X013051Y007081D01*
X013104Y006952D01*
X013130Y006926D01*
X013130Y003846D01*
X013171Y003747D01*
X013183Y003736D01*
X013176Y003719D01*
X013176Y003581D01*
X013229Y003452D01*
X013327Y003354D01*
X013456Y003301D01*
X013594Y003301D01*
X013723Y003354D01*
X013821Y003452D01*
X013874Y003581D01*
X013874Y003719D01*
X013821Y003848D01*
X013763Y003905D01*
X013755Y003926D01*
X013844Y003926D01*
X013939Y003965D01*
X014827Y003188D01*
X014861Y003154D01*
X014870Y003150D01*
X014877Y003144D01*
X014923Y003128D01*
X014967Y003110D01*
X014977Y003110D01*
X014987Y003107D01*
X015035Y003110D01*
X018583Y003110D01*
X018689Y003154D01*
X019395Y003860D01*
X019419Y003860D01*
X019441Y003837D01*
X019577Y003781D01*
X019723Y003781D01*
X019783Y003806D01*
X018497Y002520D01*
X018413Y002520D01*
X018403Y002529D01*
X018239Y002597D01*
X018061Y002597D01*
X017897Y002529D01*
X017771Y002403D01*
X017703Y002239D01*
X017703Y002061D01*
X017771Y001897D01*
X017897Y001771D01*
X018061Y001703D01*
X018239Y001703D01*
X018004Y001726D02*
X000600Y001726D01*
X000600Y001825D02*
X017843Y001825D01*
X017760Y001923D02*
X000600Y001923D01*
X000600Y002022D02*
X002074Y002022D01*
X002077Y002019D02*
X005310Y002019D01*
X005368Y002077D01*
X005368Y005310D01*
X005310Y005368D01*
X002077Y005368D01*
X002019Y005310D01*
X002019Y005227D01*
X002019Y002160D01*
X002019Y002077D01*
X002077Y002019D01*
X002019Y002120D02*
X000600Y002120D01*
X000600Y002219D02*
X002019Y002219D01*
X002019Y002317D02*
X000600Y002317D01*
X000600Y002416D02*
X002019Y002416D01*
X002019Y002514D02*
X000600Y002514D01*
X000600Y002613D02*
X002019Y002613D01*
X002019Y002711D02*
X000600Y002711D01*
X000600Y002810D02*
X002019Y002810D01*
X002019Y002908D02*
X000600Y002908D01*
X000600Y003007D02*
X002019Y003007D01*
X002019Y003105D02*
X000600Y003105D01*
X000600Y003204D02*
X002019Y003204D01*
X002019Y003302D02*
X000600Y003302D01*
X000600Y003401D02*
X002019Y003401D01*
X002019Y003499D02*
X000600Y003499D01*
X000600Y003598D02*
X002019Y003598D01*
X002019Y003696D02*
X000600Y003696D01*
X000600Y003795D02*
X002019Y003795D01*
X002019Y003893D02*
X000600Y003893D01*
X000600Y003992D02*
X002019Y003992D01*
X002019Y004090D02*
X000600Y004090D01*
X000600Y004189D02*
X002019Y004189D01*
X002019Y004287D02*
X000600Y004287D01*
X000600Y004386D02*
X002019Y004386D01*
X002019Y004484D02*
X000600Y004484D01*
X000600Y004583D02*
X002019Y004583D01*
X002019Y004681D02*
X000600Y004681D01*
X000600Y004780D02*
X002019Y004780D01*
X002019Y004878D02*
X000600Y004878D01*
X000600Y004977D02*
X002019Y004977D01*
X002019Y005075D02*
X000600Y005075D01*
X000600Y005174D02*
X002019Y005174D01*
X002019Y005272D02*
X000600Y005272D01*
X000600Y005371D02*
X010485Y005371D01*
X010485Y005469D02*
X000600Y005469D01*
X000600Y005568D02*
X010485Y005568D01*
X010485Y005666D02*
X000600Y005666D01*
X000600Y005765D02*
X010485Y005765D01*
X010485Y005863D02*
X000600Y005863D01*
X000600Y005962D02*
X010482Y005962D01*
X010485Y005959D02*
X010485Y003686D01*
X010469Y003648D01*
X010469Y003510D01*
X010522Y003381D01*
X010620Y003283D01*
X010749Y003230D01*
X010805Y003230D01*
X010801Y003219D01*
X010801Y003081D01*
X010854Y002952D01*
X010952Y002854D01*
X011081Y002801D01*
X011219Y002801D01*
X011348Y002854D01*
X011446Y002952D01*
X011499Y003081D01*
X011499Y003219D01*
X011446Y003348D01*
X011420Y003374D01*
X011420Y006301D01*
X011446Y006327D01*
X011499Y006456D01*
X011499Y006594D01*
X011446Y006723D01*
X011348Y006821D01*
X011219Y006874D01*
X011081Y006874D01*
X010952Y006821D01*
X010854Y006723D01*
X010801Y006594D01*
X010801Y006532D01*
X010685Y006532D01*
X010557Y006478D01*
X010459Y006380D01*
X010405Y006252D01*
X010405Y006113D01*
X010459Y005985D01*
X010485Y005959D01*
X010427Y006060D02*
X000600Y006060D01*
X000600Y006159D02*
X010405Y006159D01*
X010408Y006257D02*
X000600Y006257D01*
X000600Y006356D02*
X010448Y006356D01*
X010532Y006454D02*
X000600Y006454D01*
X000600Y006553D02*
X010801Y006553D01*
X010824Y006651D02*
X000600Y006651D01*
X000600Y006750D02*
X010881Y006750D01*
X011018Y006848D02*
X000600Y006848D01*
X000600Y006947D02*
X013110Y006947D01*
X013130Y006848D02*
X011282Y006848D01*
X011419Y006750D02*
X013130Y006750D01*
X013130Y006651D02*
X011476Y006651D01*
X011499Y006553D02*
X013130Y006553D01*
X013130Y006454D02*
X011498Y006454D01*
X011458Y006356D02*
X013130Y006356D01*
X013130Y006257D02*
X011420Y006257D01*
X011420Y006159D02*
X013130Y006159D01*
X013130Y006060D02*
X011420Y006060D01*
X011420Y005962D02*
X013130Y005962D01*
X013130Y005863D02*
X011420Y005863D01*
X011420Y005765D02*
X013130Y005765D01*
X013130Y005666D02*
X011420Y005666D01*
X011420Y005568D02*
X013130Y005568D01*
X013130Y005469D02*
X011420Y005469D01*
X011420Y005371D02*
X013130Y005371D01*
X013130Y005272D02*
X011420Y005272D01*
X011420Y005174D02*
X013130Y005174D01*
X013130Y005075D02*
X011420Y005075D01*
X011420Y004977D02*
X013130Y004977D01*
X013130Y004878D02*
X011420Y004878D01*
X011420Y004780D02*
X013130Y004780D01*
X013130Y004681D02*
X011420Y004681D01*
X011420Y004583D02*
X013130Y004583D01*
X013130Y004484D02*
X011420Y004484D01*
X011420Y004386D02*
X013130Y004386D01*
X013130Y004287D02*
X011420Y004287D01*
X011420Y004189D02*
X013130Y004189D01*
X013130Y004090D02*
X011420Y004090D01*
X011420Y003992D02*
X013130Y003992D01*
X013130Y003893D02*
X011420Y003893D01*
X011420Y003795D02*
X013151Y003795D01*
X013176Y003696D02*
X011420Y003696D01*
X011420Y003598D02*
X013176Y003598D01*
X013210Y003499D02*
X011420Y003499D01*
X011420Y003401D02*
X013281Y003401D01*
X013453Y003302D02*
X011465Y003302D01*
X011499Y003204D02*
X014809Y003204D01*
X014697Y003302D02*
X013597Y003302D01*
X013769Y003401D02*
X014584Y003401D01*
X014471Y003499D02*
X013840Y003499D01*
X013874Y003598D02*
X014359Y003598D01*
X014246Y003696D02*
X013874Y003696D01*
X013843Y003795D02*
X014134Y003795D01*
X014021Y003893D02*
X013776Y003893D01*
X014227Y004484D02*
X018352Y004484D01*
X018254Y004386D02*
X014339Y004386D01*
X014452Y004287D02*
X016452Y004287D01*
X016070Y004189D02*
X014564Y004189D01*
X014677Y004090D02*
X015976Y004090D01*
X015935Y003992D02*
X014789Y003992D01*
X014902Y003893D02*
X015926Y003893D01*
X015941Y003795D02*
X015015Y003795D01*
X015127Y003696D02*
X015985Y003696D01*
X017783Y002416D02*
X005368Y002416D01*
X005368Y002514D02*
X017881Y002514D01*
X017735Y002317D02*
X005368Y002317D01*
X005368Y002219D02*
X017703Y002219D01*
X017703Y002120D02*
X005368Y002120D01*
X005313Y002022D02*
X017719Y002022D01*
X018589Y002613D02*
X005368Y002613D01*
X005368Y002711D02*
X018688Y002711D01*
X018786Y002810D02*
X011240Y002810D01*
X011060Y002810D02*
X005368Y002810D01*
X005368Y002908D02*
X010898Y002908D01*
X010832Y003007D02*
X005368Y003007D01*
X005368Y003105D02*
X010801Y003105D01*
X010801Y003204D02*
X005368Y003204D01*
X005368Y003302D02*
X010601Y003302D01*
X010514Y003401D02*
X005368Y003401D01*
X005368Y003499D02*
X010473Y003499D01*
X010469Y003598D02*
X005368Y003598D01*
X005368Y003696D02*
X010485Y003696D01*
X010485Y003795D02*
X005368Y003795D01*
X005368Y003893D02*
X010485Y003893D01*
X010485Y003992D02*
X005368Y003992D01*
X005368Y004090D02*
X010485Y004090D01*
X010485Y004189D02*
X005368Y004189D01*
X005368Y004287D02*
X010485Y004287D01*
X010485Y004386D02*
X005368Y004386D01*
X005368Y004484D02*
X010485Y004484D01*
X010485Y004583D02*
X005368Y004583D01*
X005368Y004681D02*
X010485Y004681D01*
X010485Y004780D02*
X005368Y004780D01*
X005368Y004878D02*
X010485Y004878D01*
X010485Y004977D02*
X005368Y004977D01*
X005368Y005075D02*
X010485Y005075D01*
X010485Y005174D02*
X005368Y005174D01*
X005368Y005272D02*
X010485Y005272D01*
X009362Y007341D02*
X013101Y007341D01*
X013060Y007242D02*
X000600Y007242D01*
X000600Y007144D02*
X013051Y007144D01*
X013066Y007045D02*
X000600Y007045D01*
X000600Y007341D02*
X008938Y007341D01*
X008840Y007439D02*
X000600Y007439D01*
X000600Y007538D02*
X008797Y007538D01*
X008781Y007636D02*
X000600Y007636D01*
X000600Y007735D02*
X008786Y007735D01*
X008827Y007833D02*
X000600Y007833D01*
X000600Y007932D02*
X008910Y007932D01*
X006285Y011167D02*
X006383Y011265D01*
X006437Y011393D01*
X006437Y011532D01*
X006383Y011660D01*
X006285Y011758D01*
X006157Y011812D01*
X006018Y011812D01*
X005890Y011758D01*
X005884Y011752D01*
X005280Y011752D01*
X005173Y011708D01*
X005046Y011581D01*
X005014Y011581D01*
X004879Y011525D01*
X004775Y011421D01*
X004719Y011286D01*
X004719Y011139D01*
X004775Y011004D01*
X004879Y010900D01*
X005014Y010844D01*
X005161Y010844D01*
X005296Y010900D01*
X005400Y011004D01*
X005456Y011139D01*
X005456Y011171D01*
X005458Y011173D01*
X005884Y011173D01*
X005890Y011167D01*
X006018Y011113D01*
X006157Y011113D01*
X006285Y011167D01*
X006301Y011182D02*
X025369Y011182D01*
X025344Y011192D02*
X025543Y011110D01*
X025757Y011110D01*
X025956Y011192D01*
X026108Y011344D01*
X026190Y011543D01*
X026190Y011757D01*
X026108Y011956D01*
X025956Y012108D01*
X025854Y012150D01*
X025956Y012192D01*
X026108Y012344D01*
X026190Y012543D01*
X026190Y012757D01*
X026108Y012956D01*
X025956Y013108D01*
X025757Y013190D01*
X025543Y013190D01*
X025344Y013108D01*
X025192Y012956D01*
X025110Y012757D01*
X025110Y012543D01*
X025192Y012344D01*
X025344Y012192D01*
X025446Y012150D01*
X025344Y012108D01*
X025321Y012085D01*
X024830Y012085D01*
X024585Y012330D01*
X024585Y016360D01*
X027208Y016360D01*
X027314Y016404D01*
X027396Y016486D01*
X027652Y016742D01*
X027731Y016742D01*
X027881Y016804D01*
X027996Y016919D01*
X028058Y017069D01*
X028058Y017231D01*
X028005Y017360D01*
X028030Y017360D01*
X028860Y016530D01*
X028860Y014437D01*
X028804Y014381D01*
X028742Y014231D01*
X028742Y014069D01*
X028804Y013919D01*
X028919Y013804D01*
X029069Y013742D01*
X029231Y013742D01*
X029381Y013804D01*
X029496Y013919D01*
X029558Y014069D01*
X029558Y014231D01*
X029496Y014381D01*
X029440Y014437D01*
X029440Y016708D01*
X029396Y016814D01*
X028396Y017814D01*
X028314Y017896D01*
X028208Y017940D01*
X025270Y017940D01*
X024896Y018314D01*
X024440Y018770D01*
X024440Y019530D01*
X024814Y019904D01*
X024896Y019986D01*
X024940Y020092D01*
X024940Y022030D01*
X025270Y022360D01*
X026208Y022360D01*
X026314Y022404D01*
X026691Y022781D01*
X026723Y022781D01*
X026859Y022837D01*
X026963Y022941D01*
X027019Y023077D01*
X027019Y023223D01*
X026963Y023359D01*
X026859Y023463D01*
X026723Y023519D01*
X026679Y023519D01*
X026895Y023735D01*
X027155Y023735D01*
X027156Y023734D01*
X027156Y023702D01*
X027212Y023566D01*
X027316Y023462D01*
X027452Y023406D01*
X027598Y023406D01*
X027734Y023462D01*
X027838Y023566D01*
X027894Y023702D01*
X027894Y023848D01*
X027838Y023984D01*
X027734Y024088D01*
X027598Y024144D01*
X027566Y024144D01*
X027439Y024271D01*
X027333Y024315D01*
X026717Y024315D01*
X026611Y024271D01*
X026529Y024189D01*
X025780Y023440D01*
X025092Y023440D01*
X024986Y023396D01*
X000600Y023396D01*
X000600Y023298D02*
X024887Y023298D01*
X024904Y023314D02*
X023905Y022315D01*
X023631Y022315D01*
X023609Y022338D01*
X023473Y022394D01*
X023327Y022394D01*
X023191Y022338D01*
X023087Y022234D01*
X023031Y022098D01*
X023031Y021952D01*
X023087Y021816D01*
X023191Y021712D01*
X023327Y021656D01*
X023473Y021656D01*
X023609Y021712D01*
X023631Y021735D01*
X024083Y021735D01*
X024189Y021779D01*
X024360Y021950D01*
X024360Y020483D01*
X024227Y020538D01*
X024073Y020538D01*
X023930Y020479D01*
X023821Y020370D01*
X023762Y020227D01*
X023762Y020172D01*
X023404Y019814D01*
X022780Y019190D01*
X020284Y019190D01*
X020245Y019229D01*
X020102Y019288D01*
X019948Y019288D01*
X019805Y019229D01*
X019696Y019120D01*
X019637Y018977D01*
X019637Y018823D01*
X019696Y018680D01*
X019805Y018571D01*
X019948Y018512D01*
X020012Y018512D01*
X020012Y018448D01*
X020071Y018305D01*
X020180Y018196D01*
X020323Y018137D01*
X020477Y018137D01*
X020512Y018151D01*
X020512Y018073D01*
X020571Y017930D01*
X020680Y017821D01*
X020823Y017762D01*
X020962Y017762D01*
X020953Y017739D01*
X020953Y017561D01*
X021021Y017397D01*
X021147Y017271D01*
X021311Y017203D01*
X021489Y017203D01*
X021519Y017215D01*
X022970Y017215D01*
X023715Y016470D01*
X023715Y012063D01*
X023781Y011904D01*
X024281Y011404D01*
X024404Y011281D01*
X024563Y011215D01*
X025321Y011215D01*
X025344Y011192D01*
X025931Y011182D02*
X030272Y011182D01*
X030370Y011281D02*
X026044Y011281D01*
X026122Y011379D02*
X030469Y011379D01*
X030567Y011478D02*
X026163Y011478D01*
X026190Y011576D02*
X030666Y011576D01*
X030764Y011675D02*
X026190Y011675D01*
X026184Y011773D02*
X030802Y011773D01*
X030781Y011723D02*
X030781Y011691D01*
X030109Y011019D01*
X030077Y011019D01*
X029941Y010963D01*
X029837Y010859D01*
X029781Y010723D01*
X029781Y010577D01*
X029837Y010441D01*
X029941Y010337D01*
X030077Y010281D01*
X030223Y010281D01*
X030359Y010337D01*
X030463Y010441D01*
X030519Y010577D01*
X030519Y010609D01*
X031191Y011281D01*
X031223Y011281D01*
X031359Y011337D01*
X031360Y011339D01*
X031360Y010770D01*
X030589Y009999D01*
X030581Y009999D01*
X030452Y009946D01*
X030354Y009848D01*
X030301Y009719D01*
X030301Y009581D01*
X030354Y009452D01*
X030452Y009354D01*
X030581Y009301D01*
X030719Y009301D01*
X030745Y009311D01*
X030827Y009229D01*
X030956Y009176D01*
X031094Y009176D01*
X031223Y009229D01*
X031321Y009327D01*
X031374Y009456D01*
X031374Y009464D01*
X031630Y009720D01*
X031630Y009271D01*
X031323Y008999D01*
X031267Y008999D01*
X031139Y008946D01*
X031041Y008848D01*
X030987Y008719D01*
X030987Y008581D01*
X031041Y008452D01*
X031139Y008354D01*
X031267Y008301D01*
X031335Y008301D01*
X031301Y008219D01*
X031301Y008081D01*
X031354Y007952D01*
X031452Y007854D01*
X031581Y007801D01*
X031719Y007801D01*
X031848Y007854D01*
X031946Y007952D01*
X031999Y008081D01*
X031999Y008117D01*
X032379Y008497D01*
X032420Y008596D01*
X032420Y009038D01*
X032605Y009223D01*
X032605Y009052D01*
X032682Y008865D01*
X032826Y008722D01*
X032989Y008654D01*
X032826Y008586D01*
X032682Y008443D01*
X032605Y008255D01*
X032605Y008052D01*
X032682Y007865D01*
X032826Y007722D01*
X032989Y007654D01*
X032826Y007586D01*
X032682Y007443D01*
X032605Y007255D01*
X032605Y007052D01*
X032682Y006865D01*
X032826Y006722D01*
X033013Y006644D01*
X033216Y006644D01*
X033403Y006722D01*
X033547Y006865D01*
X033615Y007028D01*
X033682Y006865D01*
X033826Y006722D01*
X034013Y006644D01*
X034216Y006644D01*
X034403Y006722D01*
X034547Y006865D01*
X034625Y007052D01*
X034625Y007255D01*
X034547Y007443D01*
X034403Y007586D01*
X034240Y007654D01*
X034403Y007722D01*
X034547Y007865D01*
X034625Y008052D01*
X034625Y008255D01*
X034547Y008443D01*
X034403Y008586D01*
X034240Y008654D01*
X034403Y008722D01*
X034547Y008865D01*
X034625Y009052D01*
X034625Y009255D01*
X034547Y009443D01*
X034403Y009586D01*
X034240Y009654D01*
X034403Y009722D01*
X034547Y009865D01*
X034625Y010052D01*
X034625Y010255D01*
X034547Y010443D01*
X034403Y010586D01*
X034240Y010654D01*
X034403Y010722D01*
X034547Y010865D01*
X034625Y011052D01*
X034625Y011255D01*
X034620Y011267D01*
X034781Y011105D01*
X034781Y011077D01*
X034837Y010941D01*
X034941Y010837D01*
X035077Y010781D01*
X035223Y010781D01*
X035359Y010837D01*
X035463Y010941D01*
X035519Y011077D01*
X035519Y011223D01*
X035463Y011359D01*
X035359Y011463D01*
X035223Y011519D01*
X035132Y011519D01*
X034617Y012034D01*
X034625Y012052D01*
X034625Y012255D01*
X034547Y012443D01*
X034403Y012586D01*
X034240Y012654D01*
X034403Y012722D01*
X034547Y012865D01*
X034625Y013052D01*
X034625Y013255D01*
X034547Y013443D01*
X034403Y013586D01*
X034240Y013654D01*
X034403Y013722D01*
X034547Y013865D01*
X034625Y014052D01*
X034625Y014255D01*
X034547Y014443D01*
X034403Y014586D01*
X034240Y014654D01*
X034403Y014722D01*
X034547Y014865D01*
X034625Y015052D01*
X034625Y015255D01*
X034547Y015443D01*
X034403Y015586D01*
X034240Y015654D01*
X034403Y015722D01*
X034547Y015865D01*
X034625Y016052D01*
X034625Y016255D01*
X034547Y016443D01*
X034403Y016586D01*
X034240Y016654D01*
X034403Y016722D01*
X034547Y016865D01*
X034625Y017052D01*
X034625Y017255D01*
X034547Y017443D01*
X034403Y017586D01*
X034240Y017654D01*
X034403Y017722D01*
X034547Y017865D01*
X034625Y018052D01*
X034625Y018255D01*
X034547Y018443D01*
X034403Y018586D01*
X034240Y018654D01*
X034403Y018722D01*
X034547Y018865D01*
X034625Y019052D01*
X034625Y019255D01*
X034547Y019443D01*
X034403Y019586D01*
X034240Y019654D01*
X034403Y019722D01*
X034547Y019865D01*
X034625Y020052D01*
X034625Y020255D01*
X034547Y020443D01*
X034403Y020586D01*
X034240Y020654D01*
X034403Y020722D01*
X034547Y020865D01*
X034625Y021052D01*
X034625Y021255D01*
X034547Y021443D01*
X034403Y021586D01*
X034240Y021654D01*
X034403Y021722D01*
X036708Y021722D01*
X036708Y021820D02*
X034502Y021820D01*
X034547Y021865D02*
X034625Y022052D01*
X034625Y022255D01*
X034547Y022443D01*
X034403Y022586D01*
X034240Y022654D01*
X034403Y022722D01*
X034547Y022865D01*
X034625Y023052D01*
X034625Y023255D01*
X034547Y023443D01*
X034403Y023586D01*
X034240Y023654D01*
X034403Y023722D01*
X034547Y023865D01*
X034625Y024052D01*
X034625Y024255D01*
X034581Y024360D01*
X035030Y024360D01*
X035242Y024148D01*
X035242Y024069D01*
X035304Y023919D01*
X035419Y023804D01*
X035569Y023742D01*
X035731Y023742D01*
X035881Y023804D01*
X035996Y023919D01*
X036058Y024069D01*
X036058Y024231D01*
X035996Y024381D01*
X036708Y024381D01*
X036708Y024283D02*
X036037Y024283D01*
X036058Y024184D02*
X036708Y024184D01*
X036708Y024086D02*
X036058Y024086D01*
X036024Y023987D02*
X036708Y023987D01*
X036708Y023889D02*
X035966Y023889D01*
X035847Y023790D02*
X036708Y023790D01*
X036708Y023692D02*
X034331Y023692D01*
X034387Y023593D02*
X036708Y023593D01*
X036708Y023495D02*
X034495Y023495D01*
X034566Y023396D02*
X036708Y023396D01*
X036708Y023298D02*
X034607Y023298D01*
X034625Y023199D02*
X036708Y023199D01*
X036708Y023101D02*
X034625Y023101D01*
X034604Y023002D02*
X036708Y023002D01*
X036708Y022904D02*
X034563Y022904D01*
X034487Y022805D02*
X036708Y022805D01*
X036708Y022707D02*
X034367Y022707D01*
X034351Y022608D02*
X036708Y022608D01*
X036708Y022510D02*
X034480Y022510D01*
X034560Y022411D02*
X036708Y022411D01*
X036708Y022313D02*
X034601Y022313D01*
X034625Y022214D02*
X036708Y022214D01*
X036708Y022116D02*
X034625Y022116D01*
X034610Y022017D02*
X036708Y022017D01*
X036708Y021919D02*
X034569Y021919D01*
X034547Y021865D02*
X034403Y021722D01*
X034315Y021623D02*
X036708Y021623D01*
X036708Y021525D02*
X034465Y021525D01*
X034554Y021426D02*
X036708Y021426D01*
X036708Y021328D02*
X034595Y021328D01*
X034625Y021229D02*
X036708Y021229D01*
X036708Y021131D02*
X034625Y021131D01*
X034616Y021032D02*
X036708Y021032D01*
X036708Y020934D02*
X034575Y020934D01*
X034517Y020835D02*
X036708Y020835D01*
X036708Y020737D02*
X034418Y020737D01*
X034279Y020638D02*
X036708Y020638D01*
X036708Y020540D02*
X034450Y020540D01*
X034548Y020441D02*
X036708Y020441D01*
X036708Y020343D02*
X034588Y020343D01*
X034625Y020244D02*
X036708Y020244D01*
X036708Y020146D02*
X034625Y020146D01*
X034622Y020047D02*
X036708Y020047D01*
X036708Y019949D02*
X034582Y019949D01*
X034532Y019850D02*
X036708Y019850D01*
X036708Y019752D02*
X034433Y019752D01*
X034435Y019555D02*
X036708Y019555D01*
X036708Y019653D02*
X034242Y019653D01*
X034534Y019456D02*
X036708Y019456D01*
X036708Y019358D02*
X034582Y019358D01*
X034623Y019259D02*
X036708Y019259D01*
X036708Y019161D02*
X034625Y019161D01*
X034625Y019062D02*
X036708Y019062D01*
X036708Y018964D02*
X034588Y018964D01*
X034547Y018865D02*
X036708Y018865D01*
X036708Y018767D02*
X034448Y018767D01*
X034420Y018570D02*
X036708Y018570D01*
X036708Y018668D02*
X034274Y018668D01*
X034519Y018471D02*
X036708Y018471D01*
X036708Y018373D02*
X034576Y018373D01*
X034617Y018274D02*
X036708Y018274D01*
X036708Y018176D02*
X034625Y018176D01*
X034625Y018077D02*
X036708Y018077D01*
X036708Y017979D02*
X034594Y017979D01*
X034553Y017880D02*
X036708Y017880D01*
X036708Y017782D02*
X034463Y017782D01*
X034310Y017683D02*
X036708Y017683D01*
X036708Y017585D02*
X034405Y017585D01*
X034504Y017486D02*
X036708Y017486D01*
X036708Y017388D02*
X034570Y017388D01*
X034611Y017289D02*
X036708Y017289D01*
X036708Y017191D02*
X034625Y017191D01*
X034625Y017092D02*
X036708Y017092D01*
X036708Y016994D02*
X034600Y016994D01*
X034559Y016895D02*
X036708Y016895D01*
X036708Y016797D02*
X034478Y016797D01*
X034347Y016698D02*
X036708Y016698D01*
X036708Y016600D02*
X034371Y016600D01*
X034489Y016501D02*
X036708Y016501D01*
X036708Y016403D02*
X034564Y016403D01*
X034604Y016304D02*
X036708Y016304D01*
X036708Y016206D02*
X034625Y016206D01*
X034625Y016107D02*
X036708Y016107D01*
X036708Y016009D02*
X034606Y016009D01*
X034566Y015910D02*
X036708Y015910D01*
X036708Y015812D02*
X034493Y015812D01*
X034383Y015713D02*
X036708Y015713D01*
X036708Y015615D02*
X034335Y015615D01*
X034474Y015516D02*
X036708Y015516D01*
X036708Y015418D02*
X034557Y015418D01*
X034598Y015319D02*
X036708Y015319D01*
X036708Y015221D02*
X034625Y015221D01*
X034625Y015122D02*
X036708Y015122D01*
X036708Y015024D02*
X034613Y015024D01*
X034572Y014925D02*
X036708Y014925D01*
X036708Y014827D02*
X034508Y014827D01*
X034410Y014728D02*
X036708Y014728D01*
X036708Y014630D02*
X034299Y014630D01*
X034459Y014531D02*
X036708Y014531D01*
X036708Y014433D02*
X034551Y014433D01*
X034592Y014334D02*
X036708Y014334D01*
X036708Y014236D02*
X034625Y014236D01*
X034625Y014137D02*
X036708Y014137D01*
X036708Y014039D02*
X034619Y014039D01*
X034578Y013940D02*
X036708Y013940D01*
X036708Y013842D02*
X034523Y013842D01*
X034425Y013743D02*
X036708Y013743D01*
X036708Y013645D02*
X034263Y013645D01*
X034444Y013546D02*
X036708Y013546D01*
X036708Y013448D02*
X034542Y013448D01*
X034586Y013349D02*
X036708Y013349D01*
X036708Y013251D02*
X034625Y013251D01*
X034625Y013152D02*
X036708Y013152D01*
X036708Y013054D02*
X034625Y013054D01*
X034584Y012955D02*
X036708Y012955D01*
X036708Y012857D02*
X034538Y012857D01*
X034440Y012758D02*
X036708Y012758D01*
X036708Y012660D02*
X034254Y012660D01*
X034429Y012561D02*
X036708Y012561D01*
X036708Y012463D02*
X034527Y012463D01*
X034580Y012364D02*
X036708Y012364D01*
X036708Y012266D02*
X034620Y012266D01*
X034625Y012167D02*
X036708Y012167D01*
X036708Y012069D02*
X034625Y012069D01*
X034680Y011970D02*
X036708Y011970D01*
X036708Y011872D02*
X034779Y011872D01*
X034877Y011773D02*
X036708Y011773D01*
X036708Y011675D02*
X034976Y011675D01*
X035074Y011576D02*
X036708Y011576D01*
X036708Y011478D02*
X035323Y011478D01*
X035442Y011379D02*
X036708Y011379D01*
X036708Y011281D02*
X035495Y011281D01*
X035519Y011182D02*
X036708Y011182D01*
X036708Y011084D02*
X035519Y011084D01*
X035481Y010985D02*
X036708Y010985D01*
X036708Y010887D02*
X035408Y010887D01*
X035240Y010788D02*
X036708Y010788D01*
X036708Y010690D02*
X034326Y010690D01*
X034392Y010591D02*
X036708Y010591D01*
X036708Y010493D02*
X034497Y010493D01*
X034567Y010394D02*
X036708Y010394D01*
X036708Y010296D02*
X034608Y010296D01*
X034625Y010197D02*
X036708Y010197D01*
X036708Y010099D02*
X034625Y010099D01*
X034603Y010000D02*
X036708Y010000D01*
X036708Y009902D02*
X034562Y009902D01*
X034485Y009803D02*
X036708Y009803D01*
X036708Y009705D02*
X034362Y009705D01*
X034356Y009606D02*
X036708Y009606D01*
X036708Y009508D02*
X034482Y009508D01*
X034561Y009409D02*
X036708Y009409D01*
X036708Y009311D02*
X034602Y009311D01*
X034625Y009212D02*
X036708Y009212D01*
X036708Y009114D02*
X034625Y009114D01*
X034609Y009015D02*
X036708Y009015D01*
X036708Y008917D02*
X034568Y008917D01*
X034500Y008818D02*
X036708Y008818D01*
X036708Y008720D02*
X034398Y008720D01*
X034320Y008621D02*
X036708Y008621D01*
X036708Y008523D02*
X034467Y008523D01*
X034555Y008424D02*
X036708Y008424D01*
X036708Y008326D02*
X034596Y008326D01*
X034625Y008227D02*
X036708Y008227D01*
X036708Y008129D02*
X034625Y008129D01*
X034615Y008030D02*
X036708Y008030D01*
X036708Y007932D02*
X034574Y007932D01*
X034515Y007833D02*
X036708Y007833D01*
X036708Y007735D02*
X034416Y007735D01*
X034283Y007636D02*
X036708Y007636D01*
X036708Y007538D02*
X034452Y007538D01*
X034549Y007439D02*
X036708Y007439D01*
X036708Y007341D02*
X034589Y007341D01*
X034625Y007242D02*
X036708Y007242D01*
X036708Y007144D02*
X034625Y007144D01*
X034621Y007045D02*
X036708Y007045D01*
X036708Y006947D02*
X034581Y006947D01*
X034530Y006848D02*
X036708Y006848D01*
X036708Y006750D02*
X034431Y006750D01*
X034233Y006651D02*
X036708Y006651D01*
X036708Y006553D02*
X028963Y006553D01*
X029061Y006651D02*
X032996Y006651D01*
X032798Y006750D02*
X029250Y006750D01*
X029231Y006742D02*
X029381Y006804D01*
X029496Y006919D01*
X029558Y007069D01*
X029558Y007231D01*
X029496Y007381D01*
X029381Y007496D01*
X029231Y007558D01*
X029069Y007558D01*
X028919Y007496D01*
X028804Y007381D01*
X028742Y007231D01*
X028742Y007152D01*
X027986Y006396D01*
X027904Y006314D01*
X027874Y006242D01*
X027874Y006344D01*
X027821Y006473D01*
X027723Y006571D01*
X027594Y006624D01*
X027456Y006624D01*
X027327Y006571D01*
X027229Y006473D01*
X027176Y006344D01*
X027176Y006206D01*
X027229Y006077D01*
X027235Y006071D01*
X027235Y004104D01*
X027229Y004098D01*
X027176Y003969D01*
X027176Y003831D01*
X027229Y003702D01*
X027327Y003604D01*
X027456Y003551D01*
X027594Y003551D01*
X027723Y003604D01*
X027742Y003623D01*
X027742Y003569D01*
X027804Y003419D01*
X027919Y003304D01*
X028069Y003242D01*
X028231Y003242D01*
X028381Y003304D01*
X028496Y003419D01*
X028558Y003569D01*
X028558Y003731D01*
X028496Y003881D01*
X028440Y003937D01*
X028440Y006030D01*
X029152Y006742D01*
X029231Y006742D01*
X029425Y006848D02*
X032699Y006848D01*
X032648Y006947D02*
X029507Y006947D01*
X029548Y007045D02*
X032608Y007045D01*
X032605Y007144D02*
X029558Y007144D01*
X029554Y007242D02*
X032605Y007242D01*
X032640Y007341D02*
X029513Y007341D01*
X029438Y007439D02*
X032681Y007439D01*
X032777Y007538D02*
X029281Y007538D01*
X029019Y007538D02*
X025598Y007538D01*
X025598Y007636D02*
X032946Y007636D01*
X032813Y007735D02*
X025598Y007735D01*
X025598Y007833D02*
X031503Y007833D01*
X031375Y007932D02*
X025598Y007932D01*
X025598Y007968D02*
X025531Y008130D01*
X025407Y008254D01*
X025245Y008321D01*
X025070Y008321D01*
X024908Y008254D01*
X024785Y008130D01*
X024718Y007968D01*
X024718Y007332D01*
X024780Y007181D01*
X024780Y003663D01*
X024771Y003653D01*
X024703Y003489D01*
X024703Y003311D01*
X024771Y003147D01*
X024897Y003021D01*
X025061Y002953D01*
X025239Y002953D01*
X025403Y003021D01*
X025529Y003147D01*
X025597Y003311D01*
X025597Y003489D01*
X025529Y003653D01*
X025520Y003663D01*
X025520Y007159D01*
X025531Y007170D01*
X025598Y007332D01*
X025598Y007968D01*
X025572Y008030D02*
X031322Y008030D01*
X031301Y008129D02*
X025532Y008129D01*
X025434Y008227D02*
X031304Y008227D01*
X031208Y008326D02*
X017462Y008326D01*
X017567Y008227D02*
X020374Y008227D01*
X020276Y008129D02*
X017610Y008129D01*
X017624Y008030D02*
X018052Y008030D01*
X018248Y008030D02*
X020235Y008030D01*
X020210Y007932D02*
X018418Y007932D01*
X018495Y007833D02*
X020210Y007833D01*
X020210Y007735D02*
X018535Y007735D01*
X018538Y007636D02*
X020210Y007636D01*
X020210Y007538D02*
X018524Y007538D01*
X018483Y007439D02*
X020210Y007439D01*
X020210Y007341D02*
X018390Y007341D01*
X017910Y007341D02*
X013699Y007341D01*
X013740Y007242D02*
X015814Y007242D01*
X015831Y007249D02*
X015702Y007196D01*
X015604Y007098D01*
X015551Y006969D01*
X015551Y006831D01*
X015604Y006702D01*
X015610Y006696D01*
X015610Y006104D01*
X015604Y006098D01*
X015551Y005969D01*
X015551Y005831D01*
X015604Y005702D01*
X015702Y005604D01*
X015831Y005551D01*
X015969Y005551D01*
X016098Y005604D01*
X016196Y005702D01*
X016249Y005831D01*
X016249Y005969D01*
X016196Y006098D01*
X016190Y006104D01*
X016190Y006696D01*
X016196Y006702D01*
X016249Y006831D01*
X016249Y006969D01*
X016196Y007098D01*
X016098Y007196D01*
X015969Y007249D01*
X015831Y007249D01*
X015986Y007242D02*
X020247Y007242D01*
X020280Y007144D02*
X016150Y007144D01*
X016218Y007045D02*
X020280Y007045D01*
X020280Y006947D02*
X016249Y006947D01*
X016249Y006848D02*
X020280Y006848D01*
X020280Y006750D02*
X016215Y006750D01*
X016190Y006651D02*
X020280Y006651D01*
X020280Y006553D02*
X016190Y006553D01*
X016190Y006454D02*
X020280Y006454D01*
X020280Y006356D02*
X016190Y006356D01*
X016190Y006257D02*
X020280Y006257D01*
X020280Y006159D02*
X016190Y006159D01*
X016212Y006060D02*
X020280Y006060D01*
X020280Y005962D02*
X016249Y005962D01*
X016249Y005863D02*
X020280Y005863D01*
X020280Y005765D02*
X016222Y005765D01*
X016160Y005666D02*
X020280Y005666D01*
X020280Y005568D02*
X016009Y005568D01*
X015791Y005568D02*
X013670Y005568D01*
X013670Y005666D02*
X015640Y005666D01*
X015578Y005765D02*
X013670Y005765D01*
X013670Y005863D02*
X015551Y005863D01*
X015551Y005962D02*
X013670Y005962D01*
X013670Y006060D02*
X015588Y006060D01*
X015610Y006159D02*
X013670Y006159D01*
X013670Y006257D02*
X015610Y006257D01*
X015610Y006356D02*
X013670Y006356D01*
X013670Y006454D02*
X015610Y006454D01*
X015610Y006553D02*
X013670Y006553D01*
X013670Y006651D02*
X015610Y006651D01*
X015585Y006750D02*
X013670Y006750D01*
X013670Y006848D02*
X015551Y006848D01*
X015551Y006947D02*
X013690Y006947D01*
X013734Y007045D02*
X015582Y007045D01*
X015650Y007144D02*
X013749Y007144D01*
X013670Y005469D02*
X020280Y005469D01*
X020280Y005371D02*
X013670Y005371D01*
X013670Y005272D02*
X020280Y005272D01*
X020280Y005174D02*
X013670Y005174D01*
X013670Y005075D02*
X020280Y005075D01*
X020280Y004977D02*
X019774Y004977D01*
X019916Y004878D02*
X020280Y004878D01*
X020280Y004780D02*
X019974Y004780D01*
X019999Y004681D02*
X020280Y004681D01*
X020280Y004583D02*
X019999Y004583D01*
X019959Y004484D02*
X020280Y004484D01*
X020280Y004386D02*
X019936Y004386D01*
X019992Y004287D02*
X020264Y004287D01*
X020165Y004189D02*
X020019Y004189D01*
X020019Y004090D02*
X020067Y004090D01*
X019771Y003795D02*
X019755Y003795D01*
X019673Y003696D02*
X019231Y003696D01*
X019133Y003598D02*
X019574Y003598D01*
X019476Y003499D02*
X019034Y003499D01*
X018936Y003401D02*
X019377Y003401D01*
X019279Y003302D02*
X018837Y003302D01*
X018739Y003204D02*
X019180Y003204D01*
X019082Y003105D02*
X011499Y003105D01*
X011468Y003007D02*
X018983Y003007D01*
X018885Y002908D02*
X011402Y002908D01*
X013670Y004681D02*
X018549Y004681D01*
X018451Y004583D02*
X013945Y004583D01*
X013670Y004780D02*
X018648Y004780D01*
X018746Y004878D02*
X013670Y004878D01*
X013670Y004977D02*
X019526Y004977D01*
X019545Y003795D02*
X019330Y003795D01*
X020030Y003007D02*
X024931Y003007D01*
X024812Y003105D02*
X020128Y003105D01*
X020227Y003204D02*
X024747Y003204D01*
X024706Y003302D02*
X020325Y003302D01*
X020424Y003401D02*
X024703Y003401D01*
X024707Y003499D02*
X020522Y003499D01*
X020621Y003598D02*
X024747Y003598D01*
X024780Y003696D02*
X020719Y003696D01*
X020818Y003795D02*
X021545Y003795D01*
X021577Y003781D02*
X021441Y003837D01*
X021337Y003941D01*
X021281Y004077D01*
X021281Y004223D01*
X021337Y004359D01*
X021360Y004381D01*
X021360Y007087D01*
X021277Y007170D01*
X021210Y007332D01*
X021210Y007968D01*
X021277Y008130D01*
X021401Y008254D01*
X021562Y008321D01*
X021738Y008321D01*
X021899Y008254D01*
X022023Y008130D01*
X022090Y007968D01*
X022090Y007332D01*
X022023Y007170D01*
X021940Y007087D01*
X021940Y004381D01*
X021963Y004359D01*
X022019Y004223D01*
X022019Y004077D01*
X021963Y003941D01*
X021859Y003837D01*
X021723Y003781D01*
X021577Y003781D01*
X021755Y003795D02*
X024780Y003795D01*
X024780Y003893D02*
X021914Y003893D01*
X021983Y003992D02*
X024780Y003992D01*
X024780Y004090D02*
X022019Y004090D01*
X022019Y004189D02*
X024780Y004189D01*
X024780Y004287D02*
X021992Y004287D01*
X021940Y004386D02*
X024780Y004386D01*
X024780Y004484D02*
X021940Y004484D01*
X021940Y004583D02*
X024780Y004583D01*
X024780Y004681D02*
X021940Y004681D01*
X021940Y004780D02*
X024780Y004780D01*
X024780Y004878D02*
X021940Y004878D01*
X021940Y004977D02*
X024780Y004977D01*
X024780Y005075D02*
X021940Y005075D01*
X021940Y005174D02*
X024780Y005174D01*
X024780Y005272D02*
X021940Y005272D01*
X021940Y005371D02*
X024780Y005371D01*
X024780Y005469D02*
X021940Y005469D01*
X021940Y005568D02*
X024780Y005568D01*
X024780Y005666D02*
X021940Y005666D01*
X021940Y005765D02*
X024780Y005765D01*
X024780Y005863D02*
X021940Y005863D01*
X021940Y005962D02*
X024780Y005962D01*
X024780Y006060D02*
X021940Y006060D01*
X021940Y006159D02*
X024780Y006159D01*
X024780Y006257D02*
X021940Y006257D01*
X021940Y006356D02*
X024780Y006356D01*
X024780Y006454D02*
X021940Y006454D01*
X021940Y006553D02*
X024780Y006553D01*
X024780Y006651D02*
X021940Y006651D01*
X021940Y006750D02*
X024780Y006750D01*
X024780Y006848D02*
X021940Y006848D01*
X021940Y006947D02*
X024780Y006947D01*
X024780Y007045D02*
X021940Y007045D01*
X021997Y007144D02*
X024780Y007144D01*
X024755Y007242D02*
X022053Y007242D01*
X022090Y007341D02*
X024718Y007341D01*
X024718Y007439D02*
X022090Y007439D01*
X022090Y007538D02*
X024718Y007538D01*
X024718Y007636D02*
X022090Y007636D01*
X022090Y007735D02*
X024718Y007735D01*
X024718Y007833D02*
X022090Y007833D01*
X022090Y007932D02*
X024718Y007932D01*
X024743Y008030D02*
X022065Y008030D01*
X022024Y008129D02*
X024784Y008129D01*
X024882Y008227D02*
X021926Y008227D01*
X021374Y008227D02*
X020926Y008227D01*
X021024Y008129D02*
X021276Y008129D01*
X021235Y008030D02*
X021065Y008030D01*
X021090Y007932D02*
X021210Y007932D01*
X021210Y007833D02*
X021090Y007833D01*
X021090Y007735D02*
X021210Y007735D01*
X021210Y007636D02*
X021090Y007636D01*
X021090Y007538D02*
X021210Y007538D01*
X021210Y007439D02*
X021090Y007439D01*
X021090Y007341D02*
X021210Y007341D01*
X021247Y007242D02*
X021053Y007242D01*
X021020Y007144D02*
X021303Y007144D01*
X021360Y007045D02*
X021020Y007045D01*
X021020Y006947D02*
X021360Y006947D01*
X021360Y006848D02*
X021020Y006848D01*
X021020Y006750D02*
X021360Y006750D01*
X021360Y006651D02*
X021020Y006651D01*
X021020Y006553D02*
X021360Y006553D01*
X021360Y006454D02*
X021020Y006454D01*
X021020Y006356D02*
X021360Y006356D01*
X021360Y006257D02*
X021020Y006257D01*
X021020Y006159D02*
X021360Y006159D01*
X021360Y006060D02*
X021020Y006060D01*
X021020Y005962D02*
X021360Y005962D01*
X021360Y005863D02*
X021020Y005863D01*
X021020Y005765D02*
X021360Y005765D01*
X021360Y005666D02*
X021020Y005666D01*
X021020Y005568D02*
X021360Y005568D01*
X021360Y005469D02*
X021020Y005469D01*
X021020Y005371D02*
X021360Y005371D01*
X021360Y005272D02*
X021020Y005272D01*
X021020Y005174D02*
X021360Y005174D01*
X021360Y005075D02*
X021020Y005075D01*
X021020Y004977D02*
X021360Y004977D01*
X021360Y004878D02*
X021020Y004878D01*
X021020Y004780D02*
X021360Y004780D01*
X021360Y004681D02*
X021020Y004681D01*
X021020Y004583D02*
X021360Y004583D01*
X021360Y004484D02*
X021020Y004484D01*
X021020Y004386D02*
X021360Y004386D01*
X021308Y004287D02*
X021020Y004287D01*
X021020Y004189D02*
X021281Y004189D01*
X021281Y004090D02*
X021020Y004090D01*
X020985Y003992D02*
X021317Y003992D01*
X021386Y003893D02*
X020916Y003893D01*
X019931Y002908D02*
X028527Y002908D01*
X028321Y002841D02*
X028321Y002841D01*
X028278Y002810D02*
X019833Y002810D01*
X019734Y002711D02*
X028142Y002711D01*
X028007Y002613D02*
X019636Y002613D01*
X019537Y002514D02*
X027934Y002514D01*
X027862Y002416D02*
X019439Y002416D01*
X019340Y002317D02*
X027791Y002317D01*
X027749Y002219D02*
X019242Y002219D01*
X019143Y002120D02*
X027717Y002120D01*
X027685Y002022D02*
X019045Y002022D01*
X018946Y001923D02*
X027653Y001923D01*
X027653Y001825D02*
X018831Y001825D01*
X025369Y003007D02*
X031940Y003007D01*
X031940Y003105D02*
X025488Y003105D01*
X025553Y003204D02*
X031940Y003204D01*
X031940Y003302D02*
X028376Y003302D01*
X028478Y003401D02*
X031940Y003401D01*
X031940Y003499D02*
X028529Y003499D01*
X028558Y003598D02*
X031940Y003598D01*
X031940Y003696D02*
X028558Y003696D01*
X028532Y003795D02*
X031940Y003795D01*
X031940Y003893D02*
X028484Y003893D01*
X028440Y003992D02*
X031940Y003992D01*
X031940Y004090D02*
X028440Y004090D01*
X028440Y004189D02*
X031940Y004189D01*
X031940Y004287D02*
X028440Y004287D01*
X028440Y004386D02*
X031940Y004386D01*
X031940Y004484D02*
X028440Y004484D01*
X028440Y004583D02*
X031940Y004583D01*
X031940Y004681D02*
X028440Y004681D01*
X028440Y004780D02*
X031940Y004780D01*
X031940Y004878D02*
X028440Y004878D01*
X028440Y004977D02*
X031940Y004977D01*
X031940Y005075D02*
X028440Y005075D01*
X028440Y005174D02*
X031940Y005174D01*
X031940Y005272D02*
X028440Y005272D01*
X028440Y005371D02*
X036708Y005371D01*
X036708Y005469D02*
X028440Y005469D01*
X028440Y005568D02*
X036708Y005568D01*
X036708Y005666D02*
X028440Y005666D01*
X028440Y005765D02*
X036708Y005765D01*
X036708Y005863D02*
X028440Y005863D01*
X028440Y005962D02*
X036708Y005962D01*
X036708Y006060D02*
X028470Y006060D01*
X028569Y006159D02*
X036708Y006159D01*
X036708Y006257D02*
X028667Y006257D01*
X028766Y006356D02*
X036708Y006356D01*
X036708Y006454D02*
X028864Y006454D01*
X028438Y006848D02*
X025520Y006848D01*
X025520Y006750D02*
X028339Y006750D01*
X028241Y006651D02*
X025520Y006651D01*
X025520Y006553D02*
X027309Y006553D01*
X027221Y006454D02*
X025520Y006454D01*
X025520Y006356D02*
X027181Y006356D01*
X027176Y006257D02*
X025520Y006257D01*
X025520Y006159D02*
X027195Y006159D01*
X027235Y006060D02*
X025520Y006060D01*
X025520Y005962D02*
X027235Y005962D01*
X027235Y005863D02*
X025520Y005863D01*
X025520Y005765D02*
X027235Y005765D01*
X027235Y005666D02*
X025520Y005666D01*
X025520Y005568D02*
X026449Y005568D01*
X026452Y005571D02*
X026354Y005473D01*
X026301Y005344D01*
X026301Y005206D01*
X026354Y005077D01*
X026380Y005051D01*
X026380Y004499D01*
X026354Y004473D01*
X026301Y004344D01*
X026301Y004206D01*
X026354Y004077D01*
X026452Y003979D01*
X026581Y003926D01*
X026719Y003926D01*
X026848Y003979D01*
X026946Y004077D01*
X026999Y004206D01*
X026999Y004344D01*
X026946Y004473D01*
X026920Y004499D01*
X026920Y005051D01*
X026946Y005077D01*
X026999Y005206D01*
X026999Y005344D01*
X026946Y005473D01*
X026848Y005571D01*
X026719Y005624D01*
X026581Y005624D01*
X026452Y005571D01*
X026353Y005469D02*
X025520Y005469D01*
X025520Y005371D02*
X026312Y005371D01*
X026301Y005272D02*
X025520Y005272D01*
X025520Y005174D02*
X026314Y005174D01*
X026356Y005075D02*
X025520Y005075D01*
X025520Y004977D02*
X026380Y004977D01*
X026380Y004878D02*
X025520Y004878D01*
X025520Y004780D02*
X026380Y004780D01*
X026380Y004681D02*
X025520Y004681D01*
X025520Y004583D02*
X026380Y004583D01*
X026365Y004484D02*
X025520Y004484D01*
X025520Y004386D02*
X026318Y004386D01*
X026301Y004287D02*
X025520Y004287D01*
X025520Y004189D02*
X026308Y004189D01*
X026349Y004090D02*
X025520Y004090D01*
X025520Y003992D02*
X026440Y003992D01*
X026860Y003992D02*
X027185Y003992D01*
X027176Y003893D02*
X025520Y003893D01*
X025520Y003795D02*
X027191Y003795D01*
X027235Y003696D02*
X025520Y003696D01*
X025553Y003598D02*
X027343Y003598D01*
X027707Y003598D02*
X027742Y003598D01*
X027771Y003499D02*
X025593Y003499D01*
X025597Y003401D02*
X027822Y003401D01*
X027924Y003302D02*
X025594Y003302D01*
X026951Y004090D02*
X027226Y004090D01*
X027235Y004189D02*
X026992Y004189D01*
X026999Y004287D02*
X027235Y004287D01*
X027235Y004386D02*
X026982Y004386D01*
X026935Y004484D02*
X027235Y004484D01*
X027235Y004583D02*
X026920Y004583D01*
X026920Y004681D02*
X027235Y004681D01*
X027235Y004780D02*
X026920Y004780D01*
X026920Y004878D02*
X027235Y004878D01*
X027235Y004977D02*
X026920Y004977D01*
X026944Y005075D02*
X027235Y005075D01*
X027235Y005174D02*
X026986Y005174D01*
X026999Y005272D02*
X027235Y005272D01*
X027235Y005371D02*
X026988Y005371D01*
X026947Y005469D02*
X027235Y005469D01*
X027235Y005568D02*
X026851Y005568D01*
X027874Y006257D02*
X027880Y006257D01*
X027869Y006356D02*
X027945Y006356D01*
X028044Y006454D02*
X027829Y006454D01*
X027741Y006553D02*
X028142Y006553D01*
X028536Y006947D02*
X025520Y006947D01*
X025520Y007045D02*
X028635Y007045D01*
X028733Y007144D02*
X025520Y007144D01*
X025561Y007242D02*
X028746Y007242D01*
X028787Y007341D02*
X025598Y007341D01*
X025598Y007439D02*
X028862Y007439D01*
X031011Y008523D02*
X000600Y008523D01*
X000600Y008621D02*
X030987Y008621D01*
X030987Y008720D02*
X000600Y008720D01*
X000600Y008818D02*
X031028Y008818D01*
X031109Y008917D02*
X000600Y008917D01*
X000600Y009015D02*
X031341Y009015D01*
X031452Y009114D02*
X000600Y009114D01*
X000600Y009212D02*
X030868Y009212D01*
X030746Y009311D02*
X030743Y009311D01*
X030557Y009311D02*
X000600Y009311D01*
X000600Y009409D02*
X030397Y009409D01*
X030331Y009508D02*
X000600Y009508D01*
X000600Y009606D02*
X030301Y009606D01*
X030301Y009705D02*
X000600Y009705D01*
X000600Y009803D02*
X030336Y009803D01*
X030408Y009902D02*
X000600Y009902D01*
X000600Y010000D02*
X030590Y010000D01*
X030688Y010099D02*
X000600Y010099D01*
X000600Y010197D02*
X030787Y010197D01*
X030885Y010296D02*
X030258Y010296D01*
X030416Y010394D02*
X030984Y010394D01*
X031082Y010493D02*
X030484Y010493D01*
X030519Y010591D02*
X031181Y010591D01*
X031279Y010690D02*
X030600Y010690D01*
X030698Y010788D02*
X031360Y010788D01*
X031360Y010887D02*
X030797Y010887D01*
X030895Y010985D02*
X031360Y010985D01*
X031360Y011084D02*
X030994Y011084D01*
X031092Y011182D02*
X031360Y011182D01*
X031360Y011281D02*
X031191Y011281D01*
X030781Y011723D02*
X030837Y011859D01*
X030941Y011963D01*
X031077Y012019D01*
X031223Y012019D01*
X031359Y011963D01*
X031360Y011961D01*
X031360Y017946D01*
X031354Y017952D01*
X031301Y018081D01*
X031301Y018219D01*
X031354Y018348D01*
X031452Y018446D01*
X031581Y018499D01*
X031719Y018499D01*
X031848Y018446D01*
X031900Y018394D01*
X031952Y018446D01*
X032081Y018499D01*
X032219Y018499D01*
X032348Y018446D01*
X032446Y018348D01*
X032499Y018219D01*
X032499Y018081D01*
X032446Y017952D01*
X032440Y017946D01*
X032440Y010822D01*
X032497Y010879D01*
X032596Y010920D01*
X032659Y010920D01*
X032605Y011052D01*
X032605Y011255D01*
X032682Y011443D01*
X032826Y011586D01*
X032989Y011654D01*
X032826Y011722D01*
X032682Y011865D01*
X032605Y012052D01*
X032605Y012255D01*
X032682Y012443D01*
X032826Y012586D01*
X032989Y012654D01*
X032826Y012722D01*
X032682Y012865D01*
X032605Y013052D01*
X032605Y013255D01*
X032682Y013443D01*
X032826Y013586D01*
X032989Y013654D01*
X032826Y013722D01*
X032682Y013865D01*
X032605Y014052D01*
X032605Y014255D01*
X032682Y014443D01*
X032826Y014586D01*
X032989Y014654D01*
X032826Y014722D01*
X032682Y014865D01*
X032605Y015052D01*
X032605Y015255D01*
X032682Y015443D01*
X032826Y015586D01*
X032989Y015654D01*
X032826Y015722D01*
X032682Y015865D01*
X032605Y016052D01*
X032605Y016255D01*
X032682Y016443D01*
X032826Y016586D01*
X032989Y016654D01*
X032826Y016722D01*
X032682Y016865D01*
X032605Y017052D01*
X032605Y017255D01*
X032682Y017443D01*
X032826Y017586D01*
X032989Y017654D01*
X032826Y017722D01*
X032682Y017865D01*
X032605Y018052D01*
X032605Y018255D01*
X032682Y018443D01*
X032826Y018586D01*
X032989Y018654D01*
X032826Y018722D01*
X032682Y018865D01*
X024440Y018865D01*
X024444Y018767D02*
X032781Y018767D01*
X032682Y018865D02*
X032605Y019052D01*
X032605Y019255D01*
X032682Y019443D01*
X032826Y019586D01*
X032989Y019654D01*
X032826Y019722D01*
X032682Y019865D01*
X032605Y020052D01*
X032605Y020255D01*
X032682Y020443D01*
X032826Y020586D01*
X032989Y020654D01*
X032826Y020722D01*
X032682Y020865D01*
X032605Y021052D01*
X032605Y021255D01*
X032682Y021443D01*
X032826Y021586D01*
X032989Y021654D01*
X032826Y021722D01*
X024940Y021722D01*
X024940Y021820D02*
X032727Y021820D01*
X032682Y021865D02*
X032826Y021722D01*
X032914Y021623D02*
X024940Y021623D01*
X024940Y021525D02*
X032764Y021525D01*
X032675Y021426D02*
X024940Y021426D01*
X024940Y021328D02*
X032634Y021328D01*
X032605Y021229D02*
X024940Y021229D01*
X024940Y021131D02*
X032605Y021131D01*
X032613Y021032D02*
X024940Y021032D01*
X024940Y020934D02*
X032654Y020934D01*
X032712Y020835D02*
X024940Y020835D01*
X024940Y020737D02*
X032811Y020737D01*
X032951Y020638D02*
X024940Y020638D01*
X024940Y020540D02*
X032779Y020540D01*
X032681Y020441D02*
X024940Y020441D01*
X024940Y020343D02*
X032641Y020343D01*
X032605Y020244D02*
X024940Y020244D01*
X024940Y020146D02*
X032605Y020146D01*
X032607Y020047D02*
X024921Y020047D01*
X024859Y019949D02*
X032648Y019949D01*
X032697Y019850D02*
X024760Y019850D01*
X024662Y019752D02*
X032796Y019752D01*
X032794Y019555D02*
X024465Y019555D01*
X024440Y019456D02*
X032695Y019456D01*
X032647Y019358D02*
X024440Y019358D01*
X024440Y019259D02*
X032606Y019259D01*
X032605Y019161D02*
X024440Y019161D01*
X024440Y019062D02*
X032605Y019062D01*
X032641Y018964D02*
X024440Y018964D01*
X024542Y018668D02*
X032955Y018668D01*
X032809Y018570D02*
X024641Y018570D01*
X024739Y018471D02*
X031513Y018471D01*
X031379Y018373D02*
X024838Y018373D01*
X024936Y018274D02*
X031324Y018274D01*
X031301Y018176D02*
X025035Y018176D01*
X025133Y018077D02*
X031302Y018077D01*
X031343Y017979D02*
X025232Y017979D01*
X023684Y016501D02*
X002796Y016501D01*
X002757Y016485D02*
X002956Y016567D01*
X003108Y016719D01*
X003190Y016918D01*
X003190Y017132D01*
X003108Y017331D01*
X002956Y017483D01*
X002854Y017525D01*
X002956Y017567D01*
X003108Y017719D01*
X003190Y017918D01*
X003190Y018132D01*
X003108Y018331D01*
X002956Y018483D01*
X002757Y018565D01*
X002543Y018565D01*
X002344Y018483D01*
X002192Y018331D01*
X002110Y018132D01*
X002110Y017918D01*
X002192Y017719D01*
X002344Y017567D01*
X002446Y017525D01*
X002344Y017483D01*
X002192Y017331D01*
X002110Y017132D01*
X002110Y016918D01*
X002192Y016719D01*
X002344Y016567D01*
X002543Y016485D01*
X002757Y016485D01*
X002504Y016501D02*
X000600Y016501D01*
X000600Y016403D02*
X023715Y016403D01*
X023715Y016304D02*
X000600Y016304D01*
X000600Y016206D02*
X023715Y016206D01*
X023715Y016107D02*
X000600Y016107D01*
X000600Y016009D02*
X023715Y016009D01*
X023715Y015910D02*
X000600Y015910D01*
X000600Y015812D02*
X023715Y015812D01*
X023715Y015713D02*
X000600Y015713D01*
X000600Y015615D02*
X023715Y015615D01*
X023715Y015516D02*
X000600Y015516D01*
X000600Y015418D02*
X023715Y015418D01*
X023715Y015319D02*
X000600Y015319D01*
X000600Y015221D02*
X023715Y015221D01*
X023715Y015122D02*
X000600Y015122D01*
X000600Y015024D02*
X023715Y015024D01*
X023715Y014925D02*
X000600Y014925D01*
X000600Y014827D02*
X023715Y014827D01*
X023715Y014728D02*
X000600Y014728D01*
X000600Y014630D02*
X023715Y014630D01*
X023715Y014531D02*
X000600Y014531D01*
X000600Y014433D02*
X023715Y014433D01*
X023715Y014334D02*
X000600Y014334D01*
X000600Y014236D02*
X023715Y014236D01*
X023715Y014137D02*
X000600Y014137D01*
X000600Y014039D02*
X023715Y014039D01*
X023715Y013940D02*
X000600Y013940D01*
X000600Y013842D02*
X023715Y013842D01*
X023715Y013743D02*
X000600Y013743D01*
X000600Y013645D02*
X023715Y013645D01*
X023715Y013546D02*
X000600Y013546D01*
X000600Y013448D02*
X023715Y013448D01*
X023715Y013349D02*
X000600Y013349D01*
X000600Y013251D02*
X023715Y013251D01*
X023715Y013152D02*
X000600Y013152D01*
X000600Y013054D02*
X023715Y013054D01*
X023715Y012955D02*
X000600Y012955D01*
X000600Y012857D02*
X023715Y012857D01*
X023715Y012758D02*
X000600Y012758D01*
X000600Y012660D02*
X023715Y012660D01*
X023715Y012561D02*
X000600Y012561D01*
X000600Y012463D02*
X023715Y012463D01*
X023715Y012364D02*
X000600Y012364D01*
X000600Y012266D02*
X023715Y012266D01*
X023715Y012167D02*
X000600Y012167D01*
X000600Y012069D02*
X023715Y012069D01*
X023754Y011970D02*
X000600Y011970D01*
X000600Y011872D02*
X023813Y011872D01*
X023912Y011773D02*
X006250Y011773D01*
X006369Y011675D02*
X024010Y011675D01*
X024109Y011576D02*
X006418Y011576D01*
X006437Y011478D02*
X024207Y011478D01*
X024306Y011379D02*
X006431Y011379D01*
X006390Y011281D02*
X024405Y011281D01*
X024748Y012167D02*
X025405Y012167D01*
X025271Y012266D02*
X024650Y012266D01*
X024585Y012364D02*
X025184Y012364D01*
X025143Y012463D02*
X024585Y012463D01*
X024585Y012561D02*
X025110Y012561D01*
X025110Y012660D02*
X024585Y012660D01*
X024585Y012758D02*
X025110Y012758D01*
X025151Y012857D02*
X024585Y012857D01*
X024585Y012955D02*
X025192Y012955D01*
X025290Y013054D02*
X024585Y013054D01*
X024585Y013152D02*
X025451Y013152D01*
X025849Y013152D02*
X031360Y013152D01*
X031360Y013054D02*
X026010Y013054D01*
X026108Y012955D02*
X031360Y012955D01*
X031360Y012857D02*
X026149Y012857D01*
X026190Y012758D02*
X031360Y012758D01*
X031360Y012660D02*
X026190Y012660D01*
X026190Y012561D02*
X031360Y012561D01*
X031360Y012463D02*
X026157Y012463D01*
X026116Y012364D02*
X031360Y012364D01*
X031360Y012266D02*
X026029Y012266D01*
X025895Y012167D02*
X031360Y012167D01*
X031360Y012069D02*
X025995Y012069D01*
X026094Y011970D02*
X030959Y011970D01*
X030850Y011872D02*
X026143Y011872D01*
X024585Y013251D02*
X031360Y013251D01*
X031360Y013349D02*
X024585Y013349D01*
X024585Y013448D02*
X031360Y013448D01*
X031360Y013546D02*
X024585Y013546D01*
X024585Y013645D02*
X031360Y013645D01*
X031360Y013743D02*
X029234Y013743D01*
X029066Y013743D02*
X024585Y013743D01*
X024585Y013842D02*
X028881Y013842D01*
X028795Y013940D02*
X024585Y013940D01*
X024585Y014039D02*
X028754Y014039D01*
X028742Y014137D02*
X024585Y014137D01*
X024585Y014236D02*
X028744Y014236D01*
X028784Y014334D02*
X024585Y014334D01*
X024585Y014433D02*
X028855Y014433D01*
X028860Y014531D02*
X024585Y014531D01*
X024585Y014630D02*
X028860Y014630D01*
X028860Y014728D02*
X024585Y014728D01*
X024585Y014827D02*
X028860Y014827D01*
X028860Y014925D02*
X024585Y014925D01*
X024585Y015024D02*
X028860Y015024D01*
X028860Y015122D02*
X024585Y015122D01*
X024585Y015221D02*
X028860Y015221D01*
X028860Y015319D02*
X024585Y015319D01*
X024585Y015418D02*
X028860Y015418D01*
X028860Y015516D02*
X024585Y015516D01*
X024585Y015615D02*
X028860Y015615D01*
X028860Y015713D02*
X024585Y015713D01*
X024585Y015812D02*
X028860Y015812D01*
X028860Y015910D02*
X024585Y015910D01*
X024585Y016009D02*
X028860Y016009D01*
X028860Y016107D02*
X024585Y016107D01*
X024585Y016206D02*
X028860Y016206D01*
X028860Y016304D02*
X024585Y016304D01*
X023585Y016600D02*
X002988Y016600D01*
X003087Y016698D02*
X023487Y016698D01*
X023388Y016797D02*
X003140Y016797D01*
X003181Y016895D02*
X023290Y016895D01*
X023191Y016994D02*
X003190Y016994D01*
X003190Y017092D02*
X023093Y017092D01*
X022994Y017191D02*
X003166Y017191D01*
X003125Y017289D02*
X021128Y017289D01*
X021030Y017388D02*
X003051Y017388D01*
X002948Y017486D02*
X020984Y017486D01*
X020953Y017585D02*
X002973Y017585D01*
X003072Y017683D02*
X020953Y017683D01*
X020775Y017782D02*
X016914Y017782D01*
X016903Y017771D02*
X017029Y017897D01*
X017097Y018061D01*
X017097Y018239D01*
X017029Y018403D01*
X016903Y018529D01*
X016873Y018542D01*
X015646Y019769D01*
X015487Y019835D01*
X014634Y019835D01*
X014659Y019860D01*
X016030Y019860D01*
X016262Y019628D01*
X016262Y019573D01*
X016321Y019430D01*
X016430Y019321D01*
X016573Y019262D01*
X016727Y019262D01*
X016870Y019321D01*
X016979Y019430D01*
X017038Y019573D01*
X017038Y019727D01*
X016979Y019870D01*
X016949Y019900D01*
X016979Y019930D01*
X017038Y020073D01*
X017038Y020227D01*
X016979Y020370D01*
X016870Y020479D01*
X016727Y020538D01*
X016672Y020538D01*
X016314Y020896D01*
X016208Y020940D01*
X014659Y020940D01*
X014620Y020979D01*
X014477Y021038D01*
X014323Y021038D01*
X014180Y020979D01*
X014071Y020870D01*
X014012Y020727D01*
X014012Y020573D01*
X014071Y020430D01*
X014101Y020400D01*
X014071Y020370D01*
X014012Y020227D01*
X014012Y020073D01*
X014071Y019930D01*
X014153Y019847D01*
X014061Y019847D01*
X013897Y019779D01*
X013771Y019653D01*
X013770Y019653D02*
X000600Y019653D01*
X000600Y019555D02*
X013730Y019555D01*
X013703Y019489D02*
X013703Y019311D01*
X013771Y019147D01*
X013897Y019021D01*
X014061Y018953D01*
X014239Y018953D01*
X014269Y018965D01*
X015220Y018965D01*
X016258Y017927D01*
X016271Y017897D01*
X016397Y017771D01*
X016561Y017703D01*
X016739Y017703D01*
X016903Y017771D01*
X017013Y017880D02*
X020621Y017880D01*
X020551Y017979D02*
X017063Y017979D01*
X017097Y018077D02*
X020512Y018077D01*
X020229Y018176D02*
X017097Y018176D01*
X017083Y018274D02*
X020102Y018274D01*
X020043Y018373D02*
X017042Y018373D01*
X016962Y018471D02*
X020012Y018471D01*
X019808Y018570D02*
X016846Y018570D01*
X016747Y018668D02*
X019708Y018668D01*
X019660Y018767D02*
X016649Y018767D01*
X016550Y018865D02*
X019637Y018865D01*
X019637Y018964D02*
X016452Y018964D01*
X016353Y019062D02*
X019672Y019062D01*
X019736Y019161D02*
X016255Y019161D01*
X016156Y019259D02*
X019877Y019259D01*
X020173Y019259D02*
X022849Y019259D01*
X022947Y019358D02*
X016907Y019358D01*
X016990Y019456D02*
X023046Y019456D01*
X023144Y019555D02*
X017031Y019555D01*
X017038Y019653D02*
X023243Y019653D01*
X023341Y019752D02*
X017028Y019752D01*
X016988Y019850D02*
X023440Y019850D01*
X023538Y019949D02*
X016987Y019949D01*
X017028Y020047D02*
X023637Y020047D01*
X023735Y020146D02*
X017038Y020146D01*
X017031Y020244D02*
X023769Y020244D01*
X023809Y020343D02*
X016991Y020343D01*
X016908Y020441D02*
X023892Y020441D01*
X024360Y020540D02*
X016671Y020540D01*
X016572Y020638D02*
X024360Y020638D01*
X024360Y020737D02*
X016474Y020737D01*
X016375Y020835D02*
X024360Y020835D01*
X024360Y020934D02*
X016223Y020934D01*
X016040Y019850D02*
X014649Y019850D01*
X014151Y019850D02*
X000600Y019850D01*
X000600Y019752D02*
X013869Y019752D01*
X013771Y019653D02*
X013703Y019489D01*
X013703Y019456D02*
X000600Y019456D01*
X000600Y019358D02*
X013703Y019358D01*
X013724Y019259D02*
X000600Y019259D01*
X000600Y019161D02*
X013765Y019161D01*
X013855Y019062D02*
X000600Y019062D01*
X000600Y018964D02*
X014034Y018964D01*
X014266Y018964D02*
X015221Y018964D01*
X015320Y018865D02*
X000600Y018865D01*
X000600Y018767D02*
X015418Y018767D01*
X015517Y018668D02*
X000600Y018668D01*
X000600Y018570D02*
X015615Y018570D01*
X015714Y018471D02*
X002968Y018471D01*
X003066Y018373D02*
X015812Y018373D01*
X015911Y018274D02*
X003131Y018274D01*
X003172Y018176D02*
X016009Y018176D01*
X016108Y018077D02*
X003190Y018077D01*
X003190Y017979D02*
X016206Y017979D01*
X016287Y017880D02*
X003174Y017880D01*
X003134Y017782D02*
X016386Y017782D01*
X016393Y019358D02*
X016058Y019358D01*
X015959Y019456D02*
X016310Y019456D01*
X016269Y019555D02*
X015861Y019555D01*
X015762Y019653D02*
X016237Y019653D01*
X016138Y019752D02*
X015664Y019752D01*
X014063Y019949D02*
X000600Y019949D01*
X000600Y020047D02*
X014022Y020047D01*
X014012Y020146D02*
X000600Y020146D01*
X000600Y020244D02*
X014019Y020244D01*
X014059Y020343D02*
X000600Y020343D01*
X000600Y020441D02*
X014066Y020441D01*
X014025Y020540D02*
X000600Y020540D01*
X000600Y020638D02*
X014012Y020638D01*
X014015Y020737D02*
X000600Y020737D01*
X000600Y020835D02*
X014056Y020835D01*
X014134Y020934D02*
X000600Y020934D01*
X000600Y021032D02*
X008773Y021032D01*
X008823Y021012D02*
X008680Y021071D01*
X008571Y021180D01*
X008512Y021323D01*
X008512Y021378D01*
X008280Y021610D01*
X007159Y021610D01*
X007120Y021571D01*
X006977Y021512D01*
X006823Y021512D01*
X006680Y021571D01*
X006571Y021680D01*
X006512Y021823D01*
X006512Y021977D01*
X006571Y022120D01*
X006680Y022229D01*
X006823Y022288D01*
X006977Y022288D01*
X007120Y022229D01*
X007159Y022190D01*
X008458Y022190D01*
X008564Y022146D01*
X008922Y021788D01*
X008977Y021788D01*
X009120Y021729D01*
X009229Y021620D01*
X009288Y021477D01*
X009288Y021323D01*
X009229Y021180D01*
X009120Y021071D01*
X008977Y021012D01*
X008823Y021012D01*
X009027Y021032D02*
X014307Y021032D01*
X014493Y021032D02*
X024360Y021032D01*
X024360Y021131D02*
X009180Y021131D01*
X009250Y021229D02*
X024360Y021229D01*
X024360Y021328D02*
X009288Y021328D01*
X009288Y021426D02*
X024360Y021426D01*
X024360Y021525D02*
X022589Y021525D01*
X022642Y021546D02*
X022765Y021670D01*
X022832Y021832D01*
X022832Y022468D01*
X022765Y022630D01*
X022642Y022754D01*
X022480Y022821D01*
X022305Y022821D01*
X022143Y022754D01*
X022019Y022630D01*
X021952Y022468D01*
X021952Y021832D01*
X022019Y021670D01*
X022143Y021546D01*
X022305Y021479D01*
X022480Y021479D01*
X022642Y021546D01*
X022718Y021623D02*
X024360Y021623D01*
X024360Y021722D02*
X023618Y021722D01*
X023182Y021722D02*
X022787Y021722D01*
X022827Y021820D02*
X023086Y021820D01*
X023045Y021919D02*
X022832Y021919D01*
X022832Y022017D02*
X023031Y022017D01*
X023038Y022116D02*
X022832Y022116D01*
X022832Y022214D02*
X023079Y022214D01*
X023166Y022313D02*
X022832Y022313D01*
X022832Y022411D02*
X024001Y022411D01*
X024099Y022510D02*
X022815Y022510D01*
X022774Y022608D02*
X024198Y022608D01*
X024296Y022707D02*
X022689Y022707D01*
X022517Y022805D02*
X024395Y022805D01*
X024493Y022904D02*
X016749Y022904D01*
X016749Y022969D02*
X016696Y023098D01*
X016598Y023196D01*
X016469Y023249D01*
X016331Y023249D01*
X016202Y023196D01*
X016196Y023190D01*
X015342Y023190D01*
X015236Y023146D01*
X014839Y022749D01*
X014831Y022749D01*
X014702Y022696D01*
X014604Y022598D01*
X014551Y022469D01*
X014551Y022331D01*
X014604Y022202D01*
X014702Y022104D01*
X014831Y022051D01*
X014969Y022051D01*
X015098Y022104D01*
X015196Y022202D01*
X015249Y022331D01*
X015249Y022339D01*
X015520Y022610D01*
X016196Y022610D01*
X016202Y022604D01*
X016331Y022551D01*
X016469Y022551D01*
X016598Y022604D01*
X016696Y022702D01*
X016749Y022831D01*
X016749Y022969D01*
X016736Y023002D02*
X024592Y023002D01*
X024690Y023101D02*
X016693Y023101D01*
X016590Y023199D02*
X024789Y023199D01*
X024904Y023314D02*
X024986Y023396D01*
X025834Y023495D02*
X000600Y023495D01*
X000600Y023593D02*
X025933Y023593D01*
X026031Y023692D02*
X000600Y023692D01*
X000600Y023790D02*
X026130Y023790D01*
X026228Y023889D02*
X000600Y023889D01*
X000600Y023987D02*
X026327Y023987D01*
X026425Y024086D02*
X000600Y024086D01*
X000600Y024184D02*
X026524Y024184D01*
X026639Y024283D02*
X000600Y024283D01*
X000600Y024381D02*
X032657Y024381D01*
X032682Y024443D02*
X032605Y024255D01*
X032605Y024052D01*
X032682Y023865D01*
X032826Y023722D01*
X032989Y023654D01*
X032826Y023586D01*
X032682Y023443D01*
X032605Y023255D01*
X032605Y023052D01*
X032682Y022865D01*
X032826Y022722D01*
X032989Y022654D01*
X032826Y022586D01*
X032682Y022443D01*
X032605Y022255D01*
X032605Y022052D01*
X032682Y021865D01*
X032660Y021919D02*
X024940Y021919D01*
X024940Y022017D02*
X032619Y022017D01*
X032605Y022116D02*
X025026Y022116D01*
X025124Y022214D02*
X032605Y022214D01*
X032628Y022313D02*
X025223Y022313D01*
X026321Y022411D02*
X032669Y022411D01*
X032749Y022510D02*
X026420Y022510D01*
X026518Y022608D02*
X032878Y022608D01*
X032862Y022707D02*
X026617Y022707D01*
X026781Y022805D02*
X032742Y022805D01*
X032666Y022904D02*
X026925Y022904D01*
X026988Y023002D02*
X032625Y023002D01*
X032605Y023101D02*
X027019Y023101D01*
X027019Y023199D02*
X032605Y023199D01*
X032622Y023298D02*
X026988Y023298D01*
X026925Y023396D02*
X032663Y023396D01*
X032734Y023495D02*
X027766Y023495D01*
X027849Y023593D02*
X032842Y023593D01*
X032898Y023692D02*
X027890Y023692D01*
X027894Y023790D02*
X032757Y023790D01*
X032672Y023889D02*
X027877Y023889D01*
X027834Y023987D02*
X032632Y023987D01*
X032605Y024086D02*
X027736Y024086D01*
X027526Y024184D02*
X032605Y024184D01*
X032616Y024283D02*
X027411Y024283D01*
X027171Y024677D02*
X030487Y024677D01*
X030311Y024750D02*
X030664Y024603D01*
X031046Y024603D01*
X031399Y024750D01*
X031669Y025020D01*
X031815Y025372D01*
X031815Y025754D01*
X031669Y026107D01*
X031399Y026377D01*
X031046Y026523D01*
X030664Y026523D01*
X030311Y026377D01*
X030041Y026107D01*
X029895Y025754D01*
X029895Y025372D01*
X030041Y025020D01*
X030311Y024750D01*
X030285Y024775D02*
X027373Y024775D01*
X027347Y024750D02*
X027617Y025020D01*
X027764Y025372D01*
X027764Y025754D01*
X027617Y026107D01*
X027347Y026377D01*
X026994Y026523D01*
X026613Y026523D01*
X026260Y026377D01*
X025990Y026107D01*
X025844Y025754D01*
X025844Y025372D01*
X025990Y025020D01*
X026260Y024750D01*
X026613Y024603D01*
X026994Y024603D01*
X027347Y024750D01*
X027471Y024874D02*
X030187Y024874D01*
X030088Y024972D02*
X027570Y024972D01*
X027639Y025071D02*
X030020Y025071D01*
X029979Y025169D02*
X027679Y025169D01*
X027720Y025268D02*
X029938Y025268D01*
X029897Y025366D02*
X027761Y025366D01*
X027764Y025465D02*
X029895Y025465D01*
X029895Y025563D02*
X027764Y025563D01*
X027764Y025662D02*
X029895Y025662D01*
X029897Y025760D02*
X027761Y025760D01*
X027720Y025859D02*
X029938Y025859D01*
X029979Y025957D02*
X027680Y025957D01*
X027639Y026056D02*
X030019Y026056D01*
X030088Y026154D02*
X027571Y026154D01*
X027472Y026253D02*
X030186Y026253D01*
X030285Y026351D02*
X027374Y026351D01*
X027173Y026450D02*
X030486Y026450D01*
X030045Y026844D02*
X032704Y026844D01*
X032682Y026865D02*
X032826Y026722D01*
X032989Y026654D01*
X032826Y026586D01*
X032682Y026443D01*
X032605Y026255D01*
X032605Y026052D01*
X032682Y025865D01*
X032826Y025722D01*
X032989Y025654D01*
X032826Y025586D01*
X032682Y025443D01*
X032605Y025255D01*
X032605Y025052D01*
X032682Y024865D01*
X032826Y024722D01*
X032989Y024654D01*
X032826Y024586D01*
X032682Y024443D01*
X032719Y024480D02*
X000600Y024480D01*
X000600Y024578D02*
X032817Y024578D01*
X032934Y024677D02*
X031222Y024677D01*
X031424Y024775D02*
X032772Y024775D01*
X032679Y024874D02*
X031523Y024874D01*
X031621Y024972D02*
X032638Y024972D01*
X032605Y025071D02*
X031690Y025071D01*
X031730Y025169D02*
X032605Y025169D01*
X032610Y025268D02*
X031771Y025268D01*
X031812Y025366D02*
X032650Y025366D01*
X032704Y025465D02*
X031815Y025465D01*
X031815Y025563D02*
X032802Y025563D01*
X032971Y025662D02*
X031815Y025662D01*
X031812Y025760D02*
X032787Y025760D01*
X032689Y025859D02*
X031772Y025859D01*
X031731Y025957D02*
X032644Y025957D01*
X032605Y026056D02*
X031690Y026056D01*
X031622Y026154D02*
X032605Y026154D01*
X032605Y026253D02*
X031523Y026253D01*
X031425Y026351D02*
X032644Y026351D01*
X032689Y026450D02*
X031224Y026450D01*
X030376Y027139D02*
X032605Y027139D01*
X032605Y027052D02*
X032682Y026865D01*
X032650Y026942D02*
X030193Y026942D01*
X030163Y026912D02*
X030357Y027106D01*
X030494Y027343D01*
X030565Y027607D01*
X030565Y027881D01*
X030494Y028146D01*
X030357Y028383D01*
X030163Y028577D01*
X029926Y028714D01*
X029661Y028785D01*
X029387Y028785D01*
X029122Y028714D01*
X028885Y028577D01*
X028691Y028383D01*
X028554Y028146D01*
X028483Y027881D01*
X028483Y027607D01*
X028554Y027343D01*
X028691Y027106D01*
X028885Y026912D01*
X029122Y026775D01*
X029387Y026704D01*
X029661Y026704D01*
X029926Y026775D01*
X030163Y026912D01*
X030292Y027041D02*
X032610Y027041D01*
X032605Y027052D02*
X032605Y027255D01*
X032682Y027443D01*
X032826Y027586D01*
X032989Y027654D01*
X032826Y027722D01*
X032682Y027865D01*
X032605Y028052D01*
X032605Y028255D01*
X032682Y028443D01*
X032826Y028586D01*
X032989Y028654D01*
X032826Y028722D01*
X032682Y028865D01*
X032605Y029052D01*
X032605Y029255D01*
X032682Y029443D01*
X032826Y029586D01*
X032989Y029654D01*
X032826Y029722D01*
X032682Y029865D01*
X032605Y030052D01*
X032605Y030255D01*
X032682Y030443D01*
X032826Y030586D01*
X033013Y030664D01*
X033216Y030664D01*
X033403Y030586D01*
X033547Y030443D01*
X033615Y030280D01*
X033682Y030443D01*
X033826Y030586D01*
X034013Y030664D01*
X034216Y030664D01*
X034403Y030586D01*
X034547Y030443D01*
X034625Y030255D01*
X034625Y030052D01*
X034547Y029865D01*
X034403Y029722D01*
X034240Y029654D01*
X034403Y029586D01*
X034547Y029443D01*
X034625Y029255D01*
X034625Y029052D01*
X034547Y028865D01*
X034403Y028722D01*
X034240Y028654D01*
X034403Y028586D01*
X034547Y028443D01*
X034625Y028255D01*
X034625Y028052D01*
X034547Y027865D01*
X034403Y027722D01*
X034240Y027654D01*
X034403Y027586D01*
X034547Y027443D01*
X034625Y027255D01*
X034625Y027052D01*
X034547Y026865D01*
X034403Y026722D01*
X034240Y026654D01*
X034403Y026586D01*
X034547Y026443D01*
X034625Y026255D01*
X034625Y026052D01*
X034547Y025865D01*
X034403Y025722D01*
X034240Y025654D01*
X034403Y025586D01*
X034547Y025443D01*
X034625Y025255D01*
X034625Y025052D01*
X034578Y024940D01*
X035208Y024940D01*
X035314Y024896D01*
X035652Y024558D01*
X035731Y024558D01*
X035881Y024496D01*
X035996Y024381D01*
X035898Y024480D02*
X036708Y024480D01*
X036708Y024578D02*
X035632Y024578D01*
X035534Y024677D02*
X036708Y024677D01*
X036708Y024775D02*
X035435Y024775D01*
X035337Y024874D02*
X036708Y024874D01*
X036708Y024972D02*
X034591Y024972D01*
X034625Y025071D02*
X036708Y025071D01*
X036708Y025169D02*
X034625Y025169D01*
X034620Y025268D02*
X036708Y025268D01*
X036708Y025366D02*
X034579Y025366D01*
X034525Y025465D02*
X036708Y025465D01*
X036708Y025563D02*
X034427Y025563D01*
X034259Y025662D02*
X036708Y025662D01*
X036708Y025760D02*
X034442Y025760D01*
X034540Y025859D02*
X036708Y025859D01*
X036708Y025957D02*
X034585Y025957D01*
X034625Y026056D02*
X036708Y026056D01*
X036708Y026154D02*
X034625Y026154D01*
X034625Y026253D02*
X036708Y026253D01*
X036708Y026351D02*
X034585Y026351D01*
X034540Y026450D02*
X036708Y026450D01*
X036708Y026548D02*
X034442Y026548D01*
X034427Y026745D02*
X036708Y026745D01*
X036708Y026647D02*
X034258Y026647D01*
X034525Y026844D02*
X036708Y026844D01*
X036708Y026942D02*
X034579Y026942D01*
X034620Y027041D02*
X036708Y027041D01*
X036708Y027139D02*
X034625Y027139D01*
X034625Y027238D02*
X036708Y027238D01*
X036708Y027336D02*
X034591Y027336D01*
X034550Y027435D02*
X036708Y027435D01*
X036708Y027533D02*
X034457Y027533D01*
X034294Y027632D02*
X036708Y027632D01*
X036708Y027730D02*
X034412Y027730D01*
X034510Y027829D02*
X036708Y027829D01*
X036708Y027927D02*
X034573Y027927D01*
X034613Y028026D02*
X036708Y028026D01*
X036708Y028124D02*
X034625Y028124D01*
X034625Y028223D02*
X036708Y028223D01*
X036708Y028321D02*
X034597Y028321D01*
X034557Y028420D02*
X036708Y028420D01*
X036708Y028518D02*
X034472Y028518D01*
X034330Y028617D02*
X036708Y028617D01*
X036708Y028715D02*
X034388Y028715D01*
X034495Y028814D02*
X036708Y028814D01*
X036708Y028912D02*
X034566Y028912D01*
X034607Y029011D02*
X036708Y029011D01*
X036708Y029109D02*
X034625Y029109D01*
X034625Y029208D02*
X036708Y029208D01*
X036708Y029306D02*
X034604Y029306D01*
X034563Y029405D02*
X036708Y029405D01*
X036708Y029503D02*
X034487Y029503D01*
X034367Y029602D02*
X036708Y029602D01*
X036708Y029700D02*
X034352Y029700D01*
X034480Y029799D02*
X036708Y029799D01*
X036708Y029897D02*
X034560Y029897D01*
X034601Y029996D02*
X036708Y029996D01*
X036708Y030094D02*
X034625Y030094D01*
X034625Y030193D02*
X036708Y030193D01*
X036708Y030291D02*
X034610Y030291D01*
X034569Y030390D02*
X036708Y030390D01*
X036708Y030488D02*
X034502Y030488D01*
X034403Y030587D02*
X036708Y030587D01*
X036708Y030685D02*
X000600Y030685D01*
X000600Y030587D02*
X032826Y030587D01*
X032727Y030488D02*
X019657Y030488D01*
X019630Y030515D02*
X019468Y030582D01*
X018832Y030582D01*
X018670Y030515D01*
X018546Y030392D01*
X018479Y030230D01*
X018479Y030055D01*
X018546Y029893D01*
X018670Y029769D01*
X018832Y029702D01*
X019468Y029702D01*
X019630Y029769D01*
X019754Y029893D01*
X019821Y030055D01*
X019821Y030230D01*
X019754Y030392D01*
X019630Y030515D01*
X019754Y030390D02*
X032660Y030390D01*
X032619Y030291D02*
X019795Y030291D01*
X019821Y030193D02*
X032605Y030193D01*
X032605Y030094D02*
X019821Y030094D01*
X019796Y029996D02*
X032628Y029996D01*
X032669Y029897D02*
X019755Y029897D01*
X019659Y029799D02*
X032749Y029799D01*
X032878Y029700D02*
X009453Y029700D01*
X009399Y029754D02*
X009523Y029630D01*
X009590Y029468D01*
X009590Y028832D01*
X009523Y028670D01*
X009399Y028546D01*
X009238Y028479D01*
X009062Y028479D01*
X008901Y028546D01*
X008777Y028670D01*
X008710Y028832D01*
X008710Y029468D01*
X008777Y029630D01*
X008901Y029754D01*
X009062Y029821D01*
X009238Y029821D01*
X009399Y029754D01*
X009291Y029799D02*
X018641Y029799D01*
X018545Y029897D02*
X000600Y029897D01*
X000600Y029799D02*
X007009Y029799D01*
X007062Y029821D02*
X006901Y029754D01*
X006777Y029630D01*
X006710Y029468D01*
X006710Y028832D01*
X006777Y028670D01*
X006901Y028546D01*
X007062Y028479D01*
X007238Y028479D01*
X007399Y028546D01*
X007523Y028670D01*
X007590Y028832D01*
X007590Y029468D01*
X007523Y029630D01*
X007399Y029754D01*
X007238Y029821D01*
X007062Y029821D01*
X007291Y029799D02*
X008009Y029799D01*
X008062Y029821D02*
X007901Y029754D01*
X007777Y029630D01*
X007710Y029468D01*
X007710Y028832D01*
X007777Y028670D01*
X007901Y028546D01*
X008062Y028479D01*
X008238Y028479D01*
X008399Y028546D01*
X008523Y028670D01*
X008590Y028832D01*
X008590Y029468D01*
X008523Y029630D01*
X008399Y029754D01*
X008238Y029821D01*
X008062Y029821D01*
X008291Y029799D02*
X009009Y029799D01*
X008847Y029700D02*
X008453Y029700D01*
X008535Y029602D02*
X008765Y029602D01*
X008724Y029503D02*
X008576Y029503D01*
X008590Y029405D02*
X008710Y029405D01*
X008710Y029306D02*
X008590Y029306D01*
X008590Y029208D02*
X008710Y029208D01*
X008710Y029109D02*
X008590Y029109D01*
X008590Y029011D02*
X008710Y029011D01*
X008710Y028912D02*
X008590Y028912D01*
X008583Y028814D02*
X008717Y028814D01*
X008758Y028715D02*
X008542Y028715D01*
X008470Y028617D02*
X008830Y028617D01*
X008969Y028518D02*
X008331Y028518D01*
X007969Y028518D02*
X007331Y028518D01*
X007470Y028617D02*
X007830Y028617D01*
X007758Y028715D02*
X007542Y028715D01*
X007583Y028814D02*
X007717Y028814D01*
X007710Y028912D02*
X007590Y028912D01*
X007590Y029011D02*
X007710Y029011D01*
X007710Y029109D02*
X007590Y029109D01*
X007590Y029208D02*
X007710Y029208D01*
X007710Y029306D02*
X007590Y029306D01*
X007590Y029405D02*
X007710Y029405D01*
X007724Y029503D02*
X007576Y029503D01*
X007535Y029602D02*
X007765Y029602D01*
X007847Y029700D02*
X007453Y029700D01*
X006847Y029700D02*
X000600Y029700D01*
X000600Y029602D02*
X006765Y029602D01*
X006724Y029503D02*
X000600Y029503D01*
X000600Y029405D02*
X006710Y029405D01*
X006710Y029306D02*
X000600Y029306D01*
X000600Y029208D02*
X006710Y029208D01*
X006710Y029109D02*
X000600Y029109D01*
X000600Y029011D02*
X006710Y029011D01*
X006710Y028912D02*
X000600Y028912D01*
X000600Y028814D02*
X006717Y028814D01*
X006758Y028715D02*
X000600Y028715D01*
X000600Y028617D02*
X006830Y028617D01*
X006969Y028518D02*
X000600Y028518D01*
X000600Y028420D02*
X018043Y028420D01*
X018092Y028440D02*
X017986Y028396D01*
X017904Y028314D01*
X017404Y027814D01*
X017360Y027708D01*
X017360Y026437D01*
X017304Y026381D01*
X017242Y026231D01*
X017242Y026069D01*
X017304Y025919D01*
X017419Y025804D01*
X017569Y025742D01*
X017731Y025742D01*
X017881Y025804D01*
X017996Y025919D01*
X018058Y026069D01*
X018058Y026231D01*
X017996Y026381D01*
X017940Y026437D01*
X017940Y027530D01*
X018270Y027860D01*
X019863Y027860D01*
X019919Y027804D01*
X020069Y027742D01*
X020231Y027742D01*
X020381Y027804D01*
X020496Y027919D01*
X020558Y028069D01*
X020558Y028231D01*
X020496Y028381D01*
X020381Y028496D01*
X020231Y028558D01*
X020069Y028558D01*
X019919Y028496D01*
X019863Y028440D01*
X018092Y028440D01*
X017911Y028321D02*
X000600Y028321D01*
X000600Y028223D02*
X017812Y028223D01*
X017714Y028124D02*
X000600Y028124D01*
X000600Y028026D02*
X017615Y028026D01*
X017517Y027927D02*
X000600Y027927D01*
X000600Y027829D02*
X017418Y027829D01*
X017369Y027730D02*
X000600Y027730D01*
X000600Y027632D02*
X017360Y027632D01*
X017360Y027533D02*
X000600Y027533D01*
X000600Y027435D02*
X017360Y027435D01*
X017360Y027336D02*
X000600Y027336D01*
X000600Y027238D02*
X017360Y027238D01*
X017360Y027139D02*
X000600Y027139D01*
X000600Y027041D02*
X017360Y027041D01*
X017360Y026942D02*
X000600Y026942D01*
X000600Y026844D02*
X017360Y026844D01*
X017360Y026745D02*
X000600Y026745D01*
X000600Y026647D02*
X017360Y026647D01*
X017360Y026548D02*
X000600Y026548D01*
X000600Y026450D02*
X017360Y026450D01*
X017292Y026351D02*
X000600Y026351D01*
X000600Y026253D02*
X017251Y026253D01*
X017242Y026154D02*
X000600Y026154D01*
X000600Y026056D02*
X017247Y026056D01*
X017288Y025957D02*
X000600Y025957D01*
X000600Y025859D02*
X017364Y025859D01*
X017525Y025760D02*
X000600Y025760D01*
X000600Y025662D02*
X018664Y025662D01*
X018692Y025594D02*
X018844Y025442D01*
X019043Y025360D01*
X019257Y025360D01*
X019456Y025442D01*
X019608Y025594D01*
X019690Y025793D01*
X019690Y026007D01*
X019608Y026206D01*
X019456Y026358D01*
X019354Y026400D01*
X019456Y026442D01*
X019608Y026594D01*
X019690Y026793D01*
X019690Y027007D01*
X019608Y027206D01*
X019456Y027358D01*
X019257Y027440D01*
X019043Y027440D01*
X018844Y027358D01*
X018692Y027206D01*
X018610Y027007D01*
X018610Y026793D01*
X018692Y026594D01*
X018844Y026442D01*
X018946Y026400D01*
X018844Y026358D01*
X018692Y026206D01*
X018610Y026007D01*
X018610Y025793D01*
X018692Y025594D01*
X018723Y025563D02*
X000600Y025563D01*
X000600Y025465D02*
X018822Y025465D01*
X019028Y025366D02*
X000600Y025366D01*
X000600Y025268D02*
X023517Y025268D01*
X023476Y025366D02*
X019272Y025366D01*
X019478Y025465D02*
X023473Y025465D01*
X023473Y025372D02*
X023620Y025020D01*
X023890Y024750D01*
X024243Y024603D01*
X024624Y024603D01*
X024977Y024750D01*
X025247Y025020D01*
X025393Y025372D01*
X025393Y025754D01*
X025247Y026107D01*
X024977Y026377D01*
X024624Y026523D01*
X024243Y026523D01*
X023890Y026377D01*
X023620Y026107D01*
X023473Y025754D01*
X023473Y025372D01*
X023473Y025563D02*
X019577Y025563D01*
X019636Y025662D02*
X023473Y025662D01*
X023476Y025760D02*
X019677Y025760D01*
X019690Y025859D02*
X023517Y025859D01*
X023557Y025957D02*
X019690Y025957D01*
X019670Y026056D02*
X023598Y026056D01*
X023666Y026154D02*
X019629Y026154D01*
X019561Y026253D02*
X023765Y026253D01*
X023864Y026351D02*
X019463Y026351D01*
X019463Y026450D02*
X024064Y026450D01*
X024803Y026450D02*
X026434Y026450D01*
X026234Y026351D02*
X025003Y026351D01*
X025102Y026253D02*
X026135Y026253D01*
X026037Y026154D02*
X025200Y026154D01*
X025269Y026056D02*
X025968Y026056D01*
X025928Y025957D02*
X025309Y025957D01*
X025350Y025859D02*
X025887Y025859D01*
X025846Y025760D02*
X025391Y025760D01*
X025393Y025662D02*
X025844Y025662D01*
X025844Y025563D02*
X025393Y025563D01*
X025393Y025465D02*
X025844Y025465D01*
X025846Y025366D02*
X025391Y025366D01*
X025350Y025268D02*
X025887Y025268D01*
X025928Y025169D02*
X025309Y025169D01*
X025268Y025071D02*
X025969Y025071D01*
X026037Y024972D02*
X025200Y024972D01*
X025101Y024874D02*
X026136Y024874D01*
X026234Y024775D02*
X025003Y024775D01*
X024801Y024677D02*
X026436Y024677D01*
X026852Y023692D02*
X027160Y023692D01*
X027201Y023593D02*
X026753Y023593D01*
X026782Y023495D02*
X027284Y023495D01*
X024360Y021919D02*
X024329Y021919D01*
X024360Y021820D02*
X024230Y021820D01*
X022195Y021525D02*
X021605Y021525D01*
X021657Y021546D02*
X021781Y021670D01*
X021848Y021832D01*
X021848Y022468D01*
X021781Y022630D01*
X021657Y022754D01*
X021495Y022821D01*
X021320Y022821D01*
X021158Y022754D01*
X021035Y022630D01*
X020968Y022468D01*
X020968Y021832D01*
X021035Y021670D01*
X021158Y021546D01*
X021320Y021479D01*
X021495Y021479D01*
X021657Y021546D01*
X021734Y021623D02*
X022066Y021623D01*
X021998Y021722D02*
X021802Y021722D01*
X021843Y021820D02*
X021957Y021820D01*
X021952Y021919D02*
X021848Y021919D01*
X021848Y022017D02*
X021952Y022017D01*
X021952Y022116D02*
X021848Y022116D01*
X021848Y022214D02*
X021952Y022214D01*
X021952Y022313D02*
X021848Y022313D01*
X021848Y022411D02*
X021952Y022411D01*
X021969Y022510D02*
X021831Y022510D01*
X021790Y022608D02*
X022010Y022608D01*
X022096Y022707D02*
X021704Y022707D01*
X021533Y022805D02*
X022267Y022805D01*
X021283Y022805D02*
X016738Y022805D01*
X016698Y022707D02*
X021111Y022707D01*
X021026Y022608D02*
X016602Y022608D01*
X016198Y022608D02*
X015518Y022608D01*
X015420Y022510D02*
X020985Y022510D01*
X020968Y022411D02*
X015321Y022411D01*
X015242Y022313D02*
X020968Y022313D01*
X020968Y022214D02*
X015201Y022214D01*
X015109Y022116D02*
X020968Y022116D01*
X020968Y022017D02*
X008693Y022017D01*
X008595Y022116D02*
X014691Y022116D01*
X014599Y022214D02*
X007135Y022214D01*
X006665Y022214D02*
X000600Y022214D01*
X000600Y022116D02*
X006569Y022116D01*
X006528Y022017D02*
X000600Y022017D01*
X000600Y021919D02*
X006512Y021919D01*
X006513Y021820D02*
X000600Y021820D01*
X000600Y021722D02*
X006553Y021722D01*
X006628Y021623D02*
X000600Y021623D01*
X000600Y021525D02*
X006791Y021525D01*
X007009Y021525D02*
X008365Y021525D01*
X008464Y021426D02*
X000600Y021426D01*
X000600Y021328D02*
X008512Y021328D01*
X008550Y021229D02*
X000600Y021229D01*
X000600Y021131D02*
X008620Y021131D01*
X008890Y021820D02*
X020973Y021820D01*
X020968Y021919D02*
X008792Y021919D01*
X009128Y021722D02*
X021013Y021722D01*
X021082Y021623D02*
X009226Y021623D01*
X009269Y021525D02*
X021211Y021525D01*
X024563Y019653D02*
X032987Y019653D01*
X032710Y018471D02*
X032287Y018471D01*
X032421Y018373D02*
X032653Y018373D01*
X032612Y018274D02*
X032476Y018274D01*
X032499Y018176D02*
X032605Y018176D01*
X032605Y018077D02*
X032498Y018077D01*
X032457Y017979D02*
X032635Y017979D01*
X032676Y017880D02*
X032440Y017880D01*
X032440Y017782D02*
X032766Y017782D01*
X032919Y017683D02*
X032440Y017683D01*
X032440Y017585D02*
X032824Y017585D01*
X032725Y017486D02*
X032440Y017486D01*
X032440Y017388D02*
X032659Y017388D01*
X032619Y017289D02*
X032440Y017289D01*
X032440Y017191D02*
X032605Y017191D01*
X032605Y017092D02*
X032440Y017092D01*
X032440Y016994D02*
X032629Y016994D01*
X032670Y016895D02*
X032440Y016895D01*
X032440Y016797D02*
X032751Y016797D01*
X032883Y016698D02*
X032440Y016698D01*
X032440Y016600D02*
X032858Y016600D01*
X032740Y016501D02*
X032440Y016501D01*
X032440Y016403D02*
X032666Y016403D01*
X032625Y016304D02*
X032440Y016304D01*
X032440Y016206D02*
X032605Y016206D01*
X032605Y016107D02*
X032440Y016107D01*
X032440Y016009D02*
X032623Y016009D01*
X032664Y015910D02*
X032440Y015910D01*
X032440Y015812D02*
X032736Y015812D01*
X032846Y015713D02*
X032440Y015713D01*
X032440Y015615D02*
X032894Y015615D01*
X032755Y015516D02*
X032440Y015516D01*
X032440Y015418D02*
X032672Y015418D01*
X032631Y015319D02*
X032440Y015319D01*
X032440Y015221D02*
X032605Y015221D01*
X032605Y015122D02*
X032440Y015122D01*
X032440Y015024D02*
X032617Y015024D01*
X032657Y014925D02*
X032440Y014925D01*
X032440Y014827D02*
X032721Y014827D01*
X032819Y014728D02*
X032440Y014728D01*
X032440Y014630D02*
X032930Y014630D01*
X032770Y014531D02*
X032440Y014531D01*
X032440Y014433D02*
X032678Y014433D01*
X032637Y014334D02*
X032440Y014334D01*
X032440Y014236D02*
X032605Y014236D01*
X032605Y014137D02*
X032440Y014137D01*
X032440Y014039D02*
X032610Y014039D01*
X032651Y013940D02*
X032440Y013940D01*
X032440Y013842D02*
X032706Y013842D01*
X032804Y013743D02*
X032440Y013743D01*
X032440Y013645D02*
X032966Y013645D01*
X032785Y013546D02*
X032440Y013546D01*
X032440Y013448D02*
X032687Y013448D01*
X032643Y013349D02*
X032440Y013349D01*
X032440Y013251D02*
X032605Y013251D01*
X032605Y013152D02*
X032440Y013152D01*
X032440Y013054D02*
X032605Y013054D01*
X032645Y012955D02*
X032440Y012955D01*
X032440Y012857D02*
X032691Y012857D01*
X032789Y012758D02*
X032440Y012758D01*
X032440Y012660D02*
X032975Y012660D01*
X032800Y012561D02*
X032440Y012561D01*
X032440Y012463D02*
X032702Y012463D01*
X032650Y012364D02*
X032440Y012364D01*
X032440Y012266D02*
X032609Y012266D01*
X032605Y012167D02*
X032440Y012167D01*
X032440Y012069D02*
X032605Y012069D01*
X032639Y011970D02*
X032440Y011970D01*
X032440Y011872D02*
X032680Y011872D01*
X032774Y011773D02*
X032440Y011773D01*
X032440Y011675D02*
X032939Y011675D01*
X032815Y011576D02*
X032440Y011576D01*
X032440Y011478D02*
X032717Y011478D01*
X032656Y011379D02*
X032440Y011379D01*
X032440Y011281D02*
X032615Y011281D01*
X032605Y011182D02*
X032440Y011182D01*
X032440Y011084D02*
X032605Y011084D01*
X032633Y010985D02*
X032440Y010985D01*
X032440Y010887D02*
X032515Y010887D01*
X031360Y011970D02*
X031341Y011970D01*
X030173Y011084D02*
X005433Y011084D01*
X005382Y010985D02*
X029995Y010985D01*
X029865Y010887D02*
X005264Y010887D01*
X004911Y010887D02*
X000600Y010887D01*
X000600Y010985D02*
X004793Y010985D01*
X004742Y011084D02*
X000600Y011084D01*
X000600Y011182D02*
X004719Y011182D01*
X004719Y011281D02*
X000600Y011281D01*
X000600Y011379D02*
X004757Y011379D01*
X004831Y011478D02*
X000600Y011478D01*
X000600Y011576D02*
X005002Y011576D01*
X005139Y011675D02*
X000600Y011675D01*
X000600Y011773D02*
X005925Y011773D01*
X000600Y010788D02*
X029808Y010788D01*
X029781Y010690D02*
X000600Y010690D01*
X000600Y010591D02*
X029781Y010591D01*
X029816Y010493D02*
X000600Y010493D01*
X000600Y010394D02*
X029884Y010394D01*
X030042Y010296D02*
X000600Y010296D01*
X000600Y008424D02*
X031069Y008424D01*
X031182Y009212D02*
X031563Y009212D01*
X031630Y009311D02*
X031304Y009311D01*
X031355Y009409D02*
X031630Y009409D01*
X031630Y009508D02*
X031418Y009508D01*
X031516Y009606D02*
X031630Y009606D01*
X031630Y009705D02*
X031615Y009705D01*
X032420Y009015D02*
X032620Y009015D01*
X032605Y009114D02*
X032495Y009114D01*
X032594Y009212D02*
X032605Y009212D01*
X032661Y008917D02*
X032420Y008917D01*
X032420Y008818D02*
X032729Y008818D01*
X032831Y008720D02*
X032420Y008720D01*
X032420Y008621D02*
X032910Y008621D01*
X032762Y008523D02*
X032389Y008523D01*
X032306Y008424D02*
X032674Y008424D01*
X032634Y008326D02*
X032207Y008326D01*
X032109Y008227D02*
X032605Y008227D01*
X032605Y008129D02*
X032010Y008129D01*
X031978Y008030D02*
X032614Y008030D01*
X032655Y007932D02*
X031925Y007932D01*
X031797Y007833D02*
X032714Y007833D01*
X033581Y006947D02*
X033648Y006947D01*
X033699Y006848D02*
X033530Y006848D01*
X033431Y006750D02*
X033798Y006750D01*
X033996Y006651D02*
X033233Y006651D01*
X035289Y005272D02*
X036708Y005272D01*
X036708Y005174D02*
X035289Y005174D01*
X035289Y005075D02*
X036708Y005075D01*
X036708Y004977D02*
X035289Y004977D01*
X035289Y004878D02*
X036708Y004878D01*
X036708Y004780D02*
X035289Y004780D01*
X035289Y004681D02*
X036708Y004681D01*
X036708Y004583D02*
X035289Y004583D01*
X035289Y004484D02*
X036708Y004484D01*
X036708Y004386D02*
X035289Y004386D01*
X035289Y004287D02*
X036708Y004287D01*
X036708Y004189D02*
X035289Y004189D01*
X035289Y004090D02*
X036708Y004090D01*
X036708Y003992D02*
X035289Y003992D01*
X035289Y003893D02*
X036708Y003893D01*
X036708Y003795D02*
X035289Y003795D01*
X035289Y003696D02*
X036708Y003696D01*
X036702Y003598D02*
X035289Y003598D01*
X035289Y003499D02*
X036675Y003499D01*
X036652Y003414D02*
X036652Y003414D01*
X036645Y003401D02*
X035289Y003401D01*
X035289Y003302D02*
X036588Y003302D01*
X036512Y003204D02*
X035289Y003204D01*
X035289Y003105D02*
X036408Y003105D01*
X036214Y003007D02*
X035289Y003007D01*
X027653Y000741D02*
X000903Y000741D01*
X001100Y000643D02*
X027653Y000643D01*
X025158Y007650D02*
X025150Y007650D01*
X029419Y013842D02*
X031360Y013842D01*
X031360Y013940D02*
X029505Y013940D01*
X029546Y014039D02*
X031360Y014039D01*
X031360Y014137D02*
X029558Y014137D01*
X029556Y014236D02*
X031360Y014236D01*
X031360Y014334D02*
X029516Y014334D01*
X029445Y014433D02*
X031360Y014433D01*
X031360Y014531D02*
X029440Y014531D01*
X029440Y014630D02*
X031360Y014630D01*
X031360Y014728D02*
X029440Y014728D01*
X029440Y014827D02*
X031360Y014827D01*
X031360Y014925D02*
X029440Y014925D01*
X029440Y015024D02*
X031360Y015024D01*
X031360Y015122D02*
X029440Y015122D01*
X029440Y015221D02*
X031360Y015221D01*
X031360Y015319D02*
X029440Y015319D01*
X029440Y015418D02*
X031360Y015418D01*
X031360Y015516D02*
X029440Y015516D01*
X029440Y015615D02*
X031360Y015615D01*
X031360Y015713D02*
X029440Y015713D01*
X029440Y015812D02*
X031360Y015812D01*
X031360Y015910D02*
X029440Y015910D01*
X029440Y016009D02*
X031360Y016009D01*
X031360Y016107D02*
X029440Y016107D01*
X029440Y016206D02*
X031360Y016206D01*
X031360Y016304D02*
X029440Y016304D01*
X029440Y016403D02*
X031360Y016403D01*
X031360Y016501D02*
X029440Y016501D01*
X029440Y016600D02*
X031360Y016600D01*
X031360Y016698D02*
X029440Y016698D01*
X029403Y016797D02*
X031360Y016797D01*
X031360Y016895D02*
X029315Y016895D01*
X029217Y016994D02*
X031360Y016994D01*
X031360Y017092D02*
X029118Y017092D01*
X029020Y017191D02*
X031360Y017191D01*
X031360Y017289D02*
X028921Y017289D01*
X028823Y017388D02*
X031360Y017388D01*
X031360Y017486D02*
X028724Y017486D01*
X028626Y017585D02*
X031360Y017585D01*
X031360Y017683D02*
X028527Y017683D01*
X028429Y017782D02*
X031360Y017782D01*
X031360Y017880D02*
X028330Y017880D01*
X028396Y017814D02*
X028396Y017814D01*
X028101Y017289D02*
X028034Y017289D01*
X028058Y017191D02*
X028199Y017191D01*
X028298Y017092D02*
X028058Y017092D01*
X028027Y016994D02*
X028396Y016994D01*
X028495Y016895D02*
X027972Y016895D01*
X027863Y016797D02*
X028593Y016797D01*
X028692Y016698D02*
X027608Y016698D01*
X027510Y016600D02*
X028790Y016600D01*
X028860Y016501D02*
X027411Y016501D01*
X027310Y016403D02*
X028860Y016403D01*
X031787Y018471D02*
X032013Y018471D01*
X034472Y023790D02*
X035453Y023790D01*
X035334Y023889D02*
X034557Y023889D01*
X034597Y023987D02*
X035276Y023987D01*
X035242Y024086D02*
X034625Y024086D01*
X034625Y024184D02*
X035206Y024184D01*
X035107Y024283D02*
X034613Y024283D01*
X032787Y026548D02*
X019562Y026548D01*
X019630Y026647D02*
X032971Y026647D01*
X032802Y026745D02*
X029815Y026745D01*
X029234Y026745D02*
X026063Y026745D01*
X026174Y026775D02*
X026411Y026912D01*
X026605Y027106D01*
X026742Y027343D01*
X026813Y027607D01*
X026813Y027881D01*
X026742Y028146D01*
X026605Y028383D01*
X026411Y028577D01*
X026174Y028714D01*
X025909Y028785D01*
X025635Y028785D01*
X025370Y028714D01*
X025133Y028577D01*
X024939Y028383D01*
X024802Y028146D01*
X024731Y027881D01*
X024731Y027607D01*
X024802Y027343D01*
X024939Y027106D01*
X025133Y026912D01*
X025370Y026775D01*
X025635Y026704D01*
X025909Y026704D01*
X026174Y026775D01*
X026293Y026844D02*
X029003Y026844D01*
X028855Y026942D02*
X026441Y026942D01*
X026540Y027041D02*
X028756Y027041D01*
X028672Y027139D02*
X026624Y027139D01*
X026681Y027238D02*
X028615Y027238D01*
X028558Y027336D02*
X026738Y027336D01*
X026766Y027435D02*
X028530Y027435D01*
X028503Y027533D02*
X026793Y027533D01*
X026813Y027632D02*
X028483Y027632D01*
X028483Y027730D02*
X026813Y027730D01*
X026813Y027829D02*
X028483Y027829D01*
X028496Y027927D02*
X026800Y027927D01*
X026774Y028026D02*
X028522Y028026D01*
X028548Y028124D02*
X026748Y028124D01*
X026698Y028223D02*
X028599Y028223D01*
X028655Y028321D02*
X026641Y028321D01*
X026569Y028420D02*
X028728Y028420D01*
X028826Y028518D02*
X026470Y028518D01*
X026343Y028617D02*
X028953Y028617D01*
X029126Y028715D02*
X026170Y028715D01*
X025374Y028715D02*
X009542Y028715D01*
X009583Y028814D02*
X018641Y028814D01*
X018670Y028785D02*
X018832Y028718D01*
X019468Y028718D01*
X019630Y028785D01*
X019754Y028908D01*
X019821Y029070D01*
X019821Y029245D01*
X019754Y029407D01*
X019630Y029531D01*
X019468Y029598D01*
X018832Y029598D01*
X018670Y029531D01*
X018546Y029407D01*
X018479Y029245D01*
X018479Y029070D01*
X018546Y028908D01*
X018670Y028785D01*
X018545Y028912D02*
X009590Y028912D01*
X009590Y029011D02*
X018504Y029011D01*
X018479Y029109D02*
X009590Y029109D01*
X009590Y029208D02*
X018479Y029208D01*
X018504Y029306D02*
X009590Y029306D01*
X009590Y029405D02*
X018545Y029405D01*
X018642Y029503D02*
X009576Y029503D01*
X009535Y029602D02*
X032863Y029602D01*
X032742Y029503D02*
X019658Y029503D01*
X019755Y029405D02*
X032666Y029405D01*
X032626Y029306D02*
X019796Y029306D01*
X019821Y029208D02*
X032605Y029208D01*
X032605Y029109D02*
X019821Y029109D01*
X019796Y029011D02*
X032622Y029011D01*
X032663Y028912D02*
X019755Y028912D01*
X019659Y028814D02*
X032734Y028814D01*
X032841Y028715D02*
X029922Y028715D01*
X030095Y028617D02*
X032899Y028617D01*
X032757Y028518D02*
X030222Y028518D01*
X030320Y028420D02*
X032673Y028420D01*
X032632Y028321D02*
X030393Y028321D01*
X030450Y028223D02*
X032605Y028223D01*
X032605Y028124D02*
X030500Y028124D01*
X030526Y028026D02*
X032616Y028026D01*
X032657Y027927D02*
X030552Y027927D01*
X030565Y027829D02*
X032719Y027829D01*
X032817Y027730D02*
X030565Y027730D01*
X030565Y027632D02*
X032935Y027632D01*
X032772Y027533D02*
X030545Y027533D01*
X030518Y027435D02*
X032679Y027435D01*
X032638Y027336D02*
X030490Y027336D01*
X030433Y027238D02*
X032605Y027238D01*
X033610Y030291D02*
X033619Y030291D01*
X033660Y030390D02*
X033569Y030390D01*
X033502Y030488D02*
X033727Y030488D01*
X033826Y030587D02*
X033403Y030587D01*
X031973Y031966D02*
X005335Y031966D01*
X005368Y032064D02*
X031940Y032064D01*
X031940Y032163D02*
X005368Y032163D01*
X005368Y032261D02*
X031940Y032261D01*
X031940Y032360D02*
X005368Y032360D01*
X005368Y032458D02*
X031940Y032458D01*
X031940Y032557D02*
X005368Y032557D01*
X005368Y032655D02*
X031940Y032655D01*
X031940Y032754D02*
X005368Y032754D01*
X005368Y032852D02*
X031940Y032852D01*
X031940Y032951D02*
X005368Y032951D01*
X005368Y033049D02*
X031940Y033049D01*
X031940Y033148D02*
X005368Y033148D01*
X005368Y033246D02*
X031940Y033246D01*
X031940Y033345D02*
X005368Y033345D01*
X005368Y033443D02*
X031940Y033443D01*
X031940Y033542D02*
X005368Y033542D01*
X005368Y033640D02*
X031940Y033640D01*
X031940Y033739D02*
X005368Y033739D01*
X005368Y033837D02*
X031940Y033837D01*
X031940Y033936D02*
X005368Y033936D01*
X005368Y034034D02*
X031940Y034034D01*
X031940Y034133D02*
X005368Y034133D01*
X005368Y034231D02*
X031940Y034231D01*
X031940Y034330D02*
X005368Y034330D01*
X002019Y034330D02*
X001199Y034330D01*
X000949Y034231D02*
X002019Y034231D01*
X002019Y034133D02*
X000824Y034133D01*
X000736Y034034D02*
X002019Y034034D01*
X002019Y033936D02*
X000679Y033936D01*
X000640Y033837D02*
X002019Y033837D01*
X002019Y033739D02*
X000614Y033739D01*
X000602Y033640D02*
X002019Y033640D01*
X002019Y033542D02*
X000600Y033542D01*
X000600Y033443D02*
X002019Y033443D01*
X002019Y033345D02*
X000600Y033345D01*
X000600Y033246D02*
X002019Y033246D01*
X002019Y033148D02*
X000600Y033148D01*
X000600Y033049D02*
X002019Y033049D01*
X002019Y032951D02*
X000600Y032951D01*
X000600Y032852D02*
X002019Y032852D01*
X002019Y032754D02*
X000600Y032754D01*
X000600Y032655D02*
X002019Y032655D01*
X002019Y032557D02*
X000600Y032557D01*
X000600Y032458D02*
X002019Y032458D01*
X002019Y032360D02*
X000600Y032360D01*
X000600Y032261D02*
X002019Y032261D01*
X002019Y032163D02*
X000600Y032163D01*
X000600Y032064D02*
X002019Y032064D01*
X002051Y031966D02*
X000600Y031966D01*
X000600Y031867D02*
X036708Y031867D01*
X036708Y031769D02*
X000600Y031769D01*
X000600Y031670D02*
X036708Y031670D01*
X036708Y031572D02*
X000600Y031572D01*
X000600Y031473D02*
X036708Y031473D01*
X036708Y031375D02*
X000600Y031375D01*
X000600Y031276D02*
X036708Y031276D01*
X036708Y031178D02*
X000600Y031178D01*
X000600Y031079D02*
X036708Y031079D01*
X036708Y030981D02*
X000600Y030981D01*
X000600Y030882D02*
X036708Y030882D01*
X036708Y030784D02*
X000600Y030784D01*
X000600Y030488D02*
X018643Y030488D01*
X018546Y030390D02*
X000600Y030390D01*
X000600Y030291D02*
X018505Y030291D01*
X018479Y030193D02*
X000600Y030193D01*
X000600Y030094D02*
X018479Y030094D01*
X018504Y029996D02*
X000600Y029996D01*
X000600Y025169D02*
X023558Y025169D01*
X023599Y025071D02*
X000600Y025071D01*
X000600Y024972D02*
X023667Y024972D01*
X023766Y024874D02*
X000600Y024874D01*
X000600Y024775D02*
X023864Y024775D01*
X024066Y024677D02*
X000600Y024677D01*
X000600Y023199D02*
X016210Y023199D01*
X015190Y023101D02*
X000600Y023101D01*
X000600Y023002D02*
X015092Y023002D01*
X014993Y022904D02*
X000600Y022904D01*
X000600Y022805D02*
X014895Y022805D01*
X014728Y022707D02*
X000600Y022707D01*
X000600Y022608D02*
X014614Y022608D01*
X014568Y022510D02*
X000600Y022510D01*
X000600Y022411D02*
X014551Y022411D01*
X014558Y022313D02*
X000600Y022313D01*
X000600Y018471D02*
X002332Y018471D01*
X002234Y018373D02*
X000600Y018373D01*
X000600Y018274D02*
X002169Y018274D01*
X002128Y018176D02*
X000600Y018176D01*
X000600Y018077D02*
X002110Y018077D01*
X002110Y017979D02*
X000600Y017979D01*
X000600Y017880D02*
X002126Y017880D01*
X002166Y017782D02*
X000600Y017782D01*
X000600Y017683D02*
X002228Y017683D01*
X002327Y017585D02*
X000600Y017585D01*
X000600Y017486D02*
X002352Y017486D01*
X002249Y017388D02*
X000600Y017388D01*
X000600Y017289D02*
X002175Y017289D01*
X002134Y017191D02*
X000600Y017191D01*
X000600Y017092D02*
X002110Y017092D01*
X002110Y016994D02*
X000600Y016994D01*
X000600Y016895D02*
X002119Y016895D01*
X002160Y016797D02*
X000600Y016797D01*
X000600Y016698D02*
X002213Y016698D01*
X002312Y016600D02*
X000600Y016600D01*
X000600Y008326D02*
X016088Y008326D01*
X015983Y008227D02*
X000600Y008227D01*
X000600Y008129D02*
X015940Y008129D01*
X015926Y008030D02*
X000600Y008030D01*
X016462Y008326D02*
X017088Y008326D01*
X034470Y010788D02*
X035060Y010788D01*
X034892Y010887D02*
X034556Y010887D01*
X034597Y010985D02*
X034819Y010985D01*
X034781Y011084D02*
X034625Y011084D01*
X034625Y011182D02*
X034705Y011182D01*
X018623Y025760D02*
X017775Y025760D01*
X017936Y025859D02*
X018610Y025859D01*
X018610Y025957D02*
X018012Y025957D01*
X018053Y026056D02*
X018630Y026056D01*
X018671Y026154D02*
X018058Y026154D01*
X018049Y026253D02*
X018739Y026253D01*
X018837Y026351D02*
X018008Y026351D01*
X017940Y026450D02*
X018837Y026450D01*
X018738Y026548D02*
X017940Y026548D01*
X017940Y026647D02*
X018670Y026647D01*
X018630Y026745D02*
X017940Y026745D01*
X017940Y026844D02*
X018610Y026844D01*
X018610Y026942D02*
X017940Y026942D01*
X017940Y027041D02*
X018624Y027041D01*
X018665Y027139D02*
X017940Y027139D01*
X017940Y027238D02*
X018724Y027238D01*
X018822Y027336D02*
X017940Y027336D01*
X017940Y027435D02*
X019029Y027435D01*
X019271Y027435D02*
X024778Y027435D01*
X024751Y027533D02*
X017943Y027533D01*
X018042Y027632D02*
X024731Y027632D01*
X024731Y027730D02*
X018140Y027730D01*
X018239Y027829D02*
X019894Y027829D01*
X019478Y027336D02*
X024806Y027336D01*
X024863Y027238D02*
X019576Y027238D01*
X019635Y027139D02*
X024920Y027139D01*
X025004Y027041D02*
X019676Y027041D01*
X019690Y026942D02*
X025103Y026942D01*
X025251Y026844D02*
X019690Y026844D01*
X019670Y026745D02*
X025482Y026745D01*
X024731Y027829D02*
X020406Y027829D01*
X020499Y027927D02*
X024744Y027927D01*
X024770Y028026D02*
X020540Y028026D01*
X020558Y028124D02*
X024796Y028124D01*
X024847Y028223D02*
X020558Y028223D01*
X020521Y028321D02*
X024903Y028321D01*
X024976Y028420D02*
X020458Y028420D01*
X020328Y028518D02*
X025074Y028518D01*
X025201Y028617D02*
X009470Y028617D01*
X009331Y028518D02*
X019972Y028518D01*
X035257Y031966D02*
X036708Y031966D01*
X036708Y032064D02*
X035289Y032064D01*
X035289Y032163D02*
X036708Y032163D01*
X036708Y032261D02*
X035289Y032261D01*
X035289Y032360D02*
X036708Y032360D01*
X036708Y032458D02*
X035289Y032458D01*
X035289Y032557D02*
X036708Y032557D01*
X036708Y032655D02*
X035289Y032655D01*
X035289Y032754D02*
X036708Y032754D01*
X036708Y032852D02*
X035289Y032852D01*
X035289Y032951D02*
X036708Y032951D01*
X036708Y033049D02*
X035289Y033049D01*
X035289Y033148D02*
X036708Y033148D01*
X036708Y033246D02*
X035289Y033246D01*
X035289Y033345D02*
X036708Y033345D01*
X036708Y033443D02*
X035289Y033443D01*
X035289Y033542D02*
X036708Y033542D01*
X036706Y033640D02*
X035289Y033640D01*
X035289Y033739D02*
X036694Y033739D01*
X036668Y033837D02*
X035289Y033837D01*
X035289Y033936D02*
X036628Y033936D01*
X036572Y034034D02*
X035289Y034034D01*
X035289Y034133D02*
X036484Y034133D01*
X036359Y034231D02*
X035289Y034231D01*
X035289Y034330D02*
X036109Y034330D01*
D17*
X035650Y024150D03*
X030150Y019150D03*
X029650Y019150D03*
X029150Y019150D03*
X028150Y019150D03*
X027650Y019150D03*
X027150Y019150D03*
X026150Y019150D03*
X025650Y019150D03*
X025150Y019150D03*
X026900Y017150D03*
X027650Y017150D03*
X029150Y014150D03*
X028150Y011650D03*
X028150Y011150D03*
X028150Y010650D03*
X029150Y007150D03*
X028150Y003650D03*
X022650Y014650D03*
X022650Y015150D03*
X022650Y015650D03*
X014650Y016650D03*
X014150Y016650D03*
X013650Y016650D03*
X006400Y007900D03*
X006400Y006400D03*
X007900Y002400D03*
X008400Y002400D03*
X009150Y002400D03*
X009650Y002400D03*
X011650Y002400D03*
X012150Y002400D03*
X012650Y002400D03*
X012150Y002900D03*
X024400Y023650D03*
X020150Y028150D03*
X017650Y026150D03*
X015150Y030650D03*
X014650Y030650D03*
X014650Y031150D03*
X014650Y031650D03*
X015150Y031650D03*
X015150Y031150D03*
X015150Y032150D03*
X014650Y032150D03*
X009650Y027650D03*
X007150Y025650D03*
X006650Y025650D03*
X006150Y025650D03*
X003650Y029650D03*
X003150Y029650D03*
X002650Y029650D03*
D18*
X014900Y022400D03*
X016400Y022900D03*
X017525Y021713D03*
X018025Y021713D03*
X018025Y021213D03*
X018025Y020713D03*
X017525Y020713D03*
X017525Y021213D03*
X008025Y012650D03*
X007650Y012650D03*
X007275Y012650D03*
X007275Y012150D03*
X007650Y012150D03*
X008025Y012150D03*
X008025Y011650D03*
X007650Y011650D03*
X007275Y011650D03*
X006088Y011463D03*
X008150Y008150D03*
X010755Y006183D03*
X011150Y006525D03*
X011775Y004650D03*
X012150Y004650D03*
X012525Y004650D03*
X012525Y004150D03*
X012150Y004150D03*
X011775Y004150D03*
X011775Y003650D03*
X012150Y003650D03*
X012525Y003650D03*
X013525Y003650D03*
X013775Y004275D03*
X015900Y005900D03*
X015900Y006900D03*
X016275Y008025D03*
X017275Y008025D03*
X013963Y010400D03*
X013650Y010400D03*
X013338Y010400D03*
X013338Y010838D03*
X013650Y010838D03*
X013963Y010838D03*
X013963Y011275D03*
X013650Y011275D03*
X013338Y011275D03*
X013400Y007150D03*
X016275Y003900D03*
X019650Y004650D03*
X026650Y004275D03*
X027525Y003900D03*
X026650Y005275D03*
X027525Y006275D03*
X031336Y008650D03*
X031650Y008150D03*
X031025Y009525D03*
X030650Y009650D03*
X031650Y018150D03*
X032150Y018150D03*
X011150Y003150D03*
X010818Y003579D03*
D19*
X013775Y004275D02*
X014025Y004275D01*
X015025Y003400D01*
X018525Y003400D01*
X019275Y004150D01*
X019650Y004150D01*
X021650Y004150D02*
X021650Y007650D01*
X018150Y007650D02*
X009150Y007650D01*
X006088Y011463D02*
X005338Y011463D01*
X005088Y011213D01*
X014400Y020150D02*
X016150Y020150D01*
X016650Y019650D01*
X016650Y020150D02*
X016150Y020650D01*
X015150Y020650D01*
X014400Y020650D01*
X014900Y022400D02*
X015400Y022900D01*
X016400Y022900D01*
X017650Y026150D02*
X017650Y027650D01*
X018150Y028150D01*
X020150Y028150D01*
X025150Y023150D02*
X025900Y023150D01*
X026775Y024025D01*
X027275Y024025D01*
X027525Y023775D01*
X026650Y023150D02*
X026150Y022650D01*
X025150Y022650D01*
X024650Y022150D01*
X024650Y020150D01*
X024150Y019650D01*
X024150Y018650D01*
X024650Y018150D01*
X025150Y017650D01*
X028150Y017650D01*
X029150Y016650D01*
X029150Y014150D01*
X027150Y016650D02*
X024150Y016650D01*
X024650Y017150D02*
X026900Y017150D01*
X027150Y016650D02*
X027650Y017150D01*
X024650Y017150D02*
X023650Y018150D01*
X020900Y018150D01*
X020400Y018525D02*
X023275Y018525D01*
X023775Y019025D01*
X023650Y019650D02*
X024150Y020150D01*
X023650Y019650D02*
X022900Y018900D01*
X020025Y018900D01*
X023400Y022025D02*
X024025Y022025D01*
X025150Y023150D01*
X031650Y018150D02*
X031650Y011650D01*
X031650Y010650D01*
X030650Y009650D01*
X031025Y009525D02*
X032150Y010650D01*
X032150Y011650D01*
X032150Y018150D01*
X031150Y011650D02*
X030150Y010650D01*
X029150Y007150D02*
X028150Y006150D01*
X028150Y003650D01*
X027525Y003900D02*
X027525Y006150D01*
X027525Y006275D01*
X015900Y005900D02*
X015900Y006900D01*
X008900Y021400D02*
X008400Y021900D01*
X008150Y021900D01*
X006900Y021900D01*
X033115Y025154D02*
X033146Y025154D01*
X033650Y024650D01*
X035150Y024650D01*
X035650Y024150D01*
D20*
X027525Y023775D03*
X026650Y023150D03*
X023400Y022025D03*
X031150Y011650D03*
X030150Y010650D03*
X035150Y011150D03*
X021650Y004150D03*
X019650Y004150D03*
X009150Y007650D03*
X005088Y011213D03*
D21*
X010755Y006183D02*
X010755Y003643D01*
X010818Y003579D01*
X011150Y003150D02*
X011150Y003150D01*
X011150Y006525D01*
X013400Y007150D02*
X013400Y003900D01*
X013525Y003775D01*
X013525Y003650D01*
X016275Y003900D02*
X016400Y003900D01*
X016525Y004025D01*
X018275Y004025D01*
X018900Y004650D01*
X019650Y004650D01*
X017275Y008025D02*
X016275Y008025D01*
X026650Y005275D02*
X026650Y004275D01*
X031336Y008650D02*
X031900Y009150D01*
X031900Y009900D01*
X032650Y010650D01*
X033650Y010650D01*
X034115Y011115D01*
X034115Y011154D01*
X034115Y012154D02*
X035119Y011150D01*
X035150Y011150D01*
X034115Y010154D02*
X034115Y010115D01*
X033650Y009650D01*
X032650Y009650D01*
X032150Y009150D01*
X032150Y008650D01*
X031650Y008150D01*
D22*
X020900Y018150D03*
X020400Y018525D03*
X020025Y018900D03*
X016650Y019650D03*
X016650Y020150D03*
X014400Y020150D03*
X014400Y020650D03*
X008900Y021400D03*
X006900Y021900D03*
X018150Y007650D03*
X023775Y019025D03*
X024150Y020150D03*
D23*
X025150Y007650D02*
X025150Y003400D01*
X020650Y004150D02*
X020650Y007650D01*
X020650Y004150D02*
X018650Y002150D01*
X018150Y002150D01*
D24*
X018150Y002150D03*
X025150Y003400D03*
X021400Y017650D03*
X016650Y018150D03*
X014150Y019400D03*
D25*
X015400Y019400D01*
X016650Y018150D01*
X021400Y017650D02*
X023150Y017650D01*
X024150Y016650D01*
X024150Y012150D01*
X024650Y011650D01*
X025650Y011650D01*
M02*
