G75*
G70*
%OFA0B0*%
%FSLAX24Y24*%
%IPPOS*%
%LPD*%
%AMOC8*
5,1,8,0,0,1.08239X$1,22.5*
%
%ADD10C,0.0336*%
%ADD11C,0.0660*%
%ADD12C,0.2300*%
%ADD13C,0.1500*%
%ADD14C,0.0600*%
%ADD15R,0.0740X0.0740*%
%ADD16C,0.0740*%
%ADD17C,0.0100*%
%ADD18C,0.0396*%
%ADD19C,0.0278*%
%ADD20C,0.0320*%
%ADD21C,0.0160*%
%ADD22C,0.0118*%
%ADD23C,0.0157*%
%ADD24C,0.0317*%
%ADD25C,0.0514*%
%ADD26C,0.0400*%
%ADD27R,0.0396X0.0396*%
D10*
X036665Y012435D03*
X036665Y012928D03*
X036665Y013420D03*
X036665Y013912D03*
X036665Y014404D03*
X036665Y014896D03*
X036665Y015388D03*
X036665Y015880D03*
X036665Y016372D03*
X036665Y016865D03*
X036665Y020928D03*
X036665Y021420D03*
X036665Y021912D03*
X036665Y022404D03*
X036665Y022896D03*
X036665Y023388D03*
X036665Y023880D03*
X036665Y024372D03*
X017075Y033650D03*
X016583Y033650D03*
X016091Y033650D03*
X015599Y033650D03*
X015106Y033650D03*
X014614Y033650D03*
X014122Y033650D03*
X013630Y033650D03*
D11*
X016602Y031400D03*
X016602Y030400D03*
X016602Y028900D03*
X016602Y027900D03*
X023352Y026650D03*
X023352Y025650D03*
X023352Y023900D03*
X023352Y022900D03*
X026852Y015650D03*
X026852Y014650D03*
X026852Y013150D03*
X026852Y012150D03*
X027852Y006775D03*
X027852Y005775D03*
X003852Y011150D03*
X002852Y011150D03*
X002852Y012650D03*
X002852Y013650D03*
X002852Y019275D03*
X002852Y020275D03*
D12*
X004396Y033615D03*
X034317Y033615D03*
X034317Y003693D03*
X004396Y003693D03*
D13*
X025136Y025563D03*
X027506Y025563D03*
X031557Y025563D03*
D14*
X033817Y025154D03*
X034817Y025154D03*
X034817Y026154D03*
X033817Y026154D03*
X033817Y027154D03*
X033817Y028154D03*
X034817Y028154D03*
X034817Y027154D03*
X034817Y029154D03*
X033817Y029154D03*
X033817Y030154D03*
X034817Y030154D03*
X034817Y031154D03*
X033817Y031154D03*
X033817Y024154D03*
X034817Y024154D03*
X034817Y023154D03*
X033817Y023154D03*
X033817Y022154D03*
X034817Y022154D03*
X034817Y021154D03*
X033817Y021154D03*
X033817Y020154D03*
X034817Y020154D03*
X034817Y019154D03*
X033817Y019154D03*
X033817Y018154D03*
X034817Y018154D03*
X034817Y017154D03*
X033817Y017154D03*
X033817Y016154D03*
X034817Y016154D03*
X034817Y015154D03*
X033817Y015154D03*
X033817Y014154D03*
X034817Y014154D03*
X034817Y013154D03*
X033817Y013154D03*
X033817Y012154D03*
X034817Y012154D03*
X034817Y011154D03*
X033817Y011154D03*
X033817Y010154D03*
X034817Y010154D03*
X034817Y009154D03*
X033817Y009154D03*
X033817Y008154D03*
X034817Y008154D03*
X034817Y007154D03*
X033817Y007154D03*
X033817Y006154D03*
X034817Y006154D03*
D15*
X020349Y001650D03*
D16*
X019349Y001650D03*
X018349Y001650D03*
D17*
X001454Y000886D02*
X001358Y001051D01*
X001309Y001236D01*
X001302Y001331D01*
X001302Y033615D01*
X001309Y033710D01*
X001358Y033894D01*
X001454Y034060D01*
X001589Y034195D01*
X001754Y034290D01*
X001938Y034339D01*
X002034Y034346D01*
X002721Y034346D01*
X002721Y031998D01*
X002780Y031940D01*
X006012Y031940D01*
X006071Y031998D01*
X006071Y034346D01*
X032642Y034346D01*
X032642Y031998D01*
X032701Y031940D01*
X035933Y031940D01*
X035992Y031998D01*
X035992Y034346D01*
X036679Y034346D01*
X036775Y034339D01*
X036959Y034290D01*
X037124Y034195D01*
X037259Y034060D01*
X037355Y033894D01*
X037404Y033710D01*
X037410Y033615D01*
X037410Y003693D01*
X037404Y003598D01*
X037355Y003414D01*
X037355Y003414D01*
X037259Y003248D01*
X037124Y003113D01*
X036959Y003018D01*
X036775Y002968D01*
X036679Y002962D01*
X035992Y002962D01*
X035992Y005310D01*
X035933Y005368D01*
X032701Y005368D01*
X032642Y005310D01*
X032642Y002962D01*
X029397Y002962D01*
X029024Y002841D01*
X029024Y002841D01*
X028707Y002611D01*
X028707Y002611D01*
X028707Y002611D01*
X028476Y002294D01*
X028476Y002294D01*
X028355Y001921D01*
X028355Y000600D01*
X002034Y000600D01*
X001938Y000606D01*
X001754Y000656D01*
X001589Y000751D01*
X001454Y000886D01*
X001424Y000938D02*
X028355Y000938D01*
X028355Y000840D02*
X001500Y000840D01*
X001606Y000741D02*
X028355Y000741D01*
X028355Y000643D02*
X001803Y000643D01*
X001367Y001037D02*
X028355Y001037D01*
X028355Y001135D02*
X020871Y001135D01*
X020929Y001193D02*
X020929Y002107D01*
X020806Y002230D01*
X019892Y002230D01*
X019769Y002107D01*
X019769Y002050D01*
X019722Y002096D01*
X019722Y002724D01*
X019666Y002860D01*
X019562Y002964D01*
X018562Y003964D01*
X018426Y004020D01*
X016006Y004020D01*
X014847Y005178D01*
X014847Y005974D01*
X014791Y006110D01*
X014687Y006214D01*
X014551Y006270D01*
X014404Y006270D01*
X014268Y006214D01*
X014164Y006110D01*
X014107Y005974D01*
X014107Y004951D01*
X014164Y004815D01*
X015539Y003440D01*
X015643Y003336D01*
X015779Y003280D01*
X018199Y003280D01*
X018982Y002497D01*
X018982Y002104D01*
X018857Y001979D01*
X018769Y001765D01*
X018769Y001535D01*
X018857Y001321D01*
X019020Y001158D01*
X019233Y001070D01*
X019464Y001070D01*
X019677Y001158D01*
X019769Y001250D01*
X019769Y001193D01*
X019892Y001070D01*
X020806Y001070D01*
X020929Y001193D01*
X020929Y001234D02*
X028355Y001234D01*
X028355Y001332D02*
X020929Y001332D01*
X020929Y001431D02*
X028355Y001431D01*
X028355Y001529D02*
X020929Y001529D01*
X020929Y001628D02*
X028355Y001628D01*
X028355Y001726D02*
X020929Y001726D01*
X020929Y001825D02*
X028355Y001825D01*
X028356Y001923D02*
X020929Y001923D01*
X020929Y002022D02*
X028388Y002022D01*
X028420Y002120D02*
X020916Y002120D01*
X020817Y002219D02*
X028452Y002219D01*
X028493Y002317D02*
X019722Y002317D01*
X019722Y002219D02*
X019880Y002219D01*
X019782Y002120D02*
X019722Y002120D01*
X019722Y002416D02*
X028565Y002416D01*
X028637Y002514D02*
X019722Y002514D01*
X019722Y002613D02*
X028709Y002613D01*
X028845Y002711D02*
X019722Y002711D01*
X019687Y002810D02*
X028980Y002810D01*
X029230Y002908D02*
X019618Y002908D01*
X019519Y003007D02*
X032642Y003007D01*
X032642Y003105D02*
X019421Y003105D01*
X019322Y003204D02*
X032642Y003204D01*
X032642Y003302D02*
X027924Y003302D01*
X027922Y003301D02*
X028050Y003354D01*
X028148Y003452D01*
X028202Y003581D01*
X028202Y003719D01*
X028148Y003848D01*
X028050Y003946D01*
X027922Y003999D01*
X027783Y003999D01*
X027655Y003946D01*
X027628Y003919D01*
X022239Y003919D01*
X022496Y004176D01*
X022547Y004176D01*
X022675Y004229D01*
X022773Y004327D01*
X022827Y004456D01*
X022827Y004594D01*
X022773Y004723D01*
X022675Y004821D01*
X022547Y004874D01*
X022408Y004874D01*
X022280Y004821D01*
X022182Y004723D01*
X022128Y004594D01*
X022128Y004544D01*
X021932Y004347D01*
X021085Y004347D01*
X021064Y004368D01*
X021086Y004390D01*
X021139Y004518D01*
X021139Y004657D01*
X021086Y004785D01*
X020988Y004883D01*
X020859Y004937D01*
X020793Y004937D01*
X020827Y005018D01*
X020827Y005157D01*
X020773Y005285D01*
X020675Y005383D01*
X020547Y005437D01*
X020427Y005437D01*
X020112Y006201D01*
X020112Y007132D01*
X020117Y007164D01*
X020112Y007183D01*
X020112Y007202D01*
X020100Y007232D01*
X020092Y007265D01*
X020080Y007280D01*
X020073Y007297D01*
X020049Y007321D01*
X018580Y009280D01*
X018573Y009297D01*
X018549Y009321D01*
X018529Y009347D01*
X018513Y009357D01*
X018202Y009669D01*
X018202Y009719D01*
X018148Y009848D01*
X018050Y009946D01*
X017922Y009999D01*
X017783Y009999D01*
X017655Y009946D01*
X017557Y009848D01*
X017503Y009719D01*
X017503Y009581D01*
X017557Y009452D01*
X017609Y009400D01*
X017602Y009394D01*
X017550Y009446D01*
X017422Y009499D01*
X017283Y009499D01*
X017155Y009446D01*
X017057Y009348D01*
X017003Y009219D01*
X017003Y009081D01*
X017057Y008952D01*
X017092Y008916D01*
X017092Y008448D01*
X017082Y008464D01*
X017073Y008485D01*
X017052Y008506D01*
X016452Y009356D01*
X016452Y009469D01*
X016398Y009598D01*
X016300Y009696D01*
X016172Y009749D01*
X016033Y009749D01*
X015905Y009696D01*
X015807Y009598D01*
X015753Y009469D01*
X015753Y009331D01*
X015807Y009202D01*
X015905Y009104D01*
X016030Y009052D01*
X016592Y008255D01*
X016592Y007384D01*
X016557Y007348D01*
X016503Y007219D01*
X016503Y007081D01*
X016557Y006952D01*
X016655Y006854D01*
X016783Y006801D01*
X016922Y006801D01*
X017050Y006854D01*
X017092Y006896D01*
X017092Y006812D01*
X017033Y006812D01*
X016905Y006758D01*
X016807Y006660D01*
X016753Y006532D01*
X016753Y006393D01*
X016807Y006265D01*
X016905Y006167D01*
X017033Y006113D01*
X017172Y006113D01*
X017300Y006167D01*
X017398Y006265D01*
X017443Y006373D01*
X017500Y006430D01*
X017573Y006503D01*
X017592Y006550D01*
X017592Y005286D01*
X017632Y005190D01*
X017878Y004944D01*
X017878Y004893D01*
X017932Y004765D01*
X018030Y004667D01*
X018158Y004613D01*
X018297Y004613D01*
X018425Y004667D01*
X018523Y004765D01*
X018577Y004893D01*
X018577Y005032D01*
X018523Y005160D01*
X018425Y005258D01*
X018297Y005312D01*
X018246Y005312D01*
X018112Y005445D01*
X018112Y008916D01*
X018148Y008952D01*
X018158Y008976D01*
X019592Y007063D01*
X019592Y006150D01*
X019592Y006099D01*
X019592Y006099D01*
X019592Y006098D01*
X019612Y006050D01*
X020030Y005036D01*
X020030Y005036D01*
X020050Y004988D01*
X020069Y004941D01*
X020069Y004940D01*
X020070Y004940D02*
X020106Y004904D01*
X020142Y004867D01*
X020143Y004867D01*
X020190Y004848D01*
X020238Y004828D01*
X020238Y004828D01*
X020238Y004828D01*
X020244Y004828D01*
X020280Y004792D01*
X020408Y004738D01*
X020475Y004738D01*
X020441Y004657D01*
X020441Y004518D01*
X020494Y004390D01*
X020530Y004354D01*
X020530Y004223D01*
X020570Y004128D01*
X020757Y003940D01*
X020830Y003867D01*
X020926Y003828D01*
X021048Y003828D01*
X021003Y003719D01*
X021003Y003581D01*
X021057Y003452D01*
X021155Y003354D01*
X021283Y003301D01*
X021422Y003301D01*
X021550Y003354D01*
X021577Y003381D01*
X027628Y003381D01*
X027655Y003354D01*
X027783Y003301D01*
X027922Y003301D01*
X027780Y003302D02*
X021424Y003302D01*
X021280Y003302D02*
X019224Y003302D01*
X019125Y003401D02*
X021108Y003401D01*
X021037Y003499D02*
X019027Y003499D01*
X018928Y003598D02*
X021003Y003598D01*
X021003Y003696D02*
X018830Y003696D01*
X018731Y003795D02*
X021035Y003795D01*
X020804Y003893D02*
X018633Y003893D01*
X018495Y003992D02*
X020706Y003992D01*
X020607Y004090D02*
X015936Y004090D01*
X015837Y004189D02*
X020544Y004189D01*
X020530Y004287D02*
X015739Y004287D01*
X015640Y004386D02*
X020498Y004386D01*
X020455Y004484D02*
X015542Y004484D01*
X015443Y004583D02*
X020441Y004583D01*
X020451Y004681D02*
X018440Y004681D01*
X018530Y004780D02*
X020309Y004780D01*
X020143Y004867D02*
X020143Y004867D01*
X020132Y004878D02*
X018570Y004878D01*
X018577Y004977D02*
X020055Y004977D01*
X020069Y004940D02*
X020070Y004940D01*
X020014Y005075D02*
X018559Y005075D01*
X018510Y005174D02*
X019973Y005174D01*
X019933Y005272D02*
X018392Y005272D01*
X018187Y005371D02*
X019892Y005371D01*
X019852Y005469D02*
X018112Y005469D01*
X018112Y005568D02*
X019811Y005568D01*
X019771Y005666D02*
X018112Y005666D01*
X018112Y005765D02*
X019730Y005765D01*
X019689Y005863D02*
X018112Y005863D01*
X018112Y005962D02*
X019649Y005962D01*
X019608Y006060D02*
X018112Y006060D01*
X018112Y006159D02*
X019592Y006159D01*
X019592Y006257D02*
X018112Y006257D01*
X018112Y006356D02*
X019592Y006356D01*
X019592Y006454D02*
X018112Y006454D01*
X018112Y006553D02*
X019592Y006553D01*
X019592Y006651D02*
X018112Y006651D01*
X018112Y006750D02*
X019592Y006750D01*
X019592Y006848D02*
X018112Y006848D01*
X018112Y006947D02*
X019592Y006947D01*
X019592Y007045D02*
X018112Y007045D01*
X018112Y007144D02*
X019532Y007144D01*
X019458Y007242D02*
X018112Y007242D01*
X018112Y007341D02*
X019385Y007341D01*
X019311Y007439D02*
X018112Y007439D01*
X018112Y007538D02*
X019237Y007538D01*
X019163Y007636D02*
X018112Y007636D01*
X018112Y007735D02*
X019089Y007735D01*
X019015Y007833D02*
X018112Y007833D01*
X018112Y007932D02*
X018941Y007932D01*
X018867Y008030D02*
X018112Y008030D01*
X018112Y008129D02*
X018794Y008129D01*
X018720Y008227D02*
X018112Y008227D01*
X018112Y008326D02*
X018646Y008326D01*
X018572Y008424D02*
X018112Y008424D01*
X018112Y008523D02*
X018498Y008523D01*
X018424Y008621D02*
X018112Y008621D01*
X018112Y008720D02*
X018350Y008720D01*
X018276Y008818D02*
X018112Y008818D01*
X018113Y008917D02*
X018203Y008917D01*
X018352Y009150D02*
X017852Y009650D01*
X017534Y009508D02*
X016436Y009508D01*
X016452Y009409D02*
X017118Y009409D01*
X017041Y009311D02*
X016484Y009311D01*
X016553Y009212D02*
X017003Y009212D01*
X017003Y009114D02*
X016623Y009114D01*
X016692Y009015D02*
X017031Y009015D01*
X017092Y008917D02*
X016762Y008917D01*
X016832Y008818D02*
X017092Y008818D01*
X017092Y008720D02*
X016901Y008720D01*
X016971Y008621D02*
X017092Y008621D01*
X017092Y008523D02*
X017040Y008523D01*
X016852Y008338D02*
X016102Y009400D01*
X015753Y009409D02*
X014612Y009409D01*
X014612Y009416D02*
X014612Y008919D01*
X014628Y008919D01*
X014655Y008946D01*
X014783Y008999D01*
X014922Y008999D01*
X015050Y008946D01*
X015148Y008848D01*
X015202Y008719D01*
X015202Y008581D01*
X015148Y008452D01*
X015050Y008354D01*
X014922Y008301D01*
X014783Y008301D01*
X014655Y008354D01*
X014628Y008381D01*
X014612Y008381D01*
X014612Y006884D01*
X014648Y006848D01*
X016669Y006848D01*
X016562Y006947D02*
X014612Y006947D01*
X014612Y007045D02*
X016518Y007045D01*
X016503Y007144D02*
X014612Y007144D01*
X014612Y007242D02*
X016513Y007242D01*
X016554Y007341D02*
X014612Y007341D01*
X014612Y007439D02*
X016592Y007439D01*
X016592Y007538D02*
X014612Y007538D01*
X014612Y007636D02*
X016592Y007636D01*
X016592Y007735D02*
X014612Y007735D01*
X014612Y007833D02*
X016592Y007833D01*
X016592Y007932D02*
X014612Y007932D01*
X014612Y008030D02*
X016592Y008030D01*
X016592Y008129D02*
X014612Y008129D01*
X014612Y008227D02*
X016592Y008227D01*
X016543Y008326D02*
X014981Y008326D01*
X015120Y008424D02*
X016473Y008424D01*
X016404Y008523D02*
X015177Y008523D01*
X015202Y008621D02*
X016334Y008621D01*
X016265Y008720D02*
X015202Y008720D01*
X015161Y008818D02*
X016195Y008818D01*
X016126Y008917D02*
X015080Y008917D01*
X014612Y009212D02*
X015803Y009212D01*
X015762Y009311D02*
X014612Y009311D01*
X014612Y009416D02*
X014648Y009452D01*
X014702Y009581D01*
X014702Y009719D01*
X014648Y009848D01*
X014550Y009946D01*
X014422Y009999D01*
X014283Y009999D01*
X014170Y009952D01*
X014221Y010077D01*
X014221Y010223D01*
X014165Y010359D01*
X014061Y010463D01*
X013926Y010519D01*
X013779Y010519D01*
X013644Y010463D01*
X013540Y010359D01*
X013484Y010223D01*
X013484Y010190D01*
X013108Y009814D01*
X013064Y009707D01*
X013064Y003383D01*
X013040Y003359D01*
X012984Y003223D01*
X012984Y003077D01*
X013040Y002941D01*
X013144Y002837D01*
X013279Y002781D01*
X013426Y002781D01*
X013561Y002837D01*
X013665Y002941D01*
X013721Y003077D01*
X013721Y003223D01*
X013665Y003359D01*
X013641Y003383D01*
X013641Y009530D01*
X013892Y009781D01*
X013926Y009781D01*
X014050Y009833D01*
X014003Y009719D01*
X014003Y009581D01*
X014057Y009452D01*
X014092Y009416D01*
X014092Y008725D01*
X014083Y008704D01*
X014083Y008596D01*
X014092Y008575D01*
X014092Y006884D01*
X014057Y006848D01*
X013641Y006848D01*
X013641Y006750D02*
X014016Y006750D01*
X014003Y006719D02*
X014003Y006581D01*
X014057Y006452D01*
X014155Y006354D01*
X014283Y006301D01*
X014422Y006301D01*
X014550Y006354D01*
X014648Y006452D01*
X014702Y006581D01*
X014702Y006719D01*
X014648Y006848D01*
X014689Y006750D02*
X016896Y006750D01*
X016803Y006651D02*
X014702Y006651D01*
X014690Y006553D02*
X016762Y006553D01*
X016753Y006454D02*
X014649Y006454D01*
X014552Y006356D02*
X016769Y006356D01*
X016814Y006257D02*
X014582Y006257D01*
X014742Y006159D02*
X016924Y006159D01*
X017102Y006463D02*
X017165Y006463D01*
X017352Y006650D01*
X017352Y009150D01*
X017587Y009409D02*
X017600Y009409D01*
X017503Y009606D02*
X016390Y009606D01*
X016279Y009705D02*
X017503Y009705D01*
X017538Y009803D02*
X014667Y009803D01*
X014702Y009705D02*
X015926Y009705D01*
X015815Y009606D02*
X014702Y009606D01*
X014671Y009508D02*
X015769Y009508D01*
X015895Y009114D02*
X014612Y009114D01*
X014612Y009015D02*
X016056Y009015D01*
X016852Y008338D02*
X016852Y007150D01*
X017036Y006848D02*
X017092Y006848D01*
X017524Y006454D02*
X017592Y006454D01*
X017592Y006356D02*
X017436Y006356D01*
X017391Y006257D02*
X017592Y006257D01*
X017592Y006159D02*
X017281Y006159D01*
X017592Y006060D02*
X014812Y006060D01*
X014847Y005962D02*
X017592Y005962D01*
X017592Y005863D02*
X014847Y005863D01*
X014847Y005765D02*
X017592Y005765D01*
X017592Y005666D02*
X014847Y005666D01*
X014847Y005568D02*
X017592Y005568D01*
X017592Y005469D02*
X014847Y005469D01*
X014847Y005371D02*
X017592Y005371D01*
X017598Y005272D02*
X014847Y005272D01*
X014852Y005174D02*
X017649Y005174D01*
X017747Y005075D02*
X014951Y005075D01*
X015049Y004977D02*
X017846Y004977D01*
X017885Y004878D02*
X015148Y004878D01*
X015246Y004780D02*
X017925Y004780D01*
X018015Y004681D02*
X015345Y004681D01*
X014791Y004189D02*
X013641Y004189D01*
X013641Y004287D02*
X014692Y004287D01*
X014594Y004386D02*
X013641Y004386D01*
X013641Y004484D02*
X014495Y004484D01*
X014397Y004583D02*
X013641Y004583D01*
X013641Y004681D02*
X014298Y004681D01*
X014200Y004780D02*
X013641Y004780D01*
X013641Y004878D02*
X014138Y004878D01*
X014107Y004977D02*
X013641Y004977D01*
X013641Y005075D02*
X014107Y005075D01*
X014107Y005174D02*
X013641Y005174D01*
X013641Y005272D02*
X014107Y005272D01*
X014107Y005371D02*
X013641Y005371D01*
X013641Y005469D02*
X014107Y005469D01*
X014107Y005568D02*
X013641Y005568D01*
X013641Y005666D02*
X014107Y005666D01*
X014107Y005765D02*
X013641Y005765D01*
X013641Y005863D02*
X014107Y005863D01*
X014107Y005962D02*
X013641Y005962D01*
X013641Y006060D02*
X014143Y006060D01*
X014213Y006159D02*
X013641Y006159D01*
X013641Y006257D02*
X014373Y006257D01*
X014153Y006356D02*
X013641Y006356D01*
X013641Y006454D02*
X014056Y006454D01*
X014015Y006553D02*
X013641Y006553D01*
X013641Y006651D02*
X014003Y006651D01*
X014003Y006719D02*
X014057Y006848D01*
X014092Y006947D02*
X013641Y006947D01*
X013641Y007045D02*
X014092Y007045D01*
X014092Y007144D02*
X013641Y007144D01*
X013641Y007242D02*
X014092Y007242D01*
X014092Y007341D02*
X013641Y007341D01*
X013641Y007439D02*
X014092Y007439D01*
X014092Y007538D02*
X013641Y007538D01*
X013641Y007636D02*
X014092Y007636D01*
X014092Y007735D02*
X013641Y007735D01*
X013641Y007833D02*
X014092Y007833D01*
X014092Y007932D02*
X013641Y007932D01*
X013641Y008030D02*
X014092Y008030D01*
X014092Y008129D02*
X013641Y008129D01*
X013641Y008227D02*
X014092Y008227D01*
X014092Y008326D02*
X013641Y008326D01*
X013641Y008424D02*
X014092Y008424D01*
X014092Y008523D02*
X013641Y008523D01*
X013641Y008621D02*
X014083Y008621D01*
X014090Y008720D02*
X013641Y008720D01*
X013641Y008818D02*
X014092Y008818D01*
X014092Y008917D02*
X013641Y008917D01*
X013641Y009015D02*
X014092Y009015D01*
X014092Y009114D02*
X013641Y009114D01*
X013641Y009212D02*
X014092Y009212D01*
X014092Y009311D02*
X013641Y009311D01*
X013641Y009409D02*
X014092Y009409D01*
X014034Y009508D02*
X013641Y009508D01*
X013717Y009606D02*
X014003Y009606D01*
X014003Y009705D02*
X013815Y009705D01*
X013978Y009803D02*
X014038Y009803D01*
X014189Y010000D02*
X028294Y010000D01*
X028196Y009902D02*
X018095Y009902D01*
X018167Y009803D02*
X023649Y009803D01*
X023717Y009831D02*
X023581Y009775D01*
X023477Y009671D01*
X023421Y009536D01*
X023421Y009419D01*
X023322Y009419D01*
X023095Y009601D01*
X023067Y009628D01*
X023053Y009634D01*
X023041Y009644D01*
X023004Y009654D01*
X022969Y009669D01*
X022953Y009669D01*
X022938Y009673D01*
X022900Y009669D01*
X022890Y009669D01*
X022863Y009696D01*
X022734Y009749D01*
X022596Y009749D01*
X022467Y009696D01*
X022369Y009598D01*
X022316Y009469D01*
X022316Y009331D01*
X022369Y009202D01*
X022467Y009104D01*
X022596Y009051D01*
X022734Y009051D01*
X022857Y009102D01*
X023048Y008949D01*
X023075Y008922D01*
X023089Y008916D01*
X023101Y008906D01*
X023138Y008896D01*
X023174Y008881D01*
X023189Y008881D01*
X023204Y008877D01*
X023242Y008881D01*
X024741Y008881D01*
X025200Y008422D01*
X025299Y008381D01*
X030741Y008381D01*
X031700Y007422D01*
X031799Y007381D01*
X033359Y007381D01*
X033307Y007255D01*
X033307Y007052D01*
X033385Y006865D01*
X033528Y006722D01*
X033716Y006644D01*
X033918Y006644D01*
X034106Y006722D01*
X034249Y006865D01*
X034313Y007019D01*
X034320Y007022D01*
X034385Y006865D01*
X034528Y006722D01*
X034716Y006644D01*
X034918Y006644D01*
X035106Y006722D01*
X035249Y006865D01*
X035327Y007052D01*
X035327Y007255D01*
X035275Y007381D01*
X035344Y007381D01*
X035442Y007422D01*
X035518Y007498D01*
X036143Y008123D01*
X036184Y008221D01*
X036184Y014351D01*
X036430Y014597D01*
X036451Y014576D01*
X036590Y014518D01*
X036740Y014518D01*
X036879Y014576D01*
X036986Y014682D01*
X037043Y014821D01*
X037043Y014971D01*
X036986Y015110D01*
X036954Y015142D01*
X036986Y015174D01*
X037043Y015313D01*
X037043Y015463D01*
X036986Y015602D01*
X036879Y015709D01*
X036740Y015766D01*
X036590Y015766D01*
X036451Y015709D01*
X036399Y015657D01*
X036225Y015657D01*
X036126Y015616D01*
X035388Y014878D01*
X035312Y014802D01*
X035271Y014704D01*
X035271Y014391D01*
X035249Y014443D01*
X035106Y014586D01*
X034943Y014654D01*
X035106Y014722D01*
X035249Y014865D01*
X035327Y015052D01*
X035327Y015255D01*
X035249Y015443D01*
X035106Y015586D01*
X034943Y015654D01*
X035106Y015722D01*
X035249Y015865D01*
X035327Y016052D01*
X035327Y016255D01*
X035249Y016443D01*
X035106Y016586D01*
X034943Y016654D01*
X035106Y016722D01*
X035249Y016865D01*
X035256Y016881D01*
X035741Y016881D01*
X036287Y016335D01*
X036287Y016297D01*
X036344Y016158D01*
X036451Y016052D01*
X036590Y015994D01*
X036740Y015994D01*
X036879Y016052D01*
X036986Y016158D01*
X037043Y016297D01*
X037043Y016448D01*
X036986Y016587D01*
X036954Y016619D01*
X036986Y016650D01*
X037043Y016789D01*
X037043Y016940D01*
X036986Y017079D01*
X036934Y017130D01*
X036934Y019605D01*
X036937Y019612D01*
X036934Y019658D01*
X036934Y019704D01*
X036931Y019711D01*
X036930Y019719D01*
X036911Y019760D01*
X036893Y019802D01*
X036887Y019808D01*
X036884Y019816D01*
X036850Y019846D01*
X036817Y019878D01*
X036810Y019881D01*
X036287Y020346D01*
X036255Y020378D01*
X036247Y020381D01*
X036241Y020387D01*
X036198Y020402D01*
X036156Y020419D01*
X036148Y020419D01*
X036140Y020422D01*
X036095Y020419D01*
X035259Y020419D01*
X035249Y020443D01*
X035106Y020586D01*
X034943Y020654D01*
X035106Y020722D01*
X035249Y020865D01*
X035327Y021052D01*
X035327Y021255D01*
X035249Y021443D01*
X035106Y021586D01*
X034943Y021654D01*
X035106Y021722D01*
X035249Y021865D01*
X035327Y022052D01*
X035327Y022255D01*
X035321Y022269D01*
X035415Y022176D01*
X035514Y022135D01*
X036399Y022135D01*
X036451Y022083D01*
X036590Y022026D01*
X036740Y022026D01*
X036879Y022083D01*
X036986Y022190D01*
X037043Y022329D01*
X037043Y022479D01*
X036986Y022618D01*
X036954Y022650D01*
X036986Y022682D01*
X037043Y022821D01*
X037043Y022971D01*
X036986Y023110D01*
X036954Y023142D01*
X036986Y023174D01*
X037043Y023313D01*
X037043Y023463D01*
X036986Y023602D01*
X036954Y023634D01*
X036986Y023666D01*
X037043Y023805D01*
X037043Y023956D01*
X036986Y024094D01*
X036954Y024126D01*
X036986Y024158D01*
X037043Y024297D01*
X037043Y024448D01*
X036986Y024587D01*
X036879Y024693D01*
X036740Y024751D01*
X036590Y024751D01*
X036451Y024693D01*
X036399Y024641D01*
X035741Y024641D01*
X035581Y024802D01*
X035505Y024878D01*
X035406Y024919D01*
X035272Y024919D01*
X035327Y025052D01*
X035327Y025255D01*
X035249Y025443D01*
X035106Y025586D01*
X034943Y025654D01*
X035106Y025722D01*
X035249Y025865D01*
X035327Y026052D01*
X035327Y026255D01*
X035249Y026443D01*
X035106Y026586D01*
X034943Y026654D01*
X035106Y026722D01*
X035249Y026865D01*
X035327Y027052D01*
X035327Y027255D01*
X035249Y027443D01*
X035106Y027586D01*
X034943Y027654D01*
X035106Y027722D01*
X035249Y027865D01*
X035327Y028052D01*
X035327Y028255D01*
X035249Y028443D01*
X035106Y028586D01*
X034943Y028654D01*
X035106Y028722D01*
X035249Y028865D01*
X035327Y029052D01*
X035327Y029255D01*
X035249Y029443D01*
X035106Y029586D01*
X034943Y029654D01*
X035106Y029722D01*
X035249Y029865D01*
X035327Y030052D01*
X035327Y030255D01*
X035249Y030443D01*
X035106Y030586D01*
X034918Y030664D01*
X034716Y030664D01*
X034528Y030586D01*
X034385Y030443D01*
X034317Y030280D01*
X034249Y030443D01*
X034106Y030586D01*
X033918Y030664D01*
X033716Y030664D01*
X033528Y030586D01*
X033385Y030443D01*
X033307Y030255D01*
X033307Y030052D01*
X033385Y029865D01*
X033528Y029722D01*
X033691Y029654D01*
X033528Y029586D01*
X033385Y029443D01*
X033307Y029255D01*
X033307Y029052D01*
X033385Y028865D01*
X033528Y028722D01*
X033691Y028654D01*
X033528Y028586D01*
X033385Y028443D01*
X033307Y028255D01*
X033307Y028052D01*
X033385Y027865D01*
X033528Y027722D01*
X033691Y027654D01*
X033528Y027586D01*
X033385Y027443D01*
X033307Y027255D01*
X033307Y027052D01*
X033385Y026865D01*
X033528Y026722D01*
X033691Y026654D01*
X033528Y026586D01*
X033385Y026443D01*
X033307Y026255D01*
X033307Y026052D01*
X033385Y025865D01*
X033528Y025722D01*
X033691Y025654D01*
X033528Y025586D01*
X033385Y025443D01*
X033307Y025255D01*
X033307Y025052D01*
X033385Y024865D01*
X033528Y024722D01*
X033691Y024654D01*
X033528Y024586D01*
X033385Y024443D01*
X033307Y024255D01*
X033307Y024052D01*
X033385Y023865D01*
X033528Y023722D01*
X033691Y023654D01*
X033528Y023586D01*
X033385Y023443D01*
X033307Y023255D01*
X033307Y023052D01*
X033385Y022865D01*
X033528Y022722D01*
X033691Y022654D01*
X033528Y022586D01*
X033385Y022443D01*
X033383Y022439D01*
X023650Y022439D01*
X023658Y022442D01*
X023810Y022594D01*
X023892Y022793D01*
X023892Y023007D01*
X023810Y023206D01*
X023658Y023358D01*
X023556Y023400D01*
X023658Y023442D01*
X023810Y023594D01*
X023892Y023793D01*
X023892Y024007D01*
X023810Y024206D01*
X023658Y024358D01*
X023460Y024440D01*
X023245Y024440D01*
X023047Y024358D01*
X022895Y024206D01*
X022812Y024007D01*
X022812Y023793D01*
X022895Y023594D01*
X023047Y023442D01*
X023149Y023400D01*
X023047Y023358D01*
X022895Y023206D01*
X022888Y023190D01*
X022848Y023190D01*
X022454Y023583D01*
X022348Y023627D01*
X022232Y023627D01*
X022229Y023626D01*
X019807Y023626D01*
X019800Y023633D01*
X019672Y023687D01*
X019533Y023687D01*
X019405Y023633D01*
X019307Y023535D01*
X019253Y023407D01*
X019253Y023268D01*
X019307Y023140D01*
X019405Y023042D01*
X019533Y022988D01*
X019672Y022988D01*
X019800Y023042D01*
X019807Y023049D01*
X022169Y023049D01*
X022279Y022939D01*
X017398Y022939D01*
X017374Y022963D01*
X017238Y023019D01*
X017092Y023019D01*
X016956Y022963D01*
X016852Y022859D01*
X016796Y022723D01*
X016796Y022577D01*
X016852Y022441D01*
X016947Y022347D01*
X016921Y022286D01*
X016921Y022139D01*
X016977Y022004D01*
X017081Y021900D01*
X017217Y021844D01*
X017363Y021844D01*
X017499Y021900D01*
X017523Y021924D01*
X021983Y021924D01*
X022420Y021486D01*
X022488Y021419D01*
X020077Y021419D01*
X020050Y021446D01*
X019922Y021499D01*
X019783Y021499D01*
X019655Y021446D01*
X019557Y021348D01*
X019503Y021219D01*
X019503Y021081D01*
X019557Y020952D01*
X019655Y020854D01*
X019783Y020801D01*
X019922Y020801D01*
X020050Y020854D01*
X020077Y020881D01*
X031444Y020881D01*
X031382Y020819D01*
X031319Y020669D01*
X031319Y020506D01*
X031382Y020356D01*
X031439Y020299D01*
X031439Y020145D01*
X031297Y020003D01*
X031320Y020057D01*
X031320Y020243D01*
X031249Y020415D01*
X031117Y020546D01*
X030945Y020617D01*
X030760Y020617D01*
X030622Y020560D01*
X016835Y020560D01*
X016075Y021320D01*
X016075Y027762D01*
X016145Y027594D01*
X016297Y027442D01*
X016495Y027360D01*
X016710Y027360D01*
X016908Y027442D01*
X017060Y027594D01*
X017142Y027793D01*
X017142Y028007D01*
X017060Y028206D01*
X016908Y028358D01*
X016806Y028400D01*
X016908Y028442D01*
X017060Y028594D01*
X017142Y028793D01*
X017142Y029007D01*
X017060Y029206D01*
X016908Y029358D01*
X016710Y029440D01*
X016495Y029440D01*
X016297Y029358D01*
X016145Y029206D01*
X016075Y029038D01*
X016075Y029607D01*
X016013Y029757D01*
X015931Y029839D01*
X015874Y029977D01*
X015742Y030109D01*
X015570Y030180D01*
X015385Y030180D01*
X015213Y030109D01*
X015081Y029977D01*
X015010Y029805D01*
X015010Y029620D01*
X015081Y029448D01*
X015213Y029316D01*
X015255Y029299D01*
X015255Y022894D01*
X015186Y022963D01*
X015051Y023019D01*
X014904Y023019D01*
X014769Y022963D01*
X014745Y022939D01*
X008472Y022939D01*
X006704Y024707D01*
X006597Y024751D01*
X006370Y024751D01*
X006363Y024758D01*
X006234Y024812D01*
X006096Y024812D01*
X005967Y024758D01*
X005869Y024660D01*
X005816Y024532D01*
X005816Y024393D01*
X005869Y024265D01*
X005967Y024167D01*
X006096Y024113D01*
X006234Y024113D01*
X006363Y024167D01*
X006370Y024174D01*
X006420Y024174D01*
X008108Y022486D01*
X008189Y022405D01*
X008295Y022361D01*
X012599Y022361D01*
X012566Y022282D01*
X012566Y022143D01*
X012619Y022015D01*
X012717Y021917D01*
X012846Y021863D01*
X012984Y021863D01*
X013113Y021917D01*
X013120Y021924D01*
X014495Y021924D01*
X014519Y021900D01*
X014654Y021844D01*
X014801Y021844D01*
X014936Y021900D01*
X015040Y022004D01*
X015096Y022139D01*
X015096Y022286D01*
X015091Y022298D01*
X015186Y022337D01*
X015255Y022406D01*
X015255Y021068D01*
X015317Y020918D01*
X015433Y020802D01*
X016433Y019802D01*
X016583Y019740D01*
X030622Y019740D01*
X030760Y019683D01*
X030945Y019683D01*
X030999Y019705D01*
X029608Y018314D01*
X029564Y018207D01*
X029564Y018093D01*
X029564Y017270D01*
X027280Y014986D01*
X027158Y015108D01*
X027056Y015150D01*
X027158Y015192D01*
X027310Y015344D01*
X027392Y015543D01*
X027392Y015757D01*
X027310Y015956D01*
X027158Y016108D01*
X026960Y016190D01*
X026745Y016190D01*
X026547Y016108D01*
X026395Y015956D01*
X026312Y015757D01*
X026312Y015543D01*
X026395Y015344D01*
X026547Y015192D01*
X026649Y015150D01*
X026547Y015108D01*
X026395Y014956D01*
X026312Y014757D01*
X026312Y014543D01*
X026395Y014344D01*
X026547Y014192D01*
X026745Y014110D01*
X026960Y014110D01*
X027158Y014192D01*
X027310Y014344D01*
X027317Y014361D01*
X027410Y014361D01*
X027516Y014405D01*
X030016Y016905D01*
X030064Y016953D01*
X030064Y012770D01*
X028608Y011314D01*
X028564Y011207D01*
X028564Y010270D01*
X028045Y009751D01*
X024023Y009751D01*
X023999Y009775D01*
X023863Y009831D01*
X023717Y009831D01*
X023931Y009803D02*
X028097Y009803D01*
X028393Y010099D02*
X022182Y010099D01*
X022206Y010123D02*
X022303Y010220D01*
X022408Y010176D01*
X022547Y010176D01*
X022675Y010229D01*
X022773Y010327D01*
X022827Y010456D01*
X022827Y010594D01*
X022773Y010723D01*
X022675Y010821D01*
X022547Y010874D01*
X022408Y010874D01*
X022280Y010821D01*
X022253Y010794D01*
X022174Y010794D01*
X022075Y010753D01*
X021866Y010544D01*
X021740Y010544D01*
X021836Y010640D01*
X021889Y010768D01*
X021889Y010907D01*
X021836Y011035D01*
X021738Y011133D01*
X021609Y011187D01*
X021471Y011187D01*
X021342Y011133D01*
X021244Y011035D01*
X021196Y010919D01*
X015276Y010919D01*
X015139Y011056D01*
X015139Y011094D01*
X015086Y011223D01*
X014988Y011321D01*
X014859Y011374D01*
X014721Y011374D01*
X014598Y011323D01*
X014581Y011365D01*
X014577Y011369D01*
X014577Y011407D01*
X014523Y011535D01*
X014425Y011633D01*
X014297Y011687D01*
X014158Y011687D01*
X014030Y011633D01*
X013932Y011535D01*
X013878Y011407D01*
X013878Y011268D01*
X013932Y011140D01*
X014030Y011042D01*
X014083Y011019D01*
X014083Y010596D01*
X014124Y010498D01*
X014200Y010422D01*
X014575Y010047D01*
X014674Y010006D01*
X022031Y010006D01*
X022130Y010047D01*
X022206Y010123D01*
X022280Y010197D02*
X022357Y010197D01*
X022598Y010197D02*
X028491Y010197D01*
X028564Y010296D02*
X022742Y010296D01*
X022801Y010394D02*
X028564Y010394D01*
X028564Y010493D02*
X022827Y010493D01*
X022827Y010591D02*
X028564Y010591D01*
X028564Y010690D02*
X022787Y010690D01*
X022708Y010788D02*
X028564Y010788D01*
X028564Y010887D02*
X021889Y010887D01*
X021889Y010788D02*
X022159Y010788D01*
X022012Y010690D02*
X021857Y010690D01*
X021913Y010591D02*
X021787Y010591D01*
X021857Y010985D02*
X028564Y010985D01*
X028564Y011084D02*
X021788Y011084D01*
X021620Y011182D02*
X028564Y011182D01*
X028594Y011281D02*
X015028Y011281D01*
X015103Y011182D02*
X021460Y011182D01*
X021292Y011084D02*
X015139Y011084D01*
X015210Y010985D02*
X021223Y010985D01*
X020352Y011150D02*
X019852Y011150D01*
X018202Y009705D02*
X022488Y009705D01*
X022377Y009606D02*
X018264Y009606D01*
X018363Y009508D02*
X022332Y009508D01*
X022316Y009409D02*
X018461Y009409D01*
X018560Y009311D02*
X022324Y009311D01*
X022365Y009212D02*
X018631Y009212D01*
X018705Y009114D02*
X022458Y009114D01*
X022966Y009015D02*
X018779Y009015D01*
X018853Y008917D02*
X023088Y008917D01*
X023211Y009508D02*
X023421Y009508D01*
X023450Y009606D02*
X023089Y009606D01*
X022842Y009705D02*
X023511Y009705D01*
X024804Y008818D02*
X018926Y008818D01*
X019000Y008720D02*
X024902Y008720D01*
X025001Y008621D02*
X019074Y008621D01*
X019148Y008523D02*
X025099Y008523D01*
X025198Y008424D02*
X019222Y008424D01*
X019296Y008326D02*
X030796Y008326D01*
X030895Y008227D02*
X019370Y008227D01*
X019444Y008129D02*
X030993Y008129D01*
X031092Y008030D02*
X019517Y008030D01*
X019591Y007932D02*
X031190Y007932D01*
X031289Y007833D02*
X019665Y007833D01*
X019739Y007735D02*
X031387Y007735D01*
X031486Y007636D02*
X019813Y007636D01*
X019887Y007538D02*
X031584Y007538D01*
X031561Y007463D02*
X031426Y007519D01*
X031279Y007519D01*
X031144Y007463D01*
X031040Y007359D01*
X030984Y007223D01*
X030984Y007077D01*
X031040Y006941D01*
X031064Y006917D01*
X031064Y006383D01*
X031040Y006359D01*
X030984Y006223D01*
X030984Y006077D01*
X031040Y005941D01*
X031144Y005837D01*
X031279Y005781D01*
X031426Y005781D01*
X031561Y005837D01*
X031665Y005941D01*
X031721Y006077D01*
X031721Y006223D01*
X031665Y006359D01*
X031641Y006383D01*
X031641Y006917D01*
X031665Y006941D01*
X031721Y007077D01*
X031721Y007223D01*
X031665Y007359D01*
X031561Y007463D01*
X031585Y007439D02*
X031683Y007439D01*
X031673Y007341D02*
X033342Y007341D01*
X033307Y007242D02*
X031713Y007242D01*
X031721Y007144D02*
X033307Y007144D01*
X033310Y007045D02*
X031708Y007045D01*
X031667Y006947D02*
X033351Y006947D01*
X033402Y006848D02*
X031641Y006848D01*
X031641Y006750D02*
X033500Y006750D01*
X033699Y006651D02*
X031641Y006651D01*
X031641Y006553D02*
X037410Y006553D01*
X037410Y006651D02*
X034936Y006651D01*
X035134Y006750D02*
X037410Y006750D01*
X037410Y006848D02*
X035232Y006848D01*
X035283Y006947D02*
X037410Y006947D01*
X037410Y007045D02*
X035324Y007045D01*
X035327Y007144D02*
X037410Y007144D01*
X037410Y007242D02*
X035327Y007242D01*
X035292Y007341D02*
X037410Y007341D01*
X037410Y007439D02*
X035460Y007439D01*
X035558Y007538D02*
X037410Y007538D01*
X037410Y007636D02*
X035657Y007636D01*
X035755Y007735D02*
X037410Y007735D01*
X037410Y007833D02*
X035854Y007833D01*
X035952Y007932D02*
X037410Y007932D01*
X037410Y008030D02*
X036051Y008030D01*
X036146Y008129D02*
X037410Y008129D01*
X037410Y008227D02*
X036184Y008227D01*
X036184Y008326D02*
X037410Y008326D01*
X037410Y008424D02*
X036184Y008424D01*
X036184Y008523D02*
X037410Y008523D01*
X037410Y008621D02*
X036184Y008621D01*
X036184Y008720D02*
X037410Y008720D01*
X037410Y008818D02*
X036184Y008818D01*
X036184Y008917D02*
X037410Y008917D01*
X037410Y009015D02*
X036184Y009015D01*
X036184Y009114D02*
X037410Y009114D01*
X037410Y009212D02*
X036184Y009212D01*
X036184Y009311D02*
X037410Y009311D01*
X037410Y009409D02*
X036184Y009409D01*
X036184Y009508D02*
X037410Y009508D01*
X037410Y009606D02*
X036184Y009606D01*
X036184Y009705D02*
X037410Y009705D01*
X037410Y009803D02*
X036184Y009803D01*
X036184Y009902D02*
X037410Y009902D01*
X037410Y010000D02*
X036184Y010000D01*
X036184Y010099D02*
X037410Y010099D01*
X037410Y010197D02*
X036184Y010197D01*
X036184Y010296D02*
X037410Y010296D01*
X037410Y010394D02*
X036184Y010394D01*
X036184Y010493D02*
X037410Y010493D01*
X037410Y010591D02*
X036184Y010591D01*
X036184Y010690D02*
X037410Y010690D01*
X037410Y010788D02*
X036184Y010788D01*
X036184Y010887D02*
X037410Y010887D01*
X037410Y010985D02*
X036184Y010985D01*
X036184Y011084D02*
X037410Y011084D01*
X037410Y011182D02*
X036184Y011182D01*
X036184Y011281D02*
X037410Y011281D01*
X037410Y011379D02*
X036184Y011379D01*
X036184Y011478D02*
X037410Y011478D01*
X037410Y011576D02*
X036184Y011576D01*
X036184Y011675D02*
X037410Y011675D01*
X037410Y011773D02*
X036184Y011773D01*
X036184Y011872D02*
X037410Y011872D01*
X037410Y011970D02*
X036184Y011970D01*
X036184Y012069D02*
X036563Y012069D01*
X036590Y012057D02*
X036451Y012115D01*
X036344Y012221D01*
X036287Y012360D01*
X036287Y012511D01*
X036344Y012650D01*
X036376Y012681D01*
X036344Y012713D01*
X036287Y012852D01*
X036287Y013003D01*
X036344Y013142D01*
X036376Y013174D01*
X036344Y013206D01*
X036287Y013344D01*
X036287Y013495D01*
X036344Y013634D01*
X036376Y013666D01*
X036344Y013698D01*
X036287Y013837D01*
X036287Y013987D01*
X036344Y014126D01*
X036451Y014232D01*
X036590Y014290D01*
X036740Y014290D01*
X036879Y014232D01*
X036986Y014126D01*
X037043Y013987D01*
X037043Y013837D01*
X036986Y013698D01*
X036954Y013666D01*
X036986Y013634D01*
X037043Y013495D01*
X037043Y013344D01*
X036986Y013206D01*
X036954Y013174D01*
X036986Y013142D01*
X037043Y013003D01*
X037043Y012852D01*
X036986Y012713D01*
X036954Y012681D01*
X036986Y012650D01*
X037043Y012511D01*
X037043Y012360D01*
X036986Y012221D01*
X036879Y012115D01*
X036740Y012057D01*
X036590Y012057D01*
X036767Y012069D02*
X037410Y012069D01*
X037410Y012167D02*
X036931Y012167D01*
X037004Y012266D02*
X037410Y012266D01*
X037410Y012364D02*
X037043Y012364D01*
X037043Y012463D02*
X037410Y012463D01*
X037410Y012561D02*
X037022Y012561D01*
X036976Y012660D02*
X037410Y012660D01*
X037410Y012758D02*
X037004Y012758D01*
X037043Y012857D02*
X037410Y012857D01*
X037410Y012955D02*
X037043Y012955D01*
X037022Y013054D02*
X037410Y013054D01*
X037410Y013152D02*
X036975Y013152D01*
X037004Y013251D02*
X037410Y013251D01*
X037410Y013349D02*
X037043Y013349D01*
X037043Y013448D02*
X037410Y013448D01*
X037410Y013546D02*
X037022Y013546D01*
X036975Y013645D02*
X037410Y013645D01*
X037410Y013743D02*
X037004Y013743D01*
X037043Y013842D02*
X037410Y013842D01*
X037410Y013940D02*
X037043Y013940D01*
X037022Y014039D02*
X037410Y014039D01*
X037410Y014137D02*
X036974Y014137D01*
X036871Y014236D02*
X037410Y014236D01*
X037410Y014334D02*
X036184Y014334D01*
X036184Y014236D02*
X036458Y014236D01*
X036355Y014137D02*
X036184Y014137D01*
X036184Y014039D02*
X036308Y014039D01*
X036287Y013940D02*
X036184Y013940D01*
X036184Y013842D02*
X036287Y013842D01*
X036326Y013743D02*
X036184Y013743D01*
X036184Y013645D02*
X036355Y013645D01*
X036308Y013546D02*
X036184Y013546D01*
X036184Y013448D02*
X036287Y013448D01*
X036287Y013349D02*
X036184Y013349D01*
X036184Y013251D02*
X036326Y013251D01*
X036355Y013152D02*
X036184Y013152D01*
X036184Y013054D02*
X036308Y013054D01*
X036287Y012955D02*
X036184Y012955D01*
X036184Y012857D02*
X036287Y012857D01*
X036326Y012758D02*
X036184Y012758D01*
X036184Y012660D02*
X036354Y012660D01*
X036308Y012561D02*
X036184Y012561D01*
X036184Y012463D02*
X036287Y012463D01*
X036287Y012364D02*
X036184Y012364D01*
X036184Y012266D02*
X036326Y012266D01*
X036399Y012167D02*
X036184Y012167D01*
X036266Y014433D02*
X037410Y014433D01*
X037410Y014531D02*
X036772Y014531D01*
X036933Y014630D02*
X037410Y014630D01*
X037410Y014728D02*
X037005Y014728D01*
X037043Y014827D02*
X037410Y014827D01*
X037410Y014925D02*
X037043Y014925D01*
X037021Y015024D02*
X037410Y015024D01*
X037410Y015122D02*
X036974Y015122D01*
X037005Y015221D02*
X037410Y015221D01*
X037410Y015319D02*
X037043Y015319D01*
X037043Y015418D02*
X037410Y015418D01*
X037410Y015516D02*
X037021Y015516D01*
X036973Y015615D02*
X037410Y015615D01*
X037410Y015713D02*
X036869Y015713D01*
X036774Y016009D02*
X037410Y016009D01*
X037410Y016107D02*
X036934Y016107D01*
X037005Y016206D02*
X037410Y016206D01*
X037410Y016304D02*
X037043Y016304D01*
X037043Y016403D02*
X037410Y016403D01*
X037410Y016501D02*
X037021Y016501D01*
X036973Y016600D02*
X037410Y016600D01*
X037410Y016698D02*
X037005Y016698D01*
X037043Y016797D02*
X037410Y016797D01*
X037410Y016895D02*
X037043Y016895D01*
X037021Y016994D02*
X037410Y016994D01*
X037410Y017092D02*
X036972Y017092D01*
X036934Y017191D02*
X037410Y017191D01*
X037410Y017289D02*
X036934Y017289D01*
X036934Y017388D02*
X037410Y017388D01*
X037410Y017486D02*
X036934Y017486D01*
X036934Y017585D02*
X037410Y017585D01*
X037410Y017683D02*
X036934Y017683D01*
X036934Y017782D02*
X037410Y017782D01*
X037410Y017880D02*
X036934Y017880D01*
X036934Y017979D02*
X037410Y017979D01*
X037410Y018077D02*
X036934Y018077D01*
X036934Y018176D02*
X037410Y018176D01*
X037410Y018274D02*
X036934Y018274D01*
X036934Y018373D02*
X037410Y018373D01*
X037410Y018471D02*
X036934Y018471D01*
X036934Y018570D02*
X037410Y018570D01*
X037410Y018668D02*
X036934Y018668D01*
X036934Y018767D02*
X037410Y018767D01*
X037410Y018865D02*
X036934Y018865D01*
X036934Y018964D02*
X037410Y018964D01*
X037410Y019062D02*
X036934Y019062D01*
X036934Y019161D02*
X037410Y019161D01*
X037410Y019259D02*
X036934Y019259D01*
X036934Y019358D02*
X037410Y019358D01*
X037410Y019456D02*
X036934Y019456D01*
X036934Y019555D02*
X037410Y019555D01*
X037410Y019653D02*
X036934Y019653D01*
X036915Y019752D02*
X037410Y019752D01*
X037410Y019850D02*
X036845Y019850D01*
X036734Y019949D02*
X037410Y019949D01*
X037410Y020047D02*
X036623Y020047D01*
X036512Y020146D02*
X037410Y020146D01*
X037410Y020244D02*
X036402Y020244D01*
X036291Y020343D02*
X037410Y020343D01*
X037410Y020441D02*
X035250Y020441D01*
X035153Y020540D02*
X037410Y020540D01*
X037410Y020638D02*
X036910Y020638D01*
X036879Y020607D02*
X036986Y020713D01*
X037043Y020852D01*
X037043Y021003D01*
X036986Y021142D01*
X036954Y021174D01*
X036986Y021206D01*
X037043Y021344D01*
X037043Y021495D01*
X036986Y021634D01*
X036879Y021740D01*
X036740Y021798D01*
X036590Y021798D01*
X036451Y021740D01*
X036344Y021634D01*
X036287Y021495D01*
X036287Y021344D01*
X036344Y021206D01*
X036376Y021174D01*
X036344Y021142D01*
X036287Y021003D01*
X036287Y020852D01*
X036344Y020713D01*
X036451Y020607D01*
X036590Y020549D01*
X036740Y020549D01*
X036879Y020607D01*
X036995Y020737D02*
X037410Y020737D01*
X037410Y020835D02*
X037036Y020835D01*
X037043Y020934D02*
X037410Y020934D01*
X037410Y021032D02*
X037031Y021032D01*
X036990Y021131D02*
X037410Y021131D01*
X037410Y021229D02*
X036995Y021229D01*
X037036Y021328D02*
X037410Y021328D01*
X037410Y021426D02*
X037043Y021426D01*
X037031Y021525D02*
X037410Y021525D01*
X037410Y021623D02*
X036990Y021623D01*
X036898Y021722D02*
X037410Y021722D01*
X037410Y021820D02*
X035204Y021820D01*
X035272Y021919D02*
X037410Y021919D01*
X037410Y022017D02*
X035312Y022017D01*
X035327Y022116D02*
X036419Y022116D01*
X036432Y021722D02*
X035106Y021722D01*
X035017Y021623D02*
X036340Y021623D01*
X036299Y021525D02*
X035168Y021525D01*
X035256Y021426D02*
X036287Y021426D01*
X036294Y021328D02*
X035297Y021328D01*
X035327Y021229D02*
X036335Y021229D01*
X036340Y021131D02*
X035327Y021131D01*
X035319Y021032D02*
X036299Y021032D01*
X036287Y020934D02*
X035278Y020934D01*
X035219Y020835D02*
X036294Y020835D01*
X036335Y020737D02*
X035121Y020737D01*
X034981Y020638D02*
X036420Y020638D01*
X036911Y022116D02*
X037410Y022116D01*
X037410Y022214D02*
X036996Y022214D01*
X037036Y022313D02*
X037410Y022313D01*
X037410Y022411D02*
X037043Y022411D01*
X037030Y022510D02*
X037410Y022510D01*
X037410Y022608D02*
X036990Y022608D01*
X036996Y022707D02*
X037410Y022707D01*
X037410Y022805D02*
X037037Y022805D01*
X037043Y022904D02*
X037410Y022904D01*
X037410Y023002D02*
X037030Y023002D01*
X036990Y023101D02*
X037410Y023101D01*
X037410Y023199D02*
X036996Y023199D01*
X037037Y023298D02*
X037410Y023298D01*
X037410Y023396D02*
X037043Y023396D01*
X037030Y023495D02*
X037410Y023495D01*
X037410Y023593D02*
X036989Y023593D01*
X036996Y023692D02*
X037410Y023692D01*
X037410Y023790D02*
X037037Y023790D01*
X037043Y023889D02*
X037410Y023889D01*
X037410Y023987D02*
X037030Y023987D01*
X036989Y024086D02*
X037410Y024086D01*
X037410Y024184D02*
X036996Y024184D01*
X037037Y024283D02*
X037410Y024283D01*
X037410Y024381D02*
X037043Y024381D01*
X037030Y024480D02*
X037410Y024480D01*
X037410Y024578D02*
X036989Y024578D01*
X036896Y024677D02*
X037410Y024677D01*
X037410Y024775D02*
X035608Y024775D01*
X035706Y024677D02*
X036434Y024677D01*
X035509Y024874D02*
X037410Y024874D01*
X037410Y024972D02*
X035294Y024972D01*
X035327Y025071D02*
X037410Y025071D01*
X037410Y025169D02*
X035327Y025169D01*
X035322Y025268D02*
X037410Y025268D01*
X037410Y025366D02*
X035281Y025366D01*
X035228Y025465D02*
X037410Y025465D01*
X037410Y025563D02*
X035129Y025563D01*
X034961Y025662D02*
X037410Y025662D01*
X037410Y025760D02*
X035144Y025760D01*
X035243Y025859D02*
X037410Y025859D01*
X037410Y025957D02*
X035288Y025957D01*
X035327Y026056D02*
X037410Y026056D01*
X037410Y026154D02*
X035327Y026154D01*
X035327Y026253D02*
X037410Y026253D01*
X037410Y026351D02*
X035287Y026351D01*
X035243Y026450D02*
X037410Y026450D01*
X037410Y026548D02*
X035144Y026548D01*
X035129Y026745D02*
X037410Y026745D01*
X037410Y026647D02*
X034960Y026647D01*
X035228Y026844D02*
X037410Y026844D01*
X037410Y026942D02*
X035281Y026942D01*
X035322Y027041D02*
X037410Y027041D01*
X037410Y027139D02*
X035327Y027139D01*
X035327Y027238D02*
X037410Y027238D01*
X037410Y027336D02*
X035294Y027336D01*
X035253Y027435D02*
X037410Y027435D01*
X037410Y027533D02*
X035159Y027533D01*
X034997Y027632D02*
X037410Y027632D01*
X037410Y027730D02*
X035114Y027730D01*
X035213Y027829D02*
X037410Y027829D01*
X037410Y027927D02*
X035275Y027927D01*
X035316Y028026D02*
X037410Y028026D01*
X037410Y028124D02*
X035327Y028124D01*
X035327Y028223D02*
X037410Y028223D01*
X037410Y028321D02*
X035300Y028321D01*
X035259Y028420D02*
X037410Y028420D01*
X037410Y028518D02*
X035174Y028518D01*
X035033Y028617D02*
X037410Y028617D01*
X037410Y028715D02*
X035090Y028715D01*
X035198Y028814D02*
X037410Y028814D01*
X037410Y028912D02*
X035269Y028912D01*
X035310Y029011D02*
X037410Y029011D01*
X037410Y029109D02*
X035327Y029109D01*
X035327Y029208D02*
X037410Y029208D01*
X037410Y029306D02*
X035306Y029306D01*
X035265Y029405D02*
X037410Y029405D01*
X037410Y029503D02*
X035189Y029503D01*
X035069Y029602D02*
X037410Y029602D01*
X037410Y029700D02*
X035054Y029700D01*
X035183Y029799D02*
X037410Y029799D01*
X037410Y029897D02*
X035263Y029897D01*
X035303Y029996D02*
X037410Y029996D01*
X037410Y030094D02*
X035327Y030094D01*
X035327Y030193D02*
X037410Y030193D01*
X037410Y030291D02*
X035312Y030291D01*
X035271Y030390D02*
X037410Y030390D01*
X037410Y030488D02*
X035204Y030488D01*
X035105Y030587D02*
X037410Y030587D01*
X037410Y030685D02*
X017069Y030685D01*
X017060Y030706D02*
X016908Y030858D01*
X016806Y030900D01*
X016908Y030942D01*
X017060Y031094D01*
X017142Y031293D01*
X017142Y031507D01*
X017060Y031706D01*
X016908Y031858D01*
X016710Y031940D01*
X016495Y031940D01*
X016297Y031858D01*
X016145Y031706D01*
X016062Y031507D01*
X016062Y031293D01*
X016145Y031094D01*
X016297Y030942D01*
X016399Y030900D01*
X016297Y030858D01*
X016145Y030706D01*
X016062Y030507D01*
X016062Y030293D01*
X016145Y030094D01*
X015757Y030094D01*
X015855Y029996D02*
X016243Y029996D01*
X016297Y029942D02*
X016145Y030094D01*
X016104Y030193D02*
X001302Y030193D01*
X001302Y030291D02*
X016063Y030291D01*
X016062Y030390D02*
X001302Y030390D01*
X001302Y030488D02*
X016062Y030488D01*
X016095Y030587D02*
X001302Y030587D01*
X001302Y030685D02*
X016136Y030685D01*
X016222Y030784D02*
X001302Y030784D01*
X001302Y030882D02*
X016355Y030882D01*
X016258Y030981D02*
X001302Y030981D01*
X001302Y031079D02*
X016160Y031079D01*
X016110Y031178D02*
X001302Y031178D01*
X001302Y031276D02*
X016069Y031276D01*
X016062Y031375D02*
X001302Y031375D01*
X001302Y031473D02*
X016062Y031473D01*
X016089Y031572D02*
X001302Y031572D01*
X001302Y031670D02*
X016130Y031670D01*
X016207Y031769D02*
X011914Y031769D01*
X011948Y031802D02*
X011825Y031679D01*
X011255Y031679D01*
X011137Y031798D01*
X010857Y031798D01*
X010751Y031842D01*
X010669Y031923D01*
X010625Y032030D01*
X010625Y032145D01*
X010669Y032252D01*
X010751Y032333D01*
X010857Y032377D01*
X011137Y032377D01*
X011255Y032496D01*
X011825Y032496D01*
X011948Y032373D01*
X011948Y031802D01*
X011948Y031867D02*
X016319Y031867D01*
X016886Y031867D02*
X037410Y031867D01*
X037410Y031769D02*
X016998Y031769D01*
X017075Y031670D02*
X037410Y031670D01*
X037410Y031572D02*
X017116Y031572D01*
X017142Y031473D02*
X037410Y031473D01*
X037410Y031375D02*
X017142Y031375D01*
X017136Y031276D02*
X037410Y031276D01*
X037410Y031178D02*
X017095Y031178D01*
X017045Y031079D02*
X037410Y031079D01*
X037410Y030981D02*
X016947Y030981D01*
X016850Y030882D02*
X037410Y030882D01*
X037410Y030784D02*
X016983Y030784D01*
X017060Y030706D02*
X017142Y030507D01*
X017142Y030293D01*
X017060Y030094D01*
X033307Y030094D01*
X033307Y030193D02*
X017101Y030193D01*
X017142Y030291D02*
X033322Y030291D01*
X033363Y030390D02*
X017142Y030390D01*
X017142Y030488D02*
X033430Y030488D01*
X033529Y030587D02*
X017110Y030587D01*
X017060Y030094D02*
X016908Y029942D01*
X016710Y029860D01*
X016495Y029860D01*
X016297Y029942D01*
X016406Y029897D02*
X015907Y029897D01*
X015971Y029799D02*
X033451Y029799D01*
X033371Y029897D02*
X016799Y029897D01*
X016962Y029996D02*
X033331Y029996D01*
X033580Y029700D02*
X016036Y029700D01*
X016075Y029602D02*
X033565Y029602D01*
X033445Y029503D02*
X016075Y029503D01*
X016075Y029405D02*
X016410Y029405D01*
X016245Y029306D02*
X016075Y029306D01*
X016075Y029208D02*
X016146Y029208D01*
X016105Y029109D02*
X016075Y029109D01*
X016795Y029405D02*
X033369Y029405D01*
X033328Y029306D02*
X016960Y029306D01*
X017059Y029208D02*
X033307Y029208D01*
X033307Y029109D02*
X017100Y029109D01*
X017141Y029011D02*
X033324Y029011D01*
X033365Y028912D02*
X017142Y028912D01*
X017142Y028814D02*
X033436Y028814D01*
X033544Y028715D02*
X030625Y028715D01*
X030628Y028714D02*
X030363Y028785D01*
X030090Y028785D01*
X029825Y028714D01*
X029588Y028577D01*
X029394Y028383D01*
X029257Y028146D01*
X029186Y027881D01*
X029186Y027607D01*
X029257Y027343D01*
X029394Y027106D01*
X029588Y026912D01*
X029825Y026775D01*
X030090Y026704D01*
X030363Y026704D01*
X030628Y026775D01*
X030865Y026912D01*
X031059Y027106D01*
X031196Y027343D01*
X031267Y027607D01*
X031267Y027881D01*
X031196Y028146D01*
X031059Y028383D01*
X030865Y028577D01*
X030628Y028714D01*
X030797Y028617D02*
X033601Y028617D01*
X033460Y028518D02*
X030924Y028518D01*
X031023Y028420D02*
X033375Y028420D01*
X033334Y028321D02*
X031095Y028321D01*
X031152Y028223D02*
X033307Y028223D01*
X033307Y028124D02*
X031202Y028124D01*
X031228Y028026D02*
X033318Y028026D01*
X033359Y027927D02*
X031255Y027927D01*
X031267Y027829D02*
X033421Y027829D01*
X033520Y027730D02*
X031267Y027730D01*
X031267Y027632D02*
X033637Y027632D01*
X033475Y027533D02*
X031247Y027533D01*
X031221Y027435D02*
X033381Y027435D01*
X033340Y027336D02*
X031192Y027336D01*
X031135Y027238D02*
X033307Y027238D01*
X033307Y027139D02*
X031078Y027139D01*
X030994Y027041D02*
X033312Y027041D01*
X033353Y026942D02*
X030896Y026942D01*
X030747Y026844D02*
X033406Y026844D01*
X033505Y026745D02*
X030517Y026745D01*
X030987Y026351D02*
X028076Y026351D01*
X028050Y026377D02*
X027697Y026523D01*
X027315Y026523D01*
X026962Y026377D01*
X026692Y026107D01*
X026546Y025754D01*
X026546Y025372D01*
X026692Y025020D01*
X026962Y024750D01*
X027315Y024603D01*
X027697Y024603D01*
X028050Y024750D01*
X028320Y025020D01*
X028466Y025372D01*
X028466Y025754D01*
X028320Y026107D01*
X028050Y026377D01*
X028174Y026253D02*
X030889Y026253D01*
X030790Y026154D02*
X028273Y026154D01*
X028341Y026056D02*
X030722Y026056D01*
X030743Y026107D02*
X030597Y025754D01*
X030597Y025372D01*
X030743Y025020D01*
X031013Y024750D01*
X031366Y024603D01*
X031748Y024603D01*
X032101Y024750D01*
X032371Y025020D01*
X032517Y025372D01*
X032517Y025754D01*
X032371Y026107D01*
X032101Y026377D01*
X031748Y026523D01*
X031366Y026523D01*
X031013Y026377D01*
X030743Y026107D01*
X030681Y025957D02*
X028382Y025957D01*
X028423Y025859D02*
X030640Y025859D01*
X030600Y025760D02*
X028464Y025760D01*
X028466Y025662D02*
X030597Y025662D01*
X030597Y025563D02*
X028466Y025563D01*
X028466Y025465D02*
X030597Y025465D01*
X030600Y025366D02*
X028463Y025366D01*
X028423Y025268D02*
X030641Y025268D01*
X030681Y025169D02*
X028382Y025169D01*
X028341Y025071D02*
X030722Y025071D01*
X030791Y024972D02*
X028272Y024972D01*
X028174Y024874D02*
X030889Y024874D01*
X030988Y024775D02*
X028075Y024775D01*
X027874Y024677D02*
X031190Y024677D01*
X031925Y024677D02*
X033637Y024677D01*
X033520Y024578D02*
X016075Y024578D01*
X016075Y024480D02*
X033421Y024480D01*
X033359Y024381D02*
X023602Y024381D01*
X023734Y024283D02*
X033318Y024283D01*
X033307Y024184D02*
X023819Y024184D01*
X023860Y024086D02*
X033307Y024086D01*
X033334Y023987D02*
X023892Y023987D01*
X023892Y023889D02*
X033375Y023889D01*
X033460Y023790D02*
X023891Y023790D01*
X023851Y023692D02*
X033601Y023692D01*
X033544Y023593D02*
X023809Y023593D01*
X023711Y023495D02*
X033436Y023495D01*
X033365Y023396D02*
X023566Y023396D01*
X023719Y023298D02*
X033325Y023298D01*
X033307Y023199D02*
X023813Y023199D01*
X023854Y023101D02*
X033307Y023101D01*
X033328Y023002D02*
X023892Y023002D01*
X023892Y022904D02*
X033369Y022904D01*
X033445Y022805D02*
X023892Y022805D01*
X023857Y022707D02*
X033564Y022707D01*
X033581Y022608D02*
X023816Y022608D01*
X023726Y022510D02*
X033451Y022510D01*
X035327Y022214D02*
X035376Y022214D01*
X033475Y024775D02*
X032127Y024775D01*
X032225Y024874D02*
X033381Y024874D01*
X033340Y024972D02*
X032324Y024972D01*
X032392Y025071D02*
X033307Y025071D01*
X033307Y025169D02*
X032433Y025169D01*
X032474Y025268D02*
X033312Y025268D01*
X033353Y025366D02*
X032515Y025366D01*
X032517Y025465D02*
X033406Y025465D01*
X033505Y025563D02*
X032517Y025563D01*
X032517Y025662D02*
X033673Y025662D01*
X033490Y025760D02*
X032515Y025760D01*
X032474Y025859D02*
X033391Y025859D01*
X033347Y025957D02*
X032433Y025957D01*
X032392Y026056D02*
X033307Y026056D01*
X033307Y026154D02*
X032324Y026154D01*
X032226Y026253D02*
X033307Y026253D01*
X033347Y026351D02*
X032127Y026351D01*
X031926Y026450D02*
X033391Y026450D01*
X033490Y026548D02*
X023892Y026548D01*
X023892Y026543D02*
X023892Y026757D01*
X023810Y026956D01*
X023658Y027108D01*
X023460Y027190D01*
X023245Y027190D01*
X023047Y027108D01*
X022895Y026956D01*
X022812Y026757D01*
X022812Y026543D01*
X022895Y026344D01*
X023047Y026192D01*
X023149Y026150D01*
X023047Y026108D01*
X022895Y025956D01*
X022812Y025757D01*
X022812Y025543D01*
X022895Y025344D01*
X023047Y025192D01*
X023245Y025110D01*
X023460Y025110D01*
X023658Y025192D01*
X023810Y025344D01*
X023892Y025543D01*
X023892Y025757D01*
X023810Y025956D01*
X023658Y026108D01*
X023556Y026150D01*
X023658Y026192D01*
X023810Y026344D01*
X023892Y026543D01*
X023854Y026450D02*
X024767Y026450D01*
X024592Y026377D02*
X024322Y026107D01*
X024176Y025754D01*
X024176Y025372D01*
X024322Y025020D01*
X024592Y024750D01*
X024945Y024603D01*
X025327Y024603D01*
X025680Y024750D01*
X025950Y025020D01*
X026096Y025372D01*
X026096Y025754D01*
X025950Y026107D01*
X025680Y026377D01*
X025327Y026523D01*
X024945Y026523D01*
X024592Y026377D01*
X024566Y026351D02*
X023813Y026351D01*
X023719Y026253D02*
X024467Y026253D01*
X024369Y026154D02*
X023566Y026154D01*
X023711Y026056D02*
X024301Y026056D01*
X024260Y025957D02*
X023809Y025957D01*
X023851Y025859D02*
X024219Y025859D01*
X024178Y025760D02*
X023891Y025760D01*
X023892Y025662D02*
X024176Y025662D01*
X024176Y025563D02*
X023892Y025563D01*
X023860Y025465D02*
X024176Y025465D01*
X024179Y025366D02*
X023819Y025366D01*
X023734Y025268D02*
X024219Y025268D01*
X024260Y025169D02*
X023602Y025169D01*
X024301Y025071D02*
X016075Y025071D01*
X016075Y025169D02*
X023102Y025169D01*
X022971Y025268D02*
X016075Y025268D01*
X016075Y025366D02*
X022886Y025366D01*
X022845Y025465D02*
X016075Y025465D01*
X016075Y025563D02*
X022812Y025563D01*
X022812Y025662D02*
X016075Y025662D01*
X016075Y025760D02*
X022814Y025760D01*
X022854Y025859D02*
X016075Y025859D01*
X016075Y025957D02*
X022896Y025957D01*
X022994Y026056D02*
X016075Y026056D01*
X016075Y026154D02*
X023139Y026154D01*
X022986Y026253D02*
X016075Y026253D01*
X016075Y026351D02*
X022892Y026351D01*
X022851Y026450D02*
X016075Y026450D01*
X016075Y026548D02*
X022812Y026548D01*
X022812Y026647D02*
X016075Y026647D01*
X016075Y026745D02*
X022812Y026745D01*
X022848Y026844D02*
X016075Y026844D01*
X016075Y026942D02*
X022889Y026942D01*
X022979Y027041D02*
X016075Y027041D01*
X016075Y027139D02*
X023122Y027139D01*
X023583Y027139D02*
X025623Y027139D01*
X025642Y027106D02*
X025836Y026912D01*
X026073Y026775D01*
X026338Y026704D01*
X026612Y026704D01*
X026876Y026775D01*
X027113Y026912D01*
X027307Y027106D01*
X027444Y027343D01*
X027515Y027607D01*
X027515Y027881D01*
X027444Y028146D01*
X027307Y028383D01*
X027113Y028577D01*
X026876Y028714D01*
X026612Y028785D01*
X026338Y028785D01*
X026073Y028714D01*
X025836Y028577D01*
X025642Y028383D01*
X025505Y028146D01*
X025434Y027881D01*
X025434Y027607D01*
X025505Y027343D01*
X025642Y027106D01*
X025707Y027041D02*
X023726Y027041D01*
X023816Y026942D02*
X025805Y026942D01*
X025954Y026844D02*
X023857Y026844D01*
X023892Y026745D02*
X026184Y026745D01*
X026765Y026745D02*
X029936Y026745D01*
X029706Y026844D02*
X026995Y026844D01*
X027144Y026942D02*
X029557Y026942D01*
X029459Y027041D02*
X027242Y027041D01*
X027327Y027139D02*
X029375Y027139D01*
X029318Y027238D02*
X027383Y027238D01*
X027440Y027336D02*
X029261Y027336D01*
X029232Y027435D02*
X027469Y027435D01*
X027495Y027533D02*
X029206Y027533D01*
X029186Y027632D02*
X027515Y027632D01*
X027515Y027730D02*
X029186Y027730D01*
X029186Y027829D02*
X027515Y027829D01*
X027503Y027927D02*
X029198Y027927D01*
X029225Y028026D02*
X027476Y028026D01*
X027450Y028124D02*
X029251Y028124D01*
X029301Y028223D02*
X027400Y028223D01*
X027343Y028321D02*
X029358Y028321D01*
X029430Y028420D02*
X027271Y028420D01*
X027173Y028518D02*
X029529Y028518D01*
X029656Y028617D02*
X027045Y028617D01*
X026873Y028715D02*
X029828Y028715D01*
X031188Y026450D02*
X027875Y026450D01*
X027137Y026450D02*
X025505Y026450D01*
X025706Y026351D02*
X026936Y026351D01*
X026838Y026253D02*
X025804Y026253D01*
X025903Y026154D02*
X026739Y026154D01*
X026671Y026056D02*
X025971Y026056D01*
X026012Y025957D02*
X026630Y025957D01*
X026589Y025859D02*
X026053Y025859D01*
X026094Y025760D02*
X026548Y025760D01*
X026546Y025662D02*
X026096Y025662D01*
X026096Y025563D02*
X026546Y025563D01*
X026546Y025465D02*
X026096Y025465D01*
X026093Y025366D02*
X026549Y025366D01*
X026589Y025268D02*
X026053Y025268D01*
X026012Y025169D02*
X026630Y025169D01*
X026671Y025071D02*
X025971Y025071D01*
X025902Y024972D02*
X026740Y024972D01*
X026838Y024874D02*
X025804Y024874D01*
X025705Y024775D02*
X026937Y024775D01*
X027138Y024677D02*
X025504Y024677D01*
X024768Y024677D02*
X016075Y024677D01*
X016075Y024775D02*
X024567Y024775D01*
X024468Y024874D02*
X016075Y024874D01*
X016075Y024972D02*
X024370Y024972D01*
X023103Y024381D02*
X016075Y024381D01*
X016075Y024283D02*
X022971Y024283D01*
X022886Y024184D02*
X016075Y024184D01*
X016075Y024086D02*
X022845Y024086D01*
X022812Y023987D02*
X016075Y023987D01*
X016075Y023889D02*
X022812Y023889D01*
X022814Y023790D02*
X016075Y023790D01*
X016075Y023692D02*
X022854Y023692D01*
X022896Y023593D02*
X022431Y023593D01*
X022543Y023495D02*
X022994Y023495D01*
X023139Y023396D02*
X022642Y023396D01*
X022740Y023298D02*
X022986Y023298D01*
X022892Y023199D02*
X022839Y023199D01*
X022215Y023002D02*
X019705Y023002D01*
X019500Y023002D02*
X017279Y023002D01*
X017051Y023002D02*
X016075Y023002D01*
X016075Y022904D02*
X016897Y022904D01*
X016830Y022805D02*
X016075Y022805D01*
X016075Y022707D02*
X016796Y022707D01*
X016796Y022608D02*
X016075Y022608D01*
X016075Y022510D02*
X016824Y022510D01*
X016882Y022411D02*
X016075Y022411D01*
X016075Y022313D02*
X016932Y022313D01*
X016921Y022214D02*
X016075Y022214D01*
X016075Y022116D02*
X016931Y022116D01*
X016972Y022017D02*
X016075Y022017D01*
X016075Y021919D02*
X017062Y021919D01*
X017518Y021919D02*
X021988Y021919D01*
X022087Y021820D02*
X016075Y021820D01*
X016075Y021722D02*
X022185Y021722D01*
X022284Y021623D02*
X016075Y021623D01*
X016075Y021525D02*
X022382Y021525D01*
X022481Y021426D02*
X020070Y021426D01*
X019635Y021426D02*
X016075Y021426D01*
X016075Y021328D02*
X019548Y021328D01*
X019507Y021229D02*
X016166Y021229D01*
X016264Y021131D02*
X019503Y021131D01*
X019524Y021032D02*
X016363Y021032D01*
X016461Y020934D02*
X019575Y020934D01*
X019701Y020835D02*
X016560Y020835D01*
X016658Y020737D02*
X031347Y020737D01*
X031319Y020638D02*
X016757Y020638D01*
X016188Y020047D02*
X003343Y020047D01*
X003310Y019969D02*
X003392Y020168D01*
X003392Y020382D01*
X003310Y020581D01*
X003158Y020733D01*
X002960Y020815D01*
X002745Y020815D01*
X002547Y020733D01*
X002395Y020581D01*
X002312Y020382D01*
X002312Y020168D01*
X002395Y019969D01*
X002547Y019817D01*
X002649Y019775D01*
X002547Y019733D01*
X002395Y019581D01*
X002312Y019382D01*
X002312Y019168D01*
X002395Y018969D01*
X002547Y018817D01*
X002745Y018735D01*
X002960Y018735D01*
X003158Y018817D01*
X003310Y018969D01*
X003392Y019168D01*
X003392Y019382D01*
X003310Y019581D01*
X003158Y019733D01*
X003056Y019775D01*
X003158Y019817D01*
X003310Y019969D01*
X003290Y019949D02*
X016287Y019949D01*
X016385Y019850D02*
X003191Y019850D01*
X003113Y019752D02*
X016556Y019752D01*
X016090Y020146D02*
X003383Y020146D01*
X003392Y020244D02*
X015991Y020244D01*
X015893Y020343D02*
X003392Y020343D01*
X003368Y020441D02*
X015794Y020441D01*
X015696Y020540D02*
X003327Y020540D01*
X003253Y020638D02*
X015597Y020638D01*
X015499Y020737D02*
X003149Y020737D01*
X002556Y020737D02*
X001302Y020737D01*
X001302Y020835D02*
X015400Y020835D01*
X015311Y020934D02*
X001302Y020934D01*
X001302Y021032D02*
X015270Y021032D01*
X015255Y021131D02*
X001302Y021131D01*
X001302Y021229D02*
X015255Y021229D01*
X015255Y021328D02*
X001302Y021328D01*
X001302Y021426D02*
X015255Y021426D01*
X015255Y021525D02*
X001302Y021525D01*
X001302Y021623D02*
X015255Y021623D01*
X015255Y021722D02*
X001302Y021722D01*
X001302Y021820D02*
X015255Y021820D01*
X015255Y021919D02*
X014955Y021919D01*
X015046Y022017D02*
X015255Y022017D01*
X015255Y022116D02*
X015086Y022116D01*
X015096Y022214D02*
X015255Y022214D01*
X015255Y022313D02*
X015126Y022313D01*
X015245Y022904D02*
X015255Y022904D01*
X015255Y023002D02*
X015091Y023002D01*
X015255Y023101D02*
X008310Y023101D01*
X008212Y023199D02*
X015255Y023199D01*
X015255Y023298D02*
X008113Y023298D01*
X008015Y023396D02*
X015255Y023396D01*
X015255Y023495D02*
X007916Y023495D01*
X007818Y023593D02*
X015255Y023593D01*
X015255Y023692D02*
X007719Y023692D01*
X007621Y023790D02*
X015255Y023790D01*
X015255Y023889D02*
X007522Y023889D01*
X007424Y023987D02*
X015255Y023987D01*
X015255Y024086D02*
X007325Y024086D01*
X007227Y024184D02*
X015255Y024184D01*
X015255Y024283D02*
X007128Y024283D01*
X007030Y024381D02*
X015255Y024381D01*
X015255Y024480D02*
X006931Y024480D01*
X006833Y024578D02*
X015255Y024578D01*
X015255Y024677D02*
X006734Y024677D01*
X006323Y024775D02*
X015255Y024775D01*
X015255Y024874D02*
X001302Y024874D01*
X001302Y024972D02*
X015255Y024972D01*
X015255Y025071D02*
X001302Y025071D01*
X001302Y025169D02*
X015255Y025169D01*
X015255Y025268D02*
X001302Y025268D01*
X001302Y025366D02*
X015255Y025366D01*
X015255Y025465D02*
X001302Y025465D01*
X001302Y025563D02*
X015255Y025563D01*
X015255Y025662D02*
X001302Y025662D01*
X001302Y025760D02*
X015255Y025760D01*
X015255Y025859D02*
X001302Y025859D01*
X001302Y025957D02*
X015255Y025957D01*
X015255Y026056D02*
X001302Y026056D01*
X001302Y026154D02*
X015255Y026154D01*
X015255Y026253D02*
X001302Y026253D01*
X001302Y026351D02*
X015255Y026351D01*
X015255Y026450D02*
X001302Y026450D01*
X001302Y026548D02*
X015255Y026548D01*
X015255Y026647D02*
X001302Y026647D01*
X001302Y026745D02*
X015255Y026745D01*
X015255Y026844D02*
X001302Y026844D01*
X001302Y026942D02*
X015255Y026942D01*
X015255Y027041D02*
X001302Y027041D01*
X001302Y027139D02*
X015255Y027139D01*
X015255Y027238D02*
X001302Y027238D01*
X001302Y027336D02*
X015255Y027336D01*
X015255Y027435D02*
X001302Y027435D01*
X001302Y027533D02*
X015255Y027533D01*
X015255Y027632D02*
X001302Y027632D01*
X001302Y027730D02*
X015255Y027730D01*
X015255Y027829D02*
X001302Y027829D01*
X001302Y027927D02*
X015255Y027927D01*
X015255Y028026D02*
X001302Y028026D01*
X001302Y028124D02*
X015255Y028124D01*
X015255Y028223D02*
X001302Y028223D01*
X001302Y028321D02*
X015255Y028321D01*
X015255Y028420D02*
X001302Y028420D01*
X001302Y028518D02*
X015255Y028518D01*
X015255Y028617D02*
X001302Y028617D01*
X001302Y028715D02*
X015255Y028715D01*
X015255Y028814D02*
X001302Y028814D01*
X001302Y028912D02*
X015255Y028912D01*
X015255Y029011D02*
X001302Y029011D01*
X001302Y029109D02*
X015255Y029109D01*
X015255Y029208D02*
X001302Y029208D01*
X001302Y029306D02*
X015238Y029306D01*
X015125Y029405D02*
X001302Y029405D01*
X001302Y029503D02*
X015059Y029503D01*
X015018Y029602D02*
X001302Y029602D01*
X001302Y029700D02*
X015010Y029700D01*
X015010Y029799D02*
X001302Y029799D01*
X001302Y029897D02*
X015048Y029897D01*
X015100Y029996D02*
X001302Y029996D01*
X001302Y030094D02*
X015198Y030094D01*
X017070Y028617D02*
X025904Y028617D01*
X025777Y028518D02*
X016984Y028518D01*
X016854Y028420D02*
X025678Y028420D01*
X025606Y028321D02*
X016945Y028321D01*
X017044Y028223D02*
X025549Y028223D01*
X025499Y028124D02*
X017094Y028124D01*
X017135Y028026D02*
X025473Y028026D01*
X025446Y027927D02*
X017142Y027927D01*
X017142Y027829D02*
X025434Y027829D01*
X025434Y027730D02*
X017117Y027730D01*
X017076Y027632D02*
X025434Y027632D01*
X025454Y027533D02*
X016999Y027533D01*
X016890Y027435D02*
X025480Y027435D01*
X025509Y027336D02*
X016075Y027336D01*
X016075Y027238D02*
X025566Y027238D01*
X026076Y028715D02*
X017110Y028715D01*
X016088Y027730D02*
X016075Y027730D01*
X016075Y027632D02*
X016129Y027632D01*
X016075Y027533D02*
X016206Y027533D01*
X016315Y027435D02*
X016075Y027435D01*
X016075Y023593D02*
X019364Y023593D01*
X019290Y023495D02*
X016075Y023495D01*
X016075Y023396D02*
X019253Y023396D01*
X019253Y023298D02*
X016075Y023298D01*
X016075Y023199D02*
X019282Y023199D01*
X019346Y023101D02*
X016075Y023101D01*
X014864Y023002D02*
X008409Y023002D01*
X007986Y022608D02*
X001302Y022608D01*
X001302Y022510D02*
X008085Y022510D01*
X008183Y022411D02*
X001302Y022411D01*
X001302Y022313D02*
X012579Y022313D01*
X012566Y022214D02*
X001302Y022214D01*
X001302Y022116D02*
X012577Y022116D01*
X012618Y022017D02*
X001302Y022017D01*
X001302Y021919D02*
X012715Y021919D01*
X013115Y021919D02*
X014500Y021919D01*
X020004Y020835D02*
X031398Y020835D01*
X031319Y020540D02*
X031124Y020540D01*
X031222Y020441D02*
X031346Y020441D01*
X031395Y020343D02*
X031278Y020343D01*
X031319Y020244D02*
X031439Y020244D01*
X031439Y020146D02*
X031320Y020146D01*
X031315Y020047D02*
X031341Y020047D01*
X030947Y019653D02*
X003238Y019653D01*
X003321Y019555D02*
X030849Y019555D01*
X030750Y019456D02*
X003362Y019456D01*
X003392Y019358D02*
X030652Y019358D01*
X030553Y019259D02*
X003392Y019259D01*
X003390Y019161D02*
X030455Y019161D01*
X030356Y019062D02*
X003349Y019062D01*
X003305Y018964D02*
X030258Y018964D01*
X030159Y018865D02*
X003206Y018865D01*
X003036Y018767D02*
X030061Y018767D01*
X029962Y018668D02*
X001302Y018668D01*
X001302Y018570D02*
X029864Y018570D01*
X029765Y018471D02*
X001302Y018471D01*
X001302Y018373D02*
X029667Y018373D01*
X029591Y018274D02*
X001302Y018274D01*
X001302Y018176D02*
X029564Y018176D01*
X029564Y018077D02*
X001302Y018077D01*
X001302Y017979D02*
X029564Y017979D01*
X029564Y017880D02*
X001302Y017880D01*
X001302Y017782D02*
X029564Y017782D01*
X029564Y017683D02*
X001302Y017683D01*
X001302Y017585D02*
X029564Y017585D01*
X029564Y017486D02*
X001302Y017486D01*
X001302Y017388D02*
X029564Y017388D01*
X029564Y017289D02*
X001302Y017289D01*
X001302Y017191D02*
X029485Y017191D01*
X029386Y017092D02*
X001302Y017092D01*
X001302Y016994D02*
X029288Y016994D01*
X029189Y016895D02*
X001302Y016895D01*
X001302Y016797D02*
X029091Y016797D01*
X028992Y016698D02*
X001302Y016698D01*
X001302Y016600D02*
X028894Y016600D01*
X028795Y016501D02*
X001302Y016501D01*
X001302Y016403D02*
X028697Y016403D01*
X028598Y016304D02*
X001302Y016304D01*
X001302Y016206D02*
X028500Y016206D01*
X028401Y016107D02*
X027159Y016107D01*
X027258Y016009D02*
X028303Y016009D01*
X028204Y015910D02*
X027329Y015910D01*
X027370Y015812D02*
X028106Y015812D01*
X028007Y015713D02*
X027392Y015713D01*
X027392Y015615D02*
X027909Y015615D01*
X027810Y015516D02*
X027381Y015516D01*
X027341Y015418D02*
X027712Y015418D01*
X027613Y015319D02*
X027285Y015319D01*
X027187Y015221D02*
X027515Y015221D01*
X027416Y015122D02*
X027124Y015122D01*
X027243Y015024D02*
X027318Y015024D01*
X027740Y014630D02*
X030064Y014630D01*
X030064Y014728D02*
X027839Y014728D01*
X027937Y014827D02*
X030064Y014827D01*
X030064Y014925D02*
X028036Y014925D01*
X028134Y015024D02*
X030064Y015024D01*
X030064Y015122D02*
X028233Y015122D01*
X028331Y015221D02*
X030064Y015221D01*
X030064Y015319D02*
X028430Y015319D01*
X028528Y015418D02*
X030064Y015418D01*
X030064Y015516D02*
X028627Y015516D01*
X028725Y015615D02*
X030064Y015615D01*
X030064Y015713D02*
X028824Y015713D01*
X028922Y015812D02*
X030064Y015812D01*
X030064Y015910D02*
X029021Y015910D01*
X029119Y016009D02*
X030064Y016009D01*
X030064Y016107D02*
X029218Y016107D01*
X029316Y016206D02*
X030064Y016206D01*
X030064Y016304D02*
X029415Y016304D01*
X029513Y016403D02*
X030064Y016403D01*
X030064Y016501D02*
X029612Y016501D01*
X029710Y016600D02*
X030064Y016600D01*
X030064Y016698D02*
X029809Y016698D01*
X029907Y016797D02*
X030064Y016797D01*
X030064Y016895D02*
X030006Y016895D01*
X030064Y014531D02*
X027642Y014531D01*
X027543Y014433D02*
X030064Y014433D01*
X030064Y014334D02*
X027300Y014334D01*
X027202Y014236D02*
X030064Y014236D01*
X030064Y014137D02*
X027025Y014137D01*
X026680Y014137D02*
X006916Y014137D01*
X006859Y014113D02*
X006988Y014167D01*
X007086Y014265D01*
X007139Y014393D01*
X007139Y014532D01*
X007086Y014660D01*
X006988Y014758D01*
X006859Y014812D01*
X006721Y014812D01*
X006592Y014758D01*
X006586Y014752D01*
X005982Y014752D01*
X005876Y014708D01*
X005749Y014581D01*
X005717Y014581D01*
X005581Y014525D01*
X005477Y014421D01*
X005421Y014286D01*
X005421Y014139D01*
X005477Y014004D01*
X005581Y013900D01*
X005717Y013844D01*
X005863Y013844D01*
X005999Y013900D01*
X006103Y014004D01*
X006159Y014139D01*
X006159Y014171D01*
X006160Y014173D01*
X006586Y014173D01*
X006592Y014167D01*
X006721Y014113D01*
X006859Y014113D01*
X006664Y014137D02*
X006158Y014137D01*
X006117Y014039D02*
X030064Y014039D01*
X030064Y013940D02*
X006039Y013940D01*
X005541Y013940D02*
X003317Y013940D01*
X003310Y013956D02*
X003158Y014108D01*
X002960Y014190D01*
X002745Y014190D01*
X002547Y014108D01*
X002395Y013956D01*
X002312Y013757D01*
X002312Y013543D01*
X002395Y013344D01*
X002547Y013192D01*
X002649Y013150D01*
X002547Y013108D01*
X002395Y012956D01*
X002312Y012757D01*
X002312Y012543D01*
X002395Y012344D01*
X002547Y012192D01*
X002745Y012110D01*
X002960Y012110D01*
X003158Y012192D01*
X003310Y012344D01*
X003392Y012543D01*
X003392Y012757D01*
X003310Y012956D01*
X003158Y013108D01*
X003056Y013150D01*
X003158Y013192D01*
X003310Y013344D01*
X003392Y013543D01*
X003392Y013757D01*
X003310Y013956D01*
X003228Y014039D02*
X005463Y014039D01*
X005422Y014137D02*
X003088Y014137D01*
X003358Y013842D02*
X030064Y013842D01*
X030064Y013743D02*
X003392Y013743D01*
X003392Y013645D02*
X026635Y013645D01*
X026547Y013608D02*
X026395Y013456D01*
X026312Y013257D01*
X026312Y013043D01*
X026395Y012844D01*
X026547Y012692D01*
X026745Y012610D01*
X026960Y012610D01*
X027158Y012692D01*
X027310Y012844D01*
X027392Y013043D01*
X027392Y013257D01*
X027310Y013456D01*
X027158Y013608D01*
X026960Y013690D01*
X026745Y013690D01*
X026547Y013608D01*
X026485Y013546D02*
X003392Y013546D01*
X003353Y013448D02*
X026391Y013448D01*
X026350Y013349D02*
X003312Y013349D01*
X003217Y013251D02*
X026312Y013251D01*
X026312Y013152D02*
X003061Y013152D01*
X003213Y013054D02*
X026312Y013054D01*
X026349Y012955D02*
X003311Y012955D01*
X003351Y012857D02*
X026390Y012857D01*
X026481Y012758D02*
X003392Y012758D01*
X003392Y012660D02*
X026625Y012660D01*
X027079Y012660D02*
X029954Y012660D01*
X030052Y012758D02*
X027224Y012758D01*
X027315Y012857D02*
X030064Y012857D01*
X030064Y012955D02*
X027356Y012955D01*
X027392Y013054D02*
X030064Y013054D01*
X030064Y013152D02*
X027392Y013152D01*
X027392Y013251D02*
X030064Y013251D01*
X030064Y013349D02*
X027355Y013349D01*
X027314Y013448D02*
X030064Y013448D01*
X030064Y013546D02*
X027220Y013546D01*
X027070Y013645D02*
X030064Y013645D01*
X029855Y012561D02*
X003392Y012561D01*
X003359Y012463D02*
X029757Y012463D01*
X029658Y012364D02*
X003319Y012364D01*
X003232Y012266D02*
X029560Y012266D01*
X029461Y012167D02*
X003098Y012167D01*
X002607Y012167D02*
X001302Y012167D01*
X001302Y012069D02*
X029363Y012069D01*
X029264Y011970D02*
X001302Y011970D01*
X001302Y011872D02*
X029166Y011872D01*
X029067Y011773D02*
X001302Y011773D01*
X001302Y011675D02*
X002708Y011675D01*
X002745Y011690D02*
X002547Y011608D01*
X002395Y011456D01*
X002312Y011257D01*
X002312Y011043D01*
X002395Y010844D01*
X002547Y010692D01*
X002745Y010610D01*
X002960Y010610D01*
X003158Y010692D01*
X003310Y010844D01*
X003352Y010946D01*
X003395Y010844D01*
X003547Y010692D01*
X003745Y010610D01*
X003960Y010610D01*
X004158Y010692D01*
X004310Y010844D01*
X004392Y011043D01*
X004392Y011257D01*
X004310Y011456D01*
X004158Y011608D01*
X003960Y011690D01*
X003745Y011690D01*
X003547Y011608D01*
X003395Y011456D01*
X003352Y011354D01*
X003310Y011456D01*
X003158Y011608D01*
X002960Y011690D01*
X002745Y011690D01*
X002997Y011675D02*
X003708Y011675D01*
X003515Y011576D02*
X003190Y011576D01*
X003289Y011478D02*
X003416Y011478D01*
X003363Y011379D02*
X003342Y011379D01*
X003328Y010887D02*
X003377Y010887D01*
X003451Y010788D02*
X003254Y010788D01*
X003152Y010690D02*
X003553Y010690D01*
X004152Y010690D02*
X014083Y010690D01*
X014083Y010788D02*
X004254Y010788D01*
X004328Y010887D02*
X014083Y010887D01*
X014083Y010985D02*
X004369Y010985D01*
X004392Y011084D02*
X013988Y011084D01*
X013914Y011182D02*
X004392Y011182D01*
X004383Y011281D02*
X013878Y011281D01*
X013878Y011379D02*
X004342Y011379D01*
X004289Y011478D02*
X013908Y011478D01*
X013972Y011576D02*
X004190Y011576D01*
X003997Y011675D02*
X014129Y011675D01*
X014326Y011675D02*
X028969Y011675D01*
X028870Y011576D02*
X014483Y011576D01*
X014547Y011478D02*
X028772Y011478D01*
X028673Y011379D02*
X014577Y011379D01*
X014086Y010591D02*
X001302Y010591D01*
X001302Y010493D02*
X013716Y010493D01*
X013575Y010394D02*
X001302Y010394D01*
X001302Y010296D02*
X013514Y010296D01*
X013484Y010197D02*
X001302Y010197D01*
X001302Y010099D02*
X013393Y010099D01*
X013294Y010000D02*
X001302Y010000D01*
X001302Y009902D02*
X013196Y009902D01*
X013103Y009803D02*
X001302Y009803D01*
X001302Y009705D02*
X013064Y009705D01*
X013064Y009606D02*
X001302Y009606D01*
X001302Y009508D02*
X013064Y009508D01*
X013064Y009409D02*
X001302Y009409D01*
X001302Y009311D02*
X013064Y009311D01*
X013064Y009212D02*
X001302Y009212D01*
X001302Y009114D02*
X013064Y009114D01*
X013064Y009015D02*
X001302Y009015D01*
X001302Y008917D02*
X013064Y008917D01*
X013064Y008818D02*
X001302Y008818D01*
X001302Y008720D02*
X013064Y008720D01*
X013064Y008621D02*
X001302Y008621D01*
X001302Y008523D02*
X013064Y008523D01*
X013064Y008424D02*
X001302Y008424D01*
X001302Y008326D02*
X013064Y008326D01*
X013064Y008227D02*
X001302Y008227D01*
X001302Y008129D02*
X013064Y008129D01*
X013064Y008030D02*
X001302Y008030D01*
X001302Y007932D02*
X013064Y007932D01*
X013064Y007833D02*
X001302Y007833D01*
X001302Y007735D02*
X013064Y007735D01*
X013064Y007636D02*
X001302Y007636D01*
X001302Y007538D02*
X013064Y007538D01*
X013064Y007439D02*
X001302Y007439D01*
X001302Y007341D02*
X013064Y007341D01*
X013064Y007242D02*
X001302Y007242D01*
X001302Y007144D02*
X013064Y007144D01*
X013064Y007045D02*
X001302Y007045D01*
X001302Y006947D02*
X013064Y006947D01*
X013064Y006848D02*
X001302Y006848D01*
X001302Y006750D02*
X013064Y006750D01*
X013064Y006651D02*
X001302Y006651D01*
X001302Y006553D02*
X013064Y006553D01*
X013064Y006454D02*
X001302Y006454D01*
X001302Y006356D02*
X013064Y006356D01*
X013064Y006257D02*
X008052Y006257D01*
X008050Y006258D02*
X007922Y006312D01*
X007783Y006312D01*
X007655Y006258D01*
X007649Y006252D01*
X007107Y006252D01*
X007001Y006208D01*
X006791Y005999D01*
X006783Y005999D01*
X006655Y005946D01*
X006557Y005848D01*
X006503Y005719D01*
X006503Y005581D01*
X006557Y005452D01*
X006655Y005354D01*
X006783Y005301D01*
X006922Y005301D01*
X007050Y005354D01*
X007148Y005452D01*
X007202Y005581D01*
X007202Y005589D01*
X007285Y005673D01*
X007649Y005673D01*
X007655Y005667D01*
X007783Y005613D01*
X007922Y005613D01*
X008050Y005667D01*
X008148Y005765D01*
X008202Y005893D01*
X008202Y006032D01*
X008148Y006160D01*
X008050Y006258D01*
X008149Y006159D02*
X013064Y006159D01*
X013064Y006060D02*
X008190Y006060D01*
X008202Y005962D02*
X013064Y005962D01*
X013064Y005863D02*
X008189Y005863D01*
X008148Y005765D02*
X013064Y005765D01*
X013064Y005666D02*
X008049Y005666D01*
X007656Y005666D02*
X007279Y005666D01*
X007196Y005568D02*
X013064Y005568D01*
X013064Y005469D02*
X007155Y005469D01*
X007067Y005371D02*
X013064Y005371D01*
X013064Y005272D02*
X006071Y005272D01*
X006071Y005310D02*
X006012Y005368D01*
X002780Y005368D01*
X002721Y005310D01*
X002721Y005227D01*
X002721Y002160D01*
X002721Y002077D01*
X002780Y002019D01*
X006012Y002019D01*
X006071Y002077D01*
X006071Y005310D01*
X006071Y005174D02*
X013064Y005174D01*
X013064Y005075D02*
X006071Y005075D01*
X006071Y004977D02*
X013064Y004977D01*
X013064Y004878D02*
X006071Y004878D01*
X006071Y004780D02*
X013064Y004780D01*
X013064Y004681D02*
X006071Y004681D01*
X006071Y004583D02*
X013064Y004583D01*
X013064Y004484D02*
X006071Y004484D01*
X006071Y004386D02*
X013064Y004386D01*
X013064Y004287D02*
X006071Y004287D01*
X006071Y004189D02*
X013064Y004189D01*
X013064Y004090D02*
X006071Y004090D01*
X006071Y003992D02*
X013064Y003992D01*
X013064Y003893D02*
X006071Y003893D01*
X006071Y003795D02*
X013064Y003795D01*
X013064Y003696D02*
X006071Y003696D01*
X006071Y003598D02*
X013064Y003598D01*
X013064Y003499D02*
X006071Y003499D01*
X006071Y003401D02*
X013064Y003401D01*
X013016Y003302D02*
X006071Y003302D01*
X006071Y003204D02*
X012984Y003204D01*
X012984Y003105D02*
X006071Y003105D01*
X006071Y003007D02*
X013013Y003007D01*
X013073Y002908D02*
X006071Y002908D01*
X006071Y002810D02*
X013211Y002810D01*
X013494Y002810D02*
X018670Y002810D01*
X018571Y002908D02*
X013632Y002908D01*
X013692Y003007D02*
X018473Y003007D01*
X018374Y003105D02*
X013721Y003105D01*
X013721Y003204D02*
X018276Y003204D01*
X018768Y002711D02*
X006071Y002711D01*
X006071Y002613D02*
X018867Y002613D01*
X018965Y002514D02*
X006071Y002514D01*
X006071Y002416D02*
X018982Y002416D01*
X018982Y002317D02*
X006071Y002317D01*
X006071Y002219D02*
X018982Y002219D01*
X018982Y002120D02*
X006071Y002120D01*
X006015Y002022D02*
X018900Y002022D01*
X018834Y001923D02*
X001302Y001923D01*
X001302Y001825D02*
X018793Y001825D01*
X018769Y001726D02*
X001302Y001726D01*
X001302Y001628D02*
X018769Y001628D01*
X018771Y001529D02*
X001302Y001529D01*
X001302Y001431D02*
X018812Y001431D01*
X018852Y001332D02*
X001302Y001332D01*
X001309Y001234D02*
X018945Y001234D01*
X019076Y001135D02*
X001336Y001135D01*
X001302Y002022D02*
X002777Y002022D01*
X002721Y002120D02*
X001302Y002120D01*
X001302Y002219D02*
X002721Y002219D01*
X002721Y002317D02*
X001302Y002317D01*
X001302Y002416D02*
X002721Y002416D01*
X002721Y002514D02*
X001302Y002514D01*
X001302Y002613D02*
X002721Y002613D01*
X002721Y002711D02*
X001302Y002711D01*
X001302Y002810D02*
X002721Y002810D01*
X002721Y002908D02*
X001302Y002908D01*
X001302Y003007D02*
X002721Y003007D01*
X002721Y003105D02*
X001302Y003105D01*
X001302Y003204D02*
X002721Y003204D01*
X002721Y003302D02*
X001302Y003302D01*
X001302Y003401D02*
X002721Y003401D01*
X002721Y003499D02*
X001302Y003499D01*
X001302Y003598D02*
X002721Y003598D01*
X002721Y003696D02*
X001302Y003696D01*
X001302Y003795D02*
X002721Y003795D01*
X002721Y003893D02*
X001302Y003893D01*
X001302Y003992D02*
X002721Y003992D01*
X002721Y004090D02*
X001302Y004090D01*
X001302Y004189D02*
X002721Y004189D01*
X002721Y004287D02*
X001302Y004287D01*
X001302Y004386D02*
X002721Y004386D01*
X002721Y004484D02*
X001302Y004484D01*
X001302Y004583D02*
X002721Y004583D01*
X002721Y004681D02*
X001302Y004681D01*
X001302Y004780D02*
X002721Y004780D01*
X002721Y004878D02*
X001302Y004878D01*
X001302Y004977D02*
X002721Y004977D01*
X002721Y005075D02*
X001302Y005075D01*
X001302Y005174D02*
X002721Y005174D01*
X002721Y005272D02*
X001302Y005272D01*
X001302Y005371D02*
X006638Y005371D01*
X006550Y005469D02*
X001302Y005469D01*
X001302Y005568D02*
X006509Y005568D01*
X006503Y005666D02*
X001302Y005666D01*
X001302Y005765D02*
X006522Y005765D01*
X006572Y005863D02*
X001302Y005863D01*
X001302Y005962D02*
X006692Y005962D01*
X006852Y006060D02*
X001302Y006060D01*
X001302Y006159D02*
X006951Y006159D01*
X007653Y006257D02*
X001302Y006257D01*
X001302Y010690D02*
X002553Y010690D01*
X002451Y010788D02*
X001302Y010788D01*
X001302Y010887D02*
X002377Y010887D01*
X002336Y010985D02*
X001302Y010985D01*
X001302Y011084D02*
X002312Y011084D01*
X002312Y011182D02*
X001302Y011182D01*
X001302Y011281D02*
X002322Y011281D01*
X002363Y011379D02*
X001302Y011379D01*
X001302Y011478D02*
X002416Y011478D01*
X002515Y011576D02*
X001302Y011576D01*
X001302Y012266D02*
X002473Y012266D01*
X002386Y012364D02*
X001302Y012364D01*
X001302Y012463D02*
X002346Y012463D01*
X002312Y012561D02*
X001302Y012561D01*
X001302Y012660D02*
X002312Y012660D01*
X002313Y012758D02*
X001302Y012758D01*
X001302Y012857D02*
X002354Y012857D01*
X002394Y012955D02*
X001302Y012955D01*
X001302Y013054D02*
X002492Y013054D01*
X002644Y013152D02*
X001302Y013152D01*
X001302Y013251D02*
X002488Y013251D01*
X002393Y013349D02*
X001302Y013349D01*
X001302Y013448D02*
X002352Y013448D01*
X002312Y013546D02*
X001302Y013546D01*
X001302Y013645D02*
X002312Y013645D01*
X002312Y013743D02*
X001302Y013743D01*
X001302Y013842D02*
X002347Y013842D01*
X002388Y013940D02*
X001302Y013940D01*
X001302Y014039D02*
X002477Y014039D01*
X002617Y014137D02*
X001302Y014137D01*
X001302Y014236D02*
X005421Y014236D01*
X005441Y014334D02*
X001302Y014334D01*
X001302Y014433D02*
X005489Y014433D01*
X005595Y014531D02*
X001302Y014531D01*
X001302Y014630D02*
X005797Y014630D01*
X005923Y014728D02*
X001302Y014728D01*
X001302Y014827D02*
X026341Y014827D01*
X026312Y014728D02*
X007018Y014728D01*
X007099Y014630D02*
X026312Y014630D01*
X026317Y014531D02*
X007139Y014531D01*
X007139Y014433D02*
X026358Y014433D01*
X026405Y014334D02*
X007115Y014334D01*
X007057Y014236D02*
X026503Y014236D01*
X026382Y014925D02*
X001302Y014925D01*
X001302Y015024D02*
X026462Y015024D01*
X026581Y015122D02*
X001302Y015122D01*
X001302Y015221D02*
X026518Y015221D01*
X026420Y015319D02*
X001302Y015319D01*
X001302Y015418D02*
X026364Y015418D01*
X026323Y015516D02*
X001302Y015516D01*
X001302Y015615D02*
X026312Y015615D01*
X026312Y015713D02*
X001302Y015713D01*
X001302Y015812D02*
X026335Y015812D01*
X026376Y015910D02*
X001302Y015910D01*
X001302Y016009D02*
X026447Y016009D01*
X026546Y016107D02*
X001302Y016107D01*
X001302Y018767D02*
X002669Y018767D01*
X002499Y018865D02*
X001302Y018865D01*
X001302Y018964D02*
X002400Y018964D01*
X002356Y019062D02*
X001302Y019062D01*
X001302Y019161D02*
X002315Y019161D01*
X002312Y019259D02*
X001302Y019259D01*
X001302Y019358D02*
X002312Y019358D01*
X002343Y019456D02*
X001302Y019456D01*
X001302Y019555D02*
X002384Y019555D01*
X002467Y019653D02*
X001302Y019653D01*
X001302Y019752D02*
X002592Y019752D01*
X002514Y019850D02*
X001302Y019850D01*
X001302Y019949D02*
X002415Y019949D01*
X002362Y020047D02*
X001302Y020047D01*
X001302Y020146D02*
X002322Y020146D01*
X002312Y020244D02*
X001302Y020244D01*
X001302Y020343D02*
X002312Y020343D01*
X002337Y020441D02*
X001302Y020441D01*
X001302Y020540D02*
X002378Y020540D01*
X002452Y020638D02*
X001302Y020638D01*
X001302Y022707D02*
X007888Y022707D01*
X007789Y022805D02*
X001302Y022805D01*
X001302Y022904D02*
X007691Y022904D01*
X007592Y023002D02*
X001302Y023002D01*
X001302Y023101D02*
X007494Y023101D01*
X007395Y023199D02*
X001302Y023199D01*
X001302Y023298D02*
X007297Y023298D01*
X007198Y023396D02*
X001302Y023396D01*
X001302Y023495D02*
X007100Y023495D01*
X007001Y023593D02*
X001302Y023593D01*
X001302Y023692D02*
X006903Y023692D01*
X006804Y023790D02*
X001302Y023790D01*
X001302Y023889D02*
X006706Y023889D01*
X006607Y023987D02*
X001302Y023987D01*
X001302Y024086D02*
X006509Y024086D01*
X005950Y024184D02*
X001302Y024184D01*
X001302Y024283D02*
X005862Y024283D01*
X005821Y024381D02*
X001302Y024381D01*
X001302Y024480D02*
X005816Y024480D01*
X005835Y024578D02*
X001302Y024578D01*
X001302Y024677D02*
X005885Y024677D01*
X006007Y024775D02*
X001302Y024775D01*
X001302Y031769D02*
X011166Y031769D01*
X010725Y031867D02*
X001302Y031867D01*
X001302Y031966D02*
X002754Y031966D01*
X002721Y032064D02*
X001302Y032064D01*
X001302Y032163D02*
X002721Y032163D01*
X002721Y032261D02*
X001302Y032261D01*
X001302Y032360D02*
X002721Y032360D01*
X002721Y032458D02*
X001302Y032458D01*
X001302Y032557D02*
X002721Y032557D01*
X002721Y032655D02*
X001302Y032655D01*
X001302Y032754D02*
X002721Y032754D01*
X002721Y032852D02*
X001302Y032852D01*
X001302Y032951D02*
X002721Y032951D01*
X002721Y033049D02*
X001302Y033049D01*
X001302Y033148D02*
X002721Y033148D01*
X002721Y033246D02*
X001302Y033246D01*
X001302Y033345D02*
X002721Y033345D01*
X002721Y033443D02*
X001302Y033443D01*
X001302Y033542D02*
X002721Y033542D01*
X002721Y033640D02*
X001304Y033640D01*
X001316Y033739D02*
X002721Y033739D01*
X002721Y033837D02*
X001343Y033837D01*
X001382Y033936D02*
X002721Y033936D01*
X002721Y034034D02*
X001439Y034034D01*
X001527Y034133D02*
X002721Y034133D01*
X002721Y034231D02*
X001652Y034231D01*
X001901Y034330D02*
X002721Y034330D01*
X006071Y034330D02*
X032642Y034330D01*
X032642Y034231D02*
X006071Y034231D01*
X006071Y034133D02*
X032642Y034133D01*
X032642Y034034D02*
X006071Y034034D01*
X006071Y033936D02*
X014857Y033936D01*
X014892Y033971D02*
X014786Y033864D01*
X014728Y033725D01*
X014728Y033575D01*
X014786Y033436D01*
X014892Y033329D01*
X015031Y033272D01*
X015182Y033272D01*
X015321Y033329D01*
X015352Y033361D01*
X015384Y033329D01*
X015523Y033272D01*
X015674Y033272D01*
X015813Y033329D01*
X015845Y033361D01*
X015876Y033329D01*
X016015Y033272D01*
X016166Y033272D01*
X016305Y033329D01*
X016337Y033361D01*
X016369Y033329D01*
X016508Y033272D01*
X016658Y033272D01*
X016797Y033329D01*
X016829Y033361D01*
X016861Y033329D01*
X017000Y033272D01*
X017150Y033272D01*
X017289Y033329D01*
X017395Y033436D01*
X017453Y033575D01*
X017453Y033725D01*
X017395Y033864D01*
X017289Y033971D01*
X017150Y034028D01*
X017000Y034028D01*
X016861Y033971D01*
X016829Y033939D01*
X016797Y033971D01*
X016658Y034028D01*
X016508Y034028D01*
X016369Y033971D01*
X016337Y033939D01*
X016305Y033971D01*
X016166Y034028D01*
X016015Y034028D01*
X015876Y033971D01*
X015845Y033939D01*
X015813Y033971D01*
X015674Y034028D01*
X015523Y034028D01*
X015384Y033971D01*
X015352Y033939D01*
X015321Y033971D01*
X015182Y034028D01*
X015031Y034028D01*
X014892Y033971D01*
X014775Y033837D02*
X006071Y033837D01*
X006071Y033739D02*
X014734Y033739D01*
X014728Y033640D02*
X006071Y033640D01*
X006071Y033542D02*
X014742Y033542D01*
X014783Y033443D02*
X006071Y033443D01*
X006071Y033345D02*
X014877Y033345D01*
X015336Y033345D02*
X015369Y033345D01*
X015828Y033345D02*
X015861Y033345D01*
X016320Y033345D02*
X016353Y033345D01*
X016812Y033345D02*
X016846Y033345D01*
X017304Y033345D02*
X032642Y033345D01*
X032642Y033443D02*
X017398Y033443D01*
X017439Y033542D02*
X032642Y033542D01*
X032642Y033640D02*
X017453Y033640D01*
X017447Y033739D02*
X032642Y033739D01*
X032642Y033837D02*
X017407Y033837D01*
X017324Y033936D02*
X032642Y033936D01*
X032642Y033246D02*
X006071Y033246D01*
X006071Y033148D02*
X032642Y033148D01*
X032642Y033049D02*
X006071Y033049D01*
X006071Y032951D02*
X032642Y032951D01*
X032642Y032852D02*
X006071Y032852D01*
X006071Y032754D02*
X032642Y032754D01*
X032642Y032655D02*
X006071Y032655D01*
X006071Y032557D02*
X032642Y032557D01*
X032642Y032458D02*
X011863Y032458D01*
X011948Y032360D02*
X032642Y032360D01*
X032642Y032261D02*
X011948Y032261D01*
X011948Y032163D02*
X032642Y032163D01*
X032642Y032064D02*
X011948Y032064D01*
X011948Y031966D02*
X032675Y031966D01*
X034105Y030587D02*
X034529Y030587D01*
X034430Y030488D02*
X034204Y030488D01*
X034271Y030390D02*
X034363Y030390D01*
X034322Y030291D02*
X034312Y030291D01*
X035959Y031966D02*
X037410Y031966D01*
X037410Y032064D02*
X035992Y032064D01*
X035992Y032163D02*
X037410Y032163D01*
X037410Y032261D02*
X035992Y032261D01*
X035992Y032360D02*
X037410Y032360D01*
X037410Y032458D02*
X035992Y032458D01*
X035992Y032557D02*
X037410Y032557D01*
X037410Y032655D02*
X035992Y032655D01*
X035992Y032754D02*
X037410Y032754D01*
X037410Y032852D02*
X035992Y032852D01*
X035992Y032951D02*
X037410Y032951D01*
X037410Y033049D02*
X035992Y033049D01*
X035992Y033148D02*
X037410Y033148D01*
X037410Y033246D02*
X035992Y033246D01*
X035992Y033345D02*
X037410Y033345D01*
X037410Y033443D02*
X035992Y033443D01*
X035992Y033542D02*
X037410Y033542D01*
X037409Y033640D02*
X035992Y033640D01*
X035992Y033739D02*
X037396Y033739D01*
X037370Y033837D02*
X035992Y033837D01*
X035992Y033936D02*
X037331Y033936D01*
X037274Y034034D02*
X035992Y034034D01*
X035992Y034133D02*
X037186Y034133D01*
X037061Y034231D02*
X035992Y034231D01*
X035992Y034330D02*
X036811Y034330D01*
X033674Y026647D02*
X023892Y026647D01*
X035049Y016698D02*
X035924Y016698D01*
X036022Y016600D02*
X035074Y016600D01*
X035191Y016501D02*
X036121Y016501D01*
X036219Y016403D02*
X035266Y016403D01*
X035307Y016304D02*
X036287Y016304D01*
X036325Y016206D02*
X035327Y016206D01*
X035327Y016107D02*
X036396Y016107D01*
X036555Y016009D02*
X035309Y016009D01*
X035268Y015910D02*
X037410Y015910D01*
X037410Y015812D02*
X035196Y015812D01*
X035085Y015713D02*
X036461Y015713D01*
X036124Y015615D02*
X035038Y015615D01*
X035176Y015516D02*
X036026Y015516D01*
X035927Y015418D02*
X035260Y015418D01*
X035301Y015319D02*
X035829Y015319D01*
X035730Y015221D02*
X035327Y015221D01*
X035327Y015122D02*
X035632Y015122D01*
X035533Y015024D02*
X035315Y015024D01*
X035274Y014925D02*
X035435Y014925D01*
X035336Y014827D02*
X035211Y014827D01*
X035281Y014728D02*
X035112Y014728D01*
X035002Y014630D02*
X035271Y014630D01*
X035271Y014531D02*
X035161Y014531D01*
X035254Y014433D02*
X035271Y014433D01*
X036364Y014531D02*
X036558Y014531D01*
X035825Y016797D02*
X035181Y016797D01*
X031120Y007439D02*
X019961Y007439D01*
X020035Y007341D02*
X031032Y007341D01*
X030991Y007242D02*
X028136Y007242D01*
X028158Y007233D02*
X027960Y007315D01*
X027745Y007315D01*
X027547Y007233D01*
X027395Y007081D01*
X027312Y006882D01*
X027312Y006668D01*
X027395Y006469D01*
X027547Y006317D01*
X027649Y006275D01*
X027547Y006233D01*
X027395Y006081D01*
X027312Y005882D01*
X027312Y005668D01*
X027395Y005469D01*
X020414Y005469D01*
X020374Y005568D02*
X027354Y005568D01*
X027313Y005666D02*
X020333Y005666D01*
X020292Y005765D02*
X027312Y005765D01*
X027312Y005863D02*
X020252Y005863D01*
X020211Y005962D02*
X027345Y005962D01*
X027386Y006060D02*
X020171Y006060D01*
X020130Y006159D02*
X027472Y006159D01*
X027605Y006257D02*
X020112Y006257D01*
X020112Y006356D02*
X027508Y006356D01*
X027410Y006454D02*
X020112Y006454D01*
X020112Y006553D02*
X027360Y006553D01*
X027319Y006651D02*
X020112Y006651D01*
X020112Y006750D02*
X027312Y006750D01*
X027312Y006848D02*
X020112Y006848D01*
X020112Y006947D02*
X027339Y006947D01*
X027380Y007045D02*
X020112Y007045D01*
X020114Y007144D02*
X027457Y007144D01*
X027569Y007242D02*
X020097Y007242D01*
X019852Y007150D02*
X018352Y009150D01*
X017852Y009150D02*
X017852Y005338D01*
X018227Y004963D01*
X019852Y006150D02*
X019852Y007150D01*
X019852Y006150D02*
X020290Y005088D01*
X020477Y005088D01*
X020827Y005075D02*
X032642Y005075D01*
X032642Y004977D02*
X020809Y004977D01*
X020820Y005174D02*
X032642Y005174D01*
X032642Y005272D02*
X028049Y005272D01*
X027960Y005235D02*
X028158Y005317D01*
X028310Y005469D01*
X037410Y005469D01*
X037410Y005371D02*
X028212Y005371D01*
X028310Y005469D02*
X028392Y005668D01*
X028392Y005882D01*
X028310Y006081D01*
X028158Y006233D01*
X028056Y006275D01*
X028158Y006317D01*
X028310Y006469D01*
X028392Y006668D01*
X028392Y006882D01*
X028310Y007081D01*
X028158Y007233D01*
X028248Y007144D02*
X030984Y007144D01*
X030997Y007045D02*
X028325Y007045D01*
X028366Y006947D02*
X031038Y006947D01*
X031064Y006848D02*
X028392Y006848D01*
X028392Y006750D02*
X031064Y006750D01*
X031064Y006651D02*
X028386Y006651D01*
X028345Y006553D02*
X031064Y006553D01*
X031064Y006454D02*
X028295Y006454D01*
X028197Y006356D02*
X031038Y006356D01*
X030998Y006257D02*
X028100Y006257D01*
X028233Y006159D02*
X030984Y006159D01*
X030991Y006060D02*
X028319Y006060D01*
X028360Y005962D02*
X031031Y005962D01*
X031118Y005863D02*
X028392Y005863D01*
X028392Y005765D02*
X037410Y005765D01*
X037410Y005863D02*
X031587Y005863D01*
X031674Y005962D02*
X037410Y005962D01*
X037410Y006060D02*
X031714Y006060D01*
X031721Y006159D02*
X037410Y006159D01*
X037410Y006257D02*
X031707Y006257D01*
X031666Y006356D02*
X037410Y006356D01*
X037410Y006454D02*
X031641Y006454D01*
X032642Y004878D02*
X020993Y004878D01*
X021088Y004780D02*
X022238Y004780D01*
X022164Y004681D02*
X021129Y004681D01*
X021139Y004583D02*
X022128Y004583D01*
X022069Y004484D02*
X021125Y004484D01*
X021082Y004386D02*
X021970Y004386D01*
X022040Y004088D02*
X022477Y004525D01*
X022717Y004780D02*
X032642Y004780D01*
X032642Y004681D02*
X022791Y004681D01*
X022827Y004583D02*
X032642Y004583D01*
X032642Y004484D02*
X022827Y004484D01*
X022798Y004386D02*
X032642Y004386D01*
X032642Y004287D02*
X022733Y004287D01*
X022577Y004189D02*
X032642Y004189D01*
X032642Y004090D02*
X022410Y004090D01*
X022312Y003992D02*
X027765Y003992D01*
X027940Y003992D02*
X032642Y003992D01*
X032642Y003893D02*
X028103Y003893D01*
X028170Y003795D02*
X032642Y003795D01*
X032642Y003696D02*
X028202Y003696D01*
X028202Y003598D02*
X032642Y003598D01*
X032642Y003499D02*
X028168Y003499D01*
X028097Y003401D02*
X032642Y003401D01*
X035992Y003401D02*
X037347Y003401D01*
X037378Y003499D02*
X035992Y003499D01*
X035992Y003598D02*
X037404Y003598D01*
X037410Y003696D02*
X035992Y003696D01*
X035992Y003795D02*
X037410Y003795D01*
X037410Y003893D02*
X035992Y003893D01*
X035992Y003992D02*
X037410Y003992D01*
X037410Y004090D02*
X035992Y004090D01*
X035992Y004189D02*
X037410Y004189D01*
X037410Y004287D02*
X035992Y004287D01*
X035992Y004386D02*
X037410Y004386D01*
X037410Y004484D02*
X035992Y004484D01*
X035992Y004583D02*
X037410Y004583D01*
X037410Y004681D02*
X035992Y004681D01*
X035992Y004780D02*
X037410Y004780D01*
X037410Y004878D02*
X035992Y004878D01*
X035992Y004977D02*
X037410Y004977D01*
X037410Y005075D02*
X035992Y005075D01*
X035992Y005174D02*
X037410Y005174D01*
X037410Y005272D02*
X035992Y005272D01*
X037410Y005568D02*
X028351Y005568D01*
X028392Y005666D02*
X037410Y005666D01*
X037290Y003302D02*
X035992Y003302D01*
X035992Y003204D02*
X037215Y003204D01*
X037110Y003105D02*
X035992Y003105D01*
X035992Y003007D02*
X036917Y003007D01*
X034699Y006651D02*
X033936Y006651D01*
X034134Y006750D02*
X034500Y006750D01*
X034402Y006848D02*
X034232Y006848D01*
X034283Y006947D02*
X034351Y006947D01*
X027960Y005235D02*
X027745Y005235D01*
X027547Y005317D01*
X027395Y005469D01*
X027493Y005371D02*
X020688Y005371D01*
X020779Y005272D02*
X027656Y005272D01*
X022040Y004088D02*
X020977Y004088D01*
X020790Y004275D01*
X020790Y004588D01*
X019769Y001234D02*
X019752Y001234D01*
X019827Y001135D02*
X019621Y001135D01*
X015726Y003302D02*
X013689Y003302D01*
X013641Y003401D02*
X015579Y003401D01*
X015480Y003499D02*
X013641Y003499D01*
X013641Y003598D02*
X015382Y003598D01*
X015283Y003696D02*
X013641Y003696D01*
X013641Y003795D02*
X015185Y003795D01*
X015086Y003893D02*
X013641Y003893D01*
X013641Y003992D02*
X014988Y003992D01*
X014889Y004090D02*
X013641Y004090D01*
X014352Y006650D02*
X014352Y008650D01*
X014352Y009650D01*
X014595Y009902D02*
X017610Y009902D01*
X017352Y011150D02*
X016852Y011150D01*
X014523Y010099D02*
X014221Y010099D01*
X014221Y010197D02*
X014425Y010197D01*
X014326Y010296D02*
X014191Y010296D01*
X014228Y010394D02*
X014130Y010394D01*
X014129Y010493D02*
X013989Y010493D01*
X014612Y008326D02*
X014724Y008326D01*
X010652Y031966D02*
X006038Y031966D01*
X006071Y032064D02*
X010625Y032064D01*
X010632Y032163D02*
X006071Y032163D01*
X006071Y032261D02*
X010678Y032261D01*
X010814Y032360D02*
X006071Y032360D01*
X006071Y032458D02*
X011217Y032458D01*
D18*
X008852Y033150D03*
X008852Y029150D03*
X006352Y026650D03*
X005852Y026650D03*
X005352Y026650D03*
X013852Y031650D03*
X013852Y032150D03*
X014352Y032150D03*
X014352Y031650D03*
X024790Y023900D03*
X025290Y023900D03*
X025790Y023900D03*
X026290Y023900D03*
X026790Y023900D03*
X027290Y023900D03*
X027790Y023900D03*
X028290Y023900D03*
X028790Y023900D03*
X029290Y023900D03*
X031727Y020588D03*
X032227Y020588D03*
X029352Y014650D03*
X029352Y014150D03*
X029352Y013650D03*
X023852Y017650D03*
X023852Y018150D03*
X023852Y018650D03*
X015852Y019650D03*
X015352Y019650D03*
X014852Y019650D03*
X024352Y008150D03*
X024852Y008150D03*
X025352Y008150D03*
X025852Y008150D03*
X026352Y008150D03*
X026852Y008150D03*
X029352Y007650D03*
X029852Y007650D03*
X030352Y007650D03*
X030352Y007150D03*
X029852Y007150D03*
X029352Y007150D03*
X024852Y002150D03*
X024852Y001650D03*
X024352Y001650D03*
X023852Y001650D03*
X023352Y001650D03*
X022852Y001650D03*
X022852Y002150D03*
X023352Y002150D03*
X023852Y002150D03*
X024352Y002150D03*
X015852Y002150D03*
X015352Y002150D03*
X014852Y002150D03*
X014852Y001650D03*
X015352Y001650D03*
X015852Y001650D03*
X007665Y002088D03*
X007665Y002588D03*
X007665Y003088D03*
D19*
X006852Y005650D03*
X007852Y005963D03*
X008977Y006150D03*
X009352Y006150D03*
X009727Y006150D03*
X009727Y006650D03*
X009352Y006650D03*
X008977Y006650D03*
X008977Y007150D03*
X009352Y007150D03*
X009727Y007150D03*
X014352Y006650D03*
X014477Y005900D03*
X015477Y005650D03*
X015852Y005650D03*
X016227Y005650D03*
X016227Y006150D03*
X015852Y006150D03*
X015477Y006150D03*
X015477Y006650D03*
X015852Y006650D03*
X016227Y006650D03*
X016852Y007150D03*
X017102Y006463D03*
X018227Y004963D03*
X020477Y005088D03*
X020790Y004588D03*
X021852Y004525D03*
X021852Y004963D03*
X021852Y005338D03*
X021852Y005713D03*
X021852Y006025D03*
X021852Y006400D03*
X021665Y006713D03*
X021665Y007025D03*
X021977Y007025D03*
X022290Y007025D03*
X022040Y006713D03*
X021352Y007025D03*
X022665Y009400D03*
X022477Y010525D03*
X021540Y010838D03*
X019852Y011150D03*
X017852Y009650D03*
X017852Y009150D03*
X017352Y009150D03*
X016102Y009400D03*
X014852Y008650D03*
X014352Y009650D03*
X014790Y011025D03*
X014227Y011338D03*
X014540Y013400D03*
X014852Y013400D03*
X015165Y013400D03*
X015165Y013838D03*
X014852Y013838D03*
X014540Y013838D03*
X014540Y014275D03*
X014852Y014275D03*
X015165Y014275D03*
X016852Y011150D03*
X022477Y004525D03*
X021352Y003650D03*
X027852Y003650D03*
X030227Y010525D03*
X030540Y010838D03*
X030227Y011150D03*
X030540Y011400D03*
X030602Y011775D03*
X032477Y010963D03*
X032852Y011150D03*
X030852Y014150D03*
X019852Y021150D03*
X019602Y023338D03*
X018290Y024275D03*
X017915Y024275D03*
X017915Y024775D03*
X018290Y024775D03*
X019602Y026088D03*
X019602Y026463D03*
X019977Y026463D03*
X019977Y026088D03*
X020040Y027525D03*
X020040Y027900D03*
X019665Y027900D03*
X019665Y027525D03*
X023602Y027775D03*
X024040Y027775D03*
X024540Y027775D03*
X012915Y022213D03*
X006165Y024463D03*
X007977Y015650D03*
X008352Y015650D03*
X008727Y015650D03*
X008727Y015150D03*
X008352Y015150D03*
X007977Y015150D03*
X007977Y014650D03*
X008352Y014650D03*
X008727Y014650D03*
X006790Y014463D03*
D20*
X014477Y005900D02*
X014477Y005025D01*
X015852Y003650D01*
X018352Y003650D01*
X019352Y002650D01*
X019352Y001654D01*
X008852Y033150D02*
X008352Y033150D01*
X008352Y033650D01*
D21*
X010915Y032088D02*
X011540Y032088D01*
X022290Y023338D02*
X022727Y022900D01*
X023352Y022900D01*
X006790Y014463D02*
X006040Y014463D01*
X005790Y014213D01*
X007165Y005963D02*
X006852Y005650D01*
X007165Y005963D02*
X007852Y005963D01*
X019349Y001650D02*
X019352Y001654D01*
D22*
X021352Y003650D02*
X027852Y003650D01*
X031852Y007650D02*
X030852Y008650D01*
X025352Y008650D01*
X024852Y009150D01*
X023227Y009150D01*
X022915Y009400D01*
X022665Y009400D01*
X021977Y010275D02*
X014727Y010275D01*
X014352Y010650D01*
X014352Y011213D01*
X014227Y011338D01*
X014790Y011025D02*
X015165Y010650D01*
X021415Y010650D01*
X021540Y010775D01*
X021540Y010838D01*
X021977Y010275D02*
X022227Y010525D01*
X022477Y010525D01*
X030102Y011400D02*
X030540Y011400D01*
X030102Y011400D01*
X030227Y011150D02*
X030977Y011150D01*
X031102Y011025D01*
X031477Y010650D01*
X032852Y010650D01*
X032852Y011150D01*
X032477Y010963D02*
X032040Y011400D01*
X030540Y011400D01*
X030602Y011775D02*
X031290Y011775D01*
X031415Y011650D01*
X034313Y011650D01*
X034817Y012154D01*
X034852Y013150D02*
X034849Y013154D01*
X034817Y013154D01*
X034852Y013150D02*
X034352Y013650D01*
X031352Y013650D01*
X030852Y014150D01*
X032852Y014650D02*
X034321Y014650D01*
X034817Y014154D01*
X035540Y014650D02*
X035540Y008963D01*
X035290Y008713D01*
X034376Y008713D01*
X033817Y008154D01*
X034102Y007650D02*
X031852Y007650D01*
X033817Y007154D02*
X033938Y007275D01*
X034227Y007275D01*
X034602Y007650D01*
X035290Y007650D01*
X035915Y008275D01*
X035915Y014463D01*
X036349Y014896D01*
X036665Y014896D01*
X036665Y015388D02*
X036278Y015388D01*
X035540Y014650D01*
X036630Y016372D02*
X035852Y017150D01*
X034821Y017150D01*
X034817Y017154D01*
X036665Y016865D02*
X036665Y019650D01*
X036102Y020150D01*
X034821Y020150D01*
X034817Y020154D01*
X032852Y020650D02*
X032852Y015150D01*
X032852Y014650D01*
X034817Y011154D02*
X034817Y011115D01*
X034352Y010650D01*
X033352Y010650D01*
X032852Y010150D01*
X031540Y010150D01*
X030977Y010713D01*
X030852Y010838D01*
X030540Y010838D01*
X030602Y010525D02*
X030227Y010525D01*
X030602Y010525D02*
X030852Y010275D01*
X031477Y009650D01*
X034352Y009650D01*
X034817Y010115D01*
X034817Y010154D01*
X034817Y008154D02*
X034567Y008115D01*
X034102Y007650D01*
X036630Y016372D02*
X036665Y016372D01*
X032852Y020650D02*
X032352Y021150D01*
X019852Y021150D01*
X014852Y008650D02*
X014352Y008650D01*
X033817Y024154D02*
X034313Y024650D01*
X035352Y024650D01*
X035630Y024372D01*
X036665Y024372D01*
X036665Y022896D02*
X036075Y022896D01*
X034817Y024154D01*
X034817Y023154D02*
X035567Y022404D01*
X036665Y022404D01*
D23*
X034817Y022154D02*
X034313Y021650D01*
X022665Y021650D01*
X022102Y022213D01*
X017290Y022213D01*
X017165Y022650D02*
X022352Y022650D01*
X022852Y022150D01*
X033813Y022150D01*
X033817Y022154D01*
X032227Y020588D02*
X032102Y020463D01*
X032102Y019775D01*
X030352Y018025D01*
X030352Y012650D01*
X028852Y011150D01*
X028852Y010150D01*
X028165Y009463D01*
X023790Y009463D01*
X029352Y009713D02*
X030227Y008900D01*
X030290Y008900D01*
X032165Y008900D01*
X032477Y008650D01*
X031352Y007150D02*
X031352Y006150D01*
X027352Y014650D02*
X026852Y014650D01*
X027352Y014650D02*
X029852Y017150D01*
X029852Y018150D01*
X031727Y020025D01*
X031727Y020588D01*
X022290Y023338D02*
X019602Y023338D01*
X014977Y022650D02*
X008352Y022650D01*
X006540Y024463D01*
X006165Y024463D01*
X012915Y022213D02*
X014727Y022213D01*
X013852Y010150D02*
X013352Y009650D01*
X013352Y003150D01*
D24*
X013352Y003150D03*
X013852Y010150D03*
X005790Y014213D03*
X014727Y022213D03*
X014977Y022650D03*
X017165Y022650D03*
X017290Y022213D03*
X023790Y009463D03*
X029352Y009713D03*
X031352Y007150D03*
X031352Y006150D03*
X032477Y008650D03*
D25*
X030852Y020150D03*
X015477Y029713D03*
D26*
X015665Y029525D01*
X015665Y021150D01*
X016665Y020150D01*
X030852Y020150D01*
D27*
X011540Y032088D03*
M02*
