%
M48
M72
T01C0.0118
T02C0.0157
T03C0.0236
T04C0.0354
T05C0.0360
T06C0.0400
T07C0.1102
T08C0.1181
T09C0.1260
%
T01
X6852Y5650
X7852Y5963
X8977Y6150
X9352Y6150
X9727Y6150
X9727Y6650
X9352Y6650
X8977Y6650
X8977Y7150
X9352Y7150
X9727Y7150
X14352Y6650
X14477Y5900
X15477Y5650
X15852Y5650
X16227Y5650
X16227Y6150
X15852Y6150
X15477Y6150
X15477Y6650
X15852Y6650
X16227Y6650
X16852Y7150
X17102Y6463
X18227Y4963
X20477Y5088
X20790Y4588
X21852Y4525
X21852Y4963
X21852Y5338
X21852Y5713
X21852Y6025
X21852Y6400
X21665Y6713
X21665Y7025
X21977Y7025
X22290Y7025
X22040Y6713
X21352Y7025
X22665Y9400
X22477Y10525
X21540Y10838
X19852Y11150
X17852Y9650
X17852Y9150
X17352Y9150
X16102Y9400
X14852Y8650
X14352Y9650
X14790Y11025
X14227Y11338
X14540Y13400
X14852Y13400
X15165Y13400
X15165Y13838
X14852Y13838
X14540Y13838
X14540Y14275
X14852Y14275
X15165Y14275
X16852Y11150
X22477Y4525
X21352Y3650
X27852Y3650
X30227Y10525
X30540Y10838
X30227Y11150
X30540Y11400
X30602Y11775
X32477Y10963
X32852Y11150
X30852Y14150
X19852Y21150
X19602Y23338
X18290Y24275
X17915Y24275
X17915Y24775
X18290Y24775
X19602Y26088
X19602Y26463
X19977Y26463
X19977Y26088
X20040Y27525
X20040Y27900
X19665Y27900
X19665Y27525
X23602Y27775
X24040Y27775
X24540Y27775
X12915Y22213
X6165Y24463
X7977Y15650
X8352Y15650
X8727Y15650
X8727Y15150
X8352Y15150
X7977Y15150
X7977Y14650
X8352Y14650
X8727Y14650
X6790Y14463
T02
X5790Y14213
X13852Y10150
X13352Y3150
X23790Y9463
X29352Y9713
X31352Y7150
X31352Y6150
X32477Y8650
X17290Y22213
X17165Y22650
X14977Y22650
X14727Y22213
T03
X14852Y19650
X15352Y19650
X15852Y19650
X23852Y18650
X23852Y18150
X23852Y17650
X29352Y14650
X29352Y14150
X29352Y13650
X26852Y8150
X26352Y8150
X25852Y8150
X25352Y8150
X24852Y8150
X24352Y8150
X29352Y7650
X29852Y7650
X30352Y7650
X30352Y7150
X29852Y7150
X29352Y7150
X24852Y2150
X24852Y1650
X24352Y1650
X23852Y1650
X23352Y1650
X22852Y1650
X22852Y2150
X23352Y2150
X23852Y2150
X24352Y2150
X15852Y2150
X15352Y2150
X14852Y2150
X14852Y1650
X15352Y1650
X15852Y1650
X7665Y2088
X7665Y2588
X7665Y3088
X24790Y23900
X25290Y23900
X25790Y23900
X26290Y23900
X26790Y23900
X27290Y23900
X27790Y23900
X28290Y23900
X28790Y23900
X29290Y23900
X31727Y20588
X32227Y20588
X36665Y20928
X36665Y21420
X36665Y21912
X36665Y22404
X36665Y22896
X36665Y23388
X36665Y23880
X36665Y24372
X36665Y16865
X36665Y16372
X36665Y15880
X36665Y15388
X36665Y14896
X36665Y14404
X36665Y13912
X36665Y13420
X36665Y12928
X36665Y12435
X14352Y31650
X13852Y31650
X13852Y32150
X14352Y32150
X14122Y33650
X13630Y33650
X14614Y33650
X15106Y33650
X15599Y33650
X16091Y33650
X16583Y33650
X17075Y33650
X11540Y32088
X8852Y33150
X8852Y29150
X6352Y26650
X5852Y26650
X5352Y26650
T04
X15477Y29713
X30852Y20150
T05
X26852Y15650
X26852Y14650
X26852Y13150
X26852Y12150
X27852Y6775
X27852Y5775
X23352Y22900
X23352Y23900
X23352Y25650
X23352Y26650
X16602Y27900
X16602Y28900
X16602Y30400
X16602Y31400
X2852Y20275
X2852Y19275
X2852Y13650
X2852Y12650
X2852Y11150
X3852Y11150
T06
X18349Y1650
X19349Y1650
X20349Y1650
X33817Y6154
X33817Y7154
X34817Y7154
X34817Y8154
X33817Y8154
X33817Y9154
X34817Y9154
X34817Y10154
X34817Y11154
X33817Y11154
X33817Y10154
X33817Y12154
X34817Y12154
X34817Y13154
X33817Y13154
X33817Y14154
X33817Y15154
X34817Y15154
X34817Y14154
X34817Y16154
X33817Y16154
X33817Y17154
X34817Y17154
X34817Y18154
X34817Y19154
X33817Y19154
X33817Y18154
X33817Y20154
X34817Y20154
X34817Y21154
X33817Y21154
X33817Y22154
X33817Y23154
X34817Y23154
X34817Y22154
X34817Y24154
X33817Y24154
X33817Y25154
X34817Y25154
X34817Y26154
X33817Y26154
X33817Y27154
X33817Y28154
X34817Y28154
X34817Y27154
X34817Y29154
X33817Y29154
X33817Y30154
X34817Y30154
X34817Y31154
X33817Y31154
X34817Y6154
T07
X31557Y25563
X27506Y25563
X25136Y25563
T08
X26475Y27744
X30226Y27744
T09
X4396Y3693
X34317Y3693
X34317Y33615
X4396Y33615
M30
