G75*
G70*
%OFA0B0*%
%FSLAX24Y24*%
%IPPOS*%
%LPD*%
%AMOC8*
5,1,8,0,0,1.08239X$1,22.5*
%
%ADD10C,0.2380*%
%ADD11C,0.0740*%
%ADD12C,0.0680*%
%ADD13C,0.1261*%
%ADD14C,0.1580*%
%ADD15C,0.0541*%
%ADD16C,0.0930*%
%ADD17C,0.0476*%
%ADD18C,0.0358*%
%ADD19C,0.0397*%
%ADD20C,0.0437*%
%ADD21C,0.0555*%
D10*
X003693Y003693D03*
X033615Y003693D03*
X033615Y033615D03*
X003693Y033615D03*
D11*
X019150Y026900D03*
X019150Y025900D03*
X025650Y012650D03*
X025650Y011650D03*
X002650Y017025D03*
X002650Y018025D03*
D12*
X033115Y018154D03*
X033115Y017154D03*
X034115Y017154D03*
X034115Y018154D03*
X034115Y019154D03*
X034115Y020154D03*
X034115Y021154D03*
X034115Y022154D03*
X034115Y023154D03*
X034115Y024154D03*
X034115Y025154D03*
X034115Y026154D03*
X034115Y027154D03*
X034115Y028154D03*
X034115Y029154D03*
X034115Y030154D03*
X034115Y031154D03*
X033115Y031154D03*
X033115Y030154D03*
X033115Y029154D03*
X033115Y028154D03*
X033115Y027154D03*
X033115Y026154D03*
X033115Y025154D03*
X033115Y024154D03*
X033115Y023154D03*
X033115Y022154D03*
X033115Y021154D03*
X033115Y020154D03*
X033115Y019154D03*
X033115Y016154D03*
X034115Y016154D03*
X034115Y015154D03*
X034115Y014154D03*
X034115Y013154D03*
X034115Y012154D03*
X034115Y011154D03*
X034115Y010154D03*
X034115Y009154D03*
X034115Y008154D03*
X034115Y007154D03*
X034115Y006154D03*
X033115Y006154D03*
X033115Y007154D03*
X033115Y008154D03*
X033115Y009154D03*
X033115Y010154D03*
X033115Y011154D03*
X033115Y012154D03*
X033115Y013154D03*
X033115Y014154D03*
X033115Y015154D03*
D13*
X029524Y027744D03*
X025772Y027744D03*
D14*
X026804Y025563D03*
X024433Y025563D03*
X030855Y025563D03*
D15*
X022392Y022380D02*
X022392Y021920D01*
X021408Y021920D02*
X021408Y022380D01*
X019380Y029158D02*
X018920Y029158D01*
X018920Y030142D02*
X019380Y030142D01*
X009150Y029380D02*
X009150Y028920D01*
X008150Y028920D02*
X008150Y029380D01*
X007150Y029380D02*
X007150Y028920D01*
X020650Y007880D02*
X020650Y007420D01*
X021650Y007420D02*
X021650Y007880D01*
X022650Y007880D02*
X022650Y007420D01*
X025158Y007420D02*
X025158Y007880D01*
X026142Y007880D02*
X026142Y007420D01*
D16*
X002650Y020150D03*
D17*
X006150Y025650D03*
X006650Y025650D03*
X007150Y025650D03*
X009650Y027650D03*
X014650Y030650D03*
X015150Y030650D03*
X015150Y031150D03*
X015150Y031650D03*
X014650Y031650D03*
X014650Y031150D03*
X014650Y032150D03*
X015150Y032150D03*
X020150Y028150D03*
X017650Y026150D03*
X024400Y023650D03*
X025150Y019150D03*
X025650Y019150D03*
X026150Y019150D03*
X027150Y019150D03*
X027650Y019150D03*
X028150Y019150D03*
X029150Y019150D03*
X029650Y019150D03*
X030150Y019150D03*
X027650Y017150D03*
X026900Y017150D03*
X029150Y014150D03*
X028150Y011650D03*
X028150Y011150D03*
X028150Y010650D03*
X029150Y007150D03*
X028150Y003650D03*
X022650Y014650D03*
X022650Y015150D03*
X022650Y015650D03*
X014650Y016650D03*
X014150Y016650D03*
X013650Y016650D03*
X006400Y007900D03*
X006400Y006400D03*
X007900Y002400D03*
X008400Y002400D03*
X009150Y002400D03*
X009650Y002400D03*
X011650Y002400D03*
X012150Y002400D03*
X012650Y002400D03*
X012150Y002900D03*
X035650Y024150D03*
X003650Y029650D03*
X003150Y029650D03*
X002650Y029650D03*
D18*
X014900Y022400D03*
X016400Y022900D03*
X017525Y021713D03*
X018025Y021713D03*
X018025Y021213D03*
X018025Y020713D03*
X017525Y020713D03*
X017525Y021213D03*
X008025Y012650D03*
X007650Y012650D03*
X007275Y012650D03*
X007275Y012150D03*
X007650Y012150D03*
X008025Y012150D03*
X008025Y011650D03*
X007650Y011650D03*
X007275Y011650D03*
X006088Y011463D03*
X008150Y008150D03*
X010755Y006183D03*
X011150Y006525D03*
X011775Y004650D03*
X012150Y004650D03*
X012525Y004650D03*
X012525Y004150D03*
X012150Y004150D03*
X011775Y004150D03*
X011775Y003650D03*
X012150Y003650D03*
X012525Y003650D03*
X013525Y003650D03*
X013775Y004275D03*
X015900Y005900D03*
X015900Y006900D03*
X016275Y008025D03*
X017275Y008025D03*
X013963Y010400D03*
X013650Y010400D03*
X013338Y010400D03*
X013338Y010838D03*
X013650Y010838D03*
X013963Y010838D03*
X013963Y011275D03*
X013650Y011275D03*
X013338Y011275D03*
X013400Y007150D03*
X016275Y003900D03*
X019650Y004650D03*
X026650Y004275D03*
X027525Y003900D03*
X026650Y005275D03*
X027525Y006275D03*
X031336Y008650D03*
X031650Y008150D03*
X031025Y009525D03*
X030650Y009650D03*
X031650Y018150D03*
X032150Y018150D03*
X011150Y003150D03*
X010818Y003579D03*
D19*
X009150Y007650D03*
X005088Y011213D03*
X019650Y004150D03*
X021650Y004150D03*
X030150Y010650D03*
X031150Y011650D03*
X035150Y011150D03*
X023400Y022025D03*
X026650Y023150D03*
X027525Y023775D03*
D20*
X024150Y020150D03*
X023775Y019025D03*
X020900Y018150D03*
X020400Y018525D03*
X020025Y018900D03*
X016650Y019650D03*
X016650Y020150D03*
X014400Y020150D03*
X014400Y020650D03*
X008900Y021400D03*
X006900Y021900D03*
X018150Y007650D03*
D21*
X018150Y002150D03*
X025150Y003400D03*
X021400Y017650D03*
X016650Y018150D03*
X014150Y019400D03*
M02*
