G75*
G70*
%OFA0B0*%
%FSLAX24Y24*%
%IPPOS*%
%LPD*%
%AMOC8*
5,1,8,0,0,1.08239X$1,22.5*
%
%ADD10C,0.0000*%
D10*
X001331Y000644D02*
X035977Y000644D01*
X036043Y000646D01*
X036109Y000651D01*
X036175Y000661D01*
X036240Y000674D01*
X036304Y000690D01*
X036367Y000710D01*
X036429Y000734D01*
X036489Y000761D01*
X036548Y000791D01*
X036605Y000825D01*
X036660Y000862D01*
X036713Y000902D01*
X036764Y000944D01*
X036812Y000990D01*
X036858Y001038D01*
X036900Y001089D01*
X036940Y001142D01*
X036977Y001197D01*
X037011Y001254D01*
X037041Y001313D01*
X037068Y001373D01*
X037092Y001435D01*
X037112Y001498D01*
X037128Y001562D01*
X037141Y001627D01*
X037151Y001693D01*
X037156Y001759D01*
X037158Y001825D01*
X037158Y034108D01*
X037156Y034174D01*
X037151Y034240D01*
X037141Y034306D01*
X037128Y034371D01*
X037112Y034435D01*
X037092Y034498D01*
X037068Y034560D01*
X037041Y034620D01*
X037011Y034679D01*
X036977Y034736D01*
X036940Y034791D01*
X036900Y034844D01*
X036858Y034895D01*
X036812Y034943D01*
X036764Y034989D01*
X036713Y035031D01*
X036660Y035071D01*
X036605Y035108D01*
X036548Y035142D01*
X036489Y035172D01*
X036429Y035199D01*
X036367Y035223D01*
X036304Y035243D01*
X036240Y035259D01*
X036175Y035272D01*
X036109Y035282D01*
X036043Y035287D01*
X035977Y035289D01*
X031252Y035289D01*
X031213Y035287D01*
X031175Y035281D01*
X031138Y035272D01*
X031101Y035259D01*
X031066Y035242D01*
X031033Y035223D01*
X031002Y035200D01*
X030973Y035174D01*
X030947Y035145D01*
X030924Y035114D01*
X030905Y035081D01*
X030888Y035046D01*
X030875Y035009D01*
X030866Y034972D01*
X030860Y034934D01*
X030858Y034895D01*
X030859Y034895D02*
X030859Y032533D01*
X030857Y032467D01*
X030852Y032401D01*
X030842Y032335D01*
X030829Y032270D01*
X030813Y032206D01*
X030793Y032143D01*
X030769Y032081D01*
X030742Y032021D01*
X030712Y031962D01*
X030678Y031905D01*
X030641Y031850D01*
X030601Y031797D01*
X030559Y031746D01*
X030513Y031698D01*
X030465Y031652D01*
X030414Y031610D01*
X030361Y031570D01*
X030306Y031533D01*
X030249Y031499D01*
X030190Y031469D01*
X030130Y031442D01*
X030068Y031418D01*
X030005Y031398D01*
X029941Y031382D01*
X029876Y031369D01*
X029810Y031359D01*
X029744Y031354D01*
X029678Y031352D01*
X025741Y031352D01*
X025675Y031354D01*
X025609Y031359D01*
X025543Y031369D01*
X025478Y031382D01*
X025414Y031398D01*
X025351Y031418D01*
X025289Y031442D01*
X025229Y031469D01*
X025170Y031499D01*
X025113Y031533D01*
X025058Y031570D01*
X025005Y031610D01*
X024954Y031652D01*
X024906Y031698D01*
X024860Y031746D01*
X024818Y031797D01*
X024778Y031850D01*
X024741Y031905D01*
X024707Y031962D01*
X024677Y032021D01*
X024650Y032081D01*
X024626Y032143D01*
X024606Y032206D01*
X024590Y032270D01*
X024577Y032335D01*
X024567Y032401D01*
X024562Y032467D01*
X024560Y032533D01*
X024559Y032533D02*
X024559Y033321D01*
X024560Y033321D02*
X024558Y033360D01*
X024552Y033398D01*
X024543Y033435D01*
X024530Y033472D01*
X024513Y033507D01*
X024494Y033540D01*
X024471Y033571D01*
X024445Y033600D01*
X024416Y033626D01*
X024385Y033649D01*
X024352Y033668D01*
X024317Y033685D01*
X024280Y033698D01*
X024243Y033707D01*
X024205Y033713D01*
X024166Y033715D01*
X024166Y033714D02*
X017473Y033714D01*
X017504Y033714D01*
X017473Y033714D02*
X013174Y033714D01*
X013174Y033715D02*
X013120Y033717D01*
X013067Y033722D01*
X013014Y033731D01*
X012962Y033744D01*
X012910Y033760D01*
X012860Y033780D01*
X012812Y033803D01*
X012765Y033830D01*
X012720Y033859D01*
X012677Y033892D01*
X012637Y033927D01*
X012599Y033965D01*
X012564Y034005D01*
X012531Y034048D01*
X012502Y034093D01*
X012475Y034140D01*
X012452Y034188D01*
X012432Y034238D01*
X012416Y034290D01*
X012403Y034342D01*
X012394Y034395D01*
X012389Y034448D01*
X012387Y034502D01*
X012386Y034502D02*
X012386Y034895D01*
X012387Y034895D02*
X012385Y034934D01*
X012379Y034972D01*
X012370Y035009D01*
X012357Y035046D01*
X012340Y035081D01*
X012321Y035114D01*
X012298Y035145D01*
X012272Y035174D01*
X012243Y035200D01*
X012212Y035223D01*
X012179Y035242D01*
X012144Y035259D01*
X012107Y035272D01*
X012070Y035281D01*
X012032Y035287D01*
X011993Y035289D01*
X001331Y035289D01*
X001265Y035287D01*
X001199Y035282D01*
X001133Y035272D01*
X001068Y035259D01*
X001004Y035243D01*
X000941Y035223D01*
X000879Y035199D01*
X000819Y035172D01*
X000760Y035142D01*
X000703Y035108D01*
X000648Y035071D01*
X000595Y035031D01*
X000544Y034989D01*
X000496Y034943D01*
X000450Y034895D01*
X000408Y034844D01*
X000368Y034791D01*
X000331Y034736D01*
X000297Y034679D01*
X000267Y034620D01*
X000240Y034560D01*
X000216Y034498D01*
X000196Y034435D01*
X000180Y034371D01*
X000167Y034306D01*
X000157Y034240D01*
X000152Y034174D01*
X000150Y034108D01*
X000150Y001825D01*
X000152Y001759D01*
X000157Y001693D01*
X000167Y001627D01*
X000180Y001562D01*
X000196Y001498D01*
X000216Y001435D01*
X000240Y001373D01*
X000267Y001313D01*
X000297Y001254D01*
X000331Y001197D01*
X000368Y001142D01*
X000408Y001089D01*
X000450Y001038D01*
X000496Y000990D01*
X000544Y000944D01*
X000595Y000902D01*
X000648Y000862D01*
X000703Y000825D01*
X000760Y000791D01*
X000819Y000761D01*
X000879Y000734D01*
X000941Y000710D01*
X001004Y000690D01*
X001068Y000674D01*
X001133Y000661D01*
X001199Y000651D01*
X001265Y000646D01*
X001331Y000644D01*
M02*
