G75*
G70*
%OFA0B0*%
%FSLAX24Y24*%
%IPPOS*%
%LPD*%
%AMOC8*
5,1,8,0,0,1.08239X$1,22.5*
%
%ADD10R,3.7008X3.7008*%
%ADD11C,0.0966*%
%ADD12C,0.1084*%
%ADD13C,0.0493*%
%ADD14R,0.0356X0.0513*%
%ADD15C,0.0680*%
%ADD16C,0.2380*%
%ADD17C,0.0611*%
%ADD18C,0.0740*%
%ADD19C,0.0930*%
%ADD20C,0.0820*%
%ADD21C,0.0337*%
%ADD22C,0.0434*%
%ADD23C,0.0377*%
%ADD24C,0.0298*%
%ADD25C,0.0671*%
D10*
X018624Y018993D03*
D11*
X003245Y008364D03*
D12*
X004245Y007364D03*
X004245Y009364D03*
X002245Y009364D03*
X002245Y007364D03*
D13*
X010120Y034864D03*
X010620Y034864D03*
X011120Y034864D03*
X011620Y034864D03*
X012120Y034864D03*
X012120Y036864D03*
X011620Y036864D03*
X011120Y036864D03*
X010620Y036864D03*
X010120Y036864D03*
D14*
X018637Y032177D03*
X019227Y032177D03*
D15*
X033084Y031493D03*
X033084Y030493D03*
X033084Y029493D03*
X033084Y028493D03*
X033084Y027493D03*
X033084Y026493D03*
X033084Y025493D03*
X033084Y024493D03*
X033084Y023493D03*
X033084Y022493D03*
X033084Y021493D03*
X033084Y020493D03*
X033084Y019493D03*
X033084Y018493D03*
X033084Y017493D03*
X033084Y016493D03*
X033084Y015493D03*
X033084Y014493D03*
X033084Y013493D03*
X033084Y012493D03*
X033084Y011493D03*
X033084Y010493D03*
X033084Y009493D03*
X033084Y008493D03*
X033084Y007493D03*
X033084Y006493D03*
X034084Y006493D03*
X034084Y007493D03*
X034084Y008493D03*
X034084Y009493D03*
X034084Y010493D03*
X034084Y011493D03*
X034084Y012493D03*
X034084Y013493D03*
X034084Y014493D03*
X034084Y015493D03*
X034084Y016493D03*
X034084Y017493D03*
X034084Y018493D03*
X034084Y019493D03*
X034084Y020493D03*
X034084Y021493D03*
X034084Y022493D03*
X034084Y023493D03*
X034084Y024493D03*
X034084Y025493D03*
X034084Y026493D03*
X034084Y027493D03*
X034084Y028493D03*
X034084Y029493D03*
X034084Y030493D03*
X034084Y031493D03*
D16*
X003663Y004032D03*
X033584Y004032D03*
X033584Y033954D03*
X003663Y033954D03*
D17*
X025120Y033755D02*
X025120Y033223D01*
X026120Y033223D02*
X026120Y033755D01*
X027120Y033755D02*
X027120Y033223D01*
D18*
X018866Y034806D03*
X018866Y035806D03*
X022245Y007739D03*
X022245Y006739D03*
D19*
X010620Y014989D03*
D20*
X035620Y012489D03*
X035620Y011489D03*
X035620Y010489D03*
D21*
X020870Y019239D03*
X020870Y019614D03*
X020870Y019989D03*
X020870Y020364D03*
X020870Y020739D03*
X020495Y020739D03*
X020495Y020364D03*
X020495Y019989D03*
X020495Y019614D03*
X020495Y019239D03*
X020120Y019239D03*
X020120Y019614D03*
X020120Y019989D03*
X020120Y020364D03*
X020120Y020739D03*
X019745Y020739D03*
X019745Y020364D03*
X019745Y019989D03*
X019745Y019614D03*
X019745Y019239D03*
X019370Y019239D03*
X019370Y019614D03*
X019370Y019989D03*
X019370Y020364D03*
X019370Y020739D03*
X015995Y018364D03*
X015620Y018489D03*
X015870Y018989D03*
X015120Y018739D03*
X015120Y017989D03*
X015745Y017614D03*
X015120Y020989D03*
X015120Y021489D03*
X015620Y022989D03*
X015620Y023489D03*
X015620Y023989D03*
X015620Y024489D03*
X019620Y028614D03*
X019995Y026864D03*
X020495Y026864D03*
X016120Y034489D03*
X015682Y034677D03*
X022057Y035489D03*
X022432Y035489D03*
X031120Y031989D03*
X031120Y031489D03*
X031620Y031489D03*
X031620Y031989D03*
X008870Y025239D03*
X008870Y024864D03*
X008870Y024489D03*
X008870Y024114D03*
X008870Y023739D03*
X008495Y023739D03*
X008495Y024114D03*
X008495Y024489D03*
X008495Y024864D03*
X008495Y025239D03*
X008120Y025239D03*
X008120Y024864D03*
X008120Y024489D03*
X008120Y024114D03*
X008120Y023739D03*
X007745Y023739D03*
X007745Y024114D03*
X007745Y024489D03*
X007745Y024864D03*
X007745Y025239D03*
X007370Y025239D03*
X007370Y024864D03*
X007370Y024489D03*
X007370Y024114D03*
X007370Y023739D03*
X004120Y026989D03*
X004120Y027489D03*
X004120Y027989D03*
X004120Y028489D03*
X003620Y025489D03*
X003620Y024989D03*
X003120Y024989D03*
X003120Y025489D03*
X003120Y022489D03*
X003120Y021989D03*
X003620Y022489D03*
X017495Y006739D03*
X017932Y005864D03*
X016932Y005177D03*
D22*
X025245Y007989D03*
X028120Y006489D03*
X029120Y006489D03*
X030120Y006489D03*
X031120Y006489D03*
X031120Y007489D03*
X031120Y008489D03*
X031120Y009489D03*
X030620Y011989D03*
X030620Y012489D03*
X030120Y012489D03*
X030120Y011989D03*
X029620Y011989D03*
X029620Y012489D03*
X029620Y012989D03*
X030120Y012989D03*
X030620Y012989D03*
X029120Y012989D03*
X028620Y012989D03*
X028120Y012989D03*
X028120Y012489D03*
X028620Y012489D03*
X029120Y012489D03*
X029120Y011989D03*
X028620Y011989D03*
X028120Y011989D03*
X031120Y014989D03*
X031120Y015989D03*
X031120Y016989D03*
X030120Y016989D03*
X029120Y016989D03*
X024495Y013302D03*
X026620Y021489D03*
X026620Y021989D03*
X026620Y022489D03*
X026620Y022989D03*
X024245Y031364D03*
X020932Y035677D03*
X013932Y033114D03*
X011620Y031489D03*
X011620Y030989D03*
X011620Y030489D03*
X009120Y029989D03*
D23*
X009307Y027677D03*
X020057Y023677D03*
X021432Y026302D03*
X021432Y026677D03*
X021807Y026677D03*
X021807Y026302D03*
D24*
X023120Y026739D03*
X024620Y025989D03*
X025120Y024989D03*
X026931Y025926D03*
X028120Y026489D03*
X029995Y025614D03*
X031995Y025239D03*
X032120Y023989D03*
X025557Y029052D03*
X022870Y028739D03*
X021093Y030891D03*
X019120Y029864D03*
X018120Y032114D03*
X016120Y031989D03*
X018493Y034114D03*
X017620Y035989D03*
X017120Y035989D03*
X016620Y035989D03*
X016370Y035677D03*
X016120Y035427D03*
X011120Y034364D03*
X011620Y029114D03*
X013995Y026614D03*
X012370Y024989D03*
X011870Y025614D03*
X011120Y025614D03*
X010245Y025614D03*
X010245Y024989D03*
X010245Y024239D03*
X010245Y023489D03*
X011120Y023489D03*
X011620Y022989D03*
X012370Y022989D03*
X011620Y022364D03*
X012370Y021989D03*
X011495Y021114D03*
X010807Y021739D03*
X009870Y021239D03*
X009370Y020614D03*
X008495Y020614D03*
X008495Y019489D03*
X008495Y018489D03*
X008495Y017239D03*
X009370Y016489D03*
X008495Y015989D03*
X009370Y015489D03*
X009370Y014489D03*
X009370Y013489D03*
X009370Y012489D03*
X009370Y011739D03*
X009370Y010989D03*
X009370Y009989D03*
X009370Y009114D03*
X008620Y009114D03*
X008682Y008614D03*
X008682Y008114D03*
X008620Y007614D03*
X008620Y006989D03*
X008057Y006989D03*
X007807Y007614D03*
X006495Y007614D03*
X006120Y007989D03*
X005620Y007614D03*
X006120Y008739D03*
X006495Y009114D03*
X005620Y009114D03*
X005370Y009989D03*
X005370Y010864D03*
X006495Y011489D03*
X006495Y012489D03*
X006495Y013489D03*
X006495Y014489D03*
X007745Y014489D03*
X007745Y013489D03*
X007745Y012489D03*
X007745Y011489D03*
X007745Y010489D03*
X007745Y009114D03*
X009620Y007614D03*
X009620Y006989D03*
X010620Y006989D03*
X010620Y007614D03*
X011620Y007614D03*
X011620Y006989D03*
X012620Y006989D03*
X012620Y007614D03*
X013370Y007989D03*
X013620Y006989D03*
X014620Y006989D03*
X015495Y006989D03*
X016307Y006427D03*
X016495Y006239D03*
X016682Y006052D03*
X016682Y006427D03*
X016307Y006052D03*
X017620Y007739D03*
X018120Y007239D03*
X018870Y007239D03*
X018620Y008239D03*
X018870Y008989D03*
X018870Y009989D03*
X018870Y011239D03*
X017870Y011239D03*
X017620Y010739D03*
X017620Y009739D03*
X017620Y008739D03*
X015620Y009489D03*
X014870Y008489D03*
X015370Y007989D03*
X013370Y008989D03*
X013370Y009989D03*
X013370Y010989D03*
X013370Y011989D03*
X013370Y012989D03*
X013370Y013989D03*
X013370Y014989D03*
X013995Y015614D03*
X014370Y016114D03*
X015245Y016114D03*
X016120Y015739D03*
X017120Y015739D03*
X017870Y015489D03*
X017870Y014489D03*
X017370Y013989D03*
X017870Y013489D03*
X017870Y012489D03*
X017620Y011864D03*
X018995Y012489D03*
X018995Y012864D03*
X020370Y012489D03*
X021370Y012489D03*
X022182Y012864D03*
X023057Y013677D03*
X023807Y014427D03*
X024620Y015239D03*
X024620Y016239D03*
X023620Y016989D03*
X024620Y017489D03*
X024620Y018489D03*
X024620Y019489D03*
X024620Y020489D03*
X024620Y021489D03*
X024620Y022239D03*
X023370Y022239D03*
X022370Y022239D03*
X022370Y021239D03*
X022370Y020239D03*
X022370Y019239D03*
X022870Y018239D03*
X022120Y016864D03*
X022870Y015989D03*
X021870Y015489D03*
X021120Y016239D03*
X020370Y015739D03*
X020370Y016989D03*
X020370Y014489D03*
X020370Y013489D03*
X020370Y011239D03*
X021120Y011239D03*
X021870Y011239D03*
X021870Y010489D03*
X021495Y009864D03*
X021495Y008864D03*
X021120Y008489D03*
X020370Y008489D03*
X020370Y009489D03*
X020370Y010489D03*
X020370Y007489D03*
X021120Y007489D03*
X021120Y006489D03*
X020370Y006489D03*
X020620Y005489D03*
X019620Y005489D03*
X018620Y005489D03*
X016620Y003739D03*
X016370Y002239D03*
X016995Y002239D03*
X017745Y002239D03*
X018620Y002489D03*
X019620Y002489D03*
X020620Y002489D03*
X021620Y002489D03*
X022620Y002489D03*
X023620Y002489D03*
X023995Y001864D03*
X023620Y001114D03*
X022620Y001114D03*
X021620Y001114D03*
X020620Y001114D03*
X019620Y001114D03*
X018620Y001114D03*
X017745Y001114D03*
X016620Y001114D03*
X015620Y001114D03*
X015620Y001614D03*
X015745Y002239D03*
X014620Y001614D03*
X014620Y001114D03*
X013620Y001114D03*
X013620Y001614D03*
X012620Y001114D03*
X011620Y001114D03*
X010620Y001114D03*
X009620Y001114D03*
X008620Y001114D03*
X007620Y001114D03*
X006620Y001114D03*
X005745Y001114D03*
X005745Y001989D03*
X005745Y002989D03*
X005745Y003989D03*
X005745Y004989D03*
X005620Y006239D03*
X006620Y006239D03*
X007620Y005489D03*
X008620Y005489D03*
X008620Y004989D03*
X009245Y004489D03*
X009870Y004989D03*
X010495Y004489D03*
X010870Y004989D03*
X011495Y004489D03*
X012245Y004489D03*
X012995Y004489D03*
X012995Y003614D03*
X012370Y002989D03*
X012370Y002239D03*
X004620Y006239D03*
X003620Y006239D03*
X002620Y006239D03*
X001620Y006239D03*
X000745Y006239D03*
X000745Y006989D03*
X000745Y007989D03*
X000745Y008989D03*
X000745Y009989D03*
X000745Y010989D03*
X000745Y011989D03*
X000745Y012989D03*
X000745Y013989D03*
X000745Y014989D03*
X000745Y015989D03*
X000745Y016989D03*
X000745Y017989D03*
X000745Y018989D03*
X000745Y019989D03*
X000745Y020989D03*
X000745Y021989D03*
X000745Y022989D03*
X000745Y023989D03*
X000745Y024989D03*
X000745Y025989D03*
X000745Y026989D03*
X000745Y027989D03*
X000745Y028864D03*
X001870Y028864D03*
X001870Y027989D03*
X001870Y026989D03*
X001870Y025989D03*
X001870Y024989D03*
X001870Y023989D03*
X001870Y022989D03*
X001870Y021989D03*
X002120Y021239D03*
X002620Y020739D03*
X002620Y019739D03*
X002620Y018739D03*
X002620Y017989D03*
X002620Y017239D03*
X003245Y016614D03*
X004120Y015989D03*
X005245Y015989D03*
X006495Y015989D03*
X007245Y017489D03*
X007245Y017989D03*
X006120Y018489D03*
X006120Y019489D03*
X006245Y020114D03*
X006870Y020114D03*
X005745Y020614D03*
X004745Y020614D03*
X003745Y020614D03*
X003745Y019489D03*
X003745Y018239D03*
X004620Y017489D03*
X010620Y016864D03*
X011620Y016864D03*
X012370Y016864D03*
X012370Y017989D03*
X012370Y018989D03*
X012370Y019989D03*
X012370Y020989D03*
X012370Y023989D03*
X008120Y026989D03*
X015995Y029364D03*
X017870Y025114D03*
X019995Y022114D03*
X016370Y013989D03*
X014620Y013364D03*
X014620Y012864D03*
X015620Y012114D03*
X015620Y011364D03*
X015620Y010489D03*
X010495Y010989D03*
X010495Y011239D03*
X023870Y011864D03*
D25*
X022245Y022989D03*
X015120Y025989D03*
M02*
