G75*
G70*
%OFA0B0*%
%FSLAX24Y24*%
%IPPOS*%
%LPD*%
%AMOC8*
5,1,8,0,0,1.08239X$1,22.5*
%
%ADD10R,0.0356X0.0513*%
%ADD11C,0.0966*%
%ADD12C,0.1084*%
%ADD13C,0.0493*%
%ADD14C,0.0680*%
%ADD15C,0.2380*%
%ADD16C,0.0337*%
%ADD17C,0.0434*%
%ADD18C,0.0377*%
%ADD19C,0.0298*%
%ADD20C,0.0671*%
D10*
X016949Y031245D03*
X017540Y031245D03*
X018137Y031807D03*
X018727Y031807D03*
D11*
X003245Y007995D03*
D12*
X004245Y008995D03*
X004245Y006995D03*
X002245Y006995D03*
X002245Y008995D03*
D13*
X010120Y034495D03*
X010620Y034495D03*
X011120Y034495D03*
X011620Y034495D03*
X012120Y034495D03*
X012120Y036495D03*
X011620Y036495D03*
X011120Y036495D03*
X010620Y036495D03*
X010120Y036495D03*
D14*
X033084Y031124D03*
X034084Y031124D03*
X034084Y030124D03*
X034084Y029124D03*
X033084Y029124D03*
X033084Y030124D03*
X033084Y028124D03*
X034084Y028124D03*
X034084Y027124D03*
X034084Y026124D03*
X033084Y026124D03*
X033084Y027124D03*
X033084Y025124D03*
X034084Y025124D03*
X034084Y024124D03*
X034084Y023124D03*
X033084Y023124D03*
X033084Y024124D03*
X033084Y022124D03*
X034084Y022124D03*
X034084Y021124D03*
X034084Y020124D03*
X033084Y020124D03*
X033084Y021124D03*
X033084Y019124D03*
X034084Y019124D03*
X034084Y018124D03*
X034084Y017124D03*
X033084Y017124D03*
X033084Y018124D03*
X033084Y016124D03*
X033084Y015124D03*
X034084Y015124D03*
X034084Y016124D03*
X034084Y014124D03*
X033084Y014124D03*
X033084Y013124D03*
X033084Y012124D03*
X034084Y012124D03*
X034084Y013124D03*
X034084Y011124D03*
X033084Y011124D03*
X033084Y010124D03*
X033084Y009124D03*
X034084Y009124D03*
X034084Y010124D03*
X034084Y008124D03*
X033084Y008124D03*
X033084Y007124D03*
X033084Y006124D03*
X034084Y006124D03*
X034084Y007124D03*
D15*
X003663Y003663D03*
X033584Y003663D03*
X033584Y033584D03*
X003663Y033584D03*
D16*
X004120Y028120D03*
X004120Y027620D03*
X004120Y027120D03*
X004120Y026620D03*
X003620Y025120D03*
X003620Y024620D03*
X003120Y024620D03*
X003120Y025120D03*
X003120Y022120D03*
X003120Y021620D03*
X003620Y022120D03*
X007370Y023370D03*
X007370Y023745D03*
X007370Y024120D03*
X007370Y024495D03*
X007370Y024870D03*
X007745Y024870D03*
X008120Y024870D03*
X008495Y024870D03*
X008870Y024870D03*
X008870Y024495D03*
X008870Y024120D03*
X008870Y023745D03*
X008870Y023370D03*
X008495Y023370D03*
X008495Y023745D03*
X008495Y024120D03*
X008495Y024495D03*
X008120Y024495D03*
X008120Y024120D03*
X008120Y023745D03*
X008120Y023370D03*
X007745Y023370D03*
X007745Y023745D03*
X007745Y024120D03*
X007745Y024495D03*
X015120Y021120D03*
X015120Y020620D03*
X015620Y022620D03*
X015620Y023120D03*
X015620Y023620D03*
X015620Y024120D03*
X019370Y020370D03*
X019745Y020370D03*
X020120Y020370D03*
X020495Y020370D03*
X020870Y020370D03*
X020870Y019995D03*
X020870Y019620D03*
X020870Y019245D03*
X020870Y018870D03*
X020495Y018870D03*
X020495Y019245D03*
X020495Y019620D03*
X020495Y019995D03*
X020120Y019995D03*
X020120Y019620D03*
X020120Y019245D03*
X020120Y018870D03*
X019745Y018870D03*
X019745Y019245D03*
X019745Y019620D03*
X019745Y019995D03*
X019370Y019995D03*
X019370Y019620D03*
X019370Y019245D03*
X019370Y018870D03*
X015995Y017995D03*
X015620Y018120D03*
X015870Y018620D03*
X015120Y018370D03*
X015120Y017620D03*
X015745Y017245D03*
X019995Y026495D03*
X020495Y026495D03*
X019620Y028120D03*
X022932Y033682D03*
X022932Y034120D03*
X022932Y034557D03*
X016120Y034120D03*
X015682Y034307D03*
X017495Y006370D03*
X017932Y005495D03*
X016932Y004807D03*
X021370Y006120D03*
D17*
X023745Y007620D03*
X028120Y011620D03*
X028620Y011620D03*
X029120Y011620D03*
X029120Y012120D03*
X029120Y012620D03*
X028620Y012620D03*
X028620Y012120D03*
X028120Y012120D03*
X028120Y012620D03*
X029620Y012620D03*
X030120Y012620D03*
X030620Y012620D03*
X030620Y012120D03*
X030120Y012120D03*
X029620Y012120D03*
X029620Y011620D03*
X030120Y011620D03*
X030620Y011620D03*
X024495Y012932D03*
X026620Y021120D03*
X026620Y021620D03*
X026620Y022120D03*
X026620Y022620D03*
X022057Y025682D03*
X021557Y025682D03*
X021557Y026182D03*
X022057Y026182D03*
X013932Y032745D03*
X011620Y031120D03*
X011620Y030620D03*
X011620Y030120D03*
X009120Y029620D03*
X020932Y035307D03*
X027620Y035120D03*
X011120Y009995D03*
D18*
X020057Y023307D03*
X009307Y027307D03*
D19*
X008120Y026620D03*
X010245Y025245D03*
X010245Y024620D03*
X010245Y023870D03*
X010245Y023120D03*
X011120Y023120D03*
X011620Y022620D03*
X011620Y021995D03*
X012370Y021620D03*
X012370Y022620D03*
X012370Y023620D03*
X012370Y024620D03*
X011870Y025245D03*
X011120Y025245D03*
X013495Y026245D03*
X013995Y026245D03*
X014370Y026245D03*
X014870Y026245D03*
X011620Y028620D03*
X016245Y030995D03*
X016120Y031620D03*
X017120Y032120D03*
X016745Y030245D03*
X016745Y029745D03*
X019120Y029495D03*
X020718Y030521D03*
X021620Y029120D03*
X021620Y028620D03*
X022870Y028370D03*
X023120Y026370D03*
X024620Y025620D03*
X025120Y024620D03*
X027120Y025620D03*
X028120Y026120D03*
X029995Y025245D03*
X031995Y024870D03*
X032120Y023620D03*
X026120Y028620D03*
X024620Y021870D03*
X024620Y021120D03*
X024620Y020120D03*
X024620Y019120D03*
X024620Y018120D03*
X024620Y017120D03*
X023620Y016620D03*
X024620Y015870D03*
X024620Y014870D03*
X023807Y014057D03*
X023057Y013307D03*
X022182Y012495D03*
X021370Y012120D03*
X020370Y012120D03*
X020370Y013120D03*
X020370Y014120D03*
X020370Y015370D03*
X021120Y015870D03*
X020370Y016620D03*
X021870Y015120D03*
X022870Y015620D03*
X022120Y016495D03*
X022870Y017870D03*
X022370Y018870D03*
X022370Y019870D03*
X022370Y020870D03*
X022370Y021870D03*
X023370Y021870D03*
X019995Y021745D03*
X018245Y023870D03*
X012370Y020620D03*
X011495Y020745D03*
X010807Y021370D03*
X009870Y020870D03*
X009370Y020245D03*
X008495Y020245D03*
X008495Y019120D03*
X008370Y018245D03*
X007370Y018245D03*
X007245Y017620D03*
X007245Y016620D03*
X006120Y016995D03*
X005120Y017495D03*
X004620Y016620D03*
X003870Y017120D03*
X003745Y018120D03*
X003745Y019120D03*
X003745Y020245D03*
X004745Y020245D03*
X005745Y020245D03*
X006245Y019745D03*
X006870Y019745D03*
X007245Y019120D03*
X008495Y017120D03*
X008495Y016120D03*
X009370Y016120D03*
X009370Y015120D03*
X008495Y015120D03*
X007745Y014120D03*
X007745Y013120D03*
X007745Y012120D03*
X007745Y011370D03*
X006495Y011370D03*
X006495Y012120D03*
X006495Y013120D03*
X006495Y014120D03*
X006495Y015120D03*
X005245Y015120D03*
X004120Y015120D03*
X003245Y015745D03*
X002620Y016370D03*
X002620Y017370D03*
X002620Y018370D03*
X002620Y019370D03*
X002620Y020370D03*
X002120Y020870D03*
X001870Y021620D03*
X001870Y022620D03*
X001870Y023620D03*
X001870Y024620D03*
X001870Y025620D03*
X001870Y026620D03*
X001870Y027620D03*
X001870Y028495D03*
X000745Y028495D03*
X000745Y027620D03*
X000745Y026620D03*
X000745Y025620D03*
X000745Y024620D03*
X000745Y023620D03*
X000745Y022620D03*
X000745Y021620D03*
X000745Y020620D03*
X000745Y019620D03*
X000745Y018620D03*
X000745Y017620D03*
X000745Y016620D03*
X000745Y015620D03*
X000745Y014620D03*
X000745Y013620D03*
X000745Y012620D03*
X000745Y011620D03*
X000745Y010620D03*
X000745Y009620D03*
X000745Y008620D03*
X000745Y007620D03*
X000745Y006620D03*
X000745Y005870D03*
X001620Y005870D03*
X002620Y005870D03*
X003620Y005870D03*
X004620Y005870D03*
X005620Y005870D03*
X006620Y005745D03*
X007120Y005120D03*
X008120Y005120D03*
X008745Y004495D03*
X009245Y004120D03*
X009870Y004620D03*
X010495Y004120D03*
X010870Y004620D03*
X011495Y004120D03*
X012245Y004120D03*
X012995Y004120D03*
X012995Y003245D03*
X012620Y002620D03*
X012620Y001870D03*
X012620Y000745D03*
X011620Y000745D03*
X010620Y000745D03*
X009620Y000745D03*
X008620Y000745D03*
X007620Y000745D03*
X006620Y000745D03*
X005745Y000745D03*
X005745Y001620D03*
X005745Y002620D03*
X005745Y003620D03*
X005745Y004620D03*
X007870Y006620D03*
X008120Y007120D03*
X008620Y007120D03*
X008870Y006620D03*
X009620Y007120D03*
X009870Y006620D03*
X010620Y007120D03*
X010870Y006620D03*
X011620Y007120D03*
X011870Y006620D03*
X012620Y007120D03*
X012870Y006620D03*
X013870Y006620D03*
X014870Y006620D03*
X015870Y006870D03*
X015370Y007620D03*
X014870Y008120D03*
X015870Y008870D03*
X015620Y009620D03*
X015620Y010370D03*
X015120Y011120D03*
X015120Y011870D03*
X015745Y012370D03*
X017120Y012370D03*
X017620Y011495D03*
X017995Y010870D03*
X017620Y010370D03*
X017620Y009370D03*
X017620Y008370D03*
X018620Y007870D03*
X018870Y008620D03*
X018870Y009620D03*
X018870Y010870D03*
X018995Y012120D03*
X018995Y012495D03*
X018120Y012120D03*
X017870Y013120D03*
X017870Y014120D03*
X017870Y015120D03*
X017120Y015370D03*
X016120Y015370D03*
X015245Y015745D03*
X014370Y015745D03*
X013995Y015245D03*
X013370Y014620D03*
X013370Y013620D03*
X013370Y012620D03*
X013370Y011620D03*
X013370Y010620D03*
X013370Y009620D03*
X013370Y008620D03*
X013370Y007620D03*
X016307Y006057D03*
X016495Y005870D03*
X016682Y006057D03*
X016682Y005682D03*
X016307Y005682D03*
X017620Y007370D03*
X018120Y006870D03*
X018870Y006870D03*
X020370Y007120D03*
X020870Y006620D03*
X020370Y006120D03*
X020620Y005120D03*
X019620Y005120D03*
X018620Y005120D03*
X016620Y003370D03*
X016370Y001870D03*
X016995Y001870D03*
X017745Y001870D03*
X018620Y002120D03*
X019620Y002120D03*
X020620Y002120D03*
X021620Y002120D03*
X022620Y002120D03*
X023620Y002120D03*
X023995Y001495D03*
X023620Y000745D03*
X022620Y000745D03*
X021620Y000745D03*
X020620Y000745D03*
X019620Y000745D03*
X018620Y000745D03*
X017745Y000745D03*
X016620Y000745D03*
X015620Y000745D03*
X015620Y001245D03*
X015745Y001870D03*
X014620Y001245D03*
X014620Y000745D03*
X013620Y000745D03*
X013620Y001245D03*
X007370Y007745D03*
X007370Y007995D03*
X007370Y008245D03*
X007120Y008245D03*
X006870Y008245D03*
X006870Y007995D03*
X007120Y007995D03*
X007120Y007745D03*
X006870Y007745D03*
X006620Y006870D03*
X005995Y008620D03*
X006495Y009120D03*
X006370Y010120D03*
X005370Y010745D03*
X004995Y008745D03*
X007745Y009120D03*
X008245Y008745D03*
X009370Y008745D03*
X009370Y009620D03*
X009370Y010620D03*
X009370Y011370D03*
X009370Y012120D03*
X009370Y013120D03*
X009370Y014120D03*
X010370Y015370D03*
X011370Y015370D03*
X012245Y015245D03*
X012370Y016495D03*
X011620Y016495D03*
X010620Y016495D03*
X012370Y017620D03*
X012370Y018620D03*
X012370Y019620D03*
X014120Y016620D03*
X010995Y014120D03*
X011995Y010995D03*
X007745Y010120D03*
X020370Y010120D03*
X020370Y010870D03*
X021120Y010870D03*
X021870Y010870D03*
X021495Y009870D03*
X021495Y009120D03*
X021870Y008620D03*
X021120Y008120D03*
X020370Y008120D03*
X020370Y009120D03*
X023870Y011495D03*
X010620Y033120D03*
X017120Y034182D03*
X017245Y034932D03*
X017682Y035120D03*
X018120Y035120D03*
X018620Y034620D03*
X018620Y033870D03*
D20*
X015120Y025620D03*
X022620Y023120D03*
M02*
