G75*
G70*
%OFA0B0*%
%FSLAX24Y24*%
%IPPOS*%
%LPD*%
%AMOC8*
5,1,8,0,0,1.08239X$1,22.5*
%
%ADD10R,0.5000X1.0500*%
%ADD11R,2.3000X0.5000*%
%ADD12R,1.6000X0.8000*%
%ADD13R,0.8500X0.3000*%
%ADD14R,1.6000X0.4000*%
%ADD15R,0.6000X2.6500*%
%ADD16R,1.8000X2.2000*%
%ADD17R,0.4500X0.5500*%
%ADD18R,1.1000X1.7500*%
%ADD19R,1.5000X0.9000*%
%ADD20R,1.5500X1.1000*%
%ADD21R,1.0000X0.8000*%
%ADD22R,0.7500X0.1500*%
%ADD23R,0.3500X0.8500*%
%ADD24R,0.7500X0.1000*%
%ADD25R,1.4500X0.9000*%
%ADD26C,0.0157*%
%ADD27R,0.2047X0.2047*%
%ADD28R,0.0198X0.0631*%
%ADD29R,0.0631X0.0198*%
%ADD30R,0.0560X0.0316*%
%ADD31R,0.0316X0.0560*%
%ADD32R,0.0513X0.0356*%
%ADD33R,0.0356X0.0513*%
%ADD34R,0.0789X0.0474*%
%ADD35R,0.0671X0.0789*%
%ADD36R,0.0150X0.0291*%
%ADD37R,0.0291X0.0150*%
%ADD38R,0.0630X0.0630*%
%ADD39R,0.0399X0.0178*%
%ADD40R,0.0891X0.0891*%
%ADD41R,0.0178X0.0399*%
%ADD42R,0.0300X0.0604*%
%ADD43C,0.0966*%
%ADD44C,0.1084*%
%ADD45R,0.0749X0.1064*%
%ADD46R,0.1143X0.0395*%
%ADD47C,0.0493*%
%ADD48R,0.0336X0.0946*%
%ADD49R,0.0356X0.0671*%
%ADD50R,0.0671X0.0356*%
%ADD51R,0.0631X0.0395*%
%ADD52R,0.0572X0.0320*%
%ADD53R,0.0789X0.0491*%
%ADD54R,0.0198X0.0297*%
%ADD55R,0.0552X0.0297*%
%ADD56C,0.0680*%
%ADD57C,0.2380*%
%ADD58R,0.0220X0.0710*%
%ADD59R,0.1285X0.0430*%
%ADD60R,0.3442X0.2186*%
%ADD61R,0.0474X0.0631*%
%ADD62R,0.0552X0.0986*%
%ADD63R,0.0395X0.0395*%
%ADD64R,0.0189X0.0008*%
%ADD65R,0.0181X0.0008*%
%ADD66R,0.0173X0.0008*%
%ADD67R,0.0291X0.0008*%
%ADD68R,0.0283X0.0008*%
%ADD69R,0.0276X0.0008*%
%ADD70R,0.0370X0.0008*%
%ADD71R,0.0346X0.0008*%
%ADD72R,0.0433X0.0008*%
%ADD73R,0.0402X0.0008*%
%ADD74R,0.0480X0.0008*%
%ADD75R,0.0457X0.0008*%
%ADD76R,0.0449X0.0008*%
%ADD77R,0.0386X0.0008*%
%ADD78R,0.0520X0.0008*%
%ADD79R,0.0488X0.0008*%
%ADD80R,0.0496X0.0008*%
%ADD81R,0.0559X0.0008*%
%ADD82R,0.0528X0.0008*%
%ADD83R,0.0591X0.0008*%
%ADD84R,0.0567X0.0008*%
%ADD85R,0.0622X0.0008*%
%ADD86R,0.0598X0.0008*%
%ADD87R,0.0654X0.0008*%
%ADD88R,0.0685X0.0008*%
%ADD89R,0.0646X0.0008*%
%ADD90R,0.0701X0.0008*%
%ADD91R,0.0677X0.0008*%
%ADD92R,0.0732X0.0008*%
%ADD93R,0.0693X0.0008*%
%ADD94R,0.0748X0.0008*%
%ADD95R,0.0724X0.0008*%
%ADD96R,0.0717X0.0008*%
%ADD97R,0.0772X0.0008*%
%ADD98R,0.0740X0.0008*%
%ADD99R,0.0795X0.0008*%
%ADD100R,0.0756X0.0008*%
%ADD101R,0.0764X0.0008*%
%ADD102R,0.0811X0.0008*%
%ADD103R,0.0780X0.0008*%
%ADD104R,0.0827X0.0008*%
%ADD105R,0.0803X0.0008*%
%ADD106R,0.0843X0.0008*%
%ADD107R,0.0819X0.0008*%
%ADD108R,0.0858X0.0008*%
%ADD109R,0.0835X0.0008*%
%ADD110R,0.0874X0.0008*%
%ADD111R,0.0850X0.0008*%
%ADD112R,0.0890X0.0008*%
%ADD113R,0.0866X0.0008*%
%ADD114R,0.0906X0.0008*%
%ADD115R,0.0921X0.0008*%
%ADD116R,0.0937X0.0008*%
%ADD117R,0.0945X0.0008*%
%ADD118R,0.0913X0.0008*%
%ADD119R,0.0953X0.0008*%
%ADD120R,0.0929X0.0008*%
%ADD121R,0.0969X0.0008*%
%ADD122R,0.0976X0.0008*%
%ADD123R,0.0984X0.0008*%
%ADD124R,0.0961X0.0008*%
%ADD125R,0.1000X0.0008*%
%ADD126R,0.1008X0.0008*%
%ADD127R,0.1016X0.0008*%
%ADD128R,0.0992X0.0008*%
%ADD129R,0.1024X0.0008*%
%ADD130R,0.1031X0.0008*%
%ADD131R,0.1039X0.0008*%
%ADD132R,0.1047X0.0008*%
%ADD133R,0.1055X0.0008*%
%ADD134R,0.1063X0.0008*%
%ADD135R,0.1071X0.0008*%
%ADD136R,0.1079X0.0008*%
%ADD137R,0.1087X0.0008*%
%ADD138R,0.0465X0.0008*%
%ADD139R,0.0441X0.0008*%
%ADD140R,0.0425X0.0008*%
%ADD141R,0.0417X0.0008*%
%ADD142R,0.0409X0.0008*%
%ADD143R,0.0394X0.0008*%
%ADD144R,0.0378X0.0008*%
%ADD145R,0.0362X0.0008*%
%ADD146R,0.0354X0.0008*%
%ADD147R,0.0299X0.0008*%
%ADD148R,0.0236X0.0008*%
%ADD149R,0.0244X0.0008*%
%ADD150R,0.0134X0.0008*%
%ADD151R,0.0126X0.0008*%
%ADD152R,0.0079X0.0008*%
%ADD153R,0.0071X0.0008*%
%ADD154R,0.0024X0.0008*%
%ADD155R,0.0016X0.0008*%
%ADD156R,0.0087X0.0008*%
%ADD157R,0.0472X0.0008*%
%ADD158R,0.0039X0.0008*%
%ADD159R,0.0165X0.0008*%
%ADD160R,0.0118X0.0008*%
%ADD161R,0.0031X0.0008*%
%ADD162R,0.0008X0.0008*%
%ADD163R,0.0504X0.0008*%
%ADD164R,0.0512X0.0008*%
%ADD165R,0.0063X0.0008*%
%ADD166R,0.0197X0.0008*%
%ADD167R,0.0213X0.0008*%
%ADD168R,0.0339X0.0008*%
%ADD169R,0.0535X0.0008*%
%ADD170R,0.0307X0.0008*%
%ADD171R,0.0543X0.0008*%
%ADD172R,0.0551X0.0008*%
%ADD173R,0.0157X0.0008*%
%ADD174R,0.0142X0.0008*%
%ADD175R,0.0150X0.0008*%
%ADD176R,0.0102X0.0008*%
%ADD177R,0.0094X0.0008*%
%ADD178R,0.0315X0.0008*%
%ADD179R,0.0323X0.0008*%
%ADD180R,0.0575X0.0008*%
%ADD181R,0.0220X0.0008*%
%ADD182R,0.0228X0.0008*%
%ADD183R,0.0205X0.0008*%
%ADD184R,0.0047X0.0008*%
%ADD185R,0.0331X0.0008*%
%ADD186R,0.0110X0.0008*%
%ADD187R,0.0055X0.0008*%
%ADD188R,0.0268X0.0008*%
%ADD189R,0.0898X0.0008*%
%ADD190R,0.0882X0.0008*%
%ADD191R,0.0661X0.0008*%
%ADD192R,0.0669X0.0008*%
%ADD193R,0.0638X0.0008*%
%ADD194R,0.0630X0.0008*%
%ADD195R,0.0606X0.0008*%
%ADD196R,0.0671X0.1480*%
%ADD197C,0.0337*%
%ADD198C,0.0434*%
%ADD199C,0.0377*%
%ADD200C,0.0298*%
%ADD201C,0.0671*%
D10*
X011620Y031870D03*
D11*
X025620Y024620D03*
D12*
X029120Y030120D03*
D13*
X017870Y035620D03*
D14*
X029120Y035120D03*
D15*
X003120Y013370D03*
D16*
X009120Y011120D03*
D17*
X012370Y023870D03*
D18*
X022620Y008870D03*
D19*
X029620Y018620D03*
D20*
X029370Y009620D03*
D21*
X032120Y006120D03*
D22*
X018370Y026870D03*
D23*
X022370Y030370D03*
D24*
X017870Y034120D03*
D25*
X007370Y030620D03*
D26*
X007431Y025655D02*
X007431Y025340D01*
X007628Y025340D02*
X007628Y025655D01*
X007824Y025655D02*
X007824Y025340D01*
X008021Y025340D02*
X008021Y025655D01*
X008218Y025655D02*
X008218Y025340D01*
X008415Y025340D02*
X008415Y025655D01*
X008612Y025655D02*
X008612Y025340D01*
X008809Y025340D02*
X008809Y025655D01*
X009006Y025655D02*
X009006Y025340D01*
X009202Y025370D02*
X009202Y025527D01*
X009370Y025202D02*
X009527Y025202D01*
X009655Y025006D02*
X009340Y025006D01*
X009340Y024809D02*
X009655Y024809D01*
X009655Y024612D02*
X009340Y024612D01*
X009340Y024415D02*
X009655Y024415D01*
X009655Y024218D02*
X009340Y024218D01*
X009340Y024021D02*
X009655Y024021D01*
X009655Y023824D02*
X009340Y023824D01*
X009340Y023628D02*
X009655Y023628D01*
X009655Y023431D02*
X009340Y023431D01*
X009340Y023234D02*
X009655Y023234D01*
X009488Y023037D02*
X009370Y023037D01*
X009202Y022870D02*
X009202Y022712D01*
X009006Y022584D02*
X009006Y022899D01*
X008809Y022899D02*
X008809Y022584D01*
X008612Y022584D02*
X008612Y022899D01*
X008415Y022899D02*
X008415Y022584D01*
X008218Y022584D02*
X008218Y022899D01*
X008021Y022899D02*
X008021Y022584D01*
X007824Y022584D02*
X007824Y022899D01*
X007628Y022899D02*
X007628Y022584D01*
X007431Y022584D02*
X007431Y022899D01*
X007234Y022899D02*
X007234Y022584D01*
X007037Y022712D02*
X007037Y022870D01*
X006870Y023037D02*
X006712Y023037D01*
X006584Y023234D02*
X006899Y023234D01*
X006899Y023431D02*
X006584Y023431D01*
X006584Y023628D02*
X006899Y023628D01*
X006899Y023824D02*
X006584Y023824D01*
X006584Y024021D02*
X006899Y024021D01*
X006899Y024218D02*
X006584Y024218D01*
X006584Y024415D02*
X006899Y024415D01*
X006899Y024612D02*
X006584Y024612D01*
X006584Y024809D02*
X006899Y024809D01*
X006899Y025006D02*
X006584Y025006D01*
X006712Y025202D02*
X006870Y025202D01*
X007037Y025370D02*
X007037Y025527D01*
X007234Y025655D02*
X007234Y025340D01*
X018584Y020506D02*
X018899Y020506D01*
X018899Y020309D02*
X018584Y020309D01*
X018584Y020112D02*
X018899Y020112D01*
X018899Y019915D02*
X018584Y019915D01*
X018584Y019718D02*
X018899Y019718D01*
X018899Y019521D02*
X018584Y019521D01*
X018584Y019324D02*
X018899Y019324D01*
X018899Y019128D02*
X018584Y019128D01*
X018584Y018931D02*
X018899Y018931D01*
X018899Y018734D02*
X018584Y018734D01*
X018712Y018537D02*
X018870Y018537D01*
X019037Y018370D02*
X019037Y018212D01*
X019234Y018084D02*
X019234Y018399D01*
X019431Y018399D02*
X019431Y018084D01*
X019628Y018084D02*
X019628Y018399D01*
X019824Y018399D02*
X019824Y018084D01*
X020021Y018084D02*
X020021Y018399D01*
X020218Y018399D02*
X020218Y018084D01*
X020415Y018084D02*
X020415Y018399D01*
X020612Y018399D02*
X020612Y018084D01*
X020809Y018084D02*
X020809Y018399D01*
X021006Y018399D02*
X021006Y018084D01*
X021202Y018212D02*
X021202Y018370D01*
X021370Y018537D02*
X021488Y018537D01*
X021340Y018734D02*
X021655Y018734D01*
X021655Y018931D02*
X021340Y018931D01*
X021340Y019128D02*
X021655Y019128D01*
X021655Y019324D02*
X021340Y019324D01*
X021340Y019521D02*
X021655Y019521D01*
X021655Y019718D02*
X021340Y019718D01*
X021340Y019915D02*
X021655Y019915D01*
X021655Y020112D02*
X021340Y020112D01*
X021340Y020309D02*
X021655Y020309D01*
X021655Y020506D02*
X021340Y020506D01*
X021370Y020702D02*
X021527Y020702D01*
X021202Y020870D02*
X021202Y021027D01*
X021006Y021155D02*
X021006Y020840D01*
X020809Y020840D02*
X020809Y021155D01*
X020612Y021155D02*
X020612Y020840D01*
X020415Y020840D02*
X020415Y021155D01*
X020218Y021155D02*
X020218Y020840D01*
X020021Y020840D02*
X020021Y021155D01*
X019824Y021155D02*
X019824Y020840D01*
X019628Y020840D02*
X019628Y021155D01*
X019431Y021155D02*
X019431Y020840D01*
X019234Y020840D02*
X019234Y021155D01*
X019037Y021027D02*
X019037Y020870D01*
X018870Y020702D02*
X018712Y020702D01*
D27*
X020120Y019620D03*
X008120Y024120D03*
D28*
X016143Y028336D03*
X016340Y028336D03*
X016537Y028336D03*
X016734Y028336D03*
X016931Y028336D03*
X017128Y028336D03*
X017324Y028336D03*
X017521Y028336D03*
X017718Y028336D03*
X017915Y028336D03*
X018112Y028336D03*
X018309Y028336D03*
X018506Y028336D03*
X018702Y028336D03*
X018899Y028336D03*
X019096Y028336D03*
X019096Y032903D03*
X018899Y032903D03*
X018702Y032903D03*
X018506Y032903D03*
X018309Y032903D03*
X018112Y032903D03*
X017915Y032903D03*
X017718Y032903D03*
X017521Y032903D03*
X017324Y032903D03*
X017128Y032903D03*
X016931Y032903D03*
X016734Y032903D03*
X016537Y032903D03*
X016340Y032903D03*
X016143Y032903D03*
D29*
X015336Y032096D03*
X015336Y031899D03*
X015336Y031702D03*
X015336Y031506D03*
X015336Y031309D03*
X015336Y031112D03*
X015336Y030915D03*
X015336Y030718D03*
X015336Y030521D03*
X015336Y030324D03*
X015336Y030128D03*
X015336Y029931D03*
X015336Y029734D03*
X015336Y029537D03*
X015336Y029340D03*
X015336Y029143D03*
X019903Y029143D03*
X019903Y029340D03*
X019903Y029537D03*
X019903Y029734D03*
X019903Y029931D03*
X019903Y030128D03*
X019903Y030324D03*
X019903Y030521D03*
X019903Y030718D03*
X019903Y030915D03*
X019903Y031112D03*
X019903Y031309D03*
X019903Y031506D03*
X019903Y031702D03*
X019903Y031899D03*
X019903Y032096D03*
D30*
X022983Y032246D03*
X022983Y032620D03*
X022983Y032994D03*
X024006Y032994D03*
X024006Y032246D03*
X022881Y007744D03*
X022881Y007370D03*
X022881Y006996D03*
X021858Y006996D03*
X021858Y007744D03*
D31*
X029808Y033295D03*
X030182Y033295D03*
X030556Y033295D03*
X030556Y034319D03*
X029808Y034319D03*
D32*
X030995Y029415D03*
X030995Y028824D03*
X028245Y024477D03*
X028245Y023887D03*
X027120Y019040D03*
X027120Y018449D03*
X025370Y012290D03*
X025370Y011699D03*
X025370Y011165D03*
X025370Y010574D03*
X024620Y010790D03*
X024620Y011324D03*
X024620Y011915D03*
X024620Y010199D03*
X019620Y013199D03*
X019620Y013790D03*
X019620Y014449D03*
X019620Y015040D03*
X019620Y015699D03*
X019620Y016290D03*
X018120Y016415D03*
X018120Y015824D03*
X017495Y015824D03*
X016870Y015824D03*
X016870Y016415D03*
X017495Y016415D03*
X016245Y016415D03*
X016245Y015824D03*
X016495Y018074D03*
X017120Y018074D03*
X017120Y018665D03*
X017120Y019137D03*
X016495Y019137D03*
X016495Y018665D03*
X015870Y019137D03*
X015870Y019727D03*
X016495Y019727D03*
X017120Y019727D03*
X017620Y020824D03*
X017620Y021415D03*
X019495Y022199D03*
X019495Y022790D03*
X020120Y022790D03*
X020120Y022199D03*
X018057Y018415D03*
X018057Y017824D03*
X015120Y018824D03*
X015120Y019415D03*
X007870Y019449D03*
X007870Y020040D03*
X006870Y020199D03*
X006870Y020790D03*
X006245Y020790D03*
X006245Y020199D03*
X005120Y021949D03*
X005120Y022540D03*
X004495Y022540D03*
X004495Y021949D03*
X004495Y023074D03*
X004495Y023665D03*
X005120Y023665D03*
X005120Y023074D03*
X005870Y022915D03*
X005870Y022324D03*
X003870Y023074D03*
X003870Y023665D03*
X002995Y023290D03*
X002995Y022699D03*
X005745Y025199D03*
X005745Y025790D03*
X008120Y027074D03*
X008745Y026949D03*
X008745Y027540D03*
X008120Y027665D03*
X010495Y029949D03*
X010495Y030540D03*
X010120Y033199D03*
X010120Y033790D03*
X015620Y033915D03*
X015620Y033324D03*
X019682Y033449D03*
X019682Y034040D03*
X020432Y034040D03*
X020432Y033449D03*
X021620Y032915D03*
X021620Y032324D03*
X007870Y017040D03*
X007870Y016449D03*
X007120Y013915D03*
X007120Y013324D03*
X007120Y012790D03*
X007120Y012199D03*
X007120Y011540D03*
X007120Y010949D03*
X007120Y010415D03*
X007120Y009824D03*
X011495Y010699D03*
X011495Y011290D03*
X012495Y011290D03*
X012495Y010699D03*
X016620Y008977D03*
X016620Y008387D03*
X016620Y007790D03*
X016620Y007199D03*
X017682Y004977D03*
X017682Y004387D03*
X016932Y004290D03*
X016932Y003699D03*
X016307Y003699D03*
X016307Y004290D03*
X016370Y002790D03*
X016995Y002790D03*
X016995Y002199D03*
X016370Y002199D03*
X015745Y002199D03*
X015745Y002790D03*
X017745Y002790D03*
X017745Y002199D03*
X012932Y004574D03*
X012932Y005165D03*
X012182Y005165D03*
X012182Y004574D03*
X011370Y004574D03*
X011370Y005165D03*
X010370Y005165D03*
X010370Y004574D03*
X009245Y004574D03*
X009245Y005165D03*
D33*
X009449Y005870D03*
X010040Y005870D03*
X010574Y005870D03*
X011165Y005870D03*
X011699Y005870D03*
X012290Y005870D03*
X012824Y005870D03*
X013415Y005870D03*
X013512Y003932D03*
X014102Y003932D03*
X014102Y003245D03*
X013512Y003245D03*
X015387Y008120D03*
X015977Y008120D03*
X016074Y009682D03*
X016665Y009682D03*
X016665Y010495D03*
X016074Y010495D03*
X018324Y013120D03*
X018915Y013120D03*
X018915Y014120D03*
X018324Y014120D03*
X018324Y015120D03*
X018915Y015120D03*
X018949Y016995D03*
X019540Y016995D03*
X017915Y017245D03*
X017324Y017245D03*
X016790Y017245D03*
X016199Y017245D03*
X016290Y020495D03*
X015699Y020495D03*
X015699Y021120D03*
X016290Y021120D03*
X016824Y024932D03*
X017415Y024932D03*
X021699Y026995D03*
X022290Y026995D03*
X022949Y026995D03*
X023540Y026995D03*
X023540Y027745D03*
X022949Y027745D03*
X022290Y027745D03*
X021699Y027745D03*
X022199Y025182D03*
X022790Y025182D03*
X022790Y024120D03*
X022199Y024120D03*
X027324Y020995D03*
X027915Y020995D03*
X028824Y021620D03*
X029415Y021620D03*
X026415Y018745D03*
X025824Y018745D03*
X023165Y016495D03*
X022574Y016495D03*
X022290Y017120D03*
X021699Y017120D03*
X021699Y017745D03*
X022290Y017745D03*
X022290Y015870D03*
X021699Y015870D03*
X024949Y012870D03*
X025540Y012870D03*
X022540Y009870D03*
X021949Y009870D03*
X021949Y009120D03*
X022540Y009120D03*
X023074Y009120D03*
X023665Y009120D03*
X022540Y006370D03*
X021949Y006370D03*
X019541Y007995D03*
X018950Y007995D03*
X018977Y005932D03*
X018387Y005932D03*
X012290Y010120D03*
X011699Y010120D03*
X011915Y012620D03*
X011324Y012620D03*
X010790Y012620D03*
X010199Y012620D03*
X010199Y013620D03*
X010790Y013620D03*
X011324Y013620D03*
X011915Y013620D03*
X006415Y010745D03*
X005824Y010745D03*
X010574Y020745D03*
X011165Y020745D03*
X011324Y021370D03*
X011915Y021370D03*
X011165Y021995D03*
X010574Y021995D03*
X010574Y022620D03*
X011165Y022620D03*
X009540Y020870D03*
X008949Y020870D03*
X008415Y020870D03*
X007824Y020870D03*
X005290Y021370D03*
X004699Y021370D03*
X004165Y021370D03*
X003574Y021370D03*
X004324Y024370D03*
X004915Y024370D03*
X004665Y025120D03*
X004074Y025120D03*
X004949Y028870D03*
X005540Y028870D03*
X010449Y029370D03*
X011040Y029370D03*
X012449Y030120D03*
X013040Y030120D03*
X013040Y031120D03*
X012449Y031120D03*
X014449Y032745D03*
X015040Y032745D03*
X029824Y031182D03*
X030415Y031182D03*
X030415Y026870D03*
X029824Y026870D03*
X029824Y025870D03*
X030415Y025870D03*
D34*
X013745Y030128D03*
X013745Y031112D03*
D35*
X016588Y023946D03*
X017651Y023946D03*
X017651Y022293D03*
X016588Y022293D03*
X005776Y026418D03*
X004713Y026418D03*
X004713Y028071D03*
X005776Y028071D03*
D36*
X016199Y006381D03*
X016396Y006381D03*
X016593Y006381D03*
X016790Y006381D03*
X016790Y005358D03*
X016593Y005358D03*
X016396Y005358D03*
X016199Y005358D03*
D37*
X015983Y005574D03*
X015983Y005771D03*
X015983Y005968D03*
X015983Y006165D03*
X017006Y006165D03*
X017006Y005968D03*
X017006Y005771D03*
X017006Y005574D03*
D38*
X016495Y005870D03*
D39*
X007848Y007601D03*
X007848Y007798D03*
X007848Y007995D03*
X007848Y008192D03*
X007848Y008388D03*
X006391Y008388D03*
X006391Y008192D03*
X006391Y007995D03*
X006391Y007798D03*
X006391Y007601D03*
D40*
X007120Y007995D03*
D41*
X007120Y008723D03*
X007317Y008723D03*
X007513Y008723D03*
X006923Y008723D03*
X006726Y008723D03*
X006726Y007266D03*
X006923Y007266D03*
X007120Y007266D03*
X007317Y007266D03*
X007513Y007266D03*
D42*
X007495Y014772D03*
X007869Y014772D03*
X007121Y014772D03*
X007121Y015717D03*
X007495Y015717D03*
X007869Y015717D03*
D43*
X003245Y007995D03*
D44*
X004245Y008995D03*
X004245Y006995D03*
X002245Y006995D03*
X002245Y008995D03*
D45*
X012707Y002245D03*
X014282Y002245D03*
X015395Y011495D03*
X016970Y011495D03*
D46*
X014745Y005803D03*
X014745Y004937D03*
D47*
X012120Y034495D03*
X011620Y034495D03*
X011120Y034495D03*
X010620Y034495D03*
X010120Y034495D03*
X010120Y036495D03*
X010620Y036495D03*
X011120Y036495D03*
X011620Y036495D03*
X012120Y036495D03*
D48*
X028870Y030018D03*
X029370Y030018D03*
X029870Y030018D03*
X030370Y030018D03*
X030370Y027971D03*
X029870Y027971D03*
X029370Y027971D03*
X028870Y027971D03*
D49*
X029808Y031995D03*
X030556Y031995D03*
X030619Y035370D03*
X029871Y035370D03*
X028181Y009557D03*
X027433Y009557D03*
D50*
X023620Y024308D03*
X023620Y025056D03*
X006120Y016619D03*
X006120Y015871D03*
D51*
X005120Y015884D03*
X005120Y017105D03*
D52*
X007506Y018245D03*
X008234Y018245D03*
D53*
X007870Y018904D03*
X007870Y017585D03*
D54*
X010304Y014905D03*
X010501Y014905D03*
X010697Y014905D03*
X010697Y014334D03*
X010304Y014334D03*
X011429Y014334D03*
X011822Y014334D03*
X011822Y014905D03*
X011626Y014905D03*
X011429Y014905D03*
D55*
X011483Y009369D03*
X011483Y008995D03*
X011483Y008621D03*
X012506Y008621D03*
X012506Y008995D03*
X012506Y009369D03*
D56*
X033084Y009124D03*
X033084Y010124D03*
X033084Y011124D03*
X033084Y012124D03*
X033084Y013124D03*
X033084Y014124D03*
X033084Y015124D03*
X033084Y016124D03*
X033084Y017124D03*
X033084Y018124D03*
X033084Y019124D03*
X033084Y020124D03*
X033084Y021124D03*
X033084Y022124D03*
X033084Y023124D03*
X033084Y024124D03*
X033084Y025124D03*
X033084Y026124D03*
X033084Y027124D03*
X033084Y028124D03*
X033084Y029124D03*
X033084Y030124D03*
X033084Y031124D03*
X034084Y031124D03*
X034084Y030124D03*
X034084Y029124D03*
X034084Y028124D03*
X034084Y027124D03*
X034084Y026124D03*
X034084Y025124D03*
X034084Y024124D03*
X034084Y023124D03*
X034084Y022124D03*
X034084Y021124D03*
X034084Y020124D03*
X034084Y019124D03*
X034084Y018124D03*
X034084Y017124D03*
X034084Y016124D03*
X034084Y015124D03*
X034084Y014124D03*
X034084Y013124D03*
X034084Y012124D03*
X034084Y011124D03*
X034084Y010124D03*
X034084Y009124D03*
X034084Y008124D03*
X033084Y008124D03*
X033084Y007124D03*
X033084Y006124D03*
X034084Y006124D03*
X034084Y007124D03*
D57*
X003663Y003663D03*
X033584Y003663D03*
X033584Y033584D03*
X003663Y033584D03*
D58*
X027745Y020163D03*
X027995Y020163D03*
X028245Y020163D03*
X028495Y020163D03*
X028745Y020163D03*
X028995Y020163D03*
X029245Y020163D03*
X029495Y020163D03*
X029495Y018076D03*
X029245Y018076D03*
X028995Y018076D03*
X028745Y018076D03*
X028495Y018076D03*
X028245Y018076D03*
X027995Y018076D03*
X027745Y018076D03*
D59*
X026620Y013620D03*
X026620Y013120D03*
X026620Y012620D03*
X026620Y012120D03*
X026620Y011620D03*
X026620Y011120D03*
X026620Y010620D03*
D60*
X029496Y012120D03*
D61*
X027870Y021812D03*
X028244Y022678D03*
X027496Y022678D03*
D62*
X027177Y016120D03*
X027177Y014932D03*
X028437Y014932D03*
X028437Y016120D03*
X028437Y008495D03*
X028437Y007245D03*
X027177Y007245D03*
X027177Y008495D03*
D63*
X020432Y034512D03*
X020432Y035102D03*
X019682Y035102D03*
X019682Y034512D03*
D64*
X009778Y031533D03*
X009486Y032620D03*
X008368Y031982D03*
X007014Y031982D03*
X005699Y031533D03*
X005502Y031604D03*
D65*
X005498Y031360D03*
X005703Y031423D03*
X008065Y032620D03*
X008994Y031659D03*
X008994Y031305D03*
X009971Y031604D03*
D66*
X009975Y031360D03*
X009770Y031407D03*
X009770Y031423D03*
X009203Y031242D03*
X009203Y031722D03*
X006715Y032620D03*
X005707Y031557D03*
X005707Y031549D03*
X005707Y031541D03*
X005707Y031415D03*
X005707Y031407D03*
D67*
X005648Y031486D03*
X005553Y031328D03*
X008419Y031998D03*
X009482Y032612D03*
X009829Y031494D03*
X009829Y031478D03*
D68*
X009825Y031486D03*
X009919Y031328D03*
X009148Y031234D03*
X008061Y032612D03*
X006352Y031730D03*
X005549Y031628D03*
X005549Y031620D03*
X005549Y031612D03*
X005549Y031352D03*
X005549Y031344D03*
X005549Y031336D03*
D69*
X006711Y032612D03*
X009152Y031730D03*
X009923Y031628D03*
X009923Y031620D03*
X009923Y031612D03*
X009923Y031352D03*
X009923Y031344D03*
X009923Y031336D03*
D70*
X008419Y030966D03*
X008419Y030958D03*
X008419Y030950D03*
X008419Y030943D03*
X008419Y030935D03*
X008419Y030927D03*
X008419Y030895D03*
X008419Y030887D03*
X008419Y030880D03*
X008419Y030872D03*
X008419Y030864D03*
X008419Y030856D03*
X008419Y030848D03*
X008419Y030840D03*
X008412Y030817D03*
X007679Y030872D03*
X007679Y030880D03*
X007679Y030887D03*
X007679Y030895D03*
X007073Y030895D03*
X007073Y030887D03*
X007073Y030880D03*
X007073Y030872D03*
X007065Y030848D03*
X007065Y030840D03*
X007065Y030832D03*
X007065Y030824D03*
X007073Y030903D03*
X007073Y030911D03*
X007073Y030919D03*
X007073Y030927D03*
X007073Y030935D03*
X007073Y030943D03*
X007065Y030958D03*
X007065Y030966D03*
X007065Y030974D03*
X007065Y030982D03*
X006687Y030383D03*
X006333Y030856D03*
X006325Y030887D03*
X006325Y030895D03*
X006309Y032013D03*
X006309Y032021D03*
X006309Y032029D03*
X006309Y032037D03*
X006309Y032045D03*
X006309Y032053D03*
X006309Y032124D03*
X006309Y032131D03*
X006309Y032139D03*
X006309Y032147D03*
X006309Y032155D03*
X006317Y032163D03*
X006317Y032171D03*
X007104Y032029D03*
X007104Y032021D03*
X007104Y032013D03*
X007656Y032037D03*
X007656Y032045D03*
X007656Y032053D03*
X007656Y032061D03*
X007656Y032069D03*
X007656Y032076D03*
X007656Y032084D03*
X007656Y032092D03*
X007656Y032100D03*
X007656Y032108D03*
X007656Y032116D03*
X007656Y032124D03*
X007663Y032147D03*
X007663Y032155D03*
X007663Y032163D03*
X008451Y032053D03*
X009482Y032604D03*
D71*
X008447Y032006D03*
X008061Y032604D03*
X006707Y032604D03*
X007691Y030903D03*
D72*
X008041Y030391D03*
X008356Y031131D03*
X008349Y031139D03*
X008349Y031147D03*
X009144Y030730D03*
X007726Y031832D03*
X007719Y031848D03*
X008380Y032250D03*
X009144Y032257D03*
X009482Y032596D03*
X009821Y032257D03*
X007034Y032242D03*
X007026Y032250D03*
X006364Y032257D03*
X006372Y031840D03*
X006380Y031832D03*
X007002Y031139D03*
X007018Y030722D03*
X006396Y030722D03*
X006388Y030730D03*
D73*
X006364Y030761D03*
X006364Y030769D03*
X007034Y030746D03*
X007041Y030754D03*
X007041Y031061D03*
X007041Y031069D03*
X007034Y031076D03*
X006923Y031202D03*
X007711Y030769D03*
X007719Y030761D03*
X008388Y030754D03*
X008388Y030746D03*
X008388Y031069D03*
X009112Y030785D03*
X009120Y030769D03*
X009482Y030383D03*
X009845Y030761D03*
X009845Y030769D03*
X009852Y030777D03*
X009852Y030785D03*
X009852Y032202D03*
X009852Y032210D03*
X009845Y032218D03*
X009120Y032218D03*
X009120Y032210D03*
X009112Y032202D03*
X009112Y032194D03*
X008419Y032179D03*
X008412Y032187D03*
X008412Y032194D03*
X008057Y032596D03*
X007695Y032234D03*
X007687Y031919D03*
X007687Y031911D03*
X007695Y031895D03*
X007065Y032187D03*
X007057Y032202D03*
X006703Y032596D03*
X006341Y032226D03*
X006333Y031927D03*
X006333Y031919D03*
X006341Y031911D03*
X006341Y031903D03*
D74*
X006994Y032281D03*
X007750Y032281D03*
X008341Y032281D03*
X009175Y032281D03*
X009482Y032588D03*
X009789Y032281D03*
D75*
X009801Y032273D03*
X009163Y032273D03*
X008053Y032588D03*
X007754Y031793D03*
X007762Y031785D03*
X008321Y031187D03*
X008329Y031179D03*
X006975Y031179D03*
X006998Y030706D03*
X006415Y031777D03*
X006408Y031785D03*
X006384Y032273D03*
X007014Y032265D03*
X009809Y030714D03*
D76*
X009482Y030391D03*
X009160Y030714D03*
X008333Y031171D03*
X007750Y030714D03*
X006986Y031163D03*
X006978Y031171D03*
X006923Y031289D03*
X006427Y031738D03*
X006404Y031793D03*
X006396Y031801D03*
X006703Y032588D03*
X007742Y031809D03*
X007750Y031801D03*
X008364Y032265D03*
X008372Y032257D03*
X009152Y032265D03*
X009813Y032265D03*
X006404Y030714D03*
D77*
X006349Y030801D03*
X006349Y030809D03*
X006341Y030817D03*
X006341Y030824D03*
X005600Y030824D03*
X005600Y030817D03*
X005600Y030809D03*
X005600Y030801D03*
X005600Y030793D03*
X005600Y030785D03*
X005600Y030777D03*
X005600Y030769D03*
X005600Y030761D03*
X005600Y030754D03*
X005600Y030746D03*
X005600Y030738D03*
X005600Y030730D03*
X005600Y030722D03*
X005600Y030714D03*
X005600Y030706D03*
X005600Y030698D03*
X005600Y030691D03*
X005600Y030683D03*
X005600Y030675D03*
X005600Y030667D03*
X005600Y030659D03*
X005600Y030651D03*
X005600Y030643D03*
X005600Y030635D03*
X005600Y030628D03*
X005600Y030620D03*
X005600Y030612D03*
X005600Y030604D03*
X005600Y030596D03*
X005600Y030588D03*
X005600Y030580D03*
X005600Y030572D03*
X005600Y030565D03*
X005600Y030557D03*
X005600Y030549D03*
X005600Y030541D03*
X005600Y030533D03*
X005600Y030525D03*
X005600Y030517D03*
X005600Y030509D03*
X005600Y030502D03*
X005600Y030494D03*
X005600Y030486D03*
X005600Y030478D03*
X005600Y030470D03*
X005600Y030462D03*
X005600Y030454D03*
X005600Y030446D03*
X005600Y030439D03*
X005600Y030431D03*
X005600Y030423D03*
X005600Y030415D03*
X005600Y030407D03*
X005600Y030399D03*
X005600Y030391D03*
X005600Y030832D03*
X005600Y030840D03*
X005600Y030848D03*
X005600Y030856D03*
X005600Y030864D03*
X005600Y030872D03*
X005600Y030880D03*
X005600Y030887D03*
X005600Y030895D03*
X005600Y030903D03*
X005600Y030911D03*
X005600Y030919D03*
X005600Y030927D03*
X005600Y030935D03*
X005600Y030943D03*
X005600Y030950D03*
X005600Y030958D03*
X005600Y030966D03*
X005600Y030974D03*
X005600Y030982D03*
X005600Y030990D03*
X005600Y030998D03*
X005600Y031006D03*
X005600Y031013D03*
X005600Y031021D03*
X005600Y031029D03*
X005600Y031037D03*
X005600Y031045D03*
X005600Y031053D03*
X005600Y031061D03*
X005600Y031069D03*
X005600Y031076D03*
X005600Y031084D03*
X005600Y031092D03*
X005600Y031100D03*
X005600Y031108D03*
X005600Y031116D03*
X005600Y031124D03*
X005600Y031131D03*
X005600Y031139D03*
X005600Y031147D03*
X005600Y031155D03*
X005600Y031163D03*
X005600Y031171D03*
X005600Y031179D03*
X005600Y031187D03*
X005600Y031194D03*
X005600Y031202D03*
X005600Y031210D03*
X005600Y031218D03*
X005600Y031226D03*
X005600Y031234D03*
X005600Y031242D03*
X005600Y031250D03*
X005600Y031257D03*
X005600Y031265D03*
X005600Y031273D03*
X005600Y031281D03*
X005600Y031289D03*
X005600Y031297D03*
X005600Y031305D03*
X005600Y031313D03*
X005600Y031643D03*
X005600Y031651D03*
X005600Y031659D03*
X005600Y031667D03*
X005600Y031675D03*
X005600Y031683D03*
X005600Y031691D03*
X005600Y031698D03*
X005600Y031706D03*
X005600Y031714D03*
X005600Y031722D03*
X005600Y031730D03*
X005600Y031738D03*
X005600Y031746D03*
X005600Y031754D03*
X005600Y031761D03*
X005600Y031769D03*
X005600Y031777D03*
X005600Y031785D03*
X005600Y031793D03*
X005600Y031801D03*
X005600Y031809D03*
X005600Y031817D03*
X005600Y031824D03*
X005600Y031832D03*
X005600Y031840D03*
X005600Y031848D03*
X005600Y031856D03*
X005600Y031864D03*
X005600Y031872D03*
X005600Y031880D03*
X005600Y031887D03*
X005600Y031895D03*
X005600Y031903D03*
X005600Y031911D03*
X005600Y031919D03*
X005600Y031927D03*
X005600Y031935D03*
X005600Y031943D03*
X005600Y031950D03*
X005600Y031958D03*
X005600Y031966D03*
X005600Y031974D03*
X005600Y031982D03*
X005600Y031990D03*
X005600Y031998D03*
X005600Y032006D03*
X005600Y032013D03*
X005600Y032021D03*
X005600Y032029D03*
X005600Y032037D03*
X005600Y032045D03*
X005600Y032053D03*
X005600Y032061D03*
X005600Y032069D03*
X005600Y032076D03*
X005600Y032084D03*
X005600Y032092D03*
X005600Y032100D03*
X005600Y032108D03*
X005600Y032116D03*
X005600Y032124D03*
X005600Y032131D03*
X005600Y032139D03*
X005600Y032147D03*
X005600Y032155D03*
X005600Y032163D03*
X005600Y032171D03*
X005600Y032179D03*
X005600Y032187D03*
X005600Y032194D03*
X005600Y032202D03*
X005600Y032210D03*
X005600Y032218D03*
X005600Y032226D03*
X005600Y032234D03*
X005600Y032242D03*
X005600Y032250D03*
X005600Y032257D03*
X005600Y032265D03*
X005600Y032273D03*
X005600Y032281D03*
X005600Y032289D03*
X005600Y032297D03*
X005600Y032305D03*
X005600Y032313D03*
X005600Y032320D03*
X005600Y032328D03*
X005600Y032336D03*
X005600Y032344D03*
X005600Y032352D03*
X005600Y032360D03*
X005600Y032368D03*
X005600Y032376D03*
X005600Y032383D03*
X005600Y032391D03*
X005600Y032399D03*
X005600Y032407D03*
X005600Y032415D03*
X005600Y032423D03*
X005600Y032431D03*
X005600Y032439D03*
X005600Y032446D03*
X005600Y032454D03*
X005600Y032462D03*
X005600Y032470D03*
X005600Y032478D03*
X005600Y032486D03*
X005600Y032494D03*
X005600Y032502D03*
X005600Y032509D03*
X005600Y032517D03*
X005600Y032525D03*
X005600Y032533D03*
X005600Y032541D03*
X005600Y032549D03*
X005600Y032557D03*
X005600Y032565D03*
X005600Y032572D03*
X005600Y032580D03*
X005600Y032588D03*
X006325Y032202D03*
X006325Y032194D03*
X006333Y032210D03*
X006317Y031982D03*
X006317Y031974D03*
X006317Y031966D03*
X006325Y031958D03*
X006325Y031950D03*
X007081Y032139D03*
X007081Y032147D03*
X007089Y032124D03*
X007089Y032116D03*
X007089Y032108D03*
X007097Y032084D03*
X007097Y032076D03*
X007663Y031998D03*
X007671Y031966D03*
X007671Y031958D03*
X007679Y032202D03*
X007679Y032210D03*
X008427Y032155D03*
X008435Y032131D03*
X008435Y032124D03*
X008443Y032108D03*
X008443Y032100D03*
X008443Y032092D03*
X009097Y032092D03*
X009097Y032084D03*
X009097Y032076D03*
X009097Y032069D03*
X009097Y032061D03*
X009097Y032053D03*
X009097Y032045D03*
X009097Y032037D03*
X009097Y032029D03*
X009097Y032021D03*
X009097Y032013D03*
X009097Y032006D03*
X009097Y031998D03*
X009097Y031990D03*
X009097Y031982D03*
X009097Y031974D03*
X009097Y031966D03*
X009097Y031958D03*
X009097Y031950D03*
X009097Y031943D03*
X009097Y031935D03*
X009097Y031927D03*
X009097Y031919D03*
X009097Y031911D03*
X009097Y031903D03*
X009097Y031895D03*
X009097Y031887D03*
X009097Y031880D03*
X009097Y031872D03*
X009097Y031864D03*
X009097Y031856D03*
X009097Y031848D03*
X009097Y031840D03*
X009097Y031832D03*
X009097Y031824D03*
X009097Y031817D03*
X009097Y031809D03*
X009097Y031801D03*
X009097Y031793D03*
X009097Y031785D03*
X009097Y031777D03*
X009097Y031769D03*
X009097Y031761D03*
X009097Y031754D03*
X009097Y031746D03*
X009097Y031738D03*
X009097Y031635D03*
X009097Y031628D03*
X009097Y031620D03*
X009097Y031612D03*
X009097Y031604D03*
X009097Y031596D03*
X009097Y031588D03*
X009097Y031580D03*
X009097Y031572D03*
X009097Y031565D03*
X009097Y031557D03*
X009097Y031549D03*
X009097Y031541D03*
X009097Y031533D03*
X009097Y031525D03*
X009097Y031517D03*
X009097Y031509D03*
X009097Y031502D03*
X009097Y031494D03*
X009097Y031486D03*
X009097Y031478D03*
X009097Y031470D03*
X009097Y031462D03*
X009097Y031454D03*
X009097Y031446D03*
X009097Y031439D03*
X009097Y031431D03*
X009097Y031423D03*
X009097Y031415D03*
X009097Y031407D03*
X009097Y031399D03*
X009097Y031391D03*
X009097Y031383D03*
X009097Y031376D03*
X009097Y031368D03*
X009097Y031360D03*
X009097Y031352D03*
X009097Y031344D03*
X009097Y031336D03*
X009097Y031328D03*
X009097Y031226D03*
X009097Y031218D03*
X009097Y031210D03*
X009097Y031202D03*
X009097Y031194D03*
X009097Y031187D03*
X009097Y031179D03*
X009097Y031171D03*
X009097Y031163D03*
X009097Y031155D03*
X009097Y031147D03*
X009097Y031139D03*
X009097Y031131D03*
X009097Y031124D03*
X009097Y031116D03*
X009097Y031108D03*
X009097Y031100D03*
X009097Y031092D03*
X009097Y031084D03*
X009097Y031076D03*
X009097Y031069D03*
X009097Y031061D03*
X009097Y031053D03*
X009097Y031045D03*
X009097Y031037D03*
X009097Y031029D03*
X009097Y031021D03*
X009097Y031013D03*
X009097Y031006D03*
X009097Y030998D03*
X009097Y030990D03*
X009097Y030982D03*
X009097Y030974D03*
X009097Y030966D03*
X009097Y030958D03*
X009097Y030950D03*
X009097Y030943D03*
X009097Y030935D03*
X009097Y030927D03*
X009097Y030919D03*
X009097Y030911D03*
X009097Y030903D03*
X009097Y030895D03*
X009097Y030887D03*
X009097Y030880D03*
X009097Y030872D03*
X009097Y030864D03*
X009097Y030856D03*
X009097Y030848D03*
X009104Y030824D03*
X009104Y030817D03*
X008404Y030785D03*
X008404Y030777D03*
X008412Y030998D03*
X008404Y031021D03*
X008404Y031029D03*
X007703Y030793D03*
X007695Y030809D03*
X007695Y030817D03*
X007687Y030840D03*
X007057Y030793D03*
X007049Y030777D03*
X007057Y031013D03*
X007057Y031021D03*
X007049Y031029D03*
X007049Y031037D03*
X009097Y032100D03*
X009097Y032108D03*
X009097Y032116D03*
X009097Y032124D03*
X009097Y032131D03*
X009104Y032163D03*
X009860Y032171D03*
X009868Y032139D03*
X009868Y032131D03*
X009868Y032124D03*
X009868Y032116D03*
X009868Y032108D03*
X009868Y032100D03*
X009868Y032092D03*
X009868Y032084D03*
X009868Y030903D03*
X009868Y030895D03*
X009868Y030887D03*
X009868Y030880D03*
X009868Y030872D03*
X009868Y030864D03*
X009868Y030856D03*
X009868Y030848D03*
X009868Y030840D03*
X009860Y030809D03*
D78*
X009486Y032580D03*
X007872Y031651D03*
X007864Y031659D03*
X007856Y031667D03*
X007849Y031675D03*
X006880Y031297D03*
X006872Y031305D03*
D79*
X006982Y030698D03*
X006431Y030698D03*
X006400Y032281D03*
X008053Y032580D03*
X008329Y030698D03*
D80*
X007782Y030698D03*
X007829Y031698D03*
X006703Y032580D03*
X009482Y030399D03*
D81*
X008136Y031391D03*
X008128Y031399D03*
X007955Y031565D03*
X006805Y031376D03*
X006797Y031383D03*
X006789Y031391D03*
X006782Y031399D03*
X006774Y031407D03*
X006766Y031415D03*
X006632Y031541D03*
X006624Y031549D03*
X006616Y031557D03*
X006608Y031565D03*
X006600Y031572D03*
X006593Y031580D03*
X008049Y032565D03*
X009482Y032572D03*
D82*
X008049Y032572D03*
X008207Y031320D03*
X008215Y031313D03*
X008223Y031305D03*
X006868Y031313D03*
X006860Y031320D03*
X006538Y031635D03*
X006530Y031643D03*
X006703Y032572D03*
D83*
X008049Y032557D03*
X009482Y032565D03*
D84*
X008124Y031407D03*
X008116Y031415D03*
X008108Y031423D03*
X008100Y031431D03*
X008093Y031439D03*
X008085Y031446D03*
X008014Y031509D03*
X008006Y031517D03*
X007998Y031525D03*
X007990Y031533D03*
X007982Y031541D03*
X007975Y031549D03*
X007967Y031557D03*
X006754Y031423D03*
X006746Y031431D03*
X006738Y031439D03*
X006730Y031446D03*
X006723Y031454D03*
X006715Y031462D03*
X006707Y031470D03*
X006699Y031478D03*
X006691Y031486D03*
X006683Y031494D03*
X006675Y031502D03*
X006667Y031509D03*
X006660Y031517D03*
X006652Y031525D03*
X006644Y031533D03*
X006699Y032565D03*
D85*
X006695Y032549D03*
X008049Y032549D03*
X009482Y032557D03*
D86*
X006699Y032557D03*
D87*
X008049Y032541D03*
X009482Y032549D03*
X008049Y030446D03*
D88*
X009482Y032541D03*
D89*
X006699Y032541D03*
D90*
X006695Y032525D03*
X006703Y030462D03*
X008049Y030462D03*
X009482Y032533D03*
D91*
X008045Y032533D03*
X006699Y032533D03*
X006699Y030454D03*
X008053Y030454D03*
D92*
X009482Y032525D03*
D93*
X008045Y032525D03*
X009486Y030446D03*
D94*
X009482Y032517D03*
X006695Y032509D03*
X006703Y030478D03*
D95*
X006699Y030470D03*
X008053Y030470D03*
X008045Y032517D03*
D96*
X006695Y032517D03*
X009482Y030454D03*
D97*
X008053Y030494D03*
X009486Y032509D03*
D98*
X008045Y032509D03*
X008053Y030478D03*
X009486Y030462D03*
D99*
X009482Y030486D03*
X008057Y030502D03*
X006703Y030502D03*
X006695Y032486D03*
X009482Y032502D03*
D100*
X008045Y032502D03*
X008053Y030486D03*
D101*
X009482Y030470D03*
X006703Y030486D03*
X006695Y032502D03*
D102*
X006695Y032478D03*
X006703Y030509D03*
X008057Y030509D03*
X009482Y032494D03*
D103*
X008041Y032494D03*
X006695Y032494D03*
X006703Y030494D03*
X009482Y030478D03*
D104*
X008057Y030517D03*
X006703Y030517D03*
X006695Y032470D03*
X009482Y032486D03*
D105*
X008045Y032486D03*
D106*
X009482Y032478D03*
X008057Y030525D03*
X006703Y030525D03*
X006695Y032462D03*
D107*
X008045Y032478D03*
X009486Y030494D03*
D108*
X009482Y030509D03*
X009482Y032470D03*
X006695Y032454D03*
D109*
X008045Y032470D03*
X009486Y030502D03*
D110*
X009482Y030517D03*
X009482Y032462D03*
X008041Y032446D03*
X006695Y032446D03*
D111*
X008045Y032462D03*
X008053Y030533D03*
X006707Y030533D03*
D112*
X006703Y030557D03*
X008057Y030557D03*
X008041Y032439D03*
X009482Y032454D03*
X006695Y032439D03*
D113*
X008045Y032454D03*
X008053Y030541D03*
X006707Y030541D03*
D114*
X008057Y030565D03*
X009482Y030541D03*
X009482Y032446D03*
X008041Y032431D03*
X006695Y032431D03*
D115*
X008057Y030580D03*
X009482Y030549D03*
X009482Y032439D03*
D116*
X009482Y032431D03*
X008041Y032407D03*
X006695Y032407D03*
X008057Y030588D03*
X009482Y030557D03*
D117*
X008053Y030596D03*
X006707Y030596D03*
X009486Y032423D03*
D118*
X008045Y032423D03*
X006691Y032423D03*
X006707Y030572D03*
X008053Y030572D03*
D119*
X008057Y030604D03*
X009482Y030565D03*
X009482Y032415D03*
X008041Y032399D03*
X006695Y032399D03*
X006703Y030604D03*
D120*
X006707Y030588D03*
X006707Y030580D03*
X006691Y032415D03*
X008045Y032415D03*
D121*
X008041Y032383D03*
X009482Y032407D03*
X008057Y030620D03*
X009482Y030580D03*
X006695Y032383D03*
D122*
X006707Y030628D03*
X006707Y030620D03*
X009486Y032399D03*
D123*
X009482Y032391D03*
X008041Y032376D03*
X006695Y032376D03*
X008057Y030635D03*
X008057Y030628D03*
X009482Y030588D03*
D124*
X009486Y030572D03*
X008053Y030612D03*
X006707Y030612D03*
X006691Y032391D03*
X008045Y032391D03*
D125*
X008041Y032360D03*
X009482Y032383D03*
X008057Y030651D03*
X008057Y030643D03*
X009482Y030604D03*
X006703Y030651D03*
X006695Y032360D03*
D126*
X006691Y032352D03*
X008045Y032352D03*
X009486Y032376D03*
X008053Y030659D03*
X006707Y030659D03*
D127*
X006703Y030667D03*
X008057Y030667D03*
X009482Y030620D03*
X009482Y030612D03*
X009482Y032368D03*
X006695Y032344D03*
D128*
X006691Y032368D03*
X008045Y032368D03*
X006707Y030643D03*
X006707Y030635D03*
X009486Y030596D03*
D129*
X008053Y030675D03*
X006707Y030675D03*
X008045Y032336D03*
X008045Y032344D03*
X009486Y032360D03*
D130*
X009482Y032352D03*
X009482Y030635D03*
X009482Y030628D03*
X008057Y030683D03*
X008057Y030691D03*
X006703Y030691D03*
X006703Y030683D03*
X006695Y032328D03*
X006695Y032336D03*
D131*
X008045Y032328D03*
X008045Y032320D03*
X009486Y032344D03*
D132*
X009482Y032336D03*
X009482Y030651D03*
X009482Y030643D03*
X006695Y032313D03*
X006695Y032320D03*
D133*
X008045Y032313D03*
X008045Y032305D03*
X009486Y032328D03*
D134*
X009482Y032320D03*
X009482Y030667D03*
X009482Y030659D03*
X006695Y032289D03*
X006695Y032297D03*
X006695Y032305D03*
D135*
X008045Y032297D03*
X008045Y032289D03*
X009486Y032313D03*
X009486Y030675D03*
D136*
X009482Y030683D03*
X009482Y030691D03*
X009482Y032297D03*
X009482Y032305D03*
D137*
X009486Y032289D03*
D138*
X008356Y032273D03*
X007734Y032273D03*
X007766Y031777D03*
X008230Y031273D03*
X008349Y030706D03*
X007766Y030706D03*
X006971Y031187D03*
X006963Y031194D03*
X006412Y030706D03*
X006435Y031746D03*
X006427Y031761D03*
X006419Y031769D03*
X007002Y032273D03*
D139*
X007022Y032257D03*
X006392Y031809D03*
X006384Y031817D03*
X006384Y031824D03*
X006376Y032265D03*
X006990Y031155D03*
X006998Y031147D03*
X007006Y030714D03*
X007746Y030722D03*
X008360Y030714D03*
X008345Y031155D03*
X008337Y031163D03*
X007738Y031817D03*
X007730Y031824D03*
X007723Y032265D03*
X009148Y030722D03*
X009817Y030722D03*
D140*
X009825Y030730D03*
X008368Y030722D03*
X008360Y031124D03*
X007738Y030730D03*
X007730Y030738D03*
X007014Y031116D03*
X007014Y031124D03*
X007006Y031131D03*
X006573Y031651D03*
X006368Y031848D03*
X006360Y031864D03*
X007038Y032234D03*
X007045Y032226D03*
X007707Y032250D03*
X007715Y032257D03*
X007715Y031856D03*
X007723Y031840D03*
X008384Y032242D03*
X008392Y032234D03*
X009140Y032250D03*
X009825Y032250D03*
X006691Y030391D03*
D141*
X006380Y030738D03*
X007026Y030730D03*
X007026Y031100D03*
X007018Y031108D03*
X007726Y030746D03*
X008372Y030730D03*
X008380Y030738D03*
X008372Y031100D03*
X008372Y031108D03*
X008364Y031116D03*
X009136Y030738D03*
X009829Y030738D03*
X009837Y030746D03*
X009837Y032234D03*
X009837Y032242D03*
X009136Y032242D03*
X009128Y032234D03*
X008396Y032226D03*
X007703Y031880D03*
X007703Y031872D03*
X007711Y031864D03*
X007049Y032218D03*
X006356Y032250D03*
X006349Y031887D03*
X006356Y031872D03*
X006364Y031856D03*
D142*
X006352Y031880D03*
X006345Y031895D03*
X006345Y032234D03*
X006352Y032242D03*
X007053Y032210D03*
X007061Y032194D03*
X007699Y032242D03*
X007691Y031903D03*
X007699Y031887D03*
X008400Y032218D03*
X008408Y032210D03*
X008408Y032202D03*
X009124Y032226D03*
X009841Y032226D03*
X008384Y031084D03*
X008384Y031076D03*
X008376Y031092D03*
X007723Y030754D03*
X007030Y030738D03*
X007030Y031084D03*
X007030Y031092D03*
X006376Y030746D03*
X006368Y030754D03*
X009124Y030754D03*
X009124Y030761D03*
X009132Y030746D03*
X009841Y030754D03*
D143*
X009856Y030793D03*
X009856Y030801D03*
X009864Y030817D03*
X009864Y030824D03*
X009864Y030832D03*
X009116Y030777D03*
X009108Y030793D03*
X009108Y030801D03*
X009108Y030809D03*
X009100Y030832D03*
X009100Y030840D03*
X008400Y030769D03*
X008392Y030761D03*
X008400Y031037D03*
X008400Y031045D03*
X008392Y031053D03*
X008392Y031061D03*
X007707Y030785D03*
X007707Y030777D03*
X007699Y030801D03*
X007045Y030769D03*
X007045Y030761D03*
X007045Y031045D03*
X007045Y031053D03*
X006360Y030777D03*
X006352Y030785D03*
X006352Y030793D03*
X006329Y031935D03*
X006329Y031943D03*
X006337Y032218D03*
X007069Y032179D03*
X007069Y032171D03*
X007077Y032163D03*
X007077Y032155D03*
X007085Y032131D03*
X007683Y032218D03*
X007691Y032226D03*
X007675Y031950D03*
X007675Y031943D03*
X007683Y031935D03*
X007683Y031927D03*
X008423Y032163D03*
X008423Y032171D03*
X008431Y032147D03*
X008431Y032139D03*
X009100Y032139D03*
X009100Y032147D03*
X009100Y032155D03*
X009108Y032171D03*
X009108Y032179D03*
X009108Y032187D03*
X009856Y032187D03*
X009856Y032194D03*
X009856Y032179D03*
X009864Y032163D03*
X009864Y032155D03*
X009864Y032147D03*
D144*
X009872Y032076D03*
X009872Y032069D03*
X009872Y032061D03*
X009872Y032053D03*
X009872Y032045D03*
X009872Y032037D03*
X009872Y032029D03*
X009872Y032021D03*
X009872Y032013D03*
X009872Y032006D03*
X009872Y031998D03*
X009872Y031990D03*
X009872Y031982D03*
X009872Y031974D03*
X009872Y031966D03*
X009872Y031958D03*
X009872Y031950D03*
X009872Y031943D03*
X009872Y031935D03*
X009872Y031927D03*
X009872Y031919D03*
X009872Y031911D03*
X009872Y031903D03*
X009872Y031895D03*
X009872Y031887D03*
X009872Y031880D03*
X009872Y031872D03*
X009872Y031864D03*
X009872Y031856D03*
X009872Y031848D03*
X009872Y031840D03*
X009872Y031832D03*
X009872Y031824D03*
X009872Y031817D03*
X009872Y031809D03*
X009872Y031801D03*
X009872Y031793D03*
X009872Y031785D03*
X009872Y031777D03*
X009872Y031769D03*
X009872Y031761D03*
X009872Y031754D03*
X009872Y031746D03*
X009872Y031738D03*
X009872Y031730D03*
X009872Y031722D03*
X009872Y031714D03*
X009872Y031706D03*
X009872Y031698D03*
X009872Y031691D03*
X009872Y031683D03*
X009872Y031675D03*
X009872Y031667D03*
X009872Y031659D03*
X009872Y031651D03*
X009872Y031313D03*
X009872Y031305D03*
X009872Y031297D03*
X009872Y031289D03*
X009872Y031281D03*
X009872Y031273D03*
X009872Y031265D03*
X009872Y031257D03*
X009872Y031250D03*
X009872Y031242D03*
X009872Y031234D03*
X009872Y031226D03*
X009872Y031218D03*
X009872Y031210D03*
X009872Y031202D03*
X009872Y031194D03*
X009872Y031187D03*
X009872Y031179D03*
X009872Y031171D03*
X009872Y031163D03*
X009872Y031155D03*
X009872Y031147D03*
X009872Y031139D03*
X009872Y031131D03*
X009872Y031124D03*
X009872Y031116D03*
X009872Y031108D03*
X009872Y031100D03*
X009872Y031092D03*
X009872Y031084D03*
X009872Y031076D03*
X009872Y031069D03*
X009872Y031061D03*
X009872Y031053D03*
X009872Y031045D03*
X009872Y031037D03*
X009872Y031029D03*
X009872Y031021D03*
X009872Y031013D03*
X009872Y031006D03*
X009872Y030998D03*
X009872Y030990D03*
X009872Y030982D03*
X009872Y030974D03*
X009872Y030966D03*
X009872Y030958D03*
X009872Y030950D03*
X009872Y030943D03*
X009872Y030935D03*
X009872Y030927D03*
X009872Y030919D03*
X009872Y030911D03*
X008415Y030974D03*
X008415Y030982D03*
X008415Y030990D03*
X008408Y031006D03*
X008408Y031013D03*
X008415Y030832D03*
X008415Y030824D03*
X008408Y030809D03*
X008408Y030801D03*
X008408Y030793D03*
X008038Y030383D03*
X007691Y030824D03*
X007691Y030832D03*
X007683Y030848D03*
X007683Y030856D03*
X007683Y030864D03*
X007061Y030817D03*
X007061Y030809D03*
X007061Y030801D03*
X007053Y030785D03*
X007061Y030990D03*
X007061Y030998D03*
X007061Y031006D03*
X006337Y030848D03*
X006337Y030840D03*
X006337Y030832D03*
X006329Y030864D03*
X006329Y030872D03*
X006329Y030880D03*
X006313Y031990D03*
X006313Y031998D03*
X006313Y032006D03*
X006321Y032179D03*
X006321Y032187D03*
X007093Y032100D03*
X007093Y032092D03*
X007100Y032069D03*
X007100Y032061D03*
X007100Y032053D03*
X007100Y032045D03*
X007100Y032037D03*
X007660Y032029D03*
X007660Y032021D03*
X007660Y032013D03*
X007660Y032006D03*
X007667Y031990D03*
X007667Y031982D03*
X007667Y031974D03*
X007667Y032171D03*
X007667Y032179D03*
X007675Y032187D03*
X007675Y032194D03*
X008439Y032116D03*
X008447Y032084D03*
X008447Y032076D03*
X008447Y032069D03*
X008447Y032061D03*
X008455Y032045D03*
X008455Y032037D03*
X008455Y032029D03*
X008455Y032021D03*
X008455Y032013D03*
D145*
X007660Y032131D03*
X007660Y032139D03*
X006597Y031659D03*
X006305Y032061D03*
X006305Y032069D03*
X006305Y032076D03*
X006305Y032084D03*
X006305Y032092D03*
X006305Y032100D03*
X006305Y032108D03*
X006305Y032116D03*
X007069Y030950D03*
X007069Y030864D03*
X007069Y030856D03*
X008423Y030903D03*
X008423Y030911D03*
X008423Y030919D03*
D146*
X007097Y032006D03*
D147*
X007069Y031998D03*
X008156Y031265D03*
X009833Y031462D03*
X009833Y031470D03*
X009833Y031502D03*
X009912Y031635D03*
X005644Y031494D03*
X005644Y031478D03*
X005644Y031470D03*
D148*
X008392Y031990D03*
D149*
X007041Y031990D03*
X009482Y030368D03*
D150*
X009994Y031391D03*
X009994Y031399D03*
X009994Y031407D03*
X009994Y031557D03*
X009994Y031565D03*
X009994Y031588D03*
X008341Y031974D03*
X005475Y031580D03*
X005475Y031572D03*
X005475Y031565D03*
X005475Y031399D03*
X005475Y031391D03*
X005475Y031383D03*
X005475Y031376D03*
D151*
X006447Y030927D03*
X006990Y031974D03*
X009226Y031714D03*
X009226Y031250D03*
X009998Y031376D03*
X009998Y031383D03*
X009998Y031572D03*
X009998Y031580D03*
D152*
X009825Y031604D03*
X009817Y031580D03*
X009817Y031572D03*
X009723Y031565D03*
X009723Y031399D03*
X009817Y031391D03*
X009203Y031683D03*
X009203Y031691D03*
X009203Y031698D03*
X009053Y031714D03*
X009053Y031722D03*
X009045Y031667D03*
X009045Y031297D03*
X009045Y031289D03*
X009045Y031281D03*
X009045Y031273D03*
X009045Y031265D03*
X009045Y031257D03*
X009045Y031250D03*
X008108Y031210D03*
X008313Y031966D03*
X007085Y031210D03*
X006778Y031218D03*
X006778Y031226D03*
X006778Y031234D03*
X006778Y031242D03*
X006778Y031250D03*
X006455Y031675D03*
X006455Y031683D03*
X006455Y031691D03*
X006305Y031651D03*
X005754Y031565D03*
X005660Y031565D03*
X005652Y031596D03*
X005660Y031399D03*
D153*
X006963Y031966D03*
X008112Y031202D03*
D154*
X008286Y031958D03*
X009695Y031604D03*
X009695Y031596D03*
X009695Y031588D03*
X009695Y031580D03*
X009695Y031383D03*
X009695Y031376D03*
X009695Y031368D03*
X009695Y031360D03*
X010049Y031454D03*
X010049Y031462D03*
X010049Y031502D03*
X010049Y031509D03*
X006734Y031683D03*
X006656Y031273D03*
X005782Y031368D03*
X005782Y031376D03*
X005782Y031383D03*
X005782Y031580D03*
X005782Y031588D03*
X005782Y031596D03*
X005419Y031509D03*
X005419Y031502D03*
X005419Y031494D03*
X005419Y031462D03*
X005419Y031454D03*
D155*
X005415Y031470D03*
X005415Y031478D03*
X005415Y031486D03*
X006730Y031691D03*
X006935Y031958D03*
X010053Y031494D03*
X010053Y031486D03*
X010053Y031478D03*
X010053Y031470D03*
D156*
X009821Y031383D03*
X009821Y031376D03*
X009821Y031368D03*
X009821Y031360D03*
X009813Y031399D03*
X009813Y031565D03*
X009821Y031588D03*
X009821Y031596D03*
X009207Y031706D03*
X009199Y031675D03*
X009199Y031667D03*
X009199Y031659D03*
X009199Y031651D03*
X009049Y031675D03*
X009049Y031683D03*
X009049Y031691D03*
X009049Y031698D03*
X009049Y031706D03*
X009199Y031313D03*
X009199Y031305D03*
X009199Y031297D03*
X009199Y031289D03*
X009199Y031281D03*
X009199Y031273D03*
X009199Y031265D03*
X009199Y031257D03*
X009049Y031242D03*
X008419Y031242D03*
X008419Y031250D03*
X008419Y031257D03*
X008419Y031265D03*
X008419Y031234D03*
X008419Y031226D03*
X008419Y031218D03*
X008419Y031210D03*
X008419Y031202D03*
X008262Y031202D03*
X008262Y031210D03*
X008262Y031218D03*
X008262Y031226D03*
X008262Y031234D03*
X008262Y031242D03*
X008262Y031250D03*
X008262Y031257D03*
X008104Y031257D03*
X008104Y031250D03*
X008104Y031242D03*
X008104Y031234D03*
X008104Y031226D03*
X008104Y031218D03*
X007955Y031706D03*
X007955Y031714D03*
X007955Y031722D03*
X007955Y031730D03*
X007955Y031738D03*
X007955Y031746D03*
X007955Y031754D03*
X007955Y031761D03*
X007955Y031769D03*
X007797Y031769D03*
X007797Y031761D03*
X007797Y031754D03*
X007797Y031746D03*
X007797Y031738D03*
X007797Y031730D03*
X007797Y031722D03*
X007797Y031714D03*
X007797Y031706D03*
X007640Y031706D03*
X007640Y031714D03*
X007640Y031722D03*
X007640Y031730D03*
X007640Y031738D03*
X007640Y031746D03*
X007640Y031754D03*
X007640Y031761D03*
X007640Y031769D03*
X007089Y031265D03*
X007089Y031257D03*
X007089Y031250D03*
X007089Y031242D03*
X007089Y031234D03*
X007089Y031226D03*
X007089Y031218D03*
X006931Y031218D03*
X006931Y031210D03*
X006931Y031226D03*
X006931Y031234D03*
X006931Y031242D03*
X006931Y031250D03*
X006931Y031257D03*
X006931Y031265D03*
X006931Y031273D03*
X006782Y031273D03*
X006782Y031265D03*
X006782Y031257D03*
X006782Y031281D03*
X006608Y031675D03*
X006608Y031683D03*
X006608Y031691D03*
X006608Y031698D03*
X006608Y031706D03*
X006608Y031714D03*
X006608Y031722D03*
X006608Y031730D03*
X006451Y031722D03*
X006451Y031714D03*
X006451Y031706D03*
X006451Y031698D03*
X006459Y031667D03*
X006301Y031667D03*
X006301Y031675D03*
X006301Y031683D03*
X006301Y031691D03*
X006301Y031698D03*
X006301Y031706D03*
X006301Y031659D03*
X005750Y031399D03*
X005656Y031391D03*
X005656Y031383D03*
X005656Y031376D03*
X005648Y031360D03*
X005656Y031572D03*
X005656Y031580D03*
X005656Y031588D03*
X005648Y031604D03*
D157*
X006431Y031754D03*
X006691Y030399D03*
X008045Y030399D03*
X009171Y030706D03*
X009793Y030706D03*
D158*
X010041Y031431D03*
X010041Y031533D03*
X009703Y031572D03*
X008923Y031706D03*
X008923Y031714D03*
X008923Y031722D03*
X008923Y031730D03*
X008923Y031297D03*
X008923Y031234D03*
X006648Y031289D03*
X005774Y031572D03*
X005427Y031533D03*
X005427Y031431D03*
D159*
X005490Y031596D03*
X006293Y031722D03*
X009766Y031557D03*
X009766Y031549D03*
X009766Y031541D03*
X009766Y031415D03*
D160*
X007797Y030927D03*
X006278Y031714D03*
D161*
X005778Y031635D03*
X005778Y031628D03*
X005778Y031620D03*
X005778Y031612D03*
X005778Y031604D03*
X005778Y031360D03*
X005778Y031352D03*
X005778Y031344D03*
X005778Y031336D03*
X005778Y031328D03*
X005778Y031320D03*
X005423Y031439D03*
X005423Y031446D03*
X005423Y031517D03*
X005423Y031525D03*
X006652Y031281D03*
X008919Y031281D03*
X008919Y031273D03*
X008919Y031265D03*
X008919Y031257D03*
X008919Y031250D03*
X008919Y031242D03*
X008919Y031289D03*
X008919Y031667D03*
X008919Y031675D03*
X008919Y031683D03*
X008919Y031691D03*
X008919Y031698D03*
X009699Y031643D03*
X009699Y031635D03*
X009699Y031628D03*
X009699Y031620D03*
X009699Y031612D03*
X009699Y031352D03*
X009699Y031344D03*
X009699Y031336D03*
X009699Y031328D03*
X009699Y031320D03*
X010045Y031439D03*
X010045Y031446D03*
X010045Y031517D03*
X010045Y031525D03*
D162*
X006726Y031698D03*
X006663Y031265D03*
D163*
X007833Y031691D03*
D164*
X007845Y031683D03*
X008230Y031297D03*
X008238Y031289D03*
X008246Y031281D03*
X008041Y030407D03*
X009191Y030698D03*
X009774Y030698D03*
X006695Y030407D03*
D165*
X006723Y031675D03*
X008116Y031194D03*
D166*
X007758Y030919D03*
X006663Y031667D03*
X006412Y030919D03*
X009782Y031431D03*
D167*
X009789Y031525D03*
X009010Y031651D03*
X005687Y031525D03*
D168*
X006341Y030903D03*
X009073Y031643D03*
X009892Y031643D03*
D169*
X009486Y030407D03*
X008203Y031328D03*
X008195Y031336D03*
X008187Y031344D03*
X007904Y031620D03*
X007896Y031628D03*
X007888Y031635D03*
X007880Y031643D03*
X006849Y031328D03*
X006841Y031336D03*
X006541Y031628D03*
D170*
X005640Y031502D03*
X005640Y031462D03*
X005561Y031635D03*
X008034Y030376D03*
X009837Y031454D03*
X009837Y031509D03*
D171*
X008175Y031352D03*
X007908Y031612D03*
X006837Y031344D03*
X006829Y031352D03*
X006821Y031360D03*
X006577Y031596D03*
X006569Y031604D03*
X006561Y031612D03*
X006553Y031620D03*
X006695Y030415D03*
D172*
X006809Y031368D03*
X006581Y031588D03*
X007919Y031604D03*
X007927Y031596D03*
X007935Y031588D03*
X007943Y031580D03*
X007951Y031572D03*
X008148Y031383D03*
X008156Y031376D03*
X008163Y031368D03*
X008171Y031360D03*
X008045Y030415D03*
D173*
X009982Y031596D03*
X005486Y031368D03*
D174*
X005478Y031407D03*
X005478Y031415D03*
X005478Y031549D03*
X005478Y031557D03*
X005478Y031588D03*
X006786Y031210D03*
X009990Y031415D03*
X009990Y031423D03*
X009990Y031541D03*
X009990Y031549D03*
D175*
X009986Y031368D03*
X005482Y031423D03*
X005482Y031541D03*
D176*
X005506Y031533D03*
X005506Y031431D03*
X009963Y031431D03*
X009963Y031533D03*
D177*
X009959Y031525D03*
X009959Y031439D03*
X005652Y031368D03*
X005510Y031439D03*
X005510Y031525D03*
D178*
X005636Y031509D03*
X005636Y031454D03*
X006990Y031281D03*
X006683Y030376D03*
X009841Y031446D03*
X009841Y031517D03*
D179*
X009900Y031320D03*
X005632Y031446D03*
X005632Y031517D03*
D180*
X006695Y030423D03*
X008049Y030423D03*
X008073Y031454D03*
X008065Y031462D03*
X008057Y031470D03*
X008049Y031478D03*
X008041Y031486D03*
X008034Y031494D03*
X008026Y031502D03*
X009482Y030415D03*
D181*
X009793Y031439D03*
D182*
X009018Y031313D03*
X008034Y030368D03*
X006679Y030368D03*
X005679Y031439D03*
D183*
X005691Y031431D03*
D184*
X005770Y031391D03*
X007833Y030935D03*
X009707Y031391D03*
D185*
X009069Y031320D03*
X008384Y031194D03*
X009486Y030376D03*
X005573Y031320D03*
D186*
X007100Y031273D03*
D187*
X006482Y030935D03*
X008514Y031202D03*
D188*
X007723Y030911D03*
X006376Y030911D03*
D189*
X006707Y030565D03*
X009486Y030533D03*
D190*
X009486Y030525D03*
X008053Y030549D03*
X006707Y030549D03*
D191*
X006699Y030446D03*
D192*
X009482Y030439D03*
D193*
X009482Y030431D03*
X008049Y030439D03*
D194*
X006699Y030439D03*
D195*
X006695Y030431D03*
X008049Y030431D03*
X009482Y030423D03*
D196*
X025120Y034620D03*
X026120Y034620D03*
X027120Y034620D03*
D197*
X022932Y034557D03*
X022932Y034120D03*
X022932Y033682D03*
X019620Y028120D03*
X019995Y026495D03*
X020495Y026495D03*
X015620Y024120D03*
X015620Y023620D03*
X015620Y023120D03*
X015620Y022620D03*
X015120Y021120D03*
X015120Y020620D03*
X015870Y018620D03*
X015620Y018120D03*
X015995Y017995D03*
X015745Y017245D03*
X015120Y017620D03*
X015120Y018370D03*
X019370Y018870D03*
X019370Y019245D03*
X019370Y019620D03*
X019370Y019995D03*
X019370Y020370D03*
X019745Y020370D03*
X020120Y020370D03*
X020495Y020370D03*
X020870Y020370D03*
X020870Y019995D03*
X020870Y019620D03*
X020870Y019245D03*
X020870Y018870D03*
X020495Y018870D03*
X020495Y019245D03*
X020495Y019620D03*
X020495Y019995D03*
X020120Y019995D03*
X020120Y019620D03*
X020120Y019245D03*
X020120Y018870D03*
X019745Y018870D03*
X019745Y019245D03*
X019745Y019620D03*
X019745Y019995D03*
X008870Y023370D03*
X008870Y023745D03*
X008870Y024120D03*
X008870Y024495D03*
X008870Y024870D03*
X008495Y024870D03*
X008495Y024495D03*
X008495Y024120D03*
X008495Y023745D03*
X008495Y023370D03*
X008120Y023370D03*
X008120Y023745D03*
X008120Y024120D03*
X008120Y024495D03*
X008120Y024870D03*
X007745Y024870D03*
X007745Y024495D03*
X007745Y024120D03*
X007745Y023745D03*
X007745Y023370D03*
X007370Y023370D03*
X007370Y023745D03*
X007370Y024120D03*
X007370Y024495D03*
X007370Y024870D03*
X004120Y026620D03*
X004120Y027120D03*
X004120Y027620D03*
X004120Y028120D03*
X003620Y025120D03*
X003620Y024620D03*
X003120Y024620D03*
X003120Y025120D03*
X003120Y022120D03*
X003120Y021620D03*
X003620Y022120D03*
X015682Y034307D03*
X016120Y034120D03*
X017495Y006370D03*
X017932Y005495D03*
X016932Y004807D03*
X021370Y006120D03*
D198*
X023745Y007620D03*
X028120Y011620D03*
X028620Y011620D03*
X029120Y011620D03*
X029120Y012120D03*
X029120Y012620D03*
X028620Y012620D03*
X028620Y012120D03*
X028120Y012120D03*
X028120Y012620D03*
X029620Y012620D03*
X030120Y012620D03*
X030620Y012620D03*
X030620Y012120D03*
X030120Y012120D03*
X029620Y012120D03*
X029620Y011620D03*
X030120Y011620D03*
X030620Y011620D03*
X024495Y012932D03*
X026620Y021120D03*
X026620Y021620D03*
X026620Y022120D03*
X026620Y022620D03*
X022057Y025682D03*
X021557Y025682D03*
X021557Y026182D03*
X022057Y026182D03*
X013932Y032745D03*
X011620Y031120D03*
X011620Y030620D03*
X011620Y030120D03*
X009120Y029620D03*
X020932Y035307D03*
X027620Y035120D03*
X011120Y009995D03*
D199*
X020057Y023307D03*
X009307Y027307D03*
D200*
X008120Y026620D03*
X010245Y025245D03*
X010245Y024620D03*
X010245Y023870D03*
X010245Y023120D03*
X011120Y023120D03*
X011620Y022620D03*
X011620Y021995D03*
X012370Y021620D03*
X012370Y022620D03*
X012370Y023620D03*
X012370Y024620D03*
X011870Y025245D03*
X011120Y025245D03*
X013495Y026245D03*
X013995Y026245D03*
X014370Y026245D03*
X014870Y026245D03*
X011620Y028620D03*
X016245Y030995D03*
X016120Y031620D03*
X017120Y032120D03*
X016745Y030245D03*
X016745Y029745D03*
X019120Y029495D03*
X020718Y030521D03*
X021620Y029120D03*
X021620Y028620D03*
X022870Y028370D03*
X023120Y026370D03*
X024620Y025620D03*
X025120Y024620D03*
X027120Y025620D03*
X028120Y026120D03*
X029995Y025245D03*
X031995Y024870D03*
X032120Y023620D03*
X026120Y028620D03*
X024620Y021870D03*
X024620Y021120D03*
X024620Y020120D03*
X024620Y019120D03*
X024620Y018120D03*
X024620Y017120D03*
X023620Y016620D03*
X024620Y015870D03*
X024620Y014870D03*
X023807Y014057D03*
X023057Y013307D03*
X022182Y012495D03*
X021370Y012120D03*
X020370Y012120D03*
X020370Y013120D03*
X020370Y014120D03*
X020370Y015370D03*
X021120Y015870D03*
X020370Y016620D03*
X021870Y015120D03*
X022870Y015620D03*
X022120Y016495D03*
X022870Y017870D03*
X022370Y018870D03*
X022370Y019870D03*
X022370Y020870D03*
X022370Y021870D03*
X023370Y021870D03*
X019995Y021745D03*
X018245Y023870D03*
X012370Y020620D03*
X011495Y020745D03*
X010807Y021370D03*
X009870Y020870D03*
X009370Y020245D03*
X008495Y020245D03*
X008495Y019120D03*
X008370Y018245D03*
X007370Y018245D03*
X007245Y017620D03*
X007245Y016620D03*
X006120Y016995D03*
X005120Y017495D03*
X004620Y016620D03*
X003870Y017120D03*
X003745Y018120D03*
X003745Y019120D03*
X003745Y020245D03*
X004745Y020245D03*
X005745Y020245D03*
X006245Y019745D03*
X006870Y019745D03*
X007245Y019120D03*
X008495Y017120D03*
X008495Y016120D03*
X009370Y016120D03*
X009370Y015120D03*
X008495Y015120D03*
X007745Y014120D03*
X007745Y013120D03*
X007745Y012120D03*
X007745Y011370D03*
X006495Y011370D03*
X006495Y012120D03*
X006495Y013120D03*
X006495Y014120D03*
X006495Y015120D03*
X005245Y015120D03*
X004120Y015120D03*
X003245Y015745D03*
X002620Y016370D03*
X002620Y017370D03*
X002620Y018370D03*
X002620Y019370D03*
X002620Y020370D03*
X002120Y020870D03*
X001870Y021620D03*
X001870Y022620D03*
X001870Y023620D03*
X001870Y024620D03*
X001870Y025620D03*
X001870Y026620D03*
X001870Y027620D03*
X001870Y028495D03*
X000745Y028495D03*
X000745Y027620D03*
X000745Y026620D03*
X000745Y025620D03*
X000745Y024620D03*
X000745Y023620D03*
X000745Y022620D03*
X000745Y021620D03*
X000745Y020620D03*
X000745Y019620D03*
X000745Y018620D03*
X000745Y017620D03*
X000745Y016620D03*
X000745Y015620D03*
X000745Y014620D03*
X000745Y013620D03*
X000745Y012620D03*
X000745Y011620D03*
X000745Y010620D03*
X000745Y009620D03*
X000745Y008620D03*
X000745Y007620D03*
X000745Y006620D03*
X000745Y005870D03*
X001620Y005870D03*
X002620Y005870D03*
X003620Y005870D03*
X004620Y005870D03*
X005620Y005870D03*
X006620Y005745D03*
X007120Y005120D03*
X008120Y005120D03*
X008745Y004495D03*
X009245Y004120D03*
X009870Y004620D03*
X010495Y004120D03*
X010870Y004620D03*
X011495Y004120D03*
X012245Y004120D03*
X012995Y004120D03*
X012995Y003245D03*
X012620Y002620D03*
X012620Y001870D03*
X012620Y000745D03*
X011620Y000745D03*
X010620Y000745D03*
X009620Y000745D03*
X008620Y000745D03*
X007620Y000745D03*
X006620Y000745D03*
X005745Y000745D03*
X005745Y001620D03*
X005745Y002620D03*
X005745Y003620D03*
X005745Y004620D03*
X007870Y006620D03*
X008120Y007120D03*
X008620Y007120D03*
X008870Y006620D03*
X009620Y007120D03*
X009870Y006620D03*
X010620Y007120D03*
X010870Y006620D03*
X011620Y007120D03*
X011870Y006620D03*
X012620Y007120D03*
X012870Y006620D03*
X013870Y006620D03*
X014870Y006620D03*
X015870Y006870D03*
X015370Y007620D03*
X014870Y008120D03*
X015870Y008870D03*
X015620Y009620D03*
X015620Y010370D03*
X015120Y011120D03*
X015120Y011870D03*
X015745Y012370D03*
X017120Y012370D03*
X017620Y011495D03*
X017995Y010870D03*
X017620Y010370D03*
X017620Y009370D03*
X017620Y008370D03*
X018620Y007870D03*
X018870Y008620D03*
X018870Y009620D03*
X018870Y010870D03*
X018995Y012120D03*
X018995Y012495D03*
X018120Y012120D03*
X017870Y013120D03*
X017870Y014120D03*
X017870Y015120D03*
X017120Y015370D03*
X016120Y015370D03*
X015245Y015745D03*
X014370Y015745D03*
X013995Y015245D03*
X013370Y014620D03*
X013370Y013620D03*
X013370Y012620D03*
X013370Y011620D03*
X013370Y010620D03*
X013370Y009620D03*
X013370Y008620D03*
X013370Y007620D03*
X016307Y006057D03*
X016495Y005870D03*
X016682Y006057D03*
X016682Y005682D03*
X016307Y005682D03*
X017620Y007370D03*
X018120Y006870D03*
X018870Y006870D03*
X020370Y007120D03*
X020870Y006620D03*
X020370Y006120D03*
X020620Y005120D03*
X019620Y005120D03*
X018620Y005120D03*
X016620Y003370D03*
X016370Y001870D03*
X016995Y001870D03*
X017745Y001870D03*
X018620Y002120D03*
X019620Y002120D03*
X020620Y002120D03*
X021620Y002120D03*
X022620Y002120D03*
X023620Y002120D03*
X023995Y001495D03*
X023620Y000745D03*
X022620Y000745D03*
X021620Y000745D03*
X020620Y000745D03*
X019620Y000745D03*
X018620Y000745D03*
X017745Y000745D03*
X016620Y000745D03*
X015620Y000745D03*
X015620Y001245D03*
X015745Y001870D03*
X014620Y001245D03*
X014620Y000745D03*
X013620Y000745D03*
X013620Y001245D03*
X007370Y007745D03*
X007370Y007995D03*
X007370Y008245D03*
X007120Y008245D03*
X006870Y008245D03*
X006870Y007995D03*
X007120Y007995D03*
X007120Y007745D03*
X006870Y007745D03*
X006620Y006870D03*
X005995Y008620D03*
X006495Y009120D03*
X006370Y010120D03*
X005370Y010745D03*
X004995Y008745D03*
X007745Y009120D03*
X008245Y008745D03*
X009370Y008745D03*
X009370Y009620D03*
X009370Y010620D03*
X009370Y011370D03*
X009370Y012120D03*
X009370Y013120D03*
X009370Y014120D03*
X010370Y015370D03*
X011370Y015370D03*
X012245Y015245D03*
X012370Y016495D03*
X011620Y016495D03*
X010620Y016495D03*
X012370Y017620D03*
X012370Y018620D03*
X012370Y019620D03*
X014120Y016620D03*
X010995Y014120D03*
X011995Y010995D03*
X007745Y010120D03*
X020370Y010120D03*
X020370Y010870D03*
X021120Y010870D03*
X021870Y010870D03*
X021495Y009870D03*
X021495Y009120D03*
X021870Y008620D03*
X021120Y008120D03*
X020370Y008120D03*
X020370Y009120D03*
X023870Y011495D03*
X010620Y033120D03*
X017120Y034182D03*
X017245Y034932D03*
X017682Y035120D03*
X018120Y035120D03*
X018620Y034620D03*
X018620Y033870D03*
D201*
X015120Y025620D03*
X022620Y023120D03*
M02*
