G75*
G70*
%OFA0B0*%
%FSLAX24Y24*%
%IPPOS*%
%LPD*%
%AMOC8*
5,1,8,0,0,1.08239X$1,22.5*
%
%ADD10C,0.0000*%
D10*
X000120Y001301D02*
X000120Y033584D01*
X000122Y033650D01*
X000127Y033716D01*
X000137Y033782D01*
X000150Y033847D01*
X000166Y033911D01*
X000186Y033974D01*
X000210Y034036D01*
X000237Y034096D01*
X000267Y034155D01*
X000301Y034212D01*
X000338Y034267D01*
X000378Y034320D01*
X000420Y034371D01*
X000466Y034419D01*
X000514Y034465D01*
X000565Y034507D01*
X000618Y034547D01*
X000673Y034584D01*
X000730Y034618D01*
X000789Y034648D01*
X000849Y034675D01*
X000911Y034699D01*
X000974Y034719D01*
X001038Y034735D01*
X001103Y034748D01*
X001169Y034758D01*
X001235Y034763D01*
X001301Y034765D01*
X005238Y034765D01*
X005238Y033978D01*
X005240Y033924D01*
X005245Y033871D01*
X005254Y033818D01*
X005267Y033766D01*
X005283Y033714D01*
X005303Y033664D01*
X005326Y033616D01*
X005353Y033569D01*
X005382Y033524D01*
X005415Y033481D01*
X005450Y033441D01*
X005488Y033403D01*
X005528Y033368D01*
X005571Y033335D01*
X005616Y033306D01*
X005663Y033279D01*
X005711Y033256D01*
X005761Y033236D01*
X005813Y033220D01*
X005865Y033207D01*
X005918Y033198D01*
X005971Y033193D01*
X006025Y033191D01*
X008387Y033191D01*
X008441Y033193D01*
X008494Y033198D01*
X008547Y033207D01*
X008599Y033220D01*
X008651Y033236D01*
X008701Y033256D01*
X008749Y033279D01*
X008796Y033306D01*
X008841Y033335D01*
X008884Y033368D01*
X008924Y033403D01*
X008962Y033441D01*
X008997Y033481D01*
X009030Y033524D01*
X009059Y033569D01*
X009086Y033616D01*
X009109Y033664D01*
X009129Y033714D01*
X009145Y033766D01*
X009158Y033818D01*
X009167Y033871D01*
X009172Y033924D01*
X009174Y033978D01*
X009175Y033978D02*
X009175Y037128D01*
X035946Y037128D01*
X035946Y037127D02*
X036012Y037125D01*
X036078Y037120D01*
X036144Y037110D01*
X036209Y037097D01*
X036273Y037081D01*
X036336Y037061D01*
X036398Y037037D01*
X036458Y037010D01*
X036517Y036980D01*
X036574Y036946D01*
X036629Y036909D01*
X036682Y036869D01*
X036733Y036827D01*
X036781Y036781D01*
X036827Y036733D01*
X036869Y036682D01*
X036909Y036629D01*
X036946Y036574D01*
X036980Y036517D01*
X037010Y036458D01*
X037037Y036398D01*
X037061Y036336D01*
X037081Y036273D01*
X037097Y036209D01*
X037110Y036144D01*
X037120Y036078D01*
X037125Y036012D01*
X037127Y035946D01*
X037128Y035946D02*
X037128Y003663D01*
X037127Y003663D02*
X037125Y003597D01*
X037120Y003531D01*
X037110Y003465D01*
X037097Y003400D01*
X037081Y003336D01*
X037061Y003273D01*
X037037Y003211D01*
X037010Y003151D01*
X036980Y003092D01*
X036946Y003035D01*
X036909Y002980D01*
X036869Y002927D01*
X036827Y002876D01*
X036781Y002828D01*
X036733Y002782D01*
X036682Y002740D01*
X036629Y002700D01*
X036574Y002663D01*
X036517Y002629D01*
X036458Y002599D01*
X036398Y002572D01*
X036336Y002548D01*
X036273Y002528D01*
X036209Y002512D01*
X036144Y002499D01*
X036078Y002489D01*
X036012Y002484D01*
X035946Y002482D01*
X032009Y002482D01*
X032009Y003269D01*
X032007Y003323D01*
X032002Y003376D01*
X031993Y003429D01*
X031980Y003481D01*
X031964Y003533D01*
X031944Y003583D01*
X031921Y003631D01*
X031894Y003678D01*
X031865Y003723D01*
X031832Y003766D01*
X031797Y003806D01*
X031759Y003844D01*
X031719Y003879D01*
X031676Y003912D01*
X031631Y003941D01*
X031584Y003968D01*
X031536Y003991D01*
X031486Y004011D01*
X031434Y004027D01*
X031382Y004040D01*
X031329Y004049D01*
X031276Y004054D01*
X031222Y004056D01*
X031222Y004057D02*
X028860Y004057D01*
X028860Y004056D02*
X028806Y004054D01*
X028753Y004049D01*
X028700Y004040D01*
X028648Y004027D01*
X028596Y004011D01*
X028546Y003991D01*
X028498Y003968D01*
X028451Y003941D01*
X028406Y003912D01*
X028363Y003879D01*
X028323Y003844D01*
X028285Y003806D01*
X028250Y003766D01*
X028217Y003723D01*
X028188Y003678D01*
X028161Y003631D01*
X028138Y003583D01*
X028118Y003533D01*
X028102Y003481D01*
X028089Y003429D01*
X028080Y003376D01*
X028075Y003323D01*
X028073Y003269D01*
X028072Y003269D02*
X028072Y000120D01*
X001301Y000120D01*
X001235Y000122D01*
X001169Y000127D01*
X001103Y000137D01*
X001038Y000150D01*
X000974Y000166D01*
X000911Y000186D01*
X000849Y000210D01*
X000789Y000237D01*
X000730Y000267D01*
X000673Y000301D01*
X000618Y000338D01*
X000565Y000378D01*
X000514Y000420D01*
X000466Y000466D01*
X000420Y000514D01*
X000378Y000565D01*
X000338Y000618D01*
X000301Y000673D01*
X000267Y000730D01*
X000237Y000789D01*
X000210Y000849D01*
X000186Y000911D01*
X000166Y000974D01*
X000150Y001038D01*
X000137Y001103D01*
X000127Y001169D01*
X000122Y001235D01*
X000120Y001301D01*
M02*
