%
M48
M72
T01C0.0118
T02C0.0157
T03C0.0197
T04C0.0236
T05C0.0276
T06C0.0394
T07C0.0400
T08C0.0591
T09C0.0669
T10C0.1260
%
T01
X5745Y745
X6620Y745
X7620Y745
X8620Y745
X9620Y745
X10620Y745
X11620Y745
X12620Y745
X13620Y745
X13620Y1245
X14620Y1245
X14620Y745
X15620Y745
X15620Y1245
X15745Y1870
X16370Y1870
X16995Y1870
X17745Y1870
X18620Y2120
X19620Y2120
X20620Y2120
X21620Y2120
X22620Y2120
X23620Y2120
X23995Y1495
X23620Y745
X22620Y745
X21620Y745
X20620Y745
X19620Y745
X18620Y745
X17745Y745
X16620Y745
X16620Y3370
X18620Y5120
X19620Y5120
X20620Y5120
X20370Y6120
X20870Y6620
X20370Y7120
X20370Y8120
X21120Y8120
X21870Y8620
X21495Y9120
X21495Y9870
X21870Y10870
X21120Y10870
X20370Y10870
X20370Y10120
X20370Y9120
X18870Y9620
X18870Y8620
X18620Y7870
X18870Y6870
X18120Y6870
X17620Y7370
X17620Y8370
X17620Y9370
X17620Y10370
X17995Y10870
X17620Y11495
X18120Y12120
X18995Y12120
X18995Y12495
X17870Y13120
X17120Y12370
X15745Y12370
X15120Y11870
X15120Y11120
X15620Y10370
X15620Y9620
X15870Y8870
X14870Y8120
X15370Y7620
X15870Y6870
X16307Y6057
X16495Y5870
X16682Y6057
X16682Y5682
X16307Y5682
X14870Y6620
X13870Y6620
X12870Y6620
X12620Y7120
X13370Y7620
X13370Y8620
X13370Y9620
X13370Y10620
X13370Y11620
X13370Y12620
X13370Y13620
X13370Y14620
X13995Y15245
X14370Y15745
X15245Y15745
X16120Y15370
X17120Y15370
X17870Y15120
X17870Y14120
X20370Y14120
X20370Y13120
X20370Y12120
X21370Y12120
X22182Y12495
X23057Y13307
X23807Y14057
X24620Y14870
X24620Y15870
X23620Y16620
X24620Y17120
X24620Y18120
X24620Y19120
X24620Y20120
X24620Y21120
X24620Y21870
X23370Y21870
X22370Y21870
X22370Y20870
X22370Y19870
X22370Y18870
X22870Y17870
X22120Y16495
X22870Y15620
X21870Y15120
X21120Y15870
X20370Y15370
X20370Y16620
X23870Y11495
X18870Y10870
X14120Y16620
X12370Y16495
X11620Y16495
X10620Y16495
X10370Y15370
X9370Y15120
X8495Y15120
X8495Y16120
X9370Y16120
X8495Y17120
X8370Y18245
X8495Y19120
X8495Y20245
X9370Y20245
X9870Y20870
X10807Y21370
X11495Y20745
X12370Y20620
X12370Y21620
X11620Y21995
X11620Y22620
X12370Y22620
X12370Y23620
X12370Y24620
X11870Y25245
X11120Y25245
X10245Y25245
X10245Y24620
X10245Y23870
X10245Y23120
X11120Y23120
X13495Y26245
X13995Y26245
X14370Y26245
X14870Y26245
X11620Y28620
X8120Y26620
X2120Y20870
X2620Y20370
X2620Y19370
X2620Y18370
X2620Y17370
X2620Y16370
X3245Y15745
X4120Y15120
X5245Y15120
X6495Y15120
X6495Y14120
X6495Y13120
X6495Y12120
X6495Y11370
X7745Y11370
X7745Y12120
X7745Y13120
X7745Y14120
X9370Y14120
X9370Y13120
X9370Y12120
X9370Y11370
X9370Y10620
X9370Y9620
X9370Y8745
X8245Y8745
X7745Y9120
X7745Y10120
X6495Y9120
X5995Y8620
X6870Y8245
X7120Y8245
X7370Y8245
X7370Y7995
X7370Y7745
X7120Y7745
X7120Y7995
X6870Y7995
X6870Y7745
X6620Y6870
X6620Y5745
X7120Y5120
X8120Y5120
X8745Y4495
X9245Y4120
X9870Y4620
X10495Y4120
X10870Y4620
X11495Y4120
X12245Y4120
X12995Y4120
X12995Y3245
X12620Y2620
X12620Y1870
X11870Y6620
X11620Y7120
X10870Y6620
X10620Y7120
X9870Y6620
X9620Y7120
X8870Y6620
X8620Y7120
X8120Y7120
X7870Y6620
X5620Y5870
X4620Y5870
X3620Y5870
X2620Y5870
X1620Y5870
X745Y5870
X745Y6620
X745Y7620
X745Y8620
X745Y9620
X745Y10620
X745Y11620
X745Y12620
X745Y13620
X745Y14620
X745Y15620
X745Y16620
X745Y17620
X745Y18620
X745Y19620
X745Y20620
X745Y21620
X745Y22620
X745Y23620
X745Y24620
X745Y25620
X745Y26620
X745Y27620
X745Y28495
X1870Y28495
X1870Y27620
X1870Y26620
X1870Y25620
X1870Y24620
X1870Y23620
X1870Y22620
X1870Y21620
X3745Y20245
X4745Y20245
X5745Y20245
X6245Y19745
X6870Y19745
X7245Y19120
X7370Y18245
X7245Y17620
X7245Y16620
X6120Y16995
X5120Y17495
X4620Y16620
X3870Y17120
X3745Y18120
X3745Y19120
X10995Y14120
X11370Y15370
X12245Y15245
X12370Y17620
X12370Y18620
X12370Y19620
X18245Y23870
X19995Y21745
X24620Y25620
X25120Y24620
X27120Y25620
X28120Y26120
X29995Y25245
X31995Y24870
X32120Y23620
X26120Y28620
X22870Y28370
X21620Y28620
X21620Y29120
X20718Y30521
X19120Y29495
X16745Y29745
X16745Y30245
X16245Y30995
X16120Y31620
X17120Y32120
X18620Y33870
X18620Y34620
X18120Y35120
X17682Y35120
X17245Y34932
X17120Y34182
X10620Y33120
X23120Y26370
X11995Y10995
X6370Y10120
X5370Y10745
X4995Y8745
X5745Y4620
X5745Y3620
X5745Y2620
X5745Y1620
T02
X16932Y4807
X17932Y5495
X17495Y6370
X21370Y6120
X15745Y17245
X15120Y17620
X15620Y18120
X15995Y17995
X15870Y18620
X15120Y18370
X15120Y20620
X15120Y21120
X15620Y22620
X15620Y23120
X15620Y23620
X15620Y24120
X19370Y20370
X19745Y20370
X20120Y20370
X20495Y20370
X20870Y20370
X20870Y19995
X20870Y19620
X20870Y19245
X20870Y18870
X20495Y18870
X20495Y19245
X20495Y19620
X20495Y19995
X20120Y19995
X20120Y19620
X20120Y19245
X20120Y18870
X19745Y18870
X19745Y19245
X19745Y19620
X19745Y19995
X19370Y19995
X19370Y19620
X19370Y19245
X19370Y18870
X19995Y26495
X20495Y26495
X19620Y28120
X22932Y33682
X22932Y34120
X22932Y34557
X16120Y34120
X15682Y34307
X8870Y24870
X8870Y24495
X8870Y24120
X8870Y23745
X8870Y23370
X8495Y23370
X8495Y23745
X8495Y24120
X8495Y24495
X8495Y24870
X8120Y24870
X8120Y24495
X8120Y24120
X8120Y23745
X8120Y23370
X7745Y23370
X7745Y23745
X7745Y24120
X7745Y24495
X7745Y24870
X7370Y24870
X7370Y24495
X7370Y24120
X7370Y23745
X7370Y23370
X3620Y24620
X3620Y25120
X3120Y25120
X3120Y24620
X4120Y26620
X4120Y27120
X4120Y27620
X4120Y28120
X3620Y22120
X3120Y22120
X3120Y21620
T03
X9307Y27307
X20057Y23307
T04
X21557Y25682
X22057Y25682
X22057Y26182
X21557Y26182
X26620Y22620
X26620Y22120
X26620Y21620
X26620Y21120
X24495Y12932
X28120Y12620
X28620Y12620
X29120Y12620
X29120Y12120
X28620Y12120
X28120Y12120
X28120Y11620
X28620Y11620
X29120Y11620
X29620Y11620
X30120Y11620
X30620Y11620
X30620Y12120
X30620Y12620
X30120Y12620
X30120Y12120
X29620Y12120
X29620Y12620
X23745Y7620
X11120Y9995
X9120Y29620
X11620Y30120
X11620Y30620
X11620Y31120
X13932Y32745
X20932Y35307
X27620Y35120
T05
X12120Y34495
X11620Y34495
X11120Y34495
X10620Y34495
X10120Y34495
X10120Y36495
X10620Y36495
X11120Y36495
X11620Y36495
X12120Y36495
T06
X15120Y25620
X22620Y23120
T07
X33084Y23124
X33084Y24124
X33084Y25124
X33084Y26124
X33084Y27124
X33084Y28124
X33084Y29124
X33084Y30124
X33084Y31124
X34084Y31124
X34084Y30124
X34084Y29124
X34084Y28124
X34084Y27124
X34084Y26124
X34084Y25124
X34084Y24124
X34084Y23124
X34084Y22124
X33084Y22124
X33084Y21124
X33084Y20124
X34084Y20124
X34084Y21124
X34084Y19124
X33084Y19124
X33084Y18124
X33084Y17124
X34084Y17124
X34084Y18124
X34084Y16124
X34084Y15124
X33084Y15124
X33084Y16124
X33084Y14124
X34084Y14124
X34084Y13124
X34084Y12124
X33084Y12124
X33084Y13124
X33084Y11124
X34084Y11124
X34084Y10124
X34084Y9124
X33084Y9124
X33084Y10124
X33084Y8124
X34084Y8124
X34084Y7124
X34084Y6124
X33084Y6124
X33084Y7124
T08
X3245Y7995
T09
X4245Y8995
X4245Y6995
X2245Y6995
X2245Y8995
T10
X3663Y3663
X33584Y3663
X33584Y33584
X3663Y33584
M30
