%
M48
M72
T01C0.0157
T02C0.0240
T03C0.0320
T04C0.0591
T05C0.0669
T06C0.0827
T07C0.0866
T08C0.1024
T09C0.1260
T10C0.1299
T11C0.1378
T12C0.2362
%
T01
X23919Y17670
X25100Y15307
T02
X33565Y14225
X33565Y18752
T03
X23754Y4579
X19754Y4579
T04
X26183Y6548
X30415Y16489
T05
X31415Y17489
X29415Y17489
X29415Y15489
X31415Y15489
X27183Y7548
X25183Y7548
X25183Y5548
X27183Y5548
T06
X22738Y3032
X16832Y3032
X32105Y12748
X32105Y20229
T07
X26327Y25675
X23543Y26231
X22151Y27623
X24378Y29851
X25770Y28459
T08
X34903Y28260
X34903Y32012
T09
X19785Y30268
X12383Y26676
X6006Y16489
X12383Y6302
X29529Y6745
T10
X2659Y1528
X40651Y1528
X40651Y31449
X2659Y31449
T11
X37265Y20130
T12
X26872Y11174
M30
