G75*
G70*
%OFA0B0*%
%FSLAX24Y24*%
%IPPOS*%
%LPD*%
%AMOC8*
5,1,8,0,0,1.08239X$1,22.5*
%
%ADD10C,0.0000*%
D10*
X000100Y000248D02*
X000100Y032729D01*
X043210Y032729D01*
X043210Y000248D01*
X000100Y000248D01*
X002009Y001528D02*
X002011Y001578D01*
X002017Y001628D01*
X002027Y001678D01*
X002040Y001726D01*
X002057Y001774D01*
X002078Y001820D01*
X002102Y001864D01*
X002130Y001906D01*
X002161Y001946D01*
X002195Y001983D01*
X002232Y002018D01*
X002271Y002049D01*
X002312Y002078D01*
X002356Y002103D01*
X002402Y002125D01*
X002449Y002143D01*
X002497Y002157D01*
X002546Y002168D01*
X002596Y002175D01*
X002646Y002178D01*
X002697Y002177D01*
X002747Y002172D01*
X002797Y002163D01*
X002845Y002151D01*
X002893Y002134D01*
X002939Y002114D01*
X002984Y002091D01*
X003027Y002064D01*
X003067Y002034D01*
X003105Y002001D01*
X003140Y001965D01*
X003173Y001926D01*
X003202Y001885D01*
X003228Y001842D01*
X003251Y001797D01*
X003270Y001750D01*
X003285Y001702D01*
X003297Y001653D01*
X003305Y001603D01*
X003309Y001553D01*
X003309Y001503D01*
X003305Y001453D01*
X003297Y001403D01*
X003285Y001354D01*
X003270Y001306D01*
X003251Y001259D01*
X003228Y001214D01*
X003202Y001171D01*
X003173Y001130D01*
X003140Y001091D01*
X003105Y001055D01*
X003067Y001022D01*
X003027Y000992D01*
X002984Y000965D01*
X002939Y000942D01*
X002893Y000922D01*
X002845Y000905D01*
X002797Y000893D01*
X002747Y000884D01*
X002697Y000879D01*
X002646Y000878D01*
X002596Y000881D01*
X002546Y000888D01*
X002497Y000899D01*
X002449Y000913D01*
X002402Y000931D01*
X002356Y000953D01*
X002312Y000978D01*
X002271Y001007D01*
X002232Y001038D01*
X002195Y001073D01*
X002161Y001110D01*
X002130Y001150D01*
X002102Y001192D01*
X002078Y001236D01*
X002057Y001282D01*
X002040Y001330D01*
X002027Y001378D01*
X002017Y001428D01*
X002011Y001478D01*
X002009Y001528D01*
X010100Y007433D02*
X021517Y007433D01*
X021517Y007434D02*
X021583Y007436D01*
X021649Y007441D01*
X021715Y007451D01*
X021780Y007464D01*
X021844Y007480D01*
X021907Y007500D01*
X021969Y007524D01*
X022029Y007551D01*
X022088Y007581D01*
X022145Y007615D01*
X022200Y007652D01*
X022253Y007692D01*
X022304Y007734D01*
X022352Y007780D01*
X022398Y007828D01*
X022440Y007879D01*
X022480Y007932D01*
X022517Y007987D01*
X022551Y008044D01*
X022581Y008103D01*
X022608Y008163D01*
X022632Y008225D01*
X022652Y008288D01*
X022668Y008352D01*
X022681Y008417D01*
X022691Y008483D01*
X022696Y008549D01*
X022698Y008615D01*
X022698Y024363D01*
X022696Y024429D01*
X022691Y024495D01*
X022681Y024561D01*
X022668Y024626D01*
X022652Y024690D01*
X022632Y024753D01*
X022608Y024815D01*
X022581Y024875D01*
X022551Y024934D01*
X022517Y024991D01*
X022480Y025046D01*
X022440Y025099D01*
X022398Y025150D01*
X022352Y025198D01*
X022304Y025244D01*
X022253Y025286D01*
X022200Y025326D01*
X022145Y025363D01*
X022088Y025397D01*
X022029Y025427D01*
X021969Y025454D01*
X021907Y025478D01*
X021844Y025498D01*
X021780Y025514D01*
X021715Y025527D01*
X021649Y025537D01*
X021583Y025542D01*
X021517Y025544D01*
X010100Y025544D01*
X010034Y025542D01*
X009968Y025537D01*
X009902Y025527D01*
X009837Y025514D01*
X009773Y025498D01*
X009710Y025478D01*
X009648Y025454D01*
X009588Y025427D01*
X009529Y025397D01*
X009472Y025363D01*
X009417Y025326D01*
X009364Y025286D01*
X009313Y025244D01*
X009265Y025198D01*
X009219Y025150D01*
X009177Y025099D01*
X009137Y025046D01*
X009100Y024991D01*
X009066Y024934D01*
X009036Y024875D01*
X009009Y024815D01*
X008985Y024753D01*
X008965Y024690D01*
X008949Y024626D01*
X008936Y024561D01*
X008926Y024495D01*
X008921Y024429D01*
X008919Y024363D01*
X008919Y008615D01*
X008921Y008549D01*
X008926Y008483D01*
X008936Y008417D01*
X008949Y008352D01*
X008965Y008288D01*
X008985Y008225D01*
X009009Y008163D01*
X009036Y008103D01*
X009066Y008044D01*
X009100Y007987D01*
X009137Y007932D01*
X009177Y007879D01*
X009219Y007828D01*
X009265Y007780D01*
X009313Y007734D01*
X009364Y007692D01*
X009417Y007652D01*
X009472Y007615D01*
X009529Y007581D01*
X009588Y007551D01*
X009648Y007524D01*
X009710Y007500D01*
X009773Y007480D01*
X009837Y007464D01*
X009902Y007451D01*
X009968Y007441D01*
X010034Y007436D01*
X010100Y007434D01*
X011753Y006302D02*
X011755Y006352D01*
X011761Y006402D01*
X011771Y006451D01*
X011785Y006499D01*
X011802Y006546D01*
X011823Y006591D01*
X011848Y006635D01*
X011876Y006676D01*
X011908Y006715D01*
X011942Y006752D01*
X011979Y006786D01*
X012019Y006816D01*
X012061Y006843D01*
X012105Y006867D01*
X012151Y006888D01*
X012198Y006904D01*
X012246Y006917D01*
X012296Y006926D01*
X012345Y006931D01*
X012396Y006932D01*
X012446Y006929D01*
X012495Y006922D01*
X012544Y006911D01*
X012592Y006896D01*
X012638Y006878D01*
X012683Y006856D01*
X012726Y006830D01*
X012767Y006801D01*
X012806Y006769D01*
X012842Y006734D01*
X012874Y006696D01*
X012904Y006656D01*
X012931Y006613D01*
X012954Y006569D01*
X012973Y006523D01*
X012989Y006475D01*
X013001Y006426D01*
X013009Y006377D01*
X013013Y006327D01*
X013013Y006277D01*
X013009Y006227D01*
X013001Y006178D01*
X012989Y006129D01*
X012973Y006081D01*
X012954Y006035D01*
X012931Y005991D01*
X012904Y005948D01*
X012874Y005908D01*
X012842Y005870D01*
X012806Y005835D01*
X012767Y005803D01*
X012726Y005774D01*
X012683Y005748D01*
X012638Y005726D01*
X012592Y005708D01*
X012544Y005693D01*
X012495Y005682D01*
X012446Y005675D01*
X012396Y005672D01*
X012345Y005673D01*
X012296Y005678D01*
X012246Y005687D01*
X012198Y005700D01*
X012151Y005716D01*
X012105Y005737D01*
X012061Y005761D01*
X012019Y005788D01*
X011979Y005818D01*
X011942Y005852D01*
X011908Y005889D01*
X011876Y005928D01*
X011848Y005969D01*
X011823Y006013D01*
X011802Y006058D01*
X011785Y006105D01*
X011771Y006153D01*
X011761Y006202D01*
X011755Y006252D01*
X011753Y006302D01*
X016419Y003032D02*
X016421Y003072D01*
X016427Y003113D01*
X016437Y003152D01*
X016450Y003190D01*
X016468Y003227D01*
X016489Y003261D01*
X016513Y003294D01*
X016540Y003324D01*
X016570Y003351D01*
X016603Y003375D01*
X016637Y003396D01*
X016674Y003414D01*
X016712Y003427D01*
X016751Y003437D01*
X016792Y003443D01*
X016832Y003445D01*
X016872Y003443D01*
X016913Y003437D01*
X016952Y003427D01*
X016990Y003414D01*
X017027Y003396D01*
X017061Y003375D01*
X017094Y003351D01*
X017124Y003324D01*
X017151Y003294D01*
X017175Y003261D01*
X017196Y003227D01*
X017214Y003190D01*
X017227Y003152D01*
X017237Y003113D01*
X017243Y003072D01*
X017245Y003032D01*
X017243Y002992D01*
X017237Y002951D01*
X017227Y002912D01*
X017214Y002874D01*
X017196Y002837D01*
X017175Y002803D01*
X017151Y002770D01*
X017124Y002740D01*
X017094Y002713D01*
X017061Y002689D01*
X017027Y002668D01*
X016990Y002650D01*
X016952Y002637D01*
X016913Y002627D01*
X016872Y002621D01*
X016832Y002619D01*
X016792Y002621D01*
X016751Y002627D01*
X016712Y002637D01*
X016674Y002650D01*
X016637Y002668D01*
X016603Y002689D01*
X016570Y002713D01*
X016540Y002740D01*
X016513Y002770D01*
X016489Y002803D01*
X016468Y002837D01*
X016450Y002874D01*
X016437Y002912D01*
X016427Y002951D01*
X016421Y002992D01*
X016419Y003032D01*
X022325Y003032D02*
X022327Y003072D01*
X022333Y003113D01*
X022343Y003152D01*
X022356Y003190D01*
X022374Y003227D01*
X022395Y003261D01*
X022419Y003294D01*
X022446Y003324D01*
X022476Y003351D01*
X022509Y003375D01*
X022543Y003396D01*
X022580Y003414D01*
X022618Y003427D01*
X022657Y003437D01*
X022698Y003443D01*
X022738Y003445D01*
X022778Y003443D01*
X022819Y003437D01*
X022858Y003427D01*
X022896Y003414D01*
X022933Y003396D01*
X022967Y003375D01*
X023000Y003351D01*
X023030Y003324D01*
X023057Y003294D01*
X023081Y003261D01*
X023102Y003227D01*
X023120Y003190D01*
X023133Y003152D01*
X023143Y003113D01*
X023149Y003072D01*
X023151Y003032D01*
X023149Y002992D01*
X023143Y002951D01*
X023133Y002912D01*
X023120Y002874D01*
X023102Y002837D01*
X023081Y002803D01*
X023057Y002770D01*
X023030Y002740D01*
X023000Y002713D01*
X022967Y002689D01*
X022933Y002668D01*
X022896Y002650D01*
X022858Y002637D01*
X022819Y002627D01*
X022778Y002621D01*
X022738Y002619D01*
X022698Y002621D01*
X022657Y002627D01*
X022618Y002637D01*
X022580Y002650D01*
X022543Y002668D01*
X022509Y002689D01*
X022476Y002713D01*
X022446Y002740D01*
X022419Y002770D01*
X022395Y002803D01*
X022374Y002837D01*
X022356Y002874D01*
X022343Y002912D01*
X022333Y002951D01*
X022327Y002992D01*
X022325Y003032D01*
X028899Y006745D02*
X028901Y006795D01*
X028907Y006845D01*
X028917Y006894D01*
X028931Y006942D01*
X028948Y006989D01*
X028969Y007034D01*
X028994Y007078D01*
X029022Y007119D01*
X029054Y007158D01*
X029088Y007195D01*
X029125Y007229D01*
X029165Y007259D01*
X029207Y007286D01*
X029251Y007310D01*
X029297Y007331D01*
X029344Y007347D01*
X029392Y007360D01*
X029442Y007369D01*
X029491Y007374D01*
X029542Y007375D01*
X029592Y007372D01*
X029641Y007365D01*
X029690Y007354D01*
X029738Y007339D01*
X029784Y007321D01*
X029829Y007299D01*
X029872Y007273D01*
X029913Y007244D01*
X029952Y007212D01*
X029988Y007177D01*
X030020Y007139D01*
X030050Y007099D01*
X030077Y007056D01*
X030100Y007012D01*
X030119Y006966D01*
X030135Y006918D01*
X030147Y006869D01*
X030155Y006820D01*
X030159Y006770D01*
X030159Y006720D01*
X030155Y006670D01*
X030147Y006621D01*
X030135Y006572D01*
X030119Y006524D01*
X030100Y006478D01*
X030077Y006434D01*
X030050Y006391D01*
X030020Y006351D01*
X029988Y006313D01*
X029952Y006278D01*
X029913Y006246D01*
X029872Y006217D01*
X029829Y006191D01*
X029784Y006169D01*
X029738Y006151D01*
X029690Y006136D01*
X029641Y006125D01*
X029592Y006118D01*
X029542Y006115D01*
X029491Y006116D01*
X029442Y006121D01*
X029392Y006130D01*
X029344Y006143D01*
X029297Y006159D01*
X029251Y006180D01*
X029207Y006204D01*
X029165Y006231D01*
X029125Y006261D01*
X029088Y006295D01*
X029054Y006332D01*
X029022Y006371D01*
X028994Y006412D01*
X028969Y006456D01*
X028948Y006501D01*
X028931Y006548D01*
X028917Y006596D01*
X028907Y006645D01*
X028901Y006695D01*
X028899Y006745D01*
X025691Y011174D02*
X025693Y011243D01*
X025699Y011311D01*
X025709Y011379D01*
X025723Y011446D01*
X025741Y011513D01*
X025762Y011578D01*
X025788Y011642D01*
X025817Y011704D01*
X025849Y011764D01*
X025885Y011823D01*
X025925Y011879D01*
X025967Y011933D01*
X026013Y011984D01*
X026062Y012033D01*
X026113Y012079D01*
X026167Y012121D01*
X026223Y012161D01*
X026281Y012197D01*
X026342Y012229D01*
X026404Y012258D01*
X026468Y012284D01*
X026533Y012305D01*
X026600Y012323D01*
X026667Y012337D01*
X026735Y012347D01*
X026803Y012353D01*
X026872Y012355D01*
X026941Y012353D01*
X027009Y012347D01*
X027077Y012337D01*
X027144Y012323D01*
X027211Y012305D01*
X027276Y012284D01*
X027340Y012258D01*
X027402Y012229D01*
X027462Y012197D01*
X027521Y012161D01*
X027577Y012121D01*
X027631Y012079D01*
X027682Y012033D01*
X027731Y011984D01*
X027777Y011933D01*
X027819Y011879D01*
X027859Y011823D01*
X027895Y011764D01*
X027927Y011704D01*
X027956Y011642D01*
X027982Y011578D01*
X028003Y011513D01*
X028021Y011446D01*
X028035Y011379D01*
X028045Y011311D01*
X028051Y011243D01*
X028053Y011174D01*
X028051Y011105D01*
X028045Y011037D01*
X028035Y010969D01*
X028021Y010902D01*
X028003Y010835D01*
X027982Y010770D01*
X027956Y010706D01*
X027927Y010644D01*
X027895Y010583D01*
X027859Y010525D01*
X027819Y010469D01*
X027777Y010415D01*
X027731Y010364D01*
X027682Y010315D01*
X027631Y010269D01*
X027577Y010227D01*
X027521Y010187D01*
X027463Y010151D01*
X027402Y010119D01*
X027340Y010090D01*
X027276Y010064D01*
X027211Y010043D01*
X027144Y010025D01*
X027077Y010011D01*
X027009Y010001D01*
X026941Y009995D01*
X026872Y009993D01*
X026803Y009995D01*
X026735Y010001D01*
X026667Y010011D01*
X026600Y010025D01*
X026533Y010043D01*
X026468Y010064D01*
X026404Y010090D01*
X026342Y010119D01*
X026281Y010151D01*
X026223Y010187D01*
X026167Y010227D01*
X026113Y010269D01*
X026062Y010315D01*
X026013Y010364D01*
X025967Y010415D01*
X025925Y010469D01*
X025885Y010525D01*
X025849Y010583D01*
X025817Y010644D01*
X025788Y010706D01*
X025762Y010770D01*
X025741Y010835D01*
X025723Y010902D01*
X025709Y010969D01*
X025699Y011037D01*
X025693Y011105D01*
X025691Y011174D01*
X031692Y012748D02*
X031694Y012788D01*
X031700Y012829D01*
X031710Y012868D01*
X031723Y012906D01*
X031741Y012943D01*
X031762Y012977D01*
X031786Y013010D01*
X031813Y013040D01*
X031843Y013067D01*
X031876Y013091D01*
X031910Y013112D01*
X031947Y013130D01*
X031985Y013143D01*
X032024Y013153D01*
X032065Y013159D01*
X032105Y013161D01*
X032145Y013159D01*
X032186Y013153D01*
X032225Y013143D01*
X032263Y013130D01*
X032300Y013112D01*
X032334Y013091D01*
X032367Y013067D01*
X032397Y013040D01*
X032424Y013010D01*
X032448Y012977D01*
X032469Y012943D01*
X032487Y012906D01*
X032500Y012868D01*
X032510Y012829D01*
X032516Y012788D01*
X032518Y012748D01*
X032516Y012708D01*
X032510Y012667D01*
X032500Y012628D01*
X032487Y012590D01*
X032469Y012553D01*
X032448Y012519D01*
X032424Y012486D01*
X032397Y012456D01*
X032367Y012429D01*
X032334Y012405D01*
X032300Y012384D01*
X032263Y012366D01*
X032225Y012353D01*
X032186Y012343D01*
X032145Y012337D01*
X032105Y012335D01*
X032065Y012337D01*
X032024Y012343D01*
X031985Y012353D01*
X031947Y012366D01*
X031910Y012384D01*
X031876Y012405D01*
X031843Y012429D01*
X031813Y012456D01*
X031786Y012486D01*
X031762Y012519D01*
X031741Y012553D01*
X031723Y012590D01*
X031710Y012628D01*
X031700Y012667D01*
X031694Y012708D01*
X031692Y012748D01*
X038781Y014244D02*
X038781Y018733D01*
X038783Y018772D01*
X038789Y018810D01*
X038798Y018847D01*
X038811Y018884D01*
X038828Y018919D01*
X038847Y018952D01*
X038870Y018983D01*
X038896Y019012D01*
X038925Y019038D01*
X038956Y019061D01*
X038989Y019080D01*
X039024Y019097D01*
X039061Y019110D01*
X039098Y019119D01*
X039136Y019125D01*
X039175Y019127D01*
X039175Y019126D02*
X040553Y019126D01*
X040553Y019127D02*
X040592Y019125D01*
X040630Y019119D01*
X040667Y019110D01*
X040704Y019097D01*
X040739Y019080D01*
X040772Y019061D01*
X040803Y019038D01*
X040832Y019012D01*
X040858Y018983D01*
X040881Y018952D01*
X040900Y018919D01*
X040917Y018884D01*
X040930Y018847D01*
X040939Y018810D01*
X040945Y018772D01*
X040947Y018733D01*
X040946Y018733D02*
X040946Y014244D01*
X040947Y014244D02*
X040945Y014205D01*
X040939Y014167D01*
X040930Y014130D01*
X040917Y014093D01*
X040900Y014058D01*
X040881Y014025D01*
X040858Y013994D01*
X040832Y013965D01*
X040803Y013939D01*
X040772Y013916D01*
X040739Y013897D01*
X040704Y013880D01*
X040667Y013867D01*
X040630Y013858D01*
X040592Y013852D01*
X040553Y013850D01*
X040553Y013851D02*
X039175Y013851D01*
X039175Y013850D02*
X039136Y013852D01*
X039098Y013858D01*
X039061Y013867D01*
X039024Y013880D01*
X038989Y013897D01*
X038956Y013916D01*
X038925Y013939D01*
X038896Y013965D01*
X038870Y013994D01*
X038847Y014025D01*
X038828Y014058D01*
X038811Y014093D01*
X038798Y014130D01*
X038789Y014167D01*
X038783Y014205D01*
X038781Y014244D01*
X036576Y020130D02*
X036578Y020182D01*
X036584Y020234D01*
X036594Y020285D01*
X036607Y020335D01*
X036625Y020385D01*
X036646Y020432D01*
X036670Y020478D01*
X036699Y020522D01*
X036730Y020564D01*
X036764Y020603D01*
X036801Y020640D01*
X036841Y020673D01*
X036884Y020704D01*
X036928Y020731D01*
X036974Y020755D01*
X037023Y020775D01*
X037072Y020791D01*
X037123Y020804D01*
X037174Y020813D01*
X037226Y020818D01*
X037278Y020819D01*
X037330Y020816D01*
X037382Y020809D01*
X037433Y020798D01*
X037483Y020784D01*
X037532Y020765D01*
X037579Y020743D01*
X037624Y020718D01*
X037668Y020689D01*
X037709Y020657D01*
X037748Y020622D01*
X037783Y020584D01*
X037816Y020543D01*
X037846Y020501D01*
X037872Y020456D01*
X037895Y020409D01*
X037914Y020360D01*
X037930Y020310D01*
X037942Y020260D01*
X037950Y020208D01*
X037954Y020156D01*
X037954Y020104D01*
X037950Y020052D01*
X037942Y020000D01*
X037930Y019950D01*
X037914Y019900D01*
X037895Y019851D01*
X037872Y019804D01*
X037846Y019759D01*
X037816Y019717D01*
X037783Y019676D01*
X037748Y019638D01*
X037709Y019603D01*
X037668Y019571D01*
X037624Y019542D01*
X037579Y019517D01*
X037532Y019495D01*
X037483Y019476D01*
X037433Y019462D01*
X037382Y019451D01*
X037330Y019444D01*
X037278Y019441D01*
X037226Y019442D01*
X037174Y019447D01*
X037123Y019456D01*
X037072Y019469D01*
X037023Y019485D01*
X036974Y019505D01*
X036928Y019529D01*
X036884Y019556D01*
X036841Y019587D01*
X036801Y019620D01*
X036764Y019657D01*
X036730Y019696D01*
X036699Y019738D01*
X036670Y019782D01*
X036646Y019828D01*
X036625Y019875D01*
X036607Y019925D01*
X036594Y019975D01*
X036584Y020026D01*
X036578Y020078D01*
X036576Y020130D01*
X031692Y020229D02*
X031694Y020269D01*
X031700Y020310D01*
X031710Y020349D01*
X031723Y020387D01*
X031741Y020424D01*
X031762Y020458D01*
X031786Y020491D01*
X031813Y020521D01*
X031843Y020548D01*
X031876Y020572D01*
X031910Y020593D01*
X031947Y020611D01*
X031985Y020624D01*
X032024Y020634D01*
X032065Y020640D01*
X032105Y020642D01*
X032145Y020640D01*
X032186Y020634D01*
X032225Y020624D01*
X032263Y020611D01*
X032300Y020593D01*
X032334Y020572D01*
X032367Y020548D01*
X032397Y020521D01*
X032424Y020491D01*
X032448Y020458D01*
X032469Y020424D01*
X032487Y020387D01*
X032500Y020349D01*
X032510Y020310D01*
X032516Y020269D01*
X032518Y020229D01*
X032516Y020189D01*
X032510Y020148D01*
X032500Y020109D01*
X032487Y020071D01*
X032469Y020034D01*
X032448Y020000D01*
X032424Y019967D01*
X032397Y019937D01*
X032367Y019910D01*
X032334Y019886D01*
X032300Y019865D01*
X032263Y019847D01*
X032225Y019834D01*
X032186Y019824D01*
X032145Y019818D01*
X032105Y019816D01*
X032065Y019818D01*
X032024Y019824D01*
X031985Y019834D01*
X031947Y019847D01*
X031910Y019865D01*
X031876Y019886D01*
X031843Y019910D01*
X031813Y019937D01*
X031786Y019967D01*
X031762Y020000D01*
X031741Y020034D01*
X031723Y020071D01*
X031710Y020109D01*
X031700Y020148D01*
X031694Y020189D01*
X031692Y020229D01*
X025894Y025675D02*
X025896Y025716D01*
X025902Y025757D01*
X025912Y025797D01*
X025925Y025836D01*
X025942Y025873D01*
X025963Y025909D01*
X025987Y025943D01*
X026014Y025974D01*
X026043Y026002D01*
X026076Y026028D01*
X026110Y026050D01*
X026147Y026069D01*
X026185Y026084D01*
X026225Y026096D01*
X026265Y026104D01*
X026306Y026108D01*
X026348Y026108D01*
X026389Y026104D01*
X026429Y026096D01*
X026469Y026084D01*
X026507Y026069D01*
X026543Y026050D01*
X026578Y026028D01*
X026611Y026002D01*
X026640Y025974D01*
X026667Y025943D01*
X026691Y025909D01*
X026712Y025873D01*
X026729Y025836D01*
X026742Y025797D01*
X026752Y025757D01*
X026758Y025716D01*
X026760Y025675D01*
X026758Y025634D01*
X026752Y025593D01*
X026742Y025553D01*
X026729Y025514D01*
X026712Y025477D01*
X026691Y025441D01*
X026667Y025407D01*
X026640Y025376D01*
X026611Y025348D01*
X026578Y025322D01*
X026544Y025300D01*
X026507Y025281D01*
X026469Y025266D01*
X026429Y025254D01*
X026389Y025246D01*
X026348Y025242D01*
X026306Y025242D01*
X026265Y025246D01*
X026225Y025254D01*
X026185Y025266D01*
X026147Y025281D01*
X026111Y025300D01*
X026076Y025322D01*
X026043Y025348D01*
X026014Y025376D01*
X025987Y025407D01*
X025963Y025441D01*
X025942Y025477D01*
X025925Y025514D01*
X025912Y025553D01*
X025902Y025593D01*
X025896Y025634D01*
X025894Y025675D01*
X024657Y026788D02*
X020127Y031318D01*
X020127Y031875D02*
X020156Y031901D01*
X020187Y031924D01*
X020220Y031943D01*
X020255Y031960D01*
X020292Y031973D01*
X020329Y031982D01*
X020367Y031988D01*
X020406Y031990D01*
X020445Y031988D01*
X020483Y031982D01*
X020520Y031973D01*
X020557Y031960D01*
X020592Y031943D01*
X020625Y031924D01*
X020656Y031901D01*
X020685Y031875D01*
X020684Y031874D02*
X025214Y027345D01*
X025214Y026788D02*
X025185Y026762D01*
X025154Y026739D01*
X025121Y026720D01*
X025086Y026703D01*
X025049Y026690D01*
X025012Y026681D01*
X024974Y026675D01*
X024935Y026673D01*
X024896Y026675D01*
X024858Y026681D01*
X024821Y026690D01*
X024784Y026703D01*
X024749Y026720D01*
X024716Y026739D01*
X024685Y026762D01*
X024656Y026788D01*
X025214Y026788D02*
X025240Y026817D01*
X025263Y026848D01*
X025282Y026881D01*
X025299Y026916D01*
X025312Y026953D01*
X025321Y026990D01*
X025327Y027028D01*
X025329Y027067D01*
X025327Y027106D01*
X025321Y027144D01*
X025312Y027181D01*
X025299Y027218D01*
X025282Y027253D01*
X025263Y027286D01*
X025240Y027317D01*
X025214Y027346D01*
X020127Y031317D02*
X020101Y031346D01*
X020078Y031377D01*
X020059Y031410D01*
X020042Y031445D01*
X020029Y031482D01*
X020020Y031519D01*
X020014Y031557D01*
X020012Y031596D01*
X020014Y031635D01*
X020020Y031673D01*
X020029Y031710D01*
X020042Y031747D01*
X020059Y031782D01*
X020078Y031815D01*
X020101Y031846D01*
X020127Y031875D01*
X019155Y030268D02*
X019157Y030318D01*
X019163Y030368D01*
X019173Y030417D01*
X019187Y030465D01*
X019204Y030512D01*
X019225Y030557D01*
X019250Y030601D01*
X019278Y030642D01*
X019310Y030681D01*
X019344Y030718D01*
X019381Y030752D01*
X019421Y030782D01*
X019463Y030809D01*
X019507Y030833D01*
X019553Y030854D01*
X019600Y030870D01*
X019648Y030883D01*
X019698Y030892D01*
X019747Y030897D01*
X019798Y030898D01*
X019848Y030895D01*
X019897Y030888D01*
X019946Y030877D01*
X019994Y030862D01*
X020040Y030844D01*
X020085Y030822D01*
X020128Y030796D01*
X020169Y030767D01*
X020208Y030735D01*
X020244Y030700D01*
X020276Y030662D01*
X020306Y030622D01*
X020333Y030579D01*
X020356Y030535D01*
X020375Y030489D01*
X020391Y030441D01*
X020403Y030392D01*
X020411Y030343D01*
X020415Y030293D01*
X020415Y030243D01*
X020411Y030193D01*
X020403Y030144D01*
X020391Y030095D01*
X020375Y030047D01*
X020356Y030001D01*
X020333Y029957D01*
X020306Y029914D01*
X020276Y029874D01*
X020244Y029836D01*
X020208Y029801D01*
X020169Y029769D01*
X020128Y029740D01*
X020085Y029714D01*
X020040Y029692D01*
X019994Y029674D01*
X019946Y029659D01*
X019897Y029648D01*
X019848Y029641D01*
X019798Y029638D01*
X019747Y029639D01*
X019698Y029644D01*
X019648Y029653D01*
X019600Y029666D01*
X019553Y029682D01*
X019507Y029703D01*
X019463Y029727D01*
X019421Y029754D01*
X019381Y029784D01*
X019344Y029818D01*
X019310Y029855D01*
X019278Y029894D01*
X019250Y029935D01*
X019225Y029979D01*
X019204Y030024D01*
X019187Y030071D01*
X019173Y030119D01*
X019163Y030168D01*
X019157Y030218D01*
X019155Y030268D01*
X011753Y026676D02*
X011755Y026726D01*
X011761Y026776D01*
X011771Y026825D01*
X011785Y026873D01*
X011802Y026920D01*
X011823Y026965D01*
X011848Y027009D01*
X011876Y027050D01*
X011908Y027089D01*
X011942Y027126D01*
X011979Y027160D01*
X012019Y027190D01*
X012061Y027217D01*
X012105Y027241D01*
X012151Y027262D01*
X012198Y027278D01*
X012246Y027291D01*
X012296Y027300D01*
X012345Y027305D01*
X012396Y027306D01*
X012446Y027303D01*
X012495Y027296D01*
X012544Y027285D01*
X012592Y027270D01*
X012638Y027252D01*
X012683Y027230D01*
X012726Y027204D01*
X012767Y027175D01*
X012806Y027143D01*
X012842Y027108D01*
X012874Y027070D01*
X012904Y027030D01*
X012931Y026987D01*
X012954Y026943D01*
X012973Y026897D01*
X012989Y026849D01*
X013001Y026800D01*
X013009Y026751D01*
X013013Y026701D01*
X013013Y026651D01*
X013009Y026601D01*
X013001Y026552D01*
X012989Y026503D01*
X012973Y026455D01*
X012954Y026409D01*
X012931Y026365D01*
X012904Y026322D01*
X012874Y026282D01*
X012842Y026244D01*
X012806Y026209D01*
X012767Y026177D01*
X012726Y026148D01*
X012683Y026122D01*
X012638Y026100D01*
X012592Y026082D01*
X012544Y026067D01*
X012495Y026056D01*
X012446Y026049D01*
X012396Y026046D01*
X012345Y026047D01*
X012296Y026052D01*
X012246Y026061D01*
X012198Y026074D01*
X012151Y026090D01*
X012105Y026111D01*
X012061Y026135D01*
X012019Y026162D01*
X011979Y026192D01*
X011942Y026226D01*
X011908Y026263D01*
X011876Y026302D01*
X011848Y026343D01*
X011823Y026387D01*
X011802Y026432D01*
X011785Y026479D01*
X011771Y026527D01*
X011761Y026576D01*
X011755Y026626D01*
X011753Y026676D01*
X002009Y031449D02*
X002011Y031499D01*
X002017Y031549D01*
X002027Y031599D01*
X002040Y031647D01*
X002057Y031695D01*
X002078Y031741D01*
X002102Y031785D01*
X002130Y031827D01*
X002161Y031867D01*
X002195Y031904D01*
X002232Y031939D01*
X002271Y031970D01*
X002312Y031999D01*
X002356Y032024D01*
X002402Y032046D01*
X002449Y032064D01*
X002497Y032078D01*
X002546Y032089D01*
X002596Y032096D01*
X002646Y032099D01*
X002697Y032098D01*
X002747Y032093D01*
X002797Y032084D01*
X002845Y032072D01*
X002893Y032055D01*
X002939Y032035D01*
X002984Y032012D01*
X003027Y031985D01*
X003067Y031955D01*
X003105Y031922D01*
X003140Y031886D01*
X003173Y031847D01*
X003202Y031806D01*
X003228Y031763D01*
X003251Y031718D01*
X003270Y031671D01*
X003285Y031623D01*
X003297Y031574D01*
X003305Y031524D01*
X003309Y031474D01*
X003309Y031424D01*
X003305Y031374D01*
X003297Y031324D01*
X003285Y031275D01*
X003270Y031227D01*
X003251Y031180D01*
X003228Y031135D01*
X003202Y031092D01*
X003173Y031051D01*
X003140Y031012D01*
X003105Y030976D01*
X003067Y030943D01*
X003027Y030913D01*
X002984Y030886D01*
X002939Y030863D01*
X002893Y030843D01*
X002845Y030826D01*
X002797Y030814D01*
X002747Y030805D01*
X002697Y030800D01*
X002646Y030799D01*
X002596Y030802D01*
X002546Y030809D01*
X002497Y030820D01*
X002449Y030834D01*
X002402Y030852D01*
X002356Y030874D01*
X002312Y030899D01*
X002271Y030928D01*
X002232Y030959D01*
X002195Y030994D01*
X002161Y031031D01*
X002130Y031071D01*
X002102Y031113D01*
X002078Y031157D01*
X002057Y031203D01*
X002040Y031251D01*
X002027Y031299D01*
X002017Y031349D01*
X002011Y031399D01*
X002009Y031449D01*
X005376Y016489D02*
X005378Y016539D01*
X005384Y016589D01*
X005394Y016638D01*
X005408Y016686D01*
X005425Y016733D01*
X005446Y016778D01*
X005471Y016822D01*
X005499Y016863D01*
X005531Y016902D01*
X005565Y016939D01*
X005602Y016973D01*
X005642Y017003D01*
X005684Y017030D01*
X005728Y017054D01*
X005774Y017075D01*
X005821Y017091D01*
X005869Y017104D01*
X005919Y017113D01*
X005968Y017118D01*
X006019Y017119D01*
X006069Y017116D01*
X006118Y017109D01*
X006167Y017098D01*
X006215Y017083D01*
X006261Y017065D01*
X006306Y017043D01*
X006349Y017017D01*
X006390Y016988D01*
X006429Y016956D01*
X006465Y016921D01*
X006497Y016883D01*
X006527Y016843D01*
X006554Y016800D01*
X006577Y016756D01*
X006596Y016710D01*
X006612Y016662D01*
X006624Y016613D01*
X006632Y016564D01*
X006636Y016514D01*
X006636Y016464D01*
X006632Y016414D01*
X006624Y016365D01*
X006612Y016316D01*
X006596Y016268D01*
X006577Y016222D01*
X006554Y016178D01*
X006527Y016135D01*
X006497Y016095D01*
X006465Y016057D01*
X006429Y016022D01*
X006390Y015990D01*
X006349Y015961D01*
X006306Y015935D01*
X006261Y015913D01*
X006215Y015895D01*
X006167Y015880D01*
X006118Y015869D01*
X006069Y015862D01*
X006019Y015859D01*
X005968Y015860D01*
X005919Y015865D01*
X005869Y015874D01*
X005821Y015887D01*
X005774Y015903D01*
X005728Y015924D01*
X005684Y015948D01*
X005642Y015975D01*
X005602Y016005D01*
X005565Y016039D01*
X005531Y016076D01*
X005499Y016115D01*
X005471Y016156D01*
X005446Y016200D01*
X005425Y016245D01*
X005408Y016292D01*
X005394Y016340D01*
X005384Y016389D01*
X005378Y016439D01*
X005376Y016489D01*
X034391Y028260D02*
X034393Y028305D01*
X034399Y028349D01*
X034408Y028393D01*
X034422Y028435D01*
X034439Y028476D01*
X034460Y028516D01*
X034484Y028554D01*
X034511Y028589D01*
X034541Y028622D01*
X034574Y028652D01*
X034609Y028679D01*
X034647Y028703D01*
X034687Y028724D01*
X034728Y028741D01*
X034770Y028755D01*
X034814Y028764D01*
X034858Y028770D01*
X034903Y028772D01*
X034948Y028770D01*
X034992Y028764D01*
X035036Y028755D01*
X035078Y028741D01*
X035119Y028724D01*
X035159Y028703D01*
X035197Y028679D01*
X035232Y028652D01*
X035265Y028622D01*
X035295Y028589D01*
X035322Y028554D01*
X035346Y028516D01*
X035367Y028476D01*
X035384Y028435D01*
X035398Y028393D01*
X035407Y028349D01*
X035413Y028305D01*
X035415Y028260D01*
X035413Y028215D01*
X035407Y028171D01*
X035398Y028127D01*
X035384Y028085D01*
X035367Y028044D01*
X035346Y028004D01*
X035322Y027966D01*
X035295Y027931D01*
X035265Y027898D01*
X035232Y027868D01*
X035197Y027841D01*
X035159Y027817D01*
X035119Y027796D01*
X035078Y027779D01*
X035036Y027765D01*
X034992Y027756D01*
X034948Y027750D01*
X034903Y027748D01*
X034858Y027750D01*
X034814Y027756D01*
X034770Y027765D01*
X034728Y027779D01*
X034687Y027796D01*
X034647Y027817D01*
X034609Y027841D01*
X034574Y027868D01*
X034541Y027898D01*
X034511Y027931D01*
X034484Y027966D01*
X034460Y028004D01*
X034439Y028044D01*
X034422Y028085D01*
X034408Y028127D01*
X034399Y028171D01*
X034393Y028215D01*
X034391Y028260D01*
X034391Y032012D02*
X034393Y032057D01*
X034399Y032101D01*
X034408Y032145D01*
X034422Y032187D01*
X034439Y032228D01*
X034460Y032268D01*
X034484Y032306D01*
X034511Y032341D01*
X034541Y032374D01*
X034574Y032404D01*
X034609Y032431D01*
X034647Y032455D01*
X034687Y032476D01*
X034728Y032493D01*
X034770Y032507D01*
X034814Y032516D01*
X034858Y032522D01*
X034903Y032524D01*
X034948Y032522D01*
X034992Y032516D01*
X035036Y032507D01*
X035078Y032493D01*
X035119Y032476D01*
X035159Y032455D01*
X035197Y032431D01*
X035232Y032404D01*
X035265Y032374D01*
X035295Y032341D01*
X035322Y032306D01*
X035346Y032268D01*
X035367Y032228D01*
X035384Y032187D01*
X035398Y032145D01*
X035407Y032101D01*
X035413Y032057D01*
X035415Y032012D01*
X035413Y031967D01*
X035407Y031923D01*
X035398Y031879D01*
X035384Y031837D01*
X035367Y031796D01*
X035346Y031756D01*
X035322Y031718D01*
X035295Y031683D01*
X035265Y031650D01*
X035232Y031620D01*
X035197Y031593D01*
X035159Y031569D01*
X035119Y031548D01*
X035078Y031531D01*
X035036Y031517D01*
X034992Y031508D01*
X034948Y031502D01*
X034903Y031500D01*
X034858Y031502D01*
X034814Y031508D01*
X034770Y031517D01*
X034728Y031531D01*
X034687Y031548D01*
X034647Y031569D01*
X034609Y031593D01*
X034574Y031620D01*
X034541Y031650D01*
X034511Y031683D01*
X034484Y031718D01*
X034460Y031756D01*
X034439Y031796D01*
X034422Y031837D01*
X034408Y031879D01*
X034399Y031923D01*
X034393Y031967D01*
X034391Y032012D01*
X040001Y031449D02*
X040003Y031499D01*
X040009Y031549D01*
X040019Y031599D01*
X040032Y031647D01*
X040049Y031695D01*
X040070Y031741D01*
X040094Y031785D01*
X040122Y031827D01*
X040153Y031867D01*
X040187Y031904D01*
X040224Y031939D01*
X040263Y031970D01*
X040304Y031999D01*
X040348Y032024D01*
X040394Y032046D01*
X040441Y032064D01*
X040489Y032078D01*
X040538Y032089D01*
X040588Y032096D01*
X040638Y032099D01*
X040689Y032098D01*
X040739Y032093D01*
X040789Y032084D01*
X040837Y032072D01*
X040885Y032055D01*
X040931Y032035D01*
X040976Y032012D01*
X041019Y031985D01*
X041059Y031955D01*
X041097Y031922D01*
X041132Y031886D01*
X041165Y031847D01*
X041194Y031806D01*
X041220Y031763D01*
X041243Y031718D01*
X041262Y031671D01*
X041277Y031623D01*
X041289Y031574D01*
X041297Y031524D01*
X041301Y031474D01*
X041301Y031424D01*
X041297Y031374D01*
X041289Y031324D01*
X041277Y031275D01*
X041262Y031227D01*
X041243Y031180D01*
X041220Y031135D01*
X041194Y031092D01*
X041165Y031051D01*
X041132Y031012D01*
X041097Y030976D01*
X041059Y030943D01*
X041019Y030913D01*
X040976Y030886D01*
X040931Y030863D01*
X040885Y030843D01*
X040837Y030826D01*
X040789Y030814D01*
X040739Y030805D01*
X040689Y030800D01*
X040638Y030799D01*
X040588Y030802D01*
X040538Y030809D01*
X040489Y030820D01*
X040441Y030834D01*
X040394Y030852D01*
X040348Y030874D01*
X040304Y030899D01*
X040263Y030928D01*
X040224Y030959D01*
X040187Y030994D01*
X040153Y031031D01*
X040122Y031071D01*
X040094Y031113D01*
X040070Y031157D01*
X040049Y031203D01*
X040032Y031251D01*
X040019Y031299D01*
X040009Y031349D01*
X040003Y031399D01*
X040001Y031449D01*
X040001Y001528D02*
X040003Y001578D01*
X040009Y001628D01*
X040019Y001678D01*
X040032Y001726D01*
X040049Y001774D01*
X040070Y001820D01*
X040094Y001864D01*
X040122Y001906D01*
X040153Y001946D01*
X040187Y001983D01*
X040224Y002018D01*
X040263Y002049D01*
X040304Y002078D01*
X040348Y002103D01*
X040394Y002125D01*
X040441Y002143D01*
X040489Y002157D01*
X040538Y002168D01*
X040588Y002175D01*
X040638Y002178D01*
X040689Y002177D01*
X040739Y002172D01*
X040789Y002163D01*
X040837Y002151D01*
X040885Y002134D01*
X040931Y002114D01*
X040976Y002091D01*
X041019Y002064D01*
X041059Y002034D01*
X041097Y002001D01*
X041132Y001965D01*
X041165Y001926D01*
X041194Y001885D01*
X041220Y001842D01*
X041243Y001797D01*
X041262Y001750D01*
X041277Y001702D01*
X041289Y001653D01*
X041297Y001603D01*
X041301Y001553D01*
X041301Y001503D01*
X041297Y001453D01*
X041289Y001403D01*
X041277Y001354D01*
X041262Y001306D01*
X041243Y001259D01*
X041220Y001214D01*
X041194Y001171D01*
X041165Y001130D01*
X041132Y001091D01*
X041097Y001055D01*
X041059Y001022D01*
X041019Y000992D01*
X040976Y000965D01*
X040931Y000942D01*
X040885Y000922D01*
X040837Y000905D01*
X040789Y000893D01*
X040739Y000884D01*
X040689Y000879D01*
X040638Y000878D01*
X040588Y000881D01*
X040538Y000888D01*
X040489Y000899D01*
X040441Y000913D01*
X040394Y000931D01*
X040348Y000953D01*
X040304Y000978D01*
X040263Y001007D01*
X040224Y001038D01*
X040187Y001073D01*
X040153Y001110D01*
X040122Y001150D01*
X040094Y001192D01*
X040070Y001236D01*
X040049Y001282D01*
X040032Y001330D01*
X040019Y001378D01*
X040009Y001428D01*
X040003Y001478D01*
X040001Y001528D01*
M02*
