G75*
G70*
%OFA0B0*%
%FSLAX24Y24*%
%IPPOS*%
%LPD*%
%AMOC8*
5,1,8,0,0,1.08239X$1,22.5*
%
%ADD10C,0.0050*%
D10*
X006736Y005692D02*
X006736Y010810D01*
X019335Y010810D01*
X018232Y009550D01*
X006736Y005692D01*
X007524Y004904D02*
X008626Y006164D01*
X020122Y010023D01*
X020122Y004904D01*
X007524Y004904D01*
X005949Y011991D02*
X011067Y011991D01*
X007209Y023487D01*
X005949Y024589D01*
X005949Y011991D01*
X010595Y013881D02*
X006736Y025377D01*
X011854Y025377D01*
X011854Y012778D01*
X010595Y013881D01*
X013035Y011991D02*
X018154Y011991D01*
X014295Y023487D01*
X013035Y024589D01*
X013035Y011991D01*
X017681Y013881D02*
X013823Y025377D01*
X018941Y025377D01*
X018941Y012778D01*
X017681Y013881D01*
X020910Y010810D02*
X020910Y005692D01*
X032406Y009550D01*
X033508Y010810D01*
X020910Y010810D01*
X022878Y011991D02*
X027996Y011991D01*
X024138Y023487D01*
X022878Y024589D01*
X022878Y011991D01*
X027524Y013881D02*
X023665Y025377D01*
X028784Y025377D01*
X028784Y012778D01*
X027524Y013881D01*
X029965Y011991D02*
X035083Y011991D01*
X031224Y023487D01*
X029965Y024589D01*
X029965Y011991D01*
X034295Y010023D02*
X034295Y004904D01*
X021697Y004904D01*
X022799Y006164D01*
X034295Y010023D01*
X035870Y012778D02*
X034610Y013881D01*
X030752Y025377D01*
X035870Y025377D01*
X035870Y012778D01*
X035083Y026558D02*
X022484Y026558D01*
X023587Y027818D01*
X035083Y031676D01*
X035083Y026558D01*
X033193Y031204D02*
X021697Y027345D01*
X021697Y032463D01*
X034295Y032463D01*
X033193Y031204D01*
X020910Y031676D02*
X020910Y026558D01*
X008311Y026558D01*
X009413Y027818D01*
X020910Y031676D01*
X020122Y032463D02*
X019020Y031204D01*
X007524Y027345D01*
X007524Y032463D01*
X020122Y032463D01*
M02*
