%
M48
M72
T01C0.0197
T02C0.0591
T03C0.0669
T04C0.1260
%
T01
X1013Y3330
X2194Y3330
X3769Y3723
X3375Y4511
X1800Y5298
X1013Y5692
X4556Y5692
X6131Y5692
X7706Y5692
X8493Y6873
X9674Y5692
X11643Y5692
X13611Y5692
X13611Y6873
X15580Y5692
X17548Y5692
X19123Y5692
X21091Y5692
X23060Y5692
X23060Y3723
X21091Y3723
X19517Y3723
X17548Y3723
X15580Y3723
X13611Y3723
X11643Y3723
X9674Y3723
X7706Y3723
X5737Y3723
X8493Y8841
X11643Y9235
X11643Y10416
X13611Y10416
X13611Y9235
X15580Y10416
X17154Y10416
X19123Y10416
X21091Y10416
X23060Y10416
X23060Y12385
X21091Y12385
X19517Y13172
X17548Y13172
X15580Y13172
X13611Y13172
X11643Y13172
X11249Y11991
X9674Y13172
X8887Y11991
X7706Y13172
X5737Y13172
X3769Y13172
X1013Y12385
X1013Y10023
X4556Y10023
X3769Y15141
X5737Y15141
X7706Y15141
X9674Y15141
X11643Y15141
X13611Y15141
X15580Y15141
X17548Y15141
X19517Y15141
T02
X21091Y8054
X2981Y8054
T03
X1977Y7050
X3985Y7050
X3985Y9058
X1977Y9058
X20087Y9058
X22095Y9058
X22095Y7050
X20087Y7050
T04
X1800Y1755
X1800Y14353
X22272Y14353
X22272Y1755
M30
