G75*
G70*
%OFA0B0*%
%FSLAX24Y24*%
%IPPOS*%
%LPD*%
%AMOC8*
5,1,8,0,0,1.08239X$1,22.5*
%
%ADD10C,0.0060*%
%ADD11R,0.0287X0.0130*%
%ADD12C,0.0097*%
%ADD13R,0.0276X0.0433*%
%ADD14R,0.0240X0.0492*%
%ADD15R,0.0411X0.0709*%
%ADD16C,0.0886*%
%ADD17C,0.1004*%
%ADD18R,0.1000X0.0402*%
%ADD19R,0.0787X0.0630*%
%ADD20C,0.2300*%
%ADD21R,0.2362X0.0787*%
%ADD22C,0.0130*%
%ADD23C,0.0189*%
%ADD24C,0.0120*%
%ADD25C,0.0357*%
%ADD26C,0.0240*%
%ADD27C,0.0400*%
%ADD28C,0.0100*%
%ADD29C,0.0500*%
%ADD30C,0.0320*%
D10*
X005393Y001636D02*
X005500Y001529D01*
X005713Y001529D01*
X005820Y001636D01*
X005820Y002063D01*
X005713Y002169D01*
X005500Y002169D01*
X005393Y002063D01*
X005393Y001636D01*
X006038Y001636D02*
X006144Y001529D01*
X006358Y001529D01*
X006465Y001636D01*
X006465Y001742D01*
X006358Y001849D01*
X006144Y001849D01*
X006038Y001956D01*
X006038Y002063D01*
X006144Y002169D01*
X006358Y002169D01*
X006465Y002063D01*
X006682Y002063D02*
X006682Y001956D01*
X006789Y001849D01*
X007002Y001849D01*
X007109Y001742D01*
X007109Y001636D01*
X007002Y001529D01*
X006789Y001529D01*
X006682Y001636D01*
X006682Y002063D02*
X006789Y002169D01*
X007002Y002169D01*
X007109Y002063D01*
X007327Y002169D02*
X007540Y002169D01*
X007433Y002169D02*
X007433Y001529D01*
X007327Y001529D02*
X007540Y001529D01*
X008401Y001529D02*
X008721Y001529D01*
X008828Y001636D01*
X008828Y001742D01*
X008721Y001849D01*
X008401Y001849D01*
X008401Y001529D02*
X008401Y002169D01*
X008721Y002169D01*
X008828Y002063D01*
X008828Y001956D01*
X008721Y001849D01*
X009045Y001849D02*
X009045Y001636D01*
X009152Y001529D01*
X009366Y001529D01*
X009472Y001742D02*
X009045Y001742D01*
X009045Y001849D02*
X009152Y001956D01*
X009366Y001956D01*
X009472Y001849D01*
X009472Y001742D01*
X009690Y001636D02*
X009797Y001529D01*
X010117Y001529D01*
X010117Y001849D01*
X010010Y001956D01*
X009797Y001956D01*
X009797Y001742D02*
X010117Y001742D01*
X010335Y001849D02*
X010335Y001636D01*
X010441Y001529D01*
X010762Y001529D01*
X010979Y001636D02*
X011086Y001529D01*
X011299Y001529D01*
X011406Y001636D01*
X011406Y001849D01*
X011299Y001956D01*
X011086Y001956D01*
X010979Y001849D01*
X010979Y001636D01*
X010762Y001956D02*
X010441Y001956D01*
X010335Y001849D01*
X009797Y001742D02*
X009690Y001636D01*
X011624Y001529D02*
X011624Y001956D01*
X011944Y001956D01*
X012051Y001849D01*
X012051Y001529D01*
X012913Y001529D02*
X013340Y001956D01*
X013340Y002063D01*
X013233Y002169D01*
X013019Y002169D01*
X012913Y002063D01*
X012913Y001529D02*
X013340Y001529D01*
X013557Y001636D02*
X013984Y002063D01*
X013984Y001636D01*
X013878Y001529D01*
X013664Y001529D01*
X013557Y001636D01*
X013557Y002063D01*
X013664Y002169D01*
X013878Y002169D01*
X013984Y002063D01*
X014846Y001849D02*
X014846Y001636D01*
X014953Y001529D01*
X015273Y001529D01*
X015273Y002169D01*
X015273Y001956D02*
X014953Y001956D01*
X014846Y001849D01*
X015491Y001849D02*
X015811Y001849D01*
X015918Y001742D01*
X015918Y001636D01*
X015811Y001529D01*
X015491Y001529D01*
X015491Y002169D01*
X015811Y002169D01*
X015918Y002063D01*
X015918Y001956D01*
X015811Y001849D01*
X016135Y001956D02*
X016242Y001956D01*
X016349Y001849D01*
X016456Y001956D01*
X016563Y001849D01*
X016563Y001529D01*
X016349Y001529D02*
X016349Y001849D01*
X016135Y001956D02*
X016135Y001529D01*
X017425Y001529D02*
X017425Y002169D01*
X017745Y002169D01*
X017852Y002063D01*
X017852Y001849D01*
X017745Y001742D01*
X017425Y001742D01*
X018069Y001849D02*
X018496Y001849D01*
X018496Y001956D02*
X018496Y001529D01*
X018069Y001529D02*
X018069Y001956D01*
X018283Y002169D01*
X018496Y001956D01*
D11*
X008139Y008251D03*
D12*
X008234Y008037D02*
X008044Y008037D01*
X008044Y008071D01*
X008234Y008071D01*
X008234Y008037D01*
X008234Y007840D02*
X008044Y007840D01*
X008044Y007874D01*
X008234Y007874D01*
X008234Y007840D01*
X008234Y007643D02*
X008044Y007643D01*
X008044Y007677D01*
X008234Y007677D01*
X008234Y007643D01*
X008752Y007643D02*
X008942Y007643D01*
X008752Y007643D02*
X008752Y007677D01*
X008942Y007677D01*
X008942Y007643D01*
X008942Y007840D02*
X008752Y007840D01*
X008752Y007874D01*
X008942Y007874D01*
X008942Y007840D01*
X008942Y008037D02*
X008752Y008037D01*
X008752Y008071D01*
X008942Y008071D01*
X008942Y008037D01*
X008942Y008234D02*
X008752Y008234D01*
X008752Y008268D01*
X008942Y008268D01*
X008942Y008234D01*
D13*
X007213Y008054D03*
X006623Y008054D03*
X010954Y008054D03*
X011544Y008054D03*
X011150Y011007D03*
X010560Y011007D03*
X009576Y011007D03*
X008985Y011007D03*
D14*
X013611Y008418D03*
X013611Y007690D03*
D15*
X012952Y008054D03*
X014270Y008054D03*
D16*
X021091Y008054D03*
X002981Y008054D03*
D17*
X001977Y007050D03*
X003985Y007050D03*
X003985Y009058D03*
X001977Y009058D03*
X020087Y009058D03*
X022095Y009058D03*
X022095Y007050D03*
X020087Y007050D03*
D18*
X010068Y008784D03*
X010068Y009686D03*
D19*
X015580Y008054D03*
X017942Y008054D03*
D20*
X001800Y001755D03*
X001800Y014353D03*
X022272Y014353D03*
X022272Y001755D03*
D21*
X001800Y004511D03*
X001800Y011204D03*
D22*
X007213Y008054D02*
X008139Y008054D01*
X008139Y007857D02*
X008847Y007857D01*
X008847Y007660D02*
X008139Y007660D01*
X008493Y007660D01*
X008847Y008054D02*
X009280Y008054D01*
X008847Y008251D02*
X008493Y008251D01*
X008139Y008251D01*
D23*
X008493Y008251D02*
X008493Y007660D01*
D24*
X008544Y007660D02*
X008544Y007617D01*
X008558Y007564D01*
X008585Y007516D01*
X008624Y007477D01*
X008672Y007450D01*
X008725Y007435D01*
X008847Y007435D01*
X008847Y007660D01*
X008847Y007660D01*
X008847Y007435D01*
X008970Y007435D01*
X009023Y007450D01*
X009070Y007477D01*
X009109Y007516D01*
X009137Y007564D01*
X009151Y007617D01*
X009151Y007660D01*
X009047Y007660D01*
X009151Y007660D01*
X009151Y007704D01*
X009137Y007757D01*
X009136Y007759D01*
X009137Y007760D01*
X009151Y007813D01*
X009151Y007826D01*
X009229Y007794D01*
X009309Y007794D01*
X009338Y007766D01*
X009463Y007714D01*
X010741Y007714D01*
X010758Y007697D01*
X011149Y007697D01*
X011231Y007779D01*
X011231Y008329D01*
X011149Y008411D01*
X010758Y008411D01*
X010741Y008394D01*
X010328Y008394D01*
X010328Y008444D01*
X010626Y008444D01*
X010708Y008526D01*
X010708Y009043D01*
X010626Y009125D01*
X009510Y009125D01*
X009428Y009043D01*
X009428Y008526D01*
X009510Y008444D01*
X009808Y008444D01*
X009808Y008394D01*
X009463Y008394D01*
X009338Y008342D01*
X009309Y008314D01*
X009229Y008314D01*
X009151Y008282D01*
X009151Y008295D01*
X009137Y008348D01*
X009109Y008395D01*
X009070Y008434D01*
X009023Y008462D01*
X008970Y008476D01*
X008847Y008476D01*
X008725Y008476D01*
X008672Y008462D01*
X008624Y008434D01*
X008585Y008395D01*
X008558Y008348D01*
X008544Y008295D01*
X008544Y008251D01*
X008666Y008251D01*
X008666Y008251D01*
X008544Y008251D01*
X008544Y008207D01*
X008558Y008154D01*
X008564Y008144D01*
X008564Y007964D01*
X008558Y007954D01*
X008544Y007901D01*
X008544Y007857D01*
X008544Y007813D01*
X008558Y007760D01*
X008559Y007759D01*
X008558Y007757D01*
X008544Y007704D01*
X008544Y007660D01*
X008648Y007660D01*
X008648Y007660D01*
X008544Y007660D01*
X008544Y007646D02*
X008442Y007646D01*
X008442Y007660D02*
X008338Y007660D01*
X008338Y007660D01*
X008442Y007660D01*
X008442Y007617D01*
X008428Y007564D01*
X008401Y007516D01*
X008362Y007477D01*
X008314Y007450D01*
X008261Y007435D01*
X008139Y007435D01*
X008139Y007660D01*
X008139Y007660D01*
X008139Y007435D01*
X008016Y007435D01*
X007963Y007450D01*
X007915Y007477D01*
X007877Y007516D01*
X007849Y007564D01*
X007835Y007617D01*
X007835Y007660D01*
X007939Y007660D01*
X007939Y007660D01*
X007835Y007660D01*
X007835Y007704D01*
X007849Y007757D01*
X007850Y007759D01*
X007849Y007760D01*
X007835Y007813D01*
X007835Y007849D01*
X007491Y007849D01*
X007491Y007779D01*
X007409Y007697D01*
X007018Y007697D01*
X006936Y007779D01*
X006936Y008329D01*
X007018Y008411D01*
X007409Y008411D01*
X007491Y008329D01*
X007491Y008259D01*
X007835Y008259D01*
X007835Y008337D01*
X007846Y008378D01*
X007867Y008414D01*
X007897Y008444D01*
X007933Y008465D01*
X007974Y008476D01*
X008139Y008476D01*
X008303Y008476D01*
X008344Y008465D01*
X008381Y008444D01*
X008410Y008414D01*
X008431Y008378D01*
X008442Y008337D01*
X008442Y008251D01*
X008320Y008251D01*
X008320Y008251D01*
X008442Y008251D01*
X008442Y008165D01*
X008431Y008124D01*
X008422Y008108D01*
X008422Y007964D01*
X008428Y007954D01*
X008442Y007901D01*
X008442Y007857D01*
X008338Y007857D01*
X008442Y007857D01*
X008442Y007813D01*
X008428Y007760D01*
X008427Y007759D01*
X008428Y007757D01*
X008442Y007704D01*
X008442Y007660D01*
X008429Y007764D02*
X008557Y007764D01*
X008544Y007857D02*
X008648Y007857D01*
X008648Y007857D01*
X008544Y007857D01*
X008544Y007883D02*
X008442Y007883D01*
X008338Y007857D02*
X008338Y007857D01*
X008422Y008001D02*
X008564Y008001D01*
X008564Y008120D02*
X008429Y008120D01*
X008442Y008238D02*
X008544Y008238D01*
X008563Y008357D02*
X008437Y008357D01*
X008306Y008475D02*
X008722Y008475D01*
X008847Y008475D02*
X008847Y008475D01*
X008847Y008476D02*
X008847Y008259D01*
X008847Y008259D01*
X008847Y008476D01*
X008847Y008357D02*
X008847Y008357D01*
X008973Y008475D02*
X009478Y008475D01*
X009428Y008594D02*
X004457Y008594D01*
X004484Y008621D02*
X004537Y008689D01*
X004580Y008765D01*
X004613Y008845D01*
X004636Y008928D01*
X004645Y008998D01*
X004045Y008998D01*
X004045Y009118D01*
X003925Y009118D01*
X003925Y009718D01*
X003856Y009709D01*
X003772Y009686D01*
X003692Y009653D01*
X003616Y009610D01*
X003548Y009557D01*
X003486Y009495D01*
X003433Y009426D01*
X003390Y009351D01*
X003357Y009271D01*
X003334Y009187D01*
X003325Y009118D01*
X003925Y009118D01*
X003925Y008998D01*
X003325Y008998D01*
X003334Y008928D01*
X003357Y008845D01*
X003390Y008765D01*
X003433Y008689D01*
X003486Y008621D01*
X003548Y008559D01*
X003616Y008506D01*
X003692Y008463D01*
X003772Y008430D01*
X003856Y008407D01*
X003925Y008398D01*
X003925Y008998D01*
X004045Y008998D01*
X004045Y008398D01*
X004114Y008407D01*
X004198Y008430D01*
X004278Y008463D01*
X004354Y008506D01*
X004422Y008559D01*
X004484Y008621D01*
X004550Y008712D02*
X009428Y008712D01*
X009428Y008831D02*
X004607Y008831D01*
X004638Y008949D02*
X009428Y008949D01*
X009452Y009068D02*
X004045Y009068D01*
X004045Y009118D02*
X004645Y009118D01*
X004636Y009187D01*
X004613Y009271D01*
X004580Y009351D01*
X004537Y009426D01*
X004484Y009495D01*
X004422Y009557D01*
X004354Y009610D01*
X004278Y009653D01*
X004198Y009686D01*
X004114Y009709D01*
X004045Y009718D01*
X004045Y009118D01*
X004045Y009186D02*
X003925Y009186D01*
X003925Y009068D02*
X002037Y009068D01*
X002037Y009118D02*
X002637Y009118D01*
X002628Y009187D01*
X002605Y009271D01*
X002572Y009351D01*
X002529Y009426D01*
X002476Y009495D01*
X002415Y009557D01*
X002346Y009610D01*
X002271Y009653D01*
X002190Y009686D01*
X002107Y009709D01*
X002037Y009718D01*
X002037Y009118D01*
X001917Y009118D01*
X001917Y008998D01*
X001317Y008998D01*
X001327Y008928D01*
X001349Y008845D01*
X001382Y008765D01*
X001426Y008689D01*
X001478Y008621D01*
X001540Y008559D01*
X001609Y008506D01*
X001684Y008463D01*
X001764Y008430D01*
X001848Y008407D01*
X001917Y008398D01*
X001917Y008998D01*
X002037Y008998D01*
X002037Y008398D01*
X002107Y008407D01*
X002190Y008430D01*
X002271Y008463D01*
X002346Y008506D01*
X002415Y008559D01*
X002476Y008621D01*
X002529Y008689D01*
X002572Y008765D01*
X002605Y008845D01*
X002628Y008928D01*
X002637Y008998D01*
X002037Y008998D01*
X002037Y009118D01*
X002037Y009186D02*
X001917Y009186D01*
X001917Y009118D02*
X001917Y009718D01*
X001848Y009709D01*
X001764Y009686D01*
X001684Y009653D01*
X001609Y009610D01*
X001540Y009557D01*
X001478Y009495D01*
X001426Y009426D01*
X001382Y009351D01*
X001349Y009271D01*
X001327Y009187D01*
X001317Y009118D01*
X001917Y009118D01*
X001917Y009068D02*
X000685Y009068D01*
X000685Y009186D02*
X001326Y009186D01*
X001363Y009305D02*
X000685Y009305D01*
X000685Y009423D02*
X001424Y009423D01*
X001525Y009542D02*
X000685Y009542D01*
X000685Y009660D02*
X001701Y009660D01*
X001917Y009660D02*
X002037Y009660D01*
X002037Y009542D02*
X001917Y009542D01*
X001917Y009423D02*
X002037Y009423D01*
X002037Y009305D02*
X001917Y009305D01*
X001917Y008949D02*
X002037Y008949D01*
X002037Y008831D02*
X001917Y008831D01*
X001917Y008712D02*
X002037Y008712D01*
X002037Y008594D02*
X001917Y008594D01*
X001917Y008475D02*
X002037Y008475D01*
X002292Y008475D02*
X002578Y008475D01*
X002651Y008548D02*
X002487Y008384D01*
X002398Y008170D01*
X002398Y007938D01*
X002487Y007724D01*
X002651Y007560D01*
X002865Y007471D01*
X003097Y007471D01*
X003311Y007560D01*
X003465Y007714D01*
X006411Y007714D01*
X006427Y007697D01*
X006819Y007697D01*
X006901Y007779D01*
X006901Y008329D01*
X006819Y008411D01*
X006427Y008411D01*
X006411Y008394D01*
X003465Y008394D01*
X003311Y008548D01*
X003097Y008637D01*
X002865Y008637D01*
X002651Y008548D01*
X002760Y008594D02*
X002449Y008594D01*
X002542Y008712D02*
X003420Y008712D01*
X003363Y008831D02*
X002600Y008831D01*
X002631Y008949D02*
X003332Y008949D01*
X003334Y009186D02*
X002628Y009186D01*
X002592Y009305D02*
X003371Y009305D01*
X003431Y009423D02*
X002531Y009423D01*
X002430Y009542D02*
X003532Y009542D01*
X003709Y009660D02*
X002253Y009660D01*
X001324Y008949D02*
X000685Y008949D01*
X000685Y008831D02*
X001355Y008831D01*
X001413Y008712D02*
X000685Y008712D01*
X000685Y008594D02*
X001505Y008594D01*
X001663Y008475D02*
X000685Y008475D01*
X000685Y008357D02*
X002475Y008357D01*
X002426Y008238D02*
X000685Y008238D01*
X000685Y008120D02*
X002398Y008120D01*
X002398Y008001D02*
X000685Y008001D01*
X000685Y007883D02*
X002421Y007883D01*
X002470Y007764D02*
X000685Y007764D01*
X000685Y007646D02*
X001685Y007646D01*
X001684Y007645D02*
X001609Y007602D01*
X001540Y007549D01*
X001478Y007488D01*
X001426Y007419D01*
X001382Y007344D01*
X001349Y007263D01*
X001327Y007180D01*
X001317Y007110D01*
X001917Y007110D01*
X001917Y006990D01*
X001317Y006990D01*
X001327Y006921D01*
X001349Y006837D01*
X001382Y006757D01*
X001426Y006682D01*
X001478Y006613D01*
X001540Y006551D01*
X001609Y006499D01*
X001684Y006455D01*
X001764Y006422D01*
X001848Y006399D01*
X001917Y006390D01*
X001917Y006990D01*
X002037Y006990D01*
X002037Y006390D01*
X002107Y006399D01*
X002190Y006422D01*
X002271Y006455D01*
X002346Y006499D01*
X002415Y006551D01*
X002476Y006613D01*
X002529Y006682D01*
X002572Y006757D01*
X002605Y006837D01*
X002628Y006921D01*
X002637Y006990D01*
X002037Y006990D01*
X002037Y007110D01*
X001917Y007110D01*
X001917Y007710D01*
X001848Y007701D01*
X001764Y007678D01*
X001684Y007645D01*
X001518Y007527D02*
X000685Y007527D01*
X000685Y007409D02*
X001420Y007409D01*
X001360Y007290D02*
X000685Y007290D01*
X000685Y007172D02*
X001326Y007172D01*
X001325Y006935D02*
X000685Y006935D01*
X000685Y007053D02*
X001917Y007053D01*
X001917Y006935D02*
X002037Y006935D01*
X002037Y007053D02*
X003925Y007053D01*
X003925Y007110D02*
X003925Y006990D01*
X004045Y006990D01*
X004045Y006390D01*
X004114Y006399D01*
X004198Y006422D01*
X004278Y006455D01*
X004354Y006499D01*
X004422Y006551D01*
X004484Y006613D01*
X004537Y006682D01*
X004580Y006757D01*
X004613Y006837D01*
X004636Y006921D01*
X004645Y006990D01*
X004045Y006990D01*
X004045Y007110D01*
X004645Y007110D01*
X004636Y007180D01*
X004613Y007263D01*
X004580Y007344D01*
X004537Y007419D01*
X004484Y007488D01*
X004422Y007549D01*
X004354Y007602D01*
X004278Y007645D01*
X004198Y007678D01*
X004114Y007701D01*
X004045Y007710D01*
X004045Y007110D01*
X003925Y007110D01*
X003325Y007110D01*
X003334Y007180D01*
X003357Y007263D01*
X003390Y007344D01*
X003433Y007419D01*
X003486Y007488D01*
X003548Y007549D01*
X003616Y007602D01*
X003692Y007645D01*
X003772Y007678D01*
X003856Y007701D01*
X003925Y007710D01*
X003925Y007110D01*
X003925Y007172D02*
X004045Y007172D01*
X004045Y007290D02*
X003925Y007290D01*
X003925Y007409D02*
X004045Y007409D01*
X004045Y007527D02*
X003925Y007527D01*
X003925Y007646D02*
X004045Y007646D01*
X004277Y007646D02*
X007835Y007646D01*
X007848Y007764D02*
X007476Y007764D01*
X007870Y007527D02*
X004444Y007527D01*
X004542Y007409D02*
X013335Y007409D01*
X013331Y007423D02*
X013342Y007382D01*
X013363Y007346D01*
X013393Y007316D01*
X013429Y007295D01*
X013470Y007284D01*
X013611Y007284D01*
X013611Y007690D01*
X013611Y008096D01*
X013611Y008418D01*
X013611Y008418D01*
X013331Y008418D01*
X013331Y008151D01*
X013342Y008110D01*
X013363Y008074D01*
X013383Y008054D01*
X013363Y008034D01*
X013342Y007998D01*
X013331Y007957D01*
X013331Y007690D01*
X013611Y007690D01*
X013611Y007690D01*
X013611Y007690D01*
X013611Y008418D01*
X013611Y008418D01*
X013611Y008418D01*
X013891Y008418D01*
X013891Y008151D01*
X013880Y008110D01*
X013859Y008074D01*
X013839Y008054D01*
X013859Y008034D01*
X013880Y007998D01*
X013891Y007957D01*
X013891Y007690D01*
X013611Y007690D01*
X013611Y007690D01*
X013331Y007690D01*
X013331Y007423D01*
X013331Y007527D02*
X009116Y007527D01*
X009151Y007646D02*
X012606Y007646D01*
X012606Y007642D02*
X012688Y007560D01*
X013215Y007560D01*
X013297Y007642D01*
X013297Y008466D01*
X013215Y008548D01*
X012688Y008548D01*
X012606Y008466D01*
X012606Y008394D01*
X011756Y008394D01*
X011740Y008411D01*
X011348Y008411D01*
X011266Y008329D01*
X011266Y007779D01*
X011348Y007697D01*
X011740Y007697D01*
X011756Y007714D01*
X012606Y007714D01*
X012606Y007642D01*
X013297Y007646D02*
X013331Y007646D01*
X013331Y007764D02*
X013297Y007764D01*
X013297Y007883D02*
X013331Y007883D01*
X013344Y008001D02*
X013297Y008001D01*
X013297Y008120D02*
X013339Y008120D01*
X013331Y008238D02*
X013297Y008238D01*
X013297Y008357D02*
X013331Y008357D01*
X013331Y008418D02*
X013611Y008418D01*
X013611Y008824D01*
X013470Y008824D01*
X013429Y008813D01*
X013393Y008792D01*
X013363Y008762D01*
X013342Y008726D01*
X013331Y008685D01*
X013331Y008418D01*
X013331Y008475D02*
X013289Y008475D01*
X013331Y008594D02*
X010708Y008594D01*
X010708Y008712D02*
X013338Y008712D01*
X013611Y008712D02*
X013611Y008712D01*
X013611Y008824D02*
X013611Y008418D01*
X013611Y008418D01*
X013891Y008418D01*
X013891Y008685D01*
X013880Y008726D01*
X013859Y008762D01*
X013829Y008792D01*
X013793Y008813D01*
X013752Y008824D01*
X013611Y008824D01*
X013611Y008594D02*
X013611Y008594D01*
X013611Y008475D02*
X013611Y008475D01*
X013611Y008357D02*
X013611Y008357D01*
X013611Y008238D02*
X013611Y008238D01*
X013611Y008120D02*
X013611Y008120D01*
X013611Y008001D02*
X013611Y008001D01*
X013611Y007883D02*
X013611Y007883D01*
X013611Y007764D02*
X013611Y007764D01*
X013611Y007690D02*
X013891Y007690D01*
X013891Y007423D01*
X013880Y007382D01*
X013859Y007346D01*
X013829Y007316D01*
X013793Y007295D01*
X013752Y007284D01*
X013611Y007284D01*
X013611Y007690D01*
X013611Y007690D01*
X013611Y007646D02*
X013611Y007646D01*
X013611Y007527D02*
X013611Y007527D01*
X013611Y007409D02*
X013611Y007409D01*
X013611Y007290D02*
X013611Y007290D01*
X013447Y007290D02*
X004602Y007290D01*
X004637Y007172D02*
X019436Y007172D01*
X019437Y007180D02*
X019428Y007110D01*
X020027Y007110D01*
X020027Y006990D01*
X019428Y006990D01*
X019437Y006921D01*
X019459Y006837D01*
X019492Y006757D01*
X019536Y006682D01*
X019589Y006613D01*
X019650Y006551D01*
X019719Y006499D01*
X019794Y006455D01*
X019874Y006422D01*
X019958Y006399D01*
X020027Y006390D01*
X020027Y006990D01*
X020147Y006990D01*
X020147Y006390D01*
X020217Y006399D01*
X020301Y006422D01*
X020381Y006455D01*
X020456Y006499D01*
X020525Y006551D01*
X020586Y006613D01*
X020639Y006682D01*
X020682Y006757D01*
X020716Y006837D01*
X020738Y006921D01*
X020747Y006990D01*
X020147Y006990D01*
X020147Y007110D01*
X020027Y007110D01*
X020027Y007710D01*
X019958Y007701D01*
X019874Y007678D01*
X019794Y007645D01*
X019719Y007602D01*
X019650Y007549D01*
X019589Y007488D01*
X019536Y007419D01*
X019492Y007344D01*
X019459Y007263D01*
X019437Y007180D01*
X019470Y007290D02*
X013775Y007290D01*
X013887Y007409D02*
X019530Y007409D01*
X019628Y007527D02*
X013891Y007527D01*
X013891Y007646D02*
X013925Y007646D01*
X013925Y007642D02*
X014007Y007560D01*
X014534Y007560D01*
X014616Y007642D01*
X014616Y007714D01*
X015046Y007714D01*
X015046Y007681D01*
X015128Y007599D01*
X016031Y007599D01*
X016113Y007681D01*
X016113Y008427D01*
X016031Y008509D01*
X015128Y008509D01*
X015046Y008427D01*
X015046Y008394D01*
X014616Y008394D01*
X014616Y008466D01*
X014534Y008548D01*
X014007Y008548D01*
X013925Y008466D01*
X013925Y007642D01*
X013925Y007764D02*
X013891Y007764D01*
X013891Y007883D02*
X013925Y007883D01*
X013925Y008001D02*
X013878Y008001D01*
X013883Y008120D02*
X013925Y008120D01*
X013925Y008238D02*
X013891Y008238D01*
X013891Y008357D02*
X013925Y008357D01*
X013933Y008475D02*
X013891Y008475D01*
X013891Y008594D02*
X019616Y008594D01*
X019589Y008621D02*
X019650Y008559D01*
X019719Y008506D01*
X019794Y008463D01*
X019874Y008430D01*
X019958Y008407D01*
X020027Y008398D01*
X020027Y008998D01*
X019428Y008998D01*
X019437Y008928D01*
X019459Y008845D01*
X019492Y008765D01*
X019536Y008689D01*
X019589Y008621D01*
X019523Y008712D02*
X013884Y008712D01*
X014607Y008475D02*
X015094Y008475D01*
X016065Y008475D02*
X017456Y008475D01*
X017490Y008509D02*
X017408Y008427D01*
X017408Y007681D01*
X017490Y007599D01*
X018393Y007599D01*
X018475Y007681D01*
X018475Y007714D01*
X020607Y007714D01*
X020761Y007560D01*
X020975Y007471D01*
X021207Y007471D01*
X021422Y007560D01*
X021586Y007724D01*
X021674Y007938D01*
X021674Y008170D01*
X021586Y008384D01*
X021422Y008548D01*
X021207Y008637D01*
X020975Y008637D01*
X020761Y008548D01*
X020607Y008394D01*
X018475Y008394D01*
X018475Y008427D01*
X018393Y008509D01*
X017490Y008509D01*
X017408Y008357D02*
X016113Y008357D01*
X016113Y008238D02*
X017408Y008238D01*
X017408Y008120D02*
X016113Y008120D01*
X016113Y008001D02*
X017408Y008001D01*
X017408Y007883D02*
X016113Y007883D01*
X016113Y007764D02*
X017408Y007764D01*
X017444Y007646D02*
X016078Y007646D01*
X015081Y007646D02*
X014616Y007646D01*
X012615Y008475D02*
X010657Y008475D01*
X010708Y008831D02*
X019465Y008831D01*
X019434Y008949D02*
X010708Y008949D01*
X010683Y009068D02*
X020027Y009068D01*
X020027Y009118D02*
X020027Y008998D01*
X020147Y008998D01*
X020147Y008398D01*
X020217Y008407D01*
X020301Y008430D01*
X020381Y008463D01*
X020456Y008506D01*
X020525Y008559D01*
X020586Y008621D01*
X020639Y008689D01*
X020682Y008765D01*
X020716Y008845D01*
X020738Y008928D01*
X020747Y008998D01*
X020147Y008998D01*
X020147Y009118D01*
X020027Y009118D01*
X019428Y009118D01*
X019437Y009187D01*
X019459Y009271D01*
X019492Y009351D01*
X019536Y009426D01*
X019589Y009495D01*
X019650Y009557D01*
X019719Y009610D01*
X019794Y009653D01*
X019874Y009686D01*
X019958Y009709D01*
X020027Y009718D01*
X020027Y009118D01*
X020027Y009186D02*
X020147Y009186D01*
X020147Y009118D02*
X020147Y009718D01*
X020217Y009709D01*
X020301Y009686D01*
X020381Y009653D01*
X020456Y009610D01*
X020525Y009557D01*
X020586Y009495D01*
X020639Y009426D01*
X020682Y009351D01*
X020716Y009271D01*
X020738Y009187D01*
X020747Y009118D01*
X020147Y009118D01*
X020147Y009068D02*
X022035Y009068D01*
X022035Y009118D02*
X022035Y008998D01*
X021435Y008998D01*
X021445Y008928D01*
X021467Y008845D01*
X021500Y008765D01*
X021544Y008689D01*
X021596Y008621D01*
X021658Y008559D01*
X021727Y008506D01*
X021802Y008463D01*
X021882Y008430D01*
X021966Y008407D01*
X022035Y008398D01*
X022035Y008998D01*
X022155Y008998D01*
X022155Y008398D01*
X022225Y008407D01*
X022308Y008430D01*
X022389Y008463D01*
X022464Y008506D01*
X022533Y008559D01*
X022594Y008621D01*
X022647Y008689D01*
X022690Y008765D01*
X022723Y008845D01*
X022746Y008928D01*
X022755Y008998D01*
X022155Y008998D01*
X022155Y009118D01*
X022035Y009118D01*
X021435Y009118D01*
X021445Y009187D01*
X021467Y009271D01*
X021500Y009351D01*
X021544Y009426D01*
X021596Y009495D01*
X021658Y009557D01*
X021727Y009610D01*
X021802Y009653D01*
X021882Y009686D01*
X021966Y009709D01*
X022035Y009718D01*
X022035Y009118D01*
X022035Y009186D02*
X022155Y009186D01*
X022155Y009118D02*
X022155Y009718D01*
X022225Y009709D01*
X022308Y009686D01*
X022389Y009653D01*
X022464Y009610D01*
X022533Y009557D01*
X022594Y009495D01*
X022647Y009426D01*
X022690Y009351D01*
X022723Y009271D01*
X022746Y009187D01*
X022755Y009118D01*
X022155Y009118D01*
X022155Y009068D02*
X023387Y009068D01*
X023387Y009186D02*
X022746Y009186D01*
X022710Y009305D02*
X023387Y009305D01*
X023387Y009423D02*
X022649Y009423D01*
X022548Y009542D02*
X023387Y009542D01*
X023387Y009660D02*
X022371Y009660D01*
X022155Y009660D02*
X022035Y009660D01*
X022035Y009542D02*
X022155Y009542D01*
X022155Y009423D02*
X022035Y009423D01*
X022035Y009305D02*
X022155Y009305D01*
X022155Y008949D02*
X022035Y008949D01*
X022035Y008831D02*
X022155Y008831D01*
X022155Y008712D02*
X022035Y008712D01*
X022035Y008594D02*
X022155Y008594D01*
X022155Y008475D02*
X022035Y008475D01*
X021781Y008475D02*
X021495Y008475D01*
X021597Y008357D02*
X023387Y008357D01*
X023387Y008475D02*
X022410Y008475D01*
X022567Y008594D02*
X023387Y008594D01*
X023387Y008712D02*
X022660Y008712D01*
X022718Y008831D02*
X023387Y008831D01*
X023387Y008949D02*
X022749Y008949D01*
X023387Y008238D02*
X021646Y008238D01*
X021674Y008120D02*
X023387Y008120D01*
X023387Y008001D02*
X021674Y008001D01*
X021651Y007883D02*
X023387Y007883D01*
X023387Y007764D02*
X021602Y007764D01*
X021507Y007646D02*
X021803Y007646D01*
X021802Y007645D02*
X021727Y007602D01*
X021658Y007549D01*
X021596Y007488D01*
X021544Y007419D01*
X021500Y007344D01*
X021467Y007263D01*
X021445Y007180D01*
X021435Y007110D01*
X022035Y007110D01*
X022035Y006990D01*
X021435Y006990D01*
X021445Y006921D01*
X021467Y006837D01*
X021500Y006757D01*
X021544Y006682D01*
X021596Y006613D01*
X021658Y006551D01*
X021727Y006499D01*
X021802Y006455D01*
X021882Y006422D01*
X021966Y006399D01*
X022035Y006390D01*
X022035Y006990D01*
X022155Y006990D01*
X022155Y006390D01*
X022225Y006399D01*
X022308Y006422D01*
X022389Y006455D01*
X022464Y006499D01*
X022533Y006551D01*
X022594Y006613D01*
X022647Y006682D01*
X022690Y006757D01*
X022723Y006837D01*
X022746Y006921D01*
X022755Y006990D01*
X022155Y006990D01*
X022155Y007110D01*
X022035Y007110D01*
X022035Y007710D01*
X021966Y007701D01*
X021882Y007678D01*
X021802Y007645D01*
X021636Y007527D02*
X021342Y007527D01*
X021538Y007409D02*
X020645Y007409D01*
X020639Y007419D02*
X020682Y007344D01*
X020716Y007263D01*
X020738Y007180D01*
X020747Y007110D01*
X020147Y007110D01*
X020147Y007710D01*
X020217Y007701D01*
X020301Y007678D01*
X020381Y007645D01*
X020456Y007602D01*
X020525Y007549D01*
X020586Y007488D01*
X020639Y007419D01*
X020547Y007527D02*
X020840Y007527D01*
X020675Y007646D02*
X020380Y007646D01*
X020147Y007646D02*
X020027Y007646D01*
X020027Y007527D02*
X020147Y007527D01*
X020147Y007409D02*
X020027Y007409D01*
X020027Y007290D02*
X020147Y007290D01*
X020147Y007172D02*
X020027Y007172D01*
X020027Y007053D02*
X004045Y007053D01*
X004045Y006935D02*
X003925Y006935D01*
X003925Y006990D02*
X003925Y006390D01*
X003856Y006399D01*
X003772Y006422D01*
X003692Y006455D01*
X003616Y006499D01*
X003548Y006551D01*
X003486Y006613D01*
X003433Y006682D01*
X003390Y006757D01*
X003357Y006837D01*
X003334Y006921D01*
X003325Y006990D01*
X003925Y006990D01*
X003925Y006816D02*
X004045Y006816D01*
X004045Y006698D02*
X003925Y006698D01*
X003925Y006579D02*
X004045Y006579D01*
X004045Y006461D02*
X003925Y006461D01*
X003682Y006461D02*
X002280Y006461D01*
X002442Y006579D02*
X003520Y006579D01*
X003424Y006698D02*
X002538Y006698D01*
X002597Y006816D02*
X003365Y006816D01*
X003333Y006935D02*
X002630Y006935D01*
X002637Y007110D02*
X002628Y007180D01*
X002605Y007263D01*
X002572Y007344D01*
X002529Y007419D01*
X002476Y007488D01*
X002415Y007549D01*
X002346Y007602D01*
X002271Y007645D01*
X002190Y007678D01*
X002107Y007701D01*
X002037Y007710D01*
X002037Y007110D01*
X002637Y007110D01*
X002629Y007172D02*
X003333Y007172D01*
X003368Y007290D02*
X002594Y007290D01*
X002535Y007409D02*
X003428Y007409D01*
X003526Y007527D02*
X003232Y007527D01*
X003397Y007646D02*
X003693Y007646D01*
X002730Y007527D02*
X002436Y007527D01*
X002565Y007646D02*
X002270Y007646D01*
X002037Y007646D02*
X001917Y007646D01*
X001917Y007527D02*
X002037Y007527D01*
X002037Y007409D02*
X001917Y007409D01*
X001917Y007290D02*
X002037Y007290D01*
X002037Y007172D02*
X001917Y007172D01*
X001917Y006816D02*
X002037Y006816D01*
X002037Y006698D02*
X001917Y006698D01*
X001917Y006579D02*
X002037Y006579D01*
X002037Y006461D02*
X001917Y006461D01*
X001674Y006461D02*
X000685Y006461D01*
X000685Y006579D02*
X001512Y006579D01*
X001416Y006698D02*
X000685Y006698D01*
X000685Y006816D02*
X001358Y006816D01*
X000685Y006342D02*
X023387Y006342D01*
X023387Y006224D02*
X000685Y006224D01*
X000685Y006105D02*
X023387Y006105D01*
X023387Y005987D02*
X000685Y005987D01*
X000685Y005868D02*
X023387Y005868D01*
X023387Y005750D02*
X000685Y005750D01*
X000685Y005631D02*
X023387Y005631D01*
X023387Y005513D02*
X000685Y005513D01*
X000685Y005394D02*
X023387Y005394D01*
X023387Y005276D02*
X000685Y005276D01*
X000685Y005157D02*
X023387Y005157D01*
X023387Y005039D02*
X003069Y005039D01*
X003079Y005032D02*
X003043Y005054D01*
X003002Y005064D01*
X001860Y005064D01*
X001860Y004571D01*
X001740Y004571D01*
X001740Y005064D01*
X000685Y005064D01*
X000685Y010670D01*
X003039Y010670D01*
X003121Y010752D01*
X003121Y010814D01*
X005871Y010814D01*
X007178Y009506D01*
X007288Y009397D01*
X007431Y009337D01*
X009890Y009337D01*
X009990Y009296D01*
X010145Y009296D01*
X010245Y009337D01*
X010441Y009337D01*
X010460Y009345D01*
X010626Y009345D01*
X010708Y009427D01*
X010708Y009540D01*
X010753Y009650D01*
X010753Y009805D01*
X010708Y009914D01*
X010708Y009945D01*
X010626Y010027D01*
X010615Y010027D01*
X010584Y010058D01*
X010458Y010110D01*
X010458Y010650D01*
X010756Y010650D01*
X010838Y010732D01*
X010838Y010893D01*
X010853Y010930D01*
X010853Y010769D01*
X010864Y010728D01*
X010885Y010692D01*
X010914Y010662D01*
X010951Y010641D01*
X010992Y010630D01*
X011141Y010630D01*
X011141Y010998D01*
X011159Y010998D01*
X011159Y010630D01*
X011309Y010630D01*
X011350Y010641D01*
X011386Y010662D01*
X011416Y010692D01*
X011437Y010728D01*
X011448Y010769D01*
X011448Y010998D01*
X011159Y010998D01*
X011159Y011016D01*
X011141Y011016D01*
X011141Y011383D01*
X010992Y011383D01*
X010951Y011372D01*
X010914Y011351D01*
X010885Y011322D01*
X010864Y011285D01*
X010853Y011244D01*
X010853Y011084D01*
X010838Y011120D01*
X010838Y011281D01*
X010756Y011363D01*
X010364Y011363D01*
X010313Y011313D01*
X010289Y011337D01*
X010145Y011397D01*
X009990Y011397D01*
X009847Y011337D01*
X009822Y011313D01*
X009771Y011363D01*
X009380Y011363D01*
X009298Y011281D01*
X009298Y011120D01*
X009283Y011084D01*
X009283Y011244D01*
X009272Y011285D01*
X009251Y011322D01*
X009221Y011351D01*
X009185Y011372D01*
X009144Y011383D01*
X008994Y011383D01*
X008994Y011016D01*
X008976Y011016D01*
X008976Y011383D01*
X008826Y011383D01*
X008785Y011372D01*
X008749Y011351D01*
X008719Y011322D01*
X008698Y011285D01*
X008687Y011244D01*
X008687Y011016D01*
X008976Y011016D01*
X008976Y010998D01*
X008687Y010998D01*
X008687Y010769D01*
X008698Y010728D01*
X008719Y010692D01*
X008749Y010662D01*
X008785Y010641D01*
X008826Y010630D01*
X008976Y010630D01*
X008976Y010998D01*
X008994Y010998D01*
X008994Y010630D01*
X009144Y010630D01*
X009185Y010641D01*
X009221Y010662D01*
X009251Y010692D01*
X009272Y010728D01*
X009283Y010769D01*
X009283Y010930D01*
X009298Y010893D01*
X009298Y010732D01*
X009380Y010650D01*
X009678Y010650D01*
X009678Y010117D01*
X007670Y010117D01*
X006253Y011534D01*
X006110Y011594D01*
X003121Y011594D01*
X003121Y011655D01*
X003039Y011737D01*
X000685Y011737D01*
X000685Y012778D01*
X003375Y012778D01*
X003375Y015468D01*
X020698Y015468D01*
X020698Y012778D01*
X023387Y012778D01*
X023387Y003330D01*
X020698Y003330D01*
X020698Y000640D01*
X002490Y000640D01*
X002581Y000701D01*
X002681Y000783D01*
X002772Y000874D01*
X002853Y000973D01*
X002925Y001081D01*
X002986Y001194D01*
X003035Y001313D01*
X003072Y001436D01*
X003097Y001562D01*
X003110Y001690D01*
X003110Y001695D01*
X001860Y001695D01*
X001860Y001815D01*
X001740Y001815D01*
X001740Y003065D01*
X001736Y003065D01*
X001608Y003052D01*
X001481Y003027D01*
X001358Y002990D01*
X001239Y002940D01*
X001126Y002880D01*
X001019Y002808D01*
X000919Y002727D01*
X000828Y002636D01*
X000747Y002536D01*
X000685Y002444D01*
X000685Y003957D01*
X001740Y003957D01*
X001740Y004451D01*
X001860Y004451D01*
X001860Y004571D01*
X003141Y004571D01*
X003141Y004925D01*
X003130Y004966D01*
X003109Y005003D01*
X003079Y005032D01*
X003141Y004920D02*
X023387Y004920D01*
X023387Y004802D02*
X003141Y004802D01*
X003141Y004683D02*
X023387Y004683D01*
X023387Y004565D02*
X001860Y004565D01*
X001860Y004451D02*
X003141Y004451D01*
X003141Y004096D01*
X003130Y004055D01*
X003109Y004019D01*
X003079Y003989D01*
X003043Y003968D01*
X003002Y003957D01*
X001860Y003957D01*
X001860Y004451D01*
X001860Y004446D02*
X001740Y004446D01*
X001740Y004328D02*
X001860Y004328D01*
X001860Y004209D02*
X001740Y004209D01*
X001740Y004091D02*
X001860Y004091D01*
X001860Y003972D02*
X001740Y003972D01*
X001740Y004683D02*
X001860Y004683D01*
X001860Y004802D02*
X001740Y004802D01*
X001740Y004920D02*
X001860Y004920D01*
X001860Y005039D02*
X001740Y005039D01*
X003141Y004446D02*
X023387Y004446D01*
X023387Y004328D02*
X003141Y004328D01*
X003141Y004209D02*
X023387Y004209D01*
X023387Y004091D02*
X003140Y004091D01*
X003050Y003972D02*
X023387Y003972D01*
X023387Y003854D02*
X000685Y003854D01*
X000685Y003735D02*
X023387Y003735D01*
X023387Y003617D02*
X000685Y003617D01*
X000685Y003498D02*
X023387Y003498D01*
X023387Y003380D02*
X000685Y003380D01*
X000685Y003261D02*
X020698Y003261D01*
X020698Y003143D02*
X000685Y003143D01*
X000685Y003024D02*
X001471Y003024D01*
X001740Y003024D02*
X001860Y003024D01*
X001860Y003065D02*
X001860Y001815D01*
X003110Y001815D01*
X003110Y001819D01*
X003097Y001947D01*
X003072Y002073D01*
X003035Y002197D01*
X002986Y002316D01*
X002925Y002429D01*
X002853Y002536D01*
X002772Y002636D01*
X002681Y002727D01*
X002581Y002808D01*
X002474Y002880D01*
X002361Y002940D01*
X002242Y002990D01*
X002119Y003027D01*
X001992Y003052D01*
X001864Y003065D01*
X001860Y003065D01*
X001860Y002906D02*
X001740Y002906D01*
X001740Y002787D02*
X001860Y002787D01*
X001860Y002669D02*
X001740Y002669D01*
X001740Y002550D02*
X001860Y002550D01*
X001860Y002432D02*
X001740Y002432D01*
X001740Y002313D02*
X001860Y002313D01*
X001860Y002195D02*
X001740Y002195D01*
X001740Y002076D02*
X001860Y002076D01*
X001860Y001958D02*
X001740Y001958D01*
X001740Y001839D02*
X001860Y001839D01*
X001860Y001721D02*
X005223Y001721D01*
X005223Y001839D02*
X003108Y001839D01*
X003095Y001958D02*
X005223Y001958D01*
X005223Y002076D02*
X003072Y002076D01*
X003036Y002195D02*
X005284Y002195D01*
X005323Y002233D02*
X005223Y002133D01*
X005223Y001565D01*
X005330Y001458D01*
X005429Y001359D01*
X005784Y001359D01*
X005851Y001427D01*
X005890Y001466D01*
X005890Y001466D01*
X005922Y001497D01*
X005929Y001504D01*
X006074Y001359D01*
X006428Y001359D01*
X006498Y001429D01*
X006535Y001466D01*
X006565Y001495D01*
X006573Y001504D01*
X006718Y001359D01*
X007073Y001359D01*
X007143Y001429D01*
X007165Y001451D01*
X007256Y001359D01*
X007611Y001359D01*
X007710Y001458D01*
X007710Y001599D01*
X007611Y001699D01*
X007603Y001699D01*
X007603Y001999D01*
X007611Y001999D01*
X007710Y002099D01*
X007710Y002240D01*
X007611Y002339D01*
X007256Y002339D01*
X007165Y002248D01*
X007143Y002270D01*
X007073Y002339D01*
X006718Y002339D01*
X006612Y002233D01*
X006573Y002194D01*
X006498Y002270D01*
X006428Y002339D01*
X006074Y002339D01*
X005967Y002233D01*
X005929Y002194D01*
X005920Y002203D01*
X005890Y002233D01*
X005845Y002278D01*
X005784Y002339D01*
X005429Y002339D01*
X005323Y002233D01*
X005403Y002313D02*
X002987Y002313D01*
X002923Y002432D02*
X020698Y002432D01*
X020698Y002550D02*
X002842Y002550D01*
X002739Y002669D02*
X020698Y002669D01*
X020698Y002787D02*
X002607Y002787D01*
X002426Y002906D02*
X020698Y002906D01*
X020698Y003024D02*
X002129Y003024D01*
X001174Y002906D02*
X000685Y002906D01*
X000685Y002787D02*
X000993Y002787D01*
X000861Y002669D02*
X000685Y002669D01*
X000685Y002550D02*
X000758Y002550D01*
X003101Y001602D02*
X005223Y001602D01*
X005305Y001484D02*
X003082Y001484D01*
X003051Y001365D02*
X005423Y001365D01*
X005790Y001365D02*
X006068Y001365D01*
X005949Y001484D02*
X005908Y001484D01*
X006434Y001365D02*
X006712Y001365D01*
X006594Y001484D02*
X006553Y001484D01*
X006535Y001466D02*
X006535Y001466D01*
X007079Y001365D02*
X007250Y001365D01*
X007617Y001365D02*
X008324Y001365D01*
X008330Y001359D02*
X008792Y001359D01*
X008861Y001429D01*
X008898Y001466D01*
X008898Y001466D01*
X008928Y001495D01*
X008937Y001504D01*
X008975Y001466D01*
X009082Y001359D01*
X009436Y001359D01*
X009536Y001458D01*
X009536Y001550D01*
X009571Y001515D01*
X009726Y001359D01*
X010187Y001359D01*
X010279Y001451D01*
X010371Y001359D01*
X010832Y001359D01*
X010924Y001451D01*
X011015Y001359D01*
X011370Y001359D01*
X011438Y001427D01*
X011462Y001451D01*
X011553Y001359D01*
X011694Y001359D01*
X011794Y001458D01*
X011794Y001786D01*
X011873Y001786D01*
X011881Y001779D01*
X011881Y001458D01*
X011980Y001359D01*
X012121Y001359D01*
X012221Y001458D01*
X012221Y001920D01*
X012121Y002019D01*
X012014Y002126D01*
X011553Y002126D01*
X011462Y002034D01*
X011370Y002126D01*
X011015Y002126D01*
X010946Y002056D01*
X010924Y002034D01*
X010832Y002126D01*
X010371Y002126D01*
X010301Y002056D01*
X010271Y002026D01*
X010234Y001989D01*
X010226Y001981D01*
X010187Y002019D01*
X010081Y002126D01*
X009726Y002126D01*
X009627Y002026D01*
X009627Y001935D01*
X009543Y002019D01*
X009436Y002126D01*
X009082Y002126D01*
X009014Y002058D01*
X008998Y002042D01*
X008998Y002133D01*
X008930Y002201D01*
X008898Y002233D01*
X008859Y002272D01*
X008792Y002339D01*
X008330Y002339D01*
X008231Y002240D01*
X008231Y001458D01*
X008330Y001359D01*
X008231Y001484D02*
X007710Y001484D01*
X007707Y001602D02*
X008231Y001602D01*
X008231Y001721D02*
X007603Y001721D01*
X007603Y001839D02*
X008231Y001839D01*
X008231Y001958D02*
X007603Y001958D01*
X007687Y002076D02*
X008231Y002076D01*
X008231Y002195D02*
X007710Y002195D01*
X007637Y002313D02*
X008304Y002313D01*
X008818Y002313D02*
X012923Y002313D01*
X012949Y002339D02*
X012743Y002133D01*
X012743Y001992D01*
X012842Y001893D01*
X012983Y001893D01*
X013090Y001999D01*
X013143Y001999D01*
X012743Y001599D01*
X012743Y001458D01*
X012842Y001359D01*
X012983Y001359D01*
X013410Y001359D01*
X013502Y001451D01*
X013594Y001359D01*
X013948Y001359D01*
X014018Y001429D01*
X014055Y001466D01*
X014085Y001495D01*
X014154Y001565D01*
X014154Y002133D01*
X014091Y002197D01*
X014055Y002233D01*
X014055Y002233D01*
X014016Y002272D01*
X013948Y002339D01*
X013594Y002339D01*
X013494Y002240D01*
X013449Y002194D01*
X013440Y002203D01*
X013410Y002233D01*
X013373Y002270D01*
X013303Y002339D01*
X012949Y002339D01*
X012804Y002195D02*
X008937Y002195D01*
X008898Y002233D02*
X008898Y002233D01*
X008998Y002076D02*
X009032Y002076D01*
X009486Y002076D02*
X009676Y002076D01*
X009627Y001958D02*
X009605Y001958D01*
X010131Y002076D02*
X010321Y002076D01*
X010271Y002026D02*
X010271Y002026D01*
X010882Y002076D02*
X010966Y002076D01*
X011420Y002076D02*
X011503Y002076D01*
X011794Y001721D02*
X011881Y001721D01*
X011881Y001602D02*
X011794Y001602D01*
X011794Y001484D02*
X011881Y001484D01*
X011974Y001365D02*
X011700Y001365D01*
X011547Y001365D02*
X011376Y001365D01*
X011009Y001365D02*
X010838Y001365D01*
X010365Y001365D02*
X010194Y001365D01*
X009720Y001365D02*
X009442Y001365D01*
X009536Y001484D02*
X009602Y001484D01*
X009076Y001365D02*
X008798Y001365D01*
X008916Y001484D02*
X008957Y001484D01*
X007230Y002313D02*
X007099Y002313D01*
X006692Y002313D02*
X006455Y002313D01*
X006573Y002195D02*
X006573Y002195D01*
X006047Y002313D02*
X005810Y002313D01*
X005890Y002233D02*
X005890Y002233D01*
X005929Y002195D02*
X005929Y002195D01*
X003007Y001247D02*
X020698Y001247D01*
X020698Y001365D02*
X018573Y001365D01*
X018567Y001359D02*
X018666Y001458D01*
X018666Y002026D01*
X018567Y002126D01*
X018567Y002126D01*
X018353Y002339D01*
X018212Y002339D01*
X018113Y002240D01*
X018014Y002141D01*
X017954Y002201D01*
X017922Y002233D01*
X017883Y002272D01*
X017815Y002339D01*
X017354Y002339D01*
X017255Y002240D01*
X017255Y001672D01*
X017255Y001458D01*
X017354Y001359D01*
X017495Y001359D01*
X017595Y001458D01*
X017595Y001572D01*
X017815Y001572D01*
X017899Y001656D01*
X017899Y001458D01*
X017999Y001359D01*
X018140Y001359D01*
X018239Y001458D01*
X018239Y001679D01*
X018326Y001679D01*
X018326Y001458D01*
X018426Y001359D01*
X018567Y001359D01*
X018420Y001365D02*
X018146Y001365D01*
X018239Y001484D02*
X018326Y001484D01*
X018326Y001602D02*
X018239Y001602D01*
X017899Y001602D02*
X017845Y001602D01*
X017899Y001484D02*
X017595Y001484D01*
X017501Y001365D02*
X017993Y001365D01*
X017348Y001365D02*
X016639Y001365D01*
X016633Y001359D02*
X016733Y001458D01*
X016733Y001920D01*
X016633Y002019D01*
X016526Y002126D01*
X016385Y002126D01*
X016349Y002090D01*
X016313Y002126D01*
X016088Y002126D01*
X016088Y002133D01*
X016020Y002201D01*
X015988Y002233D01*
X015949Y002272D01*
X015882Y002339D01*
X015421Y002339D01*
X015382Y002301D01*
X015344Y002339D01*
X015203Y002339D01*
X015103Y002240D01*
X015103Y002126D01*
X014883Y002126D01*
X014815Y002058D01*
X014783Y002026D01*
X014744Y001987D01*
X014676Y001920D01*
X014676Y001565D01*
X014776Y001466D01*
X014883Y001359D01*
X015344Y001359D01*
X015382Y001397D01*
X015421Y001359D01*
X015882Y001359D01*
X015951Y001429D01*
X015973Y001451D01*
X016065Y001359D01*
X016206Y001359D01*
X016242Y001395D01*
X016279Y001359D01*
X016419Y001359D01*
X016456Y001395D01*
X016492Y001359D01*
X016633Y001359D01*
X016486Y001365D02*
X016426Y001365D01*
X016272Y001365D02*
X016212Y001365D01*
X016059Y001365D02*
X015888Y001365D01*
X015414Y001365D02*
X015350Y001365D01*
X014877Y001365D02*
X013954Y001365D01*
X014055Y001466D02*
X014055Y001466D01*
X014073Y001484D02*
X014758Y001484D01*
X014676Y001602D02*
X014154Y001602D01*
X014154Y001721D02*
X014676Y001721D01*
X014676Y001839D02*
X014154Y001839D01*
X014154Y001958D02*
X014714Y001958D01*
X014783Y002026D02*
X014783Y002026D01*
X014833Y002076D02*
X014154Y002076D01*
X014093Y002195D02*
X015103Y002195D01*
X015177Y002313D02*
X013974Y002313D01*
X013567Y002313D02*
X013330Y002313D01*
X013410Y002233D02*
X013410Y002233D01*
X013448Y002195D02*
X013449Y002195D01*
X013101Y001958D02*
X013048Y001958D01*
X012982Y001839D02*
X012221Y001839D01*
X012221Y001721D02*
X012864Y001721D01*
X012745Y001602D02*
X012221Y001602D01*
X012221Y001484D02*
X012743Y001484D01*
X012836Y001365D02*
X012127Y001365D01*
X012183Y001958D02*
X012778Y001958D01*
X012743Y002076D02*
X012064Y002076D01*
X013416Y001365D02*
X013588Y001365D01*
X015370Y002313D02*
X015394Y002313D01*
X015908Y002313D02*
X017328Y002313D01*
X017255Y002195D02*
X016027Y002195D01*
X015988Y002233D02*
X015988Y002233D01*
X016576Y002076D02*
X017255Y002076D01*
X017255Y001958D02*
X016695Y001958D01*
X016733Y001839D02*
X017255Y001839D01*
X017255Y001721D02*
X016733Y001721D01*
X016733Y001602D02*
X017255Y001602D01*
X017255Y001484D02*
X016733Y001484D01*
X017842Y002313D02*
X018186Y002313D01*
X018067Y002195D02*
X017960Y002195D01*
X017922Y002233D02*
X017922Y002233D01*
X018380Y002313D02*
X020698Y002313D01*
X020698Y002195D02*
X018498Y002195D01*
X018617Y002076D02*
X020698Y002076D01*
X020698Y001958D02*
X018666Y001958D01*
X018666Y001839D02*
X020698Y001839D01*
X020698Y001721D02*
X018666Y001721D01*
X018666Y001602D02*
X020698Y001602D01*
X020698Y001484D02*
X018666Y001484D01*
X020698Y001128D02*
X002950Y001128D01*
X002878Y001010D02*
X020698Y001010D01*
X020698Y000891D02*
X002786Y000891D01*
X002668Y000773D02*
X020698Y000773D01*
X020698Y000654D02*
X002510Y000654D01*
X004288Y006461D02*
X019785Y006461D01*
X019622Y006579D02*
X004450Y006579D01*
X004546Y006698D02*
X019527Y006698D01*
X019468Y006816D02*
X004605Y006816D01*
X004637Y006935D02*
X019435Y006935D01*
X020027Y006935D02*
X020147Y006935D01*
X020147Y007053D02*
X022035Y007053D01*
X022035Y006935D02*
X022155Y006935D01*
X022155Y007053D02*
X023387Y007053D01*
X023387Y006935D02*
X022748Y006935D01*
X022715Y006816D02*
X023387Y006816D01*
X023387Y006698D02*
X022656Y006698D01*
X022560Y006579D02*
X023387Y006579D01*
X023387Y006461D02*
X022398Y006461D01*
X022155Y006461D02*
X022035Y006461D01*
X022035Y006579D02*
X022155Y006579D01*
X022155Y006698D02*
X022035Y006698D01*
X022035Y006816D02*
X022155Y006816D01*
X022155Y007110D02*
X022755Y007110D01*
X022746Y007180D01*
X022723Y007263D01*
X022690Y007344D01*
X022647Y007419D01*
X022594Y007488D01*
X022533Y007549D01*
X022464Y007602D01*
X022389Y007645D01*
X022308Y007678D01*
X022225Y007701D01*
X022155Y007710D01*
X022155Y007110D01*
X022155Y007172D02*
X022035Y007172D01*
X022035Y007290D02*
X022155Y007290D01*
X022155Y007409D02*
X022035Y007409D01*
X022035Y007527D02*
X022155Y007527D01*
X022155Y007646D02*
X022035Y007646D01*
X022388Y007646D02*
X023387Y007646D01*
X023387Y007527D02*
X022555Y007527D01*
X022653Y007409D02*
X023387Y007409D01*
X023387Y007290D02*
X022712Y007290D01*
X022747Y007172D02*
X023387Y007172D01*
X021793Y006461D02*
X020390Y006461D01*
X020553Y006579D02*
X021630Y006579D01*
X021534Y006698D02*
X020648Y006698D01*
X020707Y006816D02*
X021476Y006816D01*
X021443Y006935D02*
X020740Y006935D01*
X020739Y007172D02*
X021444Y007172D01*
X021478Y007290D02*
X020705Y007290D01*
X020147Y006816D02*
X020027Y006816D01*
X020027Y006698D02*
X020147Y006698D01*
X020147Y006579D02*
X020027Y006579D01*
X020027Y006461D02*
X020147Y006461D01*
X019795Y007646D02*
X018440Y007646D01*
X018427Y008475D02*
X019773Y008475D01*
X020027Y008475D02*
X020147Y008475D01*
X020147Y008594D02*
X020027Y008594D01*
X020027Y008712D02*
X020147Y008712D01*
X020147Y008831D02*
X020027Y008831D01*
X020027Y008949D02*
X020147Y008949D01*
X020147Y009305D02*
X020027Y009305D01*
X020027Y009423D02*
X020147Y009423D01*
X020147Y009542D02*
X020027Y009542D01*
X020027Y009660D02*
X020147Y009660D01*
X020364Y009660D02*
X021819Y009660D01*
X021643Y009542D02*
X020540Y009542D01*
X020641Y009423D02*
X021542Y009423D01*
X021481Y009305D02*
X020702Y009305D01*
X020738Y009186D02*
X021444Y009186D01*
X021442Y008949D02*
X020741Y008949D01*
X020710Y008831D02*
X021473Y008831D01*
X021531Y008712D02*
X020652Y008712D01*
X020559Y008594D02*
X020871Y008594D01*
X020688Y008475D02*
X020402Y008475D01*
X021312Y008594D02*
X021623Y008594D01*
X019811Y009660D02*
X010753Y009660D01*
X010753Y009779D02*
X023387Y009779D01*
X023387Y009897D02*
X010715Y009897D01*
X010637Y010016D02*
X023387Y010016D01*
X023387Y010134D02*
X010458Y010134D01*
X010458Y010253D02*
X023387Y010253D01*
X023387Y010371D02*
X010458Y010371D01*
X010458Y010490D02*
X023387Y010490D01*
X023387Y010608D02*
X010458Y010608D01*
X010832Y010727D02*
X010865Y010727D01*
X010853Y010845D02*
X010838Y010845D01*
X011141Y010845D02*
X011159Y010845D01*
X011159Y010727D02*
X011141Y010727D01*
X011436Y010727D02*
X023387Y010727D01*
X023387Y010845D02*
X011448Y010845D01*
X011448Y010964D02*
X023387Y010964D01*
X023387Y011082D02*
X011448Y011082D01*
X011448Y011016D02*
X011448Y011244D01*
X011437Y011285D01*
X011416Y011322D01*
X011386Y011351D01*
X011350Y011372D01*
X011309Y011383D01*
X011159Y011383D01*
X011159Y011016D01*
X011448Y011016D01*
X011448Y011201D02*
X023387Y011201D01*
X023387Y011319D02*
X011418Y011319D01*
X011159Y011319D02*
X011141Y011319D01*
X011141Y011201D02*
X011159Y011201D01*
X011159Y011082D02*
X011141Y011082D01*
X011141Y010964D02*
X011159Y010964D01*
X010853Y011201D02*
X010838Y011201D01*
X010800Y011319D02*
X010883Y011319D01*
X010320Y011319D02*
X010307Y011319D01*
X009828Y011319D02*
X009816Y011319D01*
X009336Y011319D02*
X009252Y011319D01*
X009283Y011201D02*
X009298Y011201D01*
X008994Y011201D02*
X008976Y011201D01*
X008976Y011319D02*
X008994Y011319D01*
X008718Y011319D02*
X006468Y011319D01*
X006350Y011438D02*
X023387Y011438D01*
X023387Y011556D02*
X006201Y011556D01*
X006587Y011201D02*
X008687Y011201D01*
X008687Y011082D02*
X006705Y011082D01*
X006824Y010964D02*
X008687Y010964D01*
X008687Y010845D02*
X006942Y010845D01*
X007061Y010727D02*
X008699Y010727D01*
X008976Y010727D02*
X008994Y010727D01*
X008994Y010845D02*
X008976Y010845D01*
X008976Y010964D02*
X008994Y010964D01*
X008994Y011082D02*
X008976Y011082D01*
X009283Y010845D02*
X009298Y010845D01*
X009304Y010727D02*
X009271Y010727D01*
X009678Y010608D02*
X007179Y010608D01*
X007298Y010490D02*
X009678Y010490D01*
X009678Y010371D02*
X007416Y010371D01*
X007535Y010253D02*
X009678Y010253D01*
X009678Y010134D02*
X007653Y010134D01*
X007143Y009542D02*
X004438Y009542D01*
X004539Y009423D02*
X007261Y009423D01*
X007024Y009660D02*
X004261Y009660D01*
X004045Y009660D02*
X003925Y009660D01*
X003925Y009542D02*
X004045Y009542D01*
X004045Y009423D02*
X003925Y009423D01*
X003925Y009305D02*
X004045Y009305D01*
X004045Y008949D02*
X003925Y008949D01*
X003925Y008831D02*
X004045Y008831D01*
X004045Y008712D02*
X003925Y008712D01*
X003925Y008594D02*
X004045Y008594D01*
X004045Y008475D02*
X003925Y008475D01*
X003671Y008475D02*
X003384Y008475D01*
X003513Y008594D02*
X003202Y008594D01*
X004299Y008475D02*
X007971Y008475D01*
X008139Y008475D02*
X008139Y008475D01*
X008139Y008476D02*
X008139Y008259D01*
X008139Y008259D01*
X008139Y008476D01*
X008139Y008357D02*
X008139Y008357D01*
X007840Y008357D02*
X007463Y008357D01*
X006964Y008357D02*
X006873Y008357D01*
X006901Y008238D02*
X006936Y008238D01*
X006936Y008120D02*
X006901Y008120D01*
X006901Y008001D02*
X006936Y008001D01*
X006936Y007883D02*
X006901Y007883D01*
X006885Y007764D02*
X006951Y007764D01*
X008139Y007764D02*
X008139Y007764D01*
X008139Y007849D02*
X008139Y007660D01*
X008139Y007660D01*
X008139Y007849D01*
X008139Y007849D01*
X008139Y007646D02*
X008139Y007646D01*
X008139Y007527D02*
X008139Y007527D01*
X008407Y007527D02*
X008579Y007527D01*
X008847Y007527D02*
X008847Y007527D01*
X008847Y007646D02*
X008847Y007646D01*
X008847Y007660D02*
X008847Y007849D01*
X008847Y007849D01*
X008847Y007660D01*
X008847Y007660D01*
X008847Y007764D02*
X008847Y007764D01*
X009047Y007660D02*
X009047Y007660D01*
X009138Y007764D02*
X009342Y007764D01*
X009372Y008357D02*
X009132Y008357D01*
X009969Y009305D02*
X004599Y009305D01*
X004636Y009186D02*
X019437Y009186D01*
X019473Y009305D02*
X010166Y009305D01*
X010704Y009423D02*
X019534Y009423D01*
X019635Y009542D02*
X010708Y009542D01*
X011203Y008357D02*
X011294Y008357D01*
X011266Y008238D02*
X011231Y008238D01*
X011231Y008120D02*
X011266Y008120D01*
X011266Y008001D02*
X011231Y008001D01*
X011231Y007883D02*
X011266Y007883D01*
X011282Y007764D02*
X011216Y007764D01*
X006906Y009779D02*
X000685Y009779D01*
X000685Y009897D02*
X006787Y009897D01*
X006669Y010016D02*
X000685Y010016D01*
X000685Y010134D02*
X006550Y010134D01*
X006432Y010253D02*
X000685Y010253D01*
X000685Y010371D02*
X006313Y010371D01*
X006195Y010490D02*
X000685Y010490D01*
X000685Y010608D02*
X006076Y010608D01*
X005958Y010727D02*
X003096Y010727D01*
X003102Y011675D02*
X023387Y011675D01*
X023387Y011793D02*
X000685Y011793D01*
X000685Y011912D02*
X023387Y011912D01*
X023387Y012030D02*
X000685Y012030D01*
X000685Y012149D02*
X023387Y012149D01*
X023387Y012267D02*
X000685Y012267D01*
X000685Y012386D02*
X023387Y012386D01*
X023387Y012504D02*
X000685Y012504D01*
X000685Y012623D02*
X023387Y012623D01*
X023387Y012741D02*
X000685Y012741D01*
X003375Y012860D02*
X020698Y012860D01*
X020698Y012978D02*
X003375Y012978D01*
X003375Y013097D02*
X020698Y013097D01*
X020698Y013215D02*
X003375Y013215D01*
X003375Y013334D02*
X020698Y013334D01*
X020698Y013452D02*
X003375Y013452D01*
X003375Y013571D02*
X020698Y013571D01*
X020698Y013689D02*
X003375Y013689D01*
X003375Y013808D02*
X020698Y013808D01*
X020698Y013926D02*
X003375Y013926D01*
X003375Y014045D02*
X020698Y014045D01*
X020698Y014163D02*
X003375Y014163D01*
X003375Y014282D02*
X020698Y014282D01*
X020698Y014400D02*
X003375Y014400D01*
X003375Y014519D02*
X020698Y014519D01*
X020698Y014637D02*
X003375Y014637D01*
X003375Y014756D02*
X020698Y014756D01*
X020698Y014874D02*
X003375Y014874D01*
X003375Y014993D02*
X020698Y014993D01*
X020698Y015111D02*
X003375Y015111D01*
X003375Y015230D02*
X020698Y015230D01*
X020698Y015348D02*
X003375Y015348D01*
X003375Y015467D02*
X020698Y015467D01*
D25*
X019517Y015141D03*
X017548Y015141D03*
X015580Y015141D03*
X013611Y015141D03*
X011643Y015141D03*
X009674Y015141D03*
X007706Y015141D03*
X005737Y015141D03*
X003769Y015141D03*
X003769Y013172D03*
X005737Y013172D03*
X007706Y013172D03*
X008887Y011991D03*
X009674Y013172D03*
X011249Y011991D03*
X011643Y013172D03*
X013611Y013172D03*
X015580Y013172D03*
X017548Y013172D03*
X019517Y013172D03*
X021091Y012385D03*
X023060Y012385D03*
X023060Y010416D03*
X021091Y010416D03*
X019123Y010416D03*
X017154Y010416D03*
X015580Y010416D03*
X013611Y010416D03*
X013611Y009235D03*
X011643Y009235D03*
X011643Y010416D03*
X008493Y008841D03*
X008493Y006873D03*
X007706Y005692D03*
X006131Y005692D03*
X004556Y005692D03*
X003375Y004511D03*
X003769Y003723D03*
X002194Y003330D03*
X001013Y003330D03*
X001800Y005298D03*
X001013Y005692D03*
X005737Y003723D03*
X007706Y003723D03*
X009674Y003723D03*
X011643Y003723D03*
X013611Y003723D03*
X015580Y003723D03*
X017548Y003723D03*
X019517Y003723D03*
X021091Y003723D03*
X023060Y003723D03*
X023060Y005692D03*
X021091Y005692D03*
X019123Y005692D03*
X017548Y005692D03*
X015580Y005692D03*
X013611Y005692D03*
X013611Y006873D03*
X011643Y005692D03*
X009674Y005692D03*
X004556Y010023D03*
X001013Y010023D03*
X001013Y012385D03*
D26*
X009280Y008054D02*
X009530Y008054D01*
X010068Y008054D02*
X010068Y008784D01*
D27*
X010068Y008054D02*
X009530Y008054D01*
X010068Y008054D02*
X010855Y008054D01*
X011643Y008054D02*
X012952Y008054D01*
X014270Y008054D02*
X015580Y008054D01*
X017942Y008054D02*
X021091Y008054D01*
X006524Y008054D02*
X002981Y008054D01*
D28*
X006524Y008054D02*
X006623Y008054D01*
X010068Y009686D02*
X010125Y009680D01*
X010125Y009727D01*
X010855Y008054D02*
X010954Y008054D01*
X011544Y008054D02*
X011643Y008054D01*
D29*
X010363Y009727D02*
X010125Y009727D01*
X007509Y009727D01*
X006032Y011204D01*
X001800Y011204D01*
X010068Y011007D02*
X010068Y009686D01*
D30*
X010068Y011007D02*
X009576Y011007D01*
X010068Y011007D02*
X010560Y011007D01*
M02*
