G75*
G70*
%OFA0B0*%
%FSLAX24Y24*%
%IPPOS*%
%LPD*%
%AMOC8*
5,1,8,0,0,1.08239X$1,22.5*
%
%ADD10C,0.0886*%
%ADD11C,0.1004*%
%ADD12C,0.2300*%
%ADD13C,0.0160*%
%ADD14C,0.0357*%
D10*
X002981Y008054D03*
X021091Y008054D03*
D11*
X020087Y007050D03*
X022095Y007050D03*
X022095Y009058D03*
X020087Y009058D03*
X003985Y009058D03*
X001977Y009058D03*
X001977Y007050D03*
X003985Y007050D03*
D12*
X001800Y001755D03*
X001800Y014353D03*
X022272Y014353D03*
X022272Y001755D03*
D13*
X020698Y001765D02*
X001880Y001765D01*
X001880Y001835D02*
X001880Y001675D01*
X003129Y001675D01*
X003117Y001559D01*
X003092Y001431D01*
X003054Y001306D01*
X003004Y001185D01*
X002942Y001070D01*
X002870Y000962D01*
X002787Y000861D01*
X002694Y000768D01*
X002593Y000685D01*
X002555Y000660D01*
X020698Y000660D01*
X020698Y003330D01*
X023367Y003330D01*
X023367Y012778D01*
X020698Y012778D01*
X020698Y015448D01*
X003375Y015448D01*
X003375Y012778D01*
X000705Y012778D01*
X000705Y002510D01*
X000730Y002548D01*
X000813Y002649D01*
X000906Y002741D01*
X001007Y002824D01*
X001115Y002897D01*
X001231Y002959D01*
X001351Y003009D01*
X001476Y003046D01*
X001605Y003072D01*
X001720Y003083D01*
X001720Y001835D01*
X001880Y001835D01*
X001880Y003083D01*
X001995Y003072D01*
X002124Y003046D01*
X002249Y003009D01*
X002369Y002959D01*
X002485Y002897D01*
X002593Y002824D01*
X002694Y002741D01*
X002787Y002649D01*
X002870Y002548D01*
X002942Y002439D01*
X003004Y002324D01*
X003054Y002203D01*
X003092Y002078D01*
X003117Y001950D01*
X003129Y001835D01*
X001880Y001835D01*
X001880Y001924D02*
X001720Y001924D01*
X001720Y002082D02*
X001880Y002082D01*
X001880Y002241D02*
X001720Y002241D01*
X001720Y002399D02*
X001880Y002399D01*
X001880Y002558D02*
X001720Y002558D01*
X001720Y002716D02*
X001880Y002716D01*
X001880Y002875D02*
X001720Y002875D01*
X001720Y003033D02*
X001880Y003033D01*
X002168Y003033D02*
X020698Y003033D01*
X020698Y002875D02*
X002518Y002875D01*
X002720Y002716D02*
X020698Y002716D01*
X020698Y002558D02*
X002862Y002558D01*
X002964Y002399D02*
X020698Y002399D01*
X020698Y002241D02*
X003038Y002241D01*
X003091Y002082D02*
X020698Y002082D01*
X020698Y001924D02*
X003120Y001924D01*
X003122Y001607D02*
X020698Y001607D01*
X020698Y001448D02*
X003095Y001448D01*
X003047Y001290D02*
X020698Y001290D01*
X020698Y001131D02*
X002975Y001131D01*
X002877Y000973D02*
X020698Y000973D01*
X020698Y000814D02*
X002740Y000814D01*
X000738Y002558D02*
X000705Y002558D01*
X000705Y002716D02*
X000880Y002716D01*
X000705Y002875D02*
X001082Y002875D01*
X001432Y003033D02*
X000705Y003033D01*
X000705Y003192D02*
X020698Y003192D01*
X023367Y003350D02*
X000705Y003350D01*
X000705Y003509D02*
X023367Y003509D01*
X023367Y003667D02*
X000705Y003667D01*
X000705Y003826D02*
X023367Y003826D01*
X023367Y003984D02*
X000705Y003984D01*
X000705Y004143D02*
X023367Y004143D01*
X023367Y004301D02*
X000705Y004301D01*
X000705Y004460D02*
X023367Y004460D01*
X023367Y004618D02*
X000705Y004618D01*
X000705Y004777D02*
X023367Y004777D01*
X023367Y004935D02*
X000705Y004935D01*
X000705Y005094D02*
X023367Y005094D01*
X023367Y005252D02*
X000705Y005252D01*
X000705Y005411D02*
X023367Y005411D01*
X023367Y005569D02*
X000705Y005569D01*
X000705Y005728D02*
X023367Y005728D01*
X023367Y005886D02*
X000705Y005886D01*
X000705Y006045D02*
X023367Y006045D01*
X023367Y006203D02*
X000705Y006203D01*
X000705Y006362D02*
X023367Y006362D01*
X023367Y006520D02*
X022525Y006520D01*
X022546Y006536D02*
X022609Y006599D01*
X022663Y006670D01*
X022708Y006748D01*
X022742Y006830D01*
X022766Y006917D01*
X022773Y006970D01*
X022175Y006970D01*
X022175Y006373D01*
X022229Y006380D01*
X022315Y006403D01*
X022398Y006437D01*
X022475Y006482D01*
X022546Y006536D01*
X022668Y006679D02*
X023367Y006679D01*
X023367Y006837D02*
X022744Y006837D01*
X022773Y007130D02*
X022766Y007183D01*
X022742Y007270D01*
X022708Y007352D01*
X022663Y007430D01*
X022609Y007501D01*
X022546Y007564D01*
X022475Y007618D01*
X022398Y007663D01*
X022315Y007697D01*
X022229Y007720D01*
X022175Y007727D01*
X022175Y007130D01*
X022015Y007130D01*
X022015Y006970D01*
X021418Y006970D01*
X021425Y006917D01*
X021448Y006830D01*
X021482Y006748D01*
X021527Y006670D01*
X021581Y006599D01*
X021645Y006536D01*
X021716Y006482D01*
X021793Y006437D01*
X021876Y006403D01*
X021962Y006380D01*
X022015Y006373D01*
X022015Y006970D01*
X022175Y006970D01*
X022175Y007130D01*
X022773Y007130D01*
X022769Y007154D02*
X023367Y007154D01*
X023367Y006996D02*
X022175Y006996D01*
X022175Y007154D02*
X022015Y007154D01*
X022015Y007130D02*
X022015Y007727D01*
X021962Y007720D01*
X021876Y007697D01*
X021793Y007663D01*
X021716Y007618D01*
X021645Y007564D01*
X021581Y007501D01*
X021527Y007430D01*
X021482Y007352D01*
X021448Y007270D01*
X021425Y007183D01*
X021418Y007130D01*
X022015Y007130D01*
X022015Y006996D02*
X020167Y006996D01*
X020167Y006970D02*
X020167Y007130D01*
X020007Y007130D01*
X020007Y006970D01*
X019410Y006970D01*
X019417Y006917D01*
X019440Y006830D01*
X019474Y006748D01*
X019519Y006670D01*
X019574Y006599D01*
X019637Y006536D01*
X019708Y006482D01*
X019785Y006437D01*
X019868Y006403D01*
X019954Y006380D01*
X020007Y006373D01*
X020007Y006970D01*
X020167Y006970D01*
X020167Y006373D01*
X020221Y006380D01*
X020307Y006403D01*
X020390Y006437D01*
X020467Y006482D01*
X020538Y006536D01*
X020601Y006599D01*
X020656Y006670D01*
X020700Y006748D01*
X020735Y006830D01*
X020758Y006917D01*
X020765Y006970D01*
X020167Y006970D01*
X020167Y006837D02*
X020007Y006837D01*
X020007Y006679D02*
X020167Y006679D01*
X020167Y006520D02*
X020007Y006520D01*
X019658Y006520D02*
X004414Y006520D01*
X004436Y006536D02*
X004499Y006599D01*
X004553Y006670D01*
X004598Y006748D01*
X004632Y006830D01*
X004655Y006917D01*
X004662Y006970D01*
X004065Y006970D01*
X004065Y006373D01*
X004118Y006380D01*
X004205Y006403D01*
X004287Y006437D01*
X004365Y006482D01*
X004436Y006536D01*
X004558Y006679D02*
X019515Y006679D01*
X019439Y006837D02*
X004634Y006837D01*
X004662Y007130D02*
X004655Y007183D01*
X004632Y007270D01*
X004598Y007352D01*
X004553Y007430D01*
X004499Y007501D01*
X004436Y007564D01*
X004365Y007618D01*
X004287Y007663D01*
X004205Y007697D01*
X004118Y007720D01*
X004065Y007727D01*
X004065Y007130D01*
X004662Y007130D01*
X004659Y007154D02*
X019413Y007154D01*
X019410Y007130D02*
X020007Y007130D01*
X020007Y007727D01*
X019954Y007720D01*
X019868Y007697D01*
X019785Y007663D01*
X019708Y007618D01*
X019637Y007564D01*
X019574Y007501D01*
X019519Y007430D01*
X019474Y007352D01*
X019440Y007270D01*
X019417Y007183D01*
X019410Y007130D01*
X019458Y007313D02*
X004614Y007313D01*
X004522Y007471D02*
X019551Y007471D01*
X019727Y007630D02*
X004345Y007630D01*
X004065Y007630D02*
X003905Y007630D01*
X003905Y007727D02*
X003852Y007720D01*
X003765Y007697D01*
X003683Y007663D01*
X003605Y007618D01*
X003534Y007564D01*
X003471Y007501D01*
X003417Y007430D01*
X003372Y007352D01*
X003338Y007270D01*
X003315Y007183D01*
X003308Y007130D01*
X003905Y007130D01*
X003905Y006970D01*
X004065Y006970D01*
X004065Y007130D01*
X003905Y007130D01*
X003905Y007727D01*
X003905Y007471D02*
X004065Y007471D01*
X004065Y007313D02*
X003905Y007313D01*
X003905Y007154D02*
X004065Y007154D01*
X004065Y006996D02*
X020007Y006996D01*
X020007Y007154D02*
X020167Y007154D01*
X020167Y007130D02*
X020167Y007727D01*
X020221Y007720D01*
X020307Y007697D01*
X020390Y007663D01*
X020467Y007618D01*
X020538Y007564D01*
X020601Y007501D01*
X020656Y007430D01*
X020700Y007352D01*
X020735Y007270D01*
X020758Y007183D01*
X020765Y007130D01*
X020167Y007130D01*
X020167Y007313D02*
X020007Y007313D01*
X020007Y007471D02*
X020167Y007471D01*
X020167Y007630D02*
X020007Y007630D01*
X020448Y007630D02*
X020663Y007630D01*
X020580Y007712D02*
X020750Y007543D01*
X020971Y007451D01*
X021211Y007451D01*
X021433Y007543D01*
X021602Y007712D01*
X021694Y007934D01*
X021694Y008174D01*
X021602Y008396D01*
X021433Y008565D01*
X021211Y008657D01*
X020971Y008657D01*
X020750Y008565D01*
X020580Y008396D01*
X020488Y008174D01*
X020488Y007934D01*
X020580Y007712D01*
X020549Y007788D02*
X003524Y007788D01*
X003492Y007712D02*
X003584Y007934D01*
X003584Y008174D01*
X003492Y008396D01*
X003323Y008565D01*
X003101Y008657D01*
X002861Y008657D01*
X002640Y008565D01*
X002470Y008396D01*
X002378Y008174D01*
X002378Y007934D01*
X002470Y007712D01*
X002640Y007543D01*
X002861Y007451D01*
X003101Y007451D01*
X003323Y007543D01*
X003492Y007712D01*
X003409Y007630D02*
X003625Y007630D01*
X003448Y007471D02*
X003149Y007471D01*
X003356Y007313D02*
X002607Y007313D01*
X002590Y007352D02*
X002545Y007430D01*
X002491Y007501D01*
X002428Y007564D01*
X002357Y007618D01*
X002279Y007663D01*
X002197Y007697D01*
X002111Y007720D01*
X002057Y007727D01*
X002057Y007130D01*
X001897Y007130D01*
X001897Y006970D01*
X001300Y006970D01*
X001307Y006917D01*
X001330Y006830D01*
X001364Y006748D01*
X001409Y006670D01*
X001463Y006599D01*
X001527Y006536D01*
X001598Y006482D01*
X001675Y006437D01*
X001758Y006403D01*
X001844Y006380D01*
X001897Y006373D01*
X001897Y006970D01*
X002057Y006970D01*
X002057Y006373D01*
X002111Y006380D01*
X002197Y006403D01*
X002279Y006437D01*
X002357Y006482D01*
X002428Y006536D01*
X002491Y006599D01*
X002545Y006670D01*
X002590Y006748D01*
X002624Y006830D01*
X002648Y006917D01*
X002655Y006970D01*
X002057Y006970D01*
X002057Y007130D01*
X002655Y007130D01*
X002648Y007183D01*
X002624Y007270D01*
X002590Y007352D01*
X002514Y007471D02*
X002813Y007471D01*
X002553Y007630D02*
X002338Y007630D01*
X002439Y007788D02*
X000705Y007788D01*
X000705Y007630D02*
X001617Y007630D01*
X001598Y007618D02*
X001527Y007564D01*
X001463Y007501D01*
X001409Y007430D01*
X001364Y007352D01*
X001330Y007270D01*
X001307Y007183D01*
X001300Y007130D01*
X001897Y007130D01*
X001897Y007727D01*
X001844Y007720D01*
X001758Y007697D01*
X001675Y007663D01*
X001598Y007618D01*
X001441Y007471D02*
X000705Y007471D01*
X000705Y007313D02*
X001348Y007313D01*
X001303Y007154D02*
X000705Y007154D01*
X000705Y006996D02*
X001897Y006996D01*
X001897Y007154D02*
X002057Y007154D01*
X002057Y006996D02*
X003905Y006996D01*
X003905Y006970D02*
X003308Y006970D01*
X003315Y006917D01*
X003338Y006830D01*
X003372Y006748D01*
X003417Y006670D01*
X003471Y006599D01*
X003534Y006536D01*
X003605Y006482D01*
X003683Y006437D01*
X003765Y006403D01*
X003852Y006380D01*
X003905Y006373D01*
X003905Y006970D01*
X003905Y006837D02*
X004065Y006837D01*
X004065Y006679D02*
X003905Y006679D01*
X003905Y006520D02*
X004065Y006520D01*
X003556Y006520D02*
X002407Y006520D01*
X002550Y006679D02*
X003412Y006679D01*
X003336Y006837D02*
X002626Y006837D01*
X002651Y007154D02*
X003311Y007154D01*
X003584Y007947D02*
X020488Y007947D01*
X020488Y008105D02*
X003584Y008105D01*
X003547Y008264D02*
X020526Y008264D01*
X020607Y008422D02*
X020334Y008422D01*
X020307Y008411D02*
X020390Y008445D01*
X020467Y008490D01*
X020538Y008544D01*
X020601Y008607D01*
X020656Y008678D01*
X020700Y008756D01*
X020735Y008838D01*
X020758Y008925D01*
X020765Y008978D01*
X020167Y008978D01*
X020167Y008381D01*
X020221Y008388D01*
X020307Y008411D01*
X020167Y008422D02*
X020007Y008422D01*
X020007Y008381D02*
X020007Y008978D01*
X019410Y008978D01*
X019417Y008925D01*
X019440Y008838D01*
X019474Y008756D01*
X019519Y008678D01*
X019574Y008607D01*
X019637Y008544D01*
X019708Y008490D01*
X019785Y008445D01*
X019868Y008411D01*
X019954Y008388D01*
X020007Y008381D01*
X019841Y008422D02*
X004232Y008422D01*
X004205Y008411D02*
X004287Y008445D01*
X004365Y008490D01*
X004436Y008544D01*
X004499Y008607D01*
X004553Y008678D01*
X004598Y008756D01*
X004632Y008838D01*
X004655Y008925D01*
X004662Y008978D01*
X004065Y008978D01*
X004065Y009138D01*
X003905Y009138D01*
X003905Y009735D01*
X003852Y009728D01*
X003765Y009705D01*
X003683Y009671D01*
X003605Y009626D01*
X003534Y009572D01*
X003471Y009509D01*
X003417Y009438D01*
X003372Y009360D01*
X003338Y009278D01*
X003315Y009191D01*
X003308Y009138D01*
X003905Y009138D01*
X003905Y008978D01*
X003308Y008978D01*
X003315Y008925D01*
X003338Y008838D01*
X003372Y008756D01*
X003417Y008678D01*
X003471Y008607D01*
X003534Y008544D01*
X003605Y008490D01*
X003683Y008445D01*
X003765Y008411D01*
X003852Y008388D01*
X003905Y008381D01*
X003905Y008978D01*
X004065Y008978D01*
X004065Y008381D01*
X004118Y008388D01*
X004205Y008411D01*
X004065Y008422D02*
X003905Y008422D01*
X003905Y008581D02*
X004065Y008581D01*
X004065Y008739D02*
X003905Y008739D01*
X003905Y008898D02*
X004065Y008898D01*
X004065Y009056D02*
X020007Y009056D01*
X020007Y008978D02*
X020007Y009138D01*
X019410Y009138D01*
X019417Y009191D01*
X019440Y009278D01*
X019474Y009360D01*
X019519Y009438D01*
X019574Y009509D01*
X019637Y009572D01*
X019708Y009626D01*
X019785Y009671D01*
X019868Y009705D01*
X019954Y009728D01*
X020007Y009735D01*
X020007Y009138D01*
X020167Y009138D01*
X020167Y009735D01*
X020221Y009728D01*
X020307Y009705D01*
X020390Y009671D01*
X020467Y009626D01*
X020538Y009572D01*
X020601Y009509D01*
X020656Y009438D01*
X020700Y009360D01*
X020735Y009278D01*
X020758Y009191D01*
X020765Y009138D01*
X020167Y009138D01*
X020167Y008978D01*
X020007Y008978D01*
X020007Y008898D02*
X020167Y008898D01*
X020167Y009056D02*
X022015Y009056D01*
X022015Y008978D02*
X022015Y009138D01*
X021418Y009138D01*
X021425Y009191D01*
X021448Y009278D01*
X021482Y009360D01*
X021527Y009438D01*
X021581Y009509D01*
X021645Y009572D01*
X021716Y009626D01*
X021793Y009671D01*
X021876Y009705D01*
X021962Y009728D01*
X022015Y009735D01*
X022015Y009138D01*
X022175Y009138D01*
X022175Y009735D01*
X022229Y009728D01*
X022315Y009705D01*
X022398Y009671D01*
X022475Y009626D01*
X022546Y009572D01*
X022609Y009509D01*
X022663Y009438D01*
X022708Y009360D01*
X022742Y009278D01*
X022766Y009191D01*
X022773Y009138D01*
X022175Y009138D01*
X022175Y008978D01*
X022175Y008381D01*
X022229Y008388D01*
X022315Y008411D01*
X022398Y008445D01*
X022475Y008490D01*
X022546Y008544D01*
X022609Y008607D01*
X022663Y008678D01*
X022708Y008756D01*
X022742Y008838D01*
X022766Y008925D01*
X022773Y008978D01*
X022175Y008978D01*
X022015Y008978D01*
X021418Y008978D01*
X021425Y008925D01*
X021448Y008838D01*
X021482Y008756D01*
X021527Y008678D01*
X021581Y008607D01*
X021645Y008544D01*
X021716Y008490D01*
X021793Y008445D01*
X021876Y008411D01*
X021962Y008388D01*
X022015Y008381D01*
X022015Y008978D01*
X022015Y008898D02*
X022175Y008898D01*
X022175Y009056D02*
X023367Y009056D01*
X023367Y008898D02*
X022758Y008898D01*
X022699Y008739D02*
X023367Y008739D01*
X023367Y008581D02*
X022582Y008581D01*
X022342Y008422D02*
X023367Y008422D01*
X023367Y008264D02*
X021657Y008264D01*
X021694Y008105D02*
X023367Y008105D01*
X023367Y007947D02*
X021694Y007947D01*
X021634Y007788D02*
X023367Y007788D01*
X023367Y007630D02*
X022456Y007630D01*
X022632Y007471D02*
X023367Y007471D01*
X023367Y007313D02*
X022725Y007313D01*
X022175Y007313D02*
X022015Y007313D01*
X022015Y007471D02*
X022175Y007471D01*
X022175Y007630D02*
X022015Y007630D01*
X021735Y007630D02*
X021519Y007630D01*
X021559Y007471D02*
X021259Y007471D01*
X021466Y007313D02*
X020717Y007313D01*
X020762Y007154D02*
X021421Y007154D01*
X021446Y006837D02*
X020736Y006837D01*
X020660Y006679D02*
X021522Y006679D01*
X021666Y006520D02*
X020517Y006520D01*
X020624Y007471D02*
X020923Y007471D01*
X022015Y006837D02*
X022175Y006837D01*
X022175Y006679D02*
X022015Y006679D01*
X022015Y006520D02*
X022175Y006520D01*
X022175Y008422D02*
X022015Y008422D01*
X022015Y008581D02*
X022175Y008581D01*
X022175Y008739D02*
X022015Y008739D01*
X021848Y008422D02*
X021576Y008422D01*
X021608Y008581D02*
X021396Y008581D01*
X021492Y008739D02*
X020691Y008739D01*
X020750Y008898D02*
X021432Y008898D01*
X021431Y009215D02*
X020752Y009215D01*
X020693Y009373D02*
X021490Y009373D01*
X021604Y009532D02*
X020578Y009532D01*
X020343Y009690D02*
X021839Y009690D01*
X022015Y009690D02*
X022175Y009690D01*
X022175Y009532D02*
X022015Y009532D01*
X022015Y009373D02*
X022175Y009373D01*
X022175Y009215D02*
X022015Y009215D01*
X022586Y009532D02*
X023367Y009532D01*
X023367Y009690D02*
X022351Y009690D01*
X022701Y009373D02*
X023367Y009373D01*
X023367Y009215D02*
X022759Y009215D01*
X023367Y009849D02*
X000705Y009849D01*
X000705Y010007D02*
X023367Y010007D01*
X023367Y010166D02*
X000705Y010166D01*
X000705Y010324D02*
X023367Y010324D01*
X023367Y010483D02*
X000705Y010483D01*
X000705Y010641D02*
X023367Y010641D01*
X023367Y010800D02*
X000705Y010800D01*
X000705Y010958D02*
X023367Y010958D01*
X023367Y011117D02*
X000705Y011117D01*
X000705Y011275D02*
X023367Y011275D01*
X023367Y011434D02*
X000705Y011434D01*
X000705Y011592D02*
X023367Y011592D01*
X023367Y011751D02*
X000705Y011751D01*
X000705Y011909D02*
X023367Y011909D01*
X023367Y012068D02*
X000705Y012068D01*
X000705Y012226D02*
X023367Y012226D01*
X023367Y012385D02*
X000705Y012385D01*
X000705Y012543D02*
X023367Y012543D01*
X023367Y012702D02*
X000705Y012702D01*
X003375Y012860D02*
X020698Y012860D01*
X020698Y013019D02*
X003375Y013019D01*
X003375Y013177D02*
X020698Y013177D01*
X020698Y013336D02*
X003375Y013336D01*
X003375Y013494D02*
X020698Y013494D01*
X020698Y013653D02*
X003375Y013653D01*
X003375Y013811D02*
X020698Y013811D01*
X020698Y013970D02*
X003375Y013970D01*
X003375Y014128D02*
X020698Y014128D01*
X020698Y014287D02*
X003375Y014287D01*
X003375Y014445D02*
X020698Y014445D01*
X020698Y014604D02*
X003375Y014604D01*
X003375Y014762D02*
X020698Y014762D01*
X020698Y014921D02*
X003375Y014921D01*
X003375Y015079D02*
X020698Y015079D01*
X020698Y015238D02*
X003375Y015238D01*
X003375Y015396D02*
X020698Y015396D01*
X020167Y009690D02*
X020007Y009690D01*
X020007Y009532D02*
X020167Y009532D01*
X020167Y009373D02*
X020007Y009373D01*
X020007Y009215D02*
X020167Y009215D01*
X019597Y009532D02*
X004476Y009532D01*
X004499Y009509D02*
X004436Y009572D01*
X004365Y009626D01*
X004287Y009671D01*
X004205Y009705D01*
X004118Y009728D01*
X004065Y009735D01*
X004065Y009138D01*
X004662Y009138D01*
X004655Y009191D01*
X004632Y009278D01*
X004598Y009360D01*
X004553Y009438D01*
X004499Y009509D01*
X004591Y009373D02*
X019482Y009373D01*
X019423Y009215D02*
X004649Y009215D01*
X004648Y008898D02*
X019424Y008898D01*
X019484Y008739D02*
X004588Y008739D01*
X004472Y008581D02*
X019600Y008581D01*
X020007Y008581D02*
X020167Y008581D01*
X020167Y008739D02*
X020007Y008739D01*
X020574Y008581D02*
X020787Y008581D01*
X019831Y009690D02*
X004241Y009690D01*
X004065Y009690D02*
X003905Y009690D01*
X003905Y009532D02*
X004065Y009532D01*
X004065Y009373D02*
X003905Y009373D01*
X003905Y009215D02*
X004065Y009215D01*
X003905Y009056D02*
X002057Y009056D01*
X002057Y008978D02*
X002057Y009138D01*
X001897Y009138D01*
X001897Y008978D01*
X001300Y008978D01*
X001307Y008925D01*
X001330Y008838D01*
X001364Y008756D01*
X001409Y008678D01*
X001463Y008607D01*
X001527Y008544D01*
X001598Y008490D01*
X001675Y008445D01*
X001758Y008411D01*
X001844Y008388D01*
X001897Y008381D01*
X001897Y008978D01*
X002057Y008978D01*
X002057Y008381D01*
X002111Y008388D01*
X002197Y008411D01*
X002279Y008445D01*
X002357Y008490D01*
X002428Y008544D01*
X002491Y008607D01*
X002545Y008678D01*
X002590Y008756D01*
X002624Y008838D01*
X002648Y008925D01*
X002655Y008978D01*
X002057Y008978D01*
X002057Y008898D02*
X001897Y008898D01*
X001897Y009056D02*
X000705Y009056D01*
X000705Y008898D02*
X001314Y008898D01*
X001374Y008739D02*
X000705Y008739D01*
X000705Y008581D02*
X001490Y008581D01*
X001730Y008422D02*
X000705Y008422D01*
X000705Y008264D02*
X002415Y008264D01*
X002378Y008105D02*
X000705Y008105D01*
X000705Y007947D02*
X002378Y007947D01*
X002057Y007630D02*
X001897Y007630D01*
X001897Y007471D02*
X002057Y007471D01*
X002057Y007313D02*
X001897Y007313D01*
X001897Y006837D02*
X002057Y006837D01*
X002057Y006679D02*
X001897Y006679D01*
X001897Y006520D02*
X002057Y006520D01*
X001548Y006520D02*
X000705Y006520D01*
X000705Y006679D02*
X001404Y006679D01*
X001328Y006837D02*
X000705Y006837D01*
X001897Y008422D02*
X002057Y008422D01*
X002057Y008581D02*
X001897Y008581D01*
X001897Y008739D02*
X002057Y008739D01*
X002224Y008422D02*
X002496Y008422D01*
X002464Y008581D02*
X002677Y008581D01*
X002581Y008739D02*
X003382Y008739D01*
X003322Y008898D02*
X002640Y008898D01*
X002655Y009138D02*
X002648Y009191D01*
X002624Y009278D01*
X002590Y009360D01*
X002545Y009438D01*
X002491Y009509D01*
X002428Y009572D01*
X002357Y009626D01*
X002279Y009671D01*
X002197Y009705D01*
X002111Y009728D01*
X002057Y009735D01*
X002057Y009138D01*
X002655Y009138D01*
X002641Y009215D02*
X003321Y009215D01*
X003379Y009373D02*
X002583Y009373D01*
X002468Y009532D02*
X003494Y009532D01*
X003729Y009690D02*
X002233Y009690D01*
X002057Y009690D02*
X001897Y009690D01*
X001897Y009735D02*
X001844Y009728D01*
X001758Y009705D01*
X001675Y009671D01*
X001598Y009626D01*
X001527Y009572D01*
X001463Y009509D01*
X001409Y009438D01*
X001364Y009360D01*
X001330Y009278D01*
X001307Y009191D01*
X001300Y009138D01*
X001897Y009138D01*
X001897Y009735D01*
X001721Y009690D02*
X000705Y009690D01*
X000705Y009532D02*
X001486Y009532D01*
X001372Y009373D02*
X000705Y009373D01*
X000705Y009215D02*
X001313Y009215D01*
X001897Y009215D02*
X002057Y009215D01*
X002057Y009373D02*
X001897Y009373D01*
X001897Y009532D02*
X002057Y009532D01*
X003286Y008581D02*
X003498Y008581D01*
X003466Y008422D02*
X003738Y008422D01*
D14*
X004556Y010023D03*
X001013Y010023D03*
X001013Y012385D03*
X003769Y013172D03*
X005737Y013172D03*
X007706Y013172D03*
X008887Y011991D03*
X009674Y013172D03*
X011249Y011991D03*
X011643Y013172D03*
X013611Y013172D03*
X015580Y013172D03*
X017548Y013172D03*
X019517Y013172D03*
X021091Y012385D03*
X023060Y012385D03*
X023060Y010416D03*
X021091Y010416D03*
X019123Y010416D03*
X017154Y010416D03*
X015580Y010416D03*
X013611Y010416D03*
X013611Y009235D03*
X011643Y009235D03*
X011643Y010416D03*
X008493Y008841D03*
X008493Y006873D03*
X007706Y005692D03*
X006131Y005692D03*
X004556Y005692D03*
X003375Y004511D03*
X003769Y003723D03*
X002194Y003330D03*
X001013Y003330D03*
X001800Y005298D03*
X001013Y005692D03*
X005737Y003723D03*
X007706Y003723D03*
X009674Y003723D03*
X011643Y003723D03*
X013611Y003723D03*
X015580Y003723D03*
X017548Y003723D03*
X019517Y003723D03*
X021091Y003723D03*
X023060Y003723D03*
X023060Y005692D03*
X021091Y005692D03*
X019123Y005692D03*
X017548Y005692D03*
X015580Y005692D03*
X013611Y005692D03*
X013611Y006873D03*
X011643Y005692D03*
X009674Y005692D03*
X009674Y015141D03*
X011643Y015141D03*
X013611Y015141D03*
X015580Y015141D03*
X017548Y015141D03*
X019517Y015141D03*
X007706Y015141D03*
X005737Y015141D03*
X003769Y015141D03*
M02*
