G75*
G70*
%OFA0B0*%
%FSLAX24Y24*%
%IPPOS*%
%LPD*%
%AMOC8*
5,1,8,0,0,1.08239X$1,22.5*
%
%ADD10C,0.0030*%
%ADD11C,0.0050*%
%ADD12C,0.0060*%
%ADD13C,0.0080*%
D10*
X001385Y003541D02*
X001508Y003541D01*
X001570Y003603D01*
X001570Y003727D01*
X001446Y003727D01*
X001323Y003850D02*
X001323Y003603D01*
X001385Y003541D01*
X001691Y003541D02*
X001691Y003912D01*
X001938Y003541D01*
X001938Y003912D01*
X002060Y003912D02*
X002245Y003912D01*
X002306Y003850D01*
X002306Y003603D01*
X002245Y003541D01*
X002060Y003541D01*
X002060Y003912D01*
X001570Y003850D02*
X001508Y003912D01*
X001385Y003912D01*
X001323Y003850D01*
X002209Y005707D02*
X002209Y006077D01*
X002394Y006077D01*
X002456Y006015D01*
X002456Y005892D01*
X002394Y005830D01*
X002209Y005830D01*
X002332Y005830D02*
X002456Y005707D01*
X002577Y005707D02*
X002577Y006077D01*
X002824Y006077D01*
X002700Y005892D02*
X002577Y005892D01*
X003314Y006077D02*
X003437Y006077D01*
X003375Y006077D02*
X003375Y005707D01*
X003314Y005707D02*
X003437Y005707D01*
X003559Y005707D02*
X003559Y006077D01*
X003806Y005707D01*
X003806Y006077D01*
X002416Y010136D02*
X002293Y010136D01*
X002231Y010198D01*
X002110Y010198D02*
X002048Y010136D01*
X001924Y010136D01*
X001863Y010198D01*
X001863Y010506D01*
X001741Y010445D02*
X001741Y010383D01*
X001679Y010321D01*
X001494Y010321D01*
X001373Y010259D02*
X001373Y010506D01*
X001494Y010506D02*
X001679Y010506D01*
X001741Y010445D01*
X001679Y010321D02*
X001741Y010259D01*
X001741Y010198D01*
X001679Y010136D01*
X001494Y010136D01*
X001494Y010506D01*
X001373Y010259D02*
X001249Y010136D01*
X001126Y010259D01*
X001126Y010506D01*
X002110Y010506D02*
X002110Y010198D01*
X002293Y010321D02*
X002416Y010321D01*
X002478Y010259D01*
X002478Y010198D01*
X002416Y010136D01*
X002293Y010321D02*
X002231Y010383D01*
X002231Y010445D01*
X002293Y010506D01*
X002416Y010506D01*
X002478Y010445D01*
X020122Y006077D02*
X020122Y005707D01*
X020122Y005830D02*
X020307Y005830D01*
X020369Y005892D01*
X020369Y006015D01*
X020307Y006077D01*
X020122Y006077D01*
X020246Y005830D02*
X020369Y005707D01*
X020490Y005707D02*
X020490Y006077D01*
X020737Y006077D01*
X020614Y005892D02*
X020490Y005892D01*
X021227Y006015D02*
X021227Y005769D01*
X021289Y005707D01*
X021412Y005707D01*
X021474Y005769D01*
X021474Y006015D01*
X021412Y006077D01*
X021289Y006077D01*
X021227Y006015D01*
X021595Y006077D02*
X021595Y005769D01*
X021657Y005707D01*
X021781Y005707D01*
X021842Y005769D01*
X021842Y006077D01*
X021964Y006077D02*
X022211Y006077D01*
X022087Y006077D02*
X022087Y005707D01*
D11*
X017646Y007267D02*
X015875Y007267D01*
X015875Y008841D01*
X017646Y008841D01*
X017646Y007267D01*
X016367Y007660D02*
X016401Y007629D01*
X016437Y007601D01*
X016476Y007576D01*
X016516Y007554D01*
X016559Y007535D01*
X016602Y007520D01*
X016647Y007509D01*
X016692Y007501D01*
X016738Y007497D01*
X016784Y007497D01*
X016830Y007501D01*
X016875Y007509D01*
X016920Y007520D01*
X016963Y007535D01*
X017006Y007554D01*
X017046Y007576D01*
X017085Y007601D01*
X017121Y007629D01*
X017155Y007660D01*
X017186Y007694D01*
X017214Y007730D01*
X017239Y007769D01*
X017261Y007809D01*
X017280Y007852D01*
X017295Y007895D01*
X017306Y007940D01*
X017314Y007985D01*
X017318Y008031D01*
X017318Y008077D01*
X017314Y008123D01*
X017306Y008168D01*
X017295Y008213D01*
X017280Y008256D01*
X017261Y008299D01*
X017239Y008339D01*
X017214Y008378D01*
X017186Y008414D01*
X017155Y008448D01*
X017121Y008479D01*
X017085Y008507D01*
X017046Y008532D01*
X017006Y008554D01*
X016963Y008573D01*
X016920Y008588D01*
X016875Y008599D01*
X016830Y008607D01*
X016784Y008611D01*
X016738Y008611D01*
X016692Y008607D01*
X016647Y008599D01*
X016602Y008588D01*
X016559Y008573D01*
X016516Y008554D01*
X016476Y008532D01*
X016437Y008507D01*
X016401Y008479D01*
X016367Y008448D01*
X016367Y008251D01*
X016170Y008251D01*
X016170Y007857D01*
X016367Y007857D01*
X016367Y007660D01*
X014241Y007739D02*
X012981Y007739D01*
X012981Y008369D01*
X014241Y008369D01*
X014241Y007739D01*
X012902Y007424D02*
X012904Y007442D01*
X012910Y007458D01*
X012919Y007473D01*
X012932Y007486D01*
X012947Y007495D01*
X012963Y007501D01*
X012981Y007503D01*
X012999Y007501D01*
X013015Y007495D01*
X013030Y007486D01*
X013043Y007473D01*
X013052Y007458D01*
X013058Y007442D01*
X013060Y007424D01*
X013058Y007406D01*
X013052Y007390D01*
X013043Y007375D01*
X013030Y007362D01*
X013015Y007353D01*
X012999Y007347D01*
X012981Y007345D01*
X012963Y007347D01*
X012947Y007353D01*
X012932Y007362D01*
X012919Y007375D01*
X012910Y007390D01*
X012904Y007406D01*
X012902Y007424D01*
X011721Y007804D02*
X011721Y008304D01*
X010776Y008304D01*
X010776Y007804D01*
X011721Y007804D01*
X010540Y008710D02*
X009595Y008710D01*
X009595Y009761D01*
X010540Y009761D01*
X010540Y008710D01*
X008276Y008377D02*
X008278Y008392D01*
X008283Y008405D01*
X008292Y008417D01*
X008303Y008427D01*
X008317Y008433D01*
X008331Y008436D01*
X008346Y008435D01*
X008360Y008430D01*
X008373Y008422D01*
X008383Y008412D01*
X008390Y008399D01*
X008394Y008384D01*
X008394Y008370D01*
X008390Y008355D01*
X008383Y008342D01*
X008373Y008332D01*
X008360Y008324D01*
X008346Y008319D01*
X008331Y008318D01*
X008317Y008321D01*
X008303Y008327D01*
X008292Y008337D01*
X008283Y008349D01*
X008278Y008362D01*
X008276Y008377D01*
X007391Y008304D02*
X007391Y007804D01*
X006446Y007804D01*
X006446Y008304D01*
X007391Y008304D01*
X008808Y010757D02*
X008808Y011257D01*
X009753Y011257D01*
X009753Y010757D01*
X008808Y010757D01*
X010383Y010757D02*
X010383Y011257D01*
X011328Y011257D01*
X011328Y010757D01*
X010383Y010757D01*
D12*
X008887Y008546D02*
X008099Y008546D01*
X008099Y007365D01*
X008887Y007365D01*
X008887Y008546D01*
D13*
X004241Y008487D02*
X004241Y007621D01*
X003414Y006794D02*
X002548Y006794D01*
X001721Y007621D02*
X001721Y008487D01*
X002548Y009314D02*
X003414Y009314D01*
X002312Y008054D02*
X002314Y008105D01*
X002320Y008156D01*
X002330Y008206D01*
X002343Y008256D01*
X002361Y008304D01*
X002381Y008351D01*
X002406Y008396D01*
X002434Y008439D01*
X002465Y008480D01*
X002499Y008518D01*
X002536Y008553D01*
X002575Y008586D01*
X002617Y008616D01*
X002661Y008642D01*
X002707Y008664D01*
X002755Y008684D01*
X002804Y008699D01*
X002854Y008711D01*
X002904Y008719D01*
X002955Y008723D01*
X003007Y008723D01*
X003058Y008719D01*
X003108Y008711D01*
X003158Y008699D01*
X003207Y008684D01*
X003255Y008664D01*
X003301Y008642D01*
X003345Y008616D01*
X003387Y008586D01*
X003426Y008553D01*
X003463Y008518D01*
X003497Y008480D01*
X003528Y008439D01*
X003556Y008396D01*
X003581Y008351D01*
X003601Y008304D01*
X003619Y008256D01*
X003632Y008206D01*
X003642Y008156D01*
X003648Y008105D01*
X003650Y008054D01*
X003648Y008003D01*
X003642Y007952D01*
X003632Y007902D01*
X003619Y007852D01*
X003601Y007804D01*
X003581Y007757D01*
X003556Y007712D01*
X003528Y007669D01*
X003497Y007628D01*
X003463Y007590D01*
X003426Y007555D01*
X003387Y007522D01*
X003345Y007492D01*
X003301Y007466D01*
X003255Y007444D01*
X003207Y007424D01*
X003158Y007409D01*
X003108Y007397D01*
X003058Y007389D01*
X003007Y007385D01*
X002955Y007385D01*
X002904Y007389D01*
X002854Y007397D01*
X002804Y007409D01*
X002755Y007424D01*
X002707Y007444D01*
X002661Y007466D01*
X002617Y007492D01*
X002575Y007522D01*
X002536Y007555D01*
X002499Y007590D01*
X002465Y007628D01*
X002434Y007669D01*
X002406Y007712D01*
X002381Y007757D01*
X002361Y007804D01*
X002343Y007852D01*
X002330Y007902D01*
X002320Y007952D01*
X002314Y008003D01*
X002312Y008054D01*
X019831Y007621D02*
X019831Y008487D01*
X020658Y009314D02*
X021524Y009314D01*
X022351Y008487D02*
X022351Y007621D01*
X021524Y006794D02*
X020658Y006794D01*
X020422Y008054D02*
X020424Y008105D01*
X020430Y008156D01*
X020440Y008206D01*
X020453Y008256D01*
X020471Y008304D01*
X020491Y008351D01*
X020516Y008396D01*
X020544Y008439D01*
X020575Y008480D01*
X020609Y008518D01*
X020646Y008553D01*
X020685Y008586D01*
X020727Y008616D01*
X020771Y008642D01*
X020817Y008664D01*
X020865Y008684D01*
X020914Y008699D01*
X020964Y008711D01*
X021014Y008719D01*
X021065Y008723D01*
X021117Y008723D01*
X021168Y008719D01*
X021218Y008711D01*
X021268Y008699D01*
X021317Y008684D01*
X021365Y008664D01*
X021411Y008642D01*
X021455Y008616D01*
X021497Y008586D01*
X021536Y008553D01*
X021573Y008518D01*
X021607Y008480D01*
X021638Y008439D01*
X021666Y008396D01*
X021691Y008351D01*
X021711Y008304D01*
X021729Y008256D01*
X021742Y008206D01*
X021752Y008156D01*
X021758Y008105D01*
X021760Y008054D01*
X021758Y008003D01*
X021752Y007952D01*
X021742Y007902D01*
X021729Y007852D01*
X021711Y007804D01*
X021691Y007757D01*
X021666Y007712D01*
X021638Y007669D01*
X021607Y007628D01*
X021573Y007590D01*
X021536Y007555D01*
X021497Y007522D01*
X021455Y007492D01*
X021411Y007466D01*
X021365Y007444D01*
X021317Y007424D01*
X021268Y007409D01*
X021218Y007397D01*
X021168Y007389D01*
X021117Y007385D01*
X021065Y007385D01*
X021014Y007389D01*
X020964Y007397D01*
X020914Y007409D01*
X020865Y007424D01*
X020817Y007444D01*
X020771Y007466D01*
X020727Y007492D01*
X020685Y007522D01*
X020646Y007555D01*
X020609Y007590D01*
X020575Y007628D01*
X020544Y007669D01*
X020516Y007712D01*
X020491Y007757D01*
X020471Y007804D01*
X020453Y007852D01*
X020440Y007902D01*
X020430Y007952D01*
X020424Y008003D01*
X020422Y008054D01*
M02*
