%
M48
M72
T01C0.0236
T02C0.0591
T03C0.0669
T04C0.1260
%
T01
X6680Y23609
X8180Y23609
X9680Y23609
X12680Y23609
X12680Y24609
X13180Y27609
X13180Y28109
X13180Y28609
X18180Y28609
X18180Y29109
X18180Y28109
X20680Y28109
X20680Y29109
X22180Y28109
X22180Y27109
X20680Y27109
X20180Y24609
X19180Y24609
X19180Y23609
X20180Y23609
X22430Y23609
X23930Y23609
X25680Y23609
X27180Y23609
X28680Y23609
X30680Y23609
X31180Y25109
X31180Y26609
X30180Y28109
X28680Y28109
X27180Y28109
X25680Y28109
X24180Y28109
X4680Y28609
X4180Y28609
X3680Y28609
X3180Y28609
X2680Y28609
T02
X3680Y25609
X28680Y25609
T03
X27680Y26609
X29680Y26609
X29680Y24609
X27680Y24609
X4680Y24609
X4680Y26609
X2680Y26609
X2680Y24609
T04
X1361Y1290
X31282Y1290
X31282Y31211
X1361Y31211
M30
