G75*
G70*
%OFA0B0*%
%FSLAX24Y24*%
%IPPOS*%
%LPD*%
%AMOC8*
5,1,8,0,0,1.08239X$1,22.5*
%
%ADD10C,0.0000*%
D10*
X000180Y001290D02*
X000180Y031211D01*
X000182Y031277D01*
X000187Y031343D01*
X000197Y031409D01*
X000210Y031474D01*
X000226Y031538D01*
X000246Y031601D01*
X000270Y031663D01*
X000297Y031723D01*
X000327Y031782D01*
X000361Y031839D01*
X000398Y031894D01*
X000438Y031947D01*
X000480Y031998D01*
X000526Y032046D01*
X000574Y032092D01*
X000625Y032134D01*
X000678Y032174D01*
X000733Y032211D01*
X000790Y032245D01*
X000849Y032275D01*
X000909Y032302D01*
X000971Y032326D01*
X001034Y032346D01*
X001098Y032362D01*
X001163Y032375D01*
X001229Y032385D01*
X001295Y032390D01*
X001361Y032392D01*
X031282Y032392D01*
X031348Y032390D01*
X031414Y032385D01*
X031480Y032375D01*
X031545Y032362D01*
X031609Y032346D01*
X031672Y032326D01*
X031734Y032302D01*
X031794Y032275D01*
X031853Y032245D01*
X031910Y032211D01*
X031965Y032174D01*
X032018Y032134D01*
X032069Y032092D01*
X032117Y032046D01*
X032163Y031998D01*
X032205Y031947D01*
X032245Y031894D01*
X032282Y031839D01*
X032316Y031782D01*
X032346Y031723D01*
X032373Y031663D01*
X032397Y031601D01*
X032417Y031538D01*
X032433Y031474D01*
X032446Y031409D01*
X032456Y031343D01*
X032461Y031277D01*
X032463Y031211D01*
X032463Y001290D01*
X032461Y001224D01*
X032456Y001158D01*
X032446Y001092D01*
X032433Y001027D01*
X032417Y000963D01*
X032397Y000900D01*
X032373Y000838D01*
X032346Y000778D01*
X032316Y000719D01*
X032282Y000662D01*
X032245Y000607D01*
X032205Y000554D01*
X032163Y000503D01*
X032117Y000455D01*
X032069Y000409D01*
X032018Y000367D01*
X031965Y000327D01*
X031910Y000290D01*
X031853Y000256D01*
X031794Y000226D01*
X031734Y000199D01*
X031672Y000175D01*
X031609Y000155D01*
X031545Y000139D01*
X031480Y000126D01*
X031414Y000116D01*
X031348Y000111D01*
X031282Y000109D01*
X030495Y000109D01*
X030429Y000111D01*
X030363Y000116D01*
X030297Y000126D01*
X030232Y000139D01*
X030168Y000155D01*
X030105Y000175D01*
X030043Y000199D01*
X029983Y000226D01*
X029924Y000256D01*
X029867Y000290D01*
X029812Y000327D01*
X029759Y000367D01*
X029708Y000409D01*
X029660Y000455D01*
X029614Y000503D01*
X029572Y000554D01*
X029532Y000607D01*
X029495Y000662D01*
X029461Y000719D01*
X029431Y000778D01*
X029404Y000838D01*
X029380Y000900D01*
X029360Y000963D01*
X029344Y001027D01*
X029331Y001092D01*
X029321Y001158D01*
X029316Y001224D01*
X029314Y001290D01*
X029314Y003652D01*
X029312Y003718D01*
X029307Y003784D01*
X029297Y003850D01*
X029284Y003915D01*
X029268Y003979D01*
X029248Y004042D01*
X029224Y004104D01*
X029197Y004164D01*
X029167Y004223D01*
X029133Y004280D01*
X029096Y004335D01*
X029056Y004388D01*
X029014Y004439D01*
X028968Y004487D01*
X028920Y004533D01*
X028869Y004575D01*
X028816Y004615D01*
X028761Y004652D01*
X028704Y004686D01*
X028645Y004716D01*
X028585Y004743D01*
X028523Y004767D01*
X028460Y004787D01*
X028396Y004803D01*
X028331Y004816D01*
X028265Y004826D01*
X028199Y004831D01*
X028133Y004833D01*
X004511Y004833D01*
X004445Y004831D01*
X004379Y004826D01*
X004313Y004816D01*
X004248Y004803D01*
X004184Y004787D01*
X004121Y004767D01*
X004059Y004743D01*
X003999Y004716D01*
X003940Y004686D01*
X003883Y004652D01*
X003828Y004615D01*
X003775Y004575D01*
X003724Y004533D01*
X003676Y004487D01*
X003630Y004439D01*
X003588Y004388D01*
X003548Y004335D01*
X003511Y004280D01*
X003477Y004223D01*
X003447Y004164D01*
X003420Y004104D01*
X003396Y004042D01*
X003376Y003979D01*
X003360Y003915D01*
X003347Y003850D01*
X003337Y003784D01*
X003332Y003718D01*
X003330Y003652D01*
X003330Y001290D01*
X003328Y001224D01*
X003323Y001158D01*
X003313Y001092D01*
X003300Y001027D01*
X003284Y000963D01*
X003264Y000900D01*
X003240Y000838D01*
X003213Y000778D01*
X003183Y000719D01*
X003149Y000662D01*
X003112Y000607D01*
X003072Y000554D01*
X003030Y000503D01*
X002984Y000455D01*
X002936Y000409D01*
X002885Y000367D01*
X002832Y000327D01*
X002777Y000290D01*
X002720Y000256D01*
X002661Y000226D01*
X002601Y000199D01*
X002539Y000175D01*
X002476Y000155D01*
X002412Y000139D01*
X002347Y000126D01*
X002281Y000116D01*
X002215Y000111D01*
X002149Y000109D01*
X001361Y000109D01*
X001295Y000111D01*
X001229Y000116D01*
X001163Y000126D01*
X001098Y000139D01*
X001034Y000155D01*
X000971Y000175D01*
X000909Y000199D01*
X000849Y000226D01*
X000790Y000256D01*
X000733Y000290D01*
X000678Y000327D01*
X000625Y000367D01*
X000574Y000409D01*
X000526Y000455D01*
X000480Y000503D01*
X000438Y000554D01*
X000398Y000607D01*
X000361Y000662D01*
X000327Y000719D01*
X000297Y000778D01*
X000270Y000838D01*
X000246Y000900D01*
X000226Y000963D01*
X000210Y001027D01*
X000197Y001092D01*
X000187Y001158D01*
X000182Y001224D01*
X000180Y001290D01*
M02*
