G75*
G70*
%OFA0B0*%
%FSLAX24Y24*%
%IPPOS*%
%LPD*%
%AMOC8*
5,1,8,0,0,1.08239X$1,22.5*
%
%ADD10C,0.0966*%
%ADD11C,0.1084*%
%ADD12C,0.2380*%
%ADD13C,0.0476*%
D10*
X003680Y025609D03*
X028680Y025609D03*
D11*
X027680Y026609D03*
X029680Y026609D03*
X029680Y024609D03*
X027680Y024609D03*
X004680Y024609D03*
X004680Y026609D03*
X002680Y026609D03*
X002680Y024609D03*
D12*
X001361Y001290D03*
X031282Y001290D03*
X031282Y031211D03*
X001361Y031211D03*
D13*
X002680Y028609D03*
X003180Y028609D03*
X003680Y028609D03*
X004180Y028609D03*
X004680Y028609D03*
X006680Y023609D03*
X008180Y023609D03*
X009680Y023609D03*
X012680Y023609D03*
X012680Y024609D03*
X013180Y027609D03*
X013180Y028109D03*
X013180Y028609D03*
X018180Y028609D03*
X018180Y029109D03*
X018180Y028109D03*
X020680Y028109D03*
X020680Y029109D03*
X022180Y028109D03*
X022180Y027109D03*
X020680Y027109D03*
X020180Y024609D03*
X019180Y024609D03*
X019180Y023609D03*
X020180Y023609D03*
X022430Y023609D03*
X023930Y023609D03*
X025680Y023609D03*
X027180Y023609D03*
X028680Y023609D03*
X030680Y023609D03*
X031180Y025109D03*
X031180Y026609D03*
X030180Y028109D03*
X028680Y028109D03*
X027180Y028109D03*
X025680Y028109D03*
X024180Y028109D03*
M02*
