G75*
G70*
%OFA0B0*%
%FSLAX24Y24*%
%IPPOS*%
%LPD*%
%AMOC8*
5,1,8,0,0,1.08239X$1,22.5*
%
%ADD10R,0.0474X0.0395*%
%ADD11R,0.0356X0.0513*%
%ADD12R,0.0354X0.0512*%
%ADD13R,0.0866X0.1181*%
%ADD14R,0.0513X0.0356*%
%ADD15R,0.1080X0.0482*%
%ADD16R,0.0631X0.0474*%
%ADD17C,0.0966*%
%ADD18C,0.1084*%
%ADD19C,0.2380*%
%ADD20R,0.0867X0.2442*%
%ADD21C,0.0476*%
D10*
X010708Y024985D03*
X010708Y025733D03*
X011652Y025359D03*
D11*
X009225Y025609D03*
X008635Y025609D03*
X007725Y025609D03*
X007135Y025609D03*
X014135Y025609D03*
X014725Y025609D03*
X015635Y025609D03*
X016225Y025609D03*
X017339Y024920D03*
X018521Y024920D03*
X019885Y025609D03*
X020475Y025609D03*
X021385Y025609D03*
X021975Y025609D03*
X022885Y025609D03*
X023475Y025609D03*
X024385Y025609D03*
X024975Y025609D03*
X024975Y026609D03*
X024385Y026609D03*
X023475Y026609D03*
X022885Y026609D03*
X017475Y028609D03*
X016885Y028609D03*
D12*
X017930Y024920D03*
D13*
X017930Y025963D03*
D14*
X016180Y027314D03*
X016180Y027904D03*
X016180Y028814D03*
X016180Y029404D03*
X016180Y030064D03*
X016180Y030654D03*
X019430Y030654D03*
X019430Y030064D03*
X022430Y024904D03*
X022430Y024314D03*
X023930Y024314D03*
X023930Y024904D03*
X025555Y024904D03*
X025555Y024314D03*
X012430Y030064D03*
X012430Y030654D03*
X009680Y030654D03*
X009680Y030064D03*
X009680Y027154D03*
X009680Y026564D03*
X009680Y024904D03*
X009680Y024314D03*
X010930Y024154D03*
X010930Y023564D03*
X011680Y023564D03*
X011680Y024154D03*
X008180Y024314D03*
X008180Y024904D03*
X006680Y024904D03*
X006680Y024314D03*
D15*
X012430Y025658D03*
X012430Y026560D03*
X019430Y026408D03*
X019430Y027310D03*
D16*
X014613Y027735D03*
X014613Y028483D03*
X013747Y028109D03*
D17*
X003680Y025609D03*
X028680Y025609D03*
D18*
X027680Y026609D03*
X029680Y026609D03*
X029680Y024609D03*
X027680Y024609D03*
X004680Y024609D03*
X004680Y026609D03*
X002680Y026609D03*
X002680Y024609D03*
D19*
X001361Y001290D03*
X031282Y001290D03*
X031282Y031211D03*
X001361Y031211D03*
D20*
X004680Y030609D03*
X006680Y030609D03*
D21*
X004680Y028609D03*
X004180Y028609D03*
X003680Y028609D03*
X003180Y028609D03*
X002680Y028609D03*
X006680Y023609D03*
X008180Y023609D03*
X009680Y023609D03*
X012680Y023609D03*
X012680Y024609D03*
X013180Y027609D03*
X013180Y028109D03*
X013180Y028609D03*
X018180Y028609D03*
X018180Y029109D03*
X018180Y028109D03*
X020680Y028109D03*
X020680Y029109D03*
X022180Y028109D03*
X022180Y027109D03*
X020680Y027109D03*
X020180Y024609D03*
X019180Y024609D03*
X019180Y023609D03*
X020180Y023609D03*
X022430Y023609D03*
X023930Y023609D03*
X025680Y023609D03*
X027180Y023609D03*
X028680Y023609D03*
X030680Y023609D03*
X031180Y025109D03*
X031180Y026609D03*
X030180Y028109D03*
X028680Y028109D03*
X027180Y028109D03*
X025680Y028109D03*
X024180Y028109D03*
M02*
