G75*
G70*
%OFA0B0*%
%FSLAX24Y24*%
%IPPOS*%
%LPD*%
%AMOC8*
5,1,8,0,0,1.08239X$1,22.5*
%
%ADD10C,0.0060*%
%ADD11C,0.0050*%
%ADD12C,0.0080*%
D10*
X017035Y025175D02*
X017035Y026243D01*
X017452Y026243D01*
X018427Y026243D02*
X018825Y026243D01*
X018825Y025175D01*
X018293Y025172D02*
X018152Y025172D01*
X017703Y025172D02*
X017561Y025172D01*
X014240Y027549D02*
X013920Y027549D01*
X013920Y027769D01*
X013920Y028449D02*
X013920Y028669D01*
X014240Y028669D01*
D11*
X002794Y024428D02*
X002794Y022656D01*
X004566Y022656D01*
X004566Y024428D01*
X006430Y024136D02*
X006930Y024136D01*
X006930Y025081D01*
X006430Y025081D01*
X006430Y024136D01*
X006958Y025359D02*
X006958Y025859D01*
X007902Y025859D01*
X007902Y025359D01*
X006958Y025359D01*
X007930Y025081D02*
X008430Y025081D01*
X008430Y024136D01*
X007930Y024136D01*
X007930Y025081D01*
X008458Y025359D02*
X008458Y025859D01*
X009402Y025859D01*
X009402Y025359D01*
X008458Y025359D01*
X009430Y025081D02*
X009930Y025081D01*
X009930Y024136D01*
X009430Y024136D01*
X009430Y025081D01*
X009430Y026386D02*
X009930Y026386D01*
X009930Y027331D01*
X009430Y027331D01*
X009430Y026386D01*
X010680Y024331D02*
X011180Y024331D01*
X011180Y023386D01*
X010680Y023386D01*
X010680Y024331D01*
X011430Y024331D02*
X011930Y024331D01*
X011930Y023386D01*
X011430Y023386D01*
X011430Y024331D01*
X011958Y025583D02*
X011958Y026634D01*
X012902Y026634D01*
X012902Y025583D01*
X011958Y025583D01*
X013958Y025359D02*
X013958Y025859D01*
X014902Y025859D01*
X014902Y025359D01*
X013958Y025359D01*
X015458Y025359D02*
X015458Y025859D01*
X016402Y025859D01*
X016402Y025359D01*
X015458Y025359D01*
X015930Y027136D02*
X016430Y027136D01*
X016430Y028081D01*
X015930Y028081D01*
X015930Y027136D01*
X016708Y028359D02*
X016708Y028859D01*
X017652Y028859D01*
X017652Y028359D01*
X016708Y028359D01*
X016430Y028636D02*
X015930Y028636D01*
X015930Y029581D01*
X016430Y029581D01*
X016430Y028636D01*
X016430Y029886D02*
X015930Y029886D01*
X015930Y030831D01*
X016430Y030831D01*
X016430Y029886D01*
X019180Y029886D02*
X019680Y029886D01*
X019680Y030831D01*
X019180Y030831D01*
X019180Y029886D01*
X018958Y027384D02*
X018958Y026333D01*
X019902Y026333D01*
X019902Y027384D01*
X018958Y027384D01*
X019708Y025859D02*
X019708Y025359D01*
X020652Y025359D01*
X020652Y025859D01*
X019708Y025859D01*
X021208Y025859D02*
X021208Y025359D01*
X022152Y025359D01*
X022152Y025859D01*
X021208Y025859D01*
X022180Y025081D02*
X022680Y025081D01*
X022680Y024136D01*
X022180Y024136D01*
X022180Y025081D01*
X022708Y025359D02*
X022708Y025859D01*
X023652Y025859D01*
X023652Y025359D01*
X022708Y025359D01*
X022708Y026359D02*
X022708Y026859D01*
X023652Y026859D01*
X023652Y026359D01*
X022708Y026359D01*
X024208Y026359D02*
X024208Y026859D01*
X025152Y026859D01*
X025152Y026359D01*
X024208Y026359D01*
X024208Y025859D02*
X024208Y025359D01*
X025152Y025359D01*
X025152Y025859D01*
X024208Y025859D01*
X024180Y025081D02*
X023680Y025081D01*
X023680Y024136D01*
X024180Y024136D01*
X024180Y025081D01*
X025305Y025081D02*
X025305Y024136D01*
X025805Y024136D01*
X025805Y025081D01*
X025305Y025081D01*
X027794Y024428D02*
X027794Y022656D01*
X029566Y022656D01*
X029566Y024428D01*
X012680Y029886D02*
X012180Y029886D01*
X012180Y030831D01*
X012680Y030831D01*
X012680Y029886D01*
X009930Y029886D02*
X009430Y029886D01*
X009430Y030831D01*
X009930Y030831D01*
X009930Y029886D01*
D12*
X004861Y026042D02*
X004861Y025176D01*
X004113Y024428D02*
X003247Y024428D01*
X002499Y025176D02*
X002499Y026042D01*
X003247Y026790D02*
X004113Y026790D01*
X002499Y025609D02*
X002501Y025678D01*
X002507Y025746D01*
X002517Y025814D01*
X002531Y025881D01*
X002549Y025948D01*
X002570Y026013D01*
X002596Y026077D01*
X002625Y026139D01*
X002657Y026199D01*
X002693Y026258D01*
X002733Y026314D01*
X002775Y026368D01*
X002821Y026419D01*
X002870Y026468D01*
X002921Y026514D01*
X002975Y026556D01*
X003031Y026596D01*
X003089Y026632D01*
X003150Y026664D01*
X003212Y026693D01*
X003276Y026719D01*
X003341Y026740D01*
X003408Y026758D01*
X003475Y026772D01*
X003543Y026782D01*
X003611Y026788D01*
X003680Y026790D01*
X003749Y026788D01*
X003817Y026782D01*
X003885Y026772D01*
X003952Y026758D01*
X004019Y026740D01*
X004084Y026719D01*
X004148Y026693D01*
X004210Y026664D01*
X004270Y026632D01*
X004329Y026596D01*
X004385Y026556D01*
X004439Y026514D01*
X004490Y026468D01*
X004539Y026419D01*
X004585Y026368D01*
X004627Y026314D01*
X004667Y026258D01*
X004703Y026199D01*
X004735Y026139D01*
X004764Y026077D01*
X004790Y026013D01*
X004811Y025948D01*
X004829Y025881D01*
X004843Y025814D01*
X004853Y025746D01*
X004859Y025678D01*
X004861Y025609D01*
X004859Y025540D01*
X004853Y025472D01*
X004843Y025404D01*
X004829Y025337D01*
X004811Y025270D01*
X004790Y025205D01*
X004764Y025141D01*
X004735Y025079D01*
X004703Y025018D01*
X004667Y024960D01*
X004627Y024904D01*
X004585Y024850D01*
X004539Y024799D01*
X004490Y024750D01*
X004439Y024704D01*
X004385Y024662D01*
X004329Y024622D01*
X004271Y024586D01*
X004210Y024554D01*
X004148Y024525D01*
X004084Y024499D01*
X004019Y024478D01*
X003952Y024460D01*
X003885Y024446D01*
X003817Y024436D01*
X003749Y024430D01*
X003680Y024428D01*
X003611Y024430D01*
X003543Y024436D01*
X003475Y024446D01*
X003408Y024460D01*
X003341Y024478D01*
X003276Y024499D01*
X003212Y024525D01*
X003150Y024554D01*
X003089Y024586D01*
X003031Y024622D01*
X002975Y024662D01*
X002921Y024704D01*
X002870Y024750D01*
X002821Y024799D01*
X002775Y024850D01*
X002733Y024904D01*
X002693Y024960D01*
X002657Y025018D01*
X002625Y025079D01*
X002596Y025141D01*
X002570Y025205D01*
X002549Y025270D01*
X002531Y025337D01*
X002517Y025404D01*
X002507Y025472D01*
X002501Y025540D01*
X002499Y025609D01*
X027499Y025176D02*
X027499Y026042D01*
X028247Y026790D02*
X029113Y026790D01*
X029861Y026042D02*
X029861Y025176D01*
X029113Y024428D02*
X028247Y024428D01*
X027499Y025609D02*
X027501Y025678D01*
X027507Y025746D01*
X027517Y025814D01*
X027531Y025881D01*
X027549Y025948D01*
X027570Y026013D01*
X027596Y026077D01*
X027625Y026139D01*
X027657Y026199D01*
X027693Y026258D01*
X027733Y026314D01*
X027775Y026368D01*
X027821Y026419D01*
X027870Y026468D01*
X027921Y026514D01*
X027975Y026556D01*
X028031Y026596D01*
X028089Y026632D01*
X028150Y026664D01*
X028212Y026693D01*
X028276Y026719D01*
X028341Y026740D01*
X028408Y026758D01*
X028475Y026772D01*
X028543Y026782D01*
X028611Y026788D01*
X028680Y026790D01*
X028749Y026788D01*
X028817Y026782D01*
X028885Y026772D01*
X028952Y026758D01*
X029019Y026740D01*
X029084Y026719D01*
X029148Y026693D01*
X029210Y026664D01*
X029270Y026632D01*
X029329Y026596D01*
X029385Y026556D01*
X029439Y026514D01*
X029490Y026468D01*
X029539Y026419D01*
X029585Y026368D01*
X029627Y026314D01*
X029667Y026258D01*
X029703Y026199D01*
X029735Y026139D01*
X029764Y026077D01*
X029790Y026013D01*
X029811Y025948D01*
X029829Y025881D01*
X029843Y025814D01*
X029853Y025746D01*
X029859Y025678D01*
X029861Y025609D01*
X029859Y025540D01*
X029853Y025472D01*
X029843Y025404D01*
X029829Y025337D01*
X029811Y025270D01*
X029790Y025205D01*
X029764Y025141D01*
X029735Y025079D01*
X029703Y025018D01*
X029667Y024960D01*
X029627Y024904D01*
X029585Y024850D01*
X029539Y024799D01*
X029490Y024750D01*
X029439Y024704D01*
X029385Y024662D01*
X029329Y024622D01*
X029271Y024586D01*
X029210Y024554D01*
X029148Y024525D01*
X029084Y024499D01*
X029019Y024478D01*
X028952Y024460D01*
X028885Y024446D01*
X028817Y024436D01*
X028749Y024430D01*
X028680Y024428D01*
X028611Y024430D01*
X028543Y024436D01*
X028475Y024446D01*
X028408Y024460D01*
X028341Y024478D01*
X028276Y024499D01*
X028212Y024525D01*
X028150Y024554D01*
X028089Y024586D01*
X028031Y024622D01*
X027975Y024662D01*
X027921Y024704D01*
X027870Y024750D01*
X027821Y024799D01*
X027775Y024850D01*
X027733Y024904D01*
X027693Y024960D01*
X027657Y025018D01*
X027625Y025079D01*
X027596Y025141D01*
X027570Y025205D01*
X027549Y025270D01*
X027531Y025337D01*
X027517Y025404D01*
X027507Y025472D01*
X027501Y025540D01*
X027499Y025609D01*
M02*
