G75*
G70*
%OFA0B0*%
%FSLAX24Y24*%
%IPPOS*%
%LPD*%
%AMOC8*
5,1,8,0,0,1.08239X$1,22.5*
%
%ADD10C,0.0000*%
D10*
X000150Y001331D02*
X000150Y035189D01*
X000152Y035255D01*
X000157Y035321D01*
X000167Y035387D01*
X000180Y035452D01*
X000196Y035516D01*
X000216Y035579D01*
X000240Y035641D01*
X000267Y035701D01*
X000297Y035760D01*
X000331Y035817D01*
X000368Y035872D01*
X000408Y035925D01*
X000450Y035976D01*
X000496Y036024D01*
X000544Y036070D01*
X000595Y036112D01*
X000648Y036152D01*
X000703Y036189D01*
X000760Y036223D01*
X000819Y036253D01*
X000879Y036280D01*
X000941Y036304D01*
X001004Y036324D01*
X001068Y036340D01*
X001133Y036353D01*
X001199Y036363D01*
X001265Y036368D01*
X001331Y036370D01*
X004874Y036370D01*
X004874Y036371D02*
X004913Y036369D01*
X004951Y036363D01*
X004988Y036354D01*
X005025Y036341D01*
X005060Y036324D01*
X005093Y036305D01*
X005124Y036282D01*
X005153Y036256D01*
X005179Y036227D01*
X005202Y036196D01*
X005221Y036163D01*
X005238Y036128D01*
X005251Y036091D01*
X005260Y036054D01*
X005266Y036016D01*
X005268Y035977D01*
X005268Y035583D01*
X005270Y035517D01*
X005275Y035451D01*
X005285Y035385D01*
X005298Y035320D01*
X005314Y035256D01*
X005334Y035193D01*
X005358Y035131D01*
X005385Y035071D01*
X005415Y035012D01*
X005449Y034955D01*
X005486Y034900D01*
X005526Y034847D01*
X005568Y034796D01*
X005614Y034748D01*
X005662Y034702D01*
X005713Y034660D01*
X005766Y034620D01*
X005821Y034583D01*
X005878Y034549D01*
X005937Y034519D01*
X005997Y034492D01*
X006059Y034468D01*
X006122Y034448D01*
X006186Y034432D01*
X006251Y034419D01*
X006317Y034409D01*
X006383Y034404D01*
X006449Y034402D01*
X030071Y034402D01*
X030137Y034404D01*
X030203Y034409D01*
X030269Y034419D01*
X030334Y034432D01*
X030398Y034448D01*
X030461Y034468D01*
X030523Y034492D01*
X030583Y034519D01*
X030642Y034549D01*
X030699Y034583D01*
X030754Y034620D01*
X030807Y034660D01*
X030858Y034702D01*
X030906Y034748D01*
X030952Y034796D01*
X030994Y034847D01*
X031034Y034900D01*
X031071Y034955D01*
X031105Y035012D01*
X031135Y035071D01*
X031162Y035131D01*
X031186Y035193D01*
X031206Y035256D01*
X031222Y035320D01*
X031235Y035385D01*
X031245Y035451D01*
X031250Y035517D01*
X031252Y035583D01*
X031252Y035977D01*
X031254Y036016D01*
X031260Y036054D01*
X031269Y036091D01*
X031282Y036128D01*
X031299Y036163D01*
X031318Y036196D01*
X031341Y036227D01*
X031367Y036256D01*
X031396Y036282D01*
X031427Y036305D01*
X031460Y036324D01*
X031495Y036341D01*
X031532Y036354D01*
X031569Y036363D01*
X031607Y036369D01*
X031646Y036371D01*
X031646Y036370D02*
X035189Y036370D01*
X035255Y036368D01*
X035321Y036363D01*
X035387Y036353D01*
X035452Y036340D01*
X035516Y036324D01*
X035579Y036304D01*
X035641Y036280D01*
X035701Y036253D01*
X035760Y036223D01*
X035817Y036189D01*
X035872Y036152D01*
X035925Y036112D01*
X035976Y036070D01*
X036024Y036024D01*
X036070Y035976D01*
X036112Y035925D01*
X036152Y035872D01*
X036189Y035817D01*
X036223Y035760D01*
X036253Y035701D01*
X036280Y035641D01*
X036304Y035579D01*
X036324Y035516D01*
X036340Y035452D01*
X036353Y035387D01*
X036363Y035321D01*
X036368Y035255D01*
X036370Y035189D01*
X036370Y022197D01*
X036370Y021804D01*
X036371Y021804D02*
X036369Y021765D01*
X036363Y021727D01*
X036354Y021690D01*
X036341Y021653D01*
X036324Y021618D01*
X036305Y021585D01*
X036282Y021554D01*
X036256Y021525D01*
X036227Y021499D01*
X036196Y021476D01*
X036163Y021457D01*
X036128Y021440D01*
X036091Y021427D01*
X036054Y021418D01*
X036016Y021412D01*
X035977Y021410D01*
X035583Y021410D01*
X035583Y021409D02*
X035529Y021407D01*
X035476Y021402D01*
X035423Y021393D01*
X035371Y021380D01*
X035319Y021364D01*
X035269Y021344D01*
X035221Y021321D01*
X035174Y021294D01*
X035129Y021265D01*
X035086Y021232D01*
X035046Y021197D01*
X035008Y021159D01*
X034973Y021119D01*
X034940Y021076D01*
X034911Y021031D01*
X034884Y020984D01*
X034861Y020936D01*
X034841Y020886D01*
X034825Y020834D01*
X034812Y020782D01*
X034803Y020729D01*
X034798Y020676D01*
X034796Y020622D01*
X034796Y015898D01*
X034798Y015844D01*
X034803Y015791D01*
X034812Y015738D01*
X034825Y015686D01*
X034841Y015634D01*
X034861Y015584D01*
X034884Y015536D01*
X034911Y015489D01*
X034940Y015444D01*
X034973Y015401D01*
X035008Y015361D01*
X035046Y015323D01*
X035086Y015288D01*
X035129Y015255D01*
X035174Y015226D01*
X035221Y015199D01*
X035269Y015176D01*
X035319Y015156D01*
X035371Y015140D01*
X035423Y015127D01*
X035476Y015118D01*
X035529Y015113D01*
X035583Y015111D01*
X035977Y015111D01*
X036016Y015109D01*
X036054Y015103D01*
X036091Y015094D01*
X036128Y015081D01*
X036163Y015064D01*
X036196Y015045D01*
X036227Y015022D01*
X036256Y014996D01*
X036282Y014967D01*
X036305Y014936D01*
X036324Y014903D01*
X036341Y014868D01*
X036354Y014831D01*
X036363Y014794D01*
X036369Y014756D01*
X036371Y014717D01*
X036370Y014717D02*
X036370Y014323D01*
X036370Y001331D01*
X036368Y001265D01*
X036363Y001199D01*
X036353Y001133D01*
X036340Y001068D01*
X036324Y001004D01*
X036304Y000941D01*
X036280Y000879D01*
X036253Y000819D01*
X036223Y000760D01*
X036189Y000703D01*
X036152Y000648D01*
X036112Y000595D01*
X036070Y000544D01*
X036024Y000496D01*
X035976Y000450D01*
X035925Y000408D01*
X035872Y000368D01*
X035817Y000331D01*
X035760Y000297D01*
X035701Y000267D01*
X035641Y000240D01*
X035579Y000216D01*
X035516Y000196D01*
X035452Y000180D01*
X035387Y000167D01*
X035321Y000157D01*
X035255Y000152D01*
X035189Y000150D01*
X001331Y000150D01*
X001265Y000152D01*
X001199Y000157D01*
X001133Y000167D01*
X001068Y000180D01*
X001004Y000196D01*
X000941Y000216D01*
X000879Y000240D01*
X000819Y000267D01*
X000760Y000297D01*
X000703Y000331D01*
X000648Y000368D01*
X000595Y000408D01*
X000544Y000450D01*
X000496Y000496D01*
X000450Y000544D01*
X000408Y000595D01*
X000368Y000648D01*
X000331Y000703D01*
X000297Y000760D01*
X000267Y000819D01*
X000240Y000879D01*
X000216Y000941D01*
X000196Y001004D01*
X000180Y001068D01*
X000167Y001133D01*
X000157Y001199D01*
X000152Y001265D01*
X000150Y001331D01*
M02*
