G75*
G70*
%OFA0B0*%
%FSLAX24Y24*%
%IPPOS*%
%LPD*%
%AMOC8*
5,1,8,0,0,1.08239X$1,22.5*
%
%ADD10R,3.6220X3.6220*%
%ADD11C,0.0556*%
%ADD12C,0.0966*%
%ADD13C,0.1084*%
%ADD14R,0.0513X0.0356*%
%ADD15C,0.0740*%
%ADD16C,0.0680*%
%ADD17C,0.0634*%
%ADD18C,0.2380*%
%ADD19C,0.0820*%
%ADD20C,0.0930*%
%ADD21C,0.0358*%
%ADD22C,0.0476*%
%ADD23C,0.0555*%
%ADD24C,0.0397*%
D10*
X018260Y018260D03*
D11*
X021650Y031650D03*
X022150Y031650D03*
X022650Y031650D03*
X023150Y031650D03*
X023650Y031650D03*
X023650Y033650D03*
X023150Y033650D03*
X022650Y033650D03*
X022150Y033650D03*
X021650Y033650D03*
D12*
X003650Y007650D03*
D13*
X004650Y006650D03*
X004650Y008650D03*
X002650Y008650D03*
X002650Y006650D03*
D14*
X020400Y006605D03*
X020400Y007195D03*
D15*
X013400Y022775D03*
X013400Y023775D03*
D16*
X032721Y023760D03*
X032721Y024760D03*
X033721Y024760D03*
X033721Y023760D03*
X033721Y022760D03*
X033721Y021760D03*
X033721Y020760D03*
X033721Y019760D03*
X033721Y018760D03*
X033721Y017760D03*
X033721Y016760D03*
X033721Y015760D03*
X033721Y014760D03*
X033721Y013760D03*
X033721Y012760D03*
X033721Y011760D03*
X033721Y010760D03*
X033721Y009760D03*
X033721Y008760D03*
X033721Y007760D03*
X033721Y006760D03*
X033721Y005760D03*
X032721Y005760D03*
X032721Y006760D03*
X032721Y007760D03*
X032721Y008760D03*
X032721Y009760D03*
X032721Y010760D03*
X032721Y011760D03*
X032721Y012760D03*
X032721Y013760D03*
X032721Y014760D03*
X032721Y015760D03*
X032721Y016760D03*
X032721Y017760D03*
X032721Y018760D03*
X032721Y019760D03*
X032721Y020760D03*
X032721Y021760D03*
X032721Y022760D03*
X032721Y025760D03*
X033721Y025760D03*
X033721Y026760D03*
X032721Y026760D03*
X032721Y027760D03*
X032721Y028760D03*
X033721Y028760D03*
X033721Y027760D03*
X033721Y029760D03*
X032721Y029760D03*
X032721Y030760D03*
X033721Y030760D03*
D17*
X019150Y029927D02*
X019150Y029373D01*
X018150Y029373D02*
X018150Y029927D01*
X017150Y029927D02*
X017150Y029373D01*
X014642Y029373D02*
X014642Y029927D01*
X013658Y029927D02*
X013658Y029373D01*
D18*
X003300Y003300D03*
X033221Y003300D03*
X033221Y033221D03*
X003300Y033221D03*
D19*
X035150Y014400D03*
X035150Y013400D03*
X035150Y012400D03*
D20*
X008150Y025650D03*
D21*
X004150Y029650D03*
X003650Y029650D03*
X003150Y029650D03*
X002650Y029650D03*
X002150Y029650D03*
X011650Y019900D03*
X012150Y019900D03*
X013775Y018525D03*
X013400Y017900D03*
X014275Y017150D03*
X014587Y016775D03*
X015150Y018150D03*
X015150Y018650D03*
X015150Y019150D03*
X015650Y019650D03*
X016150Y019650D03*
X016650Y019650D03*
X017150Y019650D03*
X015525Y021775D03*
X018775Y022400D03*
X019650Y024150D03*
X020400Y024775D03*
X020025Y025275D03*
X019525Y025775D03*
X018150Y027150D03*
X017150Y027150D03*
X015150Y027150D03*
X015150Y026650D03*
X020150Y028150D03*
X021400Y029775D03*
X023650Y028150D03*
X023650Y027650D03*
X023650Y027150D03*
X024150Y027150D03*
X024150Y027650D03*
X024150Y028150D03*
X025650Y027150D03*
X027150Y026900D03*
X027525Y026900D03*
X027525Y027400D03*
X027150Y027400D03*
X027150Y025150D03*
X027150Y024650D03*
X027650Y024650D03*
X027650Y025150D03*
X029900Y025025D03*
X029900Y024275D03*
X030775Y024275D03*
X030400Y026150D03*
X028150Y022150D03*
X028650Y021650D03*
X027150Y022150D03*
X026400Y020525D03*
X024150Y022650D03*
X024150Y023150D03*
X023650Y023150D03*
X023650Y022650D03*
X024775Y016275D03*
X025275Y016275D03*
X027900Y014400D03*
X027900Y013900D03*
X028400Y013900D03*
X028400Y014400D03*
X028400Y012400D03*
X027900Y012400D03*
X027900Y011900D03*
X028400Y011900D03*
X027650Y009150D03*
X027150Y009150D03*
X026650Y009150D03*
X026150Y009150D03*
X025650Y009150D03*
X024152Y008711D03*
X022650Y008275D03*
X022025Y008025D03*
X023650Y007150D03*
X022400Y004150D03*
X021900Y004150D03*
X021400Y004150D03*
X020900Y004150D03*
X019900Y003400D03*
X018900Y003400D03*
X017900Y003400D03*
X016900Y003400D03*
X016650Y004150D03*
X015900Y003400D03*
X014900Y003400D03*
X013900Y003400D03*
X012900Y003400D03*
X011900Y004400D03*
X011900Y005400D03*
X011900Y006400D03*
X012900Y006400D03*
X013900Y006400D03*
X014900Y006400D03*
X015900Y006400D03*
X016650Y006150D03*
X016650Y005150D03*
X018650Y004775D03*
X019025Y004775D03*
X019400Y004775D03*
X020400Y006025D03*
X018711Y008211D03*
X017150Y008650D03*
X016900Y009400D03*
X015900Y009400D03*
X014900Y009400D03*
X013900Y009400D03*
X012900Y008900D03*
X011900Y008900D03*
X010900Y008900D03*
X009900Y008900D03*
X008900Y008900D03*
X007900Y008900D03*
X006900Y008900D03*
X005900Y008900D03*
X005900Y006400D03*
X006900Y006400D03*
X007900Y006400D03*
X008900Y006400D03*
X009400Y005900D03*
X009400Y004900D03*
X009650Y003150D03*
X010400Y002525D03*
X011400Y001900D03*
X011400Y000900D03*
X010400Y000900D03*
X009400Y000900D03*
X008400Y000900D03*
X007400Y000900D03*
X006400Y000900D03*
X005400Y000900D03*
X005400Y001900D03*
X005400Y002900D03*
X005400Y003900D03*
X005400Y004900D03*
X004900Y005400D03*
X003900Y005400D03*
X002900Y005400D03*
X001900Y005400D03*
X000900Y005400D03*
X000900Y006400D03*
X000900Y007400D03*
X000900Y008400D03*
X000900Y009400D03*
X000900Y010400D03*
X000900Y011400D03*
X000900Y012400D03*
X001900Y012400D03*
X002900Y012400D03*
X003900Y012400D03*
X004900Y012400D03*
X005900Y012400D03*
X006900Y012400D03*
X007900Y012400D03*
X008900Y012400D03*
X009900Y012400D03*
X010900Y012400D03*
X011900Y012400D03*
X012900Y012400D03*
X013900Y012400D03*
X014900Y012400D03*
X015900Y012400D03*
X016900Y012400D03*
X017900Y012400D03*
X017900Y011400D03*
X017900Y010400D03*
X019650Y011650D03*
X020150Y011650D03*
X020150Y012150D03*
X021150Y012150D03*
X021150Y011650D03*
X023400Y012400D03*
X024400Y012400D03*
X025400Y012400D03*
X021525Y015400D03*
X020525Y015400D03*
X012775Y015900D03*
X011900Y015900D03*
X010650Y016775D03*
X010336Y017150D03*
X010025Y016025D03*
X008400Y015400D03*
X008400Y014900D03*
X007900Y014900D03*
X007400Y014900D03*
X007400Y015400D03*
X007900Y015400D03*
X012400Y001900D03*
X013400Y001900D03*
X013400Y000900D03*
X012400Y000900D03*
X014400Y000900D03*
X015400Y000900D03*
X015400Y001900D03*
X014400Y001900D03*
X016400Y001900D03*
X017400Y001900D03*
X017400Y000900D03*
X016400Y000900D03*
X018400Y000900D03*
X018400Y001900D03*
X019400Y001900D03*
X020400Y001900D03*
X020400Y000900D03*
X019400Y000900D03*
X021400Y000900D03*
X022400Y000900D03*
X022400Y001900D03*
X021400Y001900D03*
X023400Y001900D03*
X024400Y001900D03*
X024400Y000900D03*
X023400Y000900D03*
X025400Y000900D03*
X026400Y000900D03*
X026400Y001900D03*
X025400Y001900D03*
X027400Y001900D03*
X028400Y002900D03*
X029400Y003900D03*
X030400Y004900D03*
X031400Y004900D03*
X031400Y003900D03*
X031400Y002900D03*
X031400Y001900D03*
X031400Y000900D03*
X030400Y000900D03*
X029400Y000900D03*
X028400Y000900D03*
X027400Y000900D03*
X031400Y005900D03*
X031400Y006900D03*
X031400Y007900D03*
X031400Y008900D03*
X031400Y009900D03*
X031400Y010900D03*
X031400Y011900D03*
X027650Y008650D03*
X027650Y008150D03*
X027650Y007650D03*
X027650Y007150D03*
X027650Y006650D03*
X020461Y032275D03*
X020148Y032650D03*
X024650Y033650D03*
D22*
X018150Y021025D03*
X025525Y005775D03*
X026275Y004150D03*
D23*
X022150Y020650D03*
X017150Y021150D03*
X013150Y025650D03*
D24*
X013150Y021150D03*
X008150Y017775D03*
X016900Y015025D03*
X019400Y015775D03*
X024400Y015775D03*
X024775Y015400D03*
M02*
