%
M48
M72
T01C0.0118
T02C0.0157
T03C0.0236
T04C0.0276
T05C0.0315
T06C0.0354
T07C0.0360
T08C0.0400
T09C0.0520
T10C0.0591
T11C0.0669
T12C0.1260
%
T01
X5400Y900
X5400Y1900
X5400Y2900
X5400Y3900
X5400Y4900
X4900Y5400
X3900Y5400
X2900Y5400
X1900Y5400
X900Y5400
X900Y6400
X900Y7400
X900Y8400
X900Y9400
X900Y10400
X900Y11400
X900Y12400
X1900Y12400
X2900Y12400
X3900Y12400
X4900Y12400
X5900Y12400
X6900Y12400
X7900Y12400
X8900Y12400
X9900Y12400
X10900Y12400
X11900Y12400
X12900Y12400
X13900Y12400
X14900Y12400
X15900Y12400
X16900Y12400
X17900Y12400
X17900Y11400
X17900Y10400
X16900Y9400
X17150Y8650
X15900Y9400
X14900Y9400
X13900Y9400
X12900Y8900
X11900Y8900
X10900Y8900
X9900Y8900
X8900Y8900
X7900Y8900
X6900Y8900
X5900Y8900
X5900Y6400
X6900Y6400
X7900Y6400
X8900Y6400
X9400Y5900
X9400Y4900
X9650Y3150
X10400Y2525
X11400Y1900
X11400Y900
X10400Y900
X9400Y900
X8400Y900
X7400Y900
X6400Y900
X11900Y4400
X11900Y5400
X11900Y6400
X12900Y6400
X13900Y6400
X14900Y6400
X15900Y6400
X16650Y6150
X16650Y5150
X16650Y4150
X16900Y3400
X15900Y3400
X14900Y3400
X13900Y3400
X12900Y3400
X12400Y1900
X13400Y1900
X13400Y900
X12400Y900
X14400Y900
X15400Y900
X15400Y1900
X14400Y1900
X16400Y1900
X17400Y1900
X17400Y900
X16400Y900
X18400Y900
X18400Y1900
X19400Y1900
X20400Y1900
X20400Y900
X19400Y900
X21400Y900
X22400Y900
X22400Y1900
X21400Y1900
X19900Y3400
X20900Y4150
X21400Y4150
X21900Y4150
X22400Y4150
X20400Y6025
X19400Y4775
X19025Y4775
X18650Y4775
X18900Y3400
X17900Y3400
X18711Y8211
X22025Y8025
X22650Y8275
X23650Y7150
X24152Y8711
X25650Y9150
X26150Y9150
X26650Y9150
X27150Y9150
X27650Y9150
X27650Y8650
X27650Y8150
X27650Y7650
X27650Y7150
X27650Y6650
X30400Y4900
X31400Y4900
X31400Y3900
X31400Y2900
X31400Y1900
X31400Y900
X30400Y900
X29400Y900
X28400Y900
X27400Y900
X27400Y1900
X28400Y2900
X29400Y3900
X31400Y5900
X31400Y6900
X31400Y7900
X31400Y8900
X31400Y9900
X31400Y10900
X31400Y11900
X28400Y11900
X27900Y11900
X27900Y12400
X28400Y12400
X28400Y13900
X28400Y14400
X27900Y14400
X27900Y13900
X25400Y12400
X24400Y12400
X23400Y12400
X21150Y12150
X21150Y11650
X20150Y11650
X19650Y11650
X20150Y12150
X20525Y15400
X21525Y15400
X24775Y16275
X25275Y16275
X26400Y20525
X27150Y22150
X28150Y22150
X28650Y21650
X29900Y24275
X29900Y25025
X30775Y24275
X30400Y26150
X27650Y25150
X27650Y24650
X27150Y24650
X27150Y25150
X27150Y26900
X27525Y26900
X27525Y27400
X27150Y27400
X25650Y27150
X24150Y27150
X24150Y27650
X24150Y28150
X23650Y28150
X23650Y27650
X23650Y27150
X21400Y29775
X20150Y28150
X18150Y27150
X17150Y27150
X15150Y27150
X15150Y26650
X19525Y25775
X20025Y25275
X20400Y24775
X19650Y24150
X18775Y22400
X17150Y19650
X16650Y19650
X16150Y19650
X15650Y19650
X15150Y19150
X15150Y18650
X15150Y18150
X14275Y17150
X14587Y16775
X13400Y17900
X13775Y18525
X12150Y19900
X11650Y19900
X10336Y17150
X10650Y16775
X10025Y16025
X8400Y15400
X8400Y14900
X7900Y14900
X7400Y14900
X7400Y15400
X7900Y15400
X11900Y15900
X12775Y15900
X15525Y21775
X23650Y22650
X23650Y23150
X24150Y23150
X24150Y22650
X20461Y32275
X20148Y32650
X24650Y33650
X4150Y29650
X3650Y29650
X3150Y29650
X2650Y29650
X2150Y29650
X23400Y1900
X24400Y1900
X24400Y900
X23400Y900
X25400Y900
X26400Y900
X26400Y1900
X25400Y1900
T02
X16900Y15025
X19400Y15775
X24400Y15775
X24775Y15400
X13150Y21150
X8150Y17775
T03
X18150Y21025
X25525Y5775
X26275Y4150
T04
X23650Y31650
X23150Y31650
X22650Y31650
X22150Y31650
X21650Y31650
X21650Y33650
X22150Y33650
X22650Y33650
X23150Y33650
X23650Y33650
T05
X13150Y25650
X17150Y21150
X22150Y20650
T06
X19150Y29650
X18150Y29650
X17150Y29650
X14642Y29650
X13658Y29650
T07
X13400Y23775
X13400Y22775
T08
X32721Y22760
X32721Y21760
X32721Y20760
X32721Y19760
X32721Y18760
X32721Y17760
X32721Y16760
X32721Y15760
X32721Y14760
X32721Y13760
X32721Y12760
X32721Y11760
X32721Y10760
X32721Y9760
X32721Y8760
X32721Y7760
X32721Y6760
X32721Y5760
X33721Y5760
X33721Y6760
X33721Y7760
X33721Y8760
X33721Y9760
X33721Y10760
X33721Y11760
X33721Y12760
X33721Y13760
X33721Y14760
X33721Y15760
X33721Y16760
X33721Y17760
X33721Y18760
X33721Y19760
X33721Y20760
X33721Y21760
X33721Y22760
X33721Y23760
X33721Y24760
X32721Y24760
X32721Y23760
X32721Y25760
X33721Y25760
X33721Y26760
X32721Y26760
X32721Y27760
X32721Y28760
X33721Y28760
X33721Y27760
X33721Y29760
X32721Y29760
X32721Y30760
X33721Y30760
X35150Y14400
X35150Y13400
X35150Y12400
T09
X8150Y25650
T10
X3650Y7650
T11
X4650Y6650
X4650Y8650
X2650Y8650
X2650Y6650
T12
X3300Y3300
X33221Y3300
X33221Y33221
X3300Y33221
M30
