G75*
G70*
%OFA0B0*%
%FSLAX24Y24*%
%IPPOS*%
%LPD*%
%AMOC8*
5,1,8,0,0,1.08239X$1,22.5*
%
%ADD10C,0.1500*%
%ADD11C,0.0886*%
%ADD12C,0.1004*%
%ADD13R,0.0315X0.0433*%
%ADD14R,0.0394X0.0433*%
%ADD15R,0.2362X0.0787*%
%ADD16R,0.0787X0.2362*%
%ADD17OC8,0.0520*%
%ADD18C,0.0400*%
%ADD19C,0.0320*%
%ADD20C,0.0160*%
%ADD21C,0.0317*%
%ADD22C,0.0500*%
D10*
X023543Y026231D03*
X022151Y027623D03*
X024378Y029851D03*
X025770Y028459D03*
D11*
X030415Y016489D03*
X026183Y006548D03*
D12*
X027183Y007548D03*
X025183Y007548D03*
X025183Y005548D03*
X027183Y005548D03*
X029415Y015489D03*
X031415Y015489D03*
X031415Y017489D03*
X029415Y017489D03*
D13*
X024175Y015752D03*
X023663Y015752D03*
D14*
X023915Y017221D03*
D15*
X019785Y001528D03*
D16*
X033565Y012748D03*
X033565Y020229D03*
D17*
X023754Y004579D03*
X019754Y004579D03*
D18*
X033565Y014225D03*
X033565Y018752D03*
D19*
X033565Y020229D01*
X033565Y014225D02*
X033565Y012748D01*
D20*
X025100Y015307D02*
X025002Y015209D01*
X023722Y015209D01*
X023663Y015268D01*
X023663Y015752D01*
X023915Y017221D02*
X023919Y017221D01*
X023919Y017670D01*
D21*
X023919Y017670D03*
X025100Y015307D03*
D22*
X019785Y004579D02*
X019785Y001528D01*
X019754Y004579D02*
X019785Y004579D01*
M02*
