%
M48
M72
T01C0.0157
T02C0.0197
T03C0.0236
T04C0.0315
T05C0.0400
T06C0.0520
T07C0.0827
T08C0.1260
%
T01
X8651Y13160
X8651Y13660
X9151Y13660
X9151Y13160
X10151Y15160
X10651Y15660
X22296Y25624
X23151Y25660
X23651Y25660
X23651Y25160
X23151Y25160
X22026Y27785
X22776Y29160
X17651Y26660
X17151Y26660
X30151Y19660
X30651Y19660
X30651Y19160
X30151Y19160
X32776Y21910
X34151Y21535
X33151Y9285
X33651Y9160
X30651Y7160
X30651Y6660
X30151Y6660
X30151Y7160
X35151Y5168
X35151Y4669
T02
X22151Y10160
X19651Y13160
X19651Y14160
X18716Y14725
X22401Y18160
X19151Y19160
X12651Y12910
X12651Y11910
X10151Y20160
X9151Y20660
T03
X4363Y18024
X4363Y17532
X4363Y17040
X4363Y16548
X4363Y16056
X4363Y15564
X4363Y15071
X4363Y14579
T04
X12199Y16734
X12151Y19160
X20401Y15910
X21915Y11701
X22423Y22703
X20401Y22660
T05
X5832Y3802
X5832Y4802
X5832Y5802
X5832Y6802
X5832Y7802
X5832Y8802
X6832Y8802
X6832Y7802
X6832Y6802
X6832Y5802
X6832Y4802
X6832Y3802
X6832Y9802
X6832Y10802
X6832Y11802
X6832Y12802
X6832Y13802
X6832Y14802
X6832Y15802
X6832Y16802
X6832Y17802
X6832Y18802
X6832Y19802
X6832Y20802
X6832Y21802
X6832Y22802
X5832Y22802
X5832Y21802
X5832Y20802
X5832Y19802
X5832Y18802
X5832Y17802
X5832Y16802
X5832Y15802
X5832Y14802
X5832Y13802
X5832Y12802
X5832Y11802
X5832Y10802
X5832Y9802
X5832Y23802
X5832Y24802
X5832Y25802
X5832Y26802
X5832Y27802
X5832Y28802
X6832Y28802
X6832Y27802
X6832Y26802
X6832Y25802
X6832Y24802
X6832Y23802
T06
X11160Y25895
X11151Y8660
X11120Y6701
X17151Y6668
X21661Y6631
T07
X32316Y947
X36647Y5278
X36647Y27325
X32316Y31656
X10269Y31656
X10269Y947
T08
X6332Y1341
X36253Y1341
X36253Y31262
X6332Y31262
M30
