G75*
G70*
%OFA0B0*%
%FSLAX24Y24*%
%IPPOS*%
%LPD*%
%AMOC8*
5,1,8,0,0,1.08239X$1,22.5*
%
%ADD10R,3.4252X3.2283*%
%ADD11C,0.2380*%
%ADD12C,0.0516*%
%ADD13C,0.1655*%
%ADD14C,0.0680*%
%ADD15C,0.0930*%
%ADD16C,0.0397*%
%ADD17C,0.0437*%
%ADD18C,0.0555*%
D10*
X020308Y016302D03*
D11*
X006332Y031262D03*
X036253Y031262D03*
X036253Y001341D03*
X006332Y001341D03*
D12*
X004363Y014579D03*
X004363Y015071D03*
X004363Y015564D03*
X004363Y016056D03*
X004363Y016548D03*
X004363Y017040D03*
X004363Y017532D03*
X004363Y018024D03*
D13*
X010269Y031656D03*
X032316Y031656D03*
X036647Y027325D03*
X036647Y005278D03*
X032316Y000947D03*
X010269Y000947D03*
D14*
X005832Y003802D03*
X005832Y004802D03*
X005832Y005802D03*
X005832Y006802D03*
X005832Y007802D03*
X005832Y008802D03*
X006832Y008802D03*
X006832Y007802D03*
X006832Y006802D03*
X006832Y005802D03*
X006832Y004802D03*
X006832Y003802D03*
X006832Y009802D03*
X006832Y010802D03*
X006832Y011802D03*
X006832Y012802D03*
X006832Y013802D03*
X006832Y014802D03*
X006832Y015802D03*
X006832Y016802D03*
X006832Y017802D03*
X006832Y018802D03*
X006832Y019802D03*
X006832Y020802D03*
X006832Y021802D03*
X006832Y022802D03*
X005832Y022802D03*
X005832Y021802D03*
X005832Y020802D03*
X005832Y019802D03*
X005832Y018802D03*
X005832Y017802D03*
X005832Y016802D03*
X005832Y015802D03*
X005832Y014802D03*
X005832Y013802D03*
X005832Y012802D03*
X005832Y011802D03*
X005832Y010802D03*
X005832Y009802D03*
X005832Y023802D03*
X005832Y024802D03*
X005832Y025802D03*
X005832Y026802D03*
X005832Y027802D03*
X005832Y028802D03*
X006832Y028802D03*
X006832Y027802D03*
X006832Y026802D03*
X006832Y025802D03*
X006832Y024802D03*
X006832Y023802D03*
D15*
X011160Y025895D03*
X011151Y008660D03*
X011120Y006701D03*
X017151Y006668D03*
X021661Y006631D03*
D16*
X030151Y006660D03*
X030651Y006660D03*
X030651Y007160D03*
X030151Y007160D03*
X033151Y009285D03*
X033651Y009160D03*
X035151Y005168D03*
X035151Y004669D03*
X030651Y019160D03*
X030151Y019160D03*
X030151Y019660D03*
X030651Y019660D03*
X032776Y021910D03*
X034151Y021535D03*
X023651Y025160D03*
X023651Y025660D03*
X023151Y025660D03*
X023151Y025160D03*
X022296Y025624D03*
X022026Y027785D03*
X022776Y029160D03*
X017651Y026660D03*
X017151Y026660D03*
X010651Y015660D03*
X010151Y015160D03*
X009151Y013660D03*
X009151Y013160D03*
X008651Y013160D03*
X008651Y013660D03*
D17*
X012651Y012910D03*
X012651Y011910D03*
X018716Y014725D03*
X019651Y014160D03*
X019651Y013160D03*
X022151Y010160D03*
X022401Y018160D03*
X019151Y019160D03*
X010151Y020160D03*
X009151Y020660D03*
D18*
X012151Y019160D03*
X012199Y016734D03*
X020401Y015910D03*
X021915Y011701D03*
X022423Y022703D03*
X020401Y022660D03*
M02*
