G75*
G70*
%OFA0B0*%
%FSLAX24Y24*%
%IPPOS*%
%LPD*%
%AMOC8*
5,1,8,0,0,1.08239X$1,22.5*
%
%ADD10C,0.0000*%
D10*
X005151Y001341D02*
X005151Y006066D01*
X005151Y009215D01*
X005150Y009215D02*
X005148Y009269D01*
X005143Y009322D01*
X005134Y009375D01*
X005121Y009427D01*
X005105Y009479D01*
X005085Y009529D01*
X005062Y009577D01*
X005035Y009624D01*
X005006Y009669D01*
X004973Y009712D01*
X004938Y009752D01*
X004900Y009790D01*
X004860Y009825D01*
X004817Y009858D01*
X004772Y009887D01*
X004725Y009914D01*
X004677Y009937D01*
X004627Y009957D01*
X004575Y009973D01*
X004523Y009986D01*
X004470Y009995D01*
X004417Y010000D01*
X004363Y010002D01*
X004363Y010003D02*
X004297Y010005D01*
X004231Y010010D01*
X004165Y010020D01*
X004100Y010033D01*
X004036Y010049D01*
X003973Y010069D01*
X003911Y010093D01*
X003851Y010120D01*
X003792Y010150D01*
X003735Y010184D01*
X003680Y010221D01*
X003627Y010261D01*
X003576Y010303D01*
X003528Y010349D01*
X003482Y010397D01*
X003440Y010448D01*
X003400Y010501D01*
X003363Y010556D01*
X003329Y010613D01*
X003299Y010672D01*
X003272Y010732D01*
X003248Y010794D01*
X003228Y010857D01*
X003212Y010921D01*
X003199Y010986D01*
X003189Y011052D01*
X003184Y011118D01*
X003182Y011184D01*
X003182Y021420D01*
X003184Y021486D01*
X003189Y021552D01*
X003199Y021618D01*
X003212Y021683D01*
X003228Y021747D01*
X003248Y021810D01*
X003272Y021872D01*
X003299Y021932D01*
X003329Y021991D01*
X003363Y022048D01*
X003400Y022103D01*
X003440Y022156D01*
X003482Y022207D01*
X003528Y022255D01*
X003576Y022301D01*
X003627Y022343D01*
X003680Y022383D01*
X003735Y022420D01*
X003792Y022454D01*
X003851Y022484D01*
X003911Y022511D01*
X003973Y022535D01*
X004036Y022555D01*
X004100Y022571D01*
X004165Y022584D01*
X004231Y022594D01*
X004297Y022599D01*
X004363Y022601D01*
X004417Y022603D01*
X004470Y022608D01*
X004523Y022617D01*
X004575Y022630D01*
X004627Y022646D01*
X004677Y022666D01*
X004725Y022689D01*
X004772Y022716D01*
X004817Y022745D01*
X004860Y022778D01*
X004900Y022813D01*
X004938Y022851D01*
X004973Y022891D01*
X005006Y022934D01*
X005035Y022979D01*
X005062Y023026D01*
X005085Y023074D01*
X005105Y023124D01*
X005121Y023176D01*
X005134Y023228D01*
X005143Y023281D01*
X005148Y023334D01*
X005150Y023388D01*
X005151Y023388D02*
X005151Y031262D01*
X005153Y031328D01*
X005158Y031394D01*
X005168Y031460D01*
X005181Y031525D01*
X005197Y031589D01*
X005217Y031652D01*
X005241Y031714D01*
X005268Y031774D01*
X005298Y031833D01*
X005332Y031890D01*
X005369Y031945D01*
X005409Y031998D01*
X005451Y032049D01*
X005497Y032097D01*
X005545Y032143D01*
X005596Y032185D01*
X005649Y032225D01*
X005704Y032262D01*
X005761Y032296D01*
X005820Y032326D01*
X005880Y032353D01*
X005942Y032377D01*
X006005Y032397D01*
X006069Y032413D01*
X006134Y032426D01*
X006200Y032436D01*
X006266Y032441D01*
X006332Y032443D01*
X011056Y032443D01*
X011056Y031656D01*
X011058Y031590D01*
X011063Y031524D01*
X011073Y031458D01*
X011086Y031393D01*
X011102Y031329D01*
X011122Y031266D01*
X011146Y031204D01*
X011173Y031144D01*
X011203Y031085D01*
X011237Y031028D01*
X011274Y030973D01*
X011314Y030920D01*
X011356Y030869D01*
X011402Y030821D01*
X011450Y030775D01*
X011501Y030733D01*
X011554Y030693D01*
X011609Y030656D01*
X011666Y030622D01*
X011725Y030592D01*
X011785Y030565D01*
X011847Y030541D01*
X011910Y030521D01*
X011974Y030505D01*
X012039Y030492D01*
X012105Y030482D01*
X012171Y030477D01*
X012237Y030475D01*
X030348Y030475D01*
X030414Y030477D01*
X030480Y030482D01*
X030546Y030492D01*
X030611Y030505D01*
X030675Y030521D01*
X030738Y030541D01*
X030800Y030565D01*
X030860Y030592D01*
X030919Y030622D01*
X030976Y030656D01*
X031031Y030693D01*
X031084Y030733D01*
X031135Y030775D01*
X031183Y030821D01*
X031229Y030869D01*
X031271Y030920D01*
X031311Y030973D01*
X031348Y031028D01*
X031382Y031085D01*
X031412Y031144D01*
X031439Y031204D01*
X031463Y031266D01*
X031483Y031329D01*
X031499Y031393D01*
X031512Y031458D01*
X031522Y031524D01*
X031527Y031590D01*
X031529Y031656D01*
X031529Y032443D01*
X036253Y032443D01*
X036319Y032441D01*
X036385Y032436D01*
X036451Y032426D01*
X036516Y032413D01*
X036580Y032397D01*
X036643Y032377D01*
X036705Y032353D01*
X036765Y032326D01*
X036824Y032296D01*
X036881Y032262D01*
X036936Y032225D01*
X036989Y032185D01*
X037040Y032143D01*
X037088Y032097D01*
X037134Y032049D01*
X037176Y031998D01*
X037216Y031945D01*
X037253Y031890D01*
X037287Y031833D01*
X037317Y031774D01*
X037344Y031714D01*
X037368Y031652D01*
X037388Y031589D01*
X037404Y031525D01*
X037417Y031460D01*
X037427Y031394D01*
X037432Y031328D01*
X037434Y031262D01*
X037434Y026538D01*
X036647Y026538D01*
X036581Y026536D01*
X036515Y026531D01*
X036449Y026521D01*
X036384Y026508D01*
X036320Y026492D01*
X036257Y026472D01*
X036195Y026448D01*
X036135Y026421D01*
X036076Y026391D01*
X036019Y026357D01*
X035964Y026320D01*
X035911Y026280D01*
X035860Y026238D01*
X035812Y026192D01*
X035766Y026144D01*
X035724Y026093D01*
X035684Y026040D01*
X035647Y025985D01*
X035613Y025928D01*
X035583Y025869D01*
X035556Y025809D01*
X035532Y025747D01*
X035512Y025684D01*
X035496Y025620D01*
X035483Y025555D01*
X035473Y025489D01*
X035468Y025423D01*
X035466Y025357D01*
X035466Y007247D01*
X035468Y007181D01*
X035473Y007115D01*
X035483Y007049D01*
X035496Y006984D01*
X035512Y006920D01*
X035532Y006857D01*
X035556Y006795D01*
X035583Y006735D01*
X035613Y006676D01*
X035647Y006619D01*
X035684Y006564D01*
X035724Y006511D01*
X035766Y006460D01*
X035812Y006412D01*
X035860Y006366D01*
X035911Y006324D01*
X035964Y006284D01*
X036019Y006247D01*
X036076Y006213D01*
X036135Y006183D01*
X036195Y006156D01*
X036257Y006132D01*
X036320Y006112D01*
X036384Y006096D01*
X036449Y006083D01*
X036515Y006073D01*
X036581Y006068D01*
X036647Y006066D01*
X037434Y006066D01*
X037434Y001341D01*
X037432Y001275D01*
X037427Y001209D01*
X037417Y001143D01*
X037404Y001078D01*
X037388Y001014D01*
X037368Y000951D01*
X037344Y000889D01*
X037317Y000829D01*
X037287Y000770D01*
X037253Y000713D01*
X037216Y000658D01*
X037176Y000605D01*
X037134Y000554D01*
X037088Y000506D01*
X037040Y000460D01*
X036989Y000418D01*
X036936Y000378D01*
X036881Y000341D01*
X036824Y000307D01*
X036765Y000277D01*
X036705Y000250D01*
X036643Y000226D01*
X036580Y000206D01*
X036516Y000190D01*
X036451Y000177D01*
X036385Y000167D01*
X036319Y000162D01*
X036253Y000160D01*
X031529Y000160D01*
X031529Y000947D01*
X031527Y001013D01*
X031522Y001079D01*
X031512Y001145D01*
X031499Y001210D01*
X031483Y001274D01*
X031463Y001337D01*
X031439Y001399D01*
X031412Y001459D01*
X031382Y001518D01*
X031348Y001575D01*
X031311Y001630D01*
X031271Y001683D01*
X031229Y001734D01*
X031183Y001782D01*
X031135Y001828D01*
X031084Y001870D01*
X031031Y001910D01*
X030976Y001947D01*
X030919Y001981D01*
X030860Y002011D01*
X030800Y002038D01*
X030738Y002062D01*
X030675Y002082D01*
X030611Y002098D01*
X030546Y002111D01*
X030480Y002121D01*
X030414Y002126D01*
X030348Y002128D01*
X030348Y002129D02*
X012237Y002129D01*
X012237Y002128D02*
X012171Y002126D01*
X012105Y002121D01*
X012039Y002111D01*
X011974Y002098D01*
X011910Y002082D01*
X011847Y002062D01*
X011785Y002038D01*
X011725Y002011D01*
X011666Y001981D01*
X011609Y001947D01*
X011554Y001910D01*
X011501Y001870D01*
X011450Y001828D01*
X011402Y001782D01*
X011356Y001734D01*
X011314Y001683D01*
X011274Y001630D01*
X011237Y001575D01*
X011203Y001518D01*
X011173Y001459D01*
X011146Y001399D01*
X011122Y001337D01*
X011102Y001274D01*
X011086Y001210D01*
X011073Y001145D01*
X011063Y001079D01*
X011058Y001013D01*
X011056Y000947D01*
X011056Y000160D01*
X006332Y000160D01*
X006266Y000162D01*
X006200Y000167D01*
X006134Y000177D01*
X006069Y000190D01*
X006005Y000206D01*
X005942Y000226D01*
X005880Y000250D01*
X005820Y000277D01*
X005761Y000307D01*
X005704Y000341D01*
X005649Y000378D01*
X005596Y000418D01*
X005545Y000460D01*
X005497Y000506D01*
X005451Y000554D01*
X005409Y000605D01*
X005369Y000658D01*
X005332Y000713D01*
X005298Y000770D01*
X005268Y000829D01*
X005241Y000889D01*
X005217Y000951D01*
X005197Y001014D01*
X005181Y001078D01*
X005168Y001143D01*
X005158Y001209D01*
X005153Y001275D01*
X005151Y001341D01*
M02*
