G75*
G70*
%OFA0B0*%
%FSLAX24Y24*%
%IPPOS*%
%LPD*%
%AMOC8*
5,1,8,0,0,1.08239X$1,22.5*
%
%ADD10C,0.0060*%
%ADD11C,0.0200*%
%ADD12R,0.0513X0.0356*%
%ADD13R,0.0552X0.0237*%
%ADD14R,0.0356X0.0513*%
%ADD15R,0.0552X0.0218*%
%ADD16R,0.0340X0.0880*%
%ADD17R,0.0336X0.0946*%
%ADD18R,0.0297X0.0552*%
%ADD19C,0.2380*%
%ADD20C,0.0860*%
%ADD21C,0.0740*%
%ADD22R,0.0007X0.0344*%
%ADD23R,0.0007X0.0351*%
%ADD24R,0.0007X0.0344*%
%ADD25R,0.0007X0.0344*%
%ADD26R,0.0007X0.0351*%
%ADD27R,0.0007X0.0351*%
%ADD28R,0.0007X0.0344*%
%ADD29R,0.0007X0.0344*%
%ADD30R,0.0007X0.0344*%
%ADD31R,0.0007X0.0351*%
%ADD32R,0.0007X0.0344*%
%ADD33R,0.0007X0.0351*%
%ADD34R,0.0007X0.0066*%
%ADD35R,0.0007X0.0124*%
%ADD36R,0.0007X0.0154*%
%ADD37R,0.0007X0.0183*%
%ADD38R,0.0007X0.0205*%
%ADD39R,0.0007X0.0227*%
%ADD40R,0.0007X0.0051*%
%ADD41R,0.0007X0.0241*%
%ADD42R,0.0007X0.0095*%
%ADD43R,0.0007X0.0110*%
%ADD44R,0.0007X0.0110*%
%ADD45R,0.0007X0.0102*%
%ADD46R,0.0007X0.0088*%
%ADD47R,0.0007X0.0256*%
%ADD48R,0.0007X0.0278*%
%ADD49R,0.0007X0.0197*%
%ADD50R,0.0007X0.0219*%
%ADD51R,0.0007X0.0212*%
%ADD52R,0.0007X0.0175*%
%ADD53R,0.0007X0.0168*%
%ADD54R,0.0007X0.0271*%
%ADD55R,0.0007X0.0336*%
%ADD56R,0.0007X0.0249*%
%ADD57R,0.0007X0.0278*%
%ADD58R,0.0007X0.0256*%
%ADD59R,0.0007X0.0219*%
%ADD60R,0.0007X0.0227*%
%ADD61R,0.0007X0.0285*%
%ADD62R,0.0007X0.0380*%
%ADD63R,0.0007X0.0292*%
%ADD64R,0.0007X0.0336*%
%ADD65R,0.0007X0.0300*%
%ADD66R,0.0007X0.0336*%
%ADD67R,0.0007X0.0329*%
%ADD68R,0.0007X0.0263*%
%ADD69R,0.0007X0.0300*%
%ADD70R,0.0007X0.0424*%
%ADD71R,0.0007X0.0307*%
%ADD72R,0.0007X0.0307*%
%ADD73R,0.0007X0.0373*%
%ADD74R,0.0007X0.0373*%
%ADD75R,0.0007X0.0468*%
%ADD76R,0.0007X0.0366*%
%ADD77R,0.0007X0.0307*%
%ADD78R,0.0007X0.0417*%
%ADD79R,0.0007X0.0307*%
%ADD80R,0.0007X0.0409*%
%ADD81R,0.0007X0.0329*%
%ADD82R,0.0007X0.0329*%
%ADD83R,0.0007X0.0322*%
%ADD84R,0.0007X0.0497*%
%ADD85R,0.0007X0.0402*%
%ADD86R,0.0007X0.0446*%
%ADD87R,0.0007X0.0395*%
%ADD88R,0.0007X0.0358*%
%ADD89R,0.0007X0.0358*%
%ADD90R,0.0007X0.0439*%
%ADD91R,0.0007X0.0526*%
%ADD92R,0.0007X0.0431*%
%ADD93R,0.0007X0.0307*%
%ADD94R,0.0007X0.0475*%
%ADD95R,0.0007X0.0307*%
%ADD96R,0.0007X0.0424*%
%ADD97R,0.0007X0.0475*%
%ADD98R,0.0007X0.0329*%
%ADD99R,0.0007X0.0380*%
%ADD100R,0.0007X0.0314*%
%ADD101R,0.0007X0.0483*%
%ADD102R,0.0007X0.0336*%
%ADD103R,0.0007X0.0556*%
%ADD104R,0.0007X0.0504*%
%ADD105R,0.0007X0.0314*%
%ADD106R,0.0007X0.0504*%
%ADD107R,0.0007X0.0402*%
%ADD108R,0.0007X0.0585*%
%ADD109R,0.0007X0.0453*%
%ADD110R,0.0007X0.0526*%
%ADD111R,0.0007X0.0453*%
%ADD112R,0.0007X0.0526*%
%ADD113R,0.0007X0.0424*%
%ADD114R,0.0007X0.0614*%
%ADD115R,0.0007X0.0468*%
%ADD116R,0.0007X0.0556*%
%ADD117R,0.0007X0.0636*%
%ADD118R,0.0007X0.0475*%
%ADD119R,0.0007X0.0570*%
%ADD120R,0.0007X0.0475*%
%ADD121R,0.0007X0.0578*%
%ADD122R,0.0007X0.0461*%
%ADD123R,0.0007X0.0366*%
%ADD124R,0.0007X0.0658*%
%ADD125R,0.0007X0.0483*%
%ADD126R,0.0007X0.0600*%
%ADD127R,0.0007X0.0483*%
%ADD128R,0.0007X0.0599*%
%ADD129R,0.0007X0.0680*%
%ADD130R,0.0007X0.0490*%
%ADD131R,0.0007X0.0614*%
%ADD132R,0.0007X0.0621*%
%ADD133R,0.0007X0.0702*%
%ADD134R,0.0007X0.0504*%
%ADD135R,0.0007X0.0629*%
%ADD136R,0.0007X0.0497*%
%ADD137R,0.0007X0.0636*%
%ADD138R,0.0007X0.0504*%
%ADD139R,0.0007X0.0373*%
%ADD140R,0.0007X0.0724*%
%ADD141R,0.0007X0.0512*%
%ADD142R,0.0007X0.0651*%
%ADD143R,0.0007X0.0314*%
%ADD144R,0.0007X0.0651*%
%ADD145R,0.0007X0.0519*%
%ADD146R,0.0007X0.0519*%
%ADD147R,0.0007X0.0738*%
%ADD148R,0.0007X0.0665*%
%ADD149R,0.0007X0.0665*%
%ADD150R,0.0007X0.0760*%
%ADD151R,0.0007X0.0848*%
%ADD152R,0.0007X0.0387*%
%ADD153R,0.0007X0.0782*%
%ADD154R,0.0007X0.0534*%
%ADD155R,0.0007X0.0695*%
%ADD156R,0.0007X0.0855*%
%ADD157R,0.0007X0.0395*%
%ADD158R,0.0007X0.0797*%
%ADD159R,0.0007X0.0541*%
%ADD160R,0.0007X0.0709*%
%ADD161R,0.0007X0.0709*%
%ADD162R,0.0007X0.0673*%
%ADD163R,0.0007X0.0329*%
%ADD164R,0.0007X0.0863*%
%ADD165R,0.0007X0.0863*%
%ADD166R,0.0007X0.0812*%
%ADD167R,0.0007X0.0548*%
%ADD168R,0.0007X0.0716*%
%ADD169R,0.0007X0.0548*%
%ADD170R,0.0007X0.0716*%
%ADD171R,0.0007X0.0673*%
%ADD172R,0.0007X0.0870*%
%ADD173R,0.0007X0.0388*%
%ADD174R,0.0007X0.0826*%
%ADD175R,0.0007X0.0731*%
%ADD176R,0.0007X0.0877*%
%ADD177R,0.0007X0.0563*%
%ADD178R,0.0007X0.0746*%
%ADD179R,0.0007X0.0746*%
%ADD180R,0.0007X0.0885*%
%ADD181R,0.0007X0.0833*%
%ADD182R,0.0007X0.0570*%
%ADD183R,0.0007X0.0753*%
%ADD184R,0.0007X0.0768*%
%ADD185R,0.0007X0.0892*%
%ADD186R,0.0007X0.0892*%
%ADD187R,0.0007X0.0833*%
%ADD188R,0.0007X0.0578*%
%ADD189R,0.0007X0.0775*%
%ADD190R,0.0007X0.0578*%
%ADD191R,0.0007X0.0782*%
%ADD192R,0.0007X0.0673*%
%ADD193R,0.0007X0.0892*%
%ADD194R,0.0007X0.0899*%
%ADD195R,0.0007X0.0366*%
%ADD196R,0.0007X0.0395*%
%ADD197R,0.0007X0.0833*%
%ADD198R,0.0007X0.0782*%
%ADD199R,0.0007X0.0907*%
%ADD200R,0.0007X0.0899*%
%ADD201R,0.0007X0.0380*%
%ADD202R,0.0007X0.0841*%
%ADD203R,0.0007X0.0804*%
%ADD204R,0.0007X0.0592*%
%ADD205R,0.0007X0.0914*%
%ADD206R,0.0007X0.0680*%
%ADD207R,0.0007X0.0607*%
%ADD208R,0.0007X0.0819*%
%ADD209R,0.0007X0.0921*%
%ADD210R,0.0007X0.0841*%
%ADD211R,0.0007X0.0409*%
%ADD212R,0.0007X0.0833*%
%ADD213R,0.0007X0.0607*%
%ADD214R,0.0007X0.0307*%
%ADD215R,0.0007X0.0833*%
%ADD216R,0.0007X0.0307*%
%ADD217R,0.0007X0.0614*%
%ADD218R,0.0007X0.0673*%
%ADD219R,0.0007X0.0336*%
%ADD220R,0.0007X0.0921*%
%ADD221R,0.0007X0.0929*%
%ADD222R,0.0007X0.0417*%
%ADD223R,0.0007X0.0373*%
%ADD224R,0.0007X0.0936*%
%ADD225R,0.0007X0.0929*%
%ADD226R,0.0007X0.0431*%
%ADD227R,0.0007X0.0629*%
%ADD228R,0.0007X0.0936*%
%ADD229R,0.0007X0.0205*%
%ADD230R,0.0007X0.0943*%
%ADD231R,0.0007X0.0183*%
%ADD232R,0.0007X0.0139*%
%ADD233R,0.0007X0.0322*%
%ADD234R,0.0007X0.0146*%
%ADD235R,0.0007X0.0322*%
%ADD236R,0.0007X0.0161*%
%ADD237R,0.0007X0.0950*%
%ADD238R,0.0007X0.0102*%
%ADD239R,0.0007X0.0080*%
%ADD240R,0.0007X0.0409*%
%ADD241R,0.0007X0.0080*%
%ADD242R,0.0007X0.0958*%
%ADD243R,0.0007X0.0066*%
%ADD244R,0.0007X0.0446*%
%ADD245R,0.0007X0.0059*%
%ADD246R,0.0007X0.0417*%
%ADD247R,0.0007X0.0285*%
%ADD248R,0.0007X0.0417*%
%ADD249R,0.0007X0.0380*%
%ADD250R,0.0007X0.0044*%
%ADD251R,0.0007X0.0307*%
%ADD252R,0.0007X0.0314*%
%ADD253R,0.0007X0.0307*%
%ADD254R,0.0007X0.0380*%
%ADD255R,0.0007X0.0044*%
%ADD256R,0.0007X0.0329*%
%ADD257R,0.0007X0.0387*%
%ADD258R,0.0007X0.0402*%
%ADD259R,0.0007X0.0395*%
%ADD260R,0.0007X0.0402*%
%ADD261R,0.0007X0.0497*%
%ADD262R,0.0007X0.0292*%
%ADD263R,0.0007X0.0256*%
%ADD264R,0.0007X0.0029*%
%ADD265R,0.0007X0.0058*%
%ADD266R,0.0007X0.0497*%
%ADD267R,0.0007X0.0285*%
%ADD268R,0.0007X0.0022*%
%ADD269R,0.0007X0.0044*%
%ADD270R,0.0007X0.0015*%
%ADD271R,0.0007X0.0015*%
%ADD272R,0.0007X0.0249*%
%ADD273R,0.0007X0.0234*%
%ADD274R,0.0007X0.0161*%
%ADD275R,0.0007X0.0190*%
%ADD276R,0.0007X0.0139*%
%ADD277R,0.0007X0.0336*%
%ADD278R,0.0007X0.0300*%
%ADD279R,0.0007X0.0336*%
%ADD280R,0.0007X0.0556*%
%ADD281R,0.0007X0.0124*%
%ADD282R,0.0007X0.0117*%
%ADD283R,0.0007X0.0578*%
%ADD284R,0.0007X0.0073*%
%ADD285R,0.0007X0.0044*%
%ADD286R,0.0007X0.0037*%
%ADD287R,0.0007X0.0007*%
%ADD288R,0.0007X0.0322*%
%ADD289R,0.0007X0.0936*%
%ADD290R,0.0007X0.0322*%
%ADD291R,0.0007X0.0563*%
%ADD292R,0.0007X0.0329*%
%ADD293R,0.0007X0.0314*%
%ADD294R,0.0007X0.0300*%
%ADD295R,0.0007X0.0636*%
%ADD296R,0.0007X0.0643*%
%ADD297R,0.0007X0.0592*%
%ADD298R,0.0007X0.0314*%
%ADD299R,0.0007X0.0936*%
%ADD300R,0.0007X0.0936*%
%ADD301R,0.0007X0.0599*%
%ADD302R,0.0007X0.0322*%
%ADD303R,0.0007X0.0292*%
%ADD304R,0.0007X0.0680*%
%ADD305R,0.0007X0.0431*%
%ADD306R,0.0007X0.0687*%
%ADD307R,0.0007X0.0497*%
%ADD308R,0.0007X0.0929*%
%ADD309R,0.0007X0.0556*%
%ADD310R,0.0007X0.0687*%
%ADD311R,0.0007X0.0541*%
%ADD312R,0.0007X0.0921*%
%ADD313R,0.0007X0.0687*%
%ADD314R,0.0007X0.0636*%
%ADD315R,0.0007X0.0914*%
%ADD316R,0.0007X0.0322*%
%ADD317R,0.0007X0.0314*%
%ADD318R,0.0007X0.0431*%
%ADD319R,0.0007X0.0687*%
%ADD320R,0.0007X0.0329*%
%ADD321R,0.0007X0.0007*%
%ADD322R,0.0007X0.0022*%
%ADD323R,0.0007X0.0695*%
%ADD324R,0.0007X0.0037*%
%ADD325R,0.0007X0.0278*%
%ADD326R,0.0007X0.0724*%
%ADD327R,0.0007X0.0409*%
%ADD328R,0.0007X0.0088*%
%ADD329R,0.0007X0.0278*%
%ADD330R,0.0007X0.0358*%
%ADD331R,0.0007X0.0088*%
%ADD332R,0.0007X0.0300*%
%ADD333R,0.0007X0.0680*%
%ADD334R,0.0007X0.0958*%
%ADD335R,0.0007X0.0366*%
%ADD336R,0.0007X0.0570*%
%ADD337R,0.0007X0.0950*%
%ADD338R,0.0007X0.0351*%
%ADD339R,0.0007X0.0285*%
%ADD340R,0.0007X0.0117*%
%ADD341R,0.0007X0.0724*%
%ADD342R,0.0007X0.0417*%
%ADD343R,0.0007X0.0885*%
%ADD344R,0.0007X0.0629*%
%ADD345R,0.0007X0.0029*%
%ADD346R,0.0007X0.0943*%
%ADD347R,0.0007X0.0621*%
%ADD348R,0.0007X0.0716*%
%ADD349R,0.0007X0.0607*%
%ADD350R,0.0007X0.0351*%
%ADD351R,0.0007X0.0877*%
%ADD352R,0.0007X0.0570*%
%ADD353R,0.0007X0.0929*%
%ADD354R,0.0007X0.0702*%
%ADD355R,0.0007X0.0914*%
%ADD356R,0.0007X0.0870*%
%ADD357R,0.0007X0.0775*%
%ADD358R,0.0007X0.0775*%
%ADD359R,0.0007X0.0907*%
%ADD360R,0.0007X0.0768*%
%ADD361R,0.0007X0.0673*%
%ADD362R,0.0007X0.0578*%
%ADD363R,0.0007X0.0760*%
%ADD364R,0.0007X0.0863*%
%ADD365R,0.0007X0.0570*%
%ADD366R,0.0007X0.0899*%
%ADD367R,0.0007X0.0658*%
%ADD368R,0.0007X0.0570*%
%ADD369R,0.0007X0.0746*%
%ADD370R,0.0007X0.0855*%
%ADD371R,0.0007X0.0687*%
%ADD372R,0.0007X0.0892*%
%ADD373R,0.0007X0.0863*%
%ADD374R,0.0007X0.0578*%
%ADD375R,0.0007X0.0899*%
%ADD376R,0.0007X0.0651*%
%ADD377R,0.0007X0.0738*%
%ADD378R,0.0007X0.0855*%
%ADD379R,0.0007X0.0738*%
%ADD380R,0.0007X0.0885*%
%ADD381R,0.0007X0.0892*%
%ADD382R,0.0007X0.0570*%
%ADD383R,0.0007X0.0636*%
%ADD384R,0.0007X0.0556*%
%ADD385R,0.0007X0.0724*%
%ADD386R,0.0007X0.0724*%
%ADD387R,0.0007X0.0885*%
%ADD388R,0.0007X0.0621*%
%ADD389R,0.0007X0.0548*%
%ADD390R,0.0007X0.0716*%
%ADD391R,0.0007X0.0548*%
%ADD392R,0.0007X0.0716*%
%ADD393R,0.0007X0.0570*%
%ADD394R,0.0007X0.0870*%
%ADD395R,0.0007X0.0848*%
%ADD396R,0.0007X0.0877*%
%ADD397R,0.0007X0.0351*%
%ADD398R,0.0007X0.0541*%
%ADD399R,0.0007X0.0848*%
%ADD400R,0.0007X0.0702*%
%ADD401R,0.0007X0.0563*%
%ADD402R,0.0007X0.0841*%
%ADD403R,0.0007X0.0870*%
%ADD404R,0.0007X0.0592*%
%ADD405R,0.0007X0.0534*%
%ADD406R,0.0007X0.0841*%
%ADD407R,0.0007X0.0680*%
%ADD408R,0.0007X0.0870*%
%ADD409R,0.0007X0.0863*%
%ADD410R,0.0007X0.0534*%
%ADD411R,0.0007X0.0673*%
%ADD412R,0.0007X0.0519*%
%ADD413R,0.0007X0.0526*%
%ADD414R,0.0007X0.0563*%
%ADD415R,0.0007X0.0548*%
%ADD416R,0.0007X0.0526*%
%ADD417R,0.0007X0.0665*%
%ADD418R,0.0007X0.0512*%
%ADD419R,0.0007X0.0526*%
%ADD420R,0.0007X0.0556*%
%ADD421R,0.0007X0.0848*%
%ADD422R,0.0007X0.0578*%
%ADD423R,0.0007X0.0855*%
%ADD424R,0.0007X0.0563*%
%ADD425R,0.0007X0.0534*%
%ADD426R,0.0007X0.0519*%
%ADD427R,0.0007X0.0651*%
%ADD428R,0.0007X0.0504*%
%ADD429R,0.0007X0.0519*%
%ADD430R,0.0007X0.0556*%
%ADD431R,0.0007X0.0841*%
%ADD432R,0.0007X0.0578*%
%ADD433R,0.0007X0.0848*%
%ADD434R,0.0007X0.0563*%
%ADD435R,0.0007X0.0351*%
%ADD436R,0.0007X0.0453*%
%ADD437R,0.0007X0.0475*%
%ADD438R,0.0007X0.0461*%
%ADD439R,0.0007X0.0475*%
%ADD440R,0.0007X0.0541*%
%ADD441R,0.0007X0.0329*%
%ADD442R,0.0007X0.0483*%
%ADD443R,0.0007X0.0453*%
%ADD444R,0.0007X0.0358*%
%ADD445R,0.0007X0.0439*%
%ADD446R,0.0007X0.0475*%
%ADD447R,0.0007X0.0446*%
%ADD448R,0.0007X0.0468*%
%ADD449R,0.0007X0.0329*%
%ADD450R,0.0007X0.0570*%
%ADD451R,0.0007X0.0541*%
%ADD452R,0.0007X0.0351*%
%ADD453R,0.0007X0.0424*%
%ADD454R,0.0007X0.0534*%
%ADD455R,0.0007X0.0424*%
%ADD456R,0.0007X0.0446*%
%ADD457R,0.0007X0.0446*%
%ADD458R,0.0007X0.0512*%
%ADD459R,0.0007X0.0446*%
%ADD460R,0.0007X0.0424*%
%ADD461R,0.0007X0.0578*%
%ADD462R,0.0007X0.0431*%
%ADD463R,0.0007X0.0358*%
%ADD464R,0.0007X0.0387*%
%ADD465R,0.0007X0.0439*%
%ADD466R,0.0007X0.0490*%
%ADD467R,0.0007X0.0512*%
%ADD468R,0.0007X0.0402*%
%ADD469R,0.0007X0.0409*%
%ADD470R,0.0007X0.0380*%
%ADD471R,0.0007X0.0380*%
%ADD472R,0.0007X0.0483*%
%ADD473R,0.0007X0.0387*%
%ADD474R,0.0007X0.0373*%
%ADD475R,0.0007X0.0431*%
%ADD476R,0.0007X0.0358*%
%ADD477R,0.0007X0.0453*%
%ADD478R,0.0007X0.0402*%
%ADD479R,0.0007X0.0358*%
%ADD480R,0.0007X0.0417*%
%ADD481R,0.0007X0.0300*%
%ADD482R,0.0007X0.0271*%
%ADD483R,0.0007X0.0285*%
%ADD484R,0.0007X0.0263*%
%ADD485R,0.0007X0.0241*%
%ADD486R,0.0007X0.0271*%
%ADD487R,0.0007X0.0227*%
%ADD488R,0.0007X0.0234*%
%ADD489R,0.0007X0.0219*%
%ADD490R,0.0007X0.0183*%
%ADD491R,0.0007X0.0205*%
%ADD492R,0.0007X0.0175*%
%ADD493R,0.0007X0.0205*%
%ADD494R,0.0007X0.0168*%
%ADD495R,0.0007X0.0073*%
%ADD496R,0.0007X0.0336*%
%ADD497R,0.0007X0.0015*%
%ADD498R,0.0007X0.0022*%
%ADD499R,0.0007X0.0037*%
%ADD500R,0.0007X0.0044*%
%ADD501R,0.0007X0.0059*%
%ADD502R,0.0007X0.0073*%
%ADD503R,0.0007X0.0366*%
%ADD504R,0.0007X0.0102*%
%ADD505R,0.0007X0.0724*%
%ADD506R,0.0007X0.0117*%
%ADD507R,0.0007X0.0716*%
%ADD508R,0.0007X0.0168*%
%ADD509R,0.0007X0.0190*%
%ADD510R,0.0007X0.0234*%
%ADD511R,0.0007X0.0051*%
%ADD512R,0.0007X0.0724*%
%ADD513R,0.0007X0.0110*%
%ADD514R,0.0007X0.0110*%
%ADD515R,0.0007X0.0139*%
%ADD516R,0.0007X0.0190*%
%ADD517R,0.0007X0.0724*%
%ADD518R,0.0007X0.0205*%
%ADD519R,0.0007X0.0716*%
%ADD520R,0.0007X0.0219*%
%ADD521R,0.0007X0.0241*%
%ADD522R,0.0007X0.0256*%
%ADD523R,0.0007X0.0263*%
%ADD524R,0.0007X0.0263*%
%ADD525R,0.0007X0.0724*%
%ADD526R,0.0007X0.0724*%
%ADD527R,0.0007X0.0271*%
%ADD528R,0.0007X0.0716*%
%ADD529R,0.0007X0.0716*%
%ADD530R,0.0007X0.0336*%
%ADD531R,0.0007X0.0336*%
%ADD532R,0.0007X0.0716*%
%ADD533R,0.0007X0.0702*%
%ADD534R,0.0007X0.0344*%
%ADD535R,0.0007X0.0702*%
%ADD536R,0.0007X0.0695*%
%ADD537R,0.0007X0.0344*%
%ADD538R,0.0007X0.0665*%
%ADD539R,0.0007X0.0643*%
%ADD540R,0.0007X0.0629*%
%ADD541R,0.0007X0.0600*%
%ADD542R,0.0007X0.0548*%
%ADD543R,0.0007X0.0490*%
%ADD544R,0.0007X0.0322*%
%ADD545R,0.0007X0.0322*%
%ADD546R,0.0007X0.0322*%
%ADD547R,0.0007X0.0263*%
%ADD548R,0.0007X0.0249*%
%ADD549R,0.0007X0.0249*%
%ADD550R,0.0007X0.0227*%
%ADD551R,0.0007X0.0205*%
%ADD552R,0.0007X0.0190*%
%ADD553R,0.0007X0.0161*%
%ADD554R,0.0007X0.0132*%
%ADD555R,0.0007X0.0102*%
%ADD556R,0.0007X0.0102*%
%ADD557R,0.0007X0.0029*%
%ADD558C,0.0437*%
%ADD559C,0.0390*%
%ADD560C,0.0397*%
%ADD561C,0.0358*%
D10*
X017533Y024852D02*
X017533Y025492D01*
X017853Y025492D01*
X017960Y025386D01*
X017960Y025172D01*
X017853Y025065D01*
X017533Y025065D01*
X017316Y025065D02*
X017210Y025172D01*
X017210Y025599D01*
X017316Y025492D02*
X017103Y025492D01*
X016887Y025492D02*
X016673Y025492D01*
X016780Y025599D02*
X016780Y025172D01*
X016887Y025065D01*
X016456Y025065D02*
X016456Y025386D01*
X016349Y025492D01*
X016135Y025492D01*
X016029Y025386D01*
X016029Y025706D02*
X016029Y025065D01*
X016029Y026065D02*
X016456Y026065D01*
X016242Y026065D02*
X016242Y026706D01*
X016029Y026492D01*
X016135Y027065D02*
X016349Y027065D01*
X016456Y027172D01*
X016456Y027599D01*
X016349Y027706D01*
X016135Y027706D01*
X016029Y027599D01*
X016029Y027172D01*
X016135Y027065D01*
X016673Y027172D02*
X016780Y027065D01*
X016993Y027065D01*
X017100Y027172D01*
X017100Y027279D01*
X016993Y027386D01*
X016780Y027386D01*
X016673Y027492D01*
X016673Y027599D01*
X016780Y027706D01*
X016993Y027706D01*
X017100Y027599D01*
X017318Y027599D02*
X017318Y027492D01*
X017424Y027386D01*
X017638Y027386D01*
X017745Y027279D01*
X017745Y027172D01*
X017638Y027065D01*
X017424Y027065D01*
X017318Y027172D01*
X017318Y027599D02*
X017424Y027706D01*
X017638Y027706D01*
X017745Y027599D01*
X017962Y027706D02*
X018176Y027706D01*
X018069Y027706D02*
X018069Y027065D01*
X017962Y027065D02*
X018176Y027065D01*
X018283Y026706D02*
X017962Y026706D01*
X017962Y026065D01*
X018283Y026065D01*
X018389Y026172D01*
X018389Y026599D01*
X018283Y026706D01*
X018607Y026386D02*
X018714Y026492D01*
X018927Y026492D01*
X019034Y026386D01*
X019034Y026279D01*
X018607Y026279D01*
X018607Y026172D02*
X018607Y026386D01*
X018607Y026172D02*
X018714Y026065D01*
X018927Y026065D01*
X019251Y026172D02*
X019358Y026065D01*
X019678Y026065D01*
X019571Y025706D02*
X019144Y025065D01*
X018499Y025065D02*
X018926Y025706D01*
X019251Y026172D02*
X019251Y026386D01*
X019358Y026492D01*
X019678Y026492D01*
X019464Y027065D02*
X019037Y027065D01*
X019250Y027065D02*
X019250Y027706D01*
X019037Y027492D01*
X018819Y027386D02*
X018392Y027386D01*
X017100Y026599D02*
X017100Y026172D01*
X016993Y026065D01*
X016780Y026065D01*
X016673Y026172D01*
X017100Y026599D01*
X016993Y026706D01*
X016780Y026706D01*
X016673Y026599D01*
X016673Y026172D01*
X018177Y025492D02*
X018177Y025386D01*
X018284Y025386D01*
X018284Y025492D01*
X018177Y025492D01*
X018177Y025172D02*
X018177Y025065D01*
X018284Y025065D01*
X018284Y025172D01*
X018177Y025172D01*
X019788Y025172D02*
X019895Y025065D01*
X020109Y025065D01*
X020216Y025172D01*
X020216Y025386D01*
X020109Y025492D01*
X019895Y025492D01*
X019788Y025386D01*
X019788Y025172D01*
X020433Y025065D02*
X020753Y025065D01*
X020860Y025172D01*
X020860Y025386D01*
X020753Y025492D01*
X020433Y025492D01*
X020433Y024852D01*
X021078Y025172D02*
X021078Y025386D01*
X021184Y025492D01*
X021398Y025492D01*
X021505Y025386D01*
X021505Y025279D01*
X021078Y025279D01*
X021078Y025172D02*
X021184Y025065D01*
X021398Y025065D01*
X021722Y025065D02*
X021722Y025492D01*
X022042Y025492D01*
X022149Y025386D01*
X022149Y025065D01*
X022367Y025065D02*
X022687Y025065D01*
X022794Y025172D01*
X022687Y025279D01*
X022473Y025279D01*
X022367Y025386D01*
X022473Y025492D01*
X022794Y025492D01*
X023118Y025492D02*
X023332Y025492D01*
X023438Y025386D01*
X023438Y025065D01*
X023118Y025065D01*
X023011Y025172D01*
X023118Y025279D01*
X023438Y025279D01*
X023656Y025492D02*
X023869Y025492D01*
X023763Y025599D02*
X023763Y025172D01*
X023869Y025065D01*
X024085Y025065D02*
X024192Y025065D01*
X024192Y025172D01*
X024085Y025172D01*
X024085Y025065D01*
X024408Y025172D02*
X024408Y025386D01*
X024515Y025492D01*
X024835Y025492D01*
X025052Y025386D02*
X025052Y025172D01*
X025159Y025065D01*
X025479Y025065D01*
X025479Y025492D02*
X025159Y025492D01*
X025052Y025386D01*
X024835Y025065D02*
X024515Y025065D01*
X024408Y025172D01*
X022901Y026065D02*
X022474Y026065D01*
X022901Y026492D01*
X022901Y026599D01*
X022794Y026706D01*
X022581Y026706D01*
X022474Y026599D01*
X022043Y026706D02*
X022043Y026065D01*
X021830Y026065D02*
X022257Y026065D01*
X021830Y026492D02*
X022043Y026706D01*
X021935Y027065D02*
X022042Y027172D01*
X021935Y027065D02*
X021721Y027065D01*
X021615Y027172D01*
X021615Y027599D01*
X021721Y027706D01*
X021935Y027706D01*
X022042Y027599D01*
X021397Y027599D02*
X021397Y027492D01*
X021290Y027386D01*
X020970Y027386D01*
X020753Y027599D02*
X020646Y027706D01*
X020432Y027706D01*
X020326Y027599D01*
X020326Y027172D01*
X020432Y027065D01*
X020646Y027065D01*
X020753Y027172D01*
X020753Y027599D01*
X020970Y027706D02*
X021290Y027706D01*
X021397Y027599D01*
X021290Y027386D02*
X021397Y027279D01*
X021397Y027172D01*
X021290Y027065D01*
X020970Y027065D01*
X020970Y027706D01*
X020861Y026706D02*
X020647Y026706D01*
X020540Y026599D01*
X020861Y026706D02*
X020968Y026599D01*
X020968Y026492D01*
X020540Y026065D01*
X020968Y026065D01*
X021185Y026172D02*
X021612Y026599D01*
X021612Y026172D01*
X021505Y026065D01*
X021292Y026065D01*
X021185Y026172D01*
X021185Y026599D01*
X021292Y026706D01*
X021505Y026706D01*
X021612Y026599D01*
X022904Y027065D02*
X023117Y027065D01*
X023011Y027065D02*
X023011Y027706D01*
X023117Y027706D02*
X022904Y027706D01*
X023334Y027599D02*
X023440Y027706D01*
X023654Y027706D01*
X023761Y027599D01*
X023761Y027492D01*
X023334Y027065D01*
X023761Y027065D01*
X023978Y027172D02*
X024085Y027065D01*
X024298Y027065D01*
X024405Y027172D01*
X023978Y027172D02*
X023978Y027599D01*
X024085Y027706D01*
X024298Y027706D01*
X024405Y027599D01*
X025267Y027706D02*
X025694Y027706D01*
X025481Y027706D02*
X025481Y027065D01*
X025912Y027065D02*
X026339Y027065D01*
X026556Y027172D02*
X026663Y027065D01*
X026877Y027065D01*
X026983Y027172D01*
X026983Y027279D01*
X026877Y027386D01*
X026663Y027386D01*
X026556Y027492D01*
X026556Y027599D01*
X026663Y027706D01*
X026877Y027706D01*
X026983Y027599D01*
X027201Y027706D02*
X027628Y027706D01*
X027414Y027706D02*
X027414Y027065D01*
X028490Y027065D02*
X028810Y027065D01*
X028917Y027172D01*
X028917Y027279D01*
X028810Y027386D01*
X028490Y027386D01*
X028490Y027706D02*
X028490Y027065D01*
X028810Y027386D02*
X028917Y027492D01*
X028917Y027599D01*
X028810Y027706D01*
X028490Y027706D01*
X029134Y027599D02*
X029134Y027172D01*
X029241Y027065D01*
X029455Y027065D01*
X029561Y027172D01*
X029561Y027599D01*
X029455Y027706D01*
X029241Y027706D01*
X029134Y027599D01*
X029779Y027492D02*
X029993Y027706D01*
X030206Y027492D01*
X030206Y027065D01*
X030424Y027065D02*
X030424Y027706D01*
X030744Y027706D01*
X030851Y027599D01*
X030851Y027386D01*
X030744Y027279D01*
X030424Y027279D01*
X030637Y027279D02*
X030851Y027065D01*
X031068Y027065D02*
X031388Y027065D01*
X031495Y027172D01*
X031495Y027599D01*
X031388Y027706D01*
X031068Y027706D01*
X031068Y027065D01*
X030206Y027386D02*
X029779Y027386D01*
X029779Y027492D02*
X029779Y027065D01*
X026339Y027706D02*
X025912Y027706D01*
X025912Y027065D01*
X025912Y027386D02*
X026125Y027386D01*
D11*
X026633Y022812D02*
X026633Y021311D01*
X026332Y021010D01*
X025732Y021010D01*
X025431Y021311D01*
X025431Y022812D01*
X024791Y022512D02*
X024791Y021911D01*
X024491Y021611D01*
X023590Y021611D01*
X023590Y021010D02*
X023590Y022812D01*
X024491Y022812D01*
X024791Y022512D01*
X022949Y022512D02*
X022949Y021311D01*
X022649Y021010D01*
X022049Y021010D01*
X021748Y021311D01*
X021748Y022512D01*
X022049Y022812D01*
X022649Y022812D01*
X022949Y022512D01*
X021108Y022812D02*
X019907Y022812D01*
X020507Y022812D02*
X020507Y021010D01*
X019266Y021311D02*
X018966Y021010D01*
X018365Y021010D01*
X018065Y021311D01*
X018065Y022512D01*
X018365Y022812D01*
X018966Y022812D01*
X019266Y022512D01*
X017425Y022512D02*
X017425Y021311D01*
X017124Y021010D01*
X016524Y021010D01*
X016224Y021311D01*
X016224Y022512D01*
X016524Y022812D01*
X017124Y022812D01*
X017425Y022512D01*
X027273Y022512D02*
X027273Y022211D01*
X027573Y021911D01*
X028174Y021911D01*
X028474Y021611D01*
X028474Y021311D01*
X028174Y021010D01*
X027573Y021010D01*
X027273Y021311D01*
X027273Y022512D02*
X027573Y022812D01*
X028174Y022812D01*
X028474Y022512D01*
D12*
X024426Y012092D03*
X024426Y011502D03*
X016887Y008473D03*
X016887Y007883D03*
X016298Y007883D03*
X016298Y008473D03*
X015521Y007686D03*
X015521Y007095D03*
X014884Y007095D03*
X014884Y007686D03*
X012509Y007686D03*
X012509Y007095D03*
X011872Y007095D03*
X011872Y007686D03*
X013348Y005324D03*
X013348Y004733D03*
X010200Y004733D03*
X010200Y005324D03*
X009509Y005324D03*
X009509Y004733D03*
X008137Y006313D03*
X008137Y006904D03*
X007543Y007034D03*
X007543Y007624D03*
X008802Y012488D03*
X008802Y013079D03*
X009429Y013079D03*
X009429Y012488D03*
X010087Y012488D03*
X010769Y012488D03*
X010769Y013079D03*
X010087Y013079D03*
X017376Y002381D03*
X017376Y001790D03*
D13*
X023301Y012908D03*
X023301Y013164D03*
X023301Y013420D03*
X023301Y013676D03*
X023301Y013932D03*
X023301Y014188D03*
X023301Y014444D03*
X023301Y014700D03*
X023301Y014956D03*
X023301Y015212D03*
X023301Y015468D03*
X023301Y015723D03*
X025584Y015723D03*
X025584Y015468D03*
X025584Y015212D03*
X025584Y014956D03*
X025584Y014700D03*
X025584Y014444D03*
X025584Y014188D03*
X025584Y013932D03*
X025584Y013676D03*
X025584Y013420D03*
X025584Y013164D03*
X025584Y012908D03*
D14*
X024767Y010746D03*
X024176Y010746D03*
X024115Y008901D03*
X024706Y008901D03*
X009512Y006112D03*
X008921Y006112D03*
D15*
X023291Y009464D03*
X023291Y009719D03*
X023291Y009975D03*
X023291Y010231D03*
X025594Y010231D03*
X025594Y009975D03*
X025594Y009719D03*
X025594Y009464D03*
D16*
X019842Y006935D03*
X019342Y006935D03*
X018842Y006935D03*
X018342Y006935D03*
X017842Y006935D03*
X017342Y006935D03*
X016842Y006935D03*
X016342Y006935D03*
X016342Y003075D03*
X016842Y003075D03*
X017342Y003075D03*
X017842Y003075D03*
X018342Y003075D03*
X018842Y003075D03*
X019342Y003075D03*
X019842Y003075D03*
X012433Y003628D03*
X011933Y003628D03*
X011433Y003628D03*
X010933Y003628D03*
X010933Y006382D03*
X011433Y006382D03*
X011933Y006382D03*
X012433Y006382D03*
D17*
X013933Y006029D03*
X014433Y006029D03*
X014933Y006029D03*
X015433Y006029D03*
X015433Y003981D03*
X014933Y003981D03*
X014433Y003981D03*
X013933Y003981D03*
D18*
X008876Y004493D03*
X008502Y004493D03*
X008128Y004493D03*
X008128Y005517D03*
X008502Y005517D03*
X008876Y005517D03*
D19*
X002880Y003166D03*
X002880Y026395D03*
X034376Y026395D03*
X034376Y003166D03*
D20*
X025555Y007883D03*
X017681Y007883D03*
D21*
X016124Y009910D03*
X015124Y009910D03*
X015124Y011410D03*
X016124Y011410D03*
X018124Y013910D03*
X019124Y013910D03*
X019124Y015410D03*
X018124Y015410D03*
X014124Y021410D03*
X013124Y021410D03*
X012124Y021410D03*
X011124Y021410D03*
X010124Y021410D03*
X009124Y021410D03*
X008124Y021410D03*
X007124Y021410D03*
X006124Y021410D03*
X005124Y021410D03*
X030624Y020910D03*
X030624Y019910D03*
X030624Y018910D03*
X030624Y017910D03*
X030624Y016910D03*
X030624Y015910D03*
X030624Y014910D03*
X030624Y013910D03*
X030624Y012910D03*
X030624Y011910D03*
X030624Y010910D03*
X030624Y009910D03*
X030624Y008910D03*
X030624Y007910D03*
D22*
X003809Y021369D03*
X003773Y021391D03*
X003736Y021413D03*
X003488Y021566D03*
X003356Y021647D03*
X002786Y021588D03*
X002786Y022005D03*
X002530Y022158D03*
X002917Y007726D03*
X002347Y007280D03*
X002310Y007288D03*
D23*
X002888Y007730D03*
X002895Y007730D03*
X002990Y007708D03*
X003115Y009967D03*
X003020Y011532D03*
X002705Y011583D03*
X003115Y012848D03*
X002990Y014771D03*
X002727Y016723D03*
X002720Y016723D03*
X002720Y017351D03*
X003012Y017308D03*
X002683Y017892D03*
X003012Y019479D03*
X002720Y019523D03*
X003020Y020100D03*
X002713Y020693D03*
X002990Y020985D03*
X003115Y020956D03*
X003517Y021548D03*
X003495Y021563D03*
X003436Y021599D03*
X003378Y021636D03*
X003363Y021643D03*
X003283Y021694D03*
X003246Y021716D03*
X003202Y021738D03*
X003612Y021489D03*
X003634Y021475D03*
X003648Y021467D03*
X003670Y021453D03*
X003685Y021446D03*
X003765Y021394D03*
X003787Y021380D03*
X003802Y021372D03*
X002610Y021526D03*
X002588Y021519D03*
X002464Y021475D03*
X002457Y021475D03*
X002705Y022052D03*
X002669Y022074D03*
X002610Y022111D03*
X002574Y022133D03*
X002552Y022147D03*
X002464Y022199D03*
X002457Y022206D03*
X003305Y022593D03*
D24*
X002735Y022034D03*
X002735Y021566D03*
X003758Y021398D03*
X003795Y021376D03*
X002735Y019512D03*
X002735Y016719D03*
X002040Y009108D03*
X002735Y008187D03*
D25*
X002727Y008194D03*
X003005Y008150D03*
X003012Y008150D03*
X002932Y007726D03*
X002925Y007726D03*
X002910Y007726D03*
X002903Y007726D03*
X002954Y007719D03*
X002961Y007719D03*
X002976Y007712D03*
X002983Y007712D03*
X002332Y007280D03*
X002325Y007280D03*
X002318Y007288D03*
X001938Y007609D03*
X002055Y009108D03*
X002610Y009532D03*
X003100Y009452D03*
X003107Y009459D03*
X002691Y010534D03*
X002669Y011082D03*
X003005Y011528D03*
X003012Y011528D03*
X002727Y011572D03*
X002720Y011572D03*
X002713Y011579D03*
X002610Y012413D03*
X003100Y012332D03*
X003107Y012340D03*
X003107Y012859D03*
X002713Y014482D03*
X003107Y014752D03*
X002742Y016712D03*
X003005Y017311D03*
X002698Y017889D03*
X002691Y017889D03*
X002676Y018444D03*
X002669Y018444D03*
X002749Y019504D03*
X002727Y019519D03*
X003005Y019475D03*
X003012Y020104D03*
X003005Y020111D03*
X002727Y020148D03*
X002720Y020148D03*
X003107Y020967D03*
X002756Y021574D03*
X002749Y021574D03*
X002742Y021574D03*
X002727Y021566D03*
X002720Y021566D03*
X002713Y021559D03*
X002705Y021559D03*
X002698Y021559D03*
X002691Y021552D03*
X002683Y021552D03*
X002676Y021552D03*
X002669Y021544D03*
X002661Y021544D03*
X002647Y021537D03*
X002639Y021537D03*
X002625Y021530D03*
X002618Y021530D03*
X002596Y021522D03*
X002581Y021515D03*
X002574Y021515D03*
X002793Y021588D03*
X002808Y021595D03*
X002815Y021595D03*
X002830Y021603D03*
X002837Y021603D03*
X002859Y021610D03*
X002859Y021961D03*
X002852Y021961D03*
X002844Y021968D03*
X002830Y021976D03*
X002822Y021983D03*
X002815Y021983D03*
X002808Y021990D03*
X002793Y021998D03*
X002778Y022005D03*
X002771Y022012D03*
X002749Y022027D03*
X002742Y022027D03*
X002727Y022041D03*
X002720Y022041D03*
X002713Y022049D03*
X002698Y022056D03*
X002691Y022063D03*
X002683Y022063D03*
X002676Y022071D03*
X002661Y022078D03*
X002647Y022085D03*
X002625Y022100D03*
X002618Y022107D03*
X002588Y022122D03*
X002581Y022129D03*
X002566Y022136D03*
X003093Y022619D03*
X003100Y022619D03*
X003312Y022590D03*
X003210Y021742D03*
X003217Y021734D03*
X003239Y021720D03*
X003254Y021712D03*
X003261Y021705D03*
X003276Y021698D03*
X003290Y021690D03*
X003297Y021683D03*
X003312Y021676D03*
X003327Y021669D03*
X003371Y021639D03*
X003385Y021632D03*
X003393Y021625D03*
X003407Y021617D03*
X003414Y021610D03*
X003429Y021603D03*
X003444Y021595D03*
X003451Y021588D03*
X003473Y021574D03*
X003480Y021574D03*
X003502Y021559D03*
X003509Y021552D03*
X003524Y021544D03*
X003539Y021537D03*
X003546Y021530D03*
X003561Y021522D03*
X003568Y021515D03*
X003605Y021493D03*
X003626Y021478D03*
X003641Y021471D03*
X003656Y021464D03*
X003678Y021449D03*
X003714Y021427D03*
X003722Y021420D03*
X003751Y021405D03*
X003780Y021383D03*
D26*
X003743Y021409D03*
X003707Y021431D03*
X003590Y021504D03*
X003575Y021511D03*
X003458Y021584D03*
X003341Y021658D03*
X003305Y021680D03*
X003224Y021731D03*
X002632Y021533D03*
X002566Y021511D03*
X002559Y021511D03*
X002552Y021504D03*
X002632Y022096D03*
X002596Y022118D03*
X002559Y022140D03*
X002471Y022191D03*
X002713Y020144D03*
X003020Y019486D03*
X003027Y019486D03*
X002661Y018441D03*
X003020Y016686D03*
X003034Y011539D03*
X002661Y011079D03*
X002683Y010538D03*
X002705Y008205D03*
X002720Y008198D03*
X003020Y008154D03*
X002968Y007715D03*
D27*
X002998Y007701D03*
X002603Y012424D03*
X002398Y021453D03*
X002493Y021489D03*
X002508Y021489D03*
X002523Y021497D03*
X002537Y022155D03*
X002493Y022184D03*
X002427Y022221D03*
X002413Y022228D03*
X003400Y021621D03*
X003531Y021541D03*
X003729Y021416D03*
D28*
X003700Y021435D03*
X003583Y021508D03*
X003349Y021654D03*
X003232Y021727D03*
X002771Y021581D03*
X002764Y021581D03*
X002764Y022019D03*
X002756Y022019D03*
X002639Y022093D03*
X003005Y016682D03*
X003012Y016682D03*
X002055Y014050D03*
X002713Y008202D03*
D29*
X002047Y009108D03*
X002033Y009108D03*
X002362Y007280D03*
X003692Y021442D03*
X003619Y021486D03*
X002654Y022085D03*
X002544Y022151D03*
D30*
X002508Y022173D03*
X002603Y022115D03*
X002603Y021522D03*
X003268Y021705D03*
X003334Y021661D03*
X003597Y021500D03*
X003663Y021457D03*
X002603Y020718D03*
X002998Y019475D03*
X002603Y014504D03*
X002025Y009108D03*
X002289Y007295D03*
X002303Y007288D03*
X002340Y007280D03*
X002354Y007280D03*
D31*
X002296Y007291D03*
X002501Y021489D03*
X002515Y021497D03*
X002530Y021497D03*
X002501Y022177D03*
X002420Y022228D03*
X003319Y021672D03*
X003553Y021526D03*
D32*
X003466Y021581D03*
X002040Y014050D03*
X002735Y011565D03*
D33*
X002486Y021482D03*
X002544Y021504D03*
X002435Y022213D03*
X003422Y021606D03*
D34*
X003422Y022575D03*
X003056Y020535D03*
X002362Y019804D03*
X003056Y014321D03*
D35*
X003078Y014336D03*
X003078Y020550D03*
X003414Y022575D03*
X001916Y007602D03*
D36*
X003407Y022575D03*
D37*
X003400Y022575D03*
D38*
X003393Y022579D03*
X003371Y007350D03*
D39*
X003042Y007156D03*
X003385Y022582D03*
D40*
X002676Y012040D03*
X003064Y011981D03*
X002676Y008662D03*
X003378Y007354D03*
D41*
X003115Y014372D03*
X003115Y020587D03*
X003378Y022582D03*
D42*
X002610Y021062D03*
X002610Y014847D03*
X003371Y011755D03*
X003371Y008377D03*
X002976Y007127D03*
D43*
X003371Y009693D03*
D44*
X003371Y012574D03*
D45*
X003071Y014332D03*
X003371Y014493D03*
X003085Y008578D03*
X003071Y020546D03*
X003371Y020707D03*
D46*
X003064Y020539D03*
X003371Y019669D03*
X003371Y016869D03*
X003064Y014325D03*
D47*
X003371Y022582D03*
D48*
X001923Y014069D03*
X001916Y014069D03*
X002669Y012950D03*
X002676Y012950D03*
X002683Y012950D03*
X001923Y009126D03*
X001916Y009126D03*
X003363Y007350D03*
D49*
X003027Y007149D03*
X003363Y008377D03*
X003363Y011755D03*
D50*
X003363Y012570D03*
X003363Y009689D03*
X001923Y007606D03*
D51*
X003034Y007149D03*
X003363Y014496D03*
X003363Y020711D03*
X003020Y022634D03*
D52*
X003363Y016869D03*
X003020Y007145D03*
D53*
X002201Y009086D03*
X002201Y014029D03*
X003363Y019665D03*
X003005Y022634D03*
D54*
X003363Y022582D03*
X003349Y019665D03*
X002713Y012954D03*
X002705Y012954D03*
X002698Y012954D03*
X002691Y012954D03*
X002691Y010073D03*
X002698Y010073D03*
X002705Y010073D03*
X002713Y010073D03*
X002720Y010073D03*
D55*
X003356Y007350D03*
D56*
X003356Y008381D03*
D57*
X003356Y009689D03*
X003356Y012570D03*
X003356Y014493D03*
X003356Y020707D03*
D58*
X003356Y011755D03*
D59*
X003356Y016869D03*
D60*
X003356Y019665D03*
D61*
X003356Y022582D03*
D62*
X003261Y022601D03*
X003254Y022601D03*
X002691Y017337D03*
X003341Y009689D03*
X001945Y007613D03*
X003349Y007350D03*
D63*
X003349Y008381D03*
X001930Y009127D03*
X002632Y010048D03*
X002639Y010055D03*
X002639Y012936D03*
X001930Y014069D03*
X002881Y017351D03*
X002859Y020152D03*
D64*
X002742Y019508D03*
X002844Y021606D03*
X002852Y021606D03*
X002837Y021972D03*
X002800Y021994D03*
X002749Y016708D03*
X002881Y015853D03*
X003034Y015831D03*
X003341Y011758D03*
X003349Y009689D03*
X002069Y009105D03*
X002062Y009105D03*
X002756Y008176D03*
D65*
X003341Y008925D03*
X002990Y009415D03*
X002983Y009415D03*
X002976Y009415D03*
X002968Y009415D03*
X002961Y009415D03*
X002954Y009415D03*
X002947Y009415D03*
X002720Y009459D03*
X002713Y009459D03*
X002683Y009474D03*
X002625Y010044D03*
X003049Y010022D03*
X001938Y009123D03*
X003349Y011755D03*
X002720Y012340D03*
X002713Y012340D03*
X002683Y012354D03*
X002625Y012925D03*
X003341Y013868D03*
X001938Y014065D03*
X003341Y016873D03*
X003341Y017282D03*
X002910Y017348D03*
X002903Y017348D03*
X002895Y017348D03*
X002888Y017348D03*
X002873Y017355D03*
X002859Y017355D03*
X002852Y017355D03*
X002844Y017355D03*
X002837Y017355D03*
X002830Y017355D03*
X003341Y019665D03*
X002903Y020148D03*
X002895Y020148D03*
X002888Y020148D03*
X002881Y020148D03*
X002873Y020148D03*
X002852Y020155D03*
X002844Y020155D03*
X002837Y020155D03*
X002830Y020155D03*
X002822Y020155D03*
X002815Y020155D03*
X002808Y020155D03*
X002632Y020689D03*
D66*
X002742Y020152D03*
X002756Y019501D03*
X002983Y019472D03*
X002990Y019472D03*
X002705Y017885D03*
X002727Y017351D03*
X002764Y016701D03*
X002976Y016671D03*
X002990Y016679D03*
X002830Y015860D03*
X002932Y015845D03*
X002983Y015838D03*
X003085Y015823D03*
X003239Y015801D03*
X003290Y015794D03*
X002464Y015911D03*
X002069Y014047D03*
X002062Y014047D03*
X002596Y012899D03*
X002618Y012402D03*
X003093Y012329D03*
X003349Y012570D03*
X002756Y011554D03*
X002742Y011561D03*
X002990Y011524D03*
X002676Y011086D03*
X002698Y010530D03*
X002705Y010530D03*
X002713Y010523D03*
X002596Y010018D03*
X002618Y009521D03*
X003093Y009448D03*
X003107Y009975D03*
X003341Y008381D03*
X002990Y008147D03*
X002983Y008147D03*
X002742Y008183D03*
X002939Y007723D03*
X002947Y007723D03*
X002778Y021584D03*
X002800Y021592D03*
X002822Y021599D03*
X003085Y022623D03*
D67*
X003327Y022590D03*
X003349Y020711D03*
X002705Y020689D03*
X002749Y020155D03*
X002764Y019497D03*
X002771Y019497D03*
X002961Y019468D03*
X002968Y019468D03*
X002976Y019468D03*
X002691Y018444D03*
X002683Y018444D03*
X002742Y017355D03*
X002749Y017355D03*
X002976Y017326D03*
X002983Y016675D03*
X002968Y016668D03*
X002961Y016668D03*
X002954Y016668D03*
X002947Y016668D03*
X002793Y016690D03*
X002778Y016697D03*
X002771Y016697D03*
X002800Y015864D03*
X002808Y015864D03*
X002815Y015864D03*
X002822Y015864D03*
X002939Y015842D03*
X002947Y015842D03*
X002954Y015842D03*
X002961Y015842D03*
X002968Y015842D03*
X002976Y015842D03*
X003093Y015820D03*
X003100Y015820D03*
X003107Y015820D03*
X003115Y015820D03*
X003122Y015820D03*
X003129Y015820D03*
X003144Y015812D03*
X003151Y015812D03*
X003159Y015812D03*
X003166Y015812D03*
X003173Y015812D03*
X003180Y015812D03*
X003246Y015798D03*
X003254Y015798D03*
X003261Y015798D03*
X003276Y015798D03*
X003283Y015798D03*
X003297Y015790D03*
X003305Y015790D03*
X003312Y015790D03*
X003327Y015790D03*
X003341Y015790D03*
X002457Y015915D03*
X002705Y014474D03*
X003349Y014496D03*
X003100Y012866D03*
X002749Y011557D03*
X002764Y011550D03*
X002698Y011089D03*
X002691Y011089D03*
X002683Y011089D03*
X002778Y008165D03*
X002961Y008143D03*
X002968Y008143D03*
X002976Y008143D03*
D68*
X002720Y012957D03*
X003349Y016869D03*
X003042Y022630D03*
D69*
X003064Y022626D03*
X003349Y022582D03*
X002661Y020682D03*
X002647Y020682D03*
X002910Y020141D03*
X002925Y020141D03*
X002932Y017340D03*
X002669Y014467D03*
X002661Y014467D03*
X002647Y014467D03*
X002632Y012932D03*
X003049Y012903D03*
X002990Y012296D03*
X002983Y012296D03*
X002976Y012296D03*
X002968Y012296D03*
X002961Y012296D03*
X002954Y012296D03*
X002705Y012347D03*
X002698Y012347D03*
X002698Y009466D03*
X002705Y009466D03*
X003034Y009423D03*
D70*
X002647Y008271D03*
X003085Y008205D03*
X003341Y007350D03*
X003085Y011583D03*
X003064Y017264D03*
X002669Y017322D03*
X003071Y019530D03*
X002669Y020115D03*
X003129Y021753D03*
D71*
X003064Y021000D03*
X003071Y020992D03*
X003049Y021000D03*
X003042Y021000D03*
X003034Y021000D03*
X002683Y020678D03*
X002676Y020678D03*
X002669Y020678D03*
X002639Y020685D03*
X002932Y020137D03*
X002939Y020137D03*
X003254Y020093D03*
X003261Y020093D03*
X002778Y018974D03*
X002771Y018974D03*
X002764Y018974D03*
X002756Y018974D03*
X002749Y018974D03*
X002800Y018967D03*
X002808Y018967D03*
X002815Y018967D03*
X002822Y018967D03*
X002830Y018967D03*
X002837Y018967D03*
X002903Y018953D03*
X002910Y018953D03*
X002925Y018953D03*
X002932Y018953D03*
X002939Y018953D03*
X002947Y018953D03*
X002954Y018945D03*
X002961Y018945D03*
X002968Y018945D03*
X002976Y018945D03*
X002983Y018945D03*
X002990Y018945D03*
X003064Y018931D03*
X003071Y018931D03*
X003078Y018931D03*
X003085Y018931D03*
X003093Y018931D03*
X003100Y018931D03*
X003107Y018923D03*
X003115Y018923D03*
X003122Y018923D03*
X003129Y018923D03*
X003144Y018923D03*
X003151Y018923D03*
X003261Y018901D03*
X003276Y018901D03*
X003283Y018901D03*
X003290Y018901D03*
X003297Y018901D03*
X003305Y018901D03*
X003312Y018894D03*
X003327Y018894D03*
X003341Y018894D03*
X003261Y018382D03*
X003254Y018382D03*
X003246Y018382D03*
X003239Y018382D03*
X003232Y018382D03*
X003224Y018382D03*
X003217Y018390D03*
X003210Y018390D03*
X003202Y018390D03*
X003195Y018390D03*
X003180Y018390D03*
X003173Y018390D03*
X003064Y018411D03*
X003049Y018411D03*
X003042Y018411D03*
X003034Y018411D03*
X003027Y018411D03*
X003020Y018411D03*
X003012Y018419D03*
X003005Y018419D03*
X002990Y018419D03*
X002983Y018419D03*
X002976Y018419D03*
X002968Y018419D03*
X002910Y018433D03*
X002903Y018433D03*
X002895Y018433D03*
X002888Y018433D03*
X002881Y018433D03*
X002873Y018433D03*
X002859Y018441D03*
X002852Y018441D03*
X002844Y018441D03*
X002837Y018441D03*
X002830Y018441D03*
X002822Y018441D03*
X002815Y018441D03*
X003327Y018368D03*
X003341Y018368D03*
X003239Y017797D03*
X003232Y017797D03*
X003224Y017797D03*
X003217Y017797D03*
X003210Y017797D03*
X003202Y017797D03*
X003195Y017797D03*
X003180Y017805D03*
X003173Y017805D03*
X003166Y017805D03*
X003159Y017805D03*
X003151Y017805D03*
X003144Y017805D03*
X003027Y017827D03*
X003020Y017827D03*
X003012Y017827D03*
X003005Y017827D03*
X002990Y017827D03*
X002976Y017834D03*
X002968Y017834D03*
X002961Y017834D03*
X002954Y017834D03*
X002947Y017834D03*
X002939Y017834D03*
X002932Y017834D03*
X002873Y017849D03*
X002859Y017849D03*
X002852Y017849D03*
X002844Y017849D03*
X002837Y017849D03*
X002822Y017856D03*
X002815Y017856D03*
X002808Y017856D03*
X002800Y017856D03*
X002471Y017900D03*
X002464Y017907D03*
X002457Y017907D03*
X002457Y017410D03*
X002778Y017359D03*
X002793Y017359D03*
X002800Y017359D03*
X002808Y017359D03*
X002815Y017359D03*
X002822Y017359D03*
X002925Y017344D03*
X002939Y017337D03*
X002947Y017337D03*
X003254Y017293D03*
X003261Y017293D03*
X003276Y017293D03*
X003283Y017293D03*
X003290Y017286D03*
X003297Y017286D03*
X003305Y017286D03*
X003312Y017286D03*
X003327Y017286D03*
X003327Y017783D03*
X003341Y017783D03*
X003312Y017783D03*
X003305Y017783D03*
X003297Y017783D03*
X002325Y019040D03*
X002318Y019040D03*
X003341Y022586D03*
X003064Y014785D03*
X003071Y014778D03*
X003078Y014778D03*
X003049Y014785D03*
X003042Y014785D03*
X002676Y014464D03*
X002639Y014471D03*
X002559Y013981D03*
X002552Y013981D03*
X002566Y013974D03*
X002574Y013974D03*
X002581Y013974D03*
X002588Y013974D03*
X002596Y013974D03*
X002610Y013974D03*
X002669Y013959D03*
X002676Y013959D03*
X002683Y013959D03*
X002691Y013959D03*
X002698Y013959D03*
X002705Y013959D03*
X002713Y013959D03*
X002720Y013952D03*
X002727Y013952D03*
X002742Y013952D03*
X002749Y013952D03*
X002756Y013952D03*
X002764Y013952D03*
X002873Y013930D03*
X002881Y013930D03*
X002888Y013930D03*
X002895Y013930D03*
X002903Y013930D03*
X002910Y013930D03*
X002925Y013923D03*
X002932Y013923D03*
X002939Y013923D03*
X002947Y013923D03*
X002954Y013923D03*
X002961Y013923D03*
X002968Y013923D03*
X003034Y013908D03*
X003042Y013908D03*
X003049Y013908D03*
X003064Y013908D03*
X003071Y013908D03*
X003085Y013901D03*
X003093Y013901D03*
X003100Y013901D03*
X003107Y013901D03*
X003115Y013901D03*
X003122Y013901D03*
X003129Y013901D03*
X003195Y013886D03*
X003202Y013886D03*
X003210Y013886D03*
X003217Y013886D03*
X003224Y013886D03*
X003232Y013886D03*
X003239Y013879D03*
X003246Y013879D03*
X003254Y013879D03*
X003261Y013879D03*
X003276Y013879D03*
X003283Y013879D03*
X002457Y013996D03*
X003078Y012884D03*
X003027Y012299D03*
X003020Y012299D03*
X003012Y012299D03*
X003005Y012299D03*
X002947Y012299D03*
X002939Y012299D03*
X002932Y012299D03*
X002691Y012351D03*
X002669Y012365D03*
X002661Y012365D03*
X002852Y011079D03*
X002859Y011079D03*
X002873Y011079D03*
X002881Y011079D03*
X002888Y011079D03*
X002895Y011079D03*
X002903Y011071D03*
X002910Y011071D03*
X002925Y011071D03*
X002932Y011071D03*
X002939Y011071D03*
X002947Y011071D03*
X003005Y011057D03*
X003012Y011057D03*
X003020Y011057D03*
X003027Y011057D03*
X003034Y011057D03*
X003042Y011057D03*
X003049Y011057D03*
X003064Y011049D03*
X003071Y011049D03*
X003078Y011049D03*
X003085Y011049D03*
X003093Y011049D03*
X003100Y011049D03*
X003159Y011035D03*
X003166Y011035D03*
X003173Y011035D03*
X003180Y011035D03*
X003195Y011035D03*
X003202Y011035D03*
X003217Y011027D03*
X003224Y011027D03*
X003232Y011027D03*
X003239Y011027D03*
X003246Y011027D03*
X003254Y011027D03*
X003173Y010450D03*
X003166Y010450D03*
X003159Y010450D03*
X003151Y010450D03*
X003144Y010450D03*
X003129Y010450D03*
X003180Y010442D03*
X003195Y010442D03*
X003202Y010442D03*
X003210Y010442D03*
X003217Y010442D03*
X003224Y010442D03*
X003341Y010421D03*
X003071Y010464D03*
X003064Y010464D03*
X003049Y010464D03*
X003042Y010464D03*
X003034Y010464D03*
X003027Y010464D03*
X003020Y010472D03*
X003012Y010472D03*
X003005Y010472D03*
X002990Y010472D03*
X002983Y010472D03*
X002976Y010472D03*
X002910Y010486D03*
X002903Y010486D03*
X002895Y010486D03*
X002888Y010486D03*
X002881Y010486D03*
X002873Y010486D03*
X002859Y010494D03*
X002852Y010494D03*
X002844Y010494D03*
X002837Y010494D03*
X002830Y010494D03*
X002822Y010494D03*
X002471Y010545D03*
X002464Y010545D03*
X002457Y010545D03*
X003064Y010011D03*
X003071Y010011D03*
X003078Y010004D03*
X003049Y009426D03*
X003042Y009426D03*
X003027Y009419D03*
X003020Y009419D03*
X003012Y009419D03*
X003005Y009419D03*
X002939Y009419D03*
X002932Y009419D03*
X002691Y009470D03*
X002610Y009031D03*
X002618Y009024D03*
X002625Y009024D03*
X002632Y009024D03*
X002639Y009024D03*
X002647Y009024D03*
X002661Y009024D03*
X002720Y009010D03*
X002727Y009010D03*
X002742Y009010D03*
X002749Y009010D03*
X002756Y009010D03*
X002764Y009010D03*
X002771Y009002D03*
X002778Y009002D03*
X002793Y009002D03*
X002800Y009002D03*
X002808Y009002D03*
X002815Y009002D03*
X002873Y008988D03*
X002881Y008988D03*
X002888Y008988D03*
X002895Y008988D03*
X002903Y008988D03*
X002910Y008988D03*
X002925Y008980D03*
X002932Y008980D03*
X002939Y008980D03*
X002947Y008980D03*
X002954Y008980D03*
X002961Y008980D03*
X002968Y008980D03*
X003085Y008958D03*
X003093Y008958D03*
X003100Y008958D03*
X003107Y008958D03*
X003115Y008958D03*
X003122Y008958D03*
X003129Y008958D03*
X003144Y008951D03*
X003151Y008951D03*
X003159Y008951D03*
X003166Y008951D03*
X003173Y008951D03*
X003180Y008951D03*
X003239Y008936D03*
X003246Y008936D03*
X003254Y008936D03*
X003261Y008936D03*
X003276Y008936D03*
X003283Y008936D03*
X003290Y008929D03*
X003297Y008929D03*
X003305Y008929D03*
X003312Y008929D03*
X003327Y008929D03*
X002596Y009031D03*
X002588Y009031D03*
X002581Y009031D03*
X002574Y009031D03*
X002566Y009031D03*
X002457Y009053D03*
D72*
X002464Y009046D03*
X002471Y009046D03*
X002552Y009039D03*
X002559Y009039D03*
X002669Y009017D03*
X002676Y009017D03*
X002683Y009017D03*
X002691Y009017D03*
X002698Y009017D03*
X002705Y009017D03*
X002713Y009017D03*
X002822Y008995D03*
X002830Y008995D03*
X002837Y008995D03*
X002844Y008995D03*
X002852Y008995D03*
X002859Y008995D03*
X002983Y008973D03*
X002990Y008973D03*
X003005Y008973D03*
X003012Y008973D03*
X003020Y008973D03*
X003034Y008966D03*
X003042Y008966D03*
X003049Y008966D03*
X003064Y008966D03*
X003071Y008966D03*
X003195Y008944D03*
X003202Y008944D03*
X003210Y008944D03*
X003217Y008944D03*
X003224Y008944D03*
X003232Y008944D03*
X002676Y009477D03*
X002669Y009485D03*
X002661Y009485D03*
X002618Y010040D03*
X002793Y010501D03*
X002800Y010501D03*
X002808Y010501D03*
X002925Y010479D03*
X002932Y010479D03*
X002939Y010479D03*
X002947Y010479D03*
X002954Y010479D03*
X002961Y010479D03*
X002968Y010479D03*
X003078Y010457D03*
X003085Y010457D03*
X003093Y010457D03*
X003100Y010457D03*
X003107Y010457D03*
X003115Y010457D03*
X003122Y010457D03*
X003232Y010435D03*
X003239Y010435D03*
X003246Y010435D03*
X003254Y010435D03*
X003261Y010435D03*
X003276Y010435D03*
X003283Y010428D03*
X003290Y010428D03*
X003297Y010428D03*
X003305Y010428D03*
X003312Y010428D03*
X003327Y010428D03*
X003327Y011013D03*
X003341Y011013D03*
X003305Y011020D03*
X003297Y011020D03*
X003290Y011020D03*
X003283Y011020D03*
X003276Y011020D03*
X003151Y011042D03*
X003144Y011042D03*
X003129Y011042D03*
X003122Y011042D03*
X003115Y011042D03*
X003107Y011042D03*
X002990Y011064D03*
X002983Y011064D03*
X002976Y011064D03*
X002968Y011064D03*
X002961Y011064D03*
X002954Y011064D03*
X002844Y011086D03*
X002837Y011086D03*
X002830Y011086D03*
X002822Y011086D03*
X002815Y011086D03*
X002808Y011086D03*
X002800Y011086D03*
X002778Y011093D03*
X002771Y011093D03*
X002764Y011093D03*
X002756Y011093D03*
X002749Y011093D03*
X003034Y012307D03*
X003042Y012307D03*
X003049Y012307D03*
X002676Y012358D03*
X002618Y012921D03*
X003064Y012892D03*
X003071Y012892D03*
X003290Y013871D03*
X003297Y013871D03*
X003305Y013871D03*
X003312Y013871D03*
X003327Y013871D03*
X003180Y013893D03*
X003173Y013893D03*
X003166Y013893D03*
X003159Y013893D03*
X003151Y013893D03*
X003144Y013893D03*
X003020Y013915D03*
X003012Y013915D03*
X003005Y013915D03*
X002990Y013915D03*
X002983Y013915D03*
X002859Y013937D03*
X002852Y013937D03*
X002844Y013937D03*
X002837Y013937D03*
X002830Y013937D03*
X002822Y013937D03*
X002815Y013944D03*
X002808Y013944D03*
X002800Y013944D03*
X002793Y013944D03*
X002778Y013944D03*
X002771Y013944D03*
X002661Y013966D03*
X002647Y013966D03*
X002639Y013966D03*
X002632Y013966D03*
X002625Y013966D03*
X002618Y013966D03*
X002471Y013988D03*
X002464Y013988D03*
X002632Y014478D03*
X001945Y014061D03*
X002464Y017403D03*
X002881Y017841D03*
X002888Y017841D03*
X002895Y017841D03*
X002903Y017841D03*
X002910Y017841D03*
X002925Y017841D03*
X003042Y017819D03*
X003049Y017819D03*
X003064Y017819D03*
X003071Y017819D03*
X003078Y017819D03*
X003093Y017812D03*
X003100Y017812D03*
X003107Y017812D03*
X003115Y017812D03*
X003122Y017812D03*
X003129Y017812D03*
X003246Y017790D03*
X003254Y017790D03*
X003261Y017790D03*
X003276Y017790D03*
X003283Y017790D03*
X003290Y017790D03*
X003290Y018375D03*
X003283Y018375D03*
X003276Y018375D03*
X003297Y018375D03*
X003305Y018375D03*
X003312Y018375D03*
X003166Y018397D03*
X003159Y018397D03*
X003151Y018397D03*
X003144Y018397D03*
X003129Y018397D03*
X003122Y018397D03*
X003115Y018404D03*
X003107Y018404D03*
X003100Y018404D03*
X003093Y018404D03*
X003085Y018404D03*
X003078Y018404D03*
X003071Y018404D03*
X002961Y018426D03*
X002954Y018426D03*
X002947Y018426D03*
X002939Y018426D03*
X002932Y018426D03*
X002925Y018426D03*
X002808Y018448D03*
X002800Y018448D03*
X002793Y018448D03*
X002778Y018448D03*
X002771Y018448D03*
X002764Y018448D03*
X002852Y018960D03*
X002859Y018960D03*
X002873Y018960D03*
X002881Y018960D03*
X002888Y018960D03*
X003005Y018938D03*
X003012Y018938D03*
X003020Y018938D03*
X003027Y018938D03*
X003034Y018938D03*
X003042Y018938D03*
X003049Y018938D03*
X003159Y018916D03*
X003166Y018916D03*
X003173Y018916D03*
X003180Y018916D03*
X003195Y018916D03*
X003202Y018916D03*
X003210Y018909D03*
X003217Y018909D03*
X003224Y018909D03*
X003232Y018909D03*
X003239Y018909D03*
X003246Y018909D03*
X003254Y018909D03*
X002727Y018982D03*
X002720Y018982D03*
X002713Y018982D03*
X002705Y018982D03*
X002698Y018982D03*
X002691Y018982D03*
X002683Y018989D03*
X002676Y018989D03*
X002332Y019033D03*
X002208Y019055D03*
X002201Y019055D03*
X002194Y019055D03*
X002457Y020203D03*
X002464Y020203D03*
X002793Y020159D03*
X002800Y020159D03*
X003276Y020086D03*
X003283Y020086D03*
X003290Y020086D03*
X003297Y020086D03*
X003305Y020086D03*
X003312Y020086D03*
X003327Y020078D03*
X003341Y020078D03*
X002625Y020693D03*
X001945Y009119D03*
D73*
X002683Y011601D03*
X003341Y012574D03*
X003042Y016697D03*
X002661Y017911D03*
X003042Y019497D03*
X002691Y019548D03*
X003180Y021742D03*
D74*
X003276Y022597D03*
X003341Y020711D03*
X002720Y020703D03*
X002698Y020141D03*
X002698Y019541D03*
X002647Y018430D03*
X002698Y017340D03*
X003042Y017289D03*
X002691Y016748D03*
X003049Y016704D03*
X003341Y014496D03*
X002720Y014489D03*
X002676Y011609D03*
X002661Y010548D03*
X002676Y008231D03*
X002683Y008224D03*
X002852Y007719D03*
X003020Y007690D03*
X003027Y007683D03*
D75*
X003334Y007350D03*
X002413Y009806D03*
X002413Y012687D03*
D76*
X003334Y011758D03*
X003334Y008381D03*
X002866Y007723D03*
X002398Y007284D03*
D77*
X003334Y008929D03*
X003268Y008936D03*
X002603Y009031D03*
X002427Y009053D03*
X002413Y009053D03*
X002398Y009061D03*
X002120Y009097D03*
X002398Y010559D03*
X002493Y010545D03*
X002866Y011079D03*
X002998Y010472D03*
X003334Y010421D03*
X002998Y012299D03*
X003268Y013879D03*
X002603Y013974D03*
X002537Y013981D03*
X002523Y013981D03*
X002427Y013996D03*
X002413Y013996D03*
X002398Y014003D03*
X003268Y017293D03*
X003334Y017286D03*
X003334Y017783D03*
X002998Y017827D03*
X002866Y017849D03*
X002493Y017900D03*
X002427Y017907D03*
X002866Y018433D03*
X002998Y018419D03*
X003268Y018382D03*
X003334Y018368D03*
X003334Y018894D03*
X003268Y018901D03*
X002998Y018945D03*
X002384Y019026D03*
X002303Y019040D03*
X002289Y019040D03*
X002274Y019048D03*
X002245Y019048D03*
X002230Y019048D03*
X002120Y019069D03*
X002398Y020210D03*
X002413Y020210D03*
X002427Y020210D03*
X002398Y017417D03*
X002413Y017410D03*
X002427Y017410D03*
D78*
X003334Y012574D03*
X002413Y011886D03*
X003334Y009693D03*
X002413Y008509D03*
D79*
X002523Y009039D03*
X002537Y009039D03*
X002508Y009046D03*
X002493Y009046D03*
X002866Y008995D03*
X002998Y008973D03*
X003268Y010435D03*
X003334Y011013D03*
X003268Y011020D03*
X002998Y011064D03*
X002427Y010552D03*
X002413Y010552D03*
X002998Y013915D03*
X002866Y013937D03*
X002508Y013988D03*
X002493Y013988D03*
X002120Y014039D03*
X003334Y013871D03*
X003268Y017790D03*
X002413Y017914D03*
X002398Y017914D03*
X002866Y018960D03*
X002354Y019033D03*
X002340Y019033D03*
X002215Y019055D03*
X002179Y019055D03*
X002164Y019062D03*
X002135Y019062D03*
X003268Y020086D03*
X003334Y020078D03*
D80*
X003334Y020707D03*
X002427Y018331D03*
X003334Y014493D03*
X002427Y010976D03*
X002230Y007350D03*
X002427Y007299D03*
D81*
X001981Y009116D03*
X002091Y014043D03*
X001981Y014058D03*
X002384Y014745D03*
X002427Y015915D03*
X002303Y015937D03*
X002289Y015937D03*
X002274Y015937D03*
X003268Y015798D03*
X003334Y015790D03*
X003334Y019665D03*
X002384Y020959D03*
D82*
X002398Y019797D03*
X002398Y018335D03*
X003334Y016873D03*
X002998Y015834D03*
X002866Y015856D03*
X002398Y015922D03*
X002384Y015922D03*
X002354Y015929D03*
X002340Y015929D03*
X002398Y010980D03*
X002091Y009101D03*
D83*
X002384Y009814D03*
X002603Y010026D03*
X002384Y012694D03*
X002603Y012906D03*
X003334Y022586D03*
D84*
X002464Y008468D03*
X003327Y007350D03*
D85*
X003327Y008384D03*
X003064Y016719D03*
X002676Y017326D03*
X003312Y019665D03*
X002676Y020126D03*
D86*
X002661Y020104D03*
X002961Y020937D03*
X003071Y017253D03*
X002961Y014723D03*
X003327Y014496D03*
X003327Y012574D03*
X003312Y011755D03*
X003327Y009693D03*
X003312Y008377D03*
X003064Y007631D03*
D87*
X002837Y007715D03*
X002661Y008249D03*
X002647Y010567D03*
X003327Y011758D03*
D88*
X003042Y011543D03*
X003027Y011535D03*
X002698Y011587D03*
X003115Y012347D03*
X003122Y012837D03*
X002588Y012888D03*
X002676Y010541D03*
X002588Y010007D03*
X003115Y009466D03*
X003027Y008158D03*
X003012Y007697D03*
X003005Y007697D03*
X003027Y016690D03*
X002713Y016734D03*
X003327Y016873D03*
X002713Y017348D03*
X002676Y017896D03*
X002669Y017903D03*
X002713Y019526D03*
X002705Y019534D03*
X003034Y019490D03*
X003027Y020097D03*
X002705Y020141D03*
X002471Y021478D03*
D89*
X003195Y021742D03*
X003297Y022590D03*
X003115Y022619D03*
X003107Y022619D03*
X003327Y019665D03*
X003020Y017304D03*
X003115Y014745D03*
X003042Y008165D03*
X003034Y008165D03*
X002881Y007726D03*
X002873Y007726D03*
D90*
X002661Y016796D03*
X003297Y016869D03*
X002661Y019589D03*
X003297Y019669D03*
X003327Y020707D03*
X003115Y021753D03*
X003107Y021753D03*
D91*
X003319Y007350D03*
D92*
X003319Y008384D03*
X002406Y012691D03*
D93*
X002515Y013981D03*
X002530Y013981D03*
X002420Y013996D03*
X002406Y014003D03*
X002917Y013930D03*
X003188Y013886D03*
X002917Y011071D03*
X003188Y011035D03*
X003188Y010442D03*
X002917Y010486D03*
X002786Y009002D03*
X002917Y008988D03*
X003319Y008929D03*
X002420Y009053D03*
X002406Y009061D03*
X002128Y009097D03*
X003319Y017286D03*
X002917Y017344D03*
X002786Y017359D03*
X002420Y017410D03*
X002406Y017417D03*
X002420Y017907D03*
X002391Y018338D03*
X002917Y018953D03*
X002786Y018974D03*
X002391Y019026D03*
X002310Y019040D03*
X002296Y019040D03*
X002281Y019040D03*
X002237Y019048D03*
X002113Y019069D03*
X002406Y020210D03*
X002420Y020210D03*
X003319Y018894D03*
X003188Y018390D03*
X003188Y017805D03*
X003319Y017783D03*
D94*
X003319Y009693D03*
D95*
X003319Y010428D03*
X003319Y011013D03*
X002786Y011093D03*
X002420Y010552D03*
X002406Y010552D03*
X002501Y009046D03*
X002515Y009039D03*
X002530Y009039D03*
X003188Y008944D03*
X003319Y013871D03*
X002786Y013944D03*
X002501Y013988D03*
X002128Y014039D03*
X002917Y017841D03*
X002406Y017914D03*
X002786Y018448D03*
X002917Y018426D03*
X003319Y018375D03*
X003188Y018916D03*
X002347Y019033D03*
X002223Y019055D03*
X002186Y019055D03*
X002172Y019062D03*
X002128Y019062D03*
D96*
X003319Y011758D03*
D97*
X003319Y012574D03*
X003319Y014496D03*
D98*
X002098Y014043D03*
X001989Y014058D03*
X002281Y015937D03*
X002296Y015937D03*
X002420Y015915D03*
X002786Y016690D03*
X003319Y015790D03*
X002391Y011894D03*
X001989Y009116D03*
X002786Y008165D03*
D99*
X002391Y014749D03*
X003319Y016869D03*
X003319Y019669D03*
D100*
X003319Y020082D03*
X002786Y020155D03*
X002786Y010505D03*
D101*
X003319Y020707D03*
D102*
X003319Y022586D03*
X002310Y015933D03*
X003188Y015809D03*
X002018Y014054D03*
X002003Y014054D03*
X002003Y009112D03*
X002018Y009112D03*
D103*
X003297Y009697D03*
X003312Y007350D03*
X003297Y014493D03*
X003297Y020707D03*
X002990Y021767D03*
D104*
X002756Y020769D03*
X003312Y020703D03*
X002756Y014555D03*
X003312Y014496D03*
X003312Y009693D03*
X002471Y008465D03*
D105*
X003027Y008969D03*
X002778Y010505D03*
X002771Y010505D03*
X002793Y011089D03*
X002822Y011528D03*
X002830Y011528D03*
X003312Y011016D03*
X002610Y012917D03*
X003085Y017816D03*
X002778Y020155D03*
X002771Y020155D03*
X002764Y020155D03*
D106*
X003312Y012574D03*
X002471Y011843D03*
D107*
X003049Y007661D03*
X003312Y016873D03*
X002676Y019563D03*
X003151Y021749D03*
D108*
X002961Y021775D03*
X002895Y020861D03*
X002881Y020853D03*
X002815Y020817D03*
X002895Y014646D03*
X002822Y014610D03*
X002815Y014602D03*
X002559Y011788D03*
X003173Y011700D03*
X003180Y011700D03*
X002559Y008410D03*
X003173Y008322D03*
X003180Y008322D03*
X003305Y007350D03*
D109*
X003305Y008373D03*
X003100Y021753D03*
D110*
X003254Y019669D03*
X003254Y016869D03*
X003305Y012577D03*
X003246Y011722D03*
X003305Y009697D03*
D111*
X003305Y011751D03*
X002661Y017308D03*
D112*
X003305Y014493D03*
X003246Y008344D03*
X003305Y020707D03*
D113*
X003305Y019669D03*
X003305Y016869D03*
X002647Y011649D03*
D114*
X002610Y011766D03*
X003122Y011693D03*
X003129Y011693D03*
X002464Y012680D03*
X003276Y009697D03*
X003129Y008315D03*
X003122Y008315D03*
X002610Y008388D03*
X002596Y008395D03*
X002742Y007598D03*
X003297Y007350D03*
X002939Y021775D03*
X002932Y021775D03*
D115*
X002457Y018331D03*
X003297Y011744D03*
X003093Y011605D03*
X003297Y008366D03*
X003093Y008227D03*
X002457Y007328D03*
D116*
X003217Y008337D03*
X003297Y012577D03*
X002471Y020912D03*
D117*
X002910Y021778D03*
X002639Y011755D03*
X003290Y007346D03*
D118*
X003290Y008362D03*
X002457Y010973D03*
X002464Y018327D03*
X003283Y019665D03*
D119*
X002618Y019033D03*
X002610Y019033D03*
X002596Y019033D03*
X002464Y019055D03*
X002457Y019055D03*
X002800Y020809D03*
X002581Y020839D03*
X002552Y014646D03*
X002581Y014624D03*
X002588Y014624D03*
X002800Y014595D03*
X003290Y012577D03*
X003290Y009697D03*
D120*
X003290Y011740D03*
X002954Y014708D03*
X003283Y016873D03*
X002954Y020923D03*
X003078Y021756D03*
D121*
X003290Y020703D03*
X003290Y014489D03*
X002756Y007617D03*
D122*
X002800Y007683D03*
X002742Y014533D03*
X003290Y016873D03*
X003290Y019665D03*
X002742Y020747D03*
X003085Y021756D03*
X003093Y021756D03*
D123*
X002983Y020978D03*
X003034Y020093D03*
X003283Y022593D03*
X003290Y022593D03*
X003129Y022615D03*
X003122Y022615D03*
X002705Y017344D03*
X003027Y017300D03*
X003034Y017293D03*
X002698Y016745D03*
X002705Y016737D03*
X003034Y016693D03*
X002983Y014763D03*
X002596Y012431D03*
X002691Y011598D03*
X003049Y011546D03*
X002647Y011071D03*
X002669Y010545D03*
X003122Y009953D03*
X002596Y009551D03*
X002691Y008220D03*
X002698Y008213D03*
X003049Y008169D03*
X002859Y007723D03*
D124*
X003283Y007350D03*
X003261Y014493D03*
X003254Y014500D03*
X002888Y021782D03*
D125*
X003064Y021760D03*
X003071Y021760D03*
X002749Y020758D03*
X002749Y014544D03*
X002464Y010969D03*
X003283Y008359D03*
X002793Y007672D03*
D126*
X002749Y007606D03*
X003283Y009697D03*
X002457Y009799D03*
X003159Y011700D03*
X003283Y012577D03*
X002852Y014624D03*
X002852Y020839D03*
X002859Y020839D03*
D127*
X003283Y011737D03*
D128*
X002581Y011780D03*
X002457Y012680D03*
X003283Y014493D03*
X002837Y014617D03*
X003283Y020707D03*
X002844Y020831D03*
X002947Y021775D03*
X002581Y008403D03*
X003159Y008322D03*
X003166Y008322D03*
D129*
X002705Y007558D03*
X002552Y007441D03*
X003276Y007346D03*
X003246Y009700D03*
X003246Y012581D03*
X003195Y014540D03*
X003173Y014555D03*
X002771Y016046D03*
X002764Y016046D03*
X002756Y016046D03*
X002749Y016046D03*
X002713Y016054D03*
X002705Y016054D03*
X002698Y016054D03*
X002661Y016061D03*
X002647Y016061D03*
X002610Y016068D03*
X002596Y016068D03*
X002559Y016076D03*
X002552Y016076D03*
X003195Y020755D03*
X003180Y020762D03*
X003173Y020769D03*
D130*
X003276Y019665D03*
X002471Y018327D03*
X003276Y016873D03*
X002457Y011850D03*
X003276Y011733D03*
X002457Y008472D03*
X003276Y008355D03*
X002464Y007339D03*
D131*
X002464Y009799D03*
X003276Y012577D03*
D132*
X003115Y011689D03*
X002625Y011762D03*
X002618Y011762D03*
X003276Y014489D03*
X003276Y020703D03*
X002925Y021778D03*
D133*
X002508Y009792D03*
X003268Y007350D03*
D134*
X003268Y008355D03*
X003268Y016873D03*
D135*
X003268Y012577D03*
X003268Y009697D03*
D136*
X003268Y011729D03*
D137*
X003268Y014489D03*
X003268Y020703D03*
D138*
X003268Y019665D03*
D139*
X002413Y018335D03*
X003268Y022597D03*
D140*
X002661Y007522D03*
X002618Y007492D03*
X003261Y007346D03*
D141*
X002471Y007350D03*
X003261Y008352D03*
X003261Y011729D03*
X002464Y016986D03*
X002464Y019786D03*
X003042Y021760D03*
D142*
X003261Y009700D03*
X002727Y007580D03*
D143*
X002859Y008143D03*
X002873Y008143D03*
X002881Y008143D03*
X002830Y008150D03*
X002976Y008977D03*
X003078Y008962D03*
X003064Y009430D03*
X002647Y009496D03*
X002639Y009503D03*
X002610Y010037D03*
X003085Y010000D03*
X002815Y010497D03*
X002756Y010512D03*
X002749Y010512D03*
X002742Y011097D03*
X002852Y011521D03*
X002859Y011521D03*
X002873Y011521D03*
X003210Y011031D03*
X003261Y011024D03*
X003064Y012310D03*
X002647Y012376D03*
X002639Y012384D03*
X003085Y012881D03*
X003078Y013904D03*
X003027Y013912D03*
X002976Y013919D03*
X002691Y014467D03*
X002683Y014467D03*
X002625Y014482D03*
X003020Y014789D03*
X003027Y014789D03*
X003034Y014789D03*
X003085Y014774D03*
X002925Y016668D03*
X002910Y016668D03*
X002903Y016668D03*
X002895Y016668D03*
X002888Y016668D03*
X002881Y016668D03*
X002873Y016668D03*
X002852Y016675D03*
X002844Y016675D03*
X002837Y016675D03*
X002954Y017333D03*
X002961Y017333D03*
X003034Y017823D03*
X002983Y017830D03*
X002830Y017852D03*
X002793Y017860D03*
X002778Y017860D03*
X002771Y017867D03*
X002764Y017867D03*
X002756Y017867D03*
X002756Y018452D03*
X002749Y018452D03*
X002742Y018452D03*
X002727Y018452D03*
X002720Y018452D03*
X002793Y018971D03*
X002742Y018978D03*
X002844Y018963D03*
X002895Y018956D03*
X002881Y019468D03*
X002873Y019468D03*
X002859Y019468D03*
X002830Y019475D03*
X002961Y020126D03*
X002968Y020126D03*
X002954Y020133D03*
X002947Y020133D03*
X002691Y020682D03*
X003020Y021003D03*
X003027Y021003D03*
X003078Y020989D03*
X003085Y020989D03*
X003093Y020981D03*
X003071Y022626D03*
D144*
X002895Y021778D03*
X003261Y020703D03*
X003261Y012581D03*
D145*
X002764Y014562D03*
X002939Y014687D03*
X003261Y016873D03*
X002764Y020777D03*
X002939Y020901D03*
X003254Y008348D03*
D146*
X002778Y007653D03*
X003254Y011726D03*
X003261Y019665D03*
X003034Y021764D03*
X003027Y021764D03*
D147*
X003254Y007346D03*
D148*
X003254Y009700D03*
X003246Y014504D03*
X003217Y014526D03*
X003246Y020718D03*
X002881Y021786D03*
D149*
X003224Y020733D03*
X003239Y020725D03*
X003254Y020711D03*
X003239Y014511D03*
X003254Y012581D03*
X002720Y007573D03*
D150*
X003246Y007350D03*
X003202Y009704D03*
X002552Y009784D03*
D151*
X003246Y017022D03*
X003246Y019823D03*
D152*
X003049Y020082D03*
X002683Y019556D03*
X002976Y020967D03*
X003166Y021749D03*
X003246Y022597D03*
X003173Y022612D03*
X003166Y022612D03*
X003159Y022612D03*
X002683Y017333D03*
X003049Y017282D03*
X002976Y014752D03*
X002588Y012449D03*
X003122Y012362D03*
X003064Y011557D03*
X002669Y011616D03*
X002639Y011060D03*
X002588Y009569D03*
X003122Y009481D03*
X002669Y008238D03*
X003064Y008180D03*
X002844Y007719D03*
X003042Y007668D03*
D153*
X003239Y007346D03*
X003180Y009708D03*
X002566Y009781D03*
D154*
X003239Y008341D03*
X003239Y011718D03*
X002771Y014570D03*
X002932Y014679D03*
X002771Y020784D03*
X002932Y020894D03*
X003020Y021764D03*
D155*
X003239Y012581D03*
X003239Y009700D03*
X002698Y007551D03*
X002566Y007456D03*
D156*
X003239Y017019D03*
X003239Y019819D03*
D157*
X002683Y020130D03*
X002727Y020714D03*
X003159Y021745D03*
X003232Y022601D03*
X003239Y022601D03*
X003195Y022608D03*
X003180Y022608D03*
X002639Y018419D03*
X002647Y017922D03*
X002676Y016767D03*
X002727Y014500D03*
X002661Y011627D03*
X003071Y008191D03*
D158*
X003232Y007346D03*
X003173Y009708D03*
X002581Y009781D03*
X002574Y009781D03*
X003173Y012588D03*
X002581Y012661D03*
X002574Y012661D03*
D159*
X003232Y011715D03*
X003232Y008337D03*
X002457Y020926D03*
X003005Y021767D03*
X003012Y021767D03*
D160*
X003232Y009700D03*
D161*
X002683Y007536D03*
X002069Y007595D03*
X002062Y007602D03*
X002055Y007609D03*
X003232Y012581D03*
D162*
X003232Y014515D03*
X003202Y014537D03*
X003166Y014559D03*
X003151Y014566D03*
X003232Y020729D03*
X003202Y020751D03*
X003166Y020773D03*
X003151Y020780D03*
D163*
X003100Y020974D03*
X003005Y020996D03*
X002990Y020119D03*
X002983Y020119D03*
X002778Y019490D03*
X002720Y017881D03*
X002713Y017881D03*
X002727Y017874D03*
X002990Y017318D03*
X002756Y016704D03*
X002471Y015907D03*
X002332Y015929D03*
X002325Y015929D03*
X002318Y015929D03*
X002837Y015856D03*
X002844Y015856D03*
X002852Y015856D03*
X002859Y015856D03*
X002873Y015856D03*
X002888Y015849D03*
X002895Y015849D03*
X002903Y015849D03*
X002910Y015849D03*
X002925Y015849D03*
X002990Y015834D03*
X003005Y015834D03*
X003012Y015834D03*
X003020Y015834D03*
X003027Y015834D03*
X003042Y015827D03*
X003049Y015827D03*
X003064Y015827D03*
X003071Y015827D03*
X003078Y015827D03*
X003195Y015805D03*
X003202Y015805D03*
X003210Y015805D03*
X003217Y015805D03*
X003224Y015805D03*
X003232Y015805D03*
X003005Y014782D03*
X003100Y014760D03*
X002625Y012398D03*
X003085Y012325D03*
X002778Y011543D03*
X002968Y011521D03*
X002976Y011521D03*
X002983Y011521D03*
X002727Y010519D03*
X002720Y010519D03*
X003100Y009986D03*
X002749Y008180D03*
X002764Y008172D03*
X002771Y008172D03*
D164*
X002552Y010815D03*
X003232Y017022D03*
X002559Y018170D03*
X002552Y018170D03*
D165*
X003224Y019815D03*
X003232Y019815D03*
D166*
X003159Y012588D03*
X003159Y009708D03*
X003224Y007346D03*
D167*
X003224Y008333D03*
X002778Y014577D03*
X002925Y014672D03*
X002471Y014701D03*
X002457Y014716D03*
X002778Y020791D03*
X002925Y020886D03*
D168*
X003224Y009704D03*
X002676Y007533D03*
X002208Y007511D03*
D169*
X003217Y011711D03*
X003224Y011711D03*
X002464Y014708D03*
X002464Y020923D03*
D170*
X002201Y016145D03*
X002194Y016145D03*
X003224Y012585D03*
X002669Y007525D03*
X002588Y007474D03*
X002581Y007467D03*
X002194Y007518D03*
D171*
X002713Y007562D03*
X003224Y014522D03*
X003210Y014529D03*
X003180Y014551D03*
X003144Y014573D03*
X003129Y014581D03*
X003122Y014581D03*
X003217Y020736D03*
X003210Y020744D03*
X003144Y020788D03*
X003129Y020795D03*
X003122Y020795D03*
X002873Y021782D03*
D172*
X003217Y019812D03*
X002566Y018174D03*
X003224Y017019D03*
D173*
X002683Y016756D03*
X003071Y011565D03*
X003202Y022604D03*
X003210Y022604D03*
X003217Y022604D03*
X003224Y022604D03*
D174*
X003078Y007434D03*
X003210Y007354D03*
X003217Y007346D03*
D175*
X002647Y007511D03*
X002632Y007503D03*
X002625Y007496D03*
X003217Y009704D03*
X003217Y012585D03*
D176*
X002596Y010815D03*
X002588Y010815D03*
X002581Y010815D03*
X002574Y010815D03*
X003210Y017015D03*
X003217Y017015D03*
X002618Y018170D03*
X002610Y018170D03*
X002596Y018170D03*
X002588Y018170D03*
X002581Y018170D03*
X002574Y018170D03*
D177*
X002793Y020806D03*
X002588Y020835D03*
X002983Y021771D03*
X002596Y014621D03*
X002793Y014591D03*
X003210Y011711D03*
X003210Y008333D03*
X002764Y007631D03*
D178*
X003210Y009704D03*
D179*
X003210Y012585D03*
D180*
X003202Y017011D03*
X003202Y019812D03*
X003210Y019812D03*
D181*
X002471Y017139D03*
X003144Y012592D03*
X003071Y007438D03*
X003085Y007430D03*
X003107Y007416D03*
X003115Y007416D03*
X003122Y007408D03*
X003159Y007386D03*
X003173Y007379D03*
X003195Y007365D03*
X003202Y007357D03*
D182*
X003202Y008330D03*
X003195Y008330D03*
X003195Y011707D03*
X003202Y011707D03*
X002903Y014654D03*
X002910Y014661D03*
X002574Y014632D03*
X002566Y014632D03*
X002559Y014639D03*
X002647Y019026D03*
X002661Y019026D03*
X002669Y019026D03*
X002566Y019040D03*
X002559Y019040D03*
X002552Y019040D03*
X002596Y020831D03*
X002574Y020846D03*
X002566Y020846D03*
X002559Y020853D03*
X002910Y020875D03*
D183*
X003202Y012588D03*
D184*
X003195Y012588D03*
X003195Y009708D03*
D185*
X003195Y017008D03*
D186*
X002632Y018170D03*
X003195Y019808D03*
D187*
X003188Y007365D03*
D188*
X003188Y008326D03*
X002530Y019044D03*
D189*
X003188Y009704D03*
D190*
X003188Y011704D03*
X001989Y007624D03*
X002420Y019059D03*
D191*
X003188Y012588D03*
D192*
X003188Y014544D03*
X003188Y020758D03*
D193*
X003188Y017008D03*
D194*
X003188Y019804D03*
D195*
X003188Y021745D03*
X002391Y012694D03*
X002391Y009814D03*
X002391Y007284D03*
D196*
X002237Y007335D03*
X002420Y010976D03*
X002406Y011890D03*
X002420Y018331D03*
X003188Y022608D03*
D197*
X003144Y009711D03*
X003100Y007423D03*
X003093Y007423D03*
X003180Y007372D03*
D198*
X003180Y012588D03*
X002566Y012661D03*
D199*
X002727Y012636D03*
X002727Y009755D03*
X003173Y017008D03*
X003180Y017008D03*
X002552Y017095D03*
X003166Y019801D03*
X003173Y019801D03*
D200*
X003180Y019804D03*
X002552Y019892D03*
D201*
X002691Y020137D03*
X003042Y020086D03*
X003049Y019501D03*
X003173Y021745D03*
X003151Y022615D03*
X003144Y022615D03*
X003034Y007679D03*
D202*
X003129Y007405D03*
X003151Y007390D03*
X003166Y007383D03*
X003129Y012596D03*
X002471Y019936D03*
D203*
X003166Y012592D03*
X003166Y009711D03*
D204*
X002574Y008406D03*
X002566Y008406D03*
X003166Y011696D03*
X002844Y014621D03*
X002859Y014628D03*
X002881Y014643D03*
X002888Y014643D03*
X002822Y020820D03*
X002888Y020857D03*
X002954Y021771D03*
D205*
X003159Y019804D03*
X002566Y017092D03*
X002559Y017092D03*
X003151Y017004D03*
X003159Y017004D03*
X003166Y017004D03*
X002749Y012639D03*
X002742Y012639D03*
X002742Y009759D03*
D206*
X003159Y014562D03*
X003159Y020777D03*
D207*
X002588Y011777D03*
X002596Y011769D03*
X003144Y011696D03*
X003151Y011696D03*
X002588Y008399D03*
X003144Y008319D03*
X003151Y008319D03*
D208*
X003151Y009711D03*
X003151Y012592D03*
D209*
X002771Y012636D03*
X002764Y012636D03*
X002756Y012636D03*
X003144Y017000D03*
X003144Y019801D03*
X003151Y019801D03*
D210*
X003129Y009715D03*
X003144Y007397D03*
D211*
X002830Y007708D03*
X003078Y008198D03*
X003064Y019515D03*
X002669Y019574D03*
X003144Y021745D03*
D212*
X003137Y012592D03*
X003137Y007401D03*
D213*
X003137Y008319D03*
D214*
X003137Y008951D03*
X002735Y009010D03*
X002442Y009053D03*
X002479Y010545D03*
X003137Y010450D03*
X002735Y013952D03*
X002442Y013996D03*
X002442Y017410D03*
X002479Y017900D03*
X002442Y017907D03*
X003137Y018923D03*
X002259Y019048D03*
D215*
X003137Y009711D03*
D216*
X002479Y009046D03*
X002442Y010552D03*
X003137Y011042D03*
X003137Y013893D03*
X002479Y013988D03*
X003137Y017812D03*
X003137Y018397D03*
X002735Y018982D03*
X002369Y019033D03*
X002150Y019062D03*
D217*
X003137Y011693D03*
D218*
X003137Y014573D03*
X003137Y020788D03*
D219*
X002735Y020152D03*
X002735Y017351D03*
X003137Y015816D03*
X002077Y014047D03*
D220*
X003137Y017000D03*
D221*
X003137Y019797D03*
D222*
X003137Y021749D03*
D223*
X003137Y022612D03*
D224*
X002610Y017074D03*
X003115Y017000D03*
X003122Y017000D03*
X003129Y017000D03*
X002925Y012614D03*
X002910Y012614D03*
X002903Y012614D03*
X002895Y012614D03*
X002888Y009741D03*
X002881Y009741D03*
X002873Y009741D03*
X002859Y009741D03*
X002852Y009741D03*
X002844Y009741D03*
X002895Y009733D03*
X002903Y009733D03*
X002910Y009733D03*
X002925Y009733D03*
D225*
X002837Y009744D03*
X002830Y009744D03*
X002822Y009744D03*
X002800Y009752D03*
X002793Y009752D03*
X002778Y009752D03*
X002830Y012625D03*
X002837Y012625D03*
X002800Y012632D03*
X002793Y012632D03*
X002778Y012632D03*
X002596Y017077D03*
X003122Y019797D03*
X003129Y019797D03*
X002596Y019877D03*
X002588Y019877D03*
D226*
X003122Y021749D03*
X003071Y016734D03*
D227*
X002471Y012680D03*
X003100Y011693D03*
X003107Y011693D03*
X002471Y009799D03*
X002632Y008381D03*
X002639Y008381D03*
X003100Y008315D03*
X003107Y008315D03*
X003115Y008315D03*
D228*
X002815Y009748D03*
X002808Y009748D03*
X002844Y012621D03*
X002852Y012621D03*
X002859Y012621D03*
X002873Y012621D03*
X002881Y012621D03*
X002888Y012621D03*
X002822Y012628D03*
X002815Y012628D03*
X002808Y012628D03*
X003115Y019793D03*
X002618Y019866D03*
X002610Y019866D03*
D229*
X003107Y020576D03*
X003107Y014361D03*
D230*
X003107Y016997D03*
X003100Y016997D03*
X003093Y016997D03*
X003085Y016997D03*
X002618Y017070D03*
X003100Y019797D03*
X003107Y019797D03*
D231*
X003100Y020565D03*
X003100Y014350D03*
D232*
X002208Y009086D03*
X003093Y008560D03*
D233*
X002852Y008147D03*
X002844Y008147D03*
X002837Y008147D03*
X002822Y008154D03*
X002815Y008154D03*
X002808Y008154D03*
X002800Y008161D03*
X002793Y008161D03*
X003078Y009441D03*
X003085Y009441D03*
X002625Y009514D03*
X003093Y009989D03*
X002764Y010508D03*
X002742Y010516D03*
X002727Y011093D03*
X002720Y011093D03*
X002713Y011093D03*
X002705Y011093D03*
X002808Y011532D03*
X002815Y011532D03*
X002800Y011539D03*
X002793Y011539D03*
X002771Y011546D03*
X002837Y011525D03*
X002844Y011525D03*
X002881Y011517D03*
X002888Y011517D03*
X002895Y011517D03*
X002903Y011517D03*
X002910Y011517D03*
X002925Y011517D03*
X002932Y011517D03*
X002939Y011517D03*
X002947Y011517D03*
X002954Y011517D03*
X002961Y011517D03*
X003071Y012314D03*
X003078Y012321D03*
X002632Y012387D03*
X002698Y014471D03*
X002618Y014485D03*
X002610Y014493D03*
X003012Y014785D03*
X002939Y016664D03*
X002932Y016664D03*
X002830Y016679D03*
X002822Y016679D03*
X002815Y016679D03*
X002808Y016686D03*
X002800Y016686D03*
X002983Y017322D03*
X002771Y017359D03*
X002764Y017359D03*
X002756Y017359D03*
X002749Y017870D03*
X002742Y017870D03*
X002888Y019464D03*
X002895Y019464D03*
X002903Y019464D03*
X002910Y019464D03*
X002925Y019464D03*
X002932Y019464D03*
X002939Y019464D03*
X002947Y019464D03*
X002954Y019464D03*
X002822Y019479D03*
X002815Y019479D03*
X002808Y019479D03*
X002800Y019486D03*
X002793Y019486D03*
X002976Y020122D03*
X002756Y020152D03*
X002698Y020685D03*
X002618Y020700D03*
X002610Y020707D03*
X003012Y021000D03*
X003078Y022623D03*
D234*
X003085Y020554D03*
X003085Y014339D03*
X003093Y011934D03*
X003005Y007138D03*
D235*
X003064Y007189D03*
X002954Y008139D03*
X002947Y008139D03*
X002939Y008139D03*
X002932Y008139D03*
X002925Y008139D03*
X002910Y008139D03*
X002903Y008139D03*
X002895Y008139D03*
X002888Y008139D03*
X003071Y009434D03*
X002632Y009507D03*
X003093Y012870D03*
X003093Y014771D03*
X002859Y016671D03*
X002968Y017329D03*
X002713Y018448D03*
X002705Y018448D03*
X002698Y018448D03*
X002837Y019472D03*
X002844Y019472D03*
X002852Y019472D03*
D236*
X003093Y020561D03*
X003093Y014347D03*
D237*
X002647Y017059D03*
X002639Y017059D03*
X003078Y019793D03*
X003085Y019793D03*
X003093Y019793D03*
X002639Y019859D03*
D238*
X003085Y011956D03*
X002983Y007131D03*
D239*
X002968Y007127D03*
X003078Y008589D03*
X002990Y022634D03*
D240*
X003078Y011576D03*
D241*
X003078Y011967D03*
D242*
X003078Y016997D03*
X002647Y019855D03*
D243*
X002618Y021069D03*
X002618Y014855D03*
X003071Y011974D03*
X003071Y008596D03*
D244*
X002808Y007690D03*
X003071Y020045D03*
D245*
X002669Y012036D03*
X002669Y008659D03*
X003064Y008607D03*
X002954Y007123D03*
D246*
X002822Y007704D03*
X002968Y014738D03*
X002669Y016777D03*
X002639Y017933D03*
X003064Y020060D03*
X002968Y020952D03*
D247*
X002376Y014745D03*
X002142Y014036D03*
X002142Y009094D03*
X003056Y007171D03*
D248*
X003056Y007653D03*
D249*
X003056Y008176D03*
X002252Y007321D03*
D250*
X003056Y008615D03*
D251*
X003056Y008966D03*
X002544Y009039D03*
X002486Y009046D03*
X003056Y010018D03*
X002449Y010552D03*
X002435Y010552D03*
X002654Y013966D03*
X002486Y013988D03*
X003056Y017819D03*
X002376Y019033D03*
X002362Y019033D03*
X002157Y019062D03*
X002142Y019062D03*
X002449Y020203D03*
D252*
X003056Y012310D03*
X003056Y009430D03*
D253*
X002654Y009492D03*
X002654Y009024D03*
X002449Y009053D03*
X002435Y009053D03*
X002486Y010545D03*
X003056Y010464D03*
X003056Y011049D03*
X002654Y012373D03*
X003056Y012899D03*
X003056Y013908D03*
X002544Y013981D03*
X002449Y013996D03*
X002435Y013996D03*
X003056Y014785D03*
X002449Y017410D03*
X002435Y017410D03*
X002486Y017900D03*
X002449Y017907D03*
X002435Y017907D03*
X003056Y018411D03*
X003056Y018931D03*
X002267Y019048D03*
X002252Y019048D03*
X002435Y020210D03*
X003056Y021000D03*
D254*
X002654Y017914D03*
X003056Y011554D03*
X002654Y010559D03*
D255*
X003056Y011992D03*
D256*
X003056Y015827D03*
X002376Y015922D03*
D257*
X003056Y016712D03*
D258*
X003056Y017275D03*
D259*
X003056Y019508D03*
D260*
X003056Y020075D03*
D261*
X003056Y021760D03*
D262*
X003056Y022623D03*
D263*
X003049Y007163D03*
D264*
X003049Y008622D03*
X002691Y008673D03*
X003049Y012000D03*
X002691Y012051D03*
D265*
X003049Y014317D03*
X003049Y020532D03*
D266*
X002947Y020912D03*
X003049Y021760D03*
X002457Y019786D03*
X002457Y016986D03*
X002947Y014697D03*
X002464Y011846D03*
X002471Y010969D03*
D267*
X003049Y022626D03*
D268*
X003034Y020528D03*
X003034Y014314D03*
X002698Y012055D03*
X003042Y012003D03*
X003042Y008626D03*
X002932Y007120D03*
D269*
X003042Y014317D03*
X003042Y020532D03*
D270*
X003027Y020524D03*
X003027Y014310D03*
X003034Y008629D03*
D271*
X003034Y012007D03*
D272*
X003034Y022630D03*
D273*
X003027Y022630D03*
D274*
X003012Y007138D03*
D275*
X003012Y022630D03*
D276*
X002245Y007778D03*
X002998Y007134D03*
D277*
X002998Y008147D03*
X002011Y009112D03*
X001996Y009112D03*
X002998Y011524D03*
X002011Y014054D03*
X001996Y014054D03*
X002998Y014778D03*
X002413Y015918D03*
X002998Y016679D03*
X002998Y020115D03*
X002998Y020992D03*
D278*
X002866Y017355D03*
X002998Y009415D03*
D279*
X002398Y017000D03*
X002998Y017315D03*
D280*
X002998Y021767D03*
X002523Y011810D03*
D281*
X002603Y014833D03*
X002603Y021047D03*
X002998Y022634D03*
D282*
X002647Y008637D03*
X002990Y007131D03*
D283*
X002552Y008414D03*
X002552Y011791D03*
X002808Y014599D03*
X002639Y019029D03*
X002632Y019029D03*
X002625Y019029D03*
X002588Y019037D03*
X002581Y019037D03*
X002574Y019037D03*
X002471Y019051D03*
X002808Y020813D03*
X002903Y020864D03*
X002552Y020857D03*
X002968Y021771D03*
X002976Y021771D03*
D284*
X002661Y012029D03*
X002661Y008651D03*
X002961Y007123D03*
D285*
X002947Y007123D03*
X002625Y014858D03*
X002625Y021073D03*
D286*
X002939Y007120D03*
D287*
X002925Y007120D03*
X002705Y008677D03*
X002639Y014869D03*
X002639Y021084D03*
D288*
X002917Y008139D03*
D289*
X002917Y009733D03*
X002917Y012614D03*
D290*
X002786Y011539D03*
X002917Y011517D03*
X002391Y008520D03*
X002917Y019464D03*
D291*
X002917Y020879D03*
X002501Y020894D03*
X002501Y014679D03*
X002530Y014657D03*
X002917Y014665D03*
X002530Y011806D03*
X002530Y008428D03*
D292*
X002098Y009101D03*
X002917Y015849D03*
X002406Y015922D03*
X002391Y015922D03*
X002347Y015929D03*
X002786Y019490D03*
D293*
X002786Y017860D03*
X002917Y016668D03*
X002113Y014043D03*
X002113Y009101D03*
D294*
X002391Y010980D03*
X002917Y020141D03*
D295*
X002917Y021778D03*
D296*
X002903Y021782D03*
D297*
X002873Y020850D03*
X002837Y020828D03*
X002830Y020828D03*
X002873Y014635D03*
X002830Y014613D03*
X002574Y011784D03*
X002566Y011784D03*
D298*
X002866Y011521D03*
X002866Y010490D03*
X002106Y009101D03*
X001952Y009123D03*
X002866Y008143D03*
X002106Y014043D03*
X001952Y014065D03*
X002866Y019468D03*
D299*
X002603Y017074D03*
X002866Y009741D03*
D300*
X002866Y012621D03*
D301*
X002866Y014632D03*
X002866Y020846D03*
D302*
X002866Y016671D03*
D303*
X002135Y014039D03*
X002135Y009097D03*
X002384Y008520D03*
X002866Y020152D03*
D304*
X002866Y021786D03*
X002508Y016083D03*
X002493Y016083D03*
X002603Y016068D03*
X002493Y012676D03*
D305*
X002815Y007697D03*
D306*
X002559Y007452D03*
X002778Y016043D03*
X002793Y016043D03*
X002691Y016057D03*
X002683Y016057D03*
X002676Y016057D03*
X002669Y016057D03*
X002639Y016065D03*
X002632Y016065D03*
X002625Y016065D03*
X002618Y016065D03*
D307*
X002786Y007664D03*
D308*
X002786Y009752D03*
X002786Y012632D03*
D309*
X002786Y014588D03*
X002786Y020795D03*
D310*
X002530Y016079D03*
X002515Y016079D03*
X002786Y016043D03*
X002501Y012672D03*
X002501Y009792D03*
D311*
X002771Y007642D03*
D312*
X002771Y009755D03*
X002764Y009755D03*
X002756Y009755D03*
X002749Y009755D03*
X002588Y017081D03*
X002581Y017081D03*
X002581Y019881D03*
D313*
X002581Y016072D03*
X002588Y016072D03*
X002574Y016072D03*
X002566Y016072D03*
X002720Y016050D03*
X002727Y016050D03*
X002742Y016050D03*
D314*
X002735Y007588D03*
D315*
X002735Y009759D03*
X002735Y012639D03*
D316*
X002735Y010516D03*
X001967Y009119D03*
D317*
X002735Y011097D03*
X002735Y018452D03*
X002442Y020206D03*
D318*
X002735Y020733D03*
X002735Y014518D03*
D319*
X002735Y016050D03*
D320*
X002479Y015907D03*
X002369Y015922D03*
X002735Y017874D03*
D321*
X002705Y012055D03*
D322*
X002698Y008677D03*
D323*
X002691Y007544D03*
D324*
X002683Y008670D03*
X002683Y012047D03*
D325*
X002661Y012943D03*
X002669Y010070D03*
X002676Y010070D03*
X002683Y010070D03*
X002661Y010062D03*
D326*
X002654Y007514D03*
X002157Y007536D03*
X001960Y016178D03*
D327*
X002654Y011634D03*
X002654Y008256D03*
D328*
X002654Y008644D03*
X002267Y007789D03*
X002362Y009814D03*
X002362Y014734D03*
X002362Y020948D03*
D329*
X002376Y020956D03*
X002654Y012943D03*
X002654Y010062D03*
D330*
X002654Y011075D03*
X002376Y007280D03*
D331*
X002654Y012022D03*
X002362Y012694D03*
D332*
X002654Y014467D03*
X002654Y020682D03*
D333*
X002486Y016083D03*
X002544Y016076D03*
X002654Y016061D03*
D334*
X002654Y017055D03*
D335*
X002654Y018433D03*
D336*
X002654Y019026D03*
X002544Y019040D03*
D337*
X002654Y019852D03*
D338*
X002435Y021467D03*
X002654Y021541D03*
X002486Y022184D03*
X002449Y022206D03*
D339*
X002647Y012939D03*
X002647Y010059D03*
X001930Y007609D03*
D340*
X002647Y012014D03*
D341*
X002208Y016141D03*
X002069Y016163D03*
X002062Y016163D03*
X002055Y016163D03*
X002201Y007514D03*
X002596Y007478D03*
X002610Y007485D03*
X002639Y007507D03*
D342*
X002639Y010578D03*
D343*
X002632Y010812D03*
X002625Y010812D03*
X002618Y010812D03*
X002610Y010812D03*
X002625Y018167D03*
D344*
X002632Y011758D03*
D345*
X002632Y014866D03*
X002632Y021080D03*
D346*
X002632Y019863D03*
X002625Y019863D03*
X002625Y017063D03*
X002632Y017063D03*
D347*
X002625Y008384D03*
X002618Y008384D03*
D348*
X002603Y007482D03*
X002215Y007503D03*
X002091Y007584D03*
X002230Y016138D03*
X002245Y016138D03*
X002091Y016160D03*
D349*
X002603Y011769D03*
X002603Y008392D03*
X002508Y007397D03*
D350*
X002603Y009543D03*
X002413Y021460D03*
X002537Y021504D03*
X002523Y022162D03*
X002398Y022235D03*
D351*
X002603Y018170D03*
X002508Y017117D03*
X002523Y017110D03*
X002603Y010815D03*
D352*
X002603Y019033D03*
X002413Y019062D03*
X002398Y019062D03*
D353*
X002603Y019870D03*
D354*
X002574Y007460D03*
D355*
X002574Y017085D03*
X002574Y019885D03*
X002566Y019885D03*
D356*
X002566Y010812D03*
X002559Y010812D03*
D357*
X002559Y009784D03*
D358*
X002559Y012665D03*
D359*
X002559Y019888D03*
D360*
X002552Y012669D03*
D361*
X002544Y007438D03*
D362*
X002544Y008421D03*
X002449Y012683D03*
D363*
X002544Y012665D03*
X002544Y009784D03*
D364*
X002544Y010815D03*
X002544Y018170D03*
D365*
X002449Y019055D03*
X002544Y020861D03*
X002544Y014646D03*
X002544Y011795D03*
D366*
X002544Y017099D03*
X002544Y019899D03*
D367*
X002537Y007430D03*
D368*
X002493Y007379D03*
X002537Y008425D03*
X002537Y011802D03*
X002537Y014654D03*
X002523Y014661D03*
X002508Y019048D03*
X002493Y019048D03*
X002537Y020868D03*
X002523Y020875D03*
D369*
X002537Y012665D03*
X002537Y009784D03*
D370*
X002537Y010812D03*
X002523Y010812D03*
X002523Y018167D03*
D371*
X002523Y016079D03*
X002537Y016079D03*
X002025Y007628D03*
D372*
X002537Y017103D03*
D373*
X002493Y017125D03*
X002537Y018170D03*
X002493Y019925D03*
D374*
X002523Y019044D03*
X002537Y019044D03*
D375*
X002537Y019899D03*
D376*
X002530Y007427D03*
D377*
X002530Y009788D03*
D378*
X002530Y010812D03*
X002515Y010812D03*
X002530Y018167D03*
D379*
X002530Y012669D03*
D380*
X002530Y017106D03*
D381*
X002530Y019903D03*
D382*
X002515Y019048D03*
X002501Y019048D03*
X002530Y020868D03*
D383*
X002523Y007419D03*
D384*
X002523Y008432D03*
D385*
X002523Y009788D03*
X002164Y016149D03*
X002011Y016171D03*
D386*
X001952Y016178D03*
X002106Y016156D03*
X002120Y016156D03*
X002215Y016141D03*
X002523Y012669D03*
X002135Y007551D03*
X002164Y007536D03*
D387*
X002523Y019907D03*
D388*
X002515Y007412D03*
D389*
X002515Y008436D03*
D390*
X002515Y009792D03*
X002186Y016145D03*
X002128Y016152D03*
X001989Y016174D03*
D391*
X002515Y011813D03*
D392*
X002515Y012672D03*
X002237Y016138D03*
X002098Y016160D03*
X002098Y007577D03*
D393*
X002515Y014668D03*
X002406Y019062D03*
X002515Y020883D03*
D394*
X002515Y017114D03*
D395*
X002515Y018170D03*
D396*
X002515Y019910D03*
D397*
X002420Y021460D03*
X002515Y022169D03*
X002406Y022235D03*
X002281Y007299D03*
D398*
X002508Y008439D03*
X002508Y011817D03*
D399*
X002508Y010808D03*
D400*
X002508Y012672D03*
D401*
X002508Y014672D03*
X002508Y020886D03*
D402*
X002508Y018167D03*
D403*
X002508Y019914D03*
D404*
X002501Y007390D03*
D405*
X002501Y008443D03*
X002501Y011821D03*
D406*
X002501Y010812D03*
X002501Y018167D03*
D407*
X002501Y016083D03*
D408*
X002501Y017121D03*
D409*
X002501Y019918D03*
D410*
X002493Y008450D03*
D411*
X002493Y009792D03*
D412*
X002493Y010965D03*
X002427Y014745D03*
D413*
X002493Y011824D03*
X002493Y018324D03*
X002427Y020956D03*
D414*
X002493Y020894D03*
X002493Y014687D03*
D415*
X002486Y007368D03*
D416*
X002486Y008454D03*
D417*
X002486Y009795D03*
X002486Y012676D03*
D418*
X002486Y010969D03*
X002486Y018324D03*
D419*
X002435Y020948D03*
X002435Y014734D03*
X002486Y011832D03*
X001974Y007620D03*
D420*
X002486Y014690D03*
D421*
X002486Y017132D03*
D422*
X002486Y019051D03*
X002435Y019059D03*
X002449Y009803D03*
D423*
X002486Y019929D03*
D424*
X002486Y020901D03*
D425*
X002442Y014730D03*
X002479Y007361D03*
D426*
X002479Y008458D03*
D427*
X002479Y009795D03*
X002479Y012676D03*
D428*
X002479Y010965D03*
X002479Y018327D03*
D429*
X002479Y011835D03*
D430*
X002479Y014697D03*
D431*
X002479Y017136D03*
D432*
X002479Y019051D03*
D433*
X002479Y019932D03*
D434*
X002479Y020908D03*
X002442Y012683D03*
X002442Y009803D03*
D435*
X002369Y007277D03*
X002479Y021482D03*
X002479Y022191D03*
X002442Y022213D03*
D436*
X002435Y016993D03*
X002449Y007321D03*
D437*
X002449Y008479D03*
D438*
X002435Y008494D03*
X001960Y007617D03*
X002449Y010973D03*
X002435Y011872D03*
D439*
X002449Y011857D03*
D440*
X002449Y014719D03*
X002449Y020934D03*
D441*
X002267Y015937D03*
X002435Y015915D03*
X002449Y015915D03*
X001974Y014058D03*
X001974Y009116D03*
D442*
X002449Y016993D03*
X002449Y019786D03*
D443*
X002449Y018331D03*
D444*
X002449Y021471D03*
X002267Y007310D03*
D445*
X002442Y007313D03*
X002442Y018331D03*
D446*
X002442Y008487D03*
D447*
X002442Y010973D03*
D448*
X002442Y011861D03*
X002442Y016993D03*
X002442Y019786D03*
D449*
X002442Y015915D03*
D450*
X002442Y019055D03*
D451*
X002442Y020941D03*
D452*
X002442Y021467D03*
D453*
X002435Y010976D03*
X002435Y007306D03*
D454*
X002435Y009803D03*
X002435Y012683D03*
D455*
X002435Y018331D03*
D456*
X002435Y019790D03*
D457*
X002427Y008501D03*
D458*
X002427Y009806D03*
X002427Y012687D03*
D459*
X002427Y011879D03*
D460*
X001952Y007613D03*
X002427Y016993D03*
D461*
X002427Y019059D03*
D462*
X002427Y019790D03*
D463*
X002427Y021464D03*
X002398Y008516D03*
X002274Y007302D03*
X002384Y007280D03*
D464*
X002420Y007295D03*
X002406Y008516D03*
D465*
X002420Y008505D03*
X002223Y007365D03*
X002420Y011883D03*
D466*
X002420Y012683D03*
X002420Y009803D03*
D467*
X002420Y014749D03*
X002420Y020963D03*
D468*
X002420Y016997D03*
D469*
X002420Y019793D03*
D470*
X002413Y019793D03*
X002413Y007291D03*
D471*
X002245Y007328D03*
X002413Y010976D03*
D472*
X002413Y014749D03*
X002413Y020963D03*
D473*
X002413Y016997D03*
D474*
X002391Y020959D03*
X002406Y007288D03*
D475*
X002406Y009810D03*
D476*
X002406Y010980D03*
X002406Y016997D03*
X002406Y018335D03*
X002406Y019797D03*
X002406Y021457D03*
D477*
X002406Y020963D03*
X002406Y014749D03*
D478*
X002398Y012691D03*
X002398Y009810D03*
D479*
X002398Y011894D03*
D480*
X002398Y014745D03*
X002398Y020959D03*
D481*
X002391Y019797D03*
X002391Y017004D03*
D482*
X002384Y018335D03*
X002384Y010980D03*
D483*
X002384Y011894D03*
D484*
X002384Y017000D03*
X002384Y019801D03*
D485*
X002376Y011901D03*
X002376Y008523D03*
D486*
X002376Y009810D03*
X002376Y012691D03*
D487*
X002376Y010980D03*
X002376Y017004D03*
D488*
X002376Y018338D03*
D489*
X002376Y019801D03*
D490*
X002369Y011901D03*
X002369Y008523D03*
D491*
X002369Y009814D03*
D492*
X002369Y010983D03*
X002369Y018338D03*
D493*
X002369Y020956D03*
X002369Y014741D03*
X002369Y012694D03*
D494*
X002369Y017004D03*
X002369Y019804D03*
D495*
X002362Y018338D03*
X002362Y017008D03*
X002362Y011905D03*
X002362Y010983D03*
X002362Y008527D03*
D496*
X002084Y009105D03*
X002362Y015926D03*
D497*
X002310Y007803D03*
D498*
X002303Y007800D03*
D499*
X002296Y007800D03*
D500*
X002289Y007796D03*
D501*
X002281Y007796D03*
D502*
X002274Y007796D03*
D503*
X002259Y007313D03*
D504*
X002259Y007789D03*
D505*
X002259Y016134D03*
D506*
X002252Y007781D03*
D507*
X002084Y007584D03*
X002252Y016138D03*
X002084Y016160D03*
D508*
X002237Y007770D03*
D509*
X002230Y007759D03*
X001872Y009134D03*
D510*
X002223Y007745D03*
D511*
X002223Y009086D03*
X002223Y014029D03*
D512*
X002223Y016141D03*
X002113Y016156D03*
X002128Y007558D03*
X002172Y007529D03*
D513*
X002215Y009086D03*
D514*
X002215Y014029D03*
D515*
X002208Y014029D03*
D516*
X002194Y014032D03*
X002194Y009090D03*
D517*
X002113Y007566D03*
X002186Y007522D03*
X002172Y016149D03*
X002018Y016171D03*
X002003Y016171D03*
D518*
X002186Y014032D03*
X001879Y009134D03*
X002186Y009090D03*
D519*
X002106Y007569D03*
X002120Y007562D03*
X002179Y007525D03*
X002179Y016145D03*
X002135Y016152D03*
X002025Y016167D03*
X001996Y016174D03*
X001981Y016174D03*
D520*
X002179Y014032D03*
X002179Y009090D03*
D521*
X002172Y009094D03*
X001894Y009130D03*
X002172Y014036D03*
X001894Y014072D03*
D522*
X002164Y014036D03*
X002164Y009094D03*
D523*
X002157Y009090D03*
D524*
X002157Y014032D03*
D525*
X002157Y016149D03*
D526*
X002150Y007544D03*
D527*
X002150Y009094D03*
X002150Y014036D03*
D528*
X002150Y016152D03*
X002040Y016167D03*
X001967Y016174D03*
X002077Y007591D03*
D529*
X002142Y007547D03*
X002142Y016152D03*
X002047Y016167D03*
X002033Y016167D03*
X001974Y016174D03*
D530*
X002084Y014047D03*
D531*
X002077Y009105D03*
D532*
X002077Y016160D03*
D533*
X002047Y007613D03*
D534*
X002047Y014050D03*
X002033Y014050D03*
D535*
X002040Y007620D03*
D536*
X002033Y007624D03*
D537*
X002025Y014050D03*
D538*
X002018Y007631D03*
D539*
X002011Y007628D03*
D540*
X002003Y007628D03*
D541*
X001996Y007628D03*
D542*
X001981Y007624D03*
D543*
X001967Y007617D03*
D544*
X001967Y014061D03*
D545*
X001960Y009119D03*
D546*
X001960Y014061D03*
D547*
X001908Y014069D03*
X001908Y009126D03*
D548*
X001901Y009126D03*
D549*
X001901Y014069D03*
D550*
X001886Y014072D03*
X001886Y009130D03*
D551*
X001879Y014076D03*
D552*
X001872Y014076D03*
D553*
X001865Y014076D03*
X001865Y009134D03*
D554*
X001857Y009134D03*
X001857Y014076D03*
D555*
X001850Y009134D03*
D556*
X001850Y014076D03*
D557*
X001843Y014076D03*
X001843Y009134D03*
D558*
X010024Y006610D03*
X010024Y006110D03*
X012624Y012410D03*
X018436Y008554D03*
X018817Y008114D03*
X018817Y007701D03*
X019217Y007701D03*
X018393Y007701D03*
X023324Y011710D03*
X024124Y016110D03*
X025824Y016110D03*
D559*
X024924Y015510D03*
X025074Y015110D03*
X023824Y012910D03*
X022724Y013910D03*
X025424Y012110D03*
X026624Y008710D03*
X026324Y008410D03*
X023324Y008510D03*
X018578Y002175D03*
X017979Y002174D03*
X016596Y005029D03*
X012474Y008010D03*
X010174Y008610D03*
X010074Y012110D03*
X009624Y012110D03*
X010424Y016510D03*
X016324Y012610D03*
X009224Y003910D03*
D560*
X010124Y015610D03*
D561*
X011124Y016410D03*
X012124Y017410D03*
X012624Y016910D03*
M02*
