%
M48
M72
T01C0.0118
T02C0.0150
T03C0.0157
T04C0.0197
T05C0.0360
T06C0.0520
T07C0.1260
%
T01
X11124Y16410
X12124Y17410
X12624Y16910
T02
X10424Y16510
X10074Y12110
X9624Y12110
X10174Y8610
X12474Y8010
X16596Y5029
X17979Y2174
X18578Y2175
X23324Y8510
X26324Y8410
X26624Y8710
X25424Y12110
X23824Y12910
X22724Y13910
X24924Y15510
X25074Y15110
X16324Y12610
X9224Y3910
T03
X10124Y15610
T04
X12624Y12410
X10024Y6610
X10024Y6110
X18393Y7701
X18817Y7701
X19217Y7701
X18817Y8114
X18436Y8554
X23324Y11710
X24124Y16110
X25824Y16110
T05
X30624Y15910
X30624Y14910
X30624Y13910
X30624Y12910
X30624Y11910
X30624Y10910
X30624Y9910
X30624Y8910
X30624Y7910
X30624Y16910
X30624Y17910
X30624Y18910
X30624Y19910
X30624Y20910
X19124Y15410
X18124Y15410
X18124Y13910
X19124Y13910
X16124Y11410
X15124Y11410
X15124Y9910
X16124Y9910
X14124Y21410
X13124Y21410
X12124Y21410
X11124Y21410
X10124Y21410
X9124Y21410
X8124Y21410
X7124Y21410
X6124Y21410
X5124Y21410
T06
X17681Y7883
X25555Y7883
T07
X2880Y3166
X2880Y26395
X34376Y26395
X34376Y3166
M30
