G75*
G70*
%OFA0B0*%
%FSLAX24Y24*%
%IPPOS*%
%LPD*%
%AMOC8*
5,1,8,0,0,1.08239X$1,22.5*
%
%ADD10C,0.0000*%
D10*
X001305Y000410D02*
X028076Y000410D01*
X028124Y000410D01*
X035943Y000410D01*
X036010Y000412D01*
X036076Y000417D01*
X036142Y000426D01*
X036207Y000439D01*
X036271Y000455D01*
X036335Y000475D01*
X036397Y000499D01*
X036458Y000526D01*
X036517Y000556D01*
X036574Y000590D01*
X036630Y000626D01*
X036683Y000666D01*
X036734Y000709D01*
X036782Y000754D01*
X036828Y000803D01*
X036871Y000853D01*
X036911Y000906D01*
X036948Y000961D01*
X036982Y001019D01*
X037013Y001077D01*
X037040Y001138D01*
X037064Y001200D01*
X037085Y001263D01*
X037101Y001328D01*
X037115Y001393D01*
X037124Y001459D01*
X037130Y001525D01*
X037132Y001591D01*
X037131Y001592D02*
X037131Y027781D01*
X037132Y027781D02*
X037135Y027850D01*
X037134Y027919D01*
X037130Y027988D01*
X037122Y028057D01*
X037110Y028125D01*
X037095Y028193D01*
X037076Y028259D01*
X037053Y028325D01*
X037027Y028389D01*
X036998Y028452D01*
X036965Y028513D01*
X036929Y028572D01*
X036889Y028629D01*
X036847Y028684D01*
X036802Y028736D01*
X036754Y028786D01*
X036703Y028833D01*
X036650Y028878D01*
X036595Y028919D01*
X036537Y028958D01*
X036477Y028993D01*
X036416Y029025D01*
X036353Y029054D01*
X036288Y029079D01*
X036222Y029100D01*
X036156Y029118D01*
X036088Y029133D01*
X036019Y029144D01*
X035950Y029151D01*
X009179Y029151D01*
X009124Y029151D01*
X001305Y029151D01*
X001236Y029144D01*
X001167Y029133D01*
X001099Y029118D01*
X001033Y029100D01*
X000967Y029079D01*
X000902Y029054D01*
X000839Y029025D01*
X000778Y028993D01*
X000718Y028958D01*
X000660Y028919D01*
X000605Y028878D01*
X000552Y028833D01*
X000501Y028786D01*
X000453Y028736D01*
X000408Y028684D01*
X000366Y028629D01*
X000326Y028572D01*
X000290Y028513D01*
X000257Y028452D01*
X000228Y028389D01*
X000202Y028325D01*
X000179Y028259D01*
X000160Y028193D01*
X000145Y028125D01*
X000133Y028057D01*
X000125Y027988D01*
X000121Y027919D01*
X000120Y027850D01*
X000123Y027781D01*
X000124Y027781D02*
X000124Y001592D01*
X000126Y001526D01*
X000131Y001460D01*
X000141Y001394D01*
X000154Y001329D01*
X000170Y001265D01*
X000190Y001202D01*
X000214Y001140D01*
X000241Y001080D01*
X000271Y001021D01*
X000305Y000964D01*
X000342Y000909D01*
X000382Y000856D01*
X000424Y000805D01*
X000470Y000757D01*
X000518Y000711D01*
X000569Y000669D01*
X000622Y000629D01*
X000677Y000592D01*
X000734Y000558D01*
X000793Y000528D01*
X000853Y000501D01*
X000915Y000477D01*
X000978Y000457D01*
X001042Y000441D01*
X001107Y000428D01*
X001173Y000418D01*
X001239Y000413D01*
X001305Y000411D01*
M02*
