G75*
G70*
%OFA0B0*%
%FSLAX24Y24*%
%IPPOS*%
%LPD*%
%AMOC8*
5,1,8,0,0,1.08239X$1,22.5*
%
%ADD10R,0.0513X0.0356*%
%ADD11R,0.0356X0.0513*%
%ADD12C,0.2380*%
%ADD13C,0.0860*%
%ADD14C,0.0740*%
%ADD15C,0.0437*%
%ADD16C,0.0390*%
%ADD17C,0.0397*%
%ADD18C,0.0358*%
D10*
X021911Y013188D03*
X021911Y013779D03*
X023971Y014900D03*
X023971Y015490D03*
X024608Y015012D03*
X024608Y014421D03*
D11*
X017746Y004990D03*
X017155Y004990D03*
D12*
X002880Y003166D03*
X002880Y026395D03*
X034376Y026395D03*
X034376Y003166D03*
D13*
X025555Y007883D03*
X017681Y007883D03*
D14*
X016124Y009910D03*
X015124Y009910D03*
X015124Y011410D03*
X016124Y011410D03*
X018124Y013910D03*
X019124Y013910D03*
X019124Y015410D03*
X018124Y015410D03*
X014124Y021410D03*
X013124Y021410D03*
X012124Y021410D03*
X011124Y021410D03*
X010124Y021410D03*
X009124Y021410D03*
X008124Y021410D03*
X007124Y021410D03*
X006124Y021410D03*
X005124Y021410D03*
X030624Y020910D03*
X030624Y019910D03*
X030624Y018910D03*
X030624Y017910D03*
X030624Y016910D03*
X030624Y015910D03*
X030624Y014910D03*
X030624Y013910D03*
X030624Y012910D03*
X030624Y011910D03*
X030624Y010910D03*
X030624Y009910D03*
X030624Y008910D03*
X030624Y007910D03*
D15*
X023324Y011710D03*
X019217Y007701D03*
X018817Y007701D03*
X018817Y008114D03*
X018436Y008554D03*
X018393Y007701D03*
X012624Y012410D03*
X010024Y006610D03*
X010024Y006110D03*
X024124Y016110D03*
X025824Y016110D03*
D16*
X024924Y015510D03*
X025074Y015110D03*
X023824Y012910D03*
X022724Y013910D03*
X025424Y012110D03*
X026624Y008710D03*
X026324Y008410D03*
X023324Y008510D03*
X018578Y002175D03*
X017979Y002174D03*
X016596Y005029D03*
X012474Y008010D03*
X010174Y008610D03*
X010074Y012110D03*
X009624Y012110D03*
X010424Y016510D03*
X016324Y012610D03*
X009224Y003910D03*
D17*
X010124Y015610D03*
D18*
X011124Y016410D03*
X012124Y017410D03*
X012624Y016910D03*
M02*
