G75*
G70*
%OFA0B0*%
%FSLAX24Y24*%
%IPPOS*%
%LPD*%
%AMOC8*
5,1,8,0,0,1.08239X$1,22.5*
%
%ADD10R,0.5000X1.0500*%
%ADD11R,2.3000X0.5000*%
%ADD12R,1.6000X0.8000*%
%ADD13R,0.8500X0.3000*%
%ADD14R,1.6000X0.4000*%
%ADD15R,0.6000X2.6500*%
%ADD16R,1.8000X2.2000*%
%ADD17R,0.4500X0.5500*%
%ADD18R,1.1000X1.7500*%
%ADD19R,1.5000X0.9000*%
%ADD20R,1.5500X1.1000*%
%ADD21R,1.0000X0.8000*%
%ADD22R,0.7500X0.1500*%
%ADD23R,0.3500X0.8500*%
%ADD24R,0.7500X0.1000*%
%ADD25R,1.4500X0.9000*%
%ADD26C,0.0040*%
%ADD27C,0.0157*%
%ADD28R,0.2047X0.2047*%
%ADD29R,0.0198X0.0631*%
%ADD30R,0.0631X0.0198*%
%ADD31R,0.0560X0.0316*%
%ADD32R,0.0513X0.0356*%
%ADD33R,0.0356X0.0513*%
%ADD34R,0.0789X0.0474*%
%ADD35R,0.0671X0.0789*%
%ADD36R,0.0150X0.0291*%
%ADD37R,0.0291X0.0150*%
%ADD38R,0.0630X0.0630*%
%ADD39R,0.0300X0.0604*%
%ADD40C,0.0966*%
%ADD41C,0.1084*%
%ADD42R,0.0749X0.1064*%
%ADD43R,0.1143X0.0395*%
%ADD44C,0.0493*%
%ADD45R,0.0336X0.0946*%
%ADD46R,0.0671X0.0356*%
%ADD47R,0.0631X0.0395*%
%ADD48R,0.0572X0.0320*%
%ADD49R,0.0789X0.0491*%
%ADD50C,0.0680*%
%ADD51C,0.2380*%
%ADD52R,0.0220X0.0710*%
%ADD53R,0.1285X0.0430*%
%ADD54R,0.3442X0.2186*%
%ADD55R,0.0474X0.0631*%
%ADD56R,0.0552X0.0986*%
%ADD57R,0.0356X0.0671*%
%ADD58R,0.0395X0.0395*%
%ADD59R,0.0189X0.0008*%
%ADD60R,0.0181X0.0008*%
%ADD61R,0.0173X0.0008*%
%ADD62R,0.0291X0.0008*%
%ADD63R,0.0283X0.0008*%
%ADD64R,0.0276X0.0008*%
%ADD65R,0.0370X0.0008*%
%ADD66R,0.0346X0.0008*%
%ADD67R,0.0433X0.0008*%
%ADD68R,0.0402X0.0008*%
%ADD69R,0.0480X0.0008*%
%ADD70R,0.0457X0.0008*%
%ADD71R,0.0449X0.0008*%
%ADD72R,0.0386X0.0008*%
%ADD73R,0.0520X0.0008*%
%ADD74R,0.0488X0.0008*%
%ADD75R,0.0496X0.0008*%
%ADD76R,0.0559X0.0008*%
%ADD77R,0.0528X0.0008*%
%ADD78R,0.0591X0.0008*%
%ADD79R,0.0567X0.0008*%
%ADD80R,0.0622X0.0008*%
%ADD81R,0.0598X0.0008*%
%ADD82R,0.0654X0.0008*%
%ADD83R,0.0685X0.0008*%
%ADD84R,0.0646X0.0008*%
%ADD85R,0.0701X0.0008*%
%ADD86R,0.0677X0.0008*%
%ADD87R,0.0732X0.0008*%
%ADD88R,0.0693X0.0008*%
%ADD89R,0.0748X0.0008*%
%ADD90R,0.0724X0.0008*%
%ADD91R,0.0717X0.0008*%
%ADD92R,0.0772X0.0008*%
%ADD93R,0.0740X0.0008*%
%ADD94R,0.0795X0.0008*%
%ADD95R,0.0756X0.0008*%
%ADD96R,0.0764X0.0008*%
%ADD97R,0.0811X0.0008*%
%ADD98R,0.0780X0.0008*%
%ADD99R,0.0827X0.0008*%
%ADD100R,0.0803X0.0008*%
%ADD101R,0.0843X0.0008*%
%ADD102R,0.0819X0.0008*%
%ADD103R,0.0858X0.0008*%
%ADD104R,0.0835X0.0008*%
%ADD105R,0.0874X0.0008*%
%ADD106R,0.0850X0.0008*%
%ADD107R,0.0890X0.0008*%
%ADD108R,0.0866X0.0008*%
%ADD109R,0.0906X0.0008*%
%ADD110R,0.0921X0.0008*%
%ADD111R,0.0937X0.0008*%
%ADD112R,0.0945X0.0008*%
%ADD113R,0.0913X0.0008*%
%ADD114R,0.0953X0.0008*%
%ADD115R,0.0929X0.0008*%
%ADD116R,0.0969X0.0008*%
%ADD117R,0.0976X0.0008*%
%ADD118R,0.0984X0.0008*%
%ADD119R,0.0961X0.0008*%
%ADD120R,0.1000X0.0008*%
%ADD121R,0.1008X0.0008*%
%ADD122R,0.1016X0.0008*%
%ADD123R,0.0992X0.0008*%
%ADD124R,0.1024X0.0008*%
%ADD125R,0.1031X0.0008*%
%ADD126R,0.1039X0.0008*%
%ADD127R,0.1047X0.0008*%
%ADD128R,0.1055X0.0008*%
%ADD129R,0.1063X0.0008*%
%ADD130R,0.1071X0.0008*%
%ADD131R,0.1079X0.0008*%
%ADD132R,0.1087X0.0008*%
%ADD133R,0.0465X0.0008*%
%ADD134R,0.0441X0.0008*%
%ADD135R,0.0425X0.0008*%
%ADD136R,0.0417X0.0008*%
%ADD137R,0.0409X0.0008*%
%ADD138R,0.0394X0.0008*%
%ADD139R,0.0378X0.0008*%
%ADD140R,0.0362X0.0008*%
%ADD141R,0.0354X0.0008*%
%ADD142R,0.0299X0.0008*%
%ADD143R,0.0236X0.0008*%
%ADD144R,0.0244X0.0008*%
%ADD145R,0.0134X0.0008*%
%ADD146R,0.0126X0.0008*%
%ADD147R,0.0079X0.0008*%
%ADD148R,0.0071X0.0008*%
%ADD149R,0.0024X0.0008*%
%ADD150R,0.0016X0.0008*%
%ADD151R,0.0087X0.0008*%
%ADD152R,0.0472X0.0008*%
%ADD153R,0.0039X0.0008*%
%ADD154R,0.0165X0.0008*%
%ADD155R,0.0118X0.0008*%
%ADD156R,0.0031X0.0008*%
%ADD157R,0.0008X0.0008*%
%ADD158R,0.0504X0.0008*%
%ADD159R,0.0512X0.0008*%
%ADD160R,0.0063X0.0008*%
%ADD161R,0.0197X0.0008*%
%ADD162R,0.0213X0.0008*%
%ADD163R,0.0339X0.0008*%
%ADD164R,0.0535X0.0008*%
%ADD165R,0.0307X0.0008*%
%ADD166R,0.0543X0.0008*%
%ADD167R,0.0551X0.0008*%
%ADD168R,0.0157X0.0008*%
%ADD169R,0.0142X0.0008*%
%ADD170R,0.0150X0.0008*%
%ADD171R,0.0102X0.0008*%
%ADD172R,0.0094X0.0008*%
%ADD173R,0.0315X0.0008*%
%ADD174R,0.0323X0.0008*%
%ADD175R,0.0575X0.0008*%
%ADD176R,0.0220X0.0008*%
%ADD177R,0.0228X0.0008*%
%ADD178R,0.0205X0.0008*%
%ADD179R,0.0047X0.0008*%
%ADD180R,0.0331X0.0008*%
%ADD181R,0.0110X0.0008*%
%ADD182R,0.0055X0.0008*%
%ADD183R,0.0268X0.0008*%
%ADD184R,0.0898X0.0008*%
%ADD185R,0.0882X0.0008*%
%ADD186R,0.0661X0.0008*%
%ADD187R,0.0669X0.0008*%
%ADD188R,0.0638X0.0008*%
%ADD189R,0.0630X0.0008*%
%ADD190R,0.0606X0.0008*%
%ADD191R,0.0454X0.0222*%
%ADD192R,0.0245X0.0592*%
%ADD193C,0.0611*%
%ADD194R,0.0631X0.0828*%
%ADD195R,0.0631X0.0789*%
%ADD196R,0.0867X0.0474*%
%ADD197C,0.0740*%
%ADD198C,0.0930*%
%ADD199R,0.1480X0.0671*%
%ADD200C,0.0820*%
%ADD201C,0.0337*%
%ADD202C,0.0434*%
%ADD203C,0.0377*%
%ADD204C,0.0298*%
%ADD205C,0.0671*%
D10*
X011620Y032239D03*
D11*
X025620Y024989D03*
D12*
X029120Y030489D03*
D13*
X017870Y035989D03*
D14*
X029120Y035489D03*
D15*
X003120Y013739D03*
D16*
X009120Y011489D03*
D17*
X012370Y024239D03*
D18*
X022620Y009239D03*
D19*
X029620Y018989D03*
D20*
X029370Y009989D03*
D21*
X032120Y006489D03*
D22*
X018370Y027239D03*
D23*
X022370Y030739D03*
D24*
X017870Y034489D03*
D25*
X007370Y030989D03*
D26*
X010514Y014228D02*
X010438Y014151D01*
X010438Y013921D01*
X010898Y013921D01*
X010898Y014151D01*
X010821Y014228D01*
X010514Y014228D01*
X010438Y013768D02*
X010898Y013768D01*
X010438Y013461D01*
X010898Y013461D01*
X010821Y013307D02*
X010668Y013307D01*
X010668Y013154D01*
X010821Y013307D02*
X010898Y013231D01*
X010898Y013077D01*
X010821Y013000D01*
X010514Y013000D01*
X010438Y013077D01*
X010438Y013231D01*
X010514Y013307D01*
X024889Y034759D02*
X024889Y034989D01*
X024966Y035066D01*
X025119Y035066D01*
X025196Y034989D01*
X025196Y034759D01*
X025196Y034913D02*
X025350Y035066D01*
X025350Y035220D02*
X024889Y035527D01*
X024889Y035680D02*
X024889Y035910D01*
X024966Y035987D01*
X025273Y035987D01*
X025350Y035910D01*
X025350Y035680D01*
X024889Y035680D01*
X024889Y035220D02*
X025350Y035527D01*
X025889Y035527D02*
X026350Y035220D01*
X026350Y035527D02*
X025889Y035220D01*
X025889Y035066D02*
X025889Y034759D01*
X025889Y034913D02*
X026350Y034913D01*
X026889Y034989D02*
X026889Y034836D01*
X026966Y034759D01*
X027273Y034759D01*
X027350Y034836D01*
X027350Y034989D01*
X027273Y035066D01*
X027119Y035066D01*
X027119Y034913D01*
X026966Y035066D02*
X026889Y034989D01*
X026889Y035220D02*
X027350Y035527D01*
X026889Y035527D01*
X026889Y035680D02*
X026889Y035910D01*
X026966Y035987D01*
X027273Y035987D01*
X027350Y035910D01*
X027350Y035680D01*
X026889Y035680D01*
X026889Y035220D02*
X027350Y035220D01*
X026350Y035680D02*
X026350Y035910D01*
X026273Y035987D01*
X025966Y035987D01*
X025889Y035910D01*
X025889Y035680D01*
X026350Y035680D01*
X025350Y034759D02*
X024889Y034759D01*
X035389Y030910D02*
X035389Y030680D01*
X035850Y030680D01*
X035850Y030910D01*
X035773Y030987D01*
X035466Y030987D01*
X035389Y030910D01*
X035389Y030527D02*
X035850Y030527D01*
X035389Y030220D01*
X035850Y030220D01*
X035773Y030066D02*
X035619Y030066D01*
X035619Y029913D01*
X035466Y030066D02*
X035389Y029989D01*
X035389Y029836D01*
X035466Y029759D01*
X035773Y029759D01*
X035850Y029836D01*
X035850Y029989D01*
X035773Y030066D01*
X035773Y026822D02*
X035850Y026746D01*
X035850Y026592D01*
X035773Y026515D01*
X035773Y026362D02*
X035389Y026362D01*
X035466Y026515D02*
X035543Y026515D01*
X035619Y026592D01*
X035619Y026746D01*
X035696Y026822D01*
X035773Y026822D01*
X035466Y026822D02*
X035389Y026746D01*
X035389Y026592D01*
X035466Y026515D01*
X035773Y026362D02*
X035850Y026285D01*
X035850Y026132D01*
X035773Y026055D01*
X035389Y026055D01*
X035466Y025902D02*
X035543Y025902D01*
X035619Y025825D01*
X035619Y025595D01*
X035696Y025441D02*
X035389Y025441D01*
X035389Y025595D02*
X035389Y025825D01*
X035466Y025902D01*
X035619Y025825D02*
X035696Y025902D01*
X035773Y025902D01*
X035850Y025825D01*
X035850Y025595D01*
X035389Y025595D01*
X035696Y025441D02*
X035850Y025288D01*
X035696Y025134D01*
X035389Y025134D01*
X035466Y018487D02*
X035389Y018410D01*
X035389Y018180D01*
X035850Y018180D01*
X035850Y018410D01*
X035773Y018487D01*
X035466Y018487D01*
X035389Y018027D02*
X035850Y018027D01*
X035389Y017720D01*
X035850Y017720D01*
X035773Y017566D02*
X035619Y017566D01*
X035619Y017413D01*
X035466Y017566D02*
X035389Y017489D01*
X035389Y017336D01*
X035466Y017259D01*
X035773Y017259D01*
X035850Y017336D01*
X035850Y017489D01*
X035773Y017566D01*
X035850Y016737D02*
X035850Y016430D01*
X035389Y016430D01*
X035466Y016277D02*
X035389Y016200D01*
X035389Y016046D01*
X035466Y015970D01*
X035773Y015970D01*
X035850Y016046D01*
X035850Y016200D01*
X035773Y016277D01*
X035773Y015816D02*
X035850Y015739D01*
X035850Y015586D01*
X035773Y015509D01*
X035619Y015586D02*
X035619Y015739D01*
X035696Y015816D01*
X035773Y015816D01*
X035619Y015586D02*
X035543Y015509D01*
X035466Y015509D01*
X035389Y015586D01*
X035389Y015739D01*
X035466Y015816D01*
X035543Y014862D02*
X035389Y014708D01*
X035543Y014555D01*
X035850Y014555D01*
X035773Y014402D02*
X035466Y014402D01*
X035389Y014325D01*
X035389Y014095D01*
X035850Y014095D01*
X035850Y014325D01*
X035773Y014402D01*
X035619Y014555D02*
X035619Y014862D01*
X035543Y014862D02*
X035850Y014862D01*
X035773Y013941D02*
X035850Y013864D01*
X035850Y013711D01*
X035773Y013634D01*
X035619Y013711D02*
X035619Y013864D01*
X035696Y013941D01*
X035773Y013941D01*
X035619Y013711D02*
X035543Y013634D01*
X035466Y013634D01*
X035389Y013711D01*
X035389Y013864D01*
X035466Y013941D01*
D27*
X021655Y019103D02*
X021340Y019103D01*
X021340Y019300D02*
X021655Y019300D01*
X021655Y019497D02*
X021340Y019497D01*
X021340Y019694D02*
X021655Y019694D01*
X021655Y019891D02*
X021340Y019891D01*
X021340Y020088D02*
X021655Y020088D01*
X021655Y020284D02*
X021340Y020284D01*
X021340Y020481D02*
X021655Y020481D01*
X021655Y020678D02*
X021340Y020678D01*
X021340Y020875D02*
X021655Y020875D01*
X021527Y021072D02*
X021370Y021072D01*
X021202Y021239D02*
X021202Y021397D01*
X021006Y021525D02*
X021006Y021210D01*
X020809Y021210D02*
X020809Y021525D01*
X020612Y021525D02*
X020612Y021210D01*
X020415Y021210D02*
X020415Y021525D01*
X020218Y021525D02*
X020218Y021210D01*
X020021Y021210D02*
X020021Y021525D01*
X019824Y021525D02*
X019824Y021210D01*
X019628Y021210D02*
X019628Y021525D01*
X019431Y021525D02*
X019431Y021210D01*
X019234Y021210D02*
X019234Y021525D01*
X019037Y021397D02*
X019037Y021239D01*
X018870Y021072D02*
X018712Y021072D01*
X018584Y020875D02*
X018899Y020875D01*
X018899Y020678D02*
X018584Y020678D01*
X018584Y020481D02*
X018899Y020481D01*
X018899Y020284D02*
X018584Y020284D01*
X018584Y020088D02*
X018899Y020088D01*
X018899Y019891D02*
X018584Y019891D01*
X018584Y019694D02*
X018899Y019694D01*
X018899Y019497D02*
X018584Y019497D01*
X018584Y019300D02*
X018899Y019300D01*
X018899Y019103D02*
X018584Y019103D01*
X018712Y018907D02*
X018870Y018907D01*
X019037Y018739D02*
X019037Y018582D01*
X019234Y018454D02*
X019234Y018769D01*
X019431Y018769D02*
X019431Y018454D01*
X019628Y018454D02*
X019628Y018769D01*
X019824Y018769D02*
X019824Y018454D01*
X020021Y018454D02*
X020021Y018769D01*
X020218Y018769D02*
X020218Y018454D01*
X020415Y018454D02*
X020415Y018769D01*
X020612Y018769D02*
X020612Y018454D01*
X020809Y018454D02*
X020809Y018769D01*
X021006Y018769D02*
X021006Y018454D01*
X021202Y018582D02*
X021202Y018739D01*
X021370Y018907D02*
X021488Y018907D01*
X009655Y023603D02*
X009340Y023603D01*
X009340Y023800D02*
X009655Y023800D01*
X009655Y023997D02*
X009340Y023997D01*
X009340Y024194D02*
X009655Y024194D01*
X009655Y024391D02*
X009340Y024391D01*
X009340Y024588D02*
X009655Y024588D01*
X009655Y024784D02*
X009340Y024784D01*
X009340Y024981D02*
X009655Y024981D01*
X009655Y025178D02*
X009340Y025178D01*
X009340Y025375D02*
X009655Y025375D01*
X009527Y025572D02*
X009370Y025572D01*
X009202Y025739D02*
X009202Y025897D01*
X009006Y026025D02*
X009006Y025710D01*
X008809Y025710D02*
X008809Y026025D01*
X008612Y026025D02*
X008612Y025710D01*
X008415Y025710D02*
X008415Y026025D01*
X008218Y026025D02*
X008218Y025710D01*
X008021Y025710D02*
X008021Y026025D01*
X007824Y026025D02*
X007824Y025710D01*
X007628Y025710D02*
X007628Y026025D01*
X007431Y026025D02*
X007431Y025710D01*
X007234Y025710D02*
X007234Y026025D01*
X007037Y025897D02*
X007037Y025739D01*
X006870Y025572D02*
X006712Y025572D01*
X006584Y025375D02*
X006899Y025375D01*
X006899Y025178D02*
X006584Y025178D01*
X006584Y024981D02*
X006899Y024981D01*
X006899Y024784D02*
X006584Y024784D01*
X006584Y024588D02*
X006899Y024588D01*
X006899Y024391D02*
X006584Y024391D01*
X006584Y024194D02*
X006899Y024194D01*
X006899Y023997D02*
X006584Y023997D01*
X006584Y023800D02*
X006899Y023800D01*
X006899Y023603D02*
X006584Y023603D01*
X006712Y023407D02*
X006870Y023407D01*
X007037Y023239D02*
X007037Y023082D01*
X007234Y022954D02*
X007234Y023269D01*
X007431Y023269D02*
X007431Y022954D01*
X007628Y022954D02*
X007628Y023269D01*
X007824Y023269D02*
X007824Y022954D01*
X008021Y022954D02*
X008021Y023269D01*
X008218Y023269D02*
X008218Y022954D01*
X008415Y022954D02*
X008415Y023269D01*
X008612Y023269D02*
X008612Y022954D01*
X008809Y022954D02*
X008809Y023269D01*
X009006Y023269D02*
X009006Y022954D01*
X009202Y023082D02*
X009202Y023239D01*
X009370Y023407D02*
X009488Y023407D01*
D28*
X008120Y024489D03*
X020120Y019989D03*
D29*
X019096Y028706D03*
X018899Y028706D03*
X018702Y028706D03*
X018506Y028706D03*
X018309Y028706D03*
X018112Y028706D03*
X017915Y028706D03*
X017718Y028706D03*
X017521Y028706D03*
X017324Y028706D03*
X017128Y028706D03*
X016931Y028706D03*
X016734Y028706D03*
X016537Y028706D03*
X016340Y028706D03*
X016143Y028706D03*
X016143Y033273D03*
X016340Y033273D03*
X016537Y033273D03*
X016734Y033273D03*
X016931Y033273D03*
X017128Y033273D03*
X017324Y033273D03*
X017521Y033273D03*
X017718Y033273D03*
X017915Y033273D03*
X018112Y033273D03*
X018309Y033273D03*
X018506Y033273D03*
X018702Y033273D03*
X018899Y033273D03*
X019096Y033273D03*
D30*
X019903Y032466D03*
X019903Y032269D03*
X019903Y032072D03*
X019903Y031875D03*
X019903Y031678D03*
X019903Y031481D03*
X019903Y031284D03*
X019903Y031088D03*
X019903Y030891D03*
X019903Y030694D03*
X019903Y030497D03*
X019903Y030300D03*
X019903Y030103D03*
X019903Y029907D03*
X019903Y029710D03*
X019903Y029513D03*
X015336Y029513D03*
X015336Y029710D03*
X015336Y029907D03*
X015336Y030103D03*
X015336Y030300D03*
X015336Y030497D03*
X015336Y030694D03*
X015336Y030891D03*
X015336Y031088D03*
X015336Y031284D03*
X015336Y031481D03*
X015336Y031678D03*
X015336Y031875D03*
X015336Y032072D03*
X015336Y032269D03*
X015336Y032466D03*
D31*
X022483Y034115D03*
X022483Y034489D03*
X022483Y034863D03*
X023506Y034863D03*
X023506Y034115D03*
X023358Y008113D03*
X023358Y007365D03*
X024381Y007365D03*
X024381Y007739D03*
X024381Y008113D03*
D32*
X023120Y008694D03*
X023120Y009284D03*
X024620Y010569D03*
X024620Y011159D03*
X024620Y011694D03*
X024620Y012284D03*
X025370Y012069D03*
X025370Y011534D03*
X025370Y010944D03*
X025370Y012659D03*
X019620Y013569D03*
X019620Y014159D03*
X019620Y014819D03*
X019620Y015409D03*
X019620Y016069D03*
X019620Y016659D03*
X018120Y016784D03*
X018120Y016194D03*
X017495Y016194D03*
X017495Y016784D03*
X016870Y016784D03*
X016870Y016194D03*
X016245Y016194D03*
X016245Y016784D03*
X016495Y018444D03*
X017056Y018444D03*
X017056Y019034D03*
X016495Y019034D03*
X016495Y019506D03*
X017056Y019506D03*
X017056Y020097D03*
X016495Y020097D03*
X015870Y020097D03*
X015870Y019506D03*
X015120Y019784D03*
X015120Y019194D03*
X017620Y021194D03*
X017620Y021784D03*
X018870Y023194D03*
X018870Y023784D03*
X018620Y024444D03*
X018620Y025034D03*
X019620Y023159D03*
X020120Y023159D03*
X020120Y022569D03*
X019620Y022569D03*
X022870Y022444D03*
X022870Y023034D03*
X027120Y019409D03*
X027120Y018819D03*
X028245Y023756D03*
X028245Y024347D03*
X030995Y029194D03*
X030995Y029784D03*
X023120Y030694D03*
X023120Y031284D03*
X021870Y032944D03*
X021870Y033534D03*
X021870Y034194D03*
X021870Y034784D03*
X020432Y034409D03*
X020432Y033819D03*
X019682Y033819D03*
X019682Y034409D03*
X015620Y034284D03*
X015620Y033694D03*
X014495Y032534D03*
X014495Y031944D03*
X010495Y030909D03*
X010495Y030319D03*
X008620Y028034D03*
X008120Y028034D03*
X008120Y027444D03*
X008620Y027444D03*
X007245Y027409D03*
X007245Y026819D03*
X006870Y027944D03*
X006870Y028534D03*
X005745Y026159D03*
X005745Y025569D03*
X005120Y024034D03*
X005120Y023444D03*
X005120Y022909D03*
X004495Y022909D03*
X004495Y023444D03*
X004495Y024034D03*
X003870Y024034D03*
X003870Y023444D03*
X002995Y023659D03*
X002995Y023069D03*
X004495Y022319D03*
X005120Y022319D03*
X005870Y022694D03*
X005870Y023284D03*
X006245Y021159D03*
X006245Y020569D03*
X006870Y020569D03*
X006870Y021159D03*
X007870Y020409D03*
X007870Y019819D03*
X007870Y019284D03*
X007870Y018694D03*
X007870Y018159D03*
X007870Y017569D03*
X007120Y015034D03*
X007120Y014444D03*
X007120Y013909D03*
X007120Y013319D03*
X007120Y010784D03*
X007120Y010194D03*
X007120Y009659D03*
X007120Y009069D03*
X007120Y007659D03*
X007120Y007069D03*
X009245Y005534D03*
X009245Y004944D03*
X010370Y004944D03*
X010370Y005534D03*
X011370Y005534D03*
X011370Y004944D03*
X012182Y004944D03*
X012182Y005534D03*
X012932Y005534D03*
X012932Y004944D03*
X015745Y003159D03*
X015745Y002569D03*
X016370Y002569D03*
X016995Y002569D03*
X016995Y003159D03*
X016370Y003159D03*
X016307Y004069D03*
X016307Y004659D03*
X016932Y004659D03*
X016932Y004069D03*
X017682Y004756D03*
X017682Y005347D03*
X016620Y007569D03*
X016620Y008159D03*
X011995Y011694D03*
X011995Y012284D03*
X011370Y012284D03*
X011370Y011694D03*
X010745Y011694D03*
X010745Y012284D03*
X018057Y018194D03*
X018057Y018784D03*
X017745Y003159D03*
X017745Y002569D03*
D33*
X014102Y003614D03*
X013512Y003614D03*
X013512Y004302D03*
X014102Y004302D03*
X013415Y006239D03*
X012824Y006239D03*
X012290Y006239D03*
X011699Y006239D03*
X011165Y006239D03*
X010574Y006239D03*
X010040Y006239D03*
X009449Y006239D03*
X005540Y008364D03*
X004949Y008364D03*
X005824Y009989D03*
X006415Y009989D03*
X006415Y010864D03*
X005824Y010864D03*
X006574Y018489D03*
X007165Y018489D03*
X007165Y019489D03*
X006574Y019489D03*
X007824Y021239D03*
X008415Y021239D03*
X008949Y021239D03*
X009540Y021239D03*
X010574Y021114D03*
X011165Y021114D03*
X011324Y021739D03*
X011915Y021739D03*
X011165Y022364D03*
X010574Y022364D03*
X010574Y022989D03*
X011165Y022989D03*
X015699Y021489D03*
X016290Y021489D03*
X016290Y020864D03*
X015699Y020864D03*
X016199Y017614D03*
X016790Y017614D03*
X017324Y017614D03*
X017915Y017614D03*
X018949Y017364D03*
X019540Y017364D03*
X018915Y015489D03*
X018324Y015489D03*
X018324Y014489D03*
X018915Y014489D03*
X018915Y013489D03*
X018324Y013489D03*
X016665Y012114D03*
X016074Y012114D03*
X016074Y011427D03*
X016665Y011427D03*
X015977Y008489D03*
X015387Y008489D03*
X018387Y006302D03*
X018977Y006302D03*
X018950Y008364D03*
X019541Y008364D03*
X021949Y008864D03*
X022540Y008864D03*
X022540Y009864D03*
X022949Y009864D03*
X023540Y009864D03*
X021949Y009864D03*
X023449Y006739D03*
X024040Y006739D03*
X024949Y013239D03*
X025540Y013239D03*
X022290Y016239D03*
X021699Y016239D03*
X022574Y016864D03*
X022290Y017489D03*
X021699Y017489D03*
X021699Y018114D03*
X022290Y018114D03*
X023165Y016864D03*
X025824Y019114D03*
X026415Y019114D03*
X027324Y021364D03*
X027915Y021364D03*
X028824Y021989D03*
X029415Y021989D03*
X028040Y024864D03*
X027449Y024864D03*
X029824Y026239D03*
X030415Y026239D03*
X030415Y027239D03*
X029824Y027239D03*
X029824Y031552D03*
X030415Y031552D03*
X030449Y035114D03*
X031040Y035114D03*
X023540Y028114D03*
X022949Y028114D03*
X022290Y028114D03*
X021699Y028114D03*
X021699Y027364D03*
X022290Y027364D03*
X022949Y027364D03*
X023540Y027364D03*
X023040Y026052D03*
X022449Y026052D03*
X017415Y025302D03*
X016824Y025302D03*
X012665Y030489D03*
X012074Y030489D03*
X012074Y031489D03*
X012665Y031489D03*
X011040Y029739D03*
X010449Y029739D03*
X014449Y033114D03*
X015040Y033114D03*
X010727Y034177D03*
X010137Y034177D03*
X005540Y029239D03*
X004949Y029239D03*
X004665Y025489D03*
X004074Y025489D03*
X004324Y024739D03*
X004915Y024739D03*
X004699Y021739D03*
X004165Y021739D03*
X003574Y021739D03*
X005290Y021739D03*
D34*
X013370Y030497D03*
X013370Y031481D03*
D35*
X016588Y024316D03*
X017651Y024316D03*
X017651Y022662D03*
X016588Y022662D03*
X005776Y026787D03*
X004713Y026787D03*
X004713Y028441D03*
X005776Y028441D03*
D36*
X016199Y006751D03*
X016396Y006751D03*
X016593Y006751D03*
X016790Y006751D03*
X016790Y005727D03*
X016593Y005727D03*
X016396Y005727D03*
X016199Y005727D03*
D37*
X015983Y005944D03*
X015983Y006141D03*
X015983Y006338D03*
X015983Y006534D03*
X017006Y006534D03*
X017006Y006338D03*
X017006Y006141D03*
X017006Y005944D03*
D38*
X016495Y006239D03*
D39*
X007869Y015642D03*
X007495Y015642D03*
X007121Y015642D03*
X007121Y016587D03*
X007495Y016587D03*
X007869Y016587D03*
D40*
X003245Y008364D03*
D41*
X004245Y007364D03*
X004245Y009364D03*
X002245Y009364D03*
X002245Y007364D03*
D42*
X012707Y002614D03*
X014282Y002614D03*
X015145Y013114D03*
X016720Y013114D03*
D43*
X014745Y006172D03*
X014745Y005306D03*
D44*
X012120Y034864D03*
X011620Y034864D03*
X011120Y034864D03*
X010620Y034864D03*
X010120Y034864D03*
X010120Y036864D03*
X010620Y036864D03*
X011120Y036864D03*
X011620Y036864D03*
X012120Y036864D03*
D45*
X028870Y030388D03*
X029370Y030388D03*
X029870Y030388D03*
X030370Y030388D03*
X030370Y028341D03*
X029870Y028341D03*
X029370Y028341D03*
X028870Y028341D03*
D46*
X023370Y024301D03*
X023370Y023553D03*
X006120Y017488D03*
X006120Y016740D03*
D47*
X005120Y016754D03*
X005120Y017974D03*
D48*
X006756Y011989D03*
X007484Y011989D03*
D49*
X007120Y011330D03*
X007120Y012649D03*
D50*
X033084Y012493D03*
X033084Y011493D03*
X033084Y010493D03*
X033084Y009493D03*
X033084Y008493D03*
X033084Y007493D03*
X033084Y006493D03*
X034084Y006493D03*
X034084Y007493D03*
X034084Y008493D03*
X034084Y009493D03*
X034084Y010493D03*
X034084Y011493D03*
X034084Y012493D03*
X034084Y013493D03*
X034084Y014493D03*
X033084Y014493D03*
X033084Y013493D03*
X033084Y015493D03*
X033084Y016493D03*
X033084Y017493D03*
X033084Y018493D03*
X033084Y019493D03*
X033084Y020493D03*
X033084Y021493D03*
X033084Y022493D03*
X033084Y023493D03*
X033084Y024493D03*
X033084Y025493D03*
X033084Y026493D03*
X033084Y027493D03*
X033084Y028493D03*
X033084Y029493D03*
X033084Y030493D03*
X033084Y031493D03*
X034084Y031493D03*
X034084Y030493D03*
X034084Y029493D03*
X034084Y028493D03*
X034084Y027493D03*
X034084Y026493D03*
X034084Y025493D03*
X034084Y024493D03*
X034084Y023493D03*
X034084Y022493D03*
X034084Y021493D03*
X034084Y020493D03*
X034084Y019493D03*
X034084Y018493D03*
X034084Y017493D03*
X034084Y016493D03*
X034084Y015493D03*
D51*
X003663Y004032D03*
X033584Y004032D03*
X033584Y033954D03*
X003663Y033954D03*
D52*
X027745Y020532D03*
X027995Y020532D03*
X028245Y020532D03*
X028495Y020532D03*
X028745Y020532D03*
X028995Y020532D03*
X029245Y020532D03*
X029495Y020532D03*
X029495Y018446D03*
X029245Y018446D03*
X028995Y018446D03*
X028745Y018446D03*
X028495Y018446D03*
X028245Y018446D03*
X027995Y018446D03*
X027745Y018446D03*
D53*
X026620Y013989D03*
X026620Y013489D03*
X026620Y012989D03*
X026620Y012489D03*
X026620Y011989D03*
X026620Y011489D03*
X026620Y010989D03*
D54*
X029496Y012489D03*
D55*
X027870Y022181D03*
X028244Y023047D03*
X027496Y023047D03*
X029870Y033306D03*
X030244Y034172D03*
X029496Y034172D03*
D56*
X023375Y025114D03*
X022115Y025114D03*
X027177Y016489D03*
X027177Y015302D03*
X028437Y015302D03*
X028437Y016489D03*
X028437Y008864D03*
X027177Y008864D03*
X027177Y007614D03*
X028437Y007614D03*
D57*
X028181Y009927D03*
X027433Y009927D03*
D58*
X020432Y034881D03*
X020432Y035472D03*
X019682Y035472D03*
X019682Y034881D03*
D59*
X009778Y031903D03*
X009486Y032989D03*
X008368Y032351D03*
X007014Y032351D03*
X005699Y031903D03*
X005502Y031973D03*
D60*
X005498Y031729D03*
X005703Y031792D03*
X008065Y032989D03*
X008994Y032029D03*
X008994Y031674D03*
X009971Y031973D03*
D61*
X009975Y031729D03*
X009770Y031777D03*
X009770Y031792D03*
X009203Y031611D03*
X009203Y032092D03*
X006715Y032989D03*
X005707Y031926D03*
X005707Y031918D03*
X005707Y031910D03*
X005707Y031784D03*
X005707Y031777D03*
D62*
X005648Y031855D03*
X005553Y031698D03*
X008419Y032367D03*
X009482Y032981D03*
X009829Y031863D03*
X009829Y031847D03*
D63*
X009825Y031855D03*
X009919Y031698D03*
X009148Y031603D03*
X008061Y032981D03*
X006352Y032099D03*
X005549Y031997D03*
X005549Y031989D03*
X005549Y031981D03*
X005549Y031721D03*
X005549Y031714D03*
X005549Y031706D03*
D64*
X006711Y032981D03*
X009152Y032099D03*
X009923Y031997D03*
X009923Y031989D03*
X009923Y031981D03*
X009923Y031721D03*
X009923Y031714D03*
X009923Y031706D03*
D65*
X009482Y032973D03*
X008451Y032422D03*
X007663Y032517D03*
X007663Y032525D03*
X007663Y032532D03*
X007656Y032493D03*
X007656Y032485D03*
X007656Y032477D03*
X007656Y032469D03*
X007656Y032462D03*
X007656Y032454D03*
X007656Y032446D03*
X007656Y032438D03*
X007656Y032430D03*
X007656Y032422D03*
X007656Y032414D03*
X007656Y032407D03*
X007104Y032399D03*
X007104Y032391D03*
X007104Y032383D03*
X006309Y032383D03*
X006309Y032391D03*
X006309Y032399D03*
X006309Y032407D03*
X006309Y032414D03*
X006309Y032422D03*
X006309Y032493D03*
X006309Y032501D03*
X006309Y032509D03*
X006309Y032517D03*
X006309Y032525D03*
X006317Y032532D03*
X006317Y032540D03*
X007065Y031351D03*
X007065Y031344D03*
X007065Y031336D03*
X007065Y031328D03*
X007073Y031312D03*
X007073Y031304D03*
X007073Y031296D03*
X007073Y031288D03*
X007073Y031281D03*
X007073Y031273D03*
X007073Y031265D03*
X007073Y031257D03*
X007073Y031249D03*
X007073Y031241D03*
X007065Y031218D03*
X007065Y031210D03*
X007065Y031202D03*
X007065Y031194D03*
X006687Y030753D03*
X006333Y031225D03*
X006325Y031257D03*
X006325Y031265D03*
X007679Y031265D03*
X007679Y031257D03*
X007679Y031249D03*
X007679Y031241D03*
X008412Y031186D03*
X008419Y031210D03*
X008419Y031218D03*
X008419Y031225D03*
X008419Y031233D03*
X008419Y031241D03*
X008419Y031249D03*
X008419Y031257D03*
X008419Y031265D03*
X008419Y031296D03*
X008419Y031304D03*
X008419Y031312D03*
X008419Y031320D03*
X008419Y031328D03*
X008419Y031336D03*
D66*
X007691Y031273D03*
X008447Y032375D03*
X008061Y032973D03*
X006707Y032973D03*
D67*
X007026Y032619D03*
X007034Y032611D03*
X006364Y032627D03*
X006372Y032210D03*
X006380Y032202D03*
X007002Y031509D03*
X007018Y031092D03*
X006396Y031092D03*
X006388Y031099D03*
X007726Y032202D03*
X007719Y032218D03*
X008380Y032619D03*
X009144Y032627D03*
X009482Y032966D03*
X009821Y032627D03*
X009144Y031099D03*
X008356Y031501D03*
X008349Y031509D03*
X008349Y031517D03*
X008041Y030761D03*
D68*
X007719Y031131D03*
X007711Y031139D03*
X007041Y031123D03*
X007034Y031115D03*
X007041Y031430D03*
X007041Y031438D03*
X007034Y031446D03*
X006923Y031572D03*
X006364Y031139D03*
X006364Y031131D03*
X006341Y032273D03*
X006341Y032281D03*
X006333Y032288D03*
X006333Y032296D03*
X006341Y032595D03*
X006703Y032966D03*
X007057Y032572D03*
X007065Y032556D03*
X007695Y032603D03*
X007687Y032288D03*
X007687Y032281D03*
X007695Y032265D03*
X008412Y032556D03*
X008412Y032564D03*
X008419Y032548D03*
X008057Y032966D03*
X009112Y032572D03*
X009112Y032564D03*
X009120Y032580D03*
X009120Y032588D03*
X009845Y032588D03*
X009852Y032580D03*
X009852Y032572D03*
X008388Y031438D03*
X008388Y031123D03*
X008388Y031115D03*
X009112Y031155D03*
X009120Y031139D03*
X009482Y030753D03*
X009845Y031131D03*
X009845Y031139D03*
X009852Y031147D03*
X009852Y031155D03*
D69*
X009789Y032651D03*
X009482Y032958D03*
X009175Y032651D03*
X008341Y032651D03*
X007750Y032651D03*
X006994Y032651D03*
D70*
X007014Y032635D03*
X006415Y032147D03*
X006408Y032155D03*
X006384Y032643D03*
X006975Y031548D03*
X006998Y031076D03*
X007762Y032155D03*
X007754Y032162D03*
X008321Y031556D03*
X008329Y031548D03*
X009163Y032643D03*
X009801Y032643D03*
X009809Y031084D03*
X008053Y032958D03*
D71*
X008364Y032635D03*
X008372Y032627D03*
X007750Y032170D03*
X007742Y032178D03*
X008333Y031540D03*
X007750Y031084D03*
X006986Y031532D03*
X006978Y031540D03*
X006923Y031658D03*
X006404Y031084D03*
X006427Y032107D03*
X006404Y032162D03*
X006396Y032170D03*
X006703Y032958D03*
X009152Y032635D03*
X009813Y032635D03*
X009160Y031084D03*
X009482Y030761D03*
D72*
X009860Y031178D03*
X009868Y031210D03*
X009868Y031218D03*
X009868Y031225D03*
X009868Y031233D03*
X009868Y031241D03*
X009868Y031249D03*
X009868Y031257D03*
X009868Y031265D03*
X009868Y031273D03*
X009104Y031194D03*
X009104Y031186D03*
X009097Y031218D03*
X009097Y031225D03*
X009097Y031233D03*
X009097Y031241D03*
X009097Y031249D03*
X009097Y031257D03*
X009097Y031265D03*
X009097Y031273D03*
X009097Y031281D03*
X009097Y031288D03*
X009097Y031296D03*
X009097Y031304D03*
X009097Y031312D03*
X009097Y031320D03*
X009097Y031328D03*
X009097Y031336D03*
X009097Y031344D03*
X009097Y031351D03*
X009097Y031359D03*
X009097Y031367D03*
X009097Y031375D03*
X009097Y031383D03*
X009097Y031391D03*
X009097Y031399D03*
X009097Y031407D03*
X009097Y031414D03*
X009097Y031422D03*
X009097Y031430D03*
X009097Y031438D03*
X009097Y031446D03*
X009097Y031454D03*
X009097Y031462D03*
X009097Y031469D03*
X009097Y031477D03*
X009097Y031485D03*
X009097Y031493D03*
X009097Y031501D03*
X009097Y031509D03*
X009097Y031517D03*
X009097Y031525D03*
X009097Y031532D03*
X009097Y031540D03*
X009097Y031548D03*
X009097Y031556D03*
X009097Y031564D03*
X009097Y031572D03*
X009097Y031580D03*
X009097Y031588D03*
X009097Y031595D03*
X009097Y031698D03*
X009097Y031706D03*
X009097Y031714D03*
X009097Y031721D03*
X009097Y031729D03*
X009097Y031737D03*
X009097Y031745D03*
X009097Y031753D03*
X009097Y031761D03*
X009097Y031769D03*
X009097Y031777D03*
X009097Y031784D03*
X009097Y031792D03*
X009097Y031800D03*
X009097Y031808D03*
X009097Y031816D03*
X009097Y031824D03*
X009097Y031832D03*
X009097Y031840D03*
X009097Y031847D03*
X009097Y031855D03*
X009097Y031863D03*
X009097Y031871D03*
X009097Y031879D03*
X009097Y031887D03*
X009097Y031895D03*
X009097Y031903D03*
X009097Y031910D03*
X009097Y031918D03*
X009097Y031926D03*
X009097Y031934D03*
X009097Y031942D03*
X009097Y031950D03*
X009097Y031958D03*
X009097Y031966D03*
X009097Y031973D03*
X009097Y031981D03*
X009097Y031989D03*
X009097Y031997D03*
X009097Y032005D03*
X009097Y032107D03*
X009097Y032115D03*
X009097Y032123D03*
X009097Y032131D03*
X009097Y032139D03*
X009097Y032147D03*
X009097Y032155D03*
X009097Y032162D03*
X009097Y032170D03*
X009097Y032178D03*
X009097Y032186D03*
X009097Y032194D03*
X009097Y032202D03*
X009097Y032210D03*
X009097Y032218D03*
X009097Y032225D03*
X009097Y032233D03*
X009097Y032241D03*
X009097Y032249D03*
X009097Y032257D03*
X009097Y032265D03*
X009097Y032273D03*
X009097Y032281D03*
X009097Y032288D03*
X009097Y032296D03*
X009097Y032304D03*
X009097Y032312D03*
X009097Y032320D03*
X009097Y032328D03*
X009097Y032336D03*
X009097Y032344D03*
X009097Y032351D03*
X009097Y032359D03*
X009097Y032367D03*
X009097Y032375D03*
X009097Y032383D03*
X009097Y032391D03*
X009097Y032399D03*
X009097Y032407D03*
X009097Y032414D03*
X009097Y032422D03*
X009097Y032430D03*
X009097Y032438D03*
X009097Y032446D03*
X009097Y032454D03*
X009097Y032462D03*
X009097Y032469D03*
X009097Y032477D03*
X009097Y032485D03*
X009097Y032493D03*
X009097Y032501D03*
X009104Y032532D03*
X008443Y032477D03*
X008443Y032469D03*
X008443Y032462D03*
X008435Y032493D03*
X008435Y032501D03*
X008427Y032525D03*
X007679Y032572D03*
X007679Y032580D03*
X007663Y032367D03*
X007671Y032336D03*
X007671Y032328D03*
X007097Y032446D03*
X007097Y032454D03*
X007089Y032477D03*
X007089Y032485D03*
X007089Y032493D03*
X007081Y032509D03*
X007081Y032517D03*
X006333Y032580D03*
X006325Y032572D03*
X006325Y032564D03*
X006317Y032351D03*
X006317Y032344D03*
X006317Y032336D03*
X006325Y032328D03*
X006325Y032320D03*
X005600Y032320D03*
X005600Y032328D03*
X005600Y032336D03*
X005600Y032344D03*
X005600Y032351D03*
X005600Y032359D03*
X005600Y032367D03*
X005600Y032375D03*
X005600Y032383D03*
X005600Y032391D03*
X005600Y032399D03*
X005600Y032407D03*
X005600Y032414D03*
X005600Y032422D03*
X005600Y032430D03*
X005600Y032438D03*
X005600Y032446D03*
X005600Y032454D03*
X005600Y032462D03*
X005600Y032469D03*
X005600Y032477D03*
X005600Y032485D03*
X005600Y032493D03*
X005600Y032501D03*
X005600Y032509D03*
X005600Y032517D03*
X005600Y032525D03*
X005600Y032532D03*
X005600Y032540D03*
X005600Y032548D03*
X005600Y032556D03*
X005600Y032564D03*
X005600Y032572D03*
X005600Y032580D03*
X005600Y032588D03*
X005600Y032595D03*
X005600Y032603D03*
X005600Y032611D03*
X005600Y032619D03*
X005600Y032627D03*
X005600Y032635D03*
X005600Y032643D03*
X005600Y032651D03*
X005600Y032658D03*
X005600Y032666D03*
X005600Y032674D03*
X005600Y032682D03*
X005600Y032690D03*
X005600Y032698D03*
X005600Y032706D03*
X005600Y032714D03*
X005600Y032721D03*
X005600Y032729D03*
X005600Y032737D03*
X005600Y032745D03*
X005600Y032753D03*
X005600Y032761D03*
X005600Y032769D03*
X005600Y032777D03*
X005600Y032784D03*
X005600Y032792D03*
X005600Y032800D03*
X005600Y032808D03*
X005600Y032816D03*
X005600Y032824D03*
X005600Y032832D03*
X005600Y032840D03*
X005600Y032847D03*
X005600Y032855D03*
X005600Y032863D03*
X005600Y032871D03*
X005600Y032879D03*
X005600Y032887D03*
X005600Y032895D03*
X005600Y032903D03*
X005600Y032910D03*
X005600Y032918D03*
X005600Y032926D03*
X005600Y032934D03*
X005600Y032942D03*
X005600Y032950D03*
X005600Y032958D03*
X005600Y032312D03*
X005600Y032304D03*
X005600Y032296D03*
X005600Y032288D03*
X005600Y032281D03*
X005600Y032273D03*
X005600Y032265D03*
X005600Y032257D03*
X005600Y032249D03*
X005600Y032241D03*
X005600Y032233D03*
X005600Y032225D03*
X005600Y032218D03*
X005600Y032210D03*
X005600Y032202D03*
X005600Y032194D03*
X005600Y032186D03*
X005600Y032178D03*
X005600Y032170D03*
X005600Y032162D03*
X005600Y032155D03*
X005600Y032147D03*
X005600Y032139D03*
X005600Y032131D03*
X005600Y032123D03*
X005600Y032115D03*
X005600Y032107D03*
X005600Y032099D03*
X005600Y032092D03*
X005600Y032084D03*
X005600Y032076D03*
X005600Y032068D03*
X005600Y032060D03*
X005600Y032052D03*
X005600Y032044D03*
X005600Y032036D03*
X005600Y032029D03*
X005600Y032021D03*
X005600Y032013D03*
X005600Y031682D03*
X005600Y031674D03*
X005600Y031666D03*
X005600Y031658D03*
X005600Y031651D03*
X005600Y031643D03*
X005600Y031635D03*
X005600Y031627D03*
X005600Y031619D03*
X005600Y031611D03*
X005600Y031603D03*
X005600Y031595D03*
X005600Y031588D03*
X005600Y031580D03*
X005600Y031572D03*
X005600Y031564D03*
X005600Y031556D03*
X005600Y031548D03*
X005600Y031540D03*
X005600Y031532D03*
X005600Y031525D03*
X005600Y031517D03*
X005600Y031509D03*
X005600Y031501D03*
X005600Y031493D03*
X005600Y031485D03*
X005600Y031477D03*
X005600Y031469D03*
X005600Y031462D03*
X005600Y031454D03*
X005600Y031446D03*
X005600Y031438D03*
X005600Y031430D03*
X005600Y031422D03*
X005600Y031414D03*
X005600Y031407D03*
X005600Y031399D03*
X005600Y031391D03*
X005600Y031383D03*
X005600Y031375D03*
X005600Y031367D03*
X005600Y031359D03*
X005600Y031351D03*
X005600Y031344D03*
X005600Y031336D03*
X005600Y031328D03*
X005600Y031320D03*
X005600Y031312D03*
X005600Y031304D03*
X005600Y031296D03*
X005600Y031288D03*
X005600Y031281D03*
X005600Y031273D03*
X005600Y031265D03*
X005600Y031257D03*
X005600Y031249D03*
X005600Y031241D03*
X005600Y031233D03*
X005600Y031225D03*
X005600Y031218D03*
X005600Y031210D03*
X005600Y031202D03*
X005600Y031194D03*
X005600Y031186D03*
X005600Y031178D03*
X005600Y031170D03*
X005600Y031162D03*
X005600Y031155D03*
X005600Y031147D03*
X005600Y031139D03*
X005600Y031131D03*
X005600Y031123D03*
X005600Y031115D03*
X005600Y031107D03*
X005600Y031099D03*
X005600Y031092D03*
X005600Y031084D03*
X005600Y031076D03*
X005600Y031068D03*
X005600Y031060D03*
X005600Y031052D03*
X005600Y031044D03*
X005600Y031036D03*
X005600Y031029D03*
X005600Y031021D03*
X005600Y031013D03*
X005600Y031005D03*
X005600Y030997D03*
X005600Y030989D03*
X005600Y030981D03*
X005600Y030973D03*
X005600Y030966D03*
X005600Y030958D03*
X005600Y030950D03*
X005600Y030942D03*
X005600Y030934D03*
X005600Y030926D03*
X005600Y030918D03*
X005600Y030910D03*
X005600Y030903D03*
X005600Y030895D03*
X005600Y030887D03*
X005600Y030879D03*
X005600Y030871D03*
X005600Y030863D03*
X005600Y030855D03*
X005600Y030847D03*
X005600Y030840D03*
X005600Y030832D03*
X005600Y030824D03*
X005600Y030816D03*
X005600Y030808D03*
X005600Y030800D03*
X005600Y030792D03*
X005600Y030784D03*
X005600Y030777D03*
X005600Y030769D03*
X005600Y030761D03*
X006349Y031170D03*
X006349Y031178D03*
X006341Y031186D03*
X006341Y031194D03*
X007049Y031147D03*
X007057Y031162D03*
X007057Y031383D03*
X007057Y031391D03*
X007049Y031399D03*
X007049Y031407D03*
X007687Y031210D03*
X007695Y031186D03*
X007695Y031178D03*
X007703Y031162D03*
X008404Y031155D03*
X008404Y031147D03*
X008412Y031367D03*
X008404Y031391D03*
X008404Y031399D03*
X009868Y032454D03*
X009868Y032462D03*
X009868Y032469D03*
X009868Y032477D03*
X009868Y032485D03*
X009868Y032493D03*
X009868Y032501D03*
X009868Y032509D03*
X009860Y032540D03*
D73*
X009486Y032950D03*
X007872Y032021D03*
X007864Y032029D03*
X007856Y032036D03*
X007849Y032044D03*
X006880Y031666D03*
X006872Y031674D03*
D74*
X006982Y031068D03*
X006431Y031068D03*
X006400Y032651D03*
X008053Y032950D03*
X008329Y031068D03*
D75*
X007782Y031068D03*
X007829Y032068D03*
X006703Y032950D03*
X009482Y030769D03*
D76*
X008136Y031761D03*
X008128Y031769D03*
X007955Y031934D03*
X006805Y031745D03*
X006797Y031753D03*
X006789Y031761D03*
X006782Y031769D03*
X006774Y031777D03*
X006766Y031784D03*
X006632Y031910D03*
X006624Y031918D03*
X006616Y031926D03*
X006608Y031934D03*
X006600Y031942D03*
X006593Y031950D03*
X008049Y032934D03*
X009482Y032942D03*
D77*
X008049Y032942D03*
X008207Y031690D03*
X008215Y031682D03*
X008223Y031674D03*
X006868Y031682D03*
X006860Y031690D03*
X006538Y032005D03*
X006530Y032013D03*
X006703Y032942D03*
D78*
X008049Y032926D03*
X009482Y032934D03*
D79*
X008124Y031777D03*
X008116Y031784D03*
X008108Y031792D03*
X008100Y031800D03*
X008093Y031808D03*
X008085Y031816D03*
X008014Y031879D03*
X008006Y031887D03*
X007998Y031895D03*
X007990Y031903D03*
X007982Y031910D03*
X007975Y031918D03*
X007967Y031926D03*
X006754Y031792D03*
X006746Y031800D03*
X006738Y031808D03*
X006730Y031816D03*
X006723Y031824D03*
X006715Y031832D03*
X006707Y031840D03*
X006699Y031847D03*
X006691Y031855D03*
X006683Y031863D03*
X006675Y031871D03*
X006667Y031879D03*
X006660Y031887D03*
X006652Y031895D03*
X006644Y031903D03*
X006699Y032934D03*
D80*
X006695Y032918D03*
X008049Y032918D03*
X009482Y032926D03*
D81*
X006699Y032926D03*
D82*
X008049Y032910D03*
X009482Y032918D03*
X008049Y030816D03*
D83*
X009482Y032910D03*
D84*
X006699Y032910D03*
D85*
X006695Y032895D03*
X006703Y030832D03*
X008049Y030832D03*
X009482Y032903D03*
D86*
X008045Y032903D03*
X006699Y032903D03*
X006699Y030824D03*
X008053Y030824D03*
D87*
X009482Y032895D03*
D88*
X008045Y032895D03*
X009486Y030816D03*
D89*
X009482Y032887D03*
X006695Y032879D03*
X006703Y030847D03*
D90*
X006699Y030840D03*
X008053Y030840D03*
X008045Y032887D03*
D91*
X006695Y032887D03*
X009482Y030824D03*
D92*
X008053Y030863D03*
X009486Y032879D03*
D93*
X008045Y032879D03*
X008053Y030847D03*
X009486Y030832D03*
D94*
X009482Y030855D03*
X008057Y030871D03*
X006703Y030871D03*
X006695Y032855D03*
X009482Y032871D03*
D95*
X008045Y032871D03*
X008053Y030855D03*
D96*
X009482Y030840D03*
X006703Y030855D03*
X006695Y032871D03*
D97*
X006695Y032847D03*
X006703Y030879D03*
X008057Y030879D03*
X009482Y032863D03*
D98*
X008041Y032863D03*
X006695Y032863D03*
X006703Y030863D03*
X009482Y030847D03*
D99*
X008057Y030887D03*
X006703Y030887D03*
X006695Y032840D03*
X009482Y032855D03*
D100*
X008045Y032855D03*
D101*
X009482Y032847D03*
X008057Y030895D03*
X006703Y030895D03*
X006695Y032832D03*
D102*
X008045Y032847D03*
X009486Y030863D03*
D103*
X009482Y030879D03*
X009482Y032840D03*
X006695Y032824D03*
D104*
X008045Y032840D03*
X009486Y030871D03*
D105*
X009482Y030887D03*
X008041Y032816D03*
X009482Y032832D03*
X006695Y032816D03*
D106*
X008045Y032832D03*
X008053Y030903D03*
X006707Y030903D03*
D107*
X006703Y030926D03*
X008057Y030926D03*
X008041Y032808D03*
X009482Y032824D03*
X006695Y032808D03*
D108*
X008045Y032824D03*
X008053Y030910D03*
X006707Y030910D03*
D109*
X008057Y030934D03*
X009482Y030910D03*
X009482Y032816D03*
X008041Y032800D03*
X006695Y032800D03*
D110*
X008057Y030950D03*
X009482Y030918D03*
X009482Y032808D03*
D111*
X009482Y032800D03*
X008041Y032777D03*
X006695Y032777D03*
X008057Y030958D03*
X009482Y030926D03*
D112*
X008053Y030966D03*
X006707Y030966D03*
X009486Y032792D03*
D113*
X008045Y032792D03*
X006691Y032792D03*
X006707Y030942D03*
X008053Y030942D03*
D114*
X008057Y030973D03*
X009482Y030934D03*
X009482Y032784D03*
X008041Y032769D03*
X006695Y032769D03*
X006703Y030973D03*
D115*
X006707Y030958D03*
X006707Y030950D03*
X006691Y032784D03*
X008045Y032784D03*
D116*
X008041Y032753D03*
X009482Y032777D03*
X009482Y030950D03*
X008057Y030989D03*
X006695Y032753D03*
D117*
X006707Y030997D03*
X006707Y030989D03*
X009486Y032769D03*
D118*
X009482Y032761D03*
X008041Y032745D03*
X006695Y032745D03*
X008057Y031005D03*
X008057Y030997D03*
X009482Y030958D03*
D119*
X009486Y030942D03*
X008053Y030981D03*
X006707Y030981D03*
X006691Y032761D03*
X008045Y032761D03*
D120*
X008041Y032729D03*
X009482Y032753D03*
X009482Y030973D03*
X008057Y031013D03*
X008057Y031021D03*
X006703Y031021D03*
X006695Y032729D03*
D121*
X006691Y032721D03*
X008045Y032721D03*
X009486Y032745D03*
X008053Y031029D03*
X006707Y031029D03*
D122*
X006703Y031036D03*
X008057Y031036D03*
X009482Y030989D03*
X009482Y030981D03*
X009482Y032737D03*
X006695Y032714D03*
D123*
X006691Y032737D03*
X008045Y032737D03*
X006707Y031013D03*
X006707Y031005D03*
X009486Y030966D03*
D124*
X008053Y031044D03*
X006707Y031044D03*
X008045Y032706D03*
X008045Y032714D03*
X009486Y032729D03*
D125*
X009482Y032721D03*
X009482Y031005D03*
X009482Y030997D03*
X008057Y031052D03*
X008057Y031060D03*
X006703Y031060D03*
X006703Y031052D03*
X006695Y032698D03*
X006695Y032706D03*
D126*
X008045Y032698D03*
X008045Y032690D03*
X009486Y032714D03*
D127*
X009482Y032706D03*
X009482Y031021D03*
X009482Y031013D03*
X006695Y032682D03*
X006695Y032690D03*
D128*
X008045Y032682D03*
X008045Y032674D03*
X009486Y032698D03*
D129*
X009482Y032690D03*
X009482Y031036D03*
X009482Y031029D03*
X006695Y032658D03*
X006695Y032666D03*
X006695Y032674D03*
D130*
X008045Y032666D03*
X008045Y032658D03*
X009486Y032682D03*
X009486Y031044D03*
D131*
X009482Y031052D03*
X009482Y031060D03*
X009482Y032666D03*
X009482Y032674D03*
D132*
X009486Y032658D03*
D133*
X008356Y032643D03*
X007734Y032643D03*
X007766Y032147D03*
X008230Y031643D03*
X008349Y031076D03*
X007766Y031076D03*
X006971Y031556D03*
X006963Y031564D03*
X006412Y031076D03*
X006435Y032115D03*
X006427Y032131D03*
X006419Y032139D03*
X007002Y032643D03*
D134*
X007022Y032627D03*
X006392Y032178D03*
X006384Y032186D03*
X006384Y032194D03*
X006376Y032635D03*
X006990Y031525D03*
X006998Y031517D03*
X007006Y031084D03*
X007746Y031092D03*
X008360Y031084D03*
X008345Y031525D03*
X008337Y031532D03*
X007738Y032186D03*
X007730Y032194D03*
X007723Y032635D03*
X009148Y031092D03*
X009817Y031092D03*
D135*
X009825Y031099D03*
X008368Y031092D03*
X008360Y031493D03*
X007738Y031099D03*
X007730Y031107D03*
X007014Y031485D03*
X007014Y031493D03*
X007006Y031501D03*
X006573Y032021D03*
X006368Y032218D03*
X006360Y032233D03*
X007038Y032603D03*
X007045Y032595D03*
X007707Y032619D03*
X007715Y032627D03*
X007715Y032225D03*
X007723Y032210D03*
X008384Y032611D03*
X008392Y032603D03*
X009140Y032619D03*
X009825Y032619D03*
X006691Y030761D03*
D136*
X006380Y031107D03*
X007026Y031099D03*
X007026Y031469D03*
X007018Y031477D03*
X007726Y031115D03*
X008372Y031099D03*
X008380Y031107D03*
X008372Y031469D03*
X008372Y031477D03*
X008364Y031485D03*
X009136Y031107D03*
X009829Y031107D03*
X009837Y031115D03*
X009837Y032603D03*
X009837Y032611D03*
X009136Y032611D03*
X009128Y032603D03*
X008396Y032595D03*
X007703Y032249D03*
X007703Y032241D03*
X007711Y032233D03*
X007049Y032588D03*
X006356Y032619D03*
X006349Y032257D03*
X006356Y032241D03*
X006364Y032225D03*
D137*
X006352Y032249D03*
X006345Y032265D03*
X006345Y032603D03*
X006352Y032611D03*
X007053Y032580D03*
X007061Y032564D03*
X007699Y032611D03*
X007691Y032273D03*
X007699Y032257D03*
X008400Y032588D03*
X008408Y032580D03*
X008408Y032572D03*
X009124Y032595D03*
X009841Y032595D03*
X008384Y031454D03*
X008384Y031446D03*
X008376Y031462D03*
X007723Y031123D03*
X007030Y031107D03*
X007030Y031454D03*
X007030Y031462D03*
X006376Y031115D03*
X006368Y031123D03*
X009124Y031123D03*
X009124Y031131D03*
X009132Y031115D03*
X009841Y031123D03*
D138*
X009856Y031162D03*
X009856Y031170D03*
X009864Y031186D03*
X009864Y031194D03*
X009864Y031202D03*
X009116Y031147D03*
X009108Y031162D03*
X009108Y031170D03*
X009108Y031178D03*
X009100Y031202D03*
X009100Y031210D03*
X008400Y031139D03*
X008392Y031131D03*
X008400Y031407D03*
X008400Y031414D03*
X008392Y031422D03*
X008392Y031430D03*
X007707Y031155D03*
X007707Y031147D03*
X007699Y031170D03*
X007045Y031139D03*
X007045Y031131D03*
X007045Y031414D03*
X007045Y031422D03*
X006360Y031147D03*
X006352Y031155D03*
X006352Y031162D03*
X006329Y032304D03*
X006329Y032312D03*
X006337Y032588D03*
X007069Y032548D03*
X007069Y032540D03*
X007077Y032532D03*
X007077Y032525D03*
X007085Y032501D03*
X007683Y032588D03*
X007691Y032595D03*
X007675Y032320D03*
X007675Y032312D03*
X007683Y032304D03*
X007683Y032296D03*
X008423Y032532D03*
X008423Y032540D03*
X008431Y032517D03*
X008431Y032509D03*
X009100Y032509D03*
X009100Y032517D03*
X009100Y032525D03*
X009108Y032540D03*
X009108Y032548D03*
X009108Y032556D03*
X009856Y032556D03*
X009856Y032548D03*
X009856Y032564D03*
X009864Y032532D03*
X009864Y032525D03*
X009864Y032517D03*
D139*
X009872Y032446D03*
X009872Y032438D03*
X009872Y032430D03*
X009872Y032422D03*
X009872Y032414D03*
X009872Y032407D03*
X009872Y032399D03*
X009872Y032391D03*
X009872Y032383D03*
X009872Y032375D03*
X009872Y032367D03*
X009872Y032359D03*
X009872Y032351D03*
X009872Y032344D03*
X009872Y032336D03*
X009872Y032328D03*
X009872Y032320D03*
X009872Y032312D03*
X009872Y032304D03*
X009872Y032296D03*
X009872Y032288D03*
X009872Y032281D03*
X009872Y032273D03*
X009872Y032265D03*
X009872Y032257D03*
X009872Y032249D03*
X009872Y032241D03*
X009872Y032233D03*
X009872Y032225D03*
X009872Y032218D03*
X009872Y032210D03*
X009872Y032202D03*
X009872Y032194D03*
X009872Y032186D03*
X009872Y032178D03*
X009872Y032170D03*
X009872Y032162D03*
X009872Y032155D03*
X009872Y032147D03*
X009872Y032139D03*
X009872Y032131D03*
X009872Y032123D03*
X009872Y032115D03*
X009872Y032107D03*
X009872Y032099D03*
X009872Y032092D03*
X009872Y032084D03*
X009872Y032076D03*
X009872Y032068D03*
X009872Y032060D03*
X009872Y032052D03*
X009872Y032044D03*
X009872Y032036D03*
X009872Y032029D03*
X009872Y032021D03*
X009872Y031682D03*
X009872Y031674D03*
X009872Y031666D03*
X009872Y031658D03*
X009872Y031651D03*
X009872Y031643D03*
X009872Y031635D03*
X009872Y031627D03*
X009872Y031619D03*
X009872Y031611D03*
X009872Y031603D03*
X009872Y031595D03*
X009872Y031588D03*
X009872Y031580D03*
X009872Y031572D03*
X009872Y031564D03*
X009872Y031556D03*
X009872Y031548D03*
X009872Y031540D03*
X009872Y031532D03*
X009872Y031525D03*
X009872Y031517D03*
X009872Y031509D03*
X009872Y031501D03*
X009872Y031493D03*
X009872Y031485D03*
X009872Y031477D03*
X009872Y031469D03*
X009872Y031462D03*
X009872Y031454D03*
X009872Y031446D03*
X009872Y031438D03*
X009872Y031430D03*
X009872Y031422D03*
X009872Y031414D03*
X009872Y031407D03*
X009872Y031399D03*
X009872Y031391D03*
X009872Y031383D03*
X009872Y031375D03*
X009872Y031367D03*
X009872Y031359D03*
X009872Y031351D03*
X009872Y031344D03*
X009872Y031336D03*
X009872Y031328D03*
X009872Y031320D03*
X009872Y031312D03*
X009872Y031304D03*
X009872Y031296D03*
X009872Y031288D03*
X009872Y031281D03*
X008415Y031344D03*
X008415Y031351D03*
X008415Y031359D03*
X008408Y031375D03*
X008408Y031383D03*
X008415Y031202D03*
X008415Y031194D03*
X008408Y031178D03*
X008408Y031170D03*
X008408Y031162D03*
X008038Y030753D03*
X007691Y031194D03*
X007691Y031202D03*
X007683Y031218D03*
X007683Y031225D03*
X007683Y031233D03*
X007061Y031186D03*
X007061Y031178D03*
X007061Y031170D03*
X007053Y031155D03*
X007061Y031359D03*
X007061Y031367D03*
X007061Y031375D03*
X006337Y031218D03*
X006337Y031210D03*
X006337Y031202D03*
X006329Y031233D03*
X006329Y031241D03*
X006329Y031249D03*
X006313Y032359D03*
X006313Y032367D03*
X006313Y032375D03*
X006321Y032548D03*
X006321Y032556D03*
X007093Y032469D03*
X007093Y032462D03*
X007100Y032438D03*
X007100Y032430D03*
X007100Y032422D03*
X007100Y032414D03*
X007100Y032407D03*
X007660Y032399D03*
X007660Y032391D03*
X007660Y032383D03*
X007660Y032375D03*
X007667Y032359D03*
X007667Y032351D03*
X007667Y032344D03*
X007667Y032540D03*
X007667Y032548D03*
X007675Y032556D03*
X007675Y032564D03*
X008439Y032485D03*
X008447Y032454D03*
X008447Y032446D03*
X008447Y032438D03*
X008447Y032430D03*
X008455Y032414D03*
X008455Y032407D03*
X008455Y032399D03*
X008455Y032391D03*
X008455Y032383D03*
D140*
X007660Y032501D03*
X007660Y032509D03*
X006597Y032029D03*
X006305Y032430D03*
X006305Y032438D03*
X006305Y032446D03*
X006305Y032454D03*
X006305Y032462D03*
X006305Y032469D03*
X006305Y032477D03*
X006305Y032485D03*
X007069Y031320D03*
X007069Y031233D03*
X007069Y031225D03*
X008423Y031273D03*
X008423Y031281D03*
X008423Y031288D03*
D141*
X007097Y032375D03*
D142*
X007069Y032367D03*
X008156Y031635D03*
X009833Y031832D03*
X009833Y031840D03*
X009833Y031871D03*
X009912Y032005D03*
X005644Y031863D03*
X005644Y031847D03*
X005644Y031840D03*
D143*
X008392Y032359D03*
D144*
X007041Y032359D03*
X009482Y030737D03*
D145*
X009994Y031761D03*
X009994Y031769D03*
X009994Y031777D03*
X009994Y031926D03*
X009994Y031934D03*
X009994Y031958D03*
X008341Y032344D03*
X005475Y031950D03*
X005475Y031942D03*
X005475Y031934D03*
X005475Y031769D03*
X005475Y031761D03*
X005475Y031753D03*
X005475Y031745D03*
D146*
X006447Y031296D03*
X006990Y032344D03*
X009226Y032084D03*
X009226Y031619D03*
X009998Y031745D03*
X009998Y031753D03*
X009998Y031942D03*
X009998Y031950D03*
D147*
X009825Y031973D03*
X009817Y031950D03*
X009817Y031942D03*
X009723Y031934D03*
X009723Y031769D03*
X009817Y031761D03*
X009203Y032052D03*
X009203Y032060D03*
X009203Y032068D03*
X009053Y032084D03*
X009053Y032092D03*
X009045Y032036D03*
X009045Y031666D03*
X009045Y031658D03*
X009045Y031651D03*
X009045Y031643D03*
X009045Y031635D03*
X009045Y031627D03*
X009045Y031619D03*
X008108Y031580D03*
X008313Y032336D03*
X007085Y031580D03*
X006778Y031588D03*
X006778Y031595D03*
X006778Y031603D03*
X006778Y031611D03*
X006778Y031619D03*
X006455Y032044D03*
X006455Y032052D03*
X006455Y032060D03*
X006305Y032021D03*
X005754Y031934D03*
X005660Y031934D03*
X005652Y031966D03*
X005660Y031769D03*
D148*
X006963Y032336D03*
X008112Y031572D03*
D149*
X008286Y032328D03*
X009695Y031973D03*
X009695Y031966D03*
X009695Y031958D03*
X009695Y031950D03*
X009695Y031753D03*
X009695Y031745D03*
X009695Y031737D03*
X009695Y031729D03*
X010049Y031824D03*
X010049Y031832D03*
X010049Y031871D03*
X010049Y031879D03*
X006734Y032052D03*
X006656Y031643D03*
X005782Y031737D03*
X005782Y031745D03*
X005782Y031753D03*
X005782Y031950D03*
X005782Y031958D03*
X005782Y031966D03*
X005419Y031879D03*
X005419Y031871D03*
X005419Y031863D03*
X005419Y031832D03*
X005419Y031824D03*
D150*
X005415Y031840D03*
X005415Y031847D03*
X005415Y031855D03*
X006730Y032060D03*
X006935Y032328D03*
X010053Y031863D03*
X010053Y031855D03*
X010053Y031847D03*
X010053Y031840D03*
D151*
X009821Y031753D03*
X009821Y031745D03*
X009821Y031737D03*
X009821Y031729D03*
X009813Y031769D03*
X009813Y031934D03*
X009821Y031958D03*
X009821Y031966D03*
X009207Y032076D03*
X009199Y032044D03*
X009199Y032036D03*
X009199Y032029D03*
X009199Y032021D03*
X009049Y032044D03*
X009049Y032052D03*
X009049Y032060D03*
X009049Y032068D03*
X009049Y032076D03*
X009199Y031682D03*
X009199Y031674D03*
X009199Y031666D03*
X009199Y031658D03*
X009199Y031651D03*
X009199Y031643D03*
X009199Y031635D03*
X009199Y031627D03*
X009049Y031611D03*
X008419Y031611D03*
X008419Y031603D03*
X008419Y031595D03*
X008419Y031588D03*
X008419Y031580D03*
X008419Y031572D03*
X008419Y031619D03*
X008419Y031627D03*
X008419Y031635D03*
X008262Y031627D03*
X008262Y031619D03*
X008262Y031611D03*
X008262Y031603D03*
X008262Y031595D03*
X008262Y031588D03*
X008262Y031580D03*
X008262Y031572D03*
X008104Y031588D03*
X008104Y031595D03*
X008104Y031603D03*
X008104Y031611D03*
X008104Y031619D03*
X008104Y031627D03*
X007955Y032076D03*
X007955Y032084D03*
X007955Y032092D03*
X007955Y032099D03*
X007955Y032107D03*
X007955Y032115D03*
X007955Y032123D03*
X007955Y032131D03*
X007955Y032139D03*
X007797Y032139D03*
X007797Y032131D03*
X007797Y032123D03*
X007797Y032115D03*
X007797Y032107D03*
X007797Y032099D03*
X007797Y032092D03*
X007797Y032084D03*
X007797Y032076D03*
X007640Y032076D03*
X007640Y032084D03*
X007640Y032092D03*
X007640Y032099D03*
X007640Y032107D03*
X007640Y032115D03*
X007640Y032123D03*
X007640Y032131D03*
X007640Y032139D03*
X007089Y031635D03*
X007089Y031627D03*
X007089Y031619D03*
X007089Y031611D03*
X007089Y031603D03*
X007089Y031595D03*
X007089Y031588D03*
X006931Y031588D03*
X006931Y031595D03*
X006931Y031603D03*
X006931Y031611D03*
X006931Y031619D03*
X006931Y031627D03*
X006931Y031635D03*
X006931Y031643D03*
X006931Y031580D03*
X006782Y031627D03*
X006782Y031635D03*
X006782Y031643D03*
X006782Y031651D03*
X006608Y032044D03*
X006608Y032052D03*
X006608Y032060D03*
X006608Y032068D03*
X006608Y032076D03*
X006608Y032084D03*
X006608Y032092D03*
X006608Y032099D03*
X006451Y032092D03*
X006451Y032084D03*
X006451Y032076D03*
X006451Y032068D03*
X006459Y032036D03*
X006301Y032036D03*
X006301Y032029D03*
X006301Y032044D03*
X006301Y032052D03*
X006301Y032060D03*
X006301Y032068D03*
X006301Y032076D03*
X005750Y031769D03*
X005656Y031761D03*
X005656Y031753D03*
X005656Y031745D03*
X005648Y031729D03*
X005656Y031942D03*
X005656Y031950D03*
X005656Y031958D03*
X005648Y031973D03*
D152*
X006431Y032123D03*
X006691Y030769D03*
X008045Y030769D03*
X009171Y031076D03*
X009793Y031076D03*
D153*
X010041Y031800D03*
X010041Y031903D03*
X009703Y031942D03*
X008923Y032076D03*
X008923Y032084D03*
X008923Y032092D03*
X008923Y032099D03*
X008923Y031666D03*
X008923Y031603D03*
X006648Y031658D03*
X005774Y031942D03*
X005427Y031903D03*
X005427Y031800D03*
D154*
X005490Y031966D03*
X006293Y032092D03*
X009766Y031926D03*
X009766Y031918D03*
X009766Y031910D03*
X009766Y031784D03*
D155*
X007797Y031296D03*
X006278Y032084D03*
D156*
X005778Y032005D03*
X005778Y031997D03*
X005778Y031989D03*
X005778Y031981D03*
X005778Y031973D03*
X005778Y031729D03*
X005778Y031721D03*
X005778Y031714D03*
X005778Y031706D03*
X005778Y031698D03*
X005778Y031690D03*
X005423Y031808D03*
X005423Y031816D03*
X005423Y031887D03*
X005423Y031895D03*
X006652Y031651D03*
X008919Y031651D03*
X008919Y031658D03*
X008919Y031643D03*
X008919Y031635D03*
X008919Y031627D03*
X008919Y031619D03*
X008919Y031611D03*
X008919Y032036D03*
X008919Y032044D03*
X008919Y032052D03*
X008919Y032060D03*
X008919Y032068D03*
X009699Y032013D03*
X009699Y032005D03*
X009699Y031997D03*
X009699Y031989D03*
X009699Y031981D03*
X009699Y031721D03*
X009699Y031714D03*
X009699Y031706D03*
X009699Y031698D03*
X009699Y031690D03*
X010045Y031808D03*
X010045Y031816D03*
X010045Y031887D03*
X010045Y031895D03*
D157*
X006726Y032068D03*
X006663Y031635D03*
D158*
X007833Y032060D03*
D159*
X007845Y032052D03*
X008230Y031666D03*
X008238Y031658D03*
X008246Y031651D03*
X008041Y030777D03*
X009191Y031068D03*
X009774Y031068D03*
X006695Y030777D03*
D160*
X006723Y032044D03*
X008116Y031564D03*
D161*
X007758Y031288D03*
X006663Y032036D03*
X006412Y031288D03*
X009782Y031800D03*
D162*
X009789Y031895D03*
X009010Y032021D03*
X005687Y031895D03*
D163*
X006341Y031273D03*
X009073Y032013D03*
X009892Y032013D03*
D164*
X009486Y030777D03*
X008203Y031698D03*
X008195Y031706D03*
X008187Y031714D03*
X007904Y031989D03*
X007896Y031997D03*
X007888Y032005D03*
X007880Y032013D03*
X006849Y031698D03*
X006841Y031706D03*
X006541Y031997D03*
D165*
X005640Y031871D03*
X005640Y031832D03*
X005561Y032005D03*
X008034Y030745D03*
X009837Y031824D03*
X009837Y031879D03*
D166*
X008175Y031721D03*
X007908Y031981D03*
X006837Y031714D03*
X006829Y031721D03*
X006821Y031729D03*
X006577Y031966D03*
X006569Y031973D03*
X006561Y031981D03*
X006553Y031989D03*
X006695Y030784D03*
D167*
X006809Y031737D03*
X006581Y031958D03*
X007919Y031973D03*
X007927Y031966D03*
X007935Y031958D03*
X007943Y031950D03*
X007951Y031942D03*
X008148Y031753D03*
X008156Y031745D03*
X008163Y031737D03*
X008171Y031729D03*
X008045Y030784D03*
D168*
X009982Y031966D03*
X005486Y031737D03*
D169*
X005478Y031777D03*
X005478Y031784D03*
X005478Y031918D03*
X005478Y031926D03*
X005478Y031958D03*
X006786Y031580D03*
X009990Y031784D03*
X009990Y031792D03*
X009990Y031910D03*
X009990Y031918D03*
D170*
X009986Y031737D03*
X005482Y031792D03*
X005482Y031910D03*
D171*
X005506Y031903D03*
X005506Y031800D03*
X009963Y031800D03*
X009963Y031903D03*
D172*
X009959Y031895D03*
X009959Y031808D03*
X005652Y031737D03*
X005510Y031808D03*
X005510Y031895D03*
D173*
X005636Y031879D03*
X005636Y031824D03*
X006990Y031651D03*
X006683Y030745D03*
X009841Y031816D03*
X009841Y031887D03*
D174*
X009900Y031690D03*
X005632Y031816D03*
X005632Y031887D03*
D175*
X006695Y030792D03*
X008049Y030792D03*
X008073Y031824D03*
X008065Y031832D03*
X008057Y031840D03*
X008049Y031847D03*
X008041Y031855D03*
X008034Y031863D03*
X008026Y031871D03*
X009482Y030784D03*
D176*
X009793Y031808D03*
D177*
X009018Y031682D03*
X008034Y030737D03*
X006679Y030737D03*
X005679Y031808D03*
D178*
X005691Y031800D03*
D179*
X005770Y031761D03*
X007833Y031304D03*
X009707Y031761D03*
D180*
X009069Y031690D03*
X008384Y031564D03*
X009486Y030745D03*
X005573Y031690D03*
D181*
X007100Y031643D03*
D182*
X006482Y031304D03*
X008514Y031572D03*
D183*
X007723Y031281D03*
X006376Y031281D03*
D184*
X006707Y030934D03*
X009486Y030903D03*
D185*
X009486Y030895D03*
X008053Y030918D03*
X006707Y030918D03*
D186*
X006699Y030816D03*
D187*
X009482Y030808D03*
D188*
X009482Y030800D03*
X008049Y030808D03*
D189*
X006699Y030808D03*
D190*
X006695Y030800D03*
X008049Y030800D03*
X009482Y030792D03*
D191*
X007142Y008620D03*
X007142Y008364D03*
X007142Y008108D03*
X006473Y008108D03*
X006473Y008364D03*
X006473Y008620D03*
D192*
X021736Y031152D03*
X021992Y031152D03*
X022248Y031152D03*
X022504Y031152D03*
X022504Y032077D03*
X022248Y032077D03*
X021992Y032077D03*
X021736Y032077D03*
D193*
X025120Y033223D02*
X025120Y033755D01*
X026120Y033755D02*
X026120Y033223D01*
X027120Y033223D02*
X027120Y033755D01*
D194*
X028858Y035114D03*
X029733Y032489D03*
D195*
X030756Y032489D03*
X029881Y035114D03*
D196*
X016620Y010494D03*
X016620Y009234D03*
D197*
X022245Y007739D03*
X022245Y006739D03*
X018866Y034806D03*
X018866Y035806D03*
D198*
X010620Y014989D03*
D199*
X020620Y028489D03*
X021120Y029239D03*
D200*
X035620Y012489D03*
X035620Y011489D03*
X035620Y010489D03*
D201*
X020870Y019239D03*
X020870Y019614D03*
X020870Y019989D03*
X020870Y020364D03*
X020870Y020739D03*
X020495Y020739D03*
X020495Y020364D03*
X020495Y019989D03*
X020495Y019614D03*
X020495Y019239D03*
X020120Y019239D03*
X020120Y019614D03*
X020120Y019989D03*
X020120Y020364D03*
X020120Y020739D03*
X019745Y020739D03*
X019745Y020364D03*
X019745Y019989D03*
X019745Y019614D03*
X019745Y019239D03*
X019370Y019239D03*
X019370Y019614D03*
X019370Y019989D03*
X019370Y020364D03*
X019370Y020739D03*
X015995Y018364D03*
X015620Y018489D03*
X015870Y018989D03*
X015120Y018739D03*
X015120Y017989D03*
X015745Y017614D03*
X015120Y020989D03*
X015120Y021489D03*
X015620Y022989D03*
X015620Y023489D03*
X015620Y023989D03*
X015620Y024489D03*
X019620Y028614D03*
X019995Y026864D03*
X020495Y026864D03*
X016120Y034489D03*
X015682Y034677D03*
X022057Y035489D03*
X022432Y035489D03*
X031120Y031989D03*
X031120Y031489D03*
X031620Y031489D03*
X031620Y031989D03*
X008870Y025239D03*
X008870Y024864D03*
X008870Y024489D03*
X008870Y024114D03*
X008870Y023739D03*
X008495Y023739D03*
X008495Y024114D03*
X008495Y024489D03*
X008495Y024864D03*
X008495Y025239D03*
X008120Y025239D03*
X008120Y024864D03*
X008120Y024489D03*
X008120Y024114D03*
X008120Y023739D03*
X007745Y023739D03*
X007745Y024114D03*
X007745Y024489D03*
X007745Y024864D03*
X007745Y025239D03*
X007370Y025239D03*
X007370Y024864D03*
X007370Y024489D03*
X007370Y024114D03*
X007370Y023739D03*
X004120Y026989D03*
X004120Y027489D03*
X004120Y027989D03*
X004120Y028489D03*
X003620Y025489D03*
X003620Y024989D03*
X003120Y024989D03*
X003120Y025489D03*
X003120Y022489D03*
X003120Y021989D03*
X003620Y022489D03*
X017495Y006739D03*
X017932Y005864D03*
X016932Y005177D03*
D202*
X025245Y007989D03*
X028120Y006489D03*
X029120Y006489D03*
X030120Y006489D03*
X031120Y006489D03*
X031120Y007489D03*
X031120Y008489D03*
X031120Y009489D03*
X030620Y011989D03*
X030620Y012489D03*
X030120Y012489D03*
X030120Y011989D03*
X029620Y011989D03*
X029620Y012489D03*
X029620Y012989D03*
X030120Y012989D03*
X030620Y012989D03*
X029120Y012989D03*
X028620Y012989D03*
X028120Y012989D03*
X028120Y012489D03*
X028620Y012489D03*
X029120Y012489D03*
X029120Y011989D03*
X028620Y011989D03*
X028120Y011989D03*
X031120Y014989D03*
X031120Y015989D03*
X031120Y016989D03*
X030120Y016989D03*
X029120Y016989D03*
X024495Y013302D03*
X026620Y021489D03*
X026620Y021989D03*
X026620Y022489D03*
X026620Y022989D03*
X024245Y031364D03*
X020932Y035677D03*
X013932Y033114D03*
X011620Y031489D03*
X011620Y030989D03*
X011620Y030489D03*
X009120Y029989D03*
D203*
X009307Y027677D03*
X020057Y023677D03*
X021432Y026302D03*
X021432Y026677D03*
X021807Y026677D03*
X021807Y026302D03*
D204*
X023120Y026739D03*
X024620Y025989D03*
X025120Y024989D03*
X026931Y025926D03*
X028120Y026489D03*
X029995Y025614D03*
X031995Y025239D03*
X032120Y023989D03*
X025557Y029052D03*
X022870Y028739D03*
X021093Y030891D03*
X019120Y029864D03*
X018120Y032114D03*
X016120Y031989D03*
X018493Y034114D03*
X017620Y035989D03*
X017120Y035989D03*
X016620Y035989D03*
X016370Y035677D03*
X016120Y035427D03*
X011120Y034364D03*
X011620Y029114D03*
X013995Y026614D03*
X012370Y024989D03*
X011870Y025614D03*
X011120Y025614D03*
X010245Y025614D03*
X010245Y024989D03*
X010245Y024239D03*
X010245Y023489D03*
X011120Y023489D03*
X011620Y022989D03*
X012370Y022989D03*
X011620Y022364D03*
X012370Y021989D03*
X011495Y021114D03*
X010807Y021739D03*
X009870Y021239D03*
X009370Y020614D03*
X008495Y020614D03*
X008495Y019489D03*
X008495Y018489D03*
X008495Y017239D03*
X009370Y016489D03*
X008495Y015989D03*
X009370Y015489D03*
X009370Y014489D03*
X009370Y013489D03*
X009370Y012489D03*
X009370Y011739D03*
X009370Y010989D03*
X009370Y009989D03*
X009370Y009114D03*
X008620Y009114D03*
X008682Y008614D03*
X008682Y008114D03*
X008620Y007614D03*
X008620Y006989D03*
X008057Y006989D03*
X007807Y007614D03*
X006495Y007614D03*
X006120Y007989D03*
X005620Y007614D03*
X006120Y008739D03*
X006495Y009114D03*
X005620Y009114D03*
X005370Y009989D03*
X005370Y010864D03*
X006495Y011489D03*
X006495Y012489D03*
X006495Y013489D03*
X006495Y014489D03*
X007745Y014489D03*
X007745Y013489D03*
X007745Y012489D03*
X007745Y011489D03*
X007745Y010489D03*
X007745Y009114D03*
X009620Y007614D03*
X009620Y006989D03*
X010620Y006989D03*
X010620Y007614D03*
X011620Y007614D03*
X011620Y006989D03*
X012620Y006989D03*
X012620Y007614D03*
X013370Y007989D03*
X013620Y006989D03*
X014620Y006989D03*
X015495Y006989D03*
X016307Y006427D03*
X016495Y006239D03*
X016682Y006052D03*
X016682Y006427D03*
X016307Y006052D03*
X017620Y007739D03*
X018120Y007239D03*
X018870Y007239D03*
X018620Y008239D03*
X018870Y008989D03*
X018870Y009989D03*
X018870Y011239D03*
X017870Y011239D03*
X017620Y010739D03*
X017620Y009739D03*
X017620Y008739D03*
X015620Y009489D03*
X014870Y008489D03*
X015370Y007989D03*
X013370Y008989D03*
X013370Y009989D03*
X013370Y010989D03*
X013370Y011989D03*
X013370Y012989D03*
X013370Y013989D03*
X013370Y014989D03*
X013995Y015614D03*
X014370Y016114D03*
X015245Y016114D03*
X016120Y015739D03*
X017120Y015739D03*
X017870Y015489D03*
X017870Y014489D03*
X017370Y013989D03*
X017870Y013489D03*
X017870Y012489D03*
X017620Y011864D03*
X018995Y012489D03*
X018995Y012864D03*
X020370Y012489D03*
X021370Y012489D03*
X022182Y012864D03*
X023057Y013677D03*
X023807Y014427D03*
X024620Y015239D03*
X024620Y016239D03*
X023620Y016989D03*
X024620Y017489D03*
X024620Y018489D03*
X024620Y019489D03*
X024620Y020489D03*
X024620Y021489D03*
X024620Y022239D03*
X023370Y022239D03*
X022370Y022239D03*
X022370Y021239D03*
X022370Y020239D03*
X022370Y019239D03*
X022870Y018239D03*
X022120Y016864D03*
X022870Y015989D03*
X021870Y015489D03*
X021120Y016239D03*
X020370Y015739D03*
X020370Y016989D03*
X020370Y014489D03*
X020370Y013489D03*
X020370Y011239D03*
X021120Y011239D03*
X021870Y011239D03*
X021870Y010489D03*
X021495Y009864D03*
X021495Y008864D03*
X021120Y008489D03*
X020370Y008489D03*
X020370Y009489D03*
X020370Y010489D03*
X020370Y007489D03*
X021120Y007489D03*
X021120Y006489D03*
X020370Y006489D03*
X020620Y005489D03*
X019620Y005489D03*
X018620Y005489D03*
X016620Y003739D03*
X016370Y002239D03*
X016995Y002239D03*
X017745Y002239D03*
X018620Y002489D03*
X019620Y002489D03*
X020620Y002489D03*
X021620Y002489D03*
X022620Y002489D03*
X023620Y002489D03*
X023995Y001864D03*
X023620Y001114D03*
X022620Y001114D03*
X021620Y001114D03*
X020620Y001114D03*
X019620Y001114D03*
X018620Y001114D03*
X017745Y001114D03*
X016620Y001114D03*
X015620Y001114D03*
X015620Y001614D03*
X015745Y002239D03*
X014620Y001614D03*
X014620Y001114D03*
X013620Y001114D03*
X013620Y001614D03*
X012620Y001114D03*
X011620Y001114D03*
X010620Y001114D03*
X009620Y001114D03*
X008620Y001114D03*
X007620Y001114D03*
X006620Y001114D03*
X005745Y001114D03*
X005745Y001989D03*
X005745Y002989D03*
X005745Y003989D03*
X005745Y004989D03*
X005620Y006239D03*
X006620Y006239D03*
X007620Y005489D03*
X008620Y005489D03*
X008620Y004989D03*
X009245Y004489D03*
X009870Y004989D03*
X010495Y004489D03*
X010870Y004989D03*
X011495Y004489D03*
X012245Y004489D03*
X012995Y004489D03*
X012995Y003614D03*
X012370Y002989D03*
X012370Y002239D03*
X004620Y006239D03*
X003620Y006239D03*
X002620Y006239D03*
X001620Y006239D03*
X000745Y006239D03*
X000745Y006989D03*
X000745Y007989D03*
X000745Y008989D03*
X000745Y009989D03*
X000745Y010989D03*
X000745Y011989D03*
X000745Y012989D03*
X000745Y013989D03*
X000745Y014989D03*
X000745Y015989D03*
X000745Y016989D03*
X000745Y017989D03*
X000745Y018989D03*
X000745Y019989D03*
X000745Y020989D03*
X000745Y021989D03*
X000745Y022989D03*
X000745Y023989D03*
X000745Y024989D03*
X000745Y025989D03*
X000745Y026989D03*
X000745Y027989D03*
X000745Y028864D03*
X001870Y028864D03*
X001870Y027989D03*
X001870Y026989D03*
X001870Y025989D03*
X001870Y024989D03*
X001870Y023989D03*
X001870Y022989D03*
X001870Y021989D03*
X002120Y021239D03*
X002620Y020739D03*
X002620Y019739D03*
X002620Y018739D03*
X002620Y017989D03*
X002620Y017239D03*
X003245Y016614D03*
X004120Y015989D03*
X005245Y015989D03*
X006495Y015989D03*
X007245Y017489D03*
X007245Y017989D03*
X006120Y018489D03*
X006120Y019489D03*
X006245Y020114D03*
X006870Y020114D03*
X005745Y020614D03*
X004745Y020614D03*
X003745Y020614D03*
X003745Y019489D03*
X003745Y018239D03*
X004620Y017489D03*
X010620Y016864D03*
X011620Y016864D03*
X012370Y016864D03*
X012370Y017989D03*
X012370Y018989D03*
X012370Y019989D03*
X012370Y020989D03*
X012370Y023989D03*
X008120Y026989D03*
X015995Y029364D03*
X017870Y025114D03*
X019995Y022114D03*
X016370Y013989D03*
X014620Y013364D03*
X014620Y012864D03*
X015620Y012114D03*
X015620Y011364D03*
X015620Y010489D03*
X010495Y010989D03*
X010495Y011239D03*
X023870Y011864D03*
D205*
X022245Y022989D03*
X015120Y025989D03*
M02*
