%
M48
M72
T01C0.0118
T02C0.0157
T03C0.0197
T04C0.0236
T05C0.0276
T06C0.0354
T07C0.0360
T08C0.0394
T09C0.0400
T10C0.0520
T11C0.0591
T12C0.0669
T13C0.1260
%
T01
X5745Y1114
X6620Y1114
X7620Y1114
X8620Y1114
X9620Y1114
X10620Y1114
X11620Y1114
X12620Y1114
X13620Y1114
X13620Y1614
X14620Y1614
X14620Y1114
X15620Y1114
X15620Y1614
X15745Y2239
X16370Y2239
X16995Y2239
X17745Y2239
X18620Y2489
X19620Y2489
X20620Y2489
X21620Y2489
X22620Y2489
X23620Y2489
X23995Y1864
X23620Y1114
X22620Y1114
X21620Y1114
X20620Y1114
X19620Y1114
X18620Y1114
X17745Y1114
X16620Y1114
X16620Y3739
X18620Y5489
X19620Y5489
X20620Y5489
X20370Y6489
X21120Y6489
X21120Y7489
X20370Y7489
X20370Y8489
X21120Y8489
X21495Y8864
X21495Y9864
X21870Y10489
X21870Y11239
X21120Y11239
X20370Y11239
X20370Y10489
X20370Y9489
X18870Y8989
X18620Y8239
X17620Y7739
X18120Y7239
X18870Y7239
X17620Y8739
X17620Y9739
X17620Y10739
X17870Y11239
X17620Y11864
X17870Y12489
X17870Y13489
X17370Y13989
X17870Y14489
X17870Y15489
X17120Y15739
X16120Y15739
X15245Y16114
X14370Y16114
X13995Y15614
X13370Y14989
X13370Y13989
X13370Y12989
X13370Y11989
X13370Y10989
X13370Y9989
X13370Y8989
X13370Y7989
X12620Y7614
X12620Y6989
X11620Y6989
X11620Y7614
X10620Y7614
X10620Y6989
X9620Y6989
X9620Y7614
X8620Y7614
X8620Y6989
X8057Y6989
X7807Y7614
X8682Y8114
X8682Y8614
X8620Y9114
X9370Y9114
X9370Y9989
X9370Y10989
X9370Y11739
X9370Y12489
X9370Y13489
X9370Y14489
X9370Y15489
X8495Y15989
X9370Y16489
X8495Y17239
X8495Y18489
X8495Y19489
X8495Y20614
X9370Y20614
X9870Y21239
X10807Y21739
X11495Y21114
X12370Y20989
X12370Y19989
X12370Y18989
X12370Y17989
X12370Y16864
X11620Y16864
X10620Y16864
X7745Y14489
X7745Y13489
X7745Y12489
X7745Y11489
X7745Y10489
X6495Y11489
X6495Y12489
X6495Y13489
X6495Y14489
X6495Y15989
X5245Y15989
X4120Y15989
X3245Y16614
X2620Y17239
X2620Y17989
X2620Y18739
X2620Y19739
X2620Y20739
X2120Y21239
X1870Y21989
X1870Y22989
X1870Y23989
X1870Y24989
X1870Y25989
X1870Y26989
X1870Y27989
X1870Y28864
X745Y28864
X745Y27989
X745Y26989
X745Y25989
X745Y24989
X745Y23989
X745Y22989
X745Y21989
X745Y20989
X745Y19989
X745Y18989
X745Y17989
X745Y16989
X745Y15989
X745Y14989
X745Y13989
X745Y12989
X745Y11989
X745Y10989
X745Y9989
X745Y8989
X745Y7989
X745Y6989
X745Y6239
X1620Y6239
X2620Y6239
X3620Y6239
X4620Y6239
X5620Y6239
X6620Y6239
X7620Y5489
X8620Y5489
X8620Y4989
X9245Y4489
X9870Y4989
X10495Y4489
X10870Y4989
X11495Y4489
X12245Y4489
X12995Y4489
X12995Y3614
X12370Y2989
X12370Y2239
X16307Y6052
X16495Y6239
X16682Y6052
X16682Y6427
X16307Y6427
X15495Y6989
X14620Y6989
X13620Y6989
X14870Y8489
X15370Y7989
X15620Y9489
X15620Y10489
X15620Y11364
X15620Y12114
X14620Y12864
X14620Y13364
X16370Y13989
X18995Y12864
X18995Y12489
X18870Y11239
X18870Y9989
X20370Y12489
X21370Y12489
X22182Y12864
X23057Y13677
X23807Y14427
X24620Y15239
X24620Y16239
X23620Y16989
X24620Y17489
X24620Y18489
X24620Y19489
X24620Y20489
X24620Y21489
X24620Y22239
X23370Y22239
X22370Y22239
X22370Y21239
X22370Y20239
X22370Y19239
X22870Y18239
X22120Y16864
X22870Y15989
X21870Y15489
X21120Y16239
X20370Y15739
X20370Y16989
X20370Y14489
X20370Y13489
X23870Y11864
X19995Y22114
X17870Y25114
X13995Y26614
X12370Y24989
X11870Y25614
X11120Y25614
X10245Y25614
X10245Y24989
X10245Y24239
X10245Y23489
X11120Y23489
X11620Y22989
X12370Y22989
X11620Y22364
X12370Y21989
X12370Y23989
X8120Y26989
X11620Y29114
X15995Y29364
X16120Y31989
X18120Y32114
X18493Y34114
X17620Y35989
X17120Y35989
X16620Y35989
X16370Y35677
X16120Y35427
X21093Y30891
X19120Y29864
X22870Y28739
X23120Y26739
X24620Y25989
X25120Y24989
X26931Y25926
X28120Y26489
X29995Y25614
X31995Y25239
X32120Y23989
X25557Y29052
X11120Y34364
X5745Y20614
X6245Y20114
X6120Y19489
X6870Y20114
X6120Y18489
X7245Y17989
X7245Y17489
X4620Y17489
X3745Y18239
X3745Y19489
X3745Y20614
X4745Y20614
X10495Y11239
X10495Y10989
X7745Y9114
X6495Y9114
X6120Y8739
X5620Y9114
X5370Y9989
X5370Y10864
X6120Y7989
X6495Y7614
X5620Y7614
X5745Y4989
X5745Y3989
X5745Y2989
X5745Y1989
T02
X16932Y5177
X17932Y5864
X17495Y6739
X15745Y17614
X15120Y17989
X15620Y18489
X15995Y18364
X15870Y18989
X15120Y18739
X15120Y20989
X15120Y21489
X15620Y22989
X15620Y23489
X15620Y23989
X15620Y24489
X19370Y20739
X19745Y20739
X20120Y20739
X20495Y20739
X20870Y20739
X20870Y20364
X20870Y19989
X20870Y19614
X20870Y19239
X20495Y19239
X20495Y19614
X20495Y19989
X20495Y20364
X20120Y20364
X20120Y19989
X20120Y19614
X20120Y19239
X19745Y19239
X19745Y19614
X19745Y19989
X19745Y20364
X19370Y20364
X19370Y19989
X19370Y19614
X19370Y19239
X19995Y26864
X20495Y26864
X19620Y28614
X16120Y34489
X15682Y34677
X22057Y35489
X22432Y35489
X31120Y31989
X31120Y31489
X31620Y31489
X31620Y31989
X8870Y25239
X8870Y24864
X8870Y24489
X8870Y24114
X8870Y23739
X8495Y23739
X8495Y24114
X8495Y24489
X8495Y24864
X8495Y25239
X8120Y25239
X8120Y24864
X8120Y24489
X8120Y24114
X8120Y23739
X7745Y23739
X7745Y24114
X7745Y24489
X7745Y24864
X7745Y25239
X7370Y25239
X7370Y24864
X7370Y24489
X7370Y24114
X7370Y23739
X4120Y26989
X4120Y27489
X4120Y27989
X4120Y28489
X3620Y25489
X3620Y24989
X3120Y24989
X3120Y25489
X3120Y22489
X3120Y21989
X3620Y22489
T03
X9307Y27677
X20057Y23677
X21432Y26302
X21432Y26677
X21807Y26677
X21807Y26302
T04
X26620Y22989
X26620Y22489
X26620Y21989
X26620Y21489
X29120Y16989
X30120Y16989
X31120Y16989
X31120Y15989
X31120Y14989
X30620Y12989
X30120Y12989
X29620Y12989
X29620Y12489
X30120Y12489
X30620Y12489
X30620Y11989
X30120Y11989
X29620Y11989
X29120Y11989
X29120Y12489
X28620Y12489
X28620Y11989
X28120Y11989
X28120Y12489
X28120Y12989
X28620Y12989
X29120Y12989
X31120Y9489
X31120Y8489
X31120Y7489
X31120Y6489
X30120Y6489
X29120Y6489
X28120Y6489
X25245Y7989
X24495Y13302
X9120Y29989
X11620Y30489
X11620Y30989
X11620Y31489
X13932Y33114
X20932Y35677
X24245Y31364
T05
X12120Y34864
X11620Y34864
X11120Y34864
X10620Y34864
X10120Y34864
X10120Y36864
X10620Y36864
X11120Y36864
X11620Y36864
X12120Y36864
T06
X25120Y33489
X26120Y33489
X27120Y33489
T07
X18866Y34806
X18866Y35806
X22245Y7739
X22245Y6739
T08
X22245Y22989
X15120Y25989
T09
X33084Y25493
X33084Y24493
X33084Y23493
X33084Y22493
X33084Y21493
X33084Y20493
X33084Y19493
X33084Y18493
X33084Y17493
X33084Y16493
X33084Y15493
X33084Y14493
X33084Y13493
X33084Y12493
X33084Y11493
X33084Y10493
X33084Y9493
X33084Y8493
X33084Y7493
X33084Y6493
X34084Y6493
X34084Y7493
X34084Y8493
X34084Y9493
X34084Y10493
X34084Y11493
X34084Y12493
X34084Y13493
X34084Y14493
X34084Y15493
X34084Y16493
X34084Y17493
X34084Y18493
X34084Y19493
X34084Y20493
X34084Y21493
X34084Y22493
X34084Y23493
X34084Y24493
X34084Y25493
X34084Y26493
X33084Y26493
X33084Y27493
X33084Y28493
X33084Y29493
X33084Y30493
X33084Y31493
X34084Y31493
X34084Y30493
X34084Y29493
X34084Y28493
X34084Y27493
X35620Y12489
X35620Y11489
X35620Y10489
T10
X10620Y14989
T11
X3245Y8364
T12
X4245Y7364
X4245Y9364
X2245Y9364
X2245Y7364
T13
X3663Y4032
X33584Y4032
X33584Y33954
X3663Y33954
M30
