G75*
G70*
%OFA0B0*%
%FSLAX24Y24*%
%IPPOS*%
%LPD*%
%AMOC8*
5,1,8,0,0,1.08239X$1,22.5*
%
%ADD10C,0.0000*%
D10*
X001331Y000644D02*
X035977Y000644D01*
X036043Y000646D01*
X036109Y000651D01*
X036175Y000661D01*
X036240Y000674D01*
X036304Y000690D01*
X036367Y000710D01*
X036429Y000734D01*
X036489Y000761D01*
X036548Y000791D01*
X036605Y000825D01*
X036660Y000862D01*
X036713Y000902D01*
X036764Y000944D01*
X036812Y000990D01*
X036858Y001038D01*
X036900Y001089D01*
X036940Y001142D01*
X036977Y001197D01*
X037011Y001254D01*
X037041Y001313D01*
X037068Y001373D01*
X037092Y001435D01*
X037112Y001498D01*
X037128Y001562D01*
X037141Y001627D01*
X037151Y001693D01*
X037156Y001759D01*
X037158Y001825D01*
X037158Y034108D01*
X037156Y034174D01*
X037151Y034240D01*
X037141Y034306D01*
X037128Y034371D01*
X037112Y034435D01*
X037092Y034498D01*
X037068Y034560D01*
X037041Y034620D01*
X037011Y034679D01*
X036977Y034736D01*
X036940Y034791D01*
X036900Y034844D01*
X036858Y034895D01*
X036812Y034943D01*
X036764Y034989D01*
X036713Y035031D01*
X036660Y035071D01*
X036605Y035108D01*
X036548Y035142D01*
X036489Y035172D01*
X036429Y035199D01*
X036367Y035223D01*
X036304Y035243D01*
X036240Y035259D01*
X036175Y035272D01*
X036109Y035282D01*
X036043Y035287D01*
X035977Y035289D01*
X029315Y035289D01*
X029315Y032140D01*
X029313Y032086D01*
X029308Y032033D01*
X029299Y031980D01*
X029286Y031928D01*
X029270Y031876D01*
X029250Y031826D01*
X029227Y031778D01*
X029200Y031731D01*
X029171Y031686D01*
X029138Y031643D01*
X029103Y031603D01*
X029065Y031565D01*
X029025Y031530D01*
X028982Y031497D01*
X028937Y031468D01*
X028890Y031441D01*
X028842Y031418D01*
X028792Y031398D01*
X028740Y031382D01*
X028688Y031369D01*
X028635Y031360D01*
X028582Y031355D01*
X028528Y031353D01*
X028528Y031352D02*
X025378Y031352D01*
X025378Y031353D02*
X025324Y031355D01*
X025271Y031360D01*
X025218Y031369D01*
X025166Y031382D01*
X025114Y031398D01*
X025064Y031418D01*
X025016Y031441D01*
X024969Y031468D01*
X024924Y031497D01*
X024881Y031530D01*
X024841Y031565D01*
X024803Y031603D01*
X024768Y031643D01*
X024735Y031686D01*
X024706Y031731D01*
X024679Y031778D01*
X024656Y031826D01*
X024636Y031876D01*
X024620Y031928D01*
X024607Y031980D01*
X024598Y032033D01*
X024593Y032086D01*
X024591Y032140D01*
X024591Y035289D01*
X018292Y035289D01*
X018292Y034502D01*
X018291Y034502D02*
X018289Y034448D01*
X018284Y034395D01*
X018275Y034342D01*
X018262Y034290D01*
X018246Y034238D01*
X018226Y034188D01*
X018203Y034140D01*
X018176Y034093D01*
X018147Y034048D01*
X018114Y034005D01*
X018079Y033965D01*
X018041Y033927D01*
X018001Y033892D01*
X017958Y033859D01*
X017913Y033830D01*
X017866Y033803D01*
X017818Y033780D01*
X017768Y033760D01*
X017716Y033744D01*
X017664Y033731D01*
X017611Y033722D01*
X017558Y033717D01*
X017504Y033715D01*
X017504Y033714D02*
X013174Y033714D01*
X013174Y033715D02*
X013120Y033717D01*
X013067Y033722D01*
X013014Y033731D01*
X012962Y033744D01*
X012910Y033760D01*
X012860Y033780D01*
X012812Y033803D01*
X012765Y033830D01*
X012720Y033859D01*
X012677Y033892D01*
X012637Y033927D01*
X012599Y033965D01*
X012564Y034005D01*
X012531Y034048D01*
X012502Y034093D01*
X012475Y034140D01*
X012452Y034188D01*
X012432Y034238D01*
X012416Y034290D01*
X012403Y034342D01*
X012394Y034395D01*
X012389Y034448D01*
X012387Y034502D01*
X012386Y034502D02*
X012386Y035289D01*
X001331Y035289D01*
X001265Y035287D01*
X001199Y035282D01*
X001133Y035272D01*
X001068Y035259D01*
X001004Y035243D01*
X000941Y035223D01*
X000879Y035199D01*
X000819Y035172D01*
X000760Y035142D01*
X000703Y035108D01*
X000648Y035071D01*
X000595Y035031D01*
X000544Y034989D01*
X000496Y034943D01*
X000450Y034895D01*
X000408Y034844D01*
X000368Y034791D01*
X000331Y034736D01*
X000297Y034679D01*
X000267Y034620D01*
X000240Y034560D01*
X000216Y034498D01*
X000196Y034435D01*
X000180Y034371D01*
X000167Y034306D01*
X000157Y034240D01*
X000152Y034174D01*
X000150Y034108D01*
X000150Y001825D01*
X000152Y001759D01*
X000157Y001693D01*
X000167Y001627D01*
X000180Y001562D01*
X000196Y001498D01*
X000216Y001435D01*
X000240Y001373D01*
X000267Y001313D01*
X000297Y001254D01*
X000331Y001197D01*
X000368Y001142D01*
X000408Y001089D01*
X000450Y001038D01*
X000496Y000990D01*
X000544Y000944D01*
X000595Y000902D01*
X000648Y000862D01*
X000703Y000825D01*
X000760Y000791D01*
X000819Y000761D01*
X000879Y000734D01*
X000941Y000710D01*
X001004Y000690D01*
X001068Y000674D01*
X001133Y000661D01*
X001199Y000651D01*
X001265Y000646D01*
X001331Y000644D01*
M02*
