G75*
G70*
%OFA0B0*%
%FSLAX24Y24*%
%IPPOS*%
%LPD*%
%AMOC8*
5,1,8,0,0,1.08239X$1,22.5*
%
%ADD10C,0.2300*%
%ADD11C,0.0600*%
%ADD12C,0.0660*%
%ADD13C,0.0554*%
%ADD14C,0.0760*%
%ADD15C,0.0827*%
%ADD16C,0.0476*%
%ADD17C,0.0850*%
%ADD18C,0.0100*%
%ADD19C,0.0475*%
%ADD20C,0.0357*%
%ADD21C,0.0396*%
%ADD22C,0.0160*%
%ADD23C,0.0531*%
%ADD24C,0.0400*%
%ADD25C,0.0278*%
%ADD26C,0.0120*%
D10*
X003693Y004187D03*
X033615Y004187D03*
X033615Y034108D03*
X003693Y034108D03*
D11*
X033115Y031647D03*
X033115Y030647D03*
X033115Y029647D03*
X033115Y028647D03*
X033115Y027647D03*
X033115Y026647D03*
X033115Y025647D03*
X033115Y024647D03*
X033115Y023647D03*
X033115Y022647D03*
X033115Y021647D03*
X033115Y020647D03*
X033115Y019647D03*
X033115Y018647D03*
X033115Y017647D03*
X033115Y016647D03*
X033115Y015647D03*
X033115Y014647D03*
X033115Y013647D03*
X033115Y012647D03*
X033115Y011647D03*
X033115Y010647D03*
X033115Y009647D03*
X033115Y008647D03*
X033115Y007647D03*
X033115Y006647D03*
X034115Y006647D03*
X034115Y007647D03*
X034115Y008647D03*
X034115Y009647D03*
X034115Y010647D03*
X034115Y011647D03*
X034115Y012647D03*
X034115Y013647D03*
X034115Y014647D03*
X034115Y015647D03*
X034115Y016647D03*
X034115Y017647D03*
X034115Y018647D03*
X034115Y019647D03*
X034115Y020647D03*
X034115Y021647D03*
X034115Y022647D03*
X034115Y023647D03*
X034115Y024647D03*
X034115Y025647D03*
X034115Y026647D03*
X034115Y027647D03*
X034115Y028647D03*
X034115Y029647D03*
X034115Y030647D03*
X034115Y031647D03*
D12*
X015525Y013394D03*
X014525Y013394D03*
X009775Y011019D03*
X009775Y010019D03*
D13*
X017654Y006421D02*
X017654Y005866D01*
X018654Y005866D02*
X018654Y006421D01*
X019654Y006421D02*
X019654Y005866D01*
X009150Y029366D02*
X009150Y029921D01*
X008150Y029921D02*
X008150Y029366D01*
X007150Y029366D02*
X007150Y029921D01*
D14*
X013150Y028144D03*
X014150Y028144D03*
X014150Y027144D03*
X013150Y027144D03*
X013150Y026144D03*
X014150Y026144D03*
X014150Y025144D03*
X014150Y024144D03*
X013150Y024144D03*
X013150Y025144D03*
X016650Y025144D03*
X016650Y024144D03*
X017650Y024144D03*
X017650Y025144D03*
X017650Y026144D03*
X017650Y027144D03*
X017650Y028144D03*
X016650Y028144D03*
X016650Y027144D03*
X016650Y026144D03*
D15*
X025953Y029049D02*
X025953Y029876D01*
X027953Y029876D02*
X027953Y029049D01*
D16*
X012650Y003300D03*
X012150Y003300D03*
X011650Y003300D03*
X011150Y003300D03*
X010650Y003300D03*
X010650Y001300D03*
X011150Y001300D03*
X011650Y001300D03*
X012150Y001300D03*
X012650Y001300D03*
D17*
X010150Y006644D03*
X015650Y006644D03*
X016525Y015019D03*
X016275Y020144D03*
X021150Y024394D03*
X021150Y026644D03*
X028650Y026144D03*
D18*
X000886Y001245D02*
X000751Y001380D01*
X000656Y001545D01*
X000606Y001729D01*
X000600Y001825D01*
X000600Y034108D01*
X000606Y034203D01*
X000656Y034388D01*
X000751Y034553D01*
X000886Y034688D01*
X001051Y034784D01*
X001236Y034833D01*
X001331Y034839D01*
X002019Y034839D01*
X002019Y032492D01*
X002077Y032433D01*
X005310Y032433D01*
X005368Y032492D01*
X005368Y034839D01*
X010150Y034839D01*
X010150Y018644D01*
X017489Y018644D01*
X017546Y018620D01*
X017754Y018620D01*
X017811Y018644D01*
X018150Y018644D01*
X018150Y018982D01*
X018174Y019039D01*
X018174Y019248D01*
X018150Y019305D01*
X018150Y019570D01*
X018224Y019644D01*
X020076Y019644D01*
X020150Y019570D01*
X020150Y018644D01*
X025489Y018644D01*
X025546Y018620D01*
X025754Y018620D01*
X025811Y018644D01*
X030864Y018644D01*
X030921Y018620D01*
X031129Y018620D01*
X031322Y018700D01*
X031360Y018738D01*
X031606Y018738D01*
X031755Y018800D01*
X032489Y019534D01*
X032489Y019523D01*
X032584Y019293D01*
X032730Y019147D01*
X032584Y019002D01*
X032489Y018772D01*
X032489Y018523D01*
X032584Y018293D01*
X032730Y018147D01*
X032584Y018002D01*
X032489Y017772D01*
X032489Y017523D01*
X032584Y017293D01*
X032730Y017147D01*
X032584Y017002D01*
X032489Y016772D01*
X032489Y016523D01*
X032584Y016293D01*
X032730Y016147D01*
X032584Y016002D01*
X032489Y015772D01*
X032489Y015523D01*
X032584Y015293D01*
X032730Y015147D01*
X032584Y015002D01*
X032489Y014772D01*
X032489Y014523D01*
X032584Y014293D01*
X032730Y014147D01*
X032584Y014002D01*
X032489Y013772D01*
X032489Y013523D01*
X032584Y013293D01*
X032730Y013147D01*
X032584Y013002D01*
X032489Y012772D01*
X032489Y012523D01*
X032584Y012293D01*
X032730Y012147D01*
X032584Y012002D01*
X032489Y011772D01*
X032489Y011523D01*
X032584Y011293D01*
X032730Y011147D01*
X032584Y011002D01*
X032489Y010772D01*
X032489Y010523D01*
X032584Y010293D01*
X032730Y010147D01*
X032584Y010002D01*
X032489Y009772D01*
X032489Y009523D01*
X032584Y009293D01*
X032730Y009147D01*
X032584Y009002D01*
X032489Y008772D01*
X032489Y008523D01*
X032584Y008293D01*
X032730Y008147D01*
X032584Y008002D01*
X032489Y007772D01*
X032489Y007523D01*
X032584Y007293D01*
X032760Y007117D01*
X032990Y007022D01*
X033239Y007022D01*
X033469Y007117D01*
X033615Y007263D01*
X033760Y007117D01*
X033990Y007022D01*
X034239Y007022D01*
X034469Y007117D01*
X034645Y007293D01*
X034740Y007523D01*
X034740Y007772D01*
X034645Y008002D01*
X034499Y008147D01*
X034645Y008293D01*
X034740Y008523D01*
X034740Y008772D01*
X034645Y009002D01*
X034499Y009147D01*
X034645Y009293D01*
X034740Y009523D01*
X034740Y009772D01*
X034645Y010002D01*
X034499Y010147D01*
X034645Y010293D01*
X034740Y010523D01*
X034740Y010772D01*
X034645Y011002D01*
X034499Y011147D01*
X034645Y011293D01*
X034740Y011523D01*
X034740Y011772D01*
X034645Y012002D01*
X034499Y012147D01*
X034645Y012293D01*
X034740Y012523D01*
X034740Y012772D01*
X034645Y013002D01*
X034499Y013147D01*
X034645Y013293D01*
X034740Y013523D01*
X034740Y013772D01*
X034645Y014002D01*
X034499Y014147D01*
X034645Y014293D01*
X034740Y014523D01*
X034740Y014772D01*
X034645Y015002D01*
X034499Y015147D01*
X034645Y015293D01*
X034740Y015523D01*
X034740Y015772D01*
X034645Y016002D01*
X034499Y016147D01*
X034645Y016293D01*
X034740Y016523D01*
X034740Y016772D01*
X034645Y017002D01*
X034499Y017147D01*
X034645Y017293D01*
X034740Y017523D01*
X034740Y017772D01*
X034645Y018002D01*
X034499Y018147D01*
X034645Y018293D01*
X034740Y018523D01*
X034740Y018772D01*
X034645Y019002D01*
X034499Y019147D01*
X034645Y019293D01*
X034740Y019523D01*
X034740Y019772D01*
X034645Y020002D01*
X034499Y020147D01*
X034645Y020293D01*
X034740Y020523D01*
X034740Y020772D01*
X034645Y021002D01*
X034499Y021147D01*
X034645Y021293D01*
X034740Y021523D01*
X034740Y021772D01*
X034645Y022002D01*
X034499Y022147D01*
X034645Y022293D01*
X034740Y022523D01*
X034740Y022772D01*
X034645Y023002D01*
X034499Y023147D01*
X034645Y023293D01*
X034740Y023523D01*
X034740Y023772D01*
X034645Y024002D01*
X034499Y024147D01*
X034645Y024293D01*
X034740Y024523D01*
X034740Y024772D01*
X034645Y025002D01*
X034499Y025147D01*
X034645Y025293D01*
X034740Y025523D01*
X034740Y025772D01*
X034645Y026002D01*
X034499Y026147D01*
X034645Y026293D01*
X034740Y026523D01*
X034740Y026772D01*
X034645Y027002D01*
X034499Y027147D01*
X034645Y027293D01*
X034740Y027523D01*
X034740Y027772D01*
X034645Y028002D01*
X034499Y028147D01*
X034645Y028293D01*
X034740Y028523D01*
X034740Y028772D01*
X034645Y029002D01*
X034499Y029147D01*
X034645Y029293D01*
X034740Y029523D01*
X034740Y029772D01*
X034645Y030002D01*
X034499Y030147D01*
X034645Y030293D01*
X034740Y030523D01*
X034740Y030772D01*
X034645Y031002D01*
X034469Y031178D01*
X034239Y031273D01*
X033990Y031273D01*
X033760Y031178D01*
X033615Y031032D01*
X033469Y031178D01*
X033239Y031273D01*
X032990Y031273D01*
X032760Y031178D01*
X032584Y031002D01*
X032489Y030772D01*
X032489Y030523D01*
X032584Y030293D01*
X032730Y030147D01*
X032584Y030002D01*
X032489Y029772D01*
X032489Y029523D01*
X032584Y029293D01*
X032730Y029147D01*
X032584Y029002D01*
X032489Y028772D01*
X032489Y028523D01*
X032584Y028293D01*
X032730Y028147D01*
X032584Y028002D01*
X032489Y027772D01*
X032489Y027523D01*
X032584Y027293D01*
X032730Y027147D01*
X032584Y027002D01*
X032489Y026772D01*
X032489Y026523D01*
X032584Y026293D01*
X032730Y026147D01*
X032584Y026002D01*
X032489Y025772D01*
X032489Y025523D01*
X032584Y025293D01*
X032730Y025147D01*
X032584Y025002D01*
X032489Y024772D01*
X032489Y024523D01*
X032584Y024293D01*
X032730Y024147D01*
X032584Y024002D01*
X032489Y023772D01*
X032489Y023523D01*
X032584Y023293D01*
X032730Y023147D01*
X032584Y023002D01*
X032489Y022772D01*
X032489Y022523D01*
X032584Y022293D01*
X032730Y022147D01*
X032584Y022002D01*
X032489Y021772D01*
X032489Y021523D01*
X032584Y021293D01*
X032730Y021147D01*
X032584Y021002D01*
X032489Y020772D01*
X032489Y020681D01*
X031359Y019551D01*
X031322Y019587D01*
X031150Y019659D01*
X031150Y034839D01*
X031940Y034839D01*
X031940Y032492D01*
X031998Y032433D01*
X035231Y032433D01*
X035289Y032492D01*
X035289Y034839D01*
X035977Y034839D01*
X036072Y034833D01*
X036257Y034784D01*
X036422Y034688D01*
X036557Y034553D01*
X036652Y034388D01*
X036702Y034203D01*
X036708Y034108D01*
X036708Y001825D01*
X036702Y001729D01*
X036652Y001545D01*
X036557Y001380D01*
X036422Y001245D01*
X036257Y001149D01*
X036072Y001100D01*
X035977Y001094D01*
X012674Y001094D01*
X012713Y001188D01*
X012713Y001412D01*
X012628Y001619D01*
X012469Y001778D01*
X012262Y001863D01*
X012038Y001863D01*
X011900Y001806D01*
X011762Y001863D01*
X011538Y001863D01*
X011400Y001806D01*
X011262Y001863D01*
X011038Y001863D01*
X010900Y001806D01*
X010762Y001863D01*
X010538Y001863D01*
X010331Y001778D01*
X010172Y001619D01*
X010087Y001412D01*
X010087Y001188D01*
X010126Y001094D01*
X001331Y001094D01*
X001236Y001100D01*
X001051Y001149D01*
X000886Y001245D01*
X000903Y001235D02*
X010087Y001235D01*
X010087Y001333D02*
X000798Y001333D01*
X000721Y001432D02*
X010095Y001432D01*
X010135Y001530D02*
X000664Y001530D01*
X000633Y001629D02*
X010182Y001629D01*
X010280Y001727D02*
X000607Y001727D01*
X000600Y001826D02*
X010446Y001826D01*
X010854Y001826D02*
X010946Y001826D01*
X011354Y001826D02*
X011446Y001826D01*
X011854Y001826D02*
X011946Y001826D01*
X012354Y001826D02*
X036708Y001826D01*
X036708Y001924D02*
X000600Y001924D01*
X000600Y002023D02*
X036708Y002023D01*
X036708Y002121D02*
X000600Y002121D01*
X000600Y002220D02*
X036708Y002220D01*
X036708Y002318D02*
X000600Y002318D01*
X000600Y002417D02*
X036708Y002417D01*
X036708Y002515D02*
X035234Y002515D01*
X035258Y002539D02*
X035258Y005772D01*
X035199Y005830D01*
X031967Y005830D01*
X031908Y005772D01*
X031908Y005689D01*
X031908Y002622D01*
X031908Y002539D01*
X031967Y002481D01*
X035199Y002481D01*
X035258Y002539D01*
X035258Y002614D02*
X036708Y002614D01*
X036708Y002712D02*
X035258Y002712D01*
X035258Y002811D02*
X036708Y002811D01*
X036708Y002909D02*
X035258Y002909D01*
X035258Y003008D02*
X036708Y003008D01*
X036708Y003106D02*
X035258Y003106D01*
X035258Y003205D02*
X036708Y003205D01*
X036708Y003303D02*
X035258Y003303D01*
X035258Y003402D02*
X036708Y003402D01*
X036708Y003500D02*
X035258Y003500D01*
X035258Y003599D02*
X036708Y003599D01*
X036708Y003697D02*
X035258Y003697D01*
X035258Y003796D02*
X036708Y003796D01*
X036708Y003894D02*
X035258Y003894D01*
X035258Y003993D02*
X036708Y003993D01*
X036708Y004091D02*
X035258Y004091D01*
X035258Y004190D02*
X036708Y004190D01*
X036708Y004288D02*
X035258Y004288D01*
X035258Y004387D02*
X036708Y004387D01*
X036708Y004485D02*
X035258Y004485D01*
X035258Y004584D02*
X036708Y004584D01*
X036708Y004682D02*
X035258Y004682D01*
X035258Y004781D02*
X036708Y004781D01*
X036708Y004879D02*
X035258Y004879D01*
X035258Y004978D02*
X036708Y004978D01*
X036708Y005076D02*
X035258Y005076D01*
X035258Y005175D02*
X036708Y005175D01*
X036708Y005273D02*
X035258Y005273D01*
X035258Y005372D02*
X036708Y005372D01*
X036708Y005470D02*
X035258Y005470D01*
X035258Y005569D02*
X036708Y005569D01*
X036708Y005667D02*
X035258Y005667D01*
X035258Y005766D02*
X036708Y005766D01*
X036708Y005864D02*
X020257Y005864D01*
X020257Y005766D02*
X031908Y005766D01*
X031908Y005667D02*
X020224Y005667D01*
X020257Y005746D02*
X020165Y005525D01*
X019995Y005355D01*
X019774Y005264D01*
X019534Y005264D01*
X019313Y005355D01*
X019154Y005514D01*
X018995Y005355D01*
X018774Y005264D01*
X018534Y005264D01*
X018313Y005355D01*
X018143Y005525D01*
X018051Y005746D01*
X018051Y006541D01*
X018143Y006762D01*
X018244Y006864D01*
X018244Y009308D01*
X018206Y009347D01*
X018126Y009539D01*
X018126Y009748D01*
X018206Y009940D01*
X018353Y010087D01*
X018546Y010167D01*
X018754Y010167D01*
X018947Y010087D01*
X019094Y009940D01*
X019150Y009805D01*
X019206Y009940D01*
X019353Y010087D01*
X019546Y010167D01*
X019754Y010167D01*
X019947Y010087D01*
X020094Y009940D01*
X020174Y009748D01*
X020174Y009539D01*
X020094Y009347D01*
X020056Y009308D01*
X020056Y006871D01*
X020165Y006762D01*
X020257Y006541D01*
X020257Y005746D01*
X020183Y005569D02*
X031908Y005569D01*
X031908Y005470D02*
X020110Y005470D01*
X020012Y005372D02*
X031908Y005372D01*
X031908Y005273D02*
X019797Y005273D01*
X019511Y005273D02*
X018797Y005273D01*
X019012Y005372D02*
X019296Y005372D01*
X019198Y005470D02*
X019110Y005470D01*
X018511Y005273D02*
X005337Y005273D01*
X005337Y005175D02*
X031908Y005175D01*
X031908Y005076D02*
X005337Y005076D01*
X005337Y004978D02*
X031908Y004978D01*
X031908Y004879D02*
X005337Y004879D01*
X005337Y004781D02*
X031908Y004781D01*
X031908Y004682D02*
X005337Y004682D01*
X005337Y004584D02*
X031908Y004584D01*
X031908Y004485D02*
X005337Y004485D01*
X005337Y004387D02*
X031908Y004387D01*
X031908Y004288D02*
X005337Y004288D01*
X005337Y004190D02*
X031908Y004190D01*
X031908Y004091D02*
X005337Y004091D01*
X005337Y003993D02*
X031908Y003993D01*
X031908Y003894D02*
X005337Y003894D01*
X005337Y003796D02*
X010374Y003796D01*
X010331Y003778D02*
X010172Y003619D01*
X010087Y003412D01*
X010087Y003188D01*
X010172Y002981D01*
X010331Y002822D01*
X010538Y002737D01*
X010762Y002737D01*
X010900Y002794D01*
X011038Y002737D01*
X011262Y002737D01*
X011400Y002794D01*
X011538Y002737D01*
X011762Y002737D01*
X011900Y002794D01*
X012038Y002737D01*
X012262Y002737D01*
X012400Y002794D01*
X012538Y002737D01*
X012762Y002737D01*
X012969Y002822D01*
X013128Y002981D01*
X013213Y003188D01*
X013213Y003412D01*
X013128Y003619D01*
X012969Y003778D01*
X012762Y003863D01*
X012538Y003863D01*
X012400Y003806D01*
X012262Y003863D01*
X012038Y003863D01*
X011900Y003806D01*
X011762Y003863D01*
X011538Y003863D01*
X011400Y003806D01*
X011262Y003863D01*
X011038Y003863D01*
X010900Y003806D01*
X010762Y003863D01*
X010538Y003863D01*
X010331Y003778D01*
X010250Y003697D02*
X005337Y003697D01*
X005337Y003599D02*
X010164Y003599D01*
X010123Y003500D02*
X005337Y003500D01*
X005337Y003402D02*
X010087Y003402D01*
X010087Y003303D02*
X005337Y003303D01*
X005337Y003205D02*
X010087Y003205D01*
X010121Y003106D02*
X005337Y003106D01*
X005337Y003008D02*
X010161Y003008D01*
X010244Y002909D02*
X005337Y002909D01*
X005337Y002811D02*
X010360Y002811D01*
X010108Y001136D02*
X001100Y001136D01*
X002046Y002481D02*
X005278Y002481D01*
X005337Y002539D01*
X005337Y005772D01*
X005278Y005830D01*
X002046Y005830D01*
X001987Y005772D01*
X001987Y005689D01*
X001987Y002622D01*
X001987Y002539D01*
X002046Y002481D01*
X002011Y002515D02*
X000600Y002515D01*
X000600Y002614D02*
X001987Y002614D01*
X001987Y002712D02*
X000600Y002712D01*
X000600Y002811D02*
X001987Y002811D01*
X001987Y002909D02*
X000600Y002909D01*
X000600Y003008D02*
X001987Y003008D01*
X001987Y003106D02*
X000600Y003106D01*
X000600Y003205D02*
X001987Y003205D01*
X001987Y003303D02*
X000600Y003303D01*
X000600Y003402D02*
X001987Y003402D01*
X001987Y003500D02*
X000600Y003500D01*
X000600Y003599D02*
X001987Y003599D01*
X001987Y003697D02*
X000600Y003697D01*
X000600Y003796D02*
X001987Y003796D01*
X001987Y003894D02*
X000600Y003894D01*
X000600Y003993D02*
X001987Y003993D01*
X001987Y004091D02*
X000600Y004091D01*
X000600Y004190D02*
X001987Y004190D01*
X001987Y004288D02*
X000600Y004288D01*
X000600Y004387D02*
X001987Y004387D01*
X001987Y004485D02*
X000600Y004485D01*
X000600Y004584D02*
X001987Y004584D01*
X001987Y004682D02*
X000600Y004682D01*
X000600Y004781D02*
X001987Y004781D01*
X001987Y004879D02*
X000600Y004879D01*
X000600Y004978D02*
X001987Y004978D01*
X001987Y005076D02*
X000600Y005076D01*
X000600Y005175D02*
X001987Y005175D01*
X001987Y005273D02*
X000600Y005273D01*
X000600Y005372D02*
X001987Y005372D01*
X001987Y005470D02*
X000600Y005470D01*
X000600Y005569D02*
X001987Y005569D01*
X001987Y005667D02*
X000600Y005667D01*
X000600Y005766D02*
X001987Y005766D01*
X000600Y005864D02*
X018051Y005864D01*
X018051Y005766D02*
X005337Y005766D01*
X005337Y005667D02*
X018084Y005667D01*
X018125Y005569D02*
X005337Y005569D01*
X005337Y005470D02*
X018198Y005470D01*
X018296Y005372D02*
X005337Y005372D01*
X005337Y002712D02*
X031908Y002712D01*
X031908Y002614D02*
X005337Y002614D01*
X005313Y002515D02*
X031932Y002515D01*
X031908Y002811D02*
X012940Y002811D01*
X013056Y002909D02*
X031908Y002909D01*
X031908Y003008D02*
X013139Y003008D01*
X013179Y003106D02*
X031908Y003106D01*
X031908Y003205D02*
X013213Y003205D01*
X013213Y003303D02*
X031908Y003303D01*
X031908Y003402D02*
X013213Y003402D01*
X013177Y003500D02*
X031908Y003500D01*
X031908Y003599D02*
X013136Y003599D01*
X013050Y003697D02*
X031908Y003697D01*
X031908Y003796D02*
X012926Y003796D01*
X012520Y001727D02*
X036701Y001727D01*
X036675Y001629D02*
X012618Y001629D01*
X012665Y001530D02*
X036644Y001530D01*
X036587Y001432D02*
X012705Y001432D01*
X012713Y001333D02*
X036510Y001333D01*
X036404Y001235D02*
X012713Y001235D01*
X012692Y001136D02*
X036207Y001136D01*
X036708Y005963D02*
X020257Y005963D01*
X020257Y006061D02*
X036708Y006061D01*
X036708Y006160D02*
X020257Y006160D01*
X020257Y006258D02*
X036708Y006258D01*
X036708Y006357D02*
X020257Y006357D01*
X020257Y006455D02*
X036708Y006455D01*
X036708Y006554D02*
X020251Y006554D01*
X020211Y006652D02*
X036708Y006652D01*
X036708Y006751D02*
X020170Y006751D01*
X020078Y006849D02*
X036708Y006849D01*
X036708Y006948D02*
X020056Y006948D01*
X020056Y007046D02*
X032932Y007046D01*
X032733Y007145D02*
X020056Y007145D01*
X020056Y007243D02*
X032634Y007243D01*
X032564Y007342D02*
X020056Y007342D01*
X020056Y007440D02*
X032523Y007440D01*
X032489Y007539D02*
X020056Y007539D01*
X020056Y007637D02*
X032489Y007637D01*
X032489Y007736D02*
X020056Y007736D01*
X020056Y007834D02*
X032515Y007834D01*
X032556Y007933D02*
X020056Y007933D01*
X020056Y008031D02*
X032613Y008031D01*
X032712Y008130D02*
X028153Y008130D01*
X028129Y008120D02*
X028322Y008200D01*
X028360Y008238D01*
X029731Y008238D01*
X029880Y008300D01*
X030450Y008870D01*
X030504Y008870D01*
X030697Y008950D01*
X030844Y009097D01*
X030924Y009289D01*
X030924Y009498D01*
X030844Y009690D01*
X030697Y009837D01*
X030588Y009883D01*
X030950Y010245D01*
X031004Y010245D01*
X031197Y010325D01*
X031344Y010472D01*
X031424Y010664D01*
X031424Y010873D01*
X031344Y011065D01*
X031197Y011212D01*
X031004Y011292D01*
X030796Y011292D01*
X030603Y011212D01*
X030456Y011065D01*
X030376Y010873D01*
X030376Y010818D01*
X028982Y009424D01*
X028860Y009424D01*
X028822Y009462D01*
X028629Y009542D01*
X028421Y009542D01*
X028228Y009462D01*
X028081Y009315D01*
X028020Y009167D01*
X027921Y009167D01*
X027728Y009087D01*
X027581Y008940D01*
X027501Y008748D01*
X027501Y008539D01*
X027581Y008347D01*
X027728Y008200D01*
X027921Y008120D01*
X028129Y008120D01*
X027897Y008130D02*
X020056Y008130D01*
X020056Y008228D02*
X027700Y008228D01*
X027601Y008327D02*
X020056Y008327D01*
X020056Y008425D02*
X027549Y008425D01*
X027508Y008524D02*
X020056Y008524D01*
X020056Y008622D02*
X027501Y008622D01*
X027501Y008721D02*
X020056Y008721D01*
X020056Y008819D02*
X027531Y008819D01*
X027572Y008918D02*
X020056Y008918D01*
X020056Y009016D02*
X027657Y009016D01*
X027794Y009115D02*
X020056Y009115D01*
X020056Y009213D02*
X028039Y009213D01*
X028080Y009312D02*
X020059Y009312D01*
X020120Y009410D02*
X028176Y009410D01*
X028340Y009509D02*
X020161Y009509D01*
X020174Y009607D02*
X029165Y009607D01*
X029263Y009706D02*
X020174Y009706D01*
X020150Y009804D02*
X029362Y009804D01*
X029460Y009903D02*
X020110Y009903D01*
X020033Y010001D02*
X029559Y010001D01*
X029657Y010100D02*
X019918Y010100D01*
X019382Y010100D02*
X018918Y010100D01*
X019033Y010001D02*
X019267Y010001D01*
X019190Y009903D02*
X019110Y009903D01*
X018382Y010100D02*
X012976Y010100D01*
X012913Y010162D02*
X012865Y010183D01*
X012865Y010361D01*
X012794Y010532D01*
X012663Y010662D01*
X012492Y010733D01*
X012308Y010733D01*
X012137Y010662D01*
X012006Y010532D01*
X011971Y010447D01*
X011887Y010412D01*
X011786Y010311D01*
X011786Y013447D01*
X011913Y013500D01*
X012044Y013630D01*
X012115Y013801D01*
X012115Y013986D01*
X012044Y014157D01*
X011913Y014287D01*
X011901Y014293D01*
X011901Y015737D01*
X011919Y015755D01*
X011990Y015926D01*
X011990Y016111D01*
X011919Y016282D01*
X011788Y016412D01*
X011617Y016483D01*
X011433Y016483D01*
X011262Y016412D01*
X011131Y016282D01*
X011060Y016111D01*
X011060Y015926D01*
X011131Y015755D01*
X011149Y015737D01*
X011149Y014189D01*
X011118Y014220D01*
X010977Y014279D01*
X010297Y014279D01*
X010288Y014287D01*
X010117Y014358D01*
X009933Y014358D01*
X009762Y014287D01*
X009631Y014157D01*
X009560Y013986D01*
X009560Y013801D01*
X009631Y013630D01*
X009762Y013500D01*
X009933Y013429D01*
X010117Y013429D01*
X010288Y013500D01*
X010297Y013508D01*
X010740Y013508D01*
X010823Y013425D01*
X011014Y013234D01*
X011014Y009928D01*
X009932Y008845D01*
X009823Y008737D01*
X009764Y008595D01*
X009764Y007296D01*
X009725Y007280D01*
X009514Y007069D01*
X009399Y006793D01*
X009399Y006494D01*
X009514Y006218D01*
X009725Y006007D01*
X010001Y005893D01*
X010299Y005893D01*
X010575Y006007D01*
X010786Y006218D01*
X010901Y006494D01*
X010901Y006793D01*
X010786Y007069D01*
X010575Y007280D01*
X010536Y007296D01*
X010536Y008359D01*
X011274Y009098D01*
X011274Y008069D01*
X011332Y007931D01*
X011685Y007577D01*
X011685Y007551D01*
X011756Y007380D01*
X011887Y007250D01*
X012058Y007179D01*
X012242Y007179D01*
X012400Y007244D01*
X012558Y007179D01*
X012742Y007179D01*
X012900Y007244D01*
X013058Y007179D01*
X013242Y007179D01*
X013400Y007244D01*
X013558Y007179D01*
X013742Y007179D01*
X013900Y007244D01*
X014058Y007179D01*
X014242Y007179D01*
X014400Y007244D01*
X014558Y007179D01*
X014569Y007179D01*
X014916Y006832D01*
X014899Y006793D01*
X014899Y006494D01*
X015014Y006218D01*
X015225Y006007D01*
X015501Y005893D01*
X015799Y005893D01*
X016075Y006007D01*
X016286Y006218D01*
X016401Y006494D01*
X016401Y006793D01*
X016286Y007069D01*
X016075Y007280D01*
X015799Y007394D01*
X015501Y007394D01*
X015461Y007378D01*
X015115Y007724D01*
X015115Y007736D01*
X015044Y007907D01*
X014913Y008037D01*
X014742Y008108D01*
X014717Y008108D01*
X013365Y009460D01*
X013365Y009611D01*
X013294Y009782D01*
X013163Y009912D01*
X013079Y009947D01*
X013044Y010032D01*
X012913Y010162D01*
X012865Y010198D02*
X029756Y010198D01*
X029854Y010297D02*
X012865Y010297D01*
X012851Y010395D02*
X029953Y010395D01*
X030051Y010494D02*
X012810Y010494D01*
X012734Y010592D02*
X030150Y010592D01*
X030248Y010691D02*
X012595Y010691D01*
X012205Y010691D02*
X011786Y010691D01*
X011786Y010789D02*
X030347Y010789D01*
X030382Y010888D02*
X011786Y010888D01*
X011786Y010986D02*
X030423Y010986D01*
X030475Y011085D02*
X011786Y011085D01*
X011786Y011183D02*
X030574Y011183D01*
X030770Y011282D02*
X011786Y011282D01*
X011786Y011380D02*
X032548Y011380D01*
X032507Y011479D02*
X011786Y011479D01*
X011786Y011577D02*
X032489Y011577D01*
X032489Y011676D02*
X011786Y011676D01*
X011786Y011774D02*
X032490Y011774D01*
X032531Y011873D02*
X011786Y011873D01*
X011786Y011971D02*
X032571Y011971D01*
X032652Y012070D02*
X011786Y012070D01*
X011786Y012168D02*
X032709Y012168D01*
X032611Y012267D02*
X011786Y012267D01*
X011786Y012365D02*
X032554Y012365D01*
X032514Y012464D02*
X011786Y012464D01*
X011786Y012562D02*
X032489Y012562D01*
X032489Y012661D02*
X011786Y012661D01*
X011786Y012759D02*
X014344Y012759D01*
X014395Y012738D02*
X014154Y012838D01*
X013969Y013022D01*
X013869Y013263D01*
X013869Y013524D01*
X013969Y013765D01*
X014154Y013949D01*
X014395Y014049D01*
X014655Y014049D01*
X014896Y013949D01*
X015025Y013821D01*
X015154Y013949D01*
X015395Y014049D01*
X015655Y014049D01*
X015896Y013949D01*
X016081Y013765D01*
X016181Y013524D01*
X016181Y013263D01*
X016081Y013022D01*
X015896Y012838D01*
X015655Y012738D01*
X015395Y012738D01*
X015154Y012838D01*
X015025Y012966D01*
X014896Y012838D01*
X014655Y012738D01*
X014395Y012738D01*
X014134Y012858D02*
X011786Y012858D01*
X011786Y012956D02*
X014035Y012956D01*
X013956Y013055D02*
X011786Y013055D01*
X011786Y013153D02*
X013915Y013153D01*
X013874Y013252D02*
X011786Y013252D01*
X011786Y013350D02*
X013869Y013350D01*
X013869Y013449D02*
X011790Y013449D01*
X011961Y013547D02*
X013879Y013547D01*
X013920Y013646D02*
X012050Y013646D01*
X012091Y013744D02*
X013961Y013744D01*
X014047Y013843D02*
X012115Y013843D01*
X012115Y013941D02*
X014145Y013941D01*
X014372Y014040D02*
X012092Y014040D01*
X012052Y014138D02*
X032720Y014138D01*
X032641Y014237D02*
X011964Y014237D01*
X011901Y014335D02*
X032567Y014335D01*
X032526Y014434D02*
X011901Y014434D01*
X011901Y014532D02*
X032489Y014532D01*
X032489Y014631D02*
X011901Y014631D01*
X011901Y014729D02*
X032489Y014729D01*
X032512Y014828D02*
X011901Y014828D01*
X011901Y014926D02*
X032553Y014926D01*
X032607Y015025D02*
X011901Y015025D01*
X011901Y015123D02*
X032705Y015123D01*
X032656Y015222D02*
X011901Y015222D01*
X011901Y015320D02*
X032573Y015320D01*
X032532Y015419D02*
X011901Y015419D01*
X011901Y015517D02*
X032491Y015517D01*
X032489Y015616D02*
X011901Y015616D01*
X011901Y015714D02*
X032489Y015714D01*
X032506Y015813D02*
X011943Y015813D01*
X011983Y015911D02*
X032547Y015911D01*
X032592Y016010D02*
X011990Y016010D01*
X011990Y016108D02*
X032690Y016108D01*
X032671Y016207D02*
X011950Y016207D01*
X011896Y016305D02*
X032579Y016305D01*
X032538Y016404D02*
X011797Y016404D01*
X011525Y016019D02*
X011525Y015769D01*
X011525Y014019D01*
X011650Y013894D01*
X011149Y014237D02*
X011079Y014237D01*
X011149Y014335D02*
X010173Y014335D01*
X009877Y014335D02*
X000600Y014335D01*
X000600Y014237D02*
X009711Y014237D01*
X009623Y014138D02*
X000600Y014138D01*
X000600Y014040D02*
X009583Y014040D01*
X009560Y013941D02*
X000600Y013941D01*
X000600Y013843D02*
X009560Y013843D01*
X009584Y013744D02*
X000600Y013744D01*
X000600Y013646D02*
X009625Y013646D01*
X009714Y013547D02*
X000600Y013547D01*
X000600Y013449D02*
X009885Y013449D01*
X010165Y013449D02*
X010800Y013449D01*
X010898Y013350D02*
X000600Y013350D01*
X000600Y013252D02*
X010997Y013252D01*
X011014Y013153D02*
X000600Y013153D01*
X000600Y013055D02*
X011014Y013055D01*
X011014Y012956D02*
X000600Y012956D01*
X000600Y012858D02*
X011014Y012858D01*
X011014Y012759D02*
X000600Y012759D01*
X000600Y012661D02*
X011014Y012661D01*
X011014Y012562D02*
X000600Y012562D01*
X000600Y012464D02*
X011014Y012464D01*
X011014Y012365D02*
X000600Y012365D01*
X000600Y012267D02*
X011014Y012267D01*
X011014Y012168D02*
X000600Y012168D01*
X000600Y012070D02*
X011014Y012070D01*
X011014Y011971D02*
X000600Y011971D01*
X000600Y011873D02*
X011014Y011873D01*
X011014Y011774D02*
X000600Y011774D01*
X000600Y011676D02*
X011014Y011676D01*
X011014Y011577D02*
X010140Y011577D01*
X010146Y011574D02*
X009905Y011674D01*
X009645Y011674D01*
X009404Y011574D01*
X009219Y011390D01*
X009119Y011149D01*
X009119Y010888D01*
X009219Y010647D01*
X009404Y010463D01*
X009645Y010363D01*
X009905Y010363D01*
X010146Y010463D01*
X010331Y010647D01*
X010431Y010888D01*
X010431Y011149D01*
X010331Y011390D01*
X010146Y011574D01*
X010242Y011479D02*
X011014Y011479D01*
X011014Y011380D02*
X010335Y011380D01*
X010376Y011282D02*
X011014Y011282D01*
X011014Y011183D02*
X010416Y011183D01*
X010431Y011085D02*
X011014Y011085D01*
X011014Y010986D02*
X010431Y010986D01*
X010430Y010888D02*
X011014Y010888D01*
X011014Y010789D02*
X010390Y010789D01*
X010349Y010691D02*
X011014Y010691D01*
X011014Y010592D02*
X010276Y010592D01*
X010177Y010494D02*
X011014Y010494D01*
X011014Y010395D02*
X009983Y010395D01*
X009567Y010395D02*
X000600Y010395D01*
X000600Y010297D02*
X011014Y010297D01*
X011014Y010198D02*
X000600Y010198D01*
X000600Y010100D02*
X011014Y010100D01*
X011014Y010001D02*
X000600Y010001D01*
X000600Y009903D02*
X010989Y009903D01*
X010890Y009804D02*
X000600Y009804D01*
X000600Y009706D02*
X010792Y009706D01*
X010693Y009607D02*
X000600Y009607D01*
X000600Y009509D02*
X010595Y009509D01*
X010496Y009410D02*
X000600Y009410D01*
X000600Y009312D02*
X010398Y009312D01*
X010299Y009213D02*
X000600Y009213D01*
X000600Y009115D02*
X010201Y009115D01*
X010102Y009016D02*
X000600Y009016D01*
X000600Y008918D02*
X010004Y008918D01*
X009905Y008819D02*
X000600Y008819D01*
X000600Y008721D02*
X009816Y008721D01*
X009776Y008622D02*
X000600Y008622D01*
X000600Y008524D02*
X009764Y008524D01*
X009764Y008425D02*
X000600Y008425D01*
X000600Y008327D02*
X009764Y008327D01*
X009764Y008228D02*
X000600Y008228D01*
X000600Y008130D02*
X009764Y008130D01*
X009764Y008031D02*
X000600Y008031D01*
X000600Y007933D02*
X009764Y007933D01*
X009764Y007834D02*
X000600Y007834D01*
X000600Y007736D02*
X009764Y007736D01*
X009764Y007637D02*
X000600Y007637D01*
X000600Y007539D02*
X009764Y007539D01*
X009764Y007440D02*
X000600Y007440D01*
X000600Y007342D02*
X009764Y007342D01*
X009688Y007243D02*
X000600Y007243D01*
X000600Y007145D02*
X009590Y007145D01*
X009504Y007046D02*
X000600Y007046D01*
X000600Y006948D02*
X009463Y006948D01*
X009423Y006849D02*
X000600Y006849D01*
X000600Y006751D02*
X009399Y006751D01*
X009399Y006652D02*
X000600Y006652D01*
X000600Y006554D02*
X009399Y006554D01*
X009416Y006455D02*
X000600Y006455D01*
X000600Y006357D02*
X009456Y006357D01*
X009497Y006258D02*
X000600Y006258D01*
X000600Y006160D02*
X009572Y006160D01*
X009671Y006061D02*
X000600Y006061D01*
X000600Y005963D02*
X009833Y005963D01*
X010467Y005963D02*
X015333Y005963D01*
X015171Y006061D02*
X010629Y006061D01*
X010728Y006160D02*
X015072Y006160D01*
X014997Y006258D02*
X010803Y006258D01*
X010844Y006357D02*
X014956Y006357D01*
X014916Y006455D02*
X010884Y006455D01*
X010901Y006554D02*
X014899Y006554D01*
X014899Y006652D02*
X010901Y006652D01*
X010901Y006751D02*
X014899Y006751D01*
X014899Y006849D02*
X010877Y006849D01*
X010837Y006948D02*
X014801Y006948D01*
X014702Y007046D02*
X010796Y007046D01*
X010710Y007145D02*
X014604Y007145D01*
X014403Y007243D02*
X014397Y007243D01*
X014150Y007644D02*
X012650Y009144D01*
X012650Y009769D01*
X012900Y009519D02*
X012900Y009394D01*
X014650Y007644D01*
X015074Y007834D02*
X018244Y007834D01*
X018244Y007736D02*
X015115Y007736D01*
X015202Y007637D02*
X018244Y007637D01*
X018244Y007539D02*
X015300Y007539D01*
X015399Y007440D02*
X018244Y007440D01*
X018244Y007342D02*
X015926Y007342D01*
X016112Y007243D02*
X018244Y007243D01*
X018244Y007145D02*
X016210Y007145D01*
X016296Y007046D02*
X018244Y007046D01*
X018244Y006948D02*
X016337Y006948D01*
X016377Y006849D02*
X018230Y006849D01*
X018138Y006751D02*
X016401Y006751D01*
X016401Y006652D02*
X018097Y006652D01*
X018057Y006554D02*
X016401Y006554D01*
X016384Y006455D02*
X018051Y006455D01*
X018051Y006357D02*
X016344Y006357D01*
X016303Y006258D02*
X018051Y006258D01*
X018051Y006160D02*
X016228Y006160D01*
X016129Y006061D02*
X018051Y006061D01*
X018051Y005963D02*
X015967Y005963D01*
X013903Y007243D02*
X013897Y007243D01*
X013650Y007644D02*
X012400Y008894D01*
X012400Y010269D01*
X012150Y010019D02*
X012150Y008644D01*
X013150Y007644D01*
X013397Y007243D02*
X013403Y007243D01*
X012903Y007243D02*
X012897Y007243D01*
X012650Y007644D02*
X011900Y008394D01*
X011900Y009769D01*
X011650Y009519D02*
X011650Y008144D01*
X012150Y007644D01*
X011731Y007440D02*
X010536Y007440D01*
X010536Y007342D02*
X011795Y007342D01*
X011903Y007243D02*
X010612Y007243D01*
X010536Y007539D02*
X011691Y007539D01*
X011625Y007637D02*
X010536Y007637D01*
X010536Y007736D02*
X011527Y007736D01*
X011428Y007834D02*
X010536Y007834D01*
X010536Y007933D02*
X011331Y007933D01*
X011290Y008031D02*
X010536Y008031D01*
X010536Y008130D02*
X011274Y008130D01*
X011274Y008228D02*
X010536Y008228D01*
X010536Y008327D02*
X011274Y008327D01*
X011274Y008425D02*
X010602Y008425D01*
X010700Y008524D02*
X011274Y008524D01*
X011274Y008622D02*
X010799Y008622D01*
X010897Y008721D02*
X011274Y008721D01*
X011274Y008819D02*
X010996Y008819D01*
X011094Y008918D02*
X011274Y008918D01*
X011274Y009016D02*
X011193Y009016D01*
X011786Y010395D02*
X011869Y010395D01*
X011786Y010494D02*
X011990Y010494D01*
X012066Y010592D02*
X011786Y010592D01*
X013057Y010001D02*
X018267Y010001D01*
X018190Y009903D02*
X013173Y009903D01*
X013272Y009804D02*
X018150Y009804D01*
X018126Y009706D02*
X013325Y009706D01*
X013365Y009607D02*
X018126Y009607D01*
X018139Y009509D02*
X013365Y009509D01*
X013415Y009410D02*
X018180Y009410D01*
X018241Y009312D02*
X013513Y009312D01*
X013612Y009213D02*
X018244Y009213D01*
X018244Y009115D02*
X013710Y009115D01*
X013809Y009016D02*
X018244Y009016D01*
X018244Y008918D02*
X013907Y008918D01*
X014006Y008819D02*
X018244Y008819D01*
X018244Y008721D02*
X014104Y008721D01*
X014203Y008622D02*
X018244Y008622D01*
X018244Y008524D02*
X014301Y008524D01*
X014400Y008425D02*
X018244Y008425D01*
X018244Y008327D02*
X014498Y008327D01*
X014597Y008228D02*
X018244Y008228D01*
X018244Y008130D02*
X014695Y008130D01*
X014920Y008031D02*
X018244Y008031D01*
X018244Y007933D02*
X015018Y007933D01*
X012403Y007243D02*
X012397Y007243D01*
X009373Y010494D02*
X000600Y010494D01*
X000600Y010592D02*
X009274Y010592D01*
X009201Y010691D02*
X000600Y010691D01*
X000600Y010789D02*
X009160Y010789D01*
X009120Y010888D02*
X000600Y010888D01*
X000600Y010986D02*
X009119Y010986D01*
X009119Y011085D02*
X000600Y011085D01*
X000600Y011183D02*
X009134Y011183D01*
X009174Y011282D02*
X000600Y011282D01*
X000600Y011380D02*
X009215Y011380D01*
X009308Y011479D02*
X000600Y011479D01*
X000600Y011577D02*
X009410Y011577D01*
X011149Y014434D02*
X000600Y014434D01*
X000600Y014532D02*
X011149Y014532D01*
X011149Y014631D02*
X000600Y014631D01*
X000600Y014729D02*
X011149Y014729D01*
X011149Y014828D02*
X000600Y014828D01*
X000600Y014926D02*
X011149Y014926D01*
X011149Y015025D02*
X000600Y015025D01*
X000600Y015123D02*
X011149Y015123D01*
X011149Y015222D02*
X000600Y015222D01*
X000600Y015320D02*
X011149Y015320D01*
X011149Y015419D02*
X000600Y015419D01*
X000600Y015517D02*
X011149Y015517D01*
X011149Y015616D02*
X000600Y015616D01*
X000600Y015714D02*
X011149Y015714D01*
X011107Y015813D02*
X000600Y015813D01*
X000600Y015911D02*
X011067Y015911D01*
X011060Y016010D02*
X000600Y016010D01*
X000600Y016108D02*
X011060Y016108D01*
X011100Y016207D02*
X000600Y016207D01*
X000600Y016305D02*
X011154Y016305D01*
X011253Y016404D02*
X000600Y016404D01*
X000600Y016502D02*
X032498Y016502D01*
X032489Y016601D02*
X000600Y016601D01*
X000600Y016699D02*
X032489Y016699D01*
X032500Y016798D02*
X000600Y016798D01*
X000600Y016896D02*
X032540Y016896D01*
X032581Y016995D02*
X000600Y016995D01*
X000600Y017093D02*
X032675Y017093D01*
X032686Y017192D02*
X000600Y017192D01*
X000600Y017290D02*
X032587Y017290D01*
X032545Y017389D02*
X000600Y017389D01*
X000600Y017487D02*
X032504Y017487D01*
X032489Y017586D02*
X005848Y017586D01*
X005768Y017552D02*
X005985Y017642D01*
X006151Y017809D01*
X006241Y018026D01*
X006241Y018261D01*
X006151Y018478D01*
X005985Y018645D01*
X005768Y018735D01*
X005532Y018735D01*
X005374Y018669D01*
X003426Y018669D01*
X003268Y018735D01*
X003032Y018735D01*
X002815Y018645D01*
X002649Y018478D01*
X002559Y018261D01*
X002559Y018026D01*
X002649Y017809D01*
X002815Y017642D01*
X003032Y017552D01*
X003268Y017552D01*
X003426Y017618D01*
X005374Y017618D01*
X005532Y017552D01*
X005768Y017552D01*
X006027Y017684D02*
X032489Y017684D01*
X032493Y017783D02*
X006125Y017783D01*
X006181Y017881D02*
X032534Y017881D01*
X032575Y017980D02*
X006222Y017980D01*
X006241Y018078D02*
X032660Y018078D01*
X032701Y018177D02*
X006241Y018177D01*
X006236Y018275D02*
X032602Y018275D01*
X032551Y018374D02*
X006195Y018374D01*
X006154Y018472D02*
X032510Y018472D01*
X032489Y018571D02*
X006059Y018571D01*
X005926Y018669D02*
X010150Y018669D01*
X010150Y018768D02*
X000600Y018768D01*
X000600Y018866D02*
X010150Y018866D01*
X010150Y018965D02*
X008212Y018965D01*
X008197Y018950D02*
X008344Y019097D01*
X008424Y019289D01*
X008424Y019498D01*
X008344Y019690D01*
X008197Y019837D01*
X008004Y019917D01*
X007796Y019917D01*
X007603Y019837D01*
X007565Y019799D01*
X006485Y019799D01*
X006447Y019837D01*
X006254Y019917D01*
X006046Y019917D01*
X005853Y019837D01*
X005706Y019690D01*
X005626Y019498D01*
X005626Y019289D01*
X005706Y019097D01*
X005853Y018950D01*
X006046Y018870D01*
X006254Y018870D01*
X006447Y018950D01*
X006485Y018988D01*
X007565Y018988D01*
X007603Y018950D01*
X007796Y018870D01*
X008004Y018870D01*
X008197Y018950D01*
X008310Y019063D02*
X010150Y019063D01*
X010150Y019162D02*
X008371Y019162D01*
X008412Y019260D02*
X010150Y019260D01*
X010150Y019359D02*
X008424Y019359D01*
X008424Y019457D02*
X010150Y019457D01*
X010150Y019556D02*
X008400Y019556D01*
X008359Y019654D02*
X010150Y019654D01*
X010150Y019753D02*
X008282Y019753D01*
X008164Y019851D02*
X010150Y019851D01*
X010150Y019950D02*
X000600Y019950D01*
X000600Y020048D02*
X010150Y020048D01*
X010150Y020147D02*
X000600Y020147D01*
X000600Y020245D02*
X010150Y020245D01*
X010150Y020344D02*
X000600Y020344D01*
X000600Y020442D02*
X010150Y020442D01*
X010150Y020541D02*
X000600Y020541D01*
X000600Y020639D02*
X010150Y020639D01*
X010150Y020738D02*
X000600Y020738D01*
X000600Y020836D02*
X010150Y020836D01*
X010150Y020935D02*
X000600Y020935D01*
X000600Y021033D02*
X010150Y021033D01*
X010150Y021132D02*
X000600Y021132D01*
X000600Y021230D02*
X010150Y021230D01*
X010150Y021329D02*
X000600Y021329D01*
X000600Y021427D02*
X010150Y021427D01*
X010150Y021526D02*
X000600Y021526D01*
X000600Y021624D02*
X010150Y021624D01*
X010150Y021723D02*
X000600Y021723D01*
X000600Y021821D02*
X010150Y021821D01*
X010150Y021920D02*
X000600Y021920D01*
X000600Y022018D02*
X010150Y022018D01*
X010150Y022117D02*
X000600Y022117D01*
X000600Y022215D02*
X010150Y022215D01*
X010150Y022314D02*
X000600Y022314D01*
X000600Y022412D02*
X010150Y022412D01*
X010150Y022511D02*
X000600Y022511D01*
X000600Y022609D02*
X010150Y022609D01*
X010150Y022708D02*
X000600Y022708D01*
X000600Y022806D02*
X010150Y022806D01*
X010150Y022905D02*
X000600Y022905D01*
X000600Y023003D02*
X010150Y023003D01*
X010150Y023102D02*
X000600Y023102D01*
X000600Y023200D02*
X010150Y023200D01*
X010150Y023299D02*
X000600Y023299D01*
X000600Y023397D02*
X010150Y023397D01*
X010150Y023496D02*
X000600Y023496D01*
X000600Y023594D02*
X010150Y023594D01*
X010150Y023693D02*
X000600Y023693D01*
X000600Y023791D02*
X010150Y023791D01*
X010150Y023890D02*
X000600Y023890D01*
X000600Y023988D02*
X010150Y023988D01*
X010150Y024087D02*
X000600Y024087D01*
X000600Y024185D02*
X010150Y024185D01*
X010150Y024284D02*
X000600Y024284D01*
X000600Y024382D02*
X010150Y024382D01*
X010150Y024481D02*
X000600Y024481D01*
X000600Y024579D02*
X010150Y024579D01*
X010150Y024678D02*
X000600Y024678D01*
X000600Y024776D02*
X010150Y024776D01*
X010150Y024875D02*
X000600Y024875D01*
X000600Y024973D02*
X010150Y024973D01*
X010150Y025072D02*
X000600Y025072D01*
X000600Y025170D02*
X010150Y025170D01*
X010150Y025269D02*
X000600Y025269D01*
X000600Y025367D02*
X010150Y025367D01*
X010150Y025466D02*
X000600Y025466D01*
X000600Y025564D02*
X010150Y025564D01*
X010150Y025663D02*
X000600Y025663D01*
X000600Y025761D02*
X010150Y025761D01*
X010150Y025860D02*
X000600Y025860D01*
X000600Y025958D02*
X010150Y025958D01*
X010150Y026057D02*
X000600Y026057D01*
X000600Y026155D02*
X010150Y026155D01*
X010150Y026254D02*
X000600Y026254D01*
X000600Y026352D02*
X010150Y026352D01*
X010150Y026451D02*
X000600Y026451D01*
X000600Y026549D02*
X010150Y026549D01*
X010150Y026648D02*
X000600Y026648D01*
X000600Y026746D02*
X010150Y026746D01*
X010150Y026845D02*
X000600Y026845D01*
X000600Y026943D02*
X010150Y026943D01*
X010150Y027042D02*
X000600Y027042D01*
X000600Y027140D02*
X010150Y027140D01*
X010150Y027239D02*
X000600Y027239D01*
X000600Y027337D02*
X010150Y027337D01*
X010150Y027436D02*
X000600Y027436D01*
X000600Y027534D02*
X010150Y027534D01*
X010150Y027633D02*
X000600Y027633D01*
X000600Y027731D02*
X010150Y027731D01*
X010150Y027830D02*
X000600Y027830D01*
X000600Y027928D02*
X010150Y027928D01*
X010150Y028027D02*
X000600Y028027D01*
X000600Y028125D02*
X010150Y028125D01*
X010150Y028224D02*
X000600Y028224D01*
X000600Y028322D02*
X010150Y028322D01*
X010150Y028421D02*
X000600Y028421D01*
X000600Y028519D02*
X010150Y028519D01*
X010150Y028618D02*
X000600Y028618D01*
X000600Y028716D02*
X010150Y028716D01*
X010150Y028815D02*
X009393Y028815D01*
X009491Y028855D02*
X009661Y029025D01*
X009753Y029246D01*
X009753Y030041D01*
X009661Y030262D01*
X009491Y030432D01*
X009270Y030523D01*
X009030Y030523D01*
X008809Y030432D01*
X008650Y030273D01*
X008491Y030432D01*
X008270Y030523D01*
X008030Y030523D01*
X007809Y030432D01*
X007639Y030262D01*
X007547Y030041D01*
X007547Y029246D01*
X007639Y029025D01*
X007809Y028855D01*
X008030Y028764D01*
X008270Y028764D01*
X008491Y028855D01*
X008650Y029014D01*
X008809Y028855D01*
X009030Y028764D01*
X009270Y028764D01*
X009491Y028855D01*
X009549Y028913D02*
X010150Y028913D01*
X010150Y029012D02*
X009648Y029012D01*
X009696Y029110D02*
X010150Y029110D01*
X010150Y029209D02*
X009737Y029209D01*
X009753Y029307D02*
X010150Y029307D01*
X010150Y029406D02*
X009753Y029406D01*
X009753Y029504D02*
X010150Y029504D01*
X010150Y029603D02*
X009753Y029603D01*
X009753Y029701D02*
X010150Y029701D01*
X010150Y029800D02*
X009753Y029800D01*
X009753Y029898D02*
X010150Y029898D01*
X010150Y029997D02*
X009753Y029997D01*
X009730Y030095D02*
X010150Y030095D01*
X010150Y030194D02*
X009689Y030194D01*
X009631Y030292D02*
X010150Y030292D01*
X010150Y030391D02*
X009533Y030391D01*
X009353Y030489D02*
X010150Y030489D01*
X010150Y030588D02*
X000600Y030588D01*
X000600Y030686D02*
X010150Y030686D01*
X010150Y030785D02*
X000600Y030785D01*
X000600Y030883D02*
X010150Y030883D01*
X010150Y030982D02*
X000600Y030982D01*
X000600Y031080D02*
X010150Y031080D01*
X010150Y031179D02*
X000600Y031179D01*
X000600Y031277D02*
X010150Y031277D01*
X010150Y031376D02*
X000600Y031376D01*
X000600Y031474D02*
X010150Y031474D01*
X010150Y031573D02*
X000600Y031573D01*
X000600Y031671D02*
X010150Y031671D01*
X010150Y031770D02*
X000600Y031770D01*
X000600Y031868D02*
X010150Y031868D01*
X010150Y031967D02*
X000600Y031967D01*
X000600Y032065D02*
X010150Y032065D01*
X010150Y032164D02*
X000600Y032164D01*
X000600Y032262D02*
X010150Y032262D01*
X010150Y032361D02*
X000600Y032361D01*
X000600Y032459D02*
X002051Y032459D01*
X002019Y032558D02*
X000600Y032558D01*
X000600Y032656D02*
X002019Y032656D01*
X002019Y032755D02*
X000600Y032755D01*
X000600Y032853D02*
X002019Y032853D01*
X002019Y032952D02*
X000600Y032952D01*
X000600Y033050D02*
X002019Y033050D01*
X002019Y033149D02*
X000600Y033149D01*
X000600Y033247D02*
X002019Y033247D01*
X002019Y033346D02*
X000600Y033346D01*
X000600Y033444D02*
X002019Y033444D01*
X002019Y033543D02*
X000600Y033543D01*
X000600Y033641D02*
X002019Y033641D01*
X002019Y033740D02*
X000600Y033740D01*
X000600Y033838D02*
X002019Y033838D01*
X002019Y033937D02*
X000600Y033937D01*
X000600Y034035D02*
X002019Y034035D01*
X002019Y034134D02*
X000602Y034134D01*
X000614Y034232D02*
X002019Y034232D01*
X002019Y034331D02*
X000640Y034331D01*
X000679Y034429D02*
X002019Y034429D01*
X002019Y034528D02*
X000736Y034528D01*
X000824Y034626D02*
X002019Y034626D01*
X002019Y034725D02*
X000949Y034725D01*
X001199Y034823D02*
X002019Y034823D01*
X005368Y034823D02*
X010150Y034823D01*
X010150Y034725D02*
X005368Y034725D01*
X005368Y034626D02*
X010150Y034626D01*
X010150Y034528D02*
X005368Y034528D01*
X005368Y034429D02*
X010150Y034429D01*
X010150Y034331D02*
X005368Y034331D01*
X005368Y034232D02*
X010150Y034232D01*
X010150Y034134D02*
X005368Y034134D01*
X005368Y034035D02*
X010150Y034035D01*
X010150Y033937D02*
X005368Y033937D01*
X005368Y033838D02*
X010150Y033838D01*
X010150Y033740D02*
X005368Y033740D01*
X005368Y033641D02*
X010150Y033641D01*
X010150Y033543D02*
X005368Y033543D01*
X005368Y033444D02*
X010150Y033444D01*
X010150Y033346D02*
X005368Y033346D01*
X005368Y033247D02*
X010150Y033247D01*
X010150Y033149D02*
X005368Y033149D01*
X005368Y033050D02*
X010150Y033050D01*
X010150Y032952D02*
X005368Y032952D01*
X005368Y032853D02*
X010150Y032853D01*
X010150Y032755D02*
X005368Y032755D01*
X005368Y032656D02*
X010150Y032656D01*
X010150Y032558D02*
X005368Y032558D01*
X005335Y032459D02*
X010150Y032459D01*
X008947Y030489D02*
X008353Y030489D01*
X008533Y030391D02*
X008767Y030391D01*
X008669Y030292D02*
X008631Y030292D01*
X007947Y030489D02*
X000600Y030489D01*
X000600Y030391D02*
X007767Y030391D01*
X007669Y030292D02*
X000600Y030292D01*
X000600Y030194D02*
X007611Y030194D01*
X007570Y030095D02*
X000600Y030095D01*
X000600Y029997D02*
X007547Y029997D01*
X007547Y029898D02*
X000600Y029898D01*
X000600Y029800D02*
X007547Y029800D01*
X007547Y029701D02*
X000600Y029701D01*
X000600Y029603D02*
X007547Y029603D01*
X007547Y029504D02*
X000600Y029504D01*
X000600Y029406D02*
X007547Y029406D01*
X007547Y029307D02*
X000600Y029307D01*
X000600Y029209D02*
X007563Y029209D01*
X007604Y029110D02*
X000600Y029110D01*
X000600Y029012D02*
X007652Y029012D01*
X007751Y028913D02*
X000600Y028913D01*
X000600Y028815D02*
X007907Y028815D01*
X008393Y028815D02*
X008907Y028815D01*
X008751Y028913D02*
X008549Y028913D01*
X008648Y029012D02*
X008652Y029012D01*
X012400Y029012D02*
X014900Y029012D01*
X014900Y029110D02*
X012400Y029110D01*
X012400Y029209D02*
X014900Y029209D01*
X014900Y029307D02*
X012400Y029307D01*
X012400Y029406D02*
X014900Y029406D01*
X014900Y029504D02*
X012400Y029504D01*
X012400Y029603D02*
X014900Y029603D01*
X014900Y029701D02*
X012400Y029701D01*
X012400Y029800D02*
X014900Y029800D01*
X014900Y029898D02*
X012400Y029898D01*
X012400Y029997D02*
X014900Y029997D01*
X014900Y030095D02*
X012400Y030095D01*
X012400Y030194D02*
X014900Y030194D01*
X014900Y030292D02*
X012400Y030292D01*
X012400Y030391D02*
X014900Y030391D01*
X014900Y030489D02*
X012400Y030489D01*
X012400Y030588D02*
X014900Y030588D01*
X014900Y030686D02*
X012400Y030686D01*
X012400Y030785D02*
X014900Y030785D01*
X014900Y030883D02*
X012400Y030883D01*
X012400Y030982D02*
X014900Y030982D01*
X014900Y031080D02*
X012400Y031080D01*
X012400Y031179D02*
X014900Y031179D01*
X014900Y031277D02*
X012400Y031277D01*
X012400Y031376D02*
X014900Y031376D01*
X014900Y031394D02*
X014900Y022894D01*
X013400Y022894D01*
X013400Y017394D01*
X012400Y017394D01*
X012400Y033394D01*
X012594Y033394D01*
X012605Y033385D01*
X012978Y033264D01*
X017700Y033264D01*
X017700Y033264D01*
X018073Y033385D01*
X018084Y033394D01*
X018150Y033394D01*
X018150Y033441D01*
X018390Y033616D01*
X018390Y033616D01*
X018621Y033933D01*
X018742Y034306D01*
X018742Y034839D01*
X024141Y034839D01*
X024141Y031944D01*
X024150Y031916D01*
X024150Y031144D01*
X024400Y030894D01*
X026400Y030894D01*
X026400Y027894D01*
X019400Y027894D01*
X019400Y031394D01*
X014900Y031394D01*
X012400Y031474D02*
X024150Y031474D01*
X024150Y031376D02*
X019400Y031376D01*
X019400Y031277D02*
X024150Y031277D01*
X024150Y031179D02*
X019400Y031179D01*
X019400Y031080D02*
X024213Y031080D01*
X024312Y030982D02*
X019400Y030982D01*
X019400Y030883D02*
X026400Y030883D01*
X026400Y030785D02*
X019400Y030785D01*
X019400Y030686D02*
X026400Y030686D01*
X026400Y030588D02*
X019400Y030588D01*
X019400Y030489D02*
X026400Y030489D01*
X026400Y030391D02*
X019400Y030391D01*
X019400Y030292D02*
X026400Y030292D01*
X026400Y030194D02*
X019400Y030194D01*
X019400Y030095D02*
X026400Y030095D01*
X026400Y029997D02*
X019400Y029997D01*
X019400Y029898D02*
X026400Y029898D01*
X026400Y029800D02*
X019400Y029800D01*
X019400Y029701D02*
X026400Y029701D01*
X026400Y029603D02*
X019400Y029603D01*
X019400Y029504D02*
X026400Y029504D01*
X026400Y029406D02*
X019400Y029406D01*
X019400Y029307D02*
X026400Y029307D01*
X026400Y029209D02*
X019400Y029209D01*
X019400Y029110D02*
X026400Y029110D01*
X026400Y029012D02*
X019400Y029012D01*
X019400Y028913D02*
X026400Y028913D01*
X026400Y028815D02*
X019400Y028815D01*
X019400Y028716D02*
X026400Y028716D01*
X026400Y028618D02*
X019400Y028618D01*
X019400Y028519D02*
X026400Y028519D01*
X026400Y028421D02*
X019400Y028421D01*
X019400Y028322D02*
X026400Y028322D01*
X026400Y028224D02*
X019400Y028224D01*
X019400Y028125D02*
X026400Y028125D01*
X026400Y028027D02*
X019400Y028027D01*
X019400Y027928D02*
X026400Y027928D01*
X027400Y027928D02*
X029150Y027928D01*
X029150Y027830D02*
X027400Y027830D01*
X027400Y027731D02*
X029150Y027731D01*
X029150Y027633D02*
X027400Y027633D01*
X027400Y027534D02*
X029150Y027534D01*
X029150Y027436D02*
X027400Y027436D01*
X027400Y027337D02*
X029150Y027337D01*
X029150Y027239D02*
X027400Y027239D01*
X027400Y027140D02*
X029150Y027140D01*
X029150Y027042D02*
X027400Y027042D01*
X027400Y026943D02*
X029150Y026943D01*
X029150Y026845D02*
X023900Y026845D01*
X023900Y026894D02*
X027400Y026894D01*
X027400Y030894D01*
X029150Y030894D01*
X029150Y020394D01*
X023900Y020394D01*
X023900Y026894D01*
X023900Y026746D02*
X029150Y026746D01*
X029150Y026648D02*
X023900Y026648D01*
X023900Y026549D02*
X029150Y026549D01*
X029150Y026451D02*
X023900Y026451D01*
X023900Y026352D02*
X029150Y026352D01*
X029150Y026254D02*
X023900Y026254D01*
X023900Y026155D02*
X029150Y026155D01*
X029150Y026057D02*
X023900Y026057D01*
X023900Y025958D02*
X029150Y025958D01*
X029150Y025860D02*
X023900Y025860D01*
X023900Y025761D02*
X029150Y025761D01*
X029150Y025663D02*
X023900Y025663D01*
X023900Y025564D02*
X029150Y025564D01*
X029150Y025466D02*
X023900Y025466D01*
X023900Y025367D02*
X029150Y025367D01*
X029150Y025269D02*
X023900Y025269D01*
X023900Y025170D02*
X029150Y025170D01*
X029150Y025072D02*
X023900Y025072D01*
X023900Y024973D02*
X029150Y024973D01*
X029150Y024875D02*
X023900Y024875D01*
X023900Y024776D02*
X029150Y024776D01*
X029150Y024678D02*
X023900Y024678D01*
X023900Y024579D02*
X029150Y024579D01*
X029150Y024481D02*
X023900Y024481D01*
X023900Y024382D02*
X029150Y024382D01*
X029150Y024284D02*
X023900Y024284D01*
X023900Y024185D02*
X029150Y024185D01*
X029150Y024087D02*
X023900Y024087D01*
X023900Y023988D02*
X029150Y023988D01*
X029150Y023890D02*
X023900Y023890D01*
X023900Y023791D02*
X029150Y023791D01*
X029150Y023693D02*
X023900Y023693D01*
X023900Y023594D02*
X029150Y023594D01*
X029150Y023496D02*
X023900Y023496D01*
X023900Y023397D02*
X029150Y023397D01*
X029150Y023299D02*
X023900Y023299D01*
X023900Y023200D02*
X029150Y023200D01*
X029150Y023102D02*
X023900Y023102D01*
X023900Y023003D02*
X029150Y023003D01*
X029150Y022905D02*
X023900Y022905D01*
X023900Y022806D02*
X029150Y022806D01*
X029150Y022708D02*
X023900Y022708D01*
X023900Y022609D02*
X029150Y022609D01*
X029150Y022511D02*
X023900Y022511D01*
X023900Y022412D02*
X029150Y022412D01*
X029150Y022314D02*
X023900Y022314D01*
X023900Y022215D02*
X029150Y022215D01*
X029150Y022117D02*
X023900Y022117D01*
X023900Y022018D02*
X029150Y022018D01*
X029150Y021920D02*
X023900Y021920D01*
X023900Y021821D02*
X029150Y021821D01*
X029150Y021723D02*
X023900Y021723D01*
X023900Y021624D02*
X029150Y021624D01*
X029150Y021526D02*
X023900Y021526D01*
X023900Y021427D02*
X029150Y021427D01*
X029150Y021329D02*
X023900Y021329D01*
X023900Y021230D02*
X029150Y021230D01*
X029150Y021132D02*
X023900Y021132D01*
X023900Y021033D02*
X029150Y021033D01*
X029150Y020935D02*
X023900Y020935D01*
X023900Y020836D02*
X029150Y020836D01*
X029150Y020738D02*
X023900Y020738D01*
X023900Y020639D02*
X029150Y020639D01*
X029150Y020541D02*
X023900Y020541D01*
X023900Y020442D02*
X029150Y020442D01*
X031150Y020442D02*
X032250Y020442D01*
X032151Y020344D02*
X031150Y020344D01*
X031150Y020245D02*
X032053Y020245D01*
X031954Y020147D02*
X031150Y020147D01*
X031150Y020048D02*
X031856Y020048D01*
X031757Y019950D02*
X031150Y019950D01*
X031150Y019851D02*
X031659Y019851D01*
X031560Y019753D02*
X031150Y019753D01*
X031161Y019654D02*
X031462Y019654D01*
X031363Y019556D02*
X031354Y019556D01*
X031920Y018965D02*
X032569Y018965D01*
X032528Y018866D02*
X031821Y018866D01*
X031677Y018768D02*
X032489Y018768D01*
X032489Y018669D02*
X031248Y018669D01*
X032018Y019063D02*
X032645Y019063D01*
X032716Y019162D02*
X032117Y019162D01*
X032215Y019260D02*
X032617Y019260D01*
X032557Y019359D02*
X032314Y019359D01*
X032412Y019457D02*
X032516Y019457D01*
X032348Y020541D02*
X031150Y020541D01*
X031150Y020639D02*
X032447Y020639D01*
X032489Y020738D02*
X031150Y020738D01*
X031150Y020836D02*
X032516Y020836D01*
X032556Y020935D02*
X031150Y020935D01*
X031150Y021033D02*
X032615Y021033D01*
X032714Y021132D02*
X031150Y021132D01*
X031150Y021230D02*
X032647Y021230D01*
X032570Y021329D02*
X031150Y021329D01*
X031150Y021427D02*
X032529Y021427D01*
X032489Y021526D02*
X031150Y021526D01*
X031150Y021624D02*
X032489Y021624D01*
X032489Y021723D02*
X031150Y021723D01*
X031150Y021821D02*
X032509Y021821D01*
X032550Y021920D02*
X031150Y021920D01*
X031150Y022018D02*
X032600Y022018D01*
X032699Y022117D02*
X031150Y022117D01*
X031150Y022215D02*
X032662Y022215D01*
X032576Y022314D02*
X031150Y022314D01*
X031150Y022412D02*
X032535Y022412D01*
X032494Y022511D02*
X031150Y022511D01*
X031150Y022609D02*
X032489Y022609D01*
X032489Y022708D02*
X031150Y022708D01*
X031150Y022806D02*
X032503Y022806D01*
X032544Y022905D02*
X031150Y022905D01*
X031150Y023003D02*
X032585Y023003D01*
X032684Y023102D02*
X031150Y023102D01*
X031150Y023200D02*
X032677Y023200D01*
X032582Y023299D02*
X031150Y023299D01*
X031150Y023397D02*
X032541Y023397D01*
X032500Y023496D02*
X031150Y023496D01*
X031150Y023594D02*
X032489Y023594D01*
X032489Y023693D02*
X031150Y023693D01*
X031150Y023791D02*
X032497Y023791D01*
X032538Y023890D02*
X031150Y023890D01*
X031150Y023988D02*
X032579Y023988D01*
X032669Y024087D02*
X031150Y024087D01*
X031150Y024185D02*
X032692Y024185D01*
X032594Y024284D02*
X031150Y024284D01*
X031150Y024382D02*
X032547Y024382D01*
X032507Y024481D02*
X031150Y024481D01*
X031150Y024579D02*
X032489Y024579D01*
X032489Y024678D02*
X031150Y024678D01*
X031150Y024776D02*
X032491Y024776D01*
X032532Y024875D02*
X031150Y024875D01*
X031150Y024973D02*
X032572Y024973D01*
X032654Y025072D02*
X031150Y025072D01*
X031150Y025170D02*
X032707Y025170D01*
X032609Y025269D02*
X031150Y025269D01*
X031150Y025367D02*
X032554Y025367D01*
X032513Y025466D02*
X031150Y025466D01*
X031150Y025564D02*
X032489Y025564D01*
X032489Y025663D02*
X031150Y025663D01*
X031150Y025761D02*
X032489Y025761D01*
X032525Y025860D02*
X031150Y025860D01*
X031150Y025958D02*
X032566Y025958D01*
X032639Y026057D02*
X031150Y026057D01*
X031150Y026155D02*
X032722Y026155D01*
X032624Y026254D02*
X031150Y026254D01*
X031150Y026352D02*
X032560Y026352D01*
X032519Y026451D02*
X031150Y026451D01*
X031150Y026549D02*
X032489Y026549D01*
X032489Y026648D02*
X031150Y026648D01*
X031150Y026746D02*
X032489Y026746D01*
X032519Y026845D02*
X031150Y026845D01*
X031150Y026943D02*
X032560Y026943D01*
X032624Y027042D02*
X031150Y027042D01*
X031150Y027140D02*
X032722Y027140D01*
X032639Y027239D02*
X031150Y027239D01*
X031150Y027337D02*
X032566Y027337D01*
X032525Y027436D02*
X031150Y027436D01*
X031150Y027534D02*
X032489Y027534D01*
X032489Y027633D02*
X031150Y027633D01*
X031150Y027731D02*
X032489Y027731D01*
X032513Y027830D02*
X031150Y027830D01*
X031150Y027928D02*
X032554Y027928D01*
X032609Y028027D02*
X031150Y028027D01*
X031150Y028125D02*
X032707Y028125D01*
X032654Y028224D02*
X031150Y028224D01*
X031150Y028322D02*
X032572Y028322D01*
X032531Y028421D02*
X031150Y028421D01*
X031150Y028519D02*
X032491Y028519D01*
X032489Y028618D02*
X031150Y028618D01*
X031150Y028716D02*
X032489Y028716D01*
X032507Y028815D02*
X031150Y028815D01*
X031150Y028913D02*
X032547Y028913D01*
X032594Y029012D02*
X031150Y029012D01*
X031150Y029110D02*
X032692Y029110D01*
X032669Y029209D02*
X031150Y029209D01*
X031150Y029307D02*
X032578Y029307D01*
X032538Y029406D02*
X031150Y029406D01*
X031150Y029504D02*
X032497Y029504D01*
X032489Y029603D02*
X031150Y029603D01*
X031150Y029701D02*
X032489Y029701D01*
X032500Y029800D02*
X031150Y029800D01*
X031150Y029898D02*
X032541Y029898D01*
X032582Y029997D02*
X031150Y029997D01*
X031150Y030095D02*
X032677Y030095D01*
X032684Y030194D02*
X031150Y030194D01*
X031150Y030292D02*
X032585Y030292D01*
X032544Y030391D02*
X031150Y030391D01*
X031150Y030489D02*
X032503Y030489D01*
X032489Y030588D02*
X031150Y030588D01*
X031150Y030686D02*
X032489Y030686D01*
X032494Y030785D02*
X031150Y030785D01*
X031150Y030883D02*
X032535Y030883D01*
X032576Y030982D02*
X031150Y030982D01*
X031150Y031080D02*
X032662Y031080D01*
X032762Y031179D02*
X031150Y031179D01*
X031150Y031277D02*
X036708Y031277D01*
X036708Y031179D02*
X034467Y031179D01*
X034567Y031080D02*
X036708Y031080D01*
X036708Y030982D02*
X034653Y030982D01*
X034694Y030883D02*
X036708Y030883D01*
X036708Y030785D02*
X034735Y030785D01*
X034740Y030686D02*
X036708Y030686D01*
X036708Y030588D02*
X034740Y030588D01*
X034726Y030489D02*
X036708Y030489D01*
X036708Y030391D02*
X034685Y030391D01*
X034644Y030292D02*
X036708Y030292D01*
X036708Y030194D02*
X034545Y030194D01*
X034552Y030095D02*
X036708Y030095D01*
X036708Y029997D02*
X034647Y029997D01*
X034688Y029898D02*
X036708Y029898D01*
X036708Y029800D02*
X034729Y029800D01*
X034740Y029701D02*
X036708Y029701D01*
X036708Y029603D02*
X034740Y029603D01*
X034732Y029504D02*
X036708Y029504D01*
X036708Y029406D02*
X034692Y029406D01*
X034651Y029307D02*
X036708Y029307D01*
X036708Y029209D02*
X034560Y029209D01*
X034537Y029110D02*
X036708Y029110D01*
X036708Y029012D02*
X034635Y029012D01*
X034682Y028913D02*
X036708Y028913D01*
X036708Y028815D02*
X034722Y028815D01*
X034740Y028716D02*
X036708Y028716D01*
X036708Y028618D02*
X034740Y028618D01*
X034739Y028519D02*
X036708Y028519D01*
X036708Y028421D02*
X034698Y028421D01*
X034657Y028322D02*
X036708Y028322D01*
X036708Y028224D02*
X034575Y028224D01*
X034522Y028125D02*
X036708Y028125D01*
X036708Y028027D02*
X034620Y028027D01*
X034675Y027928D02*
X036708Y027928D01*
X036708Y027830D02*
X034716Y027830D01*
X034740Y027731D02*
X036708Y027731D01*
X036708Y027633D02*
X034740Y027633D01*
X034740Y027534D02*
X036708Y027534D01*
X036708Y027436D02*
X034704Y027436D01*
X034663Y027337D02*
X036708Y027337D01*
X036708Y027239D02*
X034590Y027239D01*
X034507Y027140D02*
X036708Y027140D01*
X036708Y027042D02*
X034605Y027042D01*
X034669Y026943D02*
X036708Y026943D01*
X036708Y026845D02*
X034710Y026845D01*
X034740Y026746D02*
X036708Y026746D01*
X036708Y026648D02*
X034740Y026648D01*
X034740Y026549D02*
X036708Y026549D01*
X036708Y026451D02*
X034710Y026451D01*
X034669Y026352D02*
X036708Y026352D01*
X036708Y026254D02*
X034605Y026254D01*
X034507Y026155D02*
X036708Y026155D01*
X036708Y026057D02*
X034590Y026057D01*
X034663Y025958D02*
X036708Y025958D01*
X036708Y025860D02*
X034704Y025860D01*
X034740Y025761D02*
X036708Y025761D01*
X036708Y025663D02*
X034740Y025663D01*
X034740Y025564D02*
X036708Y025564D01*
X036708Y025466D02*
X034716Y025466D01*
X034676Y025367D02*
X036708Y025367D01*
X036708Y025269D02*
X034620Y025269D01*
X034522Y025170D02*
X036708Y025170D01*
X036708Y025072D02*
X034575Y025072D01*
X034657Y024973D02*
X036708Y024973D01*
X036708Y024875D02*
X034698Y024875D01*
X034738Y024776D02*
X036708Y024776D01*
X036708Y024678D02*
X034740Y024678D01*
X034740Y024579D02*
X036708Y024579D01*
X036708Y024481D02*
X034723Y024481D01*
X034682Y024382D02*
X036708Y024382D01*
X036708Y024284D02*
X034635Y024284D01*
X034537Y024185D02*
X036708Y024185D01*
X036708Y024087D02*
X034560Y024087D01*
X034651Y023988D02*
X036708Y023988D01*
X036708Y023890D02*
X034691Y023890D01*
X034732Y023791D02*
X036708Y023791D01*
X036708Y023693D02*
X034740Y023693D01*
X034740Y023594D02*
X036708Y023594D01*
X036708Y023496D02*
X034729Y023496D01*
X034688Y023397D02*
X036708Y023397D01*
X036708Y023299D02*
X034647Y023299D01*
X034552Y023200D02*
X036708Y023200D01*
X036708Y023102D02*
X034545Y023102D01*
X034644Y023003D02*
X036708Y023003D01*
X036708Y022905D02*
X034685Y022905D01*
X034726Y022806D02*
X036708Y022806D01*
X036708Y022708D02*
X034740Y022708D01*
X034740Y022609D02*
X036708Y022609D01*
X036708Y022511D02*
X034735Y022511D01*
X034694Y022412D02*
X036708Y022412D01*
X036708Y022314D02*
X034653Y022314D01*
X034567Y022215D02*
X036708Y022215D01*
X036708Y022117D02*
X034530Y022117D01*
X034629Y022018D02*
X036708Y022018D01*
X036708Y021920D02*
X034679Y021920D01*
X034720Y021821D02*
X036708Y021821D01*
X036708Y021723D02*
X034740Y021723D01*
X034740Y021624D02*
X036708Y021624D01*
X036708Y021526D02*
X034740Y021526D01*
X034700Y021427D02*
X036708Y021427D01*
X036708Y021329D02*
X034660Y021329D01*
X034582Y021230D02*
X036708Y021230D01*
X036708Y021132D02*
X034515Y021132D01*
X034614Y021033D02*
X036708Y021033D01*
X036708Y020935D02*
X034673Y020935D01*
X034714Y020836D02*
X036708Y020836D01*
X036708Y020738D02*
X034740Y020738D01*
X034740Y020639D02*
X036708Y020639D01*
X036708Y020541D02*
X034740Y020541D01*
X034707Y020442D02*
X036708Y020442D01*
X036708Y020344D02*
X034666Y020344D01*
X034597Y020245D02*
X036708Y020245D01*
X036708Y020147D02*
X034500Y020147D01*
X034599Y020048D02*
X036708Y020048D01*
X036708Y019950D02*
X034667Y019950D01*
X034707Y019851D02*
X036708Y019851D01*
X036708Y019753D02*
X034740Y019753D01*
X034740Y019654D02*
X036708Y019654D01*
X036708Y019556D02*
X034740Y019556D01*
X034713Y019457D02*
X036708Y019457D01*
X036708Y019359D02*
X034672Y019359D01*
X034612Y019260D02*
X036708Y019260D01*
X036708Y019162D02*
X034513Y019162D01*
X034584Y019063D02*
X036708Y019063D01*
X036708Y018965D02*
X034660Y018965D01*
X034701Y018866D02*
X036708Y018866D01*
X036708Y018768D02*
X034740Y018768D01*
X034740Y018669D02*
X036708Y018669D01*
X036708Y018571D02*
X034740Y018571D01*
X034719Y018472D02*
X036708Y018472D01*
X036708Y018374D02*
X034678Y018374D01*
X034627Y018275D02*
X036708Y018275D01*
X036708Y018177D02*
X034528Y018177D01*
X034569Y018078D02*
X036708Y018078D01*
X036708Y017980D02*
X034654Y017980D01*
X034695Y017881D02*
X036708Y017881D01*
X036708Y017783D02*
X034736Y017783D01*
X034740Y017684D02*
X036708Y017684D01*
X036708Y017586D02*
X034740Y017586D01*
X034725Y017487D02*
X036708Y017487D01*
X036708Y017389D02*
X034684Y017389D01*
X034642Y017290D02*
X036708Y017290D01*
X036708Y017192D02*
X034543Y017192D01*
X034554Y017093D02*
X036708Y017093D01*
X036708Y016995D02*
X034648Y016995D01*
X034689Y016896D02*
X036708Y016896D01*
X036708Y016798D02*
X034730Y016798D01*
X034740Y016699D02*
X036708Y016699D01*
X036708Y016601D02*
X034740Y016601D01*
X034731Y016502D02*
X036708Y016502D01*
X036708Y016404D02*
X034691Y016404D01*
X034650Y016305D02*
X036708Y016305D01*
X036708Y016207D02*
X034558Y016207D01*
X034539Y016108D02*
X036708Y016108D01*
X036708Y016010D02*
X034637Y016010D01*
X034683Y015911D02*
X036708Y015911D01*
X036708Y015813D02*
X034723Y015813D01*
X034740Y015714D02*
X036708Y015714D01*
X036708Y015616D02*
X034740Y015616D01*
X034738Y015517D02*
X036708Y015517D01*
X036708Y015419D02*
X034697Y015419D01*
X034656Y015320D02*
X036708Y015320D01*
X036708Y015222D02*
X034573Y015222D01*
X034524Y015123D02*
X036708Y015123D01*
X036708Y015025D02*
X034622Y015025D01*
X034676Y014926D02*
X036708Y014926D01*
X036708Y014828D02*
X034717Y014828D01*
X034740Y014729D02*
X036708Y014729D01*
X036708Y014631D02*
X034740Y014631D01*
X034740Y014532D02*
X036708Y014532D01*
X036708Y014434D02*
X034703Y014434D01*
X034662Y014335D02*
X036708Y014335D01*
X036708Y014237D02*
X034588Y014237D01*
X034509Y014138D02*
X036708Y014138D01*
X036708Y014040D02*
X034607Y014040D01*
X034670Y013941D02*
X036708Y013941D01*
X036708Y013843D02*
X034711Y013843D01*
X034740Y013744D02*
X036708Y013744D01*
X036708Y013646D02*
X034740Y013646D01*
X034740Y013547D02*
X036708Y013547D01*
X036708Y013449D02*
X034709Y013449D01*
X034669Y013350D02*
X036708Y013350D01*
X036708Y013252D02*
X034603Y013252D01*
X034505Y013153D02*
X036708Y013153D01*
X036708Y013055D02*
X034592Y013055D01*
X034664Y012956D02*
X036708Y012956D01*
X036708Y012858D02*
X034705Y012858D01*
X034740Y012759D02*
X036708Y012759D01*
X036708Y012661D02*
X034740Y012661D01*
X034740Y012562D02*
X036708Y012562D01*
X036708Y012464D02*
X034716Y012464D01*
X034675Y012365D02*
X036708Y012365D01*
X036708Y012267D02*
X034618Y012267D01*
X034520Y012168D02*
X036708Y012168D01*
X036708Y012070D02*
X034577Y012070D01*
X034658Y011971D02*
X036708Y011971D01*
X036708Y011873D02*
X034698Y011873D01*
X034739Y011774D02*
X036708Y011774D01*
X036708Y011676D02*
X034740Y011676D01*
X034740Y011577D02*
X036708Y011577D01*
X036708Y011479D02*
X034722Y011479D01*
X034681Y011380D02*
X036708Y011380D01*
X036708Y011282D02*
X034633Y011282D01*
X034535Y011183D02*
X036708Y011183D01*
X036708Y011085D02*
X034562Y011085D01*
X034651Y010986D02*
X036708Y010986D01*
X036708Y010888D02*
X034692Y010888D01*
X034733Y010789D02*
X036708Y010789D01*
X036708Y010691D02*
X034740Y010691D01*
X034740Y010592D02*
X036708Y010592D01*
X036708Y010494D02*
X034728Y010494D01*
X034687Y010395D02*
X036708Y010395D01*
X036708Y010297D02*
X034646Y010297D01*
X034550Y010198D02*
X036708Y010198D01*
X036708Y010100D02*
X034547Y010100D01*
X034645Y010001D02*
X036708Y010001D01*
X036708Y009903D02*
X034686Y009903D01*
X034727Y009804D02*
X036708Y009804D01*
X036708Y009706D02*
X034740Y009706D01*
X034740Y009607D02*
X036708Y009607D01*
X036708Y009509D02*
X034734Y009509D01*
X034693Y009410D02*
X036708Y009410D01*
X036708Y009312D02*
X034653Y009312D01*
X034565Y009213D02*
X036708Y009213D01*
X036708Y009115D02*
X034532Y009115D01*
X034631Y009016D02*
X036708Y009016D01*
X036708Y008918D02*
X034680Y008918D01*
X034721Y008819D02*
X036708Y008819D01*
X036708Y008721D02*
X034740Y008721D01*
X034740Y008622D02*
X036708Y008622D01*
X036708Y008524D02*
X034740Y008524D01*
X034700Y008425D02*
X036708Y008425D01*
X036708Y008327D02*
X034659Y008327D01*
X034580Y008228D02*
X036708Y008228D01*
X036708Y008130D02*
X034517Y008130D01*
X034616Y008031D02*
X036708Y008031D01*
X036708Y007933D02*
X034674Y007933D01*
X034714Y007834D02*
X036708Y007834D01*
X036708Y007736D02*
X034740Y007736D01*
X034740Y007637D02*
X036708Y007637D01*
X036708Y007539D02*
X034740Y007539D01*
X034706Y007440D02*
X036708Y007440D01*
X036708Y007342D02*
X034665Y007342D01*
X034595Y007243D02*
X036708Y007243D01*
X036708Y007145D02*
X034496Y007145D01*
X034297Y007046D02*
X036708Y007046D01*
X033932Y007046D02*
X033297Y007046D01*
X033496Y007145D02*
X033733Y007145D01*
X033634Y007243D02*
X033595Y007243D01*
X032649Y008228D02*
X028350Y008228D01*
X028710Y009509D02*
X029066Y009509D01*
X030104Y008524D02*
X032489Y008524D01*
X032489Y008622D02*
X030202Y008622D01*
X030301Y008721D02*
X032489Y008721D01*
X032509Y008819D02*
X030399Y008819D01*
X030619Y008918D02*
X032549Y008918D01*
X032598Y009016D02*
X030763Y009016D01*
X030851Y009115D02*
X032697Y009115D01*
X032664Y009213D02*
X030892Y009213D01*
X030924Y009312D02*
X032577Y009312D01*
X032536Y009410D02*
X030924Y009410D01*
X030919Y009509D02*
X032495Y009509D01*
X032489Y009607D02*
X030878Y009607D01*
X030829Y009706D02*
X032489Y009706D01*
X032502Y009804D02*
X030730Y009804D01*
X030608Y009903D02*
X032543Y009903D01*
X032584Y010001D02*
X030706Y010001D01*
X030805Y010100D02*
X032682Y010100D01*
X032679Y010198D02*
X030903Y010198D01*
X031129Y010297D02*
X032583Y010297D01*
X032542Y010395D02*
X031267Y010395D01*
X031353Y010494D02*
X032501Y010494D01*
X032489Y010592D02*
X031394Y010592D01*
X031424Y010691D02*
X032489Y010691D01*
X032496Y010789D02*
X031424Y010789D01*
X031418Y010888D02*
X032537Y010888D01*
X032578Y010986D02*
X031377Y010986D01*
X031325Y011085D02*
X032667Y011085D01*
X032694Y011183D02*
X031226Y011183D01*
X031030Y011282D02*
X032596Y011282D01*
X032489Y012759D02*
X015706Y012759D01*
X015916Y012858D02*
X032524Y012858D01*
X032565Y012956D02*
X016015Y012956D01*
X016094Y013055D02*
X032637Y013055D01*
X032724Y013153D02*
X016135Y013153D01*
X016176Y013252D02*
X032626Y013252D01*
X032561Y013350D02*
X016181Y013350D01*
X016181Y013449D02*
X032520Y013449D01*
X032489Y013547D02*
X016171Y013547D01*
X016130Y013646D02*
X032489Y013646D01*
X032489Y013744D02*
X016089Y013744D01*
X016003Y013843D02*
X032518Y013843D01*
X032559Y013941D02*
X015905Y013941D01*
X015678Y014040D02*
X032622Y014040D01*
X032530Y008425D02*
X030005Y008425D01*
X029907Y008327D02*
X032570Y008327D01*
X020150Y018669D02*
X018150Y018669D01*
X018150Y018768D02*
X020150Y018768D01*
X020150Y018866D02*
X018150Y018866D01*
X018150Y018965D02*
X020150Y018965D01*
X020150Y019063D02*
X018174Y019063D01*
X018174Y019162D02*
X020150Y019162D01*
X020150Y019260D02*
X018169Y019260D01*
X018150Y019359D02*
X020150Y019359D01*
X020150Y019457D02*
X018150Y019457D01*
X018150Y019556D02*
X020150Y019556D01*
X014900Y022905D02*
X012400Y022905D01*
X012400Y023003D02*
X014900Y023003D01*
X014900Y023102D02*
X012400Y023102D01*
X012400Y023200D02*
X014900Y023200D01*
X014900Y023299D02*
X012400Y023299D01*
X012400Y023397D02*
X014900Y023397D01*
X014900Y023496D02*
X012400Y023496D01*
X012400Y023594D02*
X014900Y023594D01*
X014900Y023693D02*
X012400Y023693D01*
X012400Y023791D02*
X014900Y023791D01*
X014900Y023890D02*
X012400Y023890D01*
X012400Y023988D02*
X014900Y023988D01*
X014900Y024087D02*
X012400Y024087D01*
X012400Y024185D02*
X014900Y024185D01*
X014900Y024284D02*
X012400Y024284D01*
X012400Y024382D02*
X014900Y024382D01*
X014900Y024481D02*
X012400Y024481D01*
X012400Y024579D02*
X014900Y024579D01*
X014900Y024678D02*
X012400Y024678D01*
X012400Y024776D02*
X014900Y024776D01*
X014900Y024875D02*
X012400Y024875D01*
X012400Y024973D02*
X014900Y024973D01*
X014900Y025072D02*
X012400Y025072D01*
X012400Y025170D02*
X014900Y025170D01*
X014900Y025269D02*
X012400Y025269D01*
X012400Y025367D02*
X014900Y025367D01*
X014900Y025466D02*
X012400Y025466D01*
X012400Y025564D02*
X014900Y025564D01*
X014900Y025663D02*
X012400Y025663D01*
X012400Y025761D02*
X014900Y025761D01*
X014900Y025860D02*
X012400Y025860D01*
X012400Y025958D02*
X014900Y025958D01*
X014900Y026057D02*
X012400Y026057D01*
X012400Y026155D02*
X014900Y026155D01*
X014900Y026254D02*
X012400Y026254D01*
X012400Y026352D02*
X014900Y026352D01*
X014900Y026451D02*
X012400Y026451D01*
X012400Y026549D02*
X014900Y026549D01*
X014900Y026648D02*
X012400Y026648D01*
X012400Y026746D02*
X014900Y026746D01*
X014900Y026845D02*
X012400Y026845D01*
X012400Y026943D02*
X014900Y026943D01*
X014900Y027042D02*
X012400Y027042D01*
X012400Y027140D02*
X014900Y027140D01*
X014900Y027239D02*
X012400Y027239D01*
X012400Y027337D02*
X014900Y027337D01*
X014900Y027436D02*
X012400Y027436D01*
X012400Y027534D02*
X014900Y027534D01*
X014900Y027633D02*
X012400Y027633D01*
X012400Y027731D02*
X014900Y027731D01*
X014900Y027830D02*
X012400Y027830D01*
X012400Y027928D02*
X014900Y027928D01*
X014900Y028027D02*
X012400Y028027D01*
X012400Y028125D02*
X014900Y028125D01*
X014900Y028224D02*
X012400Y028224D01*
X012400Y028322D02*
X014900Y028322D01*
X014900Y028421D02*
X012400Y028421D01*
X012400Y028519D02*
X014900Y028519D01*
X014900Y028618D02*
X012400Y028618D01*
X012400Y028716D02*
X014900Y028716D01*
X014900Y028815D02*
X012400Y028815D01*
X012400Y028913D02*
X014900Y028913D01*
X012400Y031573D02*
X024150Y031573D01*
X024150Y031671D02*
X012400Y031671D01*
X012400Y031770D02*
X024150Y031770D01*
X024150Y031868D02*
X012400Y031868D01*
X012400Y031967D02*
X024141Y031967D01*
X024141Y032065D02*
X012400Y032065D01*
X012400Y032164D02*
X024141Y032164D01*
X024141Y032262D02*
X012400Y032262D01*
X012400Y032361D02*
X024141Y032361D01*
X024141Y032459D02*
X012400Y032459D01*
X012400Y032558D02*
X024141Y032558D01*
X024141Y032656D02*
X012400Y032656D01*
X012400Y032755D02*
X024141Y032755D01*
X024141Y032853D02*
X012400Y032853D01*
X012400Y032952D02*
X024141Y032952D01*
X024141Y033050D02*
X012400Y033050D01*
X012400Y033149D02*
X024141Y033149D01*
X024141Y033247D02*
X012400Y033247D01*
X012400Y033346D02*
X012728Y033346D01*
X012605Y033385D02*
X012605Y033385D01*
X017950Y033346D02*
X024141Y033346D01*
X024141Y033444D02*
X018154Y033444D01*
X018289Y033543D02*
X024141Y033543D01*
X024141Y033641D02*
X018409Y033641D01*
X018480Y033740D02*
X024141Y033740D01*
X024141Y033838D02*
X018552Y033838D01*
X018622Y033937D02*
X024141Y033937D01*
X024141Y034035D02*
X018654Y034035D01*
X018686Y034134D02*
X024141Y034134D01*
X024141Y034232D02*
X018718Y034232D01*
X018742Y034331D02*
X024141Y034331D01*
X024141Y034429D02*
X018742Y034429D01*
X018742Y034528D02*
X024141Y034528D01*
X024141Y034626D02*
X018742Y034626D01*
X018742Y034725D02*
X024141Y034725D01*
X024141Y034823D02*
X018742Y034823D01*
X027400Y030883D02*
X029150Y030883D01*
X029150Y030785D02*
X027400Y030785D01*
X027400Y030686D02*
X029150Y030686D01*
X029150Y030588D02*
X027400Y030588D01*
X027400Y030489D02*
X029150Y030489D01*
X029150Y030391D02*
X027400Y030391D01*
X027400Y030292D02*
X029150Y030292D01*
X029150Y030194D02*
X027400Y030194D01*
X027400Y030095D02*
X029150Y030095D01*
X029150Y029997D02*
X027400Y029997D01*
X027400Y029898D02*
X029150Y029898D01*
X029150Y029800D02*
X027400Y029800D01*
X027400Y029701D02*
X029150Y029701D01*
X029150Y029603D02*
X027400Y029603D01*
X027400Y029504D02*
X029150Y029504D01*
X029150Y029406D02*
X027400Y029406D01*
X027400Y029307D02*
X029150Y029307D01*
X029150Y029209D02*
X027400Y029209D01*
X027400Y029110D02*
X029150Y029110D01*
X029150Y029012D02*
X027400Y029012D01*
X027400Y028913D02*
X029150Y028913D01*
X029150Y028815D02*
X027400Y028815D01*
X027400Y028716D02*
X029150Y028716D01*
X029150Y028618D02*
X027400Y028618D01*
X027400Y028519D02*
X029150Y028519D01*
X029150Y028421D02*
X027400Y028421D01*
X027400Y028322D02*
X029150Y028322D01*
X029150Y028224D02*
X027400Y028224D01*
X027400Y028125D02*
X029150Y028125D01*
X029150Y028027D02*
X027400Y028027D01*
X031150Y031376D02*
X036708Y031376D01*
X036708Y031474D02*
X031150Y031474D01*
X031150Y031573D02*
X036708Y031573D01*
X036708Y031671D02*
X031150Y031671D01*
X031150Y031770D02*
X036708Y031770D01*
X036708Y031868D02*
X031150Y031868D01*
X031150Y031967D02*
X036708Y031967D01*
X036708Y032065D02*
X031150Y032065D01*
X031150Y032164D02*
X036708Y032164D01*
X036708Y032262D02*
X031150Y032262D01*
X031150Y032361D02*
X036708Y032361D01*
X036708Y032459D02*
X035257Y032459D01*
X035289Y032558D02*
X036708Y032558D01*
X036708Y032656D02*
X035289Y032656D01*
X035289Y032755D02*
X036708Y032755D01*
X036708Y032853D02*
X035289Y032853D01*
X035289Y032952D02*
X036708Y032952D01*
X036708Y033050D02*
X035289Y033050D01*
X035289Y033149D02*
X036708Y033149D01*
X036708Y033247D02*
X035289Y033247D01*
X035289Y033346D02*
X036708Y033346D01*
X036708Y033444D02*
X035289Y033444D01*
X035289Y033543D02*
X036708Y033543D01*
X036708Y033641D02*
X035289Y033641D01*
X035289Y033740D02*
X036708Y033740D01*
X036708Y033838D02*
X035289Y033838D01*
X035289Y033937D02*
X036708Y033937D01*
X036708Y034035D02*
X035289Y034035D01*
X035289Y034134D02*
X036706Y034134D01*
X036694Y034232D02*
X035289Y034232D01*
X035289Y034331D02*
X036668Y034331D01*
X036628Y034429D02*
X035289Y034429D01*
X035289Y034528D02*
X036572Y034528D01*
X036484Y034626D02*
X035289Y034626D01*
X035289Y034725D02*
X036359Y034725D01*
X036109Y034823D02*
X035289Y034823D01*
X031973Y032459D02*
X031150Y032459D01*
X031150Y032558D02*
X031940Y032558D01*
X031940Y032656D02*
X031150Y032656D01*
X031150Y032755D02*
X031940Y032755D01*
X031940Y032853D02*
X031150Y032853D01*
X031150Y032952D02*
X031940Y032952D01*
X031940Y033050D02*
X031150Y033050D01*
X031150Y033149D02*
X031940Y033149D01*
X031940Y033247D02*
X031150Y033247D01*
X031150Y033346D02*
X031940Y033346D01*
X031940Y033444D02*
X031150Y033444D01*
X031150Y033543D02*
X031940Y033543D01*
X031940Y033641D02*
X031150Y033641D01*
X031150Y033740D02*
X031940Y033740D01*
X031940Y033838D02*
X031150Y033838D01*
X031150Y033937D02*
X031940Y033937D01*
X031940Y034035D02*
X031150Y034035D01*
X031150Y034134D02*
X031940Y034134D01*
X031940Y034232D02*
X031150Y034232D01*
X031150Y034331D02*
X031940Y034331D01*
X031940Y034429D02*
X031150Y034429D01*
X031150Y034528D02*
X031940Y034528D01*
X031940Y034626D02*
X031150Y034626D01*
X031150Y034725D02*
X031940Y034725D01*
X031940Y034823D02*
X031150Y034823D01*
X033467Y031179D02*
X033762Y031179D01*
X033662Y031080D02*
X033567Y031080D01*
X015372Y014040D02*
X014678Y014040D01*
X014905Y013941D02*
X015145Y013941D01*
X015047Y013843D02*
X015003Y013843D01*
X015015Y012956D02*
X015035Y012956D01*
X015134Y012858D02*
X014916Y012858D01*
X014706Y012759D02*
X015344Y012759D01*
X013400Y017487D02*
X012400Y017487D01*
X012400Y017586D02*
X013400Y017586D01*
X013400Y017684D02*
X012400Y017684D01*
X012400Y017783D02*
X013400Y017783D01*
X013400Y017881D02*
X012400Y017881D01*
X012400Y017980D02*
X013400Y017980D01*
X013400Y018078D02*
X012400Y018078D01*
X012400Y018177D02*
X013400Y018177D01*
X013400Y018275D02*
X012400Y018275D01*
X012400Y018374D02*
X013400Y018374D01*
X013400Y018472D02*
X012400Y018472D01*
X012400Y018571D02*
X013400Y018571D01*
X013400Y018669D02*
X012400Y018669D01*
X012400Y018768D02*
X013400Y018768D01*
X013400Y018866D02*
X012400Y018866D01*
X012400Y018965D02*
X013400Y018965D01*
X013400Y019063D02*
X012400Y019063D01*
X012400Y019162D02*
X013400Y019162D01*
X013400Y019260D02*
X012400Y019260D01*
X012400Y019359D02*
X013400Y019359D01*
X013400Y019457D02*
X012400Y019457D01*
X012400Y019556D02*
X013400Y019556D01*
X013400Y019654D02*
X012400Y019654D01*
X012400Y019753D02*
X013400Y019753D01*
X013400Y019851D02*
X012400Y019851D01*
X012400Y019950D02*
X013400Y019950D01*
X013400Y020048D02*
X012400Y020048D01*
X012400Y020147D02*
X013400Y020147D01*
X013400Y020245D02*
X012400Y020245D01*
X012400Y020344D02*
X013400Y020344D01*
X013400Y020442D02*
X012400Y020442D01*
X012400Y020541D02*
X013400Y020541D01*
X013400Y020639D02*
X012400Y020639D01*
X012400Y020738D02*
X013400Y020738D01*
X013400Y020836D02*
X012400Y020836D01*
X012400Y020935D02*
X013400Y020935D01*
X013400Y021033D02*
X012400Y021033D01*
X012400Y021132D02*
X013400Y021132D01*
X013400Y021230D02*
X012400Y021230D01*
X012400Y021329D02*
X013400Y021329D01*
X013400Y021427D02*
X012400Y021427D01*
X012400Y021526D02*
X013400Y021526D01*
X013400Y021624D02*
X012400Y021624D01*
X012400Y021723D02*
X013400Y021723D01*
X013400Y021821D02*
X012400Y021821D01*
X012400Y021920D02*
X013400Y021920D01*
X013400Y022018D02*
X012400Y022018D01*
X012400Y022117D02*
X013400Y022117D01*
X013400Y022215D02*
X012400Y022215D01*
X012400Y022314D02*
X013400Y022314D01*
X013400Y022412D02*
X012400Y022412D01*
X012400Y022511D02*
X013400Y022511D01*
X013400Y022609D02*
X012400Y022609D01*
X012400Y022708D02*
X013400Y022708D01*
X013400Y022806D02*
X012400Y022806D01*
X007636Y019851D02*
X006414Y019851D01*
X005886Y019851D02*
X000600Y019851D01*
X000600Y019753D02*
X005768Y019753D01*
X005691Y019654D02*
X000600Y019654D01*
X000600Y019556D02*
X005650Y019556D01*
X005626Y019457D02*
X000600Y019457D01*
X000600Y019359D02*
X005626Y019359D01*
X005638Y019260D02*
X000600Y019260D01*
X000600Y019162D02*
X005679Y019162D01*
X005740Y019063D02*
X000600Y019063D01*
X000600Y018965D02*
X005838Y018965D01*
X006462Y018965D02*
X007588Y018965D01*
X005452Y017586D02*
X003348Y017586D01*
X002952Y017586D02*
X000600Y017586D01*
X000600Y017684D02*
X002773Y017684D01*
X002675Y017783D02*
X000600Y017783D01*
X000600Y017881D02*
X002619Y017881D01*
X002578Y017980D02*
X000600Y017980D01*
X000600Y018078D02*
X002559Y018078D01*
X002559Y018177D02*
X000600Y018177D01*
X000600Y018275D02*
X002564Y018275D01*
X002605Y018374D02*
X000600Y018374D01*
X000600Y018472D02*
X002646Y018472D01*
X002741Y018571D02*
X000600Y018571D01*
X000600Y018669D02*
X002874Y018669D01*
D19*
X012650Y029644D03*
X012650Y030644D03*
X012650Y031644D03*
X012650Y032644D03*
X014650Y031644D03*
X015650Y031644D03*
X016650Y031644D03*
X017650Y031644D03*
X018650Y031644D03*
X019650Y031644D03*
X019650Y030644D03*
X019650Y029644D03*
X019650Y028644D03*
X020650Y028644D03*
X021650Y028644D03*
X022650Y028644D03*
X023650Y028644D03*
X024650Y028644D03*
X024650Y029644D03*
X024650Y030644D03*
X023650Y030644D03*
X023650Y031644D03*
X023650Y032644D03*
X023650Y033644D03*
X023650Y034644D03*
X022650Y034644D03*
X021650Y034644D03*
X020650Y034644D03*
X019650Y034644D03*
X019650Y033644D03*
X014650Y030644D03*
X014650Y029644D03*
X024650Y022144D03*
X025650Y022144D03*
X026650Y022144D03*
X027650Y022144D03*
X028650Y022144D03*
X028650Y023144D03*
X027650Y023144D03*
X027650Y024144D03*
X027650Y025144D03*
X028650Y025144D03*
X028650Y024144D03*
X027650Y026144D03*
X027650Y027144D03*
X028650Y027144D03*
X028650Y021144D03*
X027650Y021144D03*
X026650Y021144D03*
X025650Y021144D03*
X024650Y021144D03*
D20*
X027650Y018144D03*
X027650Y017644D03*
X027650Y014144D03*
X027650Y013644D03*
X027650Y013144D03*
X027650Y012644D03*
X027650Y012144D03*
X027650Y011644D03*
X023150Y012644D03*
X023150Y013144D03*
X023150Y013644D03*
X019650Y011644D03*
X019150Y011644D03*
X018650Y011644D03*
X018775Y014769D03*
X019275Y014769D03*
X018275Y014769D03*
X018650Y017144D03*
X019150Y017144D03*
X023025Y016769D03*
X011150Y017394D03*
X010400Y017394D03*
X008650Y015894D03*
X008150Y015894D03*
X007650Y015894D03*
X007150Y015644D03*
X007150Y015144D03*
X007150Y014644D03*
X007150Y014144D03*
X005650Y015144D03*
X005650Y015644D03*
X003650Y014144D03*
X003650Y013644D03*
X003650Y013144D03*
X005900Y011394D03*
X004650Y030644D03*
X004150Y030644D03*
X003650Y030644D03*
X003150Y030644D03*
X002650Y030644D03*
D21*
X006150Y019394D03*
X007900Y019394D03*
X017650Y019144D03*
X025650Y019144D03*
X031025Y019144D03*
X030900Y010769D03*
X030400Y009394D03*
X028525Y009019D03*
X028025Y008644D03*
X019650Y009644D03*
X018650Y009644D03*
D22*
X018650Y006144D01*
X018654Y006144D01*
X019650Y006147D02*
X019654Y006144D01*
X019650Y006147D02*
X019650Y009644D01*
X028025Y008644D02*
X029650Y008644D01*
X030400Y009394D01*
X029150Y009019D02*
X030900Y010769D01*
X029150Y009019D02*
X028525Y009019D01*
X031025Y019144D02*
X031525Y019144D01*
X033025Y020644D01*
X033150Y020644D01*
X033146Y020647D01*
X033115Y020647D01*
X025650Y019144D02*
X020650Y019144D01*
X020650Y019644D01*
X020150Y020144D01*
X018150Y020144D01*
X017650Y019644D01*
X017650Y019144D01*
X007900Y019394D02*
X006150Y019394D01*
D23*
X005650Y018144D03*
X003150Y018144D03*
D24*
X005650Y018144D01*
D25*
X010025Y013894D03*
X011650Y013894D03*
X011525Y016019D03*
X012400Y010269D03*
X012150Y010019D03*
X011900Y009769D03*
X011650Y009519D03*
X012650Y009769D03*
X012900Y009519D03*
X012650Y007644D03*
X012150Y007644D03*
X013150Y007644D03*
X013650Y007644D03*
X014150Y007644D03*
X014650Y007644D03*
D26*
X015650Y006644D01*
X011400Y009769D02*
X010150Y008519D01*
X010150Y006644D01*
X011400Y009769D02*
X011400Y013394D01*
X011150Y013644D01*
X010900Y013894D01*
X010025Y013894D01*
M02*
