G75*
G70*
%OFA0B0*%
%FSLAX24Y24*%
%IPPOS*%
%LPD*%
%AMOC8*
5,1,8,0,0,1.08239X$1,22.5*
%
%ADD10C,0.0050*%
D10*
X001938Y007777D02*
X001941Y007893D01*
X001949Y008009D01*
X001964Y008124D01*
X001983Y008238D01*
X002009Y008351D01*
X002040Y008463D01*
X002076Y008573D01*
X002118Y008681D01*
X002165Y008787D01*
X002217Y008890D01*
X002274Y008991D01*
X002336Y009089D01*
X002403Y009184D01*
X002474Y009275D01*
X002550Y009363D01*
X002630Y009447D01*
X002714Y009527D01*
X002802Y009603D01*
X002893Y009674D01*
X002988Y009741D01*
X003086Y009803D01*
X003187Y009860D01*
X003290Y009912D01*
X003396Y009959D01*
X003504Y010001D01*
X003614Y010037D01*
X003726Y010068D01*
X003839Y010094D01*
X003953Y010113D01*
X004068Y010128D01*
X004184Y010136D01*
X004300Y010139D01*
X004416Y010136D01*
X004532Y010128D01*
X004647Y010113D01*
X004761Y010094D01*
X004874Y010068D01*
X004986Y010037D01*
X005096Y010001D01*
X005204Y009959D01*
X005310Y009912D01*
X005413Y009860D01*
X005514Y009803D01*
X005612Y009741D01*
X005707Y009674D01*
X005798Y009603D01*
X005886Y009527D01*
X005970Y009447D01*
X006050Y009363D01*
X006126Y009275D01*
X006197Y009184D01*
X006264Y009089D01*
X006326Y008991D01*
X006383Y008890D01*
X006435Y008787D01*
X006482Y008681D01*
X006524Y008573D01*
X006560Y008463D01*
X006591Y008351D01*
X006617Y008238D01*
X006636Y008124D01*
X006651Y008009D01*
X006659Y007893D01*
X006662Y007777D01*
X006659Y007661D01*
X006651Y007545D01*
X006636Y007430D01*
X006617Y007316D01*
X006591Y007203D01*
X006560Y007091D01*
X006524Y006981D01*
X006482Y006873D01*
X006435Y006767D01*
X006383Y006664D01*
X006326Y006563D01*
X006264Y006465D01*
X006197Y006370D01*
X006126Y006279D01*
X006050Y006191D01*
X005970Y006107D01*
X005886Y006027D01*
X005798Y005951D01*
X005707Y005880D01*
X005612Y005813D01*
X005514Y005751D01*
X005413Y005694D01*
X005310Y005642D01*
X005204Y005595D01*
X005096Y005553D01*
X004986Y005517D01*
X004874Y005486D01*
X004761Y005460D01*
X004647Y005441D01*
X004532Y005426D01*
X004416Y005418D01*
X004300Y005415D01*
X004184Y005418D01*
X004068Y005426D01*
X003953Y005441D01*
X003839Y005460D01*
X003726Y005486D01*
X003614Y005517D01*
X003504Y005553D01*
X003396Y005595D01*
X003290Y005642D01*
X003187Y005694D01*
X003086Y005751D01*
X002988Y005813D01*
X002893Y005880D01*
X002802Y005951D01*
X002714Y006027D01*
X002630Y006107D01*
X002550Y006191D01*
X002474Y006279D01*
X002403Y006370D01*
X002336Y006465D01*
X002274Y006563D01*
X002217Y006664D01*
X002165Y006767D01*
X002118Y006873D01*
X002076Y006981D01*
X002040Y007091D01*
X002009Y007203D01*
X001983Y007316D01*
X001964Y007430D01*
X001949Y007545D01*
X001941Y007661D01*
X001938Y007777D01*
X002725Y007777D02*
X002727Y007856D01*
X002733Y007935D01*
X002743Y008014D01*
X002757Y008092D01*
X002774Y008169D01*
X002796Y008245D01*
X002821Y008320D01*
X002851Y008393D01*
X002883Y008465D01*
X002920Y008536D01*
X002960Y008604D01*
X003003Y008670D01*
X003049Y008734D01*
X003099Y008796D01*
X003152Y008855D01*
X003207Y008911D01*
X003266Y008965D01*
X003327Y009015D01*
X003390Y009063D01*
X003456Y009107D01*
X003524Y009148D01*
X003594Y009185D01*
X003665Y009219D01*
X003739Y009249D01*
X003813Y009275D01*
X003889Y009297D01*
X003966Y009316D01*
X004044Y009331D01*
X004122Y009342D01*
X004201Y009349D01*
X004280Y009352D01*
X004359Y009351D01*
X004438Y009346D01*
X004517Y009337D01*
X004595Y009324D01*
X004672Y009307D01*
X004749Y009287D01*
X004824Y009262D01*
X004898Y009234D01*
X004971Y009202D01*
X005041Y009167D01*
X005110Y009128D01*
X005177Y009085D01*
X005242Y009039D01*
X005304Y008991D01*
X005364Y008939D01*
X005421Y008884D01*
X005475Y008826D01*
X005526Y008766D01*
X005574Y008703D01*
X005619Y008638D01*
X005661Y008570D01*
X005699Y008501D01*
X005733Y008430D01*
X005764Y008357D01*
X005792Y008282D01*
X005815Y008207D01*
X005835Y008130D01*
X005851Y008053D01*
X005863Y007974D01*
X005871Y007896D01*
X005875Y007817D01*
X005875Y007737D01*
X005871Y007658D01*
X005863Y007580D01*
X005851Y007501D01*
X005835Y007424D01*
X005815Y007347D01*
X005792Y007272D01*
X005764Y007197D01*
X005733Y007124D01*
X005699Y007053D01*
X005661Y006984D01*
X005619Y006916D01*
X005574Y006851D01*
X005526Y006788D01*
X005475Y006728D01*
X005421Y006670D01*
X005364Y006615D01*
X005304Y006563D01*
X005242Y006515D01*
X005177Y006469D01*
X005110Y006426D01*
X005041Y006387D01*
X004971Y006352D01*
X004898Y006320D01*
X004824Y006292D01*
X004749Y006267D01*
X004672Y006247D01*
X004595Y006230D01*
X004517Y006217D01*
X004438Y006208D01*
X004359Y006203D01*
X004280Y006202D01*
X004201Y006205D01*
X004122Y006212D01*
X004044Y006223D01*
X003966Y006238D01*
X003889Y006257D01*
X003813Y006279D01*
X003739Y006305D01*
X003665Y006335D01*
X003594Y006369D01*
X003524Y006406D01*
X003456Y006447D01*
X003390Y006491D01*
X003327Y006539D01*
X003266Y006589D01*
X003207Y006643D01*
X003152Y006699D01*
X003099Y006758D01*
X003049Y006820D01*
X003003Y006884D01*
X002960Y006950D01*
X002920Y007018D01*
X002883Y007089D01*
X002851Y007161D01*
X002821Y007234D01*
X002796Y007309D01*
X002774Y007385D01*
X002757Y007462D01*
X002743Y007540D01*
X002733Y007619D01*
X002727Y007698D01*
X002725Y007777D01*
X001938Y016045D02*
X001941Y016161D01*
X001949Y016277D01*
X001964Y016392D01*
X001983Y016506D01*
X002009Y016619D01*
X002040Y016731D01*
X002076Y016841D01*
X002118Y016949D01*
X002165Y017055D01*
X002217Y017158D01*
X002274Y017259D01*
X002336Y017357D01*
X002403Y017452D01*
X002474Y017543D01*
X002550Y017631D01*
X002630Y017715D01*
X002714Y017795D01*
X002802Y017871D01*
X002893Y017942D01*
X002988Y018009D01*
X003086Y018071D01*
X003187Y018128D01*
X003290Y018180D01*
X003396Y018227D01*
X003504Y018269D01*
X003614Y018305D01*
X003726Y018336D01*
X003839Y018362D01*
X003953Y018381D01*
X004068Y018396D01*
X004184Y018404D01*
X004300Y018407D01*
X004416Y018404D01*
X004532Y018396D01*
X004647Y018381D01*
X004761Y018362D01*
X004874Y018336D01*
X004986Y018305D01*
X005096Y018269D01*
X005204Y018227D01*
X005310Y018180D01*
X005413Y018128D01*
X005514Y018071D01*
X005612Y018009D01*
X005707Y017942D01*
X005798Y017871D01*
X005886Y017795D01*
X005970Y017715D01*
X006050Y017631D01*
X006126Y017543D01*
X006197Y017452D01*
X006264Y017357D01*
X006326Y017259D01*
X006383Y017158D01*
X006435Y017055D01*
X006482Y016949D01*
X006524Y016841D01*
X006560Y016731D01*
X006591Y016619D01*
X006617Y016506D01*
X006636Y016392D01*
X006651Y016277D01*
X006659Y016161D01*
X006662Y016045D01*
X006659Y015929D01*
X006651Y015813D01*
X006636Y015698D01*
X006617Y015584D01*
X006591Y015471D01*
X006560Y015359D01*
X006524Y015249D01*
X006482Y015141D01*
X006435Y015035D01*
X006383Y014932D01*
X006326Y014831D01*
X006264Y014733D01*
X006197Y014638D01*
X006126Y014547D01*
X006050Y014459D01*
X005970Y014375D01*
X005886Y014295D01*
X005798Y014219D01*
X005707Y014148D01*
X005612Y014081D01*
X005514Y014019D01*
X005413Y013962D01*
X005310Y013910D01*
X005204Y013863D01*
X005096Y013821D01*
X004986Y013785D01*
X004874Y013754D01*
X004761Y013728D01*
X004647Y013709D01*
X004532Y013694D01*
X004416Y013686D01*
X004300Y013683D01*
X004184Y013686D01*
X004068Y013694D01*
X003953Y013709D01*
X003839Y013728D01*
X003726Y013754D01*
X003614Y013785D01*
X003504Y013821D01*
X003396Y013863D01*
X003290Y013910D01*
X003187Y013962D01*
X003086Y014019D01*
X002988Y014081D01*
X002893Y014148D01*
X002802Y014219D01*
X002714Y014295D01*
X002630Y014375D01*
X002550Y014459D01*
X002474Y014547D01*
X002403Y014638D01*
X002336Y014733D01*
X002274Y014831D01*
X002217Y014932D01*
X002165Y015035D01*
X002118Y015141D01*
X002076Y015249D01*
X002040Y015359D01*
X002009Y015471D01*
X001983Y015584D01*
X001964Y015698D01*
X001949Y015813D01*
X001941Y015929D01*
X001938Y016045D01*
X002725Y016045D02*
X002727Y016124D01*
X002733Y016203D01*
X002743Y016282D01*
X002757Y016360D01*
X002774Y016437D01*
X002796Y016513D01*
X002821Y016588D01*
X002851Y016661D01*
X002883Y016733D01*
X002920Y016804D01*
X002960Y016872D01*
X003003Y016938D01*
X003049Y017002D01*
X003099Y017064D01*
X003152Y017123D01*
X003207Y017179D01*
X003266Y017233D01*
X003327Y017283D01*
X003390Y017331D01*
X003456Y017375D01*
X003524Y017416D01*
X003594Y017453D01*
X003665Y017487D01*
X003739Y017517D01*
X003813Y017543D01*
X003889Y017565D01*
X003966Y017584D01*
X004044Y017599D01*
X004122Y017610D01*
X004201Y017617D01*
X004280Y017620D01*
X004359Y017619D01*
X004438Y017614D01*
X004517Y017605D01*
X004595Y017592D01*
X004672Y017575D01*
X004749Y017555D01*
X004824Y017530D01*
X004898Y017502D01*
X004971Y017470D01*
X005041Y017435D01*
X005110Y017396D01*
X005177Y017353D01*
X005242Y017307D01*
X005304Y017259D01*
X005364Y017207D01*
X005421Y017152D01*
X005475Y017094D01*
X005526Y017034D01*
X005574Y016971D01*
X005619Y016906D01*
X005661Y016838D01*
X005699Y016769D01*
X005733Y016698D01*
X005764Y016625D01*
X005792Y016550D01*
X005815Y016475D01*
X005835Y016398D01*
X005851Y016321D01*
X005863Y016242D01*
X005871Y016164D01*
X005875Y016085D01*
X005875Y016005D01*
X005871Y015926D01*
X005863Y015848D01*
X005851Y015769D01*
X005835Y015692D01*
X005815Y015615D01*
X005792Y015540D01*
X005764Y015465D01*
X005733Y015392D01*
X005699Y015321D01*
X005661Y015252D01*
X005619Y015184D01*
X005574Y015119D01*
X005526Y015056D01*
X005475Y014996D01*
X005421Y014938D01*
X005364Y014883D01*
X005304Y014831D01*
X005242Y014783D01*
X005177Y014737D01*
X005110Y014694D01*
X005041Y014655D01*
X004971Y014620D01*
X004898Y014588D01*
X004824Y014560D01*
X004749Y014535D01*
X004672Y014515D01*
X004595Y014498D01*
X004517Y014485D01*
X004438Y014476D01*
X004359Y014471D01*
X004280Y014470D01*
X004201Y014473D01*
X004122Y014480D01*
X004044Y014491D01*
X003966Y014506D01*
X003889Y014525D01*
X003813Y014547D01*
X003739Y014573D01*
X003665Y014603D01*
X003594Y014637D01*
X003524Y014674D01*
X003456Y014715D01*
X003390Y014759D01*
X003327Y014807D01*
X003266Y014857D01*
X003207Y014911D01*
X003152Y014967D01*
X003099Y015026D01*
X003049Y015088D01*
X003003Y015152D01*
X002960Y015218D01*
X002920Y015286D01*
X002883Y015357D01*
X002851Y015429D01*
X002821Y015502D01*
X002796Y015577D01*
X002774Y015653D01*
X002757Y015730D01*
X002743Y015808D01*
X002733Y015887D01*
X002727Y015966D01*
X002725Y016045D01*
X007450Y016045D02*
X007453Y016161D01*
X007461Y016277D01*
X007476Y016392D01*
X007495Y016506D01*
X007521Y016619D01*
X007552Y016731D01*
X007588Y016841D01*
X007630Y016949D01*
X007677Y017055D01*
X007729Y017158D01*
X007786Y017259D01*
X007848Y017357D01*
X007915Y017452D01*
X007986Y017543D01*
X008062Y017631D01*
X008142Y017715D01*
X008226Y017795D01*
X008314Y017871D01*
X008405Y017942D01*
X008500Y018009D01*
X008598Y018071D01*
X008699Y018128D01*
X008802Y018180D01*
X008908Y018227D01*
X009016Y018269D01*
X009126Y018305D01*
X009238Y018336D01*
X009351Y018362D01*
X009465Y018381D01*
X009580Y018396D01*
X009696Y018404D01*
X009812Y018407D01*
X009928Y018404D01*
X010044Y018396D01*
X010159Y018381D01*
X010273Y018362D01*
X010386Y018336D01*
X010498Y018305D01*
X010608Y018269D01*
X010716Y018227D01*
X010822Y018180D01*
X010925Y018128D01*
X011026Y018071D01*
X011124Y018009D01*
X011219Y017942D01*
X011310Y017871D01*
X011398Y017795D01*
X011482Y017715D01*
X011562Y017631D01*
X011638Y017543D01*
X011709Y017452D01*
X011776Y017357D01*
X011838Y017259D01*
X011895Y017158D01*
X011947Y017055D01*
X011994Y016949D01*
X012036Y016841D01*
X012072Y016731D01*
X012103Y016619D01*
X012129Y016506D01*
X012148Y016392D01*
X012163Y016277D01*
X012171Y016161D01*
X012174Y016045D01*
X012171Y015929D01*
X012163Y015813D01*
X012148Y015698D01*
X012129Y015584D01*
X012103Y015471D01*
X012072Y015359D01*
X012036Y015249D01*
X011994Y015141D01*
X011947Y015035D01*
X011895Y014932D01*
X011838Y014831D01*
X011776Y014733D01*
X011709Y014638D01*
X011638Y014547D01*
X011562Y014459D01*
X011482Y014375D01*
X011398Y014295D01*
X011310Y014219D01*
X011219Y014148D01*
X011124Y014081D01*
X011026Y014019D01*
X010925Y013962D01*
X010822Y013910D01*
X010716Y013863D01*
X010608Y013821D01*
X010498Y013785D01*
X010386Y013754D01*
X010273Y013728D01*
X010159Y013709D01*
X010044Y013694D01*
X009928Y013686D01*
X009812Y013683D01*
X009696Y013686D01*
X009580Y013694D01*
X009465Y013709D01*
X009351Y013728D01*
X009238Y013754D01*
X009126Y013785D01*
X009016Y013821D01*
X008908Y013863D01*
X008802Y013910D01*
X008699Y013962D01*
X008598Y014019D01*
X008500Y014081D01*
X008405Y014148D01*
X008314Y014219D01*
X008226Y014295D01*
X008142Y014375D01*
X008062Y014459D01*
X007986Y014547D01*
X007915Y014638D01*
X007848Y014733D01*
X007786Y014831D01*
X007729Y014932D01*
X007677Y015035D01*
X007630Y015141D01*
X007588Y015249D01*
X007552Y015359D01*
X007521Y015471D01*
X007495Y015584D01*
X007476Y015698D01*
X007461Y015813D01*
X007453Y015929D01*
X007450Y016045D01*
X008237Y016045D02*
X008239Y016124D01*
X008245Y016203D01*
X008255Y016282D01*
X008269Y016360D01*
X008286Y016437D01*
X008308Y016513D01*
X008333Y016588D01*
X008363Y016661D01*
X008395Y016733D01*
X008432Y016804D01*
X008472Y016872D01*
X008515Y016938D01*
X008561Y017002D01*
X008611Y017064D01*
X008664Y017123D01*
X008719Y017179D01*
X008778Y017233D01*
X008839Y017283D01*
X008902Y017331D01*
X008968Y017375D01*
X009036Y017416D01*
X009106Y017453D01*
X009177Y017487D01*
X009251Y017517D01*
X009325Y017543D01*
X009401Y017565D01*
X009478Y017584D01*
X009556Y017599D01*
X009634Y017610D01*
X009713Y017617D01*
X009792Y017620D01*
X009871Y017619D01*
X009950Y017614D01*
X010029Y017605D01*
X010107Y017592D01*
X010184Y017575D01*
X010261Y017555D01*
X010336Y017530D01*
X010410Y017502D01*
X010483Y017470D01*
X010553Y017435D01*
X010622Y017396D01*
X010689Y017353D01*
X010754Y017307D01*
X010816Y017259D01*
X010876Y017207D01*
X010933Y017152D01*
X010987Y017094D01*
X011038Y017034D01*
X011086Y016971D01*
X011131Y016906D01*
X011173Y016838D01*
X011211Y016769D01*
X011245Y016698D01*
X011276Y016625D01*
X011304Y016550D01*
X011327Y016475D01*
X011347Y016398D01*
X011363Y016321D01*
X011375Y016242D01*
X011383Y016164D01*
X011387Y016085D01*
X011387Y016005D01*
X011383Y015926D01*
X011375Y015848D01*
X011363Y015769D01*
X011347Y015692D01*
X011327Y015615D01*
X011304Y015540D01*
X011276Y015465D01*
X011245Y015392D01*
X011211Y015321D01*
X011173Y015252D01*
X011131Y015184D01*
X011086Y015119D01*
X011038Y015056D01*
X010987Y014996D01*
X010933Y014938D01*
X010876Y014883D01*
X010816Y014831D01*
X010754Y014783D01*
X010689Y014737D01*
X010622Y014694D01*
X010553Y014655D01*
X010483Y014620D01*
X010410Y014588D01*
X010336Y014560D01*
X010261Y014535D01*
X010184Y014515D01*
X010107Y014498D01*
X010029Y014485D01*
X009950Y014476D01*
X009871Y014471D01*
X009792Y014470D01*
X009713Y014473D01*
X009634Y014480D01*
X009556Y014491D01*
X009478Y014506D01*
X009401Y014525D01*
X009325Y014547D01*
X009251Y014573D01*
X009177Y014603D01*
X009106Y014637D01*
X009036Y014674D01*
X008968Y014715D01*
X008902Y014759D01*
X008839Y014807D01*
X008778Y014857D01*
X008719Y014911D01*
X008664Y014967D01*
X008611Y015026D01*
X008561Y015088D01*
X008515Y015152D01*
X008472Y015218D01*
X008432Y015286D01*
X008395Y015357D01*
X008363Y015429D01*
X008333Y015502D01*
X008308Y015577D01*
X008286Y015653D01*
X008269Y015730D01*
X008255Y015808D01*
X008245Y015887D01*
X008239Y015966D01*
X008237Y016045D01*
X007450Y007777D02*
X007453Y007893D01*
X007461Y008009D01*
X007476Y008124D01*
X007495Y008238D01*
X007521Y008351D01*
X007552Y008463D01*
X007588Y008573D01*
X007630Y008681D01*
X007677Y008787D01*
X007729Y008890D01*
X007786Y008991D01*
X007848Y009089D01*
X007915Y009184D01*
X007986Y009275D01*
X008062Y009363D01*
X008142Y009447D01*
X008226Y009527D01*
X008314Y009603D01*
X008405Y009674D01*
X008500Y009741D01*
X008598Y009803D01*
X008699Y009860D01*
X008802Y009912D01*
X008908Y009959D01*
X009016Y010001D01*
X009126Y010037D01*
X009238Y010068D01*
X009351Y010094D01*
X009465Y010113D01*
X009580Y010128D01*
X009696Y010136D01*
X009812Y010139D01*
X009928Y010136D01*
X010044Y010128D01*
X010159Y010113D01*
X010273Y010094D01*
X010386Y010068D01*
X010498Y010037D01*
X010608Y010001D01*
X010716Y009959D01*
X010822Y009912D01*
X010925Y009860D01*
X011026Y009803D01*
X011124Y009741D01*
X011219Y009674D01*
X011310Y009603D01*
X011398Y009527D01*
X011482Y009447D01*
X011562Y009363D01*
X011638Y009275D01*
X011709Y009184D01*
X011776Y009089D01*
X011838Y008991D01*
X011895Y008890D01*
X011947Y008787D01*
X011994Y008681D01*
X012036Y008573D01*
X012072Y008463D01*
X012103Y008351D01*
X012129Y008238D01*
X012148Y008124D01*
X012163Y008009D01*
X012171Y007893D01*
X012174Y007777D01*
X012171Y007661D01*
X012163Y007545D01*
X012148Y007430D01*
X012129Y007316D01*
X012103Y007203D01*
X012072Y007091D01*
X012036Y006981D01*
X011994Y006873D01*
X011947Y006767D01*
X011895Y006664D01*
X011838Y006563D01*
X011776Y006465D01*
X011709Y006370D01*
X011638Y006279D01*
X011562Y006191D01*
X011482Y006107D01*
X011398Y006027D01*
X011310Y005951D01*
X011219Y005880D01*
X011124Y005813D01*
X011026Y005751D01*
X010925Y005694D01*
X010822Y005642D01*
X010716Y005595D01*
X010608Y005553D01*
X010498Y005517D01*
X010386Y005486D01*
X010273Y005460D01*
X010159Y005441D01*
X010044Y005426D01*
X009928Y005418D01*
X009812Y005415D01*
X009696Y005418D01*
X009580Y005426D01*
X009465Y005441D01*
X009351Y005460D01*
X009238Y005486D01*
X009126Y005517D01*
X009016Y005553D01*
X008908Y005595D01*
X008802Y005642D01*
X008699Y005694D01*
X008598Y005751D01*
X008500Y005813D01*
X008405Y005880D01*
X008314Y005951D01*
X008226Y006027D01*
X008142Y006107D01*
X008062Y006191D01*
X007986Y006279D01*
X007915Y006370D01*
X007848Y006465D01*
X007786Y006563D01*
X007729Y006664D01*
X007677Y006767D01*
X007630Y006873D01*
X007588Y006981D01*
X007552Y007091D01*
X007521Y007203D01*
X007495Y007316D01*
X007476Y007430D01*
X007461Y007545D01*
X007453Y007661D01*
X007450Y007777D01*
X008237Y007777D02*
X008239Y007856D01*
X008245Y007935D01*
X008255Y008014D01*
X008269Y008092D01*
X008286Y008169D01*
X008308Y008245D01*
X008333Y008320D01*
X008363Y008393D01*
X008395Y008465D01*
X008432Y008536D01*
X008472Y008604D01*
X008515Y008670D01*
X008561Y008734D01*
X008611Y008796D01*
X008664Y008855D01*
X008719Y008911D01*
X008778Y008965D01*
X008839Y009015D01*
X008902Y009063D01*
X008968Y009107D01*
X009036Y009148D01*
X009106Y009185D01*
X009177Y009219D01*
X009251Y009249D01*
X009325Y009275D01*
X009401Y009297D01*
X009478Y009316D01*
X009556Y009331D01*
X009634Y009342D01*
X009713Y009349D01*
X009792Y009352D01*
X009871Y009351D01*
X009950Y009346D01*
X010029Y009337D01*
X010107Y009324D01*
X010184Y009307D01*
X010261Y009287D01*
X010336Y009262D01*
X010410Y009234D01*
X010483Y009202D01*
X010553Y009167D01*
X010622Y009128D01*
X010689Y009085D01*
X010754Y009039D01*
X010816Y008991D01*
X010876Y008939D01*
X010933Y008884D01*
X010987Y008826D01*
X011038Y008766D01*
X011086Y008703D01*
X011131Y008638D01*
X011173Y008570D01*
X011211Y008501D01*
X011245Y008430D01*
X011276Y008357D01*
X011304Y008282D01*
X011327Y008207D01*
X011347Y008130D01*
X011363Y008053D01*
X011375Y007974D01*
X011383Y007896D01*
X011387Y007817D01*
X011387Y007737D01*
X011383Y007658D01*
X011375Y007580D01*
X011363Y007501D01*
X011347Y007424D01*
X011327Y007347D01*
X011304Y007272D01*
X011276Y007197D01*
X011245Y007124D01*
X011211Y007053D01*
X011173Y006984D01*
X011131Y006916D01*
X011086Y006851D01*
X011038Y006788D01*
X010987Y006728D01*
X010933Y006670D01*
X010876Y006615D01*
X010816Y006563D01*
X010754Y006515D01*
X010689Y006469D01*
X010622Y006426D01*
X010553Y006387D01*
X010483Y006352D01*
X010410Y006320D01*
X010336Y006292D01*
X010261Y006267D01*
X010184Y006247D01*
X010107Y006230D01*
X010029Y006217D01*
X009950Y006208D01*
X009871Y006203D01*
X009792Y006202D01*
X009713Y006205D01*
X009634Y006212D01*
X009556Y006223D01*
X009478Y006238D01*
X009401Y006257D01*
X009325Y006279D01*
X009251Y006305D01*
X009177Y006335D01*
X009106Y006369D01*
X009036Y006406D01*
X008968Y006447D01*
X008902Y006491D01*
X008839Y006539D01*
X008778Y006589D01*
X008719Y006643D01*
X008664Y006699D01*
X008611Y006758D01*
X008561Y006820D01*
X008515Y006884D01*
X008472Y006950D01*
X008432Y007018D01*
X008395Y007089D01*
X008363Y007161D01*
X008333Y007234D01*
X008308Y007309D01*
X008286Y007385D01*
X008269Y007462D01*
X008255Y007540D01*
X008245Y007619D01*
X008239Y007698D01*
X008237Y007777D01*
M02*
