G75*
G70*
%OFA0B0*%
%FSLAX24Y24*%
%IPPOS*%
%LPD*%
%AMOC8*
5,1,8,0,0,1.08239X$1,22.5*
%
%ADD10C,0.0556*%
%ADD11C,0.0966*%
%ADD12C,0.1084*%
%ADD13R,0.0513X0.0356*%
%ADD14C,0.2380*%
%ADD15C,0.0595*%
%ADD16C,0.0740*%
%ADD17R,0.0316X0.0277*%
%ADD18C,0.0358*%
%ADD19C,0.0476*%
%ADD20C,0.0437*%
%ADD21C,0.0397*%
D10*
X001300Y012430D03*
X001300Y012930D03*
X001300Y013430D03*
X001300Y013930D03*
X001300Y014430D03*
X003300Y014430D03*
X003300Y013930D03*
X003300Y013430D03*
X003300Y012930D03*
X003300Y012430D03*
D11*
X029644Y026305D03*
D12*
X030644Y025305D03*
X030644Y027305D03*
X028644Y027305D03*
X028644Y025305D03*
D13*
X011144Y026385D03*
X011144Y026975D03*
D14*
X001825Y001361D03*
X031746Y001361D03*
X031746Y031282D03*
X001825Y031282D03*
D15*
X006667Y005437D02*
X006667Y004923D01*
X007651Y004923D02*
X007651Y005437D01*
X008636Y005437D02*
X008636Y004923D01*
D16*
X014769Y015243D03*
X014769Y016243D03*
D17*
X008590Y005930D03*
X008197Y005930D03*
X007590Y005930D03*
X007197Y005930D03*
D18*
X010644Y015180D03*
X009706Y015493D03*
X011644Y015180D03*
X006644Y017680D03*
X004269Y015805D03*
X003831Y015868D03*
X003331Y015930D03*
X003019Y016243D03*
X001394Y016180D03*
X001394Y017680D03*
X001394Y019180D03*
X001394Y020680D03*
X001394Y022180D03*
X001394Y023680D03*
X001394Y025180D03*
X001394Y027180D03*
X002144Y028180D03*
X001644Y029180D03*
X003144Y029180D03*
X004144Y030180D03*
X005644Y030680D03*
X005644Y031680D03*
X004144Y031680D03*
X007144Y031680D03*
X007144Y030680D03*
X008644Y030680D03*
X008644Y031680D03*
X010144Y031680D03*
X010144Y030680D03*
X011644Y030680D03*
X011644Y031680D03*
X013144Y031680D03*
X013081Y030805D03*
X012894Y029305D03*
X012956Y028868D03*
X012331Y028868D03*
X013456Y028430D03*
X013581Y029305D03*
X015144Y028680D03*
X015144Y029993D03*
X016644Y029993D03*
X018144Y029993D03*
X019644Y029993D03*
X021144Y029993D03*
X021644Y028680D03*
X021144Y027180D03*
X020769Y026555D03*
X020769Y025993D03*
X020144Y025180D03*
X018894Y025180D03*
X018144Y024680D03*
X017394Y024680D03*
X016644Y024680D03*
X015644Y025180D03*
X014144Y025180D03*
X013394Y025555D03*
X012831Y025493D03*
X013144Y027180D03*
X011519Y027680D03*
X010894Y029180D03*
X010269Y029180D03*
X009019Y029180D03*
X009019Y028680D03*
X008019Y028555D03*
X008019Y029180D03*
X009206Y025743D03*
X008519Y023180D03*
X008394Y022055D03*
X007519Y021430D03*
X009144Y020805D03*
X010144Y020805D03*
X010644Y021430D03*
X011269Y021930D03*
X011644Y021930D03*
X012644Y020680D03*
X013644Y021680D03*
X014144Y020680D03*
X015644Y020680D03*
X017144Y020680D03*
X018644Y020680D03*
X020144Y020680D03*
X021644Y020680D03*
X023144Y020680D03*
X024644Y020680D03*
X026144Y020680D03*
X027644Y020680D03*
X029144Y020680D03*
X030644Y020680D03*
X032144Y020680D03*
X032144Y021680D03*
X032144Y023180D03*
X032144Y024680D03*
X032144Y026180D03*
X032144Y027680D03*
X032144Y029180D03*
X030644Y029180D03*
X030144Y028180D03*
X028144Y028180D03*
X026644Y027180D03*
X025144Y027180D03*
X023644Y027180D03*
X023644Y027993D03*
X023644Y028680D03*
X023644Y029493D03*
X024144Y030368D03*
X024144Y030993D03*
X023644Y031680D03*
X022144Y031680D03*
X020644Y031680D03*
X019144Y031680D03*
X017644Y031680D03*
X016144Y031680D03*
X014644Y031680D03*
X015144Y027180D03*
X016644Y027180D03*
X018144Y027180D03*
X019644Y027180D03*
X021644Y025180D03*
X023144Y025180D03*
X024644Y025180D03*
X026144Y025180D03*
X027644Y025180D03*
X029644Y030180D03*
X029644Y031680D03*
X028144Y031680D03*
X026644Y031680D03*
X025144Y031680D03*
X013644Y023180D03*
X010019Y023180D03*
X005706Y023868D03*
X005081Y024055D03*
X005081Y023118D03*
X004144Y023118D03*
X004144Y024180D03*
X004144Y021680D03*
X005081Y021680D03*
X024394Y006180D03*
X025956Y006180D03*
D19*
X025644Y003680D03*
X025144Y003680D03*
X025144Y003180D03*
X025644Y003180D03*
X024644Y003180D03*
X024644Y003680D03*
X017644Y011805D03*
X017644Y012930D03*
X019519Y014493D03*
X019081Y015618D03*
X014144Y011805D03*
X014581Y009743D03*
X014581Y009243D03*
X015081Y009243D03*
X015081Y009743D03*
X015581Y009743D03*
X015581Y009243D03*
X015144Y005618D03*
X014644Y005618D03*
X014144Y005618D03*
X012206Y005680D03*
X011706Y005680D03*
X007081Y007430D03*
X006956Y009118D03*
X006956Y009868D03*
X004769Y009868D03*
X004769Y009055D03*
X011956Y016243D03*
X011956Y016743D03*
X012644Y014993D03*
X013894Y014993D03*
X006144Y026680D03*
X006144Y028680D03*
D20*
X006144Y014180D03*
X007019Y013618D03*
X007644Y014180D03*
X005269Y012180D03*
X005144Y011180D03*
X003144Y011743D03*
X012144Y012180D03*
X014956Y011930D03*
X019644Y007180D03*
X018206Y006805D03*
X019144Y004680D03*
X022644Y006680D03*
X023394Y006805D03*
X024019Y006805D03*
X024894Y006305D03*
X023644Y008680D03*
X023144Y008680D03*
D21*
X024956Y008680D03*
X025456Y006305D03*
X012144Y003680D03*
X007581Y015493D03*
X008081Y019493D03*
X006144Y019493D03*
M02*
