G75*
G70*
%OFA0B0*%
%FSLAX24Y24*%
%IPPOS*%
%LPD*%
%AMOC8*
5,1,8,0,0,1.08239X$1,22.5*
%
%ADD10C,0.0060*%
%ADD11R,0.0276X0.0787*%
%ADD12R,0.0630X0.0866*%
%ADD13R,0.0315X0.0177*%
%ADD14R,0.0276X0.0433*%
%ADD15R,0.0433X0.0276*%
%ADD16R,0.0866X0.0256*%
%ADD17R,0.0480X0.0236*%
%ADD18R,0.0591X0.0276*%
%ADD19R,0.0512X0.0165*%
%ADD20R,0.0472X0.0118*%
%ADD21C,0.0476*%
%ADD22R,0.0709X0.0394*%
%ADD23R,0.0315X0.0315*%
%ADD24R,0.0390X0.0120*%
%ADD25R,0.0287X0.0118*%
%ADD26C,0.0089*%
%ADD27C,0.0886*%
%ADD28C,0.1004*%
%ADD29R,0.0551X0.0394*%
%ADD30R,0.0276X0.0591*%
%ADD31R,0.0472X0.0906*%
%ADD32R,0.0709X0.0591*%
%ADD33R,0.1000X0.0402*%
%ADD34R,0.0240X0.0492*%
%ADD35R,0.0411X0.0709*%
%ADD36C,0.2300*%
%ADD37C,0.0515*%
%ADD38R,0.0189X0.0008*%
%ADD39R,0.0181X0.0008*%
%ADD40R,0.0173X0.0008*%
%ADD41R,0.0291X0.0008*%
%ADD42R,0.0283X0.0008*%
%ADD43R,0.0276X0.0008*%
%ADD44R,0.0370X0.0008*%
%ADD45R,0.0346X0.0008*%
%ADD46R,0.0433X0.0008*%
%ADD47R,0.0402X0.0008*%
%ADD48R,0.0480X0.0008*%
%ADD49R,0.0457X0.0008*%
%ADD50R,0.0449X0.0008*%
%ADD51R,0.0386X0.0008*%
%ADD52R,0.0520X0.0008*%
%ADD53R,0.0488X0.0008*%
%ADD54R,0.0496X0.0008*%
%ADD55R,0.0559X0.0008*%
%ADD56R,0.0528X0.0008*%
%ADD57R,0.0591X0.0008*%
%ADD58R,0.0567X0.0008*%
%ADD59R,0.0622X0.0008*%
%ADD60R,0.0598X0.0008*%
%ADD61R,0.0654X0.0008*%
%ADD62R,0.0685X0.0008*%
%ADD63R,0.0646X0.0008*%
%ADD64R,0.0701X0.0008*%
%ADD65R,0.0677X0.0008*%
%ADD66R,0.0732X0.0008*%
%ADD67R,0.0693X0.0008*%
%ADD68R,0.0748X0.0008*%
%ADD69R,0.0724X0.0008*%
%ADD70R,0.0717X0.0008*%
%ADD71R,0.0772X0.0008*%
%ADD72R,0.0740X0.0008*%
%ADD73R,0.0795X0.0008*%
%ADD74R,0.0756X0.0008*%
%ADD75R,0.0764X0.0008*%
%ADD76R,0.0811X0.0008*%
%ADD77R,0.0780X0.0008*%
%ADD78R,0.0827X0.0008*%
%ADD79R,0.0803X0.0008*%
%ADD80R,0.0843X0.0008*%
%ADD81R,0.0819X0.0008*%
%ADD82R,0.0858X0.0008*%
%ADD83R,0.0835X0.0008*%
%ADD84R,0.0874X0.0008*%
%ADD85R,0.0850X0.0008*%
%ADD86R,0.0890X0.0008*%
%ADD87R,0.0866X0.0008*%
%ADD88R,0.0906X0.0008*%
%ADD89R,0.0921X0.0008*%
%ADD90R,0.0937X0.0008*%
%ADD91R,0.0945X0.0008*%
%ADD92R,0.0913X0.0008*%
%ADD93R,0.0953X0.0008*%
%ADD94R,0.0929X0.0008*%
%ADD95R,0.0969X0.0008*%
%ADD96R,0.0976X0.0008*%
%ADD97R,0.0984X0.0008*%
%ADD98R,0.0961X0.0008*%
%ADD99R,0.1000X0.0008*%
%ADD100R,0.1008X0.0008*%
%ADD101R,0.1016X0.0008*%
%ADD102R,0.0992X0.0008*%
%ADD103R,0.1024X0.0008*%
%ADD104R,0.1031X0.0008*%
%ADD105R,0.1039X0.0008*%
%ADD106R,0.1047X0.0008*%
%ADD107R,0.1055X0.0008*%
%ADD108R,0.1063X0.0008*%
%ADD109R,0.1071X0.0008*%
%ADD110R,0.1079X0.0008*%
%ADD111R,0.1087X0.0008*%
%ADD112R,0.0465X0.0008*%
%ADD113R,0.0441X0.0008*%
%ADD114R,0.0425X0.0008*%
%ADD115R,0.0417X0.0008*%
%ADD116R,0.0409X0.0008*%
%ADD117R,0.0394X0.0008*%
%ADD118R,0.0378X0.0008*%
%ADD119R,0.0362X0.0008*%
%ADD120R,0.0354X0.0008*%
%ADD121R,0.0299X0.0008*%
%ADD122R,0.0236X0.0008*%
%ADD123R,0.0244X0.0008*%
%ADD124R,0.0134X0.0008*%
%ADD125R,0.0126X0.0008*%
%ADD126R,0.0079X0.0008*%
%ADD127R,0.0071X0.0008*%
%ADD128R,0.0024X0.0008*%
%ADD129R,0.0016X0.0008*%
%ADD130R,0.0087X0.0008*%
%ADD131R,0.0472X0.0008*%
%ADD132R,0.0039X0.0008*%
%ADD133R,0.0165X0.0008*%
%ADD134R,0.0118X0.0008*%
%ADD135R,0.0031X0.0008*%
%ADD136R,0.0008X0.0008*%
%ADD137R,0.0504X0.0008*%
%ADD138R,0.0512X0.0008*%
%ADD139R,0.0063X0.0008*%
%ADD140R,0.0197X0.0008*%
%ADD141R,0.0213X0.0008*%
%ADD142R,0.0339X0.0008*%
%ADD143R,0.0535X0.0008*%
%ADD144R,0.0307X0.0008*%
%ADD145R,0.0543X0.0008*%
%ADD146R,0.0551X0.0008*%
%ADD147R,0.0157X0.0008*%
%ADD148R,0.0142X0.0008*%
%ADD149R,0.0150X0.0008*%
%ADD150R,0.0102X0.0008*%
%ADD151R,0.0094X0.0008*%
%ADD152R,0.0315X0.0008*%
%ADD153R,0.0323X0.0008*%
%ADD154R,0.0575X0.0008*%
%ADD155R,0.0220X0.0008*%
%ADD156R,0.0228X0.0008*%
%ADD157R,0.0205X0.0008*%
%ADD158R,0.0047X0.0008*%
%ADD159R,0.0331X0.0008*%
%ADD160R,0.0110X0.0008*%
%ADD161R,0.0055X0.0008*%
%ADD162R,0.0268X0.0008*%
%ADD163R,0.0898X0.0008*%
%ADD164R,0.0882X0.0008*%
%ADD165R,0.0661X0.0008*%
%ADD166R,0.0669X0.0008*%
%ADD167R,0.0638X0.0008*%
%ADD168R,0.0630X0.0008*%
%ADD169R,0.0606X0.0008*%
%ADD170R,0.0394X0.0551*%
%ADD171R,0.0236X0.0197*%
%ADD172C,0.0660*%
%ADD173C,0.0240*%
%ADD174C,0.0100*%
%ADD175C,0.0278*%
%ADD176C,0.0120*%
%ADD177C,0.0396*%
%ADD178C,0.0357*%
%ADD179C,0.0049*%
%ADD180C,0.0160*%
%ADD181C,0.0320*%
%ADD182C,0.0317*%
D10*
X023674Y011710D02*
X024101Y011710D01*
X023887Y011710D02*
X023887Y012351D01*
X023674Y012137D01*
X024318Y012030D02*
X024745Y012030D01*
X024963Y012030D02*
X025390Y012030D01*
X025283Y011710D02*
X025283Y012351D01*
X024963Y012030D01*
X024638Y011710D02*
X024638Y012351D01*
X024318Y012030D01*
X024318Y012710D02*
X024532Y012924D01*
X024745Y012710D01*
X024745Y013351D01*
X024638Y013710D02*
X024745Y013817D01*
X024745Y014244D01*
X024638Y014351D01*
X024425Y014351D01*
X024318Y014244D01*
X024318Y013817D01*
X024425Y013710D01*
X024638Y013710D01*
X024963Y013710D02*
X025283Y013710D01*
X025390Y013817D01*
X025390Y014244D01*
X025283Y014351D01*
X024963Y014351D01*
X024963Y013710D01*
X025607Y013351D02*
X025927Y013351D01*
X026034Y013244D01*
X026034Y013137D01*
X025927Y013030D01*
X025607Y013030D01*
X025607Y012710D02*
X025927Y012710D01*
X026034Y012817D01*
X026034Y012924D01*
X025927Y013030D01*
X026252Y013030D02*
X026358Y013137D01*
X026572Y013137D01*
X026679Y013030D01*
X026679Y012924D01*
X026252Y012924D01*
X026252Y013030D02*
X026252Y012817D01*
X026358Y012710D01*
X026572Y012710D01*
X026896Y012817D02*
X027003Y012924D01*
X027323Y012924D01*
X027323Y013030D02*
X027323Y012710D01*
X027003Y012710D01*
X026896Y012817D01*
X027003Y013137D02*
X027217Y013137D01*
X027323Y013030D01*
X027541Y013030D02*
X027541Y012817D01*
X027648Y012710D01*
X027968Y012710D01*
X028185Y012817D02*
X028292Y012710D01*
X028506Y012710D01*
X028612Y012817D01*
X028612Y013030D01*
X028506Y013137D01*
X028292Y013137D01*
X028185Y013030D01*
X028185Y012817D01*
X027968Y013137D02*
X027648Y013137D01*
X027541Y013030D01*
X027323Y013603D02*
X026896Y013603D01*
X026679Y013710D02*
X026252Y014351D01*
X026034Y014351D02*
X025607Y014351D01*
X025821Y014351D02*
X025821Y013710D01*
X025607Y013351D02*
X025607Y012710D01*
X025607Y012351D02*
X025821Y012137D01*
X026034Y012351D01*
X026034Y011710D01*
X026252Y011710D02*
X026252Y012351D01*
X026252Y012030D02*
X026679Y012030D01*
X026896Y012137D02*
X027323Y012137D01*
X026896Y011710D01*
X027323Y011710D01*
X027541Y011710D02*
X027968Y012351D01*
X028185Y012137D02*
X028399Y012351D01*
X028399Y011710D01*
X028612Y011710D02*
X028185Y011710D01*
X028830Y012030D02*
X029257Y012030D01*
X029474Y012030D02*
X029474Y011817D01*
X029581Y011710D01*
X029795Y011710D01*
X029901Y011817D01*
X029901Y011924D01*
X029795Y012030D01*
X029474Y012030D01*
X029688Y012244D01*
X029901Y012351D01*
X030119Y012351D02*
X030333Y012137D01*
X030546Y012351D01*
X030546Y011710D01*
X030764Y011710D02*
X030764Y012351D01*
X030764Y012030D02*
X031191Y012030D01*
X031408Y012137D02*
X031835Y012137D01*
X031408Y011710D01*
X031835Y011710D01*
X031191Y011710D02*
X031191Y012351D01*
X030119Y012351D02*
X030119Y011710D01*
X029150Y011710D02*
X029150Y012351D01*
X028830Y012030D01*
X028830Y012710D02*
X028830Y013137D01*
X029150Y013137D01*
X029257Y013030D01*
X029257Y012710D01*
X027968Y013710D02*
X027541Y013710D01*
X027968Y014137D01*
X027968Y014244D01*
X027861Y014351D01*
X027648Y014351D01*
X027541Y014244D01*
X027646Y014710D02*
X027325Y014710D01*
X027219Y014817D01*
X027325Y014924D01*
X027646Y014924D01*
X027646Y015030D02*
X027646Y014710D01*
X027646Y015030D02*
X027539Y015137D01*
X027325Y015137D01*
X027001Y015244D02*
X026894Y015351D01*
X026681Y015351D01*
X026574Y015244D01*
X026574Y015137D01*
X026681Y015030D01*
X026894Y015030D01*
X027001Y014924D01*
X027001Y014817D01*
X026894Y014710D01*
X026681Y014710D01*
X026574Y014817D01*
X026358Y014817D02*
X026358Y014710D01*
X026252Y014710D01*
X026252Y014817D01*
X026358Y014817D01*
X026034Y014817D02*
X026034Y015244D01*
X025927Y015351D01*
X025607Y015351D01*
X025607Y014710D01*
X025927Y014710D01*
X026034Y014817D01*
X025392Y014817D02*
X025392Y014710D01*
X025285Y014710D01*
X025285Y014817D01*
X025392Y014817D01*
X025067Y014817D02*
X025067Y015244D01*
X024961Y015351D01*
X024747Y015351D01*
X024640Y015244D01*
X024640Y014817D01*
X024747Y014710D01*
X024961Y014710D01*
X025067Y014817D01*
X024425Y014817D02*
X024425Y014710D01*
X024318Y014710D01*
X024318Y014817D01*
X024425Y014817D01*
X024101Y014817D02*
X023994Y014710D01*
X023780Y014710D01*
X023674Y014817D01*
X023674Y015244D01*
X023780Y015351D01*
X023994Y015351D01*
X024101Y015244D01*
X024101Y015030D02*
X023887Y015030D01*
X024101Y015030D02*
X024101Y014817D01*
X023994Y014351D02*
X023780Y014351D01*
X023674Y014244D01*
X023674Y013817D01*
X023780Y013710D01*
X023994Y013710D01*
X024101Y013817D01*
X024101Y014030D01*
X023887Y014030D01*
X024101Y014244D02*
X023994Y014351D01*
X023994Y013351D02*
X023780Y013351D01*
X023674Y013244D01*
X023674Y012817D01*
X023780Y012710D01*
X023994Y012710D01*
X024101Y012817D01*
X024318Y012710D02*
X024318Y013351D01*
X024101Y013244D02*
X023994Y013351D01*
X025607Y012351D02*
X025607Y011710D01*
X026679Y011710D02*
X026679Y012351D01*
X026252Y013710D02*
X026679Y014351D01*
X027970Y014817D02*
X027970Y015244D01*
X027863Y015137D02*
X028077Y015137D01*
X027970Y014817D02*
X028077Y014710D01*
X027108Y015710D02*
X026681Y015710D01*
X026895Y015710D02*
X026895Y016351D01*
X026681Y016137D01*
X026464Y016030D02*
X026037Y016030D01*
X025821Y015710D02*
X025607Y015710D01*
X025714Y015710D02*
X025714Y016351D01*
X025607Y016351D02*
X025821Y016351D01*
X025390Y016244D02*
X025283Y016351D01*
X025069Y016351D01*
X024963Y016244D01*
X024963Y016137D01*
X025069Y016030D01*
X025283Y016030D01*
X025390Y015924D01*
X025390Y015817D01*
X025283Y015710D01*
X025069Y015710D01*
X024963Y015817D01*
X024745Y015817D02*
X024638Y015710D01*
X024425Y015710D01*
X024318Y015817D01*
X024101Y015817D02*
X024101Y016244D01*
X023994Y016351D01*
X023780Y016351D01*
X023674Y016244D01*
X023674Y015817D01*
X023780Y015710D01*
X023994Y015710D01*
X024101Y015817D01*
X024318Y016137D02*
X024425Y016030D01*
X024638Y016030D01*
X024745Y015924D01*
X024745Y015817D01*
X024745Y016244D02*
X024638Y016351D01*
X024425Y016351D01*
X024318Y016244D01*
X024318Y016137D01*
D11*
X024397Y005180D03*
X024890Y005180D03*
X025382Y005180D03*
X025874Y005180D03*
X026366Y005180D03*
X026858Y005180D03*
X023905Y005180D03*
X023413Y005180D03*
X022921Y005180D03*
X022429Y005180D03*
D12*
X021543Y003881D03*
X027744Y003881D03*
D13*
X013800Y012546D03*
X013800Y012802D03*
X013800Y013058D03*
X013800Y013314D03*
X012737Y013314D03*
X012737Y013058D03*
X012737Y012802D03*
X012737Y012546D03*
D14*
X012973Y011805D03*
X013564Y011805D03*
X013973Y013805D03*
X013973Y014430D03*
X014564Y014430D03*
X014564Y013805D03*
X012564Y013805D03*
X012564Y014430D03*
X011973Y014430D03*
X011973Y013805D03*
X012848Y009180D03*
X013439Y009180D03*
X013439Y005680D03*
X012848Y005680D03*
X018911Y013368D03*
X018911Y013930D03*
X019501Y013930D03*
X019501Y013368D03*
X012001Y023555D03*
X011411Y023555D03*
X008439Y023805D03*
X007848Y023805D03*
X006814Y023805D03*
X006223Y023805D03*
X007848Y025680D03*
X008439Y025680D03*
X014098Y027680D03*
X014689Y027680D03*
X014689Y028305D03*
X014098Y028305D03*
X014098Y030055D03*
X014689Y030055D03*
X015036Y026305D03*
X015626Y026305D03*
X016473Y026305D03*
X017064Y026305D03*
X017723Y026305D03*
X018314Y026305D03*
X019161Y026305D03*
X019751Y026305D03*
X022348Y027930D03*
X022939Y027930D03*
X022939Y028680D03*
X022348Y028680D03*
X023348Y026305D03*
X023939Y026305D03*
X026973Y026305D03*
X027564Y026305D03*
X004564Y012430D03*
X003973Y012430D03*
D15*
X007394Y012635D03*
X007394Y013225D03*
X009002Y015087D03*
X009644Y014975D03*
X009644Y014385D03*
X009894Y013225D03*
X009894Y012635D03*
X012019Y012635D03*
X012019Y013225D03*
X011394Y015635D03*
X011394Y016225D03*
X011394Y016760D03*
X011394Y017350D03*
X013894Y017163D03*
X013894Y016572D03*
X015331Y014163D03*
X015956Y014163D03*
X015956Y013572D03*
X015331Y013572D03*
X014519Y013225D03*
X014519Y012635D03*
X016581Y013572D03*
X016581Y014163D03*
X017206Y014163D03*
X017206Y013572D03*
X018144Y013385D03*
X018144Y013975D03*
X016769Y008475D03*
X016769Y007885D03*
X016019Y007885D03*
X016019Y008475D03*
X016019Y005725D03*
X016019Y005135D03*
X016019Y004600D03*
X016019Y004010D03*
X018269Y004635D03*
X018269Y005225D03*
X012144Y005100D03*
X012144Y004510D03*
X012144Y008010D03*
X012144Y008600D03*
X007019Y008600D03*
X007019Y008010D03*
X004769Y008010D03*
X004769Y008600D03*
X009002Y015678D03*
X007519Y018947D03*
X007519Y019538D03*
X006769Y019538D03*
X006769Y018947D03*
X010644Y021885D03*
X010644Y022475D03*
X010644Y023010D03*
X010644Y023600D03*
X011331Y022975D03*
X011331Y022385D03*
X012081Y022385D03*
X012081Y022975D03*
X013456Y024322D03*
X013456Y024913D03*
X012956Y027822D03*
X012956Y028413D03*
X014144Y028885D03*
X014144Y029475D03*
X010894Y028725D03*
X010894Y028135D03*
X010269Y028135D03*
X010269Y028725D03*
X004269Y025350D03*
X004269Y024760D03*
X016644Y025135D03*
X016644Y025725D03*
X017394Y025725D03*
X017394Y025135D03*
X018144Y025135D03*
X018144Y025725D03*
D16*
X015167Y008430D03*
X015167Y007930D03*
X015167Y007430D03*
X015167Y006930D03*
X015167Y004930D03*
X015167Y004430D03*
X015167Y003930D03*
X015167Y003430D03*
X013120Y003430D03*
X013120Y003930D03*
X013120Y004430D03*
X013120Y004930D03*
X013120Y006930D03*
X013120Y007430D03*
X013120Y007930D03*
X013120Y008430D03*
D17*
X010280Y008305D03*
X010280Y007931D03*
X010280Y008679D03*
X009257Y008679D03*
X009257Y007931D03*
X009280Y012556D03*
X009280Y013304D03*
X008257Y013304D03*
X008257Y012930D03*
X008257Y012556D03*
D18*
X008456Y008679D03*
X008456Y007931D03*
X011144Y007931D03*
X011144Y008679D03*
X009019Y027431D03*
X009019Y028179D03*
X012206Y028429D03*
X012206Y027681D03*
D19*
X006606Y013314D03*
X006606Y013058D03*
X006606Y012802D03*
X006606Y012546D03*
X005681Y012546D03*
X005681Y012802D03*
X005681Y013058D03*
X005681Y013314D03*
D20*
X006005Y015015D03*
X006005Y015271D03*
X006005Y015527D03*
X006005Y015783D03*
X006005Y016039D03*
X006005Y016295D03*
X006005Y016550D03*
X006005Y016806D03*
X006005Y017062D03*
X006005Y017318D03*
X006005Y017574D03*
X006005Y017830D03*
X006005Y018086D03*
X006005Y018342D03*
X008288Y018342D03*
X008288Y018086D03*
X008288Y017830D03*
X008288Y017574D03*
X008288Y017318D03*
X008288Y017062D03*
X008288Y016806D03*
X008288Y016550D03*
X008288Y016295D03*
X008288Y016039D03*
X008288Y015783D03*
X008288Y015527D03*
X008288Y015271D03*
X008288Y015015D03*
D21*
X003300Y014430D03*
X003300Y013930D03*
X003300Y013430D03*
X003300Y012930D03*
X003300Y012430D03*
X001300Y012430D03*
X001300Y012930D03*
X001300Y013430D03*
X001300Y013930D03*
X001300Y014430D03*
D22*
X010331Y016000D03*
X010331Y016985D03*
D23*
X013894Y016100D03*
X013894Y015510D03*
D24*
X012292Y024460D03*
X012292Y024716D03*
X012292Y024972D03*
X012292Y025228D03*
X012292Y025484D03*
X012292Y025740D03*
X012292Y025995D03*
X012292Y026251D03*
X012292Y026507D03*
X012292Y026763D03*
X012292Y027019D03*
X012292Y027275D03*
X009995Y027275D03*
X009995Y027019D03*
X009995Y026763D03*
X009995Y026507D03*
X009995Y026251D03*
X009995Y025995D03*
X009995Y025740D03*
X009995Y025484D03*
X009995Y025228D03*
X009995Y024972D03*
X009995Y024716D03*
X009995Y024460D03*
D25*
X020269Y026475D03*
D26*
X020368Y026263D02*
X020170Y026263D01*
X020170Y026293D01*
X020368Y026293D01*
X020368Y026263D01*
X020368Y026067D02*
X020170Y026067D01*
X020170Y026097D01*
X020368Y026097D01*
X020368Y026067D01*
X020368Y025870D02*
X020170Y025870D01*
X020170Y025900D01*
X020368Y025900D01*
X020368Y025870D01*
X021170Y025870D02*
X021368Y025870D01*
X021170Y025870D02*
X021170Y025900D01*
X021368Y025900D01*
X021368Y025870D01*
X021368Y026067D02*
X021170Y026067D01*
X021170Y026097D01*
X021368Y026097D01*
X021368Y026067D01*
X021368Y026263D02*
X021170Y026263D01*
X021170Y026293D01*
X021368Y026293D01*
X021368Y026263D01*
X021368Y026460D02*
X021170Y026460D01*
X021170Y026490D01*
X021368Y026490D01*
X021368Y026460D01*
D27*
X029644Y026305D03*
D28*
X030644Y025305D03*
X030644Y027305D03*
X028644Y027305D03*
X028644Y025305D03*
D29*
X017577Y005304D03*
X016710Y004930D03*
X017577Y004556D03*
D30*
X006268Y007805D03*
X005519Y007805D03*
X022332Y029493D03*
X023080Y029493D03*
D31*
X023461Y030618D03*
X022201Y030618D03*
D32*
X007470Y023086D03*
X007470Y022024D03*
X005817Y022024D03*
X005817Y023086D03*
X005067Y024649D03*
X005067Y025711D03*
X006720Y025711D03*
X006720Y024649D03*
D33*
X014144Y026229D03*
X014144Y027131D03*
X022269Y027256D03*
X022269Y026354D03*
D34*
X025456Y026669D03*
X025456Y025941D03*
D35*
X024797Y026305D03*
X026115Y026305D03*
D36*
X001825Y001361D03*
X031746Y001361D03*
X031746Y031282D03*
X001825Y031282D03*
D37*
X006667Y005437D02*
X006667Y004923D01*
X007651Y004923D02*
X007651Y005437D01*
X008636Y005437D02*
X008636Y004923D01*
D38*
X023923Y017767D03*
X024214Y016680D03*
X025332Y017318D03*
X026687Y017318D03*
X028002Y017767D03*
X028199Y017696D03*
D39*
X028203Y017940D03*
X027998Y017877D03*
X025636Y016680D03*
X024706Y017641D03*
X024706Y017995D03*
X023730Y017696D03*
D40*
X023726Y017940D03*
X023931Y017893D03*
X023931Y017877D03*
X024498Y018058D03*
X024498Y017578D03*
X026986Y016680D03*
X027994Y017743D03*
X027994Y017751D03*
X027994Y017759D03*
X027994Y017885D03*
X027994Y017893D03*
D41*
X028053Y017814D03*
X028147Y017971D03*
X025281Y017302D03*
X024218Y016688D03*
X023872Y017806D03*
X023872Y017822D03*
D42*
X023876Y017814D03*
X023781Y017971D03*
X024553Y018066D03*
X025640Y016688D03*
X027348Y017570D03*
X028151Y017672D03*
X028151Y017680D03*
X028151Y017688D03*
X028151Y017948D03*
X028151Y017956D03*
X028151Y017963D03*
D43*
X026990Y016688D03*
X024549Y017570D03*
X023777Y017672D03*
X023777Y017680D03*
X023777Y017688D03*
X023777Y017948D03*
X023777Y017956D03*
X023777Y017963D03*
D44*
X024218Y016696D03*
X025250Y017247D03*
X026037Y017152D03*
X026037Y017145D03*
X026037Y017137D03*
X026045Y017176D03*
X026045Y017184D03*
X026045Y017192D03*
X026045Y017200D03*
X026045Y017208D03*
X026045Y017215D03*
X026045Y017223D03*
X026045Y017231D03*
X026045Y017239D03*
X026045Y017247D03*
X026045Y017255D03*
X026045Y017263D03*
X026596Y017271D03*
X026596Y017278D03*
X026596Y017286D03*
X027392Y017286D03*
X027392Y017278D03*
X027392Y017271D03*
X027392Y017263D03*
X027392Y017255D03*
X027392Y017247D03*
X027392Y017176D03*
X027392Y017168D03*
X027392Y017160D03*
X027392Y017152D03*
X027392Y017145D03*
X027384Y017137D03*
X027384Y017129D03*
X026636Y018318D03*
X026636Y018326D03*
X026636Y018334D03*
X026636Y018341D03*
X026628Y018357D03*
X026628Y018365D03*
X026628Y018373D03*
X026628Y018381D03*
X026628Y018389D03*
X026628Y018397D03*
X026628Y018404D03*
X026628Y018412D03*
X026628Y018420D03*
X026628Y018428D03*
X026636Y018452D03*
X026636Y018460D03*
X026636Y018467D03*
X026636Y018475D03*
X026021Y018428D03*
X026021Y018420D03*
X026021Y018412D03*
X026021Y018404D03*
X025289Y018483D03*
X025281Y018460D03*
X025281Y018452D03*
X025281Y018444D03*
X025281Y018436D03*
X025281Y018428D03*
X025281Y018420D03*
X025281Y018412D03*
X025281Y018404D03*
X025281Y018373D03*
X025281Y018365D03*
X025281Y018357D03*
X025281Y018349D03*
X025281Y018341D03*
X025281Y018334D03*
X027014Y018916D03*
X027368Y018444D03*
X027376Y018412D03*
X027376Y018404D03*
D45*
X026010Y018397D03*
X025254Y017294D03*
X025640Y016696D03*
X026994Y016696D03*
D46*
X026675Y017050D03*
X026667Y017058D03*
X027336Y017042D03*
X027329Y017460D03*
X027321Y017467D03*
X026699Y018160D03*
X026683Y018578D03*
X027305Y018578D03*
X027313Y018570D03*
X025659Y018908D03*
X025344Y018168D03*
X025352Y018160D03*
X025352Y018152D03*
X025974Y017467D03*
X025982Y017452D03*
X025321Y017050D03*
X024557Y017042D03*
X024218Y016704D03*
X023880Y017042D03*
X024557Y018570D03*
D47*
X024581Y018530D03*
X024588Y018515D03*
X024218Y018916D03*
X023856Y018538D03*
X023856Y018530D03*
X023848Y018523D03*
X023848Y018515D03*
X023848Y017097D03*
X023848Y017089D03*
X023856Y017082D03*
X024581Y017082D03*
X024581Y017089D03*
X024588Y017097D03*
X024588Y017105D03*
X025281Y017121D03*
X025289Y017113D03*
X025289Y017105D03*
X025644Y016704D03*
X026006Y017066D03*
X026014Y017381D03*
X026014Y017389D03*
X026006Y017404D03*
X026636Y017113D03*
X026644Y017097D03*
X026998Y016704D03*
X027360Y017074D03*
X027368Y017373D03*
X027368Y017381D03*
X027360Y017389D03*
X027360Y017397D03*
X026777Y018097D03*
X026667Y018223D03*
X026659Y018231D03*
X026659Y018239D03*
X026659Y018546D03*
X026667Y018554D03*
X027336Y018538D03*
X027336Y018530D03*
X025990Y018530D03*
X025982Y018538D03*
X025313Y018546D03*
X025313Y018554D03*
X025313Y018231D03*
D48*
X025360Y017019D03*
X025951Y017019D03*
X026706Y017019D03*
X024525Y017019D03*
X024218Y016711D03*
X023911Y017019D03*
D49*
X023899Y017026D03*
X024537Y017026D03*
X025647Y016711D03*
X025947Y017507D03*
X025939Y017515D03*
X025380Y018113D03*
X025372Y018121D03*
X026726Y018121D03*
X026703Y018593D03*
X027285Y017523D03*
X027293Y017515D03*
X027317Y017026D03*
X026687Y017034D03*
X023892Y018586D03*
D50*
X024218Y018908D03*
X024541Y018586D03*
X025368Y018129D03*
X025951Y018586D03*
X026714Y018137D03*
X026722Y018129D03*
X026777Y018011D03*
X027273Y017562D03*
X027297Y017507D03*
X027305Y017499D03*
X026998Y016711D03*
X025958Y017491D03*
X025951Y017499D03*
X025336Y017034D03*
X025329Y017042D03*
X024549Y017034D03*
X023888Y017034D03*
X027297Y018586D03*
D51*
X027352Y018499D03*
X027352Y018491D03*
X027360Y018483D03*
X027360Y018475D03*
X028100Y018475D03*
X028100Y018467D03*
X028100Y018460D03*
X028100Y018452D03*
X028100Y018444D03*
X028100Y018436D03*
X028100Y018428D03*
X028100Y018420D03*
X028100Y018412D03*
X028100Y018404D03*
X028100Y018397D03*
X028100Y018389D03*
X028100Y018381D03*
X028100Y018373D03*
X028100Y018365D03*
X028100Y018357D03*
X028100Y018349D03*
X028100Y018341D03*
X028100Y018334D03*
X028100Y018326D03*
X028100Y018318D03*
X028100Y018310D03*
X028100Y018302D03*
X028100Y018294D03*
X028100Y018286D03*
X028100Y018278D03*
X028100Y018271D03*
X028100Y018263D03*
X028100Y018255D03*
X028100Y018247D03*
X028100Y018239D03*
X028100Y018231D03*
X028100Y018223D03*
X028100Y018215D03*
X028100Y018208D03*
X028100Y018200D03*
X028100Y018192D03*
X028100Y018184D03*
X028100Y018176D03*
X028100Y018168D03*
X028100Y018160D03*
X028100Y018152D03*
X028100Y018145D03*
X028100Y018137D03*
X028100Y018129D03*
X028100Y018121D03*
X028100Y018113D03*
X028100Y018105D03*
X028100Y018097D03*
X028100Y018089D03*
X028100Y018082D03*
X028100Y018074D03*
X028100Y018066D03*
X028100Y018058D03*
X028100Y018050D03*
X028100Y018042D03*
X028100Y018034D03*
X028100Y018026D03*
X028100Y018019D03*
X028100Y018011D03*
X028100Y018003D03*
X028100Y017995D03*
X028100Y017987D03*
X028100Y017656D03*
X028100Y017649D03*
X028100Y017641D03*
X028100Y017633D03*
X028100Y017625D03*
X028100Y017617D03*
X028100Y017609D03*
X028100Y017601D03*
X028100Y017593D03*
X028100Y017586D03*
X028100Y017578D03*
X028100Y017570D03*
X028100Y017562D03*
X028100Y017554D03*
X028100Y017546D03*
X028100Y017538D03*
X028100Y017530D03*
X028100Y017523D03*
X028100Y017515D03*
X028100Y017507D03*
X028100Y017499D03*
X028100Y017491D03*
X028100Y017483D03*
X028100Y017475D03*
X028100Y017467D03*
X028100Y017460D03*
X028100Y017452D03*
X028100Y017444D03*
X028100Y017436D03*
X028100Y017428D03*
X028100Y017420D03*
X028100Y017412D03*
X028100Y017404D03*
X028100Y017397D03*
X028100Y017389D03*
X028100Y017381D03*
X028100Y017373D03*
X028100Y017365D03*
X028100Y017357D03*
X028100Y017349D03*
X028100Y017341D03*
X028100Y017334D03*
X028100Y017326D03*
X028100Y017318D03*
X028100Y017310D03*
X028100Y017302D03*
X028100Y017294D03*
X028100Y017286D03*
X028100Y017278D03*
X028100Y017271D03*
X028100Y017263D03*
X028100Y017255D03*
X028100Y017247D03*
X028100Y017239D03*
X028100Y017231D03*
X028100Y017223D03*
X028100Y017215D03*
X028100Y017208D03*
X028100Y017200D03*
X028100Y017192D03*
X028100Y017184D03*
X028100Y017176D03*
X028100Y017168D03*
X028100Y017160D03*
X028100Y017152D03*
X028100Y017145D03*
X028100Y017137D03*
X028100Y017129D03*
X028100Y017121D03*
X028100Y017113D03*
X028100Y017105D03*
X028100Y017097D03*
X028100Y017089D03*
X028100Y017082D03*
X028100Y017074D03*
X028100Y017066D03*
X028100Y017058D03*
X028100Y017050D03*
X028100Y017042D03*
X028100Y017034D03*
X028100Y017026D03*
X028100Y017019D03*
X028100Y017011D03*
X028100Y017003D03*
X028100Y016995D03*
X028100Y016987D03*
X028100Y016979D03*
X028100Y016971D03*
X028100Y016963D03*
X028100Y016956D03*
X028100Y016948D03*
X028100Y016940D03*
X028100Y016932D03*
X028100Y016924D03*
X028100Y016916D03*
X028100Y016908D03*
X028100Y016900D03*
X028100Y016893D03*
X028100Y016885D03*
X028100Y016877D03*
X028100Y016869D03*
X028100Y016861D03*
X028100Y016853D03*
X028100Y016845D03*
X028100Y016837D03*
X028100Y016830D03*
X028100Y016822D03*
X028100Y016814D03*
X028100Y016806D03*
X028100Y016798D03*
X028100Y016790D03*
X028100Y016782D03*
X028100Y016774D03*
X028100Y016767D03*
X028100Y016759D03*
X028100Y016751D03*
X028100Y016743D03*
X028100Y016735D03*
X028100Y016727D03*
X028100Y016719D03*
X028100Y016711D03*
X027376Y017097D03*
X027376Y017105D03*
X027368Y017089D03*
X027384Y017318D03*
X027384Y017326D03*
X027384Y017334D03*
X027376Y017341D03*
X027376Y017349D03*
X026620Y017160D03*
X026620Y017152D03*
X026612Y017176D03*
X026612Y017184D03*
X026612Y017192D03*
X026604Y017215D03*
X026604Y017223D03*
X026037Y017302D03*
X026029Y017334D03*
X026029Y017341D03*
X026021Y017097D03*
X026021Y017089D03*
X025273Y017145D03*
X025266Y017168D03*
X025266Y017176D03*
X025258Y017192D03*
X025258Y017200D03*
X025258Y017208D03*
X024604Y017208D03*
X024604Y017215D03*
X024604Y017223D03*
X024604Y017231D03*
X024604Y017239D03*
X024604Y017247D03*
X024604Y017255D03*
X024604Y017263D03*
X024604Y017271D03*
X024604Y017278D03*
X024604Y017286D03*
X024604Y017294D03*
X024604Y017302D03*
X024604Y017310D03*
X024604Y017318D03*
X024604Y017326D03*
X024604Y017334D03*
X024604Y017341D03*
X024604Y017349D03*
X024604Y017357D03*
X024604Y017365D03*
X024604Y017373D03*
X024604Y017381D03*
X024604Y017389D03*
X024604Y017397D03*
X024604Y017404D03*
X024604Y017412D03*
X024604Y017420D03*
X024604Y017428D03*
X024604Y017436D03*
X024604Y017444D03*
X024604Y017452D03*
X024604Y017460D03*
X024604Y017467D03*
X024604Y017475D03*
X024604Y017483D03*
X024604Y017491D03*
X024604Y017499D03*
X024604Y017507D03*
X024604Y017515D03*
X024604Y017523D03*
X024604Y017530D03*
X024604Y017538D03*
X024604Y017546D03*
X024604Y017554D03*
X024604Y017562D03*
X024604Y017664D03*
X024604Y017672D03*
X024604Y017680D03*
X024604Y017688D03*
X024604Y017696D03*
X024604Y017704D03*
X024604Y017711D03*
X024604Y017719D03*
X024604Y017727D03*
X024604Y017735D03*
X024604Y017743D03*
X024604Y017751D03*
X024604Y017759D03*
X024604Y017767D03*
X024604Y017774D03*
X024604Y017782D03*
X024604Y017790D03*
X024604Y017798D03*
X024604Y017806D03*
X024604Y017814D03*
X024604Y017822D03*
X024604Y017830D03*
X024604Y017837D03*
X024604Y017845D03*
X024604Y017853D03*
X024604Y017861D03*
X024604Y017869D03*
X024604Y017877D03*
X024604Y017885D03*
X024604Y017893D03*
X024604Y017900D03*
X024604Y017908D03*
X024604Y017916D03*
X024604Y017924D03*
X024604Y017932D03*
X024604Y017940D03*
X024604Y017948D03*
X024604Y017956D03*
X024604Y017963D03*
X024604Y017971D03*
X024604Y018074D03*
X024604Y018082D03*
X024604Y018089D03*
X024604Y018097D03*
X024604Y018105D03*
X024604Y018113D03*
X024604Y018121D03*
X024604Y018129D03*
X024604Y018137D03*
X024604Y018145D03*
X024604Y018152D03*
X024604Y018160D03*
X024604Y018168D03*
X024604Y018176D03*
X024604Y018184D03*
X024604Y018192D03*
X024604Y018200D03*
X024604Y018208D03*
X024604Y018215D03*
X024604Y018223D03*
X024604Y018231D03*
X024604Y018239D03*
X024604Y018247D03*
X024604Y018255D03*
X024604Y018263D03*
X024604Y018271D03*
X024604Y018278D03*
X024604Y018286D03*
X024604Y018294D03*
X024604Y018302D03*
X024604Y018310D03*
X024604Y018318D03*
X024604Y018326D03*
X024604Y018334D03*
X024604Y018341D03*
X024604Y018349D03*
X024604Y018357D03*
X024604Y018365D03*
X024604Y018373D03*
X024604Y018381D03*
X024604Y018389D03*
X024604Y018397D03*
X024604Y018404D03*
X024604Y018412D03*
X024604Y018420D03*
X024604Y018428D03*
X024604Y018436D03*
X024604Y018444D03*
X024604Y018452D03*
X024596Y018475D03*
X024596Y018483D03*
X025297Y018515D03*
X025297Y018523D03*
X025289Y018302D03*
X025297Y018278D03*
X025297Y018271D03*
X025998Y018507D03*
X026006Y018491D03*
X026006Y018483D03*
X026014Y018460D03*
X026644Y018507D03*
X026651Y018523D03*
X026644Y018286D03*
X026644Y018278D03*
X026651Y018271D03*
X026651Y018263D03*
X028100Y018483D03*
X028100Y018491D03*
X028100Y018499D03*
X028100Y018507D03*
X028100Y018515D03*
X028100Y018523D03*
X028100Y018530D03*
X028100Y018538D03*
X028100Y018546D03*
X028100Y018554D03*
X028100Y018562D03*
X028100Y018570D03*
X028100Y018578D03*
X028100Y018586D03*
X028100Y018593D03*
X028100Y018601D03*
X028100Y018609D03*
X028100Y018617D03*
X028100Y018625D03*
X028100Y018633D03*
X028100Y018641D03*
X028100Y018649D03*
X028100Y018656D03*
X028100Y018664D03*
X028100Y018672D03*
X028100Y018680D03*
X028100Y018688D03*
X028100Y018696D03*
X028100Y018704D03*
X028100Y018711D03*
X028100Y018719D03*
X028100Y018727D03*
X028100Y018735D03*
X028100Y018743D03*
X028100Y018751D03*
X028100Y018759D03*
X028100Y018767D03*
X028100Y018774D03*
X028100Y018782D03*
X028100Y018790D03*
X028100Y018798D03*
X028100Y018806D03*
X028100Y018814D03*
X028100Y018822D03*
X028100Y018830D03*
X028100Y018837D03*
X028100Y018845D03*
X028100Y018853D03*
X028100Y018861D03*
X028100Y018869D03*
X028100Y018877D03*
X028100Y018885D03*
X028100Y018893D03*
X028100Y018900D03*
X028100Y018908D03*
X024604Y017200D03*
X024604Y017192D03*
X024604Y017184D03*
X024604Y017176D03*
X024604Y017168D03*
X024596Y017137D03*
X023840Y017129D03*
X023832Y017160D03*
X023832Y017168D03*
X023832Y017176D03*
X023832Y017184D03*
X023832Y017192D03*
X023832Y017200D03*
X023832Y017208D03*
X023832Y017215D03*
X023832Y018397D03*
X023832Y018404D03*
X023832Y018412D03*
X023832Y018420D03*
X023832Y018428D03*
X023832Y018436D03*
X023832Y018444D03*
X023832Y018452D03*
X023832Y018460D03*
X023840Y018491D03*
D52*
X024214Y016719D03*
X025829Y017649D03*
X025836Y017641D03*
X025844Y017633D03*
X025852Y017625D03*
X026821Y018003D03*
X026829Y017995D03*
D53*
X026718Y018601D03*
X027269Y018601D03*
X027301Y017019D03*
X025647Y016719D03*
X025372Y018601D03*
D54*
X025919Y018601D03*
X025872Y017601D03*
X026998Y016719D03*
X024218Y018900D03*
D55*
X025565Y017908D03*
X025573Y017900D03*
X025746Y017735D03*
X025651Y016735D03*
X024218Y016727D03*
X026895Y017924D03*
X026903Y017916D03*
X026911Y017908D03*
X026919Y017900D03*
X026927Y017893D03*
X026935Y017885D03*
X027069Y017759D03*
X027077Y017751D03*
X027084Y017743D03*
X027092Y017735D03*
X027100Y017727D03*
X027108Y017719D03*
D56*
X027163Y017664D03*
X027171Y017656D03*
X026840Y017979D03*
X026832Y017987D03*
X026998Y016727D03*
X025651Y016727D03*
X025494Y017979D03*
X025486Y017987D03*
X025478Y017995D03*
D57*
X025651Y016743D03*
X024218Y016735D03*
D58*
X025577Y017893D03*
X025584Y017885D03*
X025592Y017877D03*
X025600Y017869D03*
X025608Y017861D03*
X025616Y017853D03*
X025687Y017790D03*
X025695Y017782D03*
X025703Y017774D03*
X025710Y017767D03*
X025718Y017759D03*
X025726Y017751D03*
X025734Y017743D03*
X026947Y017877D03*
X026955Y017869D03*
X026962Y017861D03*
X026970Y017853D03*
X026978Y017845D03*
X026986Y017837D03*
X026994Y017830D03*
X027002Y017822D03*
X027010Y017814D03*
X027018Y017806D03*
X027025Y017798D03*
X027033Y017790D03*
X027041Y017782D03*
X027049Y017774D03*
X027057Y017767D03*
X027002Y016735D03*
D59*
X027006Y016751D03*
X025651Y016751D03*
X024218Y016743D03*
D60*
X027002Y016743D03*
D61*
X025651Y016759D03*
X024218Y016751D03*
X025651Y018853D03*
D62*
X024218Y016759D03*
D63*
X027002Y016759D03*
D64*
X027006Y016774D03*
X026998Y018837D03*
X025651Y018837D03*
X024218Y016767D03*
D65*
X025655Y016767D03*
X027002Y016767D03*
X027002Y018845D03*
X025647Y018845D03*
D66*
X024218Y016774D03*
D67*
X025655Y016774D03*
X024214Y018853D03*
D68*
X024218Y016782D03*
X027006Y016790D03*
X026998Y018822D03*
D69*
X027002Y018830D03*
X025647Y018830D03*
X025655Y016782D03*
D70*
X027006Y016782D03*
X024218Y018845D03*
D71*
X025647Y018806D03*
X024214Y016790D03*
D72*
X025655Y016790D03*
X025647Y018822D03*
X024214Y018837D03*
D73*
X024218Y018814D03*
X025644Y018798D03*
X026998Y018798D03*
X027006Y016814D03*
X024218Y016798D03*
D74*
X025655Y016798D03*
X025647Y018814D03*
D75*
X024218Y018830D03*
X026998Y018814D03*
X027006Y016798D03*
D76*
X027006Y016822D03*
X026998Y018790D03*
X025644Y018790D03*
X024218Y016806D03*
D77*
X025659Y016806D03*
X027006Y016806D03*
X026998Y018806D03*
X024218Y018822D03*
D78*
X025644Y018782D03*
X026998Y018782D03*
X027006Y016830D03*
X024218Y016814D03*
D79*
X025655Y016814D03*
D80*
X024218Y016822D03*
X025644Y018774D03*
X026998Y018774D03*
X027006Y016837D03*
D81*
X025655Y016822D03*
X024214Y018806D03*
D82*
X024218Y018790D03*
X024218Y016830D03*
X027006Y016845D03*
D83*
X025655Y016830D03*
X024214Y018798D03*
D84*
X024218Y018782D03*
X024218Y016837D03*
X025659Y016853D03*
X027006Y016853D03*
D85*
X025655Y016837D03*
X025647Y018767D03*
X026994Y018767D03*
D86*
X026998Y018743D03*
X025644Y018743D03*
X025659Y016861D03*
X024218Y016845D03*
X027006Y016861D03*
D87*
X025655Y016845D03*
X025647Y018759D03*
X026994Y018759D03*
D88*
X025644Y018735D03*
X024218Y018759D03*
X024218Y016853D03*
X025659Y016869D03*
X027006Y016869D03*
D89*
X025644Y018719D03*
X024218Y018751D03*
X024218Y016861D03*
D90*
X024218Y016869D03*
X025659Y016893D03*
X027006Y016893D03*
X025644Y018711D03*
X024218Y018743D03*
D91*
X025647Y018704D03*
X026994Y018704D03*
X024214Y016877D03*
D92*
X025655Y016877D03*
X027010Y016877D03*
X026994Y018727D03*
X025647Y018727D03*
D93*
X025644Y018696D03*
X024218Y018735D03*
X024218Y016885D03*
X025659Y016900D03*
X027006Y016900D03*
X026998Y018696D03*
D94*
X026994Y018711D03*
X026994Y018719D03*
X027010Y016885D03*
X025655Y016885D03*
D95*
X025659Y016916D03*
X024218Y016893D03*
X024218Y018719D03*
X025644Y018680D03*
X027006Y016916D03*
D96*
X026994Y018672D03*
X026994Y018680D03*
X024214Y016900D03*
D97*
X024218Y016908D03*
X025659Y016924D03*
X027006Y016924D03*
X025644Y018664D03*
X025644Y018672D03*
X024218Y018711D03*
D98*
X024214Y018727D03*
X025647Y018688D03*
X026994Y018688D03*
X027010Y016908D03*
X025655Y016908D03*
D99*
X025659Y016940D03*
X024218Y016916D03*
X024218Y018696D03*
X025644Y018656D03*
X025644Y018649D03*
X026998Y018649D03*
X027006Y016940D03*
D100*
X027010Y016948D03*
X025655Y016948D03*
X024214Y016924D03*
X025647Y018641D03*
X026994Y018641D03*
D101*
X026998Y018633D03*
X025644Y018633D03*
X024218Y018680D03*
X024218Y018688D03*
X024218Y016932D03*
X027006Y016956D03*
D102*
X027010Y016932D03*
X025655Y016932D03*
X026994Y018656D03*
X026994Y018664D03*
X024214Y018704D03*
D103*
X025647Y018625D03*
X026994Y018625D03*
X025655Y016963D03*
X025655Y016956D03*
X024214Y016940D03*
D104*
X024218Y016948D03*
X024218Y018664D03*
X024218Y018672D03*
X025644Y018617D03*
X025644Y018609D03*
X026998Y018609D03*
X026998Y018617D03*
X027006Y016971D03*
X027006Y016963D03*
D105*
X025655Y016971D03*
X025655Y016979D03*
X024214Y016956D03*
D106*
X024218Y016963D03*
X024218Y018649D03*
X024218Y018656D03*
X027006Y016987D03*
X027006Y016979D03*
D107*
X025655Y016987D03*
X025655Y016995D03*
X024214Y016971D03*
D108*
X024218Y016979D03*
X024218Y018633D03*
X024218Y018641D03*
X027006Y017011D03*
X027006Y017003D03*
X027006Y016995D03*
D109*
X025655Y017003D03*
X025655Y017011D03*
X024214Y016987D03*
X024214Y018625D03*
D110*
X024218Y018617D03*
X024218Y018609D03*
X024218Y017003D03*
X024218Y016995D03*
D111*
X024214Y017011D03*
D112*
X025344Y017026D03*
X025966Y017026D03*
X025935Y017523D03*
X025470Y018026D03*
X025352Y018593D03*
X025935Y018593D03*
X026730Y018113D03*
X026738Y018105D03*
X027289Y018593D03*
X027266Y017554D03*
X027273Y017538D03*
X027281Y017530D03*
X026699Y017026D03*
D113*
X026679Y017042D03*
X027325Y017034D03*
X027317Y017475D03*
X027317Y017483D03*
X027309Y017491D03*
X026710Y018145D03*
X026703Y018152D03*
X026695Y018586D03*
X025955Y018578D03*
X025340Y018586D03*
X025356Y018145D03*
X025364Y018137D03*
X025962Y017483D03*
X025970Y017475D03*
X025978Y017034D03*
X024553Y018578D03*
X023884Y018578D03*
D114*
X023876Y018570D03*
X025332Y018578D03*
X025340Y018176D03*
X025962Y018570D03*
X025970Y018562D03*
X026687Y018184D03*
X026687Y018176D03*
X026695Y018168D03*
X027128Y017649D03*
X027332Y017452D03*
X027340Y017436D03*
X026663Y017066D03*
X026655Y017074D03*
X025994Y017050D03*
X025986Y017042D03*
X025986Y017444D03*
X025978Y017460D03*
X025317Y017058D03*
X025309Y017066D03*
X024561Y017050D03*
X023876Y017050D03*
X027010Y018908D03*
D115*
X027321Y018562D03*
X026675Y018570D03*
X026675Y018200D03*
X026683Y018192D03*
X027336Y017444D03*
X027344Y017428D03*
X027352Y017412D03*
X027344Y017050D03*
X026651Y017082D03*
X025998Y017420D03*
X025998Y017428D03*
X025990Y017436D03*
X025305Y017074D03*
X024573Y017066D03*
X024565Y017058D03*
X023864Y017058D03*
X023864Y017066D03*
X023864Y018554D03*
X023872Y018562D03*
X024565Y018562D03*
X025321Y018562D03*
X025329Y018570D03*
X025329Y018200D03*
X025329Y018192D03*
X025336Y018184D03*
X025974Y018554D03*
D116*
X025978Y018546D03*
X025317Y018223D03*
X025317Y018215D03*
X025325Y018208D03*
X024577Y018538D03*
X024577Y018546D03*
X024569Y018554D03*
X023860Y018546D03*
X025293Y017097D03*
X025293Y017089D03*
X025301Y017082D03*
X024577Y017074D03*
X023860Y017074D03*
X026002Y017058D03*
X026010Y017397D03*
X026002Y017412D03*
X026640Y017105D03*
X026647Y017089D03*
X027348Y017058D03*
X027356Y017066D03*
X027356Y017404D03*
X027348Y017420D03*
X026671Y018208D03*
X026671Y018215D03*
X026671Y018562D03*
X027325Y018554D03*
X027332Y018546D03*
D117*
X027340Y018523D03*
X027348Y018515D03*
X027348Y018507D03*
X026655Y018530D03*
X026655Y018538D03*
X026655Y018255D03*
X026655Y018247D03*
X026002Y018499D03*
X025994Y018515D03*
X025994Y018523D03*
X025309Y018538D03*
X025301Y018530D03*
X025301Y018263D03*
X025301Y018255D03*
X025309Y018247D03*
X025309Y018239D03*
X024600Y018460D03*
X024600Y018467D03*
X024592Y018491D03*
X024592Y018499D03*
X024592Y018507D03*
X024584Y018523D03*
X023844Y018507D03*
X023844Y018499D03*
X023836Y018483D03*
X023836Y018475D03*
X023836Y018467D03*
X023836Y017152D03*
X023836Y017145D03*
X023836Y017137D03*
X023844Y017121D03*
X023844Y017113D03*
X023844Y017105D03*
X024592Y017113D03*
X024592Y017121D03*
X024592Y017129D03*
X024600Y017145D03*
X024600Y017152D03*
X024600Y017160D03*
X025269Y017160D03*
X025269Y017152D03*
X025277Y017137D03*
X025277Y017129D03*
X026010Y017074D03*
X026018Y017082D03*
X026025Y017349D03*
X026025Y017357D03*
X026018Y017365D03*
X026018Y017373D03*
X026616Y017168D03*
X026624Y017145D03*
X026624Y017137D03*
X026632Y017129D03*
X026632Y017121D03*
X027364Y017082D03*
X027372Y017357D03*
X027372Y017365D03*
D118*
X027388Y017310D03*
X027388Y017302D03*
X027388Y017294D03*
X027380Y017121D03*
X027380Y017113D03*
X026608Y017200D03*
X026608Y017208D03*
X026600Y017231D03*
X026600Y017239D03*
X026600Y017247D03*
X026600Y017255D03*
X026600Y017263D03*
X026041Y017271D03*
X026041Y017278D03*
X026041Y017286D03*
X026041Y017294D03*
X026033Y017310D03*
X026033Y017318D03*
X026033Y017326D03*
X026033Y017129D03*
X026033Y017121D03*
X026025Y017113D03*
X026025Y017105D03*
X025262Y017184D03*
X025254Y017215D03*
X025254Y017223D03*
X025254Y017231D03*
X025254Y017239D03*
X025246Y017255D03*
X025246Y017263D03*
X025246Y017271D03*
X025246Y017278D03*
X025246Y017286D03*
X025293Y018286D03*
X025293Y018294D03*
X025285Y018310D03*
X025285Y018318D03*
X025285Y018326D03*
X025285Y018467D03*
X025285Y018475D03*
X025293Y018491D03*
X025293Y018499D03*
X025293Y018507D03*
X025663Y018916D03*
X026010Y018475D03*
X026010Y018467D03*
X026018Y018452D03*
X026018Y018444D03*
X026018Y018436D03*
X026640Y018483D03*
X026640Y018491D03*
X026640Y018499D03*
X026647Y018515D03*
X026640Y018310D03*
X026640Y018302D03*
X026640Y018294D03*
X027364Y018452D03*
X027364Y018460D03*
X027364Y018467D03*
X027372Y018436D03*
X027372Y018428D03*
X027372Y018420D03*
X023829Y018389D03*
X023829Y018381D03*
X023829Y018373D03*
X023829Y018365D03*
X023829Y018357D03*
X023829Y018349D03*
X023829Y018341D03*
X023829Y018334D03*
X023829Y018326D03*
X023829Y018318D03*
X023829Y018310D03*
X023829Y018302D03*
X023829Y018294D03*
X023829Y018286D03*
X023829Y018278D03*
X023829Y018271D03*
X023829Y018263D03*
X023829Y018255D03*
X023829Y018247D03*
X023829Y018239D03*
X023829Y018231D03*
X023829Y018223D03*
X023829Y018215D03*
X023829Y018208D03*
X023829Y018200D03*
X023829Y018192D03*
X023829Y018184D03*
X023829Y018176D03*
X023829Y018168D03*
X023829Y018160D03*
X023829Y018152D03*
X023829Y018145D03*
X023829Y018137D03*
X023829Y018129D03*
X023829Y018121D03*
X023829Y018113D03*
X023829Y018105D03*
X023829Y018097D03*
X023829Y018089D03*
X023829Y018082D03*
X023829Y018074D03*
X023829Y018066D03*
X023829Y018058D03*
X023829Y018050D03*
X023829Y018042D03*
X023829Y018034D03*
X023829Y018026D03*
X023829Y018019D03*
X023829Y018011D03*
X023829Y018003D03*
X023829Y017995D03*
X023829Y017987D03*
X023829Y017649D03*
X023829Y017641D03*
X023829Y017633D03*
X023829Y017625D03*
X023829Y017617D03*
X023829Y017609D03*
X023829Y017601D03*
X023829Y017593D03*
X023829Y017586D03*
X023829Y017578D03*
X023829Y017570D03*
X023829Y017562D03*
X023829Y017554D03*
X023829Y017546D03*
X023829Y017538D03*
X023829Y017530D03*
X023829Y017523D03*
X023829Y017515D03*
X023829Y017507D03*
X023829Y017499D03*
X023829Y017491D03*
X023829Y017483D03*
X023829Y017475D03*
X023829Y017467D03*
X023829Y017460D03*
X023829Y017452D03*
X023829Y017444D03*
X023829Y017436D03*
X023829Y017428D03*
X023829Y017420D03*
X023829Y017412D03*
X023829Y017404D03*
X023829Y017397D03*
X023829Y017389D03*
X023829Y017381D03*
X023829Y017373D03*
X023829Y017365D03*
X023829Y017357D03*
X023829Y017349D03*
X023829Y017341D03*
X023829Y017334D03*
X023829Y017326D03*
X023829Y017318D03*
X023829Y017310D03*
X023829Y017302D03*
X023829Y017294D03*
X023829Y017286D03*
X023829Y017278D03*
X023829Y017271D03*
X023829Y017263D03*
X023829Y017255D03*
X023829Y017247D03*
X023829Y017239D03*
X023829Y017231D03*
X023829Y017223D03*
D119*
X025277Y018381D03*
X025277Y018389D03*
X025277Y018397D03*
X026041Y017168D03*
X026041Y017160D03*
X027104Y017641D03*
X027395Y017239D03*
X027395Y017231D03*
X027395Y017223D03*
X027395Y017215D03*
X027395Y017208D03*
X027395Y017200D03*
X027395Y017192D03*
X027395Y017184D03*
X026632Y018349D03*
X026632Y018436D03*
X026632Y018444D03*
D120*
X026604Y017294D03*
D121*
X026632Y017302D03*
X025545Y018034D03*
X023868Y017837D03*
X023868Y017830D03*
X023868Y017798D03*
X023789Y017664D03*
X028057Y017806D03*
X028057Y017822D03*
X028057Y017830D03*
D122*
X025309Y017310D03*
D123*
X026659Y017310D03*
X024218Y018932D03*
D124*
X023706Y017908D03*
X023706Y017900D03*
X023706Y017893D03*
X023706Y017743D03*
X023706Y017735D03*
X023706Y017711D03*
X025360Y017326D03*
X028226Y017719D03*
X028226Y017727D03*
X028226Y017735D03*
X028226Y017900D03*
X028226Y017908D03*
X028226Y017916D03*
X028226Y017924D03*
D125*
X027254Y018373D03*
X026710Y017326D03*
X024474Y017586D03*
X024474Y018050D03*
X023703Y017924D03*
X023703Y017916D03*
X023703Y017727D03*
X023703Y017719D03*
D126*
X023876Y017696D03*
X023884Y017719D03*
X023884Y017727D03*
X023978Y017735D03*
X023978Y017900D03*
X023884Y017908D03*
X024498Y017617D03*
X024498Y017609D03*
X024498Y017601D03*
X024647Y017586D03*
X024647Y017578D03*
X024655Y017633D03*
X024655Y018003D03*
X024655Y018011D03*
X024655Y018019D03*
X024655Y018026D03*
X024655Y018034D03*
X024655Y018042D03*
X024655Y018050D03*
X025592Y018089D03*
X025388Y017334D03*
X026616Y018089D03*
X026923Y018082D03*
X026923Y018074D03*
X026923Y018066D03*
X026923Y018058D03*
X026923Y018050D03*
X027246Y017625D03*
X027246Y017617D03*
X027246Y017609D03*
X027395Y017649D03*
X027947Y017735D03*
X028041Y017735D03*
X028049Y017704D03*
X028041Y017900D03*
D127*
X026738Y017334D03*
X025588Y018097D03*
D128*
X025415Y017341D03*
X024006Y017696D03*
X024006Y017704D03*
X024006Y017711D03*
X024006Y017719D03*
X024006Y017916D03*
X024006Y017924D03*
X024006Y017932D03*
X024006Y017940D03*
X023651Y017845D03*
X023651Y017837D03*
X023651Y017798D03*
X023651Y017790D03*
X026966Y017617D03*
X027045Y018026D03*
X027919Y017932D03*
X027919Y017924D03*
X027919Y017916D03*
X027919Y017719D03*
X027919Y017711D03*
X027919Y017704D03*
X028281Y017790D03*
X028281Y017798D03*
X028281Y017806D03*
X028281Y017837D03*
X028281Y017845D03*
D129*
X028285Y017830D03*
X028285Y017822D03*
X028285Y017814D03*
X026970Y017609D03*
X026766Y017341D03*
X023647Y017806D03*
X023647Y017814D03*
X023647Y017822D03*
X023647Y017830D03*
D130*
X023880Y017916D03*
X023880Y017924D03*
X023880Y017932D03*
X023880Y017940D03*
X023888Y017900D03*
X023888Y017735D03*
X023880Y017711D03*
X023880Y017704D03*
X024494Y017593D03*
X024502Y017625D03*
X024502Y017633D03*
X024502Y017641D03*
X024502Y017649D03*
X024651Y017625D03*
X024651Y017617D03*
X024651Y017609D03*
X024651Y017601D03*
X024651Y017593D03*
X024502Y017987D03*
X024502Y017995D03*
X024502Y018003D03*
X024502Y018011D03*
X024502Y018019D03*
X024502Y018026D03*
X024502Y018034D03*
X024502Y018042D03*
X024651Y018058D03*
X025281Y018058D03*
X025281Y018066D03*
X025281Y018074D03*
X025281Y018082D03*
X025281Y018089D03*
X025281Y018097D03*
X025281Y018050D03*
X025281Y018042D03*
X025281Y018034D03*
X025439Y018042D03*
X025439Y018050D03*
X025439Y018058D03*
X025439Y018066D03*
X025439Y018074D03*
X025439Y018082D03*
X025439Y018089D03*
X025439Y018097D03*
X025596Y018082D03*
X025596Y018074D03*
X025596Y018066D03*
X025596Y018058D03*
X025596Y018050D03*
X025596Y018042D03*
X025746Y017593D03*
X025746Y017586D03*
X025746Y017578D03*
X025746Y017570D03*
X025746Y017562D03*
X025746Y017554D03*
X025746Y017546D03*
X025746Y017538D03*
X025746Y017530D03*
X025903Y017530D03*
X025903Y017538D03*
X025903Y017546D03*
X025903Y017554D03*
X025903Y017562D03*
X025903Y017570D03*
X025903Y017578D03*
X025903Y017586D03*
X025903Y017593D03*
X026061Y017593D03*
X026061Y017586D03*
X026061Y017578D03*
X026061Y017570D03*
X026061Y017562D03*
X026061Y017554D03*
X026061Y017546D03*
X026061Y017538D03*
X026061Y017530D03*
X026612Y018034D03*
X026612Y018042D03*
X026612Y018050D03*
X026612Y018058D03*
X026612Y018066D03*
X026612Y018074D03*
X026612Y018082D03*
X026769Y018082D03*
X026769Y018089D03*
X026769Y018074D03*
X026769Y018066D03*
X026769Y018058D03*
X026769Y018050D03*
X026769Y018042D03*
X026769Y018034D03*
X026769Y018026D03*
X026919Y018026D03*
X026919Y018019D03*
X026919Y018034D03*
X026919Y018042D03*
X027092Y017625D03*
X027092Y017617D03*
X027092Y017609D03*
X027092Y017601D03*
X027092Y017593D03*
X027092Y017586D03*
X027092Y017578D03*
X027092Y017570D03*
X027250Y017578D03*
X027250Y017586D03*
X027250Y017593D03*
X027250Y017601D03*
X027242Y017633D03*
X027399Y017633D03*
X027399Y017641D03*
X027399Y017625D03*
X027399Y017617D03*
X027399Y017609D03*
X027399Y017601D03*
X027399Y017593D03*
X027951Y017900D03*
X028045Y017908D03*
X028045Y017916D03*
X028045Y017924D03*
X028053Y017940D03*
X028045Y017727D03*
X028045Y017719D03*
X028045Y017711D03*
X028053Y017696D03*
D131*
X027269Y017546D03*
X027010Y018900D03*
X025655Y018900D03*
X024529Y018593D03*
X023907Y018593D03*
D132*
X023659Y017869D03*
X023659Y017767D03*
X023998Y017727D03*
X024777Y017593D03*
X024777Y017586D03*
X024777Y017578D03*
X024777Y017570D03*
X024777Y018003D03*
X024777Y018066D03*
X027053Y018011D03*
X027927Y017727D03*
X028273Y017767D03*
X028273Y017869D03*
D133*
X028210Y017704D03*
X027407Y017578D03*
X023935Y017743D03*
X023935Y017751D03*
X023935Y017759D03*
X023935Y017885D03*
D134*
X025903Y018373D03*
X027423Y017586D03*
D135*
X027923Y017664D03*
X027923Y017672D03*
X027923Y017680D03*
X027923Y017688D03*
X027923Y017696D03*
X027923Y017940D03*
X027923Y017948D03*
X027923Y017956D03*
X027923Y017963D03*
X027923Y017971D03*
X027923Y017979D03*
X028277Y017861D03*
X028277Y017853D03*
X028277Y017782D03*
X028277Y017774D03*
X027049Y018019D03*
X024781Y018019D03*
X024781Y018026D03*
X024781Y018034D03*
X024781Y018042D03*
X024781Y018050D03*
X024781Y018058D03*
X024781Y018011D03*
X024781Y017633D03*
X024781Y017625D03*
X024781Y017617D03*
X024781Y017609D03*
X024781Y017601D03*
X024002Y017656D03*
X024002Y017664D03*
X024002Y017672D03*
X024002Y017680D03*
X024002Y017688D03*
X024002Y017948D03*
X024002Y017956D03*
X024002Y017963D03*
X024002Y017971D03*
X024002Y017979D03*
X023655Y017861D03*
X023655Y017853D03*
X023655Y017782D03*
X023655Y017774D03*
D136*
X026974Y017601D03*
X027037Y018034D03*
D137*
X025868Y017609D03*
D138*
X025856Y017617D03*
X025470Y018003D03*
X025462Y018011D03*
X025455Y018019D03*
X025659Y018893D03*
X024510Y018601D03*
X023927Y018601D03*
X027006Y018893D03*
D139*
X026978Y017625D03*
X025584Y018105D03*
D140*
X025943Y018381D03*
X027037Y017633D03*
X027289Y018381D03*
X023919Y017869D03*
D141*
X023911Y017774D03*
X024691Y017649D03*
X028014Y017774D03*
D142*
X027360Y018397D03*
X024628Y017656D03*
X023809Y017656D03*
D143*
X024214Y018893D03*
X025498Y017971D03*
X025506Y017963D03*
X025514Y017956D03*
X025797Y017680D03*
X025805Y017672D03*
X025813Y017664D03*
X025821Y017656D03*
X026852Y017971D03*
X026860Y017963D03*
X027159Y017672D03*
D144*
X028061Y017798D03*
X028061Y017837D03*
X028140Y017664D03*
X025667Y018924D03*
X023864Y017845D03*
X023864Y017790D03*
D145*
X025525Y017948D03*
X025793Y017688D03*
X026864Y017956D03*
X026872Y017948D03*
X026880Y017940D03*
X027124Y017704D03*
X027132Y017696D03*
X027140Y017688D03*
X027147Y017680D03*
X027006Y018885D03*
D146*
X026892Y017932D03*
X027120Y017711D03*
X025781Y017696D03*
X025773Y017704D03*
X025766Y017711D03*
X025758Y017719D03*
X025750Y017727D03*
X025553Y017916D03*
X025545Y017924D03*
X025537Y017932D03*
X025529Y017940D03*
X025655Y018885D03*
D147*
X023718Y017704D03*
X028214Y017932D03*
D148*
X028222Y017893D03*
X028222Y017885D03*
X028222Y017751D03*
X028222Y017743D03*
X028222Y017711D03*
X026915Y018089D03*
X023710Y017885D03*
X023710Y017877D03*
X023710Y017759D03*
X023710Y017751D03*
D149*
X023714Y017932D03*
X028218Y017877D03*
X028218Y017759D03*
D150*
X028195Y017767D03*
X028195Y017869D03*
X023738Y017869D03*
X023738Y017767D03*
D151*
X023742Y017774D03*
X023742Y017861D03*
X028049Y017932D03*
X028191Y017861D03*
X028191Y017774D03*
D152*
X028065Y017790D03*
X028065Y017845D03*
X027018Y018924D03*
X026710Y018019D03*
X023860Y017853D03*
X023860Y017782D03*
D153*
X023801Y017979D03*
X028069Y017853D03*
X028069Y017782D03*
D154*
X027006Y018877D03*
X025675Y017798D03*
X025667Y017806D03*
X025659Y017814D03*
X025651Y017822D03*
X025644Y017830D03*
X025636Y017837D03*
X025628Y017845D03*
X025651Y018877D03*
X024218Y018885D03*
D155*
X023907Y017861D03*
D156*
X024683Y017987D03*
X025667Y018932D03*
X027021Y018932D03*
X028021Y017861D03*
D157*
X028010Y017869D03*
D158*
X027931Y017908D03*
X025868Y018365D03*
X023994Y017908D03*
D159*
X024632Y017979D03*
X025317Y018105D03*
X024214Y018924D03*
X028128Y017979D03*
D160*
X026600Y018026D03*
D161*
X027218Y018365D03*
X025187Y018097D03*
D162*
X025978Y018389D03*
X027325Y018389D03*
D163*
X026994Y018735D03*
X024214Y018767D03*
D164*
X024214Y018774D03*
X025647Y018751D03*
X026994Y018751D03*
D165*
X027002Y018853D03*
D166*
X024218Y018861D03*
D167*
X024218Y018869D03*
X025651Y018861D03*
D168*
X027002Y018861D03*
D169*
X027006Y018869D03*
X025651Y018869D03*
X024218Y018877D03*
D170*
X018518Y015613D03*
X017769Y015613D03*
X018144Y014747D03*
D171*
X024447Y005868D03*
X024840Y005868D03*
X025509Y005868D03*
X025903Y005868D03*
D172*
X014769Y015243D03*
X014769Y016243D03*
D173*
X012019Y016180D02*
X012019Y015430D01*
X011769Y015180D01*
X010206Y015180D01*
X009894Y015493D01*
X009706Y015493D01*
X009644Y014385D02*
X009661Y014368D01*
X010269Y014368D01*
X010644Y013993D01*
X010644Y012180D01*
X010144Y011680D01*
X012644Y011680D01*
X013144Y011180D01*
X017019Y011180D01*
X017644Y011805D01*
X018394Y007430D02*
X015831Y007430D01*
X015831Y006993D01*
X015769Y006930D01*
X015167Y006930D01*
X015167Y007430D02*
X015831Y007430D01*
X018394Y007430D02*
X020644Y005180D01*
X019144Y003680D01*
X016019Y003680D01*
X015769Y003430D01*
X015167Y003430D01*
X015167Y003930D02*
X015939Y003930D01*
X016019Y004010D01*
X016019Y003680D01*
X013120Y003930D02*
X012394Y003930D01*
X012144Y004180D01*
X012144Y004510D01*
X012223Y004430D01*
X013120Y004430D01*
X011894Y004430D01*
X011644Y004180D01*
X009644Y004180D01*
X009144Y004180D01*
X003706Y004180D01*
X001894Y005993D01*
X001894Y026805D01*
X005206Y030118D01*
X013144Y030118D01*
X013644Y030618D01*
X022201Y030618D01*
X022332Y029987D01*
X022332Y029493D01*
X022348Y030039D01*
X022348Y028680D01*
X022348Y027930D01*
X022348Y027336D01*
X022269Y027256D01*
X014144Y027131D02*
X014098Y027586D01*
X014098Y027680D01*
X014098Y028305D01*
X014098Y028839D01*
X014144Y028885D01*
X014144Y029475D02*
X014144Y029680D01*
X014098Y029725D01*
X014098Y030055D01*
X014144Y029680D02*
X012706Y029680D01*
X006144Y029680D01*
X005706Y029680D01*
X002581Y026555D01*
X002581Y009555D01*
X002769Y009368D01*
X004126Y008010D01*
X004769Y008010D01*
X005315Y008010D01*
X005519Y007805D01*
X006268Y007805D02*
X006472Y008010D01*
X007019Y008010D01*
X007097Y007931D01*
X007769Y007931D01*
X007769Y007930D01*
X007769Y007931D01*
X007769Y011618D01*
X007706Y011680D01*
X006144Y011680D01*
X008831Y011680D01*
X008831Y013243D01*
X008893Y013304D01*
X009280Y013304D01*
X009281Y013305D01*
X009644Y013305D01*
X009723Y013225D01*
X009894Y013225D01*
X010144Y011680D02*
X008831Y011680D01*
X006144Y011680D02*
X005831Y011993D01*
X005681Y012143D01*
X007769Y007931D02*
X008456Y007931D01*
X009257Y007931D01*
X010280Y007931D02*
X011143Y007931D01*
X011144Y007930D01*
X011144Y007931D01*
X012065Y007931D01*
X012144Y008010D01*
X012223Y007930D01*
X013120Y007930D01*
X013120Y007430D01*
X010280Y008305D02*
X010280Y008668D01*
X010269Y008679D01*
X010269Y008680D01*
X010269Y008679D02*
X010280Y008679D01*
X012644Y011680D02*
X012769Y011805D01*
X012973Y011805D01*
X012019Y016180D02*
X011956Y016243D01*
X011394Y016225D02*
X011394Y016743D01*
X009956Y027430D02*
X009956Y027868D01*
X010223Y028135D01*
X010269Y028135D01*
X010894Y028135D01*
X011598Y028135D01*
X011644Y028180D01*
X011644Y028680D01*
X012644Y029680D01*
X012706Y029680D01*
X022519Y005993D02*
X022644Y005993D01*
X022769Y005993D01*
X022921Y005840D01*
X022921Y005180D01*
X022429Y005180D02*
X022429Y005903D01*
X022519Y005993D01*
X022429Y005180D02*
X020644Y005180D01*
X024397Y005180D02*
X024397Y004426D01*
X024456Y002680D01*
X025644Y004055D01*
X025874Y004098D01*
X025874Y005180D01*
D174*
X025874Y005848D01*
X025894Y005868D01*
X025903Y005868D02*
X025903Y006064D01*
X025956Y006118D01*
X025956Y006180D01*
X025519Y005930D02*
X025509Y005868D01*
X025519Y005930D01*
X025509Y005868D02*
X025456Y005930D01*
X025447Y005921D01*
X025447Y005245D01*
X025382Y005180D01*
X024890Y005180D02*
X024890Y006176D01*
X024890Y005917D01*
X024840Y005868D01*
X024890Y006176D02*
X024894Y006305D01*
X024456Y006118D02*
X024456Y005930D01*
X024447Y005921D01*
X024447Y005868D01*
X024456Y005930D02*
X024456Y005243D01*
X023905Y005180D02*
X023894Y005192D01*
X023894Y006680D01*
X024019Y006805D01*
X023394Y006805D02*
X023394Y005200D01*
X023413Y005180D01*
X022644Y005993D02*
X022644Y006680D01*
X024394Y006180D02*
X024456Y006118D01*
X025456Y005939D02*
X025509Y005868D01*
X025456Y005939D02*
X025456Y006305D01*
X026144Y004180D02*
X024144Y004180D01*
X024144Y002599D01*
X026144Y002599D01*
X026144Y004180D01*
X026144Y004120D02*
X024144Y004120D01*
X024144Y004022D02*
X026144Y004022D01*
X026144Y003923D02*
X024144Y003923D01*
X024144Y003825D02*
X026144Y003825D01*
X026144Y003726D02*
X024144Y003726D01*
X024144Y003628D02*
X026144Y003628D01*
X026144Y003529D02*
X024144Y003529D01*
X024144Y003431D02*
X026144Y003431D01*
X026144Y003332D02*
X024144Y003332D01*
X024144Y003234D02*
X026144Y003234D01*
X026144Y003135D02*
X024144Y003135D01*
X024144Y003037D02*
X026144Y003037D01*
X026144Y002938D02*
X024144Y002938D01*
X024144Y002840D02*
X026144Y002840D01*
X026144Y002741D02*
X024144Y002741D01*
X024144Y002643D02*
X026144Y002643D01*
X024956Y008680D02*
X024206Y008680D01*
X019894Y012993D01*
X018331Y012993D01*
X018144Y013180D01*
X018144Y013368D01*
X018911Y013368D01*
X018911Y013930D02*
X018865Y013975D01*
X018144Y013975D01*
X018144Y014747D01*
X018202Y014805D01*
X018206Y014805D01*
X018144Y014868D01*
X018144Y016180D01*
X017831Y016493D01*
X016144Y016493D01*
X013144Y019493D01*
X009956Y019493D01*
X008805Y018342D01*
X008288Y018342D01*
X008288Y018086D02*
X008924Y018086D01*
X010019Y019180D01*
X012956Y019180D01*
X014019Y018118D01*
X016519Y015618D01*
X016581Y015555D01*
X016581Y014163D01*
X016581Y013572D02*
X016644Y013510D01*
X016644Y013180D01*
X017223Y012600D01*
X019723Y012600D01*
X023644Y008680D01*
X023144Y008680D02*
X020206Y011618D01*
X019581Y012243D01*
X016581Y012243D01*
X016144Y012680D01*
X015956Y012868D01*
X015956Y013572D01*
X015331Y013572D01*
X015456Y013868D02*
X015331Y013993D01*
X015331Y014163D01*
X015456Y013868D02*
X017144Y013868D01*
X017206Y013930D01*
X017206Y014163D01*
X017626Y014163D01*
X017644Y014180D01*
X017206Y013572D02*
X016581Y013572D01*
X015956Y014163D02*
X015956Y015805D01*
X015644Y016118D01*
X013706Y018055D01*
X012894Y018868D01*
X010081Y018868D01*
X009044Y017830D01*
X008288Y017830D01*
X008288Y017574D02*
X009163Y017574D01*
X010144Y018555D01*
X012706Y018555D01*
X013019Y018243D01*
X013894Y017368D01*
X013894Y017163D01*
X013331Y017430D02*
X013331Y012868D01*
X013394Y012805D01*
X013396Y012802D01*
X013800Y012802D01*
X014021Y012802D01*
X014081Y012743D01*
X014081Y012618D01*
X014010Y012546D01*
X013800Y012546D01*
X013800Y013058D02*
X014351Y013058D01*
X014519Y013225D01*
X014519Y013743D01*
X014581Y013805D01*
X014564Y013805D01*
X014564Y014430D01*
X013081Y013118D02*
X013021Y013058D01*
X012737Y013058D01*
X012521Y013058D01*
X012456Y012993D01*
X012456Y012868D01*
X012521Y012802D01*
X012737Y012802D01*
X012737Y012546D02*
X012737Y011774D01*
X012644Y011680D01*
X012144Y012180D02*
X012019Y012305D01*
X012019Y012635D01*
X012019Y013225D02*
X011973Y013271D01*
X011973Y013805D01*
X011973Y014430D01*
X012107Y013314D02*
X012019Y013225D01*
X012107Y013314D02*
X012737Y013314D01*
X013081Y013118D02*
X013081Y017305D01*
X012394Y017993D01*
X010331Y017993D01*
X009145Y016806D01*
X008288Y016806D01*
X008288Y016550D02*
X007389Y016550D01*
X007206Y016368D01*
X007206Y014618D01*
X007644Y014180D01*
X007769Y014180D01*
X008144Y013805D01*
X010269Y013805D01*
X010394Y013680D01*
X010394Y012743D01*
X010286Y012635D01*
X009894Y012635D01*
X009815Y012556D01*
X009280Y012556D01*
X008257Y012556D02*
X007472Y012556D01*
X007394Y012635D01*
X006970Y013058D01*
X006606Y013058D01*
X005681Y013314D02*
X005627Y013368D01*
X005206Y013368D01*
X005144Y013430D01*
X005144Y013743D01*
X005206Y013805D01*
X006581Y013805D01*
X006831Y014055D01*
X006831Y016430D01*
X007719Y017318D01*
X008288Y017318D01*
X008288Y017062D02*
X009026Y017062D01*
X010206Y018243D01*
X012519Y018243D01*
X013331Y017430D01*
X011394Y017350D02*
X010689Y017350D01*
X010269Y016930D01*
X010276Y016930D01*
X010331Y016985D01*
X010073Y016985D01*
X010061Y016984D01*
X010049Y016980D01*
X010039Y016973D01*
X010030Y016964D01*
X010023Y016954D01*
X010019Y016942D01*
X010018Y016930D01*
X010016Y016883D01*
X010011Y016835D01*
X010002Y016789D01*
X009990Y016743D01*
X009974Y016698D01*
X009955Y016654D01*
X009933Y016613D01*
X009908Y016572D01*
X009879Y016534D01*
X009848Y016498D01*
X009815Y016465D01*
X009779Y016434D01*
X009741Y016405D01*
X009701Y016380D01*
X009659Y016358D01*
X009615Y016339D01*
X009570Y016323D01*
X009524Y016311D01*
X009478Y016302D01*
X009430Y016297D01*
X009383Y016295D01*
X008288Y016295D01*
X008288Y016039D02*
X010285Y016039D01*
X010331Y015993D01*
X010331Y016000D01*
X010697Y015635D01*
X011394Y015635D01*
X009706Y015493D02*
X009521Y015678D01*
X009002Y015678D01*
X008897Y015783D01*
X008288Y015783D01*
X008288Y015527D02*
X007865Y015527D01*
X007831Y015493D01*
X007581Y015493D01*
X008288Y015527D02*
X008609Y015527D01*
X008769Y015368D01*
X009394Y015368D01*
X009644Y015118D01*
X009644Y014993D01*
X009644Y014975D01*
X009002Y015087D02*
X008972Y015118D01*
X008769Y015118D01*
X008615Y015271D01*
X008288Y015271D01*
X006005Y015271D02*
X003865Y015271D01*
X003331Y015930D01*
X003019Y015680D02*
X003019Y016243D01*
X003019Y015680D02*
X003808Y015015D01*
X006005Y015015D01*
X006005Y015527D02*
X004047Y015527D01*
X003831Y015868D01*
X004269Y015805D02*
X004291Y015783D01*
X006005Y015783D01*
X006005Y016039D02*
X004690Y016039D01*
X004519Y016055D01*
X003019Y017555D01*
X003019Y026055D01*
X005144Y028180D01*
X007456Y028180D01*
X009129Y026507D01*
X009995Y026507D01*
X009995Y026251D02*
X008947Y026251D01*
X007331Y027868D01*
X005331Y027868D01*
X003362Y025899D01*
X003331Y025868D01*
X003331Y017680D01*
X004716Y016295D01*
X006005Y016295D01*
X006005Y016550D02*
X004836Y016550D01*
X004644Y016743D01*
X003644Y017743D01*
X003644Y025680D01*
X005456Y027493D01*
X007269Y027493D01*
X008766Y025995D01*
X009995Y025995D01*
X009995Y025740D02*
X009459Y025740D01*
X009203Y025740D01*
X009206Y025743D01*
X009129Y025228D02*
X008394Y024493D01*
X008331Y024430D01*
X007956Y024055D01*
X007848Y023805D02*
X007848Y023464D01*
X008269Y023442D02*
X008281Y023438D01*
X008420Y023438D01*
X008420Y023786D01*
X008458Y023786D01*
X008458Y023824D01*
X008727Y023824D01*
X008727Y024041D01*
X008723Y024055D01*
X008769Y024055D01*
X008769Y021935D01*
X008014Y021180D01*
X004019Y021180D01*
X003894Y021305D01*
X003894Y024805D01*
X003902Y024805D01*
X003902Y024779D01*
X004250Y024779D01*
X004250Y024741D01*
X004287Y024741D01*
X004287Y024472D01*
X004505Y024472D01*
X004543Y024482D01*
X004562Y024493D01*
X004562Y024333D01*
X004573Y024295D01*
X004592Y024261D01*
X004620Y024233D01*
X004655Y024213D01*
X004693Y024203D01*
X005017Y024203D01*
X005017Y024598D01*
X005117Y024598D01*
X005117Y024203D01*
X005441Y024203D01*
X005479Y024213D01*
X005513Y024233D01*
X005541Y024261D01*
X005561Y024295D01*
X005571Y024333D01*
X005571Y024599D01*
X005117Y024599D01*
X005117Y024699D01*
X005571Y024699D01*
X005571Y024930D01*
X006216Y024930D01*
X006216Y024699D01*
X006670Y024699D01*
X006670Y024599D01*
X006216Y024599D01*
X006216Y024333D01*
X006224Y024305D01*
X005769Y024305D01*
X005394Y023930D01*
X004769Y023930D01*
X004769Y024203D01*
X005017Y024203D01*
X005017Y024598D01*
X005117Y024598D01*
X005117Y024203D01*
X005441Y024203D01*
X005479Y024213D01*
X005513Y024233D01*
X005541Y024261D01*
X005561Y024295D01*
X005571Y024333D01*
X005571Y024599D01*
X005117Y024599D01*
X005117Y024699D01*
X005571Y024699D01*
X005571Y024805D01*
X006216Y024805D01*
X006216Y024699D01*
X006394Y024699D01*
X006394Y024599D01*
X006216Y024599D01*
X006216Y024333D01*
X006226Y024295D01*
X006246Y024261D01*
X006274Y024233D01*
X006308Y024213D01*
X006346Y024203D01*
X006394Y024203D01*
X006394Y024168D01*
X006381Y024172D01*
X006242Y024172D01*
X006242Y023824D01*
X006204Y023824D01*
X006204Y023786D01*
X005935Y023786D01*
X005935Y023569D01*
X005945Y023532D01*
X005867Y023532D01*
X005867Y023136D01*
X005767Y023136D01*
X005767Y023036D01*
X005312Y023036D01*
X005312Y022805D01*
X005269Y022805D01*
X005269Y021430D01*
X007144Y021430D01*
X007144Y021578D01*
X007420Y021578D01*
X007420Y021973D01*
X007520Y021973D01*
X007520Y021578D01*
X007844Y021578D01*
X007883Y021588D01*
X007917Y021608D01*
X007945Y021636D01*
X007964Y021670D01*
X007975Y021708D01*
X007975Y021974D01*
X007520Y021974D01*
X007520Y022074D01*
X007975Y022074D01*
X007975Y022305D01*
X008269Y022305D01*
X008269Y023442D01*
X008269Y023426D02*
X008769Y023426D01*
X008769Y023328D02*
X008269Y023328D01*
X008269Y023229D02*
X008769Y023229D01*
X008769Y023131D02*
X008269Y023131D01*
X008269Y023032D02*
X008769Y023032D01*
X008769Y022934D02*
X008269Y022934D01*
X008269Y022835D02*
X008769Y022835D01*
X008769Y022737D02*
X008269Y022737D01*
X008269Y022638D02*
X008769Y022638D01*
X008769Y022540D02*
X008269Y022540D01*
X008269Y022441D02*
X008769Y022441D01*
X008769Y022343D02*
X008269Y022343D01*
X007975Y022244D02*
X008769Y022244D01*
X008769Y022146D02*
X007975Y022146D01*
X007975Y021949D02*
X008769Y021949D01*
X008769Y022047D02*
X007520Y022047D01*
X007520Y021949D02*
X007420Y021949D01*
X007420Y021850D02*
X007520Y021850D01*
X007520Y021752D02*
X007420Y021752D01*
X007420Y021653D02*
X007520Y021653D01*
X007144Y021555D02*
X008389Y021555D01*
X008487Y021653D02*
X007954Y021653D01*
X007975Y021752D02*
X008586Y021752D01*
X008684Y021850D02*
X007975Y021850D01*
X008290Y021456D02*
X007144Y021456D01*
X008093Y021259D02*
X003939Y021259D01*
X003894Y021358D02*
X008191Y021358D01*
X008081Y020993D02*
X008956Y021868D01*
X008956Y024118D01*
X009519Y024680D01*
X009554Y024716D01*
X009995Y024716D01*
X009995Y024460D02*
X009965Y024430D01*
X009644Y024430D01*
X009206Y023993D01*
X009206Y021743D01*
X008144Y020680D01*
X004519Y020680D01*
X004269Y020430D01*
X004269Y017993D01*
X005199Y017062D01*
X006005Y017062D01*
X006005Y016806D02*
X005017Y016806D01*
X003956Y017868D01*
X003956Y020555D01*
X004394Y020993D01*
X008081Y020993D01*
X008644Y020805D02*
X008644Y020587D01*
X010676Y020587D01*
X012185Y022097D01*
X012100Y022097D01*
X012100Y022366D01*
X012100Y022404D01*
X012448Y022404D01*
X012448Y022542D01*
X012437Y022580D01*
X012418Y022615D01*
X012390Y022643D01*
X012355Y022662D01*
X012336Y022667D01*
X012368Y022667D01*
X012468Y022767D01*
X012468Y023183D01*
X012368Y023283D01*
X012309Y023283D01*
X012309Y023842D01*
X012221Y023930D01*
X012221Y023976D01*
X011989Y024209D01*
X011989Y024268D01*
X012027Y024230D01*
X012211Y024230D01*
X012231Y024210D01*
X012364Y024210D01*
X012486Y024087D01*
X012486Y022398D01*
X012448Y022359D01*
X012448Y022366D01*
X012100Y022366D01*
X012062Y022366D01*
X011714Y022366D01*
X011714Y022227D01*
X011725Y022189D01*
X011744Y022155D01*
X011772Y022127D01*
X011807Y022107D01*
X011845Y022097D01*
X012062Y022097D01*
X012062Y022366D01*
X012062Y022404D01*
X011714Y022404D01*
X011714Y022542D01*
X011725Y022580D01*
X011744Y022615D01*
X011772Y022643D01*
X011807Y022662D01*
X011826Y022667D01*
X011794Y022667D01*
X011706Y022756D01*
X011618Y022667D01*
X011586Y022667D01*
X011605Y022662D01*
X011640Y022643D01*
X011668Y022615D01*
X011687Y022580D01*
X011698Y022542D01*
X011698Y022404D01*
X011350Y022404D01*
X011350Y022366D01*
X011698Y022366D01*
X011698Y022227D01*
X011687Y022189D01*
X011668Y022155D01*
X011640Y022127D01*
X011605Y022107D01*
X011567Y022097D01*
X011350Y022097D01*
X011350Y022366D01*
X011312Y022366D01*
X011312Y022097D01*
X011095Y022097D01*
X011057Y022107D01*
X011022Y022127D01*
X010994Y022155D01*
X010975Y022189D01*
X010970Y022207D01*
X010930Y022167D01*
X010899Y022167D01*
X010918Y022162D01*
X010952Y022143D01*
X010980Y022115D01*
X011000Y022080D01*
X011010Y022042D01*
X011010Y021904D01*
X010662Y021904D01*
X010662Y021866D01*
X010662Y021597D01*
X010880Y021597D01*
X010918Y021607D01*
X010952Y021627D01*
X010980Y021655D01*
X011000Y021689D01*
X011010Y021727D01*
X011010Y021866D01*
X010662Y021866D01*
X010625Y021866D01*
X010625Y021597D01*
X010407Y021597D01*
X010369Y021607D01*
X010335Y021627D01*
X010307Y021655D01*
X010287Y021689D01*
X010277Y021727D01*
X010277Y021866D01*
X010625Y021866D01*
X010625Y021904D01*
X010277Y021904D01*
X010277Y022042D01*
X010287Y022080D01*
X010307Y022115D01*
X010335Y022143D01*
X010369Y022162D01*
X010388Y022167D01*
X010357Y022167D01*
X010257Y022267D01*
X010257Y022683D01*
X010316Y022743D01*
X010257Y022802D01*
X010257Y023218D01*
X010344Y023305D01*
X010257Y023392D01*
X010257Y023808D01*
X010299Y023850D01*
X010299Y024210D01*
X010269Y024180D01*
X009705Y024180D01*
X009426Y023901D01*
X009426Y021651D01*
X009394Y021619D01*
X009394Y021555D01*
X008644Y020805D01*
X008644Y020767D02*
X010855Y020767D01*
X010954Y020865D02*
X008704Y020865D01*
X008802Y020964D02*
X011052Y020964D01*
X011151Y021062D02*
X008901Y021062D01*
X008999Y021161D02*
X011249Y021161D01*
X011348Y021259D02*
X009098Y021259D01*
X009196Y021358D02*
X011446Y021358D01*
X011545Y021456D02*
X009295Y021456D01*
X009393Y021555D02*
X011643Y021555D01*
X011742Y021653D02*
X010978Y021653D01*
X011010Y021752D02*
X011840Y021752D01*
X011939Y021850D02*
X011010Y021850D01*
X011010Y021949D02*
X012037Y021949D01*
X012136Y022047D02*
X011009Y022047D01*
X011004Y022146D02*
X010947Y022146D01*
X011312Y022146D02*
X011350Y022146D01*
X011350Y022244D02*
X011312Y022244D01*
X011312Y022343D02*
X011350Y022343D01*
X011698Y022343D02*
X011714Y022343D01*
X011714Y022441D02*
X011698Y022441D01*
X011698Y022540D02*
X011714Y022540D01*
X011768Y022638D02*
X011644Y022638D01*
X011687Y022737D02*
X011725Y022737D01*
X012081Y022975D02*
X012081Y023475D01*
X012001Y023555D01*
X012001Y023885D01*
X011769Y024118D01*
X011769Y025555D01*
X011894Y025680D01*
X011953Y025740D01*
X012292Y025740D01*
X012292Y025995D02*
X013016Y025995D01*
X013331Y025680D01*
X013206Y025692D02*
X014144Y025692D01*
X016269Y025692D01*
X016269Y025743D02*
X016269Y025243D01*
X016277Y025243D01*
X016277Y025154D01*
X016625Y025154D01*
X016625Y025116D01*
X016662Y025116D01*
X016662Y024847D01*
X016880Y024847D01*
X016918Y024857D01*
X016952Y024877D01*
X016980Y024905D01*
X017000Y024939D01*
X017010Y024977D01*
X017010Y025116D01*
X016662Y025116D01*
X016662Y025154D01*
X017010Y025154D01*
X017010Y025243D01*
X017027Y025243D01*
X017027Y025154D01*
X017375Y025154D01*
X017375Y025116D01*
X017412Y025116D01*
X017412Y024847D01*
X017630Y024847D01*
X017668Y024857D01*
X017702Y024877D01*
X017730Y024905D01*
X017750Y024939D01*
X017760Y024977D01*
X017760Y025116D01*
X017412Y025116D01*
X017412Y025154D01*
X017760Y025154D01*
X017760Y025243D01*
X017777Y025243D01*
X017777Y025154D01*
X018125Y025154D01*
X018125Y025116D01*
X018162Y025116D01*
X018162Y024847D01*
X018380Y024847D01*
X018418Y024857D01*
X018452Y024877D01*
X018480Y024905D01*
X018500Y024939D01*
X018510Y024977D01*
X018510Y025116D01*
X018162Y025116D01*
X018162Y025154D01*
X018510Y025154D01*
X018510Y025243D01*
X018519Y025243D01*
X018519Y025743D01*
X020022Y025743D01*
X020050Y025714D01*
X020094Y025689D01*
X020144Y025676D01*
X020268Y025676D01*
X020268Y025885D01*
X020268Y026055D01*
X020269Y026055D01*
X020269Y025885D01*
X020268Y025885D01*
X020269Y025885D01*
X020269Y025676D01*
X020393Y025676D01*
X020394Y025676D01*
X020394Y025555D01*
X021144Y025555D01*
X021144Y025676D01*
X021268Y025676D01*
X021268Y025885D01*
X021269Y025885D01*
X021269Y026055D01*
X021268Y026055D01*
X021268Y025885D01*
X021269Y025885D01*
X021269Y025676D01*
X021393Y025676D01*
X021443Y025689D01*
X021487Y025714D01*
X021523Y025751D01*
X021549Y025795D01*
X021562Y025844D01*
X021562Y025885D01*
X021562Y025925D01*
X021549Y025974D01*
X021544Y025983D01*
X021549Y025992D01*
X021562Y026041D01*
X021562Y026055D01*
X021644Y026055D01*
X021644Y025743D01*
X023644Y025743D01*
X023644Y020118D01*
X014144Y020118D01*
X011148Y020118D01*
X011294Y020263D01*
X013206Y022118D01*
X013206Y023930D01*
X013831Y023930D01*
X013894Y023993D01*
X013894Y025180D01*
X013769Y025305D01*
X013206Y025305D01*
X013206Y025743D01*
X014144Y025743D01*
X014144Y020118D01*
X014144Y025743D01*
X016269Y025743D01*
X016269Y025593D02*
X014144Y025593D01*
X013206Y025593D01*
X013206Y025495D02*
X014144Y025495D01*
X016269Y025495D01*
X016269Y025396D02*
X014144Y025396D01*
X013206Y025396D01*
X012831Y025493D02*
X012697Y025484D01*
X012292Y025484D01*
X012292Y025228D02*
X012783Y025228D01*
X013019Y024993D01*
X013144Y024868D01*
X013456Y024868D01*
X013456Y024913D01*
X013894Y024904D02*
X014144Y024904D01*
X016308Y024904D01*
X016307Y024905D02*
X016335Y024877D01*
X016369Y024857D01*
X016407Y024847D01*
X016625Y024847D01*
X016625Y025116D01*
X016277Y025116D01*
X016277Y024977D01*
X016287Y024939D01*
X016307Y024905D01*
X016277Y025002D02*
X014144Y025002D01*
X013894Y025002D01*
X013894Y025101D02*
X014144Y025101D01*
X016277Y025101D01*
X016277Y025199D02*
X014144Y025199D01*
X013874Y025199D01*
X013776Y025298D02*
X014144Y025298D01*
X016269Y025298D01*
X016625Y025101D02*
X016662Y025101D01*
X016662Y025002D02*
X016625Y025002D01*
X016625Y024904D02*
X016662Y024904D01*
X016979Y024904D02*
X017058Y024904D01*
X017057Y024905D02*
X017085Y024877D01*
X017119Y024857D01*
X017157Y024847D01*
X017375Y024847D01*
X017375Y025116D01*
X017027Y025116D01*
X017027Y024977D01*
X017037Y024939D01*
X017057Y024905D01*
X017027Y025002D02*
X017010Y025002D01*
X017010Y025101D02*
X017027Y025101D01*
X017027Y025199D02*
X017010Y025199D01*
X017375Y025101D02*
X017412Y025101D01*
X017412Y025002D02*
X017375Y025002D01*
X017375Y024904D02*
X017412Y024904D01*
X017729Y024904D02*
X017808Y024904D01*
X017807Y024905D02*
X017835Y024877D01*
X017869Y024857D01*
X017907Y024847D01*
X018125Y024847D01*
X018125Y025116D01*
X017777Y025116D01*
X017777Y024977D01*
X017787Y024939D01*
X017807Y024905D01*
X017777Y025002D02*
X017760Y025002D01*
X017760Y025101D02*
X017777Y025101D01*
X017777Y025199D02*
X017760Y025199D01*
X018125Y025101D02*
X018162Y025101D01*
X018162Y025002D02*
X018125Y025002D01*
X018125Y024904D02*
X018162Y024904D01*
X018479Y024904D02*
X023644Y024904D01*
X023644Y025002D02*
X018510Y025002D01*
X018510Y025101D02*
X023644Y025101D01*
X023644Y025199D02*
X018510Y025199D01*
X018519Y025298D02*
X023644Y025298D01*
X023644Y025396D02*
X018519Y025396D01*
X018519Y025495D02*
X023644Y025495D01*
X023644Y025593D02*
X021144Y025593D01*
X021144Y025676D02*
X021144Y025676D01*
X021268Y025692D02*
X021269Y025692D01*
X021268Y025790D02*
X021269Y025790D01*
X021268Y025889D02*
X021269Y025889D01*
X021268Y025987D02*
X021269Y025987D01*
X021439Y025885D02*
X021439Y025885D01*
X021562Y025885D01*
X021439Y025885D01*
X021562Y025889D02*
X021644Y025889D01*
X021644Y025987D02*
X021546Y025987D01*
X021546Y025790D02*
X021644Y025790D01*
X021448Y025692D02*
X023644Y025692D01*
X023144Y025692D02*
X025186Y025692D01*
X025186Y025675D02*
X025196Y025637D01*
X025216Y025603D01*
X025244Y025575D01*
X025278Y025555D01*
X025316Y025545D01*
X025446Y025545D01*
X025446Y025743D01*
X025466Y025743D01*
X025466Y025545D01*
X025596Y025545D01*
X025634Y025555D01*
X025668Y025575D01*
X025696Y025603D01*
X025716Y025637D01*
X025726Y025675D01*
X025726Y025743D01*
X028159Y025743D01*
X028152Y025736D01*
X028100Y025668D01*
X028058Y025594D01*
X028025Y025515D01*
X028003Y025432D01*
X027992Y025355D01*
X028593Y025355D01*
X028593Y025255D01*
X027992Y025255D01*
X028003Y025178D01*
X028025Y025095D01*
X028058Y025016D01*
X028100Y024942D01*
X028152Y024874D01*
X028213Y024814D01*
X028281Y024762D01*
X028355Y024719D01*
X028433Y024686D01*
X028516Y024664D01*
X028594Y024654D01*
X028594Y025255D01*
X028694Y025255D01*
X028694Y025355D01*
X029295Y025355D01*
X029284Y025432D01*
X029262Y025515D01*
X029229Y025594D01*
X029187Y025668D01*
X029135Y025736D01*
X029128Y025743D01*
X029504Y025743D01*
X029530Y025732D01*
X029757Y025732D01*
X029783Y025743D01*
X030144Y025743D01*
X030144Y026015D01*
X030216Y026191D01*
X030216Y026419D01*
X030144Y026595D01*
X030144Y026886D01*
X030152Y026874D01*
X030213Y026814D01*
X030281Y026762D01*
X030355Y026719D01*
X030433Y026686D01*
X030516Y026664D01*
X030594Y026654D01*
X030594Y027255D01*
X030694Y027255D01*
X030694Y027355D01*
X031295Y027355D01*
X031284Y027432D01*
X031262Y027515D01*
X031229Y027594D01*
X031187Y027668D01*
X031135Y027736D01*
X031074Y027796D01*
X031006Y027848D01*
X030932Y027891D01*
X030854Y027924D01*
X030771Y027946D01*
X030694Y027956D01*
X030694Y027355D01*
X030594Y027355D01*
X030594Y027956D01*
X030516Y027946D01*
X030433Y027924D01*
X030355Y027891D01*
X030281Y027848D01*
X030213Y027796D01*
X030152Y027736D01*
X030100Y027668D01*
X030058Y027594D01*
X030025Y027515D01*
X030003Y027432D01*
X029992Y027355D01*
X030593Y027355D01*
X030593Y027255D01*
X029992Y027255D01*
X030003Y027178D01*
X030025Y027095D01*
X030058Y027016D01*
X030100Y026942D01*
X030109Y026930D01*
X029178Y026930D01*
X029187Y026942D01*
X029229Y027016D01*
X029262Y027095D01*
X029284Y027178D01*
X029295Y027255D01*
X028694Y027255D01*
X028694Y027355D01*
X029295Y027355D01*
X029284Y027432D01*
X029262Y027515D01*
X029229Y027594D01*
X029187Y027668D01*
X029135Y027736D01*
X029074Y027796D01*
X029006Y027848D01*
X028932Y027891D01*
X028854Y027924D01*
X028771Y027946D01*
X028694Y027956D01*
X028694Y027355D01*
X028594Y027355D01*
X028594Y027956D01*
X028516Y027946D01*
X028433Y027924D01*
X028355Y027891D01*
X028281Y027848D01*
X028213Y027796D01*
X028152Y027736D01*
X028100Y027668D01*
X028058Y027594D01*
X028025Y027515D01*
X028003Y027432D01*
X027992Y027355D01*
X028593Y027355D01*
X028593Y027255D01*
X027992Y027255D01*
X028003Y027178D01*
X028025Y027095D01*
X028058Y027016D01*
X028100Y026942D01*
X028109Y026930D01*
X025726Y026930D01*
X025726Y026935D01*
X025716Y026973D01*
X025696Y027007D01*
X025668Y027035D01*
X025634Y027055D01*
X025596Y027065D01*
X025466Y027065D01*
X025466Y026930D01*
X025446Y026930D01*
X025446Y027065D01*
X025316Y027065D01*
X025278Y027055D01*
X025244Y027035D01*
X025216Y027007D01*
X025196Y026973D01*
X025186Y026935D01*
X025186Y026930D01*
X023081Y026930D01*
X023081Y027563D01*
X028045Y027563D01*
X028011Y027465D02*
X023081Y027465D01*
X023081Y027563D02*
X023096Y027563D01*
X023134Y027574D01*
X023169Y027593D01*
X023197Y027621D01*
X023216Y027656D01*
X023227Y027694D01*
X023227Y027911D01*
X022958Y027911D01*
X022958Y027949D01*
X023227Y027949D01*
X023227Y028166D01*
X023216Y028204D01*
X023197Y028239D01*
X023169Y028267D01*
X023134Y028286D01*
X023096Y028297D01*
X022958Y028297D01*
X022958Y027949D01*
X022956Y027949D01*
X022956Y028661D01*
X022958Y028661D01*
X022958Y028699D01*
X023227Y028699D01*
X023227Y028916D01*
X023216Y028954D01*
X023197Y028989D01*
X023169Y029017D01*
X023134Y029036D01*
X023096Y029047D01*
X022958Y029047D01*
X022958Y028699D01*
X022956Y028699D01*
X022956Y029047D01*
X023061Y029047D01*
X023061Y029474D01*
X023099Y029474D01*
X023099Y029511D01*
X023368Y029511D01*
X023368Y029808D01*
X023358Y029846D01*
X023338Y029880D01*
X023310Y029908D01*
X023276Y029928D01*
X023238Y029938D01*
X023203Y029938D01*
X023201Y030016D01*
X023205Y030015D01*
X023411Y030015D01*
X023411Y030567D01*
X023511Y030567D01*
X023511Y030015D01*
X023717Y030015D01*
X023755Y030025D01*
X023789Y030045D01*
X023817Y030073D01*
X023837Y030107D01*
X023847Y030145D01*
X023847Y030568D01*
X023511Y030568D01*
X023511Y030667D01*
X023847Y030667D01*
X023847Y031090D01*
X023837Y031128D01*
X023817Y031162D01*
X023789Y031190D01*
X023755Y031210D01*
X023717Y031220D01*
X023511Y031220D01*
X023511Y030668D01*
X023411Y030668D01*
X023411Y031220D01*
X023205Y031220D01*
X023175Y031212D01*
X023157Y032013D01*
X030044Y032013D01*
X030044Y029666D01*
X030102Y029608D01*
X032477Y029608D01*
X032477Y020118D01*
X023144Y020118D01*
X023144Y025743D01*
X025186Y025743D01*
X025186Y025675D01*
X025225Y025593D02*
X023144Y025593D01*
X023144Y025495D02*
X028019Y025495D01*
X027998Y025396D02*
X023144Y025396D01*
X023144Y025298D02*
X028593Y025298D01*
X028594Y025199D02*
X028694Y025199D01*
X028694Y025255D02*
X028694Y024654D01*
X028771Y024664D01*
X028854Y024686D01*
X028932Y024719D01*
X029006Y024762D01*
X029074Y024814D01*
X029135Y024874D01*
X029187Y024942D01*
X029229Y025016D01*
X029262Y025095D01*
X029284Y025178D01*
X029295Y025255D01*
X028694Y025255D01*
X028694Y025298D02*
X030593Y025298D01*
X030593Y025255D02*
X029992Y025255D01*
X030003Y025178D01*
X030025Y025095D01*
X030058Y025016D01*
X030100Y024942D01*
X030152Y024874D01*
X030213Y024814D01*
X030281Y024762D01*
X030355Y024719D01*
X030433Y024686D01*
X030516Y024664D01*
X030594Y024654D01*
X030594Y025255D01*
X030694Y025255D01*
X030694Y025355D01*
X031295Y025355D01*
X031284Y025432D01*
X031262Y025515D01*
X031229Y025594D01*
X031187Y025668D01*
X031135Y025736D01*
X031074Y025796D01*
X031006Y025848D01*
X030932Y025891D01*
X030854Y025924D01*
X030771Y025946D01*
X030694Y025956D01*
X030694Y025355D01*
X030594Y025355D01*
X030594Y025956D01*
X030516Y025946D01*
X030433Y025924D01*
X030355Y025891D01*
X030281Y025848D01*
X030213Y025796D01*
X030152Y025736D01*
X030100Y025668D01*
X030058Y025594D01*
X030025Y025515D01*
X030003Y025432D01*
X029992Y025355D01*
X030593Y025355D01*
X030593Y025255D01*
X030594Y025199D02*
X030694Y025199D01*
X030694Y025255D02*
X030694Y024654D01*
X030771Y024664D01*
X030854Y024686D01*
X030932Y024719D01*
X031006Y024762D01*
X031074Y024814D01*
X031135Y024874D01*
X031187Y024942D01*
X031229Y025016D01*
X031262Y025095D01*
X031284Y025178D01*
X031295Y025255D01*
X030694Y025255D01*
X030694Y025298D02*
X032477Y025298D01*
X032477Y025396D02*
X031289Y025396D01*
X031268Y025495D02*
X032477Y025495D01*
X032477Y025593D02*
X031230Y025593D01*
X031169Y025692D02*
X032477Y025692D01*
X032477Y025790D02*
X031080Y025790D01*
X030937Y025889D02*
X032477Y025889D01*
X032477Y025987D02*
X030144Y025987D01*
X030144Y025889D02*
X030350Y025889D01*
X030207Y025790D02*
X030144Y025790D01*
X030118Y025692D02*
X029169Y025692D01*
X029230Y025593D02*
X030057Y025593D01*
X030019Y025495D02*
X029268Y025495D01*
X029289Y025396D02*
X029998Y025396D01*
X030000Y025199D02*
X029287Y025199D01*
X029264Y025101D02*
X030023Y025101D01*
X030066Y025002D02*
X029221Y025002D01*
X029157Y024904D02*
X030130Y024904D01*
X030224Y024805D02*
X029063Y024805D01*
X028902Y024707D02*
X030385Y024707D01*
X030594Y024707D02*
X030694Y024707D01*
X030694Y024805D02*
X030594Y024805D01*
X030594Y024904D02*
X030694Y024904D01*
X030694Y025002D02*
X030594Y025002D01*
X030594Y025101D02*
X030694Y025101D01*
X030694Y025396D02*
X030594Y025396D01*
X030594Y025495D02*
X030694Y025495D01*
X030694Y025593D02*
X030594Y025593D01*
X030594Y025692D02*
X030694Y025692D01*
X030694Y025790D02*
X030594Y025790D01*
X030594Y025889D02*
X030694Y025889D01*
X030173Y026086D02*
X032477Y026086D01*
X032477Y026184D02*
X030214Y026184D01*
X030216Y026283D02*
X032477Y026283D01*
X032477Y026381D02*
X030216Y026381D01*
X030191Y026480D02*
X032477Y026480D01*
X032477Y026578D02*
X030151Y026578D01*
X030144Y026677D02*
X030470Y026677D01*
X030594Y026677D02*
X030694Y026677D01*
X030694Y026654D02*
X030771Y026664D01*
X030854Y026686D01*
X030932Y026719D01*
X031006Y026762D01*
X031074Y026814D01*
X031135Y026874D01*
X031187Y026942D01*
X031229Y027016D01*
X031262Y027095D01*
X031284Y027178D01*
X031295Y027255D01*
X030694Y027255D01*
X030694Y026654D01*
X030694Y026775D02*
X030594Y026775D01*
X030594Y026874D02*
X030694Y026874D01*
X030694Y026972D02*
X030594Y026972D01*
X030594Y027071D02*
X030694Y027071D01*
X030694Y027169D02*
X030594Y027169D01*
X030593Y027268D02*
X028694Y027268D01*
X028694Y027366D02*
X028594Y027366D01*
X028593Y027268D02*
X023081Y027268D01*
X023081Y027366D02*
X027994Y027366D01*
X028005Y027169D02*
X023081Y027169D01*
X023081Y027071D02*
X028035Y027071D01*
X028083Y026972D02*
X025716Y026972D01*
X025644Y027180D02*
X025581Y027243D01*
X025456Y027243D01*
X025456Y026669D01*
X025446Y026972D02*
X025466Y026972D01*
X025196Y026972D02*
X023081Y026972D01*
X023218Y027662D02*
X028097Y027662D01*
X028177Y027760D02*
X023227Y027760D01*
X023227Y027859D02*
X028298Y027859D01*
X028594Y027859D02*
X028694Y027859D01*
X028694Y027760D02*
X028594Y027760D01*
X028594Y027662D02*
X028694Y027662D01*
X028694Y027563D02*
X028594Y027563D01*
X028594Y027465D02*
X028694Y027465D01*
X028989Y027859D02*
X030298Y027859D01*
X030177Y027760D02*
X029110Y027760D01*
X029190Y027662D02*
X030097Y027662D01*
X030045Y027563D02*
X029242Y027563D01*
X029276Y027465D02*
X030011Y027465D01*
X029994Y027366D02*
X029293Y027366D01*
X029282Y027169D02*
X030005Y027169D01*
X030035Y027071D02*
X029252Y027071D01*
X029204Y026972D02*
X030083Y026972D01*
X030144Y026874D02*
X030153Y026874D01*
X030144Y026775D02*
X030263Y026775D01*
X030817Y026677D02*
X032477Y026677D01*
X032477Y026775D02*
X031024Y026775D01*
X031134Y026874D02*
X032477Y026874D01*
X032477Y026972D02*
X031204Y026972D01*
X031252Y027071D02*
X032477Y027071D01*
X032477Y027169D02*
X031282Y027169D01*
X031293Y027366D02*
X032477Y027366D01*
X032477Y027268D02*
X030694Y027268D01*
X030694Y027366D02*
X030594Y027366D01*
X030594Y027465D02*
X030694Y027465D01*
X030694Y027563D02*
X030594Y027563D01*
X030594Y027662D02*
X030694Y027662D01*
X030694Y027760D02*
X030594Y027760D01*
X030594Y027859D02*
X030694Y027859D01*
X030989Y027859D02*
X032477Y027859D01*
X032477Y027957D02*
X023227Y027957D01*
X023227Y028056D02*
X032477Y028056D01*
X032477Y028154D02*
X023227Y028154D01*
X023183Y028253D02*
X032477Y028253D01*
X032477Y028351D02*
X023176Y028351D01*
X023169Y028343D02*
X023197Y028371D01*
X023216Y028406D01*
X023227Y028444D01*
X023227Y028661D01*
X022958Y028661D01*
X022958Y028313D01*
X023096Y028313D01*
X023134Y028324D01*
X023169Y028343D01*
X023227Y028450D02*
X032477Y028450D01*
X032477Y028548D02*
X023227Y028548D01*
X023227Y028647D02*
X032477Y028647D01*
X032477Y028745D02*
X023227Y028745D01*
X023227Y028844D02*
X032477Y028844D01*
X032477Y028942D02*
X023220Y028942D01*
X023238Y029047D02*
X023276Y029057D01*
X023310Y029077D01*
X023338Y029105D01*
X023358Y029139D01*
X023368Y029177D01*
X023368Y029474D01*
X023099Y029474D01*
X023099Y029047D01*
X023238Y029047D01*
X023119Y029041D02*
X032477Y029041D01*
X032477Y029139D02*
X023357Y029139D01*
X023368Y029238D02*
X032477Y029238D01*
X032477Y029336D02*
X023368Y029336D01*
X023368Y029435D02*
X032477Y029435D01*
X032477Y029533D02*
X023368Y029533D01*
X023368Y029632D02*
X030078Y029632D01*
X030044Y029730D02*
X023368Y029730D01*
X023362Y029829D02*
X030044Y029829D01*
X030044Y029927D02*
X023277Y029927D01*
X023411Y030026D02*
X023511Y030026D01*
X023511Y030124D02*
X023411Y030124D01*
X023411Y030223D02*
X023511Y030223D01*
X023511Y030321D02*
X023411Y030321D01*
X023411Y030420D02*
X023511Y030420D01*
X023511Y030518D02*
X023411Y030518D01*
X023511Y030617D02*
X030044Y030617D01*
X030044Y030715D02*
X023847Y030715D01*
X023847Y030814D02*
X030044Y030814D01*
X030044Y030912D02*
X023847Y030912D01*
X023847Y031011D02*
X030044Y031011D01*
X030044Y031109D02*
X023842Y031109D01*
X023759Y031208D02*
X030044Y031208D01*
X030044Y031306D02*
X023173Y031306D01*
X023170Y031405D02*
X030044Y031405D01*
X030044Y031503D02*
X023168Y031503D01*
X023166Y031602D02*
X030044Y031602D01*
X030044Y031700D02*
X023164Y031700D01*
X023162Y031799D02*
X030044Y031799D01*
X030044Y031897D02*
X023160Y031897D01*
X023157Y031996D02*
X030044Y031996D01*
X030044Y030518D02*
X023847Y030518D01*
X023847Y030420D02*
X030044Y030420D01*
X030044Y030321D02*
X023847Y030321D01*
X023847Y030223D02*
X030044Y030223D01*
X030044Y030124D02*
X023842Y030124D01*
X023756Y030026D02*
X030044Y030026D01*
X031110Y027760D02*
X032477Y027760D01*
X032477Y027662D02*
X031190Y027662D01*
X031242Y027563D02*
X032477Y027563D01*
X032477Y027465D02*
X031276Y027465D01*
X031287Y025199D02*
X032477Y025199D01*
X032477Y025101D02*
X031264Y025101D01*
X031221Y025002D02*
X032477Y025002D01*
X032477Y024904D02*
X031157Y024904D01*
X031063Y024805D02*
X032477Y024805D01*
X032477Y024707D02*
X030902Y024707D01*
X032477Y024608D02*
X023144Y024608D01*
X023144Y024510D02*
X032477Y024510D01*
X032477Y024411D02*
X023144Y024411D01*
X023144Y024313D02*
X032477Y024313D01*
X032477Y024214D02*
X023144Y024214D01*
X023144Y024116D02*
X032477Y024116D01*
X032477Y024017D02*
X023144Y024017D01*
X023144Y023919D02*
X032477Y023919D01*
X032477Y023820D02*
X023144Y023820D01*
X023144Y023722D02*
X032477Y023722D01*
X032477Y023623D02*
X023144Y023623D01*
X023144Y023525D02*
X032477Y023525D01*
X032477Y023426D02*
X023144Y023426D01*
X023144Y023328D02*
X032477Y023328D01*
X032477Y023229D02*
X023144Y023229D01*
X023144Y023131D02*
X032477Y023131D01*
X032477Y023032D02*
X023144Y023032D01*
X023144Y022934D02*
X032477Y022934D01*
X032477Y022835D02*
X023144Y022835D01*
X023144Y022737D02*
X032477Y022737D01*
X032477Y022638D02*
X023144Y022638D01*
X023144Y022540D02*
X032477Y022540D01*
X032477Y022441D02*
X023144Y022441D01*
X023144Y022343D02*
X032477Y022343D01*
X032477Y022244D02*
X023144Y022244D01*
X023144Y022146D02*
X032477Y022146D01*
X032477Y022047D02*
X023144Y022047D01*
X023144Y021949D02*
X032477Y021949D01*
X032477Y021850D02*
X023144Y021850D01*
X023144Y021752D02*
X032477Y021752D01*
X032477Y021653D02*
X023144Y021653D01*
X023144Y021555D02*
X032477Y021555D01*
X032477Y021456D02*
X023144Y021456D01*
X023144Y021358D02*
X032477Y021358D01*
X032477Y021259D02*
X023144Y021259D01*
X023144Y021161D02*
X032477Y021161D01*
X032477Y021062D02*
X023144Y021062D01*
X023144Y020964D02*
X032477Y020964D01*
X032477Y020865D02*
X023144Y020865D01*
X023144Y020767D02*
X032477Y020767D01*
X032477Y020668D02*
X023144Y020668D01*
X023144Y020570D02*
X032477Y020570D01*
X032477Y020471D02*
X023144Y020471D01*
X023144Y020373D02*
X032477Y020373D01*
X032477Y020274D02*
X023144Y020274D01*
X023144Y020176D02*
X032477Y020176D01*
X028694Y024707D02*
X028594Y024707D01*
X028594Y024805D02*
X028694Y024805D01*
X028694Y024904D02*
X028594Y024904D01*
X028594Y025002D02*
X028694Y025002D01*
X028694Y025101D02*
X028594Y025101D01*
X028385Y024707D02*
X023144Y024707D01*
X023144Y024805D02*
X028224Y024805D01*
X028130Y024904D02*
X023144Y024904D01*
X023144Y025002D02*
X028066Y025002D01*
X028023Y025101D02*
X023144Y025101D01*
X023144Y025199D02*
X028000Y025199D01*
X028057Y025593D02*
X025687Y025593D01*
X025726Y025692D02*
X028118Y025692D01*
X025466Y025692D02*
X025446Y025692D01*
X025446Y025593D02*
X025466Y025593D01*
X023644Y024805D02*
X014144Y024805D01*
X013894Y024805D01*
X013894Y024707D02*
X014144Y024707D01*
X023644Y024707D01*
X023644Y024608D02*
X014144Y024608D01*
X013894Y024608D01*
X013894Y024510D02*
X014144Y024510D01*
X023644Y024510D01*
X023644Y024411D02*
X014144Y024411D01*
X013894Y024411D01*
X013894Y024313D02*
X014144Y024313D01*
X023644Y024313D01*
X023644Y024214D02*
X014144Y024214D01*
X013894Y024214D01*
X013894Y024116D02*
X014144Y024116D01*
X023644Y024116D01*
X023644Y024017D02*
X014144Y024017D01*
X013894Y024017D01*
X014144Y023919D02*
X013206Y023919D01*
X013206Y023820D02*
X014144Y023820D01*
X023644Y023820D01*
X023644Y023722D02*
X014144Y023722D01*
X013206Y023722D01*
X013206Y023623D02*
X014144Y023623D01*
X023644Y023623D01*
X023644Y023525D02*
X014144Y023525D01*
X013206Y023525D01*
X013206Y023426D02*
X014144Y023426D01*
X023644Y023426D01*
X023644Y023328D02*
X014144Y023328D01*
X013206Y023328D01*
X013206Y023229D02*
X014144Y023229D01*
X023644Y023229D01*
X023644Y023131D02*
X014144Y023131D01*
X013206Y023131D01*
X013206Y023032D02*
X014144Y023032D01*
X023644Y023032D01*
X023644Y022934D02*
X014144Y022934D01*
X013206Y022934D01*
X013206Y022835D02*
X014144Y022835D01*
X023644Y022835D01*
X023644Y022737D02*
X014144Y022737D01*
X013206Y022737D01*
X013206Y022638D02*
X014144Y022638D01*
X023644Y022638D01*
X023644Y022540D02*
X014144Y022540D01*
X013206Y022540D01*
X013206Y022441D02*
X014144Y022441D01*
X023644Y022441D01*
X023644Y022343D02*
X014144Y022343D01*
X013206Y022343D01*
X013206Y022244D02*
X014144Y022244D01*
X023644Y022244D01*
X023644Y022146D02*
X014144Y022146D01*
X013206Y022146D01*
X013133Y022047D02*
X014144Y022047D01*
X023644Y022047D01*
X023644Y021949D02*
X014144Y021949D01*
X013032Y021949D01*
X012930Y021850D02*
X014144Y021850D01*
X023644Y021850D01*
X023644Y021752D02*
X014144Y021752D01*
X012829Y021752D01*
X012727Y021653D02*
X014144Y021653D01*
X023644Y021653D01*
X023644Y021555D02*
X014144Y021555D01*
X012625Y021555D01*
X012524Y021456D02*
X014144Y021456D01*
X023644Y021456D01*
X023644Y021358D02*
X014144Y021358D01*
X012422Y021358D01*
X012321Y021259D02*
X014144Y021259D01*
X023644Y021259D01*
X023644Y021161D02*
X014144Y021161D01*
X012219Y021161D01*
X012118Y021062D02*
X014144Y021062D01*
X023644Y021062D01*
X023644Y020964D02*
X014144Y020964D01*
X012016Y020964D01*
X011914Y020865D02*
X014144Y020865D01*
X023644Y020865D01*
X023644Y020767D02*
X014144Y020767D01*
X011813Y020767D01*
X011711Y020668D02*
X014144Y020668D01*
X023644Y020668D01*
X023644Y020570D02*
X014144Y020570D01*
X011610Y020570D01*
X011508Y020471D02*
X014144Y020471D01*
X023644Y020471D01*
X023644Y020373D02*
X014144Y020373D01*
X011407Y020373D01*
X011305Y020274D02*
X014144Y020274D01*
X023644Y020274D01*
X023644Y020176D02*
X014144Y020176D01*
X011206Y020176D01*
X010831Y020055D02*
X012956Y022180D01*
X012956Y024368D01*
X012644Y024680D01*
X012608Y024716D01*
X012292Y024716D01*
X012292Y024972D02*
X012664Y024972D01*
X013206Y024430D01*
X013348Y024430D01*
X013456Y024322D01*
X012706Y024243D02*
X012519Y024430D01*
X012322Y024430D01*
X012292Y024460D01*
X012227Y024214D02*
X011989Y024214D01*
X012082Y024116D02*
X012458Y024116D01*
X012486Y024017D02*
X012180Y024017D01*
X012232Y023919D02*
X012486Y023919D01*
X012486Y023820D02*
X012309Y023820D01*
X012309Y023722D02*
X012486Y023722D01*
X012486Y023623D02*
X012309Y023623D01*
X012309Y023525D02*
X012486Y023525D01*
X012486Y023426D02*
X012309Y023426D01*
X012309Y023328D02*
X012486Y023328D01*
X012486Y023229D02*
X012422Y023229D01*
X012468Y023131D02*
X012486Y023131D01*
X012486Y023032D02*
X012468Y023032D01*
X012468Y022934D02*
X012486Y022934D01*
X012486Y022835D02*
X012468Y022835D01*
X012486Y022737D02*
X012437Y022737D01*
X012394Y022638D02*
X012486Y022638D01*
X012486Y022540D02*
X012448Y022540D01*
X012448Y022441D02*
X012486Y022441D01*
X012706Y022305D02*
X012706Y024243D01*
X011411Y023555D02*
X010689Y023555D01*
X010644Y023600D01*
X010519Y023725D01*
X010519Y026680D01*
X010435Y026763D01*
X009995Y026763D01*
X009995Y027019D02*
X009430Y027019D01*
X009019Y027431D01*
X009037Y028180D02*
X009037Y028198D01*
X009000Y028198D01*
X009000Y028467D01*
X008703Y028467D01*
X008665Y028457D01*
X008631Y028437D01*
X008603Y028409D01*
X008583Y028375D01*
X008573Y028337D01*
X008573Y028198D01*
X009000Y028198D01*
X009000Y028180D01*
X007769Y028180D01*
X007644Y028305D01*
X007644Y029430D01*
X011394Y029430D01*
X011394Y028680D01*
X011260Y028680D01*
X011260Y028706D01*
X010912Y028706D01*
X010912Y028744D01*
X010875Y028744D01*
X010875Y029013D01*
X010657Y029013D01*
X010619Y029003D01*
X010585Y028983D01*
X010581Y028979D01*
X010577Y028983D01*
X010543Y029003D01*
X010505Y029013D01*
X010287Y029013D01*
X010287Y028744D01*
X010250Y028744D01*
X010250Y029013D01*
X010032Y029013D01*
X009994Y029003D01*
X009960Y028983D01*
X009932Y028955D01*
X009912Y028921D01*
X009902Y028883D01*
X009902Y028744D01*
X010250Y028744D01*
X010250Y028706D01*
X009902Y028706D01*
X009902Y028680D01*
X009644Y028680D01*
X009644Y028180D01*
X009037Y028180D01*
X009037Y028198D02*
X009464Y028198D01*
X009464Y028337D01*
X009454Y028375D01*
X009434Y028409D01*
X009406Y028437D01*
X009372Y028457D01*
X009334Y028467D01*
X009037Y028467D01*
X009037Y028198D01*
X009037Y028253D02*
X009000Y028253D01*
X009000Y028351D02*
X009037Y028351D01*
X009037Y028450D02*
X009000Y028450D01*
X009384Y028450D02*
X009644Y028450D01*
X009644Y028548D02*
X007644Y028548D01*
X007644Y028450D02*
X008653Y028450D01*
X008577Y028351D02*
X007644Y028351D01*
X007696Y028253D02*
X008573Y028253D01*
X009464Y028253D02*
X009644Y028253D01*
X009644Y028351D02*
X009460Y028351D01*
X009644Y028647D02*
X007644Y028647D01*
X007644Y028745D02*
X009902Y028745D01*
X009902Y028844D02*
X007644Y028844D01*
X007644Y028942D02*
X009924Y028942D01*
X010250Y028942D02*
X010287Y028942D01*
X010287Y028844D02*
X010250Y028844D01*
X010250Y028745D02*
X010287Y028745D01*
X010287Y028744D02*
X010875Y028744D01*
X010875Y028706D01*
X010527Y028706D01*
X010287Y028706D01*
X010287Y028744D01*
X010875Y028745D02*
X010912Y028745D01*
X010912Y028744D02*
X010912Y029013D01*
X011130Y029013D01*
X011168Y029003D01*
X011202Y028983D01*
X011230Y028955D01*
X011250Y028921D01*
X011260Y028883D01*
X011260Y028744D01*
X010912Y028744D01*
X010912Y028844D02*
X010875Y028844D01*
X010875Y028942D02*
X010912Y028942D01*
X011238Y028942D02*
X011394Y028942D01*
X011394Y028844D02*
X011260Y028844D01*
X011260Y028745D02*
X011394Y028745D01*
X011394Y029041D02*
X007644Y029041D01*
X007644Y029139D02*
X011394Y029139D01*
X011394Y029238D02*
X007644Y029238D01*
X007644Y029336D02*
X011394Y029336D01*
X012055Y028717D02*
X012769Y029430D01*
X013706Y029430D01*
X013706Y028305D01*
X013323Y028305D01*
X013323Y028394D01*
X012975Y028394D01*
X012975Y028432D01*
X012937Y028432D01*
X012937Y028701D01*
X012720Y028701D01*
X012682Y028690D01*
X012647Y028671D01*
X012627Y028650D01*
X012621Y028659D01*
X012593Y028687D01*
X012559Y028707D01*
X012521Y028717D01*
X012225Y028717D01*
X012225Y028448D01*
X012589Y028448D01*
X012589Y028432D01*
X012937Y028432D01*
X012937Y028394D01*
X012651Y028394D01*
X012651Y028410D01*
X012225Y028410D01*
X012225Y028448D01*
X012187Y028448D01*
X012187Y028717D01*
X012055Y028717D01*
X012084Y028745D02*
X013706Y028745D01*
X013706Y028647D02*
X013289Y028647D01*
X013293Y028643D02*
X013265Y028671D01*
X013230Y028690D01*
X013192Y028701D01*
X012975Y028701D01*
X012975Y028432D01*
X013323Y028432D01*
X013323Y028570D01*
X013312Y028608D01*
X013293Y028643D01*
X013323Y028548D02*
X013706Y028548D01*
X013706Y028450D02*
X013323Y028450D01*
X013323Y028351D02*
X013706Y028351D01*
X013706Y028844D02*
X012182Y028844D01*
X012281Y028942D02*
X013706Y028942D01*
X013706Y029041D02*
X012379Y029041D01*
X012478Y029139D02*
X013706Y029139D01*
X013706Y029238D02*
X012576Y029238D01*
X012675Y029336D02*
X013706Y029336D01*
X014644Y029336D02*
X021769Y029336D01*
X021769Y029238D02*
X014644Y029238D01*
X014644Y029139D02*
X021769Y029139D01*
X021769Y029041D02*
X014644Y029041D01*
X014644Y028942D02*
X021769Y028942D01*
X021769Y028844D02*
X014644Y028844D01*
X014644Y028745D02*
X021769Y028745D01*
X021769Y028647D02*
X014910Y028647D01*
X014919Y028642D02*
X014884Y028661D01*
X014846Y028672D01*
X014708Y028672D01*
X014708Y028324D01*
X014977Y028324D01*
X014977Y028541D01*
X014966Y028579D01*
X014947Y028614D01*
X014919Y028642D01*
X014975Y028548D02*
X021769Y028548D01*
X021769Y028450D02*
X014977Y028450D01*
X014977Y028351D02*
X021769Y028351D01*
X021769Y028253D02*
X014977Y028253D01*
X014977Y028286D02*
X014977Y028069D01*
X014966Y028031D01*
X014947Y027996D01*
X014943Y027993D01*
X014947Y027989D01*
X014966Y027954D01*
X014977Y027916D01*
X014977Y027699D01*
X014708Y027699D01*
X014708Y027661D01*
X014977Y027661D01*
X014977Y027444D01*
X014966Y027406D01*
X014947Y027371D01*
X014919Y027343D01*
X014884Y027324D01*
X014846Y027313D01*
X014774Y027313D01*
X014774Y026930D01*
X020144Y026930D01*
X020144Y026684D01*
X020268Y026684D01*
X020268Y026475D01*
X020269Y026475D01*
X020269Y026684D01*
X020394Y026684D01*
X020394Y026930D01*
X021144Y026930D01*
X021144Y026684D01*
X021144Y026684D01*
X021268Y026684D01*
X021268Y026475D01*
X021269Y026475D01*
X021269Y026684D01*
X021393Y026684D01*
X021443Y026671D01*
X021487Y026646D01*
X021519Y026614D01*
X021519Y027680D01*
X021769Y027680D01*
X021769Y029930D01*
X021519Y029930D01*
X021519Y030305D01*
X014973Y030305D01*
X014977Y030291D01*
X014977Y030074D01*
X014708Y030074D01*
X014708Y030036D01*
X014977Y030036D01*
X014977Y029819D01*
X014966Y029781D01*
X014947Y029746D01*
X014919Y029718D01*
X014884Y029699D01*
X014846Y029688D01*
X014708Y029688D01*
X014708Y030036D01*
X014670Y030036D01*
X014670Y029688D01*
X014644Y029688D01*
X014644Y028672D01*
X014670Y028672D01*
X014670Y028324D01*
X014708Y028324D01*
X014708Y028286D01*
X014977Y028286D01*
X014977Y028154D02*
X021769Y028154D01*
X021769Y028056D02*
X014973Y028056D01*
X014965Y027957D02*
X021769Y027957D01*
X021769Y027859D02*
X014977Y027859D01*
X014977Y027760D02*
X021769Y027760D01*
X021519Y027662D02*
X014708Y027662D01*
X014708Y027699D02*
X014670Y027699D01*
X014670Y028047D01*
X014670Y028286D01*
X014708Y028286D01*
X014708Y027699D01*
X014708Y027760D02*
X014670Y027760D01*
X014670Y027859D02*
X014708Y027859D01*
X014708Y027957D02*
X014670Y027957D01*
X014670Y028056D02*
X014708Y028056D01*
X014708Y028154D02*
X014670Y028154D01*
X014670Y028253D02*
X014708Y028253D01*
X014708Y028351D02*
X014670Y028351D01*
X014670Y028450D02*
X014708Y028450D01*
X014708Y028548D02*
X014670Y028548D01*
X014670Y028647D02*
X014708Y028647D01*
X014644Y029435D02*
X021769Y029435D01*
X021769Y029533D02*
X014644Y029533D01*
X014644Y029632D02*
X021769Y029632D01*
X021769Y029730D02*
X014930Y029730D01*
X014977Y029829D02*
X021769Y029829D01*
X021769Y029927D02*
X014977Y029927D01*
X014977Y030026D02*
X021519Y030026D01*
X021519Y030124D02*
X014977Y030124D01*
X014977Y030223D02*
X021519Y030223D01*
X021769Y030930D02*
X013519Y030930D01*
X013019Y030430D01*
X005081Y030430D01*
X001581Y026993D01*
X001581Y015180D01*
X001094Y015180D01*
X001094Y029608D01*
X003441Y029608D01*
X003499Y029666D01*
X003499Y032013D01*
X023644Y032013D01*
X023644Y031305D01*
X021769Y031305D01*
X021769Y030930D01*
X021769Y031011D02*
X003499Y031011D01*
X003499Y031109D02*
X021769Y031109D01*
X021769Y031208D02*
X003499Y031208D01*
X003499Y031306D02*
X023644Y031306D01*
X023644Y031405D02*
X003499Y031405D01*
X003499Y031503D02*
X023644Y031503D01*
X023644Y031602D02*
X003499Y031602D01*
X003499Y031700D02*
X023644Y031700D01*
X023644Y031799D02*
X003499Y031799D01*
X003499Y031897D02*
X023644Y031897D01*
X023644Y031996D02*
X003499Y031996D01*
X003499Y030912D02*
X013501Y030912D01*
X013402Y030814D02*
X003499Y030814D01*
X003499Y030715D02*
X013304Y030715D01*
X013205Y030617D02*
X003499Y030617D01*
X003499Y030518D02*
X013107Y030518D01*
X014670Y030026D02*
X014708Y030026D01*
X014708Y029927D02*
X014670Y029927D01*
X014670Y029829D02*
X014708Y029829D01*
X014708Y029730D02*
X014670Y029730D01*
X012975Y028647D02*
X012937Y028647D01*
X012937Y028548D02*
X012975Y028548D01*
X012975Y028450D02*
X012937Y028450D01*
X012956Y027822D02*
X012956Y027805D01*
X012831Y027805D01*
X012769Y027743D01*
X012769Y027118D01*
X012670Y027019D01*
X012292Y027019D01*
X012292Y026763D02*
X012789Y026763D01*
X013206Y027180D01*
X013644Y027055D02*
X014081Y027055D01*
X014144Y027118D01*
X014144Y027131D01*
X013644Y027055D02*
X013096Y026507D01*
X012292Y026507D01*
X012292Y027275D02*
X011924Y027275D01*
X011519Y027680D01*
X012206Y027681D02*
X012292Y027580D01*
X012292Y027275D01*
X012225Y028450D02*
X012187Y028450D01*
X012187Y028548D02*
X012225Y028548D01*
X012225Y028647D02*
X012187Y028647D01*
X014774Y027268D02*
X021519Y027268D01*
X021519Y027366D02*
X014941Y027366D01*
X014977Y027465D02*
X021519Y027465D01*
X021519Y027563D02*
X014977Y027563D01*
X014774Y027169D02*
X021519Y027169D01*
X021519Y027071D02*
X014774Y027071D01*
X014774Y026972D02*
X021519Y026972D01*
X021519Y026874D02*
X021144Y026874D01*
X021144Y026775D02*
X021519Y026775D01*
X021519Y026677D02*
X021422Y026677D01*
X021269Y026677D02*
X021268Y026677D01*
X021268Y026578D02*
X021269Y026578D01*
X021268Y026480D02*
X021269Y026480D01*
X020394Y026775D02*
X020144Y026775D01*
X020144Y026874D02*
X020394Y026874D01*
X020268Y026677D02*
X020269Y026677D01*
X020268Y026578D02*
X020269Y026578D01*
X020268Y026480D02*
X020269Y026480D01*
X020268Y025987D02*
X020269Y025987D01*
X020268Y025889D02*
X020269Y025889D01*
X020268Y025790D02*
X020269Y025790D01*
X020268Y025692D02*
X020269Y025692D01*
X020394Y025593D02*
X018519Y025593D01*
X018519Y025692D02*
X020090Y025692D01*
X022956Y027957D02*
X022958Y027957D01*
X022956Y028056D02*
X022958Y028056D01*
X022956Y028154D02*
X022958Y028154D01*
X022956Y028253D02*
X022958Y028253D01*
X022956Y028351D02*
X022958Y028351D01*
X022956Y028450D02*
X022958Y028450D01*
X022956Y028548D02*
X022958Y028548D01*
X022956Y028647D02*
X022958Y028647D01*
X022956Y028745D02*
X022958Y028745D01*
X022956Y028844D02*
X022958Y028844D01*
X022956Y028942D02*
X022958Y028942D01*
X022956Y029041D02*
X022958Y029041D01*
X023061Y029139D02*
X023099Y029139D01*
X023099Y029238D02*
X023061Y029238D01*
X023061Y029336D02*
X023099Y029336D01*
X023099Y029435D02*
X023061Y029435D01*
X023411Y030715D02*
X023511Y030715D01*
X023511Y030814D02*
X023411Y030814D01*
X023411Y030912D02*
X023511Y030912D01*
X023511Y031011D02*
X023411Y031011D01*
X023411Y031109D02*
X023511Y031109D01*
X023511Y031208D02*
X023411Y031208D01*
X023644Y023919D02*
X014144Y023919D01*
X012706Y022305D02*
X010769Y020368D01*
X004769Y020368D01*
X004581Y020180D01*
X004581Y018180D01*
X005443Y017318D01*
X006005Y017318D01*
X006005Y017574D02*
X005624Y017574D01*
X004894Y018305D01*
X004894Y019930D01*
X005019Y020055D01*
X010831Y020055D01*
X010757Y020668D02*
X008644Y020668D01*
X009426Y021653D02*
X010309Y021653D01*
X010277Y021752D02*
X009426Y021752D01*
X009426Y021850D02*
X010277Y021850D01*
X010277Y021949D02*
X009426Y021949D01*
X009426Y022047D02*
X010278Y022047D01*
X010340Y022146D02*
X009426Y022146D01*
X009426Y022244D02*
X010280Y022244D01*
X010257Y022343D02*
X009426Y022343D01*
X009426Y022441D02*
X010257Y022441D01*
X010257Y022540D02*
X009426Y022540D01*
X009426Y022638D02*
X010257Y022638D01*
X010310Y022737D02*
X009426Y022737D01*
X009426Y022835D02*
X010257Y022835D01*
X010257Y022934D02*
X009426Y022934D01*
X009426Y023032D02*
X010257Y023032D01*
X010257Y023131D02*
X009426Y023131D01*
X009426Y023229D02*
X010268Y023229D01*
X010321Y023328D02*
X009426Y023328D01*
X009426Y023426D02*
X010257Y023426D01*
X010257Y023525D02*
X009426Y023525D01*
X009426Y023623D02*
X010257Y023623D01*
X010257Y023722D02*
X009426Y023722D01*
X009426Y023820D02*
X010269Y023820D01*
X010299Y023919D02*
X009443Y023919D01*
X009542Y024017D02*
X010299Y024017D01*
X010299Y024116D02*
X009640Y024116D01*
X008769Y024017D02*
X008727Y024017D01*
X008727Y023919D02*
X008769Y023919D01*
X008769Y023820D02*
X008458Y023820D01*
X008458Y023786D02*
X008727Y023786D01*
X008727Y023569D01*
X008716Y023531D01*
X008697Y023496D01*
X008669Y023468D01*
X008634Y023449D01*
X008596Y023438D01*
X008458Y023438D01*
X008458Y023786D01*
X008458Y023722D02*
X008420Y023722D01*
X008420Y023623D02*
X008458Y023623D01*
X008458Y023525D02*
X008420Y023525D01*
X008713Y023525D02*
X008769Y023525D01*
X008769Y023623D02*
X008727Y023623D01*
X008727Y023722D02*
X008769Y023722D01*
X009129Y025228D02*
X009995Y025228D01*
X009995Y025484D02*
X008635Y025484D01*
X006956Y023805D01*
X006814Y023805D02*
X006814Y023021D01*
X005817Y022024D01*
X005269Y022047D02*
X003894Y022047D01*
X003894Y021949D02*
X005269Y021949D01*
X005269Y021850D02*
X003894Y021850D01*
X003894Y021752D02*
X005269Y021752D01*
X005269Y021653D02*
X003894Y021653D01*
X003894Y021555D02*
X005269Y021555D01*
X005269Y021456D02*
X003894Y021456D01*
X003894Y022146D02*
X005269Y022146D01*
X005269Y022244D02*
X003894Y022244D01*
X003894Y022343D02*
X005269Y022343D01*
X005269Y022441D02*
X003894Y022441D01*
X003894Y022540D02*
X005269Y022540D01*
X005269Y022638D02*
X003894Y022638D01*
X003894Y022737D02*
X005269Y022737D01*
X005312Y022835D02*
X003894Y022835D01*
X003894Y022934D02*
X005312Y022934D01*
X005312Y023032D02*
X003894Y023032D01*
X003894Y023131D02*
X005767Y023131D01*
X005767Y023136D02*
X005312Y023136D01*
X005312Y023402D01*
X005323Y023440D01*
X005342Y023474D01*
X005370Y023502D01*
X005405Y023522D01*
X005443Y023532D01*
X005767Y023532D01*
X005767Y023136D01*
X005767Y023229D02*
X005867Y023229D01*
X005867Y023328D02*
X005767Y023328D01*
X005767Y023426D02*
X005867Y023426D01*
X005867Y023525D02*
X005767Y023525D01*
X005935Y023623D02*
X003894Y023623D01*
X003894Y023525D02*
X005416Y023525D01*
X005319Y023426D02*
X003894Y023426D01*
X003894Y023328D02*
X005312Y023328D01*
X005312Y023229D02*
X003894Y023229D01*
X003894Y023722D02*
X005935Y023722D01*
X005935Y023824D02*
X006204Y023824D01*
X006204Y024172D01*
X006066Y024172D01*
X006028Y024161D01*
X005993Y024142D01*
X005965Y024114D01*
X005946Y024079D01*
X005935Y024041D01*
X005935Y023824D01*
X005935Y023919D02*
X003894Y023919D01*
X003894Y024017D02*
X005935Y024017D01*
X005967Y024116D02*
X003894Y024116D01*
X003894Y024214D02*
X004653Y024214D01*
X004568Y024313D02*
X003894Y024313D01*
X003894Y024411D02*
X004562Y024411D01*
X004287Y024510D02*
X004250Y024510D01*
X004250Y024472D02*
X004250Y024741D01*
X003902Y024741D01*
X003902Y024602D01*
X003912Y024564D01*
X003932Y024530D01*
X003960Y024502D01*
X003994Y024482D01*
X004032Y024472D01*
X004250Y024472D01*
X004250Y024608D02*
X004287Y024608D01*
X004287Y024707D02*
X004250Y024707D01*
X003902Y024707D02*
X003894Y024707D01*
X003894Y024608D02*
X003902Y024608D01*
X003894Y024510D02*
X003952Y024510D01*
X003894Y023820D02*
X006204Y023820D01*
X006204Y023786D02*
X006242Y023786D01*
X006242Y023514D01*
X006229Y023522D01*
X006204Y023528D01*
X006204Y023786D01*
X006204Y023722D02*
X006242Y023722D01*
X006242Y023623D02*
X006204Y023623D01*
X006218Y023525D02*
X006242Y023525D01*
X006242Y023919D02*
X006204Y023919D01*
X006204Y024017D02*
X006242Y024017D01*
X006242Y024116D02*
X006204Y024116D01*
X006307Y024214D02*
X005480Y024214D01*
X005678Y024214D01*
X005579Y024116D02*
X004769Y024116D01*
X004769Y024017D02*
X005481Y024017D01*
X005565Y024313D02*
X006222Y024313D01*
X005565Y024313D01*
X005571Y024411D02*
X006216Y024411D01*
X005571Y024411D01*
X005571Y024510D02*
X006216Y024510D01*
X005571Y024510D01*
X005571Y024707D02*
X006216Y024707D01*
X005571Y024707D01*
X005571Y024805D02*
X006216Y024805D01*
X006216Y024904D02*
X005571Y024904D01*
X005117Y024608D02*
X006670Y024608D01*
X006394Y024608D02*
X005117Y024608D01*
X005117Y024510D02*
X005017Y024510D01*
X005117Y024510D01*
X005117Y024411D02*
X005017Y024411D01*
X005117Y024411D01*
X005117Y024313D02*
X005017Y024313D01*
X005117Y024313D01*
X005117Y024214D02*
X005017Y024214D01*
X005117Y024214D01*
X004706Y025350D02*
X004269Y025350D01*
X004706Y025350D02*
X005067Y025711D01*
X006752Y025680D02*
X007848Y025680D01*
X010644Y023010D02*
X010644Y022475D01*
X010625Y021850D02*
X010662Y021850D01*
X010662Y021752D02*
X010625Y021752D01*
X010625Y021653D02*
X010662Y021653D01*
X011658Y022146D02*
X011754Y022146D01*
X011714Y022244D02*
X011698Y022244D01*
X012062Y022244D02*
X012100Y022244D01*
X012100Y022146D02*
X012062Y022146D01*
X012062Y022343D02*
X012100Y022343D01*
X011331Y022975D02*
X011331Y023475D01*
X011411Y023555D01*
X008081Y019493D02*
X007564Y019493D01*
X007519Y019538D01*
X007519Y018947D02*
X007519Y018680D01*
X006924Y018086D01*
X006005Y018086D01*
X006005Y018342D02*
X006430Y018342D01*
X006769Y018680D01*
X006769Y018947D01*
X006706Y019493D02*
X006144Y019493D01*
X006706Y019493D02*
X006769Y019555D01*
X006769Y019538D01*
X006481Y017830D02*
X006005Y017830D01*
X006481Y017830D02*
X006519Y017805D01*
X006644Y017743D01*
X006644Y017680D01*
X006144Y014180D02*
X004644Y014180D01*
X004564Y014100D01*
X004564Y012430D01*
X004269Y011930D02*
X004394Y011805D01*
X005644Y011805D01*
X005831Y011993D01*
X004269Y011930D02*
X004269Y013368D01*
X004206Y013430D01*
X003706Y013930D01*
X003300Y013930D01*
X001581Y015251D02*
X001094Y015251D01*
X001094Y015349D02*
X001581Y015349D01*
X001581Y015448D02*
X001094Y015448D01*
X001094Y015546D02*
X001581Y015546D01*
X001581Y015645D02*
X001094Y015645D01*
X001094Y015743D02*
X001581Y015743D01*
X001581Y015842D02*
X001094Y015842D01*
X001094Y015940D02*
X001581Y015940D01*
X001581Y016039D02*
X001094Y016039D01*
X001094Y016137D02*
X001581Y016137D01*
X001581Y016236D02*
X001094Y016236D01*
X001094Y016334D02*
X001581Y016334D01*
X001581Y016433D02*
X001094Y016433D01*
X001094Y016531D02*
X001581Y016531D01*
X001581Y016630D02*
X001094Y016630D01*
X001094Y016728D02*
X001581Y016728D01*
X001581Y016827D02*
X001094Y016827D01*
X001094Y016925D02*
X001581Y016925D01*
X001581Y017024D02*
X001094Y017024D01*
X001094Y017122D02*
X001581Y017122D01*
X001581Y017221D02*
X001094Y017221D01*
X001094Y017319D02*
X001581Y017319D01*
X001581Y017418D02*
X001094Y017418D01*
X001094Y017516D02*
X001581Y017516D01*
X001581Y017615D02*
X001094Y017615D01*
X001094Y017713D02*
X001581Y017713D01*
X001581Y017812D02*
X001094Y017812D01*
X001094Y017910D02*
X001581Y017910D01*
X001581Y018009D02*
X001094Y018009D01*
X001094Y018107D02*
X001581Y018107D01*
X001581Y018206D02*
X001094Y018206D01*
X001094Y018304D02*
X001581Y018304D01*
X001581Y018403D02*
X001094Y018403D01*
X001094Y018501D02*
X001581Y018501D01*
X001581Y018600D02*
X001094Y018600D01*
X001094Y018698D02*
X001581Y018698D01*
X001581Y018797D02*
X001094Y018797D01*
X001094Y018895D02*
X001581Y018895D01*
X001581Y018994D02*
X001094Y018994D01*
X001094Y019092D02*
X001581Y019092D01*
X001581Y019191D02*
X001094Y019191D01*
X001094Y019289D02*
X001581Y019289D01*
X001581Y019388D02*
X001094Y019388D01*
X001094Y019486D02*
X001581Y019486D01*
X001581Y019585D02*
X001094Y019585D01*
X001094Y019683D02*
X001581Y019683D01*
X001581Y019782D02*
X001094Y019782D01*
X001094Y019880D02*
X001581Y019880D01*
X001581Y019979D02*
X001094Y019979D01*
X001094Y020077D02*
X001581Y020077D01*
X001581Y020176D02*
X001094Y020176D01*
X001094Y020274D02*
X001581Y020274D01*
X001581Y020373D02*
X001094Y020373D01*
X001094Y020471D02*
X001581Y020471D01*
X001581Y020570D02*
X001094Y020570D01*
X001094Y020668D02*
X001581Y020668D01*
X001581Y020767D02*
X001094Y020767D01*
X001094Y020865D02*
X001581Y020865D01*
X001581Y020964D02*
X001094Y020964D01*
X001094Y021062D02*
X001581Y021062D01*
X001581Y021161D02*
X001094Y021161D01*
X001094Y021259D02*
X001581Y021259D01*
X001581Y021358D02*
X001094Y021358D01*
X001094Y021456D02*
X001581Y021456D01*
X001581Y021555D02*
X001094Y021555D01*
X001094Y021653D02*
X001581Y021653D01*
X001581Y021752D02*
X001094Y021752D01*
X001094Y021850D02*
X001581Y021850D01*
X001581Y021949D02*
X001094Y021949D01*
X001094Y022047D02*
X001581Y022047D01*
X001581Y022146D02*
X001094Y022146D01*
X001094Y022244D02*
X001581Y022244D01*
X001581Y022343D02*
X001094Y022343D01*
X001094Y022441D02*
X001581Y022441D01*
X001581Y022540D02*
X001094Y022540D01*
X001094Y022638D02*
X001581Y022638D01*
X001581Y022737D02*
X001094Y022737D01*
X001094Y022835D02*
X001581Y022835D01*
X001581Y022934D02*
X001094Y022934D01*
X001094Y023032D02*
X001581Y023032D01*
X001581Y023131D02*
X001094Y023131D01*
X001094Y023229D02*
X001581Y023229D01*
X001581Y023328D02*
X001094Y023328D01*
X001094Y023426D02*
X001581Y023426D01*
X001581Y023525D02*
X001094Y023525D01*
X001094Y023623D02*
X001581Y023623D01*
X001581Y023722D02*
X001094Y023722D01*
X001094Y023820D02*
X001581Y023820D01*
X001581Y023919D02*
X001094Y023919D01*
X001094Y024017D02*
X001581Y024017D01*
X001581Y024116D02*
X001094Y024116D01*
X001094Y024214D02*
X001581Y024214D01*
X001581Y024313D02*
X001094Y024313D01*
X001094Y024411D02*
X001581Y024411D01*
X001581Y024510D02*
X001094Y024510D01*
X001094Y024608D02*
X001581Y024608D01*
X001581Y024707D02*
X001094Y024707D01*
X001094Y024805D02*
X001581Y024805D01*
X001581Y024904D02*
X001094Y024904D01*
X001094Y025002D02*
X001581Y025002D01*
X001581Y025101D02*
X001094Y025101D01*
X001094Y025199D02*
X001581Y025199D01*
X001581Y025298D02*
X001094Y025298D01*
X001094Y025396D02*
X001581Y025396D01*
X001581Y025495D02*
X001094Y025495D01*
X001094Y025593D02*
X001581Y025593D01*
X001581Y025692D02*
X001094Y025692D01*
X001094Y025790D02*
X001581Y025790D01*
X001581Y025889D02*
X001094Y025889D01*
X001094Y025987D02*
X001581Y025987D01*
X001581Y026086D02*
X001094Y026086D01*
X001094Y026184D02*
X001581Y026184D01*
X001581Y026283D02*
X001094Y026283D01*
X001094Y026381D02*
X001581Y026381D01*
X001581Y026480D02*
X001094Y026480D01*
X001094Y026578D02*
X001581Y026578D01*
X001581Y026677D02*
X001094Y026677D01*
X001094Y026775D02*
X001581Y026775D01*
X001581Y026874D02*
X001094Y026874D01*
X001094Y026972D02*
X001581Y026972D01*
X001660Y027071D02*
X001094Y027071D01*
X001094Y027169D02*
X001761Y027169D01*
X001861Y027268D02*
X001094Y027268D01*
X001094Y027366D02*
X001961Y027366D01*
X002062Y027465D02*
X001094Y027465D01*
X001094Y027563D02*
X002162Y027563D01*
X002262Y027662D02*
X001094Y027662D01*
X001094Y027760D02*
X002363Y027760D01*
X002463Y027859D02*
X001094Y027859D01*
X001094Y027957D02*
X002563Y027957D01*
X002663Y028056D02*
X001094Y028056D01*
X001094Y028154D02*
X002764Y028154D01*
X002864Y028253D02*
X001094Y028253D01*
X001094Y028351D02*
X002964Y028351D01*
X003065Y028450D02*
X001094Y028450D01*
X001094Y028548D02*
X003165Y028548D01*
X003265Y028647D02*
X001094Y028647D01*
X001094Y028745D02*
X003365Y028745D01*
X003466Y028844D02*
X001094Y028844D01*
X001094Y028942D02*
X003566Y028942D01*
X003666Y029041D02*
X001094Y029041D01*
X001094Y029139D02*
X003767Y029139D01*
X003867Y029238D02*
X001094Y029238D01*
X001094Y029336D02*
X003967Y029336D01*
X004067Y029435D02*
X001094Y029435D01*
X001094Y029533D02*
X004168Y029533D01*
X004268Y029632D02*
X003465Y029632D01*
X003499Y029730D02*
X004368Y029730D01*
X004469Y029829D02*
X003499Y029829D01*
X003499Y029927D02*
X004569Y029927D01*
X004669Y030026D02*
X003499Y030026D01*
X003499Y030124D02*
X004770Y030124D01*
X004870Y030223D02*
X003499Y030223D01*
X003499Y030321D02*
X004970Y030321D01*
X005070Y030420D02*
X003499Y030420D01*
X003362Y025899D02*
X003331Y025868D01*
X014519Y012635D02*
X014519Y012368D01*
X014956Y011930D01*
X017144Y010368D02*
X017144Y008305D01*
X017132Y008305D01*
X017135Y008318D01*
X017135Y008456D01*
X016787Y008456D01*
X016787Y008494D01*
X016750Y008494D01*
X016750Y008763D01*
X016532Y008763D01*
X016494Y008753D01*
X016460Y008733D01*
X016432Y008705D01*
X016412Y008671D01*
X016402Y008633D01*
X016402Y008494D01*
X016750Y008494D01*
X016750Y008456D01*
X016402Y008456D01*
X016402Y008318D01*
X016405Y008305D01*
X016382Y008305D01*
X016385Y008318D01*
X016385Y008456D01*
X016037Y008456D01*
X016037Y008494D01*
X016000Y008494D01*
X016000Y008763D01*
X015782Y008763D01*
X015744Y008753D01*
X015710Y008733D01*
X015682Y008705D01*
X015673Y008689D01*
X015658Y008698D01*
X015620Y008708D01*
X015181Y008708D01*
X015181Y008444D01*
X015153Y008444D01*
X015153Y008416D01*
X014584Y008416D01*
X014584Y008305D01*
X014206Y008305D01*
X014206Y008868D01*
X013693Y008868D01*
X013697Y008871D01*
X013716Y008906D01*
X013727Y008944D01*
X013727Y009161D01*
X013458Y009161D01*
X013458Y009199D01*
X013727Y009199D01*
X013727Y009416D01*
X013716Y009454D01*
X013697Y009489D01*
X013669Y009517D01*
X013634Y009536D01*
X013596Y009547D01*
X013458Y009547D01*
X013458Y009199D01*
X013420Y009199D01*
X013420Y009547D01*
X013331Y009547D01*
X013331Y009680D01*
X012519Y009680D01*
X012519Y008493D01*
X012510Y008493D01*
X012510Y008581D01*
X012162Y008581D01*
X012162Y008619D01*
X012125Y008619D01*
X012125Y008888D01*
X011907Y008888D01*
X011869Y008878D01*
X011835Y008858D01*
X011807Y008830D01*
X011787Y008796D01*
X011777Y008758D01*
X011777Y008619D01*
X012125Y008619D01*
X012125Y008581D01*
X011777Y008581D01*
X011777Y008493D01*
X011581Y008493D01*
X011589Y008521D01*
X011589Y008660D01*
X011162Y008660D01*
X011162Y008698D01*
X011125Y008698D01*
X011125Y008967D01*
X010828Y008967D01*
X010790Y008957D01*
X010756Y008937D01*
X010728Y008909D01*
X010708Y008875D01*
X010698Y008837D01*
X010698Y008698D01*
X011125Y008698D01*
X011125Y008660D01*
X010698Y008660D01*
X010698Y008521D01*
X010706Y008493D01*
X010654Y008493D01*
X010660Y008503D01*
X010670Y008541D01*
X010670Y008670D01*
X010289Y008670D01*
X010289Y008493D01*
X010271Y008493D01*
X010271Y008670D01*
X009890Y008670D01*
X009890Y008541D01*
X009900Y008503D01*
X009906Y008493D01*
X009831Y008493D01*
X009831Y009118D01*
X008831Y009118D01*
X008831Y008944D01*
X008809Y008957D01*
X008771Y008967D01*
X008475Y008967D01*
X008475Y008698D01*
X008437Y008698D01*
X008437Y008967D01*
X008141Y008967D01*
X008103Y008957D01*
X008081Y008944D01*
X008081Y010368D01*
X017144Y010368D01*
X017144Y010326D02*
X008081Y010326D01*
X008081Y010227D02*
X017144Y010227D01*
X017144Y010129D02*
X008081Y010129D01*
X008081Y010030D02*
X017144Y010030D01*
X017144Y009932D02*
X008081Y009932D01*
X008081Y009833D02*
X017144Y009833D01*
X017144Y009735D02*
X008081Y009735D01*
X008081Y009636D02*
X012519Y009636D01*
X012519Y009538D02*
X008081Y009538D01*
X008081Y009439D02*
X012519Y009439D01*
X012519Y009341D02*
X008081Y009341D01*
X008081Y009242D02*
X012519Y009242D01*
X012519Y009144D02*
X008081Y009144D01*
X008081Y009045D02*
X008831Y009045D01*
X008827Y008947D02*
X008831Y008947D01*
X008475Y008947D02*
X008437Y008947D01*
X008437Y008848D02*
X008475Y008848D01*
X008475Y008750D02*
X008437Y008750D01*
X008085Y008947D02*
X008081Y008947D01*
X007456Y008947D02*
X004144Y008947D01*
X004144Y009045D02*
X007456Y009045D01*
X007456Y009144D02*
X004144Y009144D01*
X004144Y009242D02*
X007456Y009242D01*
X007456Y009341D02*
X004144Y009341D01*
X004144Y009439D02*
X007456Y009439D01*
X007456Y009538D02*
X004144Y009538D01*
X004144Y009636D02*
X007456Y009636D01*
X007456Y009735D02*
X004144Y009735D01*
X004144Y009805D02*
X004706Y010368D01*
X007456Y010368D01*
X007456Y008493D01*
X007385Y008493D01*
X007385Y008581D01*
X007037Y008581D01*
X007037Y008619D01*
X007000Y008619D01*
X007000Y008888D01*
X006782Y008888D01*
X006744Y008878D01*
X006710Y008858D01*
X006682Y008830D01*
X006662Y008796D01*
X006652Y008758D01*
X006652Y008619D01*
X007000Y008619D01*
X007000Y008581D01*
X006652Y008581D01*
X006652Y008493D01*
X005135Y008493D01*
X005135Y008581D01*
X004787Y008581D01*
X004787Y008619D01*
X004750Y008619D01*
X004750Y008888D01*
X004532Y008888D01*
X004494Y008878D01*
X004460Y008858D01*
X004432Y008830D01*
X004412Y008796D01*
X004402Y008758D01*
X004402Y008619D01*
X004750Y008619D01*
X004750Y008581D01*
X004402Y008581D01*
X004402Y008493D01*
X004144Y008493D01*
X004144Y009805D01*
X004172Y009833D02*
X007456Y009833D01*
X007456Y009932D02*
X004270Y009932D01*
X004369Y010030D02*
X007456Y010030D01*
X007456Y010129D02*
X004467Y010129D01*
X004566Y010227D02*
X007456Y010227D01*
X007456Y010326D02*
X004664Y010326D01*
X004787Y008888D02*
X004787Y008619D01*
X005135Y008619D01*
X005135Y008758D01*
X005125Y008796D01*
X005105Y008830D01*
X005077Y008858D01*
X005043Y008878D01*
X005005Y008888D01*
X004787Y008888D01*
X004787Y008848D02*
X004750Y008848D01*
X004750Y008750D02*
X004787Y008750D01*
X004787Y008651D02*
X004750Y008651D01*
X004402Y008651D02*
X004144Y008651D01*
X004144Y008553D02*
X004402Y008553D01*
X004402Y008750D02*
X004144Y008750D01*
X004144Y008848D02*
X004450Y008848D01*
X005087Y008848D02*
X006700Y008848D01*
X006652Y008750D02*
X005135Y008750D01*
X005135Y008651D02*
X006652Y008651D01*
X006652Y008553D02*
X005135Y008553D01*
X007000Y008651D02*
X007037Y008651D01*
X007037Y008619D02*
X007037Y008888D01*
X007255Y008888D01*
X007293Y008878D01*
X007327Y008858D01*
X007355Y008830D01*
X007375Y008796D01*
X007385Y008758D01*
X007385Y008619D01*
X007037Y008619D01*
X007037Y008750D02*
X007000Y008750D01*
X007000Y008848D02*
X007037Y008848D01*
X007337Y008848D02*
X007456Y008848D01*
X007456Y008750D02*
X007385Y008750D01*
X007385Y008651D02*
X007456Y008651D01*
X007456Y008553D02*
X007385Y008553D01*
X009831Y008553D02*
X009890Y008553D01*
X009890Y008651D02*
X009831Y008651D01*
X009890Y008688D02*
X009890Y008817D01*
X009900Y008855D01*
X009920Y008889D01*
X009948Y008917D01*
X009982Y008937D01*
X010020Y008947D01*
X010271Y008947D01*
X010271Y008688D01*
X010271Y008670D01*
X010289Y008670D01*
X010289Y008688D01*
X010271Y008688D01*
X009890Y008688D01*
X009890Y008750D02*
X009831Y008750D01*
X009831Y008848D02*
X009899Y008848D01*
X009831Y008947D02*
X010018Y008947D01*
X009831Y009045D02*
X012519Y009045D01*
X012519Y008947D02*
X011514Y008947D01*
X011531Y008937D02*
X011497Y008957D01*
X011459Y008967D01*
X011162Y008967D01*
X011162Y008698D01*
X011589Y008698D01*
X011589Y008837D01*
X011579Y008875D01*
X011559Y008909D01*
X011531Y008937D01*
X011586Y008848D02*
X011825Y008848D01*
X011777Y008750D02*
X011589Y008750D01*
X011589Y008651D02*
X011777Y008651D01*
X011777Y008553D02*
X011589Y008553D01*
X011162Y008750D02*
X011125Y008750D01*
X011125Y008848D02*
X011162Y008848D01*
X011162Y008947D02*
X011125Y008947D01*
X010773Y008947D02*
X010542Y008947D01*
X010540Y008947D02*
X010289Y008947D01*
X010289Y008688D01*
X010670Y008688D01*
X010670Y008817D01*
X010660Y008855D01*
X010641Y008889D01*
X010613Y008917D01*
X010578Y008937D01*
X010540Y008947D01*
X010662Y008848D02*
X010701Y008848D01*
X010698Y008750D02*
X010670Y008750D01*
X010670Y008651D02*
X010698Y008651D01*
X010698Y008553D02*
X010670Y008553D01*
X010289Y008553D02*
X010271Y008553D01*
X010271Y008651D02*
X010289Y008651D01*
X010289Y008750D02*
X010271Y008750D01*
X010271Y008848D02*
X010289Y008848D01*
X010289Y008947D02*
X010271Y008947D01*
X012125Y008848D02*
X012162Y008848D01*
X012162Y008888D02*
X012162Y008619D01*
X012510Y008619D01*
X012510Y008758D01*
X012500Y008796D01*
X012480Y008830D01*
X012452Y008858D01*
X012418Y008878D01*
X012380Y008888D01*
X012162Y008888D01*
X012162Y008750D02*
X012125Y008750D01*
X012125Y008651D02*
X012162Y008651D01*
X012510Y008651D02*
X012519Y008651D01*
X012510Y008553D02*
X012519Y008553D01*
X012510Y008750D02*
X012519Y008750D01*
X012519Y008848D02*
X012462Y008848D01*
X013420Y009242D02*
X013458Y009242D01*
X013458Y009341D02*
X013420Y009341D01*
X013420Y009439D02*
X013458Y009439D01*
X013458Y009538D02*
X013420Y009538D01*
X013331Y009636D02*
X017144Y009636D01*
X017144Y009538D02*
X013630Y009538D01*
X013720Y009439D02*
X017144Y009439D01*
X017144Y009341D02*
X013727Y009341D01*
X013727Y009242D02*
X017144Y009242D01*
X017144Y009144D02*
X013727Y009144D01*
X013727Y009045D02*
X017144Y009045D01*
X017144Y008947D02*
X013727Y008947D01*
X014206Y008848D02*
X017144Y008848D01*
X017144Y008750D02*
X017049Y008750D01*
X017043Y008753D02*
X017005Y008763D01*
X016787Y008763D01*
X016787Y008494D01*
X017135Y008494D01*
X017135Y008633D01*
X017125Y008671D01*
X017105Y008705D01*
X017077Y008733D01*
X017043Y008753D01*
X017130Y008651D02*
X017144Y008651D01*
X017135Y008553D02*
X017144Y008553D01*
X017135Y008454D02*
X017144Y008454D01*
X017135Y008356D02*
X017144Y008356D01*
X016787Y008553D02*
X016750Y008553D01*
X016750Y008651D02*
X016787Y008651D01*
X016787Y008750D02*
X016750Y008750D01*
X016488Y008750D02*
X016299Y008750D01*
X016293Y008753D02*
X016255Y008763D01*
X016037Y008763D01*
X016037Y008494D01*
X016385Y008494D01*
X016385Y008633D01*
X016375Y008671D01*
X016355Y008705D01*
X016327Y008733D01*
X016293Y008753D01*
X016380Y008651D02*
X016407Y008651D01*
X016402Y008553D02*
X016385Y008553D01*
X016385Y008454D02*
X016402Y008454D01*
X016402Y008356D02*
X016385Y008356D01*
X016037Y008553D02*
X016000Y008553D01*
X016000Y008651D02*
X016037Y008651D01*
X016037Y008750D02*
X016000Y008750D01*
X015738Y008750D02*
X014206Y008750D01*
X014206Y008651D02*
X014615Y008651D01*
X014614Y008650D02*
X014594Y008616D01*
X014584Y008578D01*
X014584Y008444D01*
X015153Y008444D01*
X015153Y008708D01*
X014714Y008708D01*
X014676Y008698D01*
X014642Y008678D01*
X014614Y008650D01*
X014584Y008553D02*
X014206Y008553D01*
X014206Y008454D02*
X014584Y008454D01*
X014584Y008356D02*
X014206Y008356D01*
X015153Y008454D02*
X015181Y008454D01*
X015181Y008553D02*
X015153Y008553D01*
X015153Y008651D02*
X015181Y008651D01*
X016019Y005725D02*
X017473Y005725D01*
X017519Y005680D01*
X017519Y005362D01*
X017577Y005304D01*
X017577Y005247D01*
X017581Y005243D01*
X017598Y005225D01*
X017644Y005180D01*
X017598Y005225D02*
X018269Y005225D01*
X017577Y004556D02*
X019019Y004556D01*
X019144Y004680D01*
X013120Y003430D02*
X012394Y003430D01*
X012144Y003680D01*
X018144Y013180D02*
X018144Y013368D01*
X018144Y013385D01*
X019501Y013368D02*
X019501Y013930D01*
D175*
X020144Y020680D03*
X021644Y020680D03*
X023144Y020680D03*
X024644Y020680D03*
X026144Y020680D03*
X027644Y020680D03*
X029144Y020680D03*
X030644Y020680D03*
X032144Y020680D03*
X032144Y021680D03*
X032144Y023180D03*
X032144Y024680D03*
X032144Y026180D03*
X032144Y027680D03*
X032144Y029180D03*
X030644Y029180D03*
X030144Y028180D03*
X028144Y028180D03*
X026644Y027180D03*
X025144Y027180D03*
X023644Y027180D03*
X023644Y027993D03*
X023644Y028680D03*
X023644Y029493D03*
X024144Y030368D03*
X024144Y030993D03*
X023644Y031680D03*
X022144Y031680D03*
X020644Y031680D03*
X019144Y031680D03*
X017644Y031680D03*
X016144Y031680D03*
X014644Y031680D03*
X013144Y031680D03*
X013081Y030805D03*
X012894Y029305D03*
X012956Y028868D03*
X012331Y028868D03*
X013456Y028430D03*
X013581Y029305D03*
X015144Y028680D03*
X015144Y029993D03*
X016644Y029993D03*
X018144Y029993D03*
X019644Y029993D03*
X021144Y029993D03*
X021644Y028680D03*
X021144Y027180D03*
X020769Y026555D03*
X020769Y025993D03*
X020144Y025180D03*
X018894Y025180D03*
X018144Y024680D03*
X017394Y024680D03*
X016644Y024680D03*
X015644Y025180D03*
X014144Y025180D03*
X013394Y025555D03*
X012831Y025493D03*
X013144Y027180D03*
X011519Y027680D03*
X010894Y029180D03*
X010269Y029180D03*
X009019Y029180D03*
X009019Y028680D03*
X008019Y028555D03*
X008019Y029180D03*
X008644Y030680D03*
X008644Y031680D03*
X007144Y031680D03*
X007144Y030680D03*
X005644Y030680D03*
X005644Y031680D03*
X004144Y031680D03*
X004144Y030180D03*
X003144Y029180D03*
X002144Y028180D03*
X001644Y029180D03*
X001394Y027180D03*
X001394Y025180D03*
X001394Y023680D03*
X001394Y022180D03*
X001394Y020680D03*
X001394Y019180D03*
X001394Y017680D03*
X001394Y016180D03*
X003019Y016243D03*
X003331Y015930D03*
X003831Y015868D03*
X004269Y015805D03*
X006644Y017680D03*
X009706Y015493D03*
X010644Y015180D03*
X011644Y015180D03*
X012644Y020680D03*
X013644Y021680D03*
X014144Y020680D03*
X015644Y020680D03*
X017144Y020680D03*
X018644Y020680D03*
X021644Y025180D03*
X023144Y025180D03*
X024644Y025180D03*
X026144Y025180D03*
X027644Y025180D03*
X029644Y030180D03*
X029644Y031680D03*
X028144Y031680D03*
X026644Y031680D03*
X025144Y031680D03*
X019644Y027180D03*
X018144Y027180D03*
X016644Y027180D03*
X015144Y027180D03*
X011644Y030680D03*
X011644Y031680D03*
X010144Y031680D03*
X010144Y030680D03*
X009206Y025743D03*
X008519Y023180D03*
X008394Y022055D03*
X007519Y021430D03*
X009144Y020805D03*
X010144Y020805D03*
X010644Y021430D03*
X011269Y021930D03*
X011644Y021930D03*
X010019Y023180D03*
X013644Y023180D03*
X005706Y023868D03*
X005081Y024055D03*
X005081Y023118D03*
X004144Y023118D03*
X004144Y024180D03*
X004144Y021680D03*
X005081Y021680D03*
X024394Y006180D03*
X025956Y006180D03*
D176*
X026331Y006368D02*
X026331Y005215D01*
X026366Y005180D01*
X026858Y005180D02*
X026858Y006465D01*
X026644Y006680D01*
X025439Y007885D01*
X016769Y007885D01*
X016769Y006805D02*
X016644Y006680D01*
X016144Y006180D01*
X013644Y006180D01*
X013120Y006704D01*
X013120Y006930D01*
X011144Y008679D02*
X011082Y008679D01*
X011081Y008680D01*
X012644Y011680D02*
X012737Y011774D01*
X012737Y012546D01*
X013564Y011805D02*
X014144Y011805D01*
X013800Y013314D02*
X013973Y013487D01*
X013973Y013805D01*
X013973Y014430D01*
X013973Y014913D01*
X013894Y014993D01*
X013894Y015510D01*
X013894Y016100D02*
X013894Y016572D01*
X012644Y014993D02*
X012564Y014913D01*
X012564Y014430D01*
X012644Y014430D01*
X012564Y014350D01*
X012564Y013805D01*
X008257Y013304D02*
X007957Y013304D01*
X007956Y013305D01*
X007894Y013243D01*
X007894Y013180D01*
X007848Y013225D01*
X007394Y013225D01*
X007394Y013243D01*
X007019Y013618D01*
X006606Y013314D02*
X006597Y013305D01*
X006269Y013305D01*
X006206Y013243D01*
X006206Y012868D01*
X006271Y012802D01*
X006606Y012802D01*
X006896Y012802D01*
X006956Y012743D01*
X006956Y012618D01*
X006894Y012555D01*
X006615Y012555D01*
X006606Y012546D01*
X005681Y012546D01*
X005681Y012180D02*
X005618Y012118D01*
X005269Y012180D02*
X005269Y012993D01*
X005334Y013058D01*
X005681Y013058D01*
X003973Y012430D02*
X003300Y012430D01*
X007894Y012993D02*
X007894Y013180D01*
X007894Y012993D02*
X007956Y012930D01*
X008257Y012930D01*
X016769Y006805D02*
X017644Y006805D01*
X018206Y006805D01*
X019644Y007180D02*
X025519Y007180D01*
X026331Y006368D01*
X019144Y004680D02*
X019019Y004556D01*
X017577Y004556D01*
X007470Y023086D02*
X007848Y023464D01*
X007848Y023805D02*
X007956Y023913D01*
X007956Y024055D01*
X006956Y023805D02*
X006814Y023805D01*
X006223Y023805D02*
X006223Y023760D01*
X005817Y023353D01*
X005817Y023086D01*
X006752Y025680D02*
X006720Y025711D01*
X008439Y025680D02*
X008635Y025484D01*
X009995Y027275D02*
X009995Y027391D01*
X009956Y027430D01*
X012969Y026993D02*
X012999Y027022D01*
X012999Y027493D01*
X013269Y027493D01*
X013269Y027526D01*
X013353Y027610D01*
X013353Y028035D01*
X013269Y028119D01*
X013269Y028146D01*
X013706Y028146D01*
X013706Y028028D02*
X013353Y028028D01*
X013353Y027909D02*
X013706Y027909D01*
X013706Y027791D02*
X013353Y027791D01*
X013353Y027672D02*
X013706Y027672D01*
X013706Y027554D02*
X013296Y027554D01*
X013464Y027406D02*
X013464Y027200D01*
X013414Y027150D01*
X013256Y026993D01*
X012969Y026993D01*
X012999Y027080D02*
X013343Y027080D01*
X013461Y027198D02*
X012999Y027198D01*
X012999Y027317D02*
X013464Y027317D01*
X013464Y027406D02*
X013569Y027512D01*
X013706Y027512D01*
X013706Y028493D01*
X013333Y028493D01*
X013333Y028422D01*
X013269Y028422D01*
X013269Y028404D01*
X013333Y028404D01*
X013333Y028254D01*
X013322Y028213D01*
X013301Y028177D01*
X013271Y028147D01*
X013269Y028146D01*
X013333Y028265D02*
X013706Y028265D01*
X013706Y028383D02*
X013333Y028383D01*
X013492Y027435D02*
X012999Y027435D01*
X019751Y026305D02*
X019840Y026278D01*
X020269Y026278D01*
X021269Y026278D02*
X022193Y026278D01*
X022269Y026354D01*
D177*
X011956Y016743D03*
X011956Y016243D03*
X012644Y014993D03*
X013894Y014993D03*
X014144Y011805D03*
X014581Y009743D03*
X014581Y009243D03*
X015081Y009243D03*
X015081Y009743D03*
X015581Y009743D03*
X015581Y009243D03*
X017644Y011805D03*
X017644Y012930D03*
X019519Y014493D03*
X019081Y015618D03*
X015144Y005618D03*
X014644Y005618D03*
X014144Y005618D03*
X012206Y005680D03*
X011706Y005680D03*
X007081Y007430D03*
X006956Y009118D03*
X006956Y009868D03*
X004769Y009868D03*
X004769Y009055D03*
X006144Y026680D03*
X006144Y028680D03*
X024644Y003680D03*
X025144Y003680D03*
X025644Y003680D03*
X025644Y003180D03*
X025144Y003180D03*
X024644Y003180D03*
D178*
X024894Y006305D03*
X024019Y006805D03*
X023394Y006805D03*
X022644Y006680D03*
X023144Y008680D03*
X023644Y008680D03*
X019644Y007180D03*
X018206Y006805D03*
X019144Y004680D03*
X014956Y011930D03*
X012144Y012180D03*
X007644Y014180D03*
X007019Y013618D03*
X006144Y014180D03*
X005269Y012180D03*
X005144Y011180D03*
X003144Y011743D03*
D179*
X011144Y006055D02*
X011144Y005680D01*
X011831Y004993D01*
X012519Y004993D01*
X012519Y006055D01*
X011144Y006055D01*
X011144Y006049D02*
X012519Y006049D01*
X012519Y006001D02*
X011144Y006001D01*
X011144Y005953D02*
X012519Y005953D01*
X012519Y005906D02*
X011144Y005906D01*
X011144Y005858D02*
X012519Y005858D01*
X012519Y005810D02*
X011144Y005810D01*
X011144Y005762D02*
X012519Y005762D01*
X012519Y005715D02*
X011144Y005715D01*
X011157Y005667D02*
X012519Y005667D01*
X012519Y005619D02*
X011204Y005619D01*
X011252Y005572D02*
X012519Y005572D01*
X012519Y005524D02*
X011300Y005524D01*
X011347Y005476D02*
X012519Y005476D01*
X012519Y005428D02*
X011395Y005428D01*
X011443Y005381D02*
X012519Y005381D01*
X012519Y005333D02*
X011491Y005333D01*
X011538Y005285D02*
X012519Y005285D01*
X012519Y005238D02*
X011586Y005238D01*
X011634Y005190D02*
X012519Y005190D01*
X012519Y005142D02*
X011681Y005142D01*
X011729Y005094D02*
X012519Y005094D01*
X012519Y005047D02*
X011777Y005047D01*
X011825Y004999D02*
X012519Y004999D01*
X013331Y005430D02*
X013331Y005930D01*
X016269Y005930D01*
X016269Y005618D01*
X015581Y005618D01*
X015581Y004805D01*
X013956Y004805D01*
X013956Y005430D01*
X013331Y005430D01*
X013331Y005476D02*
X015581Y005476D01*
X015581Y005428D02*
X013956Y005428D01*
X013956Y005381D02*
X015581Y005381D01*
X015581Y005333D02*
X013956Y005333D01*
X013956Y005285D02*
X015581Y005285D01*
X015581Y005238D02*
X013956Y005238D01*
X013956Y005190D02*
X015581Y005190D01*
X015581Y005142D02*
X013956Y005142D01*
X013956Y005094D02*
X015581Y005094D01*
X015581Y005047D02*
X013956Y005047D01*
X013956Y004999D02*
X015581Y004999D01*
X015581Y004951D02*
X013956Y004951D01*
X013956Y004904D02*
X015581Y004904D01*
X015581Y004856D02*
X013956Y004856D01*
X013956Y004808D02*
X015581Y004808D01*
X015581Y005524D02*
X013331Y005524D01*
X013331Y005572D02*
X015581Y005572D01*
X016269Y005619D02*
X013331Y005619D01*
X013331Y005667D02*
X016269Y005667D01*
X016269Y005715D02*
X013331Y005715D01*
X013331Y005762D02*
X016269Y005762D01*
X016269Y005810D02*
X013331Y005810D01*
X013331Y005858D02*
X016269Y005858D01*
X016269Y005906D02*
X013331Y005906D01*
D180*
X012848Y005680D02*
X012848Y004975D01*
X012894Y004930D01*
X013120Y004930D01*
X013144Y004930D01*
X013120Y004930D01*
X015167Y004430D02*
X015848Y004430D01*
X016019Y004600D01*
X016019Y005135D01*
X016223Y004930D01*
X016710Y004930D01*
X017577Y004556D02*
X018190Y004556D01*
X018269Y004635D01*
X016769Y007885D02*
X016019Y007885D01*
X015973Y007930D01*
X015167Y007930D01*
X013120Y008430D02*
X012894Y008430D01*
X012848Y008475D01*
X012848Y009180D01*
X017644Y012930D02*
X017644Y014180D01*
X017644Y014493D01*
X017394Y014743D01*
X017394Y015493D01*
X017514Y015613D01*
X017769Y015613D01*
X018518Y015613D02*
X019077Y015613D01*
X019081Y015618D01*
X019501Y015197D01*
X019501Y013930D01*
X014769Y015243D02*
X014206Y015243D01*
X013956Y014993D01*
X013894Y016100D02*
X014626Y016100D01*
X014769Y016243D01*
X011956Y016243D02*
X011939Y016225D01*
X011394Y016225D01*
X011939Y016760D02*
X011956Y016743D01*
X011939Y016760D02*
X011394Y016760D01*
X009002Y015087D02*
X009002Y014696D01*
X009206Y014493D01*
X009314Y014385D01*
X009644Y014385D01*
X005681Y012546D02*
X005681Y012180D01*
X005681Y012143D01*
X005067Y025711D02*
X005067Y026103D01*
X005644Y026680D01*
X006144Y026680D01*
X006144Y028680D02*
X006144Y029680D01*
X012292Y026251D02*
X014121Y026251D01*
X014144Y026229D01*
X014219Y026305D01*
X015036Y026305D01*
X015626Y026305D02*
X016473Y026305D01*
X016473Y025896D01*
X016644Y025725D01*
X016411Y026243D02*
X016473Y026305D01*
X017064Y026305D02*
X017331Y026305D01*
X017394Y026243D01*
X017394Y025725D01*
X017331Y026305D02*
X017723Y026305D01*
X018314Y026305D02*
X019161Y026305D01*
X018314Y026305D02*
X018314Y025896D01*
X018144Y025725D01*
X022269Y026354D02*
X022318Y026305D01*
X023348Y026305D01*
X023939Y026305D02*
X024797Y026305D01*
X026115Y026305D02*
X026973Y026305D01*
X027564Y026305D02*
X029644Y026305D01*
D181*
X007081Y007430D02*
X006667Y007016D01*
X006667Y005180D01*
X005144Y011180D02*
X004144Y011180D01*
X003581Y011743D01*
X003144Y011743D01*
D182*
X007581Y015493D03*
X008081Y019493D03*
X006144Y019493D03*
X012144Y003680D03*
X024956Y008680D03*
X025456Y006305D03*
M02*
