G75*
G70*
%OFA0B0*%
%FSLAX24Y24*%
%IPPOS*%
%LPD*%
%AMOC8*
5,1,8,0,0,1.08239X$1,22.5*
%
%ADD10C,0.0050*%
%ADD11C,0.0040*%
%ADD12C,0.0098*%
%ADD13C,0.0060*%
%ADD14R,0.0160X0.0340*%
%ADD15R,0.0340X0.0160*%
%ADD16C,0.0080*%
%ADD17R,0.0433X0.0193*%
%ADD18R,0.0256X0.0197*%
%ADD19R,0.0571X0.0295*%
%ADD20R,0.0256X0.0177*%
%ADD21R,0.0343X0.0080*%
%ADD22R,0.0230X0.0180*%
%ADD23R,0.0295X0.0571*%
%ADD24R,0.0180X0.0230*%
%ADD25R,0.0240X0.0240*%
D10*
X005703Y002582D02*
X005703Y005692D01*
X009584Y005692D01*
X009584Y002582D01*
X005703Y002582D01*
X005342Y007470D02*
X005342Y008140D01*
X006445Y008140D01*
X006445Y007470D01*
X005342Y007470D01*
X005019Y007833D02*
X004519Y007833D01*
X004519Y008777D01*
X005019Y008777D01*
X005019Y007833D01*
X006769Y007833D02*
X007269Y007833D01*
X007269Y008777D01*
X006769Y008777D01*
X006769Y007833D01*
X008121Y007754D02*
X008791Y007754D01*
X008791Y008856D01*
X008121Y008856D01*
X008121Y007754D01*
X010809Y007754D02*
X011478Y007754D01*
X011478Y008856D01*
X010809Y008856D01*
X010809Y007754D01*
X011894Y007833D02*
X011894Y008777D01*
X012394Y008777D01*
X012394Y007833D01*
X011894Y007833D01*
X012671Y008930D02*
X012671Y009430D01*
X013616Y009430D01*
X013616Y008930D01*
X012671Y008930D01*
X014269Y006930D02*
X014271Y006952D01*
X014277Y006973D01*
X014286Y006992D01*
X014298Y007010D01*
X014314Y007026D01*
X014331Y007038D01*
X014351Y007047D01*
X014372Y007053D01*
X014394Y007055D01*
X014416Y007053D01*
X014437Y007047D01*
X014456Y007038D01*
X014474Y007026D01*
X014490Y007010D01*
X014502Y006992D01*
X014511Y006973D01*
X014517Y006952D01*
X014519Y006930D01*
X014517Y006908D01*
X014511Y006887D01*
X014502Y006868D01*
X014490Y006850D01*
X014474Y006834D01*
X014457Y006822D01*
X014437Y006813D01*
X014416Y006807D01*
X014394Y006805D01*
X014372Y006807D01*
X014351Y006813D01*
X014331Y006822D01*
X014314Y006834D01*
X014298Y006850D01*
X014286Y006867D01*
X014277Y006887D01*
X014271Y006908D01*
X014269Y006930D01*
X013616Y005930D02*
X013616Y005430D01*
X012671Y005430D01*
X012671Y005930D01*
X013616Y005930D01*
X012394Y005277D02*
X012394Y004333D01*
X011894Y004333D01*
X011894Y005277D01*
X012394Y005277D01*
X014269Y003430D02*
X014271Y003452D01*
X014277Y003473D01*
X014286Y003492D01*
X014298Y003510D01*
X014314Y003526D01*
X014331Y003538D01*
X014351Y003547D01*
X014372Y003553D01*
X014394Y003555D01*
X014416Y003553D01*
X014437Y003547D01*
X014456Y003538D01*
X014474Y003526D01*
X014490Y003510D01*
X014502Y003492D01*
X014511Y003473D01*
X014517Y003452D01*
X014519Y003430D01*
X014517Y003408D01*
X014511Y003387D01*
X014502Y003368D01*
X014490Y003350D01*
X014474Y003334D01*
X014457Y003322D01*
X014437Y003313D01*
X014416Y003307D01*
X014394Y003305D01*
X014372Y003307D01*
X014351Y003313D01*
X014331Y003322D01*
X014314Y003334D01*
X014298Y003350D01*
X014286Y003367D01*
X014277Y003387D01*
X014271Y003408D01*
X014269Y003430D01*
X015769Y003833D02*
X015769Y004777D01*
X016269Y004777D01*
X016269Y003833D01*
X015769Y003833D01*
X015769Y004958D02*
X016269Y004958D01*
X016269Y005902D01*
X015769Y005902D01*
X015769Y004958D01*
X018019Y005402D02*
X018019Y004458D01*
X018519Y004458D01*
X018519Y005402D01*
X018019Y005402D01*
X017019Y007708D02*
X016519Y007708D01*
X016519Y008652D01*
X017019Y008652D01*
X017019Y007708D01*
X016269Y007708D02*
X016269Y008652D01*
X015769Y008652D01*
X015769Y007708D01*
X016269Y007708D01*
X013741Y011555D02*
X012796Y011555D01*
X012796Y012055D01*
X013741Y012055D01*
X013741Y011555D01*
X013623Y012339D02*
X012914Y012339D01*
X012914Y013521D01*
X013623Y013521D01*
X013623Y012339D01*
X014269Y012458D02*
X014769Y012458D01*
X014769Y013402D01*
X014269Y013402D01*
X014269Y012458D01*
X015081Y013395D02*
X015581Y013395D01*
X015581Y014340D01*
X015081Y014340D01*
X015081Y013395D01*
X014741Y013555D02*
X014741Y014055D01*
X013796Y014055D01*
X013796Y013555D01*
X014741Y013555D01*
X014741Y014180D02*
X014741Y014680D01*
X013796Y014680D01*
X013796Y014180D01*
X014741Y014180D01*
X015706Y014340D02*
X015706Y013395D01*
X016206Y013395D01*
X016206Y014340D01*
X015706Y014340D01*
X016331Y014340D02*
X016831Y014340D01*
X016831Y013395D01*
X016331Y013395D01*
X016331Y014340D01*
X016956Y014340D02*
X017456Y014340D01*
X017456Y013395D01*
X016956Y013395D01*
X016956Y014340D01*
X017894Y014152D02*
X017894Y013208D01*
X018394Y013208D01*
X018394Y014152D01*
X017894Y014152D01*
X018734Y014180D02*
X018734Y013680D01*
X019678Y013680D01*
X019678Y014180D01*
X018734Y014180D01*
X018734Y013618D02*
X018734Y013118D01*
X019678Y013118D01*
X019678Y013618D01*
X018734Y013618D01*
X014144Y016395D02*
X013644Y016395D01*
X013644Y017340D01*
X014144Y017340D01*
X014144Y016395D01*
X012741Y014680D02*
X012741Y014180D01*
X011796Y014180D01*
X011796Y014680D01*
X012741Y014680D01*
X012741Y014055D02*
X012741Y013555D01*
X011796Y013555D01*
X011796Y014055D01*
X012741Y014055D01*
X012269Y013402D02*
X012269Y012458D01*
X011769Y012458D01*
X011769Y013402D01*
X012269Y013402D01*
X010144Y013402D02*
X010144Y012458D01*
X009644Y012458D01*
X009644Y013402D01*
X010144Y013402D01*
X009894Y014208D02*
X009394Y014208D01*
X009394Y015152D01*
X009894Y015152D01*
X009894Y014208D01*
X009252Y014910D02*
X008752Y014910D01*
X008752Y015855D01*
X009252Y015855D01*
X009252Y014910D01*
X009937Y015743D02*
X009937Y017243D01*
X010725Y017243D01*
X010725Y015743D01*
X009937Y015743D01*
X011144Y015458D02*
X011644Y015458D01*
X011644Y016402D01*
X011144Y016402D01*
X011144Y015458D01*
X011144Y016583D02*
X011144Y017527D01*
X011644Y017527D01*
X011644Y016583D01*
X011144Y016583D01*
X010181Y017543D02*
X010183Y017567D01*
X010189Y017591D01*
X010198Y017613D01*
X010211Y017633D01*
X010227Y017651D01*
X010246Y017666D01*
X010267Y017679D01*
X010289Y017687D01*
X010313Y017692D01*
X010337Y017693D01*
X010361Y017690D01*
X010384Y017683D01*
X010406Y017673D01*
X010426Y017659D01*
X010443Y017642D01*
X010458Y017623D01*
X010469Y017602D01*
X010477Y017579D01*
X010481Y017555D01*
X010481Y017531D01*
X010477Y017507D01*
X010469Y017484D01*
X010458Y017463D01*
X010443Y017444D01*
X010426Y017427D01*
X010406Y017413D01*
X010384Y017403D01*
X010361Y017396D01*
X010337Y017393D01*
X010313Y017394D01*
X010289Y017399D01*
X010267Y017407D01*
X010246Y017420D01*
X010227Y017435D01*
X010211Y017453D01*
X010198Y017473D01*
X010189Y017495D01*
X010183Y017519D01*
X010181Y017543D01*
X008013Y018578D02*
X008013Y014759D01*
X006281Y014759D01*
X006281Y018578D01*
X008013Y018578D01*
X007769Y018770D02*
X007269Y018770D01*
X007269Y019715D01*
X007769Y019715D01*
X007769Y018770D01*
X007019Y018770D02*
X007019Y019715D01*
X006519Y019715D01*
X006519Y018770D01*
X007019Y018770D01*
X005244Y021455D02*
X005246Y021475D01*
X005252Y021493D01*
X005261Y021511D01*
X005273Y021526D01*
X005288Y021538D01*
X005306Y021547D01*
X005324Y021553D01*
X005344Y021555D01*
X005364Y021553D01*
X005382Y021547D01*
X005400Y021538D01*
X005415Y021526D01*
X005427Y021511D01*
X005436Y021493D01*
X005442Y021475D01*
X005444Y021455D01*
X005442Y021435D01*
X005436Y021417D01*
X005427Y021399D01*
X005415Y021384D01*
X005400Y021372D01*
X005382Y021363D01*
X005364Y021357D01*
X005344Y021355D01*
X005324Y021357D01*
X005306Y021363D01*
X005288Y021372D01*
X005273Y021384D01*
X005261Y021399D01*
X005252Y021417D01*
X005246Y021435D01*
X005244Y021455D01*
X005659Y021925D02*
X005659Y023185D01*
X007628Y023185D01*
X007628Y021925D01*
X005659Y021925D01*
X006046Y023555D02*
X006046Y024055D01*
X006991Y024055D01*
X006991Y023555D01*
X006046Y023555D01*
X006878Y024550D02*
X004909Y024550D01*
X004909Y025810D01*
X006878Y025810D01*
X006878Y024550D01*
X007671Y024055D02*
X007671Y023555D01*
X008616Y023555D01*
X008616Y024055D01*
X007671Y024055D01*
X007671Y025430D02*
X007671Y025930D01*
X008616Y025930D01*
X008616Y025430D01*
X007671Y025430D01*
X008684Y027254D02*
X008684Y028356D01*
X009353Y028356D01*
X009353Y027254D01*
X008684Y027254D01*
X010019Y027958D02*
X010519Y027958D01*
X010519Y028902D01*
X010019Y028902D01*
X010019Y027958D01*
X010644Y027958D02*
X011144Y027958D01*
X011144Y028902D01*
X010644Y028902D01*
X010644Y027958D01*
X011871Y027504D02*
X011871Y028606D01*
X012541Y028606D01*
X012541Y027504D01*
X011871Y027504D01*
X012706Y027645D02*
X012706Y028590D01*
X013206Y028590D01*
X013206Y027645D01*
X012706Y027645D01*
X013671Y027206D02*
X013671Y026154D01*
X014616Y026154D01*
X014616Y027206D01*
X013671Y027206D01*
X013921Y027430D02*
X013921Y027930D01*
X014866Y027930D01*
X014866Y027430D01*
X013921Y027430D01*
X013921Y028055D02*
X013921Y028555D01*
X014866Y028555D01*
X014866Y028055D01*
X013921Y028055D01*
X013894Y028708D02*
X013894Y029652D01*
X014394Y029652D01*
X014394Y028708D01*
X013894Y028708D01*
X013921Y029805D02*
X013921Y030305D01*
X014866Y030305D01*
X014866Y029805D01*
X013921Y029805D01*
X014859Y026555D02*
X015803Y026555D01*
X015803Y026055D01*
X014859Y026055D01*
X014859Y026555D01*
X016296Y026555D02*
X016296Y026055D01*
X017241Y026055D01*
X017241Y026555D01*
X016296Y026555D01*
X016394Y025902D02*
X016894Y025902D01*
X016894Y024958D01*
X016394Y024958D01*
X016394Y025902D01*
X017144Y025902D02*
X017644Y025902D01*
X017644Y024958D01*
X017144Y024958D01*
X017144Y025902D01*
X017546Y026055D02*
X017546Y026555D01*
X018491Y026555D01*
X018491Y026055D01*
X017546Y026055D01*
X017894Y025902D02*
X018394Y025902D01*
X018394Y024958D01*
X017894Y024958D01*
X017894Y025902D01*
X018984Y026055D02*
X018984Y026555D01*
X019928Y026555D01*
X019928Y026055D01*
X018984Y026055D01*
X020552Y026601D02*
X020554Y026616D01*
X020559Y026629D01*
X020568Y026641D01*
X020579Y026651D01*
X020593Y026657D01*
X020607Y026660D01*
X020622Y026659D01*
X020636Y026654D01*
X020649Y026646D01*
X020659Y026636D01*
X020666Y026623D01*
X020670Y026608D01*
X020670Y026594D01*
X020666Y026579D01*
X020659Y026566D01*
X020649Y026556D01*
X020636Y026548D01*
X020622Y026543D01*
X020607Y026542D01*
X020593Y026545D01*
X020579Y026551D01*
X020568Y026561D01*
X020559Y026573D01*
X020554Y026586D01*
X020552Y026601D01*
X021796Y026279D02*
X021796Y027331D01*
X022741Y027331D01*
X022741Y026279D01*
X021796Y026279D01*
X023171Y026055D02*
X023171Y026555D01*
X024116Y026555D01*
X024116Y026055D01*
X023171Y026055D01*
X023116Y027680D02*
X022171Y027680D01*
X022171Y028180D01*
X023116Y028180D01*
X023116Y027680D01*
X023116Y028430D02*
X022171Y028430D01*
X022171Y028930D01*
X023116Y028930D01*
X023116Y028430D01*
X023257Y029158D02*
X022155Y029158D01*
X022155Y029827D01*
X023257Y029827D01*
X023257Y029158D01*
X023461Y030125D02*
X022201Y030125D01*
X022201Y031110D01*
X023461Y031110D01*
X023461Y030125D01*
X024826Y026620D02*
X024826Y025990D01*
X026086Y025990D01*
X026086Y026620D01*
X024826Y026620D01*
X024747Y025675D02*
X024749Y025693D01*
X024755Y025709D01*
X024764Y025724D01*
X024777Y025737D01*
X024792Y025746D01*
X024808Y025752D01*
X024826Y025754D01*
X024844Y025752D01*
X024860Y025746D01*
X024875Y025737D01*
X024888Y025724D01*
X024897Y025709D01*
X024903Y025693D01*
X024905Y025675D01*
X024903Y025657D01*
X024897Y025641D01*
X024888Y025626D01*
X024875Y025613D01*
X024860Y025604D01*
X024844Y025598D01*
X024826Y025596D01*
X024808Y025598D01*
X024792Y025604D01*
X024777Y025613D01*
X024764Y025626D01*
X024755Y025641D01*
X024749Y025657D01*
X024747Y025675D01*
X026796Y026055D02*
X026796Y026555D01*
X027741Y026555D01*
X027741Y026055D01*
X026796Y026055D01*
X028758Y025124D02*
X028758Y023352D01*
X030529Y023352D01*
X030529Y025124D01*
X013706Y025090D02*
X013706Y024145D01*
X013206Y024145D01*
X013206Y025090D01*
X013706Y025090D01*
X012178Y023805D02*
X012178Y023305D01*
X011234Y023305D01*
X011234Y023805D01*
X012178Y023805D01*
X012331Y023152D02*
X011831Y023152D01*
X011831Y022208D01*
X012331Y022208D01*
X012331Y023152D01*
X011581Y023152D02*
X011581Y022208D01*
X011081Y022208D01*
X011081Y023152D01*
X011581Y023152D01*
X010894Y022833D02*
X010894Y023777D01*
X010394Y023777D01*
X010394Y022833D01*
X010894Y022833D01*
X010894Y022652D02*
X010394Y022652D01*
X010394Y021708D01*
X010894Y021708D01*
X010894Y022652D01*
X004494Y024080D02*
X004496Y024100D01*
X004502Y024118D01*
X004511Y024136D01*
X004523Y024151D01*
X004538Y024163D01*
X004556Y024172D01*
X004574Y024178D01*
X004594Y024180D01*
X004614Y024178D01*
X004632Y024172D01*
X004650Y024163D01*
X004665Y024151D01*
X004677Y024136D01*
X004686Y024118D01*
X004692Y024100D01*
X004694Y024080D01*
X004692Y024060D01*
X004686Y024042D01*
X004677Y024024D01*
X004665Y024009D01*
X004650Y023997D01*
X004632Y023988D01*
X004614Y023982D01*
X004594Y023980D01*
X004574Y023982D01*
X004556Y023988D01*
X004538Y023997D01*
X004523Y024009D01*
X004511Y024024D01*
X004502Y024042D01*
X004496Y024060D01*
X004494Y024080D01*
X004519Y024583D02*
X004019Y024583D01*
X004019Y025527D01*
X004519Y025527D01*
X004519Y024583D01*
X007855Y014917D02*
X007857Y014925D01*
X007862Y014932D01*
X007869Y014936D01*
X007877Y014937D01*
X007885Y014934D01*
X007891Y014929D01*
X007895Y014921D01*
X007895Y014913D01*
X007891Y014905D01*
X007885Y014900D01*
X007877Y014897D01*
X007869Y014898D01*
X007862Y014902D01*
X007857Y014909D01*
X007855Y014917D01*
X006498Y013521D02*
X005789Y013521D01*
X005789Y012339D01*
X006498Y012339D01*
X006498Y013521D01*
X007144Y013402D02*
X007644Y013402D01*
X007644Y012458D01*
X007144Y012458D01*
X007144Y013402D01*
X004741Y012680D02*
X004741Y012180D01*
X003796Y012180D01*
X003796Y012680D01*
X004741Y012680D01*
X003300Y012082D02*
X003300Y014778D01*
X001800Y014778D01*
X001800Y014430D01*
X001300Y014430D01*
X001300Y012082D01*
X003300Y012082D01*
X001300Y014430D02*
X001300Y014778D01*
X001800Y014778D01*
X021563Y004786D02*
X021563Y003211D01*
X027724Y003211D01*
X027724Y004786D01*
X021563Y004786D01*
X024427Y005730D02*
X024860Y005730D01*
X024860Y006005D01*
X024427Y006005D01*
X024427Y005730D01*
X024794Y005668D02*
X024796Y005681D01*
X024801Y005694D01*
X024810Y005705D01*
X024821Y005712D01*
X024834Y005717D01*
X024847Y005718D01*
X024861Y005715D01*
X024873Y005709D01*
X024883Y005700D01*
X024890Y005688D01*
X024894Y005675D01*
X024894Y005661D01*
X024890Y005648D01*
X024883Y005636D01*
X024873Y005627D01*
X024861Y005621D01*
X024847Y005618D01*
X024834Y005619D01*
X024821Y005624D01*
X024810Y005631D01*
X024801Y005642D01*
X024796Y005655D01*
X024794Y005668D01*
X025489Y005730D02*
X025923Y005730D01*
X025923Y006005D01*
X025489Y006005D01*
X025489Y005730D01*
X025456Y006068D02*
X025458Y006081D01*
X025463Y006094D01*
X025472Y006105D01*
X025483Y006112D01*
X025496Y006117D01*
X025509Y006118D01*
X025523Y006115D01*
X025535Y006109D01*
X025545Y006100D01*
X025552Y006088D01*
X025556Y006075D01*
X025556Y006061D01*
X025552Y006048D01*
X025545Y006036D01*
X025535Y006027D01*
X025523Y006021D01*
X025509Y006018D01*
X025496Y006019D01*
X025483Y006024D01*
X025472Y006031D01*
X025463Y006042D01*
X025458Y006055D01*
X025456Y006068D01*
D11*
X026357Y004410D02*
X026357Y003950D01*
X026510Y003950D02*
X026203Y003950D01*
X026203Y004257D02*
X026357Y004410D01*
X011403Y008165D02*
X011403Y008455D01*
X010884Y008455D02*
X010884Y008155D01*
X008716Y008165D02*
X008716Y008455D01*
X008196Y008455D02*
X008196Y008155D01*
X006034Y008065D02*
X005744Y008065D01*
X005744Y007545D02*
X006044Y007545D01*
X006567Y004410D02*
X006567Y003950D01*
X006414Y003950D02*
X006720Y003950D01*
X006414Y004257D02*
X006567Y004410D01*
X006468Y012359D02*
X006468Y013501D01*
X005819Y013501D02*
X005819Y012359D01*
X008759Y027655D02*
X008759Y027945D01*
X009278Y027955D02*
X009278Y027655D01*
X011946Y027905D02*
X011946Y028195D01*
X012466Y028205D02*
X012466Y027905D01*
X022566Y029233D02*
X022856Y029233D01*
X022856Y029752D02*
X022556Y029752D01*
D12*
X006037Y013383D03*
X013375Y012477D03*
D13*
X013439Y011945D02*
X013098Y011945D01*
X013098Y011665D02*
X013439Y011665D01*
X014378Y012760D02*
X014378Y013100D01*
X014659Y013100D02*
X014659Y012760D01*
X014439Y013665D02*
X014098Y013665D01*
X014098Y013945D02*
X014439Y013945D01*
X014439Y014290D02*
X014098Y014290D01*
X014098Y014570D02*
X014439Y014570D01*
X014369Y014743D02*
X015169Y014743D01*
X015269Y014843D01*
X015269Y015643D01*
X015169Y015743D01*
X015269Y015843D01*
X015269Y016643D01*
X015169Y016743D01*
X014369Y016743D01*
X014269Y016643D01*
X014269Y015843D01*
X014369Y015743D01*
X014269Y015643D01*
X014269Y014843D01*
X014369Y014743D01*
X015191Y014038D02*
X015191Y013697D01*
X015471Y013697D02*
X015471Y014038D01*
X015816Y014038D02*
X015816Y013697D01*
X016096Y013697D02*
X016096Y014038D01*
X016441Y014038D02*
X016441Y013697D01*
X016721Y013697D02*
X016721Y014038D01*
X017066Y014038D02*
X017066Y013697D01*
X017346Y013697D02*
X017346Y014038D01*
X018003Y013850D02*
X018003Y013510D01*
X018284Y013510D02*
X018284Y013850D01*
X019036Y013790D02*
X019376Y013790D01*
X019376Y014070D02*
X019036Y014070D01*
X019036Y013508D02*
X019376Y013508D01*
X019376Y013227D02*
X019036Y013227D01*
X018704Y014920D02*
X017584Y014920D01*
X017804Y014920D01*
X017584Y014920D02*
X017584Y015240D01*
X017584Y015440D02*
X018704Y015440D01*
X018704Y014920D01*
X018484Y014920D01*
X018704Y014920D02*
X018704Y015240D01*
X017584Y015440D02*
X017584Y014920D01*
X014034Y016697D02*
X014034Y017038D01*
X013753Y017038D02*
X013753Y016697D01*
X012439Y014570D02*
X012098Y014570D01*
X012098Y014290D02*
X012439Y014290D01*
X012439Y013945D02*
X012098Y013945D01*
X012098Y013665D02*
X012439Y013665D01*
X012159Y013100D02*
X012159Y012760D01*
X011878Y012760D02*
X011878Y013100D01*
X010034Y013100D02*
X010034Y012760D01*
X009753Y012760D02*
X009753Y013100D01*
X009087Y013136D02*
X009087Y012724D01*
X009087Y012407D02*
X009087Y012370D01*
X009087Y013490D01*
X009087Y013453D01*
X009087Y013490D02*
X008450Y013490D01*
X008450Y013453D01*
X008450Y013490D02*
X008450Y012370D01*
X008450Y012407D01*
X008450Y012370D02*
X009087Y012370D01*
X008450Y012724D02*
X008450Y012761D01*
X008450Y013099D02*
X008450Y013136D01*
X007534Y013100D02*
X007534Y012760D01*
X007253Y012760D02*
X007253Y013100D01*
X008862Y015212D02*
X008862Y015553D01*
X009142Y015553D02*
X009142Y015212D01*
X009503Y014850D02*
X009503Y014510D01*
X009784Y014510D02*
X009784Y014850D01*
X011253Y015760D02*
X011253Y016100D01*
X011534Y016100D02*
X011534Y015760D01*
X011534Y016885D02*
X011534Y017225D01*
X011253Y017225D02*
X011253Y016885D01*
X007659Y019072D02*
X007659Y019413D01*
X007378Y019413D02*
X007378Y019072D01*
X006909Y019072D02*
X006909Y019413D01*
X006628Y019413D02*
X006628Y019072D01*
X010503Y022010D02*
X010503Y022350D01*
X010784Y022350D02*
X010784Y022010D01*
X011191Y022510D02*
X011191Y022850D01*
X011471Y022850D02*
X011471Y022510D01*
X011941Y022510D02*
X011941Y022850D01*
X012221Y022850D02*
X012221Y022510D01*
X011876Y023415D02*
X011536Y023415D01*
X011536Y023695D02*
X011876Y023695D01*
X012000Y024342D02*
X012000Y027393D01*
X010287Y027393D01*
X010287Y024342D01*
X012000Y024342D01*
X013316Y024447D02*
X013316Y024788D01*
X013596Y024788D02*
X013596Y024447D01*
X015161Y026165D02*
X015501Y026165D01*
X015501Y026445D02*
X015161Y026445D01*
X014564Y027540D02*
X014223Y027540D01*
X014223Y027820D02*
X014564Y027820D01*
X014564Y028165D02*
X014223Y028165D01*
X014223Y028445D02*
X014564Y028445D01*
X014284Y029010D02*
X014284Y029350D01*
X014003Y029350D02*
X014003Y029010D01*
X014223Y029915D02*
X014564Y029915D01*
X014564Y030195D02*
X014223Y030195D01*
X013096Y028288D02*
X013096Y027947D01*
X012816Y027947D02*
X012816Y028288D01*
X011034Y028260D02*
X011034Y028600D01*
X010753Y028600D02*
X010753Y028260D01*
X010409Y028260D02*
X010409Y028600D01*
X010128Y028600D02*
X010128Y028260D01*
X010456Y027108D02*
X010458Y027129D01*
X010464Y027149D01*
X010473Y027167D01*
X010486Y027183D01*
X010502Y027197D01*
X010520Y027207D01*
X010539Y027214D01*
X010560Y027217D01*
X010581Y027216D01*
X010601Y027211D01*
X010619Y027202D01*
X010636Y027190D01*
X010651Y027175D01*
X010662Y027158D01*
X010670Y027139D01*
X010674Y027118D01*
X010674Y027098D01*
X010670Y027077D01*
X010662Y027058D01*
X010651Y027041D01*
X010636Y027026D01*
X010620Y027014D01*
X010601Y027005D01*
X010581Y027000D01*
X010560Y026999D01*
X010539Y027002D01*
X010520Y027009D01*
X010502Y027019D01*
X010486Y027033D01*
X010473Y027049D01*
X010464Y027067D01*
X010458Y027087D01*
X010456Y027108D01*
X008314Y025820D02*
X007973Y025820D01*
X007973Y025540D02*
X008314Y025540D01*
X008314Y023945D02*
X007973Y023945D01*
X007973Y023665D02*
X008314Y023665D01*
X006689Y023665D02*
X006348Y023665D01*
X006348Y023945D02*
X006689Y023945D01*
X004409Y024885D02*
X004409Y025225D01*
X004128Y025225D02*
X004128Y024885D01*
X010503Y023475D02*
X010503Y023135D01*
X010784Y023135D02*
X010784Y023475D01*
X016503Y025260D02*
X016503Y025600D01*
X016784Y025600D02*
X016784Y025260D01*
X017253Y025260D02*
X017253Y025600D01*
X017534Y025600D02*
X017534Y025260D01*
X018003Y025260D02*
X018003Y025600D01*
X018284Y025600D02*
X018284Y025260D01*
X018189Y026165D02*
X017848Y026165D01*
X017848Y026445D02*
X018189Y026445D01*
X019286Y026445D02*
X019626Y026445D01*
X019626Y026165D02*
X019286Y026165D01*
X020375Y025589D02*
X021162Y025589D01*
X021162Y026771D01*
X020375Y026771D01*
X020375Y025589D01*
X022473Y027790D02*
X022814Y027790D01*
X022814Y028070D02*
X022473Y028070D01*
X022473Y028540D02*
X022814Y028540D01*
X022814Y028820D02*
X022473Y028820D01*
X023473Y026445D02*
X023814Y026445D01*
X023814Y026165D02*
X023473Y026165D01*
X027098Y026165D02*
X027439Y026165D01*
X027439Y026445D02*
X027098Y026445D01*
X016939Y026445D02*
X016598Y026445D01*
X016598Y026165D02*
X016939Y026165D01*
X004439Y012570D02*
X004098Y012570D01*
X004098Y012290D02*
X004439Y012290D01*
X004628Y008475D02*
X004628Y008135D01*
X004909Y008135D02*
X004909Y008475D01*
X006878Y008475D02*
X006878Y008135D01*
X007159Y008135D02*
X007159Y008475D01*
X009450Y008511D02*
X009450Y008099D01*
X009450Y007782D02*
X009450Y007745D01*
X009450Y008865D01*
X009450Y008828D01*
X009450Y008865D02*
X010087Y008865D01*
X010087Y008828D01*
X010087Y008865D02*
X010087Y007745D01*
X010087Y007782D01*
X010087Y007745D02*
X009450Y007745D01*
X010087Y008099D02*
X010087Y008136D01*
X010087Y008474D02*
X010087Y008511D01*
X012003Y008475D02*
X012003Y008135D01*
X012284Y008135D02*
X012284Y008475D01*
X012973Y009040D02*
X013314Y009040D01*
X013314Y009320D02*
X012973Y009320D01*
X015878Y008350D02*
X015878Y008010D01*
X016159Y008010D02*
X016159Y008350D01*
X016628Y008350D02*
X016628Y008010D01*
X016909Y008010D02*
X016909Y008350D01*
X016159Y005600D02*
X016159Y005260D01*
X015878Y005260D02*
X015878Y005600D01*
X016884Y005490D02*
X016884Y005270D01*
X016884Y005490D02*
X017204Y005490D01*
X017404Y005490D02*
X016884Y005490D01*
X016884Y004370D01*
X016884Y004590D01*
X016884Y004370D02*
X017204Y004370D01*
X017404Y004370D02*
X016884Y004370D01*
X017404Y004370D02*
X017404Y005490D01*
X018128Y005100D02*
X018128Y004760D01*
X018409Y004760D02*
X018409Y005100D01*
X016159Y004475D02*
X016159Y004135D01*
X015878Y004135D02*
X015878Y004475D01*
X013314Y005540D02*
X012973Y005540D01*
X012973Y005820D02*
X013314Y005820D01*
X012284Y004975D02*
X012284Y004635D01*
X012003Y004635D02*
X012003Y004975D01*
D14*
X012894Y005680D03*
X013394Y005680D03*
X013394Y009180D03*
X012894Y009180D03*
X013019Y011805D03*
X013519Y011805D03*
X014019Y013805D03*
X014519Y013805D03*
X014519Y014430D03*
X014019Y014430D03*
X012519Y014430D03*
X012019Y014430D03*
X012019Y013805D03*
X012519Y013805D03*
X018956Y013930D03*
X019456Y013930D03*
X019456Y013368D03*
X018956Y013368D03*
X011956Y023555D03*
X011456Y023555D03*
X008394Y023805D03*
X007894Y023805D03*
X006769Y023805D03*
X006269Y023805D03*
X007894Y025680D03*
X008394Y025680D03*
X014144Y027680D03*
X014644Y027680D03*
X014644Y028305D03*
X014144Y028305D03*
X014144Y030055D03*
X014644Y030055D03*
X015081Y026305D03*
X015581Y026305D03*
X016519Y026305D03*
X017019Y026305D03*
X017769Y026305D03*
X018269Y026305D03*
X019206Y026305D03*
X019706Y026305D03*
X022394Y027930D03*
X022894Y027930D03*
X022894Y028680D03*
X022394Y028680D03*
X023394Y026305D03*
X023894Y026305D03*
X027019Y026305D03*
X027519Y026305D03*
X004519Y012430D03*
X004019Y012430D03*
D15*
X007394Y012680D03*
X007394Y013180D03*
X009002Y015133D03*
X009002Y015633D03*
X009644Y014930D03*
X009644Y014430D03*
X009894Y013180D03*
X009894Y012680D03*
X012019Y012680D03*
X012019Y013180D03*
X014519Y013180D03*
X014519Y012680D03*
X015331Y013618D03*
X015331Y014118D03*
X015956Y014118D03*
X015956Y013618D03*
X016581Y013618D03*
X016581Y014118D03*
X017206Y014118D03*
X017206Y013618D03*
X018144Y013430D03*
X018144Y013930D03*
X013894Y016618D03*
X013894Y017118D03*
X011394Y017305D03*
X011394Y016805D03*
X011394Y016180D03*
X011394Y015680D03*
X007519Y018993D03*
X007519Y019493D03*
X006769Y019493D03*
X006769Y018993D03*
X010644Y021930D03*
X010644Y022430D03*
X010644Y023055D03*
X010644Y023555D03*
X011331Y022930D03*
X011331Y022430D03*
X012081Y022430D03*
X012081Y022930D03*
X013456Y024368D03*
X013456Y024868D03*
X012956Y027868D03*
X012956Y028368D03*
X014144Y028930D03*
X014144Y029430D03*
X010894Y028680D03*
X010894Y028180D03*
X010269Y028180D03*
X010269Y028680D03*
X004269Y025305D03*
X004269Y024805D03*
X016644Y025180D03*
X016644Y025680D03*
X017394Y025680D03*
X017394Y025180D03*
X018144Y025180D03*
X018144Y025680D03*
X012144Y008555D03*
X012144Y008055D03*
X012144Y005055D03*
X012144Y004555D03*
X016019Y004555D03*
X016019Y004055D03*
X016019Y005180D03*
X016019Y005680D03*
X018269Y005180D03*
X018269Y004680D03*
X016769Y007930D03*
X016769Y008430D03*
X016019Y008430D03*
X016019Y007930D03*
X007019Y008055D03*
X007019Y008555D03*
X004769Y008555D03*
X004769Y008055D03*
D16*
X013395Y008625D02*
X013395Y006735D01*
X014695Y006735D01*
X014695Y008625D01*
X014892Y008625D01*
X014892Y006735D01*
X014695Y006735D01*
X014695Y005125D02*
X013395Y005125D01*
X013395Y003235D01*
X014695Y003235D01*
X014695Y005125D01*
X014892Y005125D01*
X014892Y003235D01*
X014695Y003235D01*
X014695Y008625D02*
X013395Y008625D01*
X013712Y015738D02*
X013894Y015738D01*
X013801Y015860D01*
X013894Y015738D02*
X014075Y015738D01*
X013979Y015860D02*
X013904Y015744D01*
X028462Y025124D02*
X028462Y027486D01*
X030825Y027486D01*
X030825Y025124D01*
X028462Y025124D01*
X028462Y025872D02*
X028462Y026738D01*
X029210Y027486D02*
X030077Y027486D01*
X030825Y026738D02*
X030825Y025872D01*
X030077Y025124D02*
X029210Y025124D01*
X028463Y026305D02*
X028465Y026374D01*
X028471Y026442D01*
X028481Y026510D01*
X028495Y026577D01*
X028513Y026644D01*
X028534Y026709D01*
X028560Y026773D01*
X028589Y026835D01*
X028621Y026895D01*
X028657Y026954D01*
X028697Y027010D01*
X028739Y027064D01*
X028785Y027115D01*
X028834Y027164D01*
X028885Y027210D01*
X028939Y027252D01*
X028995Y027292D01*
X029053Y027328D01*
X029114Y027360D01*
X029176Y027389D01*
X029240Y027415D01*
X029305Y027436D01*
X029372Y027454D01*
X029439Y027468D01*
X029507Y027478D01*
X029575Y027484D01*
X029644Y027486D01*
X029713Y027484D01*
X029781Y027478D01*
X029849Y027468D01*
X029916Y027454D01*
X029983Y027436D01*
X030048Y027415D01*
X030112Y027389D01*
X030174Y027360D01*
X030234Y027328D01*
X030293Y027292D01*
X030349Y027252D01*
X030403Y027210D01*
X030454Y027164D01*
X030503Y027115D01*
X030549Y027064D01*
X030591Y027010D01*
X030631Y026954D01*
X030667Y026895D01*
X030699Y026835D01*
X030728Y026773D01*
X030754Y026709D01*
X030775Y026644D01*
X030793Y026577D01*
X030807Y026510D01*
X030817Y026442D01*
X030823Y026374D01*
X030825Y026305D01*
X030823Y026236D01*
X030817Y026168D01*
X030807Y026100D01*
X030793Y026033D01*
X030775Y025966D01*
X030754Y025901D01*
X030728Y025837D01*
X030699Y025775D01*
X030667Y025714D01*
X030631Y025656D01*
X030591Y025600D01*
X030549Y025546D01*
X030503Y025495D01*
X030454Y025446D01*
X030403Y025400D01*
X030349Y025358D01*
X030293Y025318D01*
X030235Y025282D01*
X030174Y025250D01*
X030112Y025221D01*
X030048Y025195D01*
X029983Y025174D01*
X029916Y025156D01*
X029849Y025142D01*
X029781Y025132D01*
X029713Y025126D01*
X029644Y025124D01*
X029575Y025126D01*
X029507Y025132D01*
X029439Y025142D01*
X029372Y025156D01*
X029305Y025174D01*
X029240Y025195D01*
X029176Y025221D01*
X029114Y025250D01*
X029053Y025282D01*
X028995Y025318D01*
X028939Y025358D01*
X028885Y025400D01*
X028834Y025446D01*
X028785Y025495D01*
X028739Y025546D01*
X028697Y025600D01*
X028657Y025656D01*
X028621Y025714D01*
X028589Y025775D01*
X028560Y025837D01*
X028534Y025901D01*
X028513Y025966D01*
X028495Y026033D01*
X028481Y026100D01*
X028471Y026168D01*
X028465Y026236D01*
X028463Y026305D01*
D17*
X015147Y008430D03*
X015147Y007930D03*
X015147Y007430D03*
X015147Y006930D03*
X015147Y004930D03*
X015147Y004430D03*
X015147Y003930D03*
X015147Y003430D03*
X013140Y003430D03*
X013140Y003930D03*
X013140Y004430D03*
X013140Y004930D03*
X013140Y006930D03*
X013140Y007430D03*
X013140Y007930D03*
X013140Y008430D03*
D18*
X010231Y008305D03*
X010231Y007931D03*
X010231Y008679D03*
X009306Y008679D03*
X009306Y007931D03*
X009231Y012556D03*
X009231Y013304D03*
X008306Y013304D03*
X008306Y012930D03*
X008306Y012556D03*
D19*
X008456Y008593D03*
X008456Y008023D03*
X011143Y008023D03*
X011143Y008593D03*
X009019Y027517D03*
X009019Y028087D03*
X012206Y028337D03*
X012206Y027767D03*
D20*
X006606Y013314D03*
X006606Y013058D03*
X006606Y012802D03*
X006606Y012546D03*
X005681Y012546D03*
X005681Y012802D03*
X005681Y013058D03*
X005681Y013314D03*
D21*
X010086Y024460D03*
X010086Y024716D03*
X010086Y024972D03*
X010086Y025228D03*
X010086Y025484D03*
X010086Y025740D03*
X010086Y025995D03*
X010086Y026251D03*
X010086Y026507D03*
X010086Y026763D03*
X010086Y027019D03*
X010086Y027275D03*
X012201Y027275D03*
X012201Y027019D03*
X012201Y026763D03*
X012201Y026507D03*
X012201Y026251D03*
X012201Y025995D03*
X012201Y025740D03*
X012201Y025484D03*
X012201Y025228D03*
X012201Y024972D03*
X012201Y024716D03*
X012201Y024460D03*
D22*
X017539Y005300D03*
X016749Y004930D03*
X017539Y004560D03*
D23*
X006176Y007805D03*
X005606Y007805D03*
X022424Y029493D03*
X022994Y029493D03*
D24*
X018514Y015575D03*
X017774Y015575D03*
X018144Y014785D03*
D25*
X014769Y015243D03*
X014769Y016243D03*
M02*
