%
M48
M72
T01C0.0118
T02C0.0157
T03C0.0197
T04C0.0236
T05C0.0276
T06C0.0315
T07C0.0360
T08C0.0591
T09C0.0669
T10C0.1260
%
T01
X10644Y15180
X9706Y15493
X11644Y15180
X6644Y17680
X4269Y15805
X3831Y15868
X3331Y15930
X3019Y16243
X1394Y16180
X1394Y17680
X1394Y19180
X1394Y20680
X1394Y22180
X1394Y23680
X1394Y25180
X1394Y27180
X2144Y28180
X1644Y29180
X3144Y29180
X4144Y30180
X5644Y30680
X5644Y31680
X4144Y31680
X7144Y31680
X7144Y30680
X8644Y30680
X8644Y31680
X10144Y31680
X10144Y30680
X11644Y30680
X11644Y31680
X13144Y31680
X13081Y30805
X12894Y29305
X12956Y28868
X12331Y28868
X13456Y28430
X13581Y29305
X15144Y28680
X15144Y29993
X16644Y29993
X18144Y29993
X19644Y29993
X21144Y29993
X21644Y28680
X21144Y27180
X20769Y26555
X20769Y25993
X20144Y25180
X18894Y25180
X18144Y24680
X17394Y24680
X16644Y24680
X15644Y25180
X14144Y25180
X13394Y25555
X12831Y25493
X13144Y27180
X11519Y27680
X10894Y29180
X10269Y29180
X9019Y29180
X9019Y28680
X8019Y28555
X8019Y29180
X9206Y25743
X8519Y23180
X8394Y22055
X7519Y21430
X9144Y20805
X10144Y20805
X10644Y21430
X11269Y21930
X11644Y21930
X12644Y20680
X13644Y21680
X14144Y20680
X15644Y20680
X17144Y20680
X18644Y20680
X20144Y20680
X21644Y20680
X23144Y20680
X24644Y20680
X26144Y20680
X27644Y20680
X29144Y20680
X30644Y20680
X32144Y20680
X32144Y21680
X32144Y23180
X32144Y24680
X32144Y26180
X32144Y27680
X32144Y29180
X30644Y29180
X30144Y28180
X28144Y28180
X26644Y27180
X25144Y27180
X23644Y27180
X23644Y27993
X23644Y28680
X23644Y29493
X24144Y30368
X24144Y30993
X23644Y31680
X22144Y31680
X20644Y31680
X19144Y31680
X17644Y31680
X16144Y31680
X14644Y31680
X15144Y27180
X16644Y27180
X18144Y27180
X19644Y27180
X21644Y25180
X23144Y25180
X24644Y25180
X26144Y25180
X27644Y25180
X29644Y30180
X29644Y31680
X28144Y31680
X26644Y31680
X25144Y31680
X13644Y23180
X10019Y23180
X5706Y23868
X5081Y24055
X5081Y23118
X4144Y23118
X4144Y24180
X4144Y21680
X5081Y21680
X24394Y6180
X25956Y6180
T02
X25456Y6305
X24956Y8680
X12144Y3680
X7581Y15493
X8081Y19493
X6144Y19493
T03
X6144Y14180
X7019Y13618
X7644Y14180
X5269Y12180
X5144Y11180
X3144Y11743
X12144Y12180
X14956Y11930
X19644Y7180
X18206Y6805
X19144Y4680
X22644Y6680
X23394Y6805
X24019Y6805
X24894Y6305
X23644Y8680
X23144Y8680
T04
X24644Y3680
X25144Y3680
X25644Y3680
X25644Y3180
X25144Y3180
X24644Y3180
X17644Y11805
X17644Y12930
X19519Y14493
X19081Y15618
X14144Y11805
X14581Y9743
X14581Y9243
X15081Y9243
X15081Y9743
X15581Y9743
X15581Y9243
X15144Y5618
X14644Y5618
X14144Y5618
X12206Y5680
X11706Y5680
X7081Y7430
X6956Y9118
X6956Y9868
X4769Y9868
X4769Y9055
X11956Y16243
X11956Y16743
X12644Y14993
X13894Y14993
X6144Y26680
X6144Y28680
T05
X3300Y14430
X3300Y13930
X3300Y13430
X3300Y12930
X3300Y12430
X1300Y12430
X1300Y12930
X1300Y13430
X1300Y13930
X1300Y14430
T06
X6667Y5180
X7651Y5180
X8636Y5180
T07
X14769Y15243
X14769Y16243
T08
X29644Y26305
T09
X30644Y25305
X30644Y27305
X28644Y27305
X28644Y25305
T10
X1825Y1361
X31746Y1361
X31746Y31282
X1825Y31282
M30
