G75*
G70*
%OFA0B0*%
%FSLAX24Y24*%
%IPPOS*%
%LPD*%
%AMOC8*
5,1,8,0,0,1.08239X$1,22.5*
%
%ADD10R,0.1575X0.1181*%
%ADD11R,0.0787X0.2362*%
%ADD12C,0.0100*%
D10*
X004300Y004431D03*
X004300Y011124D03*
X004300Y012698D03*
X004300Y019391D03*
X009812Y019391D03*
X009812Y012698D03*
X009812Y011124D03*
X009812Y004431D03*
D11*
X012174Y011911D03*
X007450Y011911D03*
D12*
X002928Y003181D02*
X002946Y003115D01*
X002975Y003053D01*
X003014Y002997D01*
X003063Y002948D01*
X003119Y002909D01*
X003181Y002880D01*
X003247Y002862D01*
X003316Y002856D01*
X007741Y002856D01*
X007865Y002980D01*
X007865Y002980D01*
X008237Y003195D01*
X008237Y003195D01*
X008652Y003306D01*
X012371Y003306D01*
X012371Y004431D01*
X012380Y004533D01*
X012406Y004633D01*
X012450Y004726D01*
X012509Y004810D01*
X012582Y004883D01*
X012666Y004942D01*
X012759Y004986D01*
X012859Y005012D01*
X012961Y005021D01*
X014086Y005021D01*
X014086Y010280D01*
X013581Y010280D01*
X013271Y010408D01*
X013271Y010408D01*
X013034Y010646D01*
X013034Y010646D01*
X012905Y010956D01*
X012905Y012866D01*
X013034Y013176D01*
X013034Y013176D01*
X013034Y013176D01*
X013271Y013414D01*
X013271Y013414D01*
X013581Y013542D01*
X014086Y013542D01*
X014086Y018801D01*
X012961Y018801D01*
X012859Y018810D01*
X012759Y018836D01*
X012666Y018880D01*
X012582Y018939D01*
X012509Y019012D01*
X002922Y019012D01*
X002922Y018998D02*
X002922Y020572D01*
X002928Y020641D01*
X002946Y020707D01*
X002975Y020769D01*
X003014Y020826D01*
X003063Y020874D01*
X003119Y020913D01*
X003181Y020942D01*
X003247Y020960D01*
X003316Y020966D01*
X007741Y020966D01*
X007865Y020842D01*
X007865Y020842D01*
X008237Y020627D01*
X008237Y020627D01*
X008652Y020516D01*
X012371Y020516D01*
X012371Y019391D01*
X012380Y019289D01*
X012406Y019189D01*
X012450Y019096D01*
X012509Y019012D01*
X012443Y019111D02*
X002922Y019111D01*
X002922Y019209D02*
X012401Y019209D01*
X012378Y019308D02*
X002922Y019308D01*
X002922Y019406D02*
X012371Y019406D01*
X012371Y019505D02*
X002922Y019505D01*
X002922Y019603D02*
X012371Y019603D01*
X012371Y019702D02*
X002922Y019702D01*
X002922Y019800D02*
X012371Y019800D01*
X012371Y019899D02*
X002922Y019899D01*
X002922Y019997D02*
X012371Y019997D01*
X012371Y020096D02*
X002922Y020096D01*
X002922Y020194D02*
X012371Y020194D01*
X012371Y020293D02*
X002922Y020293D01*
X002922Y020391D02*
X012371Y020391D01*
X012371Y020490D02*
X002922Y020490D01*
X002923Y020588D02*
X008384Y020588D01*
X008135Y020687D02*
X002940Y020687D01*
X002986Y020785D02*
X007964Y020785D01*
X007824Y020884D02*
X003076Y020884D01*
X002922Y018998D02*
X002928Y018929D01*
X002946Y018863D01*
X002975Y018801D01*
X003014Y018745D01*
X003063Y018696D01*
X003119Y018657D01*
X003181Y018628D01*
X003247Y018610D01*
X003316Y018604D01*
X010667Y018604D01*
X010790Y018594D01*
X010910Y018565D01*
X011024Y018518D01*
X011130Y018454D01*
X011224Y018373D01*
X011943Y017653D01*
X012024Y017560D01*
X012088Y017454D01*
X012135Y017340D01*
X012164Y017220D01*
X012174Y017097D01*
X012174Y014273D01*
X012168Y014205D01*
X012150Y014139D01*
X012121Y014076D01*
X012082Y014020D01*
X012033Y013972D01*
X011977Y013932D01*
X011915Y013903D01*
X011849Y013886D01*
X011712Y013874D01*
X011646Y013856D01*
X011583Y013827D01*
X011527Y013787D01*
X011479Y013739D01*
X011439Y013683D01*
X011410Y013620D01*
X011393Y013554D01*
X011387Y013486D01*
X011387Y010336D01*
X011393Y010268D01*
X011410Y010202D01*
X011439Y010139D01*
X011479Y010083D01*
X011527Y010035D01*
X011583Y009995D01*
X011646Y009966D01*
X011712Y009949D01*
X011849Y009937D01*
X011915Y009919D01*
X011977Y009890D01*
X012033Y009850D01*
X012082Y009802D01*
X012121Y009746D01*
X012150Y009683D01*
X012168Y009617D01*
X012174Y009549D01*
X012174Y006725D01*
X012164Y006602D01*
X012135Y006482D01*
X012088Y006368D01*
X012024Y006263D01*
X011943Y006169D01*
X011224Y005449D01*
X011130Y005368D01*
X011024Y005304D01*
X010910Y005257D01*
X010790Y005228D01*
X010667Y005218D01*
X003316Y005218D01*
X003247Y005212D01*
X003181Y005194D01*
X003119Y005165D01*
X003063Y005126D01*
X003014Y005077D01*
X002975Y005021D01*
X002946Y004959D01*
X002928Y004893D01*
X002922Y004824D01*
X002922Y003250D01*
X002928Y003181D01*
X002935Y003154D02*
X008166Y003154D01*
X007995Y003055D02*
X002974Y003055D01*
X003054Y002957D02*
X007842Y002957D01*
X007743Y002858D02*
X003292Y002858D01*
X002922Y003252D02*
X008451Y003252D01*
X010206Y006202D02*
X010374Y006214D01*
X010538Y006250D01*
X010696Y006309D01*
X010844Y006390D01*
X010979Y006491D01*
X011098Y006610D01*
X011199Y006745D01*
X011280Y006893D01*
X011339Y007051D01*
X011375Y007215D01*
X011387Y007383D01*
X011387Y008171D01*
X011375Y008339D01*
X011339Y008504D01*
X011280Y008662D01*
X011199Y008809D01*
X011098Y008944D01*
X010979Y009063D01*
X010844Y009164D01*
X010696Y009245D01*
X010538Y009304D01*
X010374Y009340D01*
X010206Y009352D01*
X002725Y009352D01*
X002657Y009358D01*
X002591Y009376D01*
X002528Y009405D01*
X002472Y009444D01*
X002424Y009493D01*
X002384Y009549D01*
X002355Y009611D01*
X002337Y009677D01*
X002331Y009746D01*
X002331Y014076D01*
X002337Y014145D01*
X002355Y014211D01*
X002384Y014273D01*
X002424Y014329D01*
X002472Y014378D01*
X002528Y014417D01*
X002591Y014446D01*
X002657Y014464D01*
X002725Y014470D01*
X010206Y014470D01*
X010374Y014482D01*
X010538Y014518D01*
X010696Y014577D01*
X010844Y014658D01*
X010979Y014759D01*
X011098Y014878D01*
X011199Y015013D01*
X011280Y015161D01*
X011339Y015318D01*
X011375Y015483D01*
X011387Y015651D01*
X011387Y016439D01*
X011375Y016607D01*
X011339Y016771D01*
X011280Y016929D01*
X011199Y017077D01*
X011098Y017212D01*
X010979Y017331D01*
X010844Y017432D01*
X010696Y017513D01*
X010538Y017572D01*
X010374Y017608D01*
X010206Y017620D01*
X001544Y017620D01*
X001476Y017614D01*
X001409Y017596D01*
X001347Y017567D01*
X001291Y017528D01*
X001243Y017479D01*
X001207Y017428D01*
X001207Y006394D01*
X001243Y006343D01*
X001291Y006294D01*
X001347Y006255D01*
X001409Y006226D01*
X001476Y006208D01*
X001544Y006202D01*
X010206Y006202D01*
X010271Y006207D02*
X001491Y006207D01*
X001280Y006306D02*
X010687Y006306D01*
X010863Y006404D02*
X001207Y006404D01*
X001207Y006503D02*
X010991Y006503D01*
X011089Y006601D02*
X001207Y006601D01*
X001207Y006700D02*
X011165Y006700D01*
X011228Y006798D02*
X001207Y006798D01*
X001207Y006897D02*
X011281Y006897D01*
X011318Y006995D02*
X001207Y006995D01*
X001207Y007094D02*
X011348Y007094D01*
X011370Y007192D02*
X001207Y007192D01*
X001207Y007291D02*
X011380Y007291D01*
X011387Y007389D02*
X001207Y007389D01*
X001207Y007488D02*
X011387Y007488D01*
X011387Y007586D02*
X001207Y007586D01*
X001207Y007685D02*
X011387Y007685D01*
X011387Y007783D02*
X001207Y007783D01*
X001207Y007882D02*
X011387Y007882D01*
X011387Y007980D02*
X001207Y007980D01*
X001207Y008079D02*
X011387Y008079D01*
X011386Y008177D02*
X001207Y008177D01*
X001207Y008276D02*
X011379Y008276D01*
X011367Y008374D02*
X001207Y008374D01*
X001207Y008473D02*
X011346Y008473D01*
X011314Y008571D02*
X001207Y008571D01*
X001207Y008670D02*
X011276Y008670D01*
X011222Y008768D02*
X001207Y008768D01*
X001207Y008867D02*
X011156Y008867D01*
X011077Y008965D02*
X001207Y008965D01*
X001207Y009064D02*
X010979Y009064D01*
X010847Y009162D02*
X001207Y009162D01*
X001207Y009261D02*
X010655Y009261D01*
X010340Y010360D02*
X010274Y010342D01*
X010206Y010336D01*
X003513Y010336D01*
X003444Y010342D01*
X003378Y010360D01*
X003316Y010389D01*
X003260Y010428D01*
X003211Y010477D01*
X003172Y010533D01*
X003143Y010595D01*
X003125Y010662D01*
X003119Y010730D01*
X003119Y013092D01*
X003125Y013160D01*
X003143Y013227D01*
X003172Y013289D01*
X003211Y013345D01*
X003260Y013394D01*
X003316Y013433D01*
X003378Y013462D01*
X003444Y013480D01*
X003513Y013486D01*
X010206Y013486D01*
X010274Y013480D01*
X010340Y013462D01*
X010402Y013433D01*
X010459Y013394D01*
X010507Y013345D01*
X010546Y013289D01*
X010575Y013227D01*
X010593Y013160D01*
X010599Y013092D01*
X010599Y010730D01*
X010593Y010662D01*
X010575Y010595D01*
X010546Y010533D01*
X010507Y010477D01*
X010459Y010428D01*
X010402Y010389D01*
X010340Y010360D01*
X010281Y010344D02*
X003437Y010344D01*
X003245Y010443D02*
X010473Y010443D01*
X010550Y010541D02*
X003168Y010541D01*
X003131Y010640D02*
X010587Y010640D01*
X010599Y010738D02*
X003119Y010738D01*
X003119Y010837D02*
X010599Y010837D01*
X010599Y010935D02*
X003119Y010935D01*
X003119Y011034D02*
X010599Y011034D01*
X010599Y011132D02*
X003119Y011132D01*
X003119Y011231D02*
X010599Y011231D01*
X010599Y011329D02*
X003119Y011329D01*
X003119Y011428D02*
X010599Y011428D01*
X010599Y011526D02*
X003119Y011526D01*
X003119Y011625D02*
X010599Y011625D01*
X010599Y011723D02*
X003119Y011723D01*
X003119Y011822D02*
X010599Y011822D01*
X010599Y011920D02*
X003119Y011920D01*
X003119Y012019D02*
X010599Y012019D01*
X010599Y012117D02*
X003119Y012117D01*
X003119Y012216D02*
X010599Y012216D01*
X010599Y012314D02*
X003119Y012314D01*
X003119Y012413D02*
X010599Y012413D01*
X010599Y012511D02*
X003119Y012511D01*
X003119Y012610D02*
X010599Y012610D01*
X010599Y012708D02*
X003119Y012708D01*
X003119Y012807D02*
X010599Y012807D01*
X010599Y012905D02*
X003119Y012905D01*
X003119Y013004D02*
X010599Y013004D01*
X010598Y013102D02*
X003120Y013102D01*
X003136Y013201D02*
X010583Y013201D01*
X010539Y013299D02*
X003179Y013299D01*
X003265Y013398D02*
X010453Y013398D01*
X010359Y014481D02*
X001207Y014481D01*
X001207Y014383D02*
X002479Y014383D01*
X002392Y014284D02*
X001207Y014284D01*
X001207Y014186D02*
X002348Y014186D01*
X002332Y014087D02*
X001207Y014087D01*
X001207Y013989D02*
X002331Y013989D01*
X002331Y013890D02*
X001207Y013890D01*
X001207Y013792D02*
X002331Y013792D01*
X002331Y013693D02*
X001207Y013693D01*
X001207Y013595D02*
X002331Y013595D01*
X002331Y013496D02*
X001207Y013496D01*
X001207Y013398D02*
X002331Y013398D01*
X002331Y013299D02*
X001207Y013299D01*
X001207Y013201D02*
X002331Y013201D01*
X002331Y013102D02*
X001207Y013102D01*
X001207Y013004D02*
X002331Y013004D01*
X002331Y012905D02*
X001207Y012905D01*
X001207Y012807D02*
X002331Y012807D01*
X002331Y012708D02*
X001207Y012708D01*
X001207Y012610D02*
X002331Y012610D01*
X002331Y012511D02*
X001207Y012511D01*
X001207Y012413D02*
X002331Y012413D01*
X002331Y012314D02*
X001207Y012314D01*
X001207Y012216D02*
X002331Y012216D01*
X002331Y012117D02*
X001207Y012117D01*
X001207Y012019D02*
X002331Y012019D01*
X002331Y011920D02*
X001207Y011920D01*
X001207Y011822D02*
X002331Y011822D01*
X002331Y011723D02*
X001207Y011723D01*
X001207Y011625D02*
X002331Y011625D01*
X002331Y011526D02*
X001207Y011526D01*
X001207Y011428D02*
X002331Y011428D01*
X002331Y011329D02*
X001207Y011329D01*
X001207Y011231D02*
X002331Y011231D01*
X002331Y011132D02*
X001207Y011132D01*
X001207Y011034D02*
X002331Y011034D01*
X002331Y010935D02*
X001207Y010935D01*
X001207Y010837D02*
X002331Y010837D01*
X002331Y010738D02*
X001207Y010738D01*
X001207Y010640D02*
X002331Y010640D01*
X002331Y010541D02*
X001207Y010541D01*
X001207Y010443D02*
X002331Y010443D01*
X002331Y010344D02*
X001207Y010344D01*
X001207Y010246D02*
X002331Y010246D01*
X002331Y010147D02*
X001207Y010147D01*
X001207Y010049D02*
X002331Y010049D01*
X002331Y009950D02*
X001207Y009950D01*
X001207Y009852D02*
X002331Y009852D01*
X002331Y009753D02*
X001207Y009753D01*
X001207Y009655D02*
X002344Y009655D01*
X002381Y009556D02*
X001207Y009556D01*
X001207Y009458D02*
X002459Y009458D01*
X002653Y009359D02*
X001207Y009359D01*
X003060Y005124D02*
X014086Y005124D01*
X014086Y005222D02*
X010716Y005222D01*
X011051Y005321D02*
X014086Y005321D01*
X014086Y005419D02*
X011189Y005419D01*
X011292Y005518D02*
X014086Y005518D01*
X014086Y005616D02*
X011391Y005616D01*
X011489Y005715D02*
X014086Y005715D01*
X014086Y005813D02*
X011588Y005813D01*
X011686Y005912D02*
X014086Y005912D01*
X014086Y006010D02*
X011785Y006010D01*
X011883Y006109D02*
X014086Y006109D01*
X014086Y006207D02*
X011976Y006207D01*
X012050Y006306D02*
X014086Y006306D01*
X014086Y006404D02*
X012103Y006404D01*
X012140Y006503D02*
X014086Y006503D01*
X014086Y006601D02*
X012164Y006601D01*
X012172Y006700D02*
X014086Y006700D01*
X014086Y006798D02*
X012174Y006798D01*
X012174Y006897D02*
X014086Y006897D01*
X014086Y006995D02*
X012174Y006995D01*
X012174Y007094D02*
X014086Y007094D01*
X014086Y007192D02*
X012174Y007192D01*
X012174Y007291D02*
X014086Y007291D01*
X014086Y007389D02*
X012174Y007389D01*
X012174Y007488D02*
X014086Y007488D01*
X014086Y007586D02*
X012174Y007586D01*
X012174Y007685D02*
X014086Y007685D01*
X014086Y007783D02*
X012174Y007783D01*
X012174Y007882D02*
X014086Y007882D01*
X014086Y007980D02*
X012174Y007980D01*
X012174Y008079D02*
X014086Y008079D01*
X014086Y008177D02*
X012174Y008177D01*
X012174Y008276D02*
X014086Y008276D01*
X014086Y008374D02*
X012174Y008374D01*
X012174Y008473D02*
X014086Y008473D01*
X014086Y008571D02*
X012174Y008571D01*
X012174Y008670D02*
X014086Y008670D01*
X014086Y008768D02*
X012174Y008768D01*
X012174Y008867D02*
X014086Y008867D01*
X014086Y008965D02*
X012174Y008965D01*
X012174Y009064D02*
X014086Y009064D01*
X014086Y009162D02*
X012174Y009162D01*
X012174Y009261D02*
X014086Y009261D01*
X014086Y009359D02*
X012174Y009359D01*
X012174Y009458D02*
X014086Y009458D01*
X014086Y009556D02*
X012173Y009556D01*
X012158Y009655D02*
X014086Y009655D01*
X014086Y009753D02*
X012116Y009753D01*
X012032Y009852D02*
X014086Y009852D01*
X014086Y009950D02*
X011706Y009950D01*
X011513Y010049D02*
X014086Y010049D01*
X014086Y010147D02*
X011436Y010147D01*
X011399Y010246D02*
X014086Y010246D01*
X013426Y010344D02*
X011387Y010344D01*
X011387Y010443D02*
X013237Y010443D01*
X013138Y010541D02*
X011387Y010541D01*
X011387Y010640D02*
X013040Y010640D01*
X012995Y010738D02*
X011387Y010738D01*
X011387Y010837D02*
X012955Y010837D01*
X012914Y010935D02*
X011387Y010935D01*
X011387Y011034D02*
X012905Y011034D01*
X012905Y011132D02*
X011387Y011132D01*
X011387Y011231D02*
X012905Y011231D01*
X012905Y011329D02*
X011387Y011329D01*
X011387Y011428D02*
X012905Y011428D01*
X012905Y011526D02*
X011387Y011526D01*
X011387Y011625D02*
X012905Y011625D01*
X012905Y011723D02*
X011387Y011723D01*
X011387Y011822D02*
X012905Y011822D01*
X012905Y011920D02*
X011387Y011920D01*
X011387Y012019D02*
X012905Y012019D01*
X012905Y012117D02*
X011387Y012117D01*
X011387Y012216D02*
X012905Y012216D01*
X012905Y012314D02*
X011387Y012314D01*
X011387Y012413D02*
X012905Y012413D01*
X012905Y012511D02*
X011387Y012511D01*
X011387Y012610D02*
X012905Y012610D01*
X012905Y012708D02*
X011387Y012708D01*
X011387Y012807D02*
X012905Y012807D01*
X012921Y012905D02*
X011387Y012905D01*
X011387Y013004D02*
X012962Y013004D01*
X013003Y013102D02*
X011387Y013102D01*
X011387Y013201D02*
X013058Y013201D01*
X013156Y013299D02*
X011387Y013299D01*
X011387Y013398D02*
X013255Y013398D01*
X013470Y013496D02*
X011388Y013496D01*
X011403Y013595D02*
X014086Y013595D01*
X014086Y013693D02*
X011447Y013693D01*
X011533Y013792D02*
X014086Y013792D01*
X014086Y013890D02*
X011866Y013890D01*
X012050Y013989D02*
X014086Y013989D01*
X014086Y014087D02*
X012126Y014087D01*
X012163Y014186D02*
X014086Y014186D01*
X014086Y014284D02*
X012174Y014284D01*
X012174Y014383D02*
X014086Y014383D01*
X014086Y014481D02*
X012174Y014481D01*
X012174Y014580D02*
X014086Y014580D01*
X014086Y014678D02*
X012174Y014678D01*
X012174Y014777D02*
X014086Y014777D01*
X014086Y014875D02*
X012174Y014875D01*
X012174Y014974D02*
X014086Y014974D01*
X014086Y015072D02*
X012174Y015072D01*
X012174Y015171D02*
X014086Y015171D01*
X014086Y015269D02*
X012174Y015269D01*
X012174Y015368D02*
X014086Y015368D01*
X014086Y015466D02*
X012174Y015466D01*
X012174Y015565D02*
X014086Y015565D01*
X014086Y015663D02*
X012174Y015663D01*
X012174Y015762D02*
X014086Y015762D01*
X014086Y015860D02*
X012174Y015860D01*
X012174Y015959D02*
X014086Y015959D01*
X014086Y016057D02*
X012174Y016057D01*
X012174Y016156D02*
X014086Y016156D01*
X014086Y016254D02*
X012174Y016254D01*
X012174Y016353D02*
X014086Y016353D01*
X014086Y016451D02*
X012174Y016451D01*
X012174Y016550D02*
X014086Y016550D01*
X014086Y016648D02*
X012174Y016648D01*
X012174Y016747D02*
X014086Y016747D01*
X014086Y016845D02*
X012174Y016845D01*
X012174Y016944D02*
X014086Y016944D01*
X014086Y017042D02*
X012174Y017042D01*
X012171Y017141D02*
X014086Y017141D01*
X014086Y017239D02*
X012160Y017239D01*
X012136Y017338D02*
X014086Y017338D01*
X014086Y017436D02*
X012096Y017436D01*
X012039Y017535D02*
X014086Y017535D01*
X014086Y017633D02*
X011961Y017633D01*
X011865Y017732D02*
X014086Y017732D01*
X014086Y017830D02*
X011767Y017830D01*
X011668Y017929D02*
X014086Y017929D01*
X014086Y018027D02*
X011570Y018027D01*
X011471Y018126D02*
X014086Y018126D01*
X014086Y018224D02*
X011373Y018224D01*
X011274Y018323D02*
X014086Y018323D01*
X014086Y018421D02*
X011168Y018421D01*
X011021Y018520D02*
X014086Y018520D01*
X014086Y018618D02*
X003217Y018618D01*
X003042Y018717D02*
X014086Y018717D01*
X012839Y018815D02*
X002968Y018815D01*
X002932Y018914D02*
X012618Y018914D01*
X011218Y017042D02*
X001207Y017042D01*
X001207Y016944D02*
X011272Y016944D01*
X011311Y016845D02*
X001207Y016845D01*
X001207Y016747D02*
X011344Y016747D01*
X011366Y016648D02*
X001207Y016648D01*
X001207Y016550D02*
X011379Y016550D01*
X011386Y016451D02*
X001207Y016451D01*
X001207Y016353D02*
X011387Y016353D01*
X011387Y016254D02*
X001207Y016254D01*
X001207Y016156D02*
X011387Y016156D01*
X011387Y016057D02*
X001207Y016057D01*
X001207Y015959D02*
X011387Y015959D01*
X011387Y015860D02*
X001207Y015860D01*
X001207Y015762D02*
X011387Y015762D01*
X011387Y015663D02*
X001207Y015663D01*
X001207Y015565D02*
X011380Y015565D01*
X011371Y015466D02*
X001207Y015466D01*
X001207Y015368D02*
X011349Y015368D01*
X011320Y015269D02*
X001207Y015269D01*
X001207Y015171D02*
X011284Y015171D01*
X011232Y015072D02*
X001207Y015072D01*
X001207Y014974D02*
X011170Y014974D01*
X011095Y014875D02*
X001207Y014875D01*
X001207Y014777D02*
X010997Y014777D01*
X010871Y014678D02*
X001207Y014678D01*
X001207Y014580D02*
X010701Y014580D01*
X011152Y017141D02*
X001207Y017141D01*
X001207Y017239D02*
X011071Y017239D01*
X010970Y017338D02*
X001207Y017338D01*
X001212Y017436D02*
X010837Y017436D01*
X010638Y017535D02*
X001301Y017535D01*
X002977Y005025D02*
X014086Y005025D01*
X012644Y004927D02*
X002937Y004927D01*
X002922Y004828D02*
X012527Y004828D01*
X012452Y004730D02*
X002922Y004730D01*
X002922Y004631D02*
X012406Y004631D01*
X012380Y004533D02*
X002922Y004533D01*
X002922Y004434D02*
X012371Y004434D01*
X012371Y004336D02*
X002922Y004336D01*
X002922Y004237D02*
X012371Y004237D01*
X012371Y004139D02*
X002922Y004139D01*
X002922Y004040D02*
X012371Y004040D01*
X012371Y003942D02*
X002922Y003942D01*
X002922Y003843D02*
X012371Y003843D01*
X012371Y003745D02*
X002922Y003745D01*
X002922Y003646D02*
X012371Y003646D01*
X012371Y003548D02*
X002922Y003548D01*
X002922Y003449D02*
X012371Y003449D01*
X012371Y003351D02*
X002922Y003351D01*
M02*
