G75*
G70*
%OFA0B0*%
%FSLAX24Y24*%
%IPPOS*%
%LPD*%
%AMOC8*
5,1,8,0,0,1.08239X$1,22.5*
%
%ADD10C,0.0000*%
D10*
X000757Y001281D02*
X000757Y022541D01*
X000759Y022607D01*
X000764Y022673D01*
X000774Y022739D01*
X000787Y022804D01*
X000803Y022868D01*
X000823Y022931D01*
X000847Y022993D01*
X000874Y023053D01*
X000904Y023112D01*
X000938Y023169D01*
X000975Y023224D01*
X001015Y023277D01*
X001057Y023328D01*
X001103Y023376D01*
X001151Y023422D01*
X001202Y023464D01*
X001255Y023504D01*
X001310Y023541D01*
X001367Y023575D01*
X001426Y023605D01*
X001486Y023632D01*
X001548Y023656D01*
X001611Y023676D01*
X001675Y023692D01*
X001740Y023705D01*
X001806Y023715D01*
X001872Y023720D01*
X001938Y023722D01*
X006505Y023722D01*
X006571Y023720D01*
X006637Y023715D01*
X006703Y023705D01*
X006768Y023692D01*
X006832Y023676D01*
X006895Y023656D01*
X006957Y023632D01*
X007017Y023605D01*
X007076Y023575D01*
X007133Y023541D01*
X007188Y023504D01*
X007241Y023464D01*
X007292Y023422D01*
X007340Y023376D01*
X007386Y023328D01*
X007428Y023277D01*
X007468Y023224D01*
X007505Y023169D01*
X007539Y023112D01*
X007569Y023053D01*
X007596Y022993D01*
X007620Y022931D01*
X007640Y022868D01*
X007656Y022804D01*
X007669Y022739D01*
X007679Y022673D01*
X007684Y022607D01*
X007686Y022541D01*
X007686Y022147D01*
X007688Y022081D01*
X007693Y022015D01*
X007703Y021949D01*
X007716Y021884D01*
X007732Y021820D01*
X007752Y021757D01*
X007776Y021695D01*
X007803Y021635D01*
X007833Y021576D01*
X007867Y021519D01*
X007904Y021464D01*
X007944Y021411D01*
X007986Y021360D01*
X008032Y021312D01*
X008080Y021266D01*
X008131Y021224D01*
X008184Y021184D01*
X008239Y021147D01*
X008296Y021113D01*
X008355Y021083D01*
X008415Y021056D01*
X008477Y021032D01*
X008540Y021012D01*
X008604Y020996D01*
X008669Y020983D01*
X008735Y020973D01*
X008801Y020968D01*
X008867Y020966D01*
X013355Y020966D01*
X012942Y019785D02*
X012944Y019825D01*
X012950Y019866D01*
X012960Y019905D01*
X012973Y019943D01*
X012991Y019980D01*
X013012Y020014D01*
X013036Y020047D01*
X013063Y020077D01*
X013093Y020104D01*
X013126Y020128D01*
X013160Y020149D01*
X013197Y020167D01*
X013235Y020180D01*
X013274Y020190D01*
X013315Y020196D01*
X013355Y020198D01*
X013395Y020196D01*
X013436Y020190D01*
X013475Y020180D01*
X013513Y020167D01*
X013550Y020149D01*
X013584Y020128D01*
X013617Y020104D01*
X013647Y020077D01*
X013674Y020047D01*
X013698Y020014D01*
X013719Y019980D01*
X013737Y019943D01*
X013750Y019905D01*
X013760Y019866D01*
X013766Y019825D01*
X013768Y019785D01*
X013766Y019745D01*
X013760Y019704D01*
X013750Y019665D01*
X013737Y019627D01*
X013719Y019590D01*
X013698Y019556D01*
X013674Y019523D01*
X013647Y019493D01*
X013617Y019466D01*
X013584Y019442D01*
X013550Y019421D01*
X013513Y019403D01*
X013475Y019390D01*
X013436Y019380D01*
X013395Y019374D01*
X013355Y019372D01*
X013315Y019374D01*
X013274Y019380D01*
X013235Y019390D01*
X013197Y019403D01*
X013160Y019421D01*
X013126Y019442D01*
X013093Y019466D01*
X013063Y019493D01*
X013036Y019523D01*
X013012Y019556D01*
X012991Y019590D01*
X012973Y019627D01*
X012960Y019665D01*
X012950Y019704D01*
X012944Y019745D01*
X012942Y019785D01*
X013355Y020966D02*
X013421Y020964D01*
X013487Y020959D01*
X013553Y020949D01*
X013618Y020936D01*
X013682Y020920D01*
X013745Y020900D01*
X013807Y020876D01*
X013867Y020849D01*
X013926Y020819D01*
X013983Y020785D01*
X014038Y020748D01*
X014091Y020708D01*
X014142Y020666D01*
X014190Y020620D01*
X014236Y020572D01*
X014278Y020521D01*
X014318Y020468D01*
X014355Y020413D01*
X014389Y020356D01*
X014419Y020297D01*
X014446Y020237D01*
X014470Y020175D01*
X014490Y020112D01*
X014506Y020048D01*
X014519Y019983D01*
X014529Y019917D01*
X014534Y019851D01*
X014536Y019785D01*
X014536Y013486D01*
X014537Y013486D02*
X014535Y013447D01*
X014529Y013409D01*
X014520Y013372D01*
X014507Y013335D01*
X014490Y013300D01*
X014471Y013267D01*
X014448Y013236D01*
X014422Y013207D01*
X014393Y013181D01*
X014362Y013158D01*
X014329Y013139D01*
X014294Y013122D01*
X014257Y013109D01*
X014220Y013100D01*
X014182Y013094D01*
X014143Y013092D01*
X013749Y013092D01*
X013710Y013090D01*
X013672Y013084D01*
X013635Y013075D01*
X013598Y013062D01*
X013563Y013045D01*
X013530Y013026D01*
X013499Y013003D01*
X013470Y012977D01*
X013444Y012948D01*
X013421Y012917D01*
X013402Y012884D01*
X013385Y012849D01*
X013372Y012812D01*
X013363Y012775D01*
X013357Y012737D01*
X013355Y012698D01*
X013355Y011124D01*
X013357Y011085D01*
X013363Y011047D01*
X013372Y011010D01*
X013385Y010973D01*
X013402Y010938D01*
X013421Y010905D01*
X013444Y010874D01*
X013470Y010845D01*
X013499Y010819D01*
X013530Y010796D01*
X013563Y010777D01*
X013598Y010760D01*
X013635Y010747D01*
X013672Y010738D01*
X013710Y010732D01*
X013749Y010730D01*
X014143Y010730D01*
X014182Y010728D01*
X014220Y010722D01*
X014257Y010713D01*
X014294Y010700D01*
X014329Y010683D01*
X014362Y010664D01*
X014393Y010641D01*
X014422Y010615D01*
X014448Y010586D01*
X014471Y010555D01*
X014490Y010522D01*
X014507Y010487D01*
X014520Y010450D01*
X014529Y010413D01*
X014535Y010375D01*
X014537Y010336D01*
X014536Y010336D02*
X014536Y004037D01*
X012942Y004037D02*
X012944Y004077D01*
X012950Y004118D01*
X012960Y004157D01*
X012973Y004195D01*
X012991Y004232D01*
X013012Y004266D01*
X013036Y004299D01*
X013063Y004329D01*
X013093Y004356D01*
X013126Y004380D01*
X013160Y004401D01*
X013197Y004419D01*
X013235Y004432D01*
X013274Y004442D01*
X013315Y004448D01*
X013355Y004450D01*
X013395Y004448D01*
X013436Y004442D01*
X013475Y004432D01*
X013513Y004419D01*
X013550Y004401D01*
X013584Y004380D01*
X013617Y004356D01*
X013647Y004329D01*
X013674Y004299D01*
X013698Y004266D01*
X013719Y004232D01*
X013737Y004195D01*
X013750Y004157D01*
X013760Y004118D01*
X013766Y004077D01*
X013768Y004037D01*
X013766Y003997D01*
X013760Y003956D01*
X013750Y003917D01*
X013737Y003879D01*
X013719Y003842D01*
X013698Y003808D01*
X013674Y003775D01*
X013647Y003745D01*
X013617Y003718D01*
X013584Y003694D01*
X013550Y003673D01*
X013513Y003655D01*
X013475Y003642D01*
X013436Y003632D01*
X013395Y003626D01*
X013355Y003624D01*
X013315Y003626D01*
X013274Y003632D01*
X013235Y003642D01*
X013197Y003655D01*
X013160Y003673D01*
X013126Y003694D01*
X013093Y003718D01*
X013063Y003745D01*
X013036Y003775D01*
X013012Y003808D01*
X012991Y003842D01*
X012973Y003879D01*
X012960Y003917D01*
X012950Y003956D01*
X012944Y003997D01*
X012942Y004037D01*
X013355Y002856D02*
X013421Y002858D01*
X013487Y002863D01*
X013553Y002873D01*
X013618Y002886D01*
X013682Y002902D01*
X013745Y002922D01*
X013807Y002946D01*
X013867Y002973D01*
X013926Y003003D01*
X013983Y003037D01*
X014038Y003074D01*
X014091Y003114D01*
X014142Y003156D01*
X014190Y003202D01*
X014236Y003250D01*
X014278Y003301D01*
X014318Y003354D01*
X014355Y003409D01*
X014389Y003466D01*
X014419Y003525D01*
X014446Y003585D01*
X014470Y003647D01*
X014490Y003710D01*
X014506Y003774D01*
X014519Y003839D01*
X014529Y003905D01*
X014534Y003971D01*
X014536Y004037D01*
X013355Y002856D02*
X008867Y002856D01*
X008801Y002854D01*
X008735Y002849D01*
X008669Y002839D01*
X008604Y002826D01*
X008540Y002810D01*
X008477Y002790D01*
X008415Y002766D01*
X008355Y002739D01*
X008296Y002709D01*
X008239Y002675D01*
X008184Y002638D01*
X008131Y002598D01*
X008080Y002556D01*
X008032Y002510D01*
X007986Y002462D01*
X007944Y002411D01*
X007904Y002358D01*
X007867Y002303D01*
X007833Y002246D01*
X007803Y002187D01*
X007776Y002127D01*
X007752Y002065D01*
X007732Y002002D01*
X007716Y001938D01*
X007703Y001873D01*
X007693Y001807D01*
X007688Y001741D01*
X007686Y001675D01*
X007686Y001281D01*
X007684Y001215D01*
X007679Y001149D01*
X007669Y001083D01*
X007656Y001018D01*
X007640Y000954D01*
X007620Y000891D01*
X007596Y000829D01*
X007569Y000769D01*
X007539Y000710D01*
X007505Y000653D01*
X007468Y000598D01*
X007428Y000545D01*
X007386Y000494D01*
X007340Y000446D01*
X007292Y000400D01*
X007241Y000358D01*
X007188Y000318D01*
X007133Y000281D01*
X007076Y000247D01*
X007017Y000217D01*
X006957Y000190D01*
X006895Y000166D01*
X006832Y000146D01*
X006768Y000130D01*
X006703Y000117D01*
X006637Y000107D01*
X006571Y000102D01*
X006505Y000100D01*
X001938Y000100D01*
X001872Y000102D01*
X001806Y000107D01*
X001740Y000117D01*
X001675Y000130D01*
X001611Y000146D01*
X001548Y000166D01*
X001486Y000190D01*
X001426Y000217D01*
X001367Y000247D01*
X001310Y000281D01*
X001255Y000318D01*
X001202Y000358D01*
X001151Y000400D01*
X001103Y000446D01*
X001057Y000494D01*
X001015Y000545D01*
X000975Y000598D01*
X000938Y000653D01*
X000904Y000710D01*
X000874Y000769D01*
X000847Y000829D01*
X000823Y000891D01*
X000803Y000954D01*
X000787Y001018D01*
X000774Y001083D01*
X000764Y001149D01*
X000759Y001215D01*
X000757Y001281D01*
X001525Y004037D02*
X001527Y004077D01*
X001533Y004118D01*
X001543Y004157D01*
X001556Y004195D01*
X001574Y004232D01*
X001595Y004266D01*
X001619Y004299D01*
X001646Y004329D01*
X001676Y004356D01*
X001709Y004380D01*
X001743Y004401D01*
X001780Y004419D01*
X001818Y004432D01*
X001857Y004442D01*
X001898Y004448D01*
X001938Y004450D01*
X001978Y004448D01*
X002019Y004442D01*
X002058Y004432D01*
X002096Y004419D01*
X002133Y004401D01*
X002167Y004380D01*
X002200Y004356D01*
X002230Y004329D01*
X002257Y004299D01*
X002281Y004266D01*
X002302Y004232D01*
X002320Y004195D01*
X002333Y004157D01*
X002343Y004118D01*
X002349Y004077D01*
X002351Y004037D01*
X002349Y003997D01*
X002343Y003956D01*
X002333Y003917D01*
X002320Y003879D01*
X002302Y003842D01*
X002281Y003808D01*
X002257Y003775D01*
X002230Y003745D01*
X002200Y003718D01*
X002167Y003694D01*
X002133Y003673D01*
X002096Y003655D01*
X002058Y003642D01*
X002019Y003632D01*
X001978Y003626D01*
X001938Y003624D01*
X001898Y003626D01*
X001857Y003632D01*
X001818Y003642D01*
X001780Y003655D01*
X001743Y003673D01*
X001709Y003694D01*
X001676Y003718D01*
X001646Y003745D01*
X001619Y003775D01*
X001595Y003808D01*
X001574Y003842D01*
X001556Y003879D01*
X001543Y003917D01*
X001533Y003956D01*
X001527Y003997D01*
X001525Y004037D01*
X003591Y001724D02*
X003593Y001774D01*
X003599Y001824D01*
X003609Y001873D01*
X003623Y001921D01*
X003640Y001968D01*
X003661Y002013D01*
X003686Y002057D01*
X003714Y002098D01*
X003746Y002137D01*
X003780Y002174D01*
X003817Y002208D01*
X003857Y002238D01*
X003899Y002265D01*
X003943Y002289D01*
X003989Y002310D01*
X004036Y002326D01*
X004084Y002339D01*
X004134Y002348D01*
X004183Y002353D01*
X004234Y002354D01*
X004284Y002351D01*
X004333Y002344D01*
X004382Y002333D01*
X004430Y002318D01*
X004476Y002300D01*
X004521Y002278D01*
X004564Y002252D01*
X004605Y002223D01*
X004644Y002191D01*
X004680Y002156D01*
X004712Y002118D01*
X004742Y002078D01*
X004769Y002035D01*
X004792Y001991D01*
X004811Y001945D01*
X004827Y001897D01*
X004839Y001848D01*
X004847Y001799D01*
X004851Y001749D01*
X004851Y001699D01*
X004847Y001649D01*
X004839Y001600D01*
X004827Y001551D01*
X004811Y001503D01*
X004792Y001457D01*
X004769Y001413D01*
X004742Y001370D01*
X004712Y001330D01*
X004680Y001292D01*
X004644Y001257D01*
X004605Y001225D01*
X004564Y001196D01*
X004521Y001170D01*
X004476Y001148D01*
X004430Y001130D01*
X004382Y001115D01*
X004333Y001104D01*
X004284Y001097D01*
X004234Y001094D01*
X004183Y001095D01*
X004134Y001100D01*
X004084Y001109D01*
X004036Y001122D01*
X003989Y001138D01*
X003943Y001159D01*
X003899Y001183D01*
X003857Y001210D01*
X003817Y001240D01*
X003780Y001274D01*
X003746Y001311D01*
X003714Y001350D01*
X003686Y001391D01*
X003661Y001435D01*
X003640Y001480D01*
X003623Y001527D01*
X003609Y001575D01*
X003599Y001624D01*
X003593Y001674D01*
X003591Y001724D01*
X001525Y019785D02*
X001527Y019825D01*
X001533Y019866D01*
X001543Y019905D01*
X001556Y019943D01*
X001574Y019980D01*
X001595Y020014D01*
X001619Y020047D01*
X001646Y020077D01*
X001676Y020104D01*
X001709Y020128D01*
X001743Y020149D01*
X001780Y020167D01*
X001818Y020180D01*
X001857Y020190D01*
X001898Y020196D01*
X001938Y020198D01*
X001978Y020196D01*
X002019Y020190D01*
X002058Y020180D01*
X002096Y020167D01*
X002133Y020149D01*
X002167Y020128D01*
X002200Y020104D01*
X002230Y020077D01*
X002257Y020047D01*
X002281Y020014D01*
X002302Y019980D01*
X002320Y019943D01*
X002333Y019905D01*
X002343Y019866D01*
X002349Y019825D01*
X002351Y019785D01*
X002349Y019745D01*
X002343Y019704D01*
X002333Y019665D01*
X002320Y019627D01*
X002302Y019590D01*
X002281Y019556D01*
X002257Y019523D01*
X002230Y019493D01*
X002200Y019466D01*
X002167Y019442D01*
X002133Y019421D01*
X002096Y019403D01*
X002058Y019390D01*
X002019Y019380D01*
X001978Y019374D01*
X001938Y019372D01*
X001898Y019374D01*
X001857Y019380D01*
X001818Y019390D01*
X001780Y019403D01*
X001743Y019421D01*
X001709Y019442D01*
X001676Y019466D01*
X001646Y019493D01*
X001619Y019523D01*
X001595Y019556D01*
X001574Y019590D01*
X001556Y019627D01*
X001543Y019665D01*
X001533Y019704D01*
X001527Y019745D01*
X001525Y019785D01*
X003591Y022098D02*
X003593Y022148D01*
X003599Y022198D01*
X003609Y022247D01*
X003623Y022295D01*
X003640Y022342D01*
X003661Y022387D01*
X003686Y022431D01*
X003714Y022472D01*
X003746Y022511D01*
X003780Y022548D01*
X003817Y022582D01*
X003857Y022612D01*
X003899Y022639D01*
X003943Y022663D01*
X003989Y022684D01*
X004036Y022700D01*
X004084Y022713D01*
X004134Y022722D01*
X004183Y022727D01*
X004234Y022728D01*
X004284Y022725D01*
X004333Y022718D01*
X004382Y022707D01*
X004430Y022692D01*
X004476Y022674D01*
X004521Y022652D01*
X004564Y022626D01*
X004605Y022597D01*
X004644Y022565D01*
X004680Y022530D01*
X004712Y022492D01*
X004742Y022452D01*
X004769Y022409D01*
X004792Y022365D01*
X004811Y022319D01*
X004827Y022271D01*
X004839Y022222D01*
X004847Y022173D01*
X004851Y022123D01*
X004851Y022073D01*
X004847Y022023D01*
X004839Y021974D01*
X004827Y021925D01*
X004811Y021877D01*
X004792Y021831D01*
X004769Y021787D01*
X004742Y021744D01*
X004712Y021704D01*
X004680Y021666D01*
X004644Y021631D01*
X004605Y021599D01*
X004564Y021570D01*
X004521Y021544D01*
X004476Y021522D01*
X004430Y021504D01*
X004382Y021489D01*
X004333Y021478D01*
X004284Y021471D01*
X004234Y021468D01*
X004183Y021469D01*
X004134Y021474D01*
X004084Y021483D01*
X004036Y021496D01*
X003989Y021512D01*
X003943Y021533D01*
X003899Y021557D01*
X003857Y021584D01*
X003817Y021614D01*
X003780Y021648D01*
X003746Y021685D01*
X003714Y021724D01*
X003686Y021765D01*
X003661Y021809D01*
X003640Y021854D01*
X003623Y021901D01*
X003609Y021949D01*
X003599Y021998D01*
X003593Y022048D01*
X003591Y022098D01*
M02*
