G75*
G70*
%OFA0B0*%
%FSLAX24Y24*%
%IPPOS*%
%LPD*%
%AMOC8*
5,1,8,0,0,1.08239X$1,22.5*
%
%ADD10C,0.0030*%
%ADD11C,0.0257*%
%ADD12C,0.0050*%
%ADD13C,0.0080*%
%ADD14C,0.0060*%
%ADD15C,0.0040*%
%ADD16C,0.0098*%
%ADD17C,0.0100*%
D10*
X007238Y002110D02*
X007300Y002048D01*
X007423Y002048D01*
X007485Y002110D01*
X007485Y002233D01*
X007362Y002233D01*
X007485Y002357D02*
X007423Y002418D01*
X007300Y002418D01*
X007238Y002357D01*
X007238Y002110D01*
X007606Y002048D02*
X007606Y002418D01*
X007853Y002048D01*
X007853Y002418D01*
X007975Y002418D02*
X007975Y002048D01*
X008160Y002048D01*
X008222Y002110D01*
X008222Y002357D01*
X008160Y002418D01*
X007975Y002418D01*
X005859Y005591D02*
X005613Y005591D01*
X005613Y005962D01*
X005491Y005900D02*
X005429Y005962D01*
X005306Y005962D01*
X005244Y005900D01*
X005244Y005653D01*
X005306Y005591D01*
X005429Y005591D01*
X005491Y005653D01*
X005123Y005653D02*
X005123Y005715D01*
X005061Y005776D01*
X004938Y005776D01*
X004876Y005838D01*
X004876Y005900D01*
X004938Y005962D01*
X005061Y005962D01*
X005123Y005900D01*
X005123Y005653D02*
X005061Y005591D01*
X004938Y005591D01*
X004876Y005653D01*
X004938Y006615D02*
X004876Y006677D01*
X004938Y006615D02*
X005061Y006615D01*
X005123Y006677D01*
X005123Y006738D01*
X005061Y006800D01*
X004938Y006800D01*
X004876Y006862D01*
X004876Y006923D01*
X004938Y006985D01*
X005061Y006985D01*
X005123Y006923D01*
X005244Y006985D02*
X005429Y006985D01*
X005491Y006923D01*
X005491Y006677D01*
X005429Y006615D01*
X005244Y006615D01*
X005244Y006985D01*
X005613Y006862D02*
X005613Y006615D01*
X005613Y006800D02*
X005859Y006800D01*
X005859Y006862D02*
X005859Y006615D01*
X005859Y006862D02*
X005736Y006985D01*
X005613Y006862D01*
X005491Y007560D02*
X005368Y007683D01*
X005429Y007683D02*
X005244Y007683D01*
X005244Y007560D02*
X005244Y007930D01*
X005429Y007930D01*
X005491Y007868D01*
X005491Y007745D01*
X005429Y007683D01*
X005123Y007560D02*
X005123Y007930D01*
X004999Y007807D01*
X004876Y007930D01*
X004876Y007560D01*
X004876Y009568D02*
X004876Y009815D01*
X004999Y009938D01*
X005123Y009815D01*
X005123Y009568D01*
X005244Y009568D02*
X005429Y009568D01*
X005491Y009629D01*
X005491Y009876D01*
X005429Y009938D01*
X005244Y009938D01*
X005244Y009568D01*
X005123Y009753D02*
X004876Y009753D01*
X005613Y009876D02*
X005613Y009629D01*
X005674Y009568D01*
X005798Y009568D01*
X005859Y009629D01*
X005981Y009568D02*
X006228Y009568D01*
X006104Y009568D02*
X006104Y009938D01*
X005981Y009815D01*
X005859Y009876D02*
X005798Y009938D01*
X005674Y009938D01*
X005613Y009876D01*
X005674Y010709D02*
X005798Y010709D01*
X005859Y010771D01*
X005981Y010771D02*
X006228Y011018D01*
X006228Y010771D01*
X006166Y010709D01*
X006043Y010709D01*
X005981Y010771D01*
X005981Y011018D01*
X006043Y011080D01*
X006166Y011080D01*
X006228Y011018D01*
X005859Y011018D02*
X005798Y011080D01*
X005674Y011080D01*
X005613Y011018D01*
X005613Y010771D01*
X005674Y010709D01*
X005491Y010771D02*
X005491Y011018D01*
X005429Y011080D01*
X005244Y011080D01*
X005244Y010709D01*
X005429Y010709D01*
X005491Y010771D01*
X005123Y010709D02*
X005123Y010956D01*
X004999Y011080D01*
X004876Y010956D01*
X004876Y010709D01*
X004876Y010895D02*
X005123Y010895D01*
X007238Y011226D02*
X007362Y011103D01*
X007485Y011226D01*
X007485Y011473D01*
X007606Y011473D02*
X007606Y011103D01*
X007792Y011103D01*
X007853Y011165D01*
X007853Y011226D01*
X007792Y011288D01*
X007606Y011288D01*
X007606Y011473D02*
X007792Y011473D01*
X007853Y011412D01*
X007853Y011350D01*
X007792Y011288D01*
X007975Y011165D02*
X007975Y011473D01*
X008222Y011473D02*
X008222Y011165D01*
X008160Y011103D01*
X008036Y011103D01*
X007975Y011165D01*
X008343Y011165D02*
X008405Y011103D01*
X008528Y011103D01*
X008590Y011165D01*
X008590Y011226D01*
X008528Y011288D01*
X008405Y011288D01*
X008343Y011350D01*
X008343Y011412D01*
X008405Y011473D01*
X008528Y011473D01*
X008590Y011412D01*
X007238Y011473D02*
X007238Y011226D01*
X012356Y011165D02*
X012418Y011103D01*
X012541Y011103D01*
X012603Y011165D01*
X012603Y011226D01*
X012541Y011288D01*
X012480Y011288D01*
X012541Y011288D02*
X012603Y011350D01*
X012603Y011412D01*
X012541Y011473D01*
X012418Y011473D01*
X012356Y011412D01*
X012725Y011165D02*
X012786Y011165D01*
X012786Y011103D01*
X012725Y011103D01*
X012725Y011165D01*
X012909Y011165D02*
X012970Y011103D01*
X013094Y011103D01*
X013156Y011165D01*
X013156Y011226D01*
X013094Y011288D01*
X013032Y011288D01*
X013094Y011288D02*
X013156Y011350D01*
X013156Y011412D01*
X013094Y011473D01*
X012970Y011473D01*
X012909Y011412D01*
X013277Y011350D02*
X013400Y011103D01*
X013524Y011350D01*
X014448Y012678D02*
X014448Y013048D01*
X014325Y013048D02*
X014572Y013048D01*
X014693Y012925D02*
X014816Y013048D01*
X014816Y012678D01*
X014693Y012678D02*
X014940Y012678D01*
X015506Y013048D02*
X015753Y013048D01*
X015629Y013048D02*
X015629Y012678D01*
X015874Y012678D02*
X016121Y012925D01*
X016121Y012986D01*
X016059Y013048D01*
X015936Y013048D01*
X015874Y012986D01*
X015874Y012678D02*
X016121Y012678D01*
X018262Y011473D02*
X018262Y011103D01*
X018262Y011226D02*
X018447Y011226D01*
X018509Y011288D01*
X018509Y011412D01*
X018447Y011473D01*
X018262Y011473D01*
X018385Y011226D02*
X018509Y011103D01*
X018630Y011165D02*
X018692Y011103D01*
X018815Y011103D01*
X018877Y011165D01*
X018877Y011226D01*
X018815Y011288D01*
X018692Y011288D01*
X018630Y011350D01*
X018630Y011412D01*
X018692Y011473D01*
X018815Y011473D01*
X018877Y011412D01*
X018998Y011473D02*
X019245Y011473D01*
X019122Y011473D02*
X019122Y011103D01*
X022625Y022009D02*
X022625Y022194D01*
X022687Y022255D01*
X022810Y022255D01*
X022872Y022194D01*
X022872Y022009D01*
X022872Y022132D02*
X022995Y022255D01*
X022995Y022009D02*
X022625Y022009D01*
X023570Y021989D02*
X023570Y022236D01*
X023570Y022112D02*
X023940Y022112D01*
X024554Y022154D02*
X024554Y022031D01*
X024616Y021969D01*
X024863Y021969D01*
X024925Y022031D01*
X024925Y022154D01*
X024863Y022216D01*
X024739Y022216D01*
X024739Y022093D01*
X024616Y022216D02*
X024554Y022154D01*
D11*
X014042Y017053D03*
D12*
X004711Y004198D02*
X001601Y004198D01*
X001601Y012466D01*
X004711Y012466D01*
X004711Y004198D01*
X006180Y008096D02*
X006180Y009356D01*
X006810Y009356D01*
X006810Y008096D01*
X006180Y008096D01*
X007343Y008253D02*
X007343Y009198D01*
X007843Y009198D01*
X007843Y008253D01*
X007343Y008253D01*
X010093Y008253D02*
X010093Y009198D01*
X010593Y009198D01*
X010593Y008253D01*
X010093Y008253D01*
X010924Y007545D02*
X010924Y009907D01*
X012184Y009907D01*
X012184Y007545D01*
X010924Y007545D01*
X017623Y003686D02*
X017623Y002742D01*
X018123Y002742D01*
X018123Y003686D01*
X017623Y003686D01*
X018424Y004913D02*
X028306Y004913D01*
X028306Y001531D01*
X024115Y001531D01*
X024115Y002133D01*
X022615Y002133D01*
X022615Y001531D01*
X018424Y001531D01*
X018424Y004913D01*
X018575Y008253D02*
X018075Y008253D01*
X018075Y009198D01*
X018575Y009198D01*
X018575Y008253D01*
X018955Y009657D02*
X018955Y010157D01*
X019900Y010157D01*
X019900Y009657D01*
X018955Y009657D01*
X024073Y009763D02*
X024073Y009263D01*
X025018Y009263D01*
X025018Y009763D01*
X024073Y009763D01*
X024979Y010104D02*
X024979Y011285D01*
X025688Y011285D01*
X025688Y010104D01*
X024979Y010104D01*
X025648Y009763D02*
X025648Y009263D01*
X026593Y009263D01*
X026593Y009763D01*
X025648Y009763D01*
X025648Y008976D02*
X025648Y008476D01*
X026593Y008476D01*
X026593Y008976D01*
X025648Y008976D01*
X025018Y008976D02*
X025018Y008476D01*
X024073Y008476D01*
X024073Y008976D01*
X025018Y008976D01*
X025018Y008188D02*
X024073Y008188D01*
X024073Y007688D01*
X025018Y007688D01*
X025018Y008188D01*
X025648Y008188D02*
X025648Y007688D01*
X026593Y007688D01*
X026593Y008188D01*
X025648Y008188D01*
X025865Y011625D02*
X024920Y011625D01*
X024920Y012125D01*
X025865Y012125D01*
X025865Y011625D01*
X027192Y013122D02*
X027192Y013622D01*
X028136Y013622D01*
X028136Y013122D01*
X027192Y013122D01*
X028075Y013946D02*
X028075Y014891D01*
X028575Y014891D01*
X028575Y013946D01*
X028075Y013946D01*
X027302Y014631D02*
X027302Y018568D01*
X023365Y018568D01*
X023365Y014631D01*
X027302Y014631D01*
X026940Y014868D02*
X026942Y014889D01*
X026948Y014908D01*
X026957Y014927D01*
X026969Y014943D01*
X026985Y014957D01*
X027002Y014968D01*
X027021Y014976D01*
X027042Y014980D01*
X027062Y014980D01*
X027083Y014976D01*
X027102Y014968D01*
X027119Y014957D01*
X027135Y014943D01*
X027147Y014927D01*
X027156Y014908D01*
X027162Y014889D01*
X027164Y014868D01*
X027162Y014847D01*
X027156Y014828D01*
X027147Y014809D01*
X027135Y014793D01*
X027119Y014779D01*
X027102Y014768D01*
X027083Y014760D01*
X027062Y014756D01*
X027042Y014756D01*
X027021Y014760D01*
X027002Y014768D01*
X026985Y014779D01*
X026969Y014793D01*
X026957Y014809D01*
X026948Y014828D01*
X026942Y014847D01*
X026940Y014868D01*
X028302Y015850D02*
X028302Y017350D01*
X029089Y017350D01*
X029089Y015850D01*
X028302Y015850D01*
X028546Y015550D02*
X028548Y015574D01*
X028554Y015598D01*
X028563Y015620D01*
X028576Y015640D01*
X028592Y015658D01*
X028611Y015673D01*
X028632Y015686D01*
X028654Y015694D01*
X028678Y015699D01*
X028702Y015700D01*
X028726Y015697D01*
X028749Y015690D01*
X028771Y015680D01*
X028791Y015666D01*
X028808Y015649D01*
X028823Y015630D01*
X028834Y015609D01*
X028842Y015586D01*
X028846Y015562D01*
X028846Y015538D01*
X028842Y015514D01*
X028834Y015491D01*
X028823Y015470D01*
X028808Y015451D01*
X028791Y015434D01*
X028771Y015420D01*
X028749Y015410D01*
X028726Y015403D01*
X028702Y015400D01*
X028678Y015401D01*
X028654Y015406D01*
X028632Y015414D01*
X028611Y015427D01*
X028592Y015442D01*
X028576Y015460D01*
X028563Y015480D01*
X028554Y015502D01*
X028548Y015526D01*
X028546Y015550D01*
X029270Y015956D02*
X029270Y016456D01*
X030215Y016456D01*
X030215Y015956D01*
X029270Y015956D01*
X029270Y016744D02*
X029270Y017244D01*
X030215Y017244D01*
X030215Y016744D01*
X029270Y016744D01*
X027060Y019553D02*
X026560Y019553D01*
X026560Y020498D01*
X027060Y020498D01*
X027060Y019553D01*
X026056Y019553D02*
X025556Y019553D01*
X025556Y020498D01*
X026056Y020498D01*
X026056Y019553D01*
X025012Y019907D02*
X024512Y019907D01*
X024512Y020852D01*
X025012Y020852D01*
X025012Y019907D01*
X024190Y019899D02*
X023690Y019899D01*
X023690Y020844D01*
X024190Y020844D01*
X024190Y019899D01*
X023009Y019553D02*
X022509Y019553D01*
X022509Y020498D01*
X023009Y020498D01*
X023009Y019553D01*
X020290Y019614D02*
X019790Y019614D01*
X019790Y020559D01*
X020290Y020559D01*
X020290Y019614D01*
X019373Y019657D02*
X019373Y020917D01*
X017404Y020917D01*
X017404Y019657D01*
X019373Y019657D01*
X017503Y018791D02*
X017503Y018291D01*
X016558Y018291D01*
X016558Y018791D01*
X017503Y018791D01*
X016540Y019242D02*
X016040Y019242D01*
X016040Y020186D01*
X016540Y020186D01*
X016540Y019242D01*
X015942Y019242D02*
X015442Y019242D01*
X015442Y020186D01*
X015942Y020186D01*
X015942Y019242D01*
X014959Y019389D02*
X014959Y019889D01*
X014014Y019889D01*
X014014Y019389D01*
X014959Y019389D01*
X014959Y019996D02*
X014014Y019996D01*
X014014Y020496D01*
X014959Y020496D01*
X014959Y019996D01*
X014959Y020627D02*
X014014Y020627D01*
X014014Y021127D01*
X014959Y021127D01*
X014959Y020627D01*
X013861Y020627D02*
X013861Y021127D01*
X012916Y021127D01*
X012916Y020627D01*
X013861Y020627D01*
X013861Y020496D02*
X013861Y019996D01*
X012916Y019996D01*
X012916Y020496D01*
X013861Y020496D01*
X014172Y019257D02*
X013227Y019257D01*
X013227Y018757D01*
X014172Y018757D01*
X014172Y019257D01*
X013798Y018614D02*
X013798Y018114D01*
X014743Y018114D01*
X014743Y018614D01*
X013798Y018614D01*
X012668Y018372D02*
X012668Y019316D01*
X012168Y019316D01*
X012168Y018372D01*
X012668Y018372D01*
X011680Y018177D02*
X011680Y018677D01*
X010735Y018677D01*
X010735Y018177D01*
X011680Y018177D01*
X011680Y018873D02*
X010735Y018873D01*
X010735Y019373D01*
X011680Y019373D01*
X011680Y018873D01*
X011680Y019570D02*
X010735Y019570D01*
X010735Y020070D01*
X011680Y020070D01*
X011680Y019570D01*
X011260Y020249D02*
X010760Y020249D01*
X010760Y021194D01*
X011260Y021194D01*
X011260Y020249D01*
X009343Y018005D02*
X008843Y018005D01*
X008843Y017060D01*
X009343Y017060D01*
X009343Y018005D01*
X010064Y017387D02*
X011835Y017387D01*
X011835Y015812D01*
X010064Y015812D01*
X010064Y017387D01*
X009066Y016850D02*
X009066Y016350D01*
X008121Y016350D01*
X008121Y016850D01*
X009066Y016850D01*
X008343Y017060D02*
X007843Y017060D01*
X007843Y018005D01*
X008343Y018005D01*
X008343Y017060D01*
X007816Y016850D02*
X007816Y016350D01*
X006871Y016350D01*
X006871Y016850D01*
X007816Y016850D01*
X007343Y017060D02*
X006843Y017060D01*
X006843Y018005D01*
X007343Y018005D01*
X007343Y017060D01*
X009802Y015480D02*
X009802Y014980D01*
X010747Y014980D01*
X010747Y015480D01*
X009802Y015480D01*
X009802Y014783D02*
X009802Y014283D01*
X010747Y014283D01*
X010747Y014783D01*
X009802Y014783D01*
X011343Y016206D02*
X011343Y016403D01*
X011540Y016403D01*
X011540Y016797D01*
X011343Y016797D01*
X011343Y016994D01*
X011309Y017025D01*
X011273Y017053D01*
X011234Y017078D01*
X011194Y017100D01*
X011151Y017119D01*
X011108Y017134D01*
X011063Y017145D01*
X011018Y017153D01*
X010972Y017157D01*
X010926Y017157D01*
X010880Y017153D01*
X010835Y017145D01*
X010790Y017134D01*
X010747Y017119D01*
X010704Y017100D01*
X010664Y017078D01*
X010625Y017053D01*
X010589Y017025D01*
X010555Y016994D01*
X010524Y016960D01*
X010496Y016924D01*
X010471Y016885D01*
X010449Y016845D01*
X010430Y016802D01*
X010415Y016759D01*
X010404Y016714D01*
X010396Y016669D01*
X010392Y016623D01*
X010392Y016577D01*
X010396Y016531D01*
X010404Y016486D01*
X010415Y016441D01*
X010430Y016398D01*
X010449Y016355D01*
X010471Y016315D01*
X010496Y016276D01*
X010524Y016240D01*
X010555Y016206D01*
X010589Y016175D01*
X010625Y016147D01*
X010664Y016122D01*
X010704Y016100D01*
X010747Y016081D01*
X010790Y016066D01*
X010835Y016055D01*
X010880Y016047D01*
X010926Y016043D01*
X010972Y016043D01*
X011018Y016047D01*
X011063Y016055D01*
X011108Y016066D01*
X011151Y016081D01*
X011194Y016100D01*
X011234Y016122D01*
X011273Y016147D01*
X011309Y016175D01*
X011343Y016206D01*
X011987Y015505D02*
X012487Y015505D01*
X012487Y014560D01*
X011987Y014560D01*
X011987Y015505D01*
X012631Y014649D02*
X013131Y014649D01*
X013131Y013704D01*
X012631Y013704D01*
X012631Y014649D01*
X012198Y013529D02*
X011698Y013529D01*
X011698Y012584D01*
X012198Y012584D01*
X012198Y013529D01*
X011607Y013529D02*
X011107Y013529D01*
X011107Y012584D01*
X011607Y012584D01*
X011607Y013529D01*
X011016Y013529D02*
X010516Y013529D01*
X010516Y012584D01*
X011016Y012584D01*
X011016Y013529D01*
X018014Y015736D02*
X018014Y016236D01*
X018959Y016236D01*
X018959Y015736D01*
X018014Y015736D01*
X018014Y016322D02*
X018014Y016822D01*
X018959Y016822D01*
X018959Y016322D01*
X018014Y016322D01*
X019588Y021387D02*
X019590Y021407D01*
X019596Y021425D01*
X019605Y021443D01*
X019617Y021458D01*
X019632Y021470D01*
X019650Y021479D01*
X019668Y021485D01*
X019688Y021487D01*
X019708Y021485D01*
X019726Y021479D01*
X019744Y021470D01*
X019759Y021458D01*
X019771Y021443D01*
X019780Y021425D01*
X019786Y021407D01*
X019788Y021387D01*
X019786Y021367D01*
X019780Y021349D01*
X019771Y021331D01*
X019759Y021316D01*
X019744Y021304D01*
X019726Y021295D01*
X019708Y021289D01*
X019688Y021287D01*
X019668Y021289D01*
X019650Y021295D01*
X019632Y021304D01*
X019617Y021316D01*
X019605Y021331D01*
X019596Y021349D01*
X019590Y021367D01*
X019588Y021387D01*
X021759Y023293D02*
X021761Y023324D01*
X021767Y023355D01*
X021777Y023385D01*
X021790Y023413D01*
X021807Y023440D01*
X021827Y023464D01*
X021850Y023486D01*
X021875Y023504D01*
X021903Y023519D01*
X021932Y023531D01*
X021962Y023539D01*
X021993Y023543D01*
X022025Y023543D01*
X022056Y023539D01*
X022086Y023531D01*
X022115Y023519D01*
X022143Y023504D01*
X022168Y023486D01*
X022191Y023464D01*
X022211Y023440D01*
X022228Y023413D01*
X022241Y023385D01*
X022251Y023355D01*
X022257Y023324D01*
X022259Y023293D01*
X022257Y023262D01*
X022251Y023231D01*
X022241Y023201D01*
X022228Y023173D01*
X022211Y023146D01*
X022191Y023122D01*
X022168Y023100D01*
X022143Y023082D01*
X022115Y023067D01*
X022086Y023055D01*
X022056Y023047D01*
X022025Y023043D01*
X021993Y023043D01*
X021962Y023047D01*
X021932Y023055D01*
X021903Y023067D01*
X021875Y023082D01*
X021850Y023100D01*
X021827Y023122D01*
X021807Y023146D01*
X021790Y023173D01*
X021777Y023201D01*
X021767Y023231D01*
X021761Y023262D01*
X021759Y023293D01*
D13*
X005333Y017033D02*
X005333Y016167D01*
X004507Y015340D02*
X003640Y015340D01*
X002814Y016167D02*
X002814Y017033D01*
X003640Y017860D02*
X004507Y017860D01*
X003404Y016600D02*
X003406Y016651D01*
X003412Y016702D01*
X003422Y016752D01*
X003435Y016802D01*
X003453Y016850D01*
X003473Y016897D01*
X003498Y016942D01*
X003526Y016985D01*
X003557Y017026D01*
X003591Y017064D01*
X003628Y017099D01*
X003667Y017132D01*
X003709Y017162D01*
X003753Y017188D01*
X003799Y017210D01*
X003847Y017230D01*
X003896Y017245D01*
X003946Y017257D01*
X003996Y017265D01*
X004047Y017269D01*
X004099Y017269D01*
X004150Y017265D01*
X004200Y017257D01*
X004250Y017245D01*
X004299Y017230D01*
X004347Y017210D01*
X004393Y017188D01*
X004437Y017162D01*
X004479Y017132D01*
X004518Y017099D01*
X004555Y017064D01*
X004589Y017026D01*
X004620Y016985D01*
X004648Y016942D01*
X004673Y016897D01*
X004693Y016850D01*
X004711Y016802D01*
X004724Y016752D01*
X004734Y016702D01*
X004740Y016651D01*
X004742Y016600D01*
X004740Y016549D01*
X004734Y016498D01*
X004724Y016448D01*
X004711Y016398D01*
X004693Y016350D01*
X004673Y016303D01*
X004648Y016258D01*
X004620Y016215D01*
X004589Y016174D01*
X004555Y016136D01*
X004518Y016101D01*
X004479Y016068D01*
X004437Y016038D01*
X004393Y016012D01*
X004347Y015990D01*
X004299Y015970D01*
X004250Y015955D01*
X004200Y015943D01*
X004150Y015935D01*
X004099Y015931D01*
X004047Y015931D01*
X003996Y015935D01*
X003946Y015943D01*
X003896Y015955D01*
X003847Y015970D01*
X003799Y015990D01*
X003753Y016012D01*
X003709Y016038D01*
X003667Y016068D01*
X003628Y016101D01*
X003591Y016136D01*
X003557Y016174D01*
X003526Y016215D01*
X003498Y016258D01*
X003473Y016303D01*
X003453Y016350D01*
X003435Y016398D01*
X003422Y016448D01*
X003412Y016498D01*
X003406Y016549D01*
X003404Y016600D01*
D14*
X008774Y009286D02*
X008774Y009249D01*
X008774Y009286D02*
X009412Y009286D01*
X009412Y009249D01*
X009412Y008931D02*
X009412Y008520D01*
X009412Y008203D02*
X009412Y008166D01*
X008774Y008166D01*
X008774Y008203D01*
X008774Y008520D02*
X008774Y008557D01*
X008774Y008894D02*
X008774Y008931D01*
X018868Y009045D02*
X018868Y008407D01*
X018905Y008407D01*
X019222Y008407D02*
X019259Y008407D01*
X019596Y008407D02*
X019633Y008407D01*
X019951Y008407D02*
X019988Y008407D01*
X019988Y009045D01*
X019951Y009045D01*
X019633Y009045D02*
X019222Y009045D01*
X018905Y009045D02*
X018868Y009045D01*
X028286Y020645D02*
X028333Y020643D01*
X028381Y020637D01*
X028427Y020628D01*
X028473Y020615D01*
X028517Y020599D01*
X028561Y020578D01*
X028602Y020555D01*
X028641Y020529D01*
X028678Y020499D01*
X028713Y020466D01*
X028745Y020431D01*
X028774Y020394D01*
X028286Y019445D02*
X028241Y019447D01*
X028195Y019452D01*
X028151Y019460D01*
X028107Y019472D01*
X028064Y019488D01*
X028022Y019506D01*
X027982Y019528D01*
X027944Y019552D01*
X027908Y019579D01*
X027873Y019609D01*
X027842Y019642D01*
X027812Y019677D01*
X028286Y019445D02*
X028331Y019447D01*
X028377Y019452D01*
X028421Y019460D01*
X028465Y019472D01*
X028508Y019488D01*
X028550Y019506D01*
X028590Y019528D01*
X028628Y019552D01*
X028664Y019579D01*
X028699Y019609D01*
X028730Y019642D01*
X028760Y019677D01*
X028286Y020645D02*
X028240Y020643D01*
X028194Y020638D01*
X028148Y020629D01*
X028103Y020617D01*
X028060Y020601D01*
X028018Y020582D01*
X027977Y020559D01*
X027938Y020534D01*
X027902Y020506D01*
X027867Y020475D01*
X027835Y020441D01*
X027806Y020405D01*
D15*
X011707Y010189D02*
X011400Y010189D01*
X011554Y010035D02*
X011554Y010342D01*
X006648Y009689D02*
X006341Y009689D01*
X006495Y009535D02*
X006495Y009842D01*
X003154Y011642D02*
X003154Y011949D01*
X003154Y011795D02*
X002693Y011795D01*
X002847Y011642D01*
X019385Y003787D02*
X019462Y003864D01*
X019615Y003864D01*
X019692Y003787D01*
X019692Y003710D01*
X019385Y003403D01*
X019692Y003403D01*
X019538Y002864D02*
X019385Y002710D01*
X019538Y002864D02*
X019538Y002403D01*
X019385Y002403D02*
X019692Y002403D01*
D16*
X025227Y011147D03*
D17*
X028286Y019245D02*
X028230Y019247D01*
X028174Y019253D01*
X028119Y019263D01*
X028065Y019276D01*
X028011Y019294D01*
X027959Y019315D01*
X027909Y019339D01*
X027860Y019368D01*
X027814Y019399D01*
X027770Y019434D01*
X027728Y019471D01*
X027690Y019512D01*
X027654Y019555D01*
X027621Y019600D01*
X027591Y019648D01*
X028286Y020845D02*
X028340Y020843D01*
X028393Y020838D01*
X028447Y020829D01*
X028499Y020816D01*
X028550Y020800D01*
X028601Y020780D01*
X028650Y020758D01*
X028697Y020732D01*
X028742Y020702D01*
X028785Y020670D01*
X028826Y020635D01*
X028865Y020597D01*
X028901Y020557D01*
X028286Y020845D02*
X028232Y020843D01*
X028178Y020838D01*
X028125Y020829D01*
X028072Y020816D01*
X028021Y020800D01*
X027971Y020780D01*
X027922Y020757D01*
X027874Y020731D01*
X027829Y020702D01*
X027786Y020669D01*
X027745Y020634D01*
X027706Y020596D01*
X027670Y020556D01*
X027637Y020513D01*
X027607Y020468D01*
X027580Y020421D01*
X028286Y019245D02*
X028339Y019247D01*
X028393Y019252D01*
X028445Y019261D01*
X028497Y019273D01*
X028548Y019289D01*
X028598Y019308D01*
X028647Y019331D01*
X028694Y019357D01*
X028739Y019385D01*
X028782Y019417D01*
X028822Y019451D01*
X028861Y019489D01*
X028897Y019528D01*
M02*
