G75*
G70*
%OFA0B0*%
%FSLAX24Y24*%
%IPPOS*%
%LPD*%
%AMOC8*
5,1,8,0,0,1.08239X$1,22.5*
%
%ADD10C,0.0886*%
%ADD11C,0.1004*%
%ADD12R,0.0554X0.0554*%
%ADD13C,0.0554*%
%ADD14C,0.0515*%
%ADD15C,0.0850*%
%ADD16C,0.2300*%
%ADD17OC8,0.0520*%
%ADD18C,0.0357*%
%ADD19C,0.0500*%
%ADD20C,0.0100*%
%ADD21C,0.0436*%
%ADD22C,0.0240*%
%ADD23C,0.0396*%
%ADD24C,0.0317*%
D10*
X004073Y016600D03*
D11*
X003070Y017604D03*
X005077Y017604D03*
X005077Y015596D03*
X003070Y015596D03*
D12*
X020365Y002633D03*
D13*
X021365Y002633D03*
X022365Y002633D03*
X023365Y002633D03*
X024365Y002633D03*
X025365Y002633D03*
X026365Y002633D03*
X026365Y003633D03*
X025365Y003633D03*
X024365Y003633D03*
X023365Y003633D03*
X022365Y003633D03*
X021365Y003633D03*
X020365Y003633D03*
D14*
X004181Y004887D02*
X003666Y004887D01*
X003666Y005872D02*
X004181Y005872D01*
X004181Y006856D02*
X003666Y006856D01*
X003666Y007840D02*
X004181Y007840D01*
X004181Y008824D02*
X003666Y008824D01*
X003666Y009809D02*
X004181Y009809D01*
X004181Y010793D02*
X003666Y010793D01*
X003666Y011777D02*
X004181Y011777D01*
D15*
X006436Y011482D03*
X011554Y011482D03*
X014703Y013844D03*
X015737Y013844D03*
X019822Y011482D03*
X006436Y002427D03*
D16*
X002892Y002427D03*
X002892Y022899D03*
X031239Y022899D03*
X031239Y002427D03*
D17*
X028786Y020045D03*
X027786Y020045D03*
D18*
X022400Y021324D03*
X022184Y020143D03*
X020215Y020931D03*
X019211Y021521D03*
X017558Y021501D03*
X016278Y020557D03*
X015688Y020557D03*
X014605Y021541D03*
X013522Y019749D03*
X014526Y018982D03*
X013129Y017781D03*
X011514Y017860D03*
X009979Y019356D03*
X009093Y018411D03*
X008089Y018411D03*
X007105Y018411D03*
X008010Y019356D03*
X006042Y019356D03*
X004073Y019356D03*
X002105Y019356D03*
X002105Y020931D03*
X004073Y020931D03*
X006042Y021324D03*
X008010Y021324D03*
X009979Y021324D03*
X012459Y020931D03*
X012440Y020281D03*
X014593Y016501D03*
X014987Y016501D03*
X015381Y016501D03*
X015381Y016108D03*
X014987Y016108D03*
X014593Y016108D03*
X014593Y015714D03*
X014987Y015714D03*
X015381Y015714D03*
X013522Y014238D03*
X013522Y013057D03*
X014310Y011875D03*
X015885Y011875D03*
X017459Y011875D03*
X019034Y011875D03*
X020609Y012663D03*
X020215Y013844D03*
X018247Y013844D03*
X016672Y013844D03*
X017676Y016679D03*
X018640Y018962D03*
X021396Y017781D03*
X022184Y016994D03*
X023739Y013568D03*
X024211Y013391D03*
X024605Y013214D03*
X025077Y013214D03*
X029290Y011186D03*
X029270Y010694D03*
X029467Y009986D03*
X029152Y009553D03*
X020885Y005970D03*
X020609Y009120D03*
X013129Y015301D03*
X013070Y016049D03*
X011534Y015222D03*
X011180Y014533D03*
X009979Y013844D03*
X008010Y013844D03*
X006042Y013844D03*
X004073Y013844D03*
X002105Y013844D03*
X005255Y011875D03*
X008010Y011875D03*
X009979Y011875D03*
X010766Y012269D03*
X011357Y012269D03*
X011948Y012269D03*
X008010Y015812D03*
X006042Y015812D03*
X002105Y016600D03*
D19*
X002636Y011777D02*
X002181Y011322D01*
X002144Y011233D02*
X002144Y011068D01*
X002125Y011021D02*
X002125Y005478D01*
X002679Y004924D01*
X002767Y004887D02*
X003924Y004887D01*
X002767Y004887D02*
X002747Y004889D01*
X002728Y004893D01*
X002710Y004901D01*
X002694Y004911D01*
X002679Y004924D01*
X002125Y011021D02*
X002126Y011034D01*
X002130Y011047D01*
X002136Y011058D01*
X002145Y011068D01*
X002144Y011233D02*
X002146Y011253D01*
X002150Y011272D01*
X002158Y011290D01*
X002168Y011306D01*
X002181Y011321D01*
X002636Y011777D02*
X003924Y011777D01*
D20*
X003953Y011785D02*
X005983Y011785D01*
X005982Y011785D02*
X005901Y011588D01*
X005901Y011375D01*
X005982Y011179D01*
X006133Y011028D01*
X006329Y010947D01*
X006542Y010947D01*
X006739Y011028D01*
X006889Y011179D01*
X006971Y011375D01*
X006971Y011588D01*
X006889Y011785D01*
X006739Y011935D01*
X006542Y012017D01*
X006329Y012017D01*
X006133Y011935D01*
X005982Y011785D01*
X005942Y011687D02*
X004580Y011687D01*
X004579Y011682D02*
X004589Y011745D01*
X004589Y011748D01*
X003953Y011748D01*
X003953Y011806D01*
X004589Y011806D01*
X004589Y011809D01*
X004579Y011872D01*
X004559Y011933D01*
X004530Y011991D01*
X004492Y012042D01*
X004447Y012088D01*
X004395Y012126D01*
X004338Y012155D01*
X004277Y012174D01*
X004213Y012185D01*
X003953Y012185D01*
X003953Y011806D01*
X003895Y011806D01*
X003895Y012185D01*
X003634Y012185D01*
X003571Y012174D01*
X003510Y012155D01*
X003453Y012126D01*
X003401Y012088D01*
X003356Y012042D01*
X003318Y011991D01*
X003289Y011933D01*
X003269Y011872D01*
X003259Y011809D01*
X003259Y011806D01*
X003895Y011806D01*
X003895Y011748D01*
X003953Y011748D01*
X003953Y011370D01*
X004213Y011370D01*
X004277Y011380D01*
X004338Y011399D01*
X004395Y011429D01*
X004447Y011466D01*
X004492Y011512D01*
X004530Y011563D01*
X004559Y011621D01*
X004579Y011682D01*
X004543Y011588D02*
X005901Y011588D01*
X005901Y011490D02*
X004470Y011490D01*
X004313Y011391D02*
X005901Y011391D01*
X005935Y011293D02*
X001768Y011293D01*
X001768Y011391D02*
X003535Y011391D01*
X003510Y011399D02*
X003571Y011380D01*
X003634Y011370D01*
X003895Y011370D01*
X003895Y011748D01*
X003259Y011748D01*
X003259Y011745D01*
X003269Y011682D01*
X003289Y011621D01*
X003318Y011563D01*
X003356Y011512D01*
X003401Y011466D01*
X003453Y011429D01*
X003510Y011399D01*
X003377Y011490D02*
X001768Y011490D01*
X001768Y011588D02*
X003305Y011588D01*
X003268Y011687D02*
X001768Y011687D01*
X001768Y011785D02*
X003895Y011785D01*
X003895Y011687D02*
X003953Y011687D01*
X003953Y011588D02*
X003895Y011588D01*
X003895Y011490D02*
X003953Y011490D01*
X003953Y011391D02*
X003895Y011391D01*
X003593Y011160D02*
X003458Y011104D01*
X003355Y011001D01*
X003299Y010866D01*
X003299Y010720D01*
X003355Y010585D01*
X003458Y010481D01*
X003593Y010425D01*
X004254Y010425D01*
X004390Y010481D01*
X004423Y010514D01*
X020357Y010514D01*
X023570Y007302D01*
X023571Y007290D01*
X023622Y007250D01*
X023667Y007205D01*
X023679Y007205D01*
X023685Y007200D01*
X023794Y007168D01*
X023795Y007168D01*
X023796Y007168D01*
X023820Y007161D01*
X023880Y007168D01*
X024507Y007168D01*
X024588Y007087D01*
X024616Y007075D01*
X023676Y007075D01*
X020924Y009846D01*
X020924Y009846D01*
X020871Y009899D01*
X020819Y009952D01*
X020805Y009952D01*
X020740Y009979D01*
X020730Y009989D01*
X004505Y009989D01*
X004493Y010017D01*
X004390Y010120D01*
X004254Y010176D01*
X003593Y010176D01*
X003458Y010120D01*
X003355Y010017D01*
X003299Y009882D01*
X003299Y009735D01*
X003355Y009600D01*
X003458Y009497D01*
X003593Y009441D01*
X004254Y009441D01*
X004390Y009497D01*
X004493Y009600D01*
X004505Y009629D01*
X020633Y009629D01*
X023421Y006821D01*
X023421Y006821D01*
X023474Y006768D01*
X023526Y006715D01*
X023526Y006715D01*
X023526Y006715D01*
X023601Y006715D01*
X023675Y006715D01*
X023675Y006715D01*
X025880Y006715D01*
X025889Y006708D01*
X025953Y006715D01*
X026018Y006715D01*
X026026Y006723D01*
X026037Y006724D01*
X026078Y006775D01*
X026124Y006821D01*
X026124Y006832D01*
X026307Y007059D01*
X026359Y007059D01*
X026472Y007106D01*
X026559Y007193D01*
X026606Y007306D01*
X026606Y007429D01*
X026559Y007542D01*
X026472Y007629D01*
X026359Y007676D01*
X026237Y007676D01*
X026123Y007629D01*
X026037Y007542D01*
X025990Y007429D01*
X025990Y007306D01*
X026008Y007262D01*
X025857Y007075D01*
X024909Y007075D01*
X024937Y007087D01*
X025024Y007173D01*
X025071Y007287D01*
X025071Y007409D01*
X025024Y007522D01*
X024937Y007609D01*
X024824Y007656D01*
X024701Y007656D01*
X024588Y007609D01*
X024507Y007528D01*
X023932Y007528D01*
X023923Y007535D01*
X023859Y007528D01*
X023853Y007528D01*
X020612Y010769D01*
X020506Y010874D01*
X004545Y010874D01*
X004493Y011001D01*
X004390Y011104D01*
X004254Y011160D01*
X003593Y011160D01*
X003450Y011096D02*
X001768Y011096D01*
X001768Y011194D02*
X005976Y011194D01*
X006065Y011096D02*
X004398Y011096D01*
X004494Y010997D02*
X006207Y010997D01*
X006664Y010997D02*
X011325Y010997D01*
X011251Y011028D02*
X011447Y010947D01*
X011660Y010947D01*
X011857Y011028D01*
X012007Y011179D01*
X012089Y011375D01*
X012089Y011588D01*
X012007Y011785D01*
X011857Y011935D01*
X011660Y012017D01*
X011447Y012017D01*
X011251Y011935D01*
X011100Y011785D01*
X011019Y011588D01*
X011019Y011375D01*
X011100Y011179D01*
X011251Y011028D01*
X011183Y011096D02*
X006806Y011096D01*
X006896Y011194D02*
X011094Y011194D01*
X011053Y011293D02*
X006937Y011293D01*
X006971Y011391D02*
X011019Y011391D01*
X011019Y011490D02*
X006971Y011490D01*
X006971Y011588D02*
X011019Y011588D01*
X011060Y011687D02*
X006930Y011687D01*
X006889Y011785D02*
X011101Y011785D01*
X011199Y011884D02*
X006790Y011884D01*
X006625Y011982D02*
X011364Y011982D01*
X011743Y011982D02*
X019632Y011982D01*
X019715Y012017D02*
X019518Y011935D01*
X019368Y011785D01*
X019287Y011588D01*
X019287Y011375D01*
X019368Y011179D01*
X019518Y011028D01*
X019715Y010947D01*
X019928Y010947D01*
X020125Y011028D01*
X020275Y011179D01*
X020357Y011375D01*
X020357Y011588D01*
X020275Y011785D01*
X020125Y011935D01*
X019928Y012017D01*
X019715Y012017D01*
X019467Y011884D02*
X011908Y011884D01*
X012007Y011785D02*
X019369Y011785D01*
X019327Y011687D02*
X012048Y011687D01*
X012089Y011588D02*
X019287Y011588D01*
X019287Y011490D02*
X012089Y011490D01*
X012089Y011391D02*
X019287Y011391D01*
X019321Y011293D02*
X012055Y011293D01*
X012014Y011194D02*
X019361Y011194D01*
X019451Y011096D02*
X011925Y011096D01*
X011782Y010997D02*
X019593Y010997D01*
X020050Y010997D02*
X022791Y010997D01*
X022791Y010899D02*
X004535Y010899D01*
X004074Y010694D02*
X004054Y010696D01*
X004035Y010700D01*
X004017Y010708D01*
X004001Y010718D01*
X003986Y010731D01*
X003924Y010793D01*
X004074Y010694D02*
X020432Y010694D01*
X023742Y007385D01*
X023869Y007348D02*
X024762Y007348D01*
X024529Y007550D02*
X023831Y007550D01*
X023742Y007384D02*
X023760Y007371D01*
X023781Y007360D01*
X023802Y007353D01*
X023824Y007348D01*
X023847Y007346D01*
X023870Y007347D01*
X023820Y007161D02*
X023820Y007161D01*
X023685Y007200D02*
X023685Y007200D01*
X023616Y007254D02*
X023498Y007254D01*
X023519Y007353D02*
X023400Y007353D01*
X023420Y007451D02*
X023302Y007451D01*
X023322Y007550D02*
X023205Y007550D01*
X023223Y007648D02*
X023107Y007648D01*
X023125Y007747D02*
X023009Y007747D01*
X023026Y007845D02*
X022911Y007845D01*
X022928Y007944D02*
X022813Y007944D01*
X022829Y008042D02*
X022715Y008042D01*
X022731Y008141D02*
X022618Y008141D01*
X022632Y008239D02*
X022520Y008239D01*
X022534Y008338D02*
X022422Y008338D01*
X022435Y008436D02*
X022324Y008436D01*
X022337Y008535D02*
X022226Y008535D01*
X022238Y008633D02*
X022128Y008633D01*
X022140Y008732D02*
X022031Y008732D01*
X022041Y008830D02*
X021933Y008830D01*
X021943Y008929D02*
X021835Y008929D01*
X021844Y009027D02*
X021737Y009027D01*
X021746Y009126D02*
X021639Y009126D01*
X021647Y009224D02*
X021541Y009224D01*
X021549Y009323D02*
X021444Y009323D01*
X021450Y009421D02*
X021346Y009421D01*
X021352Y009520D02*
X021248Y009520D01*
X021253Y009618D02*
X021150Y009618D01*
X021155Y009717D02*
X021052Y009717D01*
X021056Y009815D02*
X020955Y009815D01*
X020958Y009914D02*
X020857Y009914D01*
X020859Y010012D02*
X004495Y010012D01*
X004399Y010111D02*
X020761Y010111D01*
X020662Y010209D02*
X001768Y010209D01*
X001768Y010111D02*
X003449Y010111D01*
X003353Y010012D02*
X001768Y010012D01*
X001768Y009914D02*
X003312Y009914D01*
X003299Y009815D02*
X001768Y009815D01*
X001768Y009717D02*
X003307Y009717D01*
X003347Y009618D02*
X001768Y009618D01*
X001768Y009520D02*
X003435Y009520D01*
X003593Y009192D02*
X003458Y009136D01*
X003355Y009032D01*
X003299Y008897D01*
X003299Y008751D01*
X003355Y008616D01*
X003458Y008513D01*
X003593Y008457D01*
X004254Y008457D01*
X004390Y008513D01*
X004493Y008616D01*
X004549Y008751D01*
X004549Y008897D01*
X004493Y009032D01*
X004390Y009136D01*
X004254Y009192D01*
X003593Y009192D01*
X003448Y009126D02*
X001768Y009126D01*
X001768Y009224D02*
X020340Y009224D01*
X020320Y009177D02*
X020320Y009062D01*
X020364Y008956D01*
X020446Y008875D01*
X020552Y008831D01*
X020643Y008831D01*
X021610Y007864D01*
X021610Y007212D01*
X020879Y006258D01*
X020827Y006258D01*
X020721Y006214D01*
X020640Y006133D01*
X020596Y006027D01*
X020596Y005913D01*
X020640Y005807D01*
X020721Y005725D01*
X020827Y005682D01*
X020942Y005682D01*
X021048Y005725D01*
X021129Y005807D01*
X021173Y005913D01*
X021173Y006027D01*
X021167Y006042D01*
X021926Y007032D01*
X021970Y007076D01*
X021970Y007090D01*
X021978Y007101D01*
X021970Y007163D01*
X021970Y008013D01*
X020897Y009086D01*
X020897Y009177D01*
X020853Y009283D01*
X020772Y009364D01*
X020666Y009408D01*
X020552Y009408D01*
X020446Y009364D01*
X020364Y009283D01*
X020320Y009177D01*
X020320Y009126D02*
X004399Y009126D01*
X004495Y009027D02*
X020335Y009027D01*
X020392Y008929D02*
X004536Y008929D01*
X004549Y008830D02*
X020644Y008830D01*
X020742Y008732D02*
X004541Y008732D01*
X004500Y008633D02*
X020841Y008633D01*
X020939Y008535D02*
X004412Y008535D01*
X004254Y008208D02*
X004390Y008152D01*
X004493Y008048D01*
X004513Y008000D01*
X004960Y008000D01*
X005015Y008012D01*
X005033Y008000D01*
X005054Y008000D01*
X005093Y007961D01*
X006234Y007213D01*
X019146Y007213D01*
X019463Y007601D01*
X019454Y007621D01*
X019454Y007744D01*
X019501Y007857D01*
X019588Y007944D01*
X005119Y007944D01*
X005269Y007845D02*
X019496Y007845D01*
X019456Y007747D02*
X005419Y007747D01*
X005570Y007648D02*
X019454Y007648D01*
X019421Y007550D02*
X005720Y007550D01*
X005870Y007451D02*
X019341Y007451D01*
X019260Y007353D02*
X006020Y007353D01*
X006170Y007254D02*
X019180Y007254D01*
X019231Y007033D02*
X006180Y007033D01*
X004979Y007820D01*
X003916Y007820D01*
X003924Y007828D01*
X003924Y007840D01*
X004254Y007473D02*
X003593Y007473D01*
X003458Y007528D01*
X003355Y007632D01*
X003299Y007767D01*
X003299Y007913D01*
X003355Y008048D01*
X003458Y008152D01*
X003593Y008208D01*
X004254Y008208D01*
X004400Y008141D02*
X021333Y008141D01*
X021235Y008239D02*
X001768Y008239D01*
X001768Y008141D02*
X003448Y008141D01*
X003352Y008042D02*
X001768Y008042D01*
X001768Y007944D02*
X003312Y007944D01*
X003299Y007845D02*
X001768Y007845D01*
X001768Y007747D02*
X003307Y007747D01*
X003348Y007648D02*
X001768Y007648D01*
X001768Y007550D02*
X003437Y007550D01*
X003593Y007223D02*
X003458Y007167D01*
X003355Y007064D01*
X003299Y006929D01*
X003299Y006783D01*
X003355Y006648D01*
X003458Y006544D01*
X003593Y006488D01*
X004254Y006488D01*
X004390Y006544D01*
X004493Y006648D01*
X004505Y006676D01*
X004801Y006676D01*
X005420Y006318D01*
X005456Y006282D01*
X005482Y006282D01*
X005505Y006269D01*
X005554Y006282D01*
X019457Y006282D01*
X019461Y006278D01*
X019531Y006282D01*
X019601Y006282D01*
X019605Y006286D01*
X019610Y006286D01*
X019657Y006338D01*
X019706Y006388D01*
X019706Y006393D01*
X020573Y007355D01*
X020670Y007355D01*
X020783Y007402D01*
X020870Y007488D01*
X020917Y007602D01*
X020917Y007724D01*
X020870Y007837D01*
X020783Y007924D01*
X020670Y007971D01*
X020548Y007971D01*
X020434Y007924D01*
X020348Y007837D01*
X020301Y007724D01*
X020301Y007602D01*
X020304Y007594D01*
X019446Y006642D01*
X005578Y006642D01*
X004960Y007000D01*
X004924Y007036D01*
X004897Y007036D01*
X004875Y007049D01*
X004825Y007036D01*
X004505Y007036D01*
X004493Y007064D01*
X004390Y007167D01*
X004254Y007223D01*
X003593Y007223D01*
X003447Y007156D02*
X001768Y007156D01*
X001768Y007254D02*
X005514Y007254D01*
X005664Y007156D02*
X004401Y007156D01*
X004496Y007057D02*
X005814Y007057D01*
X005965Y006959D02*
X005030Y006959D01*
X005201Y006860D02*
X006098Y006860D01*
X006105Y006853D02*
X006126Y006853D01*
X006143Y006842D01*
X006198Y006853D01*
X019167Y006853D01*
X019175Y006846D01*
X019240Y006853D01*
X019306Y006853D01*
X019313Y006860D01*
X019323Y006861D01*
X019365Y006912D01*
X019411Y006958D01*
X019411Y006969D01*
X019743Y007374D01*
X019824Y007374D01*
X019937Y007421D01*
X020024Y007508D01*
X020071Y007621D01*
X020071Y007744D01*
X020024Y007857D01*
X019937Y007944D01*
X019824Y007991D01*
X019701Y007991D01*
X019588Y007944D01*
X019762Y007683D02*
X019231Y007033D01*
X019314Y006860D02*
X019643Y006860D01*
X019554Y006762D02*
X005371Y006762D01*
X005542Y006663D02*
X019465Y006663D01*
X019526Y006462D02*
X005530Y006462D01*
X004849Y006856D01*
X003924Y006856D01*
X003438Y006565D02*
X001768Y006565D01*
X001768Y006663D02*
X003348Y006663D01*
X003308Y006762D02*
X001768Y006762D01*
X001768Y006860D02*
X003299Y006860D01*
X003311Y006959D02*
X001768Y006959D01*
X001768Y007057D02*
X003352Y007057D01*
X004254Y007473D02*
X004390Y007528D01*
X004493Y007632D01*
X004496Y007640D01*
X004925Y007640D01*
X006066Y006893D01*
X006105Y006853D01*
X005506Y006269D02*
X019987Y006269D01*
X019903Y006171D02*
X004402Y006171D01*
X004390Y006183D02*
X004254Y006239D01*
X003593Y006239D01*
X003458Y006183D01*
X003355Y006080D01*
X003299Y005945D01*
X003299Y005798D01*
X003355Y005663D01*
X003458Y005560D01*
X003593Y005504D01*
X004254Y005504D01*
X004390Y005560D01*
X004493Y005663D01*
X004505Y005692D01*
X019834Y005711D01*
X019840Y005706D01*
X019907Y005711D01*
X019975Y005711D01*
X019981Y005717D01*
X019989Y005718D01*
X020033Y005769D01*
X020080Y005817D01*
X020080Y005825D01*
X021153Y007079D01*
X021241Y007079D01*
X021354Y007126D01*
X021441Y007213D01*
X021488Y007326D01*
X021488Y007449D01*
X021441Y007562D01*
X021354Y007648D01*
X021610Y007648D01*
X021610Y007550D02*
X021446Y007550D01*
X021487Y007451D02*
X021610Y007451D01*
X021610Y007353D02*
X021488Y007353D01*
X021458Y007254D02*
X021610Y007254D01*
X021567Y007156D02*
X021384Y007156D01*
X021491Y007057D02*
X021134Y007057D01*
X021050Y006959D02*
X021416Y006959D01*
X021340Y006860D02*
X020966Y006860D01*
X020882Y006762D02*
X021265Y006762D01*
X021189Y006663D02*
X020797Y006663D01*
X020713Y006565D02*
X021114Y006565D01*
X021038Y006466D02*
X020629Y006466D01*
X020545Y006368D02*
X020963Y006368D01*
X020887Y006269D02*
X020461Y006269D01*
X020376Y006171D02*
X020678Y006171D01*
X020615Y006072D02*
X020292Y006072D01*
X020208Y005974D02*
X020596Y005974D01*
X020612Y005875D02*
X020124Y005875D01*
X020040Y005777D02*
X020670Y005777D01*
X020885Y005970D02*
X021790Y007151D01*
X021790Y007938D01*
X020609Y009120D01*
X020814Y009323D02*
X020936Y009323D01*
X020878Y009224D02*
X021034Y009224D01*
X021132Y009126D02*
X020897Y009126D01*
X020956Y009027D02*
X021230Y009027D01*
X021328Y008929D02*
X021054Y008929D01*
X021153Y008830D02*
X021425Y008830D01*
X021523Y008732D02*
X021251Y008732D01*
X021350Y008633D02*
X021621Y008633D01*
X021719Y008535D02*
X021448Y008535D01*
X021547Y008436D02*
X021817Y008436D01*
X021915Y008338D02*
X021645Y008338D01*
X021744Y008239D02*
X022012Y008239D01*
X022110Y008141D02*
X021842Y008141D01*
X021941Y008042D02*
X022208Y008042D01*
X022306Y007944D02*
X021970Y007944D01*
X021970Y007845D02*
X022404Y007845D01*
X022501Y007747D02*
X021970Y007747D01*
X021970Y007648D02*
X022599Y007648D01*
X022697Y007550D02*
X021970Y007550D01*
X021970Y007451D02*
X022795Y007451D01*
X022893Y007353D02*
X021970Y007353D01*
X021970Y007254D02*
X022991Y007254D01*
X023088Y007156D02*
X021971Y007156D01*
X021951Y007057D02*
X023186Y007057D01*
X023284Y006959D02*
X021869Y006959D01*
X021794Y006860D02*
X023382Y006860D01*
X023480Y006762D02*
X021718Y006762D01*
X021643Y006663D02*
X032364Y006663D01*
X032364Y006565D02*
X021567Y006565D01*
X021492Y006466D02*
X032364Y006466D01*
X032364Y006368D02*
X021416Y006368D01*
X021341Y006269D02*
X032364Y006269D01*
X032364Y006171D02*
X021265Y006171D01*
X021190Y006072D02*
X032364Y006072D01*
X032364Y005974D02*
X021173Y005974D01*
X021158Y005875D02*
X032364Y005875D01*
X032364Y005777D02*
X021099Y005777D01*
X020240Y006565D02*
X019861Y006565D01*
X019772Y006466D02*
X020155Y006466D01*
X020071Y006368D02*
X019687Y006368D01*
X019526Y006462D02*
X020609Y007663D01*
X020736Y007944D02*
X021530Y007944D01*
X021610Y007845D02*
X020862Y007845D01*
X020908Y007747D02*
X021610Y007747D01*
X021354Y007648D02*
X021241Y007695D01*
X021119Y007695D01*
X021005Y007648D01*
X020917Y007648D01*
X020919Y007562D02*
X021005Y007648D01*
X020919Y007562D02*
X020872Y007449D01*
X020872Y007326D01*
X020878Y007311D01*
X019817Y006071D01*
X004504Y006052D01*
X004493Y006080D01*
X004390Y006183D01*
X004496Y006072D02*
X019818Y006072D01*
X019900Y005891D02*
X003924Y005872D01*
X003438Y005580D02*
X001768Y005580D01*
X001768Y005678D02*
X003349Y005678D01*
X003308Y005777D02*
X001768Y005777D01*
X001768Y005875D02*
X003299Y005875D01*
X003311Y005974D02*
X001768Y005974D01*
X001768Y006072D02*
X003352Y006072D01*
X003446Y006171D02*
X001768Y006171D01*
X001768Y006269D02*
X005504Y006269D01*
X005334Y006368D02*
X001768Y006368D01*
X001768Y006466D02*
X005163Y006466D01*
X004993Y006565D02*
X004410Y006565D01*
X004499Y006663D02*
X004822Y006663D01*
X005364Y007353D02*
X001768Y007353D01*
X001768Y007451D02*
X005213Y007451D01*
X005063Y007550D02*
X004411Y007550D01*
X004495Y008042D02*
X021432Y008042D01*
X021136Y008338D02*
X001768Y008338D01*
X001768Y008436D02*
X021038Y008436D01*
X020482Y007944D02*
X019937Y007944D01*
X020029Y007845D02*
X020356Y007845D01*
X020310Y007747D02*
X020069Y007747D01*
X020071Y007648D02*
X020301Y007648D01*
X020265Y007550D02*
X020041Y007550D01*
X019967Y007451D02*
X020176Y007451D01*
X020087Y007353D02*
X019725Y007353D01*
X019645Y007254D02*
X019998Y007254D01*
X019909Y007156D02*
X019564Y007156D01*
X019484Y007057D02*
X019821Y007057D01*
X019732Y006959D02*
X019411Y006959D01*
X019950Y006663D02*
X020324Y006663D01*
X020408Y006762D02*
X020039Y006762D01*
X020128Y006860D02*
X020492Y006860D01*
X020577Y006959D02*
X020217Y006959D01*
X020305Y007057D02*
X020661Y007057D01*
X020745Y007156D02*
X020394Y007156D01*
X020483Y007254D02*
X020829Y007254D01*
X020872Y007353D02*
X020572Y007353D01*
X020833Y007451D02*
X020873Y007451D01*
X020896Y007550D02*
X020914Y007550D01*
X021180Y007387D02*
X019900Y005891D01*
X020288Y004020D02*
X020146Y003962D01*
X020037Y003853D01*
X019978Y003710D01*
X019978Y003556D01*
X020037Y003414D01*
X020146Y003305D01*
X020288Y003246D01*
X020442Y003246D01*
X020584Y003305D01*
X020693Y003414D01*
X020752Y003556D01*
X020752Y003710D01*
X020693Y003853D01*
X020584Y003962D01*
X020442Y004020D01*
X020288Y004020D01*
X020248Y004004D02*
X001768Y004004D01*
X001768Y004102D02*
X032364Y004102D01*
X032364Y004004D02*
X026482Y004004D01*
X026442Y004020D02*
X026288Y004020D01*
X026146Y003962D01*
X026037Y003853D01*
X025978Y003710D01*
X025978Y003556D01*
X026037Y003414D01*
X026146Y003305D01*
X026288Y003246D01*
X026442Y003246D01*
X026584Y003305D01*
X026693Y003414D01*
X026752Y003556D01*
X026752Y003710D01*
X026693Y003853D01*
X026584Y003962D01*
X026442Y004020D01*
X026248Y004004D02*
X025482Y004004D01*
X025442Y004020D02*
X025288Y004020D01*
X025146Y003962D01*
X025037Y003853D01*
X024978Y003710D01*
X024978Y003556D01*
X025037Y003414D01*
X025146Y003305D01*
X025288Y003246D01*
X025442Y003246D01*
X025584Y003305D01*
X025693Y003414D01*
X025752Y003556D01*
X025752Y003710D01*
X025693Y003853D01*
X025584Y003962D01*
X025442Y004020D01*
X025248Y004004D02*
X024482Y004004D01*
X024442Y004020D02*
X024288Y004020D01*
X024146Y003962D01*
X024037Y003853D01*
X023978Y003710D01*
X023978Y003556D01*
X024037Y003414D01*
X024146Y003305D01*
X024288Y003246D01*
X024442Y003246D01*
X024584Y003305D01*
X024693Y003414D01*
X024752Y003556D01*
X024752Y003710D01*
X024693Y003853D01*
X024584Y003962D01*
X024442Y004020D01*
X024248Y004004D02*
X023482Y004004D01*
X023442Y004020D02*
X023288Y004020D01*
X023146Y003962D01*
X023037Y003853D01*
X022978Y003710D01*
X022978Y003556D01*
X023037Y003414D01*
X023146Y003305D01*
X023288Y003246D01*
X023442Y003246D01*
X023584Y003305D01*
X023693Y003414D01*
X023752Y003556D01*
X023752Y003710D01*
X023693Y003853D01*
X023584Y003962D01*
X023442Y004020D01*
X023248Y004004D02*
X022482Y004004D01*
X022442Y004020D02*
X022288Y004020D01*
X022146Y003962D01*
X022037Y003853D01*
X021978Y003710D01*
X021978Y003556D01*
X022037Y003414D01*
X022146Y003305D01*
X022288Y003246D01*
X022442Y003246D01*
X022584Y003305D01*
X022693Y003414D01*
X022752Y003556D01*
X022752Y003710D01*
X022693Y003853D01*
X022584Y003962D01*
X022442Y004020D01*
X022248Y004004D02*
X021482Y004004D01*
X021442Y004020D02*
X021288Y004020D01*
X021146Y003962D01*
X021037Y003853D01*
X020978Y003710D01*
X020978Y003556D01*
X021037Y003414D01*
X021146Y003305D01*
X021288Y003246D01*
X021442Y003246D01*
X021584Y003305D01*
X021693Y003414D01*
X021752Y003556D01*
X021752Y003710D01*
X021693Y003853D01*
X021584Y003962D01*
X021442Y004020D01*
X021248Y004004D02*
X020482Y004004D01*
X020640Y003905D02*
X021089Y003905D01*
X021018Y003807D02*
X020712Y003807D01*
X020752Y003708D02*
X020978Y003708D01*
X020978Y003610D02*
X020752Y003610D01*
X020733Y003511D02*
X020996Y003511D01*
X021038Y003413D02*
X020692Y003413D01*
X020593Y003314D02*
X021136Y003314D01*
X021284Y003019D02*
X020689Y003019D01*
X020688Y003020D02*
X020752Y002956D01*
X020752Y002311D01*
X020688Y002246D01*
X020042Y002246D01*
X019978Y002311D01*
X019978Y002956D01*
X020042Y003020D01*
X020688Y003020D01*
X020752Y002920D02*
X021104Y002920D01*
X021146Y002962D02*
X021037Y002853D01*
X020978Y002710D01*
X020978Y002556D01*
X021037Y002414D01*
X021146Y002305D01*
X021288Y002246D01*
X021442Y002246D01*
X021584Y002305D01*
X021693Y002414D01*
X021752Y002556D01*
X021752Y002710D01*
X021693Y002853D01*
X021584Y002962D01*
X021442Y003020D01*
X021288Y003020D01*
X021146Y002962D01*
X021024Y002822D02*
X020752Y002822D01*
X020752Y002723D02*
X020983Y002723D01*
X020978Y002625D02*
X020752Y002625D01*
X020752Y002526D02*
X020990Y002526D01*
X021031Y002428D02*
X020752Y002428D01*
X020752Y002329D02*
X021121Y002329D01*
X021608Y002329D02*
X022121Y002329D01*
X022146Y002305D02*
X022288Y002246D01*
X022442Y002246D01*
X022584Y002305D01*
X022693Y002414D01*
X022752Y002556D01*
X022752Y002710D01*
X022693Y002853D01*
X022584Y002962D01*
X022442Y003020D01*
X022288Y003020D01*
X022146Y002962D01*
X022037Y002853D01*
X021978Y002710D01*
X021978Y002556D01*
X022037Y002414D01*
X022146Y002305D01*
X022031Y002428D02*
X021699Y002428D01*
X021740Y002526D02*
X021990Y002526D01*
X021978Y002625D02*
X021752Y002625D01*
X021747Y002723D02*
X021983Y002723D01*
X022024Y002822D02*
X021706Y002822D01*
X021625Y002920D02*
X022104Y002920D01*
X022284Y003019D02*
X021446Y003019D01*
X021593Y003314D02*
X022136Y003314D01*
X022038Y003413D02*
X021692Y003413D01*
X021733Y003511D02*
X021996Y003511D01*
X021978Y003610D02*
X021752Y003610D01*
X021752Y003708D02*
X021978Y003708D01*
X022018Y003807D02*
X021712Y003807D01*
X021640Y003905D02*
X022089Y003905D01*
X022640Y003905D02*
X023089Y003905D01*
X023018Y003807D02*
X022712Y003807D01*
X022752Y003708D02*
X022978Y003708D01*
X022978Y003610D02*
X022752Y003610D01*
X022733Y003511D02*
X022996Y003511D01*
X023038Y003413D02*
X022692Y003413D01*
X022593Y003314D02*
X023136Y003314D01*
X023284Y003019D02*
X022446Y003019D01*
X022625Y002920D02*
X023104Y002920D01*
X023146Y002962D02*
X023037Y002853D01*
X022978Y002710D01*
X022978Y002556D01*
X023037Y002414D01*
X023146Y002305D01*
X023288Y002246D01*
X023442Y002246D01*
X023584Y002305D01*
X023693Y002414D01*
X023752Y002556D01*
X023752Y002710D01*
X023693Y002853D01*
X023584Y002962D01*
X023442Y003020D01*
X023288Y003020D01*
X023146Y002962D01*
X023024Y002822D02*
X022706Y002822D01*
X022747Y002723D02*
X022983Y002723D01*
X022978Y002625D02*
X022752Y002625D01*
X022740Y002526D02*
X022990Y002526D01*
X023031Y002428D02*
X022699Y002428D01*
X022608Y002329D02*
X023121Y002329D01*
X023608Y002329D02*
X024065Y002329D01*
X024087Y002308D02*
X024141Y002268D01*
X024201Y002237D01*
X024265Y002217D01*
X024326Y002207D01*
X024326Y002595D01*
X023938Y002595D01*
X023948Y002533D01*
X023969Y002469D01*
X023999Y002409D01*
X024039Y002355D01*
X024087Y002308D01*
X023990Y002428D02*
X023699Y002428D01*
X023740Y002526D02*
X023950Y002526D01*
X023938Y002672D02*
X024326Y002672D01*
X024326Y002595D01*
X024403Y002595D01*
X024403Y002207D01*
X024465Y002217D01*
X024529Y002237D01*
X024589Y002268D01*
X024643Y002308D01*
X024691Y002355D01*
X024730Y002409D01*
X024761Y002469D01*
X024781Y002533D01*
X024791Y002595D01*
X024403Y002595D01*
X024403Y002672D01*
X024326Y002672D01*
X024326Y003060D01*
X024265Y003050D01*
X024201Y003029D01*
X024141Y002999D01*
X024087Y002959D01*
X024039Y002912D01*
X023999Y002857D01*
X023969Y002797D01*
X023948Y002733D01*
X023938Y002672D01*
X023947Y002723D02*
X023747Y002723D01*
X023752Y002625D02*
X024326Y002625D01*
X024403Y002625D02*
X024978Y002625D01*
X024978Y002556D02*
X025037Y002414D01*
X025146Y002305D01*
X025288Y002246D01*
X025442Y002246D01*
X025584Y002305D01*
X025693Y002414D01*
X025752Y002556D01*
X025752Y002710D01*
X025693Y002853D01*
X025584Y002962D01*
X025442Y003020D01*
X025288Y003020D01*
X025146Y002962D01*
X025037Y002853D01*
X024978Y002710D01*
X024978Y002556D01*
X024990Y002526D02*
X024779Y002526D01*
X024740Y002428D02*
X025031Y002428D01*
X025121Y002329D02*
X024665Y002329D01*
X024508Y002231D02*
X029664Y002231D01*
X029664Y002329D02*
X026608Y002329D01*
X026584Y002305D02*
X026693Y002414D01*
X026752Y002556D01*
X026752Y002710D01*
X026693Y002853D01*
X026584Y002962D01*
X026442Y003020D01*
X026288Y003020D01*
X026146Y002962D01*
X026037Y002853D01*
X025978Y002710D01*
X025978Y002556D01*
X026037Y002414D01*
X026146Y002305D01*
X026288Y002246D01*
X026442Y002246D01*
X026584Y002305D01*
X026699Y002428D02*
X029664Y002428D01*
X029664Y002526D02*
X026740Y002526D01*
X026752Y002625D02*
X029664Y002625D01*
X029664Y002723D02*
X026747Y002723D01*
X026706Y002822D02*
X029664Y002822D01*
X029664Y002920D02*
X026625Y002920D01*
X026446Y003019D02*
X029664Y003019D01*
X029664Y003117D02*
X003994Y003117D01*
X004009Y003096D02*
X003938Y003202D01*
X003857Y003301D01*
X003766Y003391D01*
X003668Y003472D01*
X003562Y003543D01*
X003449Y003603D01*
X003331Y003652D01*
X003209Y003689D01*
X003083Y003714D01*
X002956Y003727D01*
X002942Y003727D01*
X002942Y002477D01*
X002842Y002477D01*
X002842Y003727D01*
X002829Y003727D01*
X002701Y003714D01*
X002576Y003689D01*
X002454Y003652D01*
X002336Y003603D01*
X002223Y003543D01*
X002117Y003472D01*
X002018Y003391D01*
X001928Y003301D01*
X001847Y003202D01*
X001776Y003096D01*
X001768Y003080D01*
X001768Y021324D01*
X004073Y021324D01*
X004142Y021330D01*
X004208Y021348D01*
X004270Y021377D01*
X004327Y021416D01*
X004375Y021465D01*
X004414Y021521D01*
X004443Y021583D01*
X004461Y021650D01*
X004467Y021718D01*
X004467Y024024D01*
X029664Y024024D01*
X029664Y021718D01*
X029670Y021650D01*
X029688Y021583D01*
X029717Y021521D01*
X029756Y021465D01*
X029805Y021416D01*
X029861Y021377D01*
X029923Y021348D01*
X029989Y021330D01*
X030058Y021324D01*
X032364Y021324D01*
X032364Y004001D01*
X030058Y004001D01*
X029989Y003995D01*
X029923Y003978D01*
X029861Y003949D01*
X029805Y003909D01*
X029756Y003861D01*
X029717Y003805D01*
X029688Y003742D01*
X029670Y003676D01*
X029664Y003608D01*
X029664Y001302D01*
X003546Y001302D01*
X003562Y001310D01*
X003668Y001381D01*
X003766Y001462D01*
X003857Y001553D01*
X003938Y001651D01*
X004009Y001758D01*
X004069Y001870D01*
X004118Y001988D01*
X004155Y002110D01*
X004180Y002236D01*
X004192Y002363D01*
X004192Y002377D01*
X002942Y002377D01*
X002942Y002477D01*
X004192Y002477D01*
X004192Y002491D01*
X004180Y002618D01*
X004155Y002743D01*
X004118Y002865D01*
X004069Y002983D01*
X004009Y003096D01*
X004050Y003019D02*
X020040Y003019D01*
X019978Y002920D02*
X006733Y002920D01*
X006737Y002918D02*
X006656Y002960D01*
X006570Y002987D01*
X006486Y003001D01*
X006486Y002477D01*
X006386Y002477D01*
X006386Y003001D01*
X006301Y002987D01*
X006215Y002960D01*
X006134Y002918D01*
X006061Y002865D01*
X005997Y002801D01*
X005944Y002728D01*
X005903Y002647D01*
X005875Y002561D01*
X005861Y002477D01*
X006386Y002477D01*
X006386Y002377D01*
X005861Y002377D01*
X005875Y002292D01*
X005903Y002206D01*
X005944Y002125D01*
X005997Y002052D01*
X006061Y001988D01*
X006134Y001935D01*
X006215Y001894D01*
X006301Y001866D01*
X006386Y001852D01*
X006386Y002377D01*
X006486Y002377D01*
X006486Y002477D01*
X007010Y002477D01*
X006997Y002561D01*
X006969Y002647D01*
X006927Y002728D01*
X006874Y002801D01*
X006810Y002865D01*
X006737Y002918D01*
X006854Y002822D02*
X019978Y002822D01*
X019978Y002723D02*
X006930Y002723D01*
X006976Y002625D02*
X019978Y002625D01*
X019978Y002526D02*
X007002Y002526D01*
X007010Y002377D02*
X006486Y002377D01*
X006486Y001852D01*
X006570Y001866D01*
X006656Y001894D01*
X006737Y001935D01*
X006810Y001988D01*
X006874Y002052D01*
X006927Y002125D01*
X006969Y002206D01*
X006997Y002292D01*
X007010Y002377D01*
X007002Y002329D02*
X019978Y002329D01*
X019978Y002428D02*
X006486Y002428D01*
X006486Y002526D02*
X006386Y002526D01*
X006386Y002428D02*
X002942Y002428D01*
X002942Y002526D02*
X002842Y002526D01*
X002842Y002625D02*
X002942Y002625D01*
X002942Y002723D02*
X002842Y002723D01*
X002842Y002822D02*
X002942Y002822D01*
X002942Y002920D02*
X002842Y002920D01*
X002842Y003019D02*
X002942Y003019D01*
X002942Y003117D02*
X002842Y003117D01*
X002842Y003216D02*
X002942Y003216D01*
X002942Y003314D02*
X002842Y003314D01*
X002842Y003413D02*
X002942Y003413D01*
X002942Y003511D02*
X002842Y003511D01*
X002842Y003610D02*
X002942Y003610D01*
X002942Y003708D02*
X002842Y003708D01*
X002672Y003708D02*
X001768Y003708D01*
X001768Y003610D02*
X002352Y003610D01*
X002176Y003511D02*
X001768Y003511D01*
X001768Y003413D02*
X002045Y003413D01*
X001942Y003314D02*
X001768Y003314D01*
X001768Y003216D02*
X001858Y003216D01*
X001790Y003117D02*
X001768Y003117D01*
X001768Y003807D02*
X020018Y003807D01*
X019978Y003708D02*
X003112Y003708D01*
X003433Y003610D02*
X019978Y003610D01*
X019996Y003511D02*
X003609Y003511D01*
X003740Y003413D02*
X020038Y003413D01*
X020136Y003314D02*
X003843Y003314D01*
X003926Y003216D02*
X029664Y003216D01*
X029664Y003314D02*
X026593Y003314D01*
X026692Y003413D02*
X029664Y003413D01*
X029664Y003511D02*
X026733Y003511D01*
X026752Y003610D02*
X029664Y003610D01*
X029679Y003708D02*
X026752Y003708D01*
X026712Y003807D02*
X029718Y003807D01*
X029801Y003905D02*
X026640Y003905D01*
X026089Y003905D02*
X025640Y003905D01*
X025712Y003807D02*
X026018Y003807D01*
X025978Y003708D02*
X025752Y003708D01*
X025752Y003610D02*
X025978Y003610D01*
X025996Y003511D02*
X025733Y003511D01*
X025692Y003413D02*
X026038Y003413D01*
X026136Y003314D02*
X025593Y003314D01*
X025446Y003019D02*
X026284Y003019D01*
X026104Y002920D02*
X025625Y002920D01*
X025706Y002822D02*
X026024Y002822D01*
X025983Y002723D02*
X025747Y002723D01*
X025752Y002625D02*
X025978Y002625D01*
X025990Y002526D02*
X025740Y002526D01*
X025699Y002428D02*
X026031Y002428D01*
X026121Y002329D02*
X025608Y002329D01*
X024983Y002723D02*
X024783Y002723D01*
X024781Y002733D02*
X024761Y002797D01*
X024730Y002857D01*
X024691Y002912D01*
X024643Y002959D01*
X024589Y002999D01*
X024529Y003029D01*
X024465Y003050D01*
X024403Y003060D01*
X024403Y002672D01*
X024791Y002672D01*
X024781Y002733D01*
X024748Y002822D02*
X025024Y002822D01*
X025104Y002920D02*
X024682Y002920D01*
X024549Y003019D02*
X025284Y003019D01*
X025136Y003314D02*
X024593Y003314D01*
X024692Y003413D02*
X025038Y003413D01*
X024996Y003511D02*
X024733Y003511D01*
X024752Y003610D02*
X024978Y003610D01*
X024978Y003708D02*
X024752Y003708D01*
X024712Y003807D02*
X025018Y003807D01*
X025089Y003905D02*
X024640Y003905D01*
X024089Y003905D02*
X023640Y003905D01*
X023712Y003807D02*
X024018Y003807D01*
X023978Y003708D02*
X023752Y003708D01*
X023752Y003610D02*
X023978Y003610D01*
X023996Y003511D02*
X023733Y003511D01*
X023692Y003413D02*
X024038Y003413D01*
X024136Y003314D02*
X023593Y003314D01*
X023446Y003019D02*
X024181Y003019D01*
X024326Y003019D02*
X024403Y003019D01*
X024403Y002920D02*
X024326Y002920D01*
X024326Y002822D02*
X024403Y002822D01*
X024403Y002723D02*
X024326Y002723D01*
X024326Y002526D02*
X024403Y002526D01*
X024403Y002428D02*
X024326Y002428D01*
X024326Y002329D02*
X024403Y002329D01*
X024403Y002231D02*
X024326Y002231D01*
X024221Y002231D02*
X006977Y002231D01*
X006931Y002132D02*
X029664Y002132D01*
X029664Y002034D02*
X006856Y002034D01*
X006738Y001935D02*
X029664Y001935D01*
X029664Y001837D02*
X004051Y001837D01*
X004096Y001935D02*
X006134Y001935D01*
X006015Y002034D02*
X004132Y002034D01*
X004159Y002132D02*
X005940Y002132D01*
X005895Y002231D02*
X004179Y002231D01*
X004189Y002329D02*
X005869Y002329D01*
X005869Y002526D02*
X004189Y002526D01*
X004178Y002625D02*
X005896Y002625D01*
X005942Y002723D02*
X004159Y002723D01*
X004131Y002822D02*
X006018Y002822D01*
X006138Y002920D02*
X004095Y002920D01*
X003996Y001738D02*
X029664Y001738D01*
X029664Y001640D02*
X003928Y001640D01*
X003846Y001541D02*
X029664Y001541D01*
X029664Y001443D02*
X003743Y001443D01*
X003613Y001344D02*
X029664Y001344D01*
X032364Y004201D02*
X001768Y004201D01*
X001768Y004299D02*
X032364Y004299D01*
X032364Y004398D02*
X001768Y004398D01*
X001768Y004496D02*
X003551Y004496D01*
X003571Y004490D02*
X003634Y004480D01*
X003895Y004480D01*
X003895Y004859D01*
X003259Y004859D01*
X003259Y004855D01*
X003269Y004792D01*
X003289Y004731D01*
X003318Y004674D01*
X003356Y004622D01*
X003401Y004576D01*
X003453Y004539D01*
X003510Y004510D01*
X003571Y004490D01*
X003383Y004595D02*
X001768Y004595D01*
X001768Y004693D02*
X003308Y004693D01*
X003269Y004792D02*
X001768Y004792D01*
X001768Y004890D02*
X003895Y004890D01*
X003895Y004916D02*
X003895Y004859D01*
X003953Y004859D01*
X003953Y004916D01*
X004589Y004916D01*
X004589Y004919D01*
X004579Y004983D01*
X004559Y005044D01*
X004530Y005101D01*
X004492Y005153D01*
X004447Y005198D01*
X004395Y005236D01*
X004338Y005265D01*
X004277Y005285D01*
X004213Y005295D01*
X003953Y005295D01*
X003953Y004916D01*
X003895Y004916D01*
X003259Y004916D01*
X003259Y004919D01*
X003269Y004983D01*
X003289Y005044D01*
X003318Y005101D01*
X003356Y005153D01*
X003401Y005198D01*
X003453Y005236D01*
X003510Y005265D01*
X003571Y005285D01*
X003634Y005295D01*
X003895Y005295D01*
X003895Y004916D01*
X003953Y004890D02*
X032364Y004890D01*
X032364Y004792D02*
X004579Y004792D01*
X004589Y004855D01*
X004589Y004859D01*
X003953Y004859D01*
X003953Y004480D01*
X004213Y004480D01*
X004277Y004490D01*
X004338Y004510D01*
X004395Y004539D01*
X004447Y004576D01*
X004492Y004622D01*
X004530Y004674D01*
X004559Y004731D01*
X004579Y004792D01*
X004540Y004693D02*
X032364Y004693D01*
X032364Y004595D02*
X004465Y004595D01*
X004297Y004496D02*
X032364Y004496D01*
X032364Y004989D02*
X004577Y004989D01*
X004537Y005087D02*
X032364Y005087D01*
X032364Y005186D02*
X004459Y005186D01*
X004278Y005284D02*
X032364Y005284D01*
X032364Y005383D02*
X001768Y005383D01*
X001768Y005481D02*
X032364Y005481D01*
X032364Y005580D02*
X004409Y005580D01*
X004499Y005678D02*
X032364Y005678D01*
X032364Y006762D02*
X026067Y006762D01*
X026147Y006860D02*
X032364Y006860D01*
X032364Y006959D02*
X026226Y006959D01*
X026305Y007057D02*
X032364Y007057D01*
X032364Y007156D02*
X026522Y007156D01*
X026584Y007254D02*
X032364Y007254D01*
X032364Y007353D02*
X026606Y007353D01*
X026597Y007451D02*
X032364Y007451D01*
X032364Y007550D02*
X026551Y007550D01*
X026425Y007648D02*
X032364Y007648D01*
X032364Y007747D02*
X023634Y007747D01*
X023732Y007648D02*
X024683Y007648D01*
X024842Y007648D02*
X026171Y007648D01*
X026044Y007550D02*
X024996Y007550D01*
X025053Y007451D02*
X025999Y007451D01*
X025990Y007353D02*
X025071Y007353D01*
X025057Y007254D02*
X026002Y007254D01*
X025922Y007156D02*
X025006Y007156D01*
X024519Y007156D02*
X023596Y007156D01*
X023601Y006895D02*
X025944Y006895D01*
X026270Y007300D01*
X026270Y007301D02*
X026282Y007315D01*
X026291Y007332D01*
X026296Y007349D01*
X026298Y007368D01*
X023601Y006895D02*
X020744Y009772D01*
X020656Y009809D02*
X003924Y009809D01*
X004412Y009520D02*
X020741Y009520D01*
X020838Y009421D02*
X001768Y009421D01*
X001768Y009323D02*
X020404Y009323D01*
X020643Y009618D02*
X004500Y009618D01*
X004413Y010505D02*
X020367Y010505D01*
X020465Y010406D02*
X001768Y010406D01*
X001768Y010308D02*
X020564Y010308D01*
X020876Y010505D02*
X022791Y010505D01*
X022791Y010603D02*
X020777Y010603D01*
X020679Y010702D02*
X022791Y010702D01*
X022791Y010800D02*
X020580Y010800D01*
X020974Y010406D02*
X022791Y010406D01*
X022791Y010308D02*
X021073Y010308D01*
X021171Y010209D02*
X022791Y010209D01*
X022791Y010163D02*
X022710Y010081D01*
X022663Y009968D01*
X022663Y009846D01*
X022710Y009732D01*
X022797Y009646D01*
X022910Y009599D01*
X023032Y009599D01*
X023146Y009646D01*
X023232Y009732D01*
X023279Y009846D01*
X023279Y009968D01*
X023232Y010081D01*
X023151Y010163D01*
X023151Y010866D01*
X023190Y010827D01*
X023304Y010780D01*
X023426Y010780D01*
X023539Y010827D01*
X023626Y010914D01*
X023673Y011027D01*
X023673Y011149D01*
X023626Y011263D01*
X023545Y011344D01*
X023545Y013354D01*
X023559Y013340D01*
X023559Y013021D01*
X024208Y012372D01*
X024314Y012266D01*
X026087Y012266D01*
X028864Y009581D01*
X028864Y009495D01*
X028908Y009389D01*
X028989Y009308D01*
X029095Y009264D01*
X029210Y009264D01*
X029316Y009308D01*
X029397Y009389D01*
X029441Y009495D01*
X029441Y009610D01*
X029403Y009700D01*
X029410Y009697D01*
X029525Y009697D01*
X029631Y009741D01*
X029712Y009822D01*
X029756Y009928D01*
X029756Y010043D01*
X029712Y010149D01*
X029631Y010230D01*
X029525Y010274D01*
X029410Y010274D01*
X029404Y010272D01*
X029243Y010406D01*
X029328Y010406D01*
X029434Y010450D01*
X029515Y010531D01*
X029559Y010637D01*
X029559Y010752D01*
X029515Y010858D01*
X029437Y010935D01*
X029453Y010942D01*
X029535Y011023D01*
X029578Y011129D01*
X029578Y011244D01*
X029535Y011350D01*
X029453Y011431D01*
X029347Y011475D01*
X029233Y011475D01*
X029200Y011461D01*
X026334Y013354D01*
X026294Y013394D01*
X026273Y013394D01*
X026256Y013405D01*
X026201Y013394D01*
X025305Y013394D01*
X025241Y013459D01*
X025135Y013502D01*
X025020Y013502D01*
X024914Y013459D01*
X024841Y013386D01*
X024768Y013459D01*
X024662Y013502D01*
X024548Y013502D01*
X024488Y013478D01*
X024456Y013555D01*
X024375Y013636D01*
X024269Y013680D01*
X024154Y013680D01*
X024048Y013636D01*
X024027Y013615D01*
X024027Y013626D01*
X023983Y013732D01*
X023902Y013813D01*
X023796Y013857D01*
X023681Y013857D01*
X023575Y013813D01*
X023545Y013782D01*
X023545Y016132D01*
X025513Y018100D01*
X025513Y020675D01*
X025595Y020756D01*
X025641Y020869D01*
X025641Y020992D01*
X025595Y021105D01*
X025508Y021192D01*
X025395Y021239D01*
X025272Y021239D01*
X025159Y021192D01*
X025072Y021105D01*
X025025Y020992D01*
X025025Y020869D01*
X025072Y020756D01*
X025153Y020675D01*
X025153Y018249D01*
X023290Y016386D01*
X023185Y016281D01*
X023185Y011344D01*
X023151Y011310D01*
X023151Y020462D01*
X023311Y020622D01*
X023426Y020622D01*
X023539Y020669D01*
X023626Y020756D01*
X023673Y020869D01*
X023673Y020992D01*
X023626Y021105D01*
X023539Y021192D01*
X023426Y021239D01*
X023304Y021239D01*
X023190Y021192D01*
X023104Y021105D01*
X023057Y020992D01*
X023057Y020877D01*
X022897Y020717D01*
X022791Y020611D01*
X022791Y010163D01*
X022739Y010111D02*
X021270Y010111D01*
X021368Y010012D02*
X022681Y010012D01*
X022663Y009914D02*
X021467Y009914D01*
X021565Y009815D02*
X022676Y009815D01*
X022725Y009717D02*
X021664Y009717D01*
X021762Y009618D02*
X022863Y009618D01*
X023080Y009618D02*
X028825Y009618D01*
X028864Y009520D02*
X021861Y009520D01*
X021959Y009421D02*
X028894Y009421D01*
X028974Y009323D02*
X022058Y009323D01*
X022156Y009224D02*
X032364Y009224D01*
X032364Y009126D02*
X022255Y009126D01*
X022353Y009027D02*
X032364Y009027D01*
X032364Y008929D02*
X022452Y008929D01*
X022550Y008830D02*
X032364Y008830D01*
X032364Y008732D02*
X022649Y008732D01*
X022747Y008633D02*
X032364Y008633D01*
X032364Y008535D02*
X022846Y008535D01*
X022944Y008436D02*
X032364Y008436D01*
X032364Y008338D02*
X023043Y008338D01*
X023141Y008239D02*
X032364Y008239D01*
X032364Y008141D02*
X023240Y008141D01*
X023338Y008042D02*
X032364Y008042D01*
X032364Y007944D02*
X023437Y007944D01*
X023535Y007845D02*
X032364Y007845D01*
X032364Y009323D02*
X029330Y009323D01*
X029410Y009421D02*
X032364Y009421D01*
X032364Y009520D02*
X029441Y009520D01*
X029437Y009618D02*
X032364Y009618D01*
X032364Y009717D02*
X029572Y009717D01*
X029705Y009815D02*
X032364Y009815D01*
X032364Y009914D02*
X029750Y009914D01*
X029756Y010012D02*
X032364Y010012D01*
X032364Y010111D02*
X029728Y010111D01*
X029651Y010209D02*
X032364Y010209D01*
X032364Y010308D02*
X029361Y010308D01*
X029329Y010406D02*
X032364Y010406D01*
X032364Y010505D02*
X029489Y010505D01*
X029545Y010603D02*
X032364Y010603D01*
X032364Y010702D02*
X029559Y010702D01*
X029539Y010800D02*
X032364Y010800D01*
X032364Y010899D02*
X029474Y010899D01*
X029509Y010997D02*
X032364Y010997D01*
X032364Y011096D02*
X029565Y011096D01*
X029578Y011194D02*
X032364Y011194D01*
X032364Y011293D02*
X029558Y011293D01*
X029493Y011391D02*
X032364Y011391D01*
X032364Y011490D02*
X029157Y011490D01*
X029008Y011588D02*
X032364Y011588D01*
X032364Y011687D02*
X028859Y011687D01*
X028710Y011785D02*
X032364Y011785D01*
X032364Y011884D02*
X028560Y011884D01*
X028411Y011982D02*
X032364Y011982D01*
X032364Y012081D02*
X028262Y012081D01*
X028113Y012179D02*
X032364Y012179D01*
X032364Y012278D02*
X027964Y012278D01*
X027815Y012376D02*
X032364Y012376D01*
X032364Y012475D02*
X027665Y012475D01*
X027516Y012573D02*
X032364Y012573D01*
X032364Y012672D02*
X027367Y012672D01*
X027218Y012770D02*
X032364Y012770D01*
X032364Y012869D02*
X027069Y012869D01*
X026919Y012967D02*
X032364Y012967D01*
X032364Y013066D02*
X026770Y013066D01*
X026621Y013164D02*
X032364Y013164D01*
X032364Y013263D02*
X026472Y013263D01*
X026326Y013361D02*
X032364Y013361D01*
X032364Y013460D02*
X025238Y013460D01*
X025077Y013214D02*
X026219Y013214D01*
X029290Y011186D01*
X029270Y010694D02*
X026219Y012919D01*
X024703Y012919D01*
X024605Y013017D01*
X024605Y013214D01*
X024765Y013460D02*
X024917Y013460D01*
X024452Y013558D02*
X032364Y013558D01*
X032364Y013657D02*
X024324Y013657D01*
X024099Y013657D02*
X024014Y013657D01*
X023960Y013755D02*
X032364Y013755D01*
X032364Y013854D02*
X023803Y013854D01*
X023674Y013854D02*
X023545Y013854D01*
X023545Y013952D02*
X032364Y013952D01*
X032364Y014051D02*
X023545Y014051D01*
X023545Y014149D02*
X032364Y014149D01*
X032364Y014248D02*
X023545Y014248D01*
X023545Y014346D02*
X032364Y014346D01*
X032364Y014445D02*
X023545Y014445D01*
X023545Y014543D02*
X032364Y014543D01*
X032364Y014642D02*
X023545Y014642D01*
X023545Y014740D02*
X032364Y014740D01*
X032364Y014839D02*
X023545Y014839D01*
X023545Y014937D02*
X032364Y014937D01*
X032364Y015036D02*
X023545Y015036D01*
X023545Y015134D02*
X032364Y015134D01*
X032364Y015233D02*
X023545Y015233D01*
X023545Y015331D02*
X032364Y015331D01*
X032364Y015430D02*
X023545Y015430D01*
X023545Y015528D02*
X032364Y015528D01*
X032364Y015627D02*
X023545Y015627D01*
X023545Y015725D02*
X032364Y015725D01*
X032364Y015824D02*
X023545Y015824D01*
X023545Y015922D02*
X032364Y015922D01*
X032364Y016021D02*
X023545Y016021D01*
X023545Y016119D02*
X032364Y016119D01*
X032364Y016218D02*
X023631Y016218D01*
X023730Y016316D02*
X032364Y016316D01*
X032364Y016415D02*
X023828Y016415D01*
X023927Y016513D02*
X032364Y016513D01*
X032364Y016612D02*
X024025Y016612D01*
X024124Y016710D02*
X032364Y016710D01*
X032364Y016809D02*
X024222Y016809D01*
X024321Y016907D02*
X032364Y016907D01*
X032364Y017006D02*
X024419Y017006D01*
X024518Y017104D02*
X032364Y017104D01*
X032364Y017203D02*
X024616Y017203D01*
X024715Y017301D02*
X032364Y017301D01*
X032364Y017400D02*
X024813Y017400D01*
X024912Y017498D02*
X032364Y017498D01*
X032364Y017597D02*
X025010Y017597D01*
X025109Y017695D02*
X032364Y017695D01*
X032364Y017794D02*
X025207Y017794D01*
X025306Y017892D02*
X032364Y017892D01*
X032364Y017991D02*
X025404Y017991D01*
X025503Y018089D02*
X032364Y018089D01*
X032364Y018188D02*
X025513Y018188D01*
X025513Y018286D02*
X032364Y018286D01*
X032364Y018385D02*
X025513Y018385D01*
X025513Y018483D02*
X032364Y018483D01*
X032364Y018582D02*
X025513Y018582D01*
X025513Y018680D02*
X032364Y018680D01*
X032364Y018779D02*
X025513Y018779D01*
X025513Y018877D02*
X032364Y018877D01*
X032364Y018976D02*
X025513Y018976D01*
X025513Y019074D02*
X032364Y019074D01*
X032364Y019173D02*
X025513Y019173D01*
X025513Y019271D02*
X032364Y019271D01*
X032364Y019370D02*
X025513Y019370D01*
X025513Y019468D02*
X032364Y019468D01*
X032364Y019567D02*
X025513Y019567D01*
X025513Y019665D02*
X028586Y019665D01*
X028616Y019635D02*
X028756Y019635D01*
X028756Y020015D01*
X028376Y020015D01*
X028376Y019875D01*
X028616Y019635D01*
X028756Y019665D02*
X028816Y019665D01*
X028816Y019635D02*
X028956Y019635D01*
X029196Y019875D01*
X029196Y020015D01*
X028816Y020015D01*
X028816Y020075D01*
X028756Y020075D01*
X028756Y020455D01*
X028616Y020455D01*
X028376Y020215D01*
X028376Y020075D01*
X028756Y020075D01*
X028756Y020015D01*
X028816Y020015D01*
X028816Y019635D01*
X028816Y019764D02*
X028756Y019764D01*
X028756Y019862D02*
X028816Y019862D01*
X028816Y019961D02*
X028756Y019961D01*
X028756Y020059D02*
X028156Y020059D01*
X028156Y019961D02*
X028376Y019961D01*
X028389Y019862D02*
X028127Y019862D01*
X028156Y019891D02*
X027939Y019675D01*
X027633Y019675D01*
X027416Y019891D01*
X027416Y020198D01*
X027633Y020415D01*
X027939Y020415D01*
X028156Y020198D01*
X028156Y019891D01*
X028028Y019764D02*
X028487Y019764D01*
X028376Y020158D02*
X028156Y020158D01*
X028098Y020256D02*
X028418Y020256D01*
X028516Y020355D02*
X027999Y020355D01*
X027573Y020355D02*
X025513Y020355D01*
X025513Y020453D02*
X028615Y020453D01*
X028756Y020453D02*
X028816Y020453D01*
X028816Y020455D02*
X028956Y020455D01*
X029196Y020215D01*
X029196Y020075D01*
X028816Y020075D01*
X028816Y020455D01*
X028816Y020355D02*
X028756Y020355D01*
X028756Y020256D02*
X028816Y020256D01*
X028816Y020158D02*
X028756Y020158D01*
X028816Y020059D02*
X032364Y020059D01*
X032364Y019961D02*
X029196Y019961D01*
X029184Y019862D02*
X032364Y019862D01*
X032364Y019764D02*
X029085Y019764D01*
X028987Y019665D02*
X032364Y019665D01*
X032364Y020158D02*
X029196Y020158D01*
X029154Y020256D02*
X032364Y020256D01*
X032364Y020355D02*
X029056Y020355D01*
X028957Y020453D02*
X032364Y020453D01*
X032364Y020552D02*
X025513Y020552D01*
X025513Y020650D02*
X032364Y020650D01*
X032364Y020749D02*
X025587Y020749D01*
X025632Y020847D02*
X032364Y020847D01*
X032364Y020946D02*
X025641Y020946D01*
X025620Y021044D02*
X032364Y021044D01*
X032364Y021143D02*
X025557Y021143D01*
X025333Y020931D02*
X025333Y018175D01*
X023365Y016206D01*
X023365Y011088D01*
X023673Y011096D02*
X027298Y011096D01*
X027399Y010997D02*
X023661Y010997D01*
X023611Y010899D02*
X027501Y010899D01*
X027603Y010800D02*
X023475Y010800D01*
X023254Y010800D02*
X023151Y010800D01*
X023151Y010702D02*
X027705Y010702D01*
X027807Y010603D02*
X023151Y010603D01*
X023151Y010505D02*
X027909Y010505D01*
X028011Y010406D02*
X023151Y010406D01*
X023151Y010308D02*
X028112Y010308D01*
X028214Y010209D02*
X023151Y010209D01*
X023203Y010111D02*
X028316Y010111D01*
X028418Y010012D02*
X023261Y010012D01*
X023279Y009914D02*
X028520Y009914D01*
X028622Y009815D02*
X023267Y009815D01*
X023217Y009717D02*
X028723Y009717D01*
X029152Y009553D02*
X026160Y012446D01*
X024388Y012446D01*
X023739Y013096D01*
X023739Y013568D01*
X024211Y013391D02*
X024211Y012998D01*
X024566Y012702D01*
X026199Y012702D01*
X029467Y009986D01*
X027196Y011194D02*
X023654Y011194D01*
X023596Y011293D02*
X027094Y011293D01*
X026992Y011391D02*
X023545Y011391D01*
X023545Y011490D02*
X026890Y011490D01*
X026788Y011588D02*
X023545Y011588D01*
X023545Y011687D02*
X026686Y011687D01*
X026585Y011785D02*
X023545Y011785D01*
X023545Y011884D02*
X026483Y011884D01*
X026381Y011982D02*
X023545Y011982D01*
X023545Y012081D02*
X026279Y012081D01*
X026177Y012179D02*
X023545Y012179D01*
X023545Y012278D02*
X024302Y012278D01*
X024204Y012376D02*
X023545Y012376D01*
X023545Y012475D02*
X024105Y012475D01*
X024007Y012573D02*
X023545Y012573D01*
X023545Y012672D02*
X023908Y012672D01*
X023810Y012770D02*
X023545Y012770D01*
X023545Y012869D02*
X023711Y012869D01*
X023613Y012967D02*
X023545Y012967D01*
X023545Y013066D02*
X023559Y013066D01*
X023545Y013164D02*
X023559Y013164D01*
X023545Y013263D02*
X023559Y013263D01*
X023185Y013263D02*
X023151Y013263D01*
X023151Y013361D02*
X023185Y013361D01*
X023185Y013460D02*
X023151Y013460D01*
X023151Y013558D02*
X023185Y013558D01*
X023185Y013657D02*
X023151Y013657D01*
X023151Y013755D02*
X023185Y013755D01*
X023185Y013854D02*
X023151Y013854D01*
X023151Y013952D02*
X023185Y013952D01*
X023185Y014051D02*
X023151Y014051D01*
X023151Y014149D02*
X023185Y014149D01*
X023185Y014248D02*
X023151Y014248D01*
X023151Y014346D02*
X023185Y014346D01*
X023185Y014445D02*
X023151Y014445D01*
X023151Y014543D02*
X023185Y014543D01*
X023185Y014642D02*
X023151Y014642D01*
X023151Y014740D02*
X023185Y014740D01*
X023185Y014839D02*
X023151Y014839D01*
X023151Y014937D02*
X023185Y014937D01*
X023185Y015036D02*
X023151Y015036D01*
X023151Y015134D02*
X023185Y015134D01*
X023185Y015233D02*
X023151Y015233D01*
X023151Y015331D02*
X023185Y015331D01*
X023185Y015430D02*
X023151Y015430D01*
X023151Y015528D02*
X023185Y015528D01*
X023185Y015627D02*
X023151Y015627D01*
X023151Y015725D02*
X023185Y015725D01*
X023185Y015824D02*
X023151Y015824D01*
X023151Y015922D02*
X023185Y015922D01*
X023185Y016021D02*
X023151Y016021D01*
X023151Y016119D02*
X023185Y016119D01*
X023185Y016218D02*
X023151Y016218D01*
X023151Y016316D02*
X023220Y016316D01*
X023151Y016415D02*
X023319Y016415D01*
X023417Y016513D02*
X023151Y016513D01*
X023151Y016612D02*
X023516Y016612D01*
X023614Y016710D02*
X023151Y016710D01*
X023151Y016809D02*
X023713Y016809D01*
X023811Y016907D02*
X023151Y016907D01*
X023151Y017006D02*
X023910Y017006D01*
X024008Y017104D02*
X023151Y017104D01*
X023151Y017203D02*
X024107Y017203D01*
X024205Y017301D02*
X023151Y017301D01*
X023151Y017400D02*
X024304Y017400D01*
X024402Y017498D02*
X023151Y017498D01*
X023151Y017597D02*
X024501Y017597D01*
X024599Y017695D02*
X023151Y017695D01*
X023151Y017794D02*
X024698Y017794D01*
X024796Y017892D02*
X023151Y017892D01*
X023151Y017991D02*
X024895Y017991D01*
X024993Y018089D02*
X023151Y018089D01*
X023151Y018188D02*
X025092Y018188D01*
X025153Y018286D02*
X023151Y018286D01*
X023151Y018385D02*
X025153Y018385D01*
X025153Y018483D02*
X023151Y018483D01*
X023151Y018582D02*
X025153Y018582D01*
X025153Y018680D02*
X023151Y018680D01*
X023151Y018779D02*
X025153Y018779D01*
X025153Y018877D02*
X023151Y018877D01*
X023151Y018976D02*
X025153Y018976D01*
X025153Y019074D02*
X023151Y019074D01*
X023151Y019173D02*
X025153Y019173D01*
X025153Y019271D02*
X023151Y019271D01*
X023151Y019370D02*
X025153Y019370D01*
X025153Y019468D02*
X023151Y019468D01*
X023151Y019567D02*
X025153Y019567D01*
X025153Y019665D02*
X023151Y019665D01*
X023151Y019764D02*
X025153Y019764D01*
X025153Y019862D02*
X023151Y019862D01*
X023151Y019961D02*
X025153Y019961D01*
X025153Y020059D02*
X023151Y020059D01*
X023151Y020158D02*
X025153Y020158D01*
X025153Y020256D02*
X023151Y020256D01*
X023151Y020355D02*
X025153Y020355D01*
X025153Y020453D02*
X023151Y020453D01*
X023241Y020552D02*
X025153Y020552D01*
X025153Y020650D02*
X023494Y020650D01*
X023619Y020749D02*
X025079Y020749D01*
X025034Y020847D02*
X023664Y020847D01*
X023673Y020946D02*
X025025Y020946D01*
X025047Y021044D02*
X023651Y021044D01*
X023588Y021143D02*
X025110Y021143D01*
X024498Y021408D02*
X024539Y021507D01*
X024539Y021614D01*
X024498Y021713D01*
X024450Y021761D01*
X024450Y022069D01*
X024453Y022140D01*
X024450Y022143D01*
X024450Y022147D01*
X024400Y022197D01*
X024027Y022599D01*
X024027Y022677D01*
X023986Y022776D01*
X023911Y022851D01*
X023812Y022892D01*
X023705Y022892D01*
X023606Y022851D01*
X023531Y022776D01*
X023490Y022677D01*
X023490Y022570D01*
X023531Y022471D01*
X023606Y022396D01*
X023705Y022355D01*
X023762Y022355D01*
X024090Y022002D01*
X024090Y021761D01*
X024043Y021713D01*
X024002Y021614D01*
X024002Y021507D01*
X024043Y021408D01*
X024118Y021333D01*
X024217Y021292D01*
X024324Y021292D01*
X024423Y021333D01*
X024498Y021408D01*
X024511Y021438D02*
X029783Y021438D01*
X029709Y021537D02*
X024539Y021537D01*
X024530Y021635D02*
X029674Y021635D01*
X029664Y021734D02*
X024477Y021734D01*
X024450Y021832D02*
X029664Y021832D01*
X029664Y021931D02*
X024450Y021931D01*
X024450Y022029D02*
X029664Y022029D01*
X029664Y022128D02*
X024453Y022128D01*
X024373Y022226D02*
X029664Y022226D01*
X029664Y022325D02*
X024281Y022325D01*
X024190Y022423D02*
X029664Y022423D01*
X029664Y022522D02*
X024099Y022522D01*
X024027Y022620D02*
X029664Y022620D01*
X029664Y022719D02*
X024010Y022719D01*
X023945Y022817D02*
X029664Y022817D01*
X029664Y022916D02*
X004467Y022916D01*
X004467Y023014D02*
X029664Y023014D01*
X029664Y023113D02*
X004467Y023113D01*
X004467Y023211D02*
X029664Y023211D01*
X029664Y023310D02*
X004467Y023310D01*
X004467Y023408D02*
X029664Y023408D01*
X029664Y023507D02*
X004467Y023507D01*
X004467Y023605D02*
X029664Y023605D01*
X029664Y023704D02*
X004467Y023704D01*
X004467Y023802D02*
X029664Y023802D01*
X029664Y023901D02*
X004467Y023901D01*
X004467Y023999D02*
X029664Y023999D01*
X029953Y021340D02*
X024430Y021340D01*
X024270Y021560D02*
X024270Y022072D01*
X023759Y022623D01*
X023510Y022522D02*
X023066Y022522D01*
X023023Y022576D02*
X023023Y022677D01*
X022982Y022776D01*
X022907Y022851D01*
X022808Y022892D01*
X022701Y022892D01*
X022602Y022851D01*
X022527Y022776D01*
X022486Y022677D01*
X022486Y022570D01*
X022527Y022471D01*
X022602Y022396D01*
X022701Y022355D01*
X022739Y022355D01*
X022811Y022265D01*
X022811Y021379D01*
X022682Y021250D01*
X022689Y021267D01*
X022689Y021382D01*
X022645Y021488D01*
X022564Y021569D01*
X022458Y021613D01*
X022343Y021613D01*
X022237Y021569D01*
X022222Y021553D01*
X022180Y021536D01*
X017605Y016962D01*
X017512Y016923D01*
X017431Y016842D01*
X017387Y016736D01*
X017387Y016621D01*
X017431Y016515D01*
X017512Y016434D01*
X017618Y016390D01*
X017733Y016390D01*
X017839Y016434D01*
X017920Y016515D01*
X017959Y016608D01*
X022387Y021036D01*
X022458Y021036D01*
X022475Y021043D01*
X022004Y020572D01*
X022004Y020371D01*
X021939Y020307D01*
X021895Y020201D01*
X021895Y020086D01*
X021939Y019980D01*
X022020Y019899D01*
X022126Y019855D01*
X022241Y019855D01*
X022347Y019899D01*
X022428Y019980D01*
X022472Y020086D01*
X022472Y020201D01*
X022428Y020307D01*
X022364Y020371D01*
X022364Y020423D01*
X023065Y021125D01*
X023171Y021230D01*
X023171Y022318D01*
X023178Y022382D01*
X023171Y022391D01*
X023171Y022403D01*
X023125Y022448D01*
X023023Y022576D01*
X023023Y022620D02*
X023490Y022620D01*
X023507Y022719D02*
X023006Y022719D01*
X022941Y022817D02*
X023572Y022817D01*
X023579Y022423D02*
X023150Y022423D01*
X023172Y022325D02*
X023790Y022325D01*
X023882Y022226D02*
X023171Y022226D01*
X023171Y022128D02*
X023973Y022128D01*
X024065Y022029D02*
X023171Y022029D01*
X023171Y021931D02*
X024090Y021931D01*
X024090Y021832D02*
X023171Y021832D01*
X023171Y021734D02*
X024064Y021734D01*
X024010Y021635D02*
X023171Y021635D01*
X023171Y021537D02*
X024002Y021537D01*
X024030Y021438D02*
X023171Y021438D01*
X023171Y021340D02*
X024111Y021340D01*
X023365Y020931D02*
X022971Y020537D01*
X022971Y009907D01*
X022791Y011096D02*
X020192Y011096D01*
X020282Y011194D02*
X022791Y011194D01*
X022791Y011293D02*
X020322Y011293D01*
X020357Y011391D02*
X022791Y011391D01*
X022791Y011490D02*
X020357Y011490D01*
X020356Y011588D02*
X022791Y011588D01*
X022791Y011687D02*
X020316Y011687D01*
X020275Y011785D02*
X022791Y011785D01*
X022791Y011884D02*
X020176Y011884D01*
X020011Y011982D02*
X022791Y011982D01*
X022791Y012081D02*
X004454Y012081D01*
X004534Y011982D02*
X006246Y011982D01*
X006081Y011884D02*
X004575Y011884D01*
X004246Y012179D02*
X022791Y012179D01*
X022791Y012278D02*
X001768Y012278D01*
X001768Y012376D02*
X022791Y012376D01*
X022791Y012475D02*
X001768Y012475D01*
X001768Y012573D02*
X022791Y012573D01*
X022791Y012672D02*
X001768Y012672D01*
X001768Y012770D02*
X022791Y012770D01*
X022791Y012869D02*
X001768Y012869D01*
X001768Y012967D02*
X022791Y012967D01*
X022791Y013066D02*
X001768Y013066D01*
X001768Y013164D02*
X022791Y013164D01*
X022791Y013263D02*
X001768Y013263D01*
X001768Y013361D02*
X014470Y013361D01*
X014400Y013390D02*
X014597Y013309D01*
X014810Y013309D01*
X015006Y013390D01*
X015157Y013541D01*
X015220Y013693D01*
X015283Y013541D01*
X015434Y013390D01*
X015630Y013309D01*
X015843Y013309D01*
X016040Y013390D01*
X016190Y013541D01*
X016272Y013738D01*
X016272Y013950D01*
X016190Y014147D01*
X016040Y014298D01*
X015843Y014379D01*
X015630Y014379D01*
X015434Y014298D01*
X015283Y014147D01*
X015220Y013994D01*
X015157Y014147D01*
X015006Y014298D01*
X014810Y014379D01*
X014597Y014379D01*
X014400Y014298D01*
X014250Y014147D01*
X014168Y013950D01*
X014168Y013738D01*
X014250Y013541D01*
X014400Y013390D01*
X014331Y013460D02*
X001768Y013460D01*
X001768Y013558D02*
X014243Y013558D01*
X014202Y013657D02*
X001768Y013657D01*
X001768Y013755D02*
X014168Y013755D01*
X014168Y013854D02*
X001768Y013854D01*
X001768Y013952D02*
X014169Y013952D01*
X014210Y014051D02*
X001768Y014051D01*
X001768Y014149D02*
X014252Y014149D01*
X014351Y014248D02*
X011245Y014248D01*
X011237Y014245D02*
X011343Y014288D01*
X011408Y014353D01*
X012317Y014353D01*
X012423Y014458D01*
X013004Y015040D01*
X013071Y015012D01*
X013186Y015012D01*
X013292Y015056D01*
X013373Y015137D01*
X013417Y015243D01*
X013417Y015358D01*
X013373Y015464D01*
X013292Y015545D01*
X013186Y015589D01*
X013071Y015589D01*
X012965Y015545D01*
X012884Y015464D01*
X012859Y015404D01*
X012168Y014713D01*
X011408Y014713D01*
X011343Y014777D01*
X011237Y014821D01*
X011122Y014821D01*
X011016Y014777D01*
X010935Y014696D01*
X010891Y014590D01*
X010891Y014476D01*
X010935Y014370D01*
X011016Y014288D01*
X011122Y014245D01*
X011237Y014245D01*
X011114Y014248D02*
X001768Y014248D01*
X001768Y014346D02*
X010958Y014346D01*
X010904Y014445D02*
X001768Y014445D01*
X001768Y014543D02*
X010891Y014543D01*
X010913Y014642D02*
X001768Y014642D01*
X001768Y014740D02*
X010979Y014740D01*
X011180Y014533D02*
X012243Y014533D01*
X012974Y015264D01*
X013062Y015301D02*
X013129Y015301D01*
X013062Y015301D02*
X013042Y015299D01*
X013023Y015295D01*
X013005Y015287D01*
X012989Y015277D01*
X012974Y015264D01*
X012870Y015430D02*
X011997Y015430D01*
X012095Y015528D02*
X012948Y015528D01*
X013012Y015760D02*
X013127Y015760D01*
X013233Y015804D01*
X013314Y015885D01*
X013358Y015991D01*
X013358Y016106D01*
X013314Y016212D01*
X013233Y016293D01*
X013127Y016337D01*
X013012Y016337D01*
X012906Y016293D01*
X012842Y016229D01*
X012338Y016229D01*
X012328Y016219D01*
X012264Y016192D01*
X012250Y016192D01*
X011568Y015510D01*
X011477Y015510D01*
X011371Y015466D01*
X011290Y015385D01*
X011246Y015279D01*
X011246Y015165D01*
X011290Y015059D01*
X011371Y014977D01*
X011477Y014933D01*
X011591Y014933D01*
X011697Y014977D01*
X011779Y015059D01*
X011823Y015165D01*
X011823Y015256D01*
X012435Y015869D01*
X012842Y015869D01*
X012906Y015804D01*
X013012Y015760D01*
X012886Y015824D02*
X012391Y015824D01*
X012325Y016012D02*
X012340Y016025D01*
X012356Y016035D01*
X012374Y016043D01*
X012393Y016047D01*
X012413Y016049D01*
X013070Y016049D01*
X013177Y016316D02*
X022791Y016316D01*
X022791Y016218D02*
X013308Y016218D01*
X013352Y016119D02*
X022791Y016119D01*
X022791Y016021D02*
X013358Y016021D01*
X013329Y015922D02*
X022791Y015922D01*
X022791Y015824D02*
X013253Y015824D01*
X013309Y015528D02*
X022791Y015528D01*
X022791Y015430D02*
X013387Y015430D01*
X013417Y015331D02*
X022791Y015331D01*
X022791Y015233D02*
X013413Y015233D01*
X013370Y015134D02*
X022791Y015134D01*
X022791Y015036D02*
X013243Y015036D01*
X013014Y015036D02*
X013000Y015036D01*
X012902Y014937D02*
X022791Y014937D01*
X022791Y014839D02*
X012803Y014839D01*
X012705Y014740D02*
X022791Y014740D01*
X022791Y014642D02*
X012606Y014642D01*
X012508Y014543D02*
X022791Y014543D01*
X022791Y014445D02*
X012409Y014445D01*
X012196Y014740D02*
X011380Y014740D01*
X011467Y014937D02*
X001768Y014937D01*
X001768Y014839D02*
X012294Y014839D01*
X012393Y014937D02*
X011601Y014937D01*
X011756Y015036D02*
X012491Y015036D01*
X012590Y015134D02*
X011810Y015134D01*
X011823Y015233D02*
X012688Y015233D01*
X012787Y015331D02*
X011898Y015331D01*
X011685Y015627D02*
X005127Y015627D01*
X005127Y015646D02*
X005728Y015646D01*
X005718Y015723D01*
X005696Y015806D01*
X005663Y015885D01*
X005621Y015959D01*
X005569Y016027D01*
X005508Y016087D01*
X005440Y016139D01*
X005366Y016182D01*
X005287Y016215D01*
X005205Y016237D01*
X005127Y016247D01*
X005127Y015646D01*
X005027Y015646D01*
X005027Y015546D01*
X004426Y015546D01*
X004437Y015469D01*
X004459Y015386D01*
X004491Y015307D01*
X004534Y015233D01*
X004586Y015165D01*
X004647Y015105D01*
X004714Y015053D01*
X004788Y015010D01*
X004867Y014977D01*
X004950Y014955D01*
X005027Y014945D01*
X005027Y015546D01*
X005127Y015546D01*
X005127Y014945D01*
X005205Y014955D01*
X005287Y014977D01*
X005366Y015010D01*
X005440Y015053D01*
X005508Y015105D01*
X005569Y015165D01*
X005621Y015233D01*
X005663Y015307D01*
X005696Y015386D01*
X005718Y015469D01*
X005728Y015546D01*
X005127Y015546D01*
X005127Y015646D01*
X005127Y015725D02*
X005027Y015725D01*
X005027Y015646D02*
X005027Y016247D01*
X004950Y016237D01*
X004867Y016215D01*
X004788Y016182D01*
X004714Y016139D01*
X004647Y016087D01*
X004586Y016027D01*
X004534Y015959D01*
X004491Y015885D01*
X004459Y015806D01*
X004437Y015723D01*
X004426Y015646D01*
X005027Y015646D01*
X005027Y015627D02*
X003120Y015627D01*
X003120Y015646D02*
X003721Y015646D01*
X003710Y015723D01*
X003688Y015806D01*
X003656Y015885D01*
X003613Y015959D01*
X003561Y016027D01*
X003500Y016087D01*
X003433Y016139D01*
X003359Y016182D01*
X003280Y016215D01*
X003197Y016237D01*
X003120Y016247D01*
X003120Y015646D01*
X003120Y015546D01*
X003721Y015546D01*
X003710Y015469D01*
X003688Y015386D01*
X003656Y015307D01*
X003613Y015233D01*
X003561Y015165D01*
X003500Y015105D01*
X003433Y015053D01*
X003359Y015010D01*
X003280Y014977D01*
X003197Y014955D01*
X003120Y014945D01*
X003120Y015546D01*
X003020Y015546D01*
X003020Y014945D01*
X002942Y014955D01*
X002860Y014977D01*
X002781Y015010D01*
X002707Y015053D01*
X002639Y015105D01*
X002578Y015165D01*
X002526Y015233D01*
X002484Y015307D01*
X002451Y015386D01*
X002429Y015469D01*
X002419Y015546D01*
X003020Y015546D01*
X003020Y015646D01*
X003020Y016247D01*
X002942Y016237D01*
X002860Y016215D01*
X002781Y016182D01*
X002707Y016139D01*
X002639Y016087D01*
X002578Y016027D01*
X002526Y015959D01*
X002484Y015885D01*
X002451Y015806D01*
X002429Y015723D01*
X002419Y015646D01*
X003020Y015646D01*
X003120Y015646D01*
X003120Y015725D02*
X003020Y015725D01*
X003020Y015627D02*
X001768Y015627D01*
X001768Y015725D02*
X002429Y015725D01*
X002458Y015824D02*
X001768Y015824D01*
X001768Y015922D02*
X002505Y015922D01*
X002574Y016021D02*
X001768Y016021D01*
X001768Y016119D02*
X002681Y016119D01*
X002872Y016218D02*
X001768Y016218D01*
X001768Y016316D02*
X003592Y016316D01*
X003605Y016287D02*
X003760Y016131D01*
X003964Y016047D01*
X004183Y016047D01*
X004387Y016131D01*
X004542Y016287D01*
X004626Y016490D01*
X004626Y016710D01*
X017387Y016710D01*
X017391Y016612D02*
X004626Y016612D01*
X004626Y016710D02*
X004542Y016913D01*
X004387Y017069D01*
X004183Y017153D01*
X003964Y017153D01*
X003760Y017069D01*
X003605Y016913D01*
X003521Y016710D01*
X001768Y016710D01*
X001768Y016612D02*
X003521Y016612D01*
X003521Y016710D02*
X003521Y016490D01*
X003605Y016287D01*
X003674Y016218D02*
X003268Y016218D01*
X003120Y016218D02*
X003020Y016218D01*
X003020Y016119D02*
X003120Y016119D01*
X003120Y016021D02*
X003020Y016021D01*
X003020Y015922D02*
X003120Y015922D01*
X003120Y015824D02*
X003020Y015824D01*
X003020Y015528D02*
X003120Y015528D01*
X003120Y015430D02*
X003020Y015430D01*
X003020Y015331D02*
X003120Y015331D01*
X003120Y015233D02*
X003020Y015233D01*
X003020Y015134D02*
X003120Y015134D01*
X003120Y015036D02*
X003020Y015036D01*
X002736Y015036D02*
X001768Y015036D01*
X001768Y015134D02*
X002609Y015134D01*
X002526Y015233D02*
X001768Y015233D01*
X001768Y015331D02*
X002474Y015331D01*
X002439Y015430D02*
X001768Y015430D01*
X001768Y015528D02*
X002421Y015528D01*
X003403Y015036D02*
X004744Y015036D01*
X004617Y015134D02*
X003530Y015134D01*
X003613Y015233D02*
X004534Y015233D01*
X004481Y015331D02*
X003666Y015331D01*
X003700Y015430D02*
X004447Y015430D01*
X004429Y015528D02*
X003718Y015528D01*
X003710Y015725D02*
X004437Y015725D01*
X004466Y015824D02*
X003681Y015824D01*
X003634Y015922D02*
X004513Y015922D01*
X004582Y016021D02*
X003565Y016021D01*
X003458Y016119D02*
X003789Y016119D01*
X003552Y016415D02*
X001768Y016415D01*
X001768Y016513D02*
X003521Y016513D01*
X003562Y016809D02*
X001768Y016809D01*
X001768Y016907D02*
X003602Y016907D01*
X003698Y017006D02*
X003330Y017006D01*
X003359Y017018D02*
X003433Y017061D01*
X003500Y017113D01*
X003561Y017173D01*
X003613Y017241D01*
X003656Y017315D01*
X003688Y017394D01*
X003710Y017476D01*
X003721Y017554D01*
X003120Y017554D01*
X003120Y017654D01*
X003721Y017654D01*
X003710Y017731D01*
X003688Y017814D01*
X003656Y017893D01*
X003613Y017967D01*
X003561Y018035D01*
X003500Y018095D01*
X003433Y018147D01*
X003359Y018190D01*
X003280Y018222D01*
X003197Y018245D01*
X003120Y018255D01*
X003120Y017654D01*
X003020Y017654D01*
X003020Y018255D01*
X002942Y018245D01*
X002860Y018222D01*
X002781Y018190D01*
X002707Y018147D01*
X002639Y018095D01*
X002578Y018035D01*
X002526Y017967D01*
X002484Y017893D01*
X002451Y017814D01*
X002429Y017731D01*
X002419Y017654D01*
X003020Y017654D01*
X003020Y017554D01*
X003120Y017554D01*
X003120Y016953D01*
X003197Y016963D01*
X003280Y016985D01*
X003359Y017018D01*
X003490Y017104D02*
X003847Y017104D01*
X003648Y017301D02*
X004499Y017301D01*
X004491Y017315D02*
X004534Y017241D01*
X004586Y017173D01*
X004647Y017113D01*
X004714Y017061D01*
X004788Y017018D01*
X004867Y016985D01*
X004950Y016963D01*
X005027Y016953D01*
X005027Y017554D01*
X004426Y017554D01*
X004437Y017476D01*
X004459Y017394D01*
X004491Y017315D01*
X004457Y017400D02*
X003690Y017400D01*
X003713Y017498D02*
X004434Y017498D01*
X004426Y017654D02*
X005027Y017654D01*
X005027Y017554D01*
X005127Y017554D01*
X005127Y016953D01*
X005205Y016963D01*
X005287Y016985D01*
X005366Y017018D01*
X005440Y017061D01*
X005508Y017113D01*
X005569Y017173D01*
X005621Y017241D01*
X005663Y017315D01*
X005696Y017394D01*
X005718Y017476D01*
X005728Y017554D01*
X005127Y017554D01*
X005127Y017654D01*
X005027Y017654D01*
X005027Y018255D01*
X004950Y018245D01*
X004867Y018222D01*
X004788Y018190D01*
X004714Y018147D01*
X004647Y018095D01*
X004586Y018035D01*
X004534Y017967D01*
X004491Y017893D01*
X004459Y017814D01*
X004437Y017731D01*
X004426Y017654D01*
X004432Y017695D02*
X003715Y017695D01*
X003694Y017794D02*
X004453Y017794D01*
X004491Y017892D02*
X003656Y017892D01*
X003594Y017991D02*
X004553Y017991D01*
X004641Y018089D02*
X003506Y018089D01*
X003362Y018188D02*
X004785Y018188D01*
X005027Y018188D02*
X005127Y018188D01*
X005127Y018255D02*
X005205Y018245D01*
X005287Y018222D01*
X005366Y018190D01*
X005440Y018147D01*
X005508Y018095D01*
X005569Y018035D01*
X005621Y017967D01*
X005663Y017893D01*
X005696Y017814D01*
X005718Y017731D01*
X005728Y017654D01*
X005127Y017654D01*
X005127Y018255D01*
X005127Y018089D02*
X005027Y018089D01*
X005027Y017991D02*
X005127Y017991D01*
X005127Y017892D02*
X005027Y017892D01*
X005027Y017794D02*
X005127Y017794D01*
X005127Y017695D02*
X005027Y017695D01*
X005027Y017597D02*
X003120Y017597D01*
X003120Y017695D02*
X003020Y017695D01*
X003020Y017597D02*
X001768Y017597D01*
X001768Y017695D02*
X002424Y017695D01*
X002446Y017794D02*
X001768Y017794D01*
X001768Y017892D02*
X002483Y017892D01*
X002545Y017991D02*
X001768Y017991D01*
X001768Y018089D02*
X002633Y018089D01*
X002777Y018188D02*
X001768Y018188D01*
X001768Y018286D02*
X011264Y018286D01*
X011264Y018188D02*
X005370Y018188D01*
X005514Y018089D02*
X011264Y018089D01*
X011264Y018010D02*
X011226Y017917D01*
X011226Y017802D01*
X011270Y017696D01*
X011351Y017615D01*
X011457Y017571D01*
X011572Y017571D01*
X011678Y017615D01*
X011759Y017696D01*
X011803Y017802D01*
X011803Y017917D01*
X011764Y018010D01*
X011764Y021465D01*
X011832Y021532D01*
X011882Y021653D01*
X011882Y021783D01*
X011832Y021904D01*
X011739Y021996D01*
X011619Y022046D01*
X011489Y022046D01*
X011368Y021996D01*
X011276Y021904D01*
X011226Y021783D01*
X011226Y021653D01*
X011264Y021560D01*
X011264Y018010D01*
X011257Y017991D02*
X005602Y017991D01*
X005664Y017892D02*
X011226Y017892D01*
X011230Y017794D02*
X005701Y017794D01*
X005723Y017695D02*
X011271Y017695D01*
X011395Y017597D02*
X005127Y017597D01*
X005127Y017498D02*
X005027Y017498D01*
X005027Y017400D02*
X005127Y017400D01*
X005127Y017301D02*
X005027Y017301D01*
X005027Y017203D02*
X005127Y017203D01*
X005127Y017104D02*
X005027Y017104D01*
X005027Y017006D02*
X005127Y017006D01*
X005338Y017006D02*
X017650Y017006D01*
X017748Y017104D02*
X005498Y017104D01*
X005592Y017203D02*
X017847Y017203D01*
X017945Y017301D02*
X005656Y017301D01*
X005698Y017400D02*
X018044Y017400D01*
X018142Y017498D02*
X013200Y017498D01*
X013186Y017493D02*
X013292Y017536D01*
X013373Y017618D01*
X013417Y017724D01*
X013417Y017815D01*
X013666Y018064D01*
X013666Y018077D01*
X013692Y018142D01*
X013702Y018152D01*
X013702Y019522D01*
X013767Y019586D01*
X013811Y019692D01*
X013811Y019807D01*
X013767Y019913D01*
X013686Y019994D01*
X013580Y020038D01*
X013465Y020038D01*
X013359Y019994D01*
X013278Y019913D01*
X013234Y019807D01*
X013234Y019692D01*
X013278Y019586D01*
X013342Y019522D01*
X013342Y018249D01*
X013162Y018069D01*
X013071Y018069D01*
X012965Y018025D01*
X012884Y017944D01*
X012840Y017838D01*
X012840Y017724D01*
X012884Y017618D01*
X012965Y017536D01*
X013071Y017493D01*
X013186Y017493D01*
X013057Y017498D02*
X005721Y017498D01*
X004817Y017006D02*
X004449Y017006D01*
X004545Y016907D02*
X017497Y016907D01*
X017418Y016809D02*
X004585Y016809D01*
X004626Y016513D02*
X017433Y016513D01*
X017559Y016415D02*
X004595Y016415D01*
X004555Y016316D02*
X012962Y016316D01*
X012326Y016218D02*
X005275Y016218D01*
X005127Y016218D02*
X005027Y016218D01*
X005027Y016119D02*
X005127Y016119D01*
X005127Y016021D02*
X005027Y016021D01*
X005027Y015922D02*
X005127Y015922D01*
X005127Y015824D02*
X005027Y015824D01*
X005027Y015528D02*
X005127Y015528D01*
X005127Y015430D02*
X005027Y015430D01*
X005027Y015331D02*
X005127Y015331D01*
X005127Y015233D02*
X005027Y015233D01*
X005027Y015134D02*
X005127Y015134D01*
X005127Y015036D02*
X005027Y015036D01*
X005411Y015036D02*
X011312Y015036D01*
X011258Y015134D02*
X005538Y015134D01*
X005621Y015233D02*
X011246Y015233D01*
X011267Y015331D02*
X005673Y015331D01*
X005708Y015430D02*
X011334Y015430D01*
X011586Y015528D02*
X005726Y015528D01*
X005718Y015725D02*
X011783Y015725D01*
X011882Y015824D02*
X005689Y015824D01*
X005642Y015922D02*
X011980Y015922D01*
X012079Y016021D02*
X005573Y016021D01*
X005466Y016119D02*
X012177Y016119D01*
X012324Y016012D02*
X011534Y015222D01*
X012194Y015627D02*
X022791Y015627D01*
X022791Y015725D02*
X012292Y015725D01*
X011401Y014346D02*
X014518Y014346D01*
X014889Y014346D02*
X015552Y014346D01*
X015384Y014248D02*
X015056Y014248D01*
X015155Y014149D02*
X015286Y014149D01*
X015244Y014051D02*
X015197Y014051D01*
X015205Y013657D02*
X015235Y013657D01*
X015276Y013558D02*
X015164Y013558D01*
X015076Y013460D02*
X015364Y013460D01*
X015504Y013361D02*
X014936Y013361D01*
X015970Y013361D02*
X022791Y013361D01*
X022791Y013460D02*
X016109Y013460D01*
X016198Y013558D02*
X022791Y013558D01*
X022791Y013657D02*
X016238Y013657D01*
X016272Y013755D02*
X022791Y013755D01*
X022791Y013854D02*
X016272Y013854D01*
X016271Y013952D02*
X022791Y013952D01*
X022791Y014051D02*
X016230Y014051D01*
X016188Y014149D02*
X022791Y014149D01*
X022791Y014248D02*
X016090Y014248D01*
X015922Y014346D02*
X022791Y014346D01*
X023151Y013164D02*
X023185Y013164D01*
X023185Y013066D02*
X023151Y013066D01*
X023151Y012967D02*
X023185Y012967D01*
X023185Y012869D02*
X023151Y012869D01*
X023151Y012770D02*
X023185Y012770D01*
X023185Y012672D02*
X023151Y012672D01*
X023151Y012573D02*
X023185Y012573D01*
X023185Y012475D02*
X023151Y012475D01*
X023151Y012376D02*
X023185Y012376D01*
X023185Y012278D02*
X023151Y012278D01*
X023151Y012179D02*
X023185Y012179D01*
X023185Y012081D02*
X023151Y012081D01*
X023151Y011982D02*
X023185Y011982D01*
X023185Y011884D02*
X023151Y011884D01*
X023151Y011785D02*
X023185Y011785D01*
X023185Y011687D02*
X023151Y011687D01*
X023151Y011588D02*
X023185Y011588D01*
X023185Y011490D02*
X023151Y011490D01*
X023151Y011391D02*
X023185Y011391D01*
X020744Y009772D02*
X020729Y009785D01*
X020713Y009795D01*
X020695Y009803D01*
X020676Y009807D01*
X020656Y009809D01*
X020089Y003905D02*
X001768Y003905D01*
X001768Y004989D02*
X003271Y004989D01*
X003311Y005087D02*
X001768Y005087D01*
X001768Y005186D02*
X003389Y005186D01*
X003570Y005284D02*
X001768Y005284D01*
X003895Y005284D02*
X003953Y005284D01*
X003953Y005186D02*
X003895Y005186D01*
X003895Y005087D02*
X003953Y005087D01*
X003953Y004989D02*
X003895Y004989D01*
X003895Y004792D02*
X003953Y004792D01*
X003953Y004693D02*
X003895Y004693D01*
X003895Y004595D02*
X003953Y004595D01*
X003953Y004496D02*
X003895Y004496D01*
X006386Y002920D02*
X006486Y002920D01*
X006486Y002822D02*
X006386Y002822D01*
X006386Y002723D02*
X006486Y002723D01*
X006486Y002625D02*
X006386Y002625D01*
X006386Y002329D02*
X006486Y002329D01*
X006486Y002231D02*
X006386Y002231D01*
X006386Y002132D02*
X006486Y002132D01*
X006486Y002034D02*
X006386Y002034D01*
X006386Y001935D02*
X006486Y001935D01*
X003436Y008535D02*
X001768Y008535D01*
X001768Y008633D02*
X003348Y008633D01*
X003307Y008732D02*
X001768Y008732D01*
X001768Y008830D02*
X003299Y008830D01*
X003312Y008929D02*
X001768Y008929D01*
X001768Y009027D02*
X003353Y009027D01*
X003435Y010505D02*
X001768Y010505D01*
X001768Y010603D02*
X003347Y010603D01*
X003306Y010702D02*
X001768Y010702D01*
X001768Y010800D02*
X003299Y010800D01*
X003313Y010899D02*
X001768Y010899D01*
X001768Y010997D02*
X003353Y010997D01*
X003273Y011884D02*
X001768Y011884D01*
X001768Y011982D02*
X003314Y011982D01*
X003394Y012081D02*
X001768Y012081D01*
X001768Y012179D02*
X003602Y012179D01*
X003895Y012179D02*
X003953Y012179D01*
X003953Y012081D02*
X003895Y012081D01*
X003895Y011982D02*
X003953Y011982D01*
X003953Y011884D02*
X003895Y011884D01*
X004358Y016119D02*
X004689Y016119D01*
X004879Y016218D02*
X004473Y016218D01*
X004300Y017104D02*
X004657Y017104D01*
X004563Y017203D02*
X003584Y017203D01*
X003120Y017203D02*
X003020Y017203D01*
X003020Y017301D02*
X003120Y017301D01*
X003120Y017400D02*
X003020Y017400D01*
X003020Y017498D02*
X003120Y017498D01*
X003020Y017554D02*
X003020Y016953D01*
X002942Y016963D01*
X002860Y016985D01*
X002781Y017018D01*
X002707Y017061D01*
X002639Y017113D01*
X002578Y017173D01*
X002526Y017241D01*
X002484Y017315D01*
X002451Y017394D01*
X002429Y017476D01*
X002419Y017554D01*
X003020Y017554D01*
X003020Y017794D02*
X003120Y017794D01*
X003120Y017892D02*
X003020Y017892D01*
X003020Y017991D02*
X003120Y017991D01*
X003120Y018089D02*
X003020Y018089D01*
X003020Y018188D02*
X003120Y018188D01*
X002426Y017498D02*
X001768Y017498D01*
X001768Y017400D02*
X002449Y017400D01*
X002491Y017301D02*
X001768Y017301D01*
X001768Y017203D02*
X002555Y017203D01*
X002649Y017104D02*
X001768Y017104D01*
X001768Y017006D02*
X002809Y017006D01*
X003020Y017006D02*
X003120Y017006D01*
X003120Y017104D02*
X003020Y017104D01*
X001768Y018385D02*
X011264Y018385D01*
X011264Y018483D02*
X001768Y018483D01*
X001768Y018582D02*
X011264Y018582D01*
X011264Y018680D02*
X001768Y018680D01*
X001768Y018779D02*
X011264Y018779D01*
X011264Y018877D02*
X001768Y018877D01*
X001768Y018976D02*
X011264Y018976D01*
X011264Y019074D02*
X001768Y019074D01*
X001768Y019173D02*
X011264Y019173D01*
X011264Y019271D02*
X001768Y019271D01*
X001768Y019370D02*
X011264Y019370D01*
X011264Y019468D02*
X001768Y019468D01*
X001768Y019567D02*
X011264Y019567D01*
X011264Y019665D02*
X001768Y019665D01*
X001768Y019764D02*
X011264Y019764D01*
X011264Y019862D02*
X001768Y019862D01*
X001768Y019961D02*
X011264Y019961D01*
X011264Y020059D02*
X001768Y020059D01*
X001768Y020158D02*
X011264Y020158D01*
X011264Y020256D02*
X001768Y020256D01*
X001768Y020355D02*
X011264Y020355D01*
X011264Y020453D02*
X001768Y020453D01*
X001768Y020552D02*
X011264Y020552D01*
X011264Y020650D02*
X001768Y020650D01*
X001768Y020749D02*
X011264Y020749D01*
X011264Y020847D02*
X001768Y020847D01*
X001768Y020946D02*
X011264Y020946D01*
X011264Y021044D02*
X001768Y021044D01*
X001768Y021143D02*
X011264Y021143D01*
X011264Y021241D02*
X001768Y021241D01*
X004178Y021340D02*
X011264Y021340D01*
X011264Y021438D02*
X004349Y021438D01*
X004422Y021537D02*
X011264Y021537D01*
X011233Y021635D02*
X004457Y021635D01*
X004467Y021734D02*
X011226Y021734D01*
X011246Y021832D02*
X004467Y021832D01*
X004467Y021931D02*
X011303Y021931D01*
X011449Y022029D02*
X004467Y022029D01*
X004467Y022128D02*
X022811Y022128D01*
X022811Y022226D02*
X004467Y022226D01*
X004467Y022325D02*
X022763Y022325D01*
X022575Y022423D02*
X004467Y022423D01*
X004467Y022522D02*
X022506Y022522D01*
X022486Y022620D02*
X004467Y022620D01*
X004467Y022719D02*
X022503Y022719D01*
X022568Y022817D02*
X004467Y022817D01*
X011659Y022029D02*
X022811Y022029D01*
X022811Y021931D02*
X011804Y021931D01*
X011861Y021832D02*
X022811Y021832D01*
X022811Y021734D02*
X014820Y021734D01*
X014849Y021704D02*
X014768Y021785D01*
X014662Y021829D01*
X014548Y021829D01*
X014442Y021785D01*
X014360Y021704D01*
X014317Y021598D01*
X014317Y021483D01*
X014355Y021391D01*
X014355Y019218D01*
X014282Y019145D01*
X014238Y019039D01*
X014238Y018924D01*
X014282Y018818D01*
X014363Y018737D01*
X014469Y018693D01*
X014584Y018693D01*
X014690Y018737D01*
X014771Y018818D01*
X014815Y018924D01*
X014815Y018968D01*
X014817Y018971D01*
X014855Y019063D01*
X014855Y021391D01*
X014893Y021483D01*
X014893Y021598D01*
X014849Y021704D01*
X014878Y021635D02*
X022811Y021635D01*
X022811Y021537D02*
X022596Y021537D01*
X022665Y021438D02*
X022811Y021438D01*
X022772Y021340D02*
X022689Y021340D01*
X022400Y021324D02*
X022322Y021324D01*
X022182Y021537D02*
X014893Y021537D01*
X014875Y021438D02*
X022082Y021438D01*
X021984Y021340D02*
X014855Y021340D01*
X014855Y021241D02*
X021885Y021241D01*
X021787Y021143D02*
X014855Y021143D01*
X014855Y021044D02*
X021688Y021044D01*
X021590Y020946D02*
X014855Y020946D01*
X014855Y020847D02*
X021491Y020847D01*
X021393Y020749D02*
X014855Y020749D01*
X014855Y020650D02*
X021294Y020650D01*
X021196Y020552D02*
X014855Y020552D01*
X014855Y020453D02*
X021097Y020453D01*
X020999Y020355D02*
X014855Y020355D01*
X014855Y020256D02*
X020900Y020256D01*
X020802Y020158D02*
X014855Y020158D01*
X014855Y020059D02*
X020703Y020059D01*
X020605Y019961D02*
X014855Y019961D01*
X014855Y019862D02*
X020506Y019862D01*
X020408Y019764D02*
X014855Y019764D01*
X014855Y019665D02*
X020309Y019665D01*
X020211Y019567D02*
X014855Y019567D01*
X014855Y019468D02*
X020112Y019468D01*
X020014Y019370D02*
X014855Y019370D01*
X014855Y019271D02*
X019915Y019271D01*
X019817Y019173D02*
X014855Y019173D01*
X014855Y019074D02*
X019718Y019074D01*
X019620Y018976D02*
X014819Y018976D01*
X014795Y018877D02*
X019521Y018877D01*
X019423Y018779D02*
X014731Y018779D01*
X014526Y018982D02*
X014568Y019024D01*
X014581Y019039D01*
X014591Y019055D01*
X014599Y019073D01*
X014603Y019092D01*
X014605Y019112D01*
X014355Y019271D02*
X013702Y019271D01*
X013702Y019173D02*
X014309Y019173D01*
X014252Y019074D02*
X013702Y019074D01*
X013702Y018976D02*
X014238Y018976D01*
X014257Y018877D02*
X013702Y018877D01*
X013702Y018779D02*
X014321Y018779D01*
X014355Y019370D02*
X013702Y019370D01*
X013702Y019468D02*
X014355Y019468D01*
X014355Y019567D02*
X013748Y019567D01*
X013800Y019665D02*
X014355Y019665D01*
X014355Y019764D02*
X013811Y019764D01*
X013788Y019862D02*
X014355Y019862D01*
X014355Y019961D02*
X013719Y019961D01*
X013522Y019749D02*
X013522Y018226D01*
X013486Y018138D02*
X013129Y017781D01*
X013417Y017794D02*
X018438Y017794D01*
X018536Y017892D02*
X013495Y017892D01*
X013593Y017991D02*
X018635Y017991D01*
X018733Y018089D02*
X013671Y018089D01*
X013702Y018188D02*
X018832Y018188D01*
X018930Y018286D02*
X013702Y018286D01*
X013702Y018385D02*
X019029Y018385D01*
X019127Y018483D02*
X013702Y018483D01*
X013702Y018582D02*
X019226Y018582D01*
X019324Y018680D02*
X013702Y018680D01*
X013342Y018680D02*
X011764Y018680D01*
X011764Y018582D02*
X013342Y018582D01*
X013342Y018483D02*
X011764Y018483D01*
X011764Y018385D02*
X013342Y018385D01*
X013342Y018286D02*
X011764Y018286D01*
X011764Y018188D02*
X013281Y018188D01*
X013485Y018138D02*
X013498Y018153D01*
X013508Y018169D01*
X013516Y018187D01*
X013520Y018206D01*
X013522Y018226D01*
X013182Y018089D02*
X011764Y018089D01*
X011772Y017991D02*
X012931Y017991D01*
X012863Y017892D02*
X011803Y017892D01*
X011799Y017794D02*
X012840Y017794D01*
X012852Y017695D02*
X011758Y017695D01*
X011634Y017597D02*
X012905Y017597D01*
X013352Y017597D02*
X018241Y017597D01*
X018339Y017695D02*
X013405Y017695D01*
X013342Y018779D02*
X011764Y018779D01*
X011764Y018877D02*
X013342Y018877D01*
X013342Y018976D02*
X011764Y018976D01*
X011764Y019074D02*
X013342Y019074D01*
X013342Y019173D02*
X011764Y019173D01*
X011764Y019271D02*
X013342Y019271D01*
X013342Y019370D02*
X011764Y019370D01*
X011764Y019468D02*
X013342Y019468D01*
X013297Y019567D02*
X011764Y019567D01*
X011764Y019665D02*
X013245Y019665D01*
X013234Y019764D02*
X011764Y019764D01*
X011764Y019862D02*
X013257Y019862D01*
X013326Y019961D02*
X011764Y019961D01*
X011764Y020059D02*
X014355Y020059D01*
X014355Y020158D02*
X011764Y020158D01*
X011764Y020256D02*
X014355Y020256D01*
X014355Y020355D02*
X011764Y020355D01*
X011764Y020453D02*
X014355Y020453D01*
X014355Y020552D02*
X011764Y020552D01*
X011764Y020650D02*
X014355Y020650D01*
X014355Y020749D02*
X011764Y020749D01*
X011764Y020847D02*
X014355Y020847D01*
X014355Y020946D02*
X011764Y020946D01*
X011764Y021044D02*
X014355Y021044D01*
X014355Y021143D02*
X011764Y021143D01*
X011764Y021241D02*
X014355Y021241D01*
X014355Y021340D02*
X011764Y021340D01*
X011764Y021438D02*
X014335Y021438D01*
X014317Y021537D02*
X011834Y021537D01*
X011874Y021635D02*
X014332Y021635D01*
X014390Y021734D02*
X011882Y021734D01*
X018357Y017006D02*
X021895Y017006D01*
X021895Y017027D02*
X021895Y016936D01*
X021939Y016830D01*
X022020Y016749D01*
X022126Y016705D01*
X022241Y016705D01*
X022347Y016749D01*
X022428Y016830D01*
X022472Y016936D01*
X022472Y017051D01*
X022428Y017157D01*
X022347Y017238D01*
X022241Y017282D01*
X022150Y017282D01*
X021685Y017747D01*
X021685Y017838D01*
X021641Y017944D01*
X021560Y018025D01*
X021454Y018069D01*
X021339Y018069D01*
X021233Y018025D01*
X021152Y017944D01*
X021108Y017838D01*
X021108Y017724D01*
X021152Y017618D01*
X021233Y017536D01*
X021339Y017493D01*
X021430Y017493D01*
X021895Y017027D01*
X021818Y017104D02*
X018455Y017104D01*
X018554Y017203D02*
X021720Y017203D01*
X021621Y017301D02*
X018652Y017301D01*
X018751Y017400D02*
X021523Y017400D01*
X021325Y017498D02*
X018849Y017498D01*
X018948Y017597D02*
X021173Y017597D01*
X021120Y017695D02*
X019046Y017695D01*
X019145Y017794D02*
X021108Y017794D01*
X021130Y017892D02*
X019243Y017892D01*
X019342Y017991D02*
X021198Y017991D01*
X021396Y017781D02*
X022184Y016994D01*
X022450Y017104D02*
X022791Y017104D01*
X022791Y017006D02*
X022472Y017006D01*
X022460Y016907D02*
X022791Y016907D01*
X022791Y016809D02*
X022407Y016809D01*
X022254Y016710D02*
X022791Y016710D01*
X022791Y016612D02*
X017963Y016612D01*
X017919Y016513D02*
X022791Y016513D01*
X022791Y016415D02*
X017793Y016415D01*
X018061Y016710D02*
X022114Y016710D01*
X021961Y016809D02*
X018160Y016809D01*
X018258Y016907D02*
X021907Y016907D01*
X022382Y017203D02*
X022791Y017203D01*
X022791Y017301D02*
X022130Y017301D01*
X022032Y017400D02*
X022791Y017400D01*
X022791Y017498D02*
X021933Y017498D01*
X021835Y017597D02*
X022791Y017597D01*
X022791Y017695D02*
X021736Y017695D01*
X021685Y017794D02*
X022791Y017794D01*
X022791Y017892D02*
X021662Y017892D01*
X021594Y017991D02*
X022791Y017991D01*
X022791Y018089D02*
X019440Y018089D01*
X019539Y018188D02*
X022791Y018188D01*
X022791Y018286D02*
X019637Y018286D01*
X019736Y018385D02*
X022791Y018385D01*
X022791Y018483D02*
X019834Y018483D01*
X019933Y018582D02*
X022791Y018582D01*
X022791Y018680D02*
X020031Y018680D01*
X020130Y018779D02*
X022791Y018779D01*
X022791Y018877D02*
X020228Y018877D01*
X020327Y018976D02*
X022791Y018976D01*
X022791Y019074D02*
X020425Y019074D01*
X020524Y019173D02*
X022791Y019173D01*
X022791Y019271D02*
X020622Y019271D01*
X020721Y019370D02*
X022791Y019370D01*
X022791Y019468D02*
X020819Y019468D01*
X020918Y019567D02*
X022791Y019567D01*
X022791Y019665D02*
X021016Y019665D01*
X021115Y019764D02*
X022791Y019764D01*
X022791Y019862D02*
X022260Y019862D01*
X022108Y019862D02*
X021213Y019862D01*
X021312Y019961D02*
X021958Y019961D01*
X021906Y020059D02*
X021410Y020059D01*
X021509Y020158D02*
X021895Y020158D01*
X021918Y020256D02*
X021607Y020256D01*
X021706Y020355D02*
X021988Y020355D01*
X022004Y020453D02*
X021804Y020453D01*
X021903Y020552D02*
X022004Y020552D01*
X022001Y020650D02*
X022082Y020650D01*
X022100Y020749D02*
X022181Y020749D01*
X022198Y020847D02*
X022279Y020847D01*
X022297Y020946D02*
X022378Y020946D01*
X022690Y020749D02*
X022929Y020749D01*
X023027Y020847D02*
X022788Y020847D01*
X022887Y020946D02*
X023057Y020946D01*
X023078Y021044D02*
X022985Y021044D01*
X023084Y021143D02*
X023141Y021143D01*
X023171Y021241D02*
X032364Y021241D01*
X027474Y020256D02*
X025513Y020256D01*
X025513Y020158D02*
X027416Y020158D01*
X027416Y020059D02*
X025513Y020059D01*
X025513Y019961D02*
X027416Y019961D01*
X027445Y019862D02*
X025513Y019862D01*
X025513Y019764D02*
X027544Y019764D01*
X022791Y019961D02*
X022409Y019961D01*
X022461Y020059D02*
X022791Y020059D01*
X022791Y020158D02*
X022472Y020158D01*
X022449Y020256D02*
X022791Y020256D01*
X022791Y020355D02*
X022380Y020355D01*
X022394Y020453D02*
X022791Y020453D01*
X022791Y020552D02*
X022493Y020552D01*
X022591Y020650D02*
X022830Y020650D01*
X022184Y020498D02*
X022184Y020143D01*
X022184Y020498D02*
X022991Y021305D01*
X022991Y022328D01*
X022755Y022623D01*
X023625Y002920D02*
X024048Y002920D01*
X023981Y002822D02*
X023706Y002822D01*
D21*
X018975Y007525D03*
X018286Y007840D03*
X024172Y010734D03*
X024526Y011718D03*
X026573Y010261D03*
X025333Y009139D03*
X026672Y013450D03*
X029034Y014159D03*
X030058Y015517D03*
X030058Y017722D03*
X025392Y023293D03*
X019428Y016600D03*
X019428Y016049D03*
X011554Y021718D03*
D22*
X011551Y021715D01*
X011514Y021627D02*
X011514Y017860D01*
X014605Y019112D02*
X014605Y021541D01*
X011551Y021715D02*
X011538Y021700D01*
X011528Y021684D01*
X011520Y021666D01*
X011516Y021647D01*
X011514Y021627D01*
X017676Y016679D02*
X022322Y021324D01*
D23*
X023365Y020931D03*
X025333Y020931D03*
X023365Y011088D03*
X022971Y009907D03*
X020609Y007663D03*
X021180Y007387D03*
X019762Y007683D03*
X024762Y007348D03*
X026298Y007368D03*
D24*
X024270Y021560D03*
X023759Y022623D03*
X022755Y022623D03*
M02*
