%
M48
M72
T01C0.0157
T02C0.0197
T03C0.0236
T04C0.0276
T05C0.0315
T06C0.0320
T07C0.0354
T08C0.0520
T09C0.0591
T10C0.0669
T11C0.1260
%
T01
X24270Y21560
X23759Y22623
X22755Y22623
T02
X22400Y21324
X22184Y20143
X20215Y20931
X19211Y21521
X17558Y21501
X16278Y20557
X15688Y20557
X14605Y21541
X13522Y19749
X14526Y18982
X13129Y17781
X11514Y17860
X9979Y19356
X9093Y18411
X8089Y18411
X7105Y18411
X8010Y19356
X6042Y19356
X4073Y19356
X2105Y19356
X2105Y20931
X4073Y20931
X6042Y21324
X8010Y21324
X9979Y21324
X12459Y20931
X12440Y20281
X14593Y16501
X14987Y16501
X15381Y16501
X15381Y16108
X14987Y16108
X14593Y16108
X14593Y15714
X14987Y15714
X15381Y15714
X13522Y14238
X13522Y13057
X14310Y11875
X15885Y11875
X17459Y11875
X19034Y11875
X20609Y12663
X20215Y13844
X18247Y13844
X16672Y13844
X17676Y16679
X18640Y18962
X21396Y17781
X22184Y16994
X23739Y13568
X24211Y13391
X24605Y13214
X25077Y13214
X29290Y11186
X29270Y10694
X29467Y9986
X29152Y9553
X20885Y5970
X20609Y9120
X13129Y15301
X13070Y16049
X11534Y15222
X11180Y14533
X9979Y13844
X8010Y13844
X6042Y13844
X4073Y13844
X2105Y13844
X5255Y11875
X8010Y11875
X9979Y11875
X10766Y12269
X11357Y12269
X11948Y12269
X8010Y15812
X6042Y15812
X2105Y16600
T03
X19762Y7683
X20609Y7663
X21180Y7387
X22971Y9907
X23365Y11088
X24762Y7348
X26298Y7368
X25333Y20931
X23365Y20931
T04
X25392Y23293
X30058Y17722
X30058Y15517
X29034Y14159
X26672Y13450
X24526Y11718
X24172Y10734
X25333Y9139
X26573Y10261
X18975Y7525
X18286Y7840
X19428Y16049
X19428Y16600
X11554Y21718
T05
X3924Y11777
X3924Y10793
X3924Y9809
X3924Y8824
X3924Y7840
X3924Y6856
X3924Y5872
X3924Y4887
T06
X27786Y20045
X28786Y20045
T07
X26365Y3633
X25365Y3633
X24365Y3633
X23365Y3633
X22365Y3633
X21365Y3633
X20365Y3633
X20365Y2633
X21365Y2633
X22365Y2633
X23365Y2633
X24365Y2633
X25365Y2633
X26365Y2633
T08
X19822Y11482
X15737Y13844
X14703Y13844
X11554Y11482
X6436Y11482
X6436Y2427
T09
X4073Y16600
T10
X3070Y17604
X5077Y17604
X5077Y15596
X3070Y15596
T11
X2892Y2427
X2892Y22899
X31239Y22899
X31239Y2427
M30
