G75*
G70*
%OFA0B0*%
%FSLAX24Y24*%
%IPPOS*%
%LPD*%
%AMOC8*
5,1,8,0,0,1.08239X$1,22.5*
%
%ADD10C,0.1655*%
%ADD11C,0.2380*%
%ADD12C,0.0476*%
%ADD13C,0.0437*%
%ADD14C,0.0358*%
D10*
X014944Y014523D03*
X016912Y014523D03*
X018881Y014523D03*
D11*
X003920Y001704D03*
X003920Y014302D03*
D12*
X007930Y010835D03*
X006930Y010773D03*
X006305Y010773D03*
X004680Y010398D03*
X013180Y010523D03*
X013680Y010523D03*
X014180Y010523D03*
X014680Y010523D03*
X014680Y011023D03*
X014180Y011023D03*
X013680Y011023D03*
X013180Y011023D03*
X013180Y011523D03*
X013680Y011523D03*
X014180Y011523D03*
X014680Y011523D03*
X014680Y012023D03*
X014180Y012023D03*
X013680Y012023D03*
X013180Y012023D03*
X016680Y011523D03*
X017180Y011523D03*
X017180Y011023D03*
X016680Y011023D03*
X016680Y010523D03*
X017180Y010523D03*
X019180Y010523D03*
X019680Y010523D03*
X020180Y010523D03*
X020180Y011023D03*
X019680Y011023D03*
X019180Y011023D03*
X019180Y011523D03*
X019680Y011523D03*
X020180Y011523D03*
X020180Y012023D03*
X019680Y012023D03*
X019180Y012023D03*
X019180Y010023D03*
X019680Y010023D03*
X016680Y007273D03*
X015055Y007273D03*
X013930Y007023D03*
X011680Y005523D03*
X011180Y005523D03*
X010680Y005523D03*
X010180Y005523D03*
X010180Y005023D03*
X010680Y005023D03*
X011180Y005023D03*
X011680Y005023D03*
X012368Y004398D03*
X011680Y002523D03*
X006680Y005023D03*
X006180Y005023D03*
X005680Y005023D03*
X017180Y001523D03*
X018180Y001523D03*
X019180Y001523D03*
X024180Y003523D03*
X024680Y003523D03*
X025180Y003523D03*
X025680Y006523D03*
X025680Y007023D03*
X025680Y007523D03*
X019555Y006648D03*
X019055Y006648D03*
X018555Y006648D03*
X019305Y007148D03*
D13*
X021805Y006523D03*
X023180Y004523D03*
D14*
X020743Y006773D03*
X023055Y009898D03*
M02*
