%
M48
M72
T01C0.0118
T02C0.0197
T03C0.0236
T04C0.0827
T05C0.1260
%
T01
X20743Y6773
X23055Y9898
T02
X21805Y6523
X23180Y4523
T03
X24180Y3523
X24680Y3523
X25180Y3523
X25680Y6523
X25680Y7023
X25680Y7523
X19680Y10023
X19180Y10023
X19180Y10523
X19680Y10523
X20180Y10523
X20180Y11023
X19680Y11023
X19180Y11023
X19180Y11523
X19680Y11523
X20180Y11523
X20180Y12023
X19680Y12023
X19180Y12023
X17180Y11523
X16680Y11523
X16680Y11023
X17180Y11023
X17180Y10523
X16680Y10523
X14680Y10523
X14180Y10523
X13680Y10523
X13180Y10523
X13180Y11023
X13680Y11023
X14180Y11023
X14680Y11023
X14680Y11523
X14180Y11523
X13680Y11523
X13180Y11523
X13180Y12023
X13680Y12023
X14180Y12023
X14680Y12023
X7930Y10835
X6930Y10773
X6305Y10773
X4680Y10398
X10180Y5523
X10680Y5523
X11180Y5523
X11680Y5523
X11680Y5023
X11180Y5023
X10680Y5023
X10180Y5023
X12368Y4398
X11680Y2523
X6680Y5023
X6180Y5023
X5680Y5023
X13930Y7023
X15055Y7273
X16680Y7273
X18555Y6648
X19055Y6648
X19555Y6648
X19305Y7148
X19180Y1523
X18180Y1523
X17180Y1523
T04
X16912Y14523
X14944Y14523
X18881Y14523
T05
X3920Y1704
X3920Y14302
M30
