G75*
G70*
%OFA0B0*%
%FSLAX24Y24*%
%IPPOS*%
%LPD*%
%AMOC8*
5,1,8,0,0,1.08239X$1,22.5*
%
%ADD10C,0.0100*%
%ADD11C,0.0080*%
%ADD12R,0.0340X0.0300*%
%ADD13C,0.0050*%
%ADD14C,0.0060*%
%ADD15R,0.0098X0.0098*%
%ADD16C,0.0040*%
D10*
X009826Y003082D02*
X023999Y003082D01*
X028920Y008003D02*
X028914Y008237D01*
X028898Y008471D01*
X028870Y008703D01*
X028831Y008934D01*
X028781Y009163D01*
X028721Y009389D01*
X028649Y009613D01*
X028567Y009832D01*
X028475Y010047D01*
X028373Y010258D01*
X028261Y010463D01*
X028139Y010663D01*
X028008Y010857D01*
X027867Y011045D01*
X027718Y011226D01*
X027560Y011399D01*
X027395Y011564D01*
X027222Y011722D01*
X027041Y011871D01*
X026853Y012012D01*
X026659Y012143D01*
X026459Y012265D01*
X026254Y012377D01*
X026043Y012479D01*
X025828Y012571D01*
X025609Y012653D01*
X025385Y012725D01*
X025159Y012785D01*
X024930Y012835D01*
X024699Y012874D01*
X024467Y012902D01*
X024233Y012918D01*
X023999Y012924D01*
X009826Y012924D01*
X009592Y012918D01*
X009358Y012902D01*
X009126Y012874D01*
X008895Y012835D01*
X008666Y012785D01*
X008440Y012725D01*
X008216Y012653D01*
X007997Y012571D01*
X007782Y012479D01*
X007571Y012377D01*
X007365Y012265D01*
X007166Y012143D01*
X006972Y012012D01*
X006784Y011871D01*
X006603Y011722D01*
X006430Y011564D01*
X006265Y011399D01*
X006107Y011226D01*
X005958Y011045D01*
X005817Y010857D01*
X005686Y010663D01*
X005564Y010464D01*
X005452Y010258D01*
X005350Y010047D01*
X005258Y009832D01*
X005176Y009613D01*
X005104Y009389D01*
X005044Y009163D01*
X004994Y008934D01*
X004955Y008703D01*
X004927Y008471D01*
X004911Y008237D01*
X004905Y008003D01*
X004911Y007769D01*
X004927Y007535D01*
X004955Y007303D01*
X004994Y007072D01*
X005044Y006843D01*
X005104Y006617D01*
X005176Y006393D01*
X005258Y006174D01*
X005350Y005959D01*
X005452Y005748D01*
X005564Y005543D01*
X005686Y005343D01*
X005817Y005149D01*
X005958Y004961D01*
X006107Y004780D01*
X006265Y004607D01*
X006430Y004442D01*
X006603Y004284D01*
X006784Y004135D01*
X006972Y003994D01*
X007166Y003863D01*
X007365Y003741D01*
X007571Y003629D01*
X007782Y003527D01*
X007997Y003435D01*
X008216Y003353D01*
X008440Y003281D01*
X008666Y003221D01*
X008895Y003171D01*
X009126Y003132D01*
X009358Y003104D01*
X009592Y003088D01*
X009826Y003082D01*
X023999Y003082D02*
X024233Y003088D01*
X024467Y003104D01*
X024699Y003132D01*
X024930Y003171D01*
X025159Y003221D01*
X025385Y003281D01*
X025609Y003353D01*
X025828Y003435D01*
X026043Y003527D01*
X026254Y003629D01*
X026460Y003741D01*
X026659Y003863D01*
X026853Y003994D01*
X027041Y004135D01*
X027222Y004284D01*
X027395Y004442D01*
X027560Y004607D01*
X027718Y004780D01*
X027867Y004961D01*
X028008Y005149D01*
X028139Y005343D01*
X028261Y005543D01*
X028373Y005748D01*
X028475Y005959D01*
X028567Y006174D01*
X028649Y006393D01*
X028721Y006617D01*
X028781Y006843D01*
X028831Y007072D01*
X028870Y007303D01*
X028898Y007535D01*
X028914Y007769D01*
X028920Y008003D01*
D11*
X018202Y009673D02*
X015622Y009673D01*
X015622Y012033D01*
X018202Y012033D02*
X018202Y009673D01*
D12*
X016912Y009483D03*
D13*
X007099Y003129D02*
X007099Y001554D01*
X013261Y001554D01*
X013261Y003129D01*
X007099Y003129D01*
X005152Y004523D02*
X004208Y004523D01*
X004208Y005023D01*
X005152Y005023D01*
X005152Y004523D01*
X005152Y005273D02*
X004208Y005273D01*
X004208Y005773D01*
X005152Y005773D01*
X005152Y005273D01*
X003305Y007273D02*
X003307Y007295D01*
X003313Y007316D01*
X003322Y007335D01*
X003334Y007353D01*
X003350Y007369D01*
X003367Y007381D01*
X003387Y007390D01*
X003408Y007396D01*
X003430Y007398D01*
X003452Y007396D01*
X003473Y007390D01*
X003492Y007381D01*
X003510Y007369D01*
X003526Y007353D01*
X003538Y007335D01*
X003547Y007316D01*
X003553Y007295D01*
X003555Y007273D01*
X003553Y007251D01*
X003547Y007230D01*
X003538Y007211D01*
X003526Y007193D01*
X003510Y007177D01*
X003493Y007165D01*
X003473Y007156D01*
X003452Y007150D01*
X003430Y007148D01*
X003408Y007150D01*
X003387Y007156D01*
X003367Y007165D01*
X003350Y007177D01*
X003334Y007193D01*
X003322Y007210D01*
X003313Y007230D01*
X003307Y007251D01*
X003305Y007273D01*
X005430Y007550D02*
X005930Y007550D01*
X005930Y008495D01*
X005430Y008495D01*
X005430Y007550D01*
X007430Y007550D02*
X007430Y008495D01*
X007930Y008495D01*
X007930Y007550D01*
X007430Y007550D01*
X008220Y007346D02*
X008220Y008449D01*
X008890Y008449D01*
X008890Y007346D01*
X008220Y007346D01*
X011345Y007346D02*
X011345Y008449D01*
X012015Y008449D01*
X012015Y007346D01*
X011345Y007346D01*
X014680Y004495D02*
X015180Y004495D01*
X015180Y003550D01*
X014680Y003550D01*
X014680Y004495D01*
X015930Y004495D02*
X016430Y004495D01*
X016430Y003550D01*
X015930Y003550D01*
X015930Y004495D01*
X017037Y005273D02*
X017039Y005295D01*
X017045Y005316D01*
X017054Y005335D01*
X017066Y005353D01*
X017082Y005369D01*
X017099Y005381D01*
X017119Y005390D01*
X017140Y005396D01*
X017162Y005398D01*
X017184Y005396D01*
X017205Y005390D01*
X017224Y005381D01*
X017242Y005369D01*
X017258Y005353D01*
X017270Y005335D01*
X017279Y005316D01*
X017285Y005295D01*
X017287Y005273D01*
X017285Y005251D01*
X017279Y005230D01*
X017270Y005211D01*
X017258Y005193D01*
X017242Y005177D01*
X017225Y005165D01*
X017205Y005156D01*
X017184Y005150D01*
X017162Y005148D01*
X017140Y005150D01*
X017119Y005156D01*
X017099Y005165D01*
X017082Y005177D01*
X017066Y005193D01*
X017054Y005210D01*
X017045Y005230D01*
X017039Y005251D01*
X017037Y005273D01*
X018688Y005018D02*
X018688Y006277D01*
X019672Y006277D01*
X019672Y005018D01*
X018688Y005018D01*
X020564Y005527D02*
X020564Y007519D01*
X022296Y007519D01*
X022296Y005527D01*
X020564Y005527D01*
X023286Y006273D02*
X023286Y007773D01*
X024074Y007773D01*
X024074Y006273D01*
X023286Y006273D01*
X023530Y005973D02*
X023532Y005997D01*
X023538Y006021D01*
X023547Y006043D01*
X023560Y006063D01*
X023576Y006081D01*
X023595Y006096D01*
X023616Y006109D01*
X023638Y006117D01*
X023662Y006122D01*
X023686Y006123D01*
X023710Y006120D01*
X023733Y006113D01*
X023755Y006103D01*
X023775Y006089D01*
X023792Y006072D01*
X023807Y006053D01*
X023818Y006032D01*
X023826Y006009D01*
X023830Y005985D01*
X023830Y005961D01*
X023826Y005937D01*
X023818Y005914D01*
X023807Y005893D01*
X023792Y005874D01*
X023775Y005857D01*
X023755Y005843D01*
X023733Y005833D01*
X023710Y005826D01*
X023686Y005823D01*
X023662Y005824D01*
X023638Y005829D01*
X023616Y005837D01*
X023595Y005850D01*
X023576Y005865D01*
X023560Y005883D01*
X023547Y005903D01*
X023538Y005925D01*
X023532Y005949D01*
X023530Y005973D01*
X024208Y006273D02*
X024208Y006773D01*
X025152Y006773D01*
X025152Y006273D01*
X024208Y006273D01*
X024208Y007273D02*
X024208Y007773D01*
X025152Y007773D01*
X025152Y007273D01*
X024208Y007273D01*
X021902Y007773D02*
X020958Y007773D01*
X020958Y008273D01*
X021902Y008273D01*
X021902Y007773D01*
X020682Y007389D02*
X020684Y007397D01*
X020689Y007404D01*
X020696Y007408D01*
X020704Y007409D01*
X020712Y007406D01*
X020718Y007401D01*
X020722Y007393D01*
X020722Y007385D01*
X020718Y007377D01*
X020712Y007372D01*
X020704Y007369D01*
X020696Y007370D01*
X020689Y007374D01*
X020684Y007381D01*
X020682Y007389D01*
X023333Y009773D02*
X023333Y010273D01*
X024277Y010273D01*
X024277Y009773D01*
X023333Y009773D01*
X023680Y004995D02*
X024180Y004995D01*
X024180Y004050D01*
X023680Y004050D01*
X023680Y004995D01*
X023180Y003745D02*
X022680Y003745D01*
X022680Y002800D01*
X023180Y002800D01*
X023180Y003745D01*
X022180Y003745D02*
X022180Y002800D01*
X021680Y002800D01*
X021680Y003745D01*
X022180Y003745D01*
X016430Y003245D02*
X016430Y002300D01*
X015930Y002300D01*
X015930Y003245D01*
X016430Y003245D01*
X015180Y003245D02*
X014680Y003245D01*
X014680Y002300D01*
X015180Y002300D01*
X015180Y003245D01*
X004402Y010273D02*
X003458Y010273D01*
X003458Y010773D01*
X004402Y010773D01*
X004402Y010273D01*
X005430Y010550D02*
X005430Y011495D01*
X005930Y011495D01*
X005930Y010550D01*
X005430Y010550D01*
X006430Y011050D02*
X006430Y011995D01*
X006930Y011995D01*
X006930Y011050D01*
X006430Y011050D01*
X006152Y011773D02*
X005208Y011773D01*
X005208Y012273D01*
X006152Y012273D01*
X006152Y011773D01*
X007208Y011773D02*
X007208Y012273D01*
X008152Y012273D01*
X008152Y011773D01*
X007208Y011773D01*
X011208Y013773D02*
X011208Y014273D01*
X012152Y014273D01*
X012152Y013773D01*
X011208Y013773D01*
D14*
X004499Y012082D02*
X004499Y012045D01*
X004499Y012082D02*
X003861Y012082D01*
X003861Y012045D01*
X003861Y011728D02*
X003861Y011317D01*
X003861Y011000D02*
X003861Y010963D01*
X004499Y010963D01*
X004499Y011000D01*
X004499Y011317D02*
X004499Y011354D01*
X004499Y011691D02*
X004499Y011728D01*
X009861Y008582D02*
X009861Y008545D01*
X009861Y008582D02*
X010499Y008582D01*
X010499Y008545D01*
X010499Y008228D02*
X010499Y007817D01*
X010499Y007500D02*
X010499Y007463D01*
X009861Y007463D01*
X009861Y007500D01*
X009861Y007817D02*
X009861Y007854D01*
X009861Y008191D02*
X009861Y008228D01*
X024861Y005082D02*
X024861Y005045D01*
X024861Y005082D02*
X025499Y005082D01*
X025499Y005045D01*
X025499Y004728D02*
X025499Y004691D01*
X025499Y004354D02*
X025499Y004317D01*
X025499Y004000D02*
X025499Y003963D01*
X024861Y003963D01*
X024861Y004000D01*
X024861Y004317D02*
X024861Y004728D01*
D15*
X024979Y010023D03*
X010131Y014023D03*
D16*
X011893Y002753D02*
X011893Y002293D01*
X011740Y002293D02*
X012047Y002293D01*
X011740Y002599D02*
X011893Y002753D01*
X020440Y001157D02*
X020594Y001310D01*
X020594Y000850D01*
X020747Y000850D02*
X020440Y000850D01*
M02*
