%
M48
M72
T01C0.0118
T02C0.0197
T03C0.0236
T04C0.0276
T05C0.0315
T06C0.0354
T07C0.0360
T08C0.0400
T09C0.0456
T10C0.0520
T11C0.0551
T12C0.1260
%
T01
X11650Y9519
X11900Y9769
X12150Y10019
X12400Y10269
X12650Y9769
X12900Y9519
X12650Y7644
X12150Y7644
X13150Y7644
X13650Y7644
X14150Y7644
X14650Y7644
X11650Y13894
X10025Y13894
X11525Y16019
T02
X11150Y17394
X10400Y17394
X8650Y15894
X8150Y15894
X7650Y15894
X7150Y15644
X7150Y15144
X7150Y14644
X7150Y14144
X5650Y15144
X5650Y15644
X3650Y14144
X3650Y13644
X3650Y13144
X5900Y11394
X18275Y14769
X18775Y14769
X19275Y14769
X19150Y17144
X18650Y17144
X23025Y16769
X23150Y13644
X23150Y13144
X23150Y12644
X19650Y11644
X19150Y11644
X18650Y11644
X27650Y11644
X27650Y12144
X27650Y12644
X27650Y13144
X27650Y13644
X27650Y14144
X27650Y17644
X27650Y18144
X4650Y30644
X4150Y30644
X3650Y30644
X3150Y30644
X2650Y30644
T03
X6150Y19394
X7900Y19394
X17650Y19144
X25650Y19144
X31025Y19144
X30900Y10769
X30400Y9394
X28525Y9019
X28025Y8644
X19650Y9644
X18650Y9644
T04
X12650Y3300
X12150Y3300
X11650Y3300
X11150Y3300
X10650Y3300
X10650Y1300
X11150Y1300
X11650Y1300
X12150Y1300
X12650Y1300
T05
X24650Y21144
X24650Y22144
X25650Y22144
X26650Y22144
X27650Y22144
X28650Y22144
X28650Y23144
X27650Y23144
X27650Y24144
X27650Y25144
X28650Y25144
X28650Y24144
X27650Y26144
X27650Y27144
X28650Y27144
X24650Y28644
X23650Y28644
X22650Y28644
X21650Y28644
X20650Y28644
X19650Y28644
X19650Y29644
X19650Y30644
X19650Y31644
X18650Y31644
X17650Y31644
X16650Y31644
X15650Y31644
X14650Y31644
X14650Y30644
X14650Y29644
X12650Y29644
X12650Y30644
X12650Y31644
X12650Y32644
X19650Y33644
X19650Y34644
X20650Y34644
X21650Y34644
X22650Y34644
X23650Y34644
X23650Y33644
X23650Y32644
X23650Y31644
X23650Y30644
X24650Y30644
X24650Y29644
X25650Y21144
X26650Y21144
X27650Y21144
X28650Y21144
T06
X19654Y6144
X18654Y6144
X17654Y6144
X5650Y18144
X3150Y18144
X7150Y29644
X8150Y29644
X9150Y29644
T07
X14525Y13394
X15525Y13394
X9775Y11019
X9775Y10019
T08
X33115Y9647
X33115Y8647
X33115Y7647
X33115Y6647
X34115Y6647
X34115Y7647
X34115Y8647
X34115Y9647
X34115Y10647
X34115Y11647
X33115Y11647
X33115Y10647
X33115Y12647
X34115Y12647
X34115Y13647
X33115Y13647
X33115Y14647
X34115Y14647
X34115Y15647
X34115Y16647
X33115Y16647
X33115Y15647
X33115Y17647
X34115Y17647
X34115Y18647
X33115Y18647
X33115Y19647
X34115Y19647
X34115Y20647
X33115Y20647
X33115Y21647
X33115Y22647
X34115Y22647
X34115Y21647
X34115Y23647
X33115Y23647
X33115Y24647
X34115Y24647
X34115Y25647
X33115Y25647
X33115Y26647
X34115Y26647
X34115Y27647
X34115Y28647
X33115Y28647
X33115Y27647
X33115Y29647
X34115Y29647
X34115Y30647
X33115Y30647
X33115Y31647
X34115Y31647
T09
X17650Y28144
X16650Y28144
X16650Y27144
X17650Y27144
X17650Y26144
X16650Y26144
X16650Y25144
X16650Y24144
X17650Y24144
X17650Y25144
X14150Y25144
X14150Y24144
X13150Y24144
X13150Y25144
X13150Y26144
X13150Y27144
X13150Y28144
X14150Y28144
X14150Y27144
X14150Y26144
T10
X16275Y20144
X21150Y24394
X21150Y26644
X28650Y26144
X16525Y15019
X15650Y6644
X10150Y6644
T11
X25953Y29462
X27953Y29462
T12
X3693Y4187
X33615Y4187
X33615Y34108
X3693Y34108
M30
