%
M48
M72
T01C0.0118
T02C0.0197
T03C0.0236
T04C0.0276
T05C0.0315
T06C0.0354
T07C0.0360
T08C0.0400
T09C0.0472
T10C0.0520
T11C0.0551
T12C0.1260
%
T01
X11650Y7519
X11900Y7769
X12150Y8019
X12400Y8269
X12650Y7894
X12900Y7519
X12650Y5644
X12150Y5644
X13150Y5644
X13650Y5644
X14150Y5644
X14650Y5644
X11650Y11769
X10025Y11894
X11525Y14019
T02
X11150Y15394
X10400Y15394
X8650Y13894
X8150Y13894
X7650Y13894
X7150Y13644
X7150Y13144
X7150Y12644
X7150Y12144
X5650Y13144
X5650Y13644
X3650Y12144
X3650Y11644
X3650Y11144
X5900Y9394
X18275Y12769
X18775Y12769
X19275Y12769
X19150Y15144
X18650Y15144
X23025Y14769
X23150Y11644
X23150Y11144
X23150Y10644
X19650Y9644
X19150Y9644
X18650Y9644
X27650Y9644
X27650Y10144
X27650Y10644
X27650Y11144
X27650Y11644
X27650Y12144
X27650Y15644
X27650Y16144
X4650Y30644
X4150Y30644
X3650Y30644
X3150Y30644
X2650Y30644
T03
X6150Y17394
X7900Y17394
X17650Y17144
X25650Y17144
X29400Y16644
X30900Y8769
X30400Y7394
X28525Y7019
X28025Y6644
X19650Y7644
X18650Y7644
T04
X12650Y3300
X12150Y3300
X11650Y3300
X11150Y3300
X10650Y3300
X10650Y1300
X11150Y1300
X11650Y1300
X12150Y1300
X12650Y1300
T05
X24650Y19144
X25650Y19144
X26650Y19144
X27650Y19144
X28650Y19144
X28650Y20144
X28650Y21144
X28650Y22144
X28650Y23144
X28650Y24144
X28650Y26144
X28650Y27144
X24650Y28644
X23650Y28644
X22650Y28644
X21650Y28644
X20650Y28644
X19650Y28644
X19650Y29644
X19650Y30644
X18650Y30644
X17650Y30644
X16650Y30644
X15650Y30644
X14650Y30644
X14650Y29644
X14650Y28644
X14650Y27644
X12650Y27644
X12650Y28644
X12650Y29644
X12650Y30644
X12650Y31644
X12650Y32644
X13650Y32644
X14650Y32644
X15650Y32644
X16650Y32644
X17650Y32644
X18650Y32644
X19650Y32644
X20650Y32644
X21650Y32644
X22650Y32644
X23650Y32644
X23650Y31644
X23650Y30644
X24650Y30644
X24650Y29644
T06
X9150Y29644
X8150Y29644
X7150Y29644
X5650Y16144
X3150Y16144
X17654Y4644
X18654Y4644
X19654Y4644
T07
X15525Y11394
X14525Y11394
X9775Y9019
X9775Y8019
T08
X33115Y7647
X33115Y6647
X34115Y6647
X34115Y7647
X34115Y8647
X33115Y8647
X33115Y9647
X34115Y9647
X34115Y10647
X34115Y11647
X33115Y11647
X33115Y10647
X33115Y12647
X34115Y12647
X34115Y13647
X33115Y13647
X33115Y14647
X34115Y14647
X34115Y15647
X34115Y16647
X33115Y16647
X33115Y15647
X33115Y17647
X34115Y17647
X34115Y18647
X33115Y18647
X33115Y19647
X34115Y19647
X34115Y20647
X33115Y20647
X33115Y21647
X33115Y22647
X34115Y22647
X34115Y21647
X34115Y23647
X33115Y23647
X33115Y24647
X34115Y24647
X34115Y25647
X33115Y25647
X33115Y26647
X34115Y26647
X34115Y27647
X34115Y28647
X33115Y28647
X33115Y27647
X33115Y29647
X34115Y29647
X34115Y30647
X33115Y30647
X33115Y31647
X34115Y31647
X35650Y16644
X35650Y15644
X35650Y14644
T09
X17650Y22144
X17650Y23144
X17650Y24144
X17650Y25144
X17650Y26144
X16650Y26144
X16650Y25144
X16650Y24144
X16650Y23144
X16650Y22144
X14150Y22144
X14150Y23144
X14150Y24144
X14150Y25144
X14150Y26144
X13150Y26144
X13150Y25144
X13150Y24144
X13150Y23144
X13150Y22144
T10
X16275Y18144
X16525Y13019
X15650Y4644
X10150Y4644
X21150Y24394
X21150Y26644
X28650Y25144
T11
X27953Y29462
X25953Y29462
T12
X3693Y4187
X33615Y4187
X33615Y34108
X3693Y34108
M30
