%
M48
M72
T01C0.0236
T02C0.0400
T03C0.0551
T04C0.1260
%
T01
X35400Y11150
T02
X36150Y11400
X36150Y10400
X34115Y10154
X34115Y11154
X34115Y12154
X34115Y13154
X34115Y14154
X34115Y15154
X34115Y16154
X34115Y17154
X34115Y18154
X34115Y19154
X34115Y20154
X34115Y21154
X34115Y22154
X34115Y23154
X34115Y24154
X34115Y25154
X34115Y26154
X34115Y27154
X34115Y28154
X34115Y29154
X34115Y30154
X34115Y31154
X33115Y31154
X33115Y30154
X33115Y29154
X33115Y28154
X33115Y27154
X33115Y26154
X33115Y25154
X33115Y24154
X33115Y23154
X33115Y22154
X33115Y21154
X33115Y20154
X33115Y19154
X33115Y18154
X33115Y17154
X33115Y16154
X33115Y15154
X33115Y14154
X33115Y13154
X33115Y12154
X33115Y11154
X33115Y10154
X33115Y9154
X34115Y9154
X34115Y8154
X34115Y7154
X34115Y6154
X33115Y6154
X33115Y7154
X33115Y8154
X36150Y8150
X36150Y7150
X36150Y6150
X36150Y12400
T03
X29693Y28937
X27693Y28937
T04
X3693Y3693
X3693Y10583
X1528Y14061
X1528Y23247
X3693Y28300
X3693Y33615
X12059Y33615
X21804Y33615
X25150Y28937
X25150Y25150
X29650Y25150
X33615Y33615
X33615Y3693
X27315Y3693
X26823Y1331
X13733Y1331
M30
