G75*
G70*
%OFA0B0*%
%FSLAX24Y24*%
%IPPOS*%
%LPD*%
%AMOC8*
5,1,8,0,0,1.08239X$1,22.5*
%
%ADD10C,0.0040*%
%ADD11R,3.7008X3.4646*%
%ADD12C,0.2380*%
%ADD13C,0.0680*%
%ADD14C,0.0907*%
%ADD15C,0.0820*%
%ADD16C,0.0476*%
D10*
X035920Y002920D02*
X035920Y003227D01*
X035920Y003380D02*
X036380Y003380D01*
X036380Y003687D01*
X036380Y003841D02*
X035920Y003841D01*
X036073Y003994D01*
X035920Y004148D01*
X036380Y004148D01*
X036380Y004301D02*
X035920Y004301D01*
X035920Y004531D01*
X035996Y004608D01*
X036150Y004608D01*
X036227Y004531D01*
X036227Y004301D01*
X036380Y004762D02*
X036073Y005068D01*
X035996Y005068D01*
X035920Y004992D01*
X035920Y004838D01*
X035996Y004762D01*
X036380Y004762D02*
X036380Y005068D01*
X035920Y003687D02*
X035920Y003380D01*
X036150Y003380D02*
X036150Y003534D01*
X036380Y003073D02*
X035920Y003073D01*
X035920Y013420D02*
X035920Y013727D01*
X035920Y013880D02*
X036380Y013880D01*
X036380Y014187D01*
X036380Y014341D02*
X035920Y014341D01*
X036073Y014494D01*
X035920Y014648D01*
X036380Y014648D01*
X036380Y014801D02*
X035920Y014801D01*
X035920Y015031D01*
X035996Y015108D01*
X036150Y015108D01*
X036227Y015031D01*
X036227Y014801D01*
X035920Y014187D02*
X035920Y013880D01*
X036150Y013880D02*
X036150Y014034D01*
X036380Y013573D02*
X035920Y013573D01*
X036073Y015722D02*
X035920Y015875D01*
X036380Y015875D01*
X036380Y015722D02*
X036380Y016029D01*
D11*
X018654Y017473D03*
D12*
X003693Y003693D03*
X003693Y010583D03*
X001528Y014061D03*
X001528Y023247D03*
X003693Y028300D03*
X003693Y033615D03*
X012059Y033615D03*
X021804Y033615D03*
X025150Y028937D03*
X025150Y025150D03*
X029650Y025150D03*
X033615Y033615D03*
X033615Y003693D03*
X027315Y003693D03*
X026823Y001331D03*
X013733Y001331D03*
D13*
X033115Y006154D03*
X034115Y006154D03*
X034115Y007154D03*
X034115Y008154D03*
X034115Y009154D03*
X034115Y010154D03*
X034115Y011154D03*
X034115Y012154D03*
X034115Y013154D03*
X034115Y014154D03*
X034115Y015154D03*
X034115Y016154D03*
X034115Y017154D03*
X034115Y018154D03*
X034115Y019154D03*
X034115Y020154D03*
X034115Y021154D03*
X034115Y022154D03*
X034115Y023154D03*
X034115Y024154D03*
X034115Y025154D03*
X034115Y026154D03*
X034115Y027154D03*
X034115Y028154D03*
X034115Y029154D03*
X034115Y030154D03*
X034115Y031154D03*
X033115Y031154D03*
X033115Y030154D03*
X033115Y029154D03*
X033115Y028154D03*
X033115Y027154D03*
X033115Y026154D03*
X033115Y025154D03*
X033115Y024154D03*
X033115Y023154D03*
X033115Y022154D03*
X033115Y021154D03*
X033115Y020154D03*
X033115Y019154D03*
X033115Y018154D03*
X033115Y017154D03*
X033115Y016154D03*
X033115Y015154D03*
X033115Y014154D03*
X033115Y013154D03*
X033115Y012154D03*
X033115Y011154D03*
X033115Y010154D03*
X033115Y009154D03*
X033115Y008154D03*
X033115Y007154D03*
D14*
X029693Y028524D02*
X029693Y029351D01*
X027693Y029351D02*
X027693Y028524D01*
D15*
X036150Y012400D03*
X036150Y011400D03*
X036150Y010400D03*
X036150Y008150D03*
X036150Y007150D03*
X036150Y006150D03*
D16*
X035400Y011150D03*
M02*
