G75*
G70*
%OFA0B0*%
%FSLAX24Y24*%
%IPPOS*%
%LPD*%
%AMOC8*
5,1,8,0,0,1.08239X$1,22.5*
%
%ADD10R,0.4921X3.4646*%
%ADD11C,0.0050*%
%ADD12C,0.0070*%
%ADD13C,0.2380*%
%ADD14C,0.0680*%
D10*
X003166Y017423D03*
D11*
X003730Y024125D02*
X004180Y024125D01*
X004180Y024425D02*
X003955Y024425D01*
X003880Y024350D01*
X003880Y024200D01*
X003955Y024125D01*
X003880Y024585D02*
X003880Y024736D01*
X003805Y024660D02*
X004105Y024660D01*
X004180Y024736D01*
X004105Y024967D02*
X004180Y025042D01*
X004105Y024967D02*
X003805Y024967D01*
X003880Y024892D02*
X003880Y025042D01*
X003880Y025199D02*
X003880Y025424D01*
X003955Y025500D01*
X004105Y025500D01*
X004180Y025424D01*
X004180Y025199D01*
X004180Y025660D02*
X004105Y025660D01*
X004105Y025735D01*
X004180Y025735D01*
X004180Y025660D01*
X004180Y025890D02*
X003730Y026190D01*
X003730Y026650D02*
X004180Y026350D01*
X004105Y026811D02*
X004180Y026886D01*
X004180Y027036D01*
X004105Y027111D01*
X003955Y027111D01*
X003880Y027036D01*
X003880Y026886D01*
X003955Y026811D01*
X004105Y026811D01*
X004180Y027271D02*
X004180Y027496D01*
X004105Y027571D01*
X003955Y027571D01*
X003880Y027496D01*
X003880Y027271D01*
X004331Y027271D01*
X004405Y027752D02*
X004480Y027752D01*
X004630Y027752D02*
X004930Y027752D01*
X004930Y027677D02*
X004930Y027827D01*
X004930Y027984D02*
X004630Y027984D01*
X004630Y028209D01*
X004705Y028284D01*
X004930Y028284D01*
X004930Y028905D02*
X004480Y028905D01*
X004630Y029130D02*
X004780Y028905D01*
X004930Y029130D01*
X004855Y029288D02*
X004930Y029363D01*
X004930Y029514D01*
X004855Y029589D01*
X004705Y029589D01*
X004630Y029514D01*
X004630Y029363D01*
X004705Y029288D01*
X004855Y029288D01*
X004780Y029749D02*
X004630Y029899D01*
X004630Y029974D01*
X004705Y030132D02*
X004630Y030207D01*
X004630Y030358D01*
X004705Y030433D01*
X004780Y030433D01*
X004780Y030132D01*
X004855Y030132D02*
X004705Y030132D01*
X004630Y029749D02*
X004930Y029749D01*
X004855Y030132D02*
X004930Y030207D01*
X004930Y030358D01*
X004855Y030593D02*
X004930Y030668D01*
X004930Y030893D01*
X004705Y030893D01*
X004630Y030818D01*
X004630Y030668D01*
X004780Y030668D02*
X004780Y030893D01*
X004780Y030668D02*
X004855Y030593D01*
X004180Y030646D02*
X004180Y030871D01*
X004180Y030646D02*
X004105Y030570D01*
X003955Y030570D01*
X003880Y030646D01*
X003880Y030871D01*
X003880Y030410D02*
X003880Y030185D01*
X003955Y030110D01*
X004105Y030110D01*
X004180Y030185D01*
X004180Y030410D01*
X004180Y029955D02*
X004105Y029955D01*
X004105Y029880D01*
X004180Y029880D01*
X004180Y029955D01*
X004180Y029723D02*
X004105Y029648D01*
X003805Y029648D01*
X003880Y029573D02*
X003880Y029723D01*
X003955Y029413D02*
X003880Y029338D01*
X003880Y029188D01*
X004030Y029188D02*
X004030Y029413D01*
X003955Y029413D02*
X004180Y029413D01*
X004180Y029188D01*
X004105Y029113D01*
X004030Y029188D01*
X004105Y028952D02*
X004030Y028877D01*
X004030Y028727D01*
X003955Y028652D01*
X003880Y028727D01*
X003880Y028952D01*
X004105Y028952D02*
X004180Y028877D01*
X004180Y028652D01*
X004180Y028492D02*
X003955Y028492D01*
X003880Y028417D01*
X003880Y028192D01*
X004180Y028192D01*
X004180Y027957D02*
X004180Y027806D01*
X004105Y027731D01*
X003955Y027731D01*
X003880Y027806D01*
X003880Y027957D01*
X003955Y028032D01*
X004030Y028032D01*
X004030Y027731D01*
X004480Y026596D02*
X004930Y026596D01*
X004930Y026371D01*
X004855Y026296D01*
X004705Y026296D01*
X004630Y026371D01*
X004630Y026596D01*
X004705Y026756D02*
X004630Y026831D01*
X004630Y026981D01*
X004705Y027056D01*
X004780Y027056D01*
X004780Y026756D01*
X004855Y026756D02*
X004705Y026756D01*
X004855Y026756D02*
X004930Y026831D01*
X004930Y026981D01*
X004630Y027677D02*
X004630Y027752D01*
X004705Y026136D02*
X004930Y026136D01*
X004930Y025910D01*
X004855Y025835D01*
X004780Y025910D01*
X004780Y026136D01*
X004705Y026136D02*
X004630Y026061D01*
X004630Y025910D01*
X004705Y025675D02*
X004930Y025675D01*
X004930Y025525D02*
X004705Y025525D01*
X004630Y025600D01*
X004705Y025675D01*
X004705Y025525D02*
X004630Y025450D01*
X004630Y025375D01*
X004930Y025375D01*
X004331Y025199D02*
X003880Y025199D01*
X003880Y025660D02*
X003955Y025660D01*
X003955Y025735D01*
X003880Y025735D01*
X003880Y025660D01*
D12*
X004145Y021100D02*
X004040Y020995D01*
X004040Y020785D01*
X004145Y020680D01*
X004565Y020680D01*
X004145Y021100D01*
X004565Y021100D01*
X004670Y020995D01*
X004670Y020785D01*
X004565Y020680D01*
X004565Y020463D02*
X004670Y020463D01*
X004670Y020358D01*
X004565Y020358D01*
X004565Y020463D01*
X004670Y020134D02*
X004670Y019713D01*
X004670Y019923D02*
X004040Y019923D01*
X004250Y019713D01*
X004145Y018844D02*
X004355Y018844D01*
X004460Y018739D01*
X004460Y018424D01*
X004460Y018634D02*
X004670Y018844D01*
X004670Y018424D02*
X004040Y018424D01*
X004040Y018739D01*
X004145Y018844D01*
X004040Y018200D02*
X004040Y017780D01*
X004670Y017780D01*
X004670Y018200D01*
X004460Y017555D02*
X004040Y017555D01*
X004040Y017135D02*
X004460Y017135D01*
X004670Y017345D01*
X004460Y017555D01*
X004355Y017780D02*
X004355Y017990D01*
X004040Y015794D02*
X004040Y015374D01*
X004670Y015374D01*
X004670Y015794D01*
X004670Y014939D02*
X004040Y014939D01*
X004040Y014729D02*
X004040Y015149D01*
X004040Y014509D02*
X004040Y014299D01*
X004040Y014404D02*
X004670Y014404D01*
X004670Y014299D02*
X004670Y014509D01*
X004670Y014075D02*
X004670Y013655D01*
X004040Y013655D01*
X004040Y013010D02*
X004670Y013010D01*
X004670Y013431D01*
X004670Y012786D02*
X004670Y012366D01*
X004040Y012366D01*
X004040Y012786D01*
X004040Y012141D02*
X004040Y011721D01*
X004040Y011931D02*
X004670Y011931D01*
X004670Y011497D02*
X004250Y011497D01*
X004040Y011287D01*
X004250Y011077D01*
X004670Y011077D01*
X004565Y010852D02*
X004670Y010747D01*
X004670Y010537D01*
X004565Y010432D01*
X004355Y010747D02*
X004460Y010852D01*
X004565Y010852D01*
X004355Y010747D02*
X004355Y010537D01*
X004250Y010432D01*
X004145Y010432D01*
X004040Y010537D01*
X004040Y010747D01*
X004145Y010852D01*
X004355Y011077D02*
X004355Y011497D01*
X004355Y012366D02*
X004355Y012576D01*
X004355Y015374D02*
X004355Y015584D01*
X004670Y009563D02*
X004670Y009143D01*
X004670Y009353D02*
X004040Y009353D01*
X004250Y009143D01*
X004355Y008919D02*
X004355Y008498D01*
X004460Y007844D02*
X004355Y007739D01*
X004355Y007529D01*
X004250Y007424D01*
X004145Y007424D01*
X004040Y007529D01*
X004040Y007739D01*
X004145Y007844D01*
X004040Y008069D02*
X004040Y008279D01*
X004040Y008174D02*
X004670Y008174D01*
X004670Y008069D02*
X004670Y008279D01*
X004565Y007844D02*
X004670Y007739D01*
X004670Y007529D01*
X004565Y007424D01*
X004565Y007200D02*
X004460Y007200D01*
X004355Y007095D01*
X004355Y006885D01*
X004250Y006780D01*
X004145Y006780D01*
X004040Y006885D01*
X004040Y007095D01*
X004145Y007200D01*
X004145Y006555D02*
X004040Y006450D01*
X004040Y006240D01*
X004145Y006135D01*
X004565Y006135D01*
X004670Y006240D01*
X004670Y006450D01*
X004565Y006555D01*
X004145Y006555D01*
X004460Y007844D02*
X004565Y007844D01*
X004565Y007200D02*
X004670Y007095D01*
X004670Y006885D01*
X004565Y006780D01*
D13*
X002083Y003643D03*
X002083Y033565D03*
D14*
X001583Y006104D03*
X001583Y007104D03*
X001583Y008104D03*
X001583Y009104D03*
X001583Y010104D03*
X001583Y011104D03*
X001583Y012104D03*
X001583Y013104D03*
X001583Y014104D03*
X001583Y015104D03*
X001583Y016104D03*
X001583Y017104D03*
X001583Y018104D03*
X001583Y019104D03*
X001583Y020104D03*
X001583Y021104D03*
X001583Y022104D03*
X001583Y023104D03*
X001583Y024104D03*
X001583Y025104D03*
X001583Y026104D03*
X001583Y027104D03*
X001583Y028104D03*
X001583Y029104D03*
X001583Y030104D03*
X001583Y031104D03*
X002583Y031104D03*
X002583Y030104D03*
X002583Y029104D03*
X002583Y028104D03*
X002583Y027104D03*
X002583Y026104D03*
X002583Y025104D03*
X002583Y024104D03*
X002583Y023104D03*
X002583Y022104D03*
X002583Y021104D03*
X002583Y020104D03*
X002583Y019104D03*
X002583Y018104D03*
X002583Y017104D03*
X002583Y016104D03*
X002583Y015104D03*
X002583Y014104D03*
X002583Y013104D03*
X002583Y012104D03*
X002583Y011104D03*
X002583Y010104D03*
X002583Y009104D03*
X002583Y008104D03*
X002583Y007104D03*
X002583Y006104D03*
M02*
