%
M48
M72
T01C0.0236
T02C0.0315
T03C0.0827
%
T01
X12248Y4087
X19138Y4874
X12248Y11567
X19138Y12355
X19138Y19638
X19138Y25544
X12248Y31449
X19138Y32237
X17366Y38733
X12347Y39077
X10673Y24166
X10870Y18260
X31933Y26922
X34492Y25150
X33114Y21016
X34492Y19244
X32721Y13930
X32721Y11961
X32721Y6843
X32721Y4481
X32327Y31843
X31933Y33615
X32917Y39323
X29571Y39520
T02
X10870Y8024
X10870Y15504
X8508Y22000
X8508Y27906
X10870Y35386
X10870Y42867
X19925Y35386
X25043Y35386
X25043Y42796
X34098Y35386
X34098Y27906
X36461Y21410
X36461Y15504
X34098Y8024
X34098Y544
X25043Y8024
X23518Y8024
X19925Y8024
X22484Y1725
X19925Y544
X20319Y15504
X25043Y15504
X20319Y21410
X24650Y22000
X24650Y27906
X19925Y27906
T03
X7327Y31449
X7327Y11961
X37642Y11961
X37642Y31646
M30
