G75*
G70*
%OFA0B0*%
%FSLAX24Y24*%
%IPPOS*%
%LPD*%
%AMOC8*
5,1,8,0,0,1.08239X$1,22.5*
%
%ADD10C,0.0595*%
%ADD11R,0.0462X0.0552*%
%ADD12R,0.0552X0.0297*%
%ADD13R,0.0513X0.0356*%
%ADD14R,0.0356X0.0513*%
%ADD15R,0.0698X0.0781*%
%ADD16R,0.0316X0.0560*%
%ADD17R,0.0356X0.0867*%
%ADD18R,0.0710X0.0946*%
%ADD19C,0.1655*%
%ADD20C,0.0476*%
%ADD21C,0.0555*%
D10*
X010870Y008024D03*
X010870Y015504D03*
X008508Y022000D03*
X008508Y027906D03*
X010870Y035386D03*
X010870Y042867D03*
X019925Y035386D03*
X025043Y035386D03*
X025043Y042796D03*
X034098Y035386D03*
X034098Y027906D03*
X036461Y021410D03*
X036461Y015504D03*
X034098Y008024D03*
X034098Y000544D03*
X025043Y008024D03*
X019925Y008024D03*
X019925Y000544D03*
X020319Y015504D03*
X025043Y015504D03*
X020319Y021410D03*
X024650Y022000D03*
X024650Y027906D03*
X019925Y027906D03*
D11*
X016868Y026922D03*
X015502Y026922D03*
X015502Y021016D03*
X016868Y021016D03*
X016868Y014323D03*
X015502Y014323D03*
X015502Y006843D03*
X016868Y006843D03*
X030069Y008024D03*
X031435Y008024D03*
X031435Y015111D03*
X030069Y015111D03*
X030069Y021016D03*
X031435Y021016D03*
X031435Y027709D03*
X030069Y027709D03*
X030069Y034402D03*
X031435Y034402D03*
X029467Y038733D03*
X028100Y038733D03*
X016868Y038733D03*
X015502Y038733D03*
X015502Y034402D03*
X016868Y034402D03*
D12*
X021973Y012335D03*
X021973Y011961D03*
X021973Y011587D03*
X022996Y011587D03*
X022996Y011961D03*
X022996Y012335D03*
D13*
X024059Y012552D03*
X024059Y011961D03*
X024059Y011370D03*
X024059Y010681D03*
X024059Y010091D03*
X022878Y010091D03*
X022878Y010681D03*
X022091Y010681D03*
X022091Y010091D03*
X020910Y011370D03*
X020910Y011961D03*
X020910Y012552D03*
D14*
X022189Y013142D03*
X022780Y013142D03*
D15*
X025175Y009205D03*
X026093Y009205D03*
D16*
X026008Y010071D03*
X025260Y010071D03*
X025260Y011095D03*
X025634Y011095D03*
X026008Y011095D03*
D17*
X024207Y004874D03*
X023715Y004874D03*
X023223Y004874D03*
X022730Y004874D03*
X022238Y004874D03*
X021746Y004874D03*
X021254Y004874D03*
X020762Y004874D03*
D18*
X019837Y006174D03*
X025132Y006174D03*
D19*
X037642Y011961D03*
X037642Y031646D03*
X007327Y031449D03*
X007327Y011961D03*
D20*
X012248Y011567D03*
X019138Y012355D03*
X019138Y019638D03*
X019138Y025544D03*
X012248Y031449D03*
X019138Y032237D03*
X017366Y038733D03*
X012347Y039077D03*
X010673Y024166D03*
X010870Y018260D03*
X019138Y004874D03*
X012248Y004087D03*
X032721Y004481D03*
X032721Y006843D03*
X032721Y011961D03*
X032721Y013930D03*
X034492Y019244D03*
X033114Y021016D03*
X034492Y025150D03*
X031933Y026922D03*
X032327Y031843D03*
X031933Y033615D03*
X032917Y039323D03*
X029571Y039520D03*
D21*
X023518Y008024D03*
X022484Y001725D03*
M02*
