G75*
G70*
%OFA0B0*%
%FSLAX24Y24*%
%IPPOS*%
%LPD*%
%AMOC8*
5,1,8,0,0,1.08239X$1,22.5*
%
%ADD10R,0.0394X0.0177*%
%ADD11R,0.0591X0.0551*%
%ADD12R,0.0276X0.0433*%
%ADD13R,0.0472X0.0906*%
%ADD14R,0.0433X0.0276*%
%ADD15R,0.0315X0.0551*%
%ADD16R,0.0740X0.0740*%
%ADD17C,0.0740*%
%ADD18R,0.0472X0.0382*%
%ADD19C,0.0039*%
%ADD20C,0.0100*%
%ADD21C,0.0278*%
%ADD22C,0.0357*%
%ADD23C,0.0160*%
%ADD24C,0.0240*%
%ADD25C,0.0320*%
D10*
X004921Y005403D03*
X004921Y005658D03*
X004921Y005914D03*
X004921Y006170D03*
X004921Y006426D03*
X004921Y006682D03*
X006679Y006682D03*
X006679Y006426D03*
X006679Y006170D03*
X006679Y005914D03*
X006679Y005658D03*
X006679Y005403D03*
D11*
X003300Y005669D03*
X003300Y007165D03*
D12*
X004380Y004792D03*
X004380Y004292D03*
X004970Y004292D03*
X004970Y004792D03*
X006130Y004792D03*
X006720Y004792D03*
X007505Y006542D03*
X007505Y007042D03*
X008095Y007042D03*
X008095Y006542D03*
X005095Y002792D03*
X004505Y002792D03*
D13*
X004170Y003542D03*
X005430Y003542D03*
X005680Y007417D03*
X004420Y007417D03*
D14*
X003300Y005088D03*
X003300Y004497D03*
X006675Y004338D03*
X006675Y003747D03*
X006675Y003338D03*
X006675Y002747D03*
X007550Y005497D03*
X008050Y005497D03*
X008550Y005497D03*
X008550Y006088D03*
X008050Y006088D03*
X007550Y006088D03*
D15*
X007440Y004792D03*
X008660Y004792D03*
D16*
X004050Y001792D03*
D17*
X005050Y001792D03*
X006050Y001792D03*
X007050Y001792D03*
X006050Y008792D03*
X005050Y008792D03*
D18*
X003300Y003600D03*
X003300Y002234D03*
D19*
X001970Y000962D02*
X001970Y004042D01*
X003087Y004042D01*
X003201Y003929D01*
X003399Y003929D01*
X003513Y004042D01*
X003675Y004042D01*
X003675Y004938D01*
X003720Y004938D01*
X003887Y005105D01*
X004547Y005765D01*
X004644Y005765D01*
X004683Y005726D01*
X005050Y005726D01*
X005050Y005591D01*
X004683Y005591D01*
X004659Y005567D01*
X004613Y005567D01*
X004525Y005479D01*
X004230Y005184D01*
X004230Y005109D01*
X004201Y005109D01*
X004142Y005050D01*
X004142Y004535D01*
X004201Y004476D01*
X004550Y004476D01*
X004550Y004167D01*
X004675Y004042D01*
X004675Y002082D01*
X004652Y002058D01*
X004580Y001886D01*
X004580Y001699D01*
X004652Y001526D01*
X004675Y001503D01*
X004675Y000962D01*
X001970Y000962D01*
X001970Y000967D02*
X004675Y000967D01*
X004675Y001004D02*
X001970Y001004D01*
X001970Y001042D02*
X004675Y001042D01*
X004675Y001080D02*
X001970Y001080D01*
X001970Y001118D02*
X004675Y001118D01*
X004675Y001156D02*
X001970Y001156D01*
X001970Y001194D02*
X004675Y001194D01*
X004675Y001232D02*
X001970Y001232D01*
X001970Y001270D02*
X004675Y001270D01*
X004675Y001307D02*
X001970Y001307D01*
X001970Y001345D02*
X003616Y001345D01*
X003639Y001323D02*
X003580Y001381D01*
X003580Y001550D01*
X003528Y001572D01*
X003455Y001645D01*
X003156Y001944D01*
X003022Y001944D01*
X002964Y002002D01*
X002964Y002467D01*
X003022Y002525D01*
X003578Y002525D01*
X003636Y002467D01*
X003636Y002259D01*
X003639Y002262D01*
X004461Y002262D01*
X004520Y002204D01*
X004520Y001381D01*
X004461Y001323D01*
X003639Y001323D01*
X003580Y001383D02*
X001970Y001383D01*
X001970Y001421D02*
X003580Y001421D01*
X003580Y001459D02*
X001970Y001459D01*
X001970Y001497D02*
X003580Y001497D01*
X003580Y001535D02*
X001970Y001535D01*
X001970Y001573D02*
X003528Y001573D01*
X003490Y001610D02*
X001970Y001610D01*
X001970Y001648D02*
X003452Y001648D01*
X003414Y001686D02*
X001970Y001686D01*
X001970Y001724D02*
X003376Y001724D01*
X003338Y001762D02*
X001970Y001762D01*
X001970Y001800D02*
X003300Y001800D01*
X003262Y001838D02*
X001970Y001838D01*
X001970Y001875D02*
X003225Y001875D01*
X003187Y001913D02*
X001970Y001913D01*
X001970Y001951D02*
X003015Y001951D01*
X002977Y001989D02*
X001970Y001989D01*
X001970Y002027D02*
X002964Y002027D01*
X002964Y002065D02*
X001970Y002065D01*
X001970Y002103D02*
X002964Y002103D01*
X002964Y002141D02*
X001970Y002141D01*
X001970Y002178D02*
X002964Y002178D01*
X002964Y002216D02*
X001970Y002216D01*
X001970Y002254D02*
X002964Y002254D01*
X002964Y002292D02*
X001970Y002292D01*
X001970Y002330D02*
X002964Y002330D01*
X002964Y002368D02*
X001970Y002368D01*
X001970Y002406D02*
X002964Y002406D01*
X002964Y002444D02*
X001970Y002444D01*
X001970Y002481D02*
X002979Y002481D01*
X003017Y002519D02*
X001970Y002519D01*
X001970Y002557D02*
X004675Y002557D01*
X004675Y002519D02*
X003583Y002519D01*
X003621Y002481D02*
X004675Y002481D01*
X004675Y002444D02*
X003636Y002444D01*
X003636Y002406D02*
X004675Y002406D01*
X004675Y002368D02*
X003636Y002368D01*
X003636Y002330D02*
X004675Y002330D01*
X004675Y002292D02*
X003636Y002292D01*
X004469Y002254D02*
X004675Y002254D01*
X004675Y002216D02*
X004507Y002216D01*
X004520Y002178D02*
X004675Y002178D01*
X004675Y002141D02*
X004520Y002141D01*
X004520Y002103D02*
X004675Y002103D01*
X004658Y002065D02*
X004520Y002065D01*
X004520Y002027D02*
X004639Y002027D01*
X004623Y001989D02*
X004520Y001989D01*
X004520Y001951D02*
X004607Y001951D01*
X004592Y001913D02*
X004520Y001913D01*
X004520Y001875D02*
X004580Y001875D01*
X004580Y001838D02*
X004520Y001838D01*
X004520Y001800D02*
X004580Y001800D01*
X004580Y001762D02*
X004520Y001762D01*
X004520Y001724D02*
X004580Y001724D01*
X004586Y001686D02*
X004520Y001686D01*
X004520Y001648D02*
X004601Y001648D01*
X004617Y001610D02*
X004520Y001610D01*
X004520Y001573D02*
X004633Y001573D01*
X004648Y001535D02*
X004520Y001535D01*
X004520Y001497D02*
X004675Y001497D01*
X004675Y001459D02*
X004520Y001459D01*
X004520Y001421D02*
X004675Y001421D01*
X004675Y001383D02*
X004520Y001383D01*
X004484Y001345D02*
X004675Y001345D01*
X005175Y001336D02*
X005175Y000962D01*
X007425Y000962D01*
X007425Y002542D01*
X006966Y002542D01*
X006933Y002510D01*
X006417Y002510D01*
X006373Y002554D01*
X006201Y002554D01*
X006061Y002693D01*
X006061Y002891D01*
X006201Y003031D01*
X006399Y003031D01*
X006425Y003005D01*
X006425Y003100D01*
X006417Y003100D01*
X006359Y003159D01*
X006359Y003517D01*
X006384Y003542D01*
X005175Y003542D01*
X005175Y003580D02*
X006359Y003580D01*
X006359Y003568D02*
X006384Y003542D01*
X006359Y003568D02*
X006359Y003926D01*
X006417Y003985D01*
X006425Y003985D01*
X006425Y004100D01*
X006417Y004100D01*
X006359Y004159D01*
X006359Y004517D01*
X006417Y004575D01*
X006425Y004575D01*
X006425Y005230D01*
X006383Y005273D01*
X006383Y006556D01*
X006441Y006614D01*
X006917Y006614D01*
X006926Y006606D01*
X007267Y006606D01*
X007267Y006800D01*
X007326Y006859D01*
X007675Y006859D01*
X007675Y007292D01*
X007858Y007292D01*
X007858Y007300D01*
X007916Y007359D01*
X008274Y007359D01*
X008333Y007300D01*
X008333Y006325D01*
X008808Y006325D01*
X008866Y006267D01*
X008866Y005909D01*
X008808Y005850D01*
X008800Y005850D01*
X008800Y005667D01*
X008366Y005667D01*
X008366Y005318D01*
X008363Y005314D01*
X008363Y000962D01*
X009130Y000962D01*
X009130Y009123D01*
X005675Y009123D01*
X005675Y007980D01*
X005300Y007980D01*
X005300Y005042D01*
X004925Y005042D01*
X004925Y004609D01*
X005149Y004609D01*
X005208Y004550D01*
X005208Y004531D01*
X005399Y004531D01*
X005539Y004391D01*
X005539Y004193D01*
X005399Y004054D01*
X005208Y004054D01*
X005208Y004035D01*
X005175Y004002D01*
X005175Y002249D01*
X005316Y002191D01*
X005448Y002058D01*
X005520Y001886D01*
X005520Y001699D01*
X005448Y001526D01*
X005316Y001394D01*
X005175Y001336D01*
X005198Y001345D02*
X005902Y001345D01*
X005957Y001323D02*
X006143Y001323D01*
X006316Y001394D01*
X006448Y001526D01*
X006520Y001699D01*
X006520Y001886D01*
X006448Y002058D01*
X006316Y002191D01*
X006143Y002262D01*
X005957Y002262D01*
X005784Y002191D01*
X005652Y002058D01*
X005580Y001886D01*
X005580Y001699D01*
X005652Y001526D01*
X005784Y001394D01*
X005957Y001323D01*
X005810Y001383D02*
X005290Y001383D01*
X005343Y001421D02*
X005757Y001421D01*
X005719Y001459D02*
X005381Y001459D01*
X005419Y001497D02*
X005681Y001497D01*
X005648Y001535D02*
X005452Y001535D01*
X005467Y001573D02*
X005633Y001573D01*
X005617Y001610D02*
X005483Y001610D01*
X005499Y001648D02*
X005601Y001648D01*
X005586Y001686D02*
X005514Y001686D01*
X005520Y001724D02*
X005580Y001724D01*
X005580Y001762D02*
X005520Y001762D01*
X005520Y001800D02*
X005580Y001800D01*
X005580Y001838D02*
X005520Y001838D01*
X005520Y001875D02*
X005580Y001875D01*
X005592Y001913D02*
X005508Y001913D01*
X005493Y001951D02*
X005607Y001951D01*
X005623Y001989D02*
X005477Y001989D01*
X005461Y002027D02*
X005639Y002027D01*
X005658Y002065D02*
X005442Y002065D01*
X005404Y002103D02*
X005696Y002103D01*
X005734Y002141D02*
X005366Y002141D01*
X005328Y002178D02*
X005772Y002178D01*
X005846Y002216D02*
X005254Y002216D01*
X005175Y002254D02*
X005938Y002254D01*
X006162Y002254D02*
X007425Y002254D01*
X007425Y002216D02*
X006254Y002216D01*
X006328Y002178D02*
X007425Y002178D01*
X007425Y002141D02*
X006366Y002141D01*
X006404Y002103D02*
X007425Y002103D01*
X007425Y002065D02*
X006442Y002065D01*
X006461Y002027D02*
X007425Y002027D01*
X007425Y001989D02*
X006477Y001989D01*
X006493Y001951D02*
X007425Y001951D01*
X007425Y001913D02*
X006508Y001913D01*
X006520Y001875D02*
X007425Y001875D01*
X007425Y001838D02*
X006520Y001838D01*
X006520Y001800D02*
X007425Y001800D01*
X007425Y001762D02*
X006520Y001762D01*
X006520Y001724D02*
X007425Y001724D01*
X007425Y001686D02*
X006514Y001686D01*
X006499Y001648D02*
X007425Y001648D01*
X007425Y001610D02*
X006483Y001610D01*
X006467Y001573D02*
X007425Y001573D01*
X007425Y001535D02*
X006452Y001535D01*
X006419Y001497D02*
X007425Y001497D01*
X007425Y001459D02*
X006381Y001459D01*
X006343Y001421D02*
X007425Y001421D01*
X007425Y001383D02*
X006290Y001383D01*
X006198Y001345D02*
X007425Y001345D01*
X007425Y001307D02*
X005175Y001307D01*
X005175Y001270D02*
X007425Y001270D01*
X007425Y001232D02*
X005175Y001232D01*
X005175Y001194D02*
X007425Y001194D01*
X007425Y001156D02*
X005175Y001156D01*
X005175Y001118D02*
X007425Y001118D01*
X007425Y001080D02*
X005175Y001080D01*
X005175Y001042D02*
X007425Y001042D01*
X007425Y001004D02*
X005175Y001004D01*
X005175Y000967D02*
X007425Y000967D01*
X008363Y000967D02*
X009130Y000967D01*
X009130Y001004D02*
X008363Y001004D01*
X008363Y001042D02*
X009130Y001042D01*
X009130Y001080D02*
X008363Y001080D01*
X008363Y001118D02*
X009130Y001118D01*
X009130Y001156D02*
X008363Y001156D01*
X008363Y001194D02*
X009130Y001194D01*
X009130Y001232D02*
X008363Y001232D01*
X008363Y001270D02*
X009130Y001270D01*
X009130Y001307D02*
X008363Y001307D01*
X008363Y001345D02*
X009130Y001345D01*
X009130Y001383D02*
X008363Y001383D01*
X008363Y001421D02*
X009130Y001421D01*
X009130Y001459D02*
X008363Y001459D01*
X008363Y001497D02*
X009130Y001497D01*
X009130Y001535D02*
X008363Y001535D01*
X008363Y001573D02*
X009130Y001573D01*
X009130Y001610D02*
X008363Y001610D01*
X008363Y001648D02*
X009130Y001648D01*
X009130Y001686D02*
X008363Y001686D01*
X008363Y001724D02*
X009130Y001724D01*
X009130Y001762D02*
X008363Y001762D01*
X008363Y001800D02*
X009130Y001800D01*
X009130Y001838D02*
X008363Y001838D01*
X008363Y001875D02*
X009130Y001875D01*
X009130Y001913D02*
X008363Y001913D01*
X008363Y001951D02*
X009130Y001951D01*
X009130Y001989D02*
X008363Y001989D01*
X008363Y002027D02*
X009130Y002027D01*
X009130Y002065D02*
X008363Y002065D01*
X008363Y002103D02*
X009130Y002103D01*
X009130Y002141D02*
X008363Y002141D01*
X008363Y002178D02*
X009130Y002178D01*
X009130Y002216D02*
X008363Y002216D01*
X008363Y002254D02*
X009130Y002254D01*
X009130Y002292D02*
X008363Y002292D01*
X008363Y002330D02*
X009130Y002330D01*
X009130Y002368D02*
X008363Y002368D01*
X008363Y002406D02*
X009130Y002406D01*
X009130Y002444D02*
X008363Y002444D01*
X008363Y002481D02*
X009130Y002481D01*
X009130Y002519D02*
X008363Y002519D01*
X008363Y002557D02*
X009130Y002557D01*
X009130Y002595D02*
X008363Y002595D01*
X008363Y002633D02*
X009130Y002633D01*
X009130Y002671D02*
X008363Y002671D01*
X008363Y002709D02*
X009130Y002709D01*
X009130Y002747D02*
X008363Y002747D01*
X008363Y002784D02*
X009130Y002784D01*
X009130Y002822D02*
X008363Y002822D01*
X008363Y002860D02*
X009130Y002860D01*
X009130Y002898D02*
X008363Y002898D01*
X008363Y002936D02*
X009130Y002936D01*
X009130Y002974D02*
X008363Y002974D01*
X008363Y003012D02*
X009130Y003012D01*
X009130Y003049D02*
X008363Y003049D01*
X008363Y003087D02*
X009130Y003087D01*
X009130Y003125D02*
X008363Y003125D01*
X008363Y003163D02*
X009130Y003163D01*
X009130Y003201D02*
X008363Y003201D01*
X008363Y003239D02*
X009130Y003239D01*
X009130Y003277D02*
X008363Y003277D01*
X008363Y003315D02*
X009130Y003315D01*
X009130Y003352D02*
X008363Y003352D01*
X008363Y003390D02*
X009130Y003390D01*
X009130Y003428D02*
X008363Y003428D01*
X008363Y003466D02*
X009130Y003466D01*
X009130Y003504D02*
X008363Y003504D01*
X008363Y003542D02*
X009130Y003542D01*
X009130Y003580D02*
X008363Y003580D01*
X008363Y003618D02*
X009130Y003618D01*
X009130Y003655D02*
X008363Y003655D01*
X008363Y003693D02*
X009130Y003693D01*
X009130Y003731D02*
X008363Y003731D01*
X008363Y003769D02*
X009130Y003769D01*
X009130Y003807D02*
X008363Y003807D01*
X008363Y003845D02*
X009130Y003845D01*
X009130Y003883D02*
X008363Y003883D01*
X008363Y003920D02*
X009130Y003920D01*
X009130Y003958D02*
X008363Y003958D01*
X008363Y003996D02*
X009130Y003996D01*
X009130Y004034D02*
X008363Y004034D01*
X008363Y004072D02*
X009130Y004072D01*
X009130Y004110D02*
X008363Y004110D01*
X008363Y004148D02*
X009130Y004148D01*
X009130Y004186D02*
X008363Y004186D01*
X008363Y004223D02*
X009130Y004223D01*
X009130Y004261D02*
X008363Y004261D01*
X008363Y004299D02*
X009130Y004299D01*
X009130Y004337D02*
X008363Y004337D01*
X008363Y004375D02*
X009130Y004375D01*
X009130Y004413D02*
X008363Y004413D01*
X008363Y004451D02*
X009130Y004451D01*
X009130Y004489D02*
X008363Y004489D01*
X008363Y004526D02*
X009130Y004526D01*
X009130Y004564D02*
X008363Y004564D01*
X008363Y004602D02*
X009130Y004602D01*
X009130Y004640D02*
X008363Y004640D01*
X008363Y004678D02*
X009130Y004678D01*
X009130Y004716D02*
X008363Y004716D01*
X008363Y004754D02*
X009130Y004754D01*
X009130Y004792D02*
X008363Y004792D01*
X008363Y004829D02*
X009130Y004829D01*
X009130Y004867D02*
X008363Y004867D01*
X008363Y004905D02*
X009130Y004905D01*
X009130Y004943D02*
X008363Y004943D01*
X008363Y004981D02*
X009130Y004981D01*
X009130Y005019D02*
X008363Y005019D01*
X008363Y005057D02*
X009130Y005057D01*
X009130Y005094D02*
X008363Y005094D01*
X008363Y005132D02*
X009130Y005132D01*
X009130Y005170D02*
X008363Y005170D01*
X008363Y005208D02*
X009130Y005208D01*
X009130Y005246D02*
X008363Y005246D01*
X008363Y005284D02*
X009130Y005284D01*
X009130Y005322D02*
X008366Y005322D01*
X008366Y005360D02*
X009130Y005360D01*
X009130Y005397D02*
X008366Y005397D01*
X008366Y005435D02*
X009130Y005435D01*
X009130Y005473D02*
X008366Y005473D01*
X008366Y005511D02*
X009130Y005511D01*
X009130Y005549D02*
X008366Y005549D01*
X008366Y005587D02*
X009130Y005587D01*
X009130Y005625D02*
X008366Y005625D01*
X008366Y005663D02*
X009130Y005663D01*
X009130Y005700D02*
X008800Y005700D01*
X008800Y005738D02*
X009130Y005738D01*
X009130Y005776D02*
X008800Y005776D01*
X008800Y005814D02*
X009130Y005814D01*
X009130Y005852D02*
X008810Y005852D01*
X008847Y005890D02*
X009130Y005890D01*
X009130Y005928D02*
X008866Y005928D01*
X008866Y005965D02*
X009130Y005965D01*
X009130Y006003D02*
X008866Y006003D01*
X008866Y006041D02*
X009130Y006041D01*
X009130Y006079D02*
X008866Y006079D01*
X008866Y006117D02*
X009130Y006117D01*
X009130Y006155D02*
X008866Y006155D01*
X008866Y006193D02*
X009130Y006193D01*
X009130Y006231D02*
X008866Y006231D01*
X008864Y006268D02*
X009130Y006268D01*
X009130Y006306D02*
X008827Y006306D01*
X009130Y006344D02*
X008333Y006344D01*
X008333Y006382D02*
X009130Y006382D01*
X009130Y006420D02*
X008333Y006420D01*
X008333Y006458D02*
X009130Y006458D01*
X009130Y006496D02*
X008333Y006496D01*
X008333Y006534D02*
X009130Y006534D01*
X009130Y006571D02*
X008333Y006571D01*
X008333Y006609D02*
X009130Y006609D01*
X009130Y006647D02*
X008333Y006647D01*
X008333Y006685D02*
X009130Y006685D01*
X009130Y006723D02*
X008333Y006723D01*
X008333Y006761D02*
X009130Y006761D01*
X009130Y006799D02*
X008333Y006799D01*
X008333Y006837D02*
X009130Y006837D01*
X009130Y006874D02*
X008333Y006874D01*
X008333Y006912D02*
X009130Y006912D01*
X009130Y006950D02*
X008333Y006950D01*
X008333Y006988D02*
X009130Y006988D01*
X009130Y007026D02*
X008333Y007026D01*
X008333Y007064D02*
X009130Y007064D01*
X009130Y007102D02*
X008333Y007102D01*
X008333Y007139D02*
X009130Y007139D01*
X009130Y007177D02*
X008333Y007177D01*
X008333Y007215D02*
X009130Y007215D01*
X009130Y007253D02*
X008333Y007253D01*
X008333Y007291D02*
X009130Y007291D01*
X009130Y007329D02*
X008304Y007329D01*
X007886Y007329D02*
X005300Y007329D01*
X005300Y007367D02*
X009130Y007367D01*
X009130Y007405D02*
X005300Y007405D01*
X005300Y007442D02*
X009130Y007442D01*
X009130Y007480D02*
X005300Y007480D01*
X005300Y007518D02*
X009130Y007518D01*
X009130Y007556D02*
X005300Y007556D01*
X005300Y007594D02*
X009130Y007594D01*
X009130Y007632D02*
X005300Y007632D01*
X005300Y007670D02*
X009130Y007670D01*
X009130Y007708D02*
X005300Y007708D01*
X005300Y007745D02*
X009130Y007745D01*
X009130Y007783D02*
X005300Y007783D01*
X005300Y007821D02*
X009130Y007821D01*
X009130Y007859D02*
X005300Y007859D01*
X005300Y007897D02*
X009130Y007897D01*
X009130Y007935D02*
X005300Y007935D01*
X005300Y007973D02*
X009130Y007973D01*
X009130Y008010D02*
X005675Y008010D01*
X005675Y008048D02*
X009130Y008048D01*
X009130Y008086D02*
X005675Y008086D01*
X005675Y008124D02*
X009130Y008124D01*
X009130Y008162D02*
X005675Y008162D01*
X005675Y008200D02*
X009130Y008200D01*
X009130Y008238D02*
X005675Y008238D01*
X005675Y008276D02*
X009130Y008276D01*
X009130Y008313D02*
X005675Y008313D01*
X005675Y008351D02*
X009130Y008351D01*
X009130Y008389D02*
X005675Y008389D01*
X005675Y008427D02*
X009130Y008427D01*
X009130Y008465D02*
X005675Y008465D01*
X005675Y008503D02*
X009130Y008503D01*
X009130Y008541D02*
X005675Y008541D01*
X005675Y008579D02*
X009130Y008579D01*
X009130Y008616D02*
X005675Y008616D01*
X005675Y008654D02*
X009130Y008654D01*
X009130Y008692D02*
X005675Y008692D01*
X005675Y008730D02*
X009130Y008730D01*
X009130Y008768D02*
X005675Y008768D01*
X005675Y008806D02*
X009130Y008806D01*
X009130Y008844D02*
X005675Y008844D01*
X005675Y008881D02*
X009130Y008881D01*
X009130Y008919D02*
X005675Y008919D01*
X005675Y008957D02*
X009130Y008957D01*
X009130Y008995D02*
X005675Y008995D01*
X005675Y009033D02*
X009130Y009033D01*
X009130Y009071D02*
X005675Y009071D01*
X005675Y009109D02*
X009130Y009109D01*
X007675Y007291D02*
X005300Y007291D01*
X005300Y007253D02*
X007675Y007253D01*
X007675Y007215D02*
X005300Y007215D01*
X005300Y007177D02*
X007675Y007177D01*
X007675Y007139D02*
X005300Y007139D01*
X005300Y007102D02*
X007675Y007102D01*
X007675Y007064D02*
X005300Y007064D01*
X005300Y007026D02*
X007675Y007026D01*
X007675Y006988D02*
X005300Y006988D01*
X005300Y006950D02*
X007675Y006950D01*
X007675Y006912D02*
X005300Y006912D01*
X005300Y006874D02*
X007675Y006874D01*
X007304Y006837D02*
X005300Y006837D01*
X005300Y006799D02*
X007267Y006799D01*
X007267Y006761D02*
X005300Y006761D01*
X005300Y006723D02*
X007267Y006723D01*
X007267Y006685D02*
X005300Y006685D01*
X005300Y006647D02*
X007267Y006647D01*
X007267Y006609D02*
X006922Y006609D01*
X006436Y006609D02*
X005300Y006609D01*
X005300Y006571D02*
X006398Y006571D01*
X006383Y006534D02*
X005300Y006534D01*
X005300Y006496D02*
X006383Y006496D01*
X006383Y006458D02*
X005300Y006458D01*
X005300Y006420D02*
X006383Y006420D01*
X006383Y006382D02*
X005300Y006382D01*
X005300Y006344D02*
X006383Y006344D01*
X006383Y006306D02*
X005300Y006306D01*
X005300Y006268D02*
X006383Y006268D01*
X006383Y006231D02*
X005300Y006231D01*
X005300Y006193D02*
X006383Y006193D01*
X006383Y006155D02*
X005300Y006155D01*
X005300Y006117D02*
X006383Y006117D01*
X006383Y006079D02*
X005300Y006079D01*
X005300Y006041D02*
X006383Y006041D01*
X006383Y006003D02*
X005300Y006003D01*
X005300Y005965D02*
X006383Y005965D01*
X006383Y005928D02*
X005300Y005928D01*
X005300Y005890D02*
X006383Y005890D01*
X006383Y005852D02*
X005300Y005852D01*
X005300Y005814D02*
X006383Y005814D01*
X006383Y005776D02*
X005300Y005776D01*
X005300Y005738D02*
X006383Y005738D01*
X006383Y005700D02*
X005300Y005700D01*
X005300Y005663D02*
X006383Y005663D01*
X006383Y005625D02*
X005300Y005625D01*
X005300Y005587D02*
X006383Y005587D01*
X006383Y005549D02*
X005300Y005549D01*
X005300Y005511D02*
X006383Y005511D01*
X006383Y005473D02*
X005300Y005473D01*
X005300Y005435D02*
X006383Y005435D01*
X006383Y005397D02*
X005300Y005397D01*
X005300Y005360D02*
X006383Y005360D01*
X006383Y005322D02*
X005300Y005322D01*
X005300Y005284D02*
X006383Y005284D01*
X006409Y005246D02*
X005300Y005246D01*
X005300Y005208D02*
X006425Y005208D01*
X006425Y005170D02*
X005300Y005170D01*
X005300Y005132D02*
X006425Y005132D01*
X006425Y005094D02*
X005300Y005094D01*
X005300Y005057D02*
X006425Y005057D01*
X006425Y005019D02*
X004925Y005019D01*
X004925Y004981D02*
X006425Y004981D01*
X006425Y004943D02*
X004925Y004943D01*
X004925Y004905D02*
X006425Y004905D01*
X006425Y004867D02*
X004925Y004867D01*
X004925Y004829D02*
X006425Y004829D01*
X006425Y004792D02*
X004925Y004792D01*
X004925Y004754D02*
X006425Y004754D01*
X006425Y004716D02*
X004925Y004716D01*
X004925Y004678D02*
X006425Y004678D01*
X006425Y004640D02*
X004925Y004640D01*
X005156Y004602D02*
X006425Y004602D01*
X006406Y004564D02*
X005194Y004564D01*
X005404Y004526D02*
X006368Y004526D01*
X006359Y004489D02*
X005441Y004489D01*
X005479Y004451D02*
X006359Y004451D01*
X006359Y004413D02*
X005517Y004413D01*
X005539Y004375D02*
X006359Y004375D01*
X006359Y004337D02*
X005539Y004337D01*
X005539Y004299D02*
X006359Y004299D01*
X006359Y004261D02*
X005539Y004261D01*
X005539Y004223D02*
X006359Y004223D01*
X006359Y004186D02*
X005531Y004186D01*
X005493Y004148D02*
X006370Y004148D01*
X006407Y004110D02*
X005455Y004110D01*
X005417Y004072D02*
X006425Y004072D01*
X006425Y004034D02*
X005207Y004034D01*
X005175Y003996D02*
X006425Y003996D01*
X006391Y003958D02*
X005175Y003958D01*
X005175Y003920D02*
X006359Y003920D01*
X006359Y003883D02*
X005175Y003883D01*
X005175Y003845D02*
X006359Y003845D01*
X006359Y003807D02*
X005175Y003807D01*
X005175Y003769D02*
X006359Y003769D01*
X006359Y003731D02*
X005175Y003731D01*
X005175Y003693D02*
X006359Y003693D01*
X006359Y003655D02*
X005175Y003655D01*
X005175Y003618D02*
X006359Y003618D01*
X006359Y003504D02*
X005175Y003504D01*
X005175Y003466D02*
X006359Y003466D01*
X006359Y003428D02*
X005175Y003428D01*
X005175Y003390D02*
X006359Y003390D01*
X006359Y003352D02*
X005175Y003352D01*
X005175Y003315D02*
X006359Y003315D01*
X006359Y003277D02*
X005175Y003277D01*
X005175Y003239D02*
X006359Y003239D01*
X006359Y003201D02*
X005175Y003201D01*
X005175Y003163D02*
X006359Y003163D01*
X006392Y003125D02*
X005175Y003125D01*
X005175Y003087D02*
X006425Y003087D01*
X006425Y003049D02*
X005175Y003049D01*
X005175Y003012D02*
X006182Y003012D01*
X006144Y002974D02*
X005175Y002974D01*
X005175Y002936D02*
X006106Y002936D01*
X006068Y002898D02*
X005175Y002898D01*
X005175Y002860D02*
X006061Y002860D01*
X006061Y002822D02*
X005175Y002822D01*
X005175Y002784D02*
X006061Y002784D01*
X006061Y002747D02*
X005175Y002747D01*
X005175Y002709D02*
X006061Y002709D01*
X006084Y002671D02*
X005175Y002671D01*
X005175Y002633D02*
X006122Y002633D01*
X006160Y002595D02*
X005175Y002595D01*
X005175Y002557D02*
X006198Y002557D01*
X006407Y002519D02*
X005175Y002519D01*
X005175Y002481D02*
X007425Y002481D01*
X007425Y002444D02*
X005175Y002444D01*
X005175Y002406D02*
X007425Y002406D01*
X007425Y002368D02*
X005175Y002368D01*
X005175Y002330D02*
X007425Y002330D01*
X007425Y002292D02*
X005175Y002292D01*
X004675Y002595D02*
X001970Y002595D01*
X001970Y002633D02*
X004675Y002633D01*
X004675Y002671D02*
X001970Y002671D01*
X001970Y002709D02*
X004675Y002709D01*
X004675Y002747D02*
X001970Y002747D01*
X001970Y002784D02*
X004675Y002784D01*
X004675Y002822D02*
X001970Y002822D01*
X001970Y002860D02*
X004675Y002860D01*
X004675Y002898D02*
X001970Y002898D01*
X001970Y002936D02*
X004675Y002936D01*
X004675Y002974D02*
X001970Y002974D01*
X001970Y003012D02*
X004675Y003012D01*
X004675Y003049D02*
X001970Y003049D01*
X001970Y003087D02*
X004675Y003087D01*
X004675Y003125D02*
X001970Y003125D01*
X001970Y003163D02*
X004675Y003163D01*
X004675Y003201D02*
X001970Y003201D01*
X001970Y003239D02*
X004675Y003239D01*
X004675Y003277D02*
X001970Y003277D01*
X001970Y003315D02*
X004675Y003315D01*
X004675Y003352D02*
X001970Y003352D01*
X001970Y003390D02*
X004675Y003390D01*
X004675Y003428D02*
X001970Y003428D01*
X001970Y003466D02*
X004675Y003466D01*
X004675Y003504D02*
X001970Y003504D01*
X001970Y003542D02*
X004675Y003542D01*
X004675Y003580D02*
X001970Y003580D01*
X001970Y003618D02*
X004675Y003618D01*
X004675Y003655D02*
X001970Y003655D01*
X001970Y003693D02*
X004675Y003693D01*
X004675Y003731D02*
X001970Y003731D01*
X001970Y003769D02*
X004675Y003769D01*
X004675Y003807D02*
X001970Y003807D01*
X001970Y003845D02*
X004675Y003845D01*
X004675Y003883D02*
X001970Y003883D01*
X001970Y003920D02*
X004675Y003920D01*
X004675Y003958D02*
X003429Y003958D01*
X003467Y003996D02*
X004675Y003996D01*
X004675Y004034D02*
X003504Y004034D01*
X003675Y004072D02*
X004645Y004072D01*
X004608Y004110D02*
X003675Y004110D01*
X003675Y004148D02*
X004570Y004148D01*
X004550Y004186D02*
X003675Y004186D01*
X003675Y004223D02*
X004550Y004223D01*
X004550Y004261D02*
X003675Y004261D01*
X003675Y004299D02*
X004550Y004299D01*
X004550Y004337D02*
X003675Y004337D01*
X003675Y004375D02*
X004550Y004375D01*
X004550Y004413D02*
X003675Y004413D01*
X003675Y004451D02*
X004550Y004451D01*
X004188Y004489D02*
X003675Y004489D01*
X003675Y004526D02*
X004150Y004526D01*
X004142Y004564D02*
X003675Y004564D01*
X003675Y004602D02*
X004142Y004602D01*
X004142Y004640D02*
X003675Y004640D01*
X003675Y004678D02*
X004142Y004678D01*
X004142Y004716D02*
X003675Y004716D01*
X003675Y004754D02*
X004142Y004754D01*
X004142Y004792D02*
X003675Y004792D01*
X003675Y004829D02*
X004142Y004829D01*
X004142Y004867D02*
X003675Y004867D01*
X003675Y004905D02*
X004142Y004905D01*
X004142Y004943D02*
X003725Y004943D01*
X003763Y004981D02*
X004142Y004981D01*
X004142Y005019D02*
X003801Y005019D01*
X003838Y005057D02*
X004149Y005057D01*
X004187Y005094D02*
X003876Y005094D01*
X003914Y005132D02*
X004230Y005132D01*
X004230Y005170D02*
X003952Y005170D01*
X003990Y005208D02*
X004254Y005208D01*
X004292Y005246D02*
X004028Y005246D01*
X004066Y005284D02*
X004330Y005284D01*
X004368Y005322D02*
X004104Y005322D01*
X004141Y005360D02*
X004406Y005360D01*
X004443Y005397D02*
X004179Y005397D01*
X004217Y005435D02*
X004481Y005435D01*
X004519Y005473D02*
X004255Y005473D01*
X004293Y005511D02*
X004557Y005511D01*
X004595Y005549D02*
X004331Y005549D01*
X004369Y005587D02*
X004679Y005587D01*
X004671Y005738D02*
X004520Y005738D01*
X004482Y005700D02*
X005050Y005700D01*
X005050Y005663D02*
X004444Y005663D01*
X004406Y005625D02*
X005050Y005625D01*
X005113Y006105D02*
X003613Y006105D01*
X003613Y005417D01*
X002988Y005417D01*
X002988Y006230D01*
X005113Y006230D01*
X005113Y006105D01*
X005113Y006117D02*
X002988Y006117D01*
X002988Y006155D02*
X005113Y006155D01*
X005113Y006193D02*
X002988Y006193D01*
X002988Y006079D02*
X003613Y006079D01*
X003613Y006041D02*
X002988Y006041D01*
X002988Y006003D02*
X003613Y006003D01*
X003613Y005965D02*
X002988Y005965D01*
X002988Y005928D02*
X003613Y005928D01*
X003613Y005890D02*
X002988Y005890D01*
X002988Y005852D02*
X003613Y005852D01*
X003613Y005814D02*
X002988Y005814D01*
X002988Y005776D02*
X003613Y005776D01*
X003613Y005738D02*
X002988Y005738D01*
X002988Y005700D02*
X003613Y005700D01*
X003613Y005663D02*
X002988Y005663D01*
X002988Y005625D02*
X003613Y005625D01*
X003613Y005587D02*
X002988Y005587D01*
X002988Y005549D02*
X003613Y005549D01*
X003613Y005511D02*
X002988Y005511D01*
X002988Y005473D02*
X003613Y005473D01*
X003613Y005435D02*
X002988Y005435D01*
X001970Y006355D02*
X001970Y009123D01*
X005425Y009123D01*
X005425Y008292D01*
X005113Y008292D01*
X005113Y006870D01*
X004683Y006870D01*
X004624Y006812D01*
X004624Y006552D01*
X004683Y006494D01*
X005113Y006494D01*
X005113Y006359D01*
X004683Y006359D01*
X004679Y006355D01*
X001970Y006355D01*
X001970Y006382D02*
X005113Y006382D01*
X005113Y006420D02*
X001970Y006420D01*
X001970Y006458D02*
X005113Y006458D01*
X005113Y006874D02*
X001970Y006874D01*
X001970Y006837D02*
X004649Y006837D01*
X004624Y006799D02*
X001970Y006799D01*
X001970Y006761D02*
X004624Y006761D01*
X004624Y006723D02*
X001970Y006723D01*
X001970Y006685D02*
X004624Y006685D01*
X004624Y006647D02*
X001970Y006647D01*
X001970Y006609D02*
X004624Y006609D01*
X004624Y006571D02*
X001970Y006571D01*
X001970Y006534D02*
X004643Y006534D01*
X004681Y006496D02*
X001970Y006496D01*
X001970Y006912D02*
X005113Y006912D01*
X005113Y006950D02*
X001970Y006950D01*
X001970Y006988D02*
X005113Y006988D01*
X005113Y007026D02*
X001970Y007026D01*
X001970Y007064D02*
X005113Y007064D01*
X005113Y007102D02*
X001970Y007102D01*
X001970Y007139D02*
X005113Y007139D01*
X005113Y007177D02*
X001970Y007177D01*
X001970Y007215D02*
X005113Y007215D01*
X005113Y007253D02*
X001970Y007253D01*
X001970Y007291D02*
X005113Y007291D01*
X005113Y007329D02*
X001970Y007329D01*
X001970Y007367D02*
X005113Y007367D01*
X005113Y007405D02*
X001970Y007405D01*
X001970Y007442D02*
X005113Y007442D01*
X005113Y007480D02*
X001970Y007480D01*
X001970Y007518D02*
X005113Y007518D01*
X005113Y007556D02*
X001970Y007556D01*
X001970Y007594D02*
X005113Y007594D01*
X005113Y007632D02*
X001970Y007632D01*
X001970Y007670D02*
X005113Y007670D01*
X005113Y007708D02*
X001970Y007708D01*
X001970Y007745D02*
X005113Y007745D01*
X005113Y007783D02*
X001970Y007783D01*
X001970Y007821D02*
X005113Y007821D01*
X005113Y007859D02*
X001970Y007859D01*
X001970Y007897D02*
X005113Y007897D01*
X005113Y007935D02*
X001970Y007935D01*
X001970Y007973D02*
X005113Y007973D01*
X005113Y008010D02*
X001970Y008010D01*
X001970Y008048D02*
X005113Y008048D01*
X005113Y008086D02*
X001970Y008086D01*
X001970Y008124D02*
X005113Y008124D01*
X005113Y008162D02*
X001970Y008162D01*
X001970Y008200D02*
X005113Y008200D01*
X005113Y008238D02*
X001970Y008238D01*
X001970Y008276D02*
X005113Y008276D01*
X005425Y008313D02*
X001970Y008313D01*
X001970Y008351D02*
X005425Y008351D01*
X005425Y008389D02*
X001970Y008389D01*
X001970Y008427D02*
X005425Y008427D01*
X005425Y008465D02*
X001970Y008465D01*
X001970Y008503D02*
X005425Y008503D01*
X005425Y008541D02*
X001970Y008541D01*
X001970Y008579D02*
X005425Y008579D01*
X005425Y008616D02*
X001970Y008616D01*
X001970Y008654D02*
X005425Y008654D01*
X005425Y008692D02*
X001970Y008692D01*
X001970Y008730D02*
X005425Y008730D01*
X005425Y008768D02*
X001970Y008768D01*
X001970Y008806D02*
X005425Y008806D01*
X005425Y008844D02*
X001970Y008844D01*
X001970Y008881D02*
X005425Y008881D01*
X005425Y008919D02*
X001970Y008919D01*
X001970Y008957D02*
X005425Y008957D01*
X005425Y008995D02*
X001970Y008995D01*
X001970Y009033D02*
X005425Y009033D01*
X005425Y009071D02*
X001970Y009071D01*
X001970Y009109D02*
X005425Y009109D01*
X003096Y004034D02*
X001970Y004034D01*
X001970Y003996D02*
X003133Y003996D01*
X003171Y003958D02*
X001970Y003958D01*
X006418Y003012D02*
X006425Y003012D01*
X006943Y002519D02*
X007425Y002519D01*
D20*
X006675Y002747D02*
X006380Y002747D01*
X006300Y002792D01*
X007050Y004292D02*
X007005Y004338D01*
X006675Y004338D01*
X007425Y004667D02*
X007425Y004778D01*
X007440Y004792D01*
X005300Y004292D02*
X004970Y004292D01*
X004380Y004792D02*
X004380Y005122D01*
X004675Y005417D01*
X004906Y005417D01*
X004921Y005403D01*
X004921Y005914D02*
X004485Y005914D01*
X003738Y005167D01*
X003658Y005088D01*
X003300Y005088D01*
X003255Y005042D01*
X002925Y005042D01*
X003300Y004497D02*
X003300Y004167D01*
X004175Y002792D02*
X004505Y002792D01*
X004550Y002792D01*
X004505Y002792D01*
D21*
X004175Y002792D03*
X003300Y004167D03*
X002925Y005042D03*
X005300Y004292D03*
X006300Y002792D03*
X007050Y004292D03*
D22*
X005925Y003792D03*
X005925Y003292D03*
X007800Y001542D03*
X006300Y007167D03*
X006300Y007667D03*
D23*
X005410Y006682D02*
X005550Y006542D01*
X005410Y006682D02*
X004921Y006682D01*
X006679Y006426D02*
X007505Y006426D01*
X007505Y006542D01*
X007550Y006088D02*
X008050Y006088D01*
X008550Y006088D01*
X008095Y006542D02*
X008095Y006997D01*
X008050Y007042D01*
X008095Y007042D01*
X007550Y006088D02*
X007377Y005914D01*
X006679Y005914D01*
X006679Y005658D02*
X007389Y005658D01*
X007550Y005497D01*
X007440Y005387D01*
X007440Y004792D01*
X007050Y004792D02*
X006720Y004792D01*
X006675Y004747D01*
X006675Y004338D01*
X007050Y004792D02*
X007050Y005355D01*
X007002Y005403D01*
X006679Y005403D01*
X007550Y005497D02*
X008050Y005497D01*
X006675Y003747D02*
X006675Y003338D01*
D24*
X007425Y003167D02*
X007550Y003042D01*
X007800Y002792D01*
X007800Y002167D01*
X007800Y001917D01*
X007800Y001542D01*
X007425Y003167D02*
X007425Y004292D01*
X007425Y004667D01*
D25*
X004050Y001792D02*
X003675Y001792D01*
X003300Y002167D01*
X003300Y002234D01*
M02*
