G75*
G70*
%OFA0B0*%
%FSLAX24Y24*%
%IPPOS*%
%LPD*%
%AMOC8*
5,1,8,0,0,1.08239X$1,22.5*
%
%ADD10R,0.0740X0.0740*%
%ADD11C,0.0740*%
%ADD12C,0.0278*%
%ADD13C,0.0100*%
%ADD14C,0.0039*%
%ADD15C,0.0357*%
%ADD16C,0.0240*%
D10*
X004050Y001792D03*
D11*
X005050Y001792D03*
X006050Y001792D03*
X007050Y001792D03*
X006050Y008792D03*
X005050Y008792D03*
D12*
X002925Y005042D03*
X003300Y004167D03*
X004175Y002792D03*
X005300Y004292D03*
X006300Y002792D03*
X007050Y004292D03*
D13*
X005300Y004292D01*
X006300Y002792D02*
X004175Y002792D01*
X003425Y002417D02*
X005675Y002417D01*
X006050Y002042D01*
X006050Y001792D01*
X005050Y001792D02*
X005050Y001417D01*
X004675Y001042D01*
X003175Y001042D01*
X002925Y001292D01*
X002925Y005042D01*
X003300Y004167D02*
X003300Y002542D01*
X003425Y002417D01*
D14*
X001970Y000962D02*
X001970Y009123D01*
X004660Y009123D01*
X004618Y009081D01*
X004540Y008894D01*
X004540Y008691D01*
X004618Y008504D01*
X004761Y008360D01*
X004949Y008283D01*
X005151Y008283D01*
X005339Y008360D01*
X005482Y008504D01*
X005560Y008691D01*
X005560Y008894D01*
X005482Y009081D01*
X005440Y009123D01*
X009130Y009123D01*
X009130Y000962D01*
X007837Y000962D01*
X008020Y001145D01*
X008060Y001241D01*
X008060Y001352D01*
X008070Y001362D01*
X008118Y001479D01*
X008118Y001606D01*
X008070Y001723D01*
X007980Y001812D01*
X007863Y001860D01*
X007737Y001860D01*
X007620Y001812D01*
X007530Y001723D01*
X007482Y001606D01*
X007482Y001479D01*
X007522Y001382D01*
X007442Y001302D01*
X006658Y001302D01*
X006469Y001491D01*
X006482Y001504D01*
X006560Y001691D01*
X006560Y001894D01*
X006482Y002081D01*
X006339Y002224D01*
X006151Y002302D01*
X006059Y002302D01*
X005758Y002603D01*
X006095Y002603D01*
X006142Y002556D01*
X006245Y002514D01*
X006355Y002514D01*
X006458Y002556D01*
X006536Y002634D01*
X006579Y002737D01*
X006579Y002848D01*
X006536Y002950D01*
X006458Y003029D01*
X006355Y003071D01*
X006245Y003071D01*
X006142Y003029D01*
X006095Y002982D01*
X004380Y002982D01*
X004333Y003029D01*
X004230Y003071D01*
X004120Y003071D01*
X004017Y003029D01*
X003939Y002950D01*
X003896Y002848D01*
X003896Y002737D01*
X003939Y002634D01*
X003966Y002607D01*
X003504Y002607D01*
X003490Y002621D01*
X003490Y003963D01*
X003536Y004009D01*
X003579Y004112D01*
X003579Y004223D01*
X003536Y004325D01*
X003458Y004404D01*
X003355Y004446D01*
X003245Y004446D01*
X003142Y004404D01*
X003115Y004376D01*
X003115Y004838D01*
X003161Y004884D01*
X003204Y004987D01*
X003204Y005098D01*
X003161Y005200D01*
X003083Y005279D01*
X002980Y005321D01*
X002870Y005321D01*
X002767Y005279D01*
X002689Y005200D01*
X002646Y005098D01*
X002646Y004987D01*
X002689Y004884D01*
X002735Y004838D01*
X002735Y001214D01*
X002846Y001103D01*
X002987Y000962D01*
X001970Y000962D01*
X001970Y000967D02*
X002982Y000967D01*
X002945Y001004D02*
X001970Y001004D01*
X001970Y001042D02*
X002907Y001042D01*
X002869Y001080D02*
X001970Y001080D01*
X001970Y001118D02*
X002831Y001118D01*
X002793Y001156D02*
X001970Y001156D01*
X001970Y001194D02*
X002755Y001194D01*
X002735Y001232D02*
X001970Y001232D01*
X001970Y001270D02*
X002735Y001270D01*
X002735Y001307D02*
X001970Y001307D01*
X001970Y001345D02*
X002735Y001345D01*
X002735Y001383D02*
X001970Y001383D01*
X001970Y001421D02*
X002735Y001421D01*
X002735Y001459D02*
X001970Y001459D01*
X001970Y001497D02*
X002735Y001497D01*
X002735Y001535D02*
X001970Y001535D01*
X001970Y001573D02*
X002735Y001573D01*
X002735Y001610D02*
X001970Y001610D01*
X001970Y001648D02*
X002735Y001648D01*
X002735Y001686D02*
X001970Y001686D01*
X001970Y001724D02*
X002735Y001724D01*
X002735Y001762D02*
X001970Y001762D01*
X001970Y001800D02*
X002735Y001800D01*
X002735Y001838D02*
X001970Y001838D01*
X001970Y001875D02*
X002735Y001875D01*
X002735Y001913D02*
X001970Y001913D01*
X001970Y001951D02*
X002735Y001951D01*
X002735Y001989D02*
X001970Y001989D01*
X001970Y002027D02*
X002735Y002027D01*
X002735Y002065D02*
X001970Y002065D01*
X001970Y002103D02*
X002735Y002103D01*
X002735Y002141D02*
X001970Y002141D01*
X001970Y002178D02*
X002735Y002178D01*
X002735Y002216D02*
X001970Y002216D01*
X001970Y002254D02*
X002735Y002254D01*
X002735Y002292D02*
X001970Y002292D01*
X001970Y002330D02*
X002735Y002330D01*
X002735Y002368D02*
X001970Y002368D01*
X001970Y002406D02*
X002735Y002406D01*
X002735Y002444D02*
X001970Y002444D01*
X001970Y002481D02*
X002735Y002481D01*
X002735Y002519D02*
X001970Y002519D01*
X001970Y002557D02*
X002735Y002557D01*
X002735Y002595D02*
X001970Y002595D01*
X001970Y002633D02*
X002735Y002633D01*
X002735Y002671D02*
X001970Y002671D01*
X001970Y002709D02*
X002735Y002709D01*
X002735Y002747D02*
X001970Y002747D01*
X001970Y002784D02*
X002735Y002784D01*
X002735Y002822D02*
X001970Y002822D01*
X001970Y002860D02*
X002735Y002860D01*
X002735Y002898D02*
X001970Y002898D01*
X001970Y002936D02*
X002735Y002936D01*
X002735Y002974D02*
X001970Y002974D01*
X001970Y003012D02*
X002735Y003012D01*
X002735Y003049D02*
X001970Y003049D01*
X001970Y003087D02*
X002735Y003087D01*
X002735Y003125D02*
X001970Y003125D01*
X001970Y003163D02*
X002735Y003163D01*
X002735Y003201D02*
X001970Y003201D01*
X001970Y003239D02*
X002735Y003239D01*
X002735Y003277D02*
X001970Y003277D01*
X001970Y003315D02*
X002735Y003315D01*
X002735Y003352D02*
X001970Y003352D01*
X001970Y003390D02*
X002735Y003390D01*
X002735Y003428D02*
X001970Y003428D01*
X001970Y003466D02*
X002735Y003466D01*
X002735Y003504D02*
X001970Y003504D01*
X001970Y003542D02*
X002735Y003542D01*
X002735Y003580D02*
X001970Y003580D01*
X001970Y003618D02*
X002735Y003618D01*
X002735Y003655D02*
X001970Y003655D01*
X001970Y003693D02*
X002735Y003693D01*
X002735Y003731D02*
X001970Y003731D01*
X001970Y003769D02*
X002735Y003769D01*
X002735Y003807D02*
X001970Y003807D01*
X001970Y003845D02*
X002735Y003845D01*
X002735Y003883D02*
X001970Y003883D01*
X001970Y003920D02*
X002735Y003920D01*
X002735Y003958D02*
X001970Y003958D01*
X001970Y003996D02*
X002735Y003996D01*
X002735Y004034D02*
X001970Y004034D01*
X001970Y004072D02*
X002735Y004072D01*
X002735Y004110D02*
X001970Y004110D01*
X001970Y004148D02*
X002735Y004148D01*
X002735Y004186D02*
X001970Y004186D01*
X001970Y004223D02*
X002735Y004223D01*
X002735Y004261D02*
X001970Y004261D01*
X001970Y004299D02*
X002735Y004299D01*
X002735Y004337D02*
X001970Y004337D01*
X001970Y004375D02*
X002735Y004375D01*
X002735Y004413D02*
X001970Y004413D01*
X001970Y004451D02*
X002735Y004451D01*
X002735Y004489D02*
X001970Y004489D01*
X001970Y004526D02*
X002735Y004526D01*
X002735Y004564D02*
X001970Y004564D01*
X001970Y004602D02*
X002735Y004602D01*
X002735Y004640D02*
X001970Y004640D01*
X001970Y004678D02*
X002735Y004678D01*
X002735Y004716D02*
X001970Y004716D01*
X001970Y004754D02*
X002735Y004754D01*
X002735Y004792D02*
X001970Y004792D01*
X001970Y004829D02*
X002735Y004829D01*
X002706Y004867D02*
X001970Y004867D01*
X001970Y004905D02*
X002680Y004905D01*
X002664Y004943D02*
X001970Y004943D01*
X001970Y004981D02*
X002649Y004981D01*
X002646Y005019D02*
X001970Y005019D01*
X001970Y005057D02*
X002646Y005057D01*
X002646Y005094D02*
X001970Y005094D01*
X001970Y005132D02*
X002661Y005132D01*
X002676Y005170D02*
X001970Y005170D01*
X001970Y005208D02*
X002697Y005208D01*
X002734Y005246D02*
X001970Y005246D01*
X001970Y005284D02*
X002780Y005284D01*
X003070Y005284D02*
X009130Y005284D01*
X009130Y005322D02*
X001970Y005322D01*
X001970Y005360D02*
X009130Y005360D01*
X009130Y005397D02*
X001970Y005397D01*
X001970Y005435D02*
X009130Y005435D01*
X009130Y005473D02*
X001970Y005473D01*
X001970Y005511D02*
X009130Y005511D01*
X009130Y005549D02*
X001970Y005549D01*
X001970Y005587D02*
X009130Y005587D01*
X009130Y005625D02*
X001970Y005625D01*
X001970Y005663D02*
X009130Y005663D01*
X009130Y005700D02*
X001970Y005700D01*
X001970Y005738D02*
X009130Y005738D01*
X009130Y005776D02*
X001970Y005776D01*
X001970Y005814D02*
X009130Y005814D01*
X009130Y005852D02*
X001970Y005852D01*
X001970Y005890D02*
X009130Y005890D01*
X009130Y005928D02*
X001970Y005928D01*
X001970Y005965D02*
X009130Y005965D01*
X009130Y006003D02*
X001970Y006003D01*
X001970Y006041D02*
X009130Y006041D01*
X009130Y006079D02*
X001970Y006079D01*
X001970Y006117D02*
X009130Y006117D01*
X009130Y006155D02*
X001970Y006155D01*
X001970Y006193D02*
X009130Y006193D01*
X009130Y006231D02*
X001970Y006231D01*
X001970Y006268D02*
X009130Y006268D01*
X009130Y006306D02*
X001970Y006306D01*
X001970Y006344D02*
X009130Y006344D01*
X009130Y006382D02*
X001970Y006382D01*
X001970Y006420D02*
X009130Y006420D01*
X009130Y006458D02*
X001970Y006458D01*
X001970Y006496D02*
X009130Y006496D01*
X009130Y006534D02*
X001970Y006534D01*
X001970Y006571D02*
X009130Y006571D01*
X009130Y006609D02*
X001970Y006609D01*
X001970Y006647D02*
X009130Y006647D01*
X009130Y006685D02*
X001970Y006685D01*
X001970Y006723D02*
X009130Y006723D01*
X009130Y006761D02*
X001970Y006761D01*
X001970Y006799D02*
X009130Y006799D01*
X009130Y006837D02*
X001970Y006837D01*
X001970Y006874D02*
X009130Y006874D01*
X009130Y006912D02*
X001970Y006912D01*
X001970Y006950D02*
X009130Y006950D01*
X009130Y006988D02*
X001970Y006988D01*
X001970Y007026D02*
X009130Y007026D01*
X009130Y007064D02*
X001970Y007064D01*
X001970Y007102D02*
X009130Y007102D01*
X009130Y007139D02*
X001970Y007139D01*
X001970Y007177D02*
X009130Y007177D01*
X009130Y007215D02*
X001970Y007215D01*
X001970Y007253D02*
X009130Y007253D01*
X009130Y007291D02*
X001970Y007291D01*
X001970Y007329D02*
X009130Y007329D01*
X009130Y007367D02*
X001970Y007367D01*
X001970Y007405D02*
X009130Y007405D01*
X009130Y007442D02*
X001970Y007442D01*
X001970Y007480D02*
X009130Y007480D01*
X009130Y007518D02*
X001970Y007518D01*
X001970Y007556D02*
X009130Y007556D01*
X009130Y007594D02*
X001970Y007594D01*
X001970Y007632D02*
X009130Y007632D01*
X009130Y007670D02*
X001970Y007670D01*
X001970Y007708D02*
X009130Y007708D01*
X009130Y007745D02*
X001970Y007745D01*
X001970Y007783D02*
X009130Y007783D01*
X009130Y007821D02*
X001970Y007821D01*
X001970Y007859D02*
X009130Y007859D01*
X009130Y007897D02*
X001970Y007897D01*
X001970Y007935D02*
X009130Y007935D01*
X009130Y007973D02*
X001970Y007973D01*
X001970Y008010D02*
X009130Y008010D01*
X009130Y008048D02*
X001970Y008048D01*
X001970Y008086D02*
X009130Y008086D01*
X009130Y008124D02*
X001970Y008124D01*
X001970Y008162D02*
X009130Y008162D01*
X009130Y008200D02*
X001970Y008200D01*
X001970Y008238D02*
X009130Y008238D01*
X009130Y008276D02*
X001970Y008276D01*
X001970Y008313D02*
X004874Y008313D01*
X004783Y008351D02*
X001970Y008351D01*
X001970Y008389D02*
X004732Y008389D01*
X004694Y008427D02*
X001970Y008427D01*
X001970Y008465D02*
X004657Y008465D01*
X004619Y008503D02*
X001970Y008503D01*
X001970Y008541D02*
X004603Y008541D01*
X004587Y008579D02*
X001970Y008579D01*
X001970Y008616D02*
X004571Y008616D01*
X004556Y008654D02*
X001970Y008654D01*
X001970Y008692D02*
X004540Y008692D01*
X004540Y008730D02*
X001970Y008730D01*
X001970Y008768D02*
X004540Y008768D01*
X004540Y008806D02*
X001970Y008806D01*
X001970Y008844D02*
X004540Y008844D01*
X004540Y008881D02*
X001970Y008881D01*
X001970Y008919D02*
X004551Y008919D01*
X004567Y008957D02*
X001970Y008957D01*
X001970Y008995D02*
X004582Y008995D01*
X004598Y009033D02*
X001970Y009033D01*
X001970Y009071D02*
X004614Y009071D01*
X004646Y009109D02*
X001970Y009109D01*
X005226Y008313D02*
X009130Y008313D01*
X009130Y008351D02*
X005317Y008351D01*
X005368Y008389D02*
X009130Y008389D01*
X009130Y008427D02*
X005406Y008427D01*
X005443Y008465D02*
X009130Y008465D01*
X009130Y008503D02*
X005481Y008503D01*
X005497Y008541D02*
X009130Y008541D01*
X009130Y008579D02*
X005513Y008579D01*
X005529Y008616D02*
X009130Y008616D01*
X009130Y008654D02*
X005544Y008654D01*
X005560Y008692D02*
X009130Y008692D01*
X009130Y008730D02*
X005560Y008730D01*
X005560Y008768D02*
X009130Y008768D01*
X009130Y008806D02*
X005560Y008806D01*
X005560Y008844D02*
X009130Y008844D01*
X009130Y008881D02*
X005560Y008881D01*
X005549Y008919D02*
X009130Y008919D01*
X009130Y008957D02*
X005533Y008957D01*
X005518Y008995D02*
X009130Y008995D01*
X009130Y009033D02*
X005502Y009033D01*
X005486Y009071D02*
X009130Y009071D01*
X009130Y009109D02*
X005454Y009109D01*
X003116Y005246D02*
X009130Y005246D01*
X009130Y005208D02*
X003153Y005208D01*
X003174Y005170D02*
X009130Y005170D01*
X009130Y005132D02*
X003189Y005132D01*
X003204Y005094D02*
X009130Y005094D01*
X009130Y005057D02*
X003204Y005057D01*
X003204Y005019D02*
X009130Y005019D01*
X009130Y004981D02*
X003201Y004981D01*
X003186Y004943D02*
X009130Y004943D01*
X009130Y004905D02*
X003170Y004905D01*
X003144Y004867D02*
X009130Y004867D01*
X009130Y004829D02*
X003115Y004829D01*
X003115Y004792D02*
X009130Y004792D01*
X009130Y004754D02*
X003115Y004754D01*
X003115Y004716D02*
X009130Y004716D01*
X009130Y004678D02*
X003115Y004678D01*
X003115Y004640D02*
X009130Y004640D01*
X009130Y004602D02*
X003115Y004602D01*
X003115Y004564D02*
X005228Y004564D01*
X005245Y004571D02*
X005142Y004529D01*
X005064Y004450D01*
X005021Y004348D01*
X005021Y004237D01*
X005064Y004134D01*
X005142Y004056D01*
X005245Y004014D01*
X005355Y004014D01*
X005458Y004056D01*
X005505Y004103D01*
X006845Y004103D01*
X006892Y004056D01*
X006995Y004014D01*
X007105Y004014D01*
X007208Y004056D01*
X007286Y004134D01*
X007329Y004237D01*
X007329Y004348D01*
X007286Y004450D01*
X007208Y004529D01*
X007105Y004571D01*
X006995Y004571D01*
X006892Y004529D01*
X006845Y004482D01*
X005505Y004482D01*
X005458Y004529D01*
X005355Y004571D01*
X005245Y004571D01*
X005140Y004526D02*
X003115Y004526D01*
X003115Y004489D02*
X005102Y004489D01*
X005064Y004451D02*
X003115Y004451D01*
X003115Y004413D02*
X003164Y004413D01*
X003436Y004413D02*
X005048Y004413D01*
X005033Y004375D02*
X003487Y004375D01*
X003524Y004337D02*
X005021Y004337D01*
X005021Y004299D02*
X003547Y004299D01*
X003563Y004261D02*
X005021Y004261D01*
X005027Y004223D02*
X003578Y004223D01*
X003579Y004186D02*
X005043Y004186D01*
X005058Y004148D02*
X003579Y004148D01*
X003578Y004110D02*
X005088Y004110D01*
X005126Y004072D02*
X003562Y004072D01*
X003547Y004034D02*
X005195Y004034D01*
X005405Y004034D02*
X006945Y004034D01*
X006876Y004072D02*
X005474Y004072D01*
X005498Y004489D02*
X006852Y004489D01*
X006890Y004526D02*
X005460Y004526D01*
X005372Y004564D02*
X006978Y004564D01*
X007122Y004564D02*
X009130Y004564D01*
X009130Y004526D02*
X007210Y004526D01*
X007248Y004489D02*
X009130Y004489D01*
X009130Y004451D02*
X007286Y004451D01*
X007302Y004413D02*
X009130Y004413D01*
X009130Y004375D02*
X007317Y004375D01*
X007329Y004337D02*
X009130Y004337D01*
X009130Y004299D02*
X007329Y004299D01*
X007329Y004261D02*
X009130Y004261D01*
X009130Y004223D02*
X007323Y004223D01*
X007307Y004186D02*
X009130Y004186D01*
X009130Y004148D02*
X007292Y004148D01*
X007262Y004110D02*
X009130Y004110D01*
X009130Y004072D02*
X007224Y004072D01*
X007155Y004034D02*
X009130Y004034D01*
X009130Y003996D02*
X003523Y003996D01*
X003490Y003958D02*
X009130Y003958D01*
X009130Y003920D02*
X003490Y003920D01*
X003490Y003883D02*
X009130Y003883D01*
X009130Y003845D02*
X003490Y003845D01*
X003490Y003807D02*
X009130Y003807D01*
X009130Y003769D02*
X003490Y003769D01*
X003490Y003731D02*
X009130Y003731D01*
X009130Y003693D02*
X003490Y003693D01*
X003490Y003655D02*
X009130Y003655D01*
X009130Y003618D02*
X003490Y003618D01*
X003490Y003580D02*
X009130Y003580D01*
X009130Y003542D02*
X003490Y003542D01*
X003490Y003504D02*
X009130Y003504D01*
X009130Y003466D02*
X003490Y003466D01*
X003490Y003428D02*
X009130Y003428D01*
X009130Y003390D02*
X003490Y003390D01*
X003490Y003352D02*
X009130Y003352D01*
X009130Y003315D02*
X003490Y003315D01*
X003490Y003277D02*
X009130Y003277D01*
X009130Y003239D02*
X003490Y003239D01*
X003490Y003201D02*
X009130Y003201D01*
X009130Y003163D02*
X003490Y003163D01*
X003490Y003125D02*
X009130Y003125D01*
X009130Y003087D02*
X003490Y003087D01*
X003490Y003049D02*
X004067Y003049D01*
X004000Y003012D02*
X003490Y003012D01*
X003490Y002974D02*
X003962Y002974D01*
X003933Y002936D02*
X003490Y002936D01*
X003490Y002898D02*
X003917Y002898D01*
X003901Y002860D02*
X003490Y002860D01*
X003490Y002822D02*
X003896Y002822D01*
X003896Y002784D02*
X003490Y002784D01*
X003490Y002747D02*
X003896Y002747D01*
X003908Y002709D02*
X003490Y002709D01*
X003490Y002671D02*
X003924Y002671D01*
X003940Y002633D02*
X003490Y002633D01*
X004283Y003049D02*
X006192Y003049D01*
X006125Y003012D02*
X004350Y003012D01*
X005766Y002595D02*
X006103Y002595D01*
X006141Y002557D02*
X005803Y002557D01*
X005841Y002519D02*
X006231Y002519D01*
X006369Y002519D02*
X009130Y002519D01*
X009130Y002481D02*
X005879Y002481D01*
X005917Y002444D02*
X009130Y002444D01*
X009130Y002406D02*
X005955Y002406D01*
X005993Y002368D02*
X009130Y002368D01*
X009130Y002330D02*
X006031Y002330D01*
X006175Y002292D02*
X009130Y002292D01*
X009130Y002254D02*
X006267Y002254D01*
X006347Y002216D02*
X009130Y002216D01*
X009130Y002178D02*
X006385Y002178D01*
X006423Y002141D02*
X009130Y002141D01*
X009130Y002103D02*
X006460Y002103D01*
X006489Y002065D02*
X009130Y002065D01*
X009130Y002027D02*
X006504Y002027D01*
X006520Y001989D02*
X009130Y001989D01*
X009130Y001951D02*
X006536Y001951D01*
X006552Y001913D02*
X009130Y001913D01*
X009130Y001875D02*
X006560Y001875D01*
X006560Y001838D02*
X007682Y001838D01*
X007608Y001800D02*
X006560Y001800D01*
X006560Y001762D02*
X007570Y001762D01*
X007532Y001724D02*
X006560Y001724D01*
X006558Y001686D02*
X007515Y001686D01*
X007500Y001648D02*
X006542Y001648D01*
X006526Y001610D02*
X007484Y001610D01*
X007482Y001573D02*
X006511Y001573D01*
X006495Y001535D02*
X007482Y001535D01*
X007482Y001497D02*
X006475Y001497D01*
X006501Y001459D02*
X007490Y001459D01*
X007506Y001421D02*
X006539Y001421D01*
X006576Y001383D02*
X007522Y001383D01*
X007486Y001345D02*
X006614Y001345D01*
X006652Y001307D02*
X007448Y001307D01*
X007842Y000967D02*
X009130Y000967D01*
X009130Y001004D02*
X007879Y001004D01*
X007917Y001042D02*
X009130Y001042D01*
X009130Y001080D02*
X007955Y001080D01*
X007993Y001118D02*
X009130Y001118D01*
X009130Y001156D02*
X008025Y001156D01*
X008040Y001194D02*
X009130Y001194D01*
X009130Y001232D02*
X008056Y001232D01*
X008060Y001270D02*
X009130Y001270D01*
X009130Y001307D02*
X008060Y001307D01*
X008060Y001345D02*
X009130Y001345D01*
X009130Y001383D02*
X008078Y001383D01*
X008094Y001421D02*
X009130Y001421D01*
X009130Y001459D02*
X008110Y001459D01*
X008118Y001497D02*
X009130Y001497D01*
X009130Y001535D02*
X008118Y001535D01*
X008118Y001573D02*
X009130Y001573D01*
X009130Y001610D02*
X008116Y001610D01*
X008100Y001648D02*
X009130Y001648D01*
X009130Y001686D02*
X008085Y001686D01*
X008068Y001724D02*
X009130Y001724D01*
X009130Y001762D02*
X008030Y001762D01*
X007992Y001800D02*
X009130Y001800D01*
X009130Y001838D02*
X007918Y001838D01*
X009130Y002557D02*
X006459Y002557D01*
X006497Y002595D02*
X009130Y002595D01*
X009130Y002633D02*
X006535Y002633D01*
X006551Y002671D02*
X009130Y002671D01*
X009130Y002709D02*
X006567Y002709D01*
X006579Y002747D02*
X009130Y002747D01*
X009130Y002784D02*
X006579Y002784D01*
X006579Y002822D02*
X009130Y002822D01*
X009130Y002860D02*
X006574Y002860D01*
X006558Y002898D02*
X009130Y002898D01*
X009130Y002936D02*
X006542Y002936D01*
X006513Y002974D02*
X009130Y002974D01*
X009130Y003012D02*
X006475Y003012D01*
X006408Y003049D02*
X009130Y003049D01*
D15*
X007800Y001542D03*
X005925Y003292D03*
X005925Y003792D03*
X006300Y007167D03*
X006300Y007667D03*
D16*
X006050Y001792D02*
X006050Y001542D01*
X006550Y001042D01*
X007550Y001042D01*
X007800Y001292D01*
X007800Y001542D01*
M02*
