G75*
G70*
%OFA0B0*%
%FSLAX24Y24*%
%IPPOS*%
%LPD*%
%AMOC8*
5,1,8,0,0,1.08239X$1,22.5*
%
%ADD10C,0.0515*%
%ADD11R,0.0382X0.0472*%
%ADD12R,0.0472X0.0217*%
%ADD13R,0.0433X0.0276*%
%ADD14R,0.0276X0.0433*%
%ADD15R,0.0618X0.0701*%
%ADD16R,0.0236X0.0480*%
%ADD17R,0.0276X0.0787*%
%ADD18R,0.0630X0.0866*%
%ADD19C,0.1575*%
%ADD20C,0.0396*%
%ADD21C,0.0160*%
%ADD22C,0.0500*%
%ADD23C,0.0240*%
%ADD24C,0.0120*%
%ADD25C,0.0100*%
%ADD26C,0.0475*%
D10*
X010870Y008024D03*
X010870Y015504D03*
X008508Y022000D03*
X008508Y027906D03*
X010870Y035386D03*
X010870Y042867D03*
X019925Y035386D03*
X025043Y035386D03*
X025043Y042796D03*
X034098Y035386D03*
X034098Y027906D03*
X036461Y021410D03*
X036461Y015504D03*
X034098Y008024D03*
X034098Y000544D03*
X025043Y008024D03*
X019925Y008024D03*
X019925Y000544D03*
X020319Y015504D03*
X025043Y015504D03*
X020319Y021410D03*
X024650Y022000D03*
X024650Y027906D03*
X019925Y027906D03*
D11*
X016868Y026922D03*
X015502Y026922D03*
X015502Y021016D03*
X016868Y021016D03*
X016868Y014323D03*
X015502Y014323D03*
X015502Y006843D03*
X016868Y006843D03*
X030069Y008024D03*
X031435Y008024D03*
X031435Y015111D03*
X030069Y015111D03*
X030069Y021016D03*
X031435Y021016D03*
X031435Y027709D03*
X030069Y027709D03*
X030069Y034402D03*
X031435Y034402D03*
X029467Y038733D03*
X028100Y038733D03*
X016868Y038733D03*
X015502Y038733D03*
X015502Y034402D03*
X016868Y034402D03*
D12*
X021973Y012335D03*
X021973Y011961D03*
X021973Y011587D03*
X022996Y011587D03*
X022996Y011961D03*
X022996Y012335D03*
D13*
X024059Y012552D03*
X024059Y011961D03*
X024059Y011370D03*
X024059Y010681D03*
X024059Y010091D03*
X022878Y010091D03*
X022878Y010681D03*
X022091Y010681D03*
X022091Y010091D03*
X020910Y011370D03*
X020910Y011961D03*
X020910Y012552D03*
D14*
X022189Y013142D03*
X022780Y013142D03*
D15*
X025175Y009205D03*
X026093Y009205D03*
D16*
X026008Y010071D03*
X025260Y010071D03*
X025260Y011095D03*
X025634Y011095D03*
X026008Y011095D03*
D17*
X024207Y004874D03*
X023715Y004874D03*
X023223Y004874D03*
X022730Y004874D03*
X022238Y004874D03*
X021746Y004874D03*
X021254Y004874D03*
X020762Y004874D03*
D18*
X019837Y006174D03*
X025132Y006174D03*
D19*
X037642Y011961D03*
X037642Y031646D03*
X007327Y031449D03*
X007327Y011961D03*
D20*
X012248Y011567D03*
X019138Y012355D03*
X019138Y019638D03*
X019138Y025544D03*
X012248Y031449D03*
X019138Y032237D03*
X017366Y038733D03*
X012347Y039077D03*
X010673Y024166D03*
X010870Y018260D03*
X019138Y004874D03*
X012248Y004087D03*
X032721Y004481D03*
X032721Y006843D03*
X032721Y011961D03*
X032721Y013930D03*
X034492Y019244D03*
X033114Y021016D03*
X034492Y025150D03*
X031933Y026922D03*
X032327Y031843D03*
X031933Y033615D03*
X032917Y039323D03*
X029571Y039520D03*
D21*
X029965Y039520D01*
X030358Y039126D01*
X030358Y038733D01*
X029467Y038733D01*
X028100Y038733D02*
X027602Y038733D01*
X026815Y037945D01*
X022484Y037945D01*
X015791Y037945D01*
X015502Y038235D01*
X015502Y038733D01*
X016868Y038733D02*
X017366Y038733D01*
X016973Y035189D02*
X015791Y035189D01*
X015398Y034796D01*
X015398Y034402D01*
X015502Y034402D01*
X016868Y034402D02*
X019138Y032237D01*
X020516Y034796D02*
X017366Y034796D01*
X016973Y035189D01*
X019925Y035386D02*
X012347Y039077D01*
X012248Y031449D02*
X019925Y027906D01*
X018941Y026528D02*
X022484Y026528D01*
X024650Y027906D02*
X034492Y025150D01*
X031933Y026922D02*
X031933Y027709D01*
X031435Y027709D01*
X030069Y027709D02*
X027707Y029284D01*
X022484Y029284D01*
X018941Y026528D02*
X017760Y027709D01*
X015791Y027709D01*
X015502Y027420D01*
X015502Y026922D01*
X016868Y026922D02*
X019138Y025544D01*
X017366Y021804D02*
X015791Y021804D01*
X015502Y021514D01*
X015502Y021016D01*
X016868Y021016D02*
X019138Y019638D01*
X018547Y020622D02*
X022484Y020622D01*
X020319Y021410D02*
X010673Y024166D01*
X010870Y018260D02*
X020319Y015504D01*
X021254Y013880D02*
X018498Y013880D01*
X016973Y015111D01*
X015791Y015111D01*
X015502Y014821D01*
X015502Y014323D01*
X016868Y014323D02*
X019138Y012355D01*
X020122Y011567D02*
X020122Y013536D01*
X021303Y013536D01*
X022484Y014717D01*
X022982Y014717D01*
X023043Y013991D01*
X022484Y015111D02*
X022484Y015504D01*
X022484Y015111D02*
X021254Y013880D01*
X020122Y011567D02*
X019728Y011174D01*
X018154Y011174D01*
X018154Y009599D01*
X018547Y009205D01*
X020516Y009205D01*
X020910Y008811D01*
X020910Y007630D01*
X020516Y007237D01*
X017366Y007237D01*
X016973Y007630D01*
X015791Y007630D01*
X015502Y007341D01*
X015502Y006843D01*
X016868Y006843D02*
X019138Y004874D01*
X019925Y008024D02*
X012248Y011567D01*
X012248Y004087D02*
X019728Y000544D01*
X019925Y000544D01*
X025043Y008024D02*
X032721Y004481D01*
X032721Y006843D02*
X031435Y008024D01*
X030069Y008024D02*
X030069Y007920D01*
X029768Y008221D01*
X027734Y008221D01*
X026093Y009205D01*
X030069Y015006D02*
X028390Y016685D01*
X022484Y016685D01*
X025043Y015504D02*
X032721Y011961D01*
X032721Y013930D02*
X032721Y014323D01*
X031435Y015111D01*
X030069Y015111D02*
X030069Y015006D01*
X034492Y019244D02*
X024650Y022000D01*
X022484Y022985D02*
X027996Y022985D01*
X029965Y021016D01*
X030069Y021016D01*
X031435Y021016D02*
X033114Y021016D01*
X032327Y031843D02*
X025043Y035386D01*
X022484Y036370D02*
X022091Y036370D01*
X020516Y034796D01*
X022484Y036370D02*
X027996Y036370D01*
X029965Y034402D01*
X030069Y034402D01*
X031435Y034402D02*
X031933Y034402D01*
X032327Y034008D01*
X032327Y033615D01*
X031933Y033615D01*
X032917Y039323D02*
X025043Y042796D01*
X017366Y021804D02*
X018547Y020622D01*
D22*
X022484Y020622D02*
X022484Y016685D01*
X022484Y015504D01*
X023043Y013991D01*
X027148Y013991D01*
X027996Y013142D01*
X027996Y009599D01*
X027602Y009205D01*
X026093Y009205D01*
X025175Y009205D02*
X024847Y009205D01*
X024059Y008418D01*
X024059Y008024D01*
X023518Y008024D01*
X024059Y008024D02*
X024059Y005662D01*
X022091Y002906D02*
X020910Y002906D01*
X018941Y002906D01*
X011461Y008024D01*
X010870Y008024D01*
X010870Y015504D01*
X008508Y022000D01*
X008508Y027906D01*
X010870Y035386D01*
X010870Y042867D01*
X022484Y037945D02*
X022484Y036370D01*
X022484Y029284D01*
X022484Y026528D01*
X022484Y022985D01*
X022484Y020622D01*
X034098Y027906D02*
X034098Y035386D01*
X034098Y027906D02*
X036461Y021410D01*
X036461Y015504D01*
X034098Y008024D01*
X034098Y002906D01*
X022091Y002906D01*
X022091Y002119D01*
X022484Y001725D01*
D23*
X022091Y002906D02*
X022238Y003054D01*
X022238Y004874D01*
X020762Y004874D02*
X020762Y003054D01*
X020910Y002906D01*
X023715Y004874D02*
X023715Y005317D01*
X024059Y005662D01*
X024207Y005514D01*
X024207Y004874D01*
D24*
X023223Y004874D02*
X023223Y005563D01*
X022780Y005908D01*
X022780Y008664D01*
X023075Y008959D01*
X023862Y008959D01*
X024896Y009993D01*
X024896Y010337D01*
X025142Y010583D01*
X025988Y010583D01*
X026008Y011095D01*
X026028Y011115D01*
X026028Y011961D01*
X025437Y012552D01*
X024059Y012552D01*
X023075Y013536D01*
X022287Y013536D01*
X022189Y013437D01*
X022189Y013142D01*
X021303Y013142D01*
X020910Y012748D01*
X020910Y012552D01*
X020910Y011961D02*
X021973Y011961D01*
X022996Y011587D02*
X023016Y011567D01*
X023469Y011567D01*
X023862Y011961D01*
X024059Y011961D01*
X024059Y011370D02*
X024453Y011370D01*
X024453Y011370D01*
X024847Y011764D01*
X025437Y011764D01*
X025634Y011567D01*
X025634Y011095D01*
X025634Y011095D01*
X025260Y011095D02*
X024847Y010681D01*
X024059Y010681D01*
X024059Y010091D02*
X024059Y009796D01*
X023469Y009205D01*
X022878Y009205D01*
X022484Y008811D01*
X022484Y005760D01*
X022730Y005563D01*
X022730Y004874D01*
X022238Y004874D02*
X022238Y005317D01*
X022238Y008959D01*
X022878Y009599D01*
X023272Y009599D01*
X023469Y009796D01*
X023469Y010386D01*
X023469Y010977D01*
X023862Y011370D01*
X024059Y011370D01*
X022878Y010091D02*
X022878Y009993D01*
X022484Y009599D01*
X022091Y009599D01*
X021697Y009205D01*
X021697Y004924D01*
X021746Y004874D01*
X021303Y004924D02*
X021303Y009599D01*
X021795Y010091D01*
X022091Y010091D01*
X025175Y009987D02*
X025175Y009205D01*
X025175Y009987D02*
X025260Y010071D01*
X026008Y010071D02*
X026093Y009987D01*
X026093Y009205D01*
X021303Y004924D02*
X021254Y004874D01*
D25*
X006793Y004340D02*
X006793Y039070D01*
X007738Y039070D01*
X008153Y039181D01*
X008153Y039181D01*
X008525Y039396D01*
X008525Y039396D01*
X008829Y039700D01*
X009044Y040072D01*
X009155Y040486D01*
X009155Y042810D01*
X010243Y042810D01*
X010243Y042742D01*
X010250Y042724D01*
X010250Y035529D01*
X010243Y035511D01*
X010243Y035458D01*
X007951Y028201D01*
X007880Y028031D01*
X007880Y027978D01*
X007880Y027975D01*
X007880Y027965D01*
X007880Y027781D01*
X007888Y027763D01*
X007888Y022143D01*
X007880Y022125D01*
X007880Y021876D01*
X007976Y021645D01*
X007978Y021643D01*
X010243Y015416D01*
X010243Y015380D01*
X010250Y015361D01*
X010250Y008167D01*
X010243Y008149D01*
X010243Y007899D01*
X010338Y007669D01*
X010515Y007492D01*
X010745Y007397D01*
X010995Y007397D01*
X011013Y007404D01*
X011269Y007404D01*
X018543Y002427D01*
X018590Y002380D01*
X018644Y002358D01*
X018693Y002325D01*
X018757Y002311D01*
X018818Y002286D01*
X018876Y002286D01*
X018934Y002274D01*
X018999Y002286D01*
X021471Y002286D01*
X021471Y001995D01*
X021565Y001767D01*
X021739Y001593D01*
X022133Y001199D01*
X022361Y001105D01*
X022608Y001105D01*
X022836Y001199D01*
X023010Y001374D01*
X023104Y001601D01*
X023104Y001848D01*
X023010Y002076D01*
X022800Y002286D01*
X034222Y002286D01*
X034450Y002380D01*
X034624Y002555D01*
X034718Y002783D01*
X034718Y007881D01*
X034726Y007899D01*
X034726Y007952D01*
X037018Y015210D01*
X037088Y015380D01*
X037088Y015432D01*
X037089Y015435D01*
X037088Y015445D01*
X037088Y015629D01*
X037081Y015647D01*
X037081Y021267D01*
X037088Y021285D01*
X037088Y021535D01*
X036993Y021765D01*
X036990Y021768D01*
X034726Y027995D01*
X034726Y028031D01*
X034718Y028049D01*
X034718Y035243D01*
X034726Y035261D01*
X034726Y035511D01*
X034630Y035742D01*
X034454Y035918D01*
X034223Y036014D01*
X033974Y036014D01*
X033743Y035918D01*
X033567Y035742D01*
X033471Y035511D01*
X033471Y035261D01*
X033478Y035243D01*
X033478Y028049D01*
X033471Y028031D01*
X033471Y027781D01*
X033567Y027550D01*
X033569Y027548D01*
X034246Y025686D01*
X031863Y026354D01*
X032046Y026354D01*
X032255Y026440D01*
X032415Y026600D01*
X032501Y026809D01*
X032501Y027035D01*
X032415Y027243D01*
X032383Y027275D01*
X032383Y027799D01*
X032315Y027964D01*
X032188Y028091D01*
X032023Y028159D01*
X031936Y028159D01*
X031836Y028259D01*
X031700Y028315D01*
X031171Y028315D01*
X031035Y028259D01*
X030930Y028155D01*
X030874Y028019D01*
X030874Y027399D01*
X030930Y027263D01*
X031035Y027159D01*
X031171Y027103D01*
X031393Y027103D01*
X031365Y027035D01*
X031365Y026809D01*
X031452Y026600D01*
X031611Y026440D01*
X031731Y026390D01*
X025199Y028219D01*
X025182Y028261D01*
X025005Y028438D01*
X024774Y028533D01*
X024525Y028533D01*
X024294Y028438D01*
X024118Y028261D01*
X024022Y028031D01*
X024022Y027781D01*
X024118Y027550D01*
X024294Y027374D01*
X024525Y027278D01*
X024774Y027278D01*
X024955Y027353D01*
X034025Y024813D01*
X034170Y024668D01*
X034379Y024582D01*
X034605Y024582D01*
X034642Y024597D01*
X035833Y021321D01*
X035833Y021285D01*
X035841Y021267D01*
X035841Y015647D01*
X035833Y015629D01*
X035833Y015576D01*
X033541Y008319D01*
X033471Y008149D01*
X033471Y008096D01*
X033470Y008093D01*
X033471Y008083D01*
X033471Y007899D01*
X033478Y007881D01*
X033478Y003526D01*
X022728Y003526D01*
X022728Y004111D01*
X022942Y004111D01*
X022976Y004125D01*
X023011Y004111D01*
X023434Y004111D01*
X023469Y004125D01*
X023503Y004111D01*
X023926Y004111D01*
X023961Y004125D01*
X023995Y004111D01*
X024418Y004111D01*
X024554Y004167D01*
X024658Y004271D01*
X024715Y004407D01*
X024715Y005342D01*
X024697Y005385D01*
X024697Y005390D01*
X024743Y005371D01*
X025521Y005371D01*
X025657Y005427D01*
X025761Y005531D01*
X025817Y005667D01*
X025817Y006680D01*
X025761Y006816D01*
X025657Y006920D01*
X025521Y006977D01*
X024743Y006977D01*
X024679Y006950D01*
X024679Y007501D01*
X024688Y007492D01*
X024919Y007397D01*
X025168Y007397D01*
X025253Y007432D01*
X032214Y004219D01*
X032239Y004159D01*
X032399Y003999D01*
X032608Y003913D01*
X032834Y003913D01*
X033042Y003999D01*
X033202Y004159D01*
X033289Y004368D01*
X033289Y004594D01*
X033202Y004803D01*
X033042Y004962D01*
X032834Y005049D01*
X032608Y005049D01*
X032584Y005039D01*
X025629Y008249D01*
X025575Y008379D01*
X025470Y008485D01*
X025558Y008485D01*
X025634Y008516D01*
X025710Y008485D01*
X026419Y008485D01*
X027455Y007863D01*
X027479Y007839D01*
X027531Y007818D01*
X027580Y007789D01*
X027613Y007784D01*
X027645Y007771D01*
X027701Y007771D01*
X027757Y007763D01*
X027790Y007771D01*
X029508Y007771D01*
X029508Y007714D01*
X029564Y007578D01*
X029668Y007474D01*
X029804Y007418D01*
X030334Y007418D01*
X030469Y007474D01*
X030574Y007578D01*
X030630Y007714D01*
X030630Y008334D01*
X030574Y008470D01*
X030469Y008574D01*
X030334Y008630D01*
X029955Y008630D01*
X029857Y008671D01*
X027933Y008671D01*
X027954Y008680D01*
X028347Y009073D01*
X028347Y009073D01*
X028522Y009248D01*
X028616Y009475D01*
X028616Y013265D01*
X028568Y013382D01*
X032214Y011699D01*
X032239Y011639D01*
X032399Y011479D01*
X032608Y011393D01*
X032834Y011393D01*
X033042Y011479D01*
X033202Y011639D01*
X033289Y011848D01*
X033289Y012074D01*
X033202Y012283D01*
X033042Y012443D01*
X032834Y012529D01*
X032608Y012529D01*
X032584Y012520D01*
X025629Y015730D01*
X025575Y015860D01*
X025399Y016036D01*
X025168Y016132D01*
X024919Y016132D01*
X024688Y016036D01*
X024511Y015860D01*
X024416Y015629D01*
X024416Y015380D01*
X024511Y015149D01*
X024688Y014972D01*
X024919Y014877D01*
X025168Y014877D01*
X025253Y014912D01*
X025906Y014611D01*
X023475Y014611D01*
X023433Y014724D01*
X023432Y014736D01*
X023432Y014806D01*
X023425Y014824D01*
X023423Y014844D01*
X023391Y014907D01*
X023364Y014972D01*
X023350Y014986D01*
X023341Y015003D01*
X023326Y015016D01*
X023104Y015615D01*
X023104Y016235D01*
X028203Y016235D01*
X029508Y014931D01*
X029508Y014801D01*
X029564Y014665D01*
X029668Y014561D01*
X029804Y014504D01*
X030334Y014504D01*
X030469Y014561D01*
X030574Y014665D01*
X030630Y014801D01*
X030630Y015420D01*
X030574Y015556D01*
X030469Y015661D01*
X030334Y015717D01*
X029995Y015717D01*
X028771Y016940D01*
X028645Y017067D01*
X028479Y017135D01*
X023104Y017135D01*
X023104Y022535D01*
X024300Y022535D01*
X024294Y022532D01*
X024118Y022356D01*
X024022Y022125D01*
X024022Y021876D01*
X024118Y021645D01*
X024294Y021468D01*
X024525Y021373D01*
X024774Y021373D01*
X024955Y021448D01*
X034025Y018908D01*
X034170Y018763D01*
X034379Y018676D01*
X034605Y018676D01*
X034814Y018763D01*
X034974Y018923D01*
X035060Y019131D01*
X035060Y019357D01*
X034974Y019566D01*
X034814Y019726D01*
X034605Y019813D01*
X034379Y019813D01*
X034280Y019771D01*
X031820Y020460D01*
X031836Y020466D01*
X031936Y020566D01*
X032761Y020566D01*
X032792Y020535D01*
X033001Y020448D01*
X033227Y020448D01*
X033436Y020535D01*
X033596Y020694D01*
X033682Y020903D01*
X033682Y021129D01*
X033596Y021338D01*
X033436Y021498D01*
X033227Y021584D01*
X033001Y021584D01*
X032792Y021498D01*
X032761Y021466D01*
X031936Y021466D01*
X031836Y021566D01*
X031700Y021622D01*
X031171Y021622D01*
X031035Y021566D01*
X030930Y021462D01*
X030874Y021326D01*
X030874Y020725D01*
X030630Y020793D01*
X030630Y021326D01*
X030574Y021462D01*
X030469Y021566D01*
X030334Y021622D01*
X029995Y021622D01*
X028378Y023240D01*
X028251Y023366D01*
X028086Y023435D01*
X023104Y023435D01*
X023104Y028834D01*
X027571Y028834D01*
X029508Y027542D01*
X029508Y027399D01*
X029564Y027263D01*
X029668Y027159D01*
X029804Y027103D01*
X030334Y027103D01*
X030469Y027159D01*
X030574Y027263D01*
X030630Y027399D01*
X030630Y028019D01*
X030574Y028155D01*
X030469Y028259D01*
X030334Y028315D01*
X029971Y028315D01*
X027993Y029634D01*
X027962Y029665D01*
X027920Y029683D01*
X027882Y029708D01*
X027838Y029717D01*
X027796Y029734D01*
X027751Y029734D01*
X027706Y029743D01*
X027662Y029734D01*
X023104Y029734D01*
X023104Y035920D01*
X024693Y035920D01*
X024688Y035918D01*
X024511Y035742D01*
X024416Y035511D01*
X024416Y035261D01*
X024511Y035031D01*
X024688Y034854D01*
X024919Y034759D01*
X025168Y034759D01*
X025242Y034789D01*
X031816Y031591D01*
X031845Y031521D01*
X032005Y031361D01*
X032214Y031275D01*
X032440Y031275D01*
X032649Y031361D01*
X032808Y031521D01*
X032895Y031730D01*
X032895Y031956D01*
X032808Y032165D01*
X032649Y032325D01*
X032440Y032411D01*
X032214Y032411D01*
X032200Y032405D01*
X025634Y035599D01*
X025575Y035742D01*
X025399Y035918D01*
X025393Y035920D01*
X027810Y035920D01*
X029508Y034222D01*
X029508Y034092D01*
X029564Y033956D01*
X029668Y033852D01*
X029804Y033796D01*
X030334Y033796D01*
X030469Y033852D01*
X030574Y033956D01*
X030630Y034092D01*
X030630Y034712D01*
X030574Y034848D01*
X030469Y034952D01*
X030334Y035008D01*
X029995Y035008D01*
X028378Y036625D01*
X028378Y036625D01*
X028251Y036752D01*
X028086Y036820D01*
X023104Y036820D01*
X023104Y037495D01*
X026905Y037495D01*
X027070Y037564D01*
X027197Y037690D01*
X027694Y038188D01*
X027700Y038183D01*
X027836Y038126D01*
X028365Y038126D01*
X028501Y038183D01*
X028605Y038287D01*
X028661Y038423D01*
X028661Y039042D01*
X028605Y039178D01*
X028501Y039283D01*
X028365Y039339D01*
X027836Y039339D01*
X027700Y039283D01*
X027600Y039183D01*
X027513Y039183D01*
X027348Y039114D01*
X026629Y038395D01*
X022911Y038395D01*
X022836Y038471D01*
X022608Y038565D01*
X026798Y038565D01*
X026700Y038467D02*
X022840Y038467D01*
X022608Y038565D02*
X022361Y038565D01*
X022133Y038471D01*
X022058Y038395D01*
X017832Y038395D01*
X017848Y038411D01*
X017934Y038620D01*
X017934Y038846D01*
X017848Y039054D01*
X017688Y039214D01*
X017479Y039301D01*
X017253Y039301D01*
X017239Y039295D01*
X017133Y039339D01*
X016604Y039339D01*
X016468Y039283D01*
X016364Y039178D01*
X016307Y039042D01*
X016307Y038423D01*
X016319Y038395D01*
X016052Y038395D01*
X016063Y038423D01*
X016063Y039042D01*
X016007Y039178D01*
X015903Y039283D01*
X015767Y039339D01*
X015237Y039339D01*
X015102Y039283D01*
X014997Y039178D01*
X014941Y039042D01*
X014941Y038423D01*
X014997Y038287D01*
X014998Y038286D01*
X012857Y039329D01*
X012828Y039399D01*
X012668Y039559D01*
X012460Y039645D01*
X012234Y039645D01*
X012025Y039559D01*
X011865Y039399D01*
X011778Y039190D01*
X011778Y038964D01*
X011865Y038755D01*
X012025Y038596D01*
X012234Y038509D01*
X012460Y038509D01*
X012473Y038515D01*
X019186Y035246D01*
X017553Y035246D01*
X017354Y035444D01*
X017227Y035571D01*
X017062Y035639D01*
X015702Y035639D01*
X015536Y035571D01*
X015143Y035177D01*
X015016Y035051D01*
X014948Y034885D01*
X014948Y034728D01*
X014941Y034712D01*
X014941Y034092D01*
X014997Y033956D01*
X015102Y033852D01*
X015237Y033796D01*
X015767Y033796D01*
X015903Y033852D01*
X016007Y033956D01*
X016063Y034092D01*
X016063Y034712D01*
X016052Y034739D01*
X016319Y034739D01*
X016307Y034712D01*
X016307Y034092D01*
X016364Y033956D01*
X016468Y033852D01*
X016604Y033796D01*
X016852Y033796D01*
X018570Y032157D01*
X018570Y032124D01*
X018656Y031915D01*
X018816Y031755D01*
X019025Y031669D01*
X019251Y031669D01*
X019460Y031755D01*
X019619Y031915D01*
X019706Y032124D01*
X019706Y032350D01*
X019619Y032558D01*
X019460Y032718D01*
X019251Y032805D01*
X019194Y032805D01*
X017579Y034346D01*
X020605Y034346D01*
X020771Y034414D01*
X020897Y034541D01*
X021864Y035508D01*
X021864Y026978D01*
X019127Y026978D01*
X018015Y028091D01*
X017849Y028159D01*
X015702Y028159D01*
X015536Y028091D01*
X015410Y027964D01*
X015121Y027675D01*
X015052Y027509D01*
X015052Y027422D01*
X014997Y027367D01*
X014941Y027231D01*
X014941Y026612D01*
X014997Y026476D01*
X015102Y026372D01*
X015237Y026315D01*
X015767Y026315D01*
X015903Y026372D01*
X016007Y026476D01*
X016063Y026612D01*
X016063Y027231D01*
X016052Y027259D01*
X016319Y027259D01*
X016307Y027231D01*
X016307Y026612D01*
X016364Y026476D01*
X016468Y026372D01*
X016604Y026315D01*
X017000Y026315D01*
X018608Y025339D01*
X018656Y025222D01*
X018816Y025062D01*
X019025Y024976D01*
X019251Y024976D01*
X019460Y025062D01*
X019619Y025222D01*
X019706Y025431D01*
X019706Y025657D01*
X019619Y025866D01*
X019460Y026025D01*
X019333Y026078D01*
X021864Y026078D01*
X021864Y021072D01*
X020858Y021072D01*
X020946Y021285D01*
X020946Y021535D01*
X020851Y021765D01*
X020674Y021942D01*
X020444Y022037D01*
X020194Y022037D01*
X020017Y021964D01*
X011143Y024500D01*
X010995Y024647D01*
X010786Y024734D01*
X010560Y024734D01*
X010351Y024647D01*
X010192Y024488D01*
X010105Y024279D01*
X010105Y024053D01*
X010192Y023844D01*
X010351Y023684D01*
X010560Y023598D01*
X010786Y023598D01*
X010883Y023638D01*
X015728Y022254D01*
X015702Y022254D01*
X015536Y022185D01*
X015410Y022058D01*
X015121Y021769D01*
X015052Y021604D01*
X015052Y021517D01*
X014997Y021462D01*
X014941Y021326D01*
X014941Y020706D01*
X014997Y020570D01*
X015102Y020466D01*
X015237Y020410D01*
X015767Y020410D01*
X015903Y020466D01*
X016007Y020570D01*
X016063Y020706D01*
X016063Y021326D01*
X016052Y021354D01*
X016319Y021354D01*
X016307Y021326D01*
X016307Y020706D01*
X016364Y020570D01*
X016468Y020466D01*
X016604Y020410D01*
X017000Y020410D01*
X018608Y019434D01*
X018656Y019316D01*
X018816Y019157D01*
X019025Y019070D01*
X019251Y019070D01*
X019460Y019157D01*
X019619Y019316D01*
X019706Y019525D01*
X019706Y019751D01*
X019619Y019960D01*
X019460Y020120D01*
X019333Y020172D01*
X021864Y020172D01*
X021864Y015516D01*
X020946Y015516D01*
X020946Y015418D02*
X021860Y015418D01*
X021860Y015405D02*
X021864Y015394D01*
X021864Y015381D01*
X021907Y015278D01*
X021936Y015199D01*
X021068Y014330D01*
X018657Y014330D01*
X017274Y015446D01*
X017227Y015492D01*
X017205Y015502D01*
X017185Y015517D01*
X017123Y015536D01*
X017062Y015561D01*
X017037Y015561D01*
X017014Y015568D01*
X016948Y015561D01*
X015702Y015561D01*
X015536Y015492D01*
X015410Y015366D01*
X015121Y015076D01*
X015052Y014911D01*
X015052Y014824D01*
X014997Y014769D01*
X014941Y014633D01*
X014941Y014013D01*
X014997Y013877D01*
X015102Y013773D01*
X015237Y013717D01*
X015767Y013717D01*
X015903Y013773D01*
X016007Y013877D01*
X016063Y014013D01*
X016063Y014633D01*
X016052Y014661D01*
X016319Y014661D01*
X016307Y014633D01*
X016307Y014013D01*
X016364Y013877D01*
X016468Y013773D01*
X016604Y013717D01*
X016880Y013717D01*
X018570Y012252D01*
X018570Y012242D01*
X018656Y012033D01*
X018816Y011873D01*
X019025Y011787D01*
X019251Y011787D01*
X019460Y011873D01*
X019619Y012033D01*
X019672Y012160D01*
X019672Y011754D01*
X019542Y011624D01*
X018064Y011624D01*
X017899Y011555D01*
X017772Y011429D01*
X017704Y011263D01*
X017704Y009545D01*
X012755Y011829D01*
X012730Y011889D01*
X012570Y012049D01*
X012361Y012135D01*
X012135Y012135D01*
X011926Y012049D01*
X011766Y011889D01*
X011680Y011680D01*
X011680Y011454D01*
X011766Y011246D01*
X011926Y011086D01*
X012135Y010999D01*
X012361Y010999D01*
X012384Y011009D01*
X019339Y007799D01*
X019386Y007687D01*
X017553Y007687D01*
X017227Y008012D01*
X017062Y008080D01*
X015702Y008080D01*
X015536Y008012D01*
X015410Y007885D01*
X015121Y007596D01*
X015052Y007430D01*
X015052Y007343D01*
X014997Y007289D01*
X014941Y007153D01*
X014941Y006533D01*
X014997Y006397D01*
X015102Y006293D01*
X015237Y006237D01*
X015767Y006237D01*
X015903Y006293D01*
X016007Y006397D01*
X016063Y006533D01*
X016063Y007153D01*
X016052Y007180D01*
X016319Y007180D01*
X016307Y007153D01*
X016307Y006533D01*
X016364Y006397D01*
X016468Y006293D01*
X016604Y006237D01*
X016880Y006237D01*
X018570Y004771D01*
X018570Y004761D01*
X018656Y004553D01*
X018816Y004393D01*
X019025Y004306D01*
X019251Y004306D01*
X019460Y004393D01*
X019619Y004553D01*
X019706Y004761D01*
X019706Y004987D01*
X019619Y005196D01*
X019460Y005356D01*
X019251Y005443D01*
X019170Y005443D01*
X017620Y006787D01*
X019196Y006787D01*
X019152Y006680D01*
X019152Y005667D01*
X019208Y005531D01*
X019312Y005427D01*
X019448Y005371D01*
X020225Y005371D01*
X020274Y005391D01*
X020254Y005342D01*
X020254Y004407D01*
X020272Y004364D01*
X020272Y003526D01*
X019133Y003526D01*
X011858Y008503D01*
X011812Y008550D01*
X011758Y008572D01*
X011709Y008605D01*
X011645Y008619D01*
X011584Y008644D01*
X011525Y008644D01*
X011490Y008651D01*
X011490Y015361D01*
X011498Y015380D01*
X011498Y015629D01*
X011402Y015860D01*
X011400Y015862D01*
X010730Y017703D01*
X010757Y017692D01*
X010983Y017692D01*
X011077Y017731D01*
X019767Y015196D01*
X019787Y015149D01*
X019964Y014972D01*
X020194Y014877D01*
X020444Y014877D01*
X020674Y014972D01*
X020851Y015149D01*
X020946Y015380D01*
X020946Y015629D01*
X020851Y015860D01*
X020674Y016036D01*
X020444Y016132D01*
X020194Y016132D01*
X020021Y016060D01*
X011343Y018591D01*
X011192Y018742D01*
X010983Y018828D01*
X010757Y018828D01*
X010548Y018742D01*
X010405Y018598D01*
X009135Y022089D01*
X009135Y022125D01*
X009128Y022143D01*
X009128Y027763D01*
X009135Y027781D01*
X009135Y027834D01*
X011427Y035092D01*
X011498Y035261D01*
X011498Y035314D01*
X011499Y035317D01*
X011498Y035327D01*
X011498Y035511D01*
X011490Y035529D01*
X011490Y042724D01*
X011498Y042742D01*
X011498Y042810D01*
X024416Y042810D01*
X024416Y042671D01*
X024511Y042440D01*
X024688Y042264D01*
X024919Y042168D01*
X025168Y042168D01*
X025262Y042207D01*
X032414Y039053D01*
X032436Y039001D01*
X032596Y038842D01*
X032804Y038755D01*
X033030Y038755D01*
X033239Y038842D01*
X033399Y039001D01*
X033485Y039210D01*
X033485Y039436D01*
X033399Y039645D01*
X033239Y039805D01*
X033030Y039891D01*
X032804Y039891D01*
X032773Y039879D01*
X026126Y042810D01*
X035814Y042810D01*
X035814Y040486D01*
X035925Y040072D01*
X035925Y040072D01*
X036140Y039700D01*
X036443Y039396D01*
X036443Y039396D01*
X036443Y039396D01*
X036815Y039181D01*
X037230Y039070D01*
X038176Y039070D01*
X038176Y004340D01*
X037230Y004340D01*
X036815Y004229D01*
X036443Y004014D01*
X036140Y003711D01*
X036140Y003711D01*
X035925Y003339D01*
X035925Y003339D01*
X035814Y002924D01*
X035814Y000600D01*
X034726Y000600D01*
X034726Y000669D01*
X034630Y000899D01*
X034454Y001076D01*
X034223Y001171D01*
X033974Y001171D01*
X033743Y001076D01*
X033567Y000899D01*
X033471Y000669D01*
X033471Y000600D01*
X020553Y000600D01*
X020553Y000669D01*
X020457Y000899D01*
X020281Y001076D01*
X020050Y001171D01*
X019800Y001171D01*
X019616Y001095D01*
X012757Y004344D01*
X012730Y004409D01*
X012570Y004569D01*
X012361Y004655D01*
X012135Y004655D01*
X011926Y004569D01*
X011766Y004409D01*
X011680Y004200D01*
X011680Y003974D01*
X011766Y003765D01*
X011926Y003605D01*
X012135Y003519D01*
X012361Y003519D01*
X012380Y003527D01*
X018558Y000600D01*
X009155Y000600D01*
X009155Y002924D01*
X009044Y003339D01*
X008829Y003711D01*
X008525Y004014D01*
X008153Y004229D01*
X007738Y004340D01*
X006793Y004340D01*
X006793Y004386D02*
X011757Y004386D01*
X011716Y004287D02*
X007937Y004287D01*
X008153Y004229D02*
X008153Y004229D01*
X008223Y004189D02*
X011680Y004189D01*
X011680Y004090D02*
X008394Y004090D01*
X008525Y004014D02*
X008525Y004014D01*
X008548Y003992D02*
X011680Y003992D01*
X011714Y003893D02*
X008646Y003893D01*
X008745Y003795D02*
X011754Y003795D01*
X011836Y003696D02*
X008837Y003696D01*
X008829Y003711D02*
X008829Y003711D01*
X008894Y003598D02*
X011945Y003598D01*
X012438Y003499D02*
X008951Y003499D01*
X009008Y003401D02*
X012646Y003401D01*
X012854Y003302D02*
X009053Y003302D01*
X009044Y003339D02*
X009044Y003339D01*
X009080Y003204D02*
X013062Y003204D01*
X013270Y003105D02*
X009106Y003105D01*
X009133Y003007D02*
X013478Y003007D01*
X013686Y002908D02*
X009155Y002908D01*
X009155Y002810D02*
X013894Y002810D01*
X014102Y002711D02*
X009155Y002711D01*
X009155Y002613D02*
X014310Y002613D01*
X014518Y002514D02*
X009155Y002514D01*
X009155Y002416D02*
X014726Y002416D01*
X014934Y002317D02*
X009155Y002317D01*
X009155Y002219D02*
X015142Y002219D01*
X015349Y002120D02*
X009155Y002120D01*
X009155Y002022D02*
X015557Y002022D01*
X015765Y001923D02*
X009155Y001923D01*
X009155Y001825D02*
X015973Y001825D01*
X016181Y001726D02*
X009155Y001726D01*
X009155Y001628D02*
X016389Y001628D01*
X016597Y001529D02*
X009155Y001529D01*
X009155Y001431D02*
X016805Y001431D01*
X017013Y001332D02*
X009155Y001332D01*
X009155Y001234D02*
X017221Y001234D01*
X017429Y001135D02*
X009155Y001135D01*
X009155Y001037D02*
X017637Y001037D01*
X017845Y000938D02*
X009155Y000938D01*
X009155Y000840D02*
X018053Y000840D01*
X018261Y000741D02*
X009155Y000741D01*
X009155Y000643D02*
X018469Y000643D01*
X019323Y001234D02*
X022099Y001234D01*
X022000Y001332D02*
X019115Y001332D01*
X018907Y001431D02*
X021902Y001431D01*
X021803Y001529D02*
X018700Y001529D01*
X018492Y001628D02*
X021705Y001628D01*
X021606Y001726D02*
X018284Y001726D01*
X018076Y001825D02*
X021541Y001825D01*
X021501Y001923D02*
X017868Y001923D01*
X017660Y002022D02*
X021471Y002022D01*
X021471Y002120D02*
X017452Y002120D01*
X017244Y002219D02*
X021471Y002219D01*
X022288Y001135D02*
X020137Y001135D01*
X020320Y001037D02*
X033704Y001037D01*
X033605Y000938D02*
X020418Y000938D01*
X020482Y000840D02*
X033542Y000840D01*
X033501Y000741D02*
X020523Y000741D01*
X020553Y000643D02*
X033471Y000643D01*
X033886Y001135D02*
X022681Y001135D01*
X022870Y001234D02*
X035814Y001234D01*
X035814Y001332D02*
X022968Y001332D01*
X023033Y001431D02*
X035814Y001431D01*
X035814Y001529D02*
X023074Y001529D01*
X023104Y001628D02*
X035814Y001628D01*
X035814Y001726D02*
X023104Y001726D01*
X023104Y001825D02*
X035814Y001825D01*
X035814Y001923D02*
X023073Y001923D01*
X023033Y002022D02*
X035814Y002022D01*
X035814Y002120D02*
X022966Y002120D01*
X022867Y002219D02*
X035814Y002219D01*
X035814Y002317D02*
X034297Y002317D01*
X034485Y002416D02*
X035814Y002416D01*
X035814Y002514D02*
X034583Y002514D01*
X034648Y002613D02*
X035814Y002613D01*
X035814Y002711D02*
X034689Y002711D01*
X034718Y002810D02*
X035814Y002810D01*
X035814Y002908D02*
X034718Y002908D01*
X034718Y003007D02*
X035836Y003007D01*
X035862Y003105D02*
X034718Y003105D01*
X034718Y003204D02*
X035889Y003204D01*
X035915Y003302D02*
X034718Y003302D01*
X034718Y003401D02*
X035961Y003401D01*
X036018Y003499D02*
X034718Y003499D01*
X034718Y003598D02*
X036074Y003598D01*
X036131Y003696D02*
X034718Y003696D01*
X034718Y003795D02*
X036224Y003795D01*
X036322Y003893D02*
X034718Y003893D01*
X034718Y003992D02*
X036421Y003992D01*
X036443Y004014D02*
X036443Y004014D01*
X036575Y004090D02*
X034718Y004090D01*
X034718Y004189D02*
X036745Y004189D01*
X036815Y004229D02*
X036815Y004229D01*
X037032Y004287D02*
X034718Y004287D01*
X034718Y004386D02*
X038176Y004386D01*
X038176Y004484D02*
X034718Y004484D01*
X034718Y004583D02*
X038176Y004583D01*
X038176Y004681D02*
X034718Y004681D01*
X034718Y004780D02*
X038176Y004780D01*
X038176Y004878D02*
X034718Y004878D01*
X034718Y004977D02*
X038176Y004977D01*
X038176Y005075D02*
X034718Y005075D01*
X034718Y005174D02*
X038176Y005174D01*
X038176Y005272D02*
X034718Y005272D01*
X034718Y005371D02*
X038176Y005371D01*
X038176Y005469D02*
X034718Y005469D01*
X034718Y005568D02*
X038176Y005568D01*
X038176Y005666D02*
X034718Y005666D01*
X034718Y005765D02*
X038176Y005765D01*
X038176Y005863D02*
X034718Y005863D01*
X034718Y005962D02*
X038176Y005962D01*
X038176Y006060D02*
X034718Y006060D01*
X034718Y006159D02*
X038176Y006159D01*
X038176Y006257D02*
X034718Y006257D01*
X034718Y006356D02*
X038176Y006356D01*
X038176Y006454D02*
X034718Y006454D01*
X034718Y006553D02*
X038176Y006553D01*
X038176Y006651D02*
X034718Y006651D01*
X034718Y006750D02*
X038176Y006750D01*
X038176Y006848D02*
X034718Y006848D01*
X034718Y006947D02*
X038176Y006947D01*
X038176Y007045D02*
X034718Y007045D01*
X034718Y007144D02*
X038176Y007144D01*
X038176Y007242D02*
X034718Y007242D01*
X034718Y007341D02*
X038176Y007341D01*
X038176Y007439D02*
X034718Y007439D01*
X034718Y007538D02*
X038176Y007538D01*
X038176Y007636D02*
X034718Y007636D01*
X034718Y007735D02*
X038176Y007735D01*
X038176Y007833D02*
X034718Y007833D01*
X034726Y007932D02*
X038176Y007932D01*
X038176Y008030D02*
X034751Y008030D01*
X034782Y008129D02*
X038176Y008129D01*
X038176Y008227D02*
X034813Y008227D01*
X034844Y008326D02*
X038176Y008326D01*
X038176Y008424D02*
X034875Y008424D01*
X034906Y008523D02*
X038176Y008523D01*
X038176Y008621D02*
X034937Y008621D01*
X034968Y008720D02*
X038176Y008720D01*
X038176Y008818D02*
X034999Y008818D01*
X035031Y008917D02*
X038176Y008917D01*
X038176Y009015D02*
X035062Y009015D01*
X035093Y009114D02*
X038176Y009114D01*
X038176Y009212D02*
X035124Y009212D01*
X035155Y009311D02*
X038176Y009311D01*
X038176Y009409D02*
X035186Y009409D01*
X035217Y009508D02*
X038176Y009508D01*
X038176Y009606D02*
X035248Y009606D01*
X035279Y009705D02*
X038176Y009705D01*
X038176Y009803D02*
X035310Y009803D01*
X035342Y009902D02*
X038176Y009902D01*
X038176Y010000D02*
X035373Y010000D01*
X035404Y010099D02*
X038176Y010099D01*
X038176Y010197D02*
X035435Y010197D01*
X035466Y010296D02*
X038176Y010296D01*
X038176Y010394D02*
X035497Y010394D01*
X035528Y010493D02*
X038176Y010493D01*
X038176Y010591D02*
X035559Y010591D01*
X035590Y010690D02*
X038176Y010690D01*
X038176Y010788D02*
X035622Y010788D01*
X035653Y010887D02*
X038176Y010887D01*
X038176Y010985D02*
X035684Y010985D01*
X035715Y011084D02*
X038176Y011084D01*
X038176Y011182D02*
X035746Y011182D01*
X035777Y011281D02*
X038176Y011281D01*
X038176Y011379D02*
X035808Y011379D01*
X035839Y011478D02*
X038176Y011478D01*
X038176Y011576D02*
X035870Y011576D01*
X035901Y011675D02*
X038176Y011675D01*
X038176Y011773D02*
X035933Y011773D01*
X035964Y011872D02*
X038176Y011872D01*
X038176Y011970D02*
X035995Y011970D01*
X036026Y012069D02*
X038176Y012069D01*
X038176Y012167D02*
X036057Y012167D01*
X036088Y012266D02*
X038176Y012266D01*
X038176Y012364D02*
X036119Y012364D01*
X036150Y012463D02*
X038176Y012463D01*
X038176Y012561D02*
X036181Y012561D01*
X036213Y012660D02*
X038176Y012660D01*
X038176Y012758D02*
X036244Y012758D01*
X036275Y012857D02*
X038176Y012857D01*
X038176Y012955D02*
X036306Y012955D01*
X036337Y013054D02*
X038176Y013054D01*
X038176Y013152D02*
X036368Y013152D01*
X036399Y013251D02*
X038176Y013251D01*
X038176Y013349D02*
X036430Y013349D01*
X036461Y013448D02*
X038176Y013448D01*
X038176Y013546D02*
X036492Y013546D01*
X036524Y013645D02*
X038176Y013645D01*
X038176Y013743D02*
X036555Y013743D01*
X036586Y013842D02*
X038176Y013842D01*
X038176Y013940D02*
X036617Y013940D01*
X036648Y014039D02*
X038176Y014039D01*
X038176Y014137D02*
X036679Y014137D01*
X036710Y014236D02*
X038176Y014236D01*
X038176Y014334D02*
X036741Y014334D01*
X036772Y014433D02*
X038176Y014433D01*
X038176Y014531D02*
X036804Y014531D01*
X036835Y014630D02*
X038176Y014630D01*
X038176Y014728D02*
X036866Y014728D01*
X036897Y014827D02*
X038176Y014827D01*
X038176Y014925D02*
X036928Y014925D01*
X036959Y015024D02*
X038176Y015024D01*
X038176Y015122D02*
X036990Y015122D01*
X037022Y015221D02*
X038176Y015221D01*
X038176Y015319D02*
X037063Y015319D01*
X037088Y015418D02*
X038176Y015418D01*
X038176Y015516D02*
X037088Y015516D01*
X037088Y015615D02*
X038176Y015615D01*
X038176Y015713D02*
X037081Y015713D01*
X037081Y015812D02*
X038176Y015812D01*
X038176Y015910D02*
X037081Y015910D01*
X037081Y016009D02*
X038176Y016009D01*
X038176Y016107D02*
X037081Y016107D01*
X037081Y016206D02*
X038176Y016206D01*
X038176Y016304D02*
X037081Y016304D01*
X037081Y016403D02*
X038176Y016403D01*
X038176Y016501D02*
X037081Y016501D01*
X037081Y016600D02*
X038176Y016600D01*
X038176Y016698D02*
X037081Y016698D01*
X037081Y016797D02*
X038176Y016797D01*
X038176Y016895D02*
X037081Y016895D01*
X037081Y016994D02*
X038176Y016994D01*
X038176Y017092D02*
X037081Y017092D01*
X037081Y017191D02*
X038176Y017191D01*
X038176Y017289D02*
X037081Y017289D01*
X037081Y017388D02*
X038176Y017388D01*
X038176Y017486D02*
X037081Y017486D01*
X037081Y017585D02*
X038176Y017585D01*
X038176Y017683D02*
X037081Y017683D01*
X037081Y017782D02*
X038176Y017782D01*
X038176Y017880D02*
X037081Y017880D01*
X037081Y017979D02*
X038176Y017979D01*
X038176Y018077D02*
X037081Y018077D01*
X037081Y018176D02*
X038176Y018176D01*
X038176Y018274D02*
X037081Y018274D01*
X037081Y018373D02*
X038176Y018373D01*
X038176Y018471D02*
X037081Y018471D01*
X037081Y018570D02*
X038176Y018570D01*
X038176Y018668D02*
X037081Y018668D01*
X037081Y018767D02*
X038176Y018767D01*
X038176Y018865D02*
X037081Y018865D01*
X037081Y018964D02*
X038176Y018964D01*
X038176Y019062D02*
X037081Y019062D01*
X037081Y019161D02*
X038176Y019161D01*
X038176Y019259D02*
X037081Y019259D01*
X037081Y019358D02*
X038176Y019358D01*
X038176Y019456D02*
X037081Y019456D01*
X037081Y019555D02*
X038176Y019555D01*
X038176Y019653D02*
X037081Y019653D01*
X037081Y019752D02*
X038176Y019752D01*
X038176Y019850D02*
X037081Y019850D01*
X037081Y019949D02*
X038176Y019949D01*
X038176Y020047D02*
X037081Y020047D01*
X037081Y020146D02*
X038176Y020146D01*
X038176Y020244D02*
X037081Y020244D01*
X037081Y020343D02*
X038176Y020343D01*
X038176Y020441D02*
X037081Y020441D01*
X037081Y020540D02*
X038176Y020540D01*
X038176Y020638D02*
X037081Y020638D01*
X037081Y020737D02*
X038176Y020737D01*
X038176Y020835D02*
X037081Y020835D01*
X037081Y020934D02*
X038176Y020934D01*
X038176Y021032D02*
X037081Y021032D01*
X037081Y021131D02*
X038176Y021131D01*
X038176Y021229D02*
X037081Y021229D01*
X037088Y021328D02*
X038176Y021328D01*
X038176Y021426D02*
X037088Y021426D01*
X037088Y021525D02*
X038176Y021525D01*
X038176Y021623D02*
X037052Y021623D01*
X037011Y021722D02*
X038176Y021722D01*
X038176Y021820D02*
X036971Y021820D01*
X036935Y021919D02*
X038176Y021919D01*
X038176Y022017D02*
X036900Y022017D01*
X036864Y022116D02*
X038176Y022116D01*
X038176Y022214D02*
X036828Y022214D01*
X036792Y022313D02*
X038176Y022313D01*
X038176Y022411D02*
X036756Y022411D01*
X036721Y022510D02*
X038176Y022510D01*
X038176Y022608D02*
X036685Y022608D01*
X036649Y022707D02*
X038176Y022707D01*
X038176Y022805D02*
X036613Y022805D01*
X036577Y022904D02*
X038176Y022904D01*
X038176Y023002D02*
X036541Y023002D01*
X036506Y023101D02*
X038176Y023101D01*
X038176Y023199D02*
X036470Y023199D01*
X036434Y023298D02*
X038176Y023298D01*
X038176Y023396D02*
X036398Y023396D01*
X036362Y023495D02*
X038176Y023495D01*
X038176Y023593D02*
X036327Y023593D01*
X036291Y023692D02*
X038176Y023692D01*
X038176Y023790D02*
X036255Y023790D01*
X036219Y023889D02*
X038176Y023889D01*
X038176Y023987D02*
X036183Y023987D01*
X036147Y024086D02*
X038176Y024086D01*
X038176Y024184D02*
X036112Y024184D01*
X036076Y024283D02*
X038176Y024283D01*
X038176Y024381D02*
X036040Y024381D01*
X036004Y024480D02*
X038176Y024480D01*
X038176Y024578D02*
X035968Y024578D01*
X035933Y024677D02*
X038176Y024677D01*
X038176Y024775D02*
X035897Y024775D01*
X035861Y024874D02*
X038176Y024874D01*
X038176Y024972D02*
X035825Y024972D01*
X035789Y025071D02*
X038176Y025071D01*
X038176Y025169D02*
X035753Y025169D01*
X035718Y025268D02*
X038176Y025268D01*
X038176Y025366D02*
X035682Y025366D01*
X035646Y025465D02*
X038176Y025465D01*
X038176Y025563D02*
X035610Y025563D01*
X035574Y025662D02*
X038176Y025662D01*
X038176Y025760D02*
X035539Y025760D01*
X035503Y025859D02*
X038176Y025859D01*
X038176Y025957D02*
X035467Y025957D01*
X035431Y026056D02*
X038176Y026056D01*
X038176Y026154D02*
X035395Y026154D01*
X035359Y026253D02*
X038176Y026253D01*
X038176Y026351D02*
X035324Y026351D01*
X035288Y026450D02*
X038176Y026450D01*
X038176Y026548D02*
X035252Y026548D01*
X035216Y026647D02*
X038176Y026647D01*
X038176Y026745D02*
X035180Y026745D01*
X035145Y026844D02*
X038176Y026844D01*
X038176Y026942D02*
X035109Y026942D01*
X035073Y027041D02*
X038176Y027041D01*
X038176Y027139D02*
X035037Y027139D01*
X035001Y027238D02*
X038176Y027238D01*
X038176Y027336D02*
X034965Y027336D01*
X034930Y027435D02*
X038176Y027435D01*
X038176Y027533D02*
X034894Y027533D01*
X034858Y027632D02*
X038176Y027632D01*
X038176Y027730D02*
X034822Y027730D01*
X034786Y027829D02*
X038176Y027829D01*
X038176Y027927D02*
X034751Y027927D01*
X034726Y028026D02*
X038176Y028026D01*
X038176Y028124D02*
X034718Y028124D01*
X034718Y028223D02*
X038176Y028223D01*
X038176Y028321D02*
X034718Y028321D01*
X034718Y028420D02*
X038176Y028420D01*
X038176Y028518D02*
X034718Y028518D01*
X034718Y028617D02*
X038176Y028617D01*
X038176Y028715D02*
X034718Y028715D01*
X034718Y028814D02*
X038176Y028814D01*
X038176Y028912D02*
X034718Y028912D01*
X034718Y029011D02*
X038176Y029011D01*
X038176Y029109D02*
X034718Y029109D01*
X034718Y029208D02*
X038176Y029208D01*
X038176Y029306D02*
X034718Y029306D01*
X034718Y029405D02*
X038176Y029405D01*
X038176Y029503D02*
X034718Y029503D01*
X034718Y029602D02*
X038176Y029602D01*
X038176Y029700D02*
X034718Y029700D01*
X034718Y029799D02*
X038176Y029799D01*
X038176Y029897D02*
X034718Y029897D01*
X034718Y029996D02*
X038176Y029996D01*
X038176Y030094D02*
X034718Y030094D01*
X034718Y030193D02*
X038176Y030193D01*
X038176Y030291D02*
X034718Y030291D01*
X034718Y030390D02*
X038176Y030390D01*
X038176Y030488D02*
X034718Y030488D01*
X034718Y030587D02*
X038176Y030587D01*
X038176Y030685D02*
X034718Y030685D01*
X034718Y030784D02*
X038176Y030784D01*
X038176Y030882D02*
X034718Y030882D01*
X034718Y030981D02*
X038176Y030981D01*
X038176Y031079D02*
X034718Y031079D01*
X034718Y031178D02*
X038176Y031178D01*
X038176Y031276D02*
X034718Y031276D01*
X034718Y031375D02*
X038176Y031375D01*
X038176Y031473D02*
X034718Y031473D01*
X034718Y031572D02*
X038176Y031572D01*
X038176Y031670D02*
X034718Y031670D01*
X034718Y031769D02*
X038176Y031769D01*
X038176Y031867D02*
X034718Y031867D01*
X034718Y031966D02*
X038176Y031966D01*
X038176Y032064D02*
X034718Y032064D01*
X034718Y032163D02*
X038176Y032163D01*
X038176Y032261D02*
X034718Y032261D01*
X034718Y032360D02*
X038176Y032360D01*
X038176Y032458D02*
X034718Y032458D01*
X034718Y032557D02*
X038176Y032557D01*
X038176Y032655D02*
X034718Y032655D01*
X034718Y032754D02*
X038176Y032754D01*
X038176Y032852D02*
X034718Y032852D01*
X034718Y032951D02*
X038176Y032951D01*
X038176Y033049D02*
X034718Y033049D01*
X034718Y033148D02*
X038176Y033148D01*
X038176Y033246D02*
X034718Y033246D01*
X034718Y033345D02*
X038176Y033345D01*
X038176Y033443D02*
X034718Y033443D01*
X034718Y033542D02*
X038176Y033542D01*
X038176Y033640D02*
X034718Y033640D01*
X034718Y033739D02*
X038176Y033739D01*
X038176Y033837D02*
X034718Y033837D01*
X034718Y033936D02*
X038176Y033936D01*
X038176Y034034D02*
X034718Y034034D01*
X034718Y034133D02*
X038176Y034133D01*
X038176Y034231D02*
X034718Y034231D01*
X034718Y034330D02*
X038176Y034330D01*
X038176Y034428D02*
X034718Y034428D01*
X034718Y034527D02*
X038176Y034527D01*
X038176Y034625D02*
X034718Y034625D01*
X034718Y034724D02*
X038176Y034724D01*
X038176Y034822D02*
X034718Y034822D01*
X034718Y034921D02*
X038176Y034921D01*
X038176Y035019D02*
X034718Y035019D01*
X034718Y035118D02*
X038176Y035118D01*
X038176Y035216D02*
X034718Y035216D01*
X034726Y035315D02*
X038176Y035315D01*
X038176Y035413D02*
X034726Y035413D01*
X034726Y035512D02*
X038176Y035512D01*
X038176Y035610D02*
X034685Y035610D01*
X034644Y035709D02*
X038176Y035709D01*
X038176Y035807D02*
X034565Y035807D01*
X034467Y035906D02*
X038176Y035906D01*
X038176Y036004D02*
X034247Y036004D01*
X033950Y036004D02*
X028999Y036004D01*
X029097Y035906D02*
X033730Y035906D01*
X033632Y035807D02*
X029196Y035807D01*
X029294Y035709D02*
X033553Y035709D01*
X033512Y035610D02*
X029393Y035610D01*
X029491Y035512D02*
X033471Y035512D01*
X033471Y035413D02*
X029590Y035413D01*
X029688Y035315D02*
X033471Y035315D01*
X033478Y035216D02*
X029787Y035216D01*
X029885Y035118D02*
X033478Y035118D01*
X033478Y035019D02*
X029984Y035019D01*
X030501Y034921D02*
X031003Y034921D01*
X031035Y034952D02*
X030930Y034848D01*
X030874Y034712D01*
X030874Y034092D01*
X030930Y033956D01*
X031035Y033852D01*
X031171Y033796D01*
X031393Y033796D01*
X031365Y033728D01*
X031365Y033502D01*
X031452Y033293D01*
X031611Y033133D01*
X031820Y033046D01*
X032046Y033046D01*
X032255Y033133D01*
X032287Y033165D01*
X032416Y033165D01*
X032582Y033233D01*
X032708Y033360D01*
X032777Y033525D01*
X032777Y034098D01*
X032708Y034263D01*
X032582Y034390D01*
X032188Y034783D01*
X032023Y034852D01*
X031936Y034852D01*
X031836Y034952D01*
X031700Y035008D01*
X031171Y035008D01*
X031035Y034952D01*
X030920Y034822D02*
X030584Y034822D01*
X030625Y034724D02*
X030879Y034724D01*
X030874Y034625D02*
X030630Y034625D01*
X030630Y034527D02*
X030874Y034527D01*
X030874Y034428D02*
X030630Y034428D01*
X030630Y034330D02*
X030874Y034330D01*
X030874Y034231D02*
X030630Y034231D01*
X030630Y034133D02*
X030874Y034133D01*
X030898Y034034D02*
X030606Y034034D01*
X030553Y033936D02*
X030951Y033936D01*
X031071Y033837D02*
X030433Y033837D01*
X030269Y033345D02*
X031430Y033345D01*
X031389Y033443D02*
X030066Y033443D01*
X029864Y033542D02*
X031365Y033542D01*
X031365Y033640D02*
X029661Y033640D01*
X029705Y033837D02*
X029256Y033837D01*
X029054Y033936D02*
X029585Y033936D01*
X029532Y034034D02*
X028851Y034034D01*
X028649Y034133D02*
X029508Y034133D01*
X029499Y034231D02*
X028446Y034231D01*
X028244Y034330D02*
X029401Y034330D01*
X029302Y034428D02*
X028042Y034428D01*
X027839Y034527D02*
X029204Y034527D01*
X029105Y034625D02*
X027637Y034625D01*
X027434Y034724D02*
X029007Y034724D01*
X028908Y034822D02*
X027232Y034822D01*
X027029Y034921D02*
X028810Y034921D01*
X028711Y035019D02*
X026827Y035019D01*
X026624Y035118D02*
X028613Y035118D01*
X028514Y035216D02*
X026422Y035216D01*
X026219Y035315D02*
X028416Y035315D01*
X028317Y035413D02*
X026017Y035413D01*
X025814Y035512D02*
X028219Y035512D01*
X028120Y035610D02*
X025630Y035610D01*
X025589Y035709D02*
X028022Y035709D01*
X027923Y035807D02*
X025510Y035807D01*
X025411Y035906D02*
X027825Y035906D01*
X028506Y036497D02*
X038176Y036497D01*
X038176Y036595D02*
X028408Y036595D01*
X028309Y036694D02*
X038176Y036694D01*
X038176Y036792D02*
X028154Y036792D01*
X028605Y036398D02*
X038176Y036398D01*
X038176Y036300D02*
X028703Y036300D01*
X028802Y036201D02*
X038176Y036201D01*
X038176Y036103D02*
X028900Y036103D01*
X029202Y038126D02*
X029731Y038126D01*
X029867Y038183D01*
X029967Y038283D01*
X030448Y038283D01*
X030613Y038351D01*
X030740Y038478D01*
X030808Y038643D01*
X030808Y039216D01*
X030740Y039381D01*
X030613Y039508D01*
X030220Y039902D01*
X030054Y039970D01*
X029924Y039970D01*
X029893Y040002D01*
X029684Y040088D01*
X029458Y040088D01*
X029249Y040002D01*
X029089Y039842D01*
X029003Y039633D01*
X029003Y039407D01*
X029058Y039274D01*
X028962Y039178D01*
X028906Y039042D01*
X028906Y038423D01*
X028962Y038287D01*
X029066Y038183D01*
X029202Y038126D01*
X029094Y038171D02*
X028473Y038171D01*
X028588Y038270D02*
X028979Y038270D01*
X028928Y038368D02*
X028639Y038368D01*
X028661Y038467D02*
X028906Y038467D01*
X028906Y038565D02*
X028661Y038565D01*
X028661Y038664D02*
X028906Y038664D01*
X028906Y038762D02*
X028661Y038762D01*
X028661Y038861D02*
X028906Y038861D01*
X028906Y038959D02*
X028661Y038959D01*
X028655Y039058D02*
X028912Y039058D01*
X028953Y039156D02*
X028614Y039156D01*
X028529Y039255D02*
X029038Y039255D01*
X029025Y039353D02*
X012847Y039353D01*
X012776Y039452D02*
X029003Y039452D01*
X029003Y039550D02*
X012677Y039550D01*
X013010Y039255D02*
X015074Y039255D01*
X014988Y039156D02*
X013212Y039156D01*
X013414Y039058D02*
X014947Y039058D01*
X014941Y038959D02*
X013617Y038959D01*
X013819Y038861D02*
X014941Y038861D01*
X014941Y038762D02*
X014021Y038762D01*
X014223Y038664D02*
X014941Y038664D01*
X014941Y038565D02*
X014426Y038565D01*
X014628Y038467D02*
X014941Y038467D01*
X014964Y038368D02*
X014830Y038368D01*
X013988Y037777D02*
X011490Y037777D01*
X011490Y037679D02*
X014191Y037679D01*
X014393Y037580D02*
X011490Y037580D01*
X011490Y037482D02*
X014595Y037482D01*
X014797Y037383D02*
X011490Y037383D01*
X011490Y037285D02*
X015000Y037285D01*
X015202Y037186D02*
X011490Y037186D01*
X011490Y037088D02*
X015404Y037088D01*
X015606Y036989D02*
X011490Y036989D01*
X011490Y036891D02*
X015809Y036891D01*
X016011Y036792D02*
X011490Y036792D01*
X011490Y036694D02*
X016213Y036694D01*
X016415Y036595D02*
X011490Y036595D01*
X011490Y036497D02*
X016618Y036497D01*
X016820Y036398D02*
X011490Y036398D01*
X011490Y036300D02*
X017022Y036300D01*
X017224Y036201D02*
X011490Y036201D01*
X011490Y036103D02*
X017427Y036103D01*
X017629Y036004D02*
X011490Y036004D01*
X011490Y035906D02*
X017831Y035906D01*
X018033Y035807D02*
X011490Y035807D01*
X011490Y035709D02*
X018236Y035709D01*
X018438Y035610D02*
X017133Y035610D01*
X017287Y035512D02*
X018640Y035512D01*
X018842Y035413D02*
X017385Y035413D01*
X017484Y035315D02*
X019045Y035315D01*
X017906Y034034D02*
X021864Y034034D01*
X021864Y033936D02*
X018009Y033936D01*
X018112Y033837D02*
X021864Y033837D01*
X021864Y033739D02*
X018215Y033739D01*
X018319Y033640D02*
X021864Y033640D01*
X021864Y033542D02*
X018422Y033542D01*
X018525Y033443D02*
X021864Y033443D01*
X021864Y033345D02*
X018628Y033345D01*
X018732Y033246D02*
X021864Y033246D01*
X021864Y033148D02*
X018835Y033148D01*
X018938Y033049D02*
X021864Y033049D01*
X021864Y032951D02*
X019041Y032951D01*
X019145Y032852D02*
X021864Y032852D01*
X021864Y032754D02*
X019374Y032754D01*
X019523Y032655D02*
X021864Y032655D01*
X021864Y032557D02*
X019620Y032557D01*
X019661Y032458D02*
X021864Y032458D01*
X021864Y032360D02*
X019702Y032360D01*
X019706Y032261D02*
X021864Y032261D01*
X021864Y032163D02*
X019706Y032163D01*
X019681Y032064D02*
X021864Y032064D01*
X021864Y031966D02*
X019641Y031966D01*
X019572Y031867D02*
X021864Y031867D01*
X021864Y031769D02*
X019473Y031769D01*
X019255Y031670D02*
X021864Y031670D01*
X021864Y031572D02*
X013057Y031572D01*
X013270Y031473D02*
X021864Y031473D01*
X021864Y031375D02*
X013484Y031375D01*
X013697Y031276D02*
X021864Y031276D01*
X021864Y031178D02*
X013910Y031178D01*
X014124Y031079D02*
X021864Y031079D01*
X021864Y030981D02*
X014337Y030981D01*
X014551Y030882D02*
X021864Y030882D01*
X021864Y030784D02*
X014764Y030784D01*
X014978Y030685D02*
X021864Y030685D01*
X021864Y030587D02*
X015191Y030587D01*
X015404Y030488D02*
X021864Y030488D01*
X021864Y030390D02*
X015618Y030390D01*
X015831Y030291D02*
X021864Y030291D01*
X021864Y030193D02*
X016045Y030193D01*
X016258Y030094D02*
X021864Y030094D01*
X021864Y029996D02*
X016471Y029996D01*
X016685Y029897D02*
X021864Y029897D01*
X021864Y029799D02*
X016898Y029799D01*
X017112Y029700D02*
X021864Y029700D01*
X021864Y029602D02*
X017325Y029602D01*
X017539Y029503D02*
X021864Y029503D01*
X021864Y029405D02*
X017752Y029405D01*
X017965Y029306D02*
X021864Y029306D01*
X021864Y029208D02*
X018179Y029208D01*
X018392Y029109D02*
X021864Y029109D01*
X021864Y029011D02*
X018606Y029011D01*
X018819Y028912D02*
X021864Y028912D01*
X021864Y028814D02*
X019032Y028814D01*
X019246Y028715D02*
X021864Y028715D01*
X021864Y028617D02*
X019459Y028617D01*
X019673Y028518D02*
X019763Y028518D01*
X019800Y028533D02*
X019716Y028498D01*
X012755Y031711D01*
X012730Y031771D01*
X012570Y031931D01*
X012361Y032017D01*
X012135Y032017D01*
X011926Y031931D01*
X011766Y031771D01*
X011680Y031562D01*
X011680Y031336D01*
X011766Y031127D01*
X011926Y030968D01*
X012135Y030881D01*
X012361Y030881D01*
X012384Y030891D01*
X019339Y027681D01*
X019393Y027550D01*
X019570Y027374D01*
X019800Y027278D01*
X020050Y027278D01*
X020281Y027374D01*
X020457Y027550D01*
X020553Y027781D01*
X020553Y028031D01*
X020457Y028261D01*
X020281Y028438D01*
X020050Y028533D01*
X019800Y028533D01*
X020087Y028518D02*
X021864Y028518D01*
X021864Y028420D02*
X020299Y028420D01*
X020397Y028321D02*
X021864Y028321D01*
X021864Y028223D02*
X020473Y028223D01*
X020514Y028124D02*
X021864Y028124D01*
X021864Y028026D02*
X020553Y028026D01*
X020553Y027927D02*
X021864Y027927D01*
X021864Y027829D02*
X020553Y027829D01*
X020532Y027730D02*
X021864Y027730D01*
X021864Y027632D02*
X020491Y027632D01*
X020440Y027533D02*
X021864Y027533D01*
X021864Y027435D02*
X020341Y027435D01*
X020189Y027336D02*
X021864Y027336D01*
X021864Y027238D02*
X018868Y027238D01*
X018769Y027336D02*
X019661Y027336D01*
X019509Y027435D02*
X018671Y027435D01*
X018572Y027533D02*
X019411Y027533D01*
X019360Y027632D02*
X018474Y027632D01*
X018375Y027730D02*
X019232Y027730D01*
X019019Y027829D02*
X018277Y027829D01*
X018178Y027927D02*
X018806Y027927D01*
X018592Y028026D02*
X018080Y028026D01*
X017934Y028124D02*
X018379Y028124D01*
X018165Y028223D02*
X009258Y028223D01*
X009289Y028321D02*
X017952Y028321D01*
X017738Y028420D02*
X009320Y028420D01*
X009351Y028518D02*
X017525Y028518D01*
X017312Y028617D02*
X009383Y028617D01*
X009414Y028715D02*
X017098Y028715D01*
X016885Y028814D02*
X009445Y028814D01*
X009476Y028912D02*
X016671Y028912D01*
X016458Y029011D02*
X009507Y029011D01*
X009538Y029109D02*
X016245Y029109D01*
X016031Y029208D02*
X009569Y029208D01*
X009600Y029306D02*
X015818Y029306D01*
X015604Y029405D02*
X009631Y029405D01*
X009662Y029503D02*
X015391Y029503D01*
X015177Y029602D02*
X009694Y029602D01*
X009725Y029700D02*
X014964Y029700D01*
X014751Y029799D02*
X009756Y029799D01*
X009787Y029897D02*
X014537Y029897D01*
X014324Y029996D02*
X009818Y029996D01*
X009849Y030094D02*
X014110Y030094D01*
X013897Y030193D02*
X009880Y030193D01*
X009911Y030291D02*
X013684Y030291D01*
X013470Y030390D02*
X009942Y030390D01*
X009974Y030488D02*
X013257Y030488D01*
X013043Y030587D02*
X010005Y030587D01*
X010036Y030685D02*
X012830Y030685D01*
X012616Y030784D02*
X010067Y030784D01*
X010098Y030882D02*
X012133Y030882D01*
X012363Y030882D02*
X012403Y030882D01*
X011913Y030981D02*
X010129Y030981D01*
X010160Y031079D02*
X011815Y031079D01*
X011746Y031178D02*
X010191Y031178D01*
X010222Y031276D02*
X011705Y031276D01*
X011680Y031375D02*
X010253Y031375D01*
X010285Y031473D02*
X011680Y031473D01*
X011684Y031572D02*
X010316Y031572D01*
X010347Y031670D02*
X011725Y031670D01*
X011765Y031769D02*
X010378Y031769D01*
X010409Y031867D02*
X011863Y031867D01*
X012010Y031966D02*
X010440Y031966D01*
X010471Y032064D02*
X018594Y032064D01*
X018564Y032163D02*
X010502Y032163D01*
X010533Y032261D02*
X018460Y032261D01*
X018357Y032360D02*
X010565Y032360D01*
X010596Y032458D02*
X018254Y032458D01*
X018151Y032557D02*
X010627Y032557D01*
X010658Y032655D02*
X018047Y032655D01*
X017944Y032754D02*
X010689Y032754D01*
X010720Y032852D02*
X017841Y032852D01*
X017738Y032951D02*
X010751Y032951D01*
X010782Y033049D02*
X017634Y033049D01*
X017531Y033148D02*
X010813Y033148D01*
X010844Y033246D02*
X017428Y033246D01*
X017325Y033345D02*
X010876Y033345D01*
X010907Y033443D02*
X017221Y033443D01*
X017118Y033542D02*
X010938Y033542D01*
X010969Y033640D02*
X017015Y033640D01*
X016912Y033739D02*
X011000Y033739D01*
X011031Y033837D02*
X015138Y033837D01*
X015018Y033936D02*
X011062Y033936D01*
X011093Y034034D02*
X014965Y034034D01*
X014941Y034133D02*
X011124Y034133D01*
X011156Y034231D02*
X014941Y034231D01*
X014941Y034330D02*
X011187Y034330D01*
X011218Y034428D02*
X014941Y034428D01*
X014941Y034527D02*
X011249Y034527D01*
X011280Y034625D02*
X014941Y034625D01*
X014946Y034724D02*
X011311Y034724D01*
X011342Y034822D02*
X014948Y034822D01*
X014962Y034921D02*
X011373Y034921D01*
X011404Y035019D02*
X015003Y035019D01*
X015083Y035118D02*
X011438Y035118D01*
X011479Y035216D02*
X015182Y035216D01*
X015280Y035315D02*
X011498Y035315D01*
X011498Y035413D02*
X015379Y035413D01*
X015477Y035512D02*
X011497Y035512D01*
X011490Y035610D02*
X015631Y035610D01*
X016058Y034724D02*
X016312Y034724D01*
X016307Y034625D02*
X016063Y034625D01*
X016063Y034527D02*
X016307Y034527D01*
X016307Y034428D02*
X016063Y034428D01*
X016063Y034330D02*
X016307Y034330D01*
X016307Y034231D02*
X016063Y034231D01*
X016063Y034133D02*
X016307Y034133D01*
X016331Y034034D02*
X016039Y034034D01*
X015986Y033936D02*
X016384Y033936D01*
X016504Y033837D02*
X015866Y033837D01*
X017596Y034330D02*
X021864Y034330D01*
X021864Y034428D02*
X020785Y034428D01*
X020883Y034527D02*
X021864Y034527D01*
X021864Y034625D02*
X020982Y034625D01*
X021080Y034724D02*
X021864Y034724D01*
X021864Y034822D02*
X021179Y034822D01*
X021277Y034921D02*
X021864Y034921D01*
X021864Y035019D02*
X021376Y035019D01*
X021474Y035118D02*
X021864Y035118D01*
X021864Y035216D02*
X021573Y035216D01*
X021671Y035315D02*
X021864Y035315D01*
X021864Y035413D02*
X021770Y035413D01*
X021864Y034231D02*
X017699Y034231D01*
X017802Y034133D02*
X021864Y034133D01*
X023104Y034133D02*
X026592Y034133D01*
X026794Y034034D02*
X023104Y034034D01*
X023104Y033936D02*
X026997Y033936D01*
X027199Y033837D02*
X023104Y033837D01*
X023104Y033739D02*
X027402Y033739D01*
X027604Y033640D02*
X023104Y033640D01*
X023104Y033542D02*
X027806Y033542D01*
X028009Y033443D02*
X023104Y033443D01*
X023104Y033345D02*
X028211Y033345D01*
X028414Y033246D02*
X023104Y033246D01*
X023104Y033148D02*
X028616Y033148D01*
X028819Y033049D02*
X023104Y033049D01*
X023104Y032951D02*
X029021Y032951D01*
X029224Y032852D02*
X023104Y032852D01*
X023104Y032754D02*
X029426Y032754D01*
X029629Y032655D02*
X023104Y032655D01*
X023104Y032557D02*
X029831Y032557D01*
X030034Y032458D02*
X023104Y032458D01*
X023104Y032360D02*
X030236Y032360D01*
X030439Y032261D02*
X023104Y032261D01*
X023104Y032163D02*
X030641Y032163D01*
X030844Y032064D02*
X023104Y032064D01*
X023104Y031966D02*
X031046Y031966D01*
X031249Y031867D02*
X023104Y031867D01*
X023104Y031769D02*
X031451Y031769D01*
X031653Y031670D02*
X023104Y031670D01*
X023104Y031572D02*
X031824Y031572D01*
X031893Y031473D02*
X023104Y031473D01*
X023104Y031375D02*
X031992Y031375D01*
X032211Y031276D02*
X023104Y031276D01*
X023104Y031178D02*
X033478Y031178D01*
X033478Y031276D02*
X032443Y031276D01*
X032662Y031375D02*
X033478Y031375D01*
X033478Y031473D02*
X032760Y031473D01*
X032829Y031572D02*
X033478Y031572D01*
X033478Y031670D02*
X032870Y031670D01*
X032895Y031769D02*
X033478Y031769D01*
X033478Y031867D02*
X032895Y031867D01*
X032891Y031966D02*
X033478Y031966D01*
X033478Y032064D02*
X032850Y032064D01*
X032809Y032163D02*
X033478Y032163D01*
X033478Y032261D02*
X032712Y032261D01*
X032564Y032360D02*
X033478Y032360D01*
X033478Y032458D02*
X032091Y032458D01*
X031889Y032557D02*
X033478Y032557D01*
X033478Y032655D02*
X031686Y032655D01*
X031484Y032754D02*
X033478Y032754D01*
X033478Y032852D02*
X031281Y032852D01*
X031079Y032951D02*
X033478Y032951D01*
X033478Y033049D02*
X032052Y033049D01*
X031814Y033049D02*
X030876Y033049D01*
X030674Y033148D02*
X031597Y033148D01*
X031498Y033246D02*
X030471Y033246D01*
X031370Y033739D02*
X029459Y033739D01*
X031867Y034921D02*
X033478Y034921D01*
X033478Y034822D02*
X032095Y034822D01*
X032248Y034724D02*
X033478Y034724D01*
X033478Y034625D02*
X032346Y034625D01*
X032445Y034527D02*
X033478Y034527D01*
X033478Y034428D02*
X032543Y034428D01*
X032642Y034330D02*
X033478Y034330D01*
X033478Y034231D02*
X032722Y034231D01*
X032762Y034133D02*
X033478Y034133D01*
X033478Y034034D02*
X032777Y034034D01*
X032777Y033936D02*
X033478Y033936D01*
X033478Y033837D02*
X032777Y033837D01*
X032777Y033739D02*
X033478Y033739D01*
X033478Y033640D02*
X032777Y033640D01*
X032777Y033542D02*
X033478Y033542D01*
X033478Y033443D02*
X032743Y033443D01*
X032693Y033345D02*
X033478Y033345D01*
X033478Y033246D02*
X032595Y033246D01*
X032270Y033148D02*
X033478Y033148D01*
X033478Y031079D02*
X023104Y031079D01*
X023104Y030981D02*
X033478Y030981D01*
X033478Y030882D02*
X023104Y030882D01*
X023104Y030784D02*
X033478Y030784D01*
X033478Y030685D02*
X023104Y030685D01*
X023104Y030587D02*
X033478Y030587D01*
X033478Y030488D02*
X023104Y030488D01*
X023104Y030390D02*
X033478Y030390D01*
X033478Y030291D02*
X023104Y030291D01*
X023104Y030193D02*
X033478Y030193D01*
X033478Y030094D02*
X023104Y030094D01*
X023104Y029996D02*
X033478Y029996D01*
X033478Y029897D02*
X023104Y029897D01*
X023104Y029799D02*
X033478Y029799D01*
X033478Y029700D02*
X027894Y029700D01*
X028041Y029602D02*
X033478Y029602D01*
X033478Y029503D02*
X028189Y029503D01*
X028337Y029405D02*
X033478Y029405D01*
X033478Y029306D02*
X028485Y029306D01*
X028632Y029208D02*
X033478Y029208D01*
X033478Y029109D02*
X028780Y029109D01*
X028928Y029011D02*
X033478Y029011D01*
X033478Y028912D02*
X029076Y028912D01*
X029223Y028814D02*
X033478Y028814D01*
X033478Y028715D02*
X029371Y028715D01*
X029519Y028617D02*
X033478Y028617D01*
X033478Y028518D02*
X029667Y028518D01*
X029814Y028420D02*
X033478Y028420D01*
X033478Y028321D02*
X029962Y028321D01*
X030506Y028223D02*
X030998Y028223D01*
X030918Y028124D02*
X030586Y028124D01*
X030627Y028026D02*
X030877Y028026D01*
X030874Y027927D02*
X030630Y027927D01*
X030630Y027829D02*
X030874Y027829D01*
X030874Y027730D02*
X030630Y027730D01*
X030630Y027632D02*
X030874Y027632D01*
X030874Y027533D02*
X030630Y027533D01*
X030630Y027435D02*
X030874Y027435D01*
X030900Y027336D02*
X030604Y027336D01*
X030548Y027238D02*
X030956Y027238D01*
X031083Y027139D02*
X030421Y027139D01*
X030464Y026745D02*
X031391Y026745D01*
X031365Y026844D02*
X030113Y026844D01*
X029761Y026942D02*
X031365Y026942D01*
X031367Y027041D02*
X029409Y027041D01*
X029590Y027238D02*
X028706Y027238D01*
X029057Y027139D02*
X029717Y027139D01*
X029534Y027336D02*
X028354Y027336D01*
X028002Y027435D02*
X029508Y027435D01*
X029508Y027533D02*
X027650Y027533D01*
X027298Y027632D02*
X029374Y027632D01*
X029226Y027730D02*
X026947Y027730D01*
X026595Y027829D02*
X029078Y027829D01*
X028931Y027927D02*
X026243Y027927D01*
X025891Y028026D02*
X028783Y028026D01*
X028635Y028124D02*
X025539Y028124D01*
X025198Y028223D02*
X028487Y028223D01*
X028340Y028321D02*
X025122Y028321D01*
X025023Y028420D02*
X028192Y028420D01*
X028044Y028518D02*
X024811Y028518D01*
X024488Y028518D02*
X023104Y028518D01*
X023104Y028420D02*
X024276Y028420D01*
X024177Y028321D02*
X023104Y028321D01*
X023104Y028223D02*
X024102Y028223D01*
X024061Y028124D02*
X023104Y028124D01*
X023104Y028026D02*
X024022Y028026D01*
X024022Y027927D02*
X023104Y027927D01*
X023104Y027829D02*
X024022Y027829D01*
X024043Y027730D02*
X023104Y027730D01*
X023104Y027632D02*
X024084Y027632D01*
X024135Y027533D02*
X023104Y027533D01*
X023104Y027435D02*
X024234Y027435D01*
X024386Y027336D02*
X023104Y027336D01*
X023104Y027238D02*
X025368Y027238D01*
X025719Y027139D02*
X023104Y027139D01*
X023104Y027041D02*
X026071Y027041D01*
X026423Y026942D02*
X023104Y026942D01*
X023104Y026844D02*
X026775Y026844D01*
X027127Y026745D02*
X023104Y026745D01*
X023104Y026647D02*
X027478Y026647D01*
X027830Y026548D02*
X023104Y026548D01*
X023104Y026450D02*
X028182Y026450D01*
X028534Y026351D02*
X023104Y026351D01*
X023104Y026253D02*
X028886Y026253D01*
X029237Y026154D02*
X023104Y026154D01*
X023104Y026056D02*
X029589Y026056D01*
X029941Y025957D02*
X023104Y025957D01*
X023104Y025859D02*
X030293Y025859D01*
X030644Y025760D02*
X023104Y025760D01*
X023104Y025662D02*
X030996Y025662D01*
X031348Y025563D02*
X023104Y025563D01*
X023104Y025465D02*
X031700Y025465D01*
X032052Y025366D02*
X023104Y025366D01*
X023104Y025268D02*
X032403Y025268D01*
X032755Y025169D02*
X023104Y025169D01*
X023104Y025071D02*
X033107Y025071D01*
X033459Y024972D02*
X023104Y024972D01*
X023104Y024874D02*
X033811Y024874D01*
X034064Y024775D02*
X023104Y024775D01*
X023104Y024677D02*
X034162Y024677D01*
X034649Y024578D02*
X023104Y024578D01*
X023104Y024480D02*
X034685Y024480D01*
X034721Y024381D02*
X023104Y024381D01*
X023104Y024283D02*
X034756Y024283D01*
X034792Y024184D02*
X023104Y024184D01*
X023104Y024086D02*
X034828Y024086D01*
X034864Y023987D02*
X023104Y023987D01*
X023104Y023889D02*
X034900Y023889D01*
X034935Y023790D02*
X023104Y023790D01*
X023104Y023692D02*
X034971Y023692D01*
X035007Y023593D02*
X023104Y023593D01*
X023104Y023495D02*
X035043Y023495D01*
X035079Y023396D02*
X028179Y023396D01*
X028320Y023298D02*
X035115Y023298D01*
X035150Y023199D02*
X028418Y023199D01*
X028517Y023101D02*
X035186Y023101D01*
X035222Y023002D02*
X028615Y023002D01*
X028714Y022904D02*
X035258Y022904D01*
X035294Y022805D02*
X028812Y022805D01*
X028911Y022707D02*
X035329Y022707D01*
X035365Y022608D02*
X029009Y022608D01*
X029108Y022510D02*
X035401Y022510D01*
X035437Y022411D02*
X029206Y022411D01*
X029305Y022313D02*
X035473Y022313D01*
X035509Y022214D02*
X029403Y022214D01*
X029502Y022116D02*
X035544Y022116D01*
X035580Y022017D02*
X029600Y022017D01*
X029699Y021919D02*
X035616Y021919D01*
X035652Y021820D02*
X029797Y021820D01*
X029896Y021722D02*
X035688Y021722D01*
X035723Y021623D02*
X029994Y021623D01*
X030511Y021525D02*
X030993Y021525D01*
X030916Y021426D02*
X030588Y021426D01*
X030629Y021328D02*
X030875Y021328D01*
X030874Y021229D02*
X030630Y021229D01*
X030630Y021131D02*
X030874Y021131D01*
X030874Y021032D02*
X030630Y021032D01*
X030630Y020934D02*
X030874Y020934D01*
X030874Y020835D02*
X030630Y020835D01*
X030832Y020737D02*
X030874Y020737D01*
X030661Y019850D02*
X023104Y019850D01*
X023104Y019752D02*
X031012Y019752D01*
X031364Y019653D02*
X023104Y019653D01*
X023104Y019555D02*
X031716Y019555D01*
X032068Y019456D02*
X023104Y019456D01*
X023104Y019358D02*
X032419Y019358D01*
X032771Y019259D02*
X023104Y019259D01*
X023104Y019161D02*
X033123Y019161D01*
X033475Y019062D02*
X023104Y019062D01*
X023104Y018964D02*
X033827Y018964D01*
X034068Y018865D02*
X023104Y018865D01*
X023104Y018767D02*
X034167Y018767D01*
X034818Y018767D02*
X035841Y018767D01*
X035841Y018865D02*
X034916Y018865D01*
X034991Y018964D02*
X035841Y018964D01*
X035841Y019062D02*
X035032Y019062D01*
X035060Y019161D02*
X035841Y019161D01*
X035841Y019259D02*
X035060Y019259D01*
X035060Y019358D02*
X035841Y019358D01*
X035841Y019456D02*
X035019Y019456D01*
X034979Y019555D02*
X035841Y019555D01*
X035841Y019653D02*
X034887Y019653D01*
X034753Y019752D02*
X035841Y019752D01*
X035841Y019850D02*
X033998Y019850D01*
X033647Y019949D02*
X035841Y019949D01*
X035841Y020047D02*
X033295Y020047D01*
X032943Y020146D02*
X035841Y020146D01*
X035841Y020244D02*
X032591Y020244D01*
X032787Y020540D02*
X031909Y020540D01*
X031888Y020441D02*
X035841Y020441D01*
X035841Y020343D02*
X032239Y020343D01*
X033441Y020540D02*
X035841Y020540D01*
X035841Y020638D02*
X033540Y020638D01*
X033613Y020737D02*
X035841Y020737D01*
X035841Y020835D02*
X033654Y020835D01*
X033682Y020934D02*
X035841Y020934D01*
X035841Y021032D02*
X033682Y021032D01*
X033682Y021131D02*
X035841Y021131D01*
X035841Y021229D02*
X033641Y021229D01*
X033600Y021328D02*
X035831Y021328D01*
X035795Y021426D02*
X033508Y021426D01*
X033371Y021525D02*
X035759Y021525D01*
X035841Y018668D02*
X023104Y018668D01*
X023104Y018570D02*
X035841Y018570D01*
X035841Y018471D02*
X023104Y018471D01*
X023104Y018373D02*
X035841Y018373D01*
X035841Y018274D02*
X023104Y018274D01*
X023104Y018176D02*
X035841Y018176D01*
X035841Y018077D02*
X023104Y018077D01*
X023104Y017979D02*
X035841Y017979D01*
X035841Y017880D02*
X023104Y017880D01*
X023104Y017782D02*
X035841Y017782D01*
X035841Y017683D02*
X023104Y017683D01*
X023104Y017585D02*
X035841Y017585D01*
X035841Y017486D02*
X023104Y017486D01*
X023104Y017388D02*
X035841Y017388D01*
X035841Y017289D02*
X023104Y017289D01*
X023104Y017191D02*
X035841Y017191D01*
X035841Y017092D02*
X028584Y017092D01*
X028718Y016994D02*
X035841Y016994D01*
X035841Y016895D02*
X028817Y016895D01*
X028915Y016797D02*
X035841Y016797D01*
X035841Y016698D02*
X029014Y016698D01*
X029112Y016600D02*
X035841Y016600D01*
X035841Y016501D02*
X029211Y016501D01*
X029309Y016403D02*
X035841Y016403D01*
X035841Y016304D02*
X029408Y016304D01*
X029506Y016206D02*
X035841Y016206D01*
X035841Y016107D02*
X029605Y016107D01*
X029703Y016009D02*
X035841Y016009D01*
X035841Y015910D02*
X029802Y015910D01*
X029900Y015812D02*
X035841Y015812D01*
X035841Y015713D02*
X031709Y015713D01*
X031700Y015717D02*
X031171Y015717D01*
X031035Y015661D01*
X030930Y015556D01*
X030874Y015420D01*
X030874Y014801D01*
X030930Y014665D01*
X031035Y014561D01*
X031171Y014504D01*
X031563Y014504D01*
X032186Y014123D01*
X032152Y014043D01*
X032152Y013817D01*
X032239Y013608D01*
X032399Y013448D01*
X032608Y013361D01*
X032834Y013361D01*
X033042Y013448D01*
X033202Y013608D01*
X033289Y013817D01*
X033289Y014043D01*
X033202Y014251D01*
X033171Y014283D01*
X033171Y014288D01*
X033179Y014341D01*
X033171Y014377D01*
X033171Y014413D01*
X033150Y014463D01*
X033137Y014515D01*
X033116Y014545D01*
X033102Y014578D01*
X033064Y014616D01*
X033032Y014660D01*
X033001Y014679D01*
X032975Y014705D01*
X032925Y014725D01*
X031996Y015295D01*
X031996Y015420D01*
X031940Y015556D01*
X031836Y015661D01*
X031700Y015717D01*
X031882Y015615D02*
X035833Y015615D01*
X035814Y015516D02*
X031956Y015516D01*
X031996Y015418D02*
X035783Y015418D01*
X035752Y015319D02*
X031996Y015319D01*
X032117Y015221D02*
X035721Y015221D01*
X035690Y015122D02*
X032278Y015122D01*
X032439Y015024D02*
X035659Y015024D01*
X035628Y014925D02*
X032600Y014925D01*
X032760Y014827D02*
X035596Y014827D01*
X035565Y014728D02*
X032921Y014728D01*
X033054Y014630D02*
X035534Y014630D01*
X035503Y014531D02*
X033126Y014531D01*
X033162Y014433D02*
X035472Y014433D01*
X035441Y014334D02*
X033178Y014334D01*
X033209Y014236D02*
X035410Y014236D01*
X035379Y014137D02*
X033250Y014137D01*
X033289Y014039D02*
X035348Y014039D01*
X035317Y013940D02*
X033289Y013940D01*
X033289Y013842D02*
X035285Y013842D01*
X035254Y013743D02*
X033258Y013743D01*
X033217Y013645D02*
X035223Y013645D01*
X035192Y013546D02*
X033140Y013546D01*
X033041Y013448D02*
X035161Y013448D01*
X035130Y013349D02*
X030787Y013349D01*
X030574Y013448D02*
X032400Y013448D01*
X032301Y013546D02*
X030360Y013546D01*
X030147Y013645D02*
X032224Y013645D01*
X032183Y013743D02*
X029933Y013743D01*
X029720Y013842D02*
X032152Y013842D01*
X032152Y013940D02*
X029507Y013940D01*
X029293Y014039D02*
X032152Y014039D01*
X032163Y014137D02*
X029080Y014137D01*
X028866Y014236D02*
X032002Y014236D01*
X031841Y014334D02*
X028653Y014334D01*
X028439Y014433D02*
X031681Y014433D01*
X031106Y014531D02*
X030398Y014531D01*
X030538Y014630D02*
X030966Y014630D01*
X030904Y014728D02*
X030600Y014728D01*
X030630Y014827D02*
X030874Y014827D01*
X030874Y014925D02*
X030630Y014925D01*
X030630Y015024D02*
X030874Y015024D01*
X030874Y015122D02*
X030630Y015122D01*
X030630Y015221D02*
X030874Y015221D01*
X030874Y015319D02*
X030630Y015319D01*
X030630Y015418D02*
X030874Y015418D01*
X030914Y015516D02*
X030590Y015516D01*
X030515Y015615D02*
X030989Y015615D01*
X031161Y015713D02*
X030343Y015713D01*
X029508Y014925D02*
X027372Y014925D01*
X027159Y015024D02*
X029415Y015024D01*
X029317Y015122D02*
X026946Y015122D01*
X026732Y015221D02*
X029218Y015221D01*
X029120Y015319D02*
X026519Y015319D01*
X026305Y015418D02*
X029021Y015418D01*
X028923Y015516D02*
X026092Y015516D01*
X025878Y015615D02*
X028824Y015615D01*
X028726Y015713D02*
X025665Y015713D01*
X025595Y015812D02*
X028627Y015812D01*
X028529Y015910D02*
X025525Y015910D01*
X025427Y016009D02*
X028430Y016009D01*
X028332Y016107D02*
X025228Y016107D01*
X024859Y016107D02*
X023104Y016107D01*
X023104Y016009D02*
X024660Y016009D01*
X024562Y015910D02*
X023104Y015910D01*
X023104Y015812D02*
X024491Y015812D01*
X024451Y015713D02*
X023104Y015713D01*
X023105Y015615D02*
X024416Y015615D01*
X024416Y015516D02*
X023141Y015516D01*
X023177Y015418D02*
X024416Y015418D01*
X024441Y015319D02*
X023214Y015319D01*
X023250Y015221D02*
X024482Y015221D01*
X024538Y015122D02*
X023286Y015122D01*
X023323Y015024D02*
X024637Y015024D01*
X024802Y014925D02*
X023383Y014925D01*
X023425Y014827D02*
X025438Y014827D01*
X025652Y014728D02*
X023433Y014728D01*
X023468Y014630D02*
X025865Y014630D01*
X027586Y014827D02*
X029508Y014827D01*
X029538Y014728D02*
X027799Y014728D01*
X028013Y014630D02*
X029600Y014630D01*
X029740Y014531D02*
X028226Y014531D01*
X028582Y013349D02*
X028639Y013349D01*
X028616Y013251D02*
X028853Y013251D01*
X029066Y013152D02*
X028616Y013152D01*
X028616Y013054D02*
X029280Y013054D01*
X029493Y012955D02*
X028616Y012955D01*
X028616Y012857D02*
X029706Y012857D01*
X029920Y012758D02*
X028616Y012758D01*
X028616Y012660D02*
X030133Y012660D01*
X030347Y012561D02*
X028616Y012561D01*
X028616Y012463D02*
X030560Y012463D01*
X030774Y012364D02*
X028616Y012364D01*
X028616Y012266D02*
X030987Y012266D01*
X031200Y012167D02*
X028616Y012167D01*
X028616Y012069D02*
X031414Y012069D01*
X031627Y011970D02*
X028616Y011970D01*
X028616Y011872D02*
X031841Y011872D01*
X032054Y011773D02*
X028616Y011773D01*
X028616Y011675D02*
X032224Y011675D01*
X032302Y011576D02*
X028616Y011576D01*
X028616Y011478D02*
X032403Y011478D01*
X033038Y011478D02*
X034539Y011478D01*
X034570Y011576D02*
X033139Y011576D01*
X033217Y011675D02*
X034601Y011675D01*
X034632Y011773D02*
X033258Y011773D01*
X033289Y011872D02*
X034663Y011872D01*
X034694Y011970D02*
X033289Y011970D01*
X033289Y012069D02*
X034726Y012069D01*
X034757Y012167D02*
X033250Y012167D01*
X033209Y012266D02*
X034788Y012266D01*
X034819Y012364D02*
X033121Y012364D01*
X032994Y012463D02*
X034850Y012463D01*
X034881Y012561D02*
X032494Y012561D01*
X032281Y012660D02*
X034912Y012660D01*
X034943Y012758D02*
X032068Y012758D01*
X031854Y012857D02*
X034974Y012857D01*
X035005Y012955D02*
X031641Y012955D01*
X031427Y013054D02*
X035037Y013054D01*
X035068Y013152D02*
X031214Y013152D01*
X031000Y013251D02*
X035099Y013251D01*
X034508Y011379D02*
X028616Y011379D01*
X028616Y011281D02*
X034477Y011281D01*
X034446Y011182D02*
X028616Y011182D01*
X028616Y011084D02*
X034414Y011084D01*
X034383Y010985D02*
X028616Y010985D01*
X028616Y010887D02*
X034352Y010887D01*
X034321Y010788D02*
X028616Y010788D01*
X028616Y010690D02*
X034290Y010690D01*
X034259Y010591D02*
X028616Y010591D01*
X028616Y010493D02*
X034228Y010493D01*
X034197Y010394D02*
X028616Y010394D01*
X028616Y010296D02*
X034166Y010296D01*
X034135Y010197D02*
X028616Y010197D01*
X028616Y010099D02*
X034103Y010099D01*
X034072Y010000D02*
X028616Y010000D01*
X028616Y009902D02*
X034041Y009902D01*
X034010Y009803D02*
X028616Y009803D01*
X028616Y009705D02*
X033979Y009705D01*
X033948Y009606D02*
X028616Y009606D01*
X028616Y009508D02*
X033917Y009508D01*
X033886Y009409D02*
X028589Y009409D01*
X028548Y009311D02*
X033855Y009311D01*
X033823Y009212D02*
X028486Y009212D01*
X028388Y009114D02*
X033792Y009114D01*
X033761Y009015D02*
X028289Y009015D01*
X028191Y008917D02*
X033730Y008917D01*
X033699Y008818D02*
X028092Y008818D01*
X027994Y008720D02*
X033668Y008720D01*
X033637Y008621D02*
X031722Y008621D01*
X031700Y008630D02*
X031171Y008630D01*
X031035Y008574D01*
X030930Y008470D01*
X030874Y008334D01*
X030874Y007714D01*
X030930Y007578D01*
X031035Y007474D01*
X031171Y007418D01*
X031430Y007418D01*
X032152Y006754D01*
X032152Y006730D01*
X032239Y006521D01*
X032399Y006361D01*
X032608Y006275D01*
X032834Y006275D01*
X033042Y006361D01*
X033202Y006521D01*
X033289Y006730D01*
X033289Y006956D01*
X033202Y007165D01*
X033042Y007325D01*
X032834Y007411D01*
X032767Y007411D01*
X031996Y008120D01*
X031996Y008334D01*
X031940Y008470D01*
X031836Y008574D01*
X031700Y008630D01*
X031887Y008523D02*
X033606Y008523D01*
X033575Y008424D02*
X031959Y008424D01*
X031996Y008326D02*
X033544Y008326D01*
X033503Y008227D02*
X031996Y008227D01*
X031996Y008129D02*
X033471Y008129D01*
X033471Y008030D02*
X032094Y008030D01*
X032201Y007932D02*
X033471Y007932D01*
X033478Y007833D02*
X032308Y007833D01*
X032415Y007735D02*
X033478Y007735D01*
X033478Y007636D02*
X032522Y007636D01*
X032630Y007538D02*
X033478Y007538D01*
X033478Y007439D02*
X032737Y007439D01*
X033004Y007341D02*
X033478Y007341D01*
X033478Y007242D02*
X033125Y007242D01*
X033211Y007144D02*
X033478Y007144D01*
X033478Y007045D02*
X033252Y007045D01*
X033289Y006947D02*
X033478Y006947D01*
X033478Y006848D02*
X033289Y006848D01*
X033289Y006750D02*
X033478Y006750D01*
X033478Y006651D02*
X033256Y006651D01*
X033215Y006553D02*
X033478Y006553D01*
X033478Y006454D02*
X033135Y006454D01*
X033028Y006356D02*
X033478Y006356D01*
X033478Y006257D02*
X029946Y006257D01*
X030159Y006159D02*
X033478Y006159D01*
X033478Y006060D02*
X030373Y006060D01*
X030586Y005962D02*
X033478Y005962D01*
X033478Y005863D02*
X030799Y005863D01*
X031013Y005765D02*
X033478Y005765D01*
X033478Y005666D02*
X031226Y005666D01*
X031440Y005568D02*
X033478Y005568D01*
X033478Y005469D02*
X031653Y005469D01*
X031866Y005371D02*
X033478Y005371D01*
X033478Y005272D02*
X032080Y005272D01*
X032293Y005174D02*
X033478Y005174D01*
X033478Y005075D02*
X032507Y005075D01*
X033008Y004977D02*
X033478Y004977D01*
X033478Y004878D02*
X033127Y004878D01*
X033212Y004780D02*
X033478Y004780D01*
X033478Y004681D02*
X033252Y004681D01*
X033289Y004583D02*
X033478Y004583D01*
X033478Y004484D02*
X033289Y004484D01*
X033289Y004386D02*
X033478Y004386D01*
X033478Y004287D02*
X033255Y004287D01*
X033214Y004189D02*
X033478Y004189D01*
X033478Y004090D02*
X033133Y004090D01*
X033024Y003992D02*
X033478Y003992D01*
X033478Y003893D02*
X022728Y003893D01*
X022728Y003795D02*
X033478Y003795D01*
X033478Y003696D02*
X022728Y003696D01*
X022728Y003598D02*
X033478Y003598D01*
X032417Y003992D02*
X022728Y003992D01*
X022728Y004090D02*
X032308Y004090D01*
X032227Y004189D02*
X024576Y004189D01*
X024665Y004287D02*
X032066Y004287D01*
X031853Y004386D02*
X024706Y004386D01*
X024715Y004484D02*
X031640Y004484D01*
X031426Y004583D02*
X024715Y004583D01*
X024715Y004681D02*
X031213Y004681D01*
X030999Y004780D02*
X024715Y004780D01*
X024715Y004878D02*
X030786Y004878D01*
X030572Y004977D02*
X024715Y004977D01*
X024715Y005075D02*
X030359Y005075D01*
X030146Y005174D02*
X024715Y005174D01*
X024715Y005272D02*
X029932Y005272D01*
X029719Y005371D02*
X024703Y005371D01*
X025699Y005469D02*
X029505Y005469D01*
X029292Y005568D02*
X025776Y005568D01*
X025817Y005666D02*
X029079Y005666D01*
X028865Y005765D02*
X025817Y005765D01*
X025817Y005863D02*
X028652Y005863D01*
X028438Y005962D02*
X025817Y005962D01*
X025817Y006060D02*
X028225Y006060D01*
X028011Y006159D02*
X025817Y006159D01*
X025817Y006257D02*
X027798Y006257D01*
X027585Y006356D02*
X025817Y006356D01*
X025817Y006454D02*
X027371Y006454D01*
X027158Y006553D02*
X025817Y006553D01*
X025817Y006651D02*
X026944Y006651D01*
X026731Y006750D02*
X025788Y006750D01*
X025729Y006848D02*
X026518Y006848D01*
X026304Y006947D02*
X025593Y006947D01*
X025664Y007242D02*
X024679Y007242D01*
X024679Y007144D02*
X025877Y007144D01*
X026091Y007045D02*
X024679Y007045D01*
X024679Y007341D02*
X025450Y007341D01*
X024816Y007439D02*
X024679Y007439D01*
X025598Y008326D02*
X026685Y008326D01*
X026849Y008227D02*
X025677Y008227D01*
X025891Y008129D02*
X027013Y008129D01*
X027177Y008030D02*
X026104Y008030D01*
X026318Y007932D02*
X027342Y007932D01*
X027495Y007833D02*
X026531Y007833D01*
X026744Y007735D02*
X029508Y007735D01*
X029540Y007636D02*
X026958Y007636D01*
X027171Y007538D02*
X029605Y007538D01*
X029753Y007439D02*
X027385Y007439D01*
X027598Y007341D02*
X031514Y007341D01*
X031621Y007242D02*
X027812Y007242D01*
X028025Y007144D02*
X031728Y007144D01*
X031835Y007045D02*
X028238Y007045D01*
X028452Y006947D02*
X031943Y006947D01*
X032050Y006848D02*
X028665Y006848D01*
X028879Y006750D02*
X032152Y006750D01*
X032185Y006651D02*
X029092Y006651D01*
X029305Y006553D02*
X032226Y006553D01*
X032306Y006454D02*
X029519Y006454D01*
X029732Y006356D02*
X032413Y006356D01*
X031119Y007439D02*
X030385Y007439D01*
X030533Y007538D02*
X030971Y007538D01*
X030907Y007636D02*
X030598Y007636D01*
X030630Y007735D02*
X030874Y007735D01*
X030874Y007833D02*
X030630Y007833D01*
X030630Y007932D02*
X030874Y007932D01*
X030874Y008030D02*
X030630Y008030D01*
X030630Y008129D02*
X030874Y008129D01*
X030874Y008227D02*
X030630Y008227D01*
X030630Y008326D02*
X030874Y008326D01*
X030912Y008424D02*
X030593Y008424D01*
X030521Y008523D02*
X030983Y008523D01*
X031148Y008621D02*
X030356Y008621D01*
X026520Y008424D02*
X025531Y008424D01*
X023469Y010386D02*
X021352Y010386D01*
X021156Y010583D01*
X021156Y011124D01*
X020910Y011370D01*
X020516Y011666D02*
X020368Y011813D01*
X020368Y012453D01*
X020467Y012552D01*
X020910Y012552D01*
X020516Y011666D02*
X021894Y011666D01*
X021973Y011587D01*
X022386Y010977D02*
X022386Y012207D01*
X022258Y012335D01*
X021973Y012335D01*
X022583Y012256D02*
X022711Y012335D01*
X022996Y012335D01*
X023045Y012010D02*
X023469Y012010D01*
X023715Y012256D01*
X024502Y012256D01*
X024847Y011912D01*
X024847Y011764D01*
X023469Y012010D02*
X023469Y012798D01*
X023124Y013142D01*
X022780Y013142D01*
X022583Y012256D02*
X022583Y010928D01*
X022878Y010681D01*
X022386Y010977D02*
X022091Y010681D01*
X022996Y011961D02*
X023045Y012010D01*
X021071Y014334D02*
X018652Y014334D01*
X018530Y014433D02*
X021170Y014433D01*
X021268Y014531D02*
X018408Y014531D01*
X018286Y014630D02*
X021367Y014630D01*
X021465Y014728D02*
X018164Y014728D01*
X018042Y014827D02*
X021564Y014827D01*
X021662Y014925D02*
X020560Y014925D01*
X020726Y015024D02*
X021761Y015024D01*
X021859Y015122D02*
X020824Y015122D01*
X020881Y015221D02*
X021928Y015221D01*
X021890Y015319D02*
X020921Y015319D01*
X020946Y015615D02*
X021864Y015615D01*
X021864Y015713D02*
X020912Y015713D01*
X020871Y015812D02*
X021864Y015812D01*
X021864Y015910D02*
X020801Y015910D01*
X020702Y016009D02*
X021864Y016009D01*
X021864Y016107D02*
X020504Y016107D01*
X020134Y016107D02*
X019860Y016107D01*
X019522Y016206D02*
X021864Y016206D01*
X021864Y016304D02*
X019184Y016304D01*
X018847Y016403D02*
X021864Y016403D01*
X021864Y016501D02*
X018509Y016501D01*
X018171Y016600D02*
X021864Y016600D01*
X021864Y016698D02*
X017833Y016698D01*
X017496Y016797D02*
X021864Y016797D01*
X021864Y016895D02*
X017158Y016895D01*
X016820Y016994D02*
X021864Y016994D01*
X021864Y017092D02*
X016483Y017092D01*
X016145Y017191D02*
X021864Y017191D01*
X021864Y017289D02*
X015807Y017289D01*
X015469Y017388D02*
X021864Y017388D01*
X021864Y017486D02*
X015132Y017486D01*
X014794Y017585D02*
X021864Y017585D01*
X021864Y017683D02*
X014456Y017683D01*
X014119Y017782D02*
X021864Y017782D01*
X021864Y017880D02*
X013781Y017880D01*
X013443Y017979D02*
X021864Y017979D01*
X021864Y018077D02*
X013105Y018077D01*
X012768Y018176D02*
X021864Y018176D01*
X021864Y018274D02*
X012430Y018274D01*
X012092Y018373D02*
X021864Y018373D01*
X021864Y018471D02*
X011755Y018471D01*
X011417Y018570D02*
X021864Y018570D01*
X021864Y018668D02*
X011266Y018668D01*
X011132Y018767D02*
X021864Y018767D01*
X021864Y018865D02*
X010308Y018865D01*
X010344Y018767D02*
X010608Y018767D01*
X010475Y018668D02*
X010379Y018668D01*
X010272Y018964D02*
X021864Y018964D01*
X021864Y019062D02*
X010236Y019062D01*
X010200Y019161D02*
X018812Y019161D01*
X018714Y019259D02*
X010165Y019259D01*
X010129Y019358D02*
X018639Y019358D01*
X018571Y019456D02*
X010093Y019456D01*
X010057Y019555D02*
X018409Y019555D01*
X018246Y019653D02*
X010021Y019653D01*
X009985Y019752D02*
X018084Y019752D01*
X017922Y019850D02*
X009950Y019850D01*
X009914Y019949D02*
X017760Y019949D01*
X017597Y020047D02*
X009878Y020047D01*
X009842Y020146D02*
X017435Y020146D01*
X017273Y020244D02*
X009806Y020244D01*
X009771Y020343D02*
X017111Y020343D01*
X016528Y020441D02*
X015842Y020441D01*
X015976Y020540D02*
X016394Y020540D01*
X016336Y020638D02*
X016035Y020638D01*
X016063Y020737D02*
X016307Y020737D01*
X016307Y020835D02*
X016063Y020835D01*
X016063Y020934D02*
X016307Y020934D01*
X016307Y021032D02*
X016063Y021032D01*
X016063Y021131D02*
X016307Y021131D01*
X016307Y021229D02*
X016063Y021229D01*
X016062Y021328D02*
X016308Y021328D01*
X015607Y022214D02*
X009128Y022214D01*
X009128Y022313D02*
X015521Y022313D01*
X015467Y022116D02*
X009135Y022116D01*
X009162Y022017D02*
X015369Y022017D01*
X015270Y021919D02*
X009197Y021919D01*
X009233Y021820D02*
X015172Y021820D01*
X015101Y021722D02*
X009269Y021722D01*
X009305Y021623D02*
X015060Y021623D01*
X015052Y021525D02*
X009341Y021525D01*
X009377Y021426D02*
X014983Y021426D01*
X014942Y021328D02*
X009412Y021328D01*
X009448Y021229D02*
X014941Y021229D01*
X014941Y021131D02*
X009484Y021131D01*
X009520Y021032D02*
X014941Y021032D01*
X014941Y020934D02*
X009556Y020934D01*
X009591Y020835D02*
X014941Y020835D01*
X014941Y020737D02*
X009627Y020737D01*
X009663Y020638D02*
X014969Y020638D01*
X015028Y020540D02*
X009699Y020540D01*
X009735Y020441D02*
X015162Y020441D01*
X015177Y022411D02*
X009128Y022411D01*
X009128Y022510D02*
X014832Y022510D01*
X014487Y022608D02*
X009128Y022608D01*
X009128Y022707D02*
X014142Y022707D01*
X013798Y022805D02*
X009128Y022805D01*
X009128Y022904D02*
X013453Y022904D01*
X013108Y023002D02*
X009128Y023002D01*
X009128Y023101D02*
X012763Y023101D01*
X012419Y023199D02*
X009128Y023199D01*
X009128Y023298D02*
X012074Y023298D01*
X011729Y023396D02*
X009128Y023396D01*
X009128Y023495D02*
X011384Y023495D01*
X011040Y023593D02*
X009128Y023593D01*
X009128Y023692D02*
X010344Y023692D01*
X010246Y023790D02*
X009128Y023790D01*
X009128Y023889D02*
X010173Y023889D01*
X010132Y023987D02*
X009128Y023987D01*
X009128Y024086D02*
X010105Y024086D01*
X010105Y024184D02*
X009128Y024184D01*
X009128Y024283D02*
X010107Y024283D01*
X010148Y024381D02*
X009128Y024381D01*
X009128Y024480D02*
X010188Y024480D01*
X010282Y024578D02*
X009128Y024578D01*
X009128Y024677D02*
X010422Y024677D01*
X010925Y024677D02*
X021864Y024677D01*
X021864Y024775D02*
X009128Y024775D01*
X009128Y024874D02*
X021864Y024874D01*
X021864Y024972D02*
X009128Y024972D01*
X009128Y025071D02*
X018808Y025071D01*
X018709Y025169D02*
X009128Y025169D01*
X009128Y025268D02*
X018637Y025268D01*
X018563Y025366D02*
X009128Y025366D01*
X009128Y025465D02*
X018401Y025465D01*
X018239Y025563D02*
X009128Y025563D01*
X009128Y025662D02*
X018077Y025662D01*
X017914Y025760D02*
X009128Y025760D01*
X009128Y025859D02*
X017752Y025859D01*
X017590Y025957D02*
X009128Y025957D01*
X009128Y026056D02*
X017428Y026056D01*
X017265Y026154D02*
X009128Y026154D01*
X009128Y026253D02*
X017103Y026253D01*
X016518Y026351D02*
X015853Y026351D01*
X015980Y026450D02*
X016390Y026450D01*
X016334Y026548D02*
X016037Y026548D01*
X016063Y026647D02*
X016307Y026647D01*
X016307Y026745D02*
X016063Y026745D01*
X016063Y026844D02*
X016307Y026844D01*
X016307Y026942D02*
X016063Y026942D01*
X016063Y027041D02*
X016307Y027041D01*
X016307Y027139D02*
X016063Y027139D01*
X016060Y027238D02*
X016310Y027238D01*
X015617Y028124D02*
X009227Y028124D01*
X009196Y028026D02*
X015472Y028026D01*
X015373Y027927D02*
X009165Y027927D01*
X009135Y027829D02*
X015275Y027829D01*
X015176Y027730D02*
X009128Y027730D01*
X009128Y027632D02*
X015103Y027632D01*
X015062Y027533D02*
X009128Y027533D01*
X009128Y027435D02*
X015052Y027435D01*
X014984Y027336D02*
X009128Y027336D01*
X009128Y027238D02*
X014944Y027238D01*
X014941Y027139D02*
X009128Y027139D01*
X009128Y027041D02*
X014941Y027041D01*
X014941Y026942D02*
X009128Y026942D01*
X009128Y026844D02*
X014941Y026844D01*
X014941Y026745D02*
X009128Y026745D01*
X009128Y026647D02*
X014941Y026647D01*
X014968Y026548D02*
X009128Y026548D01*
X009128Y026450D02*
X015024Y026450D01*
X015151Y026351D02*
X009128Y026351D01*
X007888Y026351D02*
X006793Y026351D01*
X006793Y026253D02*
X007888Y026253D01*
X007888Y026154D02*
X006793Y026154D01*
X006793Y026056D02*
X007888Y026056D01*
X007888Y025957D02*
X006793Y025957D01*
X006793Y025859D02*
X007888Y025859D01*
X007888Y025760D02*
X006793Y025760D01*
X006793Y025662D02*
X007888Y025662D01*
X007888Y025563D02*
X006793Y025563D01*
X006793Y025465D02*
X007888Y025465D01*
X007888Y025366D02*
X006793Y025366D01*
X006793Y025268D02*
X007888Y025268D01*
X007888Y025169D02*
X006793Y025169D01*
X006793Y025071D02*
X007888Y025071D01*
X007888Y024972D02*
X006793Y024972D01*
X006793Y024874D02*
X007888Y024874D01*
X007888Y024775D02*
X006793Y024775D01*
X006793Y024677D02*
X007888Y024677D01*
X007888Y024578D02*
X006793Y024578D01*
X006793Y024480D02*
X007888Y024480D01*
X007888Y024381D02*
X006793Y024381D01*
X006793Y024283D02*
X007888Y024283D01*
X007888Y024184D02*
X006793Y024184D01*
X006793Y024086D02*
X007888Y024086D01*
X007888Y023987D02*
X006793Y023987D01*
X006793Y023889D02*
X007888Y023889D01*
X007888Y023790D02*
X006793Y023790D01*
X006793Y023692D02*
X007888Y023692D01*
X007888Y023593D02*
X006793Y023593D01*
X006793Y023495D02*
X007888Y023495D01*
X007888Y023396D02*
X006793Y023396D01*
X006793Y023298D02*
X007888Y023298D01*
X007888Y023199D02*
X006793Y023199D01*
X006793Y023101D02*
X007888Y023101D01*
X007888Y023002D02*
X006793Y023002D01*
X006793Y022904D02*
X007888Y022904D01*
X007888Y022805D02*
X006793Y022805D01*
X006793Y022707D02*
X007888Y022707D01*
X007888Y022608D02*
X006793Y022608D01*
X006793Y022510D02*
X007888Y022510D01*
X007888Y022411D02*
X006793Y022411D01*
X006793Y022313D02*
X007888Y022313D01*
X007888Y022214D02*
X006793Y022214D01*
X006793Y022116D02*
X007880Y022116D01*
X007880Y022017D02*
X006793Y022017D01*
X006793Y021919D02*
X007880Y021919D01*
X007903Y021820D02*
X006793Y021820D01*
X006793Y021722D02*
X007944Y021722D01*
X007985Y021623D02*
X006793Y021623D01*
X006793Y021525D02*
X008021Y021525D01*
X008057Y021426D02*
X006793Y021426D01*
X006793Y021328D02*
X008093Y021328D01*
X008129Y021229D02*
X006793Y021229D01*
X006793Y021131D02*
X008165Y021131D01*
X008200Y021032D02*
X006793Y021032D01*
X006793Y020934D02*
X008236Y020934D01*
X008272Y020835D02*
X006793Y020835D01*
X006793Y020737D02*
X008308Y020737D01*
X008344Y020638D02*
X006793Y020638D01*
X006793Y020540D02*
X008379Y020540D01*
X008415Y020441D02*
X006793Y020441D01*
X006793Y020343D02*
X008451Y020343D01*
X008487Y020244D02*
X006793Y020244D01*
X006793Y020146D02*
X008523Y020146D01*
X008559Y020047D02*
X006793Y020047D01*
X006793Y019949D02*
X008594Y019949D01*
X008630Y019850D02*
X006793Y019850D01*
X006793Y019752D02*
X008666Y019752D01*
X008702Y019653D02*
X006793Y019653D01*
X006793Y019555D02*
X008738Y019555D01*
X008773Y019456D02*
X006793Y019456D01*
X006793Y019358D02*
X008809Y019358D01*
X008845Y019259D02*
X006793Y019259D01*
X006793Y019161D02*
X008881Y019161D01*
X008917Y019062D02*
X006793Y019062D01*
X006793Y018964D02*
X008953Y018964D01*
X008988Y018865D02*
X006793Y018865D01*
X006793Y018767D02*
X009024Y018767D01*
X009060Y018668D02*
X006793Y018668D01*
X006793Y018570D02*
X009096Y018570D01*
X009132Y018471D02*
X006793Y018471D01*
X006793Y018373D02*
X009167Y018373D01*
X009203Y018274D02*
X006793Y018274D01*
X006793Y018176D02*
X009239Y018176D01*
X009275Y018077D02*
X006793Y018077D01*
X006793Y017979D02*
X009311Y017979D01*
X009347Y017880D02*
X006793Y017880D01*
X006793Y017782D02*
X009382Y017782D01*
X009418Y017683D02*
X006793Y017683D01*
X006793Y017585D02*
X009454Y017585D01*
X009490Y017486D02*
X006793Y017486D01*
X006793Y017388D02*
X009526Y017388D01*
X009561Y017289D02*
X006793Y017289D01*
X006793Y017191D02*
X009597Y017191D01*
X009633Y017092D02*
X006793Y017092D01*
X006793Y016994D02*
X009669Y016994D01*
X009705Y016895D02*
X006793Y016895D01*
X006793Y016797D02*
X009741Y016797D01*
X009776Y016698D02*
X006793Y016698D01*
X006793Y016600D02*
X009812Y016600D01*
X009848Y016501D02*
X006793Y016501D01*
X006793Y016403D02*
X009884Y016403D01*
X009920Y016304D02*
X006793Y016304D01*
X006793Y016206D02*
X009955Y016206D01*
X009991Y016107D02*
X006793Y016107D01*
X006793Y016009D02*
X010027Y016009D01*
X010063Y015910D02*
X006793Y015910D01*
X006793Y015812D02*
X010099Y015812D01*
X010135Y015713D02*
X006793Y015713D01*
X006793Y015615D02*
X010170Y015615D01*
X010206Y015516D02*
X006793Y015516D01*
X006793Y015418D02*
X010242Y015418D01*
X010250Y015319D02*
X006793Y015319D01*
X006793Y015221D02*
X010250Y015221D01*
X010250Y015122D02*
X006793Y015122D01*
X006793Y015024D02*
X010250Y015024D01*
X010250Y014925D02*
X006793Y014925D01*
X006793Y014827D02*
X010250Y014827D01*
X010250Y014728D02*
X006793Y014728D01*
X006793Y014630D02*
X010250Y014630D01*
X010250Y014531D02*
X006793Y014531D01*
X006793Y014433D02*
X010250Y014433D01*
X010250Y014334D02*
X006793Y014334D01*
X006793Y014236D02*
X010250Y014236D01*
X010250Y014137D02*
X006793Y014137D01*
X006793Y014039D02*
X010250Y014039D01*
X010250Y013940D02*
X006793Y013940D01*
X006793Y013842D02*
X010250Y013842D01*
X010250Y013743D02*
X006793Y013743D01*
X006793Y013645D02*
X010250Y013645D01*
X010250Y013546D02*
X006793Y013546D01*
X006793Y013448D02*
X010250Y013448D01*
X010250Y013349D02*
X006793Y013349D01*
X006793Y013251D02*
X010250Y013251D01*
X010250Y013152D02*
X006793Y013152D01*
X006793Y013054D02*
X010250Y013054D01*
X010250Y012955D02*
X006793Y012955D01*
X006793Y012857D02*
X010250Y012857D01*
X010250Y012758D02*
X006793Y012758D01*
X006793Y012660D02*
X010250Y012660D01*
X010250Y012561D02*
X006793Y012561D01*
X006793Y012463D02*
X010250Y012463D01*
X010250Y012364D02*
X006793Y012364D01*
X006793Y012266D02*
X010250Y012266D01*
X010250Y012167D02*
X006793Y012167D01*
X006793Y012069D02*
X010250Y012069D01*
X010250Y011970D02*
X006793Y011970D01*
X006793Y011872D02*
X010250Y011872D01*
X010250Y011773D02*
X006793Y011773D01*
X006793Y011675D02*
X010250Y011675D01*
X010250Y011576D02*
X006793Y011576D01*
X006793Y011478D02*
X010250Y011478D01*
X010250Y011379D02*
X006793Y011379D01*
X006793Y011281D02*
X010250Y011281D01*
X010250Y011182D02*
X006793Y011182D01*
X006793Y011084D02*
X010250Y011084D01*
X010250Y010985D02*
X006793Y010985D01*
X006793Y010887D02*
X010250Y010887D01*
X010250Y010788D02*
X006793Y010788D01*
X006793Y010690D02*
X010250Y010690D01*
X010250Y010591D02*
X006793Y010591D01*
X006793Y010493D02*
X010250Y010493D01*
X010250Y010394D02*
X006793Y010394D01*
X006793Y010296D02*
X010250Y010296D01*
X010250Y010197D02*
X006793Y010197D01*
X006793Y010099D02*
X010250Y010099D01*
X010250Y010000D02*
X006793Y010000D01*
X006793Y009902D02*
X010250Y009902D01*
X010250Y009803D02*
X006793Y009803D01*
X006793Y009705D02*
X010250Y009705D01*
X010250Y009606D02*
X006793Y009606D01*
X006793Y009508D02*
X010250Y009508D01*
X010250Y009409D02*
X006793Y009409D01*
X006793Y009311D02*
X010250Y009311D01*
X010250Y009212D02*
X006793Y009212D01*
X006793Y009114D02*
X010250Y009114D01*
X010250Y009015D02*
X006793Y009015D01*
X006793Y008917D02*
X010250Y008917D01*
X010250Y008818D02*
X006793Y008818D01*
X006793Y008720D02*
X010250Y008720D01*
X010250Y008621D02*
X006793Y008621D01*
X006793Y008523D02*
X010250Y008523D01*
X010250Y008424D02*
X006793Y008424D01*
X006793Y008326D02*
X010250Y008326D01*
X010250Y008227D02*
X006793Y008227D01*
X006793Y008129D02*
X010243Y008129D01*
X010243Y008030D02*
X006793Y008030D01*
X006793Y007932D02*
X010243Y007932D01*
X010270Y007833D02*
X006793Y007833D01*
X006793Y007735D02*
X010311Y007735D01*
X010371Y007636D02*
X006793Y007636D01*
X006793Y007538D02*
X010469Y007538D01*
X010643Y007439D02*
X006793Y007439D01*
X006793Y007341D02*
X011362Y007341D01*
X011506Y007242D02*
X006793Y007242D01*
X006793Y007144D02*
X011650Y007144D01*
X011794Y007045D02*
X006793Y007045D01*
X006793Y006947D02*
X011938Y006947D01*
X012082Y006848D02*
X006793Y006848D01*
X006793Y006750D02*
X012225Y006750D01*
X012369Y006651D02*
X006793Y006651D01*
X006793Y006553D02*
X012513Y006553D01*
X012657Y006454D02*
X006793Y006454D01*
X006793Y006356D02*
X012801Y006356D01*
X012945Y006257D02*
X006793Y006257D01*
X006793Y006159D02*
X013089Y006159D01*
X013233Y006060D02*
X006793Y006060D01*
X006793Y005962D02*
X013377Y005962D01*
X013521Y005863D02*
X006793Y005863D01*
X006793Y005765D02*
X013665Y005765D01*
X013809Y005666D02*
X006793Y005666D01*
X006793Y005568D02*
X013953Y005568D01*
X014097Y005469D02*
X006793Y005469D01*
X006793Y005371D02*
X014241Y005371D01*
X014385Y005272D02*
X006793Y005272D01*
X006793Y005174D02*
X014529Y005174D01*
X014673Y005075D02*
X006793Y005075D01*
X006793Y004977D02*
X014817Y004977D01*
X014961Y004878D02*
X006793Y004878D01*
X006793Y004780D02*
X015105Y004780D01*
X015249Y004681D02*
X006793Y004681D01*
X006793Y004583D02*
X011960Y004583D01*
X011842Y004484D02*
X006793Y004484D01*
X011490Y008720D02*
X017344Y008720D01*
X017131Y008818D02*
X011490Y008818D01*
X011490Y008917D02*
X016918Y008917D01*
X016704Y009015D02*
X011490Y009015D01*
X011490Y009114D02*
X016491Y009114D01*
X016277Y009212D02*
X011490Y009212D01*
X011490Y009311D02*
X016064Y009311D01*
X015851Y009409D02*
X011490Y009409D01*
X011490Y009508D02*
X015637Y009508D01*
X015424Y009606D02*
X011490Y009606D01*
X011490Y009705D02*
X015210Y009705D01*
X014997Y009803D02*
X011490Y009803D01*
X011490Y009902D02*
X014783Y009902D01*
X014570Y010000D02*
X011490Y010000D01*
X011490Y010099D02*
X014357Y010099D01*
X014143Y010197D02*
X011490Y010197D01*
X011490Y010296D02*
X013930Y010296D01*
X013716Y010394D02*
X011490Y010394D01*
X011490Y010493D02*
X013503Y010493D01*
X013290Y010591D02*
X011490Y010591D01*
X011490Y010690D02*
X013076Y010690D01*
X012863Y010788D02*
X011490Y010788D01*
X011490Y010887D02*
X012649Y010887D01*
X012436Y010985D02*
X011490Y010985D01*
X011490Y011084D02*
X011932Y011084D01*
X011830Y011182D02*
X011490Y011182D01*
X011490Y011281D02*
X011752Y011281D01*
X011711Y011379D02*
X011490Y011379D01*
X011490Y011478D02*
X011680Y011478D01*
X011680Y011576D02*
X011490Y011576D01*
X011490Y011675D02*
X011680Y011675D01*
X011718Y011773D02*
X011490Y011773D01*
X011490Y011872D02*
X011759Y011872D01*
X011847Y011970D02*
X011490Y011970D01*
X011490Y012069D02*
X011974Y012069D01*
X011490Y012167D02*
X018601Y012167D01*
X018641Y012069D02*
X012523Y012069D01*
X012649Y011970D02*
X018719Y011970D01*
X018820Y011872D02*
X012737Y011872D01*
X012876Y011773D02*
X019672Y011773D01*
X019672Y011872D02*
X019456Y011872D01*
X019557Y011970D02*
X019672Y011970D01*
X019672Y012069D02*
X019634Y012069D01*
X019593Y011675D02*
X013090Y011675D01*
X013303Y011576D02*
X017949Y011576D01*
X017821Y011478D02*
X013516Y011478D01*
X013730Y011379D02*
X017752Y011379D01*
X017711Y011281D02*
X013943Y011281D01*
X014157Y011182D02*
X017704Y011182D01*
X017704Y011084D02*
X014370Y011084D01*
X014584Y010985D02*
X017704Y010985D01*
X017704Y010887D02*
X014797Y010887D01*
X015010Y010788D02*
X017704Y010788D01*
X017704Y010690D02*
X015224Y010690D01*
X015437Y010591D02*
X017704Y010591D01*
X017704Y010493D02*
X015651Y010493D01*
X015864Y010394D02*
X017704Y010394D01*
X017704Y010296D02*
X016077Y010296D01*
X016291Y010197D02*
X017704Y010197D01*
X017704Y010099D02*
X016504Y010099D01*
X016718Y010000D02*
X017704Y010000D01*
X017704Y009902D02*
X016931Y009902D01*
X017145Y009803D02*
X017704Y009803D01*
X017704Y009705D02*
X017358Y009705D01*
X017571Y009606D02*
X017704Y009606D01*
X017558Y008621D02*
X011640Y008621D01*
X011839Y008523D02*
X017771Y008523D01*
X017985Y008424D02*
X011974Y008424D01*
X012118Y008326D02*
X018198Y008326D01*
X018412Y008227D02*
X012262Y008227D01*
X012406Y008129D02*
X018625Y008129D01*
X018838Y008030D02*
X017183Y008030D01*
X017308Y007932D02*
X019052Y007932D01*
X019265Y007833D02*
X017406Y007833D01*
X017505Y007735D02*
X019366Y007735D01*
X019180Y006750D02*
X017663Y006750D01*
X017776Y006651D02*
X019152Y006651D01*
X019152Y006553D02*
X017890Y006553D01*
X018003Y006454D02*
X019152Y006454D01*
X019152Y006356D02*
X018117Y006356D01*
X018231Y006257D02*
X019152Y006257D01*
X019152Y006159D02*
X018344Y006159D01*
X018458Y006060D02*
X019152Y006060D01*
X019152Y005962D02*
X018571Y005962D01*
X018685Y005863D02*
X019152Y005863D01*
X019152Y005765D02*
X018798Y005765D01*
X018912Y005666D02*
X019152Y005666D01*
X019193Y005568D02*
X019026Y005568D01*
X019139Y005469D02*
X019270Y005469D01*
X019425Y005371D02*
X020266Y005371D01*
X020254Y005272D02*
X019544Y005272D01*
X019629Y005174D02*
X020254Y005174D01*
X020254Y005075D02*
X019670Y005075D01*
X019706Y004977D02*
X020254Y004977D01*
X020254Y004878D02*
X019706Y004878D01*
X019706Y004780D02*
X020254Y004780D01*
X020254Y004681D02*
X019673Y004681D01*
X019632Y004583D02*
X020254Y004583D01*
X020254Y004484D02*
X019551Y004484D01*
X019442Y004386D02*
X020263Y004386D01*
X020272Y004287D02*
X018020Y004287D01*
X017876Y004386D02*
X018834Y004386D01*
X018725Y004484D02*
X017733Y004484D01*
X017589Y004583D02*
X018644Y004583D01*
X018603Y004681D02*
X017445Y004681D01*
X017301Y004780D02*
X018560Y004780D01*
X018447Y004878D02*
X017157Y004878D01*
X017013Y004977D02*
X018333Y004977D01*
X018220Y005075D02*
X016869Y005075D01*
X016725Y005174D02*
X018106Y005174D01*
X017993Y005272D02*
X016581Y005272D01*
X016437Y005371D02*
X017879Y005371D01*
X017765Y005469D02*
X016293Y005469D01*
X016149Y005568D02*
X017652Y005568D01*
X017538Y005666D02*
X016005Y005666D01*
X015861Y005765D02*
X017425Y005765D01*
X017311Y005863D02*
X015717Y005863D01*
X015573Y005962D02*
X017198Y005962D01*
X017084Y006060D02*
X015429Y006060D01*
X015285Y006159D02*
X016970Y006159D01*
X016555Y006257D02*
X015816Y006257D01*
X015965Y006356D02*
X016405Y006356D01*
X016340Y006454D02*
X016030Y006454D01*
X016063Y006553D02*
X016307Y006553D01*
X016307Y006651D02*
X016063Y006651D01*
X016063Y006750D02*
X016307Y006750D01*
X016307Y006848D02*
X016063Y006848D01*
X016063Y006947D02*
X016307Y006947D01*
X016307Y007045D02*
X016063Y007045D01*
X016063Y007144D02*
X016307Y007144D01*
X015580Y008030D02*
X012550Y008030D01*
X012694Y007932D02*
X015456Y007932D01*
X015358Y007833D02*
X012838Y007833D01*
X012982Y007735D02*
X015259Y007735D01*
X015161Y007636D02*
X013126Y007636D01*
X013270Y007538D02*
X015096Y007538D01*
X015056Y007439D02*
X013414Y007439D01*
X013558Y007341D02*
X015049Y007341D01*
X014978Y007242D02*
X013702Y007242D01*
X013846Y007144D02*
X014941Y007144D01*
X014941Y007045D02*
X013989Y007045D01*
X014133Y006947D02*
X014941Y006947D01*
X014941Y006848D02*
X014277Y006848D01*
X014421Y006750D02*
X014941Y006750D01*
X014941Y006651D02*
X014565Y006651D01*
X014709Y006553D02*
X014941Y006553D01*
X014974Y006454D02*
X014853Y006454D01*
X014997Y006356D02*
X015039Y006356D01*
X015141Y006257D02*
X015188Y006257D01*
X015393Y004583D02*
X012536Y004583D01*
X012655Y004484D02*
X015537Y004484D01*
X015681Y004386D02*
X012739Y004386D01*
X012877Y004287D02*
X015825Y004287D01*
X015968Y004189D02*
X013085Y004189D01*
X013293Y004090D02*
X016112Y004090D01*
X016256Y003992D02*
X013501Y003992D01*
X013709Y003893D02*
X016400Y003893D01*
X016544Y003795D02*
X013917Y003795D01*
X014125Y003696D02*
X016688Y003696D01*
X016832Y003598D02*
X014333Y003598D01*
X014541Y003499D02*
X016976Y003499D01*
X017120Y003401D02*
X014749Y003401D01*
X014957Y003302D02*
X017264Y003302D01*
X017408Y003204D02*
X015164Y003204D01*
X015372Y003105D02*
X017552Y003105D01*
X017696Y003007D02*
X015580Y003007D01*
X015788Y002908D02*
X017840Y002908D01*
X017984Y002810D02*
X015996Y002810D01*
X016204Y002711D02*
X018128Y002711D01*
X018272Y002613D02*
X016412Y002613D01*
X016620Y002514D02*
X018416Y002514D01*
X018555Y002416D02*
X016828Y002416D01*
X017036Y002317D02*
X018729Y002317D01*
X019028Y003598D02*
X020272Y003598D01*
X020272Y003696D02*
X018884Y003696D01*
X018740Y003795D02*
X020272Y003795D01*
X020272Y003893D02*
X018596Y003893D01*
X018452Y003992D02*
X020272Y003992D01*
X020272Y004090D02*
X018308Y004090D01*
X018164Y004189D02*
X020272Y004189D01*
X019713Y001135D02*
X019531Y001135D01*
X018554Y012266D02*
X011490Y012266D01*
X011490Y012364D02*
X018440Y012364D01*
X018327Y012463D02*
X011490Y012463D01*
X011490Y012561D02*
X018213Y012561D01*
X018100Y012660D02*
X011490Y012660D01*
X011490Y012758D02*
X017986Y012758D01*
X017872Y012857D02*
X011490Y012857D01*
X011490Y012955D02*
X017759Y012955D01*
X017645Y013054D02*
X011490Y013054D01*
X011490Y013152D02*
X017532Y013152D01*
X017418Y013251D02*
X011490Y013251D01*
X011490Y013349D02*
X017305Y013349D01*
X017191Y013448D02*
X011490Y013448D01*
X011490Y013546D02*
X017077Y013546D01*
X016964Y013645D02*
X011490Y013645D01*
X011490Y013743D02*
X015175Y013743D01*
X015033Y013842D02*
X011490Y013842D01*
X011490Y013940D02*
X014971Y013940D01*
X014941Y014039D02*
X011490Y014039D01*
X011490Y014137D02*
X014941Y014137D01*
X014941Y014236D02*
X011490Y014236D01*
X011490Y014334D02*
X014941Y014334D01*
X014941Y014433D02*
X011490Y014433D01*
X011490Y014531D02*
X014941Y014531D01*
X014941Y014630D02*
X011490Y014630D01*
X011490Y014728D02*
X014980Y014728D01*
X015052Y014827D02*
X011490Y014827D01*
X011490Y014925D02*
X015058Y014925D01*
X015099Y015024D02*
X011490Y015024D01*
X011490Y015122D02*
X015166Y015122D01*
X015265Y015221D02*
X011490Y015221D01*
X011490Y015319D02*
X015363Y015319D01*
X015462Y015418D02*
X011498Y015418D01*
X011498Y015516D02*
X015594Y015516D01*
X015970Y016304D02*
X011239Y016304D01*
X011275Y016206D02*
X016308Y016206D01*
X016645Y016107D02*
X011311Y016107D01*
X011347Y016009D02*
X016983Y016009D01*
X017321Y015910D02*
X011382Y015910D01*
X011422Y015812D02*
X017659Y015812D01*
X017996Y015713D02*
X011463Y015713D01*
X011498Y015615D02*
X018334Y015615D01*
X018672Y015516D02*
X017187Y015516D01*
X017309Y015418D02*
X019009Y015418D01*
X019347Y015319D02*
X017431Y015319D01*
X017553Y015221D02*
X019685Y015221D01*
X019814Y015122D02*
X017675Y015122D01*
X017797Y015024D02*
X019912Y015024D01*
X020078Y014925D02*
X017919Y014925D01*
X016307Y014630D02*
X016063Y014630D01*
X016063Y014531D02*
X016307Y014531D01*
X016307Y014433D02*
X016063Y014433D01*
X016063Y014334D02*
X016307Y014334D01*
X016307Y014236D02*
X016063Y014236D01*
X016063Y014137D02*
X016307Y014137D01*
X016307Y014039D02*
X016063Y014039D01*
X016033Y013940D02*
X016338Y013940D01*
X016399Y013842D02*
X015971Y013842D01*
X015829Y013743D02*
X016541Y013743D01*
X015632Y016403D02*
X011203Y016403D01*
X011167Y016501D02*
X015295Y016501D01*
X014957Y016600D02*
X011132Y016600D01*
X011096Y016698D02*
X014619Y016698D01*
X014281Y016797D02*
X011060Y016797D01*
X011024Y016895D02*
X013944Y016895D01*
X013606Y016994D02*
X010988Y016994D01*
X010953Y017092D02*
X013268Y017092D01*
X012931Y017191D02*
X010917Y017191D01*
X010881Y017289D02*
X012593Y017289D01*
X012255Y017388D02*
X010845Y017388D01*
X010809Y017486D02*
X011917Y017486D01*
X011580Y017585D02*
X010773Y017585D01*
X010738Y017683D02*
X011242Y017683D01*
X016384Y023002D02*
X021864Y023002D01*
X021864Y022904D02*
X016729Y022904D01*
X017074Y022805D02*
X021864Y022805D01*
X021864Y022707D02*
X017418Y022707D01*
X017763Y022608D02*
X021864Y022608D01*
X021864Y022510D02*
X018108Y022510D01*
X018453Y022411D02*
X021864Y022411D01*
X021864Y022313D02*
X018797Y022313D01*
X019142Y022214D02*
X021864Y022214D01*
X021864Y022116D02*
X019487Y022116D01*
X019832Y022017D02*
X020145Y022017D01*
X020493Y022017D02*
X021864Y022017D01*
X021864Y021919D02*
X020698Y021919D01*
X020796Y021820D02*
X021864Y021820D01*
X021864Y021722D02*
X020869Y021722D01*
X020910Y021623D02*
X021864Y021623D01*
X021864Y021525D02*
X020946Y021525D01*
X020946Y021426D02*
X021864Y021426D01*
X021864Y021328D02*
X020946Y021328D01*
X020923Y021229D02*
X021864Y021229D01*
X021864Y021131D02*
X020882Y021131D01*
X021864Y020146D02*
X019398Y020146D01*
X019532Y020047D02*
X021864Y020047D01*
X021864Y019949D02*
X019624Y019949D01*
X019665Y019850D02*
X021864Y019850D01*
X021864Y019752D02*
X019706Y019752D01*
X019706Y019653D02*
X021864Y019653D01*
X021864Y019555D02*
X019706Y019555D01*
X019677Y019456D02*
X021864Y019456D01*
X021864Y019358D02*
X019637Y019358D01*
X019562Y019259D02*
X021864Y019259D01*
X021864Y019161D02*
X019464Y019161D01*
X023104Y019949D02*
X030309Y019949D01*
X029957Y020047D02*
X023104Y020047D01*
X023104Y020146D02*
X029605Y020146D01*
X029253Y020244D02*
X023104Y020244D01*
X023104Y020343D02*
X028902Y020343D01*
X028550Y020441D02*
X023104Y020441D01*
X023104Y020540D02*
X028198Y020540D01*
X027846Y020638D02*
X023104Y020638D01*
X023104Y020737D02*
X027494Y020737D01*
X027143Y020835D02*
X023104Y020835D01*
X023104Y020934D02*
X026791Y020934D01*
X026439Y021032D02*
X023104Y021032D01*
X023104Y021131D02*
X026087Y021131D01*
X025736Y021229D02*
X023104Y021229D01*
X023104Y021328D02*
X025384Y021328D01*
X025032Y021426D02*
X024903Y021426D01*
X024397Y021426D02*
X023104Y021426D01*
X023104Y021525D02*
X024238Y021525D01*
X024140Y021623D02*
X023104Y021623D01*
X023104Y021722D02*
X024086Y021722D01*
X024045Y021820D02*
X023104Y021820D01*
X023104Y021919D02*
X024022Y021919D01*
X024022Y022017D02*
X023104Y022017D01*
X023104Y022116D02*
X024022Y022116D01*
X024059Y022214D02*
X023104Y022214D01*
X023104Y022313D02*
X024100Y022313D01*
X024173Y022411D02*
X023104Y022411D01*
X023104Y022510D02*
X024271Y022510D01*
X021864Y023101D02*
X016039Y023101D01*
X015695Y023199D02*
X021864Y023199D01*
X021864Y023298D02*
X015350Y023298D01*
X015005Y023396D02*
X021864Y023396D01*
X021864Y023495D02*
X014660Y023495D01*
X014316Y023593D02*
X021864Y023593D01*
X021864Y023692D02*
X013971Y023692D01*
X013626Y023790D02*
X021864Y023790D01*
X021864Y023889D02*
X013281Y023889D01*
X012937Y023987D02*
X021864Y023987D01*
X021864Y024086D02*
X012592Y024086D01*
X012247Y024184D02*
X021864Y024184D01*
X021864Y024283D02*
X011902Y024283D01*
X011558Y024381D02*
X021864Y024381D01*
X021864Y024480D02*
X011213Y024480D01*
X011064Y024578D02*
X021864Y024578D01*
X021864Y025071D02*
X019468Y025071D01*
X019567Y025169D02*
X021864Y025169D01*
X021864Y025268D02*
X019638Y025268D01*
X019679Y025366D02*
X021864Y025366D01*
X021864Y025465D02*
X019706Y025465D01*
X019706Y025563D02*
X021864Y025563D01*
X021864Y025662D02*
X019704Y025662D01*
X019663Y025760D02*
X021864Y025760D01*
X021864Y025859D02*
X019622Y025859D01*
X019528Y025957D02*
X021864Y025957D01*
X021864Y026056D02*
X019387Y026056D01*
X019065Y027041D02*
X021864Y027041D01*
X021864Y027139D02*
X018966Y027139D01*
X023104Y028617D02*
X027896Y028617D01*
X027749Y028715D02*
X023104Y028715D01*
X023104Y028814D02*
X027601Y028814D01*
X025016Y027336D02*
X024914Y027336D01*
X030816Y026647D02*
X031432Y026647D01*
X031503Y026548D02*
X031168Y026548D01*
X031520Y026450D02*
X031602Y026450D01*
X031872Y026351D02*
X034004Y026351D01*
X034040Y026253D02*
X032223Y026253D01*
X032264Y026450D02*
X033968Y026450D01*
X033933Y026548D02*
X032363Y026548D01*
X032434Y026647D02*
X033897Y026647D01*
X033861Y026745D02*
X032475Y026745D01*
X032501Y026844D02*
X033825Y026844D01*
X033789Y026942D02*
X032501Y026942D01*
X032499Y027041D02*
X033753Y027041D01*
X033718Y027139D02*
X032458Y027139D01*
X032417Y027238D02*
X033682Y027238D01*
X033646Y027336D02*
X032383Y027336D01*
X032383Y027435D02*
X033610Y027435D01*
X033574Y027533D02*
X032383Y027533D01*
X032383Y027632D02*
X033533Y027632D01*
X033492Y027730D02*
X032383Y027730D01*
X032371Y027829D02*
X033471Y027829D01*
X033471Y027927D02*
X032330Y027927D01*
X032253Y028026D02*
X033471Y028026D01*
X033478Y028124D02*
X032107Y028124D01*
X031872Y028223D02*
X033478Y028223D01*
X034076Y026154D02*
X032575Y026154D01*
X032927Y026056D02*
X034112Y026056D01*
X034147Y025957D02*
X033279Y025957D01*
X033631Y025859D02*
X034183Y025859D01*
X034219Y025760D02*
X033982Y025760D01*
X032857Y021525D02*
X031877Y021525D01*
X028233Y016206D02*
X023104Y016206D01*
X021864Y015516D02*
X021860Y015405D01*
X007888Y026450D02*
X006793Y026450D01*
X006793Y026548D02*
X007888Y026548D01*
X007888Y026647D02*
X006793Y026647D01*
X006793Y026745D02*
X007888Y026745D01*
X007888Y026844D02*
X006793Y026844D01*
X006793Y026942D02*
X007888Y026942D01*
X007888Y027041D02*
X006793Y027041D01*
X006793Y027139D02*
X007888Y027139D01*
X007888Y027238D02*
X006793Y027238D01*
X006793Y027336D02*
X007888Y027336D01*
X007888Y027435D02*
X006793Y027435D01*
X006793Y027533D02*
X007888Y027533D01*
X007888Y027632D02*
X006793Y027632D01*
X006793Y027730D02*
X007888Y027730D01*
X007880Y027829D02*
X006793Y027829D01*
X006793Y027927D02*
X007880Y027927D01*
X007880Y028026D02*
X006793Y028026D01*
X006793Y028124D02*
X007919Y028124D01*
X007958Y028223D02*
X006793Y028223D01*
X006793Y028321D02*
X007989Y028321D01*
X008020Y028420D02*
X006793Y028420D01*
X006793Y028518D02*
X008051Y028518D01*
X008082Y028617D02*
X006793Y028617D01*
X006793Y028715D02*
X008113Y028715D01*
X008144Y028814D02*
X006793Y028814D01*
X006793Y028912D02*
X008175Y028912D01*
X008207Y029011D02*
X006793Y029011D01*
X006793Y029109D02*
X008238Y029109D01*
X008269Y029208D02*
X006793Y029208D01*
X006793Y029306D02*
X008300Y029306D01*
X008331Y029405D02*
X006793Y029405D01*
X006793Y029503D02*
X008362Y029503D01*
X008393Y029602D02*
X006793Y029602D01*
X006793Y029700D02*
X008424Y029700D01*
X008455Y029799D02*
X006793Y029799D01*
X006793Y029897D02*
X008487Y029897D01*
X008518Y029996D02*
X006793Y029996D01*
X006793Y030094D02*
X008549Y030094D01*
X008580Y030193D02*
X006793Y030193D01*
X006793Y030291D02*
X008611Y030291D01*
X008642Y030390D02*
X006793Y030390D01*
X006793Y030488D02*
X008673Y030488D01*
X008704Y030587D02*
X006793Y030587D01*
X006793Y030685D02*
X008735Y030685D01*
X008766Y030784D02*
X006793Y030784D01*
X006793Y030882D02*
X008798Y030882D01*
X008829Y030981D02*
X006793Y030981D01*
X006793Y031079D02*
X008860Y031079D01*
X008891Y031178D02*
X006793Y031178D01*
X006793Y031276D02*
X008922Y031276D01*
X008953Y031375D02*
X006793Y031375D01*
X006793Y031473D02*
X008984Y031473D01*
X009015Y031572D02*
X006793Y031572D01*
X006793Y031670D02*
X009046Y031670D01*
X009078Y031769D02*
X006793Y031769D01*
X006793Y031867D02*
X009109Y031867D01*
X009140Y031966D02*
X006793Y031966D01*
X006793Y032064D02*
X009171Y032064D01*
X009202Y032163D02*
X006793Y032163D01*
X006793Y032261D02*
X009233Y032261D01*
X009264Y032360D02*
X006793Y032360D01*
X006793Y032458D02*
X009295Y032458D01*
X009326Y032557D02*
X006793Y032557D01*
X006793Y032655D02*
X009358Y032655D01*
X009389Y032754D02*
X006793Y032754D01*
X006793Y032852D02*
X009420Y032852D01*
X009451Y032951D02*
X006793Y032951D01*
X006793Y033049D02*
X009482Y033049D01*
X009513Y033148D02*
X006793Y033148D01*
X006793Y033246D02*
X009544Y033246D01*
X009575Y033345D02*
X006793Y033345D01*
X006793Y033443D02*
X009606Y033443D01*
X009637Y033542D02*
X006793Y033542D01*
X006793Y033640D02*
X009669Y033640D01*
X009700Y033739D02*
X006793Y033739D01*
X006793Y033837D02*
X009731Y033837D01*
X009762Y033936D02*
X006793Y033936D01*
X006793Y034034D02*
X009793Y034034D01*
X009824Y034133D02*
X006793Y034133D01*
X006793Y034231D02*
X009855Y034231D01*
X009886Y034330D02*
X006793Y034330D01*
X006793Y034428D02*
X009917Y034428D01*
X009949Y034527D02*
X006793Y034527D01*
X006793Y034625D02*
X009980Y034625D01*
X010011Y034724D02*
X006793Y034724D01*
X006793Y034822D02*
X010042Y034822D01*
X010073Y034921D02*
X006793Y034921D01*
X006793Y035019D02*
X010104Y035019D01*
X010135Y035118D02*
X006793Y035118D01*
X006793Y035216D02*
X010166Y035216D01*
X010197Y035315D02*
X006793Y035315D01*
X006793Y035413D02*
X010228Y035413D01*
X010243Y035512D02*
X006793Y035512D01*
X006793Y035610D02*
X010250Y035610D01*
X010250Y035709D02*
X006793Y035709D01*
X006793Y035807D02*
X010250Y035807D01*
X010250Y035906D02*
X006793Y035906D01*
X006793Y036004D02*
X010250Y036004D01*
X010250Y036103D02*
X006793Y036103D01*
X006793Y036201D02*
X010250Y036201D01*
X010250Y036300D02*
X006793Y036300D01*
X006793Y036398D02*
X010250Y036398D01*
X010250Y036497D02*
X006793Y036497D01*
X006793Y036595D02*
X010250Y036595D01*
X010250Y036694D02*
X006793Y036694D01*
X006793Y036792D02*
X010250Y036792D01*
X010250Y036891D02*
X006793Y036891D01*
X006793Y036989D02*
X010250Y036989D01*
X010250Y037088D02*
X006793Y037088D01*
X006793Y037186D02*
X010250Y037186D01*
X010250Y037285D02*
X006793Y037285D01*
X006793Y037383D02*
X010250Y037383D01*
X010250Y037482D02*
X006793Y037482D01*
X006793Y037580D02*
X010250Y037580D01*
X010250Y037679D02*
X006793Y037679D01*
X006793Y037777D02*
X010250Y037777D01*
X010250Y037876D02*
X006793Y037876D01*
X006793Y037974D02*
X010250Y037974D01*
X010250Y038073D02*
X006793Y038073D01*
X006793Y038171D02*
X010250Y038171D01*
X010250Y038270D02*
X006793Y038270D01*
X006793Y038368D02*
X010250Y038368D01*
X010250Y038467D02*
X006793Y038467D01*
X006793Y038565D02*
X010250Y038565D01*
X010250Y038664D02*
X006793Y038664D01*
X006793Y038762D02*
X010250Y038762D01*
X010250Y038861D02*
X006793Y038861D01*
X006793Y038959D02*
X010250Y038959D01*
X010250Y039058D02*
X006793Y039058D01*
X008059Y039156D02*
X010250Y039156D01*
X010250Y039255D02*
X008280Y039255D01*
X008451Y039353D02*
X010250Y039353D01*
X010250Y039452D02*
X008581Y039452D01*
X008679Y039550D02*
X010250Y039550D01*
X010250Y039649D02*
X008778Y039649D01*
X008829Y039700D02*
X008829Y039700D01*
X008856Y039747D02*
X010250Y039747D01*
X010250Y039846D02*
X008913Y039846D01*
X008970Y039944D02*
X010250Y039944D01*
X010250Y040043D02*
X009027Y040043D01*
X009044Y040072D02*
X009044Y040072D01*
X009062Y040141D02*
X010250Y040141D01*
X010250Y040240D02*
X009089Y040240D01*
X009115Y040338D02*
X010250Y040338D01*
X010250Y040437D02*
X009141Y040437D01*
X009155Y040535D02*
X010250Y040535D01*
X010250Y040634D02*
X009155Y040634D01*
X009155Y040732D02*
X010250Y040732D01*
X010250Y040831D02*
X009155Y040831D01*
X009155Y040929D02*
X010250Y040929D01*
X010250Y041028D02*
X009155Y041028D01*
X009155Y041126D02*
X010250Y041126D01*
X010250Y041225D02*
X009155Y041225D01*
X009155Y041323D02*
X010250Y041323D01*
X010250Y041422D02*
X009155Y041422D01*
X009155Y041520D02*
X010250Y041520D01*
X010250Y041619D02*
X009155Y041619D01*
X009155Y041717D02*
X010250Y041717D01*
X010250Y041816D02*
X009155Y041816D01*
X009155Y041914D02*
X010250Y041914D01*
X010250Y042013D02*
X009155Y042013D01*
X009155Y042111D02*
X010250Y042111D01*
X010250Y042210D02*
X009155Y042210D01*
X009155Y042308D02*
X010250Y042308D01*
X010250Y042407D02*
X009155Y042407D01*
X009155Y042505D02*
X010250Y042505D01*
X010250Y042604D02*
X009155Y042604D01*
X009155Y042702D02*
X010250Y042702D01*
X010243Y042801D02*
X009155Y042801D01*
X011490Y042702D02*
X024416Y042702D01*
X024416Y042801D02*
X011498Y042801D01*
X011490Y042604D02*
X024444Y042604D01*
X024485Y042505D02*
X011490Y042505D01*
X011490Y042407D02*
X024545Y042407D01*
X024644Y042308D02*
X011490Y042308D01*
X011490Y042210D02*
X024819Y042210D01*
X025480Y042111D02*
X011490Y042111D01*
X011490Y042013D02*
X025704Y042013D01*
X025927Y041914D02*
X011490Y041914D01*
X011490Y041816D02*
X026151Y041816D01*
X026374Y041717D02*
X011490Y041717D01*
X011490Y041619D02*
X026597Y041619D01*
X026821Y041520D02*
X011490Y041520D01*
X011490Y041422D02*
X027044Y041422D01*
X027267Y041323D02*
X011490Y041323D01*
X011490Y041225D02*
X027491Y041225D01*
X027714Y041126D02*
X011490Y041126D01*
X011490Y041028D02*
X027937Y041028D01*
X028161Y040929D02*
X011490Y040929D01*
X011490Y040831D02*
X028384Y040831D01*
X028607Y040732D02*
X011490Y040732D01*
X011490Y040634D02*
X028831Y040634D01*
X029054Y040535D02*
X011490Y040535D01*
X011490Y040437D02*
X029278Y040437D01*
X029501Y040338D02*
X011490Y040338D01*
X011490Y040240D02*
X029724Y040240D01*
X029794Y040043D02*
X030171Y040043D01*
X030117Y039944D02*
X030394Y039944D01*
X030276Y039846D02*
X030618Y039846D01*
X030841Y039747D02*
X030374Y039747D01*
X030473Y039649D02*
X031064Y039649D01*
X031288Y039550D02*
X030571Y039550D01*
X030670Y039452D02*
X031511Y039452D01*
X031734Y039353D02*
X030751Y039353D01*
X030792Y039255D02*
X031958Y039255D01*
X032181Y039156D02*
X030808Y039156D01*
X030808Y039058D02*
X032405Y039058D01*
X032478Y038959D02*
X030808Y038959D01*
X030808Y038861D02*
X032577Y038861D01*
X032788Y038762D02*
X030808Y038762D01*
X030808Y038664D02*
X038176Y038664D01*
X038176Y038762D02*
X033047Y038762D01*
X033258Y038861D02*
X038176Y038861D01*
X038176Y038959D02*
X033357Y038959D01*
X033422Y039058D02*
X038176Y039058D01*
X038176Y038565D02*
X030776Y038565D01*
X030729Y038467D02*
X038176Y038467D01*
X038176Y038368D02*
X030630Y038368D01*
X029954Y038270D02*
X038176Y038270D01*
X038176Y038171D02*
X029839Y038171D01*
X029009Y039649D02*
X011490Y039649D01*
X011490Y039747D02*
X029050Y039747D01*
X029093Y039846D02*
X011490Y039846D01*
X011490Y039944D02*
X029192Y039944D01*
X029348Y040043D02*
X011490Y040043D01*
X011490Y040141D02*
X029948Y040141D01*
X030391Y040929D02*
X035814Y040929D01*
X035814Y040831D02*
X030615Y040831D01*
X030838Y040732D02*
X035814Y040732D01*
X035814Y040634D02*
X031061Y040634D01*
X031285Y040535D02*
X035814Y040535D01*
X035827Y040437D02*
X031508Y040437D01*
X031731Y040338D02*
X035854Y040338D01*
X035880Y040240D02*
X031955Y040240D01*
X032178Y040141D02*
X035906Y040141D01*
X035942Y040043D02*
X032401Y040043D01*
X032625Y039944D02*
X035999Y039944D01*
X036055Y039846D02*
X033141Y039846D01*
X033297Y039747D02*
X036112Y039747D01*
X036140Y039700D02*
X036140Y039700D01*
X036191Y039649D02*
X033395Y039649D01*
X033438Y039550D02*
X036289Y039550D01*
X036388Y039452D02*
X033479Y039452D01*
X033485Y039353D02*
X036518Y039353D01*
X036688Y039255D02*
X033485Y039255D01*
X033463Y039156D02*
X036909Y039156D01*
X036815Y039181D02*
X036815Y039181D01*
X038176Y038073D02*
X027579Y038073D01*
X027677Y038171D02*
X027728Y038171D01*
X027480Y037974D02*
X038176Y037974D01*
X038176Y037876D02*
X027382Y037876D01*
X027283Y037777D02*
X038176Y037777D01*
X038176Y037679D02*
X027185Y037679D01*
X027086Y037580D02*
X038176Y037580D01*
X038176Y037482D02*
X023104Y037482D01*
X023104Y037383D02*
X038176Y037383D01*
X038176Y037285D02*
X023104Y037285D01*
X023104Y037186D02*
X038176Y037186D01*
X038176Y037088D02*
X023104Y037088D01*
X023104Y036989D02*
X038176Y036989D01*
X038176Y036891D02*
X023104Y036891D01*
X023104Y035906D02*
X024675Y035906D01*
X024577Y035807D02*
X023104Y035807D01*
X023104Y035709D02*
X024498Y035709D01*
X024457Y035610D02*
X023104Y035610D01*
X023104Y035512D02*
X024416Y035512D01*
X024416Y035413D02*
X023104Y035413D01*
X023104Y035315D02*
X024416Y035315D01*
X024435Y035216D02*
X023104Y035216D01*
X023104Y035118D02*
X024475Y035118D01*
X024523Y035019D02*
X023104Y035019D01*
X023104Y034921D02*
X024622Y034921D01*
X024766Y034822D02*
X023104Y034822D01*
X023104Y034724D02*
X025377Y034724D01*
X025579Y034625D02*
X023104Y034625D01*
X023104Y034527D02*
X025782Y034527D01*
X025984Y034428D02*
X023104Y034428D01*
X023104Y034330D02*
X026187Y034330D01*
X026389Y034231D02*
X023104Y034231D01*
X019021Y031670D02*
X012843Y031670D01*
X012731Y031769D02*
X018802Y031769D01*
X018704Y031867D02*
X012634Y031867D01*
X012486Y031966D02*
X018635Y031966D01*
X013786Y037876D02*
X011490Y037876D01*
X011490Y037974D02*
X013584Y037974D01*
X013381Y038073D02*
X011490Y038073D01*
X011490Y038171D02*
X013179Y038171D01*
X012977Y038270D02*
X011490Y038270D01*
X011490Y038368D02*
X012775Y038368D01*
X012572Y038467D02*
X011490Y038467D01*
X011490Y038565D02*
X012098Y038565D01*
X011957Y038664D02*
X011490Y038664D01*
X011490Y038762D02*
X011862Y038762D01*
X011821Y038861D02*
X011490Y038861D01*
X011490Y038959D02*
X011781Y038959D01*
X011778Y039058D02*
X011490Y039058D01*
X011490Y039156D02*
X011778Y039156D01*
X011805Y039255D02*
X011490Y039255D01*
X011490Y039353D02*
X011846Y039353D01*
X011918Y039452D02*
X011490Y039452D01*
X011490Y039550D02*
X012016Y039550D01*
X015931Y039255D02*
X016440Y039255D01*
X016354Y039156D02*
X016016Y039156D01*
X016057Y039058D02*
X016313Y039058D01*
X016307Y038959D02*
X016063Y038959D01*
X016063Y038861D02*
X016307Y038861D01*
X016307Y038762D02*
X016063Y038762D01*
X016063Y038664D02*
X016307Y038664D01*
X016307Y038565D02*
X016063Y038565D01*
X016063Y038467D02*
X016307Y038467D01*
X017591Y039255D02*
X027672Y039255D01*
X027449Y039156D02*
X017746Y039156D01*
X017845Y039058D02*
X027291Y039058D01*
X027192Y038959D02*
X017887Y038959D01*
X017928Y038861D02*
X027094Y038861D01*
X026995Y038762D02*
X017934Y038762D01*
X017934Y038664D02*
X026897Y038664D01*
X028828Y041619D02*
X035814Y041619D01*
X035814Y041717D02*
X028604Y041717D01*
X028381Y041816D02*
X035814Y041816D01*
X035814Y041914D02*
X028158Y041914D01*
X027934Y042013D02*
X035814Y042013D01*
X035814Y042111D02*
X027711Y042111D01*
X027488Y042210D02*
X035814Y042210D01*
X035814Y042308D02*
X027264Y042308D01*
X027041Y042407D02*
X035814Y042407D01*
X035814Y042505D02*
X026817Y042505D01*
X026594Y042604D02*
X035814Y042604D01*
X035814Y042702D02*
X026371Y042702D01*
X026147Y042801D02*
X035814Y042801D01*
X035814Y041520D02*
X029051Y041520D01*
X029274Y041422D02*
X035814Y041422D01*
X035814Y041323D02*
X029498Y041323D01*
X029721Y041225D02*
X035814Y041225D01*
X035814Y041126D02*
X029944Y041126D01*
X030168Y041028D02*
X035814Y041028D01*
X022361Y038565D02*
X017912Y038565D01*
X017871Y038467D02*
X022129Y038467D01*
X034311Y001135D02*
X035814Y001135D01*
X035814Y001037D02*
X034493Y001037D01*
X034592Y000938D02*
X035814Y000938D01*
X035814Y000840D02*
X034655Y000840D01*
X034696Y000741D02*
X035814Y000741D01*
X035814Y000643D02*
X034726Y000643D01*
D26*
X023518Y008024D03*
X022484Y001725D03*
M02*
