G75*
G70*
%OFA0B0*%
%FSLAX24Y24*%
%IPPOS*%
%LPD*%
%AMOC8*
5,1,8,0,0,1.08239X$1,22.5*
%
%ADD10R,3.7008X3.7008*%
%ADD11R,0.0513X0.0356*%
%ADD12C,0.0680*%
%ADD13C,0.0516*%
%ADD14R,0.0356X0.0513*%
%ADD15R,0.0336X0.0946*%
%ADD16C,0.0555*%
%ADD17C,0.2380*%
%ADD18C,0.0860*%
%ADD19R,0.0986X0.0552*%
%ADD20R,0.0395X0.0631*%
%ADD21C,0.0740*%
%ADD22C,0.0820*%
%ADD23C,0.0476*%
%ADD24C,0.0390*%
%ADD25C,0.0437*%
%ADD26C,0.0362*%
%ADD27C,0.0390*%
%ADD28C,0.0358*%
%ADD29C,0.0397*%
D10*
X019293Y018899D03*
D11*
X019355Y024972D03*
X019355Y025563D03*
X019511Y028279D03*
X019511Y028869D03*
X020680Y033341D03*
X020680Y033931D03*
X022443Y035139D03*
X022443Y035730D03*
X010631Y025150D03*
X010631Y024559D03*
X027167Y014076D03*
X027167Y013486D03*
X028689Y015400D03*
X028689Y015991D03*
X029289Y015491D03*
X029289Y014900D03*
D12*
X033754Y015399D03*
X034754Y015399D03*
X034754Y014399D03*
X033754Y014399D03*
X033754Y013399D03*
X034754Y013399D03*
X034754Y012399D03*
X033754Y012399D03*
X033754Y011399D03*
X034754Y011399D03*
X034754Y010399D03*
X034754Y009399D03*
X033754Y009399D03*
X033754Y010399D03*
X033754Y008399D03*
X034754Y008399D03*
X034754Y007399D03*
X033754Y007399D03*
X033754Y006399D03*
X034754Y006399D03*
X034754Y016399D03*
X034754Y017399D03*
X033754Y017399D03*
X033754Y016399D03*
X033754Y018399D03*
X034754Y018399D03*
X034754Y019399D03*
X034754Y020399D03*
X033754Y020399D03*
X033754Y019399D03*
X033754Y021399D03*
X034754Y021399D03*
X034754Y022399D03*
X033754Y022399D03*
X033754Y023399D03*
X034754Y023399D03*
X034754Y024399D03*
X033754Y024399D03*
X033754Y025399D03*
X034754Y025399D03*
X034754Y026399D03*
X034754Y027399D03*
X033754Y027399D03*
X033754Y026399D03*
X033754Y028399D03*
X034754Y028399D03*
X034754Y029399D03*
X033754Y029399D03*
X033754Y030399D03*
X034754Y030399D03*
X034754Y031399D03*
X033754Y031399D03*
D13*
X014076Y034395D03*
X013576Y034395D03*
X013076Y034395D03*
X012576Y034395D03*
X012076Y034395D03*
X012076Y036395D03*
X012576Y036395D03*
X013076Y036395D03*
X013576Y036395D03*
X014076Y036395D03*
D14*
X017029Y032285D03*
X017620Y032285D03*
X017620Y031498D03*
X017029Y031498D03*
X018309Y030317D03*
X018899Y030317D03*
X019687Y030317D03*
X020277Y030317D03*
X019588Y034647D03*
X018998Y034647D03*
X024641Y028411D03*
X025231Y028411D03*
X025369Y024780D03*
X024778Y024780D03*
X024804Y020869D03*
X025395Y020869D03*
X031990Y021074D03*
X031990Y020530D03*
X031990Y019987D03*
X031990Y019443D03*
X031990Y018899D03*
X032580Y018899D03*
X032580Y019443D03*
X032580Y019987D03*
X032580Y020530D03*
X032580Y021074D03*
X032587Y021630D03*
X032580Y022168D03*
X031990Y022168D03*
X031996Y021630D03*
X022411Y005475D03*
X021820Y005475D03*
X010139Y025986D03*
X009549Y025986D03*
D15*
X018547Y031372D03*
X019047Y031372D03*
X019547Y031372D03*
X020047Y031372D03*
X020047Y033419D03*
X019547Y033419D03*
X019047Y033419D03*
X018547Y033419D03*
D16*
X018801Y035658D02*
X018801Y036133D01*
X019785Y036133D02*
X019785Y035658D01*
X020769Y035658D02*
X020769Y036133D01*
X017817Y036133D02*
X017817Y035658D01*
D17*
X004332Y003939D03*
X034254Y003939D03*
X034254Y033860D03*
X004332Y033860D03*
D18*
X022315Y008368D03*
X030189Y008368D03*
D19*
X024411Y034411D03*
X024411Y035671D03*
D20*
X026950Y036222D03*
X028171Y036222D03*
D21*
X016151Y035927D03*
X015151Y035927D03*
D22*
X014929Y015405D03*
X013929Y015405D03*
X015929Y015405D03*
D23*
X031089Y029495D03*
X026689Y031308D03*
D24*
X024989Y028895D03*
X025089Y027845D03*
X023465Y029419D03*
X022889Y027695D03*
X021989Y026489D03*
X020789Y026289D03*
X020789Y025589D03*
X020689Y025089D03*
X021789Y024589D03*
X022889Y024539D03*
X025089Y024295D03*
X025089Y025345D03*
X020989Y027695D03*
X020689Y027295D03*
X018889Y027995D03*
X016689Y026295D03*
X016389Y025895D03*
X015740Y025696D03*
X015283Y026692D03*
X015337Y022902D03*
X015735Y022906D03*
X016183Y022909D03*
X016591Y022909D03*
X011489Y023695D03*
X009889Y024495D03*
X009489Y024795D03*
X009889Y025195D03*
X006689Y026895D03*
X004689Y025995D03*
X006389Y029145D03*
X010754Y031898D03*
X012989Y032895D03*
X011289Y021795D03*
X010189Y018695D03*
X009289Y018695D03*
X009989Y016195D03*
X012689Y015695D03*
X013289Y015695D03*
X014089Y013995D03*
X014789Y013995D03*
X017839Y013095D03*
X021261Y005513D03*
X022644Y002659D03*
X030232Y010395D03*
X030626Y009995D03*
X031020Y009495D03*
X030126Y010895D03*
X030089Y012595D03*
X028489Y013395D03*
X027839Y011695D03*
X028139Y011195D03*
X029739Y015595D03*
X029589Y015995D03*
X032689Y017095D03*
X032589Y023595D03*
X025187Y020407D03*
X031183Y030902D03*
X032689Y032095D03*
X026489Y036195D03*
X013889Y004395D03*
D25*
X014837Y006398D03*
X014837Y006849D03*
X023059Y008186D03*
X023483Y008186D03*
X023883Y008186D03*
X023483Y008598D03*
X023102Y009039D03*
X027989Y012195D03*
X028789Y016595D03*
X030489Y016595D03*
X027889Y020089D03*
X027889Y021024D03*
X027889Y021959D03*
X027889Y022845D03*
X027889Y023645D03*
X027889Y024445D03*
X027889Y025195D03*
X027889Y025995D03*
X027889Y027195D03*
X027889Y027995D03*
X027889Y028745D03*
X027889Y029595D03*
X028454Y033803D03*
X028954Y033803D03*
X029454Y033803D03*
X029954Y033803D03*
X029954Y034303D03*
X029454Y034303D03*
X028954Y034303D03*
X028454Y034303D03*
X021389Y028395D03*
X020989Y028395D03*
X018440Y026014D03*
X017689Y028511D03*
X012730Y028439D03*
X012439Y025045D03*
X012439Y024545D03*
X011939Y024545D03*
X011939Y025045D03*
X007839Y027745D03*
X007339Y027745D03*
X007339Y028245D03*
X007839Y028245D03*
X005339Y025395D03*
X005339Y024395D03*
X003539Y024045D03*
X003539Y025445D03*
X005339Y018145D03*
X005339Y017645D03*
X005339Y016045D03*
X005339Y015545D03*
X014047Y017558D03*
X015589Y020558D03*
X018489Y017308D03*
X018489Y016858D03*
X018989Y016858D03*
X018989Y017308D03*
X023489Y024039D03*
X018562Y034106D03*
D26*
X013387Y028446D03*
X012551Y026084D03*
X011025Y024017D03*
X009057Y027167D03*
X010631Y029529D03*
X010238Y031891D03*
D27*
X012994Y031891D03*
X013387Y031891D03*
X013781Y031891D03*
X014175Y031891D03*
X014175Y030710D03*
X013781Y030710D03*
X013387Y030710D03*
X012994Y030710D03*
X016045Y026429D03*
X014716Y023820D03*
X014348Y023943D03*
X014569Y023230D03*
X015389Y021995D03*
X012256Y023476D03*
X020671Y030317D03*
X021261Y031891D03*
X021655Y033860D03*
X020080Y034647D03*
X018506Y034647D03*
X025198Y034647D03*
X025100Y021458D03*
X023476Y016340D03*
X023033Y016340D03*
X023328Y014372D03*
X023919Y014372D03*
X027265Y014519D03*
X032285Y018112D03*
X031104Y009057D03*
X029923Y007482D03*
X029529Y007088D03*
X029135Y006694D03*
X030710Y006694D03*
X031104Y007088D03*
X025986Y008663D03*
X025986Y009057D03*
X019539Y008761D03*
X018899Y008122D03*
X015061Y003840D03*
X003299Y023378D03*
X002265Y023673D03*
X011025Y035828D03*
D28*
X022935Y021704D03*
X023230Y021950D03*
X022639Y021458D03*
X022344Y021212D03*
X022000Y020966D03*
X021704Y020720D03*
X021360Y020474D03*
D29*
X022443Y036567D03*
X024411Y036567D03*
M02*
