G75*
G70*
%OFA0B0*%
%FSLAX24Y24*%
%IPPOS*%
%LPD*%
%AMOC8*
5,1,8,0,0,1.08239X$1,22.5*
%
%ADD10R,0.0433X0.0276*%
%ADD11C,0.0600*%
%ADD12C,0.0436*%
%ADD13R,0.0276X0.0433*%
%ADD14R,0.0256X0.0866*%
%ADD15C,0.0475*%
%ADD16C,0.2300*%
%ADD17C,0.0780*%
%ADD18R,0.0906X0.0472*%
%ADD19R,0.0315X0.0551*%
%ADD20C,0.0660*%
%ADD21C,0.0740*%
%ADD22C,0.0396*%
%ADD23C,0.0310*%
%ADD24C,0.0250*%
%ADD25C,0.0240*%
%ADD26C,0.0100*%
%ADD27C,0.0120*%
%ADD28C,0.0357*%
%ADD29C,0.0160*%
%ADD30C,0.0320*%
%ADD31C,0.0282*%
%ADD32C,0.0310*%
%ADD33C,0.0278*%
%ADD34C,0.0317*%
%ADD35C,0.0079*%
D10*
X010631Y024559D03*
X010631Y025150D03*
X019355Y024972D03*
X019355Y025563D03*
X019511Y028279D03*
X019511Y028869D03*
X020680Y033341D03*
X020680Y033931D03*
X022443Y035139D03*
X022443Y035730D03*
X028689Y015991D03*
X028689Y015400D03*
X029289Y015491D03*
X029289Y014900D03*
X027167Y014076D03*
X027167Y013486D03*
D11*
X033754Y013399D03*
X034754Y013399D03*
X034754Y012399D03*
X033754Y012399D03*
X033754Y011399D03*
X034754Y011399D03*
X034754Y010399D03*
X034754Y009399D03*
X033754Y009399D03*
X033754Y010399D03*
X033754Y008399D03*
X034754Y008399D03*
X034754Y007399D03*
X033754Y007399D03*
X033754Y006399D03*
X034754Y006399D03*
X034754Y014399D03*
X034754Y015399D03*
X033754Y015399D03*
X033754Y014399D03*
X033754Y016399D03*
X034754Y016399D03*
X034754Y017399D03*
X033754Y017399D03*
X033754Y018399D03*
X034754Y018399D03*
X034754Y019399D03*
X034754Y020399D03*
X033754Y020399D03*
X033754Y019399D03*
X033754Y021399D03*
X034754Y021399D03*
X034754Y022399D03*
X033754Y022399D03*
X033754Y023399D03*
X034754Y023399D03*
X034754Y024399D03*
X033754Y024399D03*
X033754Y025399D03*
X034754Y025399D03*
X034754Y026399D03*
X034754Y027399D03*
X033754Y027399D03*
X033754Y026399D03*
X033754Y028399D03*
X034754Y028399D03*
X034754Y029399D03*
X033754Y029399D03*
X033754Y030399D03*
X034754Y030399D03*
X034754Y031399D03*
X033754Y031399D03*
D12*
X014076Y034395D03*
X013576Y034395D03*
X013076Y034395D03*
X012576Y034395D03*
X012076Y034395D03*
X012076Y036395D03*
X012576Y036395D03*
X013076Y036395D03*
X013576Y036395D03*
X014076Y036395D03*
D13*
X017029Y032285D03*
X017620Y032285D03*
X017620Y031498D03*
X017029Y031498D03*
X018309Y030317D03*
X018899Y030317D03*
X019687Y030317D03*
X020277Y030317D03*
X019588Y034647D03*
X018998Y034647D03*
X024641Y028411D03*
X025231Y028411D03*
X025369Y024780D03*
X024778Y024780D03*
X024804Y020869D03*
X025395Y020869D03*
X031990Y021074D03*
X031990Y020530D03*
X031990Y019987D03*
X031990Y019443D03*
X031990Y018899D03*
X032580Y018899D03*
X032580Y019443D03*
X032580Y019987D03*
X032580Y020530D03*
X032580Y021074D03*
X032587Y021630D03*
X032580Y022168D03*
X031990Y022168D03*
X031996Y021630D03*
X022411Y005475D03*
X021820Y005475D03*
X010139Y025986D03*
X009549Y025986D03*
D14*
X018547Y031372D03*
X019047Y031372D03*
X019547Y031372D03*
X020047Y031372D03*
X020047Y033419D03*
X019547Y033419D03*
X019047Y033419D03*
X018547Y033419D03*
D15*
X018801Y035658D02*
X018801Y036133D01*
X019785Y036133D02*
X019785Y035658D01*
X020769Y035658D02*
X020769Y036133D01*
X017817Y036133D02*
X017817Y035658D01*
D16*
X004332Y033860D03*
X034254Y033860D03*
X034254Y003939D03*
X004332Y003939D03*
D17*
X022315Y008368D03*
X030189Y008368D03*
D18*
X024411Y034411D03*
X024411Y035671D03*
D19*
X026950Y036222D03*
X028171Y036222D03*
D20*
X016151Y035927D03*
X015151Y035927D03*
D21*
X014929Y015405D03*
X013929Y015405D03*
X015929Y015405D03*
D22*
X031089Y029495D03*
X026689Y031308D03*
D23*
X024989Y028895D03*
X025089Y027845D03*
X023465Y029419D03*
X022889Y027695D03*
X021989Y026489D03*
X020789Y026289D03*
X020789Y025589D03*
X020689Y025089D03*
X021789Y024589D03*
X022889Y024539D03*
X025089Y024295D03*
X025089Y025345D03*
X020989Y027695D03*
X020689Y027295D03*
X018889Y027995D03*
X016689Y026295D03*
X016389Y025895D03*
X015740Y025696D03*
X015283Y026692D03*
X015337Y022902D03*
X015735Y022906D03*
X016183Y022909D03*
X016591Y022909D03*
X011489Y023695D03*
X009889Y024495D03*
X009489Y024795D03*
X009889Y025195D03*
X006689Y026895D03*
X004689Y025995D03*
X006389Y029145D03*
X010754Y031898D03*
X012989Y032895D03*
X011289Y021795D03*
X010189Y018695D03*
X009289Y018695D03*
X009989Y016195D03*
X012689Y015695D03*
X013289Y015695D03*
X014089Y013995D03*
X014789Y013995D03*
X017839Y013095D03*
X021261Y005513D03*
X022644Y002659D03*
X030232Y010395D03*
X030626Y009995D03*
X031020Y009495D03*
X030126Y010895D03*
X030089Y012595D03*
X028489Y013395D03*
X027839Y011695D03*
X028139Y011195D03*
X029739Y015595D03*
X029589Y015995D03*
X032689Y017095D03*
X032589Y023595D03*
X025187Y020407D03*
X031183Y030902D03*
X032689Y032095D03*
X026489Y036195D03*
X013889Y004395D03*
D24*
X033754Y029399D02*
X034754Y029399D01*
X034750Y029395D01*
X033789Y029395D01*
X033689Y029495D01*
X031089Y029495D01*
X026689Y031308D02*
X026689Y034995D01*
X026489Y035195D01*
X026489Y036195D01*
D25*
X026380Y036195D01*
X026380Y036222D01*
X026950Y036222D01*
X024411Y036567D02*
X024411Y035671D01*
X022443Y035730D02*
X022443Y036567D01*
X023465Y029419D02*
X024241Y028643D01*
X024389Y028393D01*
X024289Y028543D01*
X024289Y027695D01*
X024289Y025595D01*
X024289Y024195D01*
X024289Y023495D01*
X024289Y020990D01*
X024411Y020868D01*
X024802Y020868D01*
X024804Y020869D01*
X024239Y024145D02*
X023845Y024539D01*
X022889Y024539D01*
X024289Y025595D02*
X024778Y025106D01*
X024778Y024780D01*
X024641Y028411D02*
X024389Y028393D01*
D26*
X001295Y001297D02*
X001390Y001131D01*
X001525Y000996D01*
X001690Y000901D01*
X001875Y000852D01*
X001970Y000845D01*
X028292Y000845D01*
X028292Y002166D01*
X028413Y002539D01*
X028413Y002539D01*
X028643Y002856D01*
X028643Y002856D01*
X028643Y002856D01*
X028960Y003086D01*
X028960Y003086D01*
X029333Y003207D01*
X032604Y003207D01*
X032604Y005544D01*
X032648Y005588D01*
X035859Y005588D01*
X035903Y005544D01*
X035903Y003207D01*
X036616Y003207D01*
X036711Y003214D01*
X036896Y003263D01*
X037061Y003359D01*
X037196Y003494D01*
X037291Y003659D01*
X037341Y003843D01*
X037347Y003939D01*
X037347Y036222D01*
X037341Y036317D01*
X037291Y036502D01*
X037196Y036667D01*
X037061Y036802D01*
X036896Y036897D01*
X036711Y036947D01*
X036616Y036953D01*
X010294Y036953D01*
X010294Y035632D01*
X010173Y035260D01*
X010173Y035260D01*
X009943Y034942D01*
X009943Y034942D01*
X009625Y034712D01*
X009253Y034591D01*
X005982Y034591D01*
X005982Y032254D01*
X005938Y032210D01*
X002726Y032210D01*
X002682Y032254D01*
X002682Y034591D01*
X001970Y034591D01*
X001875Y034585D01*
X001690Y034535D01*
X001525Y034440D01*
X001390Y034305D01*
X001295Y034140D01*
X001245Y033955D01*
X001239Y033860D01*
X001239Y001576D01*
X001245Y001481D01*
X001295Y001297D01*
X001303Y001282D02*
X028292Y001282D01*
X028292Y001380D02*
X001272Y001380D01*
X001246Y001479D02*
X028292Y001479D01*
X028292Y001577D02*
X001239Y001577D01*
X001239Y001676D02*
X028292Y001676D01*
X028292Y001774D02*
X001239Y001774D01*
X001239Y001873D02*
X028292Y001873D01*
X028292Y001971D02*
X001239Y001971D01*
X001239Y002070D02*
X028292Y002070D01*
X028292Y002168D02*
X001239Y002168D01*
X001239Y002267D02*
X028324Y002267D01*
X028356Y002365D02*
X022867Y002365D01*
X022851Y002349D02*
X022954Y002452D01*
X023009Y002586D01*
X023009Y002731D01*
X022954Y002865D01*
X022851Y002968D01*
X022758Y003007D01*
X022733Y003056D01*
X022717Y003094D01*
X022710Y003102D01*
X022705Y003111D01*
X022673Y003138D01*
X022644Y003167D01*
X022634Y003171D01*
X022626Y003178D01*
X022587Y003191D01*
X022549Y003207D01*
X022538Y003207D01*
X022527Y003210D01*
X022486Y003207D01*
X021803Y003207D01*
X021412Y003637D01*
X021409Y003643D01*
X021377Y003675D01*
X021346Y003709D01*
X021341Y003711D01*
X021336Y003716D01*
X021294Y003733D01*
X021253Y003753D01*
X021247Y003753D01*
X021241Y003755D01*
X021195Y003755D01*
X021150Y003757D01*
X021144Y003755D01*
X015420Y003755D01*
X015425Y003768D01*
X015425Y003913D01*
X015370Y004047D01*
X015267Y004149D01*
X015133Y004205D01*
X014988Y004205D01*
X014854Y004149D01*
X014805Y004100D01*
X014110Y004100D01*
X014198Y004189D01*
X014254Y004323D01*
X014254Y004468D01*
X014198Y004602D01*
X014096Y004705D01*
X013962Y004760D01*
X013816Y004760D01*
X013682Y004705D01*
X013580Y004602D01*
X013560Y004555D01*
X013497Y004555D01*
X012949Y005103D01*
X012949Y015439D01*
X012989Y015479D01*
X013029Y015439D01*
X013029Y013286D01*
X013069Y013191D01*
X013315Y012945D01*
X013388Y012872D01*
X013483Y012832D01*
X017421Y012832D01*
X017422Y012832D01*
X017473Y012832D01*
X017524Y012832D01*
X017525Y012833D01*
X017585Y012833D01*
X017633Y012786D01*
X017767Y012730D01*
X017912Y012730D01*
X018046Y012786D01*
X018149Y012889D01*
X018204Y013023D01*
X018204Y013168D01*
X018149Y013302D01*
X018046Y013405D01*
X017912Y013460D01*
X017767Y013460D01*
X017633Y013405D01*
X017581Y013353D01*
X017471Y013352D01*
X013643Y013352D01*
X013549Y013446D01*
X013549Y014965D01*
X013600Y014913D01*
X013669Y014885D01*
X013669Y014104D01*
X013708Y014008D01*
X013724Y013993D01*
X013724Y013923D01*
X013780Y013789D01*
X013882Y013686D01*
X014016Y013630D01*
X014162Y013630D01*
X014296Y013686D01*
X014398Y013789D01*
X014439Y013886D01*
X014480Y013789D01*
X014582Y013686D01*
X014716Y013630D01*
X014862Y013630D01*
X014996Y013686D01*
X015098Y013789D01*
X015154Y013923D01*
X015154Y013999D01*
X015189Y014083D01*
X015189Y014885D01*
X015257Y014913D01*
X015420Y015077D01*
X015509Y015290D01*
X015509Y015520D01*
X015420Y015734D01*
X015257Y015897D01*
X015044Y015985D01*
X014813Y015985D01*
X014600Y015897D01*
X014437Y015734D01*
X014429Y015714D01*
X014420Y015734D01*
X014257Y015897D01*
X014044Y015985D01*
X013813Y015985D01*
X013601Y015897D01*
X013598Y015902D01*
X013496Y016005D01*
X013362Y016060D01*
X013216Y016060D01*
X013082Y016005D01*
X012989Y015911D01*
X012896Y016005D01*
X012762Y016060D01*
X012712Y016060D01*
X012712Y022150D01*
X012673Y022245D01*
X012600Y022318D01*
X012516Y022403D01*
X012516Y023220D01*
X012565Y023269D01*
X012620Y023403D01*
X012620Y023549D01*
X012565Y023683D01*
X012462Y023785D01*
X012328Y023841D01*
X012183Y023841D01*
X012049Y023785D01*
X011946Y023683D01*
X011891Y023549D01*
X011891Y023403D01*
X011946Y023269D01*
X011996Y023220D01*
X011996Y022456D01*
X011749Y022703D01*
X011749Y023439D01*
X011798Y023489D01*
X011854Y023623D01*
X011854Y023768D01*
X011798Y023902D01*
X011696Y024005D01*
X011562Y024060D01*
X011416Y024060D01*
X011376Y024044D01*
X011376Y024087D01*
X011323Y024216D01*
X011275Y024264D01*
X011275Y025642D01*
X011237Y025733D01*
X011166Y025804D01*
X010773Y026197D01*
X010681Y026235D01*
X010487Y026235D01*
X010487Y026289D01*
X010364Y026412D01*
X009915Y026412D01*
X009844Y026342D01*
X009809Y026377D01*
X009809Y026727D01*
X009769Y026822D01*
X009408Y027184D01*
X009408Y027237D01*
X009354Y027366D01*
X009256Y027465D01*
X009127Y027518D01*
X008987Y027518D01*
X008858Y027465D01*
X008759Y027366D01*
X008706Y027237D01*
X008706Y027097D01*
X008759Y026968D01*
X008858Y026869D01*
X008987Y026816D01*
X009040Y026816D01*
X009289Y026567D01*
X009289Y026377D01*
X009201Y026289D01*
X009201Y025682D01*
X009228Y025655D01*
X008297Y025655D01*
X007054Y026898D01*
X007054Y026968D01*
X006998Y027102D01*
X006896Y027205D01*
X006762Y027260D01*
X006616Y027260D01*
X006482Y027205D01*
X006380Y027102D01*
X006324Y026968D01*
X006324Y026823D01*
X006380Y026689D01*
X006482Y026586D01*
X006616Y026530D01*
X006686Y026530D01*
X008042Y025175D01*
X008137Y025135D01*
X009229Y025135D01*
X009229Y025051D01*
X009180Y025002D01*
X009124Y024868D01*
X009124Y024723D01*
X009180Y024589D01*
X009282Y024486D01*
X009416Y024430D01*
X009562Y024430D01*
X009696Y024486D01*
X009798Y024589D01*
X009854Y024723D01*
X009854Y024830D01*
X009962Y024830D01*
X010096Y024886D01*
X010145Y024935D01*
X010205Y024935D01*
X010205Y024925D01*
X010328Y024802D01*
X010776Y024802D01*
X010776Y024264D01*
X010728Y024216D01*
X010674Y024087D01*
X010674Y023947D01*
X010728Y023818D01*
X010826Y023720D01*
X010955Y023666D01*
X011095Y023666D01*
X011124Y023678D01*
X011124Y023623D01*
X011180Y023489D01*
X011229Y023439D01*
X011229Y022544D01*
X011269Y022448D01*
X011829Y021888D01*
X011829Y016403D01*
X011442Y016016D01*
X011369Y015943D01*
X011329Y015847D01*
X011329Y005144D01*
X011369Y005048D01*
X013069Y003348D01*
X013142Y003275D01*
X013237Y003235D01*
X021074Y003235D01*
X021465Y002805D01*
X021468Y002800D01*
X021500Y002767D01*
X021531Y002734D01*
X021536Y002731D01*
X021541Y002726D01*
X021583Y002709D01*
X021624Y002690D01*
X021631Y002689D01*
X021636Y002687D01*
X021682Y002687D01*
X021728Y002685D01*
X021734Y002687D01*
X022279Y002687D01*
X022279Y002586D01*
X022335Y002452D01*
X022438Y002349D01*
X022572Y002294D01*
X022717Y002294D01*
X022851Y002349D01*
X022959Y002464D02*
X028388Y002464D01*
X028430Y002562D02*
X023000Y002562D01*
X023009Y002661D02*
X028501Y002661D01*
X028573Y002759D02*
X022998Y002759D01*
X022957Y002858D02*
X028646Y002858D01*
X028781Y002956D02*
X022863Y002956D01*
X022734Y003055D02*
X028917Y003055D01*
X029166Y003153D02*
X022658Y003153D01*
X022497Y002947D02*
X022644Y002659D01*
X022497Y002947D02*
X021688Y002947D01*
X021189Y003495D01*
X013289Y003495D01*
X011589Y005195D01*
X011589Y015795D01*
X012089Y016295D01*
X012089Y021995D01*
X011489Y022595D01*
X011489Y023695D01*
X011754Y023444D02*
X011891Y023444D01*
X011891Y023543D02*
X011821Y023543D01*
X011854Y023641D02*
X011929Y023641D01*
X012003Y023740D02*
X011854Y023740D01*
X011825Y023838D02*
X012177Y023838D01*
X012334Y023838D02*
X013996Y023838D01*
X013983Y023870D02*
X014039Y023736D01*
X014141Y023633D01*
X014275Y023578D01*
X014421Y023578D01*
X014436Y023584D01*
X014446Y023574D01*
X014362Y023539D01*
X014259Y023437D01*
X014204Y023302D01*
X014204Y023157D01*
X014259Y023023D01*
X014362Y022921D01*
X014496Y022865D01*
X014641Y022865D01*
X014775Y022921D01*
X014878Y023023D01*
X014933Y023157D01*
X014933Y023247D01*
X015200Y023543D01*
X015232Y023575D01*
X015235Y023581D01*
X015239Y023587D01*
X015254Y023629D01*
X015271Y023670D01*
X015271Y023677D01*
X015274Y023684D01*
X015271Y023729D01*
X015271Y026327D01*
X015355Y026327D01*
X015489Y026383D01*
X015592Y026485D01*
X015648Y026620D01*
X015648Y026765D01*
X015592Y026899D01*
X015543Y026948D01*
X015543Y028788D01*
X017190Y030435D01*
X018551Y030435D01*
X018551Y030013D01*
X018674Y029890D01*
X019124Y029890D01*
X019247Y030013D01*
X019247Y030139D01*
X019249Y030144D01*
X019249Y030299D01*
X019267Y030317D01*
X019295Y030384D01*
X019326Y030309D01*
X019339Y030297D01*
X019339Y030013D01*
X019462Y029890D01*
X019911Y029890D01*
X019982Y029960D01*
X020052Y029890D01*
X020502Y029890D01*
X020574Y029962D01*
X020598Y029952D01*
X020743Y029952D01*
X020878Y030007D01*
X020980Y030110D01*
X021036Y030244D01*
X021036Y030389D01*
X020997Y030482D01*
X021015Y030490D01*
X021088Y030563D01*
X021876Y031350D01*
X021915Y031446D01*
X021915Y033604D01*
X021964Y033653D01*
X022020Y033787D01*
X022020Y033932D01*
X021964Y034066D01*
X021862Y034169D01*
X021728Y034225D01*
X021583Y034225D01*
X021448Y034169D01*
X021346Y034066D01*
X021290Y033932D01*
X021290Y033787D01*
X021346Y033653D01*
X021395Y033604D01*
X021395Y033356D01*
X021285Y033466D01*
X021212Y033539D01*
X021116Y033579D01*
X021094Y033579D01*
X020984Y033689D01*
X020385Y033689D01*
X020385Y033939D01*
X020262Y034062D01*
X019848Y034062D01*
X019848Y034256D01*
X019914Y034321D01*
X020008Y034282D01*
X020153Y034282D01*
X020287Y034338D01*
X020336Y034387D01*
X023282Y034387D01*
X023377Y034427D01*
X023731Y034781D01*
X024697Y034781D01*
X024834Y034644D01*
X024834Y034575D01*
X023525Y034575D01*
X023427Y034476D02*
X024874Y034476D01*
X024889Y034441D02*
X024834Y034575D01*
X024805Y034673D02*
X023624Y034673D01*
X023722Y034772D02*
X024706Y034772D01*
X024805Y035041D02*
X025198Y034647D01*
X024952Y034378D02*
X020327Y034378D01*
X020080Y034647D02*
X023230Y034647D01*
X023624Y035041D01*
X024805Y035041D01*
X024970Y035244D02*
X025074Y035348D01*
X025074Y035994D01*
X024951Y036117D01*
X024741Y036117D01*
X024741Y036400D01*
X024780Y036493D01*
X024780Y036640D01*
X024724Y036775D01*
X024620Y036879D01*
X024484Y036935D01*
X024338Y036935D01*
X024202Y036879D01*
X024098Y036775D01*
X024042Y036640D01*
X024042Y036493D01*
X024081Y036400D01*
X024081Y036117D01*
X023871Y036117D01*
X023748Y035994D01*
X023748Y035348D01*
X023795Y035301D01*
X023572Y035301D01*
X023476Y035261D01*
X023403Y035188D01*
X023122Y034907D01*
X020336Y034907D01*
X020287Y034957D01*
X020153Y035012D01*
X020045Y035012D01*
X020045Y035285D01*
X020164Y035404D01*
X020233Y035569D01*
X020233Y036222D01*
X020164Y036386D01*
X020039Y036512D01*
X019874Y036580D01*
X019696Y036580D01*
X019532Y036512D01*
X019406Y036386D01*
X019338Y036222D01*
X019338Y035569D01*
X019406Y035404D01*
X019525Y035285D01*
X019525Y035074D01*
X019363Y035074D01*
X019293Y035003D01*
X019222Y035074D01*
X019061Y035074D01*
X019061Y035285D01*
X019180Y035404D01*
X019248Y035569D01*
X019248Y036222D01*
X019180Y036386D01*
X019054Y036512D01*
X018890Y036580D01*
X018712Y036580D01*
X018547Y036512D01*
X018421Y036386D01*
X018353Y036222D01*
X018353Y035569D01*
X018421Y035404D01*
X018541Y035285D01*
X018541Y035012D01*
X018433Y035012D01*
X018299Y034957D01*
X018196Y034854D01*
X018141Y034720D01*
X018141Y034650D01*
X017891Y034401D01*
X017852Y034305D01*
X017852Y033180D01*
X017610Y032939D01*
X016485Y032939D01*
X016390Y032899D01*
X016317Y032826D01*
X015923Y032432D01*
X015883Y032337D01*
X015883Y031212D01*
X014128Y029456D01*
X014088Y029360D01*
X014088Y024198D01*
X014039Y024149D01*
X013983Y024015D01*
X013983Y023870D01*
X013983Y023937D02*
X011764Y023937D01*
X011622Y024035D02*
X013992Y024035D01*
X014032Y024134D02*
X011357Y024134D01*
X011307Y024232D02*
X014088Y024232D01*
X014088Y024331D02*
X011275Y024331D01*
X011275Y024429D02*
X014088Y024429D01*
X014088Y024528D02*
X011275Y024528D01*
X011275Y024626D02*
X014088Y024626D01*
X014088Y024725D02*
X011275Y024725D01*
X011275Y024823D02*
X014088Y024823D01*
X014088Y024922D02*
X011275Y024922D01*
X011275Y025020D02*
X014088Y025020D01*
X014088Y025119D02*
X011275Y025119D01*
X011275Y025217D02*
X014088Y025217D01*
X014088Y025316D02*
X011275Y025316D01*
X011275Y025414D02*
X014088Y025414D01*
X014088Y025513D02*
X011275Y025513D01*
X011275Y025611D02*
X014088Y025611D01*
X014088Y025710D02*
X011246Y025710D01*
X011162Y025808D02*
X012330Y025808D01*
X012352Y025787D02*
X012481Y025733D01*
X012621Y025733D01*
X012750Y025787D01*
X012848Y025885D01*
X012902Y026014D01*
X012902Y026068D01*
X013535Y026700D01*
X013608Y026774D01*
X013647Y026869D01*
X013647Y028210D01*
X013685Y028248D01*
X013738Y028377D01*
X013738Y028516D01*
X013685Y028645D01*
X013586Y028744D01*
X013457Y028797D01*
X013318Y028797D01*
X013189Y028744D01*
X013090Y028645D01*
X013036Y028516D01*
X013036Y028377D01*
X013090Y028248D01*
X013127Y028210D01*
X013127Y027029D01*
X012534Y026435D01*
X012481Y026435D01*
X012352Y026382D01*
X012253Y026283D01*
X012200Y026154D01*
X012200Y026014D01*
X012253Y025885D01*
X012352Y025787D01*
X012244Y025907D02*
X011063Y025907D01*
X010965Y026005D02*
X012204Y026005D01*
X012200Y026104D02*
X010866Y026104D01*
X010760Y026202D02*
X012220Y026202D01*
X012271Y026301D02*
X010476Y026301D01*
X010377Y026399D02*
X012394Y026399D01*
X012597Y026498D02*
X009809Y026498D01*
X009809Y026596D02*
X012695Y026596D01*
X012794Y026695D02*
X009809Y026695D01*
X009781Y026793D02*
X012892Y026793D01*
X012991Y026892D02*
X009699Y026892D01*
X009601Y026990D02*
X013089Y026990D01*
X013127Y027089D02*
X009502Y027089D01*
X009408Y027187D02*
X013127Y027187D01*
X013127Y027286D02*
X009387Y027286D01*
X009336Y027384D02*
X013127Y027384D01*
X013127Y027483D02*
X009211Y027483D01*
X008902Y027483D02*
X005849Y027483D01*
X005849Y027581D02*
X013127Y027581D01*
X013127Y027680D02*
X005849Y027680D01*
X005849Y027778D02*
X013127Y027778D01*
X013127Y027877D02*
X005849Y027877D01*
X005849Y027975D02*
X013127Y027975D01*
X013127Y028074D02*
X005849Y028074D01*
X005849Y028172D02*
X013127Y028172D01*
X013080Y028271D02*
X005882Y028271D01*
X005849Y028238D02*
X006392Y028780D01*
X006462Y028780D01*
X006596Y028836D01*
X006698Y028939D01*
X006754Y029073D01*
X006754Y029218D01*
X006698Y029352D01*
X006596Y029455D01*
X006462Y029510D01*
X006316Y029510D01*
X006182Y029455D01*
X006080Y029352D01*
X006024Y029218D01*
X006024Y029148D01*
X005369Y028493D01*
X005329Y028397D01*
X005329Y026703D01*
X004913Y026287D01*
X004896Y026305D01*
X004762Y026360D01*
X004616Y026360D01*
X004482Y026305D01*
X004380Y026202D01*
X001239Y026202D01*
X001239Y026104D02*
X004339Y026104D01*
X004324Y026068D02*
X004324Y025923D01*
X004380Y025789D01*
X004482Y025686D01*
X004616Y025630D01*
X004762Y025630D01*
X004896Y025686D01*
X004945Y025735D01*
X005041Y025735D01*
X005136Y025775D01*
X005736Y026375D01*
X005809Y026448D01*
X005849Y026544D01*
X005849Y028238D01*
X005981Y028369D02*
X013039Y028369D01*
X013036Y028468D02*
X006079Y028468D01*
X006178Y028566D02*
X013057Y028566D01*
X013109Y028665D02*
X006276Y028665D01*
X006375Y028763D02*
X013235Y028763D01*
X013540Y028763D02*
X014088Y028763D01*
X014088Y028665D02*
X013665Y028665D01*
X013718Y028566D02*
X014088Y028566D01*
X014088Y028468D02*
X013738Y028468D01*
X013735Y028369D02*
X014088Y028369D01*
X014088Y028271D02*
X013695Y028271D01*
X013647Y028172D02*
X014088Y028172D01*
X014088Y028074D02*
X013647Y028074D01*
X013647Y027975D02*
X014088Y027975D01*
X014088Y027877D02*
X013647Y027877D01*
X013647Y027778D02*
X014088Y027778D01*
X014088Y027680D02*
X013647Y027680D01*
X013647Y027581D02*
X014088Y027581D01*
X014088Y027483D02*
X013647Y027483D01*
X013647Y027384D02*
X014088Y027384D01*
X014088Y027286D02*
X013647Y027286D01*
X013647Y027187D02*
X014088Y027187D01*
X014088Y027089D02*
X013647Y027089D01*
X013647Y026990D02*
X014088Y026990D01*
X014088Y026892D02*
X013647Y026892D01*
X013616Y026793D02*
X014088Y026793D01*
X014088Y026695D02*
X013529Y026695D01*
X013431Y026596D02*
X014088Y026596D01*
X014088Y026498D02*
X013332Y026498D01*
X013234Y026399D02*
X014088Y026399D01*
X014088Y026301D02*
X013135Y026301D01*
X013037Y026202D02*
X014088Y026202D01*
X014088Y026104D02*
X012938Y026104D01*
X012898Y026005D02*
X014088Y026005D01*
X014088Y025907D02*
X012857Y025907D01*
X012771Y025808D02*
X014088Y025808D01*
X015271Y025808D02*
X015391Y025808D01*
X015375Y025769D02*
X015375Y025623D01*
X015430Y025489D01*
X015490Y025430D01*
X015490Y023422D01*
X015334Y023267D01*
X015264Y023267D01*
X015130Y023211D01*
X015027Y023108D01*
X014972Y022974D01*
X014972Y022829D01*
X015027Y022695D01*
X015130Y022592D01*
X015264Y022537D01*
X015409Y022537D01*
X015541Y022591D01*
X015662Y022541D01*
X015808Y022541D01*
X015942Y022596D01*
X015961Y022615D01*
X015976Y022600D01*
X016110Y022544D01*
X016255Y022544D01*
X016387Y022599D01*
X016518Y022544D01*
X016663Y022544D01*
X016797Y022600D01*
X016900Y022703D01*
X016956Y022837D01*
X016956Y022982D01*
X016949Y022998D01*
X016949Y026039D01*
X016998Y026089D01*
X017054Y026223D01*
X017054Y026368D01*
X016998Y026502D01*
X016896Y026605D01*
X016762Y026660D01*
X016616Y026660D01*
X016482Y026605D01*
X016401Y026523D01*
X016354Y026635D01*
X016252Y026738D01*
X016117Y026794D01*
X015972Y026794D01*
X015838Y026738D01*
X015736Y026635D01*
X015680Y026501D01*
X015680Y026356D01*
X015736Y026222D01*
X015785Y026173D01*
X015785Y026061D01*
X015667Y026061D01*
X015533Y026005D01*
X015271Y026005D01*
X015271Y025907D02*
X015434Y025907D01*
X015430Y025903D02*
X015375Y025769D01*
X015375Y025710D02*
X015271Y025710D01*
X015271Y025611D02*
X015380Y025611D01*
X015421Y025513D02*
X015271Y025513D01*
X015271Y025414D02*
X015490Y025414D01*
X015490Y025316D02*
X015271Y025316D01*
X015271Y025217D02*
X015490Y025217D01*
X015490Y025119D02*
X015271Y025119D01*
X015271Y025020D02*
X015490Y025020D01*
X015490Y024922D02*
X015271Y024922D01*
X015271Y024823D02*
X015490Y024823D01*
X015490Y024725D02*
X015271Y024725D01*
X015271Y024626D02*
X015490Y024626D01*
X015490Y024528D02*
X015271Y024528D01*
X015271Y024429D02*
X015490Y024429D01*
X015490Y024331D02*
X015271Y024331D01*
X015271Y024232D02*
X015490Y024232D01*
X015490Y024134D02*
X015271Y024134D01*
X015271Y024035D02*
X015490Y024035D01*
X015490Y023937D02*
X015271Y023937D01*
X015271Y023838D02*
X015490Y023838D01*
X015490Y023740D02*
X015271Y023740D01*
X015259Y023641D02*
X015490Y023641D01*
X015490Y023543D02*
X015200Y023543D01*
X015111Y023444D02*
X015490Y023444D01*
X015413Y023346D02*
X015023Y023346D01*
X014934Y023247D02*
X015218Y023247D01*
X015068Y023149D02*
X014930Y023149D01*
X014889Y023050D02*
X015003Y023050D01*
X014972Y022952D02*
X014806Y022952D01*
X014972Y022853D02*
X012516Y022853D01*
X012516Y022755D02*
X015002Y022755D01*
X015066Y022656D02*
X012516Y022656D01*
X012516Y022558D02*
X015213Y022558D01*
X015305Y022361D02*
X012557Y022361D01*
X012516Y022459D02*
X016709Y022459D01*
X016695Y022558D02*
X016797Y022558D01*
X016854Y022656D02*
X016886Y022656D01*
X016922Y022755D02*
X016975Y022755D01*
X016956Y022853D02*
X017063Y022853D01*
X017152Y022952D02*
X016956Y022952D01*
X016949Y023050D02*
X017241Y023050D01*
X017319Y023137D02*
X016624Y022365D01*
X015315Y022365D01*
X015179Y022309D01*
X015075Y022205D01*
X015019Y022069D01*
X015019Y021922D01*
X015075Y021786D01*
X015179Y021682D01*
X015315Y021625D01*
X016725Y021625D01*
X016735Y021622D01*
X016799Y021625D01*
X016863Y021625D01*
X016872Y021629D01*
X016882Y021630D01*
X016940Y021657D01*
X016999Y021682D01*
X017006Y021689D01*
X017015Y021693D01*
X017057Y021741D01*
X017103Y021786D01*
X017106Y021795D01*
X017957Y022741D01*
X018003Y022786D01*
X018006Y022795D01*
X018013Y022802D01*
X018035Y022863D01*
X018059Y022922D01*
X018059Y022932D01*
X018062Y022941D01*
X018059Y023005D01*
X018059Y028389D01*
X018077Y028434D01*
X018077Y028588D01*
X018018Y028731D01*
X017909Y028840D01*
X017766Y028899D01*
X017612Y028899D01*
X017469Y028840D01*
X017360Y028731D01*
X017301Y028588D01*
X017301Y028434D01*
X017319Y028389D01*
X017319Y023137D01*
X017319Y023149D02*
X016949Y023149D01*
X016949Y023247D02*
X017319Y023247D01*
X017319Y023346D02*
X016949Y023346D01*
X016949Y023444D02*
X017319Y023444D01*
X017319Y023543D02*
X016949Y023543D01*
X016949Y023641D02*
X017319Y023641D01*
X017319Y023740D02*
X016949Y023740D01*
X016949Y023838D02*
X017319Y023838D01*
X017319Y023937D02*
X016949Y023937D01*
X016949Y024035D02*
X017319Y024035D01*
X017319Y024134D02*
X016949Y024134D01*
X016949Y024232D02*
X017319Y024232D01*
X017319Y024331D02*
X016949Y024331D01*
X016949Y024429D02*
X017319Y024429D01*
X017319Y024528D02*
X016949Y024528D01*
X016949Y024626D02*
X017319Y024626D01*
X017319Y024725D02*
X016949Y024725D01*
X016949Y024823D02*
X017319Y024823D01*
X017319Y024922D02*
X016949Y024922D01*
X016949Y025020D02*
X017319Y025020D01*
X017319Y025119D02*
X016949Y025119D01*
X016949Y025217D02*
X017319Y025217D01*
X017319Y025316D02*
X016949Y025316D01*
X016949Y025414D02*
X017319Y025414D01*
X017319Y025513D02*
X016949Y025513D01*
X016949Y025611D02*
X017319Y025611D01*
X017319Y025710D02*
X016949Y025710D01*
X016949Y025808D02*
X017319Y025808D01*
X017319Y025907D02*
X016949Y025907D01*
X016949Y026005D02*
X017319Y026005D01*
X017319Y026104D02*
X017005Y026104D01*
X017046Y026202D02*
X017319Y026202D01*
X017319Y026301D02*
X017054Y026301D01*
X017041Y026399D02*
X017319Y026399D01*
X017319Y026498D02*
X017000Y026498D01*
X016904Y026596D02*
X017319Y026596D01*
X017319Y026695D02*
X016295Y026695D01*
X016370Y026596D02*
X016474Y026596D01*
X016689Y026295D02*
X016689Y023008D01*
X016591Y022909D01*
X016389Y023116D02*
X016389Y025895D01*
X016045Y026429D02*
X016045Y023215D01*
X015735Y022906D01*
X015621Y022558D02*
X015461Y022558D01*
X015337Y022902D02*
X015750Y023315D01*
X015750Y025592D01*
X015789Y025631D01*
X015740Y025696D01*
X015533Y026005D02*
X015430Y025903D01*
X015271Y026104D02*
X015785Y026104D01*
X015755Y026202D02*
X015271Y026202D01*
X015271Y026301D02*
X015703Y026301D01*
X015680Y026399D02*
X015506Y026399D01*
X015597Y026498D02*
X015680Y026498D01*
X015719Y026596D02*
X015638Y026596D01*
X015648Y026695D02*
X015795Y026695D01*
X015636Y026793D02*
X015972Y026793D01*
X016118Y026793D02*
X017319Y026793D01*
X017319Y026892D02*
X015595Y026892D01*
X015543Y026990D02*
X017319Y026990D01*
X017319Y027089D02*
X015543Y027089D01*
X015543Y027187D02*
X017319Y027187D01*
X017319Y027286D02*
X015543Y027286D01*
X015543Y027384D02*
X017319Y027384D01*
X017319Y027483D02*
X015543Y027483D01*
X015543Y027581D02*
X017319Y027581D01*
X017319Y027680D02*
X015543Y027680D01*
X015543Y027778D02*
X017319Y027778D01*
X017319Y027877D02*
X015543Y027877D01*
X015543Y027975D02*
X017319Y027975D01*
X017319Y028074D02*
X015543Y028074D01*
X015543Y028172D02*
X017319Y028172D01*
X017319Y028271D02*
X015543Y028271D01*
X015543Y028369D02*
X017319Y028369D01*
X017301Y028468D02*
X015543Y028468D01*
X015543Y028566D02*
X017301Y028566D01*
X017332Y028665D02*
X015543Y028665D01*
X015543Y028763D02*
X017392Y028763D01*
X017521Y028862D02*
X015617Y028862D01*
X015715Y028960D02*
X020044Y028960D01*
X019945Y028862D02*
X017857Y028862D01*
X017986Y028763D02*
X019903Y028763D01*
X019899Y028753D02*
X019899Y028569D01*
X019873Y028569D01*
X019815Y028627D01*
X019208Y028627D01*
X019085Y028504D01*
X019085Y028309D01*
X018962Y028360D01*
X018816Y028360D01*
X018682Y028305D01*
X018580Y028202D01*
X018524Y028068D01*
X018524Y027923D01*
X018580Y027789D01*
X018682Y027686D01*
X018816Y027630D01*
X018962Y027630D01*
X019096Y027686D01*
X019145Y027735D01*
X019441Y027735D01*
X019536Y027775D01*
X019636Y027875D01*
X019692Y027931D01*
X019815Y027931D01*
X019873Y027989D01*
X020247Y027989D01*
X020353Y028033D01*
X020435Y028114D01*
X020479Y028221D01*
X020479Y028575D01*
X020609Y028705D01*
X022189Y028705D01*
X022532Y028435D01*
X022548Y027827D01*
X022524Y027768D01*
X022524Y027623D01*
X022580Y027489D01*
X022682Y027386D01*
X022816Y027330D01*
X022962Y027330D01*
X023096Y027386D01*
X023115Y027405D01*
X023959Y027405D01*
X023959Y024849D01*
X023911Y024869D01*
X023046Y024869D01*
X022962Y024904D01*
X022816Y024904D01*
X022682Y024848D01*
X022580Y024746D01*
X022524Y024612D01*
X022524Y024466D01*
X022560Y024379D01*
X022095Y024379D01*
X022098Y024382D01*
X022154Y024516D01*
X022154Y024662D01*
X022098Y024796D01*
X022049Y024845D01*
X022049Y025981D01*
X022209Y026142D01*
X022246Y026230D01*
X022298Y026282D01*
X022354Y026416D01*
X022354Y026562D01*
X022298Y026696D01*
X022196Y026798D01*
X022062Y026854D01*
X021916Y026854D01*
X021782Y026798D01*
X021680Y026696D01*
X021624Y026562D01*
X021624Y026416D01*
X021661Y026328D01*
X021642Y026309D01*
X021569Y026236D01*
X021529Y026141D01*
X021529Y024845D01*
X021480Y024796D01*
X021424Y024662D01*
X021424Y024516D01*
X021480Y024382D01*
X021483Y024379D01*
X020949Y024379D01*
X020949Y024833D01*
X020998Y024882D01*
X021054Y025016D01*
X021054Y025162D01*
X021002Y025286D01*
X021098Y025382D01*
X021154Y025516D01*
X021154Y025520D01*
X021212Y025559D01*
X021236Y025569D01*
X021255Y025587D01*
X021276Y025601D01*
X021291Y025623D01*
X021309Y025642D01*
X021319Y025666D01*
X021334Y025687D01*
X021339Y025713D01*
X021349Y025737D01*
X021349Y025763D01*
X021354Y025789D01*
X021349Y025814D01*
X021349Y027611D01*
X021354Y027623D01*
X021354Y027768D01*
X021298Y027902D01*
X021196Y028005D01*
X021062Y028060D01*
X020916Y028060D01*
X020782Y028005D01*
X020680Y027902D01*
X020624Y027768D01*
X020624Y027660D01*
X020616Y027660D01*
X020482Y027605D01*
X020380Y027502D01*
X020324Y027368D01*
X020324Y027223D01*
X020380Y027089D01*
X020379Y027089D02*
X018059Y027089D01*
X018059Y027187D02*
X020339Y027187D01*
X020324Y027286D02*
X018059Y027286D01*
X018059Y027384D02*
X020331Y027384D01*
X020372Y027483D02*
X018059Y027483D01*
X018059Y027581D02*
X020459Y027581D01*
X020624Y027680D02*
X019081Y027680D01*
X018889Y027995D02*
X019389Y027995D01*
X019489Y028095D01*
X019489Y028295D01*
X019506Y028279D01*
X019511Y028279D01*
X019085Y028369D02*
X018059Y028369D01*
X018059Y028271D02*
X018648Y028271D01*
X018567Y028172D02*
X018059Y028172D01*
X018059Y028074D02*
X018526Y028074D01*
X018524Y027975D02*
X018059Y027975D01*
X018059Y027877D02*
X018543Y027877D01*
X018590Y027778D02*
X018059Y027778D01*
X018059Y027680D02*
X018697Y027680D01*
X019540Y027778D02*
X020628Y027778D01*
X020669Y027877D02*
X019638Y027877D01*
X019859Y027975D02*
X020753Y027975D01*
X020459Y028172D02*
X022539Y028172D01*
X022542Y028074D02*
X020394Y028074D01*
X020479Y028271D02*
X022537Y028271D01*
X022534Y028369D02*
X020479Y028369D01*
X020479Y028468D02*
X022490Y028468D01*
X022365Y028566D02*
X020479Y028566D01*
X020569Y028665D02*
X022240Y028665D01*
X022552Y029157D02*
X023211Y029157D01*
X023259Y029109D02*
X023343Y029074D01*
X023959Y028459D01*
X023959Y027985D01*
X023124Y027985D01*
X023110Y028543D01*
X023113Y028556D01*
X023108Y028600D01*
X023107Y028644D01*
X023101Y028657D01*
X023100Y028670D01*
X023078Y028709D01*
X023060Y028749D01*
X023050Y028759D01*
X023043Y028771D01*
X023008Y028798D01*
X022976Y028829D01*
X022963Y028834D01*
X022482Y029213D01*
X022453Y029241D01*
X022437Y029248D01*
X022423Y029259D01*
X022384Y029270D01*
X022347Y029285D01*
X022329Y029285D01*
X022312Y029290D01*
X022272Y029285D01*
X020431Y029285D01*
X020325Y029241D01*
X020243Y029160D01*
X019943Y028860D01*
X019899Y028753D01*
X019899Y028665D02*
X018046Y028665D01*
X018077Y028566D02*
X019148Y028566D01*
X019085Y028468D02*
X018077Y028468D01*
X018059Y026990D02*
X020478Y026990D01*
X020482Y026986D02*
X020529Y026966D01*
X020529Y026545D01*
X020480Y026496D01*
X020424Y026362D01*
X020424Y026216D01*
X020480Y026082D01*
X020582Y025980D01*
X020680Y025939D01*
X020582Y025898D01*
X020480Y025796D01*
X020424Y025662D01*
X020424Y025516D01*
X020476Y025392D01*
X020380Y025296D01*
X020324Y025162D01*
X020324Y025016D01*
X020380Y024882D01*
X020429Y024833D01*
X020429Y024379D01*
X019709Y024379D01*
X019645Y024443D01*
X019645Y024625D01*
X019658Y024625D01*
X019781Y024748D01*
X019781Y025197D01*
X019658Y025320D01*
X019051Y025320D01*
X018928Y025197D01*
X018928Y024748D01*
X019051Y024625D01*
X019065Y024625D01*
X019065Y024266D01*
X019109Y024159D01*
X019343Y023925D01*
X019425Y023843D01*
X019531Y023799D01*
X022747Y023799D01*
X022853Y023843D01*
X022935Y023925D01*
X023053Y024043D01*
X023135Y024125D01*
X023170Y024209D01*
X023709Y024209D01*
X023959Y023959D01*
X023959Y020924D01*
X024009Y020803D01*
X024131Y020681D01*
X024224Y020588D01*
X024345Y020538D01*
X024484Y020538D01*
X024579Y020443D01*
X025029Y020443D01*
X025152Y020566D01*
X025152Y021093D01*
X025173Y021093D01*
X025307Y021149D01*
X025409Y021252D01*
X025465Y021386D01*
X025465Y021531D01*
X025409Y021665D01*
X025307Y021768D01*
X025173Y021823D01*
X025027Y021823D01*
X024893Y021768D01*
X024791Y021665D01*
X024735Y021531D01*
X024735Y021461D01*
X024657Y021383D01*
X024619Y021345D01*
X024619Y024353D01*
X025003Y024353D01*
X025126Y024476D01*
X025126Y024980D01*
X025162Y024980D01*
X025296Y025036D01*
X025398Y025139D01*
X025454Y025273D01*
X025454Y025418D01*
X025398Y025552D01*
X025296Y025655D01*
X025162Y025710D01*
X025016Y025710D01*
X024882Y025655D01*
X024789Y025562D01*
X024619Y025732D01*
X024619Y027985D01*
X024866Y027985D01*
X024989Y028108D01*
X024989Y028530D01*
X025062Y028530D01*
X025196Y028586D01*
X025298Y028689D01*
X025354Y028823D01*
X025354Y028968D01*
X025298Y029102D01*
X025196Y029205D01*
X025062Y029260D01*
X024916Y029260D01*
X024782Y029205D01*
X024743Y029165D01*
X024735Y029165D01*
X024636Y029124D01*
X024436Y028924D01*
X024431Y028920D01*
X023810Y029541D01*
X023775Y029626D01*
X023672Y029728D01*
X023538Y029784D01*
X023393Y029784D01*
X023259Y029728D01*
X023156Y029626D01*
X023100Y029492D01*
X023100Y029346D01*
X023156Y029212D01*
X023259Y029109D01*
X023359Y029059D02*
X022677Y029059D01*
X022802Y028960D02*
X023457Y028960D01*
X023556Y028862D02*
X022928Y028862D01*
X023047Y028763D02*
X023654Y028763D01*
X023753Y028665D02*
X023100Y028665D01*
X023112Y028566D02*
X023851Y028566D01*
X023950Y028468D02*
X023112Y028468D01*
X023114Y028369D02*
X023959Y028369D01*
X023959Y028271D02*
X023117Y028271D01*
X023119Y028172D02*
X023959Y028172D01*
X023959Y028074D02*
X023122Y028074D01*
X022544Y027975D02*
X021225Y027975D01*
X021309Y027877D02*
X022547Y027877D01*
X022528Y027778D02*
X021350Y027778D01*
X021354Y027680D02*
X022524Y027680D01*
X022541Y027581D02*
X021349Y027581D01*
X021349Y027483D02*
X022585Y027483D01*
X022686Y027384D02*
X021349Y027384D01*
X021349Y027286D02*
X023959Y027286D01*
X023959Y027384D02*
X023092Y027384D01*
X023959Y026793D02*
X022201Y026793D01*
X022299Y026695D02*
X023959Y026695D01*
X023959Y026596D02*
X022340Y026596D01*
X022354Y026498D02*
X023959Y026498D01*
X023959Y026399D02*
X022347Y026399D01*
X022306Y026301D02*
X023959Y026301D01*
X023959Y026202D02*
X022235Y026202D01*
X022172Y026104D02*
X023959Y026104D01*
X023959Y026005D02*
X022073Y026005D01*
X022049Y025907D02*
X023959Y025907D01*
X023959Y025808D02*
X022049Y025808D01*
X022049Y025710D02*
X023959Y025710D01*
X023959Y025611D02*
X022049Y025611D01*
X022049Y025513D02*
X023959Y025513D01*
X023959Y025414D02*
X022049Y025414D01*
X022049Y025316D02*
X023959Y025316D01*
X023959Y025217D02*
X022049Y025217D01*
X022049Y025119D02*
X023959Y025119D01*
X023959Y025020D02*
X022049Y025020D01*
X022049Y024922D02*
X023959Y024922D01*
X023784Y024134D02*
X023139Y024134D01*
X023045Y024035D02*
X023882Y024035D01*
X023959Y023937D02*
X022947Y023937D01*
X022935Y023925D02*
X022935Y023925D01*
X022842Y023838D02*
X023959Y023838D01*
X023959Y023740D02*
X018059Y023740D01*
X018059Y023838D02*
X019436Y023838D01*
X019331Y023937D02*
X018059Y023937D01*
X018059Y024035D02*
X019232Y024035D01*
X019134Y024134D02*
X018059Y024134D01*
X018059Y024232D02*
X019078Y024232D01*
X019065Y024331D02*
X018059Y024331D01*
X018059Y024429D02*
X019065Y024429D01*
X019065Y024528D02*
X018059Y024528D01*
X018059Y024626D02*
X019050Y024626D01*
X018951Y024725D02*
X018059Y024725D01*
X018059Y024823D02*
X018928Y024823D01*
X018928Y024922D02*
X018059Y024922D01*
X018059Y025020D02*
X018928Y025020D01*
X018928Y025119D02*
X018059Y025119D01*
X018059Y025217D02*
X018948Y025217D01*
X019047Y025316D02*
X018059Y025316D01*
X018059Y025414D02*
X020466Y025414D01*
X020425Y025513D02*
X018059Y025513D01*
X018059Y025611D02*
X020424Y025611D01*
X020444Y025710D02*
X018059Y025710D01*
X018059Y025808D02*
X020492Y025808D01*
X020603Y025907D02*
X018059Y025907D01*
X018059Y026005D02*
X020556Y026005D01*
X020471Y026104D02*
X018059Y026104D01*
X018059Y026202D02*
X020430Y026202D01*
X020424Y026301D02*
X018059Y026301D01*
X018059Y026399D02*
X020440Y026399D01*
X020482Y026498D02*
X018059Y026498D01*
X018059Y026596D02*
X020529Y026596D01*
X020529Y026695D02*
X018059Y026695D01*
X018059Y026793D02*
X020529Y026793D01*
X020529Y026892D02*
X018059Y026892D01*
X019663Y025316D02*
X020400Y025316D01*
X020347Y025217D02*
X019761Y025217D01*
X019781Y025119D02*
X020324Y025119D01*
X020324Y025020D02*
X019781Y025020D01*
X019781Y024922D02*
X020363Y024922D01*
X020429Y024823D02*
X019781Y024823D01*
X019758Y024725D02*
X020429Y024725D01*
X020429Y024626D02*
X019660Y024626D01*
X019645Y024528D02*
X020429Y024528D01*
X020429Y024429D02*
X019659Y024429D01*
X020689Y024089D02*
X020689Y025089D01*
X021031Y025217D02*
X021529Y025217D01*
X021529Y025119D02*
X021054Y025119D01*
X021054Y025020D02*
X021529Y025020D01*
X021529Y024922D02*
X021015Y024922D01*
X020949Y024823D02*
X021507Y024823D01*
X021450Y024725D02*
X020949Y024725D01*
X020949Y024626D02*
X021424Y024626D01*
X021424Y024528D02*
X020949Y024528D01*
X020949Y024429D02*
X021460Y024429D01*
X021789Y024589D02*
X021789Y026089D01*
X021989Y026289D01*
X021989Y026489D01*
X021624Y026498D02*
X021349Y026498D01*
X021349Y026596D02*
X021638Y026596D01*
X021679Y026695D02*
X021349Y026695D01*
X021349Y026793D02*
X021777Y026793D01*
X021631Y026399D02*
X021349Y026399D01*
X021349Y026301D02*
X021633Y026301D01*
X021555Y026202D02*
X021349Y026202D01*
X021349Y026104D02*
X021529Y026104D01*
X021529Y026005D02*
X021349Y026005D01*
X021349Y025907D02*
X021529Y025907D01*
X021529Y025808D02*
X021350Y025808D01*
X021338Y025710D02*
X021529Y025710D01*
X021529Y025611D02*
X021283Y025611D01*
X021153Y025513D02*
X021529Y025513D01*
X021529Y025414D02*
X021112Y025414D01*
X021032Y025316D02*
X021529Y025316D01*
X022071Y024823D02*
X022657Y024823D01*
X022571Y024725D02*
X022128Y024725D01*
X022154Y024626D02*
X022530Y024626D01*
X022524Y024528D02*
X022154Y024528D01*
X022118Y024429D02*
X022539Y024429D01*
X023959Y023641D02*
X018059Y023641D01*
X018059Y023543D02*
X023959Y023543D01*
X023959Y023444D02*
X018059Y023444D01*
X018059Y023346D02*
X023959Y023346D01*
X023959Y023247D02*
X018059Y023247D01*
X018059Y023149D02*
X023959Y023149D01*
X023959Y023050D02*
X018059Y023050D01*
X018062Y022952D02*
X023959Y022952D01*
X023959Y022853D02*
X018031Y022853D01*
X017972Y022755D02*
X023959Y022755D01*
X023959Y022656D02*
X017882Y022656D01*
X017793Y022558D02*
X023959Y022558D01*
X023959Y022459D02*
X017704Y022459D01*
X017616Y022361D02*
X023959Y022361D01*
X023959Y022262D02*
X023389Y022262D01*
X023428Y022246D02*
X023299Y022299D01*
X023160Y022299D01*
X023032Y022246D01*
X022934Y022148D01*
X022895Y022053D01*
X022865Y022053D01*
X022737Y022000D01*
X022639Y021902D01*
X022599Y021807D01*
X022570Y021807D01*
X022442Y021754D01*
X022343Y021656D01*
X022304Y021561D01*
X022275Y021561D01*
X022146Y021508D01*
X022048Y021410D01*
X022009Y021315D01*
X021930Y021315D01*
X021802Y021262D01*
X021704Y021164D01*
X021664Y021069D01*
X021635Y021069D01*
X021507Y021016D01*
X021408Y020918D01*
X021369Y020823D01*
X021290Y020823D01*
X021162Y020770D01*
X021064Y020672D01*
X021011Y020543D01*
X021011Y020405D01*
X021064Y020276D01*
X021162Y020178D01*
X021290Y020125D01*
X021429Y020125D01*
X021558Y020178D01*
X021593Y020214D01*
X022183Y020214D01*
X022183Y018798D01*
X022222Y018703D01*
X023157Y017768D01*
X023230Y017695D01*
X023326Y017655D01*
X029728Y017655D01*
X029824Y017695D01*
X030661Y018531D01*
X030734Y018604D01*
X030748Y018639D01*
X031642Y018639D01*
X031642Y018596D01*
X031765Y018473D01*
X032203Y018473D01*
X032078Y018421D01*
X030550Y018421D01*
X030452Y018322D02*
X031980Y018322D01*
X031976Y018318D02*
X031920Y018184D01*
X031920Y018039D01*
X031976Y017905D01*
X032078Y017803D01*
X032212Y017747D01*
X032358Y017747D01*
X032492Y017803D01*
X032541Y017852D01*
X033514Y017852D01*
X033465Y017832D01*
X033321Y017688D01*
X033244Y017501D01*
X033244Y017354D01*
X033241Y017355D01*
X032945Y017355D01*
X032896Y017405D01*
X032762Y017460D01*
X032616Y017460D01*
X032482Y017405D01*
X032380Y017302D01*
X032324Y017168D01*
X032324Y017023D01*
X032380Y016889D01*
X032482Y016786D01*
X032616Y016730D01*
X032762Y016730D01*
X032896Y016786D01*
X032945Y016835D01*
X033081Y016835D01*
X033169Y016748D01*
X033242Y016675D01*
X033305Y016649D01*
X033244Y016501D01*
X033244Y016298D01*
X033321Y016110D01*
X033465Y015967D01*
X033628Y015899D01*
X033465Y015832D01*
X033321Y015688D01*
X033244Y015501D01*
X033244Y015298D01*
X033321Y015110D01*
X033329Y015103D01*
X033269Y015043D01*
X030181Y011955D01*
X028095Y011955D01*
X028045Y012005D01*
X027911Y012060D01*
X027766Y012060D01*
X027632Y012005D01*
X027529Y011902D01*
X027474Y011768D01*
X027474Y011623D01*
X027529Y011489D01*
X027632Y011386D01*
X027766Y011330D01*
X027799Y011330D01*
X027774Y011268D01*
X027774Y011123D01*
X027829Y010989D01*
X027932Y010886D01*
X028066Y010830D01*
X028211Y010830D01*
X028345Y010886D01*
X028395Y010935D01*
X029761Y010935D01*
X028394Y010935D01*
X028226Y010836D02*
X029761Y010836D01*
X029761Y010823D02*
X029817Y010689D01*
X029917Y010588D01*
X029867Y010468D01*
X029867Y010323D01*
X029923Y010189D01*
X030026Y010086D01*
X030160Y010030D01*
X030261Y010030D01*
X030261Y009923D01*
X030317Y009789D01*
X030419Y009686D01*
X030553Y009630D01*
X030681Y009630D01*
X030655Y009568D01*
X030655Y009423D01*
X030710Y009289D01*
X030777Y009221D01*
X030739Y009129D01*
X030739Y008984D01*
X030795Y008850D01*
X030897Y008747D01*
X031031Y008692D01*
X031177Y008692D01*
X031311Y008747D01*
X031360Y008797D01*
X031390Y008797D01*
X032065Y008122D01*
X032138Y008049D01*
X032233Y008009D01*
X033422Y008009D01*
X033465Y007967D01*
X033628Y007899D01*
X033465Y007832D01*
X033375Y007742D01*
X030179Y007742D01*
X030129Y007791D01*
X029995Y007847D01*
X029850Y007847D01*
X029716Y007791D01*
X029614Y007689D01*
X029558Y007554D01*
X029558Y007453D01*
X029457Y007453D01*
X029322Y007397D01*
X029220Y007295D01*
X029164Y007161D01*
X029164Y007059D01*
X029063Y007059D01*
X028929Y007004D01*
X028826Y006901D01*
X028771Y006767D01*
X028771Y006622D01*
X028826Y006488D01*
X028929Y006385D01*
X029063Y006330D01*
X029208Y006330D01*
X029342Y006385D01*
X029391Y006434D01*
X030454Y006434D01*
X030504Y006385D01*
X030638Y006330D01*
X030783Y006330D01*
X030917Y006385D01*
X031020Y006488D01*
X031075Y006622D01*
X031075Y006723D01*
X031177Y006723D01*
X031311Y006779D01*
X031413Y006882D01*
X031469Y007016D01*
X031469Y007161D01*
X031443Y007222D01*
X033275Y007222D01*
X033321Y007110D01*
X033465Y006967D01*
X033652Y006889D01*
X033855Y006889D01*
X034042Y006967D01*
X034186Y007110D01*
X034254Y007274D01*
X034321Y007110D01*
X034465Y006967D01*
X034652Y006889D01*
X034855Y006889D01*
X035042Y006967D01*
X035186Y007110D01*
X035264Y007298D01*
X035264Y007501D01*
X035186Y007688D01*
X035042Y007832D01*
X034879Y007899D01*
X035042Y007967D01*
X035186Y008110D01*
X035264Y008298D01*
X035264Y008501D01*
X035186Y008688D01*
X035042Y008832D01*
X034879Y008899D01*
X035042Y008967D01*
X035186Y009110D01*
X035264Y009298D01*
X035264Y009501D01*
X035186Y009688D01*
X035042Y009832D01*
X034879Y009899D01*
X035042Y009967D01*
X035186Y010110D01*
X035264Y010298D01*
X035264Y010501D01*
X035186Y010688D01*
X035042Y010832D01*
X034879Y010899D01*
X035042Y010967D01*
X035186Y011110D01*
X035264Y011298D01*
X035264Y011501D01*
X035186Y011688D01*
X035042Y011832D01*
X034879Y011899D01*
X035042Y011967D01*
X035186Y012110D01*
X035264Y012298D01*
X035264Y012501D01*
X035186Y012688D01*
X035042Y012832D01*
X034879Y012899D01*
X035042Y012967D01*
X035186Y013110D01*
X035264Y013298D01*
X035264Y013501D01*
X035186Y013688D01*
X035042Y013832D01*
X034879Y013899D01*
X035042Y013967D01*
X035186Y014110D01*
X035264Y014298D01*
X035264Y014501D01*
X035186Y014688D01*
X035168Y014706D01*
X035536Y015075D01*
X035609Y015148D01*
X035649Y015244D01*
X035649Y026815D01*
X035609Y026911D01*
X035252Y027269D01*
X035264Y027298D01*
X035264Y027501D01*
X035186Y027688D01*
X035042Y027832D01*
X034879Y027899D01*
X035042Y027967D01*
X035186Y028110D01*
X035264Y028298D01*
X035264Y028501D01*
X035186Y028688D01*
X035042Y028832D01*
X034879Y028899D01*
X035042Y028967D01*
X035186Y029110D01*
X035264Y029298D01*
X035264Y029501D01*
X035186Y029688D01*
X035042Y029832D01*
X034879Y029899D01*
X035042Y029967D01*
X035186Y030110D01*
X035264Y030298D01*
X035264Y030501D01*
X035186Y030688D01*
X035042Y030832D01*
X037347Y030832D01*
X037347Y030930D02*
X031638Y030930D01*
X031548Y030859D02*
X032650Y031730D01*
X032762Y031730D01*
X032896Y031786D01*
X032998Y031889D01*
X033054Y032023D01*
X033054Y032168D01*
X033037Y032210D01*
X035859Y032210D01*
X035903Y032254D01*
X035903Y035466D01*
X035859Y035510D01*
X032648Y035510D01*
X032604Y035466D01*
X032604Y032455D01*
X032482Y032405D01*
X032380Y032302D01*
X032324Y032168D01*
X032324Y032135D01*
X031225Y031267D01*
X031110Y031267D01*
X030976Y031211D01*
X030873Y031108D01*
X030818Y030974D01*
X030818Y030829D01*
X030873Y030695D01*
X030976Y030592D01*
X031110Y030537D01*
X031255Y030537D01*
X031389Y030592D01*
X031492Y030695D01*
X031548Y030829D01*
X031548Y030859D01*
X031548Y030832D02*
X033465Y030832D01*
X033321Y030688D01*
X033244Y030501D01*
X033244Y030298D01*
X033321Y030110D01*
X033465Y029967D01*
X033628Y029899D01*
X033465Y029832D01*
X033463Y029830D01*
X031331Y029830D01*
X031320Y029841D01*
X031170Y029903D01*
X031008Y029903D01*
X030858Y029841D01*
X030743Y029726D01*
X030681Y029576D01*
X030681Y029414D01*
X030743Y029264D01*
X030858Y029149D01*
X031008Y029087D01*
X031170Y029087D01*
X031320Y029149D01*
X031331Y029160D01*
X033300Y029160D01*
X033321Y029110D01*
X033465Y028967D01*
X033628Y028899D01*
X033465Y028832D01*
X033321Y028688D01*
X033244Y028501D01*
X033244Y028298D01*
X033321Y028110D01*
X033465Y027967D01*
X033628Y027899D01*
X033465Y027832D01*
X033321Y027688D01*
X033244Y027501D01*
X033244Y027298D01*
X033321Y027110D01*
X033465Y026967D01*
X033628Y026899D01*
X033465Y026832D01*
X033321Y026688D01*
X033244Y026501D01*
X033244Y026298D01*
X033321Y026110D01*
X033465Y025967D01*
X033628Y025899D01*
X033465Y025832D01*
X033321Y025688D01*
X033244Y025501D01*
X033244Y025298D01*
X033321Y025110D01*
X033465Y024967D01*
X033628Y024899D01*
X033465Y024832D01*
X033321Y024688D01*
X033244Y024501D01*
X033244Y024298D01*
X033308Y024143D01*
X033242Y024116D01*
X033169Y024043D01*
X032981Y023855D01*
X032845Y023855D01*
X032796Y023905D01*
X032662Y023960D01*
X032516Y023960D01*
X032382Y023905D01*
X032280Y023802D01*
X032224Y023668D01*
X032224Y023523D01*
X032280Y023389D01*
X032382Y023286D01*
X032516Y023230D01*
X032662Y023230D01*
X032796Y023286D01*
X032845Y023335D01*
X033141Y023335D01*
X033236Y023375D01*
X033244Y023382D01*
X033244Y023298D01*
X033321Y023110D01*
X033465Y022967D01*
X033628Y022899D01*
X033465Y022832D01*
X033321Y022688D01*
X033244Y022501D01*
X033244Y022428D01*
X032928Y022428D01*
X032928Y022471D01*
X032805Y022594D01*
X032356Y022594D01*
X032285Y022524D01*
X032215Y022594D01*
X031765Y022594D01*
X031642Y022471D01*
X031642Y022428D01*
X029744Y022428D01*
X029648Y022388D01*
X029575Y022315D01*
X029112Y021852D01*
X029072Y021756D01*
X029072Y019597D01*
X028831Y019356D01*
X024125Y019356D01*
X023933Y019548D01*
X023933Y021658D01*
X023893Y021753D01*
X023820Y021826D01*
X023545Y022101D01*
X023526Y022148D01*
X023428Y022246D01*
X023510Y022164D02*
X023959Y022164D01*
X023959Y022065D02*
X023581Y022065D01*
X023680Y021967D02*
X023959Y021967D01*
X023959Y021868D02*
X023778Y021868D01*
X023877Y021770D02*
X023959Y021770D01*
X023959Y021671D02*
X023927Y021671D01*
X023933Y021573D02*
X023959Y021573D01*
X023959Y021474D02*
X023933Y021474D01*
X023933Y021376D02*
X023959Y021376D01*
X023959Y021277D02*
X023933Y021277D01*
X023933Y021179D02*
X023959Y021179D01*
X023959Y021080D02*
X023933Y021080D01*
X023933Y020982D02*
X023959Y020982D01*
X023976Y020883D02*
X023933Y020883D01*
X023933Y020785D02*
X024027Y020785D01*
X023933Y020686D02*
X024126Y020686D01*
X024224Y020588D02*
X023933Y020588D01*
X023933Y020489D02*
X024533Y020489D01*
X024804Y020868D02*
X024805Y020868D01*
X024805Y021163D01*
X025100Y021458D01*
X025465Y021474D02*
X029072Y021474D01*
X029072Y021376D02*
X025461Y021376D01*
X025420Y021277D02*
X029072Y021277D01*
X029072Y021179D02*
X025336Y021179D01*
X025152Y021080D02*
X029072Y021080D01*
X029072Y020982D02*
X025152Y020982D01*
X025152Y020883D02*
X029072Y020883D01*
X029072Y020785D02*
X025152Y020785D01*
X025152Y020686D02*
X029072Y020686D01*
X029072Y020588D02*
X025152Y020588D01*
X025075Y020489D02*
X029072Y020489D01*
X029072Y020391D02*
X023933Y020391D01*
X023933Y020292D02*
X029072Y020292D01*
X029072Y020194D02*
X023933Y020194D01*
X023933Y020095D02*
X029072Y020095D01*
X029072Y019997D02*
X023933Y019997D01*
X023933Y019898D02*
X029072Y019898D01*
X029072Y019800D02*
X023933Y019800D01*
X023933Y019701D02*
X029072Y019701D01*
X029072Y019603D02*
X023933Y019603D01*
X023977Y019504D02*
X028979Y019504D01*
X028881Y019406D02*
X024075Y019406D01*
X024017Y019096D02*
X028939Y019096D01*
X029332Y019490D01*
X029332Y021704D01*
X029796Y022168D01*
X031990Y022168D01*
X031642Y022459D02*
X024619Y022459D01*
X024619Y022361D02*
X029621Y022361D01*
X029523Y022262D02*
X024619Y022262D01*
X024619Y022164D02*
X029424Y022164D01*
X029326Y022065D02*
X024619Y022065D01*
X024619Y021967D02*
X029227Y021967D01*
X029129Y021868D02*
X024619Y021868D01*
X024619Y021770D02*
X024899Y021770D01*
X024797Y021671D02*
X024619Y021671D01*
X024619Y021573D02*
X024753Y021573D01*
X024735Y021474D02*
X024619Y021474D01*
X024619Y021376D02*
X024650Y021376D01*
X024804Y020869D02*
X024804Y020868D01*
X025447Y021573D02*
X029072Y021573D01*
X029072Y021671D02*
X025403Y021671D01*
X025301Y021770D02*
X029078Y021770D01*
X029529Y021458D02*
X029701Y021630D01*
X031996Y021630D01*
X031990Y021074D02*
X029981Y021074D01*
X029726Y020819D01*
X029726Y019244D01*
X029185Y018702D01*
X023771Y018702D01*
X023279Y019194D01*
X023279Y019293D01*
X023279Y021311D01*
X023131Y021458D01*
X022639Y021458D01*
X022309Y021573D02*
X012712Y021573D01*
X012712Y021671D02*
X015204Y021671D01*
X015091Y021770D02*
X012712Y021770D01*
X012712Y021868D02*
X015041Y021868D01*
X015019Y021967D02*
X012712Y021967D01*
X012712Y022065D02*
X015019Y022065D01*
X015058Y022164D02*
X012707Y022164D01*
X012656Y022262D02*
X015133Y022262D01*
X015849Y022558D02*
X016078Y022558D01*
X016288Y022558D02*
X016486Y022558D01*
X016183Y022909D02*
X016389Y023116D01*
X017438Y022164D02*
X022950Y022164D01*
X022900Y022065D02*
X017350Y022065D01*
X017261Y021967D02*
X022704Y021967D01*
X022625Y021868D02*
X017173Y021868D01*
X017087Y021770D02*
X022479Y021770D01*
X022359Y021671D02*
X016974Y021671D01*
X017527Y022262D02*
X023071Y022262D01*
X023230Y021950D02*
X023279Y021901D01*
X023378Y021901D01*
X023673Y021606D01*
X023673Y019441D01*
X024017Y019096D01*
X023919Y018899D02*
X029037Y018899D01*
X029529Y019391D01*
X029529Y021458D01*
X030078Y020530D02*
X031990Y020530D01*
X031990Y019987D02*
X030174Y019987D01*
X030120Y019933D01*
X030120Y018998D01*
X029431Y018309D01*
X023574Y018309D01*
X022836Y019047D01*
X022836Y020819D01*
X022689Y020966D01*
X022639Y020966D01*
X022000Y020966D01*
X021669Y021080D02*
X012712Y021080D01*
X012712Y020982D02*
X021472Y020982D01*
X021394Y020883D02*
X012712Y020883D01*
X012712Y020785D02*
X021198Y020785D01*
X021079Y020686D02*
X012712Y020686D01*
X012712Y020588D02*
X021029Y020588D01*
X021011Y020489D02*
X012712Y020489D01*
X012712Y020391D02*
X021016Y020391D01*
X021057Y020292D02*
X012712Y020292D01*
X012712Y020194D02*
X021146Y020194D01*
X021360Y020474D02*
X022295Y020474D01*
X022443Y020326D01*
X022443Y018850D01*
X023378Y017915D01*
X029677Y017915D01*
X030513Y018752D01*
X030513Y018801D01*
X030612Y018899D01*
X031990Y018899D01*
X031642Y018618D02*
X030739Y018618D01*
X030649Y018519D02*
X031718Y018519D01*
X031976Y018318D02*
X032078Y018421D01*
X031937Y018224D02*
X030353Y018224D01*
X030255Y018125D02*
X031920Y018125D01*
X031925Y018027D02*
X030156Y018027D01*
X030058Y017928D02*
X031966Y017928D01*
X032051Y017830D02*
X029959Y017830D01*
X029861Y017731D02*
X033364Y017731D01*
X033298Y017633D02*
X012712Y017633D01*
X012712Y017731D02*
X023194Y017731D01*
X023095Y017830D02*
X012712Y017830D01*
X012712Y017928D02*
X022997Y017928D01*
X022898Y018027D02*
X012712Y018027D01*
X012712Y018125D02*
X022800Y018125D01*
X022701Y018224D02*
X012712Y018224D01*
X012712Y018322D02*
X022603Y018322D01*
X022504Y018421D02*
X012712Y018421D01*
X012712Y018519D02*
X022406Y018519D01*
X022307Y018618D02*
X012712Y018618D01*
X012712Y018716D02*
X022216Y018716D01*
X022183Y018815D02*
X012712Y018815D01*
X012712Y018913D02*
X022183Y018913D01*
X022183Y019012D02*
X012712Y019012D01*
X012712Y019110D02*
X022183Y019110D01*
X022183Y019209D02*
X012712Y019209D01*
X012712Y019307D02*
X022183Y019307D01*
X022183Y019406D02*
X012712Y019406D01*
X012712Y019504D02*
X022183Y019504D01*
X022183Y019603D02*
X012712Y019603D01*
X012712Y019701D02*
X022183Y019701D01*
X022183Y019800D02*
X012712Y019800D01*
X012712Y019898D02*
X022183Y019898D01*
X022183Y019997D02*
X012712Y019997D01*
X012712Y020095D02*
X022183Y020095D01*
X022183Y020194D02*
X021573Y020194D01*
X021704Y020720D02*
X022492Y020720D01*
X022639Y020572D01*
X022639Y018948D01*
X023476Y018112D01*
X029529Y018112D01*
X030317Y018899D01*
X030317Y019293D01*
X030467Y019443D01*
X031990Y019443D01*
X032580Y019443D02*
X032627Y019490D01*
X033072Y019490D01*
X033515Y019933D01*
X034106Y019933D01*
X034572Y020399D01*
X034754Y020399D01*
X034155Y020966D02*
X033466Y020966D01*
X033023Y020523D01*
X032587Y020523D01*
X032580Y020530D01*
X032590Y021065D02*
X032580Y021074D01*
X032590Y021065D02*
X032925Y021065D01*
X033259Y021399D01*
X033754Y021399D01*
X034155Y020966D02*
X034588Y021399D01*
X034754Y021399D01*
X034106Y021901D02*
X033319Y021901D01*
X033023Y021606D01*
X032611Y021606D01*
X032587Y021630D01*
X032580Y022168D02*
X033522Y022168D01*
X033754Y022399D01*
X033388Y022755D02*
X024619Y022755D01*
X024619Y022853D02*
X033517Y022853D01*
X033501Y022952D02*
X024619Y022952D01*
X024619Y023050D02*
X033381Y023050D01*
X033305Y023149D02*
X024619Y023149D01*
X024619Y023247D02*
X032475Y023247D01*
X032322Y023346D02*
X024619Y023346D01*
X024619Y023444D02*
X032256Y023444D01*
X032224Y023543D02*
X024619Y023543D01*
X024619Y023641D02*
X032224Y023641D01*
X032254Y023740D02*
X024619Y023740D01*
X024619Y023838D02*
X032316Y023838D01*
X032460Y023937D02*
X024619Y023937D01*
X024619Y024035D02*
X033161Y024035D01*
X033063Y023937D02*
X032718Y023937D01*
X032589Y023595D02*
X033089Y023595D01*
X033389Y023895D01*
X034250Y023895D01*
X034754Y024399D01*
X035649Y024429D02*
X037347Y024429D01*
X037347Y024331D02*
X035649Y024331D01*
X035649Y024232D02*
X037347Y024232D01*
X037347Y024134D02*
X035649Y024134D01*
X035649Y024035D02*
X037347Y024035D01*
X037347Y023937D02*
X035649Y023937D01*
X035649Y023838D02*
X037347Y023838D01*
X037347Y023740D02*
X035649Y023740D01*
X035649Y023641D02*
X037347Y023641D01*
X037347Y023543D02*
X035649Y023543D01*
X035649Y023444D02*
X037347Y023444D01*
X037347Y023346D02*
X035649Y023346D01*
X035649Y023247D02*
X037347Y023247D01*
X037347Y023149D02*
X035649Y023149D01*
X035649Y023050D02*
X037347Y023050D01*
X037347Y022952D02*
X035649Y022952D01*
X035649Y022853D02*
X037347Y022853D01*
X037347Y022755D02*
X035649Y022755D01*
X035649Y022656D02*
X037347Y022656D01*
X037347Y022558D02*
X035649Y022558D01*
X035649Y022459D02*
X037347Y022459D01*
X037347Y022361D02*
X035649Y022361D01*
X035649Y022262D02*
X037347Y022262D01*
X037347Y022164D02*
X035649Y022164D01*
X035649Y022065D02*
X037347Y022065D01*
X037347Y021967D02*
X035649Y021967D01*
X035649Y021868D02*
X037347Y021868D01*
X037347Y021770D02*
X035649Y021770D01*
X035649Y021671D02*
X037347Y021671D01*
X037347Y021573D02*
X035649Y021573D01*
X035649Y021474D02*
X037347Y021474D01*
X037347Y021376D02*
X035649Y021376D01*
X035649Y021277D02*
X037347Y021277D01*
X037347Y021179D02*
X035649Y021179D01*
X035649Y021080D02*
X037347Y021080D01*
X037347Y020982D02*
X035649Y020982D01*
X035649Y020883D02*
X037347Y020883D01*
X037347Y020785D02*
X035649Y020785D01*
X035649Y020686D02*
X037347Y020686D01*
X037347Y020588D02*
X035649Y020588D01*
X035649Y020489D02*
X037347Y020489D01*
X037347Y020391D02*
X035649Y020391D01*
X035649Y020292D02*
X037347Y020292D01*
X037347Y020194D02*
X035649Y020194D01*
X035649Y020095D02*
X037347Y020095D01*
X037347Y019997D02*
X035649Y019997D01*
X035649Y019898D02*
X037347Y019898D01*
X037347Y019800D02*
X035649Y019800D01*
X035649Y019701D02*
X037347Y019701D01*
X037347Y019603D02*
X035649Y019603D01*
X035649Y019504D02*
X037347Y019504D01*
X037347Y019406D02*
X035649Y019406D01*
X035649Y019307D02*
X037347Y019307D01*
X037347Y019209D02*
X035649Y019209D01*
X035649Y019110D02*
X037347Y019110D01*
X037347Y019012D02*
X035649Y019012D01*
X035649Y018913D02*
X037347Y018913D01*
X037347Y018815D02*
X035649Y018815D01*
X035649Y018716D02*
X037347Y018716D01*
X037347Y018618D02*
X035649Y018618D01*
X035649Y018519D02*
X037347Y018519D01*
X037347Y018421D02*
X035649Y018421D01*
X035649Y018322D02*
X037347Y018322D01*
X037347Y018224D02*
X035649Y018224D01*
X035649Y018125D02*
X037347Y018125D01*
X037347Y018027D02*
X035649Y018027D01*
X035649Y017928D02*
X037347Y017928D01*
X037347Y017830D02*
X035649Y017830D01*
X035649Y017731D02*
X037347Y017731D01*
X037347Y017633D02*
X035649Y017633D01*
X035649Y017534D02*
X037347Y017534D01*
X037347Y017436D02*
X035649Y017436D01*
X035649Y017337D02*
X037347Y017337D01*
X037347Y017239D02*
X035649Y017239D01*
X035649Y017140D02*
X037347Y017140D01*
X037347Y017042D02*
X035649Y017042D01*
X035649Y016943D02*
X037347Y016943D01*
X037347Y016845D02*
X035649Y016845D01*
X035649Y016746D02*
X037347Y016746D01*
X037347Y016648D02*
X035649Y016648D01*
X035649Y016549D02*
X037347Y016549D01*
X037347Y016451D02*
X035649Y016451D01*
X035649Y016352D02*
X037347Y016352D01*
X037347Y016254D02*
X035649Y016254D01*
X035649Y016155D02*
X037347Y016155D01*
X037347Y016057D02*
X035649Y016057D01*
X035649Y015958D02*
X037347Y015958D01*
X037347Y015860D02*
X035649Y015860D01*
X035649Y015761D02*
X037347Y015761D01*
X037347Y015663D02*
X035649Y015663D01*
X035649Y015564D02*
X037347Y015564D01*
X037347Y015466D02*
X035649Y015466D01*
X035649Y015367D02*
X037347Y015367D01*
X037347Y015269D02*
X035649Y015269D01*
X035619Y015170D02*
X037347Y015170D01*
X037347Y015072D02*
X035533Y015072D01*
X035435Y014973D02*
X037347Y014973D01*
X037347Y014875D02*
X035336Y014875D01*
X035238Y014776D02*
X037347Y014776D01*
X037347Y014678D02*
X035190Y014678D01*
X035231Y014579D02*
X037347Y014579D01*
X037347Y014481D02*
X035264Y014481D01*
X035264Y014382D02*
X037347Y014382D01*
X037347Y014284D02*
X035258Y014284D01*
X035217Y014185D02*
X037347Y014185D01*
X037347Y014087D02*
X035162Y014087D01*
X035064Y013988D02*
X037347Y013988D01*
X037347Y013890D02*
X034902Y013890D01*
X035083Y013791D02*
X037347Y013791D01*
X037347Y013693D02*
X035181Y013693D01*
X035225Y013594D02*
X037347Y013594D01*
X037347Y013496D02*
X035264Y013496D01*
X035264Y013397D02*
X037347Y013397D01*
X037347Y013299D02*
X035264Y013299D01*
X035223Y013200D02*
X037347Y013200D01*
X037347Y013102D02*
X035177Y013102D01*
X035079Y013003D02*
X037347Y013003D01*
X037347Y012905D02*
X034893Y012905D01*
X035068Y012806D02*
X037347Y012806D01*
X037347Y012708D02*
X035166Y012708D01*
X035219Y012609D02*
X037347Y012609D01*
X037347Y012511D02*
X035259Y012511D01*
X035264Y012412D02*
X037347Y012412D01*
X037347Y012314D02*
X035264Y012314D01*
X035229Y012215D02*
X037347Y012215D01*
X037347Y012117D02*
X035189Y012117D01*
X035094Y012018D02*
X037347Y012018D01*
X037347Y011920D02*
X034929Y011920D01*
X035053Y011821D02*
X037347Y011821D01*
X037347Y011723D02*
X035151Y011723D01*
X035212Y011624D02*
X037347Y011624D01*
X037347Y011526D02*
X035253Y011526D01*
X035264Y011427D02*
X037347Y011427D01*
X037347Y011329D02*
X035264Y011329D01*
X035236Y011230D02*
X037347Y011230D01*
X037347Y011132D02*
X035195Y011132D01*
X035109Y011033D02*
X037347Y011033D01*
X037347Y010935D02*
X034965Y010935D01*
X035031Y010836D02*
X037347Y010836D01*
X037347Y010738D02*
X035136Y010738D01*
X035206Y010639D02*
X037347Y010639D01*
X037347Y010541D02*
X035247Y010541D01*
X035264Y010442D02*
X037347Y010442D01*
X037347Y010344D02*
X035264Y010344D01*
X035242Y010245D02*
X037347Y010245D01*
X037347Y010147D02*
X035201Y010147D01*
X035124Y010048D02*
X037347Y010048D01*
X037347Y009950D02*
X035001Y009950D01*
X034995Y009851D02*
X037347Y009851D01*
X037347Y009753D02*
X035121Y009753D01*
X035200Y009654D02*
X037347Y009654D01*
X037347Y009556D02*
X035241Y009556D01*
X035264Y009457D02*
X037347Y009457D01*
X037347Y009359D02*
X035264Y009359D01*
X035248Y009260D02*
X037347Y009260D01*
X037347Y009162D02*
X035207Y009162D01*
X035139Y009063D02*
X037347Y009063D01*
X037347Y008965D02*
X035037Y008965D01*
X034959Y008866D02*
X037347Y008866D01*
X037347Y008768D02*
X035106Y008768D01*
X035194Y008669D02*
X037347Y008669D01*
X037347Y008571D02*
X035234Y008571D01*
X035264Y008472D02*
X037347Y008472D01*
X037347Y008374D02*
X035264Y008374D01*
X035254Y008275D02*
X037347Y008275D01*
X037347Y008177D02*
X035213Y008177D01*
X035154Y008078D02*
X037347Y008078D01*
X037347Y007980D02*
X035055Y007980D01*
X034922Y007881D02*
X037347Y007881D01*
X037347Y007783D02*
X035091Y007783D01*
X035187Y007684D02*
X037347Y007684D01*
X037347Y007586D02*
X035228Y007586D01*
X035264Y007487D02*
X037347Y007487D01*
X037347Y007389D02*
X035264Y007389D01*
X035260Y007290D02*
X037347Y007290D01*
X037347Y007192D02*
X035220Y007192D01*
X035169Y007093D02*
X037347Y007093D01*
X037347Y006995D02*
X035070Y006995D01*
X034872Y006896D02*
X037347Y006896D01*
X037347Y006798D02*
X031329Y006798D01*
X031419Y006896D02*
X033635Y006896D01*
X033437Y006995D02*
X031460Y006995D01*
X031469Y007093D02*
X033338Y007093D01*
X033287Y007192D02*
X031456Y007192D01*
X031104Y007088D02*
X030317Y007088D01*
X029529Y007088D01*
X029164Y007093D02*
X012949Y007093D01*
X012949Y006995D02*
X028920Y006995D01*
X028824Y006896D02*
X012949Y006896D01*
X012949Y006798D02*
X028783Y006798D01*
X028771Y006699D02*
X012949Y006699D01*
X012949Y006601D02*
X028779Y006601D01*
X028820Y006502D02*
X012949Y006502D01*
X012949Y006404D02*
X028910Y006404D01*
X029135Y006694D02*
X030317Y006694D01*
X030710Y006694D01*
X031075Y006699D02*
X037347Y006699D01*
X037347Y006601D02*
X031066Y006601D01*
X031025Y006502D02*
X037347Y006502D01*
X037347Y006404D02*
X030935Y006404D01*
X030485Y006404D02*
X029361Y006404D01*
X029177Y007192D02*
X012949Y007192D01*
X012949Y007290D02*
X029218Y007290D01*
X029314Y007389D02*
X012949Y007389D01*
X012949Y007487D02*
X029558Y007487D01*
X029571Y007586D02*
X012949Y007586D01*
X012949Y007684D02*
X029612Y007684D01*
X029708Y007783D02*
X022470Y007783D01*
X022434Y007768D02*
X022654Y007859D01*
X022823Y008028D01*
X022914Y008248D01*
X022914Y008487D01*
X022823Y008707D01*
X022654Y008876D01*
X022434Y008967D01*
X022195Y008967D01*
X021975Y008876D01*
X021806Y008707D01*
X021715Y008487D01*
X021715Y008248D01*
X021806Y008028D01*
X021975Y007859D01*
X022195Y007768D01*
X022434Y007768D01*
X022676Y007881D02*
X033585Y007881D01*
X033452Y007980D02*
X022775Y007980D01*
X022844Y008078D02*
X032108Y008078D01*
X032010Y008177D02*
X022885Y008177D01*
X022914Y008275D02*
X031911Y008275D01*
X031813Y008374D02*
X026213Y008374D01*
X026192Y008354D02*
X026295Y008456D01*
X026351Y008590D01*
X026351Y008736D01*
X026299Y008860D01*
X026351Y008984D01*
X026351Y009129D01*
X026295Y009263D01*
X026192Y009366D01*
X026058Y009421D01*
X025989Y009421D01*
X024622Y010788D01*
X024622Y013230D01*
X025419Y014028D01*
X025458Y014123D01*
X025458Y014567D01*
X025459Y014616D01*
X025458Y014618D01*
X025458Y014620D01*
X025439Y014666D01*
X025421Y014712D01*
X025420Y014714D01*
X025419Y014716D01*
X025384Y014751D01*
X023845Y016338D01*
X023844Y016340D01*
X023841Y016343D01*
X023841Y016413D01*
X023785Y016547D01*
X023683Y016649D01*
X023549Y016705D01*
X023403Y016705D01*
X023269Y016649D01*
X023255Y016635D01*
X023240Y016649D01*
X023106Y016705D01*
X022961Y016705D01*
X022826Y016649D01*
X022724Y016547D01*
X022668Y016413D01*
X022668Y016268D01*
X022724Y016134D01*
X022826Y016031D01*
X022961Y015975D01*
X023025Y015975D01*
X024545Y014414D01*
X024545Y014282D01*
X023870Y013608D01*
X023797Y013535D01*
X023757Y013439D01*
X023757Y010580D01*
X023797Y010484D01*
X025621Y008660D01*
X025621Y008590D01*
X025677Y008456D01*
X025779Y008354D01*
X025913Y008298D01*
X026058Y008298D01*
X026192Y008354D01*
X026302Y008472D02*
X031714Y008472D01*
X031616Y008571D02*
X026342Y008571D01*
X026351Y008669D02*
X031517Y008669D01*
X031419Y008768D02*
X031331Y008768D01*
X031498Y009057D02*
X031104Y009057D01*
X030739Y009063D02*
X026351Y009063D01*
X026343Y008965D02*
X030747Y008965D01*
X030788Y008866D02*
X026302Y008866D01*
X026337Y008768D02*
X030877Y008768D01*
X030753Y009162D02*
X026337Y009162D01*
X026296Y009260D02*
X030738Y009260D01*
X030681Y009359D02*
X026200Y009359D01*
X025953Y009457D02*
X030655Y009457D01*
X030655Y009556D02*
X025854Y009556D01*
X025756Y009654D02*
X030495Y009654D01*
X030352Y009753D02*
X025657Y009753D01*
X025559Y009851D02*
X030291Y009851D01*
X030261Y009950D02*
X025460Y009950D01*
X025362Y010048D02*
X030116Y010048D01*
X029965Y010147D02*
X025263Y010147D01*
X025165Y010245D02*
X029899Y010245D01*
X029867Y010344D02*
X025066Y010344D01*
X024968Y010442D02*
X029867Y010442D01*
X029897Y010541D02*
X024869Y010541D01*
X024771Y010639D02*
X029866Y010639D01*
X029796Y010738D02*
X024672Y010738D01*
X024622Y010836D02*
X028051Y010836D01*
X027883Y010935D02*
X024622Y010935D01*
X024622Y011033D02*
X027811Y011033D01*
X027774Y011132D02*
X024622Y011132D01*
X024622Y011230D02*
X027774Y011230D01*
X027799Y011329D02*
X024622Y011329D01*
X024622Y011427D02*
X027590Y011427D01*
X027514Y011526D02*
X024622Y011526D01*
X024622Y011624D02*
X027474Y011624D01*
X027474Y011723D02*
X024622Y011723D01*
X024622Y011821D02*
X027496Y011821D01*
X027547Y011920D02*
X024622Y011920D01*
X024622Y012018D02*
X027665Y012018D01*
X028013Y012018D02*
X030244Y012018D01*
X030343Y012117D02*
X024622Y012117D01*
X024622Y012215D02*
X030441Y012215D01*
X030540Y012314D02*
X030324Y012314D01*
X030296Y012286D02*
X030398Y012389D01*
X030454Y012523D01*
X030454Y012668D01*
X030398Y012802D01*
X030296Y012905D01*
X030162Y012960D01*
X030134Y012960D01*
X029838Y013257D01*
X029731Y013301D01*
X028845Y013301D01*
X028854Y013323D01*
X028854Y013350D01*
X028935Y013431D01*
X028979Y013538D01*
X028979Y014559D01*
X028985Y014552D01*
X029592Y014552D01*
X029716Y014675D01*
X029716Y014935D01*
X029741Y014935D01*
X029836Y014975D01*
X029909Y015048D01*
X029959Y015098D01*
X029999Y015194D01*
X029999Y015339D01*
X030048Y015389D01*
X030104Y015523D01*
X030104Y015668D01*
X030048Y015802D01*
X029946Y015904D01*
X029954Y015923D01*
X029954Y016068D01*
X029898Y016202D01*
X029796Y016305D01*
X029662Y016360D01*
X029516Y016360D01*
X029382Y016305D01*
X029333Y016255D01*
X029076Y016255D01*
X028992Y016338D01*
X028385Y016338D01*
X028262Y016215D01*
X028262Y015766D01*
X028333Y015695D01*
X028262Y015625D01*
X028262Y015175D01*
X028385Y015052D01*
X028399Y015052D01*
X028399Y013753D01*
X028282Y013705D01*
X028180Y013602D01*
X028124Y013468D01*
X028124Y013323D01*
X028133Y013301D01*
X027593Y013301D01*
X027593Y013711D01*
X027523Y013781D01*
X027593Y013852D01*
X027593Y014301D01*
X027577Y014318D01*
X027630Y014447D01*
X027630Y014592D01*
X027575Y014726D01*
X027472Y014829D01*
X027338Y014884D01*
X027193Y014884D01*
X027059Y014829D01*
X026956Y014726D01*
X026901Y014592D01*
X026901Y014447D01*
X026907Y014431D01*
X026907Y014424D01*
X026863Y014424D01*
X026740Y014301D01*
X026740Y013852D01*
X026811Y013781D01*
X026740Y013711D01*
X026740Y013261D01*
X026863Y013138D01*
X026909Y013138D01*
X026909Y012953D01*
X026953Y012847D01*
X027035Y012765D01*
X027141Y012721D01*
X028435Y012721D01*
X028437Y012720D01*
X028493Y012721D01*
X029553Y012721D01*
X029724Y012550D01*
X029724Y012523D01*
X029780Y012389D01*
X029882Y012286D01*
X030016Y012230D01*
X030162Y012230D01*
X030296Y012286D01*
X030408Y012412D02*
X030638Y012412D01*
X030737Y012511D02*
X030449Y012511D01*
X030454Y012609D02*
X030835Y012609D01*
X030934Y012708D02*
X030437Y012708D01*
X030394Y012806D02*
X031032Y012806D01*
X031131Y012905D02*
X030295Y012905D01*
X030091Y013003D02*
X031229Y013003D01*
X031328Y013102D02*
X029993Y013102D01*
X029894Y013200D02*
X031426Y013200D01*
X031525Y013299D02*
X029736Y013299D01*
X029566Y012708D02*
X024622Y012708D01*
X024622Y012806D02*
X026993Y012806D01*
X026929Y012905D02*
X024622Y012905D01*
X024622Y013003D02*
X026909Y013003D01*
X026909Y013102D02*
X024622Y013102D01*
X024622Y013200D02*
X026801Y013200D01*
X026740Y013299D02*
X024690Y013299D01*
X024789Y013397D02*
X026740Y013397D01*
X026740Y013496D02*
X024887Y013496D01*
X024986Y013594D02*
X026740Y013594D01*
X026740Y013693D02*
X025084Y013693D01*
X025183Y013791D02*
X026801Y013791D01*
X026740Y013890D02*
X025281Y013890D01*
X025380Y013988D02*
X026740Y013988D01*
X026740Y014087D02*
X025443Y014087D01*
X025458Y014185D02*
X026740Y014185D01*
X026740Y014284D02*
X025458Y014284D01*
X025458Y014382D02*
X026822Y014382D01*
X026901Y014481D02*
X025458Y014481D01*
X025459Y014579D02*
X026901Y014579D01*
X026936Y014678D02*
X025435Y014678D01*
X025359Y014776D02*
X027006Y014776D01*
X027170Y014875D02*
X025264Y014875D01*
X025168Y014973D02*
X028399Y014973D01*
X028399Y014875D02*
X027360Y014875D01*
X027524Y014776D02*
X028399Y014776D01*
X028399Y014678D02*
X027595Y014678D01*
X027630Y014579D02*
X028399Y014579D01*
X028399Y014481D02*
X027630Y014481D01*
X027603Y014382D02*
X028399Y014382D01*
X028399Y014284D02*
X027593Y014284D01*
X027593Y014185D02*
X028399Y014185D01*
X028399Y014087D02*
X027593Y014087D01*
X027593Y013988D02*
X028399Y013988D01*
X028399Y013890D02*
X027593Y013890D01*
X027533Y013791D02*
X028399Y013791D01*
X028270Y013693D02*
X027593Y013693D01*
X027593Y013594D02*
X028176Y013594D01*
X028136Y013496D02*
X027593Y013496D01*
X027593Y013397D02*
X028124Y013397D01*
X028901Y013397D02*
X031623Y013397D01*
X031722Y013496D02*
X028962Y013496D01*
X028979Y013594D02*
X031820Y013594D01*
X031919Y013693D02*
X028979Y013693D01*
X028979Y013791D02*
X032017Y013791D01*
X032116Y013890D02*
X028979Y013890D01*
X028979Y013988D02*
X032214Y013988D01*
X032313Y014087D02*
X028979Y014087D01*
X028979Y014185D02*
X032411Y014185D01*
X032510Y014284D02*
X028979Y014284D01*
X028979Y014382D02*
X032608Y014382D01*
X032707Y014481D02*
X028979Y014481D01*
X029620Y014579D02*
X032805Y014579D01*
X032904Y014678D02*
X029716Y014678D01*
X029716Y014776D02*
X033002Y014776D01*
X033101Y014875D02*
X029716Y014875D01*
X029833Y014973D02*
X033199Y014973D01*
X033298Y015072D02*
X029933Y015072D01*
X029989Y015170D02*
X033296Y015170D01*
X033256Y015269D02*
X029999Y015269D01*
X030027Y015367D02*
X033244Y015367D01*
X033244Y015466D02*
X030080Y015466D01*
X030104Y015564D02*
X033270Y015564D01*
X033311Y015663D02*
X030104Y015663D01*
X030065Y015761D02*
X033394Y015761D01*
X033533Y015860D02*
X029991Y015860D01*
X029954Y015958D02*
X033485Y015958D01*
X033375Y016057D02*
X029954Y016057D01*
X029918Y016155D02*
X033303Y016155D01*
X033262Y016254D02*
X029847Y016254D01*
X029681Y016352D02*
X033244Y016352D01*
X033244Y016451D02*
X023825Y016451D01*
X023841Y016352D02*
X029497Y016352D01*
X029589Y015995D02*
X028694Y015995D01*
X028689Y015991D01*
X028262Y015958D02*
X024213Y015958D01*
X024308Y015860D02*
X028262Y015860D01*
X028267Y015761D02*
X024404Y015761D01*
X024499Y015663D02*
X028300Y015663D01*
X028262Y015564D02*
X024595Y015564D01*
X024690Y015466D02*
X028262Y015466D01*
X028262Y015367D02*
X024786Y015367D01*
X024882Y015269D02*
X028262Y015269D01*
X028267Y015170D02*
X024977Y015170D01*
X025073Y015072D02*
X028366Y015072D01*
X027265Y014519D02*
X027167Y014421D01*
X027167Y014076D01*
X025198Y014175D02*
X024362Y013338D01*
X024362Y010681D01*
X025986Y009057D01*
X025986Y008663D02*
X024017Y010631D01*
X024017Y013387D01*
X024805Y014175D01*
X024805Y014519D01*
X023033Y016340D01*
X022668Y016352D02*
X012712Y016352D01*
X012712Y016254D02*
X022674Y016254D01*
X022715Y016155D02*
X012712Y016155D01*
X012770Y016057D02*
X013208Y016057D01*
X013370Y016057D02*
X022801Y016057D01*
X023042Y015958D02*
X015109Y015958D01*
X015294Y015860D02*
X023138Y015860D01*
X023234Y015761D02*
X015393Y015761D01*
X015450Y015663D02*
X023329Y015663D01*
X023425Y015564D02*
X015491Y015564D01*
X015509Y015466D02*
X023521Y015466D01*
X023617Y015367D02*
X015509Y015367D01*
X015500Y015269D02*
X023713Y015269D01*
X023809Y015170D02*
X015459Y015170D01*
X015416Y015072D02*
X023904Y015072D01*
X024000Y014973D02*
X015317Y014973D01*
X015189Y014875D02*
X024096Y014875D01*
X024192Y014776D02*
X015189Y014776D01*
X015189Y014678D02*
X023119Y014678D01*
X023122Y014681D02*
X023072Y014632D01*
X021407Y014632D01*
X021311Y014592D01*
X020720Y014002D01*
X020647Y013928D01*
X020608Y013833D01*
X020608Y011133D01*
X018752Y009277D01*
X018679Y009204D01*
X018639Y009108D01*
X018639Y008378D01*
X018590Y008328D01*
X018534Y008194D01*
X018534Y008049D01*
X018590Y007915D01*
X018693Y007812D01*
X018827Y007757D01*
X018972Y007757D01*
X019106Y007812D01*
X019208Y007915D01*
X019264Y008049D01*
X019264Y008194D01*
X019208Y008328D01*
X019159Y008378D01*
X019159Y008949D01*
X021051Y010840D01*
X021051Y010641D01*
X019536Y009126D01*
X019466Y009126D01*
X019332Y009071D01*
X019230Y008968D01*
X019174Y008834D01*
X019174Y008689D01*
X019230Y008555D01*
X019332Y008452D01*
X019466Y008397D01*
X019612Y008397D01*
X019746Y008452D01*
X019848Y008555D01*
X019904Y008689D01*
X019904Y008759D01*
X021531Y010386D01*
X021571Y010481D01*
X021571Y013575D01*
X021714Y013718D01*
X023774Y013718D01*
X023869Y013758D01*
X023942Y013831D01*
X024139Y014028D01*
X024174Y014111D01*
X024228Y014165D01*
X024284Y014299D01*
X024284Y014444D01*
X024228Y014578D01*
X024126Y014681D01*
X023991Y014736D01*
X023846Y014736D01*
X023712Y014681D01*
X023624Y014592D01*
X023535Y014681D01*
X023401Y014736D01*
X023256Y014736D01*
X023122Y014681D01*
X023328Y014372D02*
X021458Y014372D01*
X020868Y013781D01*
X020868Y011025D01*
X018899Y009057D01*
X018899Y008122D01*
X018635Y008374D02*
X012949Y008374D01*
X012949Y008472D02*
X018639Y008472D01*
X018639Y008571D02*
X012949Y008571D01*
X012949Y008669D02*
X018639Y008669D01*
X018639Y008768D02*
X012949Y008768D01*
X012949Y008866D02*
X018639Y008866D01*
X018639Y008965D02*
X012949Y008965D01*
X012949Y009063D02*
X018639Y009063D01*
X018661Y009162D02*
X012949Y009162D01*
X012949Y009260D02*
X018735Y009260D01*
X018834Y009359D02*
X012949Y009359D01*
X012949Y009457D02*
X018932Y009457D01*
X019031Y009556D02*
X012949Y009556D01*
X012949Y009654D02*
X019129Y009654D01*
X019228Y009753D02*
X012949Y009753D01*
X012949Y009851D02*
X019326Y009851D01*
X019425Y009950D02*
X012949Y009950D01*
X012949Y010048D02*
X019523Y010048D01*
X019622Y010147D02*
X012949Y010147D01*
X012949Y010245D02*
X019720Y010245D01*
X019819Y010344D02*
X012949Y010344D01*
X012949Y010442D02*
X019917Y010442D01*
X020016Y010541D02*
X012949Y010541D01*
X012949Y010639D02*
X020114Y010639D01*
X020213Y010738D02*
X012949Y010738D01*
X012949Y010836D02*
X020311Y010836D01*
X020410Y010935D02*
X012949Y010935D01*
X012949Y011033D02*
X020508Y011033D01*
X020607Y011132D02*
X012949Y011132D01*
X012949Y011230D02*
X020608Y011230D01*
X020608Y011329D02*
X012949Y011329D01*
X012949Y011427D02*
X020608Y011427D01*
X020608Y011526D02*
X012949Y011526D01*
X012949Y011624D02*
X020608Y011624D01*
X020608Y011723D02*
X012949Y011723D01*
X012949Y011821D02*
X020608Y011821D01*
X020608Y011920D02*
X012949Y011920D01*
X012949Y012018D02*
X020608Y012018D01*
X020608Y012117D02*
X012949Y012117D01*
X012949Y012215D02*
X020608Y012215D01*
X020608Y012314D02*
X012949Y012314D01*
X012949Y012412D02*
X020608Y012412D01*
X020608Y012511D02*
X012949Y012511D01*
X012949Y012609D02*
X020608Y012609D01*
X020608Y012708D02*
X012949Y012708D01*
X012949Y012806D02*
X017612Y012806D01*
X017472Y013092D02*
X017863Y013095D01*
X017839Y013095D01*
X018204Y013102D02*
X020608Y013102D01*
X020608Y013200D02*
X018191Y013200D01*
X018150Y013299D02*
X020608Y013299D01*
X020608Y013397D02*
X018054Y013397D01*
X018196Y013003D02*
X020608Y013003D01*
X020608Y012905D02*
X018156Y012905D01*
X018067Y012806D02*
X020608Y012806D01*
X020608Y013496D02*
X013549Y013496D01*
X013549Y013594D02*
X020608Y013594D01*
X020608Y013693D02*
X015003Y013693D01*
X015100Y013791D02*
X020608Y013791D01*
X020631Y013890D02*
X015140Y013890D01*
X015154Y013988D02*
X020707Y013988D01*
X020806Y014087D02*
X015189Y014087D01*
X015189Y014185D02*
X020904Y014185D01*
X021003Y014284D02*
X015189Y014284D01*
X015189Y014382D02*
X021101Y014382D01*
X021200Y014481D02*
X015189Y014481D01*
X015189Y014579D02*
X021298Y014579D01*
X021606Y013978D02*
X021311Y013683D01*
X021311Y010533D01*
X019539Y008761D01*
X019174Y008768D02*
X019159Y008768D01*
X019159Y008866D02*
X019188Y008866D01*
X019175Y008965D02*
X019228Y008965D01*
X019274Y009063D02*
X019325Y009063D01*
X019372Y009162D02*
X019572Y009162D01*
X019670Y009260D02*
X019471Y009260D01*
X019569Y009359D02*
X019769Y009359D01*
X019867Y009457D02*
X019668Y009457D01*
X019766Y009556D02*
X019966Y009556D01*
X020064Y009654D02*
X019865Y009654D01*
X019963Y009753D02*
X020163Y009753D01*
X020261Y009851D02*
X020062Y009851D01*
X020160Y009950D02*
X020360Y009950D01*
X020458Y010048D02*
X020259Y010048D01*
X020357Y010147D02*
X020557Y010147D01*
X020655Y010245D02*
X020456Y010245D01*
X020554Y010344D02*
X020754Y010344D01*
X020852Y010442D02*
X020653Y010442D01*
X020751Y010541D02*
X020951Y010541D01*
X021049Y010639D02*
X020850Y010639D01*
X020948Y010738D02*
X021051Y010738D01*
X021047Y010836D02*
X021051Y010836D01*
X021489Y010344D02*
X023937Y010344D01*
X023839Y010442D02*
X021554Y010442D01*
X021571Y010541D02*
X023773Y010541D01*
X023757Y010639D02*
X021571Y010639D01*
X021571Y010738D02*
X023757Y010738D01*
X023757Y010836D02*
X021571Y010836D01*
X021571Y010935D02*
X023757Y010935D01*
X023757Y011033D02*
X021571Y011033D01*
X021571Y011132D02*
X023757Y011132D01*
X023757Y011230D02*
X021571Y011230D01*
X021571Y011329D02*
X023757Y011329D01*
X023757Y011427D02*
X021571Y011427D01*
X021571Y011526D02*
X023757Y011526D01*
X023757Y011624D02*
X021571Y011624D01*
X021571Y011723D02*
X023757Y011723D01*
X023757Y011821D02*
X021571Y011821D01*
X021571Y011920D02*
X023757Y011920D01*
X023757Y012018D02*
X021571Y012018D01*
X021571Y012117D02*
X023757Y012117D01*
X023757Y012215D02*
X021571Y012215D01*
X021571Y012314D02*
X023757Y012314D01*
X023757Y012412D02*
X021571Y012412D01*
X021571Y012511D02*
X023757Y012511D01*
X023757Y012609D02*
X021571Y012609D01*
X021571Y012708D02*
X023757Y012708D01*
X023757Y012806D02*
X021571Y012806D01*
X021571Y012905D02*
X023757Y012905D01*
X023757Y013003D02*
X021571Y013003D01*
X021571Y013102D02*
X023757Y013102D01*
X023757Y013200D02*
X021571Y013200D01*
X021571Y013299D02*
X023757Y013299D01*
X023757Y013397D02*
X021571Y013397D01*
X021571Y013496D02*
X023781Y013496D01*
X023857Y013594D02*
X021590Y013594D01*
X021688Y013693D02*
X023955Y013693D01*
X023903Y013791D02*
X024054Y013791D01*
X024002Y013890D02*
X024152Y013890D01*
X024100Y013988D02*
X024251Y013988D01*
X024164Y014087D02*
X024349Y014087D01*
X024448Y014185D02*
X024237Y014185D01*
X024277Y014284D02*
X024545Y014284D01*
X024545Y014382D02*
X024284Y014382D01*
X024269Y014481D02*
X024479Y014481D01*
X024384Y014579D02*
X024227Y014579D01*
X024288Y014678D02*
X024129Y014678D01*
X023919Y014372D02*
X023919Y014175D01*
X023722Y013978D01*
X021606Y013978D01*
X023538Y014678D02*
X023709Y014678D01*
X023870Y013608D02*
X023870Y013608D01*
X024622Y012609D02*
X029665Y012609D01*
X029729Y012511D02*
X024622Y012511D01*
X024622Y012412D02*
X029770Y012412D01*
X029854Y012314D02*
X024622Y012314D01*
X025198Y014175D02*
X025198Y014569D01*
X023624Y016193D01*
X023476Y016340D01*
X023783Y016549D02*
X033264Y016549D01*
X033304Y016648D02*
X023684Y016648D01*
X023268Y016648D02*
X023241Y016648D01*
X022825Y016648D02*
X012712Y016648D01*
X012712Y016746D02*
X032578Y016746D01*
X032423Y016845D02*
X012712Y016845D01*
X012712Y016943D02*
X032357Y016943D01*
X032324Y017042D02*
X012712Y017042D01*
X012712Y017140D02*
X032324Y017140D01*
X032353Y017239D02*
X012712Y017239D01*
X012712Y017337D02*
X032415Y017337D01*
X032557Y017436D02*
X012712Y017436D01*
X012712Y017534D02*
X033257Y017534D01*
X033244Y017436D02*
X032821Y017436D01*
X032689Y017095D02*
X033189Y017095D01*
X033389Y016895D01*
X034257Y016895D01*
X034754Y016399D01*
X035389Y015295D02*
X035389Y026764D01*
X034754Y027399D01*
X035264Y027384D02*
X037347Y027384D01*
X037347Y027286D02*
X035259Y027286D01*
X035333Y027187D02*
X037347Y027187D01*
X037347Y027089D02*
X035432Y027089D01*
X035530Y026990D02*
X037347Y026990D01*
X037347Y026892D02*
X035617Y026892D01*
X035649Y026793D02*
X037347Y026793D01*
X037347Y026695D02*
X035649Y026695D01*
X035649Y026596D02*
X037347Y026596D01*
X037347Y026498D02*
X035649Y026498D01*
X035649Y026399D02*
X037347Y026399D01*
X037347Y026301D02*
X035649Y026301D01*
X035649Y026202D02*
X037347Y026202D01*
X037347Y026104D02*
X035649Y026104D01*
X035649Y026005D02*
X037347Y026005D01*
X037347Y025907D02*
X035649Y025907D01*
X035649Y025808D02*
X037347Y025808D01*
X037347Y025710D02*
X035649Y025710D01*
X035649Y025611D02*
X037347Y025611D01*
X037347Y025513D02*
X035649Y025513D01*
X035649Y025414D02*
X037347Y025414D01*
X037347Y025316D02*
X035649Y025316D01*
X035649Y025217D02*
X037347Y025217D01*
X037347Y025119D02*
X035649Y025119D01*
X035649Y025020D02*
X037347Y025020D01*
X037347Y024922D02*
X035649Y024922D01*
X035649Y024823D02*
X037347Y024823D01*
X037347Y024725D02*
X035649Y024725D01*
X035649Y024626D02*
X037347Y024626D01*
X037347Y024528D02*
X035649Y024528D01*
X033573Y024922D02*
X025126Y024922D01*
X025126Y024823D02*
X033456Y024823D01*
X033358Y024725D02*
X025126Y024725D01*
X025126Y024626D02*
X033296Y024626D01*
X033255Y024528D02*
X025126Y024528D01*
X025079Y024429D02*
X033244Y024429D01*
X033244Y024331D02*
X024619Y024331D01*
X024619Y024232D02*
X033271Y024232D01*
X033286Y024134D02*
X024619Y024134D01*
X025258Y025020D02*
X033411Y025020D01*
X033318Y025119D02*
X025379Y025119D01*
X025431Y025217D02*
X033277Y025217D01*
X033244Y025316D02*
X025454Y025316D01*
X025454Y025414D02*
X033244Y025414D01*
X033249Y025513D02*
X025415Y025513D01*
X025339Y025611D02*
X033289Y025611D01*
X033343Y025710D02*
X025163Y025710D01*
X025015Y025710D02*
X024641Y025710D01*
X024619Y025808D02*
X033441Y025808D01*
X033610Y025907D02*
X024619Y025907D01*
X024619Y026005D02*
X033426Y026005D01*
X033328Y026104D02*
X024619Y026104D01*
X024619Y026202D02*
X033283Y026202D01*
X033244Y026301D02*
X024619Y026301D01*
X024619Y026399D02*
X033244Y026399D01*
X033244Y026498D02*
X024619Y026498D01*
X024619Y026596D02*
X033283Y026596D01*
X033328Y026695D02*
X024619Y026695D01*
X024619Y026793D02*
X033426Y026793D01*
X033441Y026990D02*
X024619Y026990D01*
X024619Y026892D02*
X033610Y026892D01*
X033343Y027089D02*
X024619Y027089D01*
X024619Y027187D02*
X033289Y027187D01*
X033248Y027286D02*
X024619Y027286D01*
X024619Y027384D02*
X033244Y027384D01*
X033244Y027483D02*
X024619Y027483D01*
X024619Y027581D02*
X033277Y027581D01*
X033318Y027680D02*
X024619Y027680D01*
X024619Y027778D02*
X033411Y027778D01*
X033574Y027877D02*
X024619Y027877D01*
X024619Y027975D02*
X033456Y027975D01*
X033358Y028074D02*
X024955Y028074D01*
X024989Y028172D02*
X033295Y028172D01*
X033255Y028271D02*
X024989Y028271D01*
X024989Y028369D02*
X033244Y028369D01*
X033244Y028468D02*
X024989Y028468D01*
X025149Y028566D02*
X033271Y028566D01*
X033312Y028665D02*
X025275Y028665D01*
X025329Y028763D02*
X033396Y028763D01*
X033538Y028862D02*
X025354Y028862D01*
X025354Y028960D02*
X033480Y028960D01*
X033373Y029059D02*
X025316Y029059D01*
X025243Y029157D02*
X030850Y029157D01*
X030751Y029256D02*
X025072Y029256D01*
X024906Y029256D02*
X024095Y029256D01*
X023997Y029354D02*
X030706Y029354D01*
X030681Y029453D02*
X023898Y029453D01*
X023806Y029551D02*
X030681Y029551D01*
X030711Y029650D02*
X023751Y029650D01*
X023624Y029748D02*
X030765Y029748D01*
X030871Y029847D02*
X016602Y029847D01*
X016700Y029945D02*
X018619Y029945D01*
X018551Y030044D02*
X016799Y030044D01*
X016897Y030142D02*
X018551Y030142D01*
X018551Y030241D02*
X016996Y030241D01*
X017094Y030339D02*
X018551Y030339D01*
X018899Y030317D02*
X018899Y030285D01*
X018989Y030195D01*
X018989Y030495D01*
X018789Y030695D01*
X017083Y030695D01*
X015283Y028895D01*
X015283Y026692D01*
X013387Y026921D02*
X013387Y028446D01*
X014088Y028862D02*
X006622Y028862D01*
X006707Y028960D02*
X014088Y028960D01*
X014088Y029059D02*
X006748Y029059D01*
X006754Y029157D02*
X014088Y029157D01*
X014088Y029256D02*
X010855Y029256D01*
X010830Y029232D02*
X010929Y029330D01*
X010983Y029459D01*
X010983Y029599D01*
X010929Y029728D01*
X010891Y029766D01*
X010891Y030368D01*
X010852Y030464D01*
X010779Y030537D01*
X010498Y030818D01*
X010498Y031638D01*
X010547Y031589D01*
X010681Y031533D01*
X010827Y031533D01*
X010961Y031589D01*
X011063Y031692D01*
X011119Y031826D01*
X011119Y031896D01*
X011858Y032635D01*
X012733Y032635D01*
X012782Y032586D01*
X012916Y032530D01*
X013062Y032530D01*
X013196Y032586D01*
X013298Y032689D01*
X013354Y032823D01*
X013354Y032968D01*
X013298Y033102D01*
X013196Y033205D01*
X013062Y033260D01*
X012916Y033260D01*
X012782Y033205D01*
X012733Y033155D01*
X011699Y033155D01*
X011604Y033116D01*
X010751Y032263D01*
X010681Y032263D01*
X010547Y032208D01*
X010482Y032143D01*
X010437Y032189D01*
X010308Y032242D01*
X010168Y032242D01*
X010039Y032189D01*
X009940Y032090D01*
X009887Y031961D01*
X009887Y031822D01*
X009940Y031692D01*
X009978Y031655D01*
X009978Y030659D01*
X010017Y030563D01*
X010371Y030209D01*
X010371Y029766D01*
X010334Y029728D01*
X010280Y029599D01*
X010280Y029459D01*
X010334Y029330D01*
X010433Y029232D01*
X010562Y029178D01*
X010701Y029178D01*
X010830Y029232D01*
X010939Y029354D02*
X014088Y029354D01*
X014126Y029453D02*
X010980Y029453D01*
X010983Y029551D02*
X014223Y029551D01*
X014322Y029650D02*
X010961Y029650D01*
X010909Y029748D02*
X014420Y029748D01*
X014519Y029847D02*
X010891Y029847D01*
X010891Y029945D02*
X014617Y029945D01*
X014716Y030044D02*
X010891Y030044D01*
X010891Y030142D02*
X014814Y030142D01*
X014913Y030241D02*
X010891Y030241D01*
X010891Y030339D02*
X015011Y030339D01*
X015110Y030438D02*
X014418Y030438D01*
X014381Y030401D02*
X014484Y030504D01*
X014540Y030638D01*
X014540Y030783D01*
X014484Y030917D01*
X014435Y030966D01*
X014435Y031635D01*
X014484Y031685D01*
X014540Y031819D01*
X014540Y031964D01*
X014484Y032098D01*
X014381Y032201D01*
X014247Y032256D01*
X014102Y032256D01*
X013978Y032205D01*
X013854Y032256D01*
X013709Y032256D01*
X013584Y032205D01*
X013460Y032256D01*
X013315Y032256D01*
X013191Y032205D01*
X013066Y032256D01*
X012921Y032256D01*
X012787Y032201D01*
X012684Y032098D01*
X012629Y031964D01*
X012629Y031819D01*
X012684Y031685D01*
X012734Y031635D01*
X012734Y030966D01*
X012684Y030917D01*
X012629Y030783D01*
X012629Y030638D01*
X012684Y030504D01*
X012787Y030401D01*
X012921Y030345D01*
X013066Y030345D01*
X013191Y030397D01*
X013315Y030345D01*
X013460Y030345D01*
X013584Y030397D01*
X013709Y030345D01*
X013854Y030345D01*
X013978Y030397D01*
X014102Y030345D01*
X014247Y030345D01*
X014381Y030401D01*
X014498Y030536D02*
X015208Y030536D01*
X015307Y030635D02*
X014538Y030635D01*
X014540Y030733D02*
X015405Y030733D01*
X015504Y030832D02*
X014519Y030832D01*
X014471Y030930D02*
X015602Y030930D01*
X015701Y031029D02*
X014435Y031029D01*
X014435Y031127D02*
X015799Y031127D01*
X015883Y031226D02*
X014435Y031226D01*
X014435Y031324D02*
X015883Y031324D01*
X015883Y031423D02*
X014435Y031423D01*
X014435Y031521D02*
X015883Y031521D01*
X015883Y031620D02*
X014435Y031620D01*
X014498Y031718D02*
X015883Y031718D01*
X015883Y031817D02*
X014539Y031817D01*
X014540Y031915D02*
X015883Y031915D01*
X015883Y032014D02*
X014519Y032014D01*
X014470Y032112D02*
X015883Y032112D01*
X015883Y032211D02*
X014357Y032211D01*
X013993Y032211D02*
X013963Y032211D01*
X013599Y032211D02*
X013569Y032211D01*
X013206Y032211D02*
X013176Y032211D01*
X012812Y032211D02*
X011434Y032211D01*
X011533Y032309D02*
X015883Y032309D01*
X015913Y032408D02*
X011631Y032408D01*
X011730Y032506D02*
X015997Y032506D01*
X016095Y032605D02*
X013215Y032605D01*
X013305Y032703D02*
X016194Y032703D01*
X016292Y032802D02*
X013345Y032802D01*
X013354Y032900D02*
X016393Y032900D01*
X016537Y032679D02*
X017718Y032679D01*
X018112Y033072D01*
X018112Y033466D01*
X018112Y034254D01*
X018506Y034647D01*
X018801Y034844D02*
X018801Y035895D01*
X018899Y035797D01*
X019248Y035757D02*
X019338Y035757D01*
X019338Y035855D02*
X019248Y035855D01*
X019248Y035954D02*
X019338Y035954D01*
X019338Y036052D02*
X019248Y036052D01*
X019248Y036151D02*
X019338Y036151D01*
X019349Y036249D02*
X019237Y036249D01*
X019196Y036348D02*
X019390Y036348D01*
X019466Y036446D02*
X019120Y036446D01*
X018975Y036545D02*
X019611Y036545D01*
X019959Y036545D02*
X022074Y036545D01*
X022074Y036493D02*
X022113Y036400D01*
X022113Y036051D01*
X022016Y035955D01*
X022016Y035505D01*
X022139Y035382D01*
X022746Y035382D01*
X022869Y035505D01*
X022869Y035955D01*
X022773Y036051D01*
X022773Y036400D01*
X022811Y036493D01*
X022811Y036640D01*
X022755Y036775D01*
X022651Y036879D01*
X022516Y036935D01*
X022369Y036935D01*
X022234Y036879D01*
X022130Y036775D01*
X022074Y036640D01*
X022074Y036493D01*
X022093Y036446D02*
X020104Y036446D01*
X020180Y036348D02*
X022113Y036348D01*
X022113Y036249D02*
X020221Y036249D01*
X020233Y036151D02*
X022113Y036151D01*
X022113Y036052D02*
X020233Y036052D01*
X020233Y035954D02*
X022016Y035954D01*
X022016Y035855D02*
X020233Y035855D01*
X020233Y035757D02*
X022016Y035757D01*
X022016Y035658D02*
X020233Y035658D01*
X020229Y035560D02*
X022016Y035560D01*
X022060Y035461D02*
X020188Y035461D01*
X020123Y035363D02*
X023748Y035363D01*
X023748Y035461D02*
X022825Y035461D01*
X022869Y035560D02*
X023748Y035560D01*
X023748Y035658D02*
X022869Y035658D01*
X022869Y035757D02*
X023748Y035757D01*
X023748Y035855D02*
X022869Y035855D01*
X022869Y035954D02*
X023748Y035954D01*
X023807Y036052D02*
X022773Y036052D01*
X022773Y036151D02*
X024081Y036151D01*
X024081Y036249D02*
X022773Y036249D01*
X022773Y036348D02*
X024081Y036348D01*
X024062Y036446D02*
X022792Y036446D01*
X022811Y036545D02*
X024042Y036545D01*
X024044Y036643D02*
X022810Y036643D01*
X022769Y036742D02*
X024085Y036742D01*
X024163Y036840D02*
X022690Y036840D01*
X022195Y036840D02*
X010294Y036840D01*
X010294Y036742D02*
X012318Y036742D01*
X012334Y036758D02*
X012214Y036638D01*
X012149Y036480D01*
X012149Y036310D01*
X012214Y036153D01*
X012278Y036088D01*
X011281Y036088D01*
X011232Y036138D01*
X011098Y036193D01*
X010953Y036193D01*
X010819Y036138D01*
X010716Y036035D01*
X010660Y035901D01*
X010660Y035756D01*
X010716Y035622D01*
X010819Y035519D01*
X010953Y035464D01*
X011098Y035464D01*
X011232Y035519D01*
X011281Y035568D01*
X014746Y035568D01*
X014845Y035469D01*
X015044Y035387D01*
X015259Y035387D01*
X015457Y035469D01*
X015609Y035621D01*
X015691Y035819D01*
X015691Y036034D01*
X015609Y036233D01*
X015457Y036385D01*
X015259Y036467D01*
X015044Y036467D01*
X014845Y036385D01*
X014693Y036233D01*
X014634Y036088D01*
X014374Y036088D01*
X014439Y036153D01*
X014504Y036310D01*
X014504Y036480D01*
X014439Y036638D01*
X014319Y036758D01*
X014161Y036823D01*
X013991Y036823D01*
X013834Y036758D01*
X013826Y036750D01*
X013819Y036758D01*
X013661Y036823D01*
X013491Y036823D01*
X013334Y036758D01*
X013326Y036750D01*
X013319Y036758D01*
X013161Y036823D01*
X012991Y036823D01*
X012834Y036758D01*
X012826Y036750D01*
X012819Y036758D01*
X012661Y036823D01*
X012491Y036823D01*
X012334Y036758D01*
X012219Y036643D02*
X010294Y036643D01*
X010294Y036545D02*
X012175Y036545D01*
X012149Y036446D02*
X010294Y036446D01*
X010294Y036348D02*
X012149Y036348D01*
X012174Y036249D02*
X010294Y036249D01*
X010294Y036151D02*
X010851Y036151D01*
X010733Y036052D02*
X010294Y036052D01*
X010294Y035954D02*
X010682Y035954D01*
X010660Y035855D02*
X010294Y035855D01*
X010294Y035757D02*
X010660Y035757D01*
X010701Y035658D02*
X010294Y035658D01*
X010271Y035560D02*
X010778Y035560D01*
X011025Y035828D02*
X011419Y035828D01*
X014175Y035828D01*
X014962Y035828D01*
X015061Y035927D01*
X015151Y035927D01*
X014660Y036151D02*
X014437Y036151D01*
X014479Y036249D02*
X014710Y036249D01*
X014809Y036348D02*
X014504Y036348D01*
X014504Y036446D02*
X014995Y036446D01*
X015308Y036446D02*
X017497Y036446D01*
X017437Y036386D02*
X017563Y036512D01*
X017728Y036580D01*
X017906Y036580D01*
X018070Y036512D01*
X018196Y036386D01*
X018264Y036222D01*
X018264Y035569D01*
X018196Y035404D01*
X018070Y035278D01*
X017906Y035210D01*
X017728Y035210D01*
X017563Y035278D01*
X017437Y035404D01*
X017369Y035569D01*
X017369Y036222D01*
X017437Y036386D01*
X017421Y036348D02*
X015494Y036348D01*
X015592Y036249D02*
X017380Y036249D01*
X017369Y036151D02*
X015643Y036151D01*
X015684Y036052D02*
X017369Y036052D01*
X017369Y035954D02*
X015691Y035954D01*
X015691Y035855D02*
X017369Y035855D01*
X017369Y035757D02*
X015665Y035757D01*
X015624Y035658D02*
X017369Y035658D01*
X017373Y035560D02*
X015548Y035560D01*
X015439Y035461D02*
X017414Y035461D01*
X017479Y035363D02*
X010207Y035363D01*
X010239Y035461D02*
X014864Y035461D01*
X014754Y035560D02*
X011273Y035560D01*
X011200Y036151D02*
X012216Y036151D01*
X012161Y034823D02*
X011991Y034823D01*
X011834Y034758D01*
X011714Y034638D01*
X011649Y034480D01*
X011649Y034310D01*
X011714Y034153D01*
X011834Y034033D01*
X011991Y033967D01*
X012161Y033967D01*
X012319Y034033D01*
X012326Y034040D01*
X012334Y034033D01*
X012491Y033967D01*
X012661Y033967D01*
X012819Y034033D01*
X012826Y034040D01*
X012834Y034033D01*
X012991Y033967D01*
X013161Y033967D01*
X013319Y034033D01*
X013326Y034040D01*
X013334Y034033D01*
X013491Y033967D01*
X013661Y033967D01*
X013819Y034033D01*
X013826Y034040D01*
X013834Y034033D01*
X013991Y033967D01*
X014161Y033967D01*
X014319Y034033D01*
X014439Y034153D01*
X014504Y034310D01*
X014504Y034480D01*
X014439Y034638D01*
X014319Y034758D01*
X014161Y034823D01*
X013991Y034823D01*
X013834Y034758D01*
X013826Y034750D01*
X013819Y034758D01*
X013661Y034823D01*
X013491Y034823D01*
X013334Y034758D01*
X013326Y034750D01*
X013319Y034758D01*
X013161Y034823D01*
X012991Y034823D01*
X012834Y034758D01*
X012826Y034750D01*
X012819Y034758D01*
X012661Y034823D01*
X012491Y034823D01*
X012334Y034758D01*
X012326Y034750D01*
X012319Y034758D01*
X012161Y034823D01*
X012285Y034772D02*
X012368Y034772D01*
X012785Y034772D02*
X012868Y034772D01*
X013285Y034772D02*
X013368Y034772D01*
X013785Y034772D02*
X013868Y034772D01*
X014285Y034772D02*
X018162Y034772D01*
X018141Y034673D02*
X014403Y034673D01*
X014465Y034575D02*
X018065Y034575D01*
X017967Y034476D02*
X014504Y034476D01*
X014504Y034378D02*
X017882Y034378D01*
X017852Y034279D02*
X014491Y034279D01*
X014451Y034181D02*
X017852Y034181D01*
X017852Y034082D02*
X014368Y034082D01*
X014201Y033984D02*
X017852Y033984D01*
X017852Y033885D02*
X005982Y033885D01*
X005982Y033787D02*
X017852Y033787D01*
X017852Y033688D02*
X005982Y033688D01*
X005982Y033590D02*
X017852Y033590D01*
X017852Y033491D02*
X005982Y033491D01*
X005982Y033393D02*
X017852Y033393D01*
X017852Y033294D02*
X005982Y033294D01*
X005982Y033196D02*
X012773Y033196D01*
X012989Y032895D02*
X011751Y032895D01*
X010754Y031898D01*
X010992Y031620D02*
X012734Y031620D01*
X012734Y031521D02*
X010498Y031521D01*
X010498Y031423D02*
X012734Y031423D01*
X012734Y031324D02*
X010498Y031324D01*
X010498Y031226D02*
X012734Y031226D01*
X012734Y031127D02*
X010498Y031127D01*
X010498Y031029D02*
X012734Y031029D01*
X012698Y030930D02*
X010498Y030930D01*
X010498Y030832D02*
X012649Y030832D01*
X012629Y030733D02*
X010582Y030733D01*
X010681Y030635D02*
X012630Y030635D01*
X012671Y030536D02*
X010779Y030536D01*
X010863Y030438D02*
X012750Y030438D01*
X012994Y030710D02*
X012994Y031891D01*
X012650Y032014D02*
X011237Y032014D01*
X011336Y032112D02*
X012699Y032112D01*
X012629Y031915D02*
X011139Y031915D01*
X011115Y031817D02*
X012630Y031817D01*
X012670Y031718D02*
X011074Y031718D01*
X010516Y031620D02*
X010498Y031620D01*
X010238Y031891D02*
X010238Y030710D01*
X010631Y030317D01*
X010631Y029529D01*
X010302Y029650D02*
X001239Y029650D01*
X001239Y029748D02*
X010354Y029748D01*
X010371Y029847D02*
X001239Y029847D01*
X001239Y029945D02*
X010371Y029945D01*
X010371Y030044D02*
X001239Y030044D01*
X001239Y030142D02*
X010371Y030142D01*
X010339Y030241D02*
X001239Y030241D01*
X001239Y030339D02*
X010241Y030339D01*
X010142Y030438D02*
X001239Y030438D01*
X001239Y030536D02*
X010044Y030536D01*
X009988Y030635D02*
X001239Y030635D01*
X001239Y030733D02*
X009978Y030733D01*
X009978Y030832D02*
X001239Y030832D01*
X001239Y030930D02*
X009978Y030930D01*
X009978Y031029D02*
X001239Y031029D01*
X001239Y031127D02*
X009978Y031127D01*
X009978Y031226D02*
X001239Y031226D01*
X001239Y031324D02*
X009978Y031324D01*
X009978Y031423D02*
X001239Y031423D01*
X001239Y031521D02*
X009978Y031521D01*
X009978Y031620D02*
X001239Y031620D01*
X001239Y031718D02*
X009930Y031718D01*
X009889Y031817D02*
X001239Y031817D01*
X001239Y031915D02*
X009887Y031915D01*
X009909Y032014D02*
X001239Y032014D01*
X001239Y032112D02*
X009962Y032112D01*
X010092Y032211D02*
X005939Y032211D01*
X005982Y032309D02*
X010797Y032309D01*
X010896Y032408D02*
X005982Y032408D01*
X005982Y032506D02*
X010994Y032506D01*
X011093Y032605D02*
X005982Y032605D01*
X005982Y032703D02*
X011191Y032703D01*
X011290Y032802D02*
X005982Y032802D01*
X005982Y032900D02*
X011388Y032900D01*
X011487Y032999D02*
X005982Y032999D01*
X005982Y033097D02*
X011585Y033097D01*
X011828Y032605D02*
X012763Y032605D01*
X013341Y032999D02*
X017671Y032999D01*
X017769Y033097D02*
X013300Y033097D01*
X013205Y033196D02*
X017852Y033196D01*
X018209Y032802D02*
X018806Y032802D01*
X018832Y032776D02*
X019262Y032776D01*
X019297Y032811D01*
X019332Y032776D01*
X019762Y032776D01*
X019797Y032811D01*
X019832Y032776D01*
X020262Y032776D01*
X020385Y032899D01*
X020385Y032993D01*
X020984Y032993D01*
X021001Y033011D01*
X021001Y032147D01*
X020952Y032098D01*
X020897Y031964D01*
X020897Y031819D01*
X020952Y031685D01*
X021055Y031582D01*
X021189Y031527D01*
X021316Y031527D01*
X020760Y030970D01*
X020385Y030970D01*
X020385Y031892D01*
X020307Y031970D01*
X020307Y031977D01*
X020267Y032072D01*
X019907Y032432D01*
X019834Y032505D01*
X019738Y032545D01*
X017967Y032545D01*
X017967Y032560D01*
X018259Y032852D01*
X018332Y032925D01*
X018372Y033021D01*
X018372Y034146D01*
X018508Y034282D01*
X018578Y034282D01*
X018672Y034321D01*
X018738Y034256D01*
X018738Y033968D01*
X018709Y033939D01*
X018709Y032899D01*
X018832Y032776D01*
X018709Y032900D02*
X018307Y032900D01*
X018363Y032999D02*
X018709Y032999D01*
X018709Y033097D02*
X018372Y033097D01*
X018372Y033196D02*
X018709Y033196D01*
X018709Y033294D02*
X018372Y033294D01*
X018372Y033393D02*
X018709Y033393D01*
X018709Y033491D02*
X018372Y033491D01*
X018372Y033590D02*
X018709Y033590D01*
X018709Y033688D02*
X018372Y033688D01*
X018372Y033787D02*
X018709Y033787D01*
X018709Y033885D02*
X018372Y033885D01*
X018372Y033984D02*
X018738Y033984D01*
X018738Y034082D02*
X018372Y034082D01*
X018407Y034181D02*
X018738Y034181D01*
X018714Y034279D02*
X018505Y034279D01*
X018998Y034647D02*
X018801Y034844D01*
X018998Y034647D02*
X018998Y033468D01*
X019047Y033419D01*
X019547Y033419D02*
X019588Y033460D01*
X019588Y034647D01*
X019785Y034844D01*
X019785Y035895D01*
X019687Y035797D01*
X019338Y035658D02*
X019248Y035658D01*
X019245Y035560D02*
X019341Y035560D01*
X019382Y035461D02*
X019204Y035461D01*
X019139Y035363D02*
X019447Y035363D01*
X019525Y035264D02*
X019061Y035264D01*
X019061Y035166D02*
X019525Y035166D01*
X019357Y035067D02*
X019229Y035067D01*
X018541Y035067D02*
X010033Y035067D01*
X009962Y034969D02*
X018329Y034969D01*
X018213Y034870D02*
X009843Y034870D01*
X009708Y034772D02*
X011868Y034772D01*
X011749Y034673D02*
X009506Y034673D01*
X010105Y035166D02*
X018541Y035166D01*
X018541Y035264D02*
X018036Y035264D01*
X018154Y035363D02*
X018463Y035363D01*
X018398Y035461D02*
X018220Y035461D01*
X018260Y035560D02*
X018357Y035560D01*
X018353Y035658D02*
X018264Y035658D01*
X018264Y035757D02*
X018353Y035757D01*
X018353Y035855D02*
X018264Y035855D01*
X018264Y035954D02*
X018353Y035954D01*
X018353Y036052D02*
X018264Y036052D01*
X018264Y036151D02*
X018353Y036151D01*
X018365Y036249D02*
X018253Y036249D01*
X018212Y036348D02*
X018406Y036348D01*
X018482Y036446D02*
X018136Y036446D01*
X017991Y036545D02*
X018626Y036545D01*
X017642Y036545D02*
X014477Y036545D01*
X014433Y036643D02*
X022075Y036643D01*
X022116Y036742D02*
X014335Y036742D01*
X011784Y034082D02*
X005982Y034082D01*
X005982Y033984D02*
X011952Y033984D01*
X012201Y033984D02*
X012452Y033984D01*
X012701Y033984D02*
X012952Y033984D01*
X013201Y033984D02*
X013452Y033984D01*
X013701Y033984D02*
X013952Y033984D01*
X013781Y031891D02*
X013781Y030710D01*
X013387Y030710D02*
X013387Y031891D01*
X014175Y031891D02*
X014175Y030710D01*
X014348Y029309D02*
X016143Y031104D01*
X016143Y031891D01*
X016143Y032285D01*
X016537Y032679D01*
X016783Y032236D02*
X016980Y032236D01*
X017029Y032285D01*
X016783Y032236D02*
X016537Y031990D01*
X016537Y031055D01*
X014716Y029234D01*
X014716Y023820D01*
X015011Y023722D02*
X015011Y029086D01*
X017029Y031104D01*
X017029Y031498D01*
X017620Y031498D02*
X017746Y031372D01*
X018547Y031372D01*
X019047Y031372D02*
X019047Y030464D01*
X018899Y030317D01*
X019249Y030241D02*
X019339Y030241D01*
X019339Y030142D02*
X019248Y030142D01*
X019247Y030044D02*
X019339Y030044D01*
X019406Y029945D02*
X019179Y029945D01*
X019277Y030339D02*
X019314Y030339D01*
X019547Y030456D02*
X019687Y030317D01*
X020080Y030710D01*
X020868Y030710D01*
X021655Y031498D01*
X021655Y033860D01*
X021312Y033984D02*
X020340Y033984D01*
X020385Y033885D02*
X021290Y033885D01*
X021290Y033787D02*
X020385Y033787D01*
X020080Y033466D02*
X020047Y033433D01*
X020047Y033419D01*
X020080Y033466D02*
X020206Y033341D01*
X020680Y033341D01*
X020671Y033331D01*
X020671Y033319D01*
X021065Y033319D01*
X021261Y033122D01*
X021261Y031891D01*
X021017Y031620D02*
X020385Y031620D01*
X020385Y031718D02*
X020938Y031718D01*
X020897Y031817D02*
X020385Y031817D01*
X020361Y031915D02*
X020897Y031915D01*
X020917Y032014D02*
X020291Y032014D01*
X020227Y032112D02*
X020967Y032112D01*
X021001Y032211D02*
X020128Y032211D01*
X020030Y032309D02*
X021001Y032309D01*
X021001Y032408D02*
X019931Y032408D01*
X019832Y032506D02*
X021001Y032506D01*
X021001Y032605D02*
X018012Y032605D01*
X018110Y032703D02*
X021001Y032703D01*
X021001Y032802D02*
X020288Y032802D01*
X020385Y032900D02*
X021001Y032900D01*
X020990Y032999D02*
X021001Y032999D01*
X021358Y033393D02*
X021395Y033393D01*
X021395Y033491D02*
X021259Y033491D01*
X021395Y033590D02*
X021083Y033590D01*
X020984Y033688D02*
X021331Y033688D01*
X021915Y033590D02*
X026354Y033590D01*
X026354Y033688D02*
X021979Y033688D01*
X022020Y033787D02*
X026354Y033787D01*
X026354Y033885D02*
X022020Y033885D01*
X021999Y033984D02*
X026354Y033984D01*
X026354Y034082D02*
X021949Y034082D01*
X021833Y034181D02*
X026354Y034181D01*
X026354Y034279D02*
X019872Y034279D01*
X019848Y034181D02*
X021477Y034181D01*
X021362Y034082D02*
X019848Y034082D01*
X020257Y034969D02*
X023184Y034969D01*
X023282Y035067D02*
X020045Y035067D01*
X020045Y035166D02*
X023381Y035166D01*
X023484Y035264D02*
X020045Y035264D01*
X021915Y033491D02*
X026354Y033491D01*
X026354Y033393D02*
X021915Y033393D01*
X021915Y033294D02*
X026354Y033294D01*
X026354Y033196D02*
X021915Y033196D01*
X021915Y033097D02*
X026354Y033097D01*
X026354Y032999D02*
X021915Y032999D01*
X021915Y032900D02*
X026354Y032900D01*
X026354Y032802D02*
X021915Y032802D01*
X021915Y032703D02*
X026354Y032703D01*
X026354Y032605D02*
X021915Y032605D01*
X021915Y032506D02*
X026354Y032506D01*
X026354Y032408D02*
X021915Y032408D01*
X021915Y032309D02*
X026354Y032309D01*
X026354Y032211D02*
X021915Y032211D01*
X021915Y032112D02*
X026354Y032112D01*
X026354Y032014D02*
X021915Y032014D01*
X021915Y031915D02*
X026354Y031915D01*
X026354Y031817D02*
X021915Y031817D01*
X021915Y031718D02*
X026354Y031718D01*
X026354Y031620D02*
X021915Y031620D01*
X021915Y031521D02*
X026336Y031521D01*
X026343Y031539D02*
X026281Y031389D01*
X026281Y031227D01*
X026343Y031077D01*
X026458Y030962D01*
X026608Y030900D01*
X026770Y030900D01*
X026920Y030962D01*
X027035Y031077D01*
X027097Y031227D01*
X027097Y031389D01*
X027035Y031539D01*
X027024Y031550D01*
X027024Y035062D01*
X026973Y035185D01*
X026824Y035334D01*
X026824Y035736D01*
X027195Y035736D01*
X027318Y035859D01*
X027318Y036585D01*
X027195Y036708D01*
X026706Y036708D01*
X026583Y036585D01*
X026583Y036552D01*
X026581Y036552D01*
X026562Y036560D01*
X026416Y036560D01*
X026397Y036552D01*
X026314Y036552D01*
X026193Y036502D01*
X026100Y036409D01*
X026050Y036288D01*
X026050Y036130D01*
X026100Y036008D01*
X026154Y035954D01*
X025074Y035954D01*
X025074Y035855D02*
X026154Y035855D01*
X026154Y035757D02*
X025074Y035757D01*
X025074Y035658D02*
X026154Y035658D01*
X026154Y035560D02*
X025074Y035560D01*
X025074Y035461D02*
X026154Y035461D01*
X026154Y035363D02*
X025074Y035363D01*
X024990Y035264D02*
X026154Y035264D01*
X026154Y035166D02*
X025048Y035166D01*
X024970Y035244D02*
X025201Y035012D01*
X025271Y035012D01*
X025405Y034957D01*
X025508Y034854D01*
X025563Y034720D01*
X025563Y034575D01*
X026354Y034575D01*
X026354Y034673D02*
X025563Y034673D01*
X025563Y034575D02*
X025508Y034441D01*
X025405Y034338D01*
X025271Y034282D01*
X025126Y034282D01*
X024992Y034338D01*
X024889Y034441D01*
X025445Y034378D02*
X026354Y034378D01*
X026354Y034476D02*
X025523Y034476D01*
X025542Y034772D02*
X026354Y034772D01*
X026354Y034857D02*
X026354Y031550D01*
X026343Y031539D01*
X026295Y031423D02*
X021906Y031423D01*
X021850Y031324D02*
X026281Y031324D01*
X026281Y031226D02*
X021751Y031226D01*
X021653Y031127D02*
X026322Y031127D01*
X026391Y031029D02*
X021554Y031029D01*
X021456Y030930D02*
X026534Y030930D01*
X026844Y030930D02*
X030818Y030930D01*
X030818Y030832D02*
X021357Y030832D01*
X021259Y030733D02*
X030857Y030733D01*
X030933Y030635D02*
X021160Y030635D01*
X021062Y030536D02*
X033258Y030536D01*
X033244Y030438D02*
X021015Y030438D01*
X021036Y030339D02*
X033244Y030339D01*
X033267Y030241D02*
X021034Y030241D01*
X020994Y030142D02*
X033308Y030142D01*
X033388Y030044D02*
X020914Y030044D01*
X020671Y030317D02*
X020277Y030317D01*
X019997Y029945D02*
X019967Y029945D01*
X020557Y029945D02*
X033517Y029945D01*
X033502Y029847D02*
X031307Y029847D01*
X031328Y029157D02*
X033302Y029157D01*
X034254Y030525D02*
X034186Y030688D01*
X034042Y030832D01*
X034465Y030832D01*
X034321Y030688D01*
X034254Y030525D01*
X034258Y030536D02*
X034249Y030536D01*
X034208Y030635D02*
X034299Y030635D01*
X034366Y030733D02*
X034141Y030733D01*
X034042Y030832D02*
X033855Y030909D01*
X033652Y030909D01*
X033465Y030832D01*
X033366Y030733D02*
X031508Y030733D01*
X031432Y030635D02*
X033299Y030635D01*
X034465Y030832D02*
X034652Y030909D01*
X034855Y030909D01*
X035042Y030832D01*
X035141Y030733D02*
X037347Y030733D01*
X037347Y030635D02*
X035208Y030635D01*
X035249Y030536D02*
X037347Y030536D01*
X037347Y030438D02*
X035264Y030438D01*
X035264Y030339D02*
X037347Y030339D01*
X037347Y030241D02*
X035240Y030241D01*
X035199Y030142D02*
X037347Y030142D01*
X037347Y030044D02*
X035119Y030044D01*
X034991Y029945D02*
X037347Y029945D01*
X037347Y029847D02*
X035006Y029847D01*
X035126Y029748D02*
X037347Y029748D01*
X037347Y029650D02*
X035202Y029650D01*
X035243Y029551D02*
X037347Y029551D01*
X037347Y029453D02*
X035264Y029453D01*
X035264Y029354D02*
X037347Y029354D01*
X037347Y029256D02*
X035246Y029256D01*
X035205Y029157D02*
X037347Y029157D01*
X037347Y029059D02*
X035134Y029059D01*
X035027Y028960D02*
X037347Y028960D01*
X037347Y028862D02*
X034969Y028862D01*
X035111Y028763D02*
X037347Y028763D01*
X037347Y028665D02*
X035196Y028665D01*
X035236Y028566D02*
X037347Y028566D01*
X037347Y028468D02*
X035264Y028468D01*
X035264Y028369D02*
X037347Y028369D01*
X037347Y028271D02*
X035252Y028271D01*
X035212Y028172D02*
X037347Y028172D01*
X037347Y028074D02*
X035149Y028074D01*
X035051Y027975D02*
X037347Y027975D01*
X037347Y027877D02*
X034933Y027877D01*
X035096Y027778D02*
X037347Y027778D01*
X037347Y027680D02*
X035189Y027680D01*
X035230Y027581D02*
X037347Y027581D01*
X037347Y027483D02*
X035264Y027483D01*
X037347Y031029D02*
X031763Y031029D01*
X031887Y031127D02*
X037347Y031127D01*
X037347Y031226D02*
X032012Y031226D01*
X032137Y031324D02*
X037347Y031324D01*
X037347Y031423D02*
X032261Y031423D01*
X032386Y031521D02*
X037347Y031521D01*
X037347Y031620D02*
X032510Y031620D01*
X032635Y031718D02*
X037347Y031718D01*
X037347Y031817D02*
X032927Y031817D01*
X033010Y031915D02*
X037347Y031915D01*
X037347Y032014D02*
X033050Y032014D01*
X033054Y032112D02*
X037347Y032112D01*
X037347Y032211D02*
X035860Y032211D01*
X035903Y032309D02*
X037347Y032309D01*
X037347Y032408D02*
X035903Y032408D01*
X035903Y032506D02*
X037347Y032506D01*
X037347Y032605D02*
X035903Y032605D01*
X035903Y032703D02*
X037347Y032703D01*
X037347Y032802D02*
X035903Y032802D01*
X035903Y032900D02*
X037347Y032900D01*
X037347Y032999D02*
X035903Y032999D01*
X035903Y033097D02*
X037347Y033097D01*
X037347Y033196D02*
X035903Y033196D01*
X035903Y033294D02*
X037347Y033294D01*
X037347Y033393D02*
X035903Y033393D01*
X035903Y033491D02*
X037347Y033491D01*
X037347Y033590D02*
X035903Y033590D01*
X035903Y033688D02*
X037347Y033688D01*
X037347Y033787D02*
X035903Y033787D01*
X035903Y033885D02*
X037347Y033885D01*
X037347Y033984D02*
X035903Y033984D01*
X035903Y034082D02*
X037347Y034082D01*
X037347Y034181D02*
X035903Y034181D01*
X035903Y034279D02*
X037347Y034279D01*
X037347Y034378D02*
X035903Y034378D01*
X035903Y034476D02*
X037347Y034476D01*
X037347Y034575D02*
X035903Y034575D01*
X035903Y034673D02*
X037347Y034673D01*
X037347Y034772D02*
X035903Y034772D01*
X035903Y034870D02*
X037347Y034870D01*
X037347Y034969D02*
X035903Y034969D01*
X035903Y035067D02*
X037347Y035067D01*
X037347Y035166D02*
X035903Y035166D01*
X035903Y035264D02*
X037347Y035264D01*
X037347Y035363D02*
X035903Y035363D01*
X035903Y035461D02*
X037347Y035461D01*
X037347Y035560D02*
X026824Y035560D01*
X026824Y035658D02*
X037347Y035658D01*
X037347Y035757D02*
X027215Y035757D01*
X027314Y035855D02*
X037347Y035855D01*
X037347Y035954D02*
X027318Y035954D01*
X027318Y036052D02*
X037347Y036052D01*
X037347Y036151D02*
X027318Y036151D01*
X027318Y036249D02*
X037345Y036249D01*
X037332Y036348D02*
X027318Y036348D01*
X027318Y036446D02*
X037306Y036446D01*
X037266Y036545D02*
X027318Y036545D01*
X027259Y036643D02*
X037209Y036643D01*
X037121Y036742D02*
X024738Y036742D01*
X024778Y036643D02*
X026642Y036643D01*
X026297Y036545D02*
X024780Y036545D01*
X024760Y036446D02*
X026137Y036446D01*
X026074Y036348D02*
X024741Y036348D01*
X024741Y036249D02*
X026050Y036249D01*
X026050Y036151D02*
X024741Y036151D01*
X025015Y036052D02*
X026082Y036052D01*
X026154Y035954D02*
X026154Y035129D01*
X026205Y035006D01*
X026354Y034857D01*
X026340Y034870D02*
X025491Y034870D01*
X025375Y034969D02*
X026242Y034969D01*
X026179Y035067D02*
X025146Y035067D01*
X026824Y035363D02*
X032604Y035363D01*
X032604Y035461D02*
X026824Y035461D01*
X026894Y035264D02*
X032604Y035264D01*
X032604Y035166D02*
X026981Y035166D01*
X027022Y035067D02*
X032604Y035067D01*
X032604Y034969D02*
X027024Y034969D01*
X027024Y034870D02*
X032604Y034870D01*
X032604Y034772D02*
X027024Y034772D01*
X027024Y034673D02*
X032604Y034673D01*
X032604Y034575D02*
X027024Y034575D01*
X027024Y034476D02*
X032604Y034476D01*
X032604Y034378D02*
X027024Y034378D01*
X027024Y034279D02*
X032604Y034279D01*
X032604Y034181D02*
X027024Y034181D01*
X027024Y034082D02*
X032604Y034082D01*
X032604Y033984D02*
X027024Y033984D01*
X027024Y033885D02*
X032604Y033885D01*
X032604Y033787D02*
X027024Y033787D01*
X027024Y033688D02*
X032604Y033688D01*
X032604Y033590D02*
X027024Y033590D01*
X027024Y033491D02*
X032604Y033491D01*
X032604Y033393D02*
X027024Y033393D01*
X027024Y033294D02*
X032604Y033294D01*
X032604Y033196D02*
X027024Y033196D01*
X027024Y033097D02*
X032604Y033097D01*
X032604Y032999D02*
X027024Y032999D01*
X027024Y032900D02*
X032604Y032900D01*
X032604Y032802D02*
X027024Y032802D01*
X027024Y032703D02*
X032604Y032703D01*
X032604Y032605D02*
X027024Y032605D01*
X027024Y032506D02*
X032604Y032506D01*
X032490Y032408D02*
X027024Y032408D01*
X027024Y032309D02*
X032387Y032309D01*
X032342Y032211D02*
X027024Y032211D01*
X027024Y032112D02*
X032295Y032112D01*
X032170Y032014D02*
X027024Y032014D01*
X027024Y031915D02*
X032046Y031915D01*
X031921Y031817D02*
X027024Y031817D01*
X027024Y031718D02*
X031796Y031718D01*
X031672Y031620D02*
X027024Y031620D01*
X027042Y031521D02*
X031547Y031521D01*
X031423Y031423D02*
X027083Y031423D01*
X027097Y031324D02*
X031298Y031324D01*
X031012Y031226D02*
X027097Y031226D01*
X027056Y031127D02*
X030892Y031127D01*
X030840Y031029D02*
X026987Y031029D01*
X024716Y029157D02*
X024194Y029157D01*
X024292Y029059D02*
X024571Y029059D01*
X024472Y028960D02*
X024391Y028960D01*
X023138Y029256D02*
X022427Y029256D01*
X023100Y029354D02*
X016109Y029354D01*
X016011Y029256D02*
X020360Y029256D01*
X020241Y029157D02*
X015912Y029157D01*
X015814Y029059D02*
X020142Y029059D01*
X019547Y030456D02*
X019547Y031372D01*
X020047Y031372D02*
X020047Y031925D01*
X019687Y032285D01*
X017718Y032285D01*
X017620Y032285D01*
X019288Y032802D02*
X019306Y032802D01*
X019788Y032802D02*
X019806Y032802D01*
X020385Y031521D02*
X021311Y031521D01*
X021213Y031423D02*
X020385Y031423D01*
X020385Y031324D02*
X021114Y031324D01*
X021016Y031226D02*
X020385Y031226D01*
X020385Y031127D02*
X020917Y031127D01*
X020819Y031029D02*
X020385Y031029D01*
X023125Y029551D02*
X016306Y029551D01*
X016208Y029453D02*
X023100Y029453D01*
X023180Y029650D02*
X016405Y029650D01*
X016503Y029748D02*
X023307Y029748D01*
X023959Y027187D02*
X021349Y027187D01*
X021349Y027089D02*
X023959Y027089D01*
X023959Y026990D02*
X021349Y026990D01*
X021349Y026892D02*
X023959Y026892D01*
X024740Y025611D02*
X024839Y025611D01*
X024619Y022656D02*
X033308Y022656D01*
X033267Y022558D02*
X032841Y022558D01*
X032928Y022459D02*
X033244Y022459D01*
X032319Y022558D02*
X032251Y022558D01*
X031729Y022558D02*
X024619Y022558D01*
X023476Y021507D02*
X023476Y019342D01*
X023919Y018899D01*
X023673Y018506D02*
X029283Y018506D01*
X029923Y019145D01*
X029923Y020376D01*
X030078Y020530D01*
X032580Y019987D02*
X032585Y019982D01*
X033023Y019982D01*
X033441Y020399D01*
X033754Y020399D01*
X033754Y019399D02*
X033647Y019293D01*
X033319Y019293D01*
X032925Y018899D01*
X032580Y018899D01*
X032285Y018112D02*
X033466Y018112D01*
X033754Y018399D01*
X033860Y018506D01*
X033754Y018399D01*
X033463Y017830D02*
X032519Y017830D01*
X032800Y016746D02*
X033170Y016746D01*
X033489Y014895D02*
X034989Y014895D01*
X035389Y015295D01*
X034754Y014399D02*
X034250Y013895D01*
X033389Y013895D01*
X030689Y011195D01*
X028139Y011195D01*
X027839Y011695D02*
X030289Y011695D01*
X033489Y014895D01*
X034754Y013399D02*
X034250Y012895D01*
X033389Y012895D01*
X031389Y010895D01*
X030126Y010895D01*
X029761Y010935D02*
X029761Y010823D01*
X030232Y010395D02*
X031989Y010395D01*
X033489Y011895D01*
X034250Y011895D01*
X034754Y012399D01*
X034754Y011399D02*
X034250Y010895D01*
X033489Y010895D01*
X032589Y009995D01*
X030626Y009995D01*
X031020Y009495D02*
X032439Y009495D01*
X032889Y009895D01*
X034150Y009895D01*
X034754Y010399D01*
X033754Y008399D02*
X033624Y008269D01*
X032285Y008269D01*
X031498Y009057D01*
X030138Y007783D02*
X033416Y007783D01*
X033671Y007482D02*
X033754Y007399D01*
X033671Y007482D02*
X029923Y007482D01*
X032604Y005517D02*
X022168Y005517D01*
X022168Y005419D02*
X032604Y005419D01*
X032604Y005320D02*
X022168Y005320D01*
X022168Y005222D02*
X032604Y005222D01*
X032604Y005123D02*
X022120Y005123D01*
X022168Y005172D02*
X022045Y005049D01*
X021596Y005049D01*
X021473Y005172D01*
X021473Y005185D01*
X021423Y005185D01*
X021334Y005148D01*
X021189Y005148D01*
X021055Y005204D01*
X020952Y005307D01*
X020896Y005441D01*
X020896Y005586D01*
X020952Y005720D01*
X021055Y005823D01*
X021189Y005878D01*
X021334Y005878D01*
X021468Y005823D01*
X021492Y005799D01*
X021596Y005902D01*
X022045Y005902D01*
X022168Y005779D01*
X022168Y005172D01*
X022168Y005616D02*
X037347Y005616D01*
X037347Y005714D02*
X022168Y005714D01*
X022134Y005813D02*
X037347Y005813D01*
X037347Y005911D02*
X012949Y005911D01*
X012949Y005813D02*
X021045Y005813D01*
X020950Y005714D02*
X012949Y005714D01*
X012949Y005616D02*
X020909Y005616D01*
X020896Y005517D02*
X012949Y005517D01*
X012949Y005419D02*
X020906Y005419D01*
X020946Y005320D02*
X012949Y005320D01*
X012949Y005222D02*
X021037Y005222D01*
X021521Y005123D02*
X012949Y005123D01*
X013027Y005025D02*
X032604Y005025D01*
X032604Y004926D02*
X013126Y004926D01*
X013224Y004828D02*
X032604Y004828D01*
X032604Y004729D02*
X014036Y004729D01*
X014170Y004631D02*
X032604Y004631D01*
X032604Y004532D02*
X014227Y004532D01*
X014254Y004434D02*
X032604Y004434D01*
X032604Y004335D02*
X014254Y004335D01*
X014218Y004237D02*
X032604Y004237D01*
X032604Y004138D02*
X015278Y004138D01*
X015373Y004040D02*
X032604Y004040D01*
X032604Y003941D02*
X015414Y003941D01*
X015425Y003843D02*
X032604Y003843D01*
X032604Y003744D02*
X021270Y003744D01*
X021406Y003646D02*
X032604Y003646D01*
X032604Y003547D02*
X021493Y003547D01*
X021583Y003449D02*
X032604Y003449D01*
X032604Y003350D02*
X021673Y003350D01*
X021762Y003252D02*
X032604Y003252D01*
X035903Y003252D02*
X036853Y003252D01*
X037046Y003350D02*
X035903Y003350D01*
X035903Y003449D02*
X037151Y003449D01*
X037227Y003547D02*
X035903Y003547D01*
X035903Y003646D02*
X037284Y003646D01*
X037314Y003744D02*
X035903Y003744D01*
X035903Y003843D02*
X037340Y003843D01*
X037347Y003941D02*
X035903Y003941D01*
X035903Y004040D02*
X037347Y004040D01*
X037347Y004138D02*
X035903Y004138D01*
X035903Y004237D02*
X037347Y004237D01*
X037347Y004335D02*
X035903Y004335D01*
X035903Y004434D02*
X037347Y004434D01*
X037347Y004532D02*
X035903Y004532D01*
X035903Y004631D02*
X037347Y004631D01*
X037347Y004729D02*
X035903Y004729D01*
X035903Y004828D02*
X037347Y004828D01*
X037347Y004926D02*
X035903Y004926D01*
X035903Y005025D02*
X037347Y005025D01*
X037347Y005123D02*
X035903Y005123D01*
X035903Y005222D02*
X037347Y005222D01*
X037347Y005320D02*
X035903Y005320D01*
X035903Y005419D02*
X037347Y005419D01*
X037347Y005517D02*
X035903Y005517D01*
X034635Y006896D02*
X033872Y006896D01*
X034070Y006995D02*
X034437Y006995D01*
X034338Y007093D02*
X034169Y007093D01*
X034220Y007192D02*
X034287Y007192D01*
X037347Y006305D02*
X012949Y006305D01*
X012949Y006207D02*
X037347Y006207D01*
X037347Y006108D02*
X012949Y006108D01*
X012949Y006010D02*
X037347Y006010D01*
X028292Y001183D02*
X001360Y001183D01*
X001437Y001085D02*
X028292Y001085D01*
X028292Y000986D02*
X001542Y000986D01*
X001739Y000888D02*
X028292Y000888D01*
X022422Y002365D02*
X005982Y002365D01*
X005982Y002333D02*
X005982Y005544D01*
X005938Y005588D01*
X002726Y005588D01*
X002682Y005544D01*
X002682Y005482D01*
X002682Y002395D01*
X002682Y002333D01*
X002726Y002289D01*
X005938Y002289D01*
X005982Y002333D01*
X005982Y002464D02*
X022330Y002464D01*
X022289Y002562D02*
X005982Y002562D01*
X005982Y002661D02*
X022279Y002661D01*
X021507Y002759D02*
X005982Y002759D01*
X005982Y002858D02*
X021418Y002858D01*
X021328Y002956D02*
X005982Y002956D01*
X005982Y003055D02*
X021238Y003055D01*
X021149Y003153D02*
X005982Y003153D01*
X005982Y003252D02*
X013197Y003252D01*
X013066Y003350D02*
X005982Y003350D01*
X005982Y003449D02*
X012968Y003449D01*
X012869Y003547D02*
X005982Y003547D01*
X005982Y003646D02*
X012771Y003646D01*
X012672Y003744D02*
X005982Y003744D01*
X005982Y003843D02*
X012574Y003843D01*
X012475Y003941D02*
X005982Y003941D01*
X005982Y004040D02*
X012377Y004040D01*
X012278Y004138D02*
X005982Y004138D01*
X005982Y004237D02*
X012180Y004237D01*
X012081Y004335D02*
X005982Y004335D01*
X005982Y004434D02*
X011983Y004434D01*
X011884Y004532D02*
X005982Y004532D01*
X005982Y004631D02*
X011786Y004631D01*
X011687Y004729D02*
X005982Y004729D01*
X005982Y004828D02*
X011589Y004828D01*
X011490Y004926D02*
X005982Y004926D01*
X005982Y005025D02*
X011392Y005025D01*
X011337Y005123D02*
X005982Y005123D01*
X005982Y005222D02*
X011329Y005222D01*
X011329Y005320D02*
X005982Y005320D01*
X005982Y005419D02*
X011329Y005419D01*
X011329Y005517D02*
X005982Y005517D01*
X002682Y005517D02*
X001239Y005517D01*
X001239Y005419D02*
X002682Y005419D01*
X002682Y005320D02*
X001239Y005320D01*
X001239Y005222D02*
X002682Y005222D01*
X002682Y005123D02*
X001239Y005123D01*
X001239Y005025D02*
X002682Y005025D01*
X002682Y004926D02*
X001239Y004926D01*
X001239Y004828D02*
X002682Y004828D01*
X002682Y004729D02*
X001239Y004729D01*
X001239Y004631D02*
X002682Y004631D01*
X002682Y004532D02*
X001239Y004532D01*
X001239Y004434D02*
X002682Y004434D01*
X002682Y004335D02*
X001239Y004335D01*
X001239Y004237D02*
X002682Y004237D01*
X002682Y004138D02*
X001239Y004138D01*
X001239Y004040D02*
X002682Y004040D01*
X002682Y003941D02*
X001239Y003941D01*
X001239Y003843D02*
X002682Y003843D01*
X002682Y003744D02*
X001239Y003744D01*
X001239Y003646D02*
X002682Y003646D01*
X002682Y003547D02*
X001239Y003547D01*
X001239Y003449D02*
X002682Y003449D01*
X002682Y003350D02*
X001239Y003350D01*
X001239Y003252D02*
X002682Y003252D01*
X002682Y003153D02*
X001239Y003153D01*
X001239Y003055D02*
X002682Y003055D01*
X002682Y002956D02*
X001239Y002956D01*
X001239Y002858D02*
X002682Y002858D01*
X002682Y002759D02*
X001239Y002759D01*
X001239Y002661D02*
X002682Y002661D01*
X002682Y002562D02*
X001239Y002562D01*
X001239Y002464D02*
X002682Y002464D01*
X002682Y002365D02*
X001239Y002365D01*
X001239Y005616D02*
X011329Y005616D01*
X011329Y005714D02*
X001239Y005714D01*
X001239Y005813D02*
X011329Y005813D01*
X011329Y005911D02*
X001239Y005911D01*
X001239Y006010D02*
X011329Y006010D01*
X011329Y006108D02*
X001239Y006108D01*
X001239Y006207D02*
X011329Y006207D01*
X011329Y006305D02*
X001239Y006305D01*
X001239Y006404D02*
X011329Y006404D01*
X011329Y006502D02*
X001239Y006502D01*
X001239Y006601D02*
X011329Y006601D01*
X011329Y006699D02*
X001239Y006699D01*
X001239Y006798D02*
X011329Y006798D01*
X011329Y006896D02*
X001239Y006896D01*
X001239Y006995D02*
X011329Y006995D01*
X011329Y007093D02*
X001239Y007093D01*
X001239Y007192D02*
X011329Y007192D01*
X011329Y007290D02*
X001239Y007290D01*
X001239Y007389D02*
X011329Y007389D01*
X011329Y007487D02*
X001239Y007487D01*
X001239Y007586D02*
X011329Y007586D01*
X011329Y007684D02*
X001239Y007684D01*
X001239Y007783D02*
X011329Y007783D01*
X011329Y007881D02*
X001239Y007881D01*
X001239Y007980D02*
X011329Y007980D01*
X011329Y008078D02*
X001239Y008078D01*
X001239Y008177D02*
X011329Y008177D01*
X011329Y008275D02*
X001239Y008275D01*
X001239Y008374D02*
X011329Y008374D01*
X011329Y008472D02*
X001239Y008472D01*
X001239Y008571D02*
X011329Y008571D01*
X011329Y008669D02*
X001239Y008669D01*
X001239Y008768D02*
X011329Y008768D01*
X011329Y008866D02*
X001239Y008866D01*
X001239Y008965D02*
X011329Y008965D01*
X011329Y009063D02*
X001239Y009063D01*
X001239Y009162D02*
X011329Y009162D01*
X011329Y009260D02*
X001239Y009260D01*
X001239Y009359D02*
X011329Y009359D01*
X011329Y009457D02*
X001239Y009457D01*
X001239Y009556D02*
X011329Y009556D01*
X011329Y009654D02*
X001239Y009654D01*
X001239Y009753D02*
X011329Y009753D01*
X011329Y009851D02*
X001239Y009851D01*
X001239Y009950D02*
X011329Y009950D01*
X011329Y010048D02*
X001239Y010048D01*
X001239Y010147D02*
X011329Y010147D01*
X011329Y010245D02*
X001239Y010245D01*
X001239Y010344D02*
X011329Y010344D01*
X011329Y010442D02*
X001239Y010442D01*
X001239Y010541D02*
X011329Y010541D01*
X011329Y010639D02*
X001239Y010639D01*
X001239Y010738D02*
X011329Y010738D01*
X011329Y010836D02*
X001239Y010836D01*
X001239Y010935D02*
X011329Y010935D01*
X011329Y011033D02*
X001239Y011033D01*
X001239Y011132D02*
X011329Y011132D01*
X011329Y011230D02*
X001239Y011230D01*
X001239Y011329D02*
X011329Y011329D01*
X011329Y011427D02*
X001239Y011427D01*
X001239Y011526D02*
X011329Y011526D01*
X011329Y011624D02*
X001239Y011624D01*
X001239Y011723D02*
X011329Y011723D01*
X011329Y011821D02*
X001239Y011821D01*
X001239Y011920D02*
X011329Y011920D01*
X011329Y012018D02*
X001239Y012018D01*
X001239Y012117D02*
X011329Y012117D01*
X011329Y012215D02*
X001239Y012215D01*
X001239Y012314D02*
X011329Y012314D01*
X011329Y012412D02*
X001239Y012412D01*
X001239Y012511D02*
X011329Y012511D01*
X011329Y012609D02*
X001239Y012609D01*
X001239Y012708D02*
X011329Y012708D01*
X011329Y012806D02*
X001239Y012806D01*
X001239Y012905D02*
X011329Y012905D01*
X011329Y013003D02*
X001239Y013003D01*
X001239Y013102D02*
X011329Y013102D01*
X011329Y013200D02*
X001239Y013200D01*
X001239Y013299D02*
X011329Y013299D01*
X011329Y013397D02*
X001239Y013397D01*
X001239Y013496D02*
X011329Y013496D01*
X011329Y013594D02*
X001239Y013594D01*
X001239Y013693D02*
X011329Y013693D01*
X011329Y013791D02*
X001239Y013791D01*
X001239Y013890D02*
X011329Y013890D01*
X011329Y013988D02*
X001239Y013988D01*
X001239Y014087D02*
X011329Y014087D01*
X011329Y014185D02*
X001239Y014185D01*
X001239Y014284D02*
X011329Y014284D01*
X011329Y014382D02*
X001239Y014382D01*
X001239Y014481D02*
X011329Y014481D01*
X011329Y014579D02*
X001239Y014579D01*
X001239Y014678D02*
X011329Y014678D01*
X011329Y014776D02*
X001239Y014776D01*
X001239Y014875D02*
X011329Y014875D01*
X011329Y014973D02*
X001239Y014973D01*
X001239Y015072D02*
X011329Y015072D01*
X011329Y015170D02*
X001239Y015170D01*
X001239Y015269D02*
X011329Y015269D01*
X011329Y015367D02*
X001239Y015367D01*
X001239Y015466D02*
X011329Y015466D01*
X011329Y015564D02*
X001239Y015564D01*
X001239Y015663D02*
X011329Y015663D01*
X011329Y015761D02*
X001239Y015761D01*
X001239Y015860D02*
X009845Y015860D01*
X009782Y015886D02*
X009916Y015830D01*
X010062Y015830D01*
X010196Y015886D01*
X010298Y015989D01*
X010354Y016123D01*
X010354Y016193D01*
X011709Y017548D01*
X011749Y017644D01*
X011749Y021647D01*
X011709Y021743D01*
X011654Y021798D01*
X011654Y021868D01*
X011598Y022002D01*
X011496Y022105D01*
X011362Y022160D01*
X011216Y022160D01*
X011082Y022105D01*
X010980Y022002D01*
X010924Y021868D01*
X010924Y021723D01*
X010980Y021589D01*
X011082Y021486D01*
X011216Y021430D01*
X011229Y021430D01*
X011229Y017803D01*
X009986Y016560D01*
X009916Y016560D01*
X009782Y016505D01*
X009680Y016402D01*
X009624Y016268D01*
X009624Y016123D01*
X009680Y015989D01*
X009782Y015886D01*
X009710Y015958D02*
X001239Y015958D01*
X001239Y016057D02*
X009651Y016057D01*
X009624Y016155D02*
X001239Y016155D01*
X001239Y016254D02*
X009624Y016254D01*
X009659Y016352D02*
X001239Y016352D01*
X001239Y016451D02*
X009728Y016451D01*
X009890Y016549D02*
X001239Y016549D01*
X001239Y016648D02*
X010074Y016648D01*
X010172Y016746D02*
X001239Y016746D01*
X001239Y016845D02*
X010271Y016845D01*
X010369Y016943D02*
X001239Y016943D01*
X001239Y017042D02*
X010468Y017042D01*
X010566Y017140D02*
X001239Y017140D01*
X001239Y017239D02*
X010665Y017239D01*
X010763Y017337D02*
X001239Y017337D01*
X001239Y017436D02*
X010862Y017436D01*
X010960Y017534D02*
X001239Y017534D01*
X001239Y017633D02*
X011059Y017633D01*
X011157Y017731D02*
X001239Y017731D01*
X001239Y017830D02*
X011229Y017830D01*
X011229Y017928D02*
X001239Y017928D01*
X001239Y018027D02*
X011229Y018027D01*
X011229Y018125D02*
X001239Y018125D01*
X001239Y018224D02*
X011229Y018224D01*
X011229Y018322D02*
X001239Y018322D01*
X001239Y018421D02*
X009047Y018421D01*
X009082Y018386D02*
X009216Y018330D01*
X009362Y018330D01*
X009496Y018386D01*
X009515Y018405D01*
X009963Y018405D01*
X009982Y018386D01*
X010116Y018330D01*
X010262Y018330D01*
X010396Y018386D01*
X010498Y018489D01*
X010554Y018623D01*
X010554Y018768D01*
X010498Y018902D01*
X010396Y019005D01*
X010262Y019060D01*
X010116Y019060D01*
X009982Y019005D01*
X009963Y018985D01*
X009515Y018985D01*
X009496Y019005D01*
X009362Y019060D01*
X009216Y019060D01*
X009082Y019005D01*
X008980Y018902D01*
X008924Y018768D01*
X008924Y018623D01*
X008980Y018489D01*
X009082Y018386D01*
X008967Y018519D02*
X001239Y018519D01*
X001239Y018618D02*
X008926Y018618D01*
X008924Y018716D02*
X001239Y018716D01*
X001239Y018815D02*
X008943Y018815D01*
X008991Y018913D02*
X001239Y018913D01*
X001239Y019012D02*
X009099Y019012D01*
X009479Y019012D02*
X009999Y019012D01*
X010379Y019012D02*
X011229Y019012D01*
X011229Y019110D02*
X001239Y019110D01*
X001239Y019209D02*
X011229Y019209D01*
X011229Y019307D02*
X001239Y019307D01*
X001239Y019406D02*
X011229Y019406D01*
X011229Y019504D02*
X001239Y019504D01*
X001239Y019603D02*
X011229Y019603D01*
X011229Y019701D02*
X001239Y019701D01*
X001239Y019800D02*
X011229Y019800D01*
X011229Y019898D02*
X001239Y019898D01*
X001239Y019997D02*
X011229Y019997D01*
X011229Y020095D02*
X001239Y020095D01*
X001239Y020194D02*
X011229Y020194D01*
X011229Y020292D02*
X001239Y020292D01*
X001239Y020391D02*
X011229Y020391D01*
X011229Y020489D02*
X001239Y020489D01*
X001239Y020588D02*
X011229Y020588D01*
X011229Y020686D02*
X001239Y020686D01*
X001239Y020785D02*
X011229Y020785D01*
X011229Y020883D02*
X001239Y020883D01*
X001239Y020982D02*
X011229Y020982D01*
X011229Y021080D02*
X001239Y021080D01*
X001239Y021179D02*
X011229Y021179D01*
X011229Y021277D02*
X001239Y021277D01*
X001239Y021376D02*
X011229Y021376D01*
X011110Y021474D02*
X001239Y021474D01*
X001239Y021573D02*
X010995Y021573D01*
X010945Y021671D02*
X001239Y021671D01*
X001239Y021770D02*
X010924Y021770D01*
X010924Y021868D02*
X001239Y021868D01*
X001239Y021967D02*
X010965Y021967D01*
X011043Y022065D02*
X001239Y022065D01*
X001239Y022164D02*
X011553Y022164D01*
X011535Y022065D02*
X011651Y022065D01*
X011613Y021967D02*
X011750Y021967D01*
X011829Y021868D02*
X011654Y021868D01*
X011682Y021770D02*
X011829Y021770D01*
X011829Y021671D02*
X011739Y021671D01*
X011749Y021573D02*
X011829Y021573D01*
X011829Y021474D02*
X011749Y021474D01*
X011749Y021376D02*
X011829Y021376D01*
X011829Y021277D02*
X011749Y021277D01*
X011749Y021179D02*
X011829Y021179D01*
X011829Y021080D02*
X011749Y021080D01*
X011749Y020982D02*
X011829Y020982D01*
X011829Y020883D02*
X011749Y020883D01*
X011749Y020785D02*
X011829Y020785D01*
X011829Y020686D02*
X011749Y020686D01*
X011749Y020588D02*
X011829Y020588D01*
X011829Y020489D02*
X011749Y020489D01*
X011749Y020391D02*
X011829Y020391D01*
X011829Y020292D02*
X011749Y020292D01*
X011749Y020194D02*
X011829Y020194D01*
X011829Y020095D02*
X011749Y020095D01*
X011749Y019997D02*
X011829Y019997D01*
X011829Y019898D02*
X011749Y019898D01*
X011749Y019800D02*
X011829Y019800D01*
X011829Y019701D02*
X011749Y019701D01*
X011749Y019603D02*
X011829Y019603D01*
X011829Y019504D02*
X011749Y019504D01*
X011749Y019406D02*
X011829Y019406D01*
X011829Y019307D02*
X011749Y019307D01*
X011749Y019209D02*
X011829Y019209D01*
X011829Y019110D02*
X011749Y019110D01*
X011749Y019012D02*
X011829Y019012D01*
X011829Y018913D02*
X011749Y018913D01*
X011749Y018815D02*
X011829Y018815D01*
X011829Y018716D02*
X011749Y018716D01*
X011749Y018618D02*
X011829Y018618D01*
X011829Y018519D02*
X011749Y018519D01*
X011749Y018421D02*
X011829Y018421D01*
X011829Y018322D02*
X011749Y018322D01*
X011749Y018224D02*
X011829Y018224D01*
X011829Y018125D02*
X011749Y018125D01*
X011749Y018027D02*
X011829Y018027D01*
X011829Y017928D02*
X011749Y017928D01*
X011749Y017830D02*
X011829Y017830D01*
X011829Y017731D02*
X011749Y017731D01*
X011745Y017633D02*
X011829Y017633D01*
X011829Y017534D02*
X011696Y017534D01*
X011597Y017436D02*
X011829Y017436D01*
X011829Y017337D02*
X011499Y017337D01*
X011400Y017239D02*
X011829Y017239D01*
X011829Y017140D02*
X011302Y017140D01*
X011203Y017042D02*
X011829Y017042D01*
X011829Y016943D02*
X011105Y016943D01*
X011006Y016845D02*
X011829Y016845D01*
X011829Y016746D02*
X010908Y016746D01*
X010809Y016648D02*
X011829Y016648D01*
X011829Y016549D02*
X010711Y016549D01*
X010612Y016451D02*
X011829Y016451D01*
X011778Y016352D02*
X010514Y016352D01*
X010415Y016254D02*
X011680Y016254D01*
X011581Y016155D02*
X010354Y016155D01*
X010327Y016057D02*
X011483Y016057D01*
X011384Y015958D02*
X010268Y015958D01*
X010133Y015860D02*
X011334Y015860D01*
X011960Y015602D02*
X011960Y005218D01*
X013338Y003840D01*
X015061Y003840D01*
X014843Y004138D02*
X014148Y004138D01*
X013889Y004395D02*
X013789Y004295D01*
X013389Y004295D01*
X012689Y004995D01*
X012689Y015695D01*
X012942Y015958D02*
X013036Y015958D01*
X013289Y015695D02*
X013289Y013338D01*
X013535Y013092D01*
X016881Y013092D01*
X017472Y013092D01*
X017625Y013397D02*
X013598Y013397D01*
X013549Y013693D02*
X013875Y013693D01*
X013778Y013791D02*
X013549Y013791D01*
X013549Y013890D02*
X013738Y013890D01*
X013724Y013988D02*
X013549Y013988D01*
X013549Y014087D02*
X013676Y014087D01*
X013669Y014185D02*
X013549Y014185D01*
X013549Y014284D02*
X013669Y014284D01*
X013669Y014382D02*
X013549Y014382D01*
X013549Y014481D02*
X013669Y014481D01*
X013669Y014579D02*
X013549Y014579D01*
X013549Y014678D02*
X013669Y014678D01*
X013669Y014776D02*
X013549Y014776D01*
X013549Y014875D02*
X013669Y014875D01*
X013929Y015405D02*
X013929Y014156D01*
X014089Y013995D01*
X014303Y013693D02*
X014575Y013693D01*
X014478Y013791D02*
X014400Y013791D01*
X014789Y013995D02*
X014929Y014135D01*
X014929Y015405D01*
X014563Y015860D02*
X014294Y015860D01*
X014393Y015761D02*
X014465Y015761D01*
X014749Y015958D02*
X014109Y015958D01*
X013749Y015958D02*
X013542Y015958D01*
X013002Y015466D02*
X012976Y015466D01*
X012949Y015367D02*
X013029Y015367D01*
X013029Y015269D02*
X012949Y015269D01*
X012949Y015170D02*
X013029Y015170D01*
X013029Y015072D02*
X012949Y015072D01*
X012949Y014973D02*
X013029Y014973D01*
X013029Y014875D02*
X012949Y014875D01*
X012949Y014776D02*
X013029Y014776D01*
X013029Y014678D02*
X012949Y014678D01*
X012949Y014579D02*
X013029Y014579D01*
X013029Y014481D02*
X012949Y014481D01*
X012949Y014382D02*
X013029Y014382D01*
X013029Y014284D02*
X012949Y014284D01*
X012949Y014185D02*
X013029Y014185D01*
X013029Y014087D02*
X012949Y014087D01*
X012949Y013988D02*
X013029Y013988D01*
X013029Y013890D02*
X012949Y013890D01*
X012949Y013791D02*
X013029Y013791D01*
X013029Y013693D02*
X012949Y013693D01*
X012949Y013594D02*
X013029Y013594D01*
X013029Y013496D02*
X012949Y013496D01*
X012949Y013397D02*
X013029Y013397D01*
X013029Y013299D02*
X012949Y013299D01*
X012949Y013200D02*
X013065Y013200D01*
X013158Y013102D02*
X012949Y013102D01*
X012949Y013003D02*
X013256Y013003D01*
X013355Y012905D02*
X012949Y012905D01*
X011960Y015602D02*
X012452Y016094D01*
X012452Y022098D01*
X012256Y022295D01*
X012256Y023476D01*
X012596Y023346D02*
X014222Y023346D01*
X014204Y023247D02*
X012543Y023247D01*
X012516Y023149D02*
X014207Y023149D01*
X014248Y023050D02*
X012516Y023050D01*
X012516Y022952D02*
X014331Y022952D01*
X014569Y023230D02*
X015011Y023722D01*
X014371Y023543D02*
X012620Y023543D01*
X012620Y023444D02*
X014267Y023444D01*
X014133Y023641D02*
X012582Y023641D01*
X012508Y023740D02*
X014037Y023740D01*
X014348Y023943D02*
X014348Y029309D01*
X013387Y026921D02*
X012551Y026084D01*
X010689Y025195D02*
X010644Y025150D01*
X010631Y025150D01*
X010689Y025195D02*
X009889Y025195D01*
X010132Y024922D02*
X010208Y024922D01*
X010307Y024823D02*
X009854Y024823D01*
X009854Y024725D02*
X010776Y024725D01*
X010776Y024626D02*
X009814Y024626D01*
X009738Y024528D02*
X010776Y024528D01*
X010776Y024429D02*
X001239Y024429D01*
X001239Y024331D02*
X010776Y024331D01*
X010744Y024232D02*
X001239Y024232D01*
X001239Y024134D02*
X010694Y024134D01*
X010674Y024035D02*
X002343Y024035D01*
X002338Y024038D02*
X002193Y024038D01*
X002059Y023982D01*
X001956Y023879D01*
X001901Y023745D01*
X001901Y023600D01*
X001956Y023466D01*
X002059Y023364D01*
X002193Y023308D01*
X002291Y023308D01*
X002433Y023187D01*
X002463Y023157D01*
X002472Y023153D01*
X002480Y023146D01*
X002520Y023134D01*
X002558Y023118D01*
X002568Y023118D01*
X002578Y023114D01*
X002620Y023118D01*
X003043Y023118D01*
X003092Y023068D01*
X003226Y023013D01*
X003371Y023013D01*
X003505Y023068D01*
X003608Y023171D01*
X003664Y023305D01*
X003664Y023450D01*
X003608Y023584D01*
X003505Y023687D01*
X003371Y023742D01*
X003226Y023742D01*
X003092Y023687D01*
X003043Y023638D01*
X002706Y023638D01*
X002630Y023703D01*
X002630Y023745D01*
X002575Y023879D01*
X002472Y023982D01*
X002338Y024038D01*
X002187Y024035D02*
X001239Y024035D01*
X001239Y023937D02*
X002013Y023937D01*
X001939Y023838D02*
X001239Y023838D01*
X001239Y023740D02*
X001901Y023740D01*
X001901Y023641D02*
X001239Y023641D01*
X001239Y023543D02*
X001924Y023543D01*
X001978Y023444D02*
X001239Y023444D01*
X001239Y023346D02*
X002102Y023346D01*
X002362Y023247D02*
X001239Y023247D01*
X001239Y023149D02*
X002477Y023149D01*
X002610Y023378D02*
X002265Y023673D01*
X002517Y023937D02*
X010679Y023937D01*
X010719Y023838D02*
X002592Y023838D01*
X002630Y023740D02*
X003220Y023740D01*
X003377Y023740D02*
X010806Y023740D01*
X011124Y023641D02*
X003551Y023641D01*
X003625Y023543D02*
X011157Y023543D01*
X011224Y023444D02*
X003664Y023444D01*
X003664Y023346D02*
X011229Y023346D01*
X011229Y023247D02*
X003640Y023247D01*
X003586Y023149D02*
X011229Y023149D01*
X011229Y023050D02*
X003462Y023050D01*
X003136Y023050D02*
X001239Y023050D01*
X001239Y022952D02*
X011229Y022952D01*
X011229Y022853D02*
X001239Y022853D01*
X001239Y022755D02*
X011229Y022755D01*
X011229Y022656D02*
X001239Y022656D01*
X001239Y022558D02*
X011229Y022558D01*
X011264Y022459D02*
X001239Y022459D01*
X001239Y022361D02*
X011356Y022361D01*
X011454Y022262D02*
X001239Y022262D01*
X002610Y023378D02*
X003299Y023378D01*
X003047Y023641D02*
X002702Y023641D01*
X001239Y024528D02*
X009240Y024528D01*
X009164Y024626D02*
X001239Y024626D01*
X001239Y024725D02*
X009124Y024725D01*
X009124Y024823D02*
X001239Y024823D01*
X001239Y024922D02*
X009146Y024922D01*
X009198Y025020D02*
X001239Y025020D01*
X001239Y025119D02*
X009229Y025119D01*
X009489Y025295D02*
X009389Y025395D01*
X008189Y025395D01*
X006689Y026895D01*
X006324Y026892D02*
X005849Y026892D01*
X005849Y026990D02*
X006333Y026990D01*
X006374Y027089D02*
X005849Y027089D01*
X005849Y027187D02*
X006465Y027187D01*
X006336Y026793D02*
X005849Y026793D01*
X005849Y026695D02*
X006377Y026695D01*
X006472Y026596D02*
X005849Y026596D01*
X005830Y026498D02*
X006719Y026498D01*
X006817Y026399D02*
X005761Y026399D01*
X005662Y026301D02*
X006916Y026301D01*
X007014Y026202D02*
X005564Y026202D01*
X005465Y026104D02*
X007113Y026104D01*
X007211Y026005D02*
X005367Y026005D01*
X005268Y025907D02*
X007310Y025907D01*
X007408Y025808D02*
X005170Y025808D01*
X004989Y025995D02*
X004689Y025995D01*
X004989Y025995D02*
X005589Y026595D01*
X005589Y028345D01*
X006389Y029145D01*
X006024Y029157D02*
X001239Y029157D01*
X001239Y029059D02*
X005935Y029059D01*
X005836Y028960D02*
X001239Y028960D01*
X001239Y028862D02*
X005738Y028862D01*
X005639Y028763D02*
X001239Y028763D01*
X001239Y028665D02*
X005541Y028665D01*
X005442Y028566D02*
X001239Y028566D01*
X001239Y028468D02*
X005358Y028468D01*
X005329Y028369D02*
X001239Y028369D01*
X001239Y028271D02*
X005329Y028271D01*
X005329Y028172D02*
X001239Y028172D01*
X001239Y028074D02*
X005329Y028074D01*
X005329Y027975D02*
X001239Y027975D01*
X001239Y027877D02*
X005329Y027877D01*
X005329Y027778D02*
X001239Y027778D01*
X001239Y027680D02*
X005329Y027680D01*
X005329Y027581D02*
X001239Y027581D01*
X001239Y027483D02*
X005329Y027483D01*
X005329Y027384D02*
X001239Y027384D01*
X001239Y027286D02*
X005329Y027286D01*
X005329Y027187D02*
X001239Y027187D01*
X001239Y027089D02*
X005329Y027089D01*
X005329Y026990D02*
X001239Y026990D01*
X001239Y026892D02*
X005329Y026892D01*
X005329Y026793D02*
X001239Y026793D01*
X001239Y026695D02*
X005321Y026695D01*
X005222Y026596D02*
X001239Y026596D01*
X001239Y026498D02*
X005124Y026498D01*
X005025Y026399D02*
X001239Y026399D01*
X001239Y026301D02*
X004478Y026301D01*
X004380Y026202D02*
X004324Y026068D01*
X004324Y026005D02*
X001239Y026005D01*
X001239Y025907D02*
X004331Y025907D01*
X004371Y025808D02*
X001239Y025808D01*
X001239Y025710D02*
X004458Y025710D01*
X004920Y025710D02*
X007507Y025710D01*
X007605Y025611D02*
X001239Y025611D01*
X001239Y025513D02*
X007704Y025513D01*
X007802Y025414D02*
X001239Y025414D01*
X001239Y025316D02*
X007901Y025316D01*
X007999Y025217D02*
X001239Y025217D01*
X004900Y026301D02*
X004927Y026301D01*
X005849Y027286D02*
X008726Y027286D01*
X008706Y027187D02*
X006913Y027187D01*
X007004Y027089D02*
X008709Y027089D01*
X008750Y026990D02*
X007045Y026990D01*
X007060Y026892D02*
X008835Y026892D01*
X009063Y026793D02*
X007159Y026793D01*
X007257Y026695D02*
X009161Y026695D01*
X009260Y026596D02*
X007356Y026596D01*
X007454Y026498D02*
X009289Y026498D01*
X009289Y026399D02*
X007553Y026399D01*
X007651Y026301D02*
X009213Y026301D01*
X009201Y026202D02*
X007750Y026202D01*
X007848Y026104D02*
X009201Y026104D01*
X009201Y026005D02*
X007947Y026005D01*
X008045Y025907D02*
X009201Y025907D01*
X009201Y025808D02*
X008144Y025808D01*
X008242Y025710D02*
X009201Y025710D01*
X009549Y025986D02*
X009549Y026675D01*
X009057Y027167D01*
X008778Y027384D02*
X005849Y027384D01*
X006040Y029256D02*
X001239Y029256D01*
X001239Y029354D02*
X006082Y029354D01*
X006180Y029453D02*
X001239Y029453D01*
X001239Y029551D02*
X010280Y029551D01*
X010283Y029453D02*
X006598Y029453D01*
X006696Y029354D02*
X010324Y029354D01*
X010408Y029256D02*
X006738Y029256D01*
X009809Y026399D02*
X009902Y026399D01*
X009489Y025295D02*
X009489Y024795D01*
X009889Y024495D02*
X010567Y024495D01*
X010631Y024559D01*
X011749Y023346D02*
X011915Y023346D01*
X011968Y023247D02*
X011749Y023247D01*
X011749Y023149D02*
X011996Y023149D01*
X011996Y023050D02*
X011749Y023050D01*
X011749Y022952D02*
X011996Y022952D01*
X011996Y022853D02*
X011749Y022853D01*
X011749Y022755D02*
X011996Y022755D01*
X011996Y022656D02*
X011796Y022656D01*
X011894Y022558D02*
X011996Y022558D01*
X011993Y022459D02*
X011996Y022459D01*
X011289Y021795D02*
X011489Y021595D01*
X011489Y017695D01*
X009989Y016195D01*
X010431Y018421D02*
X011229Y018421D01*
X011229Y018519D02*
X010511Y018519D01*
X010552Y018618D02*
X011229Y018618D01*
X011229Y018716D02*
X010554Y018716D01*
X010535Y018815D02*
X011229Y018815D01*
X011229Y018913D02*
X010487Y018913D01*
X012712Y021179D02*
X021719Y021179D01*
X021839Y021277D02*
X012712Y021277D01*
X012712Y021376D02*
X022034Y021376D01*
X022113Y021474D02*
X012712Y021474D01*
X012712Y016549D02*
X022726Y016549D01*
X022684Y016451D02*
X012712Y016451D01*
X020110Y008965D02*
X022189Y008965D01*
X021965Y008866D02*
X020012Y008866D01*
X019913Y008768D02*
X021866Y008768D01*
X021790Y008669D02*
X019896Y008669D01*
X019855Y008571D02*
X021750Y008571D01*
X021715Y008472D02*
X019766Y008472D01*
X019312Y008472D02*
X019159Y008472D01*
X019163Y008374D02*
X021715Y008374D01*
X021715Y008275D02*
X019230Y008275D01*
X019264Y008177D02*
X021744Y008177D01*
X021785Y008078D02*
X019264Y008078D01*
X019235Y007980D02*
X021854Y007980D01*
X021953Y007881D02*
X019175Y007881D01*
X019034Y007783D02*
X022159Y007783D01*
X022914Y008374D02*
X025759Y008374D01*
X025670Y008472D02*
X022914Y008472D01*
X022880Y008571D02*
X025629Y008571D01*
X025612Y008669D02*
X022839Y008669D01*
X022763Y008768D02*
X025513Y008768D01*
X025415Y008866D02*
X022664Y008866D01*
X022440Y008965D02*
X025316Y008965D01*
X025218Y009063D02*
X020209Y009063D01*
X020307Y009162D02*
X025119Y009162D01*
X025021Y009260D02*
X020406Y009260D01*
X020504Y009359D02*
X024922Y009359D01*
X024824Y009457D02*
X020603Y009457D01*
X020701Y009556D02*
X024725Y009556D01*
X024627Y009654D02*
X020800Y009654D01*
X020898Y009753D02*
X024528Y009753D01*
X024430Y009851D02*
X020997Y009851D01*
X021095Y009950D02*
X024331Y009950D01*
X024233Y010048D02*
X021194Y010048D01*
X021292Y010147D02*
X024134Y010147D01*
X024036Y010245D02*
X021391Y010245D01*
X019182Y008669D02*
X019159Y008669D01*
X019159Y008571D02*
X019223Y008571D01*
X018568Y008275D02*
X012949Y008275D01*
X012949Y008177D02*
X018534Y008177D01*
X018534Y008078D02*
X012949Y008078D01*
X012949Y007980D02*
X018563Y007980D01*
X018624Y007881D02*
X012949Y007881D01*
X012949Y007783D02*
X018764Y007783D01*
X021478Y005813D02*
X021507Y005813D01*
X013742Y004729D02*
X013323Y004729D01*
X013421Y004631D02*
X013608Y004631D01*
X024117Y016057D02*
X028262Y016057D01*
X028262Y016155D02*
X024022Y016155D01*
X023926Y016254D02*
X028301Y016254D01*
X029289Y015495D02*
X029289Y015491D01*
X029289Y015245D01*
X029339Y015195D01*
X029689Y015195D01*
X029739Y015245D01*
X029739Y015595D01*
X023673Y018506D02*
X023082Y019096D01*
X023082Y021065D01*
X022935Y021212D01*
X022344Y021212D01*
X022935Y021704D02*
X023181Y021704D01*
X023279Y021704D01*
X023476Y021507D01*
X020789Y025589D02*
X021089Y025789D01*
X021089Y027595D01*
X020989Y027695D01*
X020689Y027295D02*
X020789Y027195D01*
X020789Y026289D01*
X020482Y026986D02*
X020380Y027089D01*
X017597Y035264D02*
X010175Y035264D01*
X011688Y034575D02*
X005982Y034575D01*
X005982Y034476D02*
X011649Y034476D01*
X011649Y034378D02*
X005982Y034378D01*
X005982Y034279D02*
X011661Y034279D01*
X011702Y034181D02*
X005982Y034181D01*
X002682Y034181D02*
X001318Y034181D01*
X001279Y034082D02*
X002682Y034082D01*
X002682Y033984D02*
X001253Y033984D01*
X001241Y033885D02*
X002682Y033885D01*
X002682Y033787D02*
X001239Y033787D01*
X001239Y033688D02*
X002682Y033688D01*
X002682Y033590D02*
X001239Y033590D01*
X001239Y033491D02*
X002682Y033491D01*
X002682Y033393D02*
X001239Y033393D01*
X001239Y033294D02*
X002682Y033294D01*
X002682Y033196D02*
X001239Y033196D01*
X001239Y033097D02*
X002682Y033097D01*
X002682Y032999D02*
X001239Y032999D01*
X001239Y032900D02*
X002682Y032900D01*
X002682Y032802D02*
X001239Y032802D01*
X001239Y032703D02*
X002682Y032703D01*
X002682Y032605D02*
X001239Y032605D01*
X001239Y032506D02*
X002682Y032506D01*
X002682Y032408D02*
X001239Y032408D01*
X001239Y032309D02*
X002682Y032309D01*
X002726Y032211D02*
X001239Y032211D01*
X001375Y034279D02*
X002682Y034279D01*
X002682Y034378D02*
X001463Y034378D01*
X001588Y034476D02*
X002682Y034476D01*
X002682Y034575D02*
X001838Y034575D01*
X010294Y036939D02*
X036741Y036939D01*
X036994Y036840D02*
X024659Y036840D01*
X031183Y030902D02*
X032676Y032083D01*
X032689Y032095D01*
X033166Y023346D02*
X033244Y023346D01*
X033264Y023247D02*
X032703Y023247D01*
X034106Y021901D02*
X034254Y022049D01*
X034604Y022399D01*
X034754Y022399D01*
X010554Y032211D02*
X010384Y032211D01*
D27*
X019355Y025563D02*
X019363Y025563D01*
X019489Y025689D01*
X019511Y028869D02*
X019511Y029273D01*
X019489Y029295D01*
X024289Y025595D02*
X024789Y025095D01*
X025089Y025345D01*
X025384Y024795D02*
X025369Y024780D01*
X025384Y024795D02*
X025389Y024795D01*
X025389Y024495D01*
X025189Y024295D01*
X025089Y024295D01*
X025089Y027845D02*
X025089Y027995D01*
X025239Y028145D01*
X025239Y028404D01*
X025231Y028411D01*
X024989Y028895D02*
X024789Y028895D01*
X024589Y028695D01*
X024589Y028395D01*
X024605Y028411D01*
X024641Y028411D01*
D28*
X021389Y028395D03*
X020989Y028395D03*
X018440Y026014D03*
X017689Y028511D03*
X012730Y028439D03*
X012439Y025045D03*
X012439Y024545D03*
X011939Y024545D03*
X011939Y025045D03*
X007839Y027745D03*
X007339Y027745D03*
X007339Y028245D03*
X007839Y028245D03*
X005339Y025395D03*
X005339Y024395D03*
X003539Y024045D03*
X003539Y025445D03*
X005339Y018145D03*
X005339Y017645D03*
X005339Y016045D03*
X005339Y015545D03*
X014047Y017558D03*
X015589Y020558D03*
X018489Y017308D03*
X018489Y016858D03*
X018989Y016858D03*
X018989Y017308D03*
X023489Y024039D03*
X027889Y023645D03*
X027889Y024445D03*
X027889Y025195D03*
X027889Y025995D03*
X027889Y027195D03*
X027889Y027995D03*
X027889Y028745D03*
X027889Y029595D03*
X028454Y033803D03*
X028954Y033803D03*
X029454Y033803D03*
X029954Y033803D03*
X029954Y034303D03*
X029454Y034303D03*
X028954Y034303D03*
X028454Y034303D03*
X018562Y034106D03*
X027889Y022845D03*
X027889Y021959D03*
X027889Y021024D03*
X027889Y020089D03*
X028789Y016595D03*
X030489Y016595D03*
X027989Y012195D03*
X023883Y008186D03*
X023483Y008186D03*
X023483Y008598D03*
X023102Y009039D03*
X023059Y008186D03*
X014837Y006849D03*
X014837Y006398D03*
D29*
X021261Y005513D02*
X021300Y005475D01*
X021820Y005475D01*
X027199Y013011D02*
X027199Y013454D01*
X027167Y013486D01*
X027199Y013011D02*
X028491Y013011D01*
X028489Y013111D01*
X028489Y013395D01*
X028689Y013595D01*
X028689Y014795D01*
X028794Y014900D01*
X029289Y014900D01*
X028689Y014795D02*
X028689Y015400D01*
X028491Y013011D02*
X029673Y013011D01*
X030089Y012595D01*
X024239Y024145D02*
X024289Y024195D01*
X022889Y024289D02*
X022889Y024539D01*
X022889Y024289D02*
X022689Y024089D01*
X020689Y024089D01*
X019589Y024089D01*
X019355Y024323D01*
X019355Y024972D01*
X019511Y028279D02*
X020189Y028279D01*
X020189Y028695D01*
X020489Y028995D01*
X022289Y028995D01*
X022819Y028579D01*
X022839Y027808D01*
X022876Y027708D01*
X022889Y027695D01*
X024289Y027695D01*
X010189Y018695D02*
X009289Y018695D01*
D30*
X015389Y021995D02*
X016789Y021995D01*
X017689Y022995D01*
X017689Y028511D01*
D31*
X013387Y028446D03*
X012551Y026084D03*
X011025Y024017D03*
X009057Y027167D03*
X010631Y029529D03*
X010238Y031891D03*
D32*
X012994Y031891D03*
X013387Y031891D03*
X013781Y031891D03*
X014175Y031891D03*
X014175Y030710D03*
X013781Y030710D03*
X013387Y030710D03*
X012994Y030710D03*
X016045Y026429D03*
X014716Y023820D03*
X014348Y023943D03*
X014569Y023230D03*
X015389Y021995D03*
X012256Y023476D03*
X020671Y030317D03*
X021261Y031891D03*
X021655Y033860D03*
X020080Y034647D03*
X018506Y034647D03*
X025198Y034647D03*
X025100Y021458D03*
X023476Y016340D03*
X023033Y016340D03*
X023328Y014372D03*
X023919Y014372D03*
X027265Y014519D03*
X032285Y018112D03*
X031104Y009057D03*
X029923Y007482D03*
X029529Y007088D03*
X029135Y006694D03*
X030710Y006694D03*
X031104Y007088D03*
X025986Y008663D03*
X025986Y009057D03*
X019539Y008761D03*
X018899Y008122D03*
X015061Y003840D03*
X003299Y023378D03*
X002265Y023673D03*
X011025Y035828D03*
D33*
X022935Y021704D03*
X023230Y021950D03*
X022639Y021458D03*
X022344Y021212D03*
X022000Y020966D03*
X021704Y020720D03*
X021360Y020474D03*
D34*
X022443Y036567D03*
X024411Y036567D03*
D35*
X011025Y025592D02*
X011025Y024017D01*
X011025Y025592D02*
X010631Y025986D01*
X010139Y025986D01*
M02*
