G75*
G70*
%OFA0B0*%
%FSLAX24Y24*%
%IPPOS*%
%LPD*%
%AMOC8*
5,1,8,0,0,1.08239X$1,22.5*
%
%ADD10C,0.0060*%
%ADD11C,0.0040*%
%ADD12C,0.2300*%
%ADD13R,0.0787X0.0276*%
%ADD14R,0.0866X0.0630*%
%ADD15C,0.0436*%
%ADD16R,0.0276X0.0787*%
%ADD17R,0.0630X0.0866*%
%ADD18C,0.1575*%
%ADD19C,0.0600*%
%ADD20R,0.0701X0.0618*%
%ADD21R,0.0591X0.0276*%
%ADD22R,0.0327X0.0013*%
%ADD23R,0.0553X0.0013*%
%ADD24R,0.0717X0.0013*%
%ADD25R,0.0843X0.0013*%
%ADD26R,0.0956X0.0013*%
%ADD27R,0.1044X0.0013*%
%ADD28R,0.1132X0.0013*%
%ADD29R,0.1220X0.0013*%
%ADD30R,0.1296X0.0013*%
%ADD31R,0.1371X0.0013*%
%ADD32R,0.1434X0.0013*%
%ADD33R,0.1497X0.0013*%
%ADD34R,0.1560X0.0013*%
%ADD35R,0.1610X0.0013*%
%ADD36R,0.1673X0.0013*%
%ADD37R,0.1723X0.0013*%
%ADD38R,0.1774X0.0013*%
%ADD39R,0.1824X0.0013*%
%ADD40R,0.1874X0.0013*%
%ADD41R,0.1912X0.0013*%
%ADD42R,0.1962X0.0013*%
%ADD43R,0.2000X0.0013*%
%ADD44R,0.2050X0.0013*%
%ADD45R,0.2088X0.0013*%
%ADD46R,0.2126X0.0013*%
%ADD47R,0.2164X0.0013*%
%ADD48R,0.2201X0.0013*%
%ADD49R,0.2239X0.0013*%
%ADD50R,0.2277X0.0013*%
%ADD51R,0.2314X0.0013*%
%ADD52R,0.2352X0.0013*%
%ADD53R,0.2377X0.0013*%
%ADD54R,0.2415X0.0013*%
%ADD55R,0.2440X0.0013*%
%ADD56R,0.2478X0.0013*%
%ADD57R,0.2503X0.0013*%
%ADD58R,0.2541X0.0013*%
%ADD59R,0.2566X0.0013*%
%ADD60R,0.2591X0.0013*%
%ADD61R,0.2629X0.0013*%
%ADD62R,0.2654X0.0013*%
%ADD63R,0.2679X0.0013*%
%ADD64R,0.2704X0.0013*%
%ADD65R,0.2729X0.0013*%
%ADD66R,0.2755X0.0013*%
%ADD67R,0.2780X0.0013*%
%ADD68R,0.2805X0.0013*%
%ADD69R,0.2830X0.0013*%
%ADD70R,0.2855X0.0013*%
%ADD71R,0.2880X0.0013*%
%ADD72R,0.2906X0.0013*%
%ADD73R,0.2931X0.0013*%
%ADD74R,0.2956X0.0013*%
%ADD75R,0.2968X0.0013*%
%ADD76R,0.2994X0.0013*%
%ADD77R,0.3019X0.0013*%
%ADD78R,0.3044X0.0013*%
%ADD79R,0.3057X0.0013*%
%ADD80R,0.3082X0.0013*%
%ADD81R,0.3094X0.0013*%
%ADD82R,0.3119X0.0013*%
%ADD83R,0.3145X0.0013*%
%ADD84R,0.3157X0.0013*%
%ADD85R,0.3182X0.0013*%
%ADD86R,0.3195X0.0013*%
%ADD87R,0.3207X0.0013*%
%ADD88R,0.3233X0.0013*%
%ADD89R,0.3245X0.0013*%
%ADD90R,0.3270X0.0013*%
%ADD91R,0.3283X0.0013*%
%ADD92R,0.3296X0.0013*%
%ADD93R,0.3321X0.0013*%
%ADD94R,0.3333X0.0013*%
%ADD95R,0.3346X0.0013*%
%ADD96R,0.3358X0.0013*%
%ADD97R,0.3384X0.0013*%
%ADD98R,0.3396X0.0013*%
%ADD99R,0.3409X0.0013*%
%ADD100R,0.3421X0.0013*%
%ADD101R,0.3434X0.0013*%
%ADD102R,0.3446X0.0013*%
%ADD103R,0.3459X0.0013*%
%ADD104R,0.3484X0.0013*%
%ADD105R,0.3497X0.0013*%
%ADD106R,0.3509X0.0013*%
%ADD107R,0.3522X0.0013*%
%ADD108R,0.3534X0.0013*%
%ADD109R,0.3547X0.0013*%
%ADD110R,0.3560X0.0013*%
%ADD111R,0.3572X0.0013*%
%ADD112R,0.3585X0.0013*%
%ADD113R,0.3585X0.0013*%
%ADD114R,0.3597X0.0013*%
%ADD115R,0.3610X0.0013*%
%ADD116R,0.3623X0.0013*%
%ADD117R,0.3635X0.0013*%
%ADD118R,0.3648X0.0013*%
%ADD119R,0.3660X0.0013*%
%ADD120R,0.3660X0.0013*%
%ADD121R,0.0654X0.0013*%
%ADD122R,0.0805X0.0013*%
%ADD123R,0.0755X0.0013*%
%ADD124R,0.1119X0.0013*%
%ADD125R,0.0591X0.0013*%
%ADD126R,0.0692X0.0013*%
%ADD127R,0.0641X0.0013*%
%ADD128R,0.1069X0.0013*%
%ADD129R,0.0566X0.0013*%
%ADD130R,0.0616X0.0013*%
%ADD131R,0.0440X0.0013*%
%ADD132R,0.0352X0.0013*%
%ADD133R,0.0528X0.0013*%
%ADD134R,0.0566X0.0013*%
%ADD135R,0.0516X0.0013*%
%ADD136R,0.0415X0.0013*%
%ADD137R,0.0365X0.0013*%
%ADD138R,0.0516X0.0013*%
%ADD139R,0.0478X0.0013*%
%ADD140R,0.0390X0.0013*%
%ADD141R,0.0365X0.0013*%
%ADD142R,0.0503X0.0013*%
%ADD143R,0.0478X0.0013*%
%ADD144R,0.0428X0.0013*%
%ADD145R,0.0377X0.0013*%
%ADD146R,0.0491X0.0013*%
%ADD147R,0.0403X0.0013*%
%ADD148R,0.0352X0.0013*%
%ADD149R,0.0377X0.0013*%
%ADD150R,0.0478X0.0013*%
%ADD151R,0.0340X0.0013*%
%ADD152R,0.0377X0.0013*%
%ADD153R,0.0327X0.0013*%
%ADD154R,0.0465X0.0013*%
%ADD155R,0.0314X0.0013*%
%ADD156R,0.0390X0.0013*%
%ADD157R,0.0453X0.0013*%
%ADD158R,0.0302X0.0013*%
%ADD159R,0.0453X0.0013*%
%ADD160R,0.0327X0.0013*%
%ADD161R,0.0277X0.0013*%
%ADD162R,0.0302X0.0013*%
%ADD163R,0.0314X0.0013*%
%ADD164R,0.0264X0.0013*%
%ADD165R,0.0289X0.0013*%
%ADD166R,0.0252X0.0013*%
%ADD167R,0.0277X0.0013*%
%ADD168R,0.0402X0.0013*%
%ADD169R,0.0440X0.0013*%
%ADD170R,0.0289X0.0013*%
%ADD171R,0.0226X0.0013*%
%ADD172R,0.0402X0.0013*%
%ADD173R,0.0226X0.0013*%
%ADD174R,0.0428X0.0013*%
%ADD175R,0.0113X0.0013*%
%ADD176R,0.0264X0.0013*%
%ADD177R,0.0088X0.0013*%
%ADD178R,0.0201X0.0013*%
%ADD179R,0.0101X0.0013*%
%ADD180R,0.0428X0.0013*%
%ADD181R,0.0164X0.0013*%
%ADD182R,0.0239X0.0013*%
%ADD183R,0.0201X0.0013*%
%ADD184R,0.0151X0.0013*%
%ADD185R,0.0415X0.0013*%
%ADD186R,0.0201X0.0013*%
%ADD187R,0.0239X0.0013*%
%ADD188R,0.0189X0.0013*%
%ADD189R,0.0252X0.0013*%
%ADD190R,0.0428X0.0013*%
%ADD191R,0.0214X0.0013*%
%ADD192R,0.0176X0.0013*%
%ADD193R,0.0214X0.0013*%
%ADD194R,0.0239X0.0013*%
%ADD195R,0.0176X0.0013*%
%ADD196R,0.0252X0.0013*%
%ADD197R,0.0151X0.0013*%
%ADD198R,0.0277X0.0013*%
%ADD199R,0.0289X0.0013*%
%ADD200R,0.0277X0.0013*%
%ADD201R,0.0289X0.0013*%
%ADD202R,0.0138X0.0013*%
%ADD203R,0.0189X0.0013*%
%ADD204R,0.0138X0.0013*%
%ADD205R,0.0453X0.0013*%
%ADD206R,0.0302X0.0013*%
%ADD207R,0.0352X0.0013*%
%ADD208R,0.0692X0.0013*%
%ADD209R,0.0641X0.0013*%
%ADD210R,0.0679X0.0013*%
%ADD211R,0.0679X0.0013*%
%ADD212R,0.0667X0.0013*%
%ADD213R,0.0667X0.0013*%
%ADD214R,0.0629X0.0013*%
%ADD215R,0.0465X0.0013*%
%ADD216R,0.0654X0.0013*%
%ADD217R,0.0629X0.0013*%
%ADD218R,0.0629X0.0013*%
%ADD219R,0.0616X0.0013*%
%ADD220R,0.0063X0.0013*%
%ADD221R,0.0063X0.0013*%
%ADD222R,0.0604X0.0013*%
%ADD223R,0.0063X0.0013*%
%ADD224R,0.0063X0.0013*%
%ADD225R,0.0025X0.0013*%
%ADD226R,0.0604X0.0013*%
%ADD227R,0.0629X0.0013*%
%ADD228R,0.0038X0.0013*%
%ADD229R,0.0541X0.0013*%
%ADD230R,0.0038X0.0013*%
%ADD231R,0.0302X0.0013*%
%ADD232R,0.0025X0.0013*%
%ADD233R,0.0553X0.0013*%
%ADD234R,0.0075X0.0013*%
%ADD235R,0.0553X0.0013*%
%ADD236R,0.0075X0.0013*%
%ADD237R,0.0340X0.0013*%
%ADD238R,0.0038X0.0013*%
%ADD239R,0.0553X0.0013*%
%ADD240R,0.0038X0.0013*%
%ADD241R,0.0050X0.0013*%
%ADD242R,0.0403X0.0013*%
%ADD243R,0.0528X0.0013*%
%ADD244R,0.0541X0.0013*%
%ADD245R,0.0528X0.0013*%
%ADD246R,0.0528X0.0013*%
%ADD247R,0.0453X0.0013*%
%ADD248R,0.0050X0.0013*%
%ADD249R,0.0503X0.0013*%
%ADD250R,0.0579X0.0013*%
%ADD251R,0.0013X0.0013*%
%ADD252R,0.0604X0.0013*%
%ADD253R,0.0704X0.0013*%
%ADD254R,0.0704X0.0013*%
%ADD255R,0.0717X0.0013*%
%ADD256R,0.0654X0.0013*%
%ADD257R,0.0654X0.0013*%
%ADD258R,0.0730X0.0013*%
%ADD259R,0.0730X0.0013*%
%ADD260R,0.0252X0.0013*%
%ADD261R,0.0226X0.0013*%
%ADD262R,0.0189X0.0013*%
%ADD263R,0.0226X0.0013*%
%ADD264R,0.0189X0.0013*%
%ADD265R,0.0214X0.0013*%
%ADD266R,0.0214X0.0013*%
%ADD267R,0.0164X0.0013*%
%ADD268R,0.0113X0.0013*%
%ADD269R,0.0126X0.0013*%
%ADD270R,0.0264X0.0013*%
%ADD271R,0.0264X0.0013*%
%ADD272R,0.0314X0.0013*%
%ADD273R,0.0365X0.0013*%
%ADD274R,0.0415X0.0013*%
%ADD275R,0.0491X0.0013*%
%ADD276R,0.0503X0.0013*%
%ADD277R,0.0352X0.0013*%
%ADD278R,0.0755X0.0013*%
%ADD279R,0.0692X0.0013*%
%ADD280R,0.3673X0.0013*%
%ADD281R,0.3648X0.0013*%
%ADD282R,0.3635X0.0013*%
%ADD283R,0.3572X0.0013*%
%ADD284R,0.3560X0.0013*%
%ADD285R,0.3547X0.0013*%
%ADD286R,0.3534X0.0013*%
%ADD287R,0.3522X0.0013*%
%ADD288R,0.3509X0.0013*%
%ADD289R,0.3497X0.0013*%
%ADD290R,0.3484X0.0013*%
%ADD291R,0.3472X0.0013*%
%ADD292R,0.3396X0.0013*%
%ADD293R,0.3384X0.0013*%
%ADD294R,0.3371X0.0013*%
%ADD295R,0.3333X0.0013*%
%ADD296R,0.3321X0.0013*%
%ADD297R,0.3308X0.0013*%
%ADD298R,0.3270X0.0013*%
%ADD299R,0.3258X0.0013*%
%ADD300R,0.3220X0.0013*%
%ADD301R,0.3182X0.0013*%
%ADD302R,0.3170X0.0013*%
%ADD303R,0.3145X0.0013*%
%ADD304R,0.3132X0.0013*%
%ADD305R,0.3107X0.0013*%
%ADD306R,0.3069X0.0013*%
%ADD307R,0.3044X0.0013*%
%ADD308R,0.3031X0.0013*%
%ADD309R,0.3006X0.0013*%
%ADD310R,0.2981X0.0013*%
%ADD311R,0.2943X0.0013*%
%ADD312R,0.2918X0.0013*%
%ADD313R,0.2893X0.0013*%
%ADD314R,0.2868X0.0013*%
%ADD315R,0.2843X0.0013*%
%ADD316R,0.2818X0.0013*%
%ADD317R,0.2792X0.0013*%
%ADD318R,0.2767X0.0013*%
%ADD319R,0.2742X0.0013*%
%ADD320R,0.2717X0.0013*%
%ADD321R,0.2692X0.0013*%
%ADD322R,0.2667X0.0013*%
%ADD323R,0.2641X0.0013*%
%ADD324R,0.2616X0.0013*%
%ADD325R,0.2579X0.0013*%
%ADD326R,0.2553X0.0013*%
%ADD327R,0.2528X0.0013*%
%ADD328R,0.2491X0.0013*%
%ADD329R,0.2465X0.0013*%
%ADD330R,0.2428X0.0013*%
%ADD331R,0.2402X0.0013*%
%ADD332R,0.2365X0.0013*%
%ADD333R,0.2327X0.0013*%
%ADD334R,0.2289X0.0013*%
%ADD335R,0.2264X0.0013*%
%ADD336R,0.2226X0.0013*%
%ADD337R,0.2189X0.0013*%
%ADD338R,0.2151X0.0013*%
%ADD339R,0.2101X0.0013*%
%ADD340R,0.2063X0.0013*%
%ADD341R,0.2025X0.0013*%
%ADD342R,0.1987X0.0013*%
%ADD343R,0.1937X0.0013*%
%ADD344R,0.1887X0.0013*%
%ADD345R,0.1849X0.0013*%
%ADD346R,0.1799X0.0013*%
%ADD347R,0.1748X0.0013*%
%ADD348R,0.1698X0.0013*%
%ADD349R,0.1635X0.0013*%
%ADD350R,0.1585X0.0013*%
%ADD351R,0.1522X0.0013*%
%ADD352R,0.1459X0.0013*%
%ADD353R,0.1396X0.0013*%
%ADD354R,0.1333X0.0013*%
%ADD355R,0.1258X0.0013*%
%ADD356R,0.1182X0.0013*%
%ADD357R,0.1094X0.0013*%
%ADD358R,0.1006X0.0013*%
%ADD359R,0.0906X0.0013*%
%ADD360R,0.0780X0.0013*%
%ADD361C,0.0850*%
%ADD362C,0.0100*%
%ADD363C,0.1000*%
%ADD364C,0.0320*%
%ADD365C,0.0500*%
%ADD366C,0.0660*%
%ADD367C,0.0160*%
%ADD368C,0.0120*%
%ADD369C,0.0317*%
%ADD370C,0.0357*%
%ADD371C,0.0240*%
%ADD372C,0.0475*%
D10*
X013446Y015564D02*
X013446Y015991D01*
X013233Y015778D02*
X013660Y015778D01*
X013660Y016209D02*
X013767Y016209D01*
X013767Y016636D01*
X013660Y016209D02*
X013233Y016636D01*
X013126Y016636D01*
X013126Y016209D01*
X004680Y020196D02*
X004573Y020196D01*
X004359Y020410D01*
X004039Y020410D01*
X004359Y020410D02*
X004573Y020623D01*
X004680Y020623D01*
X004359Y020841D02*
X004359Y021268D01*
X020521Y029182D02*
X020948Y029823D01*
X021166Y029502D02*
X021593Y029502D01*
X020948Y029182D02*
X020521Y029823D01*
X034236Y023410D02*
X034236Y022983D01*
X034557Y022766D02*
X034557Y022339D01*
X034770Y022983D02*
X034877Y022983D01*
X034877Y023410D01*
X034770Y022983D02*
X034343Y023410D01*
X034236Y023410D01*
X034305Y010685D02*
X034198Y010685D01*
X034305Y010685D02*
X034519Y010472D01*
X034839Y010472D01*
X034519Y010472D02*
X034305Y010258D01*
X034198Y010258D01*
X034519Y010040D02*
X034519Y009613D01*
X034732Y009827D02*
X034305Y009827D01*
D11*
X022399Y005564D02*
X022399Y005257D01*
X022322Y005180D01*
X022092Y005180D01*
X022092Y005640D01*
X022322Y005640D01*
X022399Y005564D01*
X021938Y005640D02*
X021938Y005180D01*
X021631Y005640D01*
X021631Y005180D01*
X021478Y005257D02*
X021478Y005410D01*
X021324Y005410D01*
X021171Y005257D02*
X021248Y005180D01*
X021401Y005180D01*
X021478Y005257D01*
X021478Y005564D02*
X021401Y005640D01*
X021248Y005640D01*
X021171Y005564D01*
X021171Y005257D01*
X018351Y005180D02*
X018198Y005333D01*
X018275Y005333D02*
X018044Y005333D01*
X018044Y005180D02*
X018044Y005640D01*
X018275Y005640D01*
X018351Y005564D01*
X018351Y005410D01*
X018275Y005333D01*
X017891Y005410D02*
X017584Y005410D01*
X017584Y005487D02*
X017737Y005640D01*
X017891Y005487D01*
X017891Y005180D01*
X017584Y005180D02*
X017584Y005487D01*
X017430Y005180D02*
X017124Y005180D01*
X017124Y005640D01*
X016970Y005564D02*
X016893Y005640D01*
X016740Y005640D01*
X016663Y005564D01*
X016663Y005257D01*
X016740Y005180D01*
X016893Y005180D01*
X016970Y005257D01*
X016970Y005564D01*
X016510Y005564D02*
X016433Y005640D01*
X016279Y005640D01*
X016203Y005564D01*
X016203Y005487D01*
X016279Y005410D01*
X016433Y005410D01*
X016510Y005333D01*
X016510Y005257D01*
X016433Y005180D01*
X016279Y005180D01*
X016203Y005257D01*
X016049Y005333D02*
X015896Y005180D01*
X015742Y005333D01*
X015742Y005640D01*
X016049Y005640D02*
X016049Y005333D01*
X013541Y006495D02*
X013465Y006418D01*
X013311Y006418D01*
X013235Y006495D01*
X013081Y006495D02*
X013081Y006878D01*
X013235Y006802D02*
X013235Y006725D01*
X013311Y006648D01*
X013465Y006648D01*
X013541Y006571D01*
X013541Y006495D01*
X013541Y006802D02*
X013465Y006878D01*
X013311Y006878D01*
X013235Y006802D01*
X013081Y006495D02*
X013004Y006418D01*
X012851Y006418D01*
X012774Y006495D01*
X012774Y006878D01*
X012621Y006802D02*
X012544Y006878D01*
X012314Y006878D01*
X012314Y006418D01*
X012544Y006418D01*
X012621Y006495D01*
X012621Y006571D01*
X012544Y006648D01*
X012314Y006648D01*
X012160Y006571D02*
X012160Y006878D01*
X012160Y006571D02*
X012007Y006418D01*
X011853Y006571D01*
X011853Y006878D01*
X012544Y006648D02*
X012621Y006725D01*
X012621Y006802D01*
X012607Y008426D02*
X012377Y008426D01*
X012377Y008886D01*
X012607Y008886D01*
X012684Y008810D01*
X012684Y008733D01*
X012607Y008656D01*
X012377Y008656D01*
X012224Y008579D02*
X012224Y008886D01*
X012224Y008579D02*
X012070Y008426D01*
X011917Y008579D01*
X011917Y008886D01*
X012607Y008656D02*
X012684Y008579D01*
X012684Y008503D01*
X012607Y008426D01*
X012838Y008426D02*
X012838Y008733D01*
X012991Y008886D01*
X013145Y008733D01*
X013145Y008426D01*
X013145Y008656D02*
X012838Y008656D01*
X013298Y008886D02*
X013605Y008886D01*
X013452Y008886D02*
X013452Y008426D01*
X013573Y025680D02*
X013727Y025680D01*
X013804Y025757D01*
X013804Y026064D01*
X013727Y026140D01*
X013573Y026140D01*
X013497Y026064D01*
X013497Y025757D01*
X013573Y025680D01*
X013343Y025833D02*
X013343Y026140D01*
X013343Y025833D02*
X013190Y025680D01*
X013036Y025833D01*
X013036Y026140D01*
X012883Y026064D02*
X012806Y026140D01*
X012653Y026140D01*
X012576Y026064D01*
X012729Y025910D02*
X012806Y025910D01*
X012883Y025833D01*
X012883Y025757D01*
X012806Y025680D01*
X012653Y025680D01*
X012576Y025757D01*
X012422Y025757D02*
X012422Y025680D01*
X012346Y025680D01*
X012346Y025757D01*
X012422Y025757D01*
X012192Y025757D02*
X012116Y025680D01*
X011962Y025680D01*
X011885Y025757D01*
X012039Y025910D02*
X012116Y025910D01*
X012192Y025833D01*
X012192Y025757D01*
X012116Y025910D02*
X012192Y025987D01*
X012192Y026064D01*
X012116Y026140D01*
X011962Y026140D01*
X011885Y026064D01*
X012806Y025910D02*
X012883Y025987D01*
X012883Y026064D01*
X013957Y026140D02*
X013957Y025680D01*
X014187Y025680D01*
X014264Y025757D01*
X014264Y025833D01*
X014187Y025910D01*
X013957Y025910D01*
X014187Y025910D02*
X014264Y025987D01*
X014264Y026064D01*
X014187Y026140D01*
X013957Y026140D01*
X014418Y026064D02*
X014418Y025757D01*
X014494Y025680D01*
X014648Y025680D01*
X014724Y025757D01*
X014724Y026064D02*
X014648Y026140D01*
X014494Y026140D01*
X014418Y026064D01*
D12*
X006332Y031262D03*
X036253Y031262D03*
X036253Y001341D03*
X006332Y001341D03*
D13*
X008694Y014579D03*
X008694Y015071D03*
X008694Y015564D03*
X008694Y016056D03*
X008694Y016548D03*
X008694Y017040D03*
X008694Y017532D03*
X008694Y018024D03*
X031923Y020879D03*
X031923Y021371D03*
X031923Y021863D03*
X031923Y022355D03*
X031923Y022847D03*
X031923Y023339D03*
X031923Y023831D03*
X031923Y024323D03*
X031923Y011725D03*
X031923Y011233D03*
X031923Y010741D03*
X031923Y010249D03*
X031923Y009756D03*
X031923Y009264D03*
X031923Y008772D03*
X031923Y008280D03*
D14*
X033222Y007355D03*
X033222Y012650D03*
X033222Y019953D03*
X033222Y025249D03*
X009993Y018949D03*
X009993Y013654D03*
D15*
X004363Y014579D03*
X004363Y015071D03*
X004363Y015564D03*
X004363Y016056D03*
X004363Y016548D03*
X004363Y017040D03*
X004363Y017532D03*
X004363Y018024D03*
D16*
X019570Y026932D03*
X020062Y026932D03*
X020554Y026932D03*
X021047Y026932D03*
X021539Y026932D03*
X022031Y026932D03*
X022523Y026932D03*
X023015Y026932D03*
D17*
X023940Y028231D03*
X018645Y028231D03*
D18*
X010269Y031656D03*
X032316Y031656D03*
X036647Y027325D03*
X036647Y005278D03*
X032316Y000947D03*
X010269Y000947D03*
D19*
X006832Y003802D03*
X006832Y004802D03*
X006832Y005802D03*
X006832Y006802D03*
X006832Y007802D03*
X006832Y008802D03*
X005832Y008802D03*
X005832Y007802D03*
X005832Y006802D03*
X005832Y005802D03*
X005832Y004802D03*
X005832Y003802D03*
X005832Y009802D03*
X005832Y010802D03*
X005832Y011802D03*
X005832Y012802D03*
X005832Y013802D03*
X005832Y014802D03*
X005832Y015802D03*
X005832Y016802D03*
X005832Y017802D03*
X005832Y018802D03*
X005832Y019802D03*
X005832Y020802D03*
X005832Y021802D03*
X005832Y022802D03*
X006832Y022802D03*
X006832Y021802D03*
X006832Y020802D03*
X006832Y019802D03*
X006832Y018802D03*
X006832Y017802D03*
X006832Y016802D03*
X006832Y015802D03*
X006832Y014802D03*
X006832Y013802D03*
X006832Y012802D03*
X006832Y011802D03*
X006832Y010802D03*
X006832Y009802D03*
X006832Y023802D03*
X006832Y024802D03*
X006832Y025802D03*
X006832Y026802D03*
X006832Y027802D03*
X006832Y028802D03*
X005832Y028802D03*
X005832Y027802D03*
X005832Y026802D03*
X005832Y025802D03*
X005832Y024802D03*
X005832Y023802D03*
D20*
X036398Y004078D03*
X036398Y003160D03*
D21*
X035655Y003074D03*
X035655Y003822D03*
D22*
X025745Y006541D03*
X024877Y006050D03*
X024047Y006729D03*
X024638Y004691D03*
D23*
X024638Y004704D03*
X024915Y006629D03*
X025695Y006717D03*
D24*
X025550Y006956D03*
X025550Y006981D03*
X024645Y004717D03*
D25*
X024645Y004729D03*
D26*
X024638Y004742D03*
D27*
X024645Y004754D03*
D28*
X024638Y004767D03*
D29*
X024645Y004780D03*
D30*
X024645Y004792D03*
D31*
X024645Y004805D03*
D32*
X024638Y004817D03*
D33*
X024645Y004830D03*
D34*
X024638Y004842D03*
D35*
X024638Y004855D03*
D36*
X024645Y004868D03*
D37*
X024645Y004880D03*
D38*
X024645Y004893D03*
D39*
X024645Y004905D03*
D40*
X024645Y004918D03*
D41*
X024638Y004930D03*
D42*
X024638Y004943D03*
D43*
X024645Y004956D03*
D44*
X024645Y004968D03*
D45*
X024638Y004981D03*
D46*
X024645Y004993D03*
D47*
X024638Y005006D03*
D48*
X024645Y005019D03*
D49*
X024638Y005031D03*
D50*
X024645Y005044D03*
D51*
X024638Y005056D03*
D52*
X024645Y005069D03*
D53*
X024645Y005081D03*
D54*
X024638Y005094D03*
D55*
X024638Y005107D03*
D56*
X024645Y005119D03*
D57*
X024645Y005132D03*
D58*
X024638Y005144D03*
D59*
X024638Y005157D03*
D60*
X024638Y005169D03*
D61*
X024645Y005182D03*
D62*
X024645Y005195D03*
D63*
X024645Y005207D03*
D64*
X024645Y005220D03*
D65*
X024645Y005232D03*
D66*
X024645Y005245D03*
D67*
X024645Y005258D03*
D68*
X024645Y005270D03*
D69*
X024645Y005283D03*
D70*
X024645Y005295D03*
D71*
X024645Y005308D03*
D72*
X024645Y005320D03*
D73*
X024645Y005333D03*
D74*
X024645Y005346D03*
D75*
X024638Y005358D03*
X024638Y007962D03*
D76*
X024638Y005371D03*
D77*
X024638Y005383D03*
D78*
X024638Y005396D03*
D79*
X024645Y005408D03*
D80*
X024645Y005421D03*
D81*
X024638Y005434D03*
X024638Y007886D03*
D82*
X024638Y005446D03*
D83*
X024638Y005459D03*
D84*
X024645Y005471D03*
D85*
X024645Y005484D03*
D86*
X024638Y005497D03*
D87*
X024645Y005509D03*
X024645Y007811D03*
D88*
X024645Y005522D03*
D89*
X024638Y005534D03*
X024638Y007786D03*
D90*
X024638Y005547D03*
D91*
X024645Y005559D03*
D92*
X024638Y005572D03*
X024638Y007748D03*
D93*
X024638Y005585D03*
D94*
X024645Y005597D03*
D95*
X024638Y005610D03*
D96*
X024645Y005622D03*
X024645Y007698D03*
D97*
X024645Y005635D03*
D98*
X024638Y005647D03*
D99*
X024645Y005660D03*
D100*
X024638Y005673D03*
X024638Y007647D03*
D101*
X024645Y007635D03*
X024645Y005685D03*
D102*
X024638Y005698D03*
X024638Y007622D03*
D103*
X024645Y007610D03*
X024645Y005710D03*
D104*
X024645Y005723D03*
D105*
X024638Y005735D03*
D106*
X024645Y005748D03*
D107*
X024638Y005761D03*
D108*
X024645Y005773D03*
D109*
X024638Y005786D03*
D110*
X024645Y005798D03*
D111*
X024638Y005811D03*
D112*
X024645Y005824D03*
D113*
X024645Y005836D03*
X024645Y007484D03*
D114*
X024638Y007471D03*
X024638Y005849D03*
D115*
X024645Y005861D03*
X024645Y007459D03*
D116*
X024638Y007446D03*
X024638Y005874D03*
D117*
X024645Y005886D03*
X024645Y007434D03*
D118*
X024638Y005899D03*
D119*
X024645Y005912D03*
D120*
X024645Y005924D03*
X024645Y007396D03*
D121*
X024651Y006943D03*
X023984Y007358D03*
X023129Y005937D03*
X025582Y006868D03*
D122*
X023972Y005937D03*
D123*
X024865Y005937D03*
D124*
X025915Y005937D03*
D125*
X025676Y006754D03*
X023978Y007346D03*
X023097Y005949D03*
D126*
X023978Y005949D03*
D127*
X024204Y006440D03*
X024720Y006855D03*
X024657Y006930D03*
X024645Y006956D03*
X025034Y006541D03*
X025047Y006465D03*
X025110Y006390D03*
X025123Y006364D03*
X024871Y005949D03*
X025588Y006855D03*
X024645Y008603D03*
D128*
X025953Y007371D03*
X025953Y005949D03*
D129*
X024871Y005962D03*
X024997Y006553D03*
X024770Y006767D03*
X023085Y007358D03*
X023072Y005962D03*
D130*
X023978Y005962D03*
X024733Y006817D03*
X025072Y006452D03*
D131*
X025689Y005962D03*
X026355Y006251D03*
X026355Y006276D03*
X026355Y007018D03*
X026355Y007044D03*
X026355Y007069D03*
X023978Y006012D03*
X022972Y006088D03*
X022972Y006100D03*
X022959Y006125D03*
X022934Y006226D03*
X022921Y006276D03*
X022921Y006302D03*
X022921Y006327D03*
X022921Y006993D03*
X022921Y007018D03*
X022921Y007044D03*
X022934Y007094D03*
X022947Y007144D03*
X022959Y007195D03*
X022972Y007220D03*
D132*
X026311Y007358D03*
X026311Y005962D03*
D133*
X026349Y006641D03*
X026349Y006679D03*
X023053Y005974D03*
D134*
X023978Y005974D03*
X024783Y006754D03*
X024758Y006779D03*
X024984Y006566D03*
X025689Y006729D03*
D135*
X024871Y005974D03*
X023035Y007320D03*
X022934Y006641D03*
D136*
X024091Y006641D03*
X023978Y006025D03*
X025701Y005974D03*
X026343Y006138D03*
X026343Y006163D03*
X025764Y006591D03*
X026343Y007157D03*
D137*
X026318Y007320D03*
X026318Y006000D03*
X026318Y005974D03*
X023978Y006050D03*
D138*
X023978Y005987D03*
X024141Y006553D03*
X023047Y005987D03*
X022934Y006691D03*
X023047Y007333D03*
X026355Y006691D03*
X026355Y006629D03*
D139*
X026374Y006603D03*
X026374Y006578D03*
X026374Y006553D03*
X026374Y006528D03*
X026374Y006503D03*
X026374Y006717D03*
X026374Y006742D03*
X026374Y006767D03*
X026374Y006792D03*
X026374Y006817D03*
X024877Y005987D03*
X023003Y006037D03*
X023003Y007283D03*
D140*
X024079Y006666D03*
X023978Y006037D03*
X025714Y005987D03*
X026330Y006063D03*
X026330Y006088D03*
X025714Y006629D03*
X026330Y007232D03*
X026330Y007257D03*
D141*
X026318Y007308D03*
X026318Y007333D03*
X025726Y007308D03*
X025764Y006553D03*
X026318Y005987D03*
X024066Y006691D03*
X023978Y007257D03*
D142*
X024135Y006566D03*
X023028Y006000D03*
D143*
X023984Y006000D03*
X026374Y006515D03*
X026374Y006541D03*
X026374Y006566D03*
X026374Y006591D03*
X026374Y006616D03*
X026374Y006729D03*
X026374Y006754D03*
X026374Y006779D03*
X026374Y006805D03*
D144*
X025695Y007346D03*
X024877Y006000D03*
X022940Y006188D03*
X022940Y007132D03*
D145*
X024072Y006679D03*
X024877Y006025D03*
X025720Y006000D03*
X025720Y006616D03*
D146*
X024129Y006578D03*
X023022Y006012D03*
X023022Y007308D03*
D147*
X023984Y007283D03*
X024085Y006654D03*
X024877Y006012D03*
X025707Y007333D03*
D148*
X025733Y006012D03*
X024877Y006037D03*
X023984Y006063D03*
D149*
X026324Y006037D03*
X026324Y006012D03*
X026324Y007283D03*
D150*
X025670Y006704D03*
X024123Y006591D03*
X023016Y006025D03*
X023016Y007295D03*
D151*
X023475Y006729D03*
X023475Y006591D03*
X023978Y007245D03*
X024796Y007031D03*
X024871Y007270D03*
X025739Y007270D03*
X025739Y006025D03*
D152*
X026324Y006025D03*
X026324Y007270D03*
X026324Y007295D03*
X023984Y007270D03*
D153*
X023481Y006717D03*
X025745Y007257D03*
X025745Y006037D03*
D154*
X026368Y006390D03*
X026368Y006415D03*
X026368Y006440D03*
X026368Y006465D03*
X026368Y006490D03*
X026368Y006830D03*
X026368Y006855D03*
X026368Y006880D03*
X026368Y006905D03*
X026368Y006930D03*
X022997Y007270D03*
X022909Y006880D03*
X022909Y006855D03*
X022909Y006830D03*
X022909Y006805D03*
X022909Y006779D03*
X022909Y006754D03*
X022909Y006729D03*
X022909Y006704D03*
X022909Y006616D03*
X022909Y006591D03*
X022909Y006566D03*
X022909Y006541D03*
X022909Y006515D03*
X022909Y006490D03*
X022909Y006465D03*
X022909Y006440D03*
X022997Y006050D03*
D155*
X024959Y006339D03*
X025751Y006515D03*
X025751Y006050D03*
X025751Y007245D03*
D156*
X025714Y007320D03*
X026330Y007245D03*
X024871Y007295D03*
X026330Y006075D03*
X026330Y006050D03*
D157*
X026362Y006302D03*
X026362Y006327D03*
X026362Y006352D03*
X026362Y006377D03*
X026362Y006943D03*
X026362Y006968D03*
X026362Y006993D03*
X022991Y007257D03*
X022915Y006968D03*
X022915Y006943D03*
X022915Y006918D03*
X022915Y006893D03*
X022915Y006402D03*
X022915Y006377D03*
X022915Y006352D03*
X022991Y006063D03*
D158*
X023984Y006100D03*
X024437Y006302D03*
X024035Y006767D03*
X024035Y006792D03*
X024035Y006817D03*
X024035Y006842D03*
X023984Y007220D03*
X024877Y006063D03*
X025758Y006063D03*
X025758Y007220D03*
X025758Y007232D03*
D159*
X024877Y007320D03*
X022978Y007245D03*
X022978Y006075D03*
D160*
X023984Y006075D03*
D161*
X024877Y006075D03*
X025770Y006113D03*
X025770Y006465D03*
X025770Y007182D03*
D162*
X024877Y007245D03*
X024035Y006830D03*
X024035Y006805D03*
X024035Y006754D03*
X024437Y006289D03*
X025758Y006075D03*
D163*
X025751Y006528D03*
X024041Y006742D03*
X023978Y007232D03*
X023978Y006088D03*
D164*
X023978Y006125D03*
X024016Y006327D03*
X024443Y006226D03*
X024884Y006088D03*
X025777Y006125D03*
X025777Y006452D03*
X025777Y007119D03*
X025777Y007144D03*
X025311Y007069D03*
X025311Y007044D03*
X024443Y007044D03*
X023978Y007169D03*
X023513Y007094D03*
X023513Y007069D03*
X023513Y007044D03*
X023513Y007018D03*
X023513Y006993D03*
X023513Y006968D03*
X023513Y006943D03*
X023513Y006918D03*
X023513Y006893D03*
X023513Y006868D03*
X023513Y006842D03*
X023513Y006691D03*
X023513Y006666D03*
X023513Y006654D03*
X023513Y006629D03*
X023513Y006578D03*
X023513Y006503D03*
X023513Y006478D03*
X023513Y006452D03*
X023513Y006427D03*
X023513Y006402D03*
X023513Y006377D03*
X023513Y006352D03*
X023513Y006327D03*
X023513Y006302D03*
X023513Y006276D03*
X023513Y006251D03*
X023513Y006226D03*
D165*
X023525Y006528D03*
X023525Y006817D03*
X024431Y006327D03*
X025311Y006302D03*
X025311Y006276D03*
X025764Y006088D03*
X025764Y006503D03*
X025764Y007044D03*
X025764Y007195D03*
X024871Y007232D03*
D166*
X024437Y007094D03*
X024437Y007069D03*
X024450Y006201D03*
X024877Y006100D03*
X025318Y006201D03*
X025783Y006176D03*
X025783Y006151D03*
X025783Y006402D03*
X025783Y006427D03*
X025783Y007069D03*
X025783Y007094D03*
D167*
X025770Y007169D03*
X025770Y006478D03*
X025770Y006100D03*
D168*
X026336Y006100D03*
X026336Y006125D03*
X025770Y006578D03*
X026336Y007195D03*
X026336Y007220D03*
D169*
X026355Y007056D03*
X026355Y007031D03*
X025689Y006679D03*
X026355Y006289D03*
X026355Y006264D03*
X026355Y006239D03*
X024104Y006616D03*
X022921Y006314D03*
X022921Y006289D03*
X022934Y006213D03*
X022947Y006163D03*
X022959Y006113D03*
X022921Y006981D03*
X022921Y007006D03*
X022921Y007031D03*
X022934Y007107D03*
X022947Y007157D03*
X022959Y007182D03*
X022972Y007207D03*
D170*
X023525Y006805D03*
X023525Y006541D03*
X023525Y006515D03*
X024028Y006779D03*
X024431Y006339D03*
X024431Y006314D03*
X023978Y006113D03*
X023978Y007207D03*
X025299Y006339D03*
X025311Y006314D03*
X025311Y006289D03*
X025311Y006264D03*
X025764Y006490D03*
X025764Y007207D03*
D171*
X025795Y006314D03*
X025795Y006289D03*
X025795Y006264D03*
X024877Y006113D03*
X023997Y006905D03*
X023506Y007132D03*
D172*
X025770Y006566D03*
X026336Y006113D03*
X026336Y007182D03*
X026336Y007207D03*
D173*
X025305Y007119D03*
X024852Y007044D03*
X024437Y007119D03*
X023997Y006918D03*
X023997Y006893D03*
X024915Y006327D03*
X024877Y006125D03*
X025795Y006276D03*
X025795Y006302D03*
D174*
X026349Y006213D03*
X026349Y006188D03*
X026349Y007081D03*
X026349Y007107D03*
X026349Y007132D03*
X023984Y007295D03*
X022928Y007081D03*
X022928Y007056D03*
X022928Y006264D03*
X022928Y006239D03*
X022953Y006138D03*
D175*
X023513Y006138D03*
D176*
X023513Y006213D03*
X023513Y006239D03*
X023513Y006264D03*
X023513Y006289D03*
X023513Y006314D03*
X023513Y006339D03*
X023513Y006364D03*
X023513Y006390D03*
X023513Y006415D03*
X023513Y006440D03*
X023513Y006465D03*
X023513Y006490D03*
X023513Y006616D03*
X023513Y006641D03*
X023513Y006679D03*
X023513Y006704D03*
X023513Y006754D03*
X023513Y006830D03*
X023513Y006855D03*
X023513Y006880D03*
X023513Y006905D03*
X023513Y006930D03*
X023513Y006956D03*
X023513Y006981D03*
X023513Y007006D03*
X023513Y007031D03*
X023513Y007056D03*
X023513Y007081D03*
X023978Y007182D03*
X024443Y007031D03*
X024443Y006213D03*
X023978Y006138D03*
X025324Y006213D03*
X025777Y006138D03*
X025777Y006440D03*
X025777Y007132D03*
X025777Y007157D03*
X025311Y007056D03*
X025311Y007031D03*
D177*
X024443Y006138D03*
D178*
X023972Y006239D03*
X023972Y006264D03*
X023984Y006981D03*
X023984Y007006D03*
X023984Y007031D03*
X024877Y007132D03*
X024877Y006138D03*
D179*
X025318Y006138D03*
D180*
X025758Y006603D03*
X026349Y006226D03*
X026349Y006201D03*
X026349Y007094D03*
X026349Y007119D03*
X022953Y007169D03*
X022928Y007069D03*
X022928Y006251D03*
X022953Y006151D03*
D181*
X023513Y006151D03*
X024443Y006151D03*
D182*
X023978Y006151D03*
X023978Y006176D03*
X024003Y006868D03*
X023978Y007144D03*
X023513Y007119D03*
X024871Y007195D03*
X025311Y007094D03*
X025789Y006377D03*
X025789Y006352D03*
X025789Y006327D03*
X025789Y006251D03*
X025789Y006226D03*
X025789Y006201D03*
D183*
X024877Y006151D03*
X023972Y006226D03*
X023972Y006251D03*
X023984Y006993D03*
X023984Y007018D03*
X023984Y007044D03*
D184*
X024877Y006251D03*
X024877Y006226D03*
X025318Y006151D03*
D185*
X025701Y006654D03*
X026343Y007144D03*
X026343Y007169D03*
X026343Y006176D03*
X026343Y006151D03*
D186*
X025305Y007132D03*
X023506Y006163D03*
D187*
X023513Y006188D03*
X023978Y006163D03*
X024003Y006855D03*
X024003Y006880D03*
X023978Y007132D03*
X024431Y007107D03*
X024871Y007182D03*
X025311Y007107D03*
X025789Y006390D03*
X025789Y006364D03*
X025789Y006339D03*
X025789Y006239D03*
X025789Y006213D03*
X025789Y006188D03*
X025324Y006188D03*
D188*
X025324Y006163D03*
X024884Y006163D03*
X024443Y006163D03*
X023978Y006289D03*
D189*
X023984Y007157D03*
X024437Y007081D03*
X024437Y007056D03*
X025783Y007056D03*
X025783Y007081D03*
X025783Y007107D03*
X025783Y006415D03*
X025783Y006163D03*
D190*
X025695Y006666D03*
X024097Y006629D03*
X022940Y006201D03*
X022940Y006176D03*
X022940Y007119D03*
D191*
X023513Y007144D03*
X023978Y007069D03*
X023990Y006968D03*
X023990Y006943D03*
X023978Y006201D03*
X024443Y006176D03*
X023513Y006176D03*
X025324Y006176D03*
D192*
X024877Y006176D03*
X024877Y006201D03*
X024877Y007069D03*
X023972Y006302D03*
D193*
X023978Y006213D03*
X023978Y006188D03*
X023990Y006930D03*
X023990Y006956D03*
X023978Y007056D03*
X023978Y007081D03*
D194*
X024443Y006188D03*
D195*
X023972Y006314D03*
X024877Y006188D03*
X024877Y007056D03*
X024877Y007081D03*
D196*
X023506Y006201D03*
D197*
X024877Y006213D03*
X024877Y006239D03*
D198*
X025318Y006251D03*
X025318Y006226D03*
X023984Y007195D03*
D199*
X024443Y006264D03*
X024443Y006239D03*
D200*
X025318Y006239D03*
D201*
X024443Y006251D03*
X024443Y006276D03*
D202*
X024871Y006264D03*
X024871Y006289D03*
X024871Y006314D03*
D203*
X023978Y006276D03*
D204*
X023513Y007169D03*
X024871Y006302D03*
X024871Y006276D03*
D205*
X026362Y006314D03*
X026362Y006339D03*
X026362Y006364D03*
X026362Y006956D03*
X026362Y006981D03*
X026362Y007006D03*
X022915Y006956D03*
X022915Y006930D03*
X022915Y006905D03*
X022915Y006415D03*
X022915Y006390D03*
X022915Y006364D03*
X022915Y006339D03*
D206*
X023531Y006553D03*
X023531Y006767D03*
X023531Y006792D03*
X025305Y006327D03*
D207*
X025733Y007295D03*
X024060Y006704D03*
X024060Y006339D03*
D208*
X024229Y006352D03*
X025563Y006918D03*
D209*
X025110Y006377D03*
X025123Y006352D03*
X024645Y006968D03*
X024204Y006427D03*
D210*
X024223Y006364D03*
X025569Y006905D03*
D211*
X025569Y006893D03*
X024223Y006377D03*
D212*
X024217Y006390D03*
X025575Y006880D03*
D213*
X024217Y006402D03*
D214*
X024198Y006452D03*
X024663Y006918D03*
X025104Y006402D03*
X025594Y006792D03*
X025594Y006817D03*
X025594Y006842D03*
D215*
X026368Y006842D03*
X026368Y006868D03*
X026368Y006893D03*
X026368Y006918D03*
X026368Y006478D03*
X026368Y006452D03*
X026368Y006427D03*
X026368Y006402D03*
X024116Y006603D03*
X023978Y007308D03*
X022909Y006868D03*
X022909Y006842D03*
X022909Y006817D03*
X022909Y006792D03*
X022909Y006767D03*
X022909Y006742D03*
X022909Y006717D03*
X022909Y006629D03*
X022909Y006603D03*
X022909Y006578D03*
X022909Y006553D03*
X022909Y006528D03*
X022909Y006503D03*
X022909Y006478D03*
X022909Y006452D03*
X022909Y006427D03*
X024645Y008616D03*
D216*
X024211Y006415D03*
D217*
X024663Y006905D03*
X025104Y006415D03*
X025594Y006805D03*
X025594Y006830D03*
D218*
X025041Y006528D03*
X025041Y006503D03*
X025041Y006478D03*
X025091Y006427D03*
X024726Y006842D03*
X024676Y006893D03*
D219*
X024682Y006880D03*
X024733Y006830D03*
X024733Y006805D03*
X025085Y006440D03*
X025613Y006779D03*
X024192Y006465D03*
X023110Y007371D03*
D220*
X023248Y006704D03*
X023248Y006616D03*
X023739Y006541D03*
X023739Y006515D03*
X023840Y006515D03*
X023840Y006541D03*
X023840Y006779D03*
X023840Y006805D03*
X023840Y006830D03*
X023739Y006805D03*
X024255Y006805D03*
X024255Y006830D03*
X024255Y006855D03*
X024355Y006855D03*
X024355Y006830D03*
X024355Y006805D03*
X024557Y006515D03*
X024557Y006490D03*
X024557Y006465D03*
D221*
X024657Y006465D03*
X024657Y006490D03*
X024657Y006515D03*
X025110Y006805D03*
X025110Y006830D03*
X025211Y006830D03*
X025211Y006805D03*
X025424Y006541D03*
X025424Y006515D03*
X025525Y006515D03*
X025525Y006541D03*
X026041Y006591D03*
X026041Y006729D03*
X023336Y006754D03*
X023336Y006566D03*
D222*
X024185Y006528D03*
X024185Y006503D03*
X024185Y006478D03*
X024877Y007358D03*
D223*
X024355Y006842D03*
X024355Y006817D03*
X024255Y006817D03*
X024255Y006842D03*
X023840Y006817D03*
X023840Y006792D03*
X023739Y006817D03*
X023739Y006553D03*
X023739Y006528D03*
X023739Y006503D03*
X023840Y006503D03*
X023840Y006528D03*
X023840Y006553D03*
X023248Y006629D03*
X023248Y006691D03*
X023248Y006717D03*
X024557Y006503D03*
X024557Y006478D03*
X026028Y006629D03*
D224*
X026041Y006742D03*
X025525Y006553D03*
X025525Y006528D03*
X025525Y006503D03*
X025424Y006503D03*
X025424Y006528D03*
X025424Y006553D03*
X025211Y006792D03*
X025211Y006817D03*
X025211Y006842D03*
X025110Y006842D03*
X025110Y006817D03*
X025110Y006792D03*
X024657Y006503D03*
X024657Y006478D03*
X023752Y006767D03*
X023336Y006767D03*
X023336Y006578D03*
D225*
X023167Y006704D03*
X023858Y006490D03*
X025406Y006490D03*
X026022Y006754D03*
D226*
X024185Y006515D03*
X024185Y006490D03*
D227*
X025041Y006490D03*
X025041Y006515D03*
D228*
X024544Y006528D03*
D229*
X024808Y006729D03*
X024833Y006704D03*
X024858Y006679D03*
X024154Y006541D03*
X024884Y007346D03*
X023060Y007346D03*
D230*
X023349Y006553D03*
X026028Y006578D03*
D231*
X023531Y006566D03*
X023531Y006779D03*
D232*
X023255Y006578D03*
X023167Y006629D03*
D233*
X024802Y006742D03*
X024940Y006603D03*
X024965Y006578D03*
D234*
X026034Y006616D03*
X026034Y006704D03*
X023745Y006779D03*
X023242Y006729D03*
X023242Y006591D03*
D235*
X024953Y006591D03*
D236*
X026034Y006603D03*
X026034Y006717D03*
X023745Y006792D03*
X023242Y006603D03*
D237*
X023475Y006603D03*
X023475Y006742D03*
X024053Y006717D03*
X025739Y007283D03*
D238*
X026041Y006641D03*
X023336Y006616D03*
D239*
X024902Y006641D03*
X024928Y006616D03*
D240*
X025953Y006616D03*
D241*
X023242Y006641D03*
D242*
X025707Y006641D03*
X025707Y007031D03*
D243*
X022940Y006666D03*
X022940Y006654D03*
D244*
X023978Y007333D03*
X024821Y006717D03*
X024846Y006691D03*
X024871Y006666D03*
X024884Y006654D03*
X026343Y006666D03*
D245*
X026349Y006654D03*
D246*
X022940Y006679D03*
D247*
X022978Y007232D03*
X025682Y007358D03*
X025682Y006691D03*
D248*
X026034Y006691D03*
X023242Y006742D03*
D249*
X026362Y006704D03*
D250*
X025682Y006742D03*
X024752Y006792D03*
D251*
X023362Y006779D03*
X023261Y006754D03*
D252*
X024689Y006868D03*
X025670Y006767D03*
D253*
X025557Y006930D03*
D254*
X025557Y006943D03*
D255*
X025550Y006968D03*
D256*
X024638Y006981D03*
X024638Y007006D03*
D257*
X024638Y007018D03*
X024638Y006993D03*
D258*
X025544Y006993D03*
X025544Y007018D03*
D259*
X025544Y007006D03*
D260*
X025305Y007081D03*
X023506Y007107D03*
D261*
X023984Y007119D03*
X023984Y007094D03*
D262*
X024431Y007144D03*
X024871Y007119D03*
X024871Y007094D03*
X025311Y007144D03*
D263*
X023984Y007107D03*
D264*
X023513Y007157D03*
X024871Y007107D03*
D265*
X024871Y007157D03*
X024431Y007132D03*
D266*
X024871Y007144D03*
X024871Y007169D03*
D267*
X025311Y007157D03*
X024431Y007157D03*
D268*
X024431Y007169D03*
D269*
X025305Y007169D03*
D270*
X024871Y007207D03*
D271*
X024871Y007220D03*
D272*
X024871Y007257D03*
D273*
X024871Y007283D03*
D274*
X024871Y007308D03*
D275*
X023978Y007320D03*
D276*
X024877Y007333D03*
D277*
X026311Y007346D03*
D278*
X023984Y007371D03*
D279*
X024884Y007371D03*
D280*
X024638Y007383D03*
D281*
X024638Y007408D03*
D282*
X024645Y007421D03*
D283*
X024638Y007496D03*
D284*
X024645Y007509D03*
D285*
X024638Y007522D03*
D286*
X024645Y007534D03*
D287*
X024638Y007547D03*
D288*
X024645Y007559D03*
D289*
X024638Y007572D03*
D290*
X024645Y007585D03*
D291*
X024638Y007597D03*
D292*
X024638Y007660D03*
D293*
X024645Y007673D03*
D294*
X024638Y007685D03*
D295*
X024645Y007710D03*
D296*
X024638Y007723D03*
D297*
X024645Y007735D03*
D298*
X024638Y007761D03*
D299*
X024645Y007773D03*
D300*
X024638Y007798D03*
D301*
X024645Y007823D03*
D302*
X024638Y007836D03*
D303*
X024638Y007849D03*
D304*
X024645Y007861D03*
D305*
X024645Y007874D03*
D306*
X024638Y007899D03*
D307*
X024638Y007912D03*
D308*
X024645Y007924D03*
D309*
X024645Y007937D03*
D310*
X024645Y007949D03*
D311*
X024638Y007974D03*
D312*
X024638Y007987D03*
D313*
X024638Y008000D03*
D314*
X024638Y008012D03*
D315*
X024638Y008025D03*
D316*
X024638Y008037D03*
D317*
X024638Y008050D03*
D318*
X024638Y008062D03*
D319*
X024638Y008075D03*
D320*
X024638Y008088D03*
D321*
X024638Y008100D03*
D322*
X024638Y008113D03*
D323*
X024638Y008125D03*
D324*
X024638Y008138D03*
D325*
X024645Y008151D03*
D326*
X024645Y008163D03*
D327*
X024645Y008176D03*
D328*
X024638Y008188D03*
D329*
X024638Y008201D03*
D330*
X024645Y008213D03*
D331*
X024645Y008226D03*
D332*
X024638Y008239D03*
D333*
X024645Y008251D03*
D334*
X024638Y008264D03*
D335*
X024638Y008276D03*
D336*
X024645Y008289D03*
D337*
X024638Y008301D03*
D338*
X024645Y008314D03*
D339*
X024645Y008327D03*
D340*
X024638Y008339D03*
D341*
X024645Y008352D03*
D342*
X024638Y008364D03*
D343*
X024638Y008377D03*
D344*
X024638Y008390D03*
D345*
X024645Y008402D03*
D346*
X024645Y008415D03*
D347*
X024645Y008427D03*
D348*
X024645Y008440D03*
D349*
X024638Y008452D03*
D350*
X024638Y008465D03*
D351*
X024645Y008478D03*
D352*
X024638Y008490D03*
D353*
X024645Y008503D03*
D354*
X024638Y008515D03*
D355*
X024638Y008528D03*
D356*
X024638Y008540D03*
D357*
X024645Y008553D03*
D358*
X024638Y008566D03*
D359*
X024638Y008578D03*
D360*
X024638Y008591D03*
D361*
X021661Y006631D03*
X017151Y006668D03*
X011120Y006701D03*
X011151Y008660D03*
X011160Y025895D03*
D362*
X005601Y006035D02*
X005601Y004535D01*
X008151Y004535D01*
X008151Y006035D01*
X005601Y006035D01*
X005601Y005972D02*
X008151Y005972D01*
X008151Y005873D02*
X005601Y005873D01*
X005601Y005775D02*
X008151Y005775D01*
X008151Y005676D02*
X005601Y005676D01*
X005601Y005578D02*
X008151Y005578D01*
X008151Y005479D02*
X005601Y005479D01*
X005601Y005381D02*
X008151Y005381D01*
X008151Y005282D02*
X005601Y005282D01*
X005601Y005184D02*
X008151Y005184D01*
X008151Y005085D02*
X005601Y005085D01*
X005601Y004987D02*
X008151Y004987D01*
X008151Y004888D02*
X005601Y004888D01*
X005601Y004790D02*
X008151Y004790D01*
X008151Y004691D02*
X005601Y004691D01*
X005601Y004593D02*
X008151Y004593D01*
X009119Y006574D02*
X005601Y006574D01*
X005601Y008098D01*
X009119Y008098D01*
X009119Y006574D01*
X009119Y006661D02*
X005601Y006661D01*
X005601Y006760D02*
X009119Y006760D01*
X009119Y006858D02*
X005601Y006858D01*
X005601Y006957D02*
X009119Y006957D01*
X009119Y007055D02*
X005601Y007055D01*
X005601Y007154D02*
X009119Y007154D01*
X009119Y007252D02*
X005601Y007252D01*
X005601Y007351D02*
X009119Y007351D01*
X009119Y007449D02*
X005601Y007449D01*
X005601Y007548D02*
X009119Y007548D01*
X009119Y007646D02*
X005601Y007646D01*
X005601Y007745D02*
X009119Y007745D01*
X009119Y007843D02*
X005601Y007843D01*
X005601Y007942D02*
X009119Y007942D01*
X009119Y008040D02*
X005601Y008040D01*
X005659Y008542D02*
X009119Y008542D01*
X009119Y009114D01*
X005659Y009114D01*
X005659Y008542D01*
X005659Y008631D02*
X009119Y008631D01*
X009119Y008730D02*
X005659Y008730D01*
X005659Y008828D02*
X009119Y008828D01*
X009119Y008927D02*
X005659Y008927D01*
X005659Y009025D02*
X009119Y009025D01*
X008307Y012593D02*
X008307Y014498D01*
X011759Y014498D01*
X011759Y012593D01*
X008307Y012593D01*
X008307Y012670D02*
X011759Y012670D01*
X011759Y012768D02*
X008307Y012768D01*
X008307Y012867D02*
X011759Y012867D01*
X011759Y012965D02*
X008307Y012965D01*
X008307Y013064D02*
X011759Y013064D01*
X011759Y013162D02*
X008307Y013162D01*
X008307Y013261D02*
X009399Y013261D01*
X009390Y013269D02*
X009490Y013169D01*
X010497Y013169D01*
X010596Y013269D01*
X010596Y014039D01*
X010497Y014139D01*
X009490Y014139D01*
X009390Y014039D01*
X009390Y013269D01*
X009390Y013359D02*
X008307Y013359D01*
X008307Y013458D02*
X009390Y013458D01*
X009390Y013556D02*
X008307Y013556D01*
X008307Y013655D02*
X009390Y013655D01*
X009390Y013753D02*
X008307Y013753D01*
X008307Y013852D02*
X009390Y013852D01*
X009390Y013950D02*
X008307Y013950D01*
X008307Y014049D02*
X009399Y014049D01*
X008307Y014147D02*
X011759Y014147D01*
X011759Y014049D02*
X010587Y014049D01*
X010596Y013950D02*
X011759Y013950D01*
X011759Y013852D02*
X010596Y013852D01*
X010596Y013753D02*
X011759Y013753D01*
X011759Y013655D02*
X010596Y013655D01*
X010596Y013556D02*
X011759Y013556D01*
X011759Y013458D02*
X010596Y013458D01*
X010596Y013359D02*
X011759Y013359D01*
X011759Y013261D02*
X010588Y013261D01*
X011759Y014246D02*
X008307Y014246D01*
X008307Y014344D02*
X011759Y014344D01*
X011759Y014443D02*
X008307Y014443D01*
X022867Y024861D02*
X024963Y024861D01*
X024963Y026640D01*
X022867Y026640D01*
X022867Y024861D01*
X022867Y024884D02*
X024963Y024884D01*
X024963Y024982D02*
X022867Y024982D01*
X022867Y025081D02*
X024963Y025081D01*
X024963Y025179D02*
X022867Y025179D01*
X022867Y025278D02*
X024963Y025278D01*
X024963Y025376D02*
X022867Y025376D01*
X022867Y025475D02*
X024963Y025475D01*
X024963Y025573D02*
X022867Y025573D01*
X022867Y025672D02*
X024963Y025672D01*
X024963Y025770D02*
X022867Y025770D01*
X022867Y025869D02*
X024963Y025869D01*
X024963Y025967D02*
X022867Y025967D01*
X022867Y026066D02*
X024963Y026066D01*
X024963Y026164D02*
X022867Y026164D01*
X022867Y026263D02*
X024963Y026263D01*
X024963Y026361D02*
X022867Y026361D01*
X022867Y026460D02*
X024963Y026460D01*
X024963Y026558D02*
X022867Y026558D01*
X029873Y020911D02*
X031651Y020911D01*
X031651Y018815D01*
X029873Y018815D01*
X029873Y020911D01*
X029873Y020845D02*
X031651Y020845D01*
X031651Y020747D02*
X029873Y020747D01*
X029873Y020648D02*
X031651Y020648D01*
X031651Y020550D02*
X029873Y020550D01*
X029873Y020451D02*
X031651Y020451D01*
X031651Y020353D02*
X029873Y020353D01*
X029873Y020254D02*
X031651Y020254D01*
X031651Y020156D02*
X029873Y020156D01*
X029873Y020057D02*
X031651Y020057D01*
X031651Y019959D02*
X029873Y019959D01*
X029873Y019860D02*
X031651Y019860D01*
X031651Y019762D02*
X029873Y019762D01*
X029873Y019663D02*
X031651Y019663D01*
X031651Y019565D02*
X029873Y019565D01*
X029873Y019466D02*
X031651Y019466D01*
X031651Y019368D02*
X029873Y019368D01*
X029873Y019269D02*
X031651Y019269D01*
X031651Y019171D02*
X029873Y019171D01*
X029873Y019072D02*
X031651Y019072D01*
X031651Y018974D02*
X029873Y018974D01*
X029873Y018875D02*
X031651Y018875D01*
X031651Y008411D02*
X029873Y008411D01*
X029873Y006315D01*
X031651Y006315D01*
X031651Y008411D01*
X031651Y008336D02*
X029873Y008336D01*
X029873Y008237D02*
X031651Y008237D01*
X031651Y008139D02*
X029873Y008139D01*
X029873Y008040D02*
X031651Y008040D01*
X031651Y007942D02*
X029873Y007942D01*
X029873Y007843D02*
X031651Y007843D01*
X031651Y007745D02*
X029873Y007745D01*
X029873Y007646D02*
X031651Y007646D01*
X031651Y007548D02*
X029873Y007548D01*
X029873Y007449D02*
X031651Y007449D01*
X031651Y007351D02*
X029873Y007351D01*
X029873Y007252D02*
X031651Y007252D01*
X031651Y007154D02*
X029873Y007154D01*
X029873Y007055D02*
X031651Y007055D01*
X031651Y006957D02*
X029873Y006957D01*
X029873Y006858D02*
X031651Y006858D01*
X031651Y006760D02*
X029873Y006760D01*
X029873Y006661D02*
X031651Y006661D01*
X031651Y006563D02*
X029873Y006563D01*
X029873Y006464D02*
X031651Y006464D01*
X031651Y006366D02*
X029873Y006366D01*
X034650Y005613D02*
X034650Y003835D01*
X036984Y003835D01*
X036984Y005613D01*
X034650Y005613D01*
X034650Y005578D02*
X036984Y005578D01*
X036984Y005479D02*
X034650Y005479D01*
X034650Y005381D02*
X036984Y005381D01*
X036984Y005282D02*
X034650Y005282D01*
X034650Y005184D02*
X036984Y005184D01*
X036984Y005085D02*
X034650Y005085D01*
X034650Y004987D02*
X036984Y004987D01*
X036984Y004888D02*
X034650Y004888D01*
X034650Y004790D02*
X036984Y004790D01*
X036984Y004691D02*
X034650Y004691D01*
X034650Y004593D02*
X036984Y004593D01*
X036984Y004494D02*
X034650Y004494D01*
X034650Y004396D02*
X036984Y004396D01*
X036984Y004297D02*
X034650Y004297D01*
X034650Y004199D02*
X036984Y004199D01*
X036984Y004100D02*
X034650Y004100D01*
X034650Y004002D02*
X036984Y004002D01*
X036984Y003903D02*
X034650Y003903D01*
X034651Y003160D02*
X036984Y003160D01*
X036984Y001341D01*
X036978Y001246D01*
X036929Y001061D01*
X036833Y000896D01*
X036698Y000761D01*
X036533Y000666D01*
X036349Y000616D01*
X036253Y000610D01*
X034651Y000610D01*
X034651Y003160D01*
X034651Y003115D02*
X036984Y003115D01*
X036984Y003017D02*
X034651Y003017D01*
X034651Y002918D02*
X036984Y002918D01*
X036984Y002820D02*
X034651Y002820D01*
X034651Y002721D02*
X036984Y002721D01*
X036984Y002623D02*
X034651Y002623D01*
X034651Y002524D02*
X036984Y002524D01*
X036984Y002426D02*
X034651Y002426D01*
X034651Y002327D02*
X036984Y002327D01*
X036984Y002229D02*
X034651Y002229D01*
X034651Y002130D02*
X036984Y002130D01*
X036984Y002032D02*
X034651Y002032D01*
X034651Y001933D02*
X036984Y001933D01*
X036984Y001835D02*
X034651Y001835D01*
X034651Y001736D02*
X036984Y001736D01*
X036984Y001638D02*
X034651Y001638D01*
X034651Y001539D02*
X036984Y001539D01*
X036984Y001441D02*
X034651Y001441D01*
X034651Y001342D02*
X036984Y001342D01*
X036978Y001244D02*
X034651Y001244D01*
X034651Y001145D02*
X036951Y001145D01*
X036920Y001047D02*
X034651Y001047D01*
X034651Y000948D02*
X036863Y000948D01*
X036787Y000850D02*
X034651Y000850D01*
X034651Y000751D02*
X036681Y000751D01*
X036484Y000653D02*
X034651Y000653D01*
X034202Y001187D02*
X034389Y001562D01*
X033952Y001562D01*
X033764Y001187D01*
X033952Y001562D02*
X033514Y001562D01*
X033327Y001187D01*
X033952Y001625D02*
X033952Y002375D01*
D363*
X021391Y013447D02*
X021391Y024274D01*
X021391Y013447D02*
X014377Y006434D01*
X013745Y005802D01*
X013025Y005081D01*
X007612Y005081D01*
D364*
X006627Y005081D01*
X006832Y006802D02*
X011009Y006802D01*
X011151Y006660D01*
X011151Y006671D01*
X011120Y006701D01*
X011151Y008660D02*
X011009Y008802D01*
X006832Y008802D01*
X014377Y006434D02*
X014612Y006668D01*
X017151Y006668D01*
X011398Y017532D02*
X008694Y017532D01*
X008694Y018024D02*
X011787Y018024D01*
X011838Y017973D01*
X011398Y017532D01*
X011838Y017973D02*
X011901Y017910D01*
X019570Y025111D02*
X019915Y024766D01*
X020407Y024274D01*
X021391Y024274D01*
X021440Y024323D01*
X021391Y024274D02*
X020407Y025258D01*
X020062Y025603D01*
X020062Y026932D01*
X019570Y026932D02*
X019570Y025111D01*
X011160Y025895D02*
X008385Y025895D01*
X008151Y025660D01*
X030249Y024323D02*
X030741Y023831D01*
X031923Y023831D01*
X031923Y024323D02*
X030249Y024323D01*
X030987Y011725D02*
X031923Y011725D01*
X031923Y011233D02*
X030987Y011233D01*
X030741Y011479D01*
D365*
X030249Y024323D02*
X021440Y024323D01*
X021391Y024274D01*
D366*
X016928Y017910D02*
X021391Y013447D01*
X023113Y011725D01*
X030741Y011725D01*
X030987Y011725D01*
X016928Y017910D02*
X011901Y017910D01*
D367*
X011263Y016548D02*
X012651Y015160D01*
X012651Y012910D01*
X012651Y011910D02*
X012543Y011802D01*
X006832Y011802D01*
X006675Y011273D02*
X006303Y011273D01*
X005832Y010802D01*
X005651Y010160D02*
X005151Y010160D01*
X004651Y010660D01*
X004651Y013160D01*
X003776Y014035D01*
X003776Y016285D01*
X004039Y016548D01*
X004363Y016548D01*
X004363Y017040D02*
X004352Y017051D01*
X003944Y017051D01*
X003754Y017242D01*
X003754Y018385D01*
X003944Y018575D01*
X003944Y018575D01*
X004706Y019337D01*
X006230Y019337D01*
X006357Y019464D01*
X006357Y025115D01*
X005832Y025641D01*
X005832Y025802D01*
X009151Y020660D02*
X009651Y020660D01*
X011151Y020660D01*
X017151Y026660D01*
X017651Y026660D02*
X011651Y020660D01*
X011151Y020160D01*
X010151Y020160D01*
X008683Y018035D02*
X008651Y018035D01*
X007776Y018035D01*
X007526Y018285D01*
X005276Y018285D01*
X005015Y018024D01*
X004363Y018024D01*
X004363Y017532D02*
X005029Y017532D01*
X005276Y017285D01*
X007526Y017285D01*
X007776Y017535D01*
X008691Y017535D01*
X008694Y017532D01*
X008694Y018024D02*
X008683Y018035D01*
X008694Y016548D02*
X011263Y016548D01*
X010651Y015660D02*
X010554Y015564D01*
X008694Y015564D01*
X007997Y015564D01*
X007651Y015910D01*
X007276Y016285D01*
X005276Y016285D01*
X005151Y016160D01*
X004554Y015564D01*
X004363Y015564D01*
X004363Y015071D02*
X004812Y015071D01*
X005026Y015285D01*
X007651Y015285D01*
X007776Y015160D01*
X007864Y015071D01*
X008694Y015071D01*
X010049Y015071D01*
X010151Y015160D01*
X008506Y013305D02*
X008651Y013160D01*
X008506Y013305D02*
X005024Y013305D01*
X004363Y013965D01*
X004363Y014579D01*
X006294Y012289D02*
X016279Y012289D01*
X018716Y014725D01*
X019651Y014160D02*
X016763Y011273D01*
X015945Y011273D01*
X006675Y011273D01*
X006832Y010802D02*
X006974Y010660D01*
X017151Y010660D01*
X018151Y011660D01*
X019651Y013160D01*
X022247Y010256D02*
X022151Y010160D01*
X022247Y010256D02*
X031948Y010256D01*
X031930Y010256D01*
X031923Y010249D01*
X033239Y010249D01*
X033651Y010660D01*
X033151Y009285D02*
X033130Y009264D01*
X031923Y009264D01*
X031923Y008772D02*
X033263Y008772D01*
X033651Y009160D01*
X022401Y018160D02*
X022401Y021660D01*
X023526Y022785D01*
X023588Y022847D01*
X031923Y022847D01*
X031923Y021863D02*
X032729Y021863D01*
X032776Y021910D01*
X031923Y021371D02*
X033987Y021371D01*
X034151Y021535D01*
X022776Y029160D02*
X022523Y028907D01*
X022523Y026932D01*
X022031Y026932D02*
X022031Y027780D01*
X022026Y027785D01*
X021047Y027764D02*
X021047Y026932D01*
X021047Y027764D02*
X021047Y028014D01*
X021026Y028035D01*
X020776Y028285D01*
X019901Y028285D01*
X019151Y027535D01*
X019151Y026660D01*
X019151Y019160D01*
X006294Y012289D02*
X005832Y011827D01*
X005832Y011802D01*
X005651Y010160D02*
X005832Y009979D01*
X005832Y009802D01*
D368*
X030741Y011479D02*
X030741Y011725D01*
D369*
X033151Y009285D03*
X033651Y009160D03*
X030651Y007160D03*
X030651Y006660D03*
X030151Y006660D03*
X030151Y007160D03*
X035151Y005168D03*
X035151Y004669D03*
X030651Y019160D03*
X030151Y019160D03*
X030151Y019660D03*
X030651Y019660D03*
X032776Y021910D03*
X034151Y021535D03*
X023651Y025160D03*
X023651Y025660D03*
X023151Y025660D03*
X023151Y025160D03*
X022296Y025624D03*
X022026Y027785D03*
X022776Y029160D03*
X017651Y026660D03*
X017151Y026660D03*
X010651Y015660D03*
X010151Y015160D03*
X009151Y013660D03*
X009151Y013160D03*
X008651Y013160D03*
X008651Y013660D03*
D370*
X012651Y012910D03*
X012651Y011910D03*
X018716Y014725D03*
X019651Y014160D03*
X019651Y013160D03*
X022151Y010160D03*
X022401Y018160D03*
X019151Y019160D03*
X010151Y020160D03*
X009151Y020660D03*
D371*
X008651Y019660D02*
X012151Y019660D01*
X012151Y019160D01*
X012151Y019660D02*
X016651Y019660D01*
X020401Y015910D01*
X020401Y017160D01*
X020401Y022660D01*
X022423Y022703D02*
X022423Y023338D01*
X030043Y023338D01*
X031921Y023338D01*
X031923Y023339D01*
X031923Y022355D02*
X031346Y022355D01*
X031151Y022160D01*
X031151Y020660D01*
X023151Y026160D02*
X021651Y026160D01*
X021539Y026272D01*
X021539Y026932D01*
X020581Y026905D02*
X020581Y025878D01*
X020835Y025624D01*
X022296Y025624D01*
X020581Y026905D02*
X020554Y026932D01*
X011882Y017051D02*
X012199Y016734D01*
X011882Y017051D02*
X008705Y017051D01*
X008694Y017040D01*
X008694Y016056D02*
X011099Y016056D01*
X011437Y015718D01*
X011437Y014257D01*
X011501Y014194D01*
X008834Y014003D02*
X008694Y014143D01*
X008694Y014579D01*
X008651Y019660D02*
X008151Y020160D01*
X008151Y025660D01*
X008009Y025802D01*
X006832Y025802D01*
X005832Y025802D01*
X021915Y011701D02*
X021915Y011527D01*
X022740Y010701D01*
X031883Y010701D01*
X031923Y010741D01*
X031923Y009756D02*
X031384Y009756D01*
X031122Y009495D01*
X031122Y008429D01*
X031271Y008280D01*
X031151Y008160D01*
X031271Y008280D02*
X031923Y008280D01*
D372*
X021915Y011701D03*
X020401Y015910D03*
X020401Y022660D03*
X022423Y022703D03*
X012151Y019160D03*
X012199Y016734D03*
M02*
