G75*
G70*
%OFA0B0*%
%FSLAX24Y24*%
%IPPOS*%
%LPD*%
%AMOC8*
5,1,8,0,0,1.08239X$1,22.5*
%
%ADD10C,0.0000*%
D10*
X000150Y001331D02*
X000150Y033615D01*
X000152Y033681D01*
X000157Y033747D01*
X000167Y033813D01*
X000180Y033878D01*
X000196Y033942D01*
X000216Y034005D01*
X000240Y034067D01*
X000267Y034127D01*
X000297Y034186D01*
X000331Y034243D01*
X000368Y034298D01*
X000408Y034351D01*
X000450Y034402D01*
X000496Y034450D01*
X000544Y034496D01*
X000595Y034538D01*
X000648Y034578D01*
X000703Y034615D01*
X000760Y034649D01*
X000819Y034679D01*
X000879Y034706D01*
X000941Y034730D01*
X001004Y034750D01*
X001068Y034766D01*
X001133Y034779D01*
X001199Y034789D01*
X001265Y034794D01*
X001331Y034796D01*
X008418Y034796D01*
X008472Y034798D01*
X008525Y034803D01*
X008578Y034812D01*
X008630Y034825D01*
X008682Y034841D01*
X008732Y034861D01*
X008780Y034884D01*
X008827Y034911D01*
X008872Y034940D01*
X008915Y034973D01*
X008955Y035008D01*
X008993Y035046D01*
X009028Y035086D01*
X009061Y035129D01*
X009090Y035174D01*
X009117Y035221D01*
X009140Y035269D01*
X009160Y035319D01*
X009176Y035371D01*
X009189Y035423D01*
X009198Y035476D01*
X009203Y035529D01*
X009205Y035583D01*
X009205Y037158D01*
X035977Y037158D01*
X036043Y037156D01*
X036109Y037151D01*
X036175Y037141D01*
X036240Y037128D01*
X036304Y037112D01*
X036367Y037092D01*
X036429Y037068D01*
X036489Y037041D01*
X036548Y037011D01*
X036605Y036977D01*
X036660Y036940D01*
X036713Y036900D01*
X036764Y036858D01*
X036812Y036812D01*
X036858Y036764D01*
X036900Y036713D01*
X036940Y036660D01*
X036977Y036605D01*
X037011Y036548D01*
X037041Y036489D01*
X037068Y036429D01*
X037092Y036367D01*
X037112Y036304D01*
X037128Y036240D01*
X037141Y036175D01*
X037151Y036109D01*
X037156Y036043D01*
X037158Y035977D01*
X037158Y003693D01*
X037156Y003627D01*
X037151Y003561D01*
X037141Y003495D01*
X037128Y003430D01*
X037112Y003366D01*
X037092Y003303D01*
X037068Y003241D01*
X037041Y003181D01*
X037011Y003122D01*
X036977Y003065D01*
X036940Y003010D01*
X036900Y002957D01*
X036858Y002906D01*
X036812Y002858D01*
X036764Y002812D01*
X036713Y002770D01*
X036660Y002730D01*
X036605Y002693D01*
X036548Y002659D01*
X036489Y002629D01*
X036429Y002602D01*
X036367Y002578D01*
X036304Y002558D01*
X036240Y002542D01*
X036175Y002529D01*
X036109Y002519D01*
X036043Y002514D01*
X035977Y002512D01*
X028890Y002512D01*
X028836Y002510D01*
X028783Y002505D01*
X028730Y002496D01*
X028678Y002483D01*
X028626Y002467D01*
X028576Y002447D01*
X028528Y002424D01*
X028481Y002397D01*
X028436Y002368D01*
X028393Y002335D01*
X028353Y002300D01*
X028315Y002262D01*
X028280Y002222D01*
X028247Y002179D01*
X028218Y002134D01*
X028191Y002087D01*
X028168Y002039D01*
X028148Y001989D01*
X028132Y001937D01*
X028119Y001885D01*
X028110Y001832D01*
X028105Y001779D01*
X028103Y001725D01*
X028103Y000150D01*
X001331Y000150D01*
X001265Y000152D01*
X001199Y000157D01*
X001133Y000167D01*
X001068Y000180D01*
X001004Y000196D01*
X000941Y000216D01*
X000879Y000240D01*
X000819Y000267D01*
X000760Y000297D01*
X000703Y000331D01*
X000648Y000368D01*
X000595Y000408D01*
X000544Y000450D01*
X000496Y000496D01*
X000450Y000544D01*
X000408Y000595D01*
X000368Y000648D01*
X000331Y000703D01*
X000297Y000760D01*
X000267Y000819D01*
X000240Y000879D01*
X000216Y000941D01*
X000196Y001004D01*
X000180Y001068D01*
X000167Y001133D01*
X000157Y001199D01*
X000152Y001265D01*
X000150Y001331D01*
M02*
