%
M48
M72
T01C0.0118
T02C0.0150
T03C0.0157
T04C0.0197
T05C0.0236
T06C0.0276
T07C0.0315
T08C0.0400
T09C0.0520
T10C0.1260
%
T01
X16050Y23050
X15150Y23550
X11750Y28150
X11350Y28150
X11000Y28200
X10650Y28250
X25850Y21450
X26150Y21750
X26200Y21200
X25650Y20950
X25950Y20650
X26150Y20250
X25750Y19850
T02
X23800Y22650
X23050Y22650
X22250Y23900
X21150Y23950
X20050Y24450
X20150Y24950
X20150Y25650
X21350Y25850
X20050Y27050
X20350Y27450
X22250Y27450
X24350Y28650
X24450Y27600
X24450Y25100
X24450Y24050
X21450Y21850
X21150Y21550
X21550Y21150
X21650Y20650
X21050Y20650
X21150Y22150
X20850Y22450
X16050Y26050
X15750Y25650
X15150Y25500
X15150Y26150
X14250Y26250
X13850Y23550
X13350Y23650
X14550Y23050
X14850Y23300
X10850Y23450
X10450Y23450
X9250Y24250
X8850Y24550
X9250Y24950
X11150Y26300
X9800Y27850
X11250Y28950
X10550Y30450
X10550Y31850
X11050Y31850
X11550Y31850
X11950Y31850
X12350Y31850
X12850Y31850
X12350Y32650
X10850Y35650
X5750Y28900
X6050Y26650
X4050Y25750
X10650Y21550
X9550Y18450
X8650Y18450
X9350Y15950
X12050Y15450
X12650Y15450
X13450Y15150
X14150Y15150
X14800Y14950
X15250Y15150
X13950Y16250
X14150Y13750
X13450Y13750
X13650Y12350
X14100Y12350
X15250Y13050
X15850Y12350
X18150Y12550
X18150Y12950
X20350Y12850
X24050Y11450
X24350Y10950
X25550Y10650
X26050Y10150
X26050Y9750
X26050Y9250
X27350Y8750
X26550Y5950
X26750Y5350
X30350Y8650
X30650Y8950
X31450Y6250
X29450Y12350
X27850Y13150
X26750Y14150
X29100Y15350
X28950Y15750
X32050Y16850
X31950Y23350
X30450Y29250
X30150Y31050
X32050Y31850
X25850Y35950
X25156Y34750
X20950Y31750
X21350Y30650
X18250Y27750
X14200Y8850
X16500Y8250
X20622Y5268
X22006Y2413
X22604Y2415
X13250Y4150
T03
X22591Y35731
T04
X21804Y36370
X23772Y36370
X28750Y34550
X28750Y34050
X29250Y34050
X29250Y34550
X29750Y34550
X29750Y34050
X30250Y34050
X30250Y34550
X27250Y29350
X27250Y28500
X27250Y27750
X27250Y26950
X27250Y25750
X27250Y24950
X27250Y24200
X27250Y23400
X27250Y22600
X22850Y23400
X22400Y22650
X18850Y25400
X20350Y28150
X20750Y28150
X17050Y29250
X11800Y24800
X11800Y24300
X11300Y24300
X11300Y24800
X7200Y27500
X7200Y28000
X6700Y28000
X6700Y27500
X4700Y25150
X4700Y24150
X2900Y23800
X2900Y25200
X4700Y17900
X4700Y17400
X4700Y15800
X4700Y15300
X13900Y18100
X13950Y19150
X14950Y21100
X17850Y17850
X17850Y17400
X18350Y17400
X18350Y17850
X27350Y11950
X28150Y16350
X29850Y16350
X22463Y8794
X22844Y8353
X22844Y7941
X23244Y7941
X22420Y7941
X14050Y6850
X14050Y6350
T05
X22985Y19441
X29284Y17867
T06
X13437Y34150
X12937Y34150
X12437Y34150
X11937Y34150
X11437Y34150
X11437Y36150
X11937Y36150
X12437Y36150
X12937Y36150
X13437Y36150
T07
X17178Y35650
X18162Y35650
X19146Y35650
X20130Y35650
T08
X33115Y31154
X33115Y30154
X34115Y30154
X34115Y31154
X34115Y29154
X34115Y28154
X34115Y27154
X34115Y26154
X34115Y25154
X34115Y24154
X34115Y23154
X34115Y22154
X34115Y21154
X34115Y20154
X34115Y19154
X34115Y18154
X34115Y17154
X34115Y16154
X34115Y15154
X34115Y14154
X34115Y13154
X34115Y12154
X34115Y11154
X34115Y10154
X34115Y9154
X34115Y8154
X34115Y7154
X34115Y6154
X33115Y6154
X33115Y7154
X33115Y8154
X33115Y9154
X33115Y10154
X33115Y11154
X33115Y12154
X33115Y13154
X33115Y14154
X33115Y15154
X33115Y16154
X33115Y17154
X33115Y18154
X33115Y19154
X33115Y20154
X33115Y21154
X33115Y22154
X33115Y23154
X33115Y24154
X33115Y25154
X33115Y26154
X33115Y27154
X33115Y28154
X33115Y29154
T09
X29550Y8122
X21676Y8122
T10
X3693Y3693
X33615Y3693
X33615Y33615
X3693Y33615
M30
