G75*
G70*
%OFA0B0*%
%FSLAX24Y24*%
%IPPOS*%
%LPD*%
%AMOC8*
5,1,8,0,0,1.08239X$1,22.5*
%
%ADD10R,0.0513X0.0356*%
%ADD11C,0.0680*%
%ADD12C,0.0556*%
%ADD13R,0.0356X0.0513*%
%ADD14R,0.0336X0.0946*%
%ADD15C,0.0595*%
%ADD16C,0.2380*%
%ADD17C,0.0860*%
%ADD18R,0.0986X0.0552*%
%ADD19R,0.0395X0.0631*%
%ADD20C,0.0390*%
%ADD21C,0.0437*%
%ADD22C,0.0476*%
%ADD23C,0.0358*%
%ADD24C,0.0397*%
D10*
X009993Y024314D03*
X009993Y024905D03*
X018716Y024924D03*
X018716Y024333D03*
X018872Y028033D03*
X018872Y028624D03*
X020022Y031968D03*
X020022Y032559D03*
X019048Y034107D03*
X019048Y034697D03*
X018260Y034697D03*
X018260Y034107D03*
X021804Y034894D03*
X021804Y035485D03*
X028050Y015745D03*
X028050Y015155D03*
X028650Y015245D03*
X028650Y014655D03*
X026152Y014018D03*
X026152Y013428D03*
D11*
X033115Y013154D03*
X033115Y014154D03*
X034115Y014154D03*
X034115Y013154D03*
X034115Y012154D03*
X034115Y011154D03*
X034115Y010154D03*
X034115Y009154D03*
X034115Y008154D03*
X034115Y007154D03*
X034115Y006154D03*
X033115Y006154D03*
X033115Y007154D03*
X033115Y008154D03*
X033115Y009154D03*
X033115Y010154D03*
X033115Y011154D03*
X033115Y012154D03*
X033115Y015154D03*
X033115Y016154D03*
X034115Y016154D03*
X034115Y015154D03*
X034115Y017154D03*
X034115Y018154D03*
X034115Y019154D03*
X034115Y020154D03*
X034115Y021154D03*
X034115Y022154D03*
X034115Y023154D03*
X034115Y024154D03*
X034115Y025154D03*
X034115Y026154D03*
X034115Y027154D03*
X034115Y028154D03*
X034115Y029154D03*
X034115Y030154D03*
X034115Y031154D03*
X033115Y031154D03*
X033115Y030154D03*
X033115Y029154D03*
X033115Y028154D03*
X033115Y027154D03*
X033115Y026154D03*
X033115Y025154D03*
X033115Y024154D03*
X033115Y023154D03*
X033115Y022154D03*
X033115Y021154D03*
X033115Y020154D03*
X033115Y019154D03*
X033115Y018154D03*
X033115Y017154D03*
D12*
X013437Y034150D03*
X012937Y034150D03*
X012437Y034150D03*
X011937Y034150D03*
X011437Y034150D03*
X011437Y036150D03*
X011937Y036150D03*
X012437Y036150D03*
X012937Y036150D03*
X013437Y036150D03*
D13*
X017670Y030071D03*
X018260Y030071D03*
X019048Y030071D03*
X019638Y030071D03*
X024002Y028166D03*
X024593Y028166D03*
X024730Y024535D03*
X024139Y024535D03*
X021772Y005230D03*
X021181Y005230D03*
D14*
X019408Y031126D03*
X018908Y031126D03*
X018408Y031126D03*
X017908Y031126D03*
X017908Y033174D03*
X018408Y033174D03*
X018908Y033174D03*
X019408Y033174D03*
D15*
X019146Y035393D02*
X019146Y035907D01*
X018162Y035907D02*
X018162Y035393D01*
X017178Y035393D02*
X017178Y035907D01*
X020130Y035907D02*
X020130Y035393D01*
D16*
X003693Y003693D03*
X033615Y003693D03*
X033615Y033615D03*
X003693Y033615D03*
D17*
X021676Y008122D03*
X029550Y008122D03*
D18*
X023772Y034166D03*
X023772Y035426D03*
D19*
X026311Y035977D03*
X027532Y035977D03*
D20*
X025850Y035950D03*
X025156Y034750D03*
X020950Y031750D03*
X021350Y030650D03*
X024350Y028650D03*
X024450Y027600D03*
X022250Y027450D03*
X021350Y025850D03*
X020150Y025650D03*
X020150Y024950D03*
X020050Y024450D03*
X021150Y023950D03*
X022250Y023900D03*
X023050Y022650D03*
X023800Y022650D03*
X024450Y024050D03*
X024450Y025100D03*
X021450Y021850D03*
X021150Y021550D03*
X021550Y021150D03*
X021650Y020650D03*
X021050Y020650D03*
X021150Y022150D03*
X020850Y022450D03*
X020050Y027050D03*
X020350Y027450D03*
X018250Y027750D03*
X016050Y026050D03*
X015750Y025650D03*
X015150Y025500D03*
X015150Y026150D03*
X014250Y026250D03*
X013850Y023550D03*
X013350Y023650D03*
X014550Y023050D03*
X014850Y023300D03*
X010850Y023450D03*
X010450Y023450D03*
X009250Y024250D03*
X008850Y024550D03*
X009250Y024950D03*
X011150Y026300D03*
X009800Y027850D03*
X011250Y028950D03*
X010550Y030450D03*
X010550Y031850D03*
X011050Y031850D03*
X011550Y031850D03*
X011950Y031850D03*
X012350Y031850D03*
X012850Y031850D03*
X012350Y032650D03*
X010850Y035650D03*
X005750Y028900D03*
X006050Y026650D03*
X004050Y025750D03*
X010650Y021550D03*
X009550Y018450D03*
X008650Y018450D03*
X009350Y015950D03*
X012050Y015450D03*
X012650Y015450D03*
X013450Y015150D03*
X014150Y015150D03*
X014800Y014950D03*
X015250Y015150D03*
X013950Y016250D03*
X014150Y013750D03*
X013450Y013750D03*
X013650Y012350D03*
X014100Y012350D03*
X015250Y013050D03*
X015850Y012350D03*
X018150Y012550D03*
X018150Y012950D03*
X020350Y012850D03*
X024050Y011450D03*
X024350Y010950D03*
X025550Y010650D03*
X026050Y010150D03*
X026050Y009750D03*
X026050Y009250D03*
X027350Y008750D03*
X026550Y005950D03*
X026750Y005350D03*
X030350Y008650D03*
X030650Y008950D03*
X031450Y006250D03*
X029450Y012350D03*
X027850Y013150D03*
X026750Y014150D03*
X029100Y015350D03*
X028950Y015750D03*
X032050Y016850D03*
X031950Y023350D03*
X030450Y029250D03*
X030150Y031050D03*
X032050Y031850D03*
X014200Y008850D03*
X016500Y008250D03*
X020622Y005268D03*
X022006Y002413D03*
X022604Y002415D03*
X013250Y004150D03*
D21*
X014050Y006350D03*
X014050Y006850D03*
X022420Y007941D03*
X022844Y007941D03*
X023244Y007941D03*
X022844Y008353D03*
X022463Y008794D03*
X027350Y011950D03*
X028150Y016350D03*
X029850Y016350D03*
X027250Y022600D03*
X027250Y023400D03*
X027250Y024200D03*
X027250Y024950D03*
X027250Y025750D03*
X027250Y026950D03*
X027250Y027750D03*
X027250Y028500D03*
X027250Y029350D03*
X028750Y034050D03*
X028750Y034550D03*
X029250Y034550D03*
X029250Y034050D03*
X029750Y034050D03*
X029750Y034550D03*
X030250Y034550D03*
X030250Y034050D03*
X023772Y036370D03*
X021804Y036370D03*
X017050Y029250D03*
X020350Y028150D03*
X020750Y028150D03*
X018850Y025400D03*
X022400Y022650D03*
X022850Y023400D03*
X018350Y017850D03*
X018350Y017400D03*
X017850Y017400D03*
X017850Y017850D03*
X014950Y021100D03*
X013950Y019150D03*
X013900Y018100D03*
X011800Y024300D03*
X011800Y024800D03*
X011300Y024800D03*
X011300Y024300D03*
X007200Y027500D03*
X007200Y028000D03*
X006700Y028000D03*
X006700Y027500D03*
X004700Y025150D03*
X004700Y024150D03*
X002900Y023800D03*
X002900Y025200D03*
X004700Y017900D03*
X004700Y017400D03*
X004700Y015800D03*
X004700Y015300D03*
D22*
X022985Y019441D03*
X029284Y017867D03*
D23*
X026150Y020250D03*
X025950Y020650D03*
X025650Y020950D03*
X025850Y021450D03*
X026150Y021750D03*
X026200Y021200D03*
X025750Y019850D03*
X016050Y023050D03*
X015150Y023550D03*
X011750Y028150D03*
X011350Y028150D03*
X011000Y028200D03*
X010650Y028250D03*
D24*
X022591Y035731D03*
M02*
