G75*
G70*
%OFA0B0*%
%FSLAX24Y24*%
%IPPOS*%
%LPD*%
%AMOC8*
5,1,8,0,0,1.08239X$1,22.5*
%
%ADD10C,0.2300*%
%ADD11R,0.0276X0.0787*%
%ADD12R,0.0630X0.0866*%
%ADD13R,0.0787X0.0276*%
%ADD14R,0.0866X0.0630*%
%ADD15C,0.1575*%
%ADD16C,0.0320*%
%ADD17C,0.0500*%
%ADD18C,0.0240*%
%ADD19C,0.0120*%
%ADD20C,0.0278*%
%ADD21C,0.0160*%
%ADD22C,0.0396*%
%ADD23C,0.0660*%
D10*
X001361Y001361D03*
X001361Y031282D03*
X031282Y031282D03*
X031282Y001361D03*
D11*
X021587Y004904D03*
X021095Y004904D03*
X020603Y004904D03*
X020111Y004904D03*
X019619Y004904D03*
X019127Y004904D03*
X018635Y004904D03*
X018143Y004904D03*
X014501Y004904D03*
X014009Y004904D03*
X013517Y004904D03*
X013024Y004904D03*
X012532Y004904D03*
X012040Y004904D03*
X011548Y004904D03*
X011056Y004904D03*
X018143Y027739D03*
X018635Y027739D03*
X019127Y027739D03*
X019619Y027739D03*
X020111Y027739D03*
X020603Y027739D03*
X021095Y027739D03*
X021587Y027739D03*
D12*
X022513Y029038D03*
X017217Y029038D03*
X017217Y003605D03*
X015426Y003605D03*
X010131Y003605D03*
X022513Y003605D03*
D13*
X027739Y011056D03*
X027739Y011548D03*
X027739Y012040D03*
X027739Y012532D03*
X027739Y013024D03*
X027739Y013517D03*
X027739Y014009D03*
X027739Y014501D03*
X027739Y017355D03*
X027739Y017847D03*
X027739Y018339D03*
X027739Y018832D03*
X027739Y019324D03*
X027739Y019816D03*
X027739Y020308D03*
X027739Y020800D03*
X006086Y011745D03*
X006086Y011253D03*
X006086Y010761D03*
X006086Y010269D03*
X006086Y009776D03*
X006086Y009284D03*
X006086Y008792D03*
X006086Y008300D03*
X004904Y020899D03*
X004904Y021391D03*
X004904Y021883D03*
X004904Y022375D03*
X004904Y022867D03*
X004904Y023359D03*
X004904Y023851D03*
X004904Y024343D03*
D14*
X003605Y025269D03*
X003605Y019973D03*
X004786Y012670D03*
X004786Y007375D03*
X026440Y016430D03*
X029038Y015426D03*
X029038Y010131D03*
X026440Y021725D03*
D15*
X031676Y027345D03*
X027345Y031676D03*
X005298Y031676D03*
X000967Y027345D03*
X000967Y005298D03*
X005298Y000967D03*
X027345Y000967D03*
X031676Y005298D03*
D16*
X027739Y014009D02*
X026952Y014009D01*
X026853Y014009D01*
X018635Y026607D02*
X018635Y026952D01*
X018143Y027444D01*
X018143Y027739D01*
X018635Y027739D02*
X018635Y026952D01*
X006086Y020899D02*
X005593Y021391D01*
X004904Y021391D01*
X004904Y020899D02*
X005889Y020899D01*
X006086Y008792D02*
X006381Y008792D01*
X006873Y008300D01*
X007070Y008300D01*
X006873Y008300D02*
X006086Y008300D01*
D17*
X007070Y008300D02*
X007119Y008300D01*
X018389Y017503D01*
X018389Y018143D01*
X018635Y018143D01*
X018684Y017847D01*
X018684Y017257D01*
X022965Y014009D01*
X026853Y014009D01*
X026607Y017847D02*
X018684Y017847D01*
X018635Y018143D02*
X018635Y017109D01*
X018536Y016469D01*
X018536Y006086D01*
X018536Y005889D01*
X019865Y006479D02*
X020111Y006233D01*
X020111Y005692D01*
X018635Y018143D02*
X018635Y026607D01*
X018389Y018143D02*
X006086Y020899D01*
X005889Y020899D01*
D18*
X005643Y021883D02*
X004904Y021883D01*
X005643Y021883D02*
X017700Y019127D01*
X019471Y019471D02*
X019471Y026558D01*
X019127Y026902D01*
X019127Y027739D01*
X019865Y018684D02*
X026558Y018684D01*
X026902Y018339D01*
X027739Y018339D01*
X027739Y017847D02*
X026607Y017847D01*
X027099Y017355D01*
X027739Y017355D01*
X027739Y014501D02*
X027444Y014501D01*
X026952Y014009D01*
X027149Y013517D02*
X027001Y013369D01*
X022424Y013369D01*
X020652Y014747D01*
X016814Y017257D02*
X007267Y009284D01*
X006086Y009284D01*
X018143Y005495D02*
X018143Y004904D01*
X018143Y005495D02*
X018536Y005889D01*
X018635Y005987D02*
X018536Y006086D01*
X018635Y005987D02*
X018635Y005692D01*
X018684Y005692D01*
X019127Y005249D01*
X019127Y004904D01*
X018635Y004904D02*
X018635Y005692D01*
X019619Y005446D02*
X019619Y004904D01*
X020111Y004904D02*
X020111Y005692D01*
X019865Y005692D01*
X019619Y005446D01*
X027149Y013517D02*
X027739Y013517D01*
D19*
X027739Y013024D02*
X027198Y013024D01*
X026952Y012778D01*
X027739Y018832D02*
X028674Y018832D01*
X028920Y019078D01*
X020259Y026558D02*
X019619Y027198D01*
X019619Y027739D01*
X006036Y022375D02*
X004904Y022375D01*
X006086Y009776D02*
X006824Y009776D01*
X008054Y005692D02*
X011991Y005692D01*
X012089Y005593D01*
X012089Y004954D01*
X012040Y004904D01*
X011548Y004904D02*
X011548Y004117D01*
X011056Y004904D02*
X010416Y004904D01*
X012483Y004855D02*
X012483Y003526D01*
X012680Y003330D01*
X013566Y003330D01*
X013960Y003723D01*
X013566Y004117D02*
X013172Y004117D01*
X012975Y004314D01*
X012975Y004855D01*
X013024Y004904D01*
X012532Y004904D02*
X012483Y004855D01*
D20*
X011548Y004117D03*
X010416Y004904D03*
X008054Y005692D03*
X006824Y009776D03*
X013566Y004117D03*
X013960Y003723D03*
X026952Y012778D03*
X028920Y019078D03*
X020259Y026558D03*
X006036Y022375D03*
D21*
X006495Y022370D02*
X018065Y022370D01*
X018065Y022212D02*
X006466Y022212D01*
X006441Y022152D02*
X006495Y022284D01*
X006495Y022466D01*
X006425Y022635D01*
X006296Y022764D01*
X006128Y022834D01*
X005945Y022834D01*
X005776Y022764D01*
X005767Y022755D01*
X005508Y022755D01*
X005479Y022784D01*
X005362Y022833D01*
X004447Y022833D01*
X004329Y022784D01*
X004239Y022694D01*
X004191Y022576D01*
X004191Y022173D01*
X004209Y022129D01*
X004191Y022084D01*
X004191Y021681D01*
X004209Y021637D01*
X004191Y021592D01*
X004191Y021189D01*
X004209Y021145D01*
X004191Y021100D01*
X004191Y020697D01*
X004239Y020579D01*
X004329Y020489D01*
X004447Y020441D01*
X004755Y020441D01*
X004809Y020419D01*
X005563Y020419D01*
X005566Y020415D01*
X005775Y020329D01*
X006022Y020329D01*
X017735Y017705D01*
X017327Y017372D01*
X017253Y017550D01*
X017107Y017696D01*
X016917Y017775D01*
X016711Y017775D01*
X016520Y017696D01*
X016375Y017550D01*
X016320Y017417D01*
X008154Y010599D01*
X008178Y010658D01*
X008178Y010864D01*
X008100Y011054D01*
X007954Y011200D01*
X007763Y011279D01*
X007681Y011279D01*
X007706Y011304D01*
X007785Y011494D01*
X007785Y011700D01*
X007706Y011891D01*
X007560Y012037D01*
X007370Y012115D01*
X007164Y012115D01*
X006973Y012037D01*
X006827Y011891D01*
X006749Y011700D01*
X006749Y011653D01*
X006670Y011653D01*
X006660Y011662D01*
X006543Y011711D01*
X005628Y011711D01*
X005511Y011662D01*
X005421Y011572D01*
X005372Y011454D01*
X005372Y011051D01*
X005390Y011007D01*
X005372Y010962D01*
X005372Y010559D01*
X005421Y010442D01*
X005511Y010352D01*
X005628Y010303D01*
X006543Y010303D01*
X006660Y010352D01*
X006670Y010361D01*
X007328Y010361D01*
X007367Y010321D01*
X007557Y010243D01*
X007728Y010243D01*
X007282Y009870D01*
X007213Y010036D01*
X007084Y010166D01*
X006915Y010236D01*
X006732Y010236D01*
X006636Y010196D01*
X006543Y010234D01*
X005628Y010234D01*
X005511Y010186D01*
X005421Y010096D01*
X005372Y009978D01*
X005372Y009575D01*
X005390Y009530D01*
X005372Y009486D01*
X005372Y009083D01*
X005390Y009038D01*
X005372Y008994D01*
X005372Y008591D01*
X005390Y008546D01*
X005372Y008502D01*
X005372Y008099D01*
X005421Y007981D01*
X005511Y007891D01*
X005628Y007842D01*
X005936Y007842D01*
X005990Y007820D01*
X006744Y007820D01*
X006747Y007817D01*
X006956Y007730D01*
X007090Y007730D01*
X007175Y007722D01*
X007203Y007730D01*
X007232Y007730D01*
X007311Y007762D01*
X007392Y007787D01*
X007415Y007806D01*
X007442Y007817D01*
X007502Y007877D01*
X017962Y016418D01*
X017966Y016401D01*
X017966Y005941D01*
X017770Y005744D01*
X017703Y005582D01*
X017703Y005405D01*
X017685Y005362D01*
X017685Y004447D01*
X017734Y004329D01*
X017824Y004239D01*
X017941Y004191D01*
X018344Y004191D01*
X018389Y004209D01*
X018433Y004191D01*
X018836Y004191D01*
X018881Y004209D01*
X018925Y004191D01*
X019328Y004191D01*
X019373Y004209D01*
X019418Y004191D01*
X019820Y004191D01*
X019865Y004209D01*
X019910Y004191D01*
X020313Y004191D01*
X020430Y004239D01*
X020520Y004329D01*
X020569Y004447D01*
X020569Y005344D01*
X020594Y005369D01*
X020681Y005578D01*
X020681Y006347D01*
X020594Y006556D01*
X020188Y006962D01*
X019978Y007049D01*
X019752Y007049D01*
X019542Y006962D01*
X019382Y006802D01*
X019295Y006593D01*
X019295Y006366D01*
X019382Y006156D01*
X019541Y005997D01*
X019541Y005990D01*
X019492Y005941D01*
X019274Y005724D01*
X019106Y005892D01*
X019106Y016221D01*
X020431Y015216D01*
X020359Y015186D01*
X020213Y015040D01*
X020134Y014850D01*
X020134Y014644D01*
X020213Y014453D01*
X020359Y014308D01*
X020549Y014229D01*
X020602Y014229D01*
X022132Y013038D01*
X022175Y012996D01*
X022201Y012985D01*
X022223Y012968D01*
X022281Y012952D01*
X022337Y012929D01*
X022365Y012929D01*
X022392Y012922D01*
X022451Y012929D01*
X026517Y012929D01*
X026493Y012870D01*
X026493Y012687D01*
X026562Y012518D01*
X026641Y012440D01*
X026244Y012440D01*
X026244Y012440D01*
X026167Y012440D01*
X026085Y012440D01*
X026085Y012440D01*
X025316Y012440D01*
X025277Y012479D01*
X025086Y012558D01*
X024880Y012558D01*
X024690Y012479D01*
X024544Y012334D01*
X024465Y012143D01*
X024465Y011937D01*
X024544Y011747D01*
X024690Y011601D01*
X024880Y011522D01*
X025086Y011522D01*
X025277Y011601D01*
X025316Y011640D01*
X025868Y011640D01*
X025725Y011497D01*
X025646Y011307D01*
X025646Y011101D01*
X025725Y010910D01*
X025871Y010764D01*
X026061Y010686D01*
X026267Y010686D01*
X026458Y010764D01*
X026603Y010910D01*
X026682Y011101D01*
X026682Y011148D01*
X027155Y011148D01*
X027164Y011139D01*
X027282Y011090D01*
X028196Y011090D01*
X028314Y011139D01*
X028404Y011229D01*
X028453Y011347D01*
X028453Y011750D01*
X028434Y011794D01*
X028453Y011839D01*
X028453Y012242D01*
X028404Y012359D01*
X028314Y012449D01*
X028196Y012498D01*
X027320Y012498D01*
X027341Y012518D01*
X027361Y012567D01*
X028196Y012567D01*
X028314Y012615D01*
X028404Y012705D01*
X028453Y012823D01*
X028453Y013226D01*
X028434Y013271D01*
X028453Y013315D01*
X028453Y013718D01*
X028434Y013763D01*
X028453Y013807D01*
X028453Y014210D01*
X028434Y014255D01*
X028453Y014299D01*
X028453Y014702D01*
X028404Y014820D01*
X028314Y014910D01*
X028196Y014959D01*
X027282Y014959D01*
X027164Y014910D01*
X027074Y014820D01*
X027027Y014706D01*
X026899Y014579D01*
X023157Y014579D01*
X019600Y017277D01*
X026555Y017277D01*
X026767Y017065D01*
X025943Y017065D01*
X025826Y017016D01*
X025735Y016926D01*
X025687Y016809D01*
X025687Y016051D01*
X025735Y015934D01*
X025826Y015844D01*
X025943Y015795D01*
X026937Y015795D01*
X027054Y015844D01*
X027144Y015934D01*
X027193Y016051D01*
X027193Y016809D01*
X027149Y016915D01*
X027239Y016915D01*
X027282Y016897D01*
X028196Y016897D01*
X028314Y016946D01*
X028404Y017036D01*
X028453Y017154D01*
X028453Y017557D01*
X028434Y017601D01*
X028453Y017646D01*
X028453Y018049D01*
X028434Y018093D01*
X028453Y018138D01*
X028453Y018452D01*
X028750Y018452D01*
X028889Y018509D01*
X028999Y018619D01*
X029011Y018619D01*
X029180Y018688D01*
X029309Y018818D01*
X029379Y018986D01*
X029379Y019169D01*
X029309Y019338D01*
X029180Y019467D01*
X029011Y019537D01*
X028829Y019537D01*
X028660Y019467D01*
X028531Y019338D01*
X028479Y019212D01*
X028343Y019212D01*
X028314Y019241D01*
X028196Y019289D01*
X027282Y019289D01*
X027164Y019241D01*
X027074Y019151D01*
X027025Y019033D01*
X027025Y018839D01*
X026931Y018933D01*
X026807Y019057D01*
X026645Y019124D01*
X020157Y019124D01*
X019968Y019202D01*
X019921Y019202D01*
X019989Y019368D01*
X019989Y019574D01*
X019911Y019763D01*
X019911Y026256D01*
X019999Y026169D01*
X020167Y026099D01*
X020203Y026099D01*
X020203Y026040D01*
X020134Y025874D01*
X020134Y025668D01*
X020213Y025477D01*
X020359Y025331D01*
X020549Y025252D01*
X020756Y025252D01*
X020946Y025331D01*
X021092Y025477D01*
X021171Y025668D01*
X021171Y025874D01*
X021092Y026064D01*
X021003Y026153D01*
X021003Y026262D01*
X021146Y026119D01*
X021337Y026040D01*
X021543Y026040D01*
X021733Y026119D01*
X021879Y026264D01*
X021958Y026455D01*
X021958Y026661D01*
X021879Y026851D01*
X021733Y026997D01*
X021543Y027076D01*
X021495Y027076D01*
X021495Y027155D01*
X021504Y027164D01*
X021553Y027282D01*
X021553Y028196D01*
X021504Y028314D01*
X021414Y028404D01*
X021297Y028453D01*
X020894Y028453D01*
X020849Y028434D01*
X020805Y028453D01*
X020402Y028453D01*
X020284Y028404D01*
X020194Y028314D01*
X020145Y028196D01*
X020145Y027282D01*
X020194Y027164D01*
X020203Y027155D01*
X020203Y027151D01*
X020075Y027279D01*
X020077Y027282D01*
X020077Y028196D01*
X020028Y028314D01*
X019938Y028404D01*
X019820Y028453D01*
X019418Y028453D01*
X019373Y028434D01*
X019328Y028453D01*
X018925Y028453D01*
X018881Y028434D01*
X018836Y028453D01*
X018433Y028453D01*
X018389Y028434D01*
X018344Y028453D01*
X017941Y028453D01*
X017824Y028404D01*
X017734Y028314D01*
X017685Y028196D01*
X017685Y027888D01*
X017663Y027835D01*
X017663Y027348D01*
X017685Y027295D01*
X017685Y027282D01*
X017734Y027164D01*
X017824Y027074D01*
X017841Y027067D01*
X018101Y026807D01*
X018065Y026721D01*
X018065Y019495D01*
X017993Y019566D01*
X017803Y019645D01*
X017597Y019645D01*
X017529Y019617D01*
X006441Y022152D01*
X006470Y022529D02*
X018065Y022529D01*
X018065Y022687D02*
X006373Y022687D01*
X006351Y022959D02*
X006431Y022959D01*
X006510Y022959D01*
X006934Y022959D01*
X006973Y022920D01*
X007164Y022841D01*
X007370Y022841D01*
X007560Y022920D01*
X007706Y023066D01*
X007785Y023256D01*
X007785Y023462D01*
X007706Y023653D01*
X007560Y023798D01*
X007370Y023877D01*
X007287Y023877D01*
X007312Y023902D01*
X007391Y024093D01*
X007391Y024299D01*
X007312Y024489D01*
X007166Y024635D01*
X006976Y024714D01*
X006770Y024714D01*
X006579Y024635D01*
X006434Y024489D01*
X006355Y024299D01*
X006355Y024251D01*
X005488Y024251D01*
X005479Y024260D01*
X005362Y024309D01*
X004447Y024309D01*
X004329Y024260D01*
X004239Y024170D01*
X004191Y024053D01*
X004191Y023650D01*
X004209Y023605D01*
X004191Y023561D01*
X004191Y023158D01*
X004239Y023040D01*
X004329Y022950D01*
X004447Y022901D01*
X005362Y022901D01*
X005479Y022950D01*
X005488Y022959D01*
X006350Y022959D01*
X006351Y022959D01*
X006510Y022959D02*
X006510Y022959D01*
X006479Y023359D02*
X007267Y023359D01*
X007746Y023163D02*
X018065Y023163D01*
X018065Y023321D02*
X007785Y023321D01*
X007778Y023480D02*
X018065Y023480D01*
X018065Y023638D02*
X007712Y023638D01*
X007562Y023797D02*
X018065Y023797D01*
X018065Y023955D02*
X007334Y023955D01*
X007391Y024114D02*
X018065Y024114D01*
X018065Y024272D02*
X007391Y024272D01*
X007336Y024431D02*
X018065Y024431D01*
X018065Y024589D02*
X007212Y024589D01*
X006873Y024196D02*
X006528Y023851D01*
X004904Y023851D01*
X005451Y024272D02*
X006355Y024272D01*
X006409Y024431D02*
X002629Y024431D01*
X002629Y024589D02*
X006533Y024589D01*
X006479Y023359D02*
X006430Y023359D01*
X004904Y023359D01*
X004275Y023004D02*
X002629Y023004D01*
X002629Y022846D02*
X007153Y022846D01*
X007381Y022846D02*
X018065Y022846D01*
X018065Y023004D02*
X007644Y023004D01*
X007566Y021895D02*
X018065Y021895D01*
X018065Y022053D02*
X006872Y022053D01*
X008259Y021736D02*
X018065Y021736D01*
X018065Y021578D02*
X008953Y021578D01*
X009646Y021419D02*
X018065Y021419D01*
X018065Y021261D02*
X010339Y021261D01*
X011033Y021102D02*
X018065Y021102D01*
X018065Y020944D02*
X011726Y020944D01*
X012420Y020785D02*
X018065Y020785D01*
X018065Y020627D02*
X013113Y020627D01*
X013807Y020468D02*
X018065Y020468D01*
X018065Y020310D02*
X014500Y020310D01*
X015194Y020151D02*
X018065Y020151D01*
X018065Y019993D02*
X015887Y019993D01*
X016580Y019834D02*
X018065Y019834D01*
X018065Y019676D02*
X017274Y019676D01*
X018042Y019517D02*
X018065Y019517D01*
X017429Y017774D02*
X016920Y017774D01*
X016708Y017774D02*
X002629Y017774D01*
X002629Y017932D02*
X016721Y017932D01*
X016439Y017615D02*
X002629Y017615D01*
X002629Y017457D02*
X016336Y017457D01*
X016177Y017298D02*
X002629Y017298D01*
X002629Y017140D02*
X015987Y017140D01*
X015797Y016981D02*
X002629Y016981D01*
X002629Y016823D02*
X015607Y016823D01*
X015418Y016664D02*
X002629Y016664D01*
X002629Y016506D02*
X015228Y016506D01*
X015038Y016347D02*
X002629Y016347D01*
X002629Y016189D02*
X014848Y016189D01*
X014658Y016030D02*
X002629Y016030D01*
X002629Y015872D02*
X014469Y015872D01*
X014279Y015713D02*
X002629Y015713D01*
X002629Y015555D02*
X014089Y015555D01*
X013899Y015396D02*
X002629Y015396D01*
X002629Y015238D02*
X013709Y015238D01*
X013519Y015079D02*
X002629Y015079D01*
X002629Y014921D02*
X013330Y014921D01*
X013140Y014762D02*
X002629Y014762D01*
X002629Y014604D02*
X012950Y014604D01*
X012760Y014445D02*
X002629Y014445D01*
X002629Y014287D02*
X012570Y014287D01*
X012381Y014128D02*
X002629Y014128D01*
X002629Y013970D02*
X012191Y013970D01*
X012001Y013811D02*
X002629Y013811D01*
X002629Y013653D02*
X011811Y013653D01*
X011621Y013494D02*
X002629Y013494D01*
X002629Y013336D02*
X011432Y013336D01*
X011242Y013177D02*
X005480Y013177D01*
X005491Y013166D02*
X005401Y013256D01*
X005283Y013305D01*
X004290Y013305D01*
X004172Y013256D01*
X004082Y013166D01*
X004033Y013049D01*
X004033Y012292D01*
X004082Y012174D01*
X004172Y012084D01*
X004290Y012035D01*
X005283Y012035D01*
X005401Y012084D01*
X005491Y012174D01*
X005539Y012292D01*
X005539Y013049D01*
X005491Y013166D01*
X005539Y013019D02*
X011052Y013019D01*
X010862Y012860D02*
X005539Y012860D01*
X005539Y012702D02*
X010672Y012702D01*
X010483Y012543D02*
X005539Y012543D01*
X005539Y012385D02*
X010293Y012385D01*
X010103Y012226D02*
X005512Y012226D01*
X005361Y012068D02*
X007048Y012068D01*
X006846Y011909D02*
X002629Y011909D01*
X002629Y011751D02*
X006769Y011751D01*
X006922Y011253D02*
X007267Y011597D01*
X006922Y011253D02*
X006086Y011253D01*
X006086Y010761D02*
X007660Y010761D01*
X008139Y010958D02*
X008584Y010958D01*
X008395Y010800D02*
X008178Y010800D01*
X008172Y010641D02*
X008205Y010641D01*
X008037Y011117D02*
X008774Y011117D01*
X008964Y011275D02*
X007773Y011275D01*
X007760Y011434D02*
X009154Y011434D01*
X009344Y011592D02*
X007785Y011592D01*
X007764Y011751D02*
X009533Y011751D01*
X009723Y011909D02*
X007688Y011909D01*
X007485Y012068D02*
X009913Y012068D01*
X011081Y010800D02*
X017966Y010800D01*
X017966Y010958D02*
X011275Y010958D01*
X011469Y011117D02*
X017966Y011117D01*
X017966Y011275D02*
X011663Y011275D01*
X011857Y011434D02*
X017966Y011434D01*
X017966Y011592D02*
X012051Y011592D01*
X012246Y011751D02*
X017966Y011751D01*
X017966Y011909D02*
X012440Y011909D01*
X012634Y012068D02*
X017966Y012068D01*
X017966Y012226D02*
X012828Y012226D01*
X013022Y012385D02*
X017966Y012385D01*
X017966Y012543D02*
X013216Y012543D01*
X013410Y012702D02*
X017966Y012702D01*
X017966Y012860D02*
X013604Y012860D01*
X013798Y013019D02*
X017966Y013019D01*
X017966Y013177D02*
X013992Y013177D01*
X014187Y013336D02*
X017966Y013336D01*
X017966Y013494D02*
X014381Y013494D01*
X014575Y013653D02*
X017966Y013653D01*
X017966Y013811D02*
X014769Y013811D01*
X014963Y013970D02*
X017966Y013970D01*
X017966Y014128D02*
X015157Y014128D01*
X015351Y014287D02*
X017966Y014287D01*
X017966Y014445D02*
X015545Y014445D01*
X015739Y014604D02*
X017966Y014604D01*
X017966Y014762D02*
X015933Y014762D01*
X016128Y014921D02*
X017966Y014921D01*
X017966Y015079D02*
X016322Y015079D01*
X016516Y015238D02*
X017966Y015238D01*
X017966Y015396D02*
X016710Y015396D01*
X016904Y015555D02*
X017966Y015555D01*
X017966Y015713D02*
X017098Y015713D01*
X017292Y015872D02*
X017966Y015872D01*
X017966Y016030D02*
X017486Y016030D01*
X017680Y016189D02*
X017966Y016189D01*
X017966Y016347D02*
X017874Y016347D01*
X017431Y017457D02*
X017292Y017457D01*
X017188Y017615D02*
X017625Y017615D01*
X016013Y018091D02*
X002629Y018091D01*
X002629Y018249D02*
X015306Y018249D01*
X014598Y018408D02*
X002629Y018408D01*
X002629Y018566D02*
X013891Y018566D01*
X013183Y018725D02*
X002629Y018725D01*
X002629Y018883D02*
X012475Y018883D01*
X011768Y019042D02*
X002629Y019042D01*
X002629Y019200D02*
X011060Y019200D01*
X010353Y019359D02*
X004151Y019359D01*
X004102Y019338D02*
X004220Y019387D01*
X004310Y019477D01*
X004358Y019595D01*
X004358Y020352D01*
X004310Y020470D01*
X004220Y020560D01*
X004102Y020608D01*
X003108Y020608D01*
X002991Y020560D01*
X002901Y020470D01*
X002852Y020352D01*
X002852Y019595D01*
X002901Y019477D01*
X002991Y019387D01*
X003108Y019338D01*
X004102Y019338D01*
X004326Y019517D02*
X009645Y019517D01*
X008938Y019676D02*
X004358Y019676D01*
X004358Y019834D02*
X008230Y019834D01*
X007522Y019993D02*
X004358Y019993D01*
X004358Y020151D02*
X006815Y020151D01*
X006107Y020310D02*
X004358Y020310D01*
X004381Y020468D02*
X004310Y020468D01*
X004220Y020627D02*
X002629Y020627D01*
X002629Y020785D02*
X004191Y020785D01*
X004191Y020944D02*
X002629Y020944D01*
X002629Y021102D02*
X004192Y021102D01*
X004191Y021261D02*
X002629Y021261D01*
X002629Y021419D02*
X004191Y021419D01*
X004191Y021578D02*
X002629Y021578D01*
X002629Y021736D02*
X004191Y021736D01*
X004191Y021895D02*
X002629Y021895D01*
X002629Y022053D02*
X004191Y022053D01*
X004191Y022212D02*
X002629Y022212D01*
X002629Y022370D02*
X004191Y022370D01*
X004191Y022529D02*
X002629Y022529D01*
X002629Y022687D02*
X004237Y022687D01*
X004191Y023163D02*
X002629Y023163D01*
X002629Y023321D02*
X004191Y023321D01*
X004191Y023480D02*
X002629Y023480D01*
X002629Y023638D02*
X004196Y023638D01*
X004191Y023797D02*
X002629Y023797D01*
X002629Y023955D02*
X004191Y023955D01*
X004216Y024114D02*
X002629Y024114D01*
X002629Y024272D02*
X004358Y024272D01*
X004220Y024682D02*
X004310Y024772D01*
X004358Y024890D01*
X004358Y025647D01*
X004310Y025765D01*
X004220Y025855D01*
X004102Y025904D01*
X003108Y025904D01*
X002991Y025855D01*
X002901Y025765D01*
X002852Y025647D01*
X002852Y024890D01*
X002901Y024772D01*
X002991Y024682D01*
X003108Y024634D01*
X004102Y024634D01*
X004220Y024682D01*
X004285Y024748D02*
X018065Y024748D01*
X018065Y024906D02*
X004358Y024906D01*
X004358Y025065D02*
X018065Y025065D01*
X018065Y025223D02*
X004358Y025223D01*
X004358Y025382D02*
X018065Y025382D01*
X018065Y025540D02*
X004358Y025540D01*
X004337Y025699D02*
X018065Y025699D01*
X018065Y025857D02*
X004214Y025857D01*
X002996Y025857D02*
X002558Y025857D01*
X002516Y026016D02*
X018065Y026016D01*
X018065Y026174D02*
X002425Y026174D01*
X002515Y026018D02*
X002297Y026397D01*
X001987Y026706D01*
X001609Y026925D01*
X001609Y026925D01*
X001186Y027038D01*
X000660Y027038D01*
X000660Y029568D01*
X002994Y029568D01*
X003076Y029650D01*
X003076Y031983D01*
X005606Y031983D01*
X005606Y031457D01*
X005719Y031035D01*
X005937Y030656D01*
X006247Y030347D01*
X006625Y030128D01*
X007048Y030015D01*
X025596Y030015D01*
X026018Y030128D01*
X026397Y030347D01*
X026706Y030656D01*
X026706Y030656D01*
X026925Y031035D01*
X027038Y031457D01*
X027038Y031983D01*
X029568Y031983D01*
X029568Y029650D01*
X029650Y029568D01*
X031983Y029568D01*
X031983Y027038D01*
X031457Y027038D01*
X031035Y026925D01*
X030656Y026706D01*
X030347Y026397D01*
X030128Y026018D01*
X030015Y025596D01*
X030015Y007362D01*
X030015Y007048D01*
X030128Y006625D01*
X030347Y006247D01*
X030656Y005937D01*
X031035Y005719D01*
X031457Y005606D01*
X031983Y005606D01*
X031983Y003076D01*
X029650Y003076D01*
X029568Y002994D01*
X029568Y000660D01*
X027038Y000660D01*
X027038Y001186D01*
X026925Y001609D01*
X026706Y001987D01*
X026706Y001987D01*
X026397Y002297D01*
X026018Y002515D01*
X025596Y002629D01*
X007048Y002629D01*
X006625Y002515D01*
X006247Y002297D01*
X006247Y002297D01*
X005937Y001987D01*
X005719Y001609D01*
X005719Y001609D01*
X005606Y001186D01*
X005606Y000660D01*
X003076Y000660D01*
X003076Y002994D01*
X002994Y003076D01*
X000660Y003076D01*
X000660Y005606D01*
X001186Y005606D01*
X001609Y005719D01*
X001987Y005937D01*
X002297Y006247D01*
X002515Y006625D01*
X002515Y006625D01*
X002629Y007048D01*
X002629Y025596D01*
X002515Y026018D01*
X002515Y026018D01*
X002601Y025699D02*
X002873Y025699D01*
X002852Y025540D02*
X002629Y025540D01*
X002629Y025382D02*
X002852Y025382D01*
X002852Y025223D02*
X002629Y025223D01*
X002629Y025065D02*
X002852Y025065D01*
X002852Y024906D02*
X002629Y024906D01*
X002629Y024748D02*
X002926Y024748D01*
X002334Y026333D02*
X018065Y026333D01*
X018065Y026491D02*
X002202Y026491D01*
X002297Y026397D02*
X002297Y026397D01*
X002044Y026650D02*
X018065Y026650D01*
X018100Y026808D02*
X001811Y026808D01*
X001987Y026706D02*
X001987Y026706D01*
X001987Y026706D01*
X001453Y026967D02*
X017941Y026967D01*
X017773Y027125D02*
X000660Y027125D01*
X000660Y027284D02*
X017685Y027284D01*
X017663Y027442D02*
X000660Y027442D01*
X000660Y027601D02*
X017663Y027601D01*
X017663Y027759D02*
X000660Y027759D01*
X000660Y027918D02*
X017685Y027918D01*
X017685Y028076D02*
X000660Y028076D01*
X000660Y028235D02*
X017701Y028235D01*
X017714Y028334D02*
X017804Y028424D01*
X017852Y028542D01*
X017852Y029535D01*
X017804Y029653D01*
X017714Y029743D01*
X017596Y029791D01*
X016839Y029791D01*
X016721Y029743D01*
X016631Y029653D01*
X016582Y029535D01*
X016582Y028542D01*
X016631Y028424D01*
X016721Y028334D01*
X016839Y028285D01*
X017596Y028285D01*
X017714Y028334D01*
X017773Y028393D02*
X017813Y028393D01*
X017852Y028552D02*
X021878Y028552D01*
X021878Y028542D02*
X021926Y028424D01*
X022016Y028334D01*
X022134Y028285D01*
X022891Y028285D01*
X023009Y028334D01*
X023099Y028424D01*
X023148Y028542D01*
X023148Y029535D01*
X023099Y029653D01*
X023009Y029743D01*
X022891Y029791D01*
X022134Y029791D01*
X022016Y029743D01*
X021926Y029653D01*
X021878Y029535D01*
X021878Y028542D01*
X021878Y028710D02*
X017852Y028710D01*
X017852Y028869D02*
X021878Y028869D01*
X021878Y029027D02*
X017852Y029027D01*
X017852Y029186D02*
X021878Y029186D01*
X021878Y029344D02*
X017852Y029344D01*
X017852Y029503D02*
X021878Y029503D01*
X021935Y029661D02*
X017795Y029661D01*
X016640Y029661D02*
X003076Y029661D01*
X003076Y029820D02*
X029568Y029820D01*
X029568Y029978D02*
X003076Y029978D01*
X003076Y030137D02*
X006611Y030137D01*
X006625Y030128D02*
X006625Y030128D01*
X006336Y030295D02*
X003076Y030295D01*
X003076Y030454D02*
X006140Y030454D01*
X006247Y030347D02*
X006247Y030347D01*
X005981Y030612D02*
X003076Y030612D01*
X003076Y030771D02*
X005871Y030771D01*
X005937Y030656D02*
X005937Y030656D01*
X005780Y030929D02*
X003076Y030929D01*
X003076Y031088D02*
X005705Y031088D01*
X005719Y031035D02*
X005719Y031035D01*
X005662Y031246D02*
X003076Y031246D01*
X003076Y031405D02*
X005620Y031405D01*
X005606Y031563D02*
X003076Y031563D01*
X003076Y031722D02*
X005606Y031722D01*
X005606Y031880D02*
X003076Y031880D01*
X000660Y029503D02*
X016582Y029503D01*
X016582Y029344D02*
X000660Y029344D01*
X000660Y029186D02*
X016582Y029186D01*
X016582Y029027D02*
X000660Y029027D01*
X000660Y028869D02*
X016582Y028869D01*
X016582Y028710D02*
X000660Y028710D01*
X000660Y028552D02*
X016582Y028552D01*
X016662Y028393D02*
X000660Y028393D01*
X002629Y020468D02*
X002900Y020468D01*
X002852Y020310D02*
X002629Y020310D01*
X002629Y020151D02*
X002852Y020151D01*
X002852Y019993D02*
X002629Y019993D01*
X002629Y019834D02*
X002852Y019834D01*
X002852Y019676D02*
X002629Y019676D01*
X002629Y019517D02*
X002884Y019517D01*
X003060Y019359D02*
X002629Y019359D01*
X002629Y013177D02*
X004093Y013177D01*
X004033Y013019D02*
X002629Y013019D01*
X002629Y012860D02*
X004033Y012860D01*
X004033Y012702D02*
X002629Y012702D01*
X002629Y012543D02*
X004033Y012543D01*
X004033Y012385D02*
X002629Y012385D01*
X002629Y012226D02*
X004060Y012226D01*
X004212Y012068D02*
X002629Y012068D01*
X002629Y011592D02*
X005441Y011592D01*
X005372Y011434D02*
X002629Y011434D01*
X002629Y011275D02*
X005372Y011275D01*
X005372Y011117D02*
X002629Y011117D01*
X002629Y010958D02*
X005372Y010958D01*
X005372Y010800D02*
X002629Y010800D01*
X002629Y010641D02*
X005372Y010641D01*
X005404Y010483D02*
X002629Y010483D01*
X002629Y010324D02*
X005577Y010324D01*
X005491Y010166D02*
X002629Y010166D01*
X002629Y010007D02*
X005384Y010007D01*
X005372Y009849D02*
X002629Y009849D01*
X002629Y009690D02*
X005372Y009690D01*
X005390Y009532D02*
X002629Y009532D01*
X002629Y009373D02*
X005372Y009373D01*
X005372Y009215D02*
X002629Y009215D01*
X002629Y009056D02*
X005383Y009056D01*
X005372Y008898D02*
X002629Y008898D01*
X002629Y008739D02*
X005372Y008739D01*
X005376Y008581D02*
X002629Y008581D01*
X002629Y008422D02*
X005372Y008422D01*
X005372Y008264D02*
X002629Y008264D01*
X002629Y008105D02*
X005372Y008105D01*
X005283Y008010D02*
X005401Y007961D01*
X005491Y007871D01*
X005539Y007753D01*
X005539Y006996D01*
X005491Y006879D01*
X005401Y006789D01*
X005283Y006740D01*
X004290Y006740D01*
X004172Y006789D01*
X004082Y006879D01*
X004033Y006996D01*
X004033Y007753D01*
X004082Y007871D01*
X004172Y007961D01*
X004290Y008010D01*
X005283Y008010D01*
X005415Y007947D02*
X005455Y007947D01*
X005525Y007788D02*
X006817Y007788D01*
X007393Y007788D02*
X017966Y007788D01*
X017966Y007630D02*
X005539Y007630D01*
X005539Y007471D02*
X017966Y007471D01*
X017966Y007313D02*
X005539Y007313D01*
X005539Y007154D02*
X017966Y007154D01*
X017966Y006996D02*
X014116Y006996D01*
X014112Y006997D02*
X013906Y006997D01*
X013715Y006918D01*
X013570Y006773D01*
X013491Y006582D01*
X013491Y006376D01*
X013570Y006186D01*
X013609Y006147D01*
X013609Y005488D01*
X013600Y005479D01*
X013551Y005362D01*
X013551Y004576D01*
X013482Y004576D01*
X013482Y005362D01*
X013434Y005479D01*
X013344Y005569D01*
X013609Y005569D01*
X013609Y005728D02*
X012445Y005728D01*
X012469Y005669D02*
X012412Y005809D01*
X012305Y005916D01*
X012206Y006014D01*
X012067Y006072D01*
X008323Y006072D01*
X008314Y006081D01*
X008145Y006151D01*
X007963Y006151D01*
X007794Y006081D01*
X007665Y005952D01*
X007595Y005783D01*
X007595Y005600D01*
X007665Y005432D01*
X007794Y005303D01*
X007963Y005233D01*
X008145Y005233D01*
X008314Y005303D01*
X008323Y005312D01*
X010200Y005312D01*
X010156Y005294D01*
X010027Y005164D01*
X009957Y004996D01*
X009957Y004813D01*
X010027Y004644D01*
X010156Y004515D01*
X010325Y004445D01*
X010508Y004445D01*
X010598Y004483D01*
X010598Y004447D01*
X010647Y004329D01*
X010737Y004239D01*
X010855Y004191D01*
X011089Y004191D01*
X011089Y004026D01*
X011159Y003857D01*
X011288Y003728D01*
X011457Y003658D01*
X011639Y003658D01*
X011808Y003728D01*
X011937Y003857D01*
X012007Y004026D01*
X012007Y004191D01*
X012103Y004191D01*
X012103Y003451D01*
X012161Y003311D01*
X012268Y003204D01*
X012465Y003007D01*
X012604Y002950D01*
X013641Y002950D01*
X013781Y003007D01*
X013888Y003114D01*
X014038Y003264D01*
X014051Y003264D01*
X014220Y003334D01*
X014349Y003463D01*
X014419Y003632D01*
X014419Y003815D01*
X014349Y003983D01*
X014220Y004112D01*
X014051Y004182D01*
X014025Y004182D01*
X014025Y004191D01*
X014210Y004191D01*
X014255Y004209D01*
X014299Y004191D01*
X014702Y004191D01*
X014820Y004239D01*
X014910Y004329D01*
X014959Y004447D01*
X014959Y005362D01*
X014910Y005479D01*
X014901Y005488D01*
X014901Y005588D01*
X015040Y005646D01*
X015186Y005792D01*
X015265Y005982D01*
X015265Y006189D01*
X015186Y006379D01*
X015040Y006525D01*
X014850Y006604D01*
X014644Y006604D01*
X014527Y006555D01*
X014527Y006582D01*
X014448Y006773D01*
X014302Y006918D01*
X014112Y006997D01*
X013901Y006996D02*
X005539Y006996D01*
X005449Y006837D02*
X013634Y006837D01*
X013531Y006679D02*
X002530Y006679D01*
X002572Y006837D02*
X004124Y006837D01*
X004034Y006996D02*
X002614Y006996D01*
X002629Y007154D02*
X004033Y007154D01*
X004033Y007313D02*
X002629Y007313D01*
X002629Y007471D02*
X004033Y007471D01*
X004033Y007630D02*
X002629Y007630D01*
X002629Y007788D02*
X004048Y007788D01*
X004157Y007947D02*
X002629Y007947D01*
X002454Y006520D02*
X013491Y006520D01*
X013497Y006362D02*
X002363Y006362D01*
X002297Y006247D02*
X002297Y006247D01*
X002253Y006203D02*
X013562Y006203D01*
X013609Y006045D02*
X012133Y006045D01*
X012334Y005886D02*
X013609Y005886D01*
X013344Y005569D02*
X013226Y005618D01*
X012823Y005618D01*
X012778Y005600D01*
X012734Y005618D01*
X012469Y005618D01*
X012469Y005669D01*
X013462Y005411D02*
X013571Y005411D01*
X013551Y005252D02*
X013482Y005252D01*
X013482Y005094D02*
X013551Y005094D01*
X013551Y004935D02*
X013482Y004935D01*
X013482Y004777D02*
X013551Y004777D01*
X013551Y004618D02*
X013482Y004618D01*
X014009Y004904D02*
X014009Y006430D01*
X014009Y006479D01*
X014487Y006679D02*
X017966Y006679D01*
X017966Y006837D02*
X014384Y006837D01*
X015045Y006520D02*
X017966Y006520D01*
X017966Y006362D02*
X015193Y006362D01*
X015259Y006203D02*
X017966Y006203D01*
X017966Y006045D02*
X015265Y006045D01*
X015225Y005886D02*
X017911Y005886D01*
X017763Y005728D02*
X015122Y005728D01*
X014901Y005569D02*
X017703Y005569D01*
X017703Y005411D02*
X014938Y005411D01*
X014959Y005252D02*
X017685Y005252D01*
X017685Y005094D02*
X014959Y005094D01*
X014959Y004935D02*
X017685Y004935D01*
X017685Y004777D02*
X014959Y004777D01*
X014959Y004618D02*
X017685Y004618D01*
X017685Y004460D02*
X014959Y004460D01*
X015047Y004358D02*
X014930Y004310D01*
X014840Y004220D01*
X014791Y004102D01*
X014791Y003108D01*
X014840Y002991D01*
X014930Y002901D01*
X015047Y002852D01*
X015805Y002852D01*
X015922Y002901D01*
X016012Y002991D01*
X016061Y003108D01*
X016061Y004102D01*
X016012Y004220D01*
X015922Y004310D01*
X015805Y004358D01*
X015047Y004358D01*
X014921Y004301D02*
X014882Y004301D01*
X014808Y004143D02*
X014147Y004143D01*
X014348Y003984D02*
X014791Y003984D01*
X014791Y003826D02*
X014414Y003826D01*
X014419Y003667D02*
X014791Y003667D01*
X014791Y003509D02*
X014367Y003509D01*
X014235Y003350D02*
X014791Y003350D01*
X014791Y003192D02*
X013965Y003192D01*
X013807Y003033D02*
X014822Y003033D01*
X014993Y002875D02*
X010563Y002875D01*
X010509Y002852D02*
X010627Y002901D01*
X010717Y002991D01*
X010766Y003108D01*
X010766Y004102D01*
X010717Y004220D01*
X010627Y004310D01*
X010509Y004358D01*
X009752Y004358D01*
X009635Y004310D01*
X009545Y004220D01*
X009496Y004102D01*
X009496Y003108D01*
X009545Y002991D01*
X009635Y002901D01*
X009752Y002852D01*
X010509Y002852D01*
X010734Y003033D02*
X012439Y003033D01*
X012281Y003192D02*
X010766Y003192D01*
X010766Y003350D02*
X012145Y003350D01*
X012103Y003509D02*
X010766Y003509D01*
X010766Y003667D02*
X011435Y003667D01*
X011661Y003667D02*
X012103Y003667D01*
X012103Y003826D02*
X011906Y003826D01*
X011990Y003984D02*
X012103Y003984D01*
X012103Y004143D02*
X012007Y004143D01*
X011190Y003826D02*
X010766Y003826D01*
X010766Y003984D02*
X011106Y003984D01*
X011089Y004143D02*
X010749Y004143D01*
X010675Y004301D02*
X010636Y004301D01*
X010598Y004460D02*
X010542Y004460D01*
X010291Y004460D02*
X000660Y004460D01*
X000660Y004618D02*
X010053Y004618D01*
X009972Y004777D02*
X000660Y004777D01*
X000660Y004935D02*
X009957Y004935D01*
X009998Y005094D02*
X000660Y005094D01*
X000660Y005252D02*
X007916Y005252D01*
X008192Y005252D02*
X010115Y005252D01*
X009626Y004301D02*
X000660Y004301D01*
X000660Y004143D02*
X009513Y004143D01*
X009496Y003984D02*
X000660Y003984D01*
X000660Y003826D02*
X009496Y003826D01*
X009496Y003667D02*
X000660Y003667D01*
X000660Y003509D02*
X009496Y003509D01*
X009496Y003350D02*
X000660Y003350D01*
X000660Y003192D02*
X009496Y003192D01*
X009527Y003033D02*
X003037Y003033D01*
X003076Y002875D02*
X009698Y002875D01*
X007686Y005411D02*
X000660Y005411D01*
X000660Y005569D02*
X007608Y005569D01*
X007595Y005728D02*
X001624Y005728D01*
X001609Y005719D02*
X001609Y005719D01*
X001898Y005886D02*
X007638Y005886D01*
X007758Y006045D02*
X002094Y006045D01*
X001987Y005937D02*
X001987Y005937D01*
X003076Y002716D02*
X029568Y002716D01*
X029568Y002558D02*
X025861Y002558D01*
X026018Y002515D02*
X026018Y002515D01*
X026219Y002399D02*
X029568Y002399D01*
X029568Y002241D02*
X026453Y002241D01*
X026397Y002297D02*
X026397Y002297D01*
X026611Y002082D02*
X029568Y002082D01*
X029568Y001924D02*
X026743Y001924D01*
X026834Y001765D02*
X029568Y001765D01*
X029568Y001607D02*
X026925Y001607D01*
X026925Y001609D02*
X026925Y001609D01*
X026968Y001448D02*
X029568Y001448D01*
X029568Y001290D02*
X027010Y001290D01*
X027038Y001131D02*
X029568Y001131D01*
X029568Y000973D02*
X027038Y000973D01*
X027038Y000814D02*
X029568Y000814D01*
X029568Y002875D02*
X022945Y002875D01*
X022891Y002852D02*
X023009Y002901D01*
X023099Y002991D01*
X023148Y003108D01*
X023148Y004102D01*
X023099Y004220D01*
X023009Y004310D01*
X022891Y004358D01*
X022134Y004358D01*
X022016Y004310D01*
X021926Y004220D01*
X021878Y004102D01*
X021878Y003108D01*
X021926Y002991D01*
X022016Y002901D01*
X022134Y002852D01*
X022891Y002852D01*
X023116Y003033D02*
X029607Y003033D01*
X031983Y003192D02*
X023148Y003192D01*
X023148Y003350D02*
X031983Y003350D01*
X031983Y003509D02*
X023148Y003509D01*
X023148Y003667D02*
X031983Y003667D01*
X031983Y003826D02*
X023148Y003826D01*
X023148Y003984D02*
X031983Y003984D01*
X031983Y004143D02*
X023131Y004143D01*
X023017Y004301D02*
X031983Y004301D01*
X031983Y004460D02*
X020569Y004460D01*
X020569Y004618D02*
X031983Y004618D01*
X031983Y004777D02*
X020569Y004777D01*
X020569Y004935D02*
X031983Y004935D01*
X031983Y005094D02*
X020569Y005094D01*
X020569Y005252D02*
X031983Y005252D01*
X031983Y005411D02*
X020612Y005411D01*
X020677Y005569D02*
X031983Y005569D01*
X031035Y005719D02*
X031035Y005719D01*
X031020Y005728D02*
X020681Y005728D01*
X020681Y005886D02*
X030745Y005886D01*
X030656Y005937D02*
X030656Y005937D01*
X030656Y005937D01*
X030549Y006045D02*
X020681Y006045D01*
X020681Y006203D02*
X030391Y006203D01*
X030281Y006362D02*
X020675Y006362D01*
X020609Y006520D02*
X030189Y006520D01*
X030114Y006679D02*
X020472Y006679D01*
X020313Y006837D02*
X030071Y006837D01*
X030029Y006996D02*
X020108Y006996D01*
X019622Y006996D02*
X019106Y006996D01*
X019106Y007154D02*
X030015Y007154D01*
X030015Y007313D02*
X019106Y007313D01*
X019106Y007471D02*
X030015Y007471D01*
X030015Y007630D02*
X019106Y007630D01*
X019106Y007788D02*
X030015Y007788D01*
X030015Y007947D02*
X019106Y007947D01*
X019106Y008105D02*
X030015Y008105D01*
X030015Y008264D02*
X019106Y008264D01*
X019106Y008422D02*
X030015Y008422D01*
X030015Y008581D02*
X019106Y008581D01*
X019106Y008739D02*
X030015Y008739D01*
X030015Y008898D02*
X019106Y008898D01*
X019106Y009056D02*
X030015Y009056D01*
X030015Y009215D02*
X019106Y009215D01*
X019106Y009373D02*
X030015Y009373D01*
X030015Y009532D02*
X029621Y009532D01*
X029653Y009545D02*
X029743Y009635D01*
X029791Y009752D01*
X029791Y010509D01*
X029743Y010627D01*
X029653Y010717D01*
X029535Y010766D01*
X028542Y010766D01*
X028424Y010717D01*
X028334Y010627D01*
X028285Y010509D01*
X028285Y009752D01*
X028334Y009635D01*
X028424Y009545D01*
X028542Y009496D01*
X029535Y009496D01*
X029653Y009545D01*
X029766Y009690D02*
X030015Y009690D01*
X030015Y009849D02*
X029791Y009849D01*
X029791Y010007D02*
X030015Y010007D01*
X030015Y010166D02*
X029791Y010166D01*
X029791Y010324D02*
X030015Y010324D01*
X030015Y010483D02*
X029791Y010483D01*
X029729Y010641D02*
X030015Y010641D01*
X030015Y010800D02*
X026493Y010800D01*
X026623Y010958D02*
X030015Y010958D01*
X030015Y011117D02*
X028260Y011117D01*
X028423Y011275D02*
X030015Y011275D01*
X030015Y011434D02*
X028453Y011434D01*
X028453Y011592D02*
X030015Y011592D01*
X030015Y011751D02*
X028452Y011751D01*
X028453Y011909D02*
X030015Y011909D01*
X030015Y012068D02*
X028453Y012068D01*
X028453Y012226D02*
X030015Y012226D01*
X030015Y012385D02*
X028379Y012385D01*
X028400Y012702D02*
X030015Y012702D01*
X030015Y012860D02*
X028453Y012860D01*
X028453Y013019D02*
X030015Y013019D01*
X030015Y013177D02*
X028453Y013177D01*
X028453Y013336D02*
X030015Y013336D01*
X030015Y013494D02*
X028453Y013494D01*
X028453Y013653D02*
X030015Y013653D01*
X030015Y013811D02*
X028453Y013811D01*
X028453Y013970D02*
X030015Y013970D01*
X030015Y014128D02*
X028453Y014128D01*
X028447Y014287D02*
X030015Y014287D01*
X030015Y014445D02*
X028453Y014445D01*
X028453Y014604D02*
X030015Y014604D01*
X030015Y014762D02*
X028428Y014762D01*
X028424Y014840D02*
X028542Y014791D01*
X029535Y014791D01*
X029653Y014840D01*
X029743Y014930D01*
X029791Y015047D01*
X029791Y015805D01*
X029743Y015922D01*
X029653Y016012D01*
X029535Y016061D01*
X028542Y016061D01*
X028424Y016012D01*
X028334Y015922D01*
X028285Y015805D01*
X028285Y015047D01*
X028334Y014930D01*
X028424Y014840D01*
X028343Y014921D02*
X028288Y014921D01*
X028285Y015079D02*
X022498Y015079D01*
X022707Y014921D02*
X027190Y014921D01*
X027050Y014762D02*
X022916Y014762D01*
X023125Y014604D02*
X026924Y014604D01*
X027082Y015872D02*
X028313Y015872D01*
X028285Y015713D02*
X021662Y015713D01*
X021871Y015555D02*
X028285Y015555D01*
X028285Y015396D02*
X022080Y015396D01*
X022289Y015238D02*
X028285Y015238D01*
X028467Y016030D02*
X027184Y016030D01*
X027193Y016189D02*
X030015Y016189D01*
X030015Y016347D02*
X027193Y016347D01*
X027193Y016506D02*
X030015Y016506D01*
X030015Y016664D02*
X027193Y016664D01*
X027187Y016823D02*
X030015Y016823D01*
X030015Y016981D02*
X028349Y016981D01*
X028447Y017140D02*
X030015Y017140D01*
X030015Y017298D02*
X028453Y017298D01*
X028453Y017457D02*
X030015Y017457D01*
X030015Y017615D02*
X028440Y017615D01*
X028453Y017774D02*
X030015Y017774D01*
X030015Y017932D02*
X028453Y017932D01*
X028435Y018091D02*
X030015Y018091D01*
X030015Y018249D02*
X028453Y018249D01*
X028453Y018408D02*
X030015Y018408D01*
X030015Y018566D02*
X028946Y018566D01*
X029216Y018725D02*
X030015Y018725D01*
X030015Y018883D02*
X029336Y018883D01*
X029379Y019042D02*
X030015Y019042D01*
X030015Y019200D02*
X029366Y019200D01*
X029288Y019359D02*
X030015Y019359D01*
X030015Y019517D02*
X029059Y019517D01*
X028781Y019517D02*
X028412Y019517D01*
X028404Y019497D02*
X028453Y019614D01*
X028453Y020017D01*
X028434Y020062D01*
X028453Y020107D01*
X028453Y020509D01*
X028404Y020627D01*
X028314Y020717D01*
X028196Y020766D01*
X027282Y020766D01*
X027164Y020717D01*
X027155Y020708D01*
X025501Y020708D01*
X025501Y020756D01*
X025422Y020946D01*
X025277Y021092D01*
X025086Y021171D01*
X024880Y021171D01*
X024690Y021092D01*
X024544Y020946D01*
X024465Y020756D01*
X024465Y020549D01*
X024544Y020359D01*
X024644Y020259D01*
X024544Y020159D01*
X024465Y019968D01*
X024465Y019762D01*
X024544Y019572D01*
X024690Y019426D01*
X024880Y019347D01*
X025086Y019347D01*
X025253Y019416D01*
X027155Y019416D01*
X027164Y019407D01*
X027282Y019358D01*
X028196Y019358D01*
X028314Y019407D01*
X028404Y019497D01*
X028453Y019676D02*
X030015Y019676D01*
X030015Y019834D02*
X028453Y019834D01*
X028453Y019993D02*
X030015Y019993D01*
X030015Y020151D02*
X028453Y020151D01*
X028453Y020310D02*
X030015Y020310D01*
X030015Y020468D02*
X028453Y020468D01*
X028404Y020627D02*
X030015Y020627D01*
X030015Y020785D02*
X025489Y020785D01*
X025423Y020944D02*
X030015Y020944D01*
X030015Y021102D02*
X026965Y021102D01*
X026937Y021090D02*
X027054Y021139D01*
X027144Y021229D01*
X027193Y021347D01*
X027193Y022104D01*
X027144Y022222D01*
X027054Y022312D01*
X026937Y022360D01*
X025943Y022360D01*
X025826Y022312D01*
X025735Y022222D01*
X025687Y022104D01*
X025687Y021347D01*
X025735Y021229D01*
X025826Y021139D01*
X025943Y021090D01*
X026937Y021090D01*
X027157Y021261D02*
X030015Y021261D01*
X030015Y021419D02*
X027193Y021419D01*
X027193Y021578D02*
X030015Y021578D01*
X030015Y021736D02*
X027193Y021736D01*
X027193Y021895D02*
X030015Y021895D01*
X030015Y022053D02*
X027193Y022053D01*
X027148Y022212D02*
X030015Y022212D01*
X030015Y022370D02*
X019911Y022370D01*
X019911Y022212D02*
X025731Y022212D01*
X025687Y022053D02*
X019911Y022053D01*
X019911Y021895D02*
X025687Y021895D01*
X025687Y021736D02*
X019911Y021736D01*
X019911Y021578D02*
X025687Y021578D01*
X025687Y021419D02*
X019911Y021419D01*
X019911Y021261D02*
X025722Y021261D01*
X025915Y021102D02*
X025252Y021102D01*
X024983Y020652D02*
X025328Y020308D01*
X027739Y020308D01*
X027739Y019816D02*
X025032Y019816D01*
X024983Y019865D01*
X024501Y019676D02*
X019948Y019676D01*
X019911Y019834D02*
X024465Y019834D01*
X024475Y019993D02*
X019911Y019993D01*
X019911Y020151D02*
X024541Y020151D01*
X024593Y020310D02*
X019911Y020310D01*
X019911Y020468D02*
X024499Y020468D01*
X024465Y020627D02*
X019911Y020627D01*
X019911Y020785D02*
X024477Y020785D01*
X024543Y020944D02*
X019911Y020944D01*
X019911Y021102D02*
X024715Y021102D01*
X024598Y019517D02*
X019989Y019517D01*
X019985Y019359D02*
X024852Y019359D01*
X025114Y019359D02*
X027280Y019359D01*
X027123Y019200D02*
X019973Y019200D01*
X019782Y017140D02*
X026693Y017140D01*
X025790Y016981D02*
X019991Y016981D01*
X020199Y016823D02*
X025693Y016823D01*
X025687Y016664D02*
X020408Y016664D01*
X020617Y016506D02*
X025687Y016506D01*
X025687Y016347D02*
X020826Y016347D01*
X021035Y016189D02*
X025687Y016189D01*
X025696Y016030D02*
X021244Y016030D01*
X021453Y015872D02*
X025798Y015872D01*
X026493Y012860D02*
X019106Y012860D01*
X019106Y012702D02*
X026493Y012702D01*
X026552Y012543D02*
X025123Y012543D01*
X024843Y012543D02*
X019106Y012543D01*
X019106Y012385D02*
X024595Y012385D01*
X024499Y012226D02*
X019106Y012226D01*
X019106Y012068D02*
X024465Y012068D01*
X024477Y011909D02*
X019106Y011909D01*
X019106Y011751D02*
X024542Y011751D01*
X024711Y011592D02*
X019106Y011592D01*
X019106Y011434D02*
X025699Y011434D01*
X025646Y011275D02*
X019106Y011275D01*
X019106Y011117D02*
X025646Y011117D01*
X025705Y010958D02*
X019106Y010958D01*
X019106Y010800D02*
X025836Y010800D01*
X026164Y011204D02*
X026509Y011548D01*
X027739Y011548D01*
X027739Y012040D02*
X026213Y012040D01*
X026164Y012040D01*
X024983Y012040D01*
X025255Y011592D02*
X025820Y011592D01*
X026682Y011117D02*
X027218Y011117D01*
X028348Y010641D02*
X019106Y010641D01*
X019106Y010483D02*
X028285Y010483D01*
X028285Y010324D02*
X019106Y010324D01*
X019106Y010166D02*
X028285Y010166D01*
X028285Y010007D02*
X019106Y010007D01*
X019106Y009849D02*
X028285Y009849D01*
X028311Y009690D02*
X019106Y009690D01*
X019106Y009532D02*
X028455Y009532D01*
X027351Y012543D02*
X030015Y012543D01*
X030015Y014921D02*
X029733Y014921D01*
X029791Y015079D02*
X030015Y015079D01*
X030015Y015238D02*
X029791Y015238D01*
X029791Y015396D02*
X030015Y015396D01*
X030015Y015555D02*
X029791Y015555D01*
X029791Y015713D02*
X030015Y015713D01*
X030015Y015872D02*
X029764Y015872D01*
X029610Y016030D02*
X030015Y016030D01*
X027025Y018883D02*
X026981Y018883D01*
X027029Y019042D02*
X026823Y019042D01*
X028198Y019359D02*
X028552Y019359D01*
X030015Y022529D02*
X019911Y022529D01*
X019911Y022687D02*
X030015Y022687D01*
X030015Y022846D02*
X019911Y022846D01*
X019911Y023004D02*
X030015Y023004D01*
X030015Y023163D02*
X019911Y023163D01*
X019911Y023321D02*
X030015Y023321D01*
X030015Y023480D02*
X019911Y023480D01*
X019911Y023638D02*
X030015Y023638D01*
X030015Y023797D02*
X019911Y023797D01*
X019911Y023955D02*
X030015Y023955D01*
X030015Y024114D02*
X019911Y024114D01*
X019911Y024272D02*
X030015Y024272D01*
X030015Y024431D02*
X019911Y024431D01*
X019911Y024589D02*
X030015Y024589D01*
X030015Y024748D02*
X019911Y024748D01*
X019911Y024906D02*
X030015Y024906D01*
X030015Y025065D02*
X019911Y025065D01*
X019911Y025223D02*
X030015Y025223D01*
X030015Y025382D02*
X020996Y025382D01*
X021118Y025540D02*
X030015Y025540D01*
X030043Y025699D02*
X021171Y025699D01*
X021171Y025857D02*
X030085Y025857D01*
X030128Y026016D02*
X021112Y026016D01*
X021091Y026174D02*
X021003Y026174D01*
X020603Y025820D02*
X020652Y025771D01*
X020603Y025820D02*
X020603Y027739D01*
X021095Y027739D02*
X021095Y026902D01*
X021440Y026558D01*
X021789Y026174D02*
X030218Y026174D01*
X030128Y026018D02*
X030128Y026018D01*
X030310Y026333D02*
X021907Y026333D01*
X021958Y026491D02*
X030441Y026491D01*
X030347Y026397D02*
X030347Y026397D01*
X030600Y026650D02*
X021958Y026650D01*
X021897Y026808D02*
X030833Y026808D01*
X030656Y026706D02*
X030656Y026706D01*
X031035Y026925D02*
X031035Y026925D01*
X031191Y026967D02*
X021764Y026967D01*
X021495Y027125D02*
X031983Y027125D01*
X031983Y027284D02*
X021553Y027284D01*
X021553Y027442D02*
X031983Y027442D01*
X031983Y027601D02*
X021553Y027601D01*
X021553Y027759D02*
X031983Y027759D01*
X031983Y027918D02*
X021553Y027918D01*
X021553Y028076D02*
X031983Y028076D01*
X031983Y028235D02*
X021537Y028235D01*
X021425Y028393D02*
X021957Y028393D01*
X023068Y028393D02*
X031983Y028393D01*
X031983Y028552D02*
X023148Y028552D01*
X023148Y028710D02*
X031983Y028710D01*
X031983Y028869D02*
X023148Y028869D01*
X023148Y029027D02*
X031983Y029027D01*
X031983Y029186D02*
X023148Y029186D01*
X023148Y029344D02*
X031983Y029344D01*
X031983Y029503D02*
X023148Y029503D01*
X023090Y029661D02*
X029568Y029661D01*
X029568Y030137D02*
X026033Y030137D01*
X026018Y030128D02*
X026018Y030128D01*
X026307Y030295D02*
X029568Y030295D01*
X029568Y030454D02*
X026503Y030454D01*
X026397Y030347D02*
X026397Y030347D01*
X026662Y030612D02*
X029568Y030612D01*
X029568Y030771D02*
X026772Y030771D01*
X026864Y030929D02*
X029568Y030929D01*
X029568Y031088D02*
X026939Y031088D01*
X026925Y031035D02*
X026925Y031035D01*
X026981Y031246D02*
X029568Y031246D01*
X029568Y031405D02*
X027024Y031405D01*
X027038Y031563D02*
X029568Y031563D01*
X029568Y031722D02*
X027038Y031722D01*
X027038Y031880D02*
X029568Y031880D01*
X020273Y028393D02*
X019949Y028393D01*
X020061Y028235D02*
X020161Y028235D01*
X020145Y028076D02*
X020077Y028076D01*
X020077Y027918D02*
X020145Y027918D01*
X020145Y027759D02*
X020077Y027759D01*
X020077Y027601D02*
X020145Y027601D01*
X020145Y027442D02*
X020077Y027442D01*
X020077Y027284D02*
X020145Y027284D01*
X019993Y026174D02*
X019911Y026174D01*
X019911Y026016D02*
X020193Y026016D01*
X020134Y025857D02*
X019911Y025857D01*
X019911Y025699D02*
X020134Y025699D01*
X020187Y025540D02*
X019911Y025540D01*
X019911Y025382D02*
X020309Y025382D01*
X019149Y016189D02*
X019106Y016189D01*
X019106Y016030D02*
X019358Y016030D01*
X019567Y015872D02*
X019106Y015872D01*
X019106Y015713D02*
X019776Y015713D01*
X019985Y015555D02*
X019106Y015555D01*
X019106Y015396D02*
X020194Y015396D01*
X020403Y015238D02*
X019106Y015238D01*
X019106Y015079D02*
X020252Y015079D01*
X020164Y014921D02*
X019106Y014921D01*
X019106Y014762D02*
X020134Y014762D01*
X020151Y014604D02*
X019106Y014604D01*
X019106Y014445D02*
X020222Y014445D01*
X020410Y014287D02*
X019106Y014287D01*
X019106Y014128D02*
X020731Y014128D01*
X020935Y013970D02*
X019106Y013970D01*
X019106Y013811D02*
X021139Y013811D01*
X021343Y013653D02*
X019106Y013653D01*
X019106Y013494D02*
X021547Y013494D01*
X021750Y013336D02*
X019106Y013336D01*
X019106Y013177D02*
X021954Y013177D01*
X022152Y013019D02*
X019106Y013019D01*
X017966Y010641D02*
X010887Y010641D01*
X010693Y010483D02*
X017966Y010483D01*
X017966Y010324D02*
X010499Y010324D01*
X010305Y010166D02*
X017966Y010166D01*
X017966Y010007D02*
X010110Y010007D01*
X009916Y009849D02*
X017966Y009849D01*
X017966Y009690D02*
X009722Y009690D01*
X009528Y009532D02*
X017966Y009532D01*
X017966Y009373D02*
X009334Y009373D01*
X009140Y009215D02*
X017966Y009215D01*
X017966Y009056D02*
X008946Y009056D01*
X008752Y008898D02*
X017966Y008898D01*
X017966Y008739D02*
X008558Y008739D01*
X008364Y008581D02*
X017966Y008581D01*
X017966Y008422D02*
X008169Y008422D01*
X007975Y008264D02*
X017966Y008264D01*
X017966Y008105D02*
X007781Y008105D01*
X007587Y007947D02*
X017966Y007947D01*
X019106Y006837D02*
X019417Y006837D01*
X019331Y006679D02*
X019106Y006679D01*
X019106Y006520D02*
X019295Y006520D01*
X019297Y006362D02*
X019106Y006362D01*
X019106Y006203D02*
X019362Y006203D01*
X019494Y006045D02*
X019106Y006045D01*
X019112Y005886D02*
X019437Y005886D01*
X019278Y005728D02*
X019270Y005728D01*
X020492Y004301D02*
X022008Y004301D01*
X021895Y004143D02*
X017836Y004143D01*
X017852Y004102D02*
X017804Y004220D01*
X017714Y004310D01*
X017596Y004358D01*
X016839Y004358D01*
X016721Y004310D01*
X016631Y004220D01*
X016582Y004102D01*
X016582Y003108D01*
X016631Y002991D01*
X016721Y002901D01*
X016839Y002852D01*
X017596Y002852D01*
X017714Y002901D01*
X017804Y002991D01*
X017852Y003108D01*
X017852Y004102D01*
X017852Y003984D02*
X021878Y003984D01*
X021878Y003826D02*
X017852Y003826D01*
X017852Y003667D02*
X021878Y003667D01*
X021878Y003509D02*
X017852Y003509D01*
X017852Y003350D02*
X021878Y003350D01*
X021878Y003192D02*
X017852Y003192D01*
X017821Y003033D02*
X021909Y003033D01*
X022080Y002875D02*
X017650Y002875D01*
X016785Y002875D02*
X015859Y002875D01*
X016030Y003033D02*
X016614Y003033D01*
X016582Y003192D02*
X016061Y003192D01*
X016061Y003350D02*
X016582Y003350D01*
X016582Y003509D02*
X016061Y003509D01*
X016061Y003667D02*
X016582Y003667D01*
X016582Y003826D02*
X016061Y003826D01*
X016061Y003984D02*
X016582Y003984D01*
X016599Y004143D02*
X016044Y004143D01*
X015931Y004301D02*
X016713Y004301D01*
X017722Y004301D02*
X017762Y004301D01*
X014747Y006086D02*
X014501Y005839D01*
X014501Y004904D01*
X007635Y010166D02*
X007084Y010166D01*
X007225Y010007D02*
X007446Y010007D01*
X007364Y010324D02*
X006594Y010324D01*
X006783Y002558D02*
X003076Y002558D01*
X003076Y002399D02*
X006424Y002399D01*
X006625Y002515D02*
X006625Y002515D01*
X006191Y002241D02*
X003076Y002241D01*
X003076Y002082D02*
X006032Y002082D01*
X005937Y001987D02*
X005937Y001987D01*
X005901Y001924D02*
X003076Y001924D01*
X003076Y001765D02*
X005809Y001765D01*
X005718Y001607D02*
X003076Y001607D01*
X003076Y001448D02*
X005676Y001448D01*
X005633Y001290D02*
X003076Y001290D01*
X003076Y001131D02*
X005606Y001131D01*
X005606Y000973D02*
X003076Y000973D01*
X003076Y000814D02*
X005606Y000814D01*
D22*
X014009Y006479D03*
X014747Y006086D03*
X019865Y006479D03*
X024983Y012040D03*
X026164Y011204D03*
X020652Y014747D03*
X019865Y018684D03*
X019471Y019471D03*
X017700Y019127D03*
X016814Y017257D03*
X024983Y019865D03*
X024983Y020652D03*
X020652Y025771D03*
X021440Y026558D03*
X007267Y023359D03*
X006873Y024196D03*
X007267Y011597D03*
X007660Y010761D03*
D23*
X021834Y007660D03*
X021834Y006873D03*
X022621Y006873D03*
X022621Y007660D03*
X023408Y007660D03*
X023408Y006873D03*
X023408Y006086D03*
X022621Y006086D03*
X021834Y006086D03*
M02*
