G75*
G70*
%OFA0B0*%
%FSLAX24Y24*%
%IPPOS*%
%LPD*%
%AMOC8*
5,1,8,0,0,1.08239X$1,22.5*
%
%ADD10C,0.2380*%
%ADD11C,0.1655*%
%ADD12C,0.0358*%
%ADD13C,0.0476*%
%ADD14C,0.0740*%
D10*
X001361Y001361D03*
X001361Y031282D03*
X031282Y031282D03*
X031282Y001361D03*
D11*
X027345Y000967D03*
X031676Y005298D03*
X031676Y027345D03*
X027345Y031676D03*
X005298Y031676D03*
X000967Y027345D03*
X000967Y005298D03*
X005298Y000967D03*
D12*
X008054Y005692D03*
X010416Y004904D03*
X011548Y004117D03*
X013566Y004117D03*
X013960Y003723D03*
X006824Y009776D03*
X006036Y022375D03*
X020259Y026558D03*
X028920Y019078D03*
X026952Y012778D03*
D13*
X026164Y011204D03*
X024983Y012040D03*
X020652Y014747D03*
X019865Y018684D03*
X019471Y019471D03*
X017700Y019127D03*
X016814Y017257D03*
X024983Y019865D03*
X024983Y020652D03*
X020652Y025771D03*
X021440Y026558D03*
X007267Y023359D03*
X006873Y024196D03*
X007267Y011597D03*
X007660Y010761D03*
X014009Y006479D03*
X014747Y006086D03*
X019865Y006479D03*
D14*
X021834Y006086D03*
X021834Y006873D03*
X021834Y007660D03*
X022621Y007660D03*
X022621Y006873D03*
X023408Y006873D03*
X023408Y007660D03*
X023408Y006086D03*
X022621Y006086D03*
M02*
