%
M48
M72
T01C0.0118
T02C0.0236
T03C0.0354
T04C0.0827
T05C0.1260
%
T01
X8054Y5692
X10416Y4904
X11548Y4117
X13566Y4117
X13960Y3723
X6824Y9776
X6036Y22375
X20259Y26558
X28920Y19078
X26952Y12778
T02
X26164Y11204
X24983Y12040
X20652Y14747
X19865Y18684
X19471Y19471
X17700Y19127
X16814Y17257
X24983Y19865
X24983Y20652
X20652Y25771
X21440Y26558
X7267Y23359
X6873Y24196
X7267Y11597
X7660Y10761
X14009Y6479
X14747Y6086
X19865Y6479
T03
X21834Y6086
X21834Y6873
X21834Y7660
X22621Y7660
X22621Y6873
X23408Y6873
X23408Y7660
X23408Y6086
X22621Y6086
T04
X27345Y967
X31676Y5298
X31676Y27345
X27345Y31676
X5298Y31676
X967Y27345
X967Y5298
X5298Y967
T05
X1361Y1361
X1361Y31282
X31282Y31282
X31282Y1361
M30
