G75*
G70*
%OFA0B0*%
%FSLAX24Y24*%
%IPPOS*%
%LPD*%
%AMOC8*
5,1,8,0,0,1.08239X$1,22.5*
%
%ADD10C,0.0000*%
D10*
X000180Y001361D02*
X000180Y006086D01*
X000967Y006086D01*
X001033Y006088D01*
X001099Y006093D01*
X001165Y006103D01*
X001230Y006116D01*
X001294Y006132D01*
X001357Y006152D01*
X001419Y006176D01*
X001479Y006203D01*
X001538Y006233D01*
X001595Y006267D01*
X001650Y006304D01*
X001703Y006344D01*
X001754Y006386D01*
X001802Y006432D01*
X001848Y006480D01*
X001890Y006531D01*
X001930Y006584D01*
X001967Y006639D01*
X002001Y006696D01*
X002031Y006755D01*
X002058Y006815D01*
X002082Y006877D01*
X002102Y006940D01*
X002118Y007004D01*
X002131Y007069D01*
X002141Y007135D01*
X002146Y007201D01*
X002148Y007267D01*
X002149Y007267D02*
X002149Y025377D01*
X002148Y025377D02*
X002146Y025443D01*
X002141Y025509D01*
X002131Y025575D01*
X002118Y025640D01*
X002102Y025704D01*
X002082Y025767D01*
X002058Y025829D01*
X002031Y025889D01*
X002001Y025948D01*
X001967Y026005D01*
X001930Y026060D01*
X001890Y026113D01*
X001848Y026164D01*
X001802Y026212D01*
X001754Y026258D01*
X001703Y026300D01*
X001650Y026340D01*
X001595Y026377D01*
X001538Y026411D01*
X001479Y026441D01*
X001419Y026468D01*
X001357Y026492D01*
X001294Y026512D01*
X001230Y026528D01*
X001165Y026541D01*
X001099Y026551D01*
X001033Y026556D01*
X000967Y026558D01*
X000180Y026558D01*
X000180Y031282D01*
X000182Y031348D01*
X000187Y031414D01*
X000197Y031480D01*
X000210Y031545D01*
X000226Y031609D01*
X000246Y031672D01*
X000270Y031734D01*
X000297Y031794D01*
X000327Y031853D01*
X000361Y031910D01*
X000398Y031965D01*
X000438Y032018D01*
X000480Y032069D01*
X000526Y032117D01*
X000574Y032163D01*
X000625Y032205D01*
X000678Y032245D01*
X000733Y032282D01*
X000790Y032316D01*
X000849Y032346D01*
X000909Y032373D01*
X000971Y032397D01*
X001034Y032417D01*
X001098Y032433D01*
X001163Y032446D01*
X001229Y032456D01*
X001295Y032461D01*
X001361Y032463D01*
X006086Y032463D01*
X006086Y031676D01*
X006088Y031610D01*
X006093Y031544D01*
X006103Y031478D01*
X006116Y031413D01*
X006132Y031349D01*
X006152Y031286D01*
X006176Y031224D01*
X006203Y031164D01*
X006233Y031105D01*
X006267Y031048D01*
X006304Y030993D01*
X006344Y030940D01*
X006386Y030889D01*
X006432Y030841D01*
X006480Y030795D01*
X006531Y030753D01*
X006584Y030713D01*
X006639Y030676D01*
X006696Y030642D01*
X006755Y030612D01*
X006815Y030585D01*
X006877Y030561D01*
X006940Y030541D01*
X007004Y030525D01*
X007069Y030512D01*
X007135Y030502D01*
X007201Y030497D01*
X007267Y030495D01*
X025377Y030495D01*
X025443Y030497D01*
X025509Y030502D01*
X025575Y030512D01*
X025640Y030525D01*
X025704Y030541D01*
X025767Y030561D01*
X025829Y030585D01*
X025889Y030612D01*
X025948Y030642D01*
X026005Y030676D01*
X026060Y030713D01*
X026113Y030753D01*
X026164Y030795D01*
X026212Y030841D01*
X026258Y030889D01*
X026300Y030940D01*
X026340Y030993D01*
X026377Y031048D01*
X026411Y031105D01*
X026441Y031164D01*
X026468Y031224D01*
X026492Y031286D01*
X026512Y031349D01*
X026528Y031413D01*
X026541Y031478D01*
X026551Y031544D01*
X026556Y031610D01*
X026558Y031676D01*
X026558Y032463D01*
X031282Y032463D01*
X031348Y032461D01*
X031414Y032456D01*
X031480Y032446D01*
X031545Y032433D01*
X031609Y032417D01*
X031672Y032397D01*
X031734Y032373D01*
X031794Y032346D01*
X031853Y032316D01*
X031910Y032282D01*
X031965Y032245D01*
X032018Y032205D01*
X032069Y032163D01*
X032117Y032117D01*
X032163Y032069D01*
X032205Y032018D01*
X032245Y031965D01*
X032282Y031910D01*
X032316Y031853D01*
X032346Y031794D01*
X032373Y031734D01*
X032397Y031672D01*
X032417Y031609D01*
X032433Y031545D01*
X032446Y031480D01*
X032456Y031414D01*
X032461Y031348D01*
X032463Y031282D01*
X032463Y026558D01*
X031676Y026558D01*
X031610Y026556D01*
X031544Y026551D01*
X031478Y026541D01*
X031413Y026528D01*
X031349Y026512D01*
X031286Y026492D01*
X031224Y026468D01*
X031164Y026441D01*
X031105Y026411D01*
X031048Y026377D01*
X030993Y026340D01*
X030940Y026300D01*
X030889Y026258D01*
X030841Y026212D01*
X030795Y026164D01*
X030753Y026113D01*
X030713Y026060D01*
X030676Y026005D01*
X030642Y025948D01*
X030612Y025889D01*
X030585Y025829D01*
X030561Y025767D01*
X030541Y025704D01*
X030525Y025640D01*
X030512Y025575D01*
X030502Y025509D01*
X030497Y025443D01*
X030495Y025377D01*
X030495Y007267D01*
X030497Y007201D01*
X030502Y007135D01*
X030512Y007069D01*
X030525Y007004D01*
X030541Y006940D01*
X030561Y006877D01*
X030585Y006815D01*
X030612Y006755D01*
X030642Y006696D01*
X030676Y006639D01*
X030713Y006584D01*
X030753Y006531D01*
X030795Y006480D01*
X030841Y006432D01*
X030889Y006386D01*
X030940Y006344D01*
X030993Y006304D01*
X031048Y006267D01*
X031105Y006233D01*
X031164Y006203D01*
X031224Y006176D01*
X031286Y006152D01*
X031349Y006132D01*
X031413Y006116D01*
X031478Y006103D01*
X031544Y006093D01*
X031610Y006088D01*
X031676Y006086D01*
X032463Y006086D01*
X032463Y001361D01*
X032461Y001295D01*
X032456Y001229D01*
X032446Y001163D01*
X032433Y001098D01*
X032417Y001034D01*
X032397Y000971D01*
X032373Y000909D01*
X032346Y000849D01*
X032316Y000790D01*
X032282Y000733D01*
X032245Y000678D01*
X032205Y000625D01*
X032163Y000574D01*
X032117Y000526D01*
X032069Y000480D01*
X032018Y000438D01*
X031965Y000398D01*
X031910Y000361D01*
X031853Y000327D01*
X031794Y000297D01*
X031734Y000270D01*
X031672Y000246D01*
X031609Y000226D01*
X031545Y000210D01*
X031480Y000197D01*
X031414Y000187D01*
X031348Y000182D01*
X031282Y000180D01*
X026558Y000180D01*
X026558Y000967D01*
X026556Y001033D01*
X026551Y001099D01*
X026541Y001165D01*
X026528Y001230D01*
X026512Y001294D01*
X026492Y001357D01*
X026468Y001419D01*
X026441Y001479D01*
X026411Y001538D01*
X026377Y001595D01*
X026340Y001650D01*
X026300Y001703D01*
X026258Y001754D01*
X026212Y001802D01*
X026164Y001848D01*
X026113Y001890D01*
X026060Y001930D01*
X026005Y001967D01*
X025948Y002001D01*
X025889Y002031D01*
X025829Y002058D01*
X025767Y002082D01*
X025704Y002102D01*
X025640Y002118D01*
X025575Y002131D01*
X025509Y002141D01*
X025443Y002146D01*
X025377Y002148D01*
X025377Y002149D02*
X007267Y002149D01*
X007267Y002148D02*
X007201Y002146D01*
X007135Y002141D01*
X007069Y002131D01*
X007004Y002118D01*
X006940Y002102D01*
X006877Y002082D01*
X006815Y002058D01*
X006755Y002031D01*
X006696Y002001D01*
X006639Y001967D01*
X006584Y001930D01*
X006531Y001890D01*
X006480Y001848D01*
X006432Y001802D01*
X006386Y001754D01*
X006344Y001703D01*
X006304Y001650D01*
X006267Y001595D01*
X006233Y001538D01*
X006203Y001479D01*
X006176Y001419D01*
X006152Y001357D01*
X006132Y001294D01*
X006116Y001230D01*
X006103Y001165D01*
X006093Y001099D01*
X006088Y001033D01*
X006086Y000967D01*
X006086Y000180D01*
X001361Y000180D01*
X001295Y000182D01*
X001229Y000187D01*
X001163Y000197D01*
X001098Y000210D01*
X001034Y000226D01*
X000971Y000246D01*
X000909Y000270D01*
X000849Y000297D01*
X000790Y000327D01*
X000733Y000361D01*
X000678Y000398D01*
X000625Y000438D01*
X000574Y000480D01*
X000526Y000526D01*
X000480Y000574D01*
X000438Y000625D01*
X000398Y000678D01*
X000361Y000733D01*
X000327Y000790D01*
X000297Y000849D01*
X000270Y000909D01*
X000246Y000971D01*
X000226Y001034D01*
X000210Y001098D01*
X000197Y001163D01*
X000187Y001229D01*
X000182Y001295D01*
X000180Y001361D01*
M02*
