G75*
G70*
%OFA0B0*%
%FSLAX24Y24*%
%IPPOS*%
%LPD*%
%AMOC8*
5,1,8,0,0,1.08239X$1,22.5*
%
%ADD10C,0.0120*%
%ADD11C,0.0050*%
%ADD12C,0.0040*%
D10*
X009101Y009295D02*
X010022Y009295D01*
X009101Y009295D02*
X009101Y009525D01*
X010022Y010446D01*
X010022Y010676D01*
X009101Y010676D01*
X008641Y009986D02*
X007720Y009986D01*
X009562Y021894D02*
X009562Y022584D01*
X010022Y023045D01*
X010022Y023275D01*
X009562Y022584D02*
X009101Y023045D01*
X009101Y023275D01*
X008641Y022584D02*
X007720Y022584D01*
X017957Y025340D02*
X018877Y025340D01*
X019338Y024649D02*
X020259Y026031D01*
X019338Y026031D02*
X020259Y024649D01*
X022487Y019731D02*
X023408Y019731D01*
X023408Y019501D01*
X022487Y018580D01*
X022487Y018350D01*
X023408Y018350D01*
X022027Y019041D02*
X021106Y019041D01*
X021567Y019501D02*
X021567Y018580D01*
X024850Y013432D02*
X024850Y013202D01*
X025310Y012742D01*
X025310Y012051D01*
X025310Y012742D02*
X025770Y013202D01*
X025770Y013432D01*
X024389Y012742D02*
X023468Y012742D01*
X023929Y013202D02*
X023929Y012281D01*
D11*
X005692Y007424D02*
X004117Y007424D01*
X004117Y012621D01*
X005692Y012621D01*
X005692Y007424D01*
X010180Y004511D02*
X010180Y002936D01*
X015377Y002936D01*
X015377Y004511D01*
X010180Y004511D01*
X017267Y004511D02*
X017267Y002936D01*
X022463Y002936D01*
X022463Y004511D01*
X017267Y004511D01*
X028133Y010180D02*
X028133Y015377D01*
X029708Y015377D01*
X029708Y010180D01*
X028133Y010180D01*
X027345Y016479D02*
X025771Y016479D01*
X025771Y021676D01*
X027345Y021676D01*
X027345Y016479D01*
X022463Y028133D02*
X017267Y028133D01*
X017267Y029708D01*
X022463Y029708D01*
X022463Y028133D01*
X004511Y025219D02*
X004511Y020023D01*
X002936Y020023D01*
X002936Y025219D01*
X004511Y025219D01*
D12*
X004134Y020948D02*
X004134Y020641D01*
X004134Y020794D02*
X003674Y020794D01*
X003827Y020641D01*
X005316Y008349D02*
X005316Y008043D01*
X005316Y008196D02*
X004855Y008196D01*
X005009Y008043D01*
X014338Y003981D02*
X014491Y004135D01*
X014491Y003674D01*
X014338Y003674D02*
X014645Y003674D01*
X021425Y003674D02*
X021732Y003674D01*
X021578Y003674D02*
X021578Y004135D01*
X021425Y003981D01*
X028662Y014338D02*
X028509Y014491D01*
X028969Y014491D01*
X028969Y014338D02*
X028969Y014645D01*
X026969Y017098D02*
X026969Y017405D01*
X026969Y017251D02*
X026509Y017251D01*
X026662Y017098D01*
X018192Y028509D02*
X017885Y028509D01*
X018039Y028509D02*
X018039Y028969D01*
X017885Y028816D01*
M02*
