G75*
G70*
%OFA0B0*%
%FSLAX24Y24*%
%IPPOS*%
%LPD*%
%AMOC8*
5,1,8,0,0,1.08239X$1,22.5*
%
%ADD10C,0.0030*%
%ADD11C,0.0020*%
D10*
X003315Y001056D02*
X003438Y000932D01*
X003562Y001056D01*
X003562Y001303D01*
X003683Y001241D02*
X003683Y000994D01*
X003745Y000932D01*
X003868Y000932D01*
X003930Y000994D01*
X003930Y001241D01*
X003868Y001303D01*
X003745Y001303D01*
X003683Y001241D01*
X004052Y001303D02*
X004052Y000994D01*
X004113Y000932D01*
X004237Y000932D01*
X004299Y000994D01*
X004299Y001303D01*
X004420Y001303D02*
X004667Y001303D01*
X004543Y001303D02*
X004543Y000932D01*
X003315Y001056D02*
X003315Y001303D01*
X006690Y001241D02*
X006690Y000994D01*
X006752Y000932D01*
X006875Y000932D01*
X006937Y000994D01*
X006937Y001118D01*
X006813Y001118D01*
X006690Y001241D02*
X006752Y001303D01*
X006875Y001303D01*
X006937Y001241D01*
X007058Y001303D02*
X007305Y000932D01*
X007305Y001303D01*
X007427Y001303D02*
X007612Y001303D01*
X007674Y001241D01*
X007674Y000994D01*
X007612Y000932D01*
X007427Y000932D01*
X007427Y001303D01*
X007058Y001303D02*
X007058Y000932D01*
X006737Y007932D02*
X006552Y007932D01*
X006552Y008303D01*
X006737Y008303D01*
X006799Y008241D01*
X006799Y007994D01*
X006737Y007932D01*
X006430Y007932D02*
X006430Y008303D01*
X006183Y008303D02*
X006430Y007932D01*
X006183Y007932D02*
X006183Y008303D01*
X006062Y008241D02*
X006000Y008303D01*
X005877Y008303D01*
X005815Y008241D01*
X005815Y007994D01*
X005877Y007932D01*
X006000Y007932D01*
X006062Y007994D01*
X006062Y008118D01*
X005938Y008118D01*
X005426Y007932D02*
X005426Y008303D01*
X005179Y008303D02*
X005179Y007932D01*
X005057Y007932D02*
X004933Y007932D01*
X004995Y007932D02*
X004995Y008303D01*
X004933Y008303D02*
X005057Y008303D01*
X005179Y008303D02*
X005426Y007932D01*
X004812Y008056D02*
X004812Y008303D01*
X004565Y008303D02*
X004565Y008056D01*
X004688Y007932D01*
X004812Y008056D01*
D11*
X004935Y001148D02*
X005045Y001148D01*
X005082Y001111D01*
X005082Y001037D01*
X005045Y001001D01*
X004935Y001001D01*
X004935Y000927D02*
X004935Y001148D01*
X005156Y001111D02*
X005156Y000964D01*
X005193Y000927D01*
X005266Y000927D01*
X005303Y000964D01*
X005303Y001037D01*
X005229Y001037D01*
X005156Y001111D02*
X005193Y001148D01*
X005266Y001148D01*
X005303Y001111D01*
X005810Y001148D02*
X005810Y000927D01*
X005957Y000927D01*
X006031Y000927D02*
X006141Y000927D01*
X006178Y000964D01*
X006178Y001111D01*
X006141Y001148D01*
X006031Y001148D01*
X006031Y000927D01*
X006252Y000964D02*
X006289Y000927D01*
X006362Y000927D01*
X006399Y000964D01*
X006399Y001111D01*
X006362Y001148D01*
X006289Y001148D01*
X006252Y001111D01*
X006252Y000964D01*
M02*
