G75*
G70*
%OFA0B0*%
%FSLAX24Y24*%
%IPPOS*%
%LPD*%
%AMOC8*
5,1,8,0,0,1.08239X$1,22.5*
%
%ADD10C,0.0000*%
D10*
X004279Y006873D02*
X004345Y006871D01*
X004411Y006866D01*
X004477Y006856D01*
X004542Y006843D01*
X004606Y006827D01*
X004669Y006807D01*
X004731Y006783D01*
X004791Y006756D01*
X004850Y006726D01*
X004907Y006692D01*
X004962Y006655D01*
X005015Y006615D01*
X005066Y006573D01*
X005114Y006527D01*
X008753Y002888D01*
X009098Y002053D02*
X009098Y000180D01*
X032721Y000180D01*
X032721Y002053D01*
X033066Y002888D02*
X036705Y006527D01*
X037540Y006873D02*
X039413Y006873D01*
X039413Y030495D01*
X037540Y030495D01*
X036705Y030841D02*
X033066Y034480D01*
X032721Y035315D02*
X032721Y037188D01*
X009098Y037188D01*
X009098Y035315D01*
X008753Y034480D02*
X005114Y030841D01*
X004279Y030495D02*
X002406Y030495D01*
X002406Y006873D01*
X004279Y006873D01*
X008752Y002888D02*
X008798Y002840D01*
X008840Y002789D01*
X008880Y002736D01*
X008917Y002681D01*
X008951Y002624D01*
X008981Y002565D01*
X009008Y002505D01*
X009032Y002443D01*
X009052Y002380D01*
X009068Y002316D01*
X009081Y002251D01*
X009091Y002185D01*
X009096Y002119D01*
X009098Y002053D01*
X032721Y002053D02*
X032723Y002119D01*
X032728Y002185D01*
X032738Y002251D01*
X032751Y002316D01*
X032767Y002380D01*
X032787Y002443D01*
X032811Y002505D01*
X032838Y002565D01*
X032868Y002624D01*
X032902Y002681D01*
X032939Y002736D01*
X032979Y002789D01*
X033021Y002840D01*
X033067Y002888D01*
X036705Y006527D02*
X036753Y006573D01*
X036804Y006615D01*
X036857Y006655D01*
X036912Y006692D01*
X036969Y006726D01*
X037028Y006756D01*
X037088Y006783D01*
X037150Y006807D01*
X037213Y006827D01*
X037277Y006843D01*
X037342Y006856D01*
X037408Y006866D01*
X037474Y006871D01*
X037540Y006873D01*
X037540Y030495D02*
X037474Y030497D01*
X037408Y030502D01*
X037342Y030512D01*
X037277Y030525D01*
X037213Y030541D01*
X037150Y030561D01*
X037088Y030585D01*
X037028Y030612D01*
X036969Y030642D01*
X036912Y030676D01*
X036857Y030713D01*
X036804Y030753D01*
X036753Y030795D01*
X036705Y030841D01*
X033067Y034480D02*
X033021Y034528D01*
X032979Y034579D01*
X032939Y034632D01*
X032902Y034687D01*
X032868Y034744D01*
X032838Y034803D01*
X032811Y034863D01*
X032787Y034925D01*
X032767Y034988D01*
X032751Y035052D01*
X032738Y035117D01*
X032728Y035183D01*
X032723Y035249D01*
X032721Y035315D01*
X009098Y035315D02*
X009096Y035249D01*
X009091Y035183D01*
X009081Y035117D01*
X009068Y035052D01*
X009052Y034988D01*
X009032Y034925D01*
X009008Y034863D01*
X008981Y034803D01*
X008951Y034744D01*
X008917Y034687D01*
X008880Y034632D01*
X008840Y034579D01*
X008798Y034528D01*
X008752Y034480D01*
X005114Y030841D02*
X005066Y030795D01*
X005015Y030753D01*
X004962Y030713D01*
X004907Y030676D01*
X004850Y030642D01*
X004791Y030612D01*
X004731Y030585D01*
X004669Y030561D01*
X004606Y030541D01*
X004542Y030525D01*
X004477Y030512D01*
X004411Y030502D01*
X004345Y030497D01*
X004279Y030495D01*
M02*
