%
M48
M72
T01C0.0315
T02C0.0827
%
T01
X9886Y7660
X8508Y11400
X10083Y13369
X12445Y13763
X16579Y12385
X21303Y8054
X19728Y7660
X18350Y4314
X22681Y11400
X22287Y13763
X26421Y12385
X29374Y13763
X31539Y12385
X30752Y8251
X32524Y4314
X15791Y22030
X12445Y23605
X8508Y22030
X11067Y29117
X9295Y33054
X19138Y25967
X19532Y23605
X22091Y23605
X25437Y22276
X29374Y23605
X32179Y22916
X33311Y25967
X36461Y23605
X31343Y29708
X23469Y33054
X22091Y30101
X20516Y30101
X5358Y13763
T02
X11067Y1361
X30752Y1361
X30752Y36007
X11067Y36007
M30
