G75*
G70*
%OFA0B0*%
%FSLAX24Y24*%
%IPPOS*%
%LPD*%
%AMOC8*
5,1,8,0,0,1.08239X$1,22.5*
%
%ADD10R,3.7008X3.4646*%
%ADD11C,0.2380*%
%ADD12C,0.0680*%
%ADD13C,0.0740*%
%ADD14C,0.0634*%
%ADD15C,0.0867*%
%ADD16C,0.0907*%
%ADD17C,0.0556*%
%ADD18C,0.0930*%
%ADD19C,0.0820*%
%ADD20C,0.0555*%
%ADD21C,0.0437*%
%ADD22C,0.0476*%
%ADD23C,0.0611*%
%ADD24C,0.0358*%
D10*
X018654Y017966D03*
D11*
X003693Y004187D03*
X033615Y004187D03*
X033615Y034108D03*
X003693Y034108D03*
D12*
X033115Y031647D03*
X033115Y030647D03*
X033115Y029647D03*
X033115Y028647D03*
X033115Y027647D03*
X033115Y026647D03*
X033115Y025647D03*
X033115Y024647D03*
X033115Y023647D03*
X033115Y022647D03*
X033115Y021647D03*
X033115Y020647D03*
X033115Y019647D03*
X033115Y018647D03*
X033115Y017647D03*
X033115Y016647D03*
X033115Y015647D03*
X033115Y014647D03*
X033115Y013647D03*
X033115Y012647D03*
X033115Y011647D03*
X033115Y010647D03*
X033115Y009647D03*
X033115Y008647D03*
X033115Y007647D03*
X033115Y006647D03*
X034115Y006647D03*
X034115Y007647D03*
X034115Y008647D03*
X034115Y009647D03*
X034115Y010647D03*
X034115Y011647D03*
X034115Y012647D03*
X034115Y013647D03*
X034115Y014647D03*
X034115Y015647D03*
X034115Y016647D03*
X034115Y017647D03*
X034115Y018647D03*
X034115Y019647D03*
X034115Y020647D03*
X034115Y021647D03*
X034115Y022647D03*
X034115Y023647D03*
X034115Y024647D03*
X034115Y025647D03*
X034115Y026647D03*
X034115Y027647D03*
X034115Y028647D03*
X034115Y029647D03*
X034115Y030647D03*
X034115Y031647D03*
D13*
X015525Y011394D03*
X014525Y011394D03*
X009775Y009019D03*
X009775Y008019D03*
D14*
X017654Y004921D02*
X017654Y004366D01*
X018654Y004366D02*
X018654Y004921D01*
X019654Y004921D02*
X019654Y004366D01*
X009150Y029366D02*
X009150Y029921D01*
X008150Y029921D02*
X008150Y029366D01*
X007150Y029366D02*
X007150Y029921D01*
D15*
X013150Y026144D03*
X014150Y026144D03*
X014150Y025144D03*
X014150Y024144D03*
X013150Y024144D03*
X013150Y025144D03*
X013150Y023144D03*
X014150Y023144D03*
X014150Y022144D03*
X013150Y022144D03*
X016650Y022144D03*
X016650Y023144D03*
X016650Y024144D03*
X016650Y025144D03*
X016650Y026144D03*
X017650Y026144D03*
X017650Y025144D03*
X017650Y024144D03*
X017650Y023144D03*
X017650Y022144D03*
D16*
X025953Y029049D02*
X025953Y029876D01*
X027953Y029876D02*
X027953Y029049D01*
D17*
X012650Y003300D03*
X012150Y003300D03*
X011650Y003300D03*
X011150Y003300D03*
X010650Y003300D03*
X010650Y001300D03*
X011150Y001300D03*
X011650Y001300D03*
X012150Y001300D03*
X012650Y001300D03*
D18*
X010150Y004644D03*
X015650Y004644D03*
X016525Y013019D03*
X016275Y018144D03*
X021150Y024394D03*
X021150Y026644D03*
X028650Y025144D03*
D19*
X035650Y016644D03*
X035650Y015644D03*
X035650Y014644D03*
D20*
X028650Y019144D03*
X028650Y020144D03*
X027650Y019144D03*
X026650Y019144D03*
X025650Y019144D03*
X024650Y019144D03*
X028650Y021144D03*
X028650Y022144D03*
X028650Y023144D03*
X028650Y024144D03*
X028650Y026144D03*
X028650Y027144D03*
X024650Y028644D03*
X023650Y028644D03*
X022650Y028644D03*
X021650Y028644D03*
X020650Y028644D03*
X019650Y028644D03*
X019650Y029644D03*
X019650Y030644D03*
X018650Y030644D03*
X017650Y030644D03*
X016650Y030644D03*
X015650Y030644D03*
X014650Y030644D03*
X014650Y029644D03*
X014650Y028644D03*
X014650Y027644D03*
X012650Y027644D03*
X012650Y028644D03*
X012650Y029644D03*
X012650Y030644D03*
X012650Y031644D03*
X012650Y032644D03*
X013650Y032644D03*
X014650Y032644D03*
X015650Y032644D03*
X016650Y032644D03*
X017650Y032644D03*
X018650Y032644D03*
X019650Y032644D03*
X020650Y032644D03*
X021650Y032644D03*
X022650Y032644D03*
X023650Y032644D03*
X023650Y031644D03*
X023650Y030644D03*
X024650Y030644D03*
X024650Y029644D03*
D21*
X027650Y016144D03*
X027650Y015644D03*
X027650Y012144D03*
X027650Y011644D03*
X027650Y011144D03*
X027650Y010644D03*
X027650Y010144D03*
X027650Y009644D03*
X023150Y010644D03*
X023150Y011144D03*
X023150Y011644D03*
X019650Y009644D03*
X019150Y009644D03*
X018650Y009644D03*
X018775Y012769D03*
X019275Y012769D03*
X018275Y012769D03*
X018650Y015144D03*
X019150Y015144D03*
X023025Y014769D03*
X011150Y015394D03*
X010400Y015394D03*
X008650Y013894D03*
X008150Y013894D03*
X007650Y013894D03*
X007150Y013644D03*
X007150Y013144D03*
X007150Y012644D03*
X007150Y012144D03*
X005650Y013144D03*
X005650Y013644D03*
X003650Y012144D03*
X003650Y011644D03*
X003650Y011144D03*
X005900Y009394D03*
X004650Y030644D03*
X004150Y030644D03*
X003650Y030644D03*
X003150Y030644D03*
X002650Y030644D03*
D22*
X006150Y017394D03*
X007900Y017394D03*
X017650Y017144D03*
X025650Y017144D03*
X029400Y016644D03*
X030900Y008769D03*
X030400Y007394D03*
X028525Y007019D03*
X028025Y006644D03*
X019650Y007644D03*
X018650Y007644D03*
D23*
X005650Y016144D03*
X003150Y016144D03*
D24*
X010025Y011894D03*
X011650Y011769D03*
X011525Y014019D03*
X012400Y008269D03*
X012150Y008019D03*
X011900Y007769D03*
X011650Y007519D03*
X012650Y007894D03*
X012900Y007519D03*
X012650Y005644D03*
X012150Y005644D03*
X013150Y005644D03*
X013650Y005644D03*
X014150Y005644D03*
X014650Y005644D03*
M02*
