G75*
G70*
%OFA0B0*%
%FSLAX24Y24*%
%IPPOS*%
%LPD*%
%AMOC8*
5,1,8,0,0,1.08239X$1,22.5*
%
%ADD10C,0.0040*%
%ADD11C,0.0080*%
%ADD12C,0.2300*%
%ADD13C,0.0600*%
%ADD14R,0.2441X0.2126*%
%ADD15R,0.0630X0.0394*%
%ADD16R,0.0256X0.0866*%
%ADD17R,0.0433X0.0276*%
%ADD18R,0.0276X0.0433*%
%ADD19R,0.0480X0.0236*%
%ADD20R,0.0315X0.0315*%
%ADD21R,0.0472X0.0118*%
%ADD22R,0.0709X0.0394*%
%ADD23C,0.0660*%
%ADD24R,0.0177X0.0315*%
%ADD25R,0.0748X0.0551*%
%ADD26R,0.0709X0.0551*%
%ADD27R,0.0866X0.0256*%
%ADD28R,0.0276X0.0591*%
%ADD29R,0.0551X0.0315*%
%ADD30R,0.0236X0.0480*%
%ADD31R,0.1551X0.2299*%
%ADD32R,0.0551X0.0748*%
%ADD33R,0.0551X0.0709*%
%ADD34R,0.0394X0.0551*%
%ADD35R,0.0551X0.0394*%
%ADD36C,0.0554*%
%ADD37C,0.0787*%
%ADD38C,0.0827*%
%ADD39C,0.0476*%
%ADD40C,0.0850*%
%ADD41R,0.0189X0.0008*%
%ADD42R,0.0181X0.0008*%
%ADD43R,0.0173X0.0008*%
%ADD44R,0.0291X0.0008*%
%ADD45R,0.0283X0.0008*%
%ADD46R,0.0276X0.0008*%
%ADD47R,0.0370X0.0008*%
%ADD48R,0.0346X0.0008*%
%ADD49R,0.0433X0.0008*%
%ADD50R,0.0402X0.0008*%
%ADD51R,0.0480X0.0008*%
%ADD52R,0.0457X0.0008*%
%ADD53R,0.0449X0.0008*%
%ADD54R,0.0386X0.0008*%
%ADD55R,0.0520X0.0008*%
%ADD56R,0.0488X0.0008*%
%ADD57R,0.0496X0.0008*%
%ADD58R,0.0559X0.0008*%
%ADD59R,0.0528X0.0008*%
%ADD60R,0.0591X0.0008*%
%ADD61R,0.0567X0.0008*%
%ADD62R,0.0622X0.0008*%
%ADD63R,0.0598X0.0008*%
%ADD64R,0.0654X0.0008*%
%ADD65R,0.0685X0.0008*%
%ADD66R,0.0646X0.0008*%
%ADD67R,0.0701X0.0008*%
%ADD68R,0.0677X0.0008*%
%ADD69R,0.0732X0.0008*%
%ADD70R,0.0693X0.0008*%
%ADD71R,0.0748X0.0008*%
%ADD72R,0.0724X0.0008*%
%ADD73R,0.0717X0.0008*%
%ADD74R,0.0772X0.0008*%
%ADD75R,0.0740X0.0008*%
%ADD76R,0.0795X0.0008*%
%ADD77R,0.0756X0.0008*%
%ADD78R,0.0764X0.0008*%
%ADD79R,0.0811X0.0008*%
%ADD80R,0.0780X0.0008*%
%ADD81R,0.0827X0.0008*%
%ADD82R,0.0803X0.0008*%
%ADD83R,0.0843X0.0008*%
%ADD84R,0.0819X0.0008*%
%ADD85R,0.0858X0.0008*%
%ADD86R,0.0835X0.0008*%
%ADD87R,0.0874X0.0008*%
%ADD88R,0.0850X0.0008*%
%ADD89R,0.0890X0.0008*%
%ADD90R,0.0866X0.0008*%
%ADD91R,0.0906X0.0008*%
%ADD92R,0.0921X0.0008*%
%ADD93R,0.0937X0.0008*%
%ADD94R,0.0945X0.0008*%
%ADD95R,0.0913X0.0008*%
%ADD96R,0.0953X0.0008*%
%ADD97R,0.0929X0.0008*%
%ADD98R,0.0969X0.0008*%
%ADD99R,0.0976X0.0008*%
%ADD100R,0.0984X0.0008*%
%ADD101R,0.0961X0.0008*%
%ADD102R,0.1000X0.0008*%
%ADD103R,0.1008X0.0008*%
%ADD104R,0.1016X0.0008*%
%ADD105R,0.0992X0.0008*%
%ADD106R,0.1024X0.0008*%
%ADD107R,0.1031X0.0008*%
%ADD108R,0.1039X0.0008*%
%ADD109R,0.1047X0.0008*%
%ADD110R,0.1055X0.0008*%
%ADD111R,0.1063X0.0008*%
%ADD112R,0.1071X0.0008*%
%ADD113R,0.1079X0.0008*%
%ADD114R,0.1087X0.0008*%
%ADD115R,0.0465X0.0008*%
%ADD116R,0.0441X0.0008*%
%ADD117R,0.0425X0.0008*%
%ADD118R,0.0417X0.0008*%
%ADD119R,0.0409X0.0008*%
%ADD120R,0.0394X0.0008*%
%ADD121R,0.0378X0.0008*%
%ADD122R,0.0362X0.0008*%
%ADD123R,0.0354X0.0008*%
%ADD124R,0.0299X0.0008*%
%ADD125R,0.0236X0.0008*%
%ADD126R,0.0244X0.0008*%
%ADD127R,0.0134X0.0008*%
%ADD128R,0.0126X0.0008*%
%ADD129R,0.0079X0.0008*%
%ADD130R,0.0071X0.0008*%
%ADD131R,0.0024X0.0008*%
%ADD132R,0.0016X0.0008*%
%ADD133R,0.0087X0.0008*%
%ADD134R,0.0472X0.0008*%
%ADD135R,0.0039X0.0008*%
%ADD136R,0.0165X0.0008*%
%ADD137R,0.0118X0.0008*%
%ADD138R,0.0031X0.0008*%
%ADD139R,0.0008X0.0008*%
%ADD140R,0.0504X0.0008*%
%ADD141R,0.0512X0.0008*%
%ADD142R,0.0063X0.0008*%
%ADD143R,0.0197X0.0008*%
%ADD144R,0.0213X0.0008*%
%ADD145R,0.0339X0.0008*%
%ADD146R,0.0535X0.0008*%
%ADD147R,0.0307X0.0008*%
%ADD148R,0.0543X0.0008*%
%ADD149R,0.0551X0.0008*%
%ADD150R,0.0157X0.0008*%
%ADD151R,0.0142X0.0008*%
%ADD152R,0.0150X0.0008*%
%ADD153R,0.0102X0.0008*%
%ADD154R,0.0094X0.0008*%
%ADD155R,0.0315X0.0008*%
%ADD156R,0.0323X0.0008*%
%ADD157R,0.0575X0.0008*%
%ADD158R,0.0220X0.0008*%
%ADD159R,0.0228X0.0008*%
%ADD160R,0.0205X0.0008*%
%ADD161R,0.0047X0.0008*%
%ADD162R,0.0331X0.0008*%
%ADD163R,0.0110X0.0008*%
%ADD164R,0.0055X0.0008*%
%ADD165R,0.0268X0.0008*%
%ADD166R,0.0898X0.0008*%
%ADD167R,0.0882X0.0008*%
%ADD168R,0.0661X0.0008*%
%ADD169R,0.0669X0.0008*%
%ADD170R,0.0638X0.0008*%
%ADD171R,0.0630X0.0008*%
%ADD172R,0.0606X0.0008*%
%ADD173R,0.0701X0.0618*%
%ADD174R,0.0591X0.0276*%
%ADD175C,0.0740*%
%ADD176C,0.0100*%
%ADD177C,0.0475*%
%ADD178C,0.0160*%
%ADD179C,0.0357*%
%ADD180C,0.0240*%
%ADD181C,0.0400*%
%ADD182C,0.0560*%
%ADD183C,0.0320*%
%ADD184C,0.0396*%
%ADD185C,0.0120*%
%ADD186C,0.0531*%
%ADD187C,0.0278*%
D10*
X007420Y008164D02*
X007420Y008394D01*
X007496Y008470D01*
X007650Y008470D01*
X007727Y008394D01*
X007727Y008164D01*
X007880Y008164D02*
X007420Y008164D01*
X007496Y008624D02*
X007420Y008701D01*
X007420Y008854D01*
X007496Y008931D01*
X007573Y008931D01*
X007650Y008854D01*
X007727Y008931D01*
X007803Y008931D01*
X007880Y008854D01*
X007880Y008701D01*
X007803Y008624D01*
X007650Y008777D02*
X007650Y008854D01*
X007803Y009084D02*
X007803Y009161D01*
X007880Y009161D01*
X007880Y009084D01*
X007803Y009084D01*
X007803Y009314D02*
X007880Y009391D01*
X007880Y009545D01*
X007803Y009621D01*
X007727Y009621D01*
X007650Y009545D01*
X007650Y009468D01*
X007650Y009545D02*
X007573Y009621D01*
X007496Y009621D01*
X007420Y009545D01*
X007420Y009391D01*
X007496Y009314D01*
X009920Y003727D02*
X010227Y003420D01*
X010150Y003496D02*
X010380Y003727D01*
X010380Y003420D02*
X009920Y003420D01*
X009920Y002959D02*
X010380Y002959D01*
X010380Y003266D01*
X010303Y002806D02*
X010380Y002729D01*
X010380Y002576D01*
X010303Y002499D01*
X009996Y002499D01*
X009920Y002576D01*
X009920Y002729D01*
X009996Y002806D01*
X010073Y002345D02*
X009920Y002192D01*
X010073Y002039D01*
X010380Y002039D01*
X010150Y002039D02*
X010150Y002345D01*
X010073Y002345D02*
X010380Y002345D01*
X015420Y002431D02*
X015880Y002431D01*
X015803Y002584D02*
X015496Y002584D01*
X015420Y002661D01*
X015420Y002814D01*
X015496Y002891D01*
X015420Y003045D02*
X015880Y003045D01*
X015880Y003352D01*
X015880Y003505D02*
X015420Y003505D01*
X015650Y003582D02*
X015880Y003812D01*
X015727Y003505D02*
X015420Y003812D01*
X015803Y002891D02*
X015880Y002814D01*
X015880Y002661D01*
X015803Y002584D01*
X015573Y002277D02*
X015420Y002431D01*
X015573Y002277D02*
X015420Y002124D01*
X015880Y002124D01*
X015803Y001970D02*
X015880Y001894D01*
X015880Y001740D01*
X015803Y001664D01*
X015650Y001740D02*
X015650Y001894D01*
X015727Y001970D01*
X015803Y001970D01*
X015650Y001740D02*
X015573Y001664D01*
X015496Y001664D01*
X015420Y001740D01*
X015420Y001894D01*
X015496Y001970D01*
X021420Y002019D02*
X021420Y001865D01*
X021496Y001789D01*
X021803Y001789D01*
X021880Y001865D01*
X021880Y002019D01*
X021803Y002095D01*
X021650Y002095D01*
X021650Y001942D01*
X021496Y002095D02*
X021420Y002019D01*
X021420Y002249D02*
X021880Y002556D01*
X021420Y002556D01*
X021420Y002709D02*
X021420Y002939D01*
X021496Y003016D01*
X021803Y003016D01*
X021880Y002939D01*
X021880Y002709D01*
X021420Y002709D01*
X021420Y002249D02*
X021880Y002249D01*
X022420Y002249D02*
X022880Y002556D01*
X022880Y002709D02*
X022880Y002939D01*
X022803Y003016D01*
X022496Y003016D01*
X022420Y002939D01*
X022420Y002709D01*
X022880Y002709D01*
X022880Y002249D02*
X022420Y002556D01*
X022420Y002095D02*
X022420Y001789D01*
X022420Y001942D02*
X022880Y001942D01*
X023420Y002019D02*
X023496Y002095D01*
X023650Y002095D01*
X023727Y002019D01*
X023727Y001789D01*
X023727Y001942D02*
X023880Y002095D01*
X023880Y002249D02*
X023420Y002556D01*
X023420Y002709D02*
X023420Y002939D01*
X023496Y003016D01*
X023803Y003016D01*
X023880Y002939D01*
X023880Y002709D01*
X023420Y002709D01*
X023420Y002249D02*
X023880Y002556D01*
X023420Y002019D02*
X023420Y001789D01*
X023880Y001789D01*
X015523Y012289D02*
X015523Y012749D01*
X015369Y012595D01*
X015216Y012749D01*
X015216Y012289D01*
X015062Y012289D02*
X015062Y012749D01*
X014755Y012749D02*
X014755Y012289D01*
X014909Y012442D01*
X015062Y012289D01*
X014602Y012519D02*
X014525Y012442D01*
X014295Y012442D01*
X014295Y012289D02*
X014295Y012749D01*
X014525Y012749D01*
X014602Y012672D01*
X014602Y012519D01*
X015997Y014039D02*
X015920Y014115D01*
X015920Y014422D01*
X015997Y014499D01*
X016150Y014499D01*
X016227Y014422D01*
X016227Y014269D02*
X016073Y014269D01*
X016227Y014269D02*
X016227Y014115D01*
X016150Y014039D01*
X015997Y014039D01*
X016380Y014039D02*
X016380Y014499D01*
X016687Y014039D01*
X016687Y014499D01*
X016841Y014499D02*
X016841Y014039D01*
X017071Y014039D01*
X017148Y014115D01*
X017148Y014422D01*
X017071Y014499D01*
X016841Y014499D01*
X029920Y026914D02*
X030227Y026914D01*
X030380Y027067D01*
X030227Y027220D01*
X029920Y027220D01*
X029996Y027374D02*
X029920Y027451D01*
X029920Y027604D01*
X029996Y027681D01*
X029920Y027834D02*
X030303Y027834D01*
X030380Y027911D01*
X030380Y028064D01*
X030303Y028141D01*
X029920Y028141D01*
X029920Y028295D02*
X029920Y028525D01*
X029996Y028602D01*
X030150Y028602D01*
X030227Y028525D01*
X030227Y028295D01*
X030380Y028295D02*
X029920Y028295D01*
X030227Y027681D02*
X030303Y027681D01*
X030380Y027604D01*
X030380Y027451D01*
X030303Y027374D01*
X030150Y027451D02*
X030150Y027604D01*
X030227Y027681D01*
X030150Y027451D02*
X030073Y027374D01*
X029996Y027374D01*
X029920Y028755D02*
X030380Y028755D01*
X030380Y029062D01*
X030380Y029215D02*
X029920Y029215D01*
X029920Y029446D01*
X029996Y029522D01*
X030150Y029522D01*
X030227Y029446D01*
X030227Y029215D01*
X030227Y029369D02*
X030380Y029522D01*
X030303Y029676D02*
X030380Y029753D01*
X030380Y029906D01*
X030303Y029983D01*
X030380Y030136D02*
X030073Y030136D01*
X029920Y030290D01*
X030073Y030443D01*
X030380Y030443D01*
X030380Y030597D02*
X029920Y030597D01*
X029920Y030827D01*
X029996Y030904D01*
X030150Y030904D01*
X030227Y030827D01*
X030227Y030597D01*
X030150Y030443D02*
X030150Y030136D01*
X029996Y029983D02*
X029920Y029906D01*
X029920Y029753D01*
X029996Y029676D01*
X030303Y029676D01*
X029920Y029062D02*
X029920Y028755D01*
X030150Y028755D02*
X030150Y028909D01*
X035420Y026900D02*
X035420Y026746D01*
X035496Y026670D01*
X035573Y026670D01*
X035650Y026746D01*
X035650Y026900D01*
X035727Y026977D01*
X035803Y026977D01*
X035880Y026900D01*
X035880Y026746D01*
X035803Y026670D01*
X035803Y026516D02*
X035420Y026516D01*
X035420Y026209D02*
X035803Y026209D01*
X035880Y026286D01*
X035880Y026439D01*
X035803Y026516D01*
X035803Y026056D02*
X035880Y025979D01*
X035880Y025749D01*
X035420Y025749D01*
X035420Y025979D01*
X035496Y026056D01*
X035573Y026056D01*
X035650Y025979D01*
X035650Y025749D01*
X035727Y025595D02*
X035420Y025595D01*
X035420Y025289D02*
X035727Y025289D01*
X035880Y025442D01*
X035727Y025595D01*
X035650Y025979D02*
X035727Y026056D01*
X035803Y026056D01*
X035420Y026900D02*
X035496Y026977D01*
X035496Y022766D02*
X035420Y022689D01*
X035420Y022459D01*
X035880Y022459D01*
X035880Y022689D01*
X035803Y022766D01*
X035496Y022766D01*
X035420Y022306D02*
X035880Y022306D01*
X035420Y021999D01*
X035880Y021999D01*
X035803Y021845D02*
X035650Y021845D01*
X035650Y021692D01*
X035803Y021845D02*
X035880Y021769D01*
X035880Y021615D01*
X035803Y021539D01*
X035496Y021539D01*
X035420Y021615D01*
X035420Y021769D01*
X035496Y021845D01*
X035880Y021016D02*
X035880Y020709D01*
X035420Y020709D01*
X035496Y020556D02*
X035420Y020479D01*
X035420Y020326D01*
X035496Y020249D01*
X035803Y020249D01*
X035880Y020326D01*
X035880Y020479D01*
X035803Y020556D01*
X035803Y020095D02*
X035880Y020019D01*
X035880Y019865D01*
X035803Y019789D01*
X035650Y019865D02*
X035573Y019789D01*
X035496Y019789D01*
X035420Y019865D01*
X035420Y020019D01*
X035496Y020095D01*
X035650Y020019D02*
X035727Y020095D01*
X035803Y020095D01*
X035650Y020019D02*
X035650Y019865D01*
X035650Y019141D02*
X035650Y018834D01*
X035573Y018834D02*
X035420Y018988D01*
X035573Y019141D01*
X035880Y019141D01*
X035880Y018834D02*
X035573Y018834D01*
X035496Y018681D02*
X035420Y018604D01*
X035420Y018374D01*
X035880Y018374D01*
X035880Y018604D01*
X035803Y018681D01*
X035496Y018681D01*
X035496Y018220D02*
X035420Y018144D01*
X035420Y017990D01*
X035496Y017914D01*
X035573Y017914D01*
X035650Y017990D01*
X035650Y018144D01*
X035727Y018220D01*
X035803Y018220D01*
X035880Y018144D01*
X035880Y017990D01*
X035803Y017914D01*
X035928Y032539D02*
X036005Y032615D01*
X036005Y032769D01*
X035928Y032845D01*
X035775Y032845D01*
X035775Y032692D01*
X035928Y032539D02*
X035621Y032539D01*
X035545Y032615D01*
X035545Y032769D01*
X035621Y032845D01*
X035545Y032999D02*
X036005Y033306D01*
X035545Y033306D01*
X035545Y033459D02*
X035545Y033689D01*
X035621Y033766D01*
X035928Y033766D01*
X036005Y033689D01*
X036005Y033459D01*
X035545Y033459D01*
X035545Y032999D02*
X036005Y032999D01*
X017880Y028249D02*
X017880Y027788D01*
X017420Y027788D02*
X017420Y028249D01*
X017113Y028249D01*
X016959Y028249D02*
X016729Y028249D01*
X016652Y028172D01*
X016652Y027865D01*
X016729Y027788D01*
X016959Y027788D01*
X016959Y028249D01*
X017266Y028018D02*
X017420Y028018D01*
X017420Y027788D02*
X017113Y027788D01*
X017573Y028249D02*
X017880Y028249D01*
X016499Y028018D02*
X016192Y028018D01*
X016345Y027865D02*
X016345Y028172D01*
X013880Y028115D02*
X013880Y028269D01*
X013803Y028345D01*
X013650Y028345D01*
X013650Y028192D01*
X013803Y028039D02*
X013880Y028115D01*
X013803Y028039D02*
X013496Y028039D01*
X013420Y028115D01*
X013420Y028269D01*
X013496Y028345D01*
X013420Y028499D02*
X013880Y028806D01*
X013420Y028806D01*
X013420Y028959D02*
X013420Y029189D01*
X013496Y029266D01*
X013803Y029266D01*
X013880Y029189D01*
X013880Y028959D01*
X013420Y028959D01*
X013420Y028499D02*
X013880Y028499D01*
X009380Y032817D02*
X009227Y032970D01*
X008920Y032970D01*
X008920Y033124D02*
X009380Y033124D01*
X009380Y033431D01*
X009380Y033584D02*
X009380Y033891D01*
X009380Y034045D02*
X008920Y034045D01*
X008920Y034275D01*
X008996Y034352D01*
X009303Y034352D01*
X009380Y034275D01*
X009380Y034045D01*
X009150Y033738D02*
X009150Y033584D01*
X008920Y033584D02*
X009380Y033584D01*
X008920Y033584D02*
X008920Y033891D01*
X008380Y033891D02*
X007920Y033891D01*
X007920Y033584D02*
X008380Y033891D01*
X008380Y033584D02*
X007920Y033584D01*
X007920Y033431D02*
X008303Y033431D01*
X008380Y033354D01*
X008380Y033201D01*
X008303Y033124D01*
X007920Y033124D01*
X007996Y032970D02*
X007920Y032894D01*
X007920Y032740D01*
X007996Y032664D01*
X008073Y032664D01*
X008150Y032740D01*
X008150Y032894D01*
X008227Y032970D01*
X008303Y032970D01*
X008380Y032894D01*
X008380Y032740D01*
X008303Y032664D01*
X008920Y032664D02*
X009227Y032664D01*
X009380Y032817D01*
X007380Y032894D02*
X007303Y032970D01*
X007150Y032970D01*
X007150Y032817D01*
X007303Y032664D02*
X006996Y032664D01*
X006920Y032740D01*
X006920Y032894D01*
X006996Y032970D01*
X006920Y033124D02*
X007380Y033431D01*
X006920Y033431D01*
X006920Y033584D02*
X006920Y033814D01*
X006996Y033891D01*
X007303Y033891D01*
X007380Y033814D01*
X007380Y033584D01*
X006920Y033584D01*
X006920Y033124D02*
X007380Y033124D01*
X007380Y032894D02*
X007380Y032740D01*
X007303Y032664D01*
D11*
X007110Y027604D02*
X006770Y027604D01*
X006656Y027490D01*
X006656Y027377D01*
X006770Y027263D01*
X007110Y027263D01*
X007110Y026923D02*
X006770Y026923D01*
X006656Y027036D01*
X006656Y027150D01*
X006770Y027263D01*
X006410Y027263D02*
X006183Y027263D01*
X005956Y026923D02*
X006410Y026923D01*
X006410Y027604D01*
X005956Y027604D01*
X005011Y027604D02*
X005011Y026923D01*
X005484Y026604D02*
X005484Y025923D01*
X005710Y025923D02*
X005257Y025923D01*
X005956Y025923D02*
X006410Y025923D01*
X006410Y026604D01*
X005956Y026604D01*
X006183Y026263D02*
X006410Y026263D01*
X006656Y026604D02*
X007110Y026604D01*
X007110Y025923D01*
X007110Y026923D02*
X007110Y027604D01*
X005011Y027604D02*
X004557Y027604D01*
X004311Y027604D02*
X004084Y027604D01*
X004197Y027604D02*
X004197Y026923D01*
X004084Y026923D02*
X004311Y026923D01*
X004084Y026604D02*
X004084Y025923D01*
X004311Y025923D02*
X003857Y025923D01*
X003611Y025923D02*
X003611Y026604D01*
X003504Y026923D02*
X003731Y026923D01*
X003844Y027036D01*
X003844Y027490D01*
X003731Y027604D01*
X003504Y027604D01*
X003391Y027490D01*
X003391Y027263D01*
X003617Y027263D01*
X003391Y027036D02*
X003504Y026923D01*
X003144Y026923D02*
X003144Y027604D01*
X003144Y027263D02*
X002691Y027263D01*
X002691Y026923D02*
X002691Y027604D01*
X002218Y027604D02*
X002218Y026923D01*
X002445Y026923D02*
X001991Y026923D01*
X002211Y026604D02*
X002211Y025923D01*
X001871Y025923D01*
X001758Y026036D01*
X001758Y026263D01*
X001871Y026377D01*
X002211Y026377D01*
X001985Y026377D02*
X001758Y026604D01*
X001512Y026604D02*
X001058Y026604D01*
X001285Y026263D02*
X001512Y026263D01*
X001512Y025923D02*
X001058Y025923D01*
X001512Y025923D02*
X001512Y026604D01*
X002457Y026604D02*
X002911Y026604D01*
X002911Y025923D01*
X002457Y025923D01*
X002684Y026263D02*
X002911Y026263D01*
X003157Y026263D02*
X003611Y026263D01*
X003157Y025923D02*
X003157Y026604D01*
D12*
X003693Y004187D03*
X033615Y004187D03*
X033615Y034108D03*
X003693Y034108D03*
D13*
X033115Y031647D03*
X033115Y030647D03*
X033115Y029647D03*
X033115Y028647D03*
X033115Y027647D03*
X033115Y026647D03*
X033115Y025647D03*
X033115Y024647D03*
X033115Y023647D03*
X033115Y022647D03*
X033115Y021647D03*
X033115Y020647D03*
X033115Y019647D03*
X033115Y018647D03*
X033115Y017647D03*
X033115Y016647D03*
X033115Y015647D03*
X033115Y014647D03*
X033115Y013647D03*
X033115Y012647D03*
X033115Y011647D03*
X033115Y010647D03*
X033115Y009647D03*
X033115Y008647D03*
X033115Y007647D03*
X033115Y006647D03*
X034115Y006647D03*
X034115Y007647D03*
X034115Y008647D03*
X034115Y009647D03*
X034115Y010647D03*
X034115Y011647D03*
X034115Y012647D03*
X034115Y013647D03*
X034115Y014647D03*
X034115Y015647D03*
X034115Y016647D03*
X034115Y017647D03*
X034115Y018647D03*
X034115Y019647D03*
X034115Y020647D03*
X034115Y021647D03*
X034115Y022647D03*
X034115Y023647D03*
X034115Y024647D03*
X034115Y025647D03*
X034115Y026647D03*
X034115Y027647D03*
X034115Y028647D03*
X034115Y029647D03*
X034115Y030647D03*
X034115Y031647D03*
D14*
X025134Y025144D03*
D15*
X022260Y026041D03*
X022260Y024246D03*
D16*
X028400Y015167D03*
X028900Y015167D03*
X029400Y015167D03*
X029900Y015167D03*
X029900Y013120D03*
X029400Y013120D03*
X028900Y013120D03*
X028400Y013120D03*
D17*
X027775Y013223D03*
X027775Y013814D03*
X020400Y013598D03*
X020400Y014189D03*
X018650Y012189D03*
X018650Y011598D03*
X018650Y010939D03*
X018650Y010348D03*
X016650Y010348D03*
X016650Y010939D03*
X014900Y009814D03*
X014900Y009223D03*
X014275Y009223D03*
X014275Y009814D03*
X010900Y009939D03*
X010900Y009348D03*
X006150Y009848D03*
X006150Y010439D03*
X004900Y013098D03*
X004900Y013689D03*
X008650Y015348D03*
X008650Y015939D03*
X009400Y014939D03*
X009400Y014348D03*
X010400Y014348D03*
X011150Y014348D03*
X011150Y014939D03*
X010400Y014939D03*
X017650Y014689D03*
X017650Y014098D03*
X017650Y013689D03*
X017650Y013098D03*
X012650Y004939D03*
X012650Y004348D03*
D18*
X008945Y010144D03*
X008945Y010644D03*
X008355Y010644D03*
X007945Y010644D03*
X007355Y010644D03*
X007355Y010144D03*
X007945Y010144D03*
X008355Y010144D03*
X008445Y012144D03*
X007855Y012144D03*
X007855Y013144D03*
X008445Y013144D03*
X005445Y012394D03*
X004855Y012394D03*
X004855Y014394D03*
X004445Y014394D03*
X003855Y014394D03*
X005445Y014394D03*
X005445Y009894D03*
X004855Y009894D03*
X004445Y009894D03*
X003855Y009894D03*
X014605Y017769D03*
X015195Y017769D03*
X019605Y015894D03*
X020195Y015894D03*
X020730Y014894D03*
X021320Y014894D03*
X020445Y012644D03*
X019855Y012644D03*
X017945Y010894D03*
X017355Y010894D03*
X027480Y008144D03*
X028070Y008144D03*
X028855Y012144D03*
X029445Y012144D03*
X028945Y016144D03*
X028945Y016644D03*
X028355Y016644D03*
X028355Y016144D03*
D19*
X024162Y014018D03*
X024162Y013269D03*
X023138Y013269D03*
X023138Y013644D03*
X023138Y014018D03*
X008037Y015269D03*
X008037Y016018D03*
X007013Y016018D03*
X007013Y015644D03*
X007013Y015269D03*
D20*
X013480Y017769D03*
X014070Y017769D03*
X010900Y008814D03*
X010900Y008223D03*
D21*
X011005Y010482D03*
X011005Y010738D03*
X011005Y010993D03*
X011005Y011249D03*
X011005Y011505D03*
X011005Y011761D03*
X011005Y012017D03*
X011005Y012273D03*
X011005Y012529D03*
X011005Y012785D03*
X011005Y013041D03*
X011005Y013297D03*
X011005Y013553D03*
X011005Y013808D03*
X013289Y013808D03*
X013289Y013553D03*
X013289Y013297D03*
X013289Y013041D03*
X013289Y012785D03*
X013289Y012529D03*
X013289Y012273D03*
X013289Y012017D03*
X013289Y011761D03*
X013289Y011505D03*
X013289Y011249D03*
X013289Y010993D03*
X013289Y010738D03*
X013289Y010482D03*
D22*
X009150Y012151D03*
X009150Y013136D03*
D23*
X009775Y009019D03*
X009775Y008019D03*
X014525Y011394D03*
X015525Y011394D03*
D24*
X005534Y011675D03*
X005278Y011675D03*
X005022Y011675D03*
X004766Y011675D03*
X004766Y010612D03*
X005022Y010612D03*
X005278Y010612D03*
X005534Y010612D03*
D25*
X025025Y014655D03*
D26*
X025025Y013632D03*
D27*
X021674Y011894D03*
X021674Y011394D03*
X021674Y010894D03*
X021674Y010394D03*
X019626Y010394D03*
X019626Y010894D03*
X019626Y011394D03*
X019626Y011894D03*
D28*
X023276Y012394D03*
X024024Y012394D03*
D29*
X022275Y013533D03*
X022275Y014754D03*
D30*
X019524Y016632D03*
X019150Y016632D03*
X018776Y016632D03*
X018776Y017655D03*
X019524Y017655D03*
D31*
X020951Y019644D03*
X017349Y019644D03*
D32*
X029662Y011144D03*
X029662Y008144D03*
D33*
X028638Y008144D03*
X028638Y011144D03*
D34*
X029150Y010077D03*
X028776Y009210D03*
X029524Y009210D03*
D35*
X019583Y013894D03*
X018717Y014268D03*
X018717Y013519D03*
D36*
X018654Y004921D02*
X018654Y004366D01*
X017654Y004366D02*
X017654Y004921D01*
X019654Y004921D02*
X019654Y004366D01*
X009150Y029366D02*
X009150Y029921D01*
X008150Y029921D02*
X008150Y029366D01*
X007150Y029366D02*
X007150Y029921D01*
D37*
X013150Y026144D03*
X014150Y026144D03*
X014150Y025144D03*
X014150Y024144D03*
X013150Y024144D03*
X013150Y025144D03*
X013150Y023144D03*
X014150Y023144D03*
X014150Y022144D03*
X013150Y022144D03*
X016650Y022144D03*
X016650Y023144D03*
X016650Y024144D03*
X016650Y025144D03*
X016650Y026144D03*
X017650Y026144D03*
X017650Y025144D03*
X017650Y024144D03*
X017650Y023144D03*
X017650Y022144D03*
D38*
X025953Y029049D02*
X025953Y029876D01*
X027953Y029876D02*
X027953Y029049D01*
D39*
X012650Y003300D03*
X012150Y003300D03*
X011650Y003300D03*
X011150Y003300D03*
X010650Y003300D03*
X010650Y001300D03*
X011150Y001300D03*
X011650Y001300D03*
X012150Y001300D03*
X012650Y001300D03*
D40*
X010150Y004644D03*
X015650Y004644D03*
X016525Y013019D03*
X016275Y018144D03*
X021150Y024394D03*
X021150Y026644D03*
X028650Y025144D03*
D41*
X006977Y023769D03*
X006685Y024856D03*
X005567Y024218D03*
X004213Y024218D03*
X002898Y023769D03*
X002701Y023840D03*
D42*
X002697Y023596D03*
X002902Y023659D03*
X005264Y024856D03*
X006193Y023895D03*
X006193Y023541D03*
X007170Y023840D03*
D43*
X007174Y023596D03*
X006969Y023644D03*
X006969Y023659D03*
X006402Y023478D03*
X006402Y023958D03*
X003914Y024856D03*
X002906Y023793D03*
X002906Y023785D03*
X002906Y023777D03*
X002906Y023651D03*
X002906Y023644D03*
D44*
X002847Y023722D03*
X002752Y023565D03*
X005619Y024234D03*
X006681Y024848D03*
X007028Y023730D03*
X007028Y023714D03*
D45*
X007024Y023722D03*
X007119Y023565D03*
X006347Y023470D03*
X005260Y024848D03*
X003552Y023966D03*
X002748Y023864D03*
X002748Y023856D03*
X002748Y023848D03*
X002748Y023588D03*
X002748Y023581D03*
X002748Y023573D03*
D46*
X003910Y024848D03*
X006351Y023966D03*
X007122Y023864D03*
X007122Y023856D03*
X007122Y023848D03*
X007122Y023588D03*
X007122Y023581D03*
X007122Y023573D03*
D47*
X005619Y023203D03*
X005619Y023195D03*
X005619Y023187D03*
X005619Y023179D03*
X005619Y023171D03*
X005619Y023163D03*
X005619Y023132D03*
X005619Y023124D03*
X005619Y023116D03*
X005619Y023108D03*
X005619Y023100D03*
X005619Y023092D03*
X005619Y023084D03*
X005619Y023077D03*
X005611Y023053D03*
X004878Y023108D03*
X004878Y023116D03*
X004878Y023124D03*
X004878Y023132D03*
X004272Y023132D03*
X004272Y023140D03*
X004272Y023147D03*
X004272Y023155D03*
X004272Y023163D03*
X004272Y023171D03*
X004272Y023179D03*
X004264Y023195D03*
X004264Y023203D03*
X004264Y023210D03*
X004264Y023218D03*
X004272Y023124D03*
X004272Y023116D03*
X004272Y023108D03*
X004264Y023084D03*
X004264Y023077D03*
X004264Y023069D03*
X004264Y023061D03*
X003886Y022620D03*
X003532Y023092D03*
X003524Y023124D03*
X003524Y023132D03*
X003508Y024250D03*
X003508Y024258D03*
X003508Y024266D03*
X003508Y024273D03*
X003508Y024281D03*
X003508Y024289D03*
X003508Y024360D03*
X003508Y024368D03*
X003508Y024376D03*
X003508Y024384D03*
X003508Y024392D03*
X003516Y024399D03*
X003516Y024407D03*
X004304Y024266D03*
X004304Y024258D03*
X004304Y024250D03*
X004855Y024273D03*
X004855Y024281D03*
X004855Y024289D03*
X004855Y024297D03*
X004855Y024305D03*
X004855Y024313D03*
X004855Y024321D03*
X004855Y024329D03*
X004855Y024336D03*
X004855Y024344D03*
X004855Y024352D03*
X004855Y024360D03*
X004863Y024384D03*
X004863Y024392D03*
X004863Y024399D03*
X005650Y024289D03*
X006681Y024840D03*
D48*
X005646Y024242D03*
X005260Y024840D03*
X003906Y024840D03*
X004890Y023140D03*
D49*
X005548Y023376D03*
X005548Y023384D03*
X005556Y023368D03*
X005241Y022628D03*
X006343Y022966D03*
X004926Y024069D03*
X004918Y024084D03*
X005579Y024486D03*
X006343Y024494D03*
X006681Y024832D03*
X007020Y024494D03*
X004233Y024478D03*
X004225Y024486D03*
X003563Y024494D03*
X003571Y024077D03*
X003579Y024069D03*
X004201Y023376D03*
X004217Y022958D03*
X003595Y022958D03*
X003587Y022966D03*
D50*
X003563Y022998D03*
X003563Y023006D03*
X004233Y022982D03*
X004241Y022990D03*
X004241Y023297D03*
X004241Y023305D03*
X004233Y023313D03*
X004122Y023439D03*
X004910Y023006D03*
X004918Y022998D03*
X005587Y022990D03*
X005587Y022982D03*
X005587Y023305D03*
X006311Y023021D03*
X006319Y023006D03*
X006681Y022620D03*
X007044Y022998D03*
X007044Y023006D03*
X007052Y023014D03*
X007052Y023021D03*
X007052Y024439D03*
X007052Y024447D03*
X007044Y024455D03*
X006319Y024455D03*
X006319Y024447D03*
X006311Y024439D03*
X006311Y024431D03*
X005619Y024415D03*
X005611Y024423D03*
X005611Y024431D03*
X005256Y024832D03*
X004894Y024470D03*
X004886Y024155D03*
X004886Y024147D03*
X004894Y024132D03*
X004264Y024423D03*
X004256Y024439D03*
X003902Y024832D03*
X003540Y024462D03*
X003532Y024163D03*
X003532Y024155D03*
X003540Y024147D03*
X003540Y024140D03*
D51*
X004193Y024518D03*
X004949Y024518D03*
X005540Y024518D03*
X006374Y024518D03*
X006681Y024825D03*
X006989Y024518D03*
D52*
X007000Y024510D03*
X006363Y024510D03*
X005252Y024825D03*
X004953Y024029D03*
X004961Y024021D03*
X005520Y023423D03*
X005528Y023415D03*
X004174Y023415D03*
X003615Y024014D03*
X003607Y024021D03*
X003583Y024510D03*
X004213Y024502D03*
X004197Y022943D03*
X007008Y022951D03*
D53*
X006681Y022628D03*
X006359Y022951D03*
X005532Y023407D03*
X004949Y024037D03*
X004941Y024045D03*
X005563Y024502D03*
X005571Y024494D03*
X006351Y024502D03*
X007012Y024502D03*
X004949Y022951D03*
X004185Y023399D03*
X004178Y023407D03*
X004122Y023525D03*
X003626Y023974D03*
X003603Y024029D03*
X003595Y024037D03*
X003902Y024825D03*
X003603Y022951D03*
D54*
X003548Y023037D03*
X003548Y023045D03*
X003540Y023053D03*
X003540Y023061D03*
X002800Y023061D03*
X002800Y023069D03*
X002800Y023077D03*
X002800Y023084D03*
X002800Y023092D03*
X002800Y023100D03*
X002800Y023108D03*
X002800Y023116D03*
X002800Y023124D03*
X002800Y023132D03*
X002800Y023140D03*
X002800Y023147D03*
X002800Y023155D03*
X002800Y023163D03*
X002800Y023171D03*
X002800Y023179D03*
X002800Y023187D03*
X002800Y023195D03*
X002800Y023203D03*
X002800Y023210D03*
X002800Y023218D03*
X002800Y023226D03*
X002800Y023234D03*
X002800Y023242D03*
X002800Y023250D03*
X002800Y023258D03*
X002800Y023266D03*
X002800Y023273D03*
X002800Y023281D03*
X002800Y023289D03*
X002800Y023297D03*
X002800Y023305D03*
X002800Y023313D03*
X002800Y023321D03*
X002800Y023329D03*
X002800Y023336D03*
X002800Y023344D03*
X002800Y023352D03*
X002800Y023360D03*
X002800Y023368D03*
X002800Y023376D03*
X002800Y023384D03*
X002800Y023392D03*
X002800Y023399D03*
X002800Y023407D03*
X002800Y023415D03*
X002800Y023423D03*
X002800Y023431D03*
X002800Y023439D03*
X002800Y023447D03*
X002800Y023455D03*
X002800Y023462D03*
X002800Y023470D03*
X002800Y023478D03*
X002800Y023486D03*
X002800Y023494D03*
X002800Y023502D03*
X002800Y023510D03*
X002800Y023518D03*
X002800Y023525D03*
X002800Y023533D03*
X002800Y023541D03*
X002800Y023549D03*
X002800Y023880D03*
X002800Y023888D03*
X002800Y023895D03*
X002800Y023903D03*
X002800Y023911D03*
X002800Y023919D03*
X002800Y023927D03*
X002800Y023935D03*
X002800Y023943D03*
X002800Y023951D03*
X002800Y023958D03*
X002800Y023966D03*
X002800Y023974D03*
X002800Y023982D03*
X002800Y023990D03*
X002800Y023998D03*
X002800Y024006D03*
X002800Y024014D03*
X002800Y024021D03*
X002800Y024029D03*
X002800Y024037D03*
X002800Y024045D03*
X002800Y024053D03*
X002800Y024061D03*
X002800Y024069D03*
X002800Y024077D03*
X002800Y024084D03*
X002800Y024092D03*
X002800Y024100D03*
X002800Y024108D03*
X002800Y024116D03*
X002800Y024124D03*
X002800Y024132D03*
X002800Y024140D03*
X002800Y024147D03*
X002800Y024155D03*
X002800Y024163D03*
X002800Y024171D03*
X002800Y024179D03*
X002800Y024187D03*
X002800Y024195D03*
X002800Y024203D03*
X002800Y024210D03*
X002800Y024218D03*
X002800Y024226D03*
X002800Y024234D03*
X002800Y024242D03*
X002800Y024250D03*
X002800Y024258D03*
X002800Y024266D03*
X002800Y024273D03*
X002800Y024281D03*
X002800Y024289D03*
X002800Y024297D03*
X002800Y024305D03*
X002800Y024313D03*
X002800Y024321D03*
X002800Y024329D03*
X002800Y024336D03*
X002800Y024344D03*
X002800Y024352D03*
X002800Y024360D03*
X002800Y024368D03*
X002800Y024376D03*
X002800Y024384D03*
X002800Y024392D03*
X002800Y024399D03*
X002800Y024407D03*
X002800Y024415D03*
X002800Y024423D03*
X002800Y024431D03*
X002800Y024439D03*
X002800Y024447D03*
X002800Y024455D03*
X002800Y024462D03*
X002800Y024470D03*
X002800Y024478D03*
X002800Y024486D03*
X002800Y024494D03*
X002800Y024502D03*
X002800Y024510D03*
X002800Y024518D03*
X002800Y024525D03*
X002800Y024533D03*
X002800Y024541D03*
X002800Y024549D03*
X002800Y024557D03*
X002800Y024565D03*
X002800Y024573D03*
X002800Y024581D03*
X002800Y024588D03*
X002800Y024596D03*
X002800Y024604D03*
X002800Y024612D03*
X002800Y024620D03*
X002800Y024628D03*
X002800Y024636D03*
X002800Y024644D03*
X002800Y024651D03*
X002800Y024659D03*
X002800Y024667D03*
X002800Y024675D03*
X002800Y024683D03*
X002800Y024691D03*
X002800Y024699D03*
X002800Y024706D03*
X002800Y024714D03*
X002800Y024722D03*
X002800Y024730D03*
X002800Y024738D03*
X002800Y024746D03*
X002800Y024754D03*
X002800Y024762D03*
X002800Y024769D03*
X002800Y024777D03*
X002800Y024785D03*
X002800Y024793D03*
X002800Y024801D03*
X002800Y024809D03*
X002800Y024817D03*
X002800Y024825D03*
X003524Y024439D03*
X003524Y024431D03*
X003532Y024447D03*
X003516Y024218D03*
X003516Y024210D03*
X003516Y024203D03*
X003524Y024195D03*
X003524Y024187D03*
X004280Y024376D03*
X004280Y024384D03*
X004288Y024360D03*
X004288Y024352D03*
X004288Y024344D03*
X004296Y024321D03*
X004296Y024313D03*
X004863Y024234D03*
X004870Y024203D03*
X004870Y024195D03*
X004878Y024439D03*
X004878Y024447D03*
X005626Y024392D03*
X005634Y024368D03*
X005634Y024360D03*
X005642Y024344D03*
X005642Y024336D03*
X005642Y024329D03*
X006296Y024329D03*
X006296Y024336D03*
X006296Y024344D03*
X006296Y024352D03*
X006296Y024360D03*
X006296Y024368D03*
X006304Y024399D03*
X006296Y024321D03*
X006296Y024313D03*
X006296Y024305D03*
X006296Y024297D03*
X006296Y024289D03*
X006296Y024281D03*
X006296Y024273D03*
X006296Y024266D03*
X006296Y024258D03*
X006296Y024250D03*
X006296Y024242D03*
X006296Y024234D03*
X006296Y024226D03*
X006296Y024218D03*
X006296Y024210D03*
X006296Y024203D03*
X006296Y024195D03*
X006296Y024187D03*
X006296Y024179D03*
X006296Y024171D03*
X006296Y024163D03*
X006296Y024155D03*
X006296Y024147D03*
X006296Y024140D03*
X006296Y024132D03*
X006296Y024124D03*
X006296Y024116D03*
X006296Y024108D03*
X006296Y024100D03*
X006296Y024092D03*
X006296Y024084D03*
X006296Y024077D03*
X006296Y024069D03*
X006296Y024061D03*
X006296Y024053D03*
X006296Y024045D03*
X006296Y024037D03*
X006296Y024029D03*
X006296Y024021D03*
X006296Y024014D03*
X006296Y024006D03*
X006296Y023998D03*
X006296Y023990D03*
X006296Y023982D03*
X006296Y023974D03*
X006296Y023872D03*
X006296Y023864D03*
X006296Y023856D03*
X006296Y023848D03*
X006296Y023840D03*
X006296Y023832D03*
X006296Y023825D03*
X006296Y023817D03*
X006296Y023809D03*
X006296Y023801D03*
X006296Y023793D03*
X006296Y023785D03*
X006296Y023777D03*
X006296Y023769D03*
X006296Y023762D03*
X006296Y023754D03*
X006296Y023746D03*
X006296Y023738D03*
X006296Y023730D03*
X006296Y023722D03*
X006296Y023714D03*
X006296Y023706D03*
X006296Y023699D03*
X006296Y023691D03*
X006296Y023683D03*
X006296Y023675D03*
X006296Y023667D03*
X006296Y023659D03*
X006296Y023651D03*
X006296Y023644D03*
X006296Y023636D03*
X006296Y023628D03*
X006296Y023620D03*
X006296Y023612D03*
X006296Y023604D03*
X006296Y023596D03*
X006296Y023588D03*
X006296Y023581D03*
X006296Y023573D03*
X006296Y023565D03*
X006296Y023462D03*
X006296Y023455D03*
X006296Y023447D03*
X006296Y023439D03*
X006296Y023431D03*
X006296Y023423D03*
X006296Y023415D03*
X006296Y023407D03*
X006296Y023399D03*
X006296Y023392D03*
X006296Y023384D03*
X006296Y023376D03*
X006296Y023368D03*
X006296Y023360D03*
X006296Y023352D03*
X006296Y023344D03*
X006296Y023336D03*
X006296Y023329D03*
X006296Y023321D03*
X006296Y023313D03*
X006296Y023305D03*
X006296Y023297D03*
X006296Y023289D03*
X006296Y023281D03*
X006296Y023273D03*
X006296Y023266D03*
X006296Y023258D03*
X006296Y023250D03*
X006296Y023242D03*
X006296Y023234D03*
X006296Y023226D03*
X006296Y023218D03*
X006296Y023210D03*
X006296Y023203D03*
X006296Y023195D03*
X006296Y023187D03*
X006296Y023179D03*
X006296Y023171D03*
X006296Y023163D03*
X006296Y023155D03*
X006296Y023147D03*
X006296Y023140D03*
X006296Y023132D03*
X006296Y023124D03*
X006296Y023116D03*
X006296Y023108D03*
X006296Y023100D03*
X006296Y023092D03*
X006296Y023084D03*
X006304Y023061D03*
X006304Y023053D03*
X005603Y023021D03*
X005603Y023014D03*
X005611Y023234D03*
X005603Y023258D03*
X005603Y023266D03*
X004902Y023029D03*
X004894Y023045D03*
X004894Y023053D03*
X004886Y023077D03*
X004256Y023029D03*
X004248Y023014D03*
X004256Y023250D03*
X004256Y023258D03*
X004248Y023266D03*
X004248Y023273D03*
X002800Y023053D03*
X002800Y023045D03*
X002800Y023037D03*
X002800Y023029D03*
X002800Y023021D03*
X002800Y023014D03*
X002800Y023006D03*
X002800Y022998D03*
X002800Y022990D03*
X002800Y022982D03*
X002800Y022974D03*
X002800Y022966D03*
X002800Y022958D03*
X002800Y022951D03*
X002800Y022943D03*
X002800Y022935D03*
X002800Y022927D03*
X002800Y022919D03*
X002800Y022911D03*
X002800Y022903D03*
X002800Y022895D03*
X002800Y022888D03*
X002800Y022880D03*
X002800Y022872D03*
X002800Y022864D03*
X002800Y022856D03*
X002800Y022848D03*
X002800Y022840D03*
X002800Y022832D03*
X002800Y022825D03*
X002800Y022817D03*
X002800Y022809D03*
X002800Y022801D03*
X002800Y022793D03*
X002800Y022785D03*
X002800Y022777D03*
X002800Y022769D03*
X002800Y022762D03*
X002800Y022754D03*
X002800Y022746D03*
X002800Y022738D03*
X002800Y022730D03*
X002800Y022722D03*
X002800Y022714D03*
X002800Y022706D03*
X002800Y022699D03*
X002800Y022691D03*
X002800Y022683D03*
X002800Y022675D03*
X002800Y022667D03*
X002800Y022659D03*
X002800Y022651D03*
X002800Y022644D03*
X002800Y022636D03*
X002800Y022628D03*
X007059Y023045D03*
X007067Y023077D03*
X007067Y023084D03*
X007067Y023092D03*
X007067Y023100D03*
X007067Y023108D03*
X007067Y023116D03*
X007067Y023124D03*
X007067Y023132D03*
X007067Y023140D03*
X007067Y024321D03*
X007067Y024329D03*
X007067Y024336D03*
X007067Y024344D03*
X007067Y024352D03*
X007067Y024360D03*
X007067Y024368D03*
X007067Y024376D03*
X007059Y024407D03*
D55*
X006685Y024817D03*
X005071Y023888D03*
X005063Y023895D03*
X005056Y023903D03*
X005048Y023911D03*
X004079Y023533D03*
X004071Y023541D03*
D56*
X004181Y022935D03*
X003630Y022935D03*
X005528Y022935D03*
X003599Y024518D03*
X005252Y024817D03*
D57*
X005028Y023935D03*
X004981Y022935D03*
X006681Y022636D03*
X003902Y024817D03*
D58*
X003792Y023817D03*
X003800Y023809D03*
X003807Y023801D03*
X003815Y023793D03*
X003823Y023785D03*
X003831Y023777D03*
X003965Y023651D03*
X003973Y023644D03*
X003981Y023636D03*
X003989Y023628D03*
X003996Y023620D03*
X004004Y023612D03*
X005154Y023801D03*
X005327Y023636D03*
X005335Y023628D03*
X005248Y024801D03*
X006681Y024809D03*
D59*
X005248Y024809D03*
X005406Y023557D03*
X005414Y023549D03*
X005422Y023541D03*
X004067Y023549D03*
X004059Y023557D03*
X003737Y023872D03*
X003729Y023880D03*
X003902Y024809D03*
D60*
X005248Y024793D03*
X006681Y024801D03*
D61*
X005323Y023644D03*
X005315Y023651D03*
X005307Y023659D03*
X005300Y023667D03*
X005292Y023675D03*
X005284Y023683D03*
X005213Y023746D03*
X005205Y023754D03*
X005197Y023762D03*
X005189Y023769D03*
X005181Y023777D03*
X005174Y023785D03*
X005166Y023793D03*
X003953Y023659D03*
X003945Y023667D03*
X003937Y023675D03*
X003930Y023683D03*
X003922Y023691D03*
X003914Y023699D03*
X003906Y023706D03*
X003898Y023714D03*
X003890Y023722D03*
X003882Y023730D03*
X003874Y023738D03*
X003867Y023746D03*
X003859Y023754D03*
X003851Y023762D03*
X003843Y023769D03*
X003898Y024801D03*
D62*
X003894Y024785D03*
X005248Y024785D03*
X006681Y024793D03*
D63*
X003898Y024793D03*
D64*
X005248Y024777D03*
X006681Y024785D03*
X005248Y022683D03*
D65*
X006681Y024777D03*
D66*
X003898Y024777D03*
D67*
X003894Y024762D03*
X003902Y022699D03*
X005248Y022699D03*
X006681Y024769D03*
D68*
X005244Y024769D03*
X003898Y024769D03*
X003898Y022691D03*
X005252Y022691D03*
D69*
X006681Y024762D03*
D70*
X005244Y024762D03*
X006685Y022683D03*
D71*
X006681Y024754D03*
X003894Y024746D03*
X003902Y022714D03*
D72*
X003898Y022706D03*
X005252Y022706D03*
X005244Y024754D03*
D73*
X003894Y024754D03*
X006681Y022691D03*
D74*
X005252Y022730D03*
X006685Y024746D03*
D75*
X005244Y024746D03*
X005252Y022714D03*
X006685Y022699D03*
D76*
X006681Y022722D03*
X005256Y022738D03*
X003902Y022738D03*
X003894Y024722D03*
X006681Y024738D03*
D77*
X005244Y024738D03*
X005252Y022722D03*
D78*
X006681Y022706D03*
X003902Y022722D03*
X003894Y024738D03*
D79*
X003894Y024714D03*
X003902Y022746D03*
X005256Y022746D03*
X006681Y024730D03*
D80*
X005241Y024730D03*
X003894Y024730D03*
X003902Y022730D03*
X006681Y022714D03*
D81*
X005256Y022754D03*
X003902Y022754D03*
X003894Y024706D03*
X006681Y024722D03*
D82*
X005244Y024722D03*
D83*
X006681Y024714D03*
X005256Y022762D03*
X003902Y022762D03*
X003894Y024699D03*
D84*
X005244Y024714D03*
X006685Y022730D03*
D85*
X006681Y022746D03*
X006681Y024706D03*
X003894Y024691D03*
D86*
X005244Y024706D03*
X006685Y022738D03*
D87*
X006681Y022754D03*
X006681Y024699D03*
X005241Y024683D03*
X003894Y024683D03*
D88*
X005244Y024699D03*
X005252Y022769D03*
X003906Y022769D03*
D89*
X003902Y022793D03*
X005256Y022793D03*
X005241Y024675D03*
X006681Y024691D03*
X003894Y024675D03*
D90*
X005244Y024691D03*
X005252Y022777D03*
X003906Y022777D03*
D91*
X005256Y022801D03*
X006681Y022777D03*
X006681Y024683D03*
X005241Y024667D03*
X003894Y024667D03*
D92*
X005256Y022817D03*
X006681Y022785D03*
X006681Y024675D03*
D93*
X006681Y024667D03*
X005241Y024644D03*
X003894Y024644D03*
X005256Y022825D03*
X006681Y022793D03*
D94*
X005252Y022832D03*
X003906Y022832D03*
X006685Y024659D03*
D95*
X005244Y024659D03*
X003890Y024659D03*
X003906Y022809D03*
X005252Y022809D03*
D96*
X005256Y022840D03*
X006681Y022801D03*
X006681Y024651D03*
X005241Y024636D03*
X003894Y024636D03*
X003902Y022840D03*
D97*
X003906Y022825D03*
X003906Y022817D03*
X003890Y024651D03*
X005244Y024651D03*
D98*
X005241Y024620D03*
X006681Y024644D03*
X006681Y022817D03*
X005256Y022856D03*
X003894Y024620D03*
D99*
X003906Y022864D03*
X003906Y022856D03*
X006685Y024636D03*
D100*
X006681Y024628D03*
X005241Y024612D03*
X003894Y024612D03*
X005256Y022872D03*
X005256Y022864D03*
X006681Y022825D03*
D101*
X006685Y022809D03*
X005252Y022848D03*
X003906Y022848D03*
X003890Y024628D03*
X005244Y024628D03*
D102*
X005241Y024596D03*
X006681Y024620D03*
X006681Y022840D03*
X005256Y022880D03*
X005256Y022888D03*
X003902Y022888D03*
X003894Y024596D03*
D103*
X003890Y024588D03*
X005244Y024588D03*
X006685Y024612D03*
X005252Y022895D03*
X003906Y022895D03*
D104*
X003902Y022903D03*
X005256Y022903D03*
X006681Y022856D03*
X006681Y022848D03*
X006681Y024604D03*
X003894Y024581D03*
D105*
X003890Y024604D03*
X005244Y024604D03*
X003906Y022880D03*
X003906Y022872D03*
X006685Y022832D03*
D106*
X005252Y022911D03*
X003906Y022911D03*
X005244Y024573D03*
X005244Y024581D03*
X006685Y024596D03*
D107*
X006681Y024588D03*
X006681Y022872D03*
X006681Y022864D03*
X005256Y022919D03*
X005256Y022927D03*
X003902Y022927D03*
X003902Y022919D03*
X003894Y024565D03*
X003894Y024573D03*
D108*
X005244Y024565D03*
X005244Y024557D03*
X006685Y024581D03*
D109*
X006681Y024573D03*
X006681Y022888D03*
X006681Y022880D03*
X003894Y024549D03*
X003894Y024557D03*
D110*
X005244Y024549D03*
X005244Y024541D03*
X006685Y024565D03*
D111*
X006681Y024557D03*
X006681Y022903D03*
X006681Y022895D03*
X003894Y024525D03*
X003894Y024533D03*
X003894Y024541D03*
D112*
X005244Y024533D03*
X005244Y024525D03*
X006685Y024549D03*
X006685Y022911D03*
D113*
X006681Y022919D03*
X006681Y022927D03*
X006681Y024533D03*
X006681Y024541D03*
D114*
X006685Y024525D03*
D115*
X005556Y024510D03*
X004933Y024510D03*
X004965Y024014D03*
X005430Y023510D03*
X005548Y022943D03*
X004965Y022943D03*
X004170Y023423D03*
X004162Y023431D03*
X003634Y023982D03*
X003626Y023998D03*
X003619Y024006D03*
X004201Y024510D03*
X003611Y022943D03*
D116*
X004205Y022951D03*
X004197Y023384D03*
X004189Y023392D03*
X004945Y022958D03*
X005559Y022951D03*
X005544Y023392D03*
X005536Y023399D03*
X004937Y024053D03*
X004930Y024061D03*
X004922Y024502D03*
X004221Y024494D03*
X003575Y024502D03*
X003583Y024061D03*
X003583Y024053D03*
X003591Y024045D03*
X006347Y022958D03*
X007016Y022958D03*
D117*
X007024Y022966D03*
X005567Y022958D03*
X005559Y023360D03*
X004937Y022966D03*
X004930Y022974D03*
X004213Y023352D03*
X004213Y023360D03*
X004205Y023368D03*
X003772Y023888D03*
X003567Y024084D03*
X003559Y024100D03*
X004237Y024470D03*
X004244Y024462D03*
X004906Y024486D03*
X004914Y024494D03*
X005583Y024478D03*
X005591Y024470D03*
X006339Y024486D03*
X007024Y024486D03*
X004922Y024077D03*
X004914Y024092D03*
X003890Y022628D03*
D118*
X003579Y022974D03*
X004225Y022966D03*
X004225Y023336D03*
X004217Y023344D03*
X004926Y022982D03*
X005571Y022966D03*
X005579Y022974D03*
X005571Y023336D03*
X005571Y023344D03*
X005563Y023352D03*
X006335Y022974D03*
X007028Y022974D03*
X007036Y022982D03*
X007036Y024470D03*
X007036Y024478D03*
X006335Y024478D03*
X006327Y024470D03*
X005595Y024462D03*
X004902Y024116D03*
X004902Y024108D03*
X004910Y024100D03*
X004248Y024455D03*
X003556Y024486D03*
X003548Y024124D03*
X003556Y024108D03*
X003563Y024092D03*
D119*
X003552Y024116D03*
X003544Y024132D03*
X003544Y024470D03*
X003552Y024478D03*
X004252Y024447D03*
X004260Y024431D03*
X004898Y024478D03*
X004890Y024140D03*
X004898Y024124D03*
X005599Y024455D03*
X005607Y024447D03*
X005607Y024439D03*
X006323Y024462D03*
X007040Y024462D03*
X005583Y023321D03*
X005583Y023313D03*
X005575Y023329D03*
X004922Y022990D03*
X004229Y022974D03*
X004229Y023321D03*
X004229Y023329D03*
X003575Y022982D03*
X003567Y022990D03*
X006323Y022990D03*
X006323Y022998D03*
X006331Y022982D03*
X007040Y022990D03*
D120*
X007056Y023029D03*
X007056Y023037D03*
X007063Y023053D03*
X007063Y023061D03*
X007063Y023069D03*
X006315Y023014D03*
X006307Y023029D03*
X006307Y023037D03*
X006307Y023045D03*
X006300Y023069D03*
X006300Y023077D03*
X005599Y023006D03*
X005591Y022998D03*
X005599Y023273D03*
X005599Y023281D03*
X005591Y023289D03*
X005591Y023297D03*
X004906Y023021D03*
X004906Y023014D03*
X004898Y023037D03*
X004244Y023006D03*
X004244Y022998D03*
X004244Y023281D03*
X004244Y023289D03*
X003559Y023014D03*
X003552Y023021D03*
X003552Y023029D03*
X003528Y024171D03*
X003528Y024179D03*
X003536Y024455D03*
X004268Y024415D03*
X004268Y024407D03*
X004276Y024399D03*
X004276Y024392D03*
X004284Y024368D03*
X004882Y024455D03*
X004890Y024462D03*
X004874Y024187D03*
X004874Y024179D03*
X004882Y024171D03*
X004882Y024163D03*
X005622Y024399D03*
X005622Y024407D03*
X005630Y024384D03*
X005630Y024376D03*
X006300Y024376D03*
X006300Y024384D03*
X006300Y024392D03*
X006307Y024407D03*
X006307Y024415D03*
X006307Y024423D03*
X007056Y024423D03*
X007056Y024415D03*
X007056Y024431D03*
X007063Y024399D03*
X007063Y024392D03*
X007063Y024384D03*
D121*
X007071Y024313D03*
X007071Y024305D03*
X007071Y024297D03*
X007071Y024289D03*
X007071Y024281D03*
X007071Y024273D03*
X007071Y024266D03*
X007071Y024258D03*
X007071Y024250D03*
X007071Y024242D03*
X007071Y024234D03*
X007071Y024226D03*
X007071Y024218D03*
X007071Y024210D03*
X007071Y024203D03*
X007071Y024195D03*
X007071Y024187D03*
X007071Y024179D03*
X007071Y024171D03*
X007071Y024163D03*
X007071Y024155D03*
X007071Y024147D03*
X007071Y024140D03*
X007071Y024132D03*
X007071Y024124D03*
X007071Y024116D03*
X007071Y024108D03*
X007071Y024100D03*
X007071Y024092D03*
X007071Y024084D03*
X007071Y024077D03*
X007071Y024069D03*
X007071Y024061D03*
X007071Y024053D03*
X007071Y024045D03*
X007071Y024037D03*
X007071Y024029D03*
X007071Y024021D03*
X007071Y024014D03*
X007071Y024006D03*
X007071Y023998D03*
X007071Y023990D03*
X007071Y023982D03*
X007071Y023974D03*
X007071Y023966D03*
X007071Y023958D03*
X007071Y023951D03*
X007071Y023943D03*
X007071Y023935D03*
X007071Y023927D03*
X007071Y023919D03*
X007071Y023911D03*
X007071Y023903D03*
X007071Y023895D03*
X007071Y023888D03*
X007071Y023549D03*
X007071Y023541D03*
X007071Y023533D03*
X007071Y023525D03*
X007071Y023518D03*
X007071Y023510D03*
X007071Y023502D03*
X007071Y023494D03*
X007071Y023486D03*
X007071Y023478D03*
X007071Y023470D03*
X007071Y023462D03*
X007071Y023455D03*
X007071Y023447D03*
X007071Y023439D03*
X007071Y023431D03*
X007071Y023423D03*
X007071Y023415D03*
X007071Y023407D03*
X007071Y023399D03*
X007071Y023392D03*
X007071Y023384D03*
X007071Y023376D03*
X007071Y023368D03*
X007071Y023360D03*
X007071Y023352D03*
X007071Y023344D03*
X007071Y023336D03*
X007071Y023329D03*
X007071Y023321D03*
X007071Y023313D03*
X007071Y023305D03*
X007071Y023297D03*
X007071Y023289D03*
X007071Y023281D03*
X007071Y023273D03*
X007071Y023266D03*
X007071Y023258D03*
X007071Y023250D03*
X007071Y023242D03*
X007071Y023234D03*
X007071Y023226D03*
X007071Y023218D03*
X007071Y023210D03*
X007071Y023203D03*
X007071Y023195D03*
X007071Y023187D03*
X007071Y023179D03*
X007071Y023171D03*
X007071Y023163D03*
X007071Y023155D03*
X007071Y023147D03*
X005615Y023210D03*
X005615Y023218D03*
X005615Y023226D03*
X005607Y023242D03*
X005607Y023250D03*
X005615Y023069D03*
X005615Y023061D03*
X005607Y023045D03*
X005607Y023037D03*
X005607Y023029D03*
X005237Y022620D03*
X004890Y023061D03*
X004890Y023069D03*
X004882Y023084D03*
X004882Y023092D03*
X004882Y023100D03*
X004260Y023053D03*
X004260Y023045D03*
X004260Y023037D03*
X004252Y023021D03*
X004260Y023226D03*
X004260Y023234D03*
X004260Y023242D03*
X003536Y023084D03*
X003536Y023077D03*
X003536Y023069D03*
X003528Y023100D03*
X003528Y023108D03*
X003528Y023116D03*
X003512Y024226D03*
X003512Y024234D03*
X003512Y024242D03*
X003520Y024415D03*
X003520Y024423D03*
X004292Y024336D03*
X004292Y024329D03*
X004300Y024305D03*
X004300Y024297D03*
X004300Y024289D03*
X004300Y024281D03*
X004300Y024273D03*
X004859Y024266D03*
X004859Y024258D03*
X004859Y024250D03*
X004859Y024242D03*
X004867Y024226D03*
X004867Y024218D03*
X004867Y024210D03*
X004867Y024407D03*
X004867Y024415D03*
X004874Y024423D03*
X004874Y024431D03*
X005638Y024352D03*
X005646Y024321D03*
X005646Y024313D03*
X005646Y024305D03*
X005646Y024297D03*
X005654Y024281D03*
X005654Y024273D03*
X005654Y024266D03*
X005654Y024258D03*
X005654Y024250D03*
D122*
X004859Y024368D03*
X004859Y024376D03*
X003796Y023895D03*
X003504Y024297D03*
X003504Y024305D03*
X003504Y024313D03*
X003504Y024321D03*
X003504Y024329D03*
X003504Y024336D03*
X003504Y024344D03*
X003504Y024352D03*
X004268Y023187D03*
X004268Y023100D03*
X004268Y023092D03*
X005622Y023140D03*
X005622Y023147D03*
X005622Y023155D03*
D123*
X004296Y024242D03*
D124*
X004268Y024234D03*
X005355Y023502D03*
X007032Y023699D03*
X007032Y023706D03*
X007032Y023738D03*
X007111Y023872D03*
X002843Y023730D03*
X002843Y023714D03*
X002843Y023706D03*
D125*
X005591Y024226D03*
D126*
X004241Y024226D03*
X006681Y022604D03*
D127*
X007193Y023628D03*
X007193Y023636D03*
X007193Y023644D03*
X007193Y023793D03*
X007193Y023801D03*
X007193Y023825D03*
X005540Y024210D03*
X002674Y023817D03*
X002674Y023809D03*
X002674Y023801D03*
X002674Y023636D03*
X002674Y023628D03*
X002674Y023620D03*
X002674Y023612D03*
D128*
X003646Y023163D03*
X004189Y024210D03*
X006426Y023951D03*
X006426Y023486D03*
X007197Y023612D03*
X007197Y023620D03*
X007197Y023809D03*
X007197Y023817D03*
D129*
X007024Y023840D03*
X007016Y023817D03*
X007016Y023809D03*
X006922Y023801D03*
X006922Y023636D03*
X007016Y023628D03*
X006402Y023919D03*
X006402Y023927D03*
X006402Y023935D03*
X006252Y023951D03*
X006252Y023958D03*
X006244Y023903D03*
X006244Y023533D03*
X006244Y023525D03*
X006244Y023518D03*
X006244Y023510D03*
X006244Y023502D03*
X006244Y023494D03*
X006244Y023486D03*
X005307Y023447D03*
X005512Y024203D03*
X004284Y023447D03*
X003977Y023455D03*
X003977Y023462D03*
X003977Y023470D03*
X003977Y023478D03*
X003977Y023486D03*
X003654Y023911D03*
X003654Y023919D03*
X003654Y023927D03*
X003504Y023888D03*
X002953Y023801D03*
X002859Y023801D03*
X002851Y023832D03*
X002859Y023636D03*
D130*
X004162Y024203D03*
X005311Y023439D03*
D131*
X005485Y024195D03*
X006894Y023840D03*
X006894Y023832D03*
X006894Y023825D03*
X006894Y023817D03*
X006894Y023620D03*
X006894Y023612D03*
X006894Y023604D03*
X006894Y023596D03*
X007248Y023691D03*
X007248Y023699D03*
X007248Y023738D03*
X007248Y023746D03*
X003933Y023919D03*
X003855Y023510D03*
X002981Y023604D03*
X002981Y023612D03*
X002981Y023620D03*
X002981Y023817D03*
X002981Y023825D03*
X002981Y023832D03*
X002619Y023746D03*
X002619Y023738D03*
X002619Y023730D03*
X002619Y023699D03*
X002619Y023691D03*
D132*
X002615Y023706D03*
X002615Y023714D03*
X002615Y023722D03*
X003930Y023927D03*
X004134Y024195D03*
X007252Y023730D03*
X007252Y023722D03*
X007252Y023714D03*
X007252Y023706D03*
D133*
X007020Y023620D03*
X007020Y023612D03*
X007020Y023604D03*
X007020Y023596D03*
X007012Y023636D03*
X007012Y023801D03*
X007020Y023825D03*
X007020Y023832D03*
X006406Y023943D03*
X006398Y023911D03*
X006398Y023903D03*
X006398Y023895D03*
X006398Y023888D03*
X006248Y023911D03*
X006248Y023919D03*
X006248Y023927D03*
X006248Y023935D03*
X006248Y023943D03*
X006398Y023549D03*
X006398Y023541D03*
X006398Y023533D03*
X006398Y023525D03*
X006398Y023518D03*
X006398Y023510D03*
X006398Y023502D03*
X006398Y023494D03*
X006248Y023478D03*
X005619Y023478D03*
X005619Y023470D03*
X005619Y023462D03*
X005619Y023455D03*
X005619Y023447D03*
X005619Y023439D03*
X005619Y023486D03*
X005619Y023494D03*
X005619Y023502D03*
X005461Y023494D03*
X005461Y023486D03*
X005461Y023478D03*
X005461Y023470D03*
X005461Y023462D03*
X005461Y023455D03*
X005461Y023447D03*
X005461Y023439D03*
X005304Y023455D03*
X005304Y023462D03*
X005304Y023470D03*
X005304Y023478D03*
X005304Y023486D03*
X005304Y023494D03*
X005154Y023943D03*
X005154Y023951D03*
X005154Y023958D03*
X005154Y023966D03*
X005154Y023974D03*
X005154Y023982D03*
X005154Y023990D03*
X005154Y023998D03*
X005154Y024006D03*
X004996Y024006D03*
X004996Y023998D03*
X004996Y023990D03*
X004996Y023982D03*
X004996Y023974D03*
X004996Y023966D03*
X004996Y023958D03*
X004996Y023951D03*
X004996Y023943D03*
X004839Y023943D03*
X004839Y023951D03*
X004839Y023958D03*
X004839Y023966D03*
X004839Y023974D03*
X004839Y023982D03*
X004839Y023990D03*
X004839Y023998D03*
X004839Y024006D03*
X004288Y023502D03*
X004288Y023494D03*
X004288Y023486D03*
X004288Y023478D03*
X004288Y023470D03*
X004288Y023462D03*
X004288Y023455D03*
X004130Y023455D03*
X004130Y023462D03*
X004130Y023470D03*
X004130Y023478D03*
X004130Y023486D03*
X004130Y023494D03*
X004130Y023502D03*
X004130Y023510D03*
X004130Y023447D03*
X003981Y023494D03*
X003981Y023502D03*
X003981Y023510D03*
X003981Y023518D03*
X003807Y023911D03*
X003807Y023919D03*
X003807Y023927D03*
X003807Y023935D03*
X003807Y023943D03*
X003807Y023951D03*
X003807Y023958D03*
X003807Y023966D03*
X003650Y023958D03*
X003650Y023951D03*
X003650Y023943D03*
X003650Y023935D03*
X003658Y023903D03*
X003500Y023903D03*
X003500Y023895D03*
X003500Y023911D03*
X003500Y023919D03*
X003500Y023927D03*
X003500Y023935D03*
X003500Y023943D03*
X002949Y023636D03*
X002855Y023628D03*
X002855Y023620D03*
X002855Y023612D03*
X002847Y023596D03*
X002855Y023809D03*
X002855Y023817D03*
X002855Y023825D03*
X002847Y023840D03*
D134*
X003630Y023990D03*
X003890Y022636D03*
X005244Y022636D03*
X006370Y022943D03*
X006993Y022943D03*
D135*
X007241Y023667D03*
X007241Y023769D03*
X006902Y023809D03*
X006122Y023943D03*
X006122Y023951D03*
X006122Y023958D03*
X006122Y023966D03*
X006122Y023533D03*
X006122Y023470D03*
X003847Y023525D03*
X002973Y023809D03*
X002626Y023769D03*
X002626Y023667D03*
D136*
X002689Y023832D03*
X003493Y023958D03*
X006965Y023793D03*
X006965Y023785D03*
X006965Y023777D03*
X006965Y023651D03*
D137*
X004996Y023163D03*
X003477Y023951D03*
D138*
X002977Y023872D03*
X002977Y023864D03*
X002977Y023856D03*
X002977Y023848D03*
X002977Y023840D03*
X002977Y023596D03*
X002977Y023588D03*
X002977Y023581D03*
X002977Y023573D03*
X002977Y023565D03*
X002977Y023557D03*
X002622Y023675D03*
X002622Y023683D03*
X002622Y023754D03*
X002622Y023762D03*
X003851Y023518D03*
X006119Y023518D03*
X006119Y023525D03*
X006119Y023510D03*
X006119Y023502D03*
X006119Y023494D03*
X006119Y023486D03*
X006119Y023478D03*
X006119Y023903D03*
X006119Y023911D03*
X006119Y023919D03*
X006119Y023927D03*
X006119Y023935D03*
X006898Y023880D03*
X006898Y023872D03*
X006898Y023864D03*
X006898Y023856D03*
X006898Y023848D03*
X006898Y023588D03*
X006898Y023581D03*
X006898Y023573D03*
X006898Y023565D03*
X006898Y023557D03*
X007244Y023675D03*
X007244Y023683D03*
X007244Y023754D03*
X007244Y023762D03*
D139*
X003926Y023935D03*
X003863Y023502D03*
D140*
X005032Y023927D03*
D141*
X005044Y023919D03*
X005430Y023533D03*
X005437Y023525D03*
X005445Y023518D03*
X006390Y022935D03*
X006973Y022935D03*
X005241Y022644D03*
X003894Y022644D03*
D142*
X003922Y023911D03*
X005315Y023431D03*
D143*
X004957Y023155D03*
X003863Y023903D03*
X003611Y023155D03*
X006981Y023667D03*
D144*
X006989Y023762D03*
X006209Y023888D03*
X002886Y023762D03*
D145*
X003540Y023140D03*
X006272Y023880D03*
X007091Y023880D03*
D146*
X006685Y022644D03*
X005402Y023565D03*
X005394Y023573D03*
X005386Y023581D03*
X005103Y023856D03*
X005095Y023864D03*
X005087Y023872D03*
X005079Y023880D03*
X004048Y023565D03*
X004040Y023573D03*
X003741Y023864D03*
D147*
X002839Y023738D03*
X002839Y023699D03*
X002760Y023872D03*
X005233Y022612D03*
X007036Y023691D03*
X007036Y023746D03*
D148*
X005374Y023588D03*
X005107Y023848D03*
X004036Y023581D03*
X004028Y023588D03*
X004020Y023596D03*
X003776Y023832D03*
X003768Y023840D03*
X003760Y023848D03*
X003752Y023856D03*
X003894Y022651D03*
D149*
X004008Y023604D03*
X003780Y023825D03*
X005119Y023840D03*
X005126Y023832D03*
X005134Y023825D03*
X005142Y023817D03*
X005150Y023809D03*
X005347Y023620D03*
X005355Y023612D03*
X005363Y023604D03*
X005370Y023596D03*
X005244Y022651D03*
D150*
X007181Y023832D03*
X002685Y023604D03*
D151*
X002678Y023644D03*
X002678Y023651D03*
X002678Y023785D03*
X002678Y023793D03*
X002678Y023825D03*
X003985Y023447D03*
X007189Y023651D03*
X007189Y023659D03*
X007189Y023777D03*
X007189Y023785D03*
D152*
X007185Y023604D03*
X002681Y023659D03*
X002681Y023777D03*
D153*
X002705Y023769D03*
X002705Y023667D03*
X007162Y023667D03*
X007162Y023769D03*
D154*
X007158Y023762D03*
X007158Y023675D03*
X002851Y023604D03*
X002709Y023675D03*
X002709Y023762D03*
D155*
X002835Y023746D03*
X002835Y023691D03*
X004189Y023518D03*
X003882Y022612D03*
X007040Y023683D03*
X007040Y023754D03*
D156*
X007099Y023557D03*
X002831Y023683D03*
X002831Y023754D03*
D157*
X003894Y022659D03*
X005248Y022659D03*
X005272Y023691D03*
X005264Y023699D03*
X005256Y023706D03*
X005248Y023714D03*
X005241Y023722D03*
X005233Y023730D03*
X005225Y023738D03*
X006681Y022651D03*
D158*
X006993Y023675D03*
D159*
X006217Y023549D03*
X005233Y022604D03*
X003878Y022604D03*
X002878Y023675D03*
D160*
X002890Y023667D03*
D161*
X002969Y023628D03*
X005032Y023171D03*
X006906Y023628D03*
D162*
X006268Y023557D03*
X005583Y023431D03*
X006685Y022612D03*
X002772Y023557D03*
D163*
X004300Y023510D03*
D164*
X003681Y023171D03*
X005713Y023439D03*
D165*
X004922Y023147D03*
X003575Y023147D03*
D166*
X003906Y022801D03*
X006685Y022769D03*
D167*
X006685Y022762D03*
X005252Y022785D03*
X003906Y022785D03*
D168*
X003898Y022683D03*
D169*
X006681Y022675D03*
D170*
X006681Y022667D03*
X005248Y022675D03*
D171*
X003898Y022675D03*
D172*
X003894Y022667D03*
X005248Y022667D03*
X006681Y022659D03*
D173*
X004150Y031435D03*
X004150Y032352D03*
D174*
X003275Y032143D03*
X003275Y031394D03*
D175*
X035650Y016644D03*
X035650Y015644D03*
X035650Y014644D03*
D176*
X029662Y011144D02*
X029650Y011144D01*
X028900Y011183D02*
X027025Y011183D01*
X027025Y011085D02*
X028900Y011085D01*
X028900Y010986D02*
X027025Y010986D01*
X027025Y010888D02*
X028900Y010888D01*
X028900Y010789D02*
X027025Y010789D01*
X027025Y010691D02*
X028900Y010691D01*
X028900Y010592D02*
X027025Y010592D01*
X027025Y010494D02*
X028798Y010494D01*
X028743Y010439D02*
X028866Y010562D01*
X028900Y010562D01*
X028900Y012354D01*
X028842Y012354D01*
X028746Y012394D01*
X028025Y012394D01*
X028025Y012479D01*
X027842Y012479D01*
X027736Y012523D01*
X027611Y012648D01*
X027529Y012729D01*
X027485Y012836D01*
X027485Y012875D01*
X027471Y012875D01*
X027348Y012998D01*
X027348Y013448D01*
X027471Y013571D01*
X028025Y013571D01*
X028025Y014144D01*
X028525Y014144D01*
X028525Y016894D01*
X027025Y016894D01*
X027025Y007644D01*
X027650Y007644D01*
X027650Y008769D01*
X028900Y008769D01*
X028900Y009591D01*
X028866Y009591D01*
X028743Y009714D01*
X028743Y010439D01*
X028743Y010395D02*
X027025Y010395D01*
X027025Y010297D02*
X028743Y010297D01*
X028743Y010198D02*
X027025Y010198D01*
X027025Y010100D02*
X028743Y010100D01*
X028743Y010001D02*
X027025Y010001D01*
X027025Y009903D02*
X028743Y009903D01*
X028743Y009804D02*
X027025Y009804D01*
X027025Y009706D02*
X028752Y009706D01*
X028850Y009607D02*
X027025Y009607D01*
X027025Y009509D02*
X028900Y009509D01*
X028900Y009410D02*
X027025Y009410D01*
X027025Y009312D02*
X028900Y009312D01*
X028900Y009213D02*
X027025Y009213D01*
X027025Y009115D02*
X028900Y009115D01*
X028900Y009016D02*
X027025Y009016D01*
X027025Y008918D02*
X028900Y008918D01*
X028900Y008819D02*
X027025Y008819D01*
X027025Y008721D02*
X027650Y008721D01*
X027650Y008622D02*
X027025Y008622D01*
X027025Y008524D02*
X027650Y008524D01*
X027650Y008425D02*
X027025Y008425D01*
X027025Y008327D02*
X027650Y008327D01*
X027650Y008228D02*
X027025Y008228D01*
X027025Y008130D02*
X027650Y008130D01*
X027650Y008031D02*
X027025Y008031D01*
X027025Y007933D02*
X027650Y007933D01*
X027650Y007834D02*
X027025Y007834D01*
X027025Y007736D02*
X027650Y007736D01*
X027025Y011282D02*
X028900Y011282D01*
X028900Y011380D02*
X027025Y011380D01*
X027025Y011479D02*
X028900Y011479D01*
X028900Y011577D02*
X027025Y011577D01*
X027025Y011676D02*
X028900Y011676D01*
X028900Y011774D02*
X027025Y011774D01*
X027025Y011873D02*
X028900Y011873D01*
X028900Y011971D02*
X027025Y011971D01*
X027025Y012070D02*
X028900Y012070D01*
X028900Y012168D02*
X027025Y012168D01*
X027025Y012267D02*
X028900Y012267D01*
X028814Y012365D02*
X027025Y012365D01*
X027025Y012464D02*
X028025Y012464D01*
X027696Y012562D02*
X027025Y012562D01*
X027025Y012661D02*
X027598Y012661D01*
X027517Y012759D02*
X027025Y012759D01*
X027025Y012858D02*
X027485Y012858D01*
X027391Y012956D02*
X027025Y012956D01*
X027025Y013055D02*
X027348Y013055D01*
X027348Y013153D02*
X027025Y013153D01*
X027025Y013252D02*
X027348Y013252D01*
X027348Y013350D02*
X027025Y013350D01*
X027025Y013449D02*
X027349Y013449D01*
X027447Y013547D02*
X027025Y013547D01*
X027025Y013646D02*
X028025Y013646D01*
X028025Y013744D02*
X027025Y013744D01*
X027025Y013843D02*
X028025Y013843D01*
X028025Y013941D02*
X027025Y013941D01*
X027025Y014040D02*
X028025Y014040D01*
X028025Y014138D02*
X027025Y014138D01*
X027025Y014237D02*
X028525Y014237D01*
X028525Y014335D02*
X027025Y014335D01*
X027025Y014434D02*
X028525Y014434D01*
X028525Y014532D02*
X027025Y014532D01*
X027025Y014631D02*
X028525Y014631D01*
X028525Y014729D02*
X027025Y014729D01*
X027025Y014828D02*
X028525Y014828D01*
X028525Y014926D02*
X027025Y014926D01*
X027025Y015025D02*
X028525Y015025D01*
X028525Y015123D02*
X027025Y015123D01*
X027025Y015222D02*
X028525Y015222D01*
X028525Y015320D02*
X027025Y015320D01*
X027025Y015419D02*
X028525Y015419D01*
X028525Y015517D02*
X027025Y015517D01*
X027025Y015616D02*
X028525Y015616D01*
X028525Y015714D02*
X027025Y015714D01*
X027025Y015813D02*
X028525Y015813D01*
X028525Y015911D02*
X027025Y015911D01*
X027025Y016010D02*
X028525Y016010D01*
X028525Y016108D02*
X027025Y016108D01*
X027025Y016207D02*
X028525Y016207D01*
X028525Y016305D02*
X027025Y016305D01*
X027025Y016404D02*
X028525Y016404D01*
X028525Y016502D02*
X027025Y016502D01*
X027025Y016601D02*
X028525Y016601D01*
X028525Y016699D02*
X027025Y016699D01*
X027025Y016798D02*
X028525Y016798D01*
X029150Y018394D02*
X023900Y018394D01*
X023900Y026894D01*
X027400Y026894D01*
X027400Y030894D01*
X029150Y030894D01*
X029150Y018394D01*
X029150Y018472D02*
X023900Y018472D01*
X023900Y018571D02*
X029150Y018571D01*
X029150Y018669D02*
X023900Y018669D01*
X023900Y018768D02*
X029150Y018768D01*
X029150Y018866D02*
X023900Y018866D01*
X023900Y018965D02*
X029150Y018965D01*
X029150Y019063D02*
X023900Y019063D01*
X023900Y019162D02*
X029150Y019162D01*
X029150Y019260D02*
X023900Y019260D01*
X023900Y019359D02*
X029150Y019359D01*
X029150Y019457D02*
X023900Y019457D01*
X023900Y019556D02*
X029150Y019556D01*
X029150Y019654D02*
X023900Y019654D01*
X023900Y019753D02*
X029150Y019753D01*
X029150Y019851D02*
X023900Y019851D01*
X023900Y019950D02*
X029150Y019950D01*
X029150Y020048D02*
X023900Y020048D01*
X023900Y020147D02*
X029150Y020147D01*
X029150Y020245D02*
X023900Y020245D01*
X023900Y020344D02*
X029150Y020344D01*
X029150Y020442D02*
X023900Y020442D01*
X023900Y020541D02*
X029150Y020541D01*
X029150Y020639D02*
X023900Y020639D01*
X023900Y020738D02*
X029150Y020738D01*
X029150Y020836D02*
X023900Y020836D01*
X023900Y020935D02*
X029150Y020935D01*
X029150Y021033D02*
X023900Y021033D01*
X023900Y021132D02*
X029150Y021132D01*
X029150Y021230D02*
X023900Y021230D01*
X023900Y021329D02*
X029150Y021329D01*
X029150Y021427D02*
X023900Y021427D01*
X023900Y021526D02*
X029150Y021526D01*
X029150Y021624D02*
X023900Y021624D01*
X023900Y021723D02*
X029150Y021723D01*
X029150Y021821D02*
X023900Y021821D01*
X023900Y021920D02*
X029150Y021920D01*
X029150Y022018D02*
X023900Y022018D01*
X023900Y022117D02*
X029150Y022117D01*
X029150Y022215D02*
X023900Y022215D01*
X023900Y022314D02*
X029150Y022314D01*
X029150Y022412D02*
X023900Y022412D01*
X023900Y022511D02*
X029150Y022511D01*
X029150Y022609D02*
X023900Y022609D01*
X023900Y022708D02*
X029150Y022708D01*
X029150Y022806D02*
X023900Y022806D01*
X023900Y022905D02*
X029150Y022905D01*
X029150Y023003D02*
X023900Y023003D01*
X023900Y023102D02*
X029150Y023102D01*
X029150Y023200D02*
X023900Y023200D01*
X023900Y023299D02*
X029150Y023299D01*
X029150Y023397D02*
X023900Y023397D01*
X023900Y023496D02*
X029150Y023496D01*
X029150Y023594D02*
X023900Y023594D01*
X023900Y023693D02*
X029150Y023693D01*
X029150Y023791D02*
X023900Y023791D01*
X023900Y023890D02*
X029150Y023890D01*
X029150Y023988D02*
X023900Y023988D01*
X023900Y024087D02*
X029150Y024087D01*
X029150Y024185D02*
X023900Y024185D01*
X023900Y024284D02*
X029150Y024284D01*
X029150Y024382D02*
X023900Y024382D01*
X023900Y024481D02*
X029150Y024481D01*
X029150Y024579D02*
X023900Y024579D01*
X023900Y024678D02*
X029150Y024678D01*
X029150Y024776D02*
X023900Y024776D01*
X023900Y024875D02*
X029150Y024875D01*
X029150Y024973D02*
X023900Y024973D01*
X023900Y025072D02*
X029150Y025072D01*
X029150Y025170D02*
X023900Y025170D01*
X023900Y025269D02*
X029150Y025269D01*
X029150Y025367D02*
X023900Y025367D01*
X023900Y025466D02*
X029150Y025466D01*
X029150Y025564D02*
X023900Y025564D01*
X023900Y025663D02*
X029150Y025663D01*
X029150Y025761D02*
X023900Y025761D01*
X023900Y025860D02*
X029150Y025860D01*
X029150Y025958D02*
X023900Y025958D01*
X023900Y026057D02*
X029150Y026057D01*
X029150Y026155D02*
X023900Y026155D01*
X023900Y026254D02*
X029150Y026254D01*
X029150Y026352D02*
X023900Y026352D01*
X023900Y026451D02*
X029150Y026451D01*
X029150Y026549D02*
X023900Y026549D01*
X023900Y026648D02*
X029150Y026648D01*
X029150Y026746D02*
X023900Y026746D01*
X023900Y026845D02*
X029150Y026845D01*
X029150Y026943D02*
X027400Y026943D01*
X027400Y027042D02*
X029150Y027042D01*
X029150Y027140D02*
X027400Y027140D01*
X027400Y027239D02*
X029150Y027239D01*
X029150Y027337D02*
X027400Y027337D01*
X027400Y027436D02*
X029150Y027436D01*
X029150Y027534D02*
X027400Y027534D01*
X027400Y027633D02*
X029150Y027633D01*
X029150Y027731D02*
X027400Y027731D01*
X027400Y027830D02*
X029150Y027830D01*
X029150Y027928D02*
X027400Y027928D01*
X027400Y028027D02*
X029150Y028027D01*
X029150Y028125D02*
X027400Y028125D01*
X027400Y028224D02*
X029150Y028224D01*
X029150Y028322D02*
X027400Y028322D01*
X027400Y028421D02*
X029150Y028421D01*
X029150Y028519D02*
X027400Y028519D01*
X027400Y028618D02*
X029150Y028618D01*
X029150Y028716D02*
X027400Y028716D01*
X027400Y028815D02*
X029150Y028815D01*
X029150Y028913D02*
X027400Y028913D01*
X027400Y029012D02*
X029150Y029012D01*
X029150Y029110D02*
X027400Y029110D01*
X027400Y029209D02*
X029150Y029209D01*
X029150Y029307D02*
X027400Y029307D01*
X027400Y029406D02*
X029150Y029406D01*
X029150Y029504D02*
X027400Y029504D01*
X027400Y029603D02*
X029150Y029603D01*
X029150Y029701D02*
X027400Y029701D01*
X027400Y029800D02*
X029150Y029800D01*
X029150Y029898D02*
X027400Y029898D01*
X027400Y029997D02*
X029150Y029997D01*
X029150Y030095D02*
X027400Y030095D01*
X027400Y030194D02*
X029150Y030194D01*
X029150Y030292D02*
X027400Y030292D01*
X027400Y030391D02*
X029150Y030391D01*
X029150Y030489D02*
X027400Y030489D01*
X027400Y030588D02*
X029150Y030588D01*
X029150Y030686D02*
X027400Y030686D01*
X027400Y030785D02*
X029150Y030785D01*
X029150Y030883D02*
X027400Y030883D01*
X026400Y030883D02*
X012400Y030883D01*
X012400Y030785D02*
X026400Y030785D01*
X026400Y030686D02*
X012400Y030686D01*
X012400Y030588D02*
X026400Y030588D01*
X026400Y030489D02*
X012400Y030489D01*
X012400Y030391D02*
X014900Y030391D01*
X014900Y030394D02*
X014900Y020894D01*
X013400Y020894D01*
X013400Y018394D01*
X012400Y018394D01*
X012400Y033394D01*
X012594Y033394D01*
X012605Y033385D01*
X012978Y033264D01*
X024109Y033264D01*
X024109Y032319D01*
X024150Y032167D01*
X024150Y031144D01*
X024400Y030894D01*
X026400Y030894D01*
X026400Y027894D01*
X019400Y027894D01*
X019400Y030394D01*
X014900Y030394D01*
X014900Y030292D02*
X012400Y030292D01*
X012400Y030194D02*
X014900Y030194D01*
X014900Y030095D02*
X012400Y030095D01*
X012400Y029997D02*
X014900Y029997D01*
X014900Y029898D02*
X012400Y029898D01*
X012400Y029800D02*
X014900Y029800D01*
X014900Y029701D02*
X012400Y029701D01*
X012400Y029603D02*
X014900Y029603D01*
X014900Y029504D02*
X012400Y029504D01*
X012400Y029406D02*
X013424Y029406D01*
X013434Y029416D02*
X013357Y029339D01*
X013270Y029252D01*
X013270Y028897D01*
X013284Y028883D01*
X013270Y028868D01*
X013270Y028744D01*
X013357Y028656D01*
X013385Y028656D01*
X013374Y028649D01*
X013357Y028649D01*
X013324Y028615D01*
X013285Y028589D01*
X013281Y028573D01*
X013270Y028561D01*
X013270Y028514D01*
X013260Y028467D01*
X013270Y028453D01*
X013270Y028437D01*
X013303Y028403D01*
X013319Y028380D01*
X013270Y028331D01*
X013270Y028053D01*
X013271Y028052D01*
X013357Y027965D01*
X013357Y027965D01*
X013434Y027889D01*
X013865Y027889D01*
X013942Y027965D01*
X014030Y028053D01*
X014030Y028331D01*
X013977Y028384D01*
X014030Y028437D01*
X014030Y028561D01*
X013942Y028649D01*
X013915Y028649D01*
X013925Y028656D01*
X013942Y028656D01*
X013976Y028689D01*
X014015Y028715D01*
X014018Y028732D01*
X014030Y028744D01*
X014030Y028791D01*
X014039Y028837D01*
X014030Y028851D01*
X014030Y028868D01*
X014015Y028883D01*
X014030Y028897D01*
X014030Y029252D01*
X013953Y029328D01*
X013953Y029328D01*
X013865Y029416D01*
X013434Y029416D01*
X013325Y029307D02*
X012400Y029307D01*
X012400Y029209D02*
X013270Y029209D01*
X013270Y029110D02*
X012400Y029110D01*
X012400Y029012D02*
X013270Y029012D01*
X013270Y028913D02*
X012400Y028913D01*
X012400Y028815D02*
X013270Y028815D01*
X013297Y028716D02*
X012400Y028716D01*
X012400Y028618D02*
X013326Y028618D01*
X013270Y028519D02*
X012400Y028519D01*
X012400Y028421D02*
X013286Y028421D01*
X013270Y028322D02*
X012400Y028322D01*
X012400Y028224D02*
X013270Y028224D01*
X013270Y028125D02*
X012400Y028125D01*
X012400Y028027D02*
X013296Y028027D01*
X013395Y027928D02*
X012400Y027928D01*
X012400Y027830D02*
X014900Y027830D01*
X014900Y027928D02*
X013905Y027928D01*
X014003Y028027D02*
X014900Y028027D01*
X014900Y028125D02*
X014030Y028125D01*
X014030Y028224D02*
X014900Y028224D01*
X014900Y028322D02*
X014030Y028322D01*
X014014Y028421D02*
X014900Y028421D01*
X014900Y028519D02*
X014030Y028519D01*
X013973Y028618D02*
X014900Y028618D01*
X014900Y028716D02*
X014015Y028716D01*
X014035Y028815D02*
X014900Y028815D01*
X014900Y028913D02*
X014030Y028913D01*
X014030Y029012D02*
X014900Y029012D01*
X014900Y029110D02*
X014030Y029110D01*
X014030Y029209D02*
X014900Y029209D01*
X014900Y029307D02*
X013975Y029307D01*
X013876Y029406D02*
X014900Y029406D01*
X014900Y027731D02*
X012400Y027731D01*
X012400Y027633D02*
X014900Y027633D01*
X014900Y027534D02*
X012400Y027534D01*
X012400Y027436D02*
X014900Y027436D01*
X014900Y027337D02*
X012400Y027337D01*
X012400Y027239D02*
X014900Y027239D01*
X014900Y027140D02*
X012400Y027140D01*
X012400Y027042D02*
X014900Y027042D01*
X014900Y026943D02*
X012400Y026943D01*
X012400Y026845D02*
X014900Y026845D01*
X014900Y026746D02*
X012400Y026746D01*
X012400Y026648D02*
X014900Y026648D01*
X014900Y026549D02*
X012400Y026549D01*
X012400Y026451D02*
X014900Y026451D01*
X014900Y026352D02*
X012400Y026352D01*
X012400Y026254D02*
X014900Y026254D01*
X014900Y026155D02*
X012400Y026155D01*
X012400Y026057D02*
X014900Y026057D01*
X014900Y025958D02*
X012400Y025958D01*
X012400Y025860D02*
X014900Y025860D01*
X014900Y025761D02*
X012400Y025761D01*
X012400Y025663D02*
X014900Y025663D01*
X014900Y025564D02*
X012400Y025564D01*
X012400Y025466D02*
X014900Y025466D01*
X014900Y025367D02*
X012400Y025367D01*
X012400Y025269D02*
X014900Y025269D01*
X014900Y025170D02*
X012400Y025170D01*
X012400Y025072D02*
X014900Y025072D01*
X014900Y024973D02*
X012400Y024973D01*
X012400Y024875D02*
X014900Y024875D01*
X014900Y024776D02*
X012400Y024776D01*
X012400Y024678D02*
X014900Y024678D01*
X014900Y024579D02*
X012400Y024579D01*
X012400Y024481D02*
X014900Y024481D01*
X014900Y024382D02*
X012400Y024382D01*
X012400Y024284D02*
X014900Y024284D01*
X014900Y024185D02*
X012400Y024185D01*
X012400Y024087D02*
X014900Y024087D01*
X014900Y023988D02*
X012400Y023988D01*
X012400Y023890D02*
X014900Y023890D01*
X014900Y023791D02*
X012400Y023791D01*
X012400Y023693D02*
X014900Y023693D01*
X014900Y023594D02*
X012400Y023594D01*
X012400Y023496D02*
X014900Y023496D01*
X014900Y023397D02*
X012400Y023397D01*
X012400Y023299D02*
X014900Y023299D01*
X014900Y023200D02*
X012400Y023200D01*
X012400Y023102D02*
X014900Y023102D01*
X014900Y023003D02*
X012400Y023003D01*
X012400Y022905D02*
X014900Y022905D01*
X014900Y022806D02*
X012400Y022806D01*
X012400Y022708D02*
X014900Y022708D01*
X014900Y022609D02*
X012400Y022609D01*
X012400Y022511D02*
X014900Y022511D01*
X014900Y022412D02*
X012400Y022412D01*
X012400Y022314D02*
X014900Y022314D01*
X014900Y022215D02*
X012400Y022215D01*
X012400Y022117D02*
X014900Y022117D01*
X014900Y022018D02*
X012400Y022018D01*
X012400Y021920D02*
X014900Y021920D01*
X014900Y021821D02*
X012400Y021821D01*
X012400Y021723D02*
X014900Y021723D01*
X014900Y021624D02*
X012400Y021624D01*
X012400Y021526D02*
X014900Y021526D01*
X014900Y021427D02*
X012400Y021427D01*
X012400Y021329D02*
X014900Y021329D01*
X014900Y021230D02*
X012400Y021230D01*
X012400Y021132D02*
X014900Y021132D01*
X014900Y021033D02*
X012400Y021033D01*
X012400Y020935D02*
X014900Y020935D01*
X015900Y020935D02*
X018400Y020935D01*
X018400Y021033D02*
X015900Y021033D01*
X015900Y021132D02*
X018400Y021132D01*
X018400Y021230D02*
X015900Y021230D01*
X015900Y021329D02*
X018400Y021329D01*
X018400Y021427D02*
X015900Y021427D01*
X015900Y021526D02*
X018400Y021526D01*
X018400Y021624D02*
X015900Y021624D01*
X015900Y021723D02*
X018400Y021723D01*
X018400Y021821D02*
X015900Y021821D01*
X015900Y021920D02*
X018400Y021920D01*
X018400Y022018D02*
X015900Y022018D01*
X015900Y022117D02*
X018400Y022117D01*
X018400Y022215D02*
X015900Y022215D01*
X015900Y022314D02*
X018400Y022314D01*
X018400Y022412D02*
X015900Y022412D01*
X015900Y022511D02*
X018400Y022511D01*
X018400Y022609D02*
X015900Y022609D01*
X015900Y022708D02*
X018400Y022708D01*
X018400Y022806D02*
X015900Y022806D01*
X015900Y022905D02*
X018400Y022905D01*
X018400Y023003D02*
X015900Y023003D01*
X015900Y023102D02*
X018400Y023102D01*
X018400Y023200D02*
X015900Y023200D01*
X015900Y023299D02*
X018400Y023299D01*
X018400Y023397D02*
X015900Y023397D01*
X015900Y023496D02*
X018400Y023496D01*
X018400Y023594D02*
X015900Y023594D01*
X015900Y023693D02*
X018400Y023693D01*
X018400Y023791D02*
X015900Y023791D01*
X015900Y023890D02*
X018400Y023890D01*
X018400Y023988D02*
X015900Y023988D01*
X015900Y024087D02*
X018400Y024087D01*
X018400Y024185D02*
X015900Y024185D01*
X015900Y024284D02*
X018400Y024284D01*
X018400Y024382D02*
X015900Y024382D01*
X015900Y024481D02*
X018400Y024481D01*
X018400Y024579D02*
X015900Y024579D01*
X015900Y024678D02*
X018400Y024678D01*
X018400Y024776D02*
X015900Y024776D01*
X015900Y024875D02*
X018400Y024875D01*
X018400Y024973D02*
X015900Y024973D01*
X015900Y025072D02*
X018400Y025072D01*
X018400Y025170D02*
X015900Y025170D01*
X015900Y025269D02*
X018400Y025269D01*
X018400Y025367D02*
X015900Y025367D01*
X015900Y025466D02*
X018400Y025466D01*
X018400Y025564D02*
X015900Y025564D01*
X015900Y025663D02*
X018400Y025663D01*
X018400Y025761D02*
X015900Y025761D01*
X015900Y025860D02*
X018400Y025860D01*
X018400Y025958D02*
X015900Y025958D01*
X015900Y026057D02*
X018400Y026057D01*
X018400Y026155D02*
X015900Y026155D01*
X015900Y026254D02*
X018400Y026254D01*
X018400Y026352D02*
X015900Y026352D01*
X015900Y026451D02*
X018400Y026451D01*
X018400Y026549D02*
X015900Y026549D01*
X015900Y026648D02*
X018400Y026648D01*
X018400Y026746D02*
X015900Y026746D01*
X015900Y026845D02*
X018400Y026845D01*
X018400Y026943D02*
X015900Y026943D01*
X015900Y027042D02*
X018400Y027042D01*
X018400Y027140D02*
X015900Y027140D01*
X015900Y027144D02*
X018400Y027144D01*
X018400Y018394D01*
X016650Y018394D01*
X016650Y017769D01*
X015900Y017769D01*
X015900Y027144D01*
X019400Y027928D02*
X026400Y027928D01*
X026400Y028027D02*
X019400Y028027D01*
X019400Y028125D02*
X026400Y028125D01*
X026400Y028224D02*
X019400Y028224D01*
X019400Y028322D02*
X026400Y028322D01*
X026400Y028421D02*
X019400Y028421D01*
X019400Y028519D02*
X026400Y028519D01*
X026400Y028618D02*
X019400Y028618D01*
X019400Y028716D02*
X026400Y028716D01*
X026400Y028815D02*
X019400Y028815D01*
X019400Y028913D02*
X026400Y028913D01*
X026400Y029012D02*
X019400Y029012D01*
X019400Y029110D02*
X026400Y029110D01*
X026400Y029209D02*
X019400Y029209D01*
X019400Y029307D02*
X026400Y029307D01*
X026400Y029406D02*
X019400Y029406D01*
X019400Y029504D02*
X026400Y029504D01*
X026400Y029603D02*
X019400Y029603D01*
X019400Y029701D02*
X026400Y029701D01*
X026400Y029800D02*
X019400Y029800D01*
X019400Y029898D02*
X026400Y029898D01*
X026400Y029997D02*
X019400Y029997D01*
X019400Y030095D02*
X026400Y030095D01*
X026400Y030194D02*
X019400Y030194D01*
X019400Y030292D02*
X026400Y030292D01*
X026400Y030391D02*
X019400Y030391D01*
X020150Y027144D02*
X022650Y027144D01*
X022650Y025894D01*
X020150Y025894D01*
X020150Y027144D01*
X020150Y027140D02*
X022650Y027140D01*
X022650Y027042D02*
X020150Y027042D01*
X020150Y026943D02*
X022650Y026943D01*
X022650Y026845D02*
X020150Y026845D01*
X020150Y026746D02*
X022650Y026746D01*
X022650Y026648D02*
X020150Y026648D01*
X020150Y026549D02*
X022650Y026549D01*
X022650Y026451D02*
X020150Y026451D01*
X020150Y026352D02*
X022650Y026352D01*
X022650Y026254D02*
X020150Y026254D01*
X020150Y026155D02*
X022650Y026155D01*
X022650Y026057D02*
X020150Y026057D01*
X020150Y025958D02*
X022650Y025958D01*
X022650Y025144D02*
X022650Y018394D01*
X020150Y018394D01*
X020150Y025144D01*
X022650Y025144D01*
X022650Y025072D02*
X020150Y025072D01*
X020150Y024973D02*
X022650Y024973D01*
X022650Y024875D02*
X020150Y024875D01*
X020150Y024776D02*
X022650Y024776D01*
X022650Y024678D02*
X020150Y024678D01*
X020150Y024579D02*
X022650Y024579D01*
X022650Y024481D02*
X020150Y024481D01*
X020150Y024382D02*
X022650Y024382D01*
X022650Y024284D02*
X020150Y024284D01*
X020150Y024185D02*
X022650Y024185D01*
X022650Y024087D02*
X020150Y024087D01*
X020150Y023988D02*
X022650Y023988D01*
X022650Y023890D02*
X020150Y023890D01*
X020150Y023791D02*
X022650Y023791D01*
X022650Y023693D02*
X020150Y023693D01*
X020150Y023594D02*
X022650Y023594D01*
X022650Y023496D02*
X020150Y023496D01*
X020150Y023397D02*
X022650Y023397D01*
X022650Y023299D02*
X020150Y023299D01*
X020150Y023200D02*
X022650Y023200D01*
X022650Y023102D02*
X020150Y023102D01*
X020150Y023003D02*
X022650Y023003D01*
X022650Y022905D02*
X020150Y022905D01*
X020150Y022806D02*
X022650Y022806D01*
X022650Y022708D02*
X020150Y022708D01*
X020150Y022609D02*
X022650Y022609D01*
X022650Y022511D02*
X020150Y022511D01*
X020150Y022412D02*
X022650Y022412D01*
X022650Y022314D02*
X020150Y022314D01*
X020150Y022215D02*
X022650Y022215D01*
X022650Y022117D02*
X020150Y022117D01*
X020150Y022018D02*
X022650Y022018D01*
X022650Y021920D02*
X020150Y021920D01*
X020150Y021821D02*
X022650Y021821D01*
X022650Y021723D02*
X020150Y021723D01*
X020150Y021624D02*
X022650Y021624D01*
X022650Y021526D02*
X020150Y021526D01*
X020150Y021427D02*
X022650Y021427D01*
X022650Y021329D02*
X020150Y021329D01*
X020150Y021230D02*
X022650Y021230D01*
X022650Y021132D02*
X020150Y021132D01*
X020150Y021033D02*
X022650Y021033D01*
X022650Y020935D02*
X020150Y020935D01*
X020150Y020836D02*
X022650Y020836D01*
X022650Y020738D02*
X020150Y020738D01*
X020150Y020639D02*
X022650Y020639D01*
X022650Y020541D02*
X020150Y020541D01*
X020150Y020442D02*
X022650Y020442D01*
X022650Y020344D02*
X020150Y020344D01*
X020150Y020245D02*
X022650Y020245D01*
X022650Y020147D02*
X020150Y020147D01*
X020150Y020048D02*
X022650Y020048D01*
X022650Y019950D02*
X020150Y019950D01*
X020150Y019851D02*
X022650Y019851D01*
X022650Y019753D02*
X020150Y019753D01*
X020150Y019654D02*
X022650Y019654D01*
X022650Y019556D02*
X020150Y019556D01*
X020150Y019457D02*
X022650Y019457D01*
X022650Y019359D02*
X020150Y019359D01*
X020150Y019260D02*
X022650Y019260D01*
X022650Y019162D02*
X020150Y019162D01*
X020150Y019063D02*
X022650Y019063D01*
X022650Y018965D02*
X020150Y018965D01*
X020150Y018866D02*
X022650Y018866D01*
X022650Y018768D02*
X020150Y018768D01*
X020150Y018669D02*
X022650Y018669D01*
X022650Y018571D02*
X020150Y018571D01*
X020150Y018472D02*
X022650Y018472D01*
X019650Y016144D02*
X019025Y016144D01*
X018400Y015519D01*
X018400Y014769D01*
X019650Y014769D01*
X019650Y016144D01*
X019650Y016108D02*
X018990Y016108D01*
X018891Y016010D02*
X019650Y016010D01*
X019650Y015911D02*
X018793Y015911D01*
X018694Y015813D02*
X019650Y015813D01*
X019650Y015714D02*
X018596Y015714D01*
X018497Y015616D02*
X019650Y015616D01*
X019650Y015517D02*
X018400Y015517D01*
X018400Y015419D02*
X019650Y015419D01*
X019650Y015320D02*
X018400Y015320D01*
X018400Y015222D02*
X019650Y015222D01*
X019650Y015123D02*
X018400Y015123D01*
X018400Y015025D02*
X019650Y015025D01*
X019650Y014926D02*
X018400Y014926D01*
X018400Y014828D02*
X019650Y014828D01*
X019900Y013394D02*
X018400Y013394D01*
X018150Y013144D01*
X017150Y013144D01*
X017150Y013644D01*
X015900Y013644D01*
X015900Y012144D01*
X019025Y012144D01*
X019150Y012269D01*
X019900Y012269D01*
X020025Y012394D01*
X020025Y013019D01*
X019900Y013144D01*
X019900Y013394D01*
X019900Y013350D02*
X018357Y013350D01*
X018258Y013252D02*
X019900Y013252D01*
X019900Y013153D02*
X018160Y013153D01*
X017150Y013153D02*
X015900Y013153D01*
X015900Y013055D02*
X019989Y013055D01*
X020025Y012956D02*
X015900Y012956D01*
X015900Y012858D02*
X020025Y012858D01*
X020025Y012759D02*
X015900Y012759D01*
X015900Y012661D02*
X020025Y012661D01*
X020025Y012562D02*
X015900Y012562D01*
X015900Y012464D02*
X020025Y012464D01*
X019997Y012365D02*
X015900Y012365D01*
X015900Y012267D02*
X019148Y012267D01*
X019050Y012168D02*
X015900Y012168D01*
X015900Y013252D02*
X017150Y013252D01*
X017150Y013350D02*
X015900Y013350D01*
X015900Y013449D02*
X017150Y013449D01*
X017150Y013547D02*
X015900Y013547D01*
X013289Y013553D02*
X012559Y013553D01*
X012400Y013394D01*
X012400Y008644D01*
X012400Y008269D01*
X012150Y008019D02*
X012150Y008644D01*
X012150Y013644D01*
X012315Y013808D01*
X013289Y013808D01*
X013289Y013297D02*
X012803Y013297D01*
X012650Y013144D01*
X012650Y008644D01*
X012650Y007894D01*
X012900Y007519D02*
X012900Y008644D01*
X012900Y013019D01*
X012922Y013041D01*
X013289Y013041D01*
X011900Y012019D02*
X011900Y008644D01*
X011900Y007769D01*
X011650Y007519D02*
X011650Y008019D01*
X011650Y008644D01*
X011650Y011769D01*
X011900Y012019D02*
X011645Y012273D01*
X011530Y012273D01*
X011005Y013041D02*
X010253Y013041D01*
X009650Y013644D01*
X007650Y013644D01*
X007650Y014519D01*
X008650Y014519D01*
X009033Y014183D01*
X009033Y014148D01*
X009121Y014060D01*
X009174Y014060D01*
X009650Y013644D01*
X007900Y013644D01*
X007900Y013189D01*
X007855Y013144D01*
X007855Y012144D01*
X007900Y012168D02*
X006775Y012168D01*
X006775Y012070D02*
X007900Y012070D01*
X007900Y011971D02*
X006775Y011971D01*
X006775Y011873D02*
X007900Y011873D01*
X007900Y011774D02*
X006775Y011774D01*
X006775Y011676D02*
X007900Y011676D01*
X007900Y011644D02*
X006775Y011644D01*
X006775Y014519D01*
X007900Y014519D01*
X007900Y011644D01*
X007900Y012267D02*
X006775Y012267D01*
X006775Y012365D02*
X007900Y012365D01*
X007900Y012464D02*
X006775Y012464D01*
X006775Y012562D02*
X007900Y012562D01*
X007900Y012661D02*
X006775Y012661D01*
X006775Y012759D02*
X007900Y012759D01*
X007900Y012858D02*
X006775Y012858D01*
X006775Y012956D02*
X007900Y012956D01*
X007900Y013055D02*
X006775Y013055D01*
X006775Y013153D02*
X007900Y013153D01*
X007900Y013252D02*
X006775Y013252D01*
X006775Y013350D02*
X007900Y013350D01*
X007900Y013449D02*
X006775Y013449D01*
X006775Y013547D02*
X007900Y013547D01*
X007900Y013646D02*
X006775Y013646D01*
X006775Y013744D02*
X007900Y013744D01*
X007900Y013843D02*
X006775Y013843D01*
X006775Y013941D02*
X007900Y013941D01*
X007900Y014040D02*
X006775Y014040D01*
X006775Y014138D02*
X007900Y014138D01*
X007900Y014237D02*
X006775Y014237D01*
X006775Y014335D02*
X007900Y014335D01*
X007900Y014434D02*
X006775Y014434D01*
X006025Y014434D02*
X005733Y014434D01*
X005733Y014412D02*
X005733Y014630D01*
X005723Y014668D01*
X005703Y014702D01*
X005675Y014730D01*
X005641Y014750D01*
X005603Y014760D01*
X005464Y014760D01*
X005464Y014412D01*
X005733Y014412D01*
X005733Y014375D02*
X005464Y014375D01*
X005464Y014412D01*
X005426Y014412D01*
X005426Y014760D01*
X005400Y014760D01*
X005400Y014894D01*
X006623Y016117D01*
X006623Y016027D01*
X007004Y016027D01*
X007004Y016008D01*
X007022Y016008D01*
X007022Y015653D01*
X007004Y015653D01*
X007004Y015912D01*
X007004Y016008D01*
X006623Y016008D01*
X006623Y015880D01*
X006633Y015842D01*
X006640Y015831D01*
X006633Y015820D01*
X006623Y015781D01*
X006623Y015653D01*
X007004Y015653D01*
X007004Y015634D01*
X006623Y015634D01*
X006623Y015506D01*
X006626Y015495D01*
X006025Y014894D01*
X006025Y012144D01*
X005729Y012144D01*
X005733Y012157D01*
X005733Y012375D01*
X005464Y012375D01*
X005464Y012412D01*
X005733Y012412D01*
X005733Y012630D01*
X005723Y012668D01*
X005703Y012702D01*
X005675Y012730D01*
X005641Y012750D01*
X005603Y012760D01*
X005464Y012760D01*
X005464Y012412D01*
X005426Y012412D01*
X005426Y012760D01*
X005400Y012760D01*
X005400Y014027D01*
X005426Y014027D01*
X005426Y014375D01*
X005464Y014375D01*
X005464Y014027D01*
X005603Y014027D01*
X005641Y014037D01*
X005675Y014057D01*
X005703Y014085D01*
X005723Y014119D01*
X005733Y014157D01*
X005733Y014375D01*
X005733Y014335D02*
X006025Y014335D01*
X006025Y014237D02*
X005733Y014237D01*
X005728Y014138D02*
X006025Y014138D01*
X006025Y014040D02*
X005645Y014040D01*
X005464Y014040D02*
X005426Y014040D01*
X005426Y014138D02*
X005464Y014138D01*
X005464Y014237D02*
X005426Y014237D01*
X005426Y014335D02*
X005464Y014335D01*
X005464Y014434D02*
X005426Y014434D01*
X005426Y014532D02*
X005464Y014532D01*
X005464Y014631D02*
X005426Y014631D01*
X005426Y014729D02*
X005464Y014729D01*
X005400Y014828D02*
X006025Y014828D01*
X006025Y014729D02*
X005676Y014729D01*
X005733Y014631D02*
X006025Y014631D01*
X006025Y014532D02*
X005733Y014532D01*
X005433Y014926D02*
X006058Y014926D01*
X006156Y015025D02*
X005531Y015025D01*
X005630Y015123D02*
X006255Y015123D01*
X006353Y015222D02*
X005728Y015222D01*
X005827Y015320D02*
X006452Y015320D01*
X006550Y015419D02*
X005925Y015419D01*
X006024Y015517D02*
X006623Y015517D01*
X006623Y015616D02*
X006122Y015616D01*
X006221Y015714D02*
X006623Y015714D01*
X006631Y015813D02*
X006319Y015813D01*
X006418Y015911D02*
X006623Y015911D01*
X006516Y016010D02*
X007004Y016010D01*
X007004Y015911D02*
X007022Y015911D01*
X007022Y015813D02*
X007004Y015813D01*
X007004Y015714D02*
X007022Y015714D01*
X006623Y016108D02*
X006615Y016108D01*
X008037Y015269D02*
X008571Y015269D01*
X008650Y015348D01*
X008747Y014434D02*
X007650Y014434D01*
X007650Y014335D02*
X008860Y014335D01*
X008972Y014237D02*
X007650Y014237D01*
X007650Y014138D02*
X009044Y014138D01*
X009197Y014040D02*
X007650Y014040D01*
X007650Y013941D02*
X009310Y013941D01*
X009423Y013843D02*
X007650Y013843D01*
X007650Y013744D02*
X009535Y013744D01*
X009648Y013646D02*
X007650Y013646D01*
X006025Y013646D02*
X005400Y013646D01*
X005400Y013744D02*
X006025Y013744D01*
X006025Y013843D02*
X005400Y013843D01*
X005400Y013941D02*
X006025Y013941D01*
X006025Y013547D02*
X005400Y013547D01*
X005400Y013449D02*
X006025Y013449D01*
X006025Y013350D02*
X005400Y013350D01*
X005400Y013252D02*
X006025Y013252D01*
X006025Y013153D02*
X005400Y013153D01*
X005400Y013055D02*
X006025Y013055D01*
X006025Y012956D02*
X005400Y012956D01*
X005400Y012858D02*
X006025Y012858D01*
X006025Y012759D02*
X005607Y012759D01*
X005464Y012759D02*
X005426Y012759D01*
X005426Y012661D02*
X005464Y012661D01*
X005464Y012562D02*
X005426Y012562D01*
X005426Y012464D02*
X005464Y012464D01*
X005733Y012464D02*
X006025Y012464D01*
X006025Y012562D02*
X005733Y012562D01*
X005725Y012661D02*
X006025Y012661D01*
X006025Y012365D02*
X005733Y012365D01*
X005733Y012267D02*
X006025Y012267D01*
X006025Y012168D02*
X005733Y012168D01*
X004775Y011769D02*
X004775Y011519D01*
X004400Y011519D01*
X004400Y010644D01*
X003150Y010644D01*
X003150Y013644D01*
X004400Y013644D01*
X004400Y012019D01*
X004650Y011769D01*
X004775Y011769D01*
X004775Y011676D02*
X003150Y011676D01*
X003150Y011774D02*
X004644Y011774D01*
X004546Y011873D02*
X003150Y011873D01*
X003150Y011971D02*
X004447Y011971D01*
X004400Y012070D02*
X003150Y012070D01*
X003150Y012168D02*
X004400Y012168D01*
X004400Y012267D02*
X003150Y012267D01*
X003150Y012365D02*
X004400Y012365D01*
X004400Y012464D02*
X003150Y012464D01*
X003150Y012562D02*
X004400Y012562D01*
X004400Y012661D02*
X003150Y012661D01*
X003150Y012759D02*
X004400Y012759D01*
X004400Y012858D02*
X003150Y012858D01*
X003150Y012956D02*
X004400Y012956D01*
X004400Y013055D02*
X003150Y013055D01*
X003150Y013153D02*
X004400Y013153D01*
X004400Y013252D02*
X003150Y013252D01*
X003150Y013350D02*
X004400Y013350D01*
X004400Y013449D02*
X003150Y013449D01*
X003150Y013547D02*
X004400Y013547D01*
X004775Y011577D02*
X003150Y011577D01*
X003150Y011479D02*
X004400Y011479D01*
X004400Y011380D02*
X003150Y011380D01*
X003150Y011282D02*
X004400Y011282D01*
X004400Y011183D02*
X003150Y011183D01*
X003150Y011085D02*
X004400Y011085D01*
X004400Y010986D02*
X003150Y010986D01*
X003150Y010888D02*
X004400Y010888D01*
X004400Y010789D02*
X003150Y010789D01*
X003150Y010691D02*
X004400Y010691D01*
X005426Y009875D02*
X005464Y009875D01*
X005464Y009912D01*
X005733Y009912D01*
X005733Y010130D01*
X005729Y010144D01*
X005900Y010144D01*
X005900Y010132D01*
X005876Y010126D01*
X005841Y010106D01*
X005813Y010078D01*
X005794Y010044D01*
X005783Y010006D01*
X005783Y009867D01*
X006131Y009867D01*
X006131Y009829D01*
X006169Y009829D01*
X006169Y009560D01*
X006386Y009560D01*
X006400Y009564D01*
X006400Y009144D01*
X005400Y009144D01*
X005400Y009527D01*
X005426Y009527D01*
X005426Y009875D01*
X005464Y009875D02*
X005464Y009527D01*
X005603Y009527D01*
X005641Y009537D01*
X005675Y009557D01*
X005703Y009585D01*
X005723Y009619D01*
X005733Y009657D01*
X005733Y009875D01*
X005464Y009875D01*
X005464Y009903D02*
X005783Y009903D01*
X005783Y009829D02*
X005783Y009691D01*
X005794Y009653D01*
X005813Y009618D01*
X005841Y009590D01*
X005876Y009571D01*
X005914Y009560D01*
X006131Y009560D01*
X006131Y009829D01*
X005783Y009829D01*
X005783Y009804D02*
X005733Y009804D01*
X005733Y009706D02*
X005783Y009706D01*
X005825Y009607D02*
X005716Y009607D01*
X005464Y009607D02*
X005426Y009607D01*
X005426Y009706D02*
X005464Y009706D01*
X005464Y009804D02*
X005426Y009804D01*
X005400Y009509D02*
X006400Y009509D01*
X006400Y009410D02*
X005400Y009410D01*
X005400Y009312D02*
X006400Y009312D01*
X006400Y009213D02*
X005400Y009213D01*
X006131Y009607D02*
X006169Y009607D01*
X006169Y009706D02*
X006131Y009706D01*
X006131Y009804D02*
X006169Y009804D01*
X005783Y010001D02*
X005733Y010001D01*
X005733Y010100D02*
X005835Y010100D01*
X009400Y014348D02*
X010452Y013297D01*
X011005Y013297D01*
X011005Y013553D02*
X010616Y013553D01*
X010400Y013894D01*
X010400Y014348D01*
X010150Y014894D02*
X011400Y014894D01*
X011400Y015644D01*
X010150Y015644D01*
X010150Y014894D01*
X010150Y014926D02*
X011400Y014926D01*
X011400Y015025D02*
X010150Y015025D01*
X010150Y015123D02*
X011400Y015123D01*
X011400Y015222D02*
X010150Y015222D01*
X010150Y015320D02*
X011400Y015320D01*
X011400Y015419D02*
X010150Y015419D01*
X010150Y015517D02*
X011400Y015517D01*
X011400Y015616D02*
X010150Y015616D01*
X011525Y014019D02*
X011315Y013808D01*
X011005Y013808D01*
X015650Y010519D02*
X015650Y009269D01*
X021150Y009269D01*
X021150Y010019D01*
X020650Y010519D01*
X018222Y010519D01*
X018170Y010467D01*
X017720Y010467D01*
X017669Y010519D01*
X017631Y010519D01*
X017580Y010467D01*
X017130Y010467D01*
X017078Y010519D01*
X015650Y010519D01*
X015650Y010494D02*
X017103Y010494D01*
X017606Y010494D02*
X017694Y010494D01*
X018197Y010494D02*
X020675Y010494D01*
X020773Y010395D02*
X015650Y010395D01*
X015650Y010297D02*
X020872Y010297D01*
X020970Y010198D02*
X015650Y010198D01*
X015650Y010100D02*
X021069Y010100D01*
X021150Y010001D02*
X015650Y010001D01*
X015650Y009903D02*
X021150Y009903D01*
X021150Y009804D02*
X015650Y009804D01*
X015650Y009706D02*
X021150Y009706D01*
X021150Y009607D02*
X015650Y009607D01*
X015650Y009509D02*
X021150Y009509D01*
X021150Y009410D02*
X015650Y009410D01*
X015650Y009312D02*
X021150Y009312D01*
X022650Y009312D02*
X023525Y009312D01*
X023525Y009269D02*
X022650Y009269D01*
X022650Y012769D01*
X023525Y012769D01*
X023525Y009269D01*
X023525Y009410D02*
X022650Y009410D01*
X022650Y009509D02*
X023525Y009509D01*
X023525Y009607D02*
X022650Y009607D01*
X022650Y009706D02*
X023525Y009706D01*
X023525Y009804D02*
X022650Y009804D01*
X022650Y009903D02*
X023525Y009903D01*
X023525Y010001D02*
X022650Y010001D01*
X022650Y010100D02*
X023525Y010100D01*
X023525Y010198D02*
X022650Y010198D01*
X022650Y010297D02*
X023525Y010297D01*
X023525Y010395D02*
X022650Y010395D01*
X022650Y010494D02*
X023525Y010494D01*
X023525Y010592D02*
X022650Y010592D01*
X022650Y010691D02*
X023525Y010691D01*
X023525Y010789D02*
X022650Y010789D01*
X022650Y010888D02*
X023525Y010888D01*
X023525Y010986D02*
X022650Y010986D01*
X022650Y011085D02*
X023525Y011085D01*
X023525Y011183D02*
X022650Y011183D01*
X022650Y011282D02*
X023525Y011282D01*
X023525Y011380D02*
X022650Y011380D01*
X022650Y011479D02*
X023525Y011479D01*
X023525Y011577D02*
X022650Y011577D01*
X022650Y011676D02*
X023525Y011676D01*
X023525Y011774D02*
X022650Y011774D01*
X022650Y011873D02*
X023525Y011873D01*
X023525Y011971D02*
X022650Y011971D01*
X022650Y012070D02*
X023525Y012070D01*
X023525Y012168D02*
X022650Y012168D01*
X022650Y012267D02*
X023525Y012267D01*
X023525Y012365D02*
X022650Y012365D01*
X022650Y012464D02*
X023525Y012464D01*
X023525Y012562D02*
X022650Y012562D01*
X022650Y012661D02*
X023525Y012661D01*
X023525Y012759D02*
X022650Y012759D01*
X022775Y014019D02*
X022525Y014269D01*
X021275Y014269D01*
X021275Y015144D01*
X023400Y015144D01*
X023400Y014019D01*
X022775Y014019D01*
X022754Y014040D02*
X023400Y014040D01*
X023400Y014138D02*
X022655Y014138D01*
X022557Y014237D02*
X023400Y014237D01*
X023400Y014335D02*
X021275Y014335D01*
X021275Y014434D02*
X023400Y014434D01*
X023400Y014532D02*
X021275Y014532D01*
X021275Y014631D02*
X023400Y014631D01*
X023400Y014729D02*
X021275Y014729D01*
X021275Y014828D02*
X023400Y014828D01*
X023400Y014926D02*
X021275Y014926D01*
X021275Y015025D02*
X023400Y015025D01*
X023400Y015123D02*
X021275Y015123D01*
X018400Y018472D02*
X015900Y018472D01*
X015900Y018374D02*
X016650Y018374D01*
X016650Y018275D02*
X015900Y018275D01*
X015900Y018177D02*
X016650Y018177D01*
X016650Y018078D02*
X015900Y018078D01*
X015900Y017980D02*
X016650Y017980D01*
X016650Y017881D02*
X015900Y017881D01*
X015900Y017783D02*
X016650Y017783D01*
X015900Y018571D02*
X018400Y018571D01*
X018400Y018669D02*
X015900Y018669D01*
X015900Y018768D02*
X018400Y018768D01*
X018400Y018866D02*
X015900Y018866D01*
X015900Y018965D02*
X018400Y018965D01*
X018400Y019063D02*
X015900Y019063D01*
X015900Y019162D02*
X018400Y019162D01*
X018400Y019260D02*
X015900Y019260D01*
X015900Y019359D02*
X018400Y019359D01*
X018400Y019457D02*
X015900Y019457D01*
X015900Y019556D02*
X018400Y019556D01*
X018400Y019654D02*
X015900Y019654D01*
X015900Y019753D02*
X018400Y019753D01*
X018400Y019851D02*
X015900Y019851D01*
X015900Y019950D02*
X018400Y019950D01*
X018400Y020048D02*
X015900Y020048D01*
X015900Y020147D02*
X018400Y020147D01*
X018400Y020245D02*
X015900Y020245D01*
X015900Y020344D02*
X018400Y020344D01*
X018400Y020442D02*
X015900Y020442D01*
X015900Y020541D02*
X018400Y020541D01*
X018400Y020639D02*
X015900Y020639D01*
X015900Y020738D02*
X018400Y020738D01*
X018400Y020836D02*
X015900Y020836D01*
X013400Y020836D02*
X012400Y020836D01*
X012400Y020738D02*
X013400Y020738D01*
X013400Y020639D02*
X012400Y020639D01*
X012400Y020541D02*
X013400Y020541D01*
X013400Y020442D02*
X012400Y020442D01*
X012400Y020344D02*
X013400Y020344D01*
X013400Y020245D02*
X012400Y020245D01*
X012400Y020147D02*
X013400Y020147D01*
X013400Y020048D02*
X012400Y020048D01*
X012400Y019950D02*
X013400Y019950D01*
X013400Y019851D02*
X012400Y019851D01*
X012400Y019753D02*
X013400Y019753D01*
X013400Y019654D02*
X012400Y019654D01*
X012400Y019556D02*
X013400Y019556D01*
X013400Y019457D02*
X012400Y019457D01*
X012400Y019359D02*
X013400Y019359D01*
X013400Y019260D02*
X012400Y019260D01*
X012400Y019162D02*
X013400Y019162D01*
X013400Y019063D02*
X012400Y019063D01*
X012400Y018965D02*
X013400Y018965D01*
X013400Y018866D02*
X012400Y018866D01*
X012400Y018768D02*
X013400Y018768D01*
X013400Y018669D02*
X012400Y018669D01*
X012400Y018571D02*
X013400Y018571D01*
X013400Y018472D02*
X012400Y018472D01*
X005275Y030144D02*
X002150Y030144D01*
X002150Y031644D01*
X005275Y031644D01*
X005275Y030144D01*
X005275Y030194D02*
X002150Y030194D01*
X002150Y030292D02*
X005275Y030292D01*
X005275Y030391D02*
X002150Y030391D01*
X002150Y030489D02*
X005275Y030489D01*
X005275Y030588D02*
X002150Y030588D01*
X002150Y030686D02*
X005275Y030686D01*
X005275Y030785D02*
X002150Y030785D01*
X002150Y030883D02*
X005275Y030883D01*
X005275Y030982D02*
X002150Y030982D01*
X002150Y031080D02*
X005275Y031080D01*
X005275Y031179D02*
X002150Y031179D01*
X002150Y031277D02*
X005275Y031277D01*
X005275Y031376D02*
X002150Y031376D01*
X002150Y031474D02*
X005275Y031474D01*
X005275Y031573D02*
X002150Y031573D01*
X002150Y032644D02*
X002150Y034839D01*
X010150Y034839D01*
X010150Y032644D01*
X009419Y032644D01*
X009529Y032754D01*
X009530Y032755D01*
X009530Y032879D01*
X009442Y032967D01*
X009435Y032974D01*
X009442Y032974D01*
X009530Y033062D01*
X009530Y033493D01*
X009515Y033508D01*
X009530Y033522D01*
X009530Y033953D01*
X009515Y033968D01*
X009530Y033983D01*
X009530Y034337D01*
X009453Y034414D01*
X009365Y034502D01*
X008934Y034502D01*
X008857Y034425D01*
X008770Y034337D01*
X008770Y033983D01*
X008784Y033968D01*
X008770Y033953D01*
X008770Y033522D01*
X008857Y033434D01*
X009230Y033434D01*
X009230Y033274D01*
X008857Y033274D01*
X008770Y033186D01*
X008770Y033062D01*
X008784Y033047D01*
X008770Y033033D01*
X008770Y032908D01*
X008857Y032820D01*
X009164Y032820D01*
X009168Y032817D01*
X009164Y032814D01*
X008857Y032814D01*
X008770Y032726D01*
X008770Y032644D01*
X008495Y032644D01*
X008530Y032678D01*
X008530Y032956D01*
X008453Y033033D01*
X008439Y033047D01*
X008442Y033051D01*
X008530Y033138D01*
X008530Y033416D01*
X008477Y033469D01*
X008530Y033522D01*
X008530Y033646D01*
X008442Y033734D01*
X008415Y033734D01*
X008425Y033741D01*
X008442Y033741D01*
X008476Y033775D01*
X008515Y033801D01*
X008518Y033817D01*
X008530Y033829D01*
X008530Y033876D01*
X008539Y033923D01*
X008530Y033937D01*
X008530Y033953D01*
X008497Y033987D01*
X008470Y034026D01*
X008454Y034029D01*
X008442Y034041D01*
X008395Y034041D01*
X008348Y034050D01*
X008335Y034041D01*
X007857Y034041D01*
X007770Y033953D01*
X007770Y033829D01*
X007857Y033741D01*
X007885Y033741D01*
X007874Y033734D01*
X007857Y033734D01*
X007824Y033701D01*
X007785Y033675D01*
X007781Y033658D01*
X007770Y033646D01*
X007770Y033599D01*
X007760Y033553D01*
X007770Y033539D01*
X007770Y033522D01*
X007784Y033508D01*
X007770Y033493D01*
X007770Y033369D01*
X007857Y033281D01*
X008230Y033281D01*
X008230Y033274D01*
X007857Y033274D01*
X007770Y033186D01*
X007770Y033062D01*
X007823Y033009D01*
X007770Y032956D01*
X007770Y032678D01*
X007771Y032677D01*
X007804Y032644D01*
X007495Y032644D01*
X007530Y032678D01*
X007530Y032956D01*
X007477Y033009D01*
X007530Y033062D01*
X007530Y033186D01*
X007442Y033274D01*
X007415Y033274D01*
X007425Y033281D01*
X007442Y033281D01*
X007476Y033314D01*
X007515Y033340D01*
X007518Y033357D01*
X007530Y033369D01*
X007530Y033416D01*
X007539Y033462D01*
X007530Y033476D01*
X007530Y033493D01*
X007515Y033508D01*
X007530Y033522D01*
X007530Y033877D01*
X007453Y033953D01*
X007453Y033953D01*
X007365Y034041D01*
X006934Y034041D01*
X006857Y033964D01*
X006770Y033877D01*
X006770Y033522D01*
X006784Y033508D01*
X006770Y033493D01*
X006770Y033369D01*
X006857Y033281D01*
X006885Y033281D01*
X006874Y033274D01*
X006857Y033274D01*
X006824Y033240D01*
X006785Y033214D01*
X006781Y033198D01*
X006770Y033186D01*
X006770Y033139D01*
X006760Y033092D01*
X006770Y033078D01*
X006770Y033062D01*
X006803Y033028D01*
X006819Y033005D01*
X006770Y032956D01*
X006770Y032678D01*
X006771Y032677D01*
X006804Y032644D01*
X002150Y032644D01*
X002150Y032656D02*
X006792Y032656D01*
X006770Y032755D02*
X002150Y032755D01*
X002150Y032853D02*
X006770Y032853D01*
X006770Y032952D02*
X002150Y032952D01*
X002150Y033050D02*
X006781Y033050D01*
X006770Y033149D02*
X002150Y033149D01*
X002150Y033247D02*
X006831Y033247D01*
X006793Y033346D02*
X002150Y033346D01*
X002150Y033444D02*
X006770Y033444D01*
X006770Y033543D02*
X002150Y033543D01*
X002150Y033641D02*
X006770Y033641D01*
X006770Y033740D02*
X002150Y033740D01*
X002150Y033838D02*
X006770Y033838D01*
X006830Y033937D02*
X002150Y033937D01*
X002150Y034035D02*
X006928Y034035D01*
X007372Y034035D02*
X007851Y034035D01*
X007770Y033937D02*
X007470Y033937D01*
X007530Y033838D02*
X007770Y033838D01*
X007882Y033740D02*
X007530Y033740D01*
X007530Y033641D02*
X007770Y033641D01*
X007767Y033543D02*
X007530Y033543D01*
X007536Y033444D02*
X007770Y033444D01*
X007793Y033346D02*
X007516Y033346D01*
X007469Y033247D02*
X007831Y033247D01*
X007770Y033149D02*
X007530Y033149D01*
X007518Y033050D02*
X007781Y033050D01*
X007770Y032952D02*
X007530Y032952D01*
X007530Y032853D02*
X007770Y032853D01*
X007770Y032755D02*
X007530Y032755D01*
X007508Y032656D02*
X007792Y032656D01*
X008508Y032656D02*
X008770Y032656D01*
X008799Y032755D02*
X008530Y032755D01*
X008530Y032853D02*
X008825Y032853D01*
X008770Y032952D02*
X008530Y032952D01*
X008453Y033033D02*
X008453Y033033D01*
X008442Y033050D02*
X008781Y033050D01*
X008770Y033149D02*
X008530Y033149D01*
X008530Y033247D02*
X008831Y033247D01*
X008848Y033444D02*
X008502Y033444D01*
X008530Y033346D02*
X009230Y033346D01*
X009530Y033346D02*
X010150Y033346D01*
X010150Y033444D02*
X009530Y033444D01*
X009530Y033543D02*
X010150Y033543D01*
X010150Y033641D02*
X009530Y033641D01*
X009530Y033740D02*
X010150Y033740D01*
X010150Y033838D02*
X009530Y033838D01*
X009530Y033937D02*
X010150Y033937D01*
X010150Y034035D02*
X009530Y034035D01*
X009530Y034134D02*
X010150Y034134D01*
X010150Y034232D02*
X009530Y034232D01*
X009530Y034331D02*
X010150Y034331D01*
X010150Y034429D02*
X009438Y034429D01*
X009453Y034414D02*
X009453Y034414D01*
X008862Y034429D02*
X002150Y034429D01*
X002150Y034331D02*
X008770Y034331D01*
X008770Y034232D02*
X002150Y034232D01*
X002150Y034134D02*
X008770Y034134D01*
X008770Y034035D02*
X008448Y034035D01*
X008530Y033937D02*
X008770Y033937D01*
X008770Y033838D02*
X008530Y033838D01*
X008423Y033740D02*
X008770Y033740D01*
X008770Y033641D02*
X008530Y033641D01*
X008530Y033543D02*
X008770Y033543D01*
X009530Y033247D02*
X010150Y033247D01*
X010150Y033149D02*
X009530Y033149D01*
X009518Y033050D02*
X010150Y033050D01*
X010150Y032952D02*
X009458Y032952D01*
X009442Y032967D02*
X009442Y032967D01*
X009530Y032853D02*
X010150Y032853D01*
X010150Y032755D02*
X009530Y032755D01*
X009431Y032656D02*
X010150Y032656D01*
X010150Y034528D02*
X002150Y034528D01*
X002150Y034626D02*
X010150Y034626D01*
X010150Y034725D02*
X002150Y034725D01*
X002150Y034823D02*
X010150Y034823D01*
X012400Y033346D02*
X012728Y033346D01*
X012605Y033385D02*
X012605Y033385D01*
X012400Y033247D02*
X024109Y033247D01*
X024109Y033149D02*
X012400Y033149D01*
X012400Y033050D02*
X024109Y033050D01*
X024109Y032952D02*
X012400Y032952D01*
X012400Y032853D02*
X024109Y032853D01*
X024109Y032755D02*
X012400Y032755D01*
X012400Y032656D02*
X024109Y032656D01*
X024109Y032558D02*
X012400Y032558D01*
X012400Y032459D02*
X024109Y032459D01*
X024109Y032361D02*
X012400Y032361D01*
X012400Y032262D02*
X024125Y032262D01*
X024150Y032164D02*
X012400Y032164D01*
X012400Y032065D02*
X024150Y032065D01*
X024150Y031967D02*
X012400Y031967D01*
X012400Y031868D02*
X024150Y031868D01*
X024150Y031770D02*
X012400Y031770D01*
X012400Y031671D02*
X024150Y031671D01*
X024150Y031573D02*
X012400Y031573D01*
X012400Y031474D02*
X024150Y031474D01*
X024150Y031376D02*
X012400Y031376D01*
X012400Y031277D02*
X024150Y031277D01*
X024150Y031179D02*
X012400Y031179D01*
X012400Y031080D02*
X024213Y031080D01*
X024312Y030982D02*
X012400Y030982D01*
X001775Y034269D02*
X001588Y033894D01*
X001150Y033894D01*
X001338Y034269D01*
X001150Y033894D02*
X000713Y033894D01*
X000900Y034269D01*
X001150Y033831D02*
X001150Y033081D01*
X011150Y006144D02*
X011150Y003300D01*
X010775Y002769D02*
X010650Y002644D01*
X010650Y001300D01*
X010650Y001269D01*
X010650Y001300D01*
X011150Y001300D02*
X011150Y002394D01*
X011275Y002519D01*
X013150Y002519D01*
X013650Y003019D01*
X013650Y005644D01*
X014150Y005644D02*
X014150Y003144D01*
X013275Y002269D01*
X011775Y002269D01*
X011650Y002144D01*
X011650Y001300D01*
X012150Y001300D02*
X012150Y001769D01*
X012400Y002019D01*
X013400Y002019D01*
X014650Y003269D01*
X014650Y005644D01*
X013150Y005644D02*
X013150Y003644D01*
X013150Y002894D01*
X013025Y002769D01*
X010775Y002769D01*
X012150Y003300D02*
X012150Y005644D01*
X012650Y005644D02*
X012650Y005144D01*
X012650Y004939D01*
X012650Y004348D02*
X012650Y003300D01*
X031525Y027394D02*
X031525Y028894D01*
X036400Y028894D01*
X036400Y027394D01*
X031525Y027394D01*
X031525Y027436D02*
X036400Y027436D01*
X036400Y027534D02*
X031525Y027534D01*
X031525Y027633D02*
X036400Y027633D01*
X036400Y027731D02*
X031525Y027731D01*
X031525Y027830D02*
X036400Y027830D01*
X036400Y027928D02*
X031525Y027928D01*
X031525Y028027D02*
X036400Y028027D01*
X036400Y028125D02*
X031525Y028125D01*
X031525Y028224D02*
X036400Y028224D01*
X036400Y028322D02*
X031525Y028322D01*
X031525Y028421D02*
X036400Y028421D01*
X036400Y028519D02*
X031525Y028519D01*
X031525Y028618D02*
X036400Y028618D01*
X036400Y028716D02*
X031525Y028716D01*
X031525Y028815D02*
X036400Y028815D01*
X034400Y029394D02*
X034400Y030894D01*
X032900Y030894D01*
X032900Y029394D01*
X034400Y029394D01*
X034400Y029406D02*
X032900Y029406D01*
X032900Y029504D02*
X034400Y029504D01*
X034400Y029603D02*
X032900Y029603D01*
X032900Y029701D02*
X034400Y029701D01*
X034400Y029800D02*
X032900Y029800D01*
X032900Y029898D02*
X034400Y029898D01*
X034400Y029997D02*
X032900Y029997D01*
X032900Y030095D02*
X034400Y030095D01*
X034400Y030194D02*
X032900Y030194D01*
X032900Y030292D02*
X034400Y030292D01*
X034400Y030391D02*
X032900Y030391D01*
X032900Y030489D02*
X034400Y030489D01*
X034400Y030588D02*
X032900Y030588D01*
X032900Y030686D02*
X034400Y030686D01*
X034400Y030785D02*
X032900Y030785D01*
X032900Y030883D02*
X034400Y030883D01*
X032650Y031394D02*
X032650Y031894D01*
X036400Y031894D01*
X036400Y031394D01*
X032650Y031394D01*
X032650Y031474D02*
X036400Y031474D01*
X036400Y031573D02*
X032650Y031573D01*
X032650Y031671D02*
X036400Y031671D01*
X036400Y031770D02*
X032650Y031770D01*
X032650Y031868D02*
X036400Y031868D01*
D177*
X028650Y027144D03*
X028650Y026144D03*
X028650Y024144D03*
X028650Y023144D03*
X028650Y022144D03*
X028650Y021144D03*
X028650Y020144D03*
X028650Y019144D03*
X027650Y019144D03*
X026650Y019144D03*
X025650Y019144D03*
X024650Y019144D03*
X014650Y027644D03*
X014650Y028644D03*
X014650Y029644D03*
X014650Y030644D03*
X015650Y030644D03*
X016650Y030644D03*
X017650Y030644D03*
X018650Y030644D03*
X019650Y030644D03*
X019650Y029644D03*
X019650Y028644D03*
X020650Y028644D03*
X021650Y028644D03*
X022650Y028644D03*
X023650Y028644D03*
X024650Y028644D03*
X024650Y029644D03*
X024650Y030644D03*
X023650Y030644D03*
X023650Y031644D03*
X023650Y032644D03*
X022650Y032644D03*
X021650Y032644D03*
X020650Y032644D03*
X019650Y032644D03*
X018650Y032644D03*
X017650Y032644D03*
X016650Y032644D03*
X015650Y032644D03*
X014650Y032644D03*
X013650Y032644D03*
X012650Y032644D03*
X012650Y031644D03*
X012650Y030644D03*
X012650Y029644D03*
X012650Y028644D03*
X012650Y027644D03*
D178*
X009150Y029644D02*
X009150Y020144D01*
X007400Y018394D01*
X007400Y016644D01*
X007150Y016644D01*
X007400Y016644D02*
X007525Y016519D01*
X007525Y016019D01*
X007526Y016018D01*
X008037Y016018D01*
X008571Y016018D01*
X008650Y015939D01*
X009400Y014939D02*
X009730Y014939D01*
X009900Y014769D01*
X009900Y014519D01*
X010025Y014394D01*
X010400Y014394D01*
X010400Y014348D01*
X009400Y014939D02*
X009355Y014894D01*
X007650Y014894D01*
X007525Y015019D01*
X007525Y016019D01*
X007900Y017394D02*
X011650Y017394D01*
X012400Y016644D01*
X017150Y016644D01*
X017650Y017144D01*
X017775Y016519D02*
X018400Y017144D01*
X019400Y017144D01*
X019525Y017019D01*
X019524Y017018D01*
X019524Y016632D01*
X020650Y015144D02*
X020650Y014519D01*
X020525Y014394D01*
X020400Y014269D01*
X020400Y014189D01*
X019820Y014189D01*
X019650Y014019D01*
X019650Y013894D01*
X019583Y013894D01*
X020400Y013598D02*
X020445Y013553D01*
X020445Y012644D01*
X020650Y012439D01*
X020650Y011144D01*
X020900Y010894D01*
X021674Y010894D01*
X021674Y011394D02*
X022275Y011394D01*
X022400Y011519D01*
X022400Y013408D01*
X022275Y013533D01*
X022385Y013644D01*
X023138Y013644D01*
X023138Y013269D02*
X023276Y013269D01*
X023650Y013644D01*
X025013Y013644D01*
X025025Y013632D01*
X024162Y013269D02*
X024162Y012531D01*
X024024Y012394D01*
X024162Y014018D02*
X024162Y014155D01*
X024650Y014644D01*
X025013Y014644D01*
X025025Y014655D01*
X023400Y015894D02*
X023150Y015644D01*
X021150Y015644D01*
X020650Y015144D01*
X018717Y014268D02*
X018399Y014268D01*
X018150Y014019D01*
X017730Y014019D01*
X017650Y014098D01*
X017650Y013689D01*
X017650Y013098D02*
X018105Y013098D01*
X018400Y013394D01*
X018526Y013519D01*
X018717Y013519D01*
X018650Y011598D02*
X018855Y011394D01*
X019626Y011394D01*
X019626Y010894D02*
X018695Y010894D01*
X018650Y010939D01*
X017991Y010939D01*
X017945Y010894D01*
X017355Y010894D02*
X017309Y010939D01*
X016650Y010939D01*
X016650Y011144D01*
X016544Y011249D01*
X016400Y011394D01*
X015525Y011394D01*
X014525Y011394D02*
X014381Y011249D01*
X013289Y011249D01*
X014275Y009223D02*
X014275Y008644D01*
X014775Y008144D01*
X018150Y008144D01*
X018650Y007644D01*
X018775Y008519D02*
X019650Y007644D01*
X018775Y008519D02*
X015150Y008519D01*
X014900Y008769D01*
X014900Y009223D01*
X009275Y007019D02*
X025525Y007019D01*
X026150Y007019D01*
X028525Y007019D01*
X028025Y006644D02*
X026150Y006644D01*
X025650Y006644D01*
X009150Y006644D01*
X008355Y007439D01*
X008355Y010144D01*
X006150Y010439D02*
X005977Y010612D01*
X005534Y010612D01*
X003855Y009894D02*
X003400Y009894D01*
X002650Y010644D01*
X002650Y014644D01*
X008150Y020144D01*
X008150Y029644D01*
X012900Y018894D02*
X012900Y018019D01*
X013150Y017769D01*
X013480Y017769D01*
X014070Y017769D02*
X014400Y017769D01*
X014070Y017769D01*
X014605Y017769D01*
X015195Y017769D02*
X016150Y017769D01*
X016400Y018019D01*
X016400Y018644D01*
X023400Y018269D02*
X023400Y015894D01*
X025650Y017144D02*
X026150Y017144D01*
X028945Y016644D02*
X028945Y016144D01*
X028900Y016098D01*
X028900Y015167D01*
X029400Y015167D02*
X029400Y015394D01*
X029650Y015644D01*
X029900Y015394D02*
X030150Y015644D01*
X029900Y015394D02*
X029900Y015167D01*
X031150Y014644D02*
X032150Y015644D01*
X032150Y017644D01*
X032650Y018144D01*
X033611Y018144D01*
X033650Y018144D01*
X033611Y018144D01*
X034115Y018647D01*
X033650Y016144D02*
X034650Y016144D01*
X035150Y015644D01*
X035650Y015644D01*
X035650Y014644D02*
X035150Y014644D01*
X034650Y015144D01*
X033650Y015144D01*
X033154Y014647D01*
X033115Y014647D01*
X033111Y014644D01*
X033150Y014644D01*
X033111Y014644D01*
X032650Y014644D01*
X032150Y014144D01*
X032150Y010144D01*
X030900Y008894D01*
X030900Y008769D01*
X030400Y008894D02*
X031650Y010144D01*
X031650Y014644D01*
X032650Y015644D01*
X033111Y015644D01*
X033115Y015647D01*
X033119Y015644D01*
X033150Y015644D01*
X033650Y016144D01*
X031150Y014644D02*
X031150Y013644D01*
X030626Y013120D01*
X029900Y013120D01*
X029400Y013120D02*
X029400Y013144D01*
X029400Y013120D01*
X029400Y013144D02*
X029400Y012644D01*
X028900Y012644D01*
X028900Y013120D01*
X028400Y013120D02*
X028400Y013019D01*
X028150Y012769D01*
X027900Y012769D01*
X027775Y012894D01*
X027775Y013223D01*
X029400Y013144D02*
X029445Y012598D01*
X030400Y008894D02*
X030400Y007394D01*
X029400Y016644D02*
X029025Y016644D01*
X028945Y016644D01*
X023400Y018269D02*
X023400Y025644D01*
X023002Y026041D01*
X022260Y026041D01*
X006150Y017394D02*
X003855Y015098D01*
X003855Y014394D01*
X008650Y007644D02*
X009150Y007144D01*
X009275Y007019D01*
D179*
X005900Y009394D03*
X003650Y011144D03*
X003650Y011644D03*
X003650Y012144D03*
X005650Y013144D03*
X005650Y013644D03*
X007150Y013644D03*
X007150Y013144D03*
X007150Y012644D03*
X007150Y012144D03*
X007650Y013894D03*
X008150Y013894D03*
X008650Y013894D03*
X010400Y015394D03*
X011150Y015394D03*
X018275Y012769D03*
X018775Y012769D03*
X019275Y012769D03*
X019150Y015144D03*
X018650Y015144D03*
X023025Y014769D03*
X023150Y011644D03*
X023150Y011144D03*
X023150Y010644D03*
X019650Y009644D03*
X019150Y009644D03*
X018650Y009644D03*
X027650Y009644D03*
X027650Y010144D03*
X027650Y010644D03*
X027650Y011144D03*
X027650Y011644D03*
X027650Y012144D03*
X027650Y015644D03*
X027650Y016144D03*
X004650Y030644D03*
X004150Y030644D03*
X003650Y030644D03*
X003150Y030644D03*
X002650Y030644D03*
D180*
X007150Y016644D02*
X007400Y016644D01*
X009150Y016644D01*
X011650Y016644D01*
X012150Y016144D01*
X017400Y016144D01*
X017775Y016519D01*
X018776Y016632D02*
X017650Y015506D01*
X017650Y014689D01*
X019150Y015644D02*
X019150Y016632D01*
X019524Y016632D02*
X020037Y016632D01*
X020150Y016519D01*
X020275Y016394D01*
X020275Y015973D01*
X020195Y015894D01*
X028070Y008144D02*
X028150Y008144D01*
X028638Y008144D01*
X030150Y015644D02*
X030150Y016144D01*
X010900Y008814D02*
X010480Y008814D01*
X010275Y009019D01*
X009775Y009019D01*
X010730Y008223D02*
X010525Y008019D01*
X009775Y008019D01*
X010730Y008223D02*
X010900Y008223D01*
X007355Y010144D02*
X007150Y010144D01*
X007025Y010019D01*
X007025Y006769D01*
X007355Y010144D02*
X007355Y010644D01*
X007150Y010439D01*
X006150Y010439D01*
D181*
X005150Y008644D02*
X003150Y008644D01*
X001650Y010144D01*
X001650Y014644D01*
X003150Y016144D01*
X005650Y016144D02*
X006150Y016644D01*
X007150Y016644D01*
X005150Y008644D02*
X007650Y006144D01*
X007025Y006769D01*
X007650Y006144D02*
X011150Y006144D01*
X028650Y006144D01*
X029662Y007155D01*
X029662Y008144D01*
X033115Y009647D02*
X034115Y009647D01*
X030150Y015644D02*
X029650Y015644D01*
X029400Y015644D01*
X033115Y026647D02*
X034115Y026647D01*
X033115Y027647D02*
X031654Y027647D01*
X031650Y027644D01*
D182*
X031650Y019144D01*
X030150Y017644D01*
X030150Y016144D01*
X030150Y015894D01*
D183*
X029445Y012598D02*
X029445Y012348D01*
X029445Y012144D01*
X029445Y012348D02*
X029650Y012144D01*
X029650Y011144D01*
X029662Y011144D02*
X029662Y010077D01*
X029150Y010077D01*
X029524Y009210D02*
X029662Y009210D01*
X029662Y008144D01*
X025400Y012394D02*
X026150Y013144D01*
X026150Y017144D01*
X026150Y018644D01*
X025150Y019144D02*
X024900Y018894D01*
X020650Y019144D02*
X019524Y018018D01*
X019524Y017655D01*
X018776Y017655D02*
X018776Y018018D01*
X017650Y019144D01*
X024024Y012394D02*
X025400Y012394D01*
X003275Y032143D02*
X003275Y033644D01*
X004150Y033769D02*
X004150Y032352D01*
D184*
X006150Y017394D03*
X007900Y017394D03*
X017650Y017144D03*
X025650Y017144D03*
X029400Y016644D03*
X030900Y008769D03*
X030400Y007394D03*
X028525Y007019D03*
X028025Y006644D03*
X019650Y007644D03*
X018650Y007644D03*
D185*
X014900Y009814D02*
X014900Y010269D01*
X014431Y010738D01*
X013289Y010738D01*
X013289Y010482D02*
X014062Y010482D01*
X014275Y010269D01*
X014275Y009894D01*
X014275Y009814D01*
X014275Y009769D01*
X014275Y009814D01*
X011650Y012394D02*
X011530Y012273D01*
X011005Y012273D01*
X011005Y012017D02*
X010149Y012017D01*
X010025Y011894D01*
X010393Y011761D02*
X010025Y011394D01*
X006150Y011394D01*
X005900Y011644D01*
X005900Y011769D01*
X005775Y011894D01*
X005525Y011894D01*
X005534Y011885D01*
X005534Y011675D01*
X005525Y011894D02*
X005275Y011894D01*
X005275Y011678D01*
X005278Y011675D01*
X005022Y011675D02*
X005022Y012021D01*
X004900Y012144D01*
X004900Y012348D01*
X004855Y012394D01*
X004855Y013053D01*
X004900Y013098D01*
X004900Y013689D02*
X004900Y014348D01*
X004855Y014394D01*
X004445Y014394D01*
X005150Y011144D02*
X005275Y011144D01*
X005278Y011141D01*
X005278Y010612D01*
X005022Y010612D02*
X005022Y010891D01*
X005025Y010894D01*
X005025Y011019D01*
X005150Y011144D01*
X005275Y011144D02*
X005650Y011144D01*
X006150Y011144D01*
X010275Y011144D01*
X010637Y011505D01*
X011005Y011505D01*
X011005Y011761D02*
X010393Y011761D01*
X010500Y010993D02*
X010150Y010644D01*
X008945Y010644D01*
X008650Y010644D02*
X008650Y007644D01*
X010900Y008814D02*
X010900Y009348D01*
X010900Y009939D02*
X011005Y010044D01*
X011005Y010482D01*
X011005Y010738D02*
X010744Y010738D01*
X010650Y010644D01*
X010150Y010144D01*
X008945Y010144D01*
X008650Y010644D02*
X008355Y010644D01*
X007945Y010644D01*
X007945Y010144D02*
X008355Y010144D01*
X008445Y012144D02*
X008453Y012151D01*
X009150Y012151D01*
X009158Y012144D01*
X009650Y012144D01*
X010035Y012529D01*
X011005Y012529D01*
X011005Y012785D02*
X010009Y012785D01*
X009650Y013144D01*
X009158Y013144D01*
X009150Y013136D01*
X008453Y013136D01*
X008445Y013144D01*
X008571Y015269D02*
X009276Y015269D01*
X009900Y015894D01*
X011525Y015894D01*
X011900Y015519D01*
X011900Y012644D01*
X011650Y012394D01*
X011005Y010993D02*
X010500Y010993D01*
X011005Y013808D02*
X011005Y014249D01*
X011150Y014394D01*
X011150Y014348D01*
X011150Y014394D01*
X011150Y014348D01*
X004855Y009894D02*
X004766Y009982D01*
X004766Y010612D01*
X004855Y009894D02*
X004445Y009894D01*
X020650Y015144D02*
X020730Y015064D01*
X020730Y014894D01*
D186*
X005650Y016144D03*
X003150Y016144D03*
D187*
X010025Y011894D03*
X011650Y011769D03*
X011525Y014019D03*
X012400Y008269D03*
X012150Y008019D03*
X011900Y007769D03*
X011650Y007519D03*
X012650Y007894D03*
X012900Y007519D03*
X012650Y005644D03*
X012150Y005644D03*
X013150Y005644D03*
X013650Y005644D03*
X014150Y005644D03*
X014650Y005644D03*
M02*
