%
M48
M72
T01C0.0118
T02C0.0157
T03C0.0197
T04C0.0236
T05C0.0315
T06C0.0354
T07C0.0360
T08C0.0400
T09C0.0520
T10C0.1102
T11C0.1181
T12C0.1260
%
T01
X8150Y8150
X10755Y6183
X11150Y6525
X11775Y4650
X12150Y4650
X12525Y4650
X12525Y4150
X12150Y4150
X11775Y4150
X11775Y3650
X12150Y3650
X12525Y3650
X13525Y3650
X13775Y4275
X15900Y5900
X15900Y6900
X16275Y8025
X17275Y8025
X13963Y10400
X13650Y10400
X13338Y10400
X13338Y10838
X13650Y10838
X13963Y10838
X13963Y11275
X13650Y11275
X13338Y11275
X13400Y7150
X16275Y3900
X19650Y4650
X26650Y4275
X27525Y3900
X26650Y5275
X27525Y6275
X31336Y8650
X31650Y8150
X31025Y9525
X30650Y9650
X31650Y18150
X32150Y18150
X18025Y20713
X18025Y21213
X18025Y21713
X17525Y21713
X17525Y21213
X17525Y20713
X16400Y22900
X14900Y22400
X8025Y12650
X7650Y12650
X7275Y12650
X7275Y12150
X7650Y12150
X8025Y12150
X8025Y11650
X7650Y11650
X7275Y11650
X6088Y11463
X10818Y3579
X11150Y3150
T02
X9150Y7650
X5088Y11213
X19650Y4150
X21650Y4150
X30150Y10650
X31150Y11650
X35150Y11150
X23400Y22025
X26650Y23150
X27525Y23775
T03
X24150Y20150
X23775Y19025
X20900Y18150
X20400Y18525
X20025Y18900
X16650Y19650
X16650Y20150
X14400Y20150
X14400Y20650
X8900Y21400
X6900Y21900
X18150Y7650
T04
X12650Y2400
X12150Y2400
X11650Y2400
X12150Y2900
X9650Y2400
X9150Y2400
X8400Y2400
X7900Y2400
X6400Y6400
X6400Y7900
X13650Y16650
X14150Y16650
X14650Y16650
X22650Y15650
X22650Y15150
X22650Y14650
X26900Y17150
X27650Y17150
X27650Y19150
X28150Y19150
X29150Y19150
X29650Y19150
X30150Y19150
X27150Y19150
X26150Y19150
X25650Y19150
X25150Y19150
X24400Y23650
X20150Y28150
X17650Y26150
X15150Y30650
X14650Y30650
X14650Y31150
X14650Y31650
X15150Y31650
X15150Y31150
X15150Y32150
X14650Y32150
X9650Y27650
X7150Y25650
X6650Y25650
X6150Y25650
X3650Y29650
X3150Y29650
X2650Y29650
X28150Y11650
X28150Y11150
X28150Y10650
X29150Y7150
X28150Y3650
X29150Y14150
X35650Y24150
T05
X21400Y17650
X16650Y18150
X14150Y19400
X25150Y3400
X18150Y2150
T06
X20650Y7650
X21650Y7650
X22650Y7650
X25158Y7650
X26142Y7650
X22392Y22150
X21408Y22150
X19150Y29158
X19150Y30142
X9150Y29150
X8150Y29150
X7150Y29150
T07
X19150Y26900
X19150Y25900
X25650Y12650
X25650Y11650
X2650Y17025
X2650Y18025
T08
X33115Y18154
X33115Y17154
X34115Y17154
X34115Y18154
X34115Y19154
X34115Y20154
X34115Y21154
X34115Y22154
X34115Y23154
X34115Y24154
X34115Y25154
X34115Y26154
X34115Y27154
X34115Y28154
X34115Y29154
X34115Y30154
X34115Y31154
X33115Y31154
X33115Y30154
X33115Y29154
X33115Y28154
X33115Y27154
X33115Y26154
X33115Y25154
X33115Y24154
X33115Y23154
X33115Y22154
X33115Y21154
X33115Y20154
X33115Y19154
X33115Y16154
X34115Y16154
X34115Y15154
X34115Y14154
X34115Y13154
X34115Y12154
X34115Y11154
X34115Y10154
X34115Y9154
X34115Y8154
X34115Y7154
X34115Y6154
X33115Y6154
X33115Y7154
X33115Y8154
X33115Y9154
X33115Y10154
X33115Y11154
X33115Y12154
X33115Y13154
X33115Y14154
X33115Y15154
T09
X2650Y20150
T10
X24433Y25563
X26804Y25563
X30855Y25563
T11
X29524Y27744
X25772Y27744
T12
X3693Y3693
X33615Y3693
X33615Y33615
X3693Y33615
M30
