G75*
G70*
%OFA0B0*%
%FSLAX24Y24*%
%IPPOS*%
%LPD*%
%AMOC8*
5,1,8,0,0,1.08239X$1,22.5*
%
%ADD10C,0.0100*%
%ADD11C,0.0680*%
%ADD12C,0.2442*%
%ADD13C,0.2245*%
%ADD14C,0.0740*%
%ADD15C,0.4411*%
%ADD16C,0.2380*%
%ADD17R,0.0671X0.0356*%
%ADD18C,0.0930*%
D10*
X128034Y002764D02*
X128231Y003157D01*
X128625Y003157D01*
X128428Y002764D01*
X128822Y002764D02*
X129019Y003157D01*
X128625Y003157D01*
X128625Y003945D01*
D11*
X138367Y006898D03*
X139367Y006898D03*
X139367Y007898D03*
X138367Y007898D03*
X138367Y008898D03*
X139367Y008898D03*
X139367Y009898D03*
X138367Y009898D03*
X138367Y010898D03*
X138367Y011898D03*
X139367Y011898D03*
X139367Y010898D03*
X139367Y012898D03*
X138367Y012898D03*
X138367Y013898D03*
X139367Y013898D03*
X139367Y014898D03*
X138367Y014898D03*
X138367Y015898D03*
X139367Y015898D03*
X139367Y016898D03*
X138367Y016898D03*
X138367Y017898D03*
X139367Y017898D03*
X139367Y018898D03*
X138367Y018898D03*
X138367Y019898D03*
X139367Y019898D03*
X139367Y020898D03*
X138367Y020898D03*
X138367Y021898D03*
X139367Y021898D03*
X139367Y022898D03*
X138367Y022898D03*
X138367Y023898D03*
X139367Y023898D03*
X139367Y024898D03*
X139367Y025898D03*
X138367Y025898D03*
X138367Y024898D03*
X138367Y026898D03*
X139367Y026898D03*
X139367Y027898D03*
X138367Y027898D03*
X138367Y028898D03*
X139367Y028898D03*
X139367Y029898D03*
X138367Y029898D03*
X138367Y030898D03*
X139367Y030898D03*
X139367Y031898D03*
X138367Y031898D03*
X101861Y031898D03*
X100861Y031898D03*
X100861Y030898D03*
X101861Y030898D03*
X101861Y029898D03*
X100861Y029898D03*
X100861Y028898D03*
X101861Y028898D03*
X101861Y027898D03*
X100861Y027898D03*
X100861Y026898D03*
X101861Y026898D03*
X101861Y025898D03*
X100861Y025898D03*
X100861Y024898D03*
X101861Y024898D03*
X101861Y023898D03*
X100861Y023898D03*
X100861Y022898D03*
X101861Y022898D03*
X101861Y021898D03*
X100861Y021898D03*
X100861Y020898D03*
X101861Y020898D03*
X101861Y019898D03*
X100861Y019898D03*
X100861Y018898D03*
X101861Y018898D03*
X101861Y017898D03*
X100861Y017898D03*
X100861Y016898D03*
X101861Y016898D03*
X101861Y015898D03*
X100861Y015898D03*
X100861Y014898D03*
X101861Y014898D03*
X101861Y013898D03*
X100861Y013898D03*
X100861Y012898D03*
X101861Y012898D03*
X101861Y011898D03*
X100861Y011898D03*
X100861Y010898D03*
X101861Y010898D03*
X101861Y009898D03*
X100861Y009898D03*
X100861Y008898D03*
X101861Y008898D03*
X101861Y007898D03*
X100861Y007898D03*
X100861Y006898D03*
X101861Y006898D03*
X056979Y006898D03*
X055979Y006898D03*
X055979Y007898D03*
X056979Y007898D03*
X056979Y008898D03*
X055979Y008898D03*
X055979Y009898D03*
X056979Y009898D03*
X056979Y010898D03*
X056979Y011898D03*
X055979Y011898D03*
X055979Y010898D03*
X055979Y012898D03*
X056979Y012898D03*
X056979Y013898D03*
X055979Y013898D03*
X055979Y014898D03*
X056979Y014898D03*
X056979Y015898D03*
X055979Y015898D03*
X055979Y016898D03*
X056979Y016898D03*
X056979Y017898D03*
X055979Y017898D03*
X055979Y018898D03*
X056979Y018898D03*
X056979Y019898D03*
X055979Y019898D03*
X055979Y020898D03*
X056979Y020898D03*
X056979Y021898D03*
X055979Y021898D03*
X055979Y022898D03*
X056979Y022898D03*
X056979Y023898D03*
X055979Y023898D03*
X055979Y024898D03*
X055979Y025898D03*
X056979Y025898D03*
X056979Y024898D03*
X056979Y026898D03*
X055979Y026898D03*
X055979Y027898D03*
X056979Y027898D03*
X056979Y028898D03*
X055979Y028898D03*
X055979Y029898D03*
X056979Y029898D03*
X056979Y030898D03*
X055979Y030898D03*
X055979Y031898D03*
X056979Y031898D03*
X012160Y031898D03*
X011160Y031898D03*
X011160Y030898D03*
X012160Y030898D03*
X012160Y029898D03*
X011160Y029898D03*
X011160Y028898D03*
X012160Y028898D03*
X012160Y027898D03*
X011160Y027898D03*
X011160Y026898D03*
X012160Y026898D03*
X012160Y025898D03*
X011160Y025898D03*
X011160Y024898D03*
X012160Y024898D03*
X012160Y023898D03*
X011160Y023898D03*
X011160Y022898D03*
X012160Y022898D03*
X012160Y021898D03*
X011160Y021898D03*
X011160Y020898D03*
X012160Y020898D03*
X012160Y019898D03*
X011160Y019898D03*
X011160Y018898D03*
X012160Y018898D03*
X012160Y017898D03*
X011160Y017898D03*
X011160Y016898D03*
X012160Y016898D03*
X012160Y015898D03*
X011160Y015898D03*
X011160Y014898D03*
X012160Y014898D03*
X012160Y013898D03*
X011160Y013898D03*
X011160Y012898D03*
X012160Y012898D03*
X012160Y011898D03*
X011160Y011898D03*
X011160Y010898D03*
X012160Y010898D03*
X012160Y009898D03*
X011160Y009898D03*
X011160Y008898D03*
X012160Y008898D03*
X012160Y007898D03*
X011160Y007898D03*
X011160Y006898D03*
X012160Y006898D03*
X004617Y006898D03*
X003617Y006898D03*
X003617Y007898D03*
X004617Y007898D03*
X004617Y008898D03*
X003617Y008898D03*
X003617Y009898D03*
X004617Y009898D03*
X004617Y010898D03*
X004617Y011898D03*
X003617Y011898D03*
X003617Y010898D03*
X003617Y012898D03*
X004617Y012898D03*
X004617Y013898D03*
X003617Y013898D03*
X003617Y014898D03*
X004617Y014898D03*
X004617Y015898D03*
X003617Y015898D03*
X003617Y016898D03*
X004617Y016898D03*
X004617Y017898D03*
X003617Y017898D03*
X003617Y018898D03*
X004617Y018898D03*
X004617Y019898D03*
X003617Y019898D03*
X003617Y020898D03*
X004617Y020898D03*
X004617Y021898D03*
X003617Y021898D03*
X003617Y022898D03*
X004617Y022898D03*
X004617Y023898D03*
X003617Y023898D03*
X003617Y024898D03*
X003617Y025898D03*
X004617Y025898D03*
X004617Y024898D03*
X004617Y026898D03*
X003617Y026898D03*
X003617Y027898D03*
X004617Y027898D03*
X004617Y028898D03*
X003617Y028898D03*
X003617Y029898D03*
X004617Y029898D03*
X004617Y030898D03*
X003617Y030898D03*
X003617Y031898D03*
X004617Y031898D03*
D12*
X011660Y034358D03*
X041582Y034358D03*
X056479Y034358D03*
X086400Y034358D03*
X101361Y034358D03*
X131282Y034358D03*
X131282Y004437D03*
X101361Y004437D03*
X086400Y004437D03*
X056479Y004437D03*
X041582Y004437D03*
X011660Y004437D03*
D13*
X009003Y006209D03*
X044239Y006209D03*
X053822Y006209D03*
X089058Y006209D03*
X098704Y006209D03*
X133940Y006209D03*
D14*
X071440Y040157D03*
X071440Y041157D03*
X026558Y041157D03*
X026558Y040157D03*
D15*
X108645Y045776D03*
X116322Y045776D03*
X123999Y045776D03*
D16*
X004117Y003650D03*
X004117Y043807D03*
X004117Y047744D03*
X049393Y045776D03*
X094668Y047744D03*
X094668Y043807D03*
X138763Y045776D03*
X138763Y003650D03*
D17*
X132168Y002941D03*
X132168Y002193D03*
X131282Y002193D03*
X131282Y002941D03*
D18*
X138763Y034358D03*
X093881Y034358D03*
X048999Y034358D03*
X004117Y034358D03*
M02*
