G75*
G70*
%OFA0B0*%
%FSLAX24Y24*%
%IPPOS*%
%LPD*%
%AMOC8*
5,1,8,0,0,1.08239X$1,22.5*
%
%ADD10C,0.0060*%
%ADD11C,0.0040*%
%ADD12C,0.0000*%
%ADD13C,0.0100*%
%ADD14C,0.0190*%
%ADD15C,0.0050*%
D10*
X003466Y035176D02*
X003680Y035176D01*
X003787Y035282D01*
X003787Y035496D01*
X003573Y035496D01*
X003360Y035709D02*
X003360Y035282D01*
X003466Y035176D01*
X004004Y035176D02*
X004004Y035816D01*
X004431Y035176D01*
X004431Y035816D01*
X004649Y035816D02*
X004969Y035816D01*
X005076Y035709D01*
X005076Y035282D01*
X004969Y035176D01*
X004649Y035176D01*
X004649Y035816D01*
X003787Y035709D02*
X003680Y035816D01*
X003466Y035816D01*
X003360Y035709D01*
X026058Y039757D02*
X026058Y040557D01*
X026158Y040657D01*
X026058Y040757D01*
X026058Y041557D01*
X026158Y041657D01*
X026958Y041657D01*
X027058Y041557D01*
X027058Y040757D01*
X026958Y040657D01*
X027058Y040557D01*
X027058Y039757D01*
X026958Y039657D01*
X026158Y039657D01*
X026058Y039757D01*
X048241Y035709D02*
X048241Y035282D01*
X048348Y035176D01*
X048562Y035176D01*
X048669Y035282D01*
X048669Y035496D01*
X048455Y035496D01*
X048241Y035709D02*
X048348Y035816D01*
X048562Y035816D01*
X048669Y035709D01*
X048886Y035816D02*
X048886Y035176D01*
X049313Y035176D02*
X049313Y035816D01*
X049531Y035816D02*
X049851Y035816D01*
X049958Y035709D01*
X049958Y035282D01*
X049851Y035176D01*
X049531Y035176D01*
X049531Y035816D01*
X048886Y035816D02*
X049313Y035176D01*
X070940Y039757D02*
X070940Y040557D01*
X071040Y040657D01*
X070940Y040757D01*
X070940Y041557D01*
X071040Y041657D01*
X071840Y041657D01*
X071940Y041557D01*
X071940Y040757D01*
X071840Y040657D01*
X071940Y040557D01*
X071940Y039757D01*
X071840Y039657D01*
X071040Y039657D01*
X070940Y039757D01*
X093123Y035709D02*
X093123Y035282D01*
X093230Y035176D01*
X093444Y035176D01*
X093550Y035282D01*
X093550Y035496D01*
X093337Y035496D01*
X093550Y035709D02*
X093444Y035816D01*
X093230Y035816D01*
X093123Y035709D01*
X093768Y035816D02*
X094195Y035176D01*
X094195Y035816D01*
X094412Y035816D02*
X094733Y035816D01*
X094840Y035709D01*
X094840Y035282D01*
X094733Y035176D01*
X094412Y035176D01*
X094412Y035816D01*
X093768Y035816D02*
X093768Y035176D01*
X138005Y035282D02*
X138112Y035176D01*
X138326Y035176D01*
X138432Y035282D01*
X138432Y035496D01*
X138219Y035496D01*
X138432Y035709D02*
X138326Y035816D01*
X138112Y035816D01*
X138005Y035709D01*
X138005Y035282D01*
X138650Y035176D02*
X138650Y035816D01*
X139077Y035176D01*
X139077Y035816D01*
X139294Y035816D02*
X139615Y035816D01*
X139721Y035709D01*
X139721Y035282D01*
X139615Y035176D01*
X139294Y035176D01*
X139294Y035816D01*
D11*
X140434Y032083D02*
X140357Y032006D01*
X140357Y031699D01*
X140434Y031622D01*
X140588Y031622D01*
X140664Y031699D01*
X140664Y031853D01*
X140511Y031853D01*
X140664Y032006D02*
X140588Y032083D01*
X140434Y032083D01*
X140818Y032083D02*
X141125Y031622D01*
X141125Y032083D01*
X141278Y032083D02*
X141508Y032083D01*
X141585Y032006D01*
X141585Y031699D01*
X141508Y031622D01*
X141278Y031622D01*
X141278Y032083D01*
X140818Y032083D02*
X140818Y031622D01*
X137388Y031022D02*
X137311Y031099D01*
X137158Y031099D01*
X137081Y031022D01*
X137081Y030715D01*
X137158Y030638D01*
X137311Y030638D01*
X137388Y030715D01*
X137388Y030868D01*
X137234Y030868D01*
X136927Y030868D02*
X136851Y030792D01*
X136621Y030792D01*
X136621Y030638D02*
X136621Y031099D01*
X136851Y031099D01*
X136927Y031022D01*
X136927Y030868D01*
X136467Y030561D02*
X136160Y030561D01*
X136007Y030715D02*
X135930Y030638D01*
X135776Y030638D01*
X135700Y030715D01*
X135700Y031022D01*
X135776Y031099D01*
X135930Y031099D01*
X136007Y031022D01*
X135546Y031022D02*
X135470Y031099D01*
X135316Y031099D01*
X135239Y031022D01*
X135239Y030945D01*
X135316Y030868D01*
X135470Y030868D01*
X135546Y030792D01*
X135546Y030715D01*
X135470Y030638D01*
X135316Y030638D01*
X135239Y030715D01*
X135186Y030114D02*
X135109Y030038D01*
X135109Y029731D01*
X135186Y029654D01*
X135339Y029654D01*
X135416Y029731D01*
X135570Y029577D02*
X135877Y029577D01*
X136030Y029654D02*
X136030Y030114D01*
X136260Y030114D01*
X136337Y030038D01*
X136337Y029884D01*
X136260Y029807D01*
X136030Y029807D01*
X136490Y029884D02*
X136644Y029884D01*
X136490Y030114D02*
X136797Y030114D01*
X136951Y030038D02*
X137028Y030114D01*
X137181Y030114D01*
X137258Y030038D01*
X137258Y029731D01*
X137181Y029654D01*
X137028Y029654D01*
X136951Y029731D01*
X136951Y030038D01*
X136490Y030114D02*
X136490Y029654D01*
X136524Y029130D02*
X136754Y029130D01*
X136831Y029053D01*
X136831Y028977D01*
X136754Y028900D01*
X136524Y028900D01*
X136370Y028746D02*
X136370Y029053D01*
X136294Y029130D01*
X136140Y029130D01*
X136063Y029053D01*
X136063Y028746D01*
X136140Y028670D01*
X136294Y028670D01*
X136370Y028746D01*
X136524Y028670D02*
X136754Y028670D01*
X136831Y028746D01*
X136831Y028823D01*
X136754Y028900D01*
X136984Y029053D02*
X136984Y028746D01*
X137061Y028670D01*
X137214Y028670D01*
X137291Y028746D01*
X137291Y029053D02*
X137214Y029130D01*
X137061Y029130D01*
X136984Y029053D01*
X136524Y029130D02*
X136524Y028670D01*
X136494Y028146D02*
X136494Y027685D01*
X136801Y027685D01*
X137107Y027685D02*
X137107Y028146D01*
X136954Y028146D02*
X137261Y028146D01*
X136340Y028146D02*
X136340Y027762D01*
X136263Y027685D01*
X136110Y027685D01*
X136033Y027762D01*
X136033Y028146D01*
X135880Y027992D02*
X135726Y028146D01*
X135573Y027992D01*
X135573Y027685D01*
X135573Y027916D02*
X135880Y027916D01*
X135880Y027992D02*
X135880Y027685D01*
X135967Y027161D02*
X135967Y026701D01*
X135813Y026778D02*
X135736Y026701D01*
X135583Y026701D01*
X135506Y026778D01*
X135506Y027085D01*
X135583Y027161D01*
X135736Y027161D01*
X135813Y027085D01*
X135967Y026931D02*
X136273Y026931D01*
X136427Y026855D02*
X136657Y026855D01*
X136734Y026931D01*
X136734Y027085D01*
X136657Y027161D01*
X136427Y027161D01*
X136427Y026701D01*
X136273Y026701D02*
X136273Y027161D01*
X136580Y026855D02*
X136734Y026701D01*
X136887Y026778D02*
X136964Y026701D01*
X137118Y026701D01*
X137194Y026778D01*
X137194Y026931D01*
X137041Y026931D01*
X136887Y027085D02*
X136887Y026778D01*
X136887Y027085D02*
X136964Y027161D01*
X137118Y027161D01*
X137194Y027085D01*
X135353Y026624D02*
X135046Y026624D01*
X134739Y026701D02*
X134739Y027161D01*
X134892Y027161D02*
X134585Y027161D01*
X134432Y027008D02*
X134432Y026701D01*
X134432Y026931D02*
X134125Y026931D01*
X134125Y027008D02*
X134125Y026701D01*
X133971Y026778D02*
X133895Y026701D01*
X133665Y026701D01*
X133665Y027161D01*
X133895Y027161D01*
X133971Y027085D01*
X133971Y027008D01*
X133895Y026931D01*
X133665Y026931D01*
X133895Y026931D02*
X133971Y026855D01*
X133971Y026778D01*
X134125Y027008D02*
X134278Y027161D01*
X134432Y027008D01*
X134652Y027609D02*
X134959Y027609D01*
X135112Y027685D02*
X135112Y028146D01*
X135419Y028146D01*
X135266Y027916D02*
X135112Y027916D01*
X134499Y028146D02*
X134192Y028146D01*
X134345Y028146D02*
X134345Y027685D01*
X134038Y027685D02*
X134038Y027992D01*
X133885Y028146D01*
X133731Y027992D01*
X133731Y027685D01*
X133578Y027762D02*
X133501Y027685D01*
X133271Y027685D01*
X133271Y028146D01*
X133501Y028146D01*
X133578Y028069D01*
X133578Y027992D01*
X133501Y027916D01*
X133271Y027916D01*
X133501Y027916D02*
X133578Y027839D01*
X133578Y027762D01*
X133731Y027916D02*
X134038Y027916D01*
X134529Y028670D02*
X134452Y028746D01*
X134529Y028670D02*
X134682Y028670D01*
X134759Y028746D01*
X134759Y028823D01*
X134682Y028900D01*
X134605Y028900D01*
X134682Y028900D02*
X134759Y028977D01*
X134759Y029053D01*
X134682Y029130D01*
X134529Y029130D01*
X134452Y029053D01*
X134912Y028746D02*
X134989Y028746D01*
X134989Y028670D01*
X134912Y028670D01*
X134912Y028746D01*
X135143Y028746D02*
X135219Y028670D01*
X135373Y028670D01*
X135449Y028746D01*
X135449Y028823D01*
X135373Y028900D01*
X135296Y028900D01*
X135373Y028900D02*
X135449Y028977D01*
X135449Y029053D01*
X135373Y029130D01*
X135219Y029130D01*
X135143Y029053D01*
X135603Y029130D02*
X135603Y028823D01*
X135756Y028670D01*
X135910Y028823D01*
X135910Y029130D01*
X135416Y030038D02*
X135339Y030114D01*
X135186Y030114D01*
X134956Y030038D02*
X134879Y030114D01*
X134726Y030114D01*
X134649Y030038D01*
X134649Y029961D01*
X134726Y029884D01*
X134879Y029884D01*
X134956Y029807D01*
X134956Y029731D01*
X134879Y029654D01*
X134726Y029654D01*
X134649Y029731D01*
X136104Y031622D02*
X136257Y031622D01*
X136334Y031699D01*
X136334Y031853D01*
X136180Y031853D01*
X136027Y032006D02*
X136027Y031699D01*
X136104Y031622D01*
X136487Y031622D02*
X136487Y032083D01*
X136794Y031622D01*
X136794Y032083D01*
X136948Y032083D02*
X137178Y032083D01*
X137254Y032006D01*
X137254Y031699D01*
X137178Y031622D01*
X136948Y031622D01*
X136948Y032083D01*
X136334Y032006D02*
X136257Y032083D01*
X136104Y032083D01*
X136027Y032006D01*
X140357Y028856D02*
X140434Y028933D01*
X140588Y028933D01*
X140664Y028856D01*
X140664Y028780D01*
X140588Y028703D01*
X140664Y028626D01*
X140664Y028549D01*
X140588Y028473D01*
X140434Y028473D01*
X140357Y028549D01*
X140511Y028703D02*
X140588Y028703D01*
X140818Y028549D02*
X140895Y028549D01*
X140895Y028473D01*
X140818Y028473D01*
X140818Y028549D01*
X141048Y028549D02*
X141125Y028473D01*
X141278Y028473D01*
X141355Y028549D01*
X141355Y028626D01*
X141278Y028703D01*
X141202Y028703D01*
X141278Y028703D02*
X141355Y028780D01*
X141355Y028856D01*
X141278Y028933D01*
X141125Y028933D01*
X141048Y028856D01*
X141508Y028933D02*
X141508Y028626D01*
X141662Y028473D01*
X141815Y028626D01*
X141815Y028933D01*
X141969Y028856D02*
X141969Y028549D01*
X142046Y028473D01*
X142199Y028473D01*
X142276Y028549D01*
X142276Y028856D01*
X142199Y028933D01*
X142046Y028933D01*
X141969Y028856D01*
X142429Y028933D02*
X142659Y028933D01*
X142736Y028856D01*
X142736Y028780D01*
X142659Y028703D01*
X142429Y028703D01*
X142429Y028473D02*
X142429Y028933D01*
X142659Y028703D02*
X142736Y028626D01*
X142736Y028549D01*
X142659Y028473D01*
X142429Y028473D01*
X142353Y028146D02*
X142506Y027992D01*
X142506Y027685D01*
X142506Y027916D02*
X142199Y027916D01*
X142199Y027992D02*
X142353Y028146D01*
X142199Y027992D02*
X142199Y027685D01*
X142046Y027762D02*
X142046Y028069D01*
X141969Y028146D01*
X141739Y028146D01*
X141739Y027685D01*
X141969Y027685D01*
X142046Y027762D01*
X141585Y027762D02*
X141508Y027685D01*
X141355Y027685D01*
X141278Y027762D01*
X141355Y027916D02*
X141508Y027916D01*
X141585Y027839D01*
X141585Y027762D01*
X141355Y027916D02*
X141278Y027992D01*
X141278Y028069D01*
X141355Y028146D01*
X141508Y028146D01*
X141585Y028069D01*
X141125Y027609D02*
X140818Y027609D01*
X140664Y027762D02*
X140588Y027685D01*
X140434Y027685D01*
X140357Y027762D01*
X140357Y028069D01*
X140434Y028146D01*
X140588Y028146D01*
X140664Y028069D01*
X140588Y027161D02*
X140434Y027161D01*
X140357Y027085D01*
X140357Y026778D01*
X140434Y026701D01*
X140588Y026701D01*
X140664Y026778D01*
X140818Y026624D02*
X141125Y026624D01*
X141278Y026778D02*
X141355Y026701D01*
X141508Y026701D01*
X141585Y026778D01*
X141585Y026855D01*
X141508Y026931D01*
X141355Y026931D01*
X141278Y027008D01*
X141278Y027085D01*
X141355Y027161D01*
X141508Y027161D01*
X141585Y027085D01*
X141739Y027085D02*
X141739Y026778D01*
X141815Y026701D01*
X141969Y026701D01*
X142046Y026778D01*
X142199Y026701D02*
X142506Y026701D01*
X142199Y026701D02*
X142199Y027161D01*
X142046Y027085D02*
X141969Y027161D01*
X141815Y027161D01*
X141739Y027085D01*
X140664Y027085D02*
X140588Y027161D01*
X140588Y026177D02*
X140664Y026101D01*
X140664Y026024D01*
X140588Y025947D01*
X140357Y025947D01*
X140357Y025717D02*
X140357Y026177D01*
X140588Y026177D01*
X140588Y025947D02*
X140664Y025870D01*
X140664Y025794D01*
X140588Y025717D01*
X140357Y025717D01*
X140818Y025640D02*
X141125Y025640D01*
X141278Y025794D02*
X141355Y025717D01*
X141508Y025717D01*
X141585Y025794D01*
X141585Y025870D01*
X141508Y025947D01*
X141355Y025947D01*
X141278Y026024D01*
X141278Y026101D01*
X141355Y026177D01*
X141508Y026177D01*
X141585Y026101D01*
X141739Y026177D02*
X141969Y026177D01*
X142046Y026101D01*
X142046Y025794D01*
X141969Y025717D01*
X141739Y025717D01*
X141739Y026177D01*
X142199Y026024D02*
X142353Y026177D01*
X142506Y026024D01*
X142506Y025717D01*
X142506Y025947D02*
X142199Y025947D01*
X142199Y026024D02*
X142199Y025717D01*
X142199Y024996D02*
X142199Y024536D01*
X142506Y024536D01*
X142046Y024612D02*
X141969Y024536D01*
X141815Y024536D01*
X141739Y024612D01*
X141739Y024919D01*
X141815Y024996D01*
X141969Y024996D01*
X142046Y024919D01*
X141585Y024919D02*
X141508Y024996D01*
X141355Y024996D01*
X141278Y024919D01*
X141278Y024843D01*
X141355Y024766D01*
X141508Y024766D01*
X141585Y024689D01*
X141585Y024612D01*
X141508Y024536D01*
X141355Y024536D01*
X141278Y024612D01*
X141125Y024459D02*
X140818Y024459D01*
X140664Y024612D02*
X140588Y024536D01*
X140357Y024536D01*
X140357Y024996D01*
X140588Y024996D01*
X140664Y024919D01*
X140664Y024843D01*
X140588Y024766D01*
X140357Y024766D01*
X140588Y024766D02*
X140664Y024689D01*
X140664Y024612D01*
X140357Y024012D02*
X140357Y023551D01*
X140664Y023551D01*
X140818Y023475D02*
X141125Y023475D01*
X141278Y023628D02*
X141355Y023551D01*
X141508Y023551D01*
X141585Y023628D01*
X141585Y023705D01*
X141508Y023782D01*
X141355Y023782D01*
X141278Y023858D01*
X141278Y023935D01*
X141355Y024012D01*
X141508Y024012D01*
X141585Y023935D01*
X141739Y024012D02*
X141969Y024012D01*
X142046Y023935D01*
X142046Y023628D01*
X141969Y023551D01*
X141739Y023551D01*
X141739Y024012D01*
X142199Y023858D02*
X142353Y024012D01*
X142506Y023858D01*
X142506Y023551D01*
X142506Y023782D02*
X142199Y023782D01*
X142199Y023858D02*
X142199Y023551D01*
X142199Y023028D02*
X142199Y022567D01*
X142506Y022567D01*
X142046Y022644D02*
X141969Y022567D01*
X141815Y022567D01*
X141739Y022644D01*
X141739Y022951D01*
X141815Y023028D01*
X141969Y023028D01*
X142046Y022951D01*
X141585Y022951D02*
X141508Y023028D01*
X141355Y023028D01*
X141278Y022951D01*
X141278Y022874D01*
X141355Y022797D01*
X141508Y022797D01*
X141585Y022721D01*
X141585Y022644D01*
X141508Y022567D01*
X141355Y022567D01*
X141278Y022644D01*
X141125Y022491D02*
X140818Y022491D01*
X140664Y022567D02*
X140357Y022567D01*
X140357Y023028D01*
X140357Y022043D02*
X140664Y022043D01*
X140511Y022043D02*
X140511Y021583D01*
X140818Y021506D02*
X141125Y021506D01*
X141278Y021660D02*
X141355Y021583D01*
X141508Y021583D01*
X141585Y021660D01*
X141585Y021736D01*
X141508Y021813D01*
X141355Y021813D01*
X141278Y021890D01*
X141278Y021967D01*
X141355Y022043D01*
X141508Y022043D01*
X141585Y021967D01*
X141739Y022043D02*
X141969Y022043D01*
X142046Y021967D01*
X142046Y021660D01*
X141969Y021583D01*
X141739Y021583D01*
X141739Y022043D01*
X142199Y021890D02*
X142353Y022043D01*
X142506Y021890D01*
X142506Y021583D01*
X142506Y021813D02*
X142199Y021813D01*
X142199Y021890D02*
X142199Y021583D01*
X142199Y021059D02*
X142199Y020599D01*
X142506Y020599D01*
X142046Y020675D02*
X141969Y020599D01*
X141815Y020599D01*
X141739Y020675D01*
X141739Y020982D01*
X141815Y021059D01*
X141969Y021059D01*
X142046Y020982D01*
X141585Y020982D02*
X141508Y021059D01*
X141355Y021059D01*
X141278Y020982D01*
X141278Y020906D01*
X141355Y020829D01*
X141508Y020829D01*
X141585Y020752D01*
X141585Y020675D01*
X141508Y020599D01*
X141355Y020599D01*
X141278Y020675D01*
X141125Y020522D02*
X140818Y020522D01*
X140511Y020599D02*
X140511Y021059D01*
X140664Y021059D02*
X140357Y021059D01*
X140434Y020075D02*
X140357Y019998D01*
X140357Y019921D01*
X140434Y019845D01*
X140588Y019845D01*
X140664Y019768D01*
X140664Y019691D01*
X140588Y019614D01*
X140434Y019614D01*
X140357Y019691D01*
X140434Y020075D02*
X140588Y020075D01*
X140664Y019998D01*
X140818Y020075D02*
X140818Y019691D01*
X140895Y019614D01*
X141048Y019614D01*
X141125Y019691D01*
X141125Y020075D01*
X141278Y020075D02*
X141585Y019614D01*
X141585Y020075D01*
X141278Y020075D02*
X141278Y019614D01*
X141355Y019091D02*
X141278Y019014D01*
X141278Y018707D01*
X141355Y018630D01*
X141508Y018630D01*
X141585Y018707D01*
X141585Y019014D01*
X141508Y019091D01*
X141355Y019091D01*
X141739Y019091D02*
X142046Y019091D01*
X142199Y019091D02*
X142506Y019091D01*
X142353Y018860D02*
X142199Y018860D01*
X142199Y018630D02*
X142199Y019091D01*
X141892Y018860D02*
X141739Y018860D01*
X141739Y018630D02*
X141739Y019091D01*
X141125Y018554D02*
X140818Y018554D01*
X140664Y018707D02*
X140588Y018630D01*
X140434Y018630D01*
X140357Y018707D01*
X140357Y019014D01*
X140434Y019091D01*
X140588Y019091D01*
X140664Y019014D01*
X140357Y018106D02*
X140357Y017646D01*
X140664Y017646D01*
X140818Y017569D02*
X141125Y017569D01*
X141278Y017723D02*
X141355Y017646D01*
X141508Y017646D01*
X141585Y017723D01*
X141585Y018030D01*
X141508Y018106D01*
X141355Y018106D01*
X141278Y018030D01*
X141278Y017723D01*
X141739Y017646D02*
X141739Y018106D01*
X142046Y018106D01*
X142199Y018106D02*
X142506Y018106D01*
X142353Y017876D02*
X142199Y017876D01*
X142199Y017646D02*
X142199Y018106D01*
X141892Y017876D02*
X141739Y017876D01*
X141739Y017122D02*
X141739Y016662D01*
X142046Y016662D01*
X142199Y016662D02*
X142199Y017122D01*
X142506Y016662D01*
X142506Y017122D01*
X142046Y017122D02*
X141739Y017122D01*
X141739Y016892D02*
X141892Y016892D01*
X141585Y016585D02*
X141278Y016585D01*
X141125Y016738D02*
X141048Y016662D01*
X140895Y016662D01*
X140818Y016738D01*
X140818Y017045D01*
X140895Y017122D01*
X141048Y017122D01*
X141125Y017045D01*
X140664Y017045D02*
X140588Y017122D01*
X140434Y017122D01*
X140357Y017045D01*
X140357Y016969D01*
X140434Y016892D01*
X140588Y016892D01*
X140664Y016815D01*
X140664Y016738D01*
X140588Y016662D01*
X140434Y016662D01*
X140357Y016738D01*
X140511Y016138D02*
X140664Y015984D01*
X140664Y015677D01*
X140818Y015677D02*
X140818Y016138D01*
X141125Y015677D01*
X141125Y016138D01*
X141278Y016138D02*
X141585Y016138D01*
X141432Y016138D02*
X141432Y015677D01*
X141739Y015677D02*
X142046Y015677D01*
X141892Y015677D02*
X141892Y016138D01*
X141739Y015984D01*
X141508Y015154D02*
X141585Y015077D01*
X141585Y015000D01*
X141508Y014923D01*
X141585Y014847D01*
X141585Y014770D01*
X141508Y014693D01*
X141355Y014693D01*
X141278Y014770D01*
X141125Y014770D02*
X141048Y014693D01*
X140895Y014693D01*
X140818Y014770D01*
X140664Y014770D02*
X140588Y014693D01*
X140434Y014693D01*
X140357Y014770D01*
X140357Y015077D01*
X140434Y015154D01*
X140588Y015154D01*
X140664Y015077D01*
X140818Y015077D02*
X140818Y015000D01*
X140895Y014923D01*
X141048Y014923D01*
X141125Y014847D01*
X141125Y014770D01*
X141125Y015077D02*
X141048Y015154D01*
X140895Y015154D01*
X140818Y015077D01*
X141278Y015077D02*
X141355Y015154D01*
X141508Y015154D01*
X141508Y014923D02*
X141432Y014923D01*
X141432Y014169D02*
X141432Y013709D01*
X141585Y013709D02*
X141278Y013709D01*
X141125Y013786D02*
X141048Y013709D01*
X140895Y013709D01*
X140818Y013786D01*
X140664Y013786D02*
X140588Y013709D01*
X140434Y013709D01*
X140357Y013786D01*
X140357Y014093D01*
X140434Y014169D01*
X140588Y014169D01*
X140664Y014093D01*
X140818Y014093D02*
X140818Y014016D01*
X140895Y013939D01*
X141048Y013939D01*
X141125Y013862D01*
X141125Y013786D01*
X141278Y014016D02*
X141432Y014169D01*
X141125Y014093D02*
X141048Y014169D01*
X140895Y014169D01*
X140818Y014093D01*
X140895Y013185D02*
X140818Y013108D01*
X140818Y013032D01*
X140895Y012955D01*
X141048Y012955D01*
X141125Y012878D01*
X141125Y012801D01*
X141048Y012725D01*
X140895Y012725D01*
X140818Y012801D01*
X140664Y012878D02*
X140664Y013185D01*
X140895Y013185D02*
X141048Y013185D01*
X141125Y013108D01*
X141278Y013108D02*
X141278Y012801D01*
X141355Y012725D01*
X141508Y012725D01*
X141585Y012801D01*
X141739Y012725D02*
X141739Y013032D01*
X141892Y013185D01*
X142046Y013032D01*
X142046Y012725D01*
X142199Y012725D02*
X142199Y013185D01*
X142429Y013185D01*
X142506Y013108D01*
X142506Y012955D01*
X142429Y012878D01*
X142199Y012878D01*
X142046Y012955D02*
X141739Y012955D01*
X141585Y013108D02*
X141508Y013185D01*
X141355Y013185D01*
X141278Y013108D01*
X140664Y012878D02*
X140511Y012725D01*
X140357Y012878D01*
X140357Y013185D01*
X140357Y012201D02*
X140357Y011894D01*
X140511Y011740D01*
X140664Y011894D01*
X140664Y012201D01*
X140818Y012201D02*
X141048Y012201D01*
X141125Y012124D01*
X141125Y012047D01*
X141048Y011971D01*
X140818Y011971D01*
X140818Y012201D02*
X140818Y011740D01*
X141048Y011740D01*
X141125Y011817D01*
X141125Y011894D01*
X141048Y011971D01*
X141278Y011971D02*
X141585Y011971D01*
X141585Y012047D02*
X141585Y011740D01*
X141278Y011740D02*
X141278Y012047D01*
X141432Y012201D01*
X141585Y012047D01*
X141739Y012201D02*
X142046Y012201D01*
X141892Y012201D02*
X141892Y011740D01*
X141815Y011020D02*
X141739Y010943D01*
X141739Y010866D01*
X141815Y010790D01*
X141969Y010790D01*
X142046Y010713D01*
X142046Y010636D01*
X141969Y010559D01*
X141815Y010559D01*
X141739Y010636D01*
X141585Y010636D02*
X141585Y011020D01*
X141815Y011020D02*
X141969Y011020D01*
X142046Y010943D01*
X141585Y010636D02*
X141508Y010559D01*
X141355Y010559D01*
X141278Y010636D01*
X141278Y011020D01*
X141125Y010943D02*
X141125Y010866D01*
X141048Y010790D01*
X140818Y010790D01*
X140664Y010713D02*
X140664Y011020D01*
X140818Y011020D02*
X141048Y011020D01*
X141125Y010943D01*
X141048Y010790D02*
X141125Y010713D01*
X141125Y010636D01*
X141048Y010559D01*
X140818Y010559D01*
X140818Y011020D01*
X140664Y010713D02*
X140511Y010559D01*
X140357Y010713D01*
X140357Y011020D01*
X140357Y010036D02*
X140357Y009729D01*
X140511Y009575D01*
X140664Y009729D01*
X140664Y010036D01*
X140818Y010036D02*
X141048Y010036D01*
X141125Y009959D01*
X141125Y009882D01*
X141048Y009805D01*
X140818Y009805D01*
X140818Y009575D02*
X141048Y009575D01*
X141125Y009652D01*
X141125Y009729D01*
X141048Y009805D01*
X141278Y009652D02*
X141355Y009575D01*
X141508Y009575D01*
X141585Y009652D01*
X141585Y010036D01*
X141739Y009959D02*
X141739Y009882D01*
X141815Y009805D01*
X141969Y009805D01*
X142046Y009729D01*
X142046Y009652D01*
X141969Y009575D01*
X141815Y009575D01*
X141739Y009652D01*
X141739Y009959D02*
X141815Y010036D01*
X141969Y010036D01*
X142046Y009959D01*
X141278Y010036D02*
X141278Y009652D01*
X140818Y009575D02*
X140818Y010036D01*
X140895Y009051D02*
X140818Y008975D01*
X140818Y008898D01*
X140895Y008821D01*
X141048Y008821D01*
X141125Y008744D01*
X141125Y008668D01*
X141048Y008591D01*
X140895Y008591D01*
X140818Y008668D01*
X140664Y008744D02*
X140664Y009051D01*
X140895Y009051D02*
X141048Y009051D01*
X141125Y008975D01*
X141278Y008975D02*
X141278Y008668D01*
X141355Y008591D01*
X141508Y008591D01*
X141585Y008668D01*
X141585Y008975D01*
X141508Y009051D01*
X141355Y009051D01*
X141278Y008975D01*
X141739Y009051D02*
X141739Y008591D01*
X142046Y008591D01*
X140664Y008744D02*
X140511Y008591D01*
X140357Y008744D01*
X140357Y009051D01*
X137321Y008591D02*
X137014Y008591D01*
X137014Y009051D01*
X136861Y008975D02*
X136784Y009051D01*
X136631Y009051D01*
X136554Y008975D01*
X136554Y008668D01*
X136631Y008591D01*
X136784Y008591D01*
X136861Y008668D01*
X136861Y008975D01*
X136400Y008975D02*
X136324Y009051D01*
X136170Y009051D01*
X136093Y008975D01*
X136093Y008898D01*
X136170Y008821D01*
X136324Y008821D01*
X136400Y008744D01*
X136400Y008668D01*
X136324Y008591D01*
X136170Y008591D01*
X136093Y008668D01*
X135940Y008744D02*
X135940Y009051D01*
X135940Y008744D02*
X135787Y008591D01*
X135633Y008744D01*
X135633Y009051D01*
X135787Y009575D02*
X135940Y009729D01*
X135940Y010036D01*
X136093Y010036D02*
X136324Y010036D01*
X136400Y009959D01*
X136400Y009882D01*
X136324Y009805D01*
X136093Y009805D01*
X136093Y009575D02*
X136324Y009575D01*
X136400Y009652D01*
X136400Y009729D01*
X136324Y009805D01*
X136554Y009652D02*
X136631Y009575D01*
X136784Y009575D01*
X136861Y009652D01*
X136861Y010036D01*
X137014Y009959D02*
X137014Y009882D01*
X137091Y009805D01*
X137244Y009805D01*
X137321Y009729D01*
X137321Y009652D01*
X137244Y009575D01*
X137091Y009575D01*
X137014Y009652D01*
X137014Y009959D02*
X137091Y010036D01*
X137244Y010036D01*
X137321Y009959D01*
X137244Y010559D02*
X137091Y010559D01*
X137014Y010636D01*
X136861Y010636D02*
X136861Y011020D01*
X137014Y010943D02*
X137014Y010866D01*
X137091Y010790D01*
X137244Y010790D01*
X137321Y010713D01*
X137321Y010636D01*
X137244Y010559D01*
X136861Y010636D02*
X136784Y010559D01*
X136631Y010559D01*
X136554Y010636D01*
X136554Y011020D01*
X136400Y010943D02*
X136400Y010866D01*
X136324Y010790D01*
X136093Y010790D01*
X135940Y010713D02*
X135940Y011020D01*
X136093Y011020D02*
X136324Y011020D01*
X136400Y010943D01*
X136324Y010790D02*
X136400Y010713D01*
X136400Y010636D01*
X136324Y010559D01*
X136093Y010559D01*
X136093Y011020D01*
X135940Y010713D02*
X135787Y010559D01*
X135633Y010713D01*
X135633Y011020D01*
X135787Y011740D02*
X135940Y011894D01*
X135940Y012201D01*
X136093Y012201D02*
X136324Y012201D01*
X136400Y012124D01*
X136400Y012047D01*
X136324Y011971D01*
X136093Y011971D01*
X136093Y012201D02*
X136093Y011740D01*
X136324Y011740D01*
X136400Y011817D01*
X136400Y011894D01*
X136324Y011971D01*
X136554Y011971D02*
X136861Y011971D01*
X136861Y012047D02*
X136861Y011740D01*
X137168Y011740D02*
X137168Y012201D01*
X137321Y012201D02*
X137014Y012201D01*
X136861Y012047D02*
X136707Y012201D01*
X136554Y012047D01*
X136554Y011740D01*
X135787Y011740D02*
X135633Y011894D01*
X135633Y012201D01*
X136104Y012725D02*
X136257Y012725D01*
X136334Y012801D01*
X136487Y012801D02*
X136564Y012725D01*
X136717Y012725D01*
X136794Y012801D01*
X136794Y012878D01*
X136717Y012955D01*
X136564Y012955D01*
X136487Y013032D01*
X136487Y013108D01*
X136564Y013185D01*
X136717Y013185D01*
X136794Y013108D01*
X136948Y013108D02*
X137024Y013185D01*
X137178Y013185D01*
X137254Y013108D01*
X137254Y013032D01*
X136948Y012725D01*
X137254Y012725D01*
X136334Y013108D02*
X136257Y013185D01*
X136104Y013185D01*
X136027Y013108D01*
X136027Y012801D01*
X136104Y012725D01*
X136104Y013709D02*
X136257Y013709D01*
X136334Y013786D01*
X136487Y013786D02*
X136564Y013709D01*
X136717Y013709D01*
X136794Y013786D01*
X136794Y013862D01*
X136717Y013939D01*
X136564Y013939D01*
X136487Y014016D01*
X136487Y014093D01*
X136564Y014169D01*
X136717Y014169D01*
X136794Y014093D01*
X136948Y013939D02*
X137178Y014169D01*
X137178Y013709D01*
X137254Y013939D02*
X136948Y013939D01*
X136334Y014093D02*
X136257Y014169D01*
X136104Y014169D01*
X136027Y014093D01*
X136027Y013786D01*
X136104Y013709D01*
X136104Y014693D02*
X136257Y014693D01*
X136334Y014770D01*
X136487Y014770D02*
X136564Y014693D01*
X136717Y014693D01*
X136794Y014770D01*
X136794Y014847D01*
X136717Y014923D01*
X136564Y014923D01*
X136487Y015000D01*
X136487Y015077D01*
X136564Y015154D01*
X136717Y015154D01*
X136794Y015077D01*
X136948Y015154D02*
X136948Y014923D01*
X137101Y015000D01*
X137178Y015000D01*
X137254Y014923D01*
X137254Y014770D01*
X137178Y014693D01*
X137024Y014693D01*
X136948Y014770D01*
X136948Y015154D02*
X137254Y015154D01*
X137321Y015677D02*
X137014Y015677D01*
X137321Y015984D01*
X137321Y016061D01*
X137244Y016138D01*
X137091Y016138D01*
X137014Y016061D01*
X136861Y016138D02*
X136554Y016138D01*
X136707Y016138D02*
X136707Y015677D01*
X136400Y015677D02*
X136400Y016138D01*
X136093Y016138D02*
X136400Y015677D01*
X136093Y015677D02*
X136093Y016138D01*
X135940Y015984D02*
X135787Y016138D01*
X135633Y015984D01*
X135633Y015677D01*
X135633Y015908D02*
X135940Y015908D01*
X135940Y015984D02*
X135940Y015677D01*
X136104Y015154D02*
X136027Y015077D01*
X136027Y014770D01*
X136104Y014693D01*
X136334Y015077D02*
X136257Y015154D01*
X136104Y015154D01*
X136030Y016585D02*
X136337Y016585D01*
X136490Y016662D02*
X136797Y016662D01*
X136951Y016662D02*
X136951Y017122D01*
X137258Y016662D01*
X137258Y017122D01*
X136797Y017122D02*
X136490Y017122D01*
X136490Y016662D01*
X136490Y016892D02*
X136644Y016892D01*
X135877Y017045D02*
X135800Y017122D01*
X135646Y017122D01*
X135570Y017045D01*
X135570Y016738D01*
X135646Y016662D01*
X135800Y016662D01*
X135877Y016738D01*
X135877Y017045D01*
X135416Y017045D02*
X135339Y017122D01*
X135186Y017122D01*
X135109Y017045D01*
X135109Y016738D01*
X135186Y016662D01*
X135339Y016662D01*
X135416Y016738D01*
X134956Y016738D02*
X134879Y016662D01*
X134726Y016662D01*
X134649Y016738D01*
X134726Y016892D02*
X134879Y016892D01*
X134956Y016815D01*
X134956Y016738D01*
X134726Y016892D02*
X134649Y016969D01*
X134649Y017045D01*
X134726Y017122D01*
X134879Y017122D01*
X134956Y017045D01*
X135700Y017569D02*
X136007Y017569D01*
X136160Y017723D02*
X136237Y017646D01*
X136390Y017646D01*
X136467Y017723D01*
X136467Y018030D01*
X136390Y018106D01*
X136237Y018106D01*
X136160Y018030D01*
X136160Y017723D01*
X136621Y017646D02*
X136621Y018106D01*
X136927Y018106D01*
X137081Y018106D02*
X137388Y018106D01*
X137234Y017876D02*
X137081Y017876D01*
X137081Y017646D02*
X137081Y018106D01*
X136774Y017876D02*
X136621Y017876D01*
X136621Y018630D02*
X136621Y019091D01*
X136927Y019091D01*
X137081Y019091D02*
X137388Y019091D01*
X137234Y018860D02*
X137081Y018860D01*
X137081Y018630D02*
X137081Y019091D01*
X136774Y018860D02*
X136621Y018860D01*
X136467Y018707D02*
X136467Y019014D01*
X136390Y019091D01*
X136237Y019091D01*
X136160Y019014D01*
X136160Y018707D01*
X136237Y018630D01*
X136390Y018630D01*
X136467Y018707D01*
X136007Y018554D02*
X135700Y018554D01*
X135546Y018707D02*
X135470Y018630D01*
X135316Y018630D01*
X135239Y018707D01*
X135239Y019014D01*
X135316Y019091D01*
X135470Y019091D01*
X135546Y019014D01*
X135546Y018707D01*
X135636Y019614D02*
X135636Y019921D01*
X135790Y020075D01*
X135943Y019921D01*
X135943Y019614D01*
X136097Y019691D02*
X136173Y019614D01*
X136327Y019614D01*
X136404Y019691D01*
X136404Y020075D01*
X136557Y020075D02*
X136557Y019614D01*
X136864Y019614D01*
X137171Y019614D02*
X137171Y020075D01*
X137324Y020075D02*
X137017Y020075D01*
X136864Y020599D02*
X136557Y020599D01*
X136557Y021059D01*
X136404Y021059D02*
X136404Y020675D01*
X136327Y020599D01*
X136173Y020599D01*
X136097Y020675D01*
X136097Y021059D01*
X135943Y020906D02*
X135943Y020599D01*
X135943Y020829D02*
X135636Y020829D01*
X135636Y020906D02*
X135790Y021059D01*
X135943Y020906D01*
X135636Y020906D02*
X135636Y020599D01*
X135329Y020829D02*
X135176Y020829D01*
X135176Y021059D02*
X135483Y021059D01*
X135176Y021059D02*
X135176Y020599D01*
X135022Y020522D02*
X134716Y020522D01*
X134562Y020675D02*
X134485Y020599D01*
X134255Y020599D01*
X134255Y021059D01*
X134485Y021059D01*
X134562Y020982D01*
X134562Y020906D01*
X134485Y020829D01*
X134255Y020829D01*
X134485Y020829D02*
X134562Y020752D01*
X134562Y020675D01*
X134255Y020075D02*
X134255Y019614D01*
X134562Y019614D01*
X134716Y019538D02*
X135022Y019538D01*
X135176Y019614D02*
X135176Y020075D01*
X135483Y020075D01*
X135636Y019845D02*
X135943Y019845D01*
X136097Y019691D02*
X136097Y020075D01*
X135329Y019845D02*
X135176Y019845D01*
X137171Y020599D02*
X137171Y021059D01*
X137324Y021059D02*
X137017Y021059D01*
X136864Y021583D02*
X136557Y021583D01*
X136557Y022043D01*
X136404Y022043D02*
X136404Y021660D01*
X136327Y021583D01*
X136173Y021583D01*
X136097Y021660D01*
X136097Y022043D01*
X135943Y021890D02*
X135943Y021583D01*
X135943Y021813D02*
X135636Y021813D01*
X135636Y021890D02*
X135790Y022043D01*
X135943Y021890D01*
X135636Y021890D02*
X135636Y021583D01*
X135329Y021813D02*
X135176Y021813D01*
X135176Y021583D02*
X135176Y022043D01*
X135483Y022043D01*
X135636Y022567D02*
X135636Y022874D01*
X135790Y023028D01*
X135943Y022874D01*
X135943Y022567D01*
X136097Y022644D02*
X136173Y022567D01*
X136327Y022567D01*
X136404Y022644D01*
X136404Y023028D01*
X136557Y023028D02*
X136557Y022567D01*
X136864Y022567D01*
X137171Y022567D02*
X137171Y023028D01*
X137324Y023028D02*
X137017Y023028D01*
X136951Y023551D02*
X136951Y024012D01*
X137258Y023551D01*
X137258Y024012D01*
X136797Y023935D02*
X136721Y024012D01*
X136567Y024012D01*
X136490Y023935D01*
X136490Y023628D01*
X136567Y023551D01*
X136721Y023551D01*
X136797Y023628D01*
X136797Y023935D01*
X136721Y024536D02*
X136567Y024536D01*
X136490Y024612D01*
X136490Y024919D01*
X136567Y024996D01*
X136721Y024996D01*
X136797Y024919D01*
X136797Y024612D01*
X136721Y024536D01*
X136951Y024536D02*
X136951Y024996D01*
X137258Y024536D01*
X137258Y024996D01*
X137191Y025717D02*
X137191Y026177D01*
X136884Y026177D02*
X137191Y025717D01*
X136884Y025717D02*
X136884Y026177D01*
X136731Y026101D02*
X136654Y026177D01*
X136500Y026177D01*
X136424Y026101D01*
X136424Y025794D01*
X136500Y025717D01*
X136654Y025717D01*
X136731Y025794D01*
X136731Y026101D01*
X136270Y025640D02*
X135963Y025640D01*
X135810Y025794D02*
X135733Y025717D01*
X135580Y025717D01*
X135503Y025794D01*
X135503Y026101D01*
X135580Y026177D01*
X135733Y026177D01*
X135810Y026101D01*
X135349Y026101D02*
X135273Y026177D01*
X135119Y026177D01*
X135043Y026101D01*
X135043Y026024D01*
X135119Y025947D01*
X135273Y025947D01*
X135349Y025870D01*
X135349Y025794D01*
X135273Y025717D01*
X135119Y025717D01*
X135043Y025794D01*
X134879Y024996D02*
X134956Y024919D01*
X134956Y024843D01*
X134879Y024766D01*
X134649Y024766D01*
X134879Y024766D02*
X134956Y024689D01*
X134956Y024612D01*
X134879Y024536D01*
X134649Y024536D01*
X134649Y024996D01*
X134879Y024996D01*
X135109Y024843D02*
X135263Y024996D01*
X135416Y024843D01*
X135416Y024536D01*
X135416Y024766D02*
X135109Y024766D01*
X135109Y024843D02*
X135109Y024536D01*
X135186Y024012D02*
X135109Y023935D01*
X135109Y023628D01*
X135186Y023551D01*
X135339Y023551D01*
X135416Y023628D01*
X135416Y023935D01*
X135339Y024012D01*
X135186Y024012D01*
X134956Y023935D02*
X134879Y024012D01*
X134726Y024012D01*
X134649Y023935D01*
X134649Y023858D01*
X134726Y023782D01*
X134879Y023782D01*
X134956Y023705D01*
X134956Y023628D01*
X134879Y023551D01*
X134726Y023551D01*
X134649Y023628D01*
X134485Y023028D02*
X134562Y022951D01*
X134562Y022644D01*
X134485Y022567D01*
X134332Y022567D01*
X134255Y022644D01*
X134255Y022951D01*
X134332Y023028D01*
X134485Y023028D01*
X134716Y022491D02*
X135022Y022491D01*
X135176Y022567D02*
X135176Y023028D01*
X135483Y023028D01*
X135636Y022797D02*
X135943Y022797D01*
X136097Y022644D02*
X136097Y023028D01*
X136030Y023475D02*
X136337Y023475D01*
X135877Y023551D02*
X135570Y023551D01*
X135570Y024012D01*
X135723Y024536D02*
X135723Y024996D01*
X135570Y024996D02*
X135877Y024996D01*
X136030Y024459D02*
X136337Y024459D01*
X135329Y022797D02*
X135176Y022797D01*
X134485Y022043D02*
X134332Y022043D01*
X134255Y021967D01*
X134255Y021660D01*
X134332Y021583D01*
X134485Y021583D01*
X134562Y021660D01*
X134716Y021506D02*
X135022Y021506D01*
X134562Y021967D02*
X134485Y022043D01*
X137017Y022043D02*
X137324Y022043D01*
X137171Y022043D02*
X137171Y021583D01*
X135470Y018106D02*
X135239Y018106D01*
X135239Y017646D01*
X135470Y017646D01*
X135546Y017723D01*
X135546Y017799D01*
X135470Y017876D01*
X135239Y017876D01*
X135470Y017876D02*
X135546Y017953D01*
X135546Y018030D01*
X135470Y018106D01*
X140357Y015984D02*
X140511Y016138D01*
X140357Y015984D02*
X140357Y015677D01*
X140357Y015908D02*
X140664Y015908D01*
X137244Y011020D02*
X137091Y011020D01*
X137014Y010943D01*
X137244Y011020D02*
X137321Y010943D01*
X136554Y010036D02*
X136554Y009652D01*
X136093Y009575D02*
X136093Y010036D01*
X135633Y010036D02*
X135633Y009729D01*
X135787Y009575D01*
X136300Y007083D02*
X136224Y007006D01*
X136224Y006699D01*
X136300Y006622D01*
X136454Y006622D01*
X136531Y006699D01*
X136531Y006853D01*
X136377Y006853D01*
X136531Y007006D02*
X136454Y007083D01*
X136300Y007083D01*
X136684Y007083D02*
X136991Y006622D01*
X136991Y007083D01*
X137144Y007083D02*
X137375Y007083D01*
X137451Y007006D01*
X137451Y006699D01*
X137375Y006622D01*
X137144Y006622D01*
X137144Y007083D01*
X136684Y007083D02*
X136684Y006622D01*
X140357Y006699D02*
X140434Y006622D01*
X140588Y006622D01*
X140664Y006699D01*
X140664Y006853D01*
X140511Y006853D01*
X140664Y007006D02*
X140588Y007083D01*
X140434Y007083D01*
X140357Y007006D01*
X140357Y006699D01*
X140818Y006622D02*
X140818Y007083D01*
X141125Y006622D01*
X141125Y007083D01*
X141278Y007083D02*
X141508Y007083D01*
X141585Y007006D01*
X141585Y006699D01*
X141508Y006622D01*
X141278Y006622D01*
X141278Y007083D01*
X142966Y028473D02*
X143120Y028473D01*
X143197Y028549D01*
X142966Y028473D02*
X142890Y028549D01*
X142890Y028856D01*
X142966Y028933D01*
X143120Y028933D01*
X143197Y028856D01*
D12*
X008117Y034358D02*
X008117Y002075D01*
X008119Y002009D01*
X008124Y001943D01*
X008134Y001877D01*
X008147Y001812D01*
X008163Y001748D01*
X008183Y001685D01*
X008207Y001623D01*
X008234Y001563D01*
X008264Y001504D01*
X008298Y001447D01*
X008335Y001392D01*
X008375Y001339D01*
X008417Y001288D01*
X008463Y001240D01*
X008511Y001194D01*
X008562Y001152D01*
X008615Y001112D01*
X008670Y001075D01*
X008727Y001041D01*
X008786Y001011D01*
X008846Y000984D01*
X008908Y000960D01*
X008971Y000940D01*
X009035Y000924D01*
X009100Y000911D01*
X009166Y000901D01*
X009232Y000896D01*
X009298Y000894D01*
X036070Y000894D01*
X036070Y002469D01*
X036072Y002523D01*
X036077Y002576D01*
X036086Y002629D01*
X036099Y002681D01*
X036115Y002733D01*
X036135Y002783D01*
X036158Y002831D01*
X036185Y002878D01*
X036214Y002923D01*
X036247Y002966D01*
X036282Y003006D01*
X036320Y003044D01*
X036360Y003079D01*
X036403Y003112D01*
X036448Y003141D01*
X036495Y003168D01*
X036543Y003191D01*
X036593Y003211D01*
X036645Y003227D01*
X036697Y003240D01*
X036750Y003249D01*
X036803Y003254D01*
X036857Y003256D01*
X043944Y003256D01*
X044010Y003258D01*
X044076Y003263D01*
X044142Y003273D01*
X044207Y003286D01*
X044271Y003302D01*
X044334Y003322D01*
X044396Y003346D01*
X044456Y003373D01*
X044515Y003403D01*
X044572Y003437D01*
X044627Y003474D01*
X044680Y003514D01*
X044731Y003556D01*
X044779Y003602D01*
X044825Y003650D01*
X044867Y003701D01*
X044907Y003754D01*
X044944Y003809D01*
X044978Y003866D01*
X045008Y003925D01*
X045035Y003985D01*
X045059Y004047D01*
X045079Y004110D01*
X045095Y004174D01*
X045108Y004239D01*
X045118Y004305D01*
X045123Y004371D01*
X045125Y004437D01*
X045125Y036720D01*
X045123Y036786D01*
X045118Y036852D01*
X045108Y036918D01*
X045095Y036983D01*
X045079Y037047D01*
X045059Y037110D01*
X045035Y037172D01*
X045008Y037232D01*
X044978Y037291D01*
X044944Y037348D01*
X044907Y037403D01*
X044867Y037456D01*
X044825Y037507D01*
X044779Y037555D01*
X044731Y037601D01*
X044680Y037643D01*
X044627Y037683D01*
X044572Y037720D01*
X044515Y037754D01*
X044456Y037784D01*
X044396Y037811D01*
X044334Y037835D01*
X044271Y037855D01*
X044207Y037871D01*
X044142Y037884D01*
X044076Y037894D01*
X044010Y037899D01*
X043944Y037901D01*
X043944Y037902D02*
X017172Y037902D01*
X017172Y036327D01*
X017170Y036273D01*
X017165Y036220D01*
X017156Y036167D01*
X017143Y036115D01*
X017127Y036063D01*
X017107Y036013D01*
X017084Y035965D01*
X017057Y035918D01*
X017028Y035873D01*
X016995Y035830D01*
X016960Y035790D01*
X016922Y035752D01*
X016882Y035717D01*
X016839Y035684D01*
X016794Y035655D01*
X016747Y035628D01*
X016699Y035605D01*
X016649Y035585D01*
X016597Y035569D01*
X016545Y035556D01*
X016492Y035547D01*
X016439Y035542D01*
X016385Y035540D01*
X016385Y035539D02*
X009298Y035539D01*
X009232Y035537D01*
X009166Y035532D01*
X009100Y035522D01*
X009035Y035509D01*
X008971Y035493D01*
X008908Y035473D01*
X008846Y035449D01*
X008786Y035422D01*
X008727Y035392D01*
X008670Y035358D01*
X008615Y035321D01*
X008562Y035281D01*
X008511Y035239D01*
X008463Y035193D01*
X008417Y035145D01*
X008375Y035094D01*
X008335Y035041D01*
X008298Y034986D01*
X008264Y034929D01*
X008234Y034870D01*
X008207Y034810D01*
X008183Y034748D01*
X008163Y034685D01*
X008147Y034621D01*
X008134Y034556D01*
X008124Y034490D01*
X008119Y034424D01*
X008117Y034358D01*
X052936Y034358D02*
X052936Y002075D01*
X052938Y002009D01*
X052943Y001943D01*
X052953Y001877D01*
X052966Y001812D01*
X052982Y001748D01*
X053002Y001685D01*
X053026Y001623D01*
X053053Y001563D01*
X053083Y001504D01*
X053117Y001447D01*
X053154Y001392D01*
X053194Y001339D01*
X053236Y001288D01*
X053282Y001240D01*
X053330Y001194D01*
X053381Y001152D01*
X053434Y001112D01*
X053489Y001075D01*
X053546Y001041D01*
X053605Y001011D01*
X053665Y000984D01*
X053727Y000960D01*
X053790Y000940D01*
X053854Y000924D01*
X053919Y000911D01*
X053985Y000901D01*
X054051Y000896D01*
X054117Y000894D01*
X080889Y000894D01*
X080889Y004043D01*
X080891Y004097D01*
X080896Y004150D01*
X080905Y004203D01*
X080918Y004255D01*
X080934Y004307D01*
X080954Y004357D01*
X080977Y004405D01*
X081004Y004452D01*
X081033Y004497D01*
X081066Y004540D01*
X081101Y004580D01*
X081139Y004618D01*
X081179Y004653D01*
X081222Y004686D01*
X081267Y004715D01*
X081314Y004742D01*
X081362Y004765D01*
X081412Y004785D01*
X081464Y004801D01*
X081516Y004814D01*
X081569Y004823D01*
X081622Y004828D01*
X081676Y004830D01*
X081676Y004831D02*
X084038Y004831D01*
X084038Y004830D02*
X084092Y004828D01*
X084145Y004823D01*
X084198Y004814D01*
X084250Y004801D01*
X084302Y004785D01*
X084352Y004765D01*
X084400Y004742D01*
X084447Y004715D01*
X084492Y004686D01*
X084535Y004653D01*
X084575Y004618D01*
X084613Y004580D01*
X084648Y004540D01*
X084681Y004497D01*
X084710Y004452D01*
X084737Y004405D01*
X084760Y004357D01*
X084780Y004307D01*
X084796Y004255D01*
X084809Y004203D01*
X084818Y004150D01*
X084823Y004097D01*
X084825Y004043D01*
X084826Y004043D02*
X084826Y003256D01*
X088763Y003256D01*
X088829Y003258D01*
X088895Y003263D01*
X088961Y003273D01*
X089026Y003286D01*
X089090Y003302D01*
X089153Y003322D01*
X089215Y003346D01*
X089275Y003373D01*
X089334Y003403D01*
X089391Y003437D01*
X089446Y003474D01*
X089499Y003514D01*
X089550Y003556D01*
X089598Y003602D01*
X089644Y003650D01*
X089686Y003701D01*
X089726Y003754D01*
X089763Y003809D01*
X089797Y003866D01*
X089827Y003925D01*
X089854Y003985D01*
X089878Y004047D01*
X089898Y004110D01*
X089914Y004174D01*
X089927Y004239D01*
X089937Y004305D01*
X089942Y004371D01*
X089944Y004437D01*
X089944Y036720D01*
X089942Y036786D01*
X089937Y036852D01*
X089927Y036918D01*
X089914Y036983D01*
X089898Y037047D01*
X089878Y037110D01*
X089854Y037172D01*
X089827Y037232D01*
X089797Y037291D01*
X089763Y037348D01*
X089726Y037403D01*
X089686Y037456D01*
X089644Y037507D01*
X089598Y037555D01*
X089550Y037601D01*
X089499Y037643D01*
X089446Y037683D01*
X089391Y037720D01*
X089334Y037754D01*
X089275Y037784D01*
X089215Y037811D01*
X089153Y037835D01*
X089090Y037855D01*
X089026Y037871D01*
X088961Y037884D01*
X088895Y037894D01*
X088829Y037899D01*
X088763Y037901D01*
X088763Y037902D02*
X061991Y037902D01*
X061991Y034752D01*
X061989Y034698D01*
X061984Y034645D01*
X061975Y034592D01*
X061962Y034540D01*
X061946Y034488D01*
X061926Y034438D01*
X061903Y034390D01*
X061876Y034343D01*
X061847Y034298D01*
X061814Y034255D01*
X061779Y034215D01*
X061741Y034177D01*
X061701Y034142D01*
X061658Y034109D01*
X061613Y034080D01*
X061566Y034053D01*
X061518Y034030D01*
X061468Y034010D01*
X061416Y033994D01*
X061364Y033981D01*
X061311Y033972D01*
X061258Y033967D01*
X061204Y033965D01*
X058841Y033965D01*
X058787Y033967D01*
X058734Y033972D01*
X058681Y033981D01*
X058629Y033994D01*
X058577Y034010D01*
X058527Y034030D01*
X058479Y034053D01*
X058432Y034080D01*
X058387Y034109D01*
X058344Y034142D01*
X058304Y034177D01*
X058266Y034215D01*
X058231Y034255D01*
X058198Y034298D01*
X058169Y034343D01*
X058142Y034390D01*
X058119Y034438D01*
X058099Y034488D01*
X058083Y034540D01*
X058070Y034592D01*
X058061Y034645D01*
X058056Y034698D01*
X058054Y034752D01*
X058054Y035539D01*
X054117Y035539D01*
X054051Y035537D01*
X053985Y035532D01*
X053919Y035522D01*
X053854Y035509D01*
X053790Y035493D01*
X053727Y035473D01*
X053665Y035449D01*
X053605Y035422D01*
X053546Y035392D01*
X053489Y035358D01*
X053434Y035321D01*
X053381Y035281D01*
X053330Y035239D01*
X053282Y035193D01*
X053236Y035145D01*
X053194Y035094D01*
X053154Y035041D01*
X053117Y034986D01*
X053083Y034929D01*
X053053Y034870D01*
X053026Y034810D01*
X053002Y034748D01*
X052982Y034685D01*
X052966Y034621D01*
X052953Y034556D01*
X052943Y034490D01*
X052938Y034424D01*
X052936Y034358D01*
X097818Y034358D02*
X097818Y004437D01*
X097820Y004371D01*
X097825Y004305D01*
X097835Y004239D01*
X097848Y004174D01*
X097864Y004110D01*
X097884Y004047D01*
X097908Y003985D01*
X097935Y003925D01*
X097965Y003866D01*
X097999Y003809D01*
X098036Y003754D01*
X098076Y003701D01*
X098118Y003650D01*
X098164Y003602D01*
X098212Y003556D01*
X098263Y003514D01*
X098316Y003474D01*
X098371Y003437D01*
X098428Y003403D01*
X098487Y003373D01*
X098547Y003346D01*
X098609Y003322D01*
X098672Y003302D01*
X098736Y003286D01*
X098801Y003273D01*
X098867Y003263D01*
X098933Y003258D01*
X098999Y003256D01*
X133645Y003256D01*
X133711Y003258D01*
X133777Y003263D01*
X133843Y003273D01*
X133908Y003286D01*
X133972Y003302D01*
X134035Y003322D01*
X134097Y003346D01*
X134157Y003373D01*
X134216Y003403D01*
X134273Y003437D01*
X134328Y003474D01*
X134381Y003514D01*
X134432Y003556D01*
X134480Y003602D01*
X134526Y003650D01*
X134568Y003701D01*
X134608Y003754D01*
X134645Y003809D01*
X134679Y003866D01*
X134709Y003925D01*
X134736Y003985D01*
X134760Y004047D01*
X134780Y004110D01*
X134796Y004174D01*
X134809Y004239D01*
X134819Y004305D01*
X134824Y004371D01*
X134826Y004437D01*
X134826Y036720D01*
X134824Y036786D01*
X134819Y036852D01*
X134809Y036918D01*
X134796Y036983D01*
X134780Y037047D01*
X134760Y037110D01*
X134736Y037172D01*
X134709Y037232D01*
X134679Y037291D01*
X134645Y037348D01*
X134608Y037403D01*
X134568Y037456D01*
X134526Y037507D01*
X134480Y037555D01*
X134432Y037601D01*
X134381Y037643D01*
X134328Y037683D01*
X134273Y037720D01*
X134216Y037754D01*
X134157Y037784D01*
X134097Y037811D01*
X134035Y037835D01*
X133972Y037855D01*
X133908Y037871D01*
X133843Y037884D01*
X133777Y037894D01*
X133711Y037899D01*
X133645Y037901D01*
X133645Y037902D02*
X106873Y037902D01*
X106873Y036327D01*
X106871Y036273D01*
X106866Y036220D01*
X106857Y036167D01*
X106844Y036115D01*
X106828Y036063D01*
X106808Y036013D01*
X106785Y035965D01*
X106758Y035918D01*
X106729Y035873D01*
X106696Y035830D01*
X106661Y035790D01*
X106623Y035752D01*
X106583Y035717D01*
X106540Y035684D01*
X106495Y035655D01*
X106448Y035628D01*
X106400Y035605D01*
X106350Y035585D01*
X106298Y035569D01*
X106246Y035556D01*
X106193Y035547D01*
X106140Y035542D01*
X106086Y035540D01*
X106086Y035539D02*
X098999Y035539D01*
X098933Y035537D01*
X098867Y035532D01*
X098801Y035522D01*
X098736Y035509D01*
X098672Y035493D01*
X098609Y035473D01*
X098547Y035449D01*
X098487Y035422D01*
X098428Y035392D01*
X098371Y035358D01*
X098316Y035321D01*
X098263Y035281D01*
X098212Y035239D01*
X098164Y035193D01*
X098118Y035145D01*
X098076Y035094D01*
X098036Y035041D01*
X097999Y034986D01*
X097965Y034929D01*
X097935Y034870D01*
X097908Y034810D01*
X097884Y034748D01*
X097864Y034685D01*
X097848Y034621D01*
X097835Y034556D01*
X097825Y034490D01*
X097820Y034424D01*
X097818Y034358D01*
D13*
X100186Y032698D02*
X102536Y032698D01*
X102536Y006098D01*
X100186Y006098D01*
X100186Y032698D01*
X137692Y032698D02*
X140042Y032698D01*
X140042Y006098D01*
X137692Y006098D01*
X137692Y032698D01*
X057654Y032698D02*
X057654Y006098D01*
X055304Y006098D01*
X055304Y032698D01*
X057654Y032698D01*
X012835Y032698D02*
X012835Y006098D01*
X010486Y006098D01*
X010486Y032698D01*
X012835Y032698D01*
X005292Y032698D02*
X005292Y006098D01*
X002942Y006098D01*
X002942Y032698D01*
X005292Y032698D01*
D14*
X025141Y019730D02*
X025141Y018280D01*
X025503Y017918D01*
X026228Y017918D01*
X026591Y018280D01*
X026591Y019730D01*
X026228Y020092D01*
X025503Y020092D01*
X025141Y019730D01*
X027316Y020092D02*
X028403Y020092D01*
X028766Y019730D01*
X028766Y019367D01*
X028403Y019005D01*
X027316Y019005D01*
X028403Y019005D02*
X028766Y018643D01*
X028766Y018280D01*
X028403Y017918D01*
X027316Y017918D01*
X027316Y020092D01*
X029491Y019730D02*
X029491Y018280D01*
X029854Y017918D01*
X030578Y017918D01*
X030941Y018280D01*
X030941Y019730D02*
X030578Y020092D01*
X029854Y020092D01*
X029491Y019730D01*
X068385Y019730D02*
X068385Y018280D01*
X068748Y017918D01*
X069472Y017918D01*
X069835Y018280D01*
X070560Y018280D02*
X070923Y017918D01*
X071647Y017918D01*
X072010Y018280D01*
X072010Y019730D01*
X071647Y020092D01*
X070923Y020092D01*
X070560Y019730D01*
X070560Y018280D01*
X072735Y017918D02*
X072735Y020092D01*
X073460Y019367D01*
X074185Y020092D01*
X074185Y017918D01*
X074910Y017918D02*
X074910Y020092D01*
X075635Y019367D01*
X076360Y020092D01*
X076360Y017918D01*
X077086Y018280D02*
X077448Y017918D01*
X078173Y017918D01*
X078535Y018280D01*
X078535Y018643D01*
X078173Y019005D01*
X077448Y019005D01*
X077086Y019367D01*
X077086Y019730D01*
X077448Y020092D01*
X078173Y020092D01*
X078535Y019730D01*
X069835Y019730D02*
X069472Y020092D01*
X068748Y020092D01*
X068385Y019730D01*
X114842Y020092D02*
X114842Y017918D01*
X116291Y017918D01*
X117017Y017918D02*
X117017Y020092D01*
X118104Y020092D01*
X118466Y019730D01*
X118466Y019005D01*
X118104Y018643D01*
X117017Y018643D01*
X115567Y019005D02*
X114842Y019005D01*
X114842Y020092D02*
X116291Y020092D01*
X119192Y019730D02*
X119192Y019367D01*
X119554Y019005D01*
X120279Y019005D01*
X120641Y018643D01*
X120641Y018280D01*
X120279Y017918D01*
X119554Y017918D01*
X119192Y018280D01*
X119192Y019730D02*
X119554Y020092D01*
X120279Y020092D01*
X120641Y019730D01*
D15*
X130402Y004437D02*
X130404Y004496D01*
X130410Y004554D01*
X130420Y004612D01*
X130433Y004669D01*
X130451Y004726D01*
X130472Y004781D01*
X130497Y004834D01*
X130525Y004885D01*
X130556Y004935D01*
X130591Y004982D01*
X130629Y005027D01*
X130670Y005070D01*
X130714Y005109D01*
X130760Y005145D01*
X130808Y005179D01*
X130859Y005209D01*
X130912Y005235D01*
X130966Y005258D01*
X131021Y005277D01*
X131078Y005293D01*
X131136Y005305D01*
X131194Y005313D01*
X131253Y005317D01*
X131311Y005317D01*
X131370Y005313D01*
X131428Y005305D01*
X131486Y005293D01*
X131543Y005277D01*
X131598Y005258D01*
X131652Y005235D01*
X131705Y005209D01*
X131756Y005179D01*
X131804Y005145D01*
X131850Y005109D01*
X131894Y005070D01*
X131935Y005027D01*
X131973Y004982D01*
X132008Y004935D01*
X132039Y004885D01*
X132067Y004834D01*
X132092Y004781D01*
X132113Y004726D01*
X132131Y004669D01*
X132144Y004612D01*
X132154Y004554D01*
X132160Y004496D01*
X132162Y004437D01*
X132160Y004378D01*
X132154Y004320D01*
X132144Y004262D01*
X132131Y004205D01*
X132113Y004148D01*
X132092Y004093D01*
X132067Y004040D01*
X132039Y003989D01*
X132008Y003939D01*
X131973Y003892D01*
X131935Y003847D01*
X131894Y003804D01*
X131850Y003765D01*
X131804Y003729D01*
X131756Y003695D01*
X131705Y003665D01*
X131652Y003639D01*
X131598Y003616D01*
X131543Y003597D01*
X131486Y003581D01*
X131428Y003569D01*
X131370Y003561D01*
X131311Y003557D01*
X131253Y003557D01*
X131194Y003561D01*
X131136Y003569D01*
X131078Y003581D01*
X131021Y003597D01*
X130966Y003616D01*
X130912Y003639D01*
X130859Y003665D01*
X130808Y003695D01*
X130760Y003729D01*
X130714Y003765D01*
X130670Y003804D01*
X130629Y003847D01*
X130591Y003892D01*
X130556Y003939D01*
X130525Y003989D01*
X130497Y004040D01*
X130472Y004093D01*
X130451Y004148D01*
X130433Y004205D01*
X130420Y004262D01*
X130410Y004320D01*
X130404Y004378D01*
X130402Y004437D01*
X130948Y003118D02*
X131617Y003118D01*
X131617Y002016D01*
X130948Y002016D01*
X130948Y003118D01*
X131834Y003118D02*
X132503Y003118D01*
X132503Y002016D01*
X131834Y002016D01*
X131834Y003118D01*
X117306Y002272D02*
X116322Y000894D01*
X115337Y002272D01*
X117306Y002272D01*
X117288Y002246D02*
X115356Y002246D01*
X115390Y002198D02*
X117253Y002198D01*
X117218Y002149D02*
X115425Y002149D01*
X115460Y002101D02*
X117184Y002101D01*
X117149Y002052D02*
X115494Y002052D01*
X115529Y002004D02*
X117114Y002004D01*
X117080Y001955D02*
X115564Y001955D01*
X115598Y001907D02*
X117045Y001907D01*
X117011Y001858D02*
X115633Y001858D01*
X115668Y001810D02*
X116976Y001810D01*
X116941Y001761D02*
X115702Y001761D01*
X115737Y001713D02*
X116907Y001713D01*
X116872Y001664D02*
X115772Y001664D01*
X115806Y001616D02*
X116837Y001616D01*
X116803Y001567D02*
X115841Y001567D01*
X115875Y001519D02*
X116768Y001519D01*
X116733Y001470D02*
X115910Y001470D01*
X115945Y001422D02*
X116699Y001422D01*
X116664Y001373D02*
X115979Y001373D01*
X116014Y001325D02*
X116629Y001325D01*
X116595Y001276D02*
X116049Y001276D01*
X116083Y001228D02*
X116560Y001228D01*
X116526Y001179D02*
X116118Y001179D01*
X116153Y001131D02*
X116491Y001131D01*
X116456Y001082D02*
X116187Y001082D01*
X116222Y001034D02*
X116422Y001034D01*
X116387Y000985D02*
X116257Y000985D01*
X116291Y000937D02*
X116352Y000937D01*
X117503Y000500D02*
X115141Y000500D01*
X100481Y004437D02*
X100483Y004496D01*
X100489Y004554D01*
X100499Y004612D01*
X100512Y004669D01*
X100530Y004726D01*
X100551Y004781D01*
X100576Y004834D01*
X100604Y004885D01*
X100635Y004935D01*
X100670Y004982D01*
X100708Y005027D01*
X100749Y005070D01*
X100793Y005109D01*
X100839Y005145D01*
X100887Y005179D01*
X100938Y005209D01*
X100991Y005235D01*
X101045Y005258D01*
X101100Y005277D01*
X101157Y005293D01*
X101215Y005305D01*
X101273Y005313D01*
X101332Y005317D01*
X101390Y005317D01*
X101449Y005313D01*
X101507Y005305D01*
X101565Y005293D01*
X101622Y005277D01*
X101677Y005258D01*
X101731Y005235D01*
X101784Y005209D01*
X101835Y005179D01*
X101883Y005145D01*
X101929Y005109D01*
X101973Y005070D01*
X102014Y005027D01*
X102052Y004982D01*
X102087Y004935D01*
X102118Y004885D01*
X102146Y004834D01*
X102171Y004781D01*
X102192Y004726D01*
X102210Y004669D01*
X102223Y004612D01*
X102233Y004554D01*
X102239Y004496D01*
X102241Y004437D01*
X102239Y004378D01*
X102233Y004320D01*
X102223Y004262D01*
X102210Y004205D01*
X102192Y004148D01*
X102171Y004093D01*
X102146Y004040D01*
X102118Y003989D01*
X102087Y003939D01*
X102052Y003892D01*
X102014Y003847D01*
X101973Y003804D01*
X101929Y003765D01*
X101883Y003729D01*
X101835Y003695D01*
X101784Y003665D01*
X101731Y003639D01*
X101677Y003616D01*
X101622Y003597D01*
X101565Y003581D01*
X101507Y003569D01*
X101449Y003561D01*
X101390Y003557D01*
X101332Y003557D01*
X101273Y003561D01*
X101215Y003569D01*
X101157Y003581D01*
X101100Y003597D01*
X101045Y003616D01*
X100991Y003639D01*
X100938Y003665D01*
X100887Y003695D01*
X100839Y003729D01*
X100793Y003765D01*
X100749Y003804D01*
X100708Y003847D01*
X100670Y003892D01*
X100635Y003939D01*
X100604Y003989D01*
X100576Y004040D01*
X100551Y004093D01*
X100530Y004148D01*
X100512Y004205D01*
X100499Y004262D01*
X100489Y004320D01*
X100483Y004378D01*
X100481Y004437D01*
X085520Y004437D02*
X085522Y004496D01*
X085528Y004554D01*
X085538Y004612D01*
X085551Y004669D01*
X085569Y004726D01*
X085590Y004781D01*
X085615Y004834D01*
X085643Y004885D01*
X085674Y004935D01*
X085709Y004982D01*
X085747Y005027D01*
X085788Y005070D01*
X085832Y005109D01*
X085878Y005145D01*
X085926Y005179D01*
X085977Y005209D01*
X086030Y005235D01*
X086084Y005258D01*
X086139Y005277D01*
X086196Y005293D01*
X086254Y005305D01*
X086312Y005313D01*
X086371Y005317D01*
X086429Y005317D01*
X086488Y005313D01*
X086546Y005305D01*
X086604Y005293D01*
X086661Y005277D01*
X086716Y005258D01*
X086770Y005235D01*
X086823Y005209D01*
X086874Y005179D01*
X086922Y005145D01*
X086968Y005109D01*
X087012Y005070D01*
X087053Y005027D01*
X087091Y004982D01*
X087126Y004935D01*
X087157Y004885D01*
X087185Y004834D01*
X087210Y004781D01*
X087231Y004726D01*
X087249Y004669D01*
X087262Y004612D01*
X087272Y004554D01*
X087278Y004496D01*
X087280Y004437D01*
X087278Y004378D01*
X087272Y004320D01*
X087262Y004262D01*
X087249Y004205D01*
X087231Y004148D01*
X087210Y004093D01*
X087185Y004040D01*
X087157Y003989D01*
X087126Y003939D01*
X087091Y003892D01*
X087053Y003847D01*
X087012Y003804D01*
X086968Y003765D01*
X086922Y003729D01*
X086874Y003695D01*
X086823Y003665D01*
X086770Y003639D01*
X086716Y003616D01*
X086661Y003597D01*
X086604Y003581D01*
X086546Y003569D01*
X086488Y003561D01*
X086429Y003557D01*
X086371Y003557D01*
X086312Y003561D01*
X086254Y003569D01*
X086196Y003581D01*
X086139Y003597D01*
X086084Y003616D01*
X086030Y003639D01*
X085977Y003665D01*
X085926Y003695D01*
X085878Y003729D01*
X085832Y003765D01*
X085788Y003804D01*
X085747Y003847D01*
X085709Y003892D01*
X085674Y003939D01*
X085643Y003989D01*
X085615Y004040D01*
X085590Y004093D01*
X085569Y004148D01*
X085551Y004205D01*
X085538Y004262D01*
X085528Y004320D01*
X085522Y004378D01*
X085520Y004437D01*
X072424Y002272D02*
X071440Y000894D01*
X070456Y002272D01*
X072424Y002272D01*
X072406Y002246D02*
X070474Y002246D01*
X070509Y002198D02*
X072371Y002198D01*
X072336Y002149D02*
X070543Y002149D01*
X070578Y002101D02*
X072302Y002101D01*
X072267Y002052D02*
X070612Y002052D01*
X070647Y002004D02*
X072233Y002004D01*
X072198Y001955D02*
X070682Y001955D01*
X070716Y001907D02*
X072163Y001907D01*
X072129Y001858D02*
X070751Y001858D01*
X070786Y001810D02*
X072094Y001810D01*
X072059Y001761D02*
X070820Y001761D01*
X070855Y001713D02*
X072025Y001713D01*
X071990Y001664D02*
X070890Y001664D01*
X070924Y001616D02*
X071955Y001616D01*
X071921Y001567D02*
X070959Y001567D01*
X070994Y001519D02*
X071886Y001519D01*
X071851Y001470D02*
X071028Y001470D01*
X071063Y001422D02*
X071817Y001422D01*
X071782Y001373D02*
X071097Y001373D01*
X071132Y001325D02*
X071748Y001325D01*
X071713Y001276D02*
X071167Y001276D01*
X071201Y001228D02*
X071678Y001228D01*
X071644Y001179D02*
X071236Y001179D01*
X071271Y001131D02*
X071609Y001131D01*
X071574Y001082D02*
X071305Y001082D01*
X071340Y001034D02*
X071540Y001034D01*
X071505Y000985D02*
X071375Y000985D01*
X071409Y000937D02*
X071470Y000937D01*
X072621Y000500D02*
X070259Y000500D01*
X055599Y004437D02*
X055601Y004496D01*
X055607Y004554D01*
X055617Y004612D01*
X055630Y004669D01*
X055648Y004726D01*
X055669Y004781D01*
X055694Y004834D01*
X055722Y004885D01*
X055753Y004935D01*
X055788Y004982D01*
X055826Y005027D01*
X055867Y005070D01*
X055911Y005109D01*
X055957Y005145D01*
X056005Y005179D01*
X056056Y005209D01*
X056109Y005235D01*
X056163Y005258D01*
X056218Y005277D01*
X056275Y005293D01*
X056333Y005305D01*
X056391Y005313D01*
X056450Y005317D01*
X056508Y005317D01*
X056567Y005313D01*
X056625Y005305D01*
X056683Y005293D01*
X056740Y005277D01*
X056795Y005258D01*
X056849Y005235D01*
X056902Y005209D01*
X056953Y005179D01*
X057001Y005145D01*
X057047Y005109D01*
X057091Y005070D01*
X057132Y005027D01*
X057170Y004982D01*
X057205Y004935D01*
X057236Y004885D01*
X057264Y004834D01*
X057289Y004781D01*
X057310Y004726D01*
X057328Y004669D01*
X057341Y004612D01*
X057351Y004554D01*
X057357Y004496D01*
X057359Y004437D01*
X057357Y004378D01*
X057351Y004320D01*
X057341Y004262D01*
X057328Y004205D01*
X057310Y004148D01*
X057289Y004093D01*
X057264Y004040D01*
X057236Y003989D01*
X057205Y003939D01*
X057170Y003892D01*
X057132Y003847D01*
X057091Y003804D01*
X057047Y003765D01*
X057001Y003729D01*
X056953Y003695D01*
X056902Y003665D01*
X056849Y003639D01*
X056795Y003616D01*
X056740Y003597D01*
X056683Y003581D01*
X056625Y003569D01*
X056567Y003561D01*
X056508Y003557D01*
X056450Y003557D01*
X056391Y003561D01*
X056333Y003569D01*
X056275Y003581D01*
X056218Y003597D01*
X056163Y003616D01*
X056109Y003639D01*
X056056Y003665D01*
X056005Y003695D01*
X055957Y003729D01*
X055911Y003765D01*
X055867Y003804D01*
X055826Y003847D01*
X055788Y003892D01*
X055753Y003939D01*
X055722Y003989D01*
X055694Y004040D01*
X055669Y004093D01*
X055648Y004148D01*
X055630Y004205D01*
X055617Y004262D01*
X055607Y004320D01*
X055601Y004378D01*
X055599Y004437D01*
X040702Y004437D02*
X040704Y004496D01*
X040710Y004554D01*
X040720Y004612D01*
X040733Y004669D01*
X040751Y004726D01*
X040772Y004781D01*
X040797Y004834D01*
X040825Y004885D01*
X040856Y004935D01*
X040891Y004982D01*
X040929Y005027D01*
X040970Y005070D01*
X041014Y005109D01*
X041060Y005145D01*
X041108Y005179D01*
X041159Y005209D01*
X041212Y005235D01*
X041266Y005258D01*
X041321Y005277D01*
X041378Y005293D01*
X041436Y005305D01*
X041494Y005313D01*
X041553Y005317D01*
X041611Y005317D01*
X041670Y005313D01*
X041728Y005305D01*
X041786Y005293D01*
X041843Y005277D01*
X041898Y005258D01*
X041952Y005235D01*
X042005Y005209D01*
X042056Y005179D01*
X042104Y005145D01*
X042150Y005109D01*
X042194Y005070D01*
X042235Y005027D01*
X042273Y004982D01*
X042308Y004935D01*
X042339Y004885D01*
X042367Y004834D01*
X042392Y004781D01*
X042413Y004726D01*
X042431Y004669D01*
X042444Y004612D01*
X042454Y004554D01*
X042460Y004496D01*
X042462Y004437D01*
X042460Y004378D01*
X042454Y004320D01*
X042444Y004262D01*
X042431Y004205D01*
X042413Y004148D01*
X042392Y004093D01*
X042367Y004040D01*
X042339Y003989D01*
X042308Y003939D01*
X042273Y003892D01*
X042235Y003847D01*
X042194Y003804D01*
X042150Y003765D01*
X042104Y003729D01*
X042056Y003695D01*
X042005Y003665D01*
X041952Y003639D01*
X041898Y003616D01*
X041843Y003597D01*
X041786Y003581D01*
X041728Y003569D01*
X041670Y003561D01*
X041611Y003557D01*
X041553Y003557D01*
X041494Y003561D01*
X041436Y003569D01*
X041378Y003581D01*
X041321Y003597D01*
X041266Y003616D01*
X041212Y003639D01*
X041159Y003665D01*
X041108Y003695D01*
X041060Y003729D01*
X041014Y003765D01*
X040970Y003804D01*
X040929Y003847D01*
X040891Y003892D01*
X040856Y003939D01*
X040825Y003989D01*
X040797Y004040D01*
X040772Y004093D01*
X040751Y004148D01*
X040733Y004205D01*
X040720Y004262D01*
X040710Y004320D01*
X040704Y004378D01*
X040702Y004437D01*
X027605Y002272D02*
X026621Y000894D01*
X025637Y002272D01*
X027605Y002272D01*
X027587Y002246D02*
X025655Y002246D01*
X025690Y002198D02*
X027552Y002198D01*
X027518Y002149D02*
X025724Y002149D01*
X025759Y002101D02*
X027483Y002101D01*
X027448Y002052D02*
X025794Y002052D01*
X025828Y002004D02*
X027414Y002004D01*
X027379Y001955D02*
X025863Y001955D01*
X025898Y001907D02*
X027344Y001907D01*
X027310Y001858D02*
X025932Y001858D01*
X025967Y001810D02*
X027275Y001810D01*
X027240Y001761D02*
X026001Y001761D01*
X026036Y001713D02*
X027206Y001713D01*
X027171Y001664D02*
X026071Y001664D01*
X026105Y001616D02*
X027137Y001616D01*
X027102Y001567D02*
X026140Y001567D01*
X026175Y001519D02*
X027067Y001519D01*
X027033Y001470D02*
X026209Y001470D01*
X026244Y001422D02*
X026998Y001422D01*
X026963Y001373D02*
X026279Y001373D01*
X026313Y001325D02*
X026929Y001325D01*
X026894Y001276D02*
X026348Y001276D01*
X026383Y001228D02*
X026859Y001228D01*
X026825Y001179D02*
X026417Y001179D01*
X026452Y001131D02*
X026790Y001131D01*
X026755Y001082D02*
X026486Y001082D01*
X026521Y001034D02*
X026721Y001034D01*
X026686Y000985D02*
X026556Y000985D01*
X026590Y000937D02*
X026652Y000937D01*
X027802Y000500D02*
X025440Y000500D01*
X010780Y004437D02*
X010782Y004496D01*
X010788Y004554D01*
X010798Y004612D01*
X010811Y004669D01*
X010829Y004726D01*
X010850Y004781D01*
X010875Y004834D01*
X010903Y004885D01*
X010934Y004935D01*
X010969Y004982D01*
X011007Y005027D01*
X011048Y005070D01*
X011092Y005109D01*
X011138Y005145D01*
X011186Y005179D01*
X011237Y005209D01*
X011290Y005235D01*
X011344Y005258D01*
X011399Y005277D01*
X011456Y005293D01*
X011514Y005305D01*
X011572Y005313D01*
X011631Y005317D01*
X011689Y005317D01*
X011748Y005313D01*
X011806Y005305D01*
X011864Y005293D01*
X011921Y005277D01*
X011976Y005258D01*
X012030Y005235D01*
X012083Y005209D01*
X012134Y005179D01*
X012182Y005145D01*
X012228Y005109D01*
X012272Y005070D01*
X012313Y005027D01*
X012351Y004982D01*
X012386Y004935D01*
X012417Y004885D01*
X012445Y004834D01*
X012470Y004781D01*
X012491Y004726D01*
X012509Y004669D01*
X012522Y004612D01*
X012532Y004554D01*
X012538Y004496D01*
X012540Y004437D01*
X012538Y004378D01*
X012532Y004320D01*
X012522Y004262D01*
X012509Y004205D01*
X012491Y004148D01*
X012470Y004093D01*
X012445Y004040D01*
X012417Y003989D01*
X012386Y003939D01*
X012351Y003892D01*
X012313Y003847D01*
X012272Y003804D01*
X012228Y003765D01*
X012182Y003729D01*
X012134Y003695D01*
X012083Y003665D01*
X012030Y003639D01*
X011976Y003616D01*
X011921Y003597D01*
X011864Y003581D01*
X011806Y003569D01*
X011748Y003561D01*
X011689Y003557D01*
X011631Y003557D01*
X011572Y003561D01*
X011514Y003569D01*
X011456Y003581D01*
X011399Y003597D01*
X011344Y003616D01*
X011290Y003639D01*
X011237Y003665D01*
X011186Y003695D01*
X011138Y003729D01*
X011092Y003765D01*
X011048Y003804D01*
X011007Y003847D01*
X010969Y003892D01*
X010934Y003939D01*
X010903Y003989D01*
X010875Y004040D01*
X010850Y004093D01*
X010829Y004148D01*
X010811Y004205D01*
X010798Y004262D01*
X010788Y004320D01*
X010782Y004378D01*
X010780Y004437D01*
M02*
