%
M48
M72
T01C0.0360
T02C0.0400
T03C0.0520
T04C0.1260
T05C0.2362
%
T01
X26558Y40157
X26558Y41157
X71440Y41157
X71440Y40157
T02
X56979Y31898
X55979Y31898
X55979Y30898
X56979Y30898
X56979Y29898
X55979Y29898
X55979Y28898
X56979Y28898
X56979Y27898
X55979Y27898
X55979Y26898
X56979Y26898
X56979Y25898
X55979Y25898
X55979Y24898
X56979Y24898
X56979Y23898
X55979Y23898
X55979Y22898
X56979Y22898
X56979Y21898
X55979Y21898
X55979Y20898
X56979Y20898
X56979Y19898
X55979Y19898
X55979Y18898
X56979Y18898
X56979Y17898
X55979Y17898
X55979Y16898
X56979Y16898
X56979Y15898
X55979Y15898
X55979Y14898
X56979Y14898
X56979Y13898
X55979Y13898
X55979Y12898
X56979Y12898
X56979Y11898
X55979Y11898
X55979Y10898
X56979Y10898
X56979Y9898
X55979Y9898
X55979Y8898
X56979Y8898
X56979Y7898
X55979Y7898
X55979Y6898
X56979Y6898
X100861Y6898
X101861Y6898
X101861Y7898
X100861Y7898
X100861Y8898
X101861Y8898
X101861Y9898
X100861Y9898
X100861Y10898
X100861Y11898
X101861Y11898
X101861Y10898
X101861Y12898
X100861Y12898
X100861Y13898
X101861Y13898
X101861Y14898
X100861Y14898
X100861Y15898
X101861Y15898
X101861Y16898
X100861Y16898
X100861Y17898
X101861Y17898
X101861Y18898
X100861Y18898
X100861Y19898
X101861Y19898
X101861Y20898
X100861Y20898
X100861Y21898
X101861Y21898
X101861Y22898
X100861Y22898
X100861Y23898
X101861Y23898
X101861Y24898
X101861Y25898
X100861Y25898
X100861Y24898
X100861Y26898
X101861Y26898
X101861Y27898
X100861Y27898
X100861Y28898
X101861Y28898
X101861Y29898
X100861Y29898
X100861Y30898
X101861Y30898
X101861Y31898
X100861Y31898
X138367Y31898
X139367Y31898
X139367Y30898
X138367Y30898
X138367Y29898
X139367Y29898
X139367Y28898
X138367Y28898
X138367Y27898
X139367Y27898
X139367Y26898
X138367Y26898
X138367Y25898
X139367Y25898
X139367Y24898
X138367Y24898
X138367Y23898
X139367Y23898
X139367Y22898
X138367Y22898
X138367Y21898
X139367Y21898
X139367Y20898
X138367Y20898
X138367Y19898
X139367Y19898
X139367Y18898
X138367Y18898
X138367Y17898
X139367Y17898
X139367Y16898
X138367Y16898
X138367Y15898
X139367Y15898
X139367Y14898
X138367Y14898
X138367Y13898
X139367Y13898
X139367Y12898
X138367Y12898
X138367Y11898
X139367Y11898
X139367Y10898
X138367Y10898
X138367Y9898
X139367Y9898
X139367Y8898
X138367Y8898
X138367Y7898
X139367Y7898
X139367Y6898
X138367Y6898
X12160Y6898
X11160Y6898
X11160Y7898
X12160Y7898
X12160Y8898
X11160Y8898
X11160Y9898
X12160Y9898
X12160Y10898
X12160Y11898
X11160Y11898
X11160Y10898
X11160Y12898
X12160Y12898
X12160Y13898
X11160Y13898
X11160Y14898
X12160Y14898
X12160Y15898
X11160Y15898
X11160Y16898
X12160Y16898
X12160Y17898
X11160Y17898
X11160Y18898
X12160Y18898
X12160Y19898
X11160Y19898
X11160Y20898
X12160Y20898
X12160Y21898
X11160Y21898
X11160Y22898
X12160Y22898
X12160Y23898
X11160Y23898
X11160Y24898
X11160Y25898
X12160Y25898
X12160Y24898
X12160Y26898
X11160Y26898
X11160Y27898
X12160Y27898
X12160Y28898
X11160Y28898
X11160Y29898
X12160Y29898
X12160Y30898
X11160Y30898
X11160Y31898
X12160Y31898
X4617Y31898
X3617Y31898
X3617Y30898
X4617Y30898
X4617Y29898
X3617Y29898
X3617Y28898
X4617Y28898
X4617Y27898
X3617Y27898
X3617Y26898
X4617Y26898
X4617Y25898
X3617Y25898
X3617Y24898
X4617Y24898
X4617Y23898
X3617Y23898
X3617Y22898
X4617Y22898
X4617Y21898
X3617Y21898
X3617Y20898
X4617Y20898
X4617Y19898
X3617Y19898
X3617Y18898
X4617Y18898
X4617Y17898
X3617Y17898
X3617Y16898
X4617Y16898
X4617Y15898
X3617Y15898
X3617Y14898
X4617Y14898
X4617Y13898
X3617Y13898
X3617Y12898
X4617Y12898
X4617Y11898
X3617Y11898
X3617Y10898
X4617Y10898
X4617Y9898
X3617Y9898
X3617Y8898
X4617Y8898
X4617Y7898
X3617Y7898
X3617Y6898
X4617Y6898
T03
X4117Y34358
X48999Y34358
X93881Y34358
X138763Y34358
T04
X4117Y3650
X9003Y6209
X11660Y4437
X41582Y4437
X44239Y6209
X53822Y6209
X56479Y4437
X86400Y4437
X89058Y6209
X98704Y6209
X101361Y4437
X131282Y4437
X133940Y6209
X138763Y3650
X131282Y34358
X101361Y34358
X86400Y34358
X94668Y43807
X94668Y47744
X56479Y34358
X41582Y34358
X11660Y34358
X4117Y43807
X4117Y47744
X49393Y45776
X138763Y45776
T05
X123999Y45776
X116322Y45776
X108645Y45776
M30
