G75*
G70*
%OFA0B0*%
%FSLAX24Y24*%
%IPPOS*%
%LPD*%
%AMOC8*
5,1,8,0,0,1.08239X$1,22.5*
%
%ADD10C,0.0600*%
%ADD11C,0.2362*%
%ADD12C,0.2165*%
%ADD13C,0.0660*%
%ADD14C,0.4331*%
%ADD15C,0.2300*%
%ADD16R,0.0591X0.0276*%
%ADD17C,0.0850*%
%ADD18C,0.1000*%
%ADD19C,0.0500*%
%ADD20C,0.0120*%
%ADD21C,0.0160*%
%ADD22C,0.0320*%
%ADD23C,0.0100*%
D10*
X003617Y006898D03*
X004617Y006898D03*
X004617Y007898D03*
X003617Y007898D03*
X003617Y008898D03*
X004617Y008898D03*
X004617Y009898D03*
X003617Y009898D03*
X003617Y010898D03*
X003617Y011898D03*
X004617Y011898D03*
X004617Y010898D03*
X004617Y012898D03*
X003617Y012898D03*
X003617Y013898D03*
X004617Y013898D03*
X004617Y014898D03*
X003617Y014898D03*
X003617Y015898D03*
X004617Y015898D03*
X004617Y016898D03*
X003617Y016898D03*
X003617Y017898D03*
X004617Y017898D03*
X004617Y018898D03*
X003617Y018898D03*
X003617Y019898D03*
X004617Y019898D03*
X004617Y020898D03*
X003617Y020898D03*
X003617Y021898D03*
X004617Y021898D03*
X004617Y022898D03*
X003617Y022898D03*
X003617Y023898D03*
X004617Y023898D03*
X004617Y024898D03*
X004617Y025898D03*
X003617Y025898D03*
X003617Y024898D03*
X003617Y026898D03*
X004617Y026898D03*
X004617Y027898D03*
X003617Y027898D03*
X003617Y028898D03*
X004617Y028898D03*
X004617Y029898D03*
X003617Y029898D03*
X003617Y030898D03*
X004617Y030898D03*
X004617Y031898D03*
X003617Y031898D03*
X011160Y031898D03*
X012160Y031898D03*
X012160Y030898D03*
X011160Y030898D03*
X011160Y029898D03*
X012160Y029898D03*
X012160Y028898D03*
X011160Y028898D03*
X011160Y027898D03*
X012160Y027898D03*
X012160Y026898D03*
X011160Y026898D03*
X011160Y025898D03*
X012160Y025898D03*
X012160Y024898D03*
X011160Y024898D03*
X011160Y023898D03*
X012160Y023898D03*
X012160Y022898D03*
X011160Y022898D03*
X011160Y021898D03*
X012160Y021898D03*
X012160Y020898D03*
X011160Y020898D03*
X011160Y019898D03*
X012160Y019898D03*
X012160Y018898D03*
X011160Y018898D03*
X011160Y017898D03*
X012160Y017898D03*
X012160Y016898D03*
X011160Y016898D03*
X011160Y015898D03*
X012160Y015898D03*
X012160Y014898D03*
X011160Y014898D03*
X011160Y013898D03*
X012160Y013898D03*
X012160Y012898D03*
X011160Y012898D03*
X011160Y011898D03*
X012160Y011898D03*
X012160Y010898D03*
X011160Y010898D03*
X011160Y009898D03*
X012160Y009898D03*
X012160Y008898D03*
X011160Y008898D03*
X011160Y007898D03*
X012160Y007898D03*
X012160Y006898D03*
X011160Y006898D03*
X055979Y006898D03*
X056979Y006898D03*
X056979Y007898D03*
X055979Y007898D03*
X055979Y008898D03*
X056979Y008898D03*
X056979Y009898D03*
X055979Y009898D03*
X055979Y010898D03*
X055979Y011898D03*
X056979Y011898D03*
X056979Y010898D03*
X056979Y012898D03*
X055979Y012898D03*
X055979Y013898D03*
X056979Y013898D03*
X056979Y014898D03*
X055979Y014898D03*
X055979Y015898D03*
X056979Y015898D03*
X056979Y016898D03*
X055979Y016898D03*
X055979Y017898D03*
X056979Y017898D03*
X056979Y018898D03*
X055979Y018898D03*
X055979Y019898D03*
X056979Y019898D03*
X056979Y020898D03*
X055979Y020898D03*
X055979Y021898D03*
X056979Y021898D03*
X056979Y022898D03*
X055979Y022898D03*
X055979Y023898D03*
X056979Y023898D03*
X056979Y024898D03*
X056979Y025898D03*
X055979Y025898D03*
X055979Y024898D03*
X055979Y026898D03*
X056979Y026898D03*
X056979Y027898D03*
X055979Y027898D03*
X055979Y028898D03*
X056979Y028898D03*
X056979Y029898D03*
X055979Y029898D03*
X055979Y030898D03*
X056979Y030898D03*
X056979Y031898D03*
X055979Y031898D03*
X100861Y031898D03*
X101861Y031898D03*
X101861Y030898D03*
X100861Y030898D03*
X100861Y029898D03*
X101861Y029898D03*
X101861Y028898D03*
X100861Y028898D03*
X100861Y027898D03*
X101861Y027898D03*
X101861Y026898D03*
X100861Y026898D03*
X100861Y025898D03*
X101861Y025898D03*
X101861Y024898D03*
X100861Y024898D03*
X100861Y023898D03*
X101861Y023898D03*
X101861Y022898D03*
X100861Y022898D03*
X100861Y021898D03*
X101861Y021898D03*
X101861Y020898D03*
X100861Y020898D03*
X100861Y019898D03*
X101861Y019898D03*
X101861Y018898D03*
X100861Y018898D03*
X100861Y017898D03*
X101861Y017898D03*
X101861Y016898D03*
X100861Y016898D03*
X100861Y015898D03*
X101861Y015898D03*
X101861Y014898D03*
X100861Y014898D03*
X100861Y013898D03*
X101861Y013898D03*
X101861Y012898D03*
X100861Y012898D03*
X100861Y011898D03*
X101861Y011898D03*
X101861Y010898D03*
X100861Y010898D03*
X100861Y009898D03*
X101861Y009898D03*
X101861Y008898D03*
X100861Y008898D03*
X100861Y007898D03*
X101861Y007898D03*
X101861Y006898D03*
X100861Y006898D03*
X138367Y006898D03*
X139367Y006898D03*
X139367Y007898D03*
X138367Y007898D03*
X138367Y008898D03*
X139367Y008898D03*
X139367Y009898D03*
X138367Y009898D03*
X138367Y010898D03*
X138367Y011898D03*
X139367Y011898D03*
X139367Y010898D03*
X139367Y012898D03*
X138367Y012898D03*
X138367Y013898D03*
X139367Y013898D03*
X139367Y014898D03*
X138367Y014898D03*
X138367Y015898D03*
X139367Y015898D03*
X139367Y016898D03*
X138367Y016898D03*
X138367Y017898D03*
X139367Y017898D03*
X139367Y018898D03*
X138367Y018898D03*
X138367Y019898D03*
X139367Y019898D03*
X139367Y020898D03*
X138367Y020898D03*
X138367Y021898D03*
X139367Y021898D03*
X139367Y022898D03*
X138367Y022898D03*
X138367Y023898D03*
X139367Y023898D03*
X139367Y024898D03*
X139367Y025898D03*
X138367Y025898D03*
X138367Y024898D03*
X138367Y026898D03*
X139367Y026898D03*
X139367Y027898D03*
X138367Y027898D03*
X138367Y028898D03*
X139367Y028898D03*
X139367Y029898D03*
X138367Y029898D03*
X138367Y030898D03*
X139367Y030898D03*
X139367Y031898D03*
X138367Y031898D03*
D11*
X131282Y034358D03*
X101361Y034358D03*
X086400Y034358D03*
X056479Y034358D03*
X041582Y034358D03*
X011660Y034358D03*
X011660Y004437D03*
X041582Y004437D03*
X056479Y004437D03*
X086400Y004437D03*
X101361Y004437D03*
X131282Y004437D03*
D12*
X133940Y006209D03*
X098704Y006209D03*
X089058Y006209D03*
X053822Y006209D03*
X044239Y006209D03*
X009003Y006209D03*
D13*
X026558Y040157D03*
X026558Y041157D03*
X071440Y041157D03*
X071440Y040157D03*
D14*
X108645Y045776D03*
X116322Y045776D03*
X123999Y045776D03*
D15*
X138763Y045776D03*
X094668Y047744D03*
X094668Y043807D03*
X049393Y045776D03*
X004117Y047744D03*
X004117Y043807D03*
X004117Y003650D03*
X138763Y003650D03*
D16*
X132168Y002941D03*
X132168Y002193D03*
X131282Y002193D03*
X131282Y002941D03*
D17*
X138763Y034358D03*
X093881Y034358D03*
X048999Y034358D03*
X004117Y034358D03*
D18*
X104117Y033177D02*
X104117Y011130D01*
X103723Y010736D01*
X105298Y009555D02*
X106086Y010343D01*
X106086Y032390D01*
X110416Y036720D01*
X117109Y036720D01*
X123999Y043610D01*
X123999Y044791D01*
X123999Y045776D01*
X108645Y045776D02*
X108645Y037705D01*
X104117Y033177D01*
D19*
X098999Y032783D02*
X098999Y011524D01*
X100180Y010343D01*
X100861Y008898D02*
X056979Y008898D01*
X055979Y008898D01*
X012160Y008898D01*
X011160Y008898D01*
X004617Y008898D01*
X003617Y008898D01*
X004617Y010898D02*
X005853Y010898D01*
X006086Y011130D01*
X006873Y011917D01*
X006873Y033177D01*
X014853Y041157D01*
X026558Y041157D01*
X071440Y041157D01*
X090625Y041157D01*
X098999Y032783D01*
X071440Y040157D02*
X066215Y040157D01*
X059235Y033177D01*
X059235Y011917D01*
X058448Y011130D01*
X058215Y010898D01*
X056979Y010898D01*
X055979Y010898D01*
X014353Y011917D02*
X013566Y011130D01*
X013334Y010898D01*
X012160Y010898D01*
X011160Y010898D01*
X014353Y011917D02*
X014353Y033177D01*
X021334Y040157D01*
X026558Y040157D01*
X104641Y008898D02*
X105298Y009555D01*
X105956Y008898D01*
X138367Y008898D01*
X139367Y008898D01*
X104641Y008898D02*
X101861Y008898D01*
X100861Y008898D01*
D20*
X100553Y009555D02*
X099393Y009555D01*
X099393Y011130D01*
X100463Y011130D01*
X100435Y011074D01*
X100412Y011005D01*
X100402Y010938D01*
X100821Y010938D01*
X100821Y010858D01*
X100402Y010858D01*
X100412Y010790D01*
X100435Y010721D01*
X100468Y010657D01*
X100510Y010598D01*
X100561Y010547D01*
X100620Y010504D01*
X100685Y010471D01*
X100753Y010449D01*
X100821Y010438D01*
X100821Y010858D01*
X100901Y010858D01*
X100901Y010938D01*
X101320Y010938D01*
X101310Y011005D01*
X101287Y011074D01*
X101259Y011130D01*
X101463Y011130D01*
X101435Y011074D01*
X101412Y011005D01*
X101402Y010938D01*
X101821Y010938D01*
X101821Y010858D01*
X101402Y010858D01*
X101412Y010790D01*
X101435Y010721D01*
X101468Y010657D01*
X101510Y010598D01*
X101561Y010547D01*
X101620Y010504D01*
X101685Y010471D01*
X101753Y010449D01*
X101821Y010438D01*
X101821Y010858D01*
X101901Y010858D01*
X101901Y010938D01*
X102320Y010938D01*
X102310Y011005D01*
X102287Y011074D01*
X102259Y011130D01*
X104511Y011130D01*
X103133Y009555D01*
X102169Y009555D01*
X102212Y009598D01*
X102255Y009657D01*
X102287Y009721D01*
X102310Y009790D01*
X102320Y009858D01*
X101901Y009858D01*
X101901Y009938D01*
X101821Y009938D01*
X101821Y010357D01*
X101753Y010346D01*
X101685Y010324D01*
X101620Y010291D01*
X101561Y010249D01*
X101510Y010197D01*
X101468Y010139D01*
X101435Y010074D01*
X101412Y010005D01*
X101402Y009938D01*
X101821Y009938D01*
X101821Y009858D01*
X101402Y009858D01*
X101412Y009790D01*
X101435Y009721D01*
X101468Y009657D01*
X101510Y009598D01*
X101553Y009555D01*
X101169Y009555D01*
X101212Y009598D01*
X101255Y009657D01*
X101287Y009721D01*
X101310Y009790D01*
X101320Y009858D01*
X100901Y009858D01*
X100901Y009938D01*
X100821Y009938D01*
X100821Y010357D01*
X100753Y010346D01*
X100685Y010324D01*
X100620Y010291D01*
X100561Y010249D01*
X100510Y010197D01*
X100468Y010139D01*
X100435Y010074D01*
X100412Y010005D01*
X100402Y009938D01*
X100821Y009938D01*
X100821Y009858D01*
X100402Y009858D01*
X100412Y009790D01*
X100435Y009721D01*
X100468Y009657D01*
X100510Y009598D01*
X100553Y009555D01*
X100491Y009625D02*
X099393Y009625D01*
X099393Y009743D02*
X100428Y009743D01*
X100408Y009980D02*
X099393Y009980D01*
X099393Y009862D02*
X100821Y009862D01*
X100901Y009862D02*
X101821Y009862D01*
X101901Y009862D02*
X103401Y009862D01*
X103505Y009980D02*
X102314Y009980D01*
X102310Y010005D02*
X102287Y010074D01*
X102255Y010139D01*
X102212Y010197D01*
X102161Y010249D01*
X102102Y010291D01*
X102038Y010324D01*
X101969Y010346D01*
X101901Y010357D01*
X101901Y009938D01*
X102320Y009938D01*
X102310Y010005D01*
X102275Y010099D02*
X103608Y010099D01*
X103712Y010217D02*
X102192Y010217D01*
X102002Y010336D02*
X103816Y010336D01*
X103919Y010454D02*
X101984Y010454D01*
X101969Y010449D02*
X102038Y010471D01*
X102102Y010504D01*
X102161Y010547D01*
X102212Y010598D01*
X102255Y010657D01*
X102287Y010721D01*
X102310Y010790D01*
X102320Y010858D01*
X101901Y010858D01*
X101901Y010438D01*
X101969Y010449D01*
X101901Y010454D02*
X101821Y010454D01*
X101738Y010454D02*
X100984Y010454D01*
X100969Y010449D02*
X101038Y010471D01*
X101102Y010504D01*
X101161Y010547D01*
X101212Y010598D01*
X101255Y010657D01*
X101287Y010721D01*
X101310Y010790D01*
X101320Y010858D01*
X100901Y010858D01*
X100901Y010438D01*
X100969Y010449D01*
X100901Y010454D02*
X100821Y010454D01*
X100738Y010454D02*
X099393Y010454D01*
X099393Y010336D02*
X100720Y010336D01*
X100821Y010336D02*
X100901Y010336D01*
X100901Y010357D02*
X100901Y009938D01*
X101320Y009938D01*
X101310Y010005D01*
X101287Y010074D01*
X101255Y010139D01*
X101212Y010197D01*
X101161Y010249D01*
X101102Y010291D01*
X101038Y010324D01*
X100969Y010346D01*
X100901Y010357D01*
X101002Y010336D02*
X101720Y010336D01*
X101821Y010336D02*
X101901Y010336D01*
X101901Y010217D02*
X101821Y010217D01*
X101821Y010099D02*
X101901Y010099D01*
X101901Y009980D02*
X101821Y009980D01*
X101530Y010217D02*
X101192Y010217D01*
X101275Y010099D02*
X101447Y010099D01*
X101408Y009980D02*
X101314Y009980D01*
X101295Y009743D02*
X101428Y009743D01*
X101491Y009625D02*
X101231Y009625D01*
X100901Y009980D02*
X100821Y009980D01*
X100821Y010099D02*
X100901Y010099D01*
X100901Y010217D02*
X100821Y010217D01*
X100530Y010217D02*
X099393Y010217D01*
X099393Y010099D02*
X100447Y010099D01*
X100536Y010573D02*
X099393Y010573D01*
X099393Y010691D02*
X100450Y010691D01*
X100409Y010810D02*
X099393Y010810D01*
X099393Y010928D02*
X100821Y010928D01*
X100901Y010928D02*
X101821Y010928D01*
X101901Y010928D02*
X104334Y010928D01*
X104230Y010810D02*
X102313Y010810D01*
X102272Y010691D02*
X104127Y010691D01*
X104023Y010573D02*
X102187Y010573D01*
X101901Y010573D02*
X101821Y010573D01*
X101821Y010691D02*
X101901Y010691D01*
X101901Y010810D02*
X101821Y010810D01*
X101536Y010573D02*
X101187Y010573D01*
X101272Y010691D02*
X101450Y010691D01*
X101409Y010810D02*
X101313Y010810D01*
X101296Y011047D02*
X101426Y011047D01*
X100901Y010810D02*
X100821Y010810D01*
X100821Y010691D02*
X100901Y010691D01*
X100901Y010573D02*
X100821Y010573D01*
X100426Y011047D02*
X099393Y011047D01*
X102296Y011047D02*
X104438Y011047D01*
X103297Y009743D02*
X102295Y009743D01*
X102231Y009625D02*
X103193Y009625D01*
D21*
X000660Y006406D02*
X000660Y000980D01*
X142220Y000980D01*
X142220Y051201D01*
X000660Y051201D01*
X000660Y007587D01*
X002149Y007587D01*
X002149Y040657D01*
X002161Y040826D01*
X002196Y040990D01*
X002255Y041148D01*
X002336Y041296D01*
X002437Y041431D01*
X002556Y041550D01*
X002691Y041651D01*
X002839Y041732D01*
X002997Y041791D01*
X003162Y041827D01*
X003330Y041839D01*
X005298Y041839D01*
X005466Y041851D01*
X005631Y041886D01*
X005789Y041945D01*
X005937Y042026D01*
X006072Y042127D01*
X006191Y042246D01*
X006292Y042381D01*
X006372Y042529D01*
X006431Y042687D01*
X006467Y042852D01*
X006479Y043020D01*
X006479Y048531D01*
X006491Y048700D01*
X006527Y048864D01*
X006586Y049022D01*
X006667Y049170D01*
X006768Y049305D01*
X006887Y049424D01*
X007022Y049525D01*
X007170Y049606D01*
X007328Y049665D01*
X007492Y049701D01*
X007660Y049713D01*
X047424Y049713D01*
X047424Y044988D01*
X047436Y044820D01*
X047472Y044655D01*
X047531Y044498D01*
X047612Y044350D01*
X047713Y044215D01*
X047832Y044096D01*
X047967Y043995D01*
X048115Y043914D01*
X048272Y043855D01*
X048437Y043819D01*
X048605Y043807D01*
X050377Y043807D01*
X050545Y043819D01*
X050710Y043855D01*
X050867Y043914D01*
X051015Y043995D01*
X051150Y044096D01*
X051269Y044215D01*
X051370Y044350D01*
X051451Y044498D01*
X051510Y044655D01*
X051546Y044820D01*
X051558Y044988D01*
X051558Y049713D01*
X092700Y049713D01*
X092700Y043020D01*
X092712Y042852D01*
X092748Y042687D01*
X092806Y042529D01*
X092887Y042381D01*
X092988Y042246D01*
X093107Y042127D01*
X093242Y042026D01*
X093390Y041945D01*
X093548Y041886D01*
X093713Y041851D01*
X093881Y041839D01*
X095456Y041839D01*
X095624Y041851D01*
X095788Y041886D01*
X095946Y041945D01*
X096094Y042026D01*
X096229Y042127D01*
X096348Y042246D01*
X096449Y042381D01*
X096530Y042529D01*
X096589Y042687D01*
X096625Y042852D01*
X096637Y043020D01*
X096637Y049713D01*
X135613Y049713D01*
X135781Y049701D01*
X135946Y049665D01*
X136104Y049606D01*
X136252Y049525D01*
X136387Y049424D01*
X136506Y049305D01*
X136607Y049170D01*
X136687Y049022D01*
X136746Y048864D01*
X136782Y048700D01*
X136794Y048531D01*
X136794Y044988D01*
X136806Y044820D01*
X136842Y044655D01*
X136901Y044498D01*
X136982Y044350D01*
X137083Y044215D01*
X137202Y044096D01*
X137337Y043995D01*
X137485Y043914D01*
X137643Y043855D01*
X137807Y043819D01*
X137975Y043807D01*
X140141Y043807D01*
X140309Y043795D01*
X140473Y043759D01*
X140631Y043700D01*
X140779Y043620D01*
X140914Y043519D01*
X141033Y043399D01*
X141134Y043265D01*
X141215Y043117D01*
X141274Y042959D01*
X141310Y042794D01*
X141322Y042626D01*
X141322Y006012D01*
X141310Y005844D01*
X141274Y005679D01*
X141215Y005521D01*
X141134Y005373D01*
X141033Y005238D01*
X140914Y005119D01*
X140779Y005018D01*
X140631Y004937D01*
X140473Y004879D01*
X140309Y004843D01*
X140141Y004831D01*
X139374Y004831D01*
X139447Y004792D01*
X139556Y004719D01*
X139657Y004636D01*
X139749Y004544D01*
X139832Y004443D01*
X139905Y004334D01*
X139966Y004219D01*
X140016Y004098D01*
X140054Y003973D01*
X140080Y003845D01*
X140091Y003730D01*
X138843Y003730D01*
X138843Y003570D01*
X140091Y003570D01*
X140080Y003454D01*
X140054Y003326D01*
X140016Y003201D01*
X139966Y003080D01*
X139905Y002965D01*
X139832Y002856D01*
X139749Y002755D01*
X139657Y002663D01*
X139556Y002580D01*
X139447Y002507D01*
X139332Y002446D01*
X139211Y002396D01*
X139086Y002358D01*
X138958Y002332D01*
X138843Y002321D01*
X138843Y003570D01*
X138683Y003570D01*
X137434Y003570D01*
X137445Y003454D01*
X137471Y003326D01*
X137509Y003201D01*
X137559Y003080D01*
X137621Y002965D01*
X137693Y002856D01*
X137776Y002755D01*
X137868Y002663D01*
X137969Y002580D01*
X138078Y002507D01*
X138193Y002446D01*
X138314Y002396D01*
X138439Y002358D01*
X138567Y002332D01*
X138683Y002321D01*
X138683Y003570D01*
X138683Y003730D01*
X137434Y003730D01*
X137445Y003845D01*
X137471Y003973D01*
X137509Y004098D01*
X137559Y004219D01*
X137621Y004334D01*
X137693Y004443D01*
X137776Y004544D01*
X137868Y004636D01*
X137969Y004719D01*
X138078Y004792D01*
X138151Y004831D01*
X136007Y004831D01*
X135839Y004843D01*
X135674Y004879D01*
X135516Y004937D01*
X135368Y005018D01*
X135233Y005119D01*
X135114Y005238D01*
X135013Y005373D01*
X134962Y005466D01*
X134955Y005456D01*
X134877Y005360D01*
X134789Y005272D01*
X134693Y005193D01*
X134590Y005124D01*
X134480Y005066D01*
X134366Y005018D01*
X134247Y004982D01*
X134125Y004958D01*
X134020Y004948D01*
X134020Y006129D01*
X133860Y006129D01*
X133860Y004948D01*
X133754Y004958D01*
X133633Y004982D01*
X133514Y005018D01*
X133399Y005066D01*
X133290Y005124D01*
X133187Y005193D01*
X133091Y005272D01*
X133003Y005360D01*
X132924Y005456D01*
X132857Y005556D01*
X132857Y002469D01*
X132580Y002469D01*
X132608Y002441D01*
X132631Y002400D01*
X132643Y002354D01*
X132643Y002193D01*
X132168Y002193D01*
X132168Y002193D01*
X131282Y002193D01*
X131282Y002193D01*
X130807Y002193D01*
X130807Y002354D01*
X130819Y002400D01*
X130843Y002441D01*
X130870Y002469D01*
X100967Y002469D01*
X100799Y002481D01*
X100635Y002516D01*
X100477Y002575D01*
X100329Y002656D01*
X100194Y002757D01*
X100075Y002876D01*
X099974Y003011D01*
X099893Y003159D01*
X099834Y003317D01*
X099798Y003482D01*
X099786Y003650D01*
X099786Y005556D01*
X099719Y005456D01*
X099640Y005360D01*
X099553Y005272D01*
X099457Y005193D01*
X099354Y005124D01*
X099244Y005066D01*
X099130Y005018D01*
X099011Y004982D01*
X098889Y004958D01*
X098784Y004948D01*
X098784Y006129D01*
X098624Y006129D01*
X098624Y004948D01*
X098518Y004958D01*
X098396Y004982D01*
X098278Y005018D01*
X098163Y005066D01*
X098054Y005124D01*
X097951Y005193D01*
X097855Y005272D01*
X097767Y005360D01*
X097688Y005456D01*
X097619Y005559D01*
X097561Y005668D01*
X097513Y005783D01*
X097477Y005901D01*
X097453Y006023D01*
X097443Y006129D01*
X098624Y006129D01*
X098624Y006289D01*
X097443Y006289D01*
X097453Y006394D01*
X097477Y006516D01*
X097513Y006635D01*
X097561Y006749D01*
X097619Y006859D01*
X097688Y006962D01*
X097767Y007058D01*
X097855Y007145D01*
X097913Y007193D01*
X089849Y007193D01*
X089907Y007145D01*
X089995Y007058D01*
X090073Y006962D01*
X090142Y006859D01*
X090201Y006749D01*
X090248Y006635D01*
X090284Y006516D01*
X090308Y006394D01*
X090319Y006289D01*
X089138Y006289D01*
X089138Y006129D01*
X090319Y006129D01*
X090308Y006023D01*
X090284Y005901D01*
X090248Y005783D01*
X090201Y005668D01*
X090142Y005559D01*
X090073Y005456D01*
X089995Y005360D01*
X089907Y005272D01*
X089811Y005193D01*
X089708Y005124D01*
X089598Y005066D01*
X089484Y005018D01*
X089365Y004982D01*
X089243Y004958D01*
X089138Y004948D01*
X089138Y006129D01*
X088978Y006129D01*
X088978Y004948D01*
X088872Y004958D01*
X088751Y004982D01*
X088632Y005018D01*
X088517Y005066D01*
X088408Y005124D01*
X088305Y005193D01*
X088209Y005272D01*
X088121Y005360D01*
X088043Y005456D01*
X087975Y005556D01*
X087975Y003650D01*
X087963Y003482D01*
X087927Y003317D01*
X087869Y003159D01*
X087788Y003011D01*
X087687Y002876D01*
X087568Y002757D01*
X087433Y002656D01*
X087285Y002575D01*
X087127Y002516D01*
X086962Y002481D01*
X086794Y002469D01*
X056086Y002469D01*
X055917Y002481D01*
X055753Y002516D01*
X055595Y002575D01*
X055447Y002656D01*
X055312Y002757D01*
X055193Y002876D01*
X055092Y003011D01*
X055011Y003159D01*
X054952Y003317D01*
X054916Y003482D01*
X054904Y003650D01*
X054904Y005556D01*
X054837Y005456D01*
X054758Y005360D01*
X054671Y005272D01*
X054575Y005193D01*
X054472Y005124D01*
X054362Y005066D01*
X054248Y005018D01*
X054129Y004982D01*
X054007Y004958D01*
X053902Y004948D01*
X053902Y006129D01*
X053742Y006129D01*
X053742Y004948D01*
X053636Y004958D01*
X053515Y004982D01*
X053396Y005018D01*
X053281Y005066D01*
X053172Y005124D01*
X053069Y005193D01*
X052973Y005272D01*
X052885Y005360D01*
X052806Y005456D01*
X052737Y005559D01*
X052679Y005668D01*
X052631Y005783D01*
X052595Y005901D01*
X052571Y006023D01*
X052561Y006129D01*
X053742Y006129D01*
X053742Y006289D01*
X052561Y006289D01*
X052571Y006394D01*
X052595Y006516D01*
X052631Y006635D01*
X052679Y006749D01*
X052737Y006859D01*
X052806Y006962D01*
X052885Y007058D01*
X052973Y007145D01*
X053031Y007193D01*
X045030Y007193D01*
X045088Y007145D01*
X045176Y007058D01*
X045254Y006962D01*
X045323Y006859D01*
X045382Y006749D01*
X045429Y006635D01*
X045465Y006516D01*
X045490Y006394D01*
X045500Y006289D01*
X044319Y006289D01*
X044319Y006129D01*
X045500Y006129D01*
X045490Y006023D01*
X045465Y005901D01*
X045429Y005783D01*
X045382Y005668D01*
X045323Y005559D01*
X045254Y005456D01*
X045176Y005360D01*
X045088Y005272D01*
X044992Y005193D01*
X044889Y005124D01*
X044780Y005066D01*
X044665Y005018D01*
X044546Y004982D01*
X044425Y004958D01*
X044319Y004948D01*
X044319Y006129D01*
X044159Y006129D01*
X044159Y004948D01*
X044054Y004958D01*
X043932Y004982D01*
X043813Y005018D01*
X043699Y005066D01*
X043589Y005124D01*
X043486Y005193D01*
X043390Y005272D01*
X043302Y005360D01*
X043290Y005374D01*
X043290Y003650D01*
X043278Y003482D01*
X043242Y003317D01*
X043184Y003159D01*
X043103Y003011D01*
X043002Y002876D01*
X042883Y002757D01*
X042748Y002656D01*
X042600Y002575D01*
X042442Y002516D01*
X042277Y002481D01*
X042109Y002469D01*
X011204Y002469D01*
X011036Y002481D01*
X010871Y002516D01*
X010713Y002575D01*
X010565Y002656D01*
X010430Y002757D01*
X010311Y002876D01*
X010210Y003011D01*
X010129Y003159D01*
X010070Y003317D01*
X010035Y003482D01*
X010023Y003650D01*
X010023Y005462D01*
X010018Y005456D01*
X009940Y005360D01*
X009852Y005272D01*
X009756Y005193D01*
X009653Y005124D01*
X009543Y005066D01*
X009429Y005018D01*
X009310Y004982D01*
X009188Y004958D01*
X009083Y004948D01*
X009083Y006129D01*
X008923Y006129D01*
X008923Y004948D01*
X008817Y004958D01*
X008696Y004982D01*
X008577Y005018D01*
X008462Y005066D01*
X008353Y005124D01*
X008250Y005193D01*
X008154Y005272D01*
X008066Y005360D01*
X007987Y005456D01*
X007918Y005559D01*
X007860Y005668D01*
X007857Y005675D01*
X007857Y004831D01*
X004729Y004831D01*
X004802Y004792D01*
X004910Y004719D01*
X005011Y004636D01*
X005104Y004544D01*
X005187Y004443D01*
X005259Y004334D01*
X005321Y004219D01*
X005371Y004098D01*
X005409Y003973D01*
X005434Y003845D01*
X005446Y003730D01*
X004197Y003730D01*
X004197Y003570D01*
X005446Y003570D01*
X005434Y003454D01*
X005409Y003326D01*
X005371Y003201D01*
X005321Y003080D01*
X005259Y002965D01*
X005187Y002856D01*
X005104Y002755D01*
X005011Y002663D01*
X004910Y002580D01*
X004802Y002507D01*
X004686Y002446D01*
X004566Y002396D01*
X004441Y002358D01*
X004312Y002332D01*
X004197Y002321D01*
X004197Y003570D01*
X004037Y003570D01*
X002788Y003570D01*
X002800Y003454D01*
X002825Y003326D01*
X002863Y003201D01*
X002913Y003080D01*
X002975Y002965D01*
X003047Y002856D01*
X003130Y002755D01*
X003223Y002663D01*
X003324Y002580D01*
X003432Y002507D01*
X003548Y002446D01*
X003668Y002396D01*
X003793Y002358D01*
X003922Y002332D01*
X004037Y002321D01*
X004037Y003570D01*
X004037Y003730D01*
X002788Y003730D01*
X002800Y003845D01*
X002825Y003973D01*
X002863Y004098D01*
X002913Y004219D01*
X002975Y004334D01*
X003047Y004443D01*
X003130Y004544D01*
X003223Y004636D01*
X003324Y004719D01*
X003432Y004792D01*
X003505Y004831D01*
X002149Y004831D01*
X002149Y006406D01*
X000660Y006406D01*
X000660Y006365D02*
X002149Y006365D01*
X002149Y006206D02*
X000660Y006206D01*
X000660Y006048D02*
X002149Y006048D01*
X002149Y005889D02*
X000660Y005889D01*
X000660Y005731D02*
X002149Y005731D01*
X002149Y005572D02*
X000660Y005572D01*
X000660Y005414D02*
X002149Y005414D01*
X002149Y005255D02*
X000660Y005255D01*
X000660Y005097D02*
X002149Y005097D01*
X002149Y004938D02*
X000660Y004938D01*
X000660Y004780D02*
X003414Y004780D01*
X003208Y004621D02*
X000660Y004621D01*
X000660Y004463D02*
X003064Y004463D01*
X002959Y004304D02*
X000660Y004304D01*
X000660Y004146D02*
X002883Y004146D01*
X002830Y003987D02*
X000660Y003987D01*
X000660Y003829D02*
X002798Y003829D01*
X002794Y003512D02*
X000660Y003512D01*
X000660Y003670D02*
X004037Y003670D01*
X004037Y003512D02*
X004197Y003512D01*
X004197Y003670D02*
X010023Y003670D01*
X010023Y003829D02*
X005436Y003829D01*
X005405Y003987D02*
X010023Y003987D01*
X010023Y004146D02*
X005351Y004146D01*
X005275Y004304D02*
X010023Y004304D01*
X010023Y004463D02*
X005170Y004463D01*
X005027Y004621D02*
X010023Y004621D01*
X010023Y004780D02*
X004820Y004780D01*
X007857Y004938D02*
X010023Y004938D01*
X010023Y005097D02*
X009601Y005097D01*
X009831Y005255D02*
X010023Y005255D01*
X010023Y005414D02*
X009984Y005414D01*
X009083Y005414D02*
X008923Y005414D01*
X008923Y005572D02*
X009083Y005572D01*
X009083Y005731D02*
X008923Y005731D01*
X008923Y005889D02*
X009083Y005889D01*
X009083Y006048D02*
X008923Y006048D01*
X008923Y005255D02*
X009083Y005255D01*
X009083Y005097D02*
X008923Y005097D01*
X008405Y005097D02*
X007857Y005097D01*
X007857Y005255D02*
X008174Y005255D01*
X008022Y005414D02*
X007857Y005414D01*
X007857Y005572D02*
X007911Y005572D01*
X010032Y003512D02*
X005440Y003512D01*
X005414Y003353D02*
X010062Y003353D01*
X010116Y003195D02*
X005368Y003195D01*
X005297Y003036D02*
X010196Y003036D01*
X010310Y002878D02*
X005201Y002878D01*
X005067Y002719D02*
X010481Y002719D01*
X010752Y002561D02*
X004881Y002561D01*
X004580Y002402D02*
X130820Y002402D01*
X130807Y002244D02*
X000660Y002244D01*
X000660Y002402D02*
X003654Y002402D01*
X003353Y002561D02*
X000660Y002561D01*
X000660Y002719D02*
X003167Y002719D01*
X003033Y002878D02*
X000660Y002878D01*
X000660Y003036D02*
X002937Y003036D01*
X002866Y003195D02*
X000660Y003195D01*
X000660Y003353D02*
X002820Y003353D01*
X004037Y003353D02*
X004197Y003353D01*
X004197Y003195D02*
X004037Y003195D01*
X004037Y003036D02*
X004197Y003036D01*
X004197Y002878D02*
X004037Y002878D01*
X004037Y002719D02*
X004197Y002719D01*
X004197Y002561D02*
X004037Y002561D01*
X004037Y002402D02*
X004197Y002402D01*
X000660Y002085D02*
X130807Y002085D01*
X130807Y002031D02*
X130807Y002193D01*
X131282Y002193D01*
X131282Y002193D01*
X131282Y001875D01*
X130963Y001875D01*
X130918Y001887D01*
X130877Y001911D01*
X130843Y001945D01*
X130819Y001986D01*
X130807Y002031D01*
X130861Y001927D02*
X000660Y001927D01*
X000660Y001768D02*
X142220Y001768D01*
X142220Y001610D02*
X000660Y001610D01*
X000660Y001451D02*
X142220Y001451D01*
X142220Y001293D02*
X000660Y001293D01*
X000660Y001134D02*
X142220Y001134D01*
X142220Y001927D02*
X132589Y001927D01*
X132574Y001911D02*
X132608Y001945D01*
X132631Y001986D01*
X132643Y002031D01*
X132643Y002193D01*
X132168Y002193D01*
X131758Y002193D01*
X131282Y002193D01*
X131282Y001875D01*
X131601Y001875D01*
X131647Y001887D01*
X131688Y001911D01*
X131722Y001945D01*
X131725Y001951D01*
X131729Y001945D01*
X131762Y001911D01*
X131803Y001887D01*
X131849Y001875D01*
X132168Y001875D01*
X132168Y002193D01*
X132168Y002193D01*
X132168Y002193D01*
X132168Y001875D01*
X132487Y001875D01*
X132533Y001887D01*
X132574Y001911D01*
X132643Y002085D02*
X142220Y002085D01*
X142220Y002244D02*
X132643Y002244D01*
X132630Y002402D02*
X138299Y002402D01*
X137999Y002561D02*
X132857Y002561D01*
X132857Y002719D02*
X137812Y002719D01*
X137679Y002878D02*
X132857Y002878D01*
X132857Y003036D02*
X137583Y003036D01*
X137512Y003195D02*
X132857Y003195D01*
X132857Y003353D02*
X137466Y003353D01*
X137440Y003512D02*
X132857Y003512D01*
X132857Y003670D02*
X138683Y003670D01*
X138683Y003512D02*
X138843Y003512D01*
X138843Y003670D02*
X142220Y003670D01*
X142220Y003512D02*
X140086Y003512D01*
X140060Y003353D02*
X142220Y003353D01*
X142220Y003195D02*
X140014Y003195D01*
X139943Y003036D02*
X142220Y003036D01*
X142220Y002878D02*
X139846Y002878D01*
X139713Y002719D02*
X142220Y002719D01*
X142220Y002561D02*
X139527Y002561D01*
X139226Y002402D02*
X142220Y002402D01*
X138843Y002402D02*
X138683Y002402D01*
X138683Y002561D02*
X138843Y002561D01*
X138843Y002719D02*
X138683Y002719D01*
X138683Y002878D02*
X138843Y002878D01*
X138843Y003036D02*
X138683Y003036D01*
X138683Y003195D02*
X138843Y003195D01*
X138843Y003353D02*
X138683Y003353D01*
X137444Y003829D02*
X132857Y003829D01*
X132857Y003987D02*
X137475Y003987D01*
X137529Y004146D02*
X132857Y004146D01*
X132857Y004304D02*
X137604Y004304D01*
X137709Y004463D02*
X132857Y004463D01*
X132857Y004621D02*
X137853Y004621D01*
X138060Y004780D02*
X132857Y004780D01*
X132857Y004938D02*
X135515Y004938D01*
X135264Y005097D02*
X134538Y005097D01*
X134768Y005255D02*
X135102Y005255D01*
X134991Y005414D02*
X134921Y005414D01*
X134020Y005414D02*
X133860Y005414D01*
X133860Y005572D02*
X134020Y005572D01*
X134020Y005731D02*
X133860Y005731D01*
X133860Y005889D02*
X134020Y005889D01*
X134020Y006048D02*
X133860Y006048D01*
X133860Y005255D02*
X134020Y005255D01*
X134020Y005097D02*
X133860Y005097D01*
X133342Y005097D02*
X132857Y005097D01*
X132857Y005255D02*
X133112Y005255D01*
X132959Y005414D02*
X132857Y005414D01*
X139466Y004780D02*
X142220Y004780D01*
X142220Y004938D02*
X140632Y004938D01*
X140884Y005097D02*
X142220Y005097D01*
X142220Y005255D02*
X141046Y005255D01*
X141156Y005414D02*
X142220Y005414D01*
X142220Y005572D02*
X141234Y005572D01*
X141285Y005731D02*
X142220Y005731D01*
X142220Y005889D02*
X141313Y005889D01*
X141322Y006048D02*
X142220Y006048D01*
X142220Y006206D02*
X141322Y006206D01*
X141322Y006365D02*
X142220Y006365D01*
X142220Y006523D02*
X141322Y006523D01*
X141322Y006682D02*
X142220Y006682D01*
X142220Y006840D02*
X141322Y006840D01*
X141322Y006999D02*
X142220Y006999D01*
X142220Y007157D02*
X141322Y007157D01*
X141322Y007316D02*
X142220Y007316D01*
X142220Y007474D02*
X141322Y007474D01*
X141322Y007633D02*
X142220Y007633D01*
X142220Y007791D02*
X141322Y007791D01*
X141322Y007950D02*
X142220Y007950D01*
X142220Y008108D02*
X141322Y008108D01*
X141322Y008267D02*
X142220Y008267D01*
X142220Y008425D02*
X141322Y008425D01*
X141322Y008584D02*
X142220Y008584D01*
X142220Y008742D02*
X141322Y008742D01*
X141322Y008901D02*
X142220Y008901D01*
X142220Y009059D02*
X141322Y009059D01*
X141322Y009218D02*
X142220Y009218D01*
X142220Y009376D02*
X141322Y009376D01*
X141322Y009535D02*
X142220Y009535D01*
X142220Y009693D02*
X141322Y009693D01*
X141322Y009852D02*
X142220Y009852D01*
X142220Y010010D02*
X141322Y010010D01*
X141322Y010169D02*
X142220Y010169D01*
X142220Y010327D02*
X141322Y010327D01*
X141322Y010486D02*
X142220Y010486D01*
X142220Y010644D02*
X141322Y010644D01*
X141322Y010803D02*
X142220Y010803D01*
X142220Y010961D02*
X141322Y010961D01*
X141322Y011120D02*
X142220Y011120D01*
X142220Y011278D02*
X141322Y011278D01*
X141322Y011437D02*
X142220Y011437D01*
X142220Y011595D02*
X141322Y011595D01*
X141322Y011754D02*
X142220Y011754D01*
X142220Y011912D02*
X141322Y011912D01*
X141322Y012071D02*
X142220Y012071D01*
X142220Y012229D02*
X141322Y012229D01*
X141322Y012388D02*
X142220Y012388D01*
X142220Y012546D02*
X141322Y012546D01*
X141322Y012705D02*
X142220Y012705D01*
X142220Y012863D02*
X141322Y012863D01*
X141322Y013022D02*
X142220Y013022D01*
X142220Y013180D02*
X141322Y013180D01*
X141322Y013339D02*
X142220Y013339D01*
X142220Y013497D02*
X141322Y013497D01*
X141322Y013656D02*
X142220Y013656D01*
X142220Y013814D02*
X141322Y013814D01*
X141322Y013973D02*
X142220Y013973D01*
X142220Y014131D02*
X141322Y014131D01*
X141322Y014290D02*
X142220Y014290D01*
X142220Y014448D02*
X141322Y014448D01*
X141322Y014607D02*
X142220Y014607D01*
X142220Y014765D02*
X141322Y014765D01*
X141322Y014924D02*
X142220Y014924D01*
X142220Y015082D02*
X141322Y015082D01*
X141322Y015241D02*
X142220Y015241D01*
X142220Y015399D02*
X141322Y015399D01*
X141322Y015558D02*
X142220Y015558D01*
X142220Y015716D02*
X141322Y015716D01*
X141322Y015875D02*
X142220Y015875D01*
X142220Y016033D02*
X141322Y016033D01*
X141322Y016192D02*
X142220Y016192D01*
X142220Y016350D02*
X141322Y016350D01*
X141322Y016509D02*
X142220Y016509D01*
X142220Y016667D02*
X141322Y016667D01*
X141322Y016826D02*
X142220Y016826D01*
X142220Y016984D02*
X141322Y016984D01*
X141322Y017143D02*
X142220Y017143D01*
X142220Y017301D02*
X141322Y017301D01*
X141322Y017460D02*
X142220Y017460D01*
X142220Y017618D02*
X141322Y017618D01*
X141322Y017777D02*
X142220Y017777D01*
X142220Y017935D02*
X141322Y017935D01*
X141322Y018094D02*
X142220Y018094D01*
X142220Y018252D02*
X141322Y018252D01*
X141322Y018411D02*
X142220Y018411D01*
X142220Y018569D02*
X141322Y018569D01*
X141322Y018728D02*
X142220Y018728D01*
X142220Y018886D02*
X141322Y018886D01*
X141322Y019045D02*
X142220Y019045D01*
X142220Y019203D02*
X141322Y019203D01*
X141322Y019362D02*
X142220Y019362D01*
X142220Y019520D02*
X141322Y019520D01*
X141322Y019679D02*
X142220Y019679D01*
X142220Y019837D02*
X141322Y019837D01*
X141322Y019996D02*
X142220Y019996D01*
X142220Y020154D02*
X141322Y020154D01*
X141322Y020313D02*
X142220Y020313D01*
X142220Y020471D02*
X141322Y020471D01*
X141322Y020630D02*
X142220Y020630D01*
X142220Y020788D02*
X141322Y020788D01*
X141322Y020947D02*
X142220Y020947D01*
X142220Y021105D02*
X141322Y021105D01*
X141322Y021264D02*
X142220Y021264D01*
X142220Y021422D02*
X141322Y021422D01*
X141322Y021581D02*
X142220Y021581D01*
X142220Y021739D02*
X141322Y021739D01*
X141322Y021898D02*
X142220Y021898D01*
X142220Y022056D02*
X141322Y022056D01*
X141322Y022215D02*
X142220Y022215D01*
X142220Y022373D02*
X141322Y022373D01*
X141322Y022532D02*
X142220Y022532D01*
X142220Y022690D02*
X141322Y022690D01*
X141322Y022849D02*
X142220Y022849D01*
X142220Y023007D02*
X141322Y023007D01*
X141322Y023166D02*
X142220Y023166D01*
X142220Y023324D02*
X141322Y023324D01*
X141322Y023483D02*
X142220Y023483D01*
X142220Y023641D02*
X141322Y023641D01*
X141322Y023800D02*
X142220Y023800D01*
X142220Y023958D02*
X141322Y023958D01*
X141322Y024117D02*
X142220Y024117D01*
X142220Y024275D02*
X141322Y024275D01*
X141322Y024434D02*
X142220Y024434D01*
X142220Y024592D02*
X141322Y024592D01*
X141322Y024751D02*
X142220Y024751D01*
X142220Y024909D02*
X141322Y024909D01*
X141322Y025068D02*
X142220Y025068D01*
X142220Y025226D02*
X141322Y025226D01*
X141322Y025385D02*
X142220Y025385D01*
X142220Y025543D02*
X141322Y025543D01*
X141322Y025702D02*
X142220Y025702D01*
X142220Y025860D02*
X141322Y025860D01*
X141322Y026019D02*
X142220Y026019D01*
X142220Y026177D02*
X141322Y026177D01*
X141322Y026336D02*
X142220Y026336D01*
X142220Y026494D02*
X141322Y026494D01*
X141322Y026653D02*
X142220Y026653D01*
X142220Y026811D02*
X141322Y026811D01*
X141322Y026970D02*
X142220Y026970D01*
X142220Y027128D02*
X141322Y027128D01*
X141322Y027287D02*
X142220Y027287D01*
X142220Y027445D02*
X141322Y027445D01*
X141322Y027604D02*
X142220Y027604D01*
X142220Y027762D02*
X141322Y027762D01*
X141322Y027921D02*
X142220Y027921D01*
X142220Y028079D02*
X141322Y028079D01*
X141322Y028238D02*
X142220Y028238D01*
X142220Y028396D02*
X141322Y028396D01*
X141322Y028555D02*
X142220Y028555D01*
X142220Y028713D02*
X141322Y028713D01*
X141322Y028872D02*
X142220Y028872D01*
X142220Y029030D02*
X141322Y029030D01*
X141322Y029189D02*
X142220Y029189D01*
X142220Y029347D02*
X141322Y029347D01*
X141322Y029506D02*
X142220Y029506D01*
X142220Y029664D02*
X141322Y029664D01*
X141322Y029823D02*
X142220Y029823D01*
X142220Y029981D02*
X141322Y029981D01*
X141322Y030140D02*
X142220Y030140D01*
X142220Y030298D02*
X141322Y030298D01*
X141322Y030457D02*
X142220Y030457D01*
X142220Y030615D02*
X141322Y030615D01*
X141322Y030774D02*
X142220Y030774D01*
X142220Y030932D02*
X141322Y030932D01*
X141322Y031091D02*
X142220Y031091D01*
X142220Y031249D02*
X141322Y031249D01*
X141322Y031408D02*
X142220Y031408D01*
X142220Y031566D02*
X141322Y031566D01*
X141322Y031725D02*
X142220Y031725D01*
X142220Y031883D02*
X141322Y031883D01*
X141322Y032042D02*
X142220Y032042D01*
X142220Y032200D02*
X141322Y032200D01*
X141322Y032359D02*
X142220Y032359D01*
X142220Y032517D02*
X141322Y032517D01*
X141322Y032676D02*
X142220Y032676D01*
X142220Y032834D02*
X141322Y032834D01*
X141322Y032993D02*
X142220Y032993D01*
X142220Y033151D02*
X141322Y033151D01*
X141322Y033310D02*
X142220Y033310D01*
X142220Y033468D02*
X141322Y033468D01*
X141322Y033627D02*
X142220Y033627D01*
X142220Y033785D02*
X141322Y033785D01*
X141322Y033944D02*
X142220Y033944D01*
X142220Y034102D02*
X141322Y034102D01*
X141322Y034261D02*
X142220Y034261D01*
X142220Y034419D02*
X141322Y034419D01*
X141322Y034578D02*
X142220Y034578D01*
X142220Y034736D02*
X141322Y034736D01*
X141322Y034895D02*
X142220Y034895D01*
X142220Y035053D02*
X141322Y035053D01*
X141322Y035212D02*
X142220Y035212D01*
X142220Y035370D02*
X141322Y035370D01*
X141322Y035529D02*
X142220Y035529D01*
X142220Y035687D02*
X141322Y035687D01*
X141322Y035846D02*
X142220Y035846D01*
X142220Y036004D02*
X141322Y036004D01*
X141322Y036163D02*
X142220Y036163D01*
X142220Y036321D02*
X141322Y036321D01*
X141322Y036480D02*
X142220Y036480D01*
X142220Y036638D02*
X141322Y036638D01*
X141322Y036797D02*
X142220Y036797D01*
X142220Y036955D02*
X141322Y036955D01*
X141322Y037114D02*
X142220Y037114D01*
X142220Y037272D02*
X141322Y037272D01*
X141322Y037431D02*
X142220Y037431D01*
X142220Y037589D02*
X141322Y037589D01*
X141322Y037748D02*
X142220Y037748D01*
X142220Y037906D02*
X141322Y037906D01*
X141322Y038065D02*
X142220Y038065D01*
X142220Y038223D02*
X141322Y038223D01*
X141322Y038382D02*
X142220Y038382D01*
X142220Y038540D02*
X141322Y038540D01*
X141322Y038699D02*
X142220Y038699D01*
X142220Y038857D02*
X141322Y038857D01*
X141322Y039016D02*
X142220Y039016D01*
X142220Y039174D02*
X141322Y039174D01*
X141322Y039333D02*
X142220Y039333D01*
X142220Y039491D02*
X141322Y039491D01*
X141322Y039650D02*
X142220Y039650D01*
X142220Y039808D02*
X141322Y039808D01*
X141322Y039967D02*
X142220Y039967D01*
X142220Y040125D02*
X141322Y040125D01*
X141322Y040284D02*
X142220Y040284D01*
X142220Y040442D02*
X141322Y040442D01*
X141322Y040601D02*
X142220Y040601D01*
X142220Y040759D02*
X141322Y040759D01*
X141322Y040918D02*
X142220Y040918D01*
X142220Y041076D02*
X141322Y041076D01*
X141322Y041235D02*
X142220Y041235D01*
X142220Y041393D02*
X141322Y041393D01*
X141322Y041552D02*
X142220Y041552D01*
X142220Y041710D02*
X141322Y041710D01*
X141322Y041869D02*
X142220Y041869D01*
X142220Y042027D02*
X141322Y042027D01*
X141322Y042186D02*
X142220Y042186D01*
X142220Y042344D02*
X141322Y042344D01*
X141322Y042503D02*
X142220Y042503D01*
X142220Y042661D02*
X141319Y042661D01*
X141304Y042820D02*
X142220Y042820D01*
X142220Y042978D02*
X141267Y042978D01*
X141204Y043137D02*
X142220Y043137D01*
X142220Y043295D02*
X141111Y043295D01*
X140979Y043454D02*
X142220Y043454D01*
X142220Y043612D02*
X140789Y043612D01*
X140421Y043771D02*
X142220Y043771D01*
X142220Y043929D02*
X137457Y043929D01*
X137213Y044088D02*
X142220Y044088D01*
X142220Y044246D02*
X137059Y044246D01*
X136952Y044405D02*
X142220Y044405D01*
X142220Y044563D02*
X139311Y044563D01*
X139332Y044572D02*
X139447Y044633D01*
X139556Y044706D01*
X139657Y044789D01*
X139749Y044881D01*
X139832Y044982D01*
X139905Y045091D01*
X139966Y045206D01*
X140016Y045327D01*
X140054Y045452D01*
X140080Y045580D01*
X140091Y045696D01*
X138843Y045696D01*
X138843Y045856D01*
X138683Y045856D01*
X138683Y047104D01*
X138567Y047093D01*
X138439Y047067D01*
X138314Y047029D01*
X138193Y046979D01*
X138078Y046918D01*
X137969Y046845D01*
X137868Y046762D01*
X137776Y046670D01*
X137693Y046569D01*
X137621Y046460D01*
X137559Y046345D01*
X137509Y046224D01*
X137471Y046099D01*
X137445Y045971D01*
X137434Y045856D01*
X138683Y045856D01*
X138683Y045696D01*
X137434Y045696D01*
X137445Y045580D01*
X137471Y045452D01*
X137509Y045327D01*
X137559Y045206D01*
X137621Y045091D01*
X137693Y044982D01*
X137776Y044881D01*
X137868Y044789D01*
X137969Y044706D01*
X138078Y044633D01*
X138193Y044572D01*
X138314Y044522D01*
X138439Y044484D01*
X138567Y044458D01*
X138683Y044447D01*
X138683Y045696D01*
X138843Y045696D01*
X138843Y044447D01*
X138958Y044458D01*
X139086Y044484D01*
X139211Y044522D01*
X139332Y044572D01*
X139575Y044722D02*
X142220Y044722D01*
X142220Y044880D02*
X139748Y044880D01*
X139870Y045039D02*
X142220Y045039D01*
X142220Y045197D02*
X139962Y045197D01*
X140025Y045356D02*
X142220Y045356D01*
X142220Y045514D02*
X140067Y045514D01*
X140089Y045673D02*
X142220Y045673D01*
X142220Y045831D02*
X138843Y045831D01*
X138843Y045856D02*
X140091Y045856D01*
X140080Y045971D01*
X140054Y046099D01*
X140016Y046224D01*
X139966Y046345D01*
X139905Y046460D01*
X139832Y046569D01*
X139749Y046670D01*
X139657Y046762D01*
X139556Y046845D01*
X139447Y046918D01*
X139332Y046979D01*
X139211Y047029D01*
X139086Y047067D01*
X138958Y047093D01*
X138843Y047104D01*
X138843Y045856D01*
X138843Y045990D02*
X138683Y045990D01*
X138683Y046148D02*
X138843Y046148D01*
X138843Y046307D02*
X138683Y046307D01*
X138683Y046465D02*
X138843Y046465D01*
X138843Y046624D02*
X138683Y046624D01*
X138683Y046782D02*
X138843Y046782D01*
X138843Y046941D02*
X138683Y046941D01*
X138683Y047099D02*
X138843Y047099D01*
X138894Y047099D02*
X142220Y047099D01*
X142220Y046941D02*
X139405Y046941D01*
X139633Y046782D02*
X142220Y046782D01*
X142220Y046624D02*
X139787Y046624D01*
X139902Y046465D02*
X142220Y046465D01*
X142220Y046307D02*
X139982Y046307D01*
X140040Y046148D02*
X142220Y046148D01*
X142220Y045990D02*
X140076Y045990D01*
X138843Y045673D02*
X138683Y045673D01*
X138683Y045831D02*
X136794Y045831D01*
X136794Y045673D02*
X137436Y045673D01*
X137459Y045514D02*
X136794Y045514D01*
X136794Y045356D02*
X137500Y045356D01*
X137564Y045197D02*
X136794Y045197D01*
X136794Y045039D02*
X137656Y045039D01*
X137777Y044880D02*
X136802Y044880D01*
X136828Y044722D02*
X137951Y044722D01*
X138215Y044563D02*
X136876Y044563D01*
X138683Y044563D02*
X138843Y044563D01*
X138843Y044722D02*
X138683Y044722D01*
X138683Y044880D02*
X138843Y044880D01*
X138843Y045039D02*
X138683Y045039D01*
X138683Y045197D02*
X138843Y045197D01*
X138843Y045356D02*
X138683Y045356D01*
X138683Y045514D02*
X138843Y045514D01*
X137449Y045990D02*
X136794Y045990D01*
X136794Y046148D02*
X137486Y046148D01*
X137543Y046307D02*
X136794Y046307D01*
X136794Y046465D02*
X137624Y046465D01*
X137738Y046624D02*
X136794Y046624D01*
X136794Y046782D02*
X137893Y046782D01*
X138121Y046941D02*
X136794Y046941D01*
X136794Y047099D02*
X138631Y047099D01*
X136794Y047258D02*
X142220Y047258D01*
X142220Y047416D02*
X136794Y047416D01*
X136794Y047575D02*
X142220Y047575D01*
X142220Y047733D02*
X136794Y047733D01*
X136794Y047892D02*
X142220Y047892D01*
X142220Y048050D02*
X136794Y048050D01*
X136794Y048209D02*
X142220Y048209D01*
X142220Y048367D02*
X136794Y048367D01*
X136794Y048526D02*
X142220Y048526D01*
X142220Y048684D02*
X136783Y048684D01*
X136751Y048843D02*
X142220Y048843D01*
X142220Y049001D02*
X136695Y049001D01*
X136612Y049160D02*
X142220Y049160D01*
X142220Y049318D02*
X136493Y049318D01*
X136316Y049477D02*
X142220Y049477D01*
X142220Y049635D02*
X136025Y049635D01*
X142220Y049794D02*
X000660Y049794D01*
X000660Y049952D02*
X142220Y049952D01*
X142220Y050111D02*
X000660Y050111D01*
X000660Y050269D02*
X142220Y050269D01*
X142220Y050428D02*
X000660Y050428D01*
X000660Y050586D02*
X142220Y050586D01*
X142220Y050745D02*
X000660Y050745D01*
X000660Y050903D02*
X142220Y050903D01*
X142220Y051062D02*
X000660Y051062D01*
X000660Y049635D02*
X007248Y049635D01*
X006957Y049477D02*
X000660Y049477D01*
X000660Y049318D02*
X006781Y049318D01*
X006661Y049160D02*
X000660Y049160D01*
X000660Y049001D02*
X003679Y049001D01*
X003668Y048998D02*
X003548Y048948D01*
X003432Y048886D01*
X003324Y048814D01*
X003223Y048731D01*
X003130Y048638D01*
X003047Y048537D01*
X002975Y048429D01*
X002913Y048313D01*
X002863Y048193D01*
X002825Y048068D01*
X002800Y047939D01*
X002788Y047824D01*
X004037Y047824D01*
X004037Y047664D01*
X004197Y047664D01*
X004197Y046416D01*
X004312Y046427D01*
X004441Y046452D01*
X004566Y046490D01*
X004686Y046540D01*
X004802Y046602D01*
X004910Y046675D01*
X005011Y046757D01*
X005104Y046850D01*
X005187Y046951D01*
X005259Y047060D01*
X005321Y047175D01*
X005371Y047295D01*
X005409Y047421D01*
X005434Y047549D01*
X005446Y047664D01*
X004197Y047664D01*
X004197Y047824D01*
X005446Y047824D01*
X005434Y047939D01*
X005409Y048068D01*
X005371Y048193D01*
X005321Y048313D01*
X005259Y048429D01*
X005187Y048537D01*
X005104Y048638D01*
X005011Y048731D01*
X004910Y048814D01*
X004802Y048886D01*
X004686Y048948D01*
X004566Y048998D01*
X004441Y049036D01*
X004312Y049061D01*
X004197Y049073D01*
X004197Y047824D01*
X004037Y047824D01*
X004037Y049073D01*
X003922Y049061D01*
X003793Y049036D01*
X003668Y048998D01*
X003367Y048843D02*
X000660Y048843D01*
X000660Y048684D02*
X003176Y048684D01*
X003040Y048526D02*
X000660Y048526D01*
X000660Y048367D02*
X002942Y048367D01*
X002870Y048209D02*
X000660Y048209D01*
X000660Y048050D02*
X002822Y048050D01*
X002795Y047892D02*
X000660Y047892D01*
X000660Y047733D02*
X004037Y047733D01*
X004037Y047664D02*
X002788Y047664D01*
X002800Y047549D01*
X002825Y047421D01*
X002863Y047295D01*
X002913Y047175D01*
X002975Y047060D01*
X003047Y046951D01*
X003130Y046850D01*
X003223Y046757D01*
X003324Y046675D01*
X003432Y046602D01*
X003548Y046540D01*
X003668Y046490D01*
X003793Y046452D01*
X003922Y046427D01*
X004037Y046416D01*
X004037Y047664D01*
X004037Y047575D02*
X004197Y047575D01*
X004197Y047733D02*
X006479Y047733D01*
X006479Y047575D02*
X005437Y047575D01*
X005407Y047416D02*
X006479Y047416D01*
X006479Y047258D02*
X005355Y047258D01*
X005280Y047099D02*
X006479Y047099D01*
X006479Y046941D02*
X005178Y046941D01*
X005036Y046782D02*
X006479Y046782D01*
X006479Y046624D02*
X004834Y046624D01*
X004482Y046465D02*
X006479Y046465D01*
X006479Y046307D02*
X000660Y046307D01*
X000660Y046465D02*
X003752Y046465D01*
X004037Y046465D02*
X004197Y046465D01*
X004197Y046624D02*
X004037Y046624D01*
X004037Y046782D02*
X004197Y046782D01*
X004197Y046941D02*
X004037Y046941D01*
X004037Y047099D02*
X004197Y047099D01*
X004197Y047258D02*
X004037Y047258D01*
X004037Y047416D02*
X004197Y047416D01*
X004197Y047892D02*
X004037Y047892D01*
X004037Y048050D02*
X004197Y048050D01*
X004197Y048209D02*
X004037Y048209D01*
X004037Y048367D02*
X004197Y048367D01*
X004197Y048526D02*
X004037Y048526D01*
X004037Y048684D02*
X004197Y048684D01*
X004197Y048843D02*
X004037Y048843D01*
X004037Y049001D02*
X004197Y049001D01*
X004555Y049001D02*
X006578Y049001D01*
X006522Y048843D02*
X004867Y048843D01*
X005058Y048684D02*
X006490Y048684D01*
X006479Y048526D02*
X005194Y048526D01*
X005292Y048367D02*
X006479Y048367D01*
X006479Y048209D02*
X005364Y048209D01*
X005412Y048050D02*
X006479Y048050D01*
X006479Y047892D02*
X005439Y047892D01*
X002879Y047258D02*
X000660Y047258D01*
X000660Y047416D02*
X002827Y047416D01*
X002797Y047575D02*
X000660Y047575D01*
X000660Y047099D02*
X002954Y047099D01*
X003056Y046941D02*
X000660Y046941D01*
X000660Y046782D02*
X003198Y046782D01*
X003400Y046624D02*
X000660Y046624D01*
X000660Y046148D02*
X006479Y046148D01*
X006479Y045990D02*
X000660Y045990D01*
X000660Y045831D02*
X006479Y045831D01*
X006479Y045673D02*
X000660Y045673D01*
X000660Y045514D02*
X006479Y045514D01*
X006479Y045356D02*
X000660Y045356D01*
X000660Y045197D02*
X006479Y045197D01*
X006479Y045039D02*
X004619Y045039D01*
X004566Y045061D02*
X004441Y045099D01*
X004312Y045124D01*
X004197Y045136D01*
X004197Y043887D01*
X005446Y043887D01*
X005434Y044002D01*
X005409Y044131D01*
X005371Y044256D01*
X005321Y044376D01*
X005259Y044492D01*
X005187Y044600D01*
X005104Y044701D01*
X005011Y044794D01*
X004910Y044877D01*
X004802Y044949D01*
X004686Y045011D01*
X004566Y045061D01*
X004197Y045039D02*
X004037Y045039D01*
X004037Y045136D02*
X003922Y045124D01*
X003793Y045099D01*
X003668Y045061D01*
X003548Y045011D01*
X003432Y044949D01*
X003324Y044877D01*
X003223Y044794D01*
X003130Y044701D01*
X003047Y044600D01*
X002975Y044492D01*
X002913Y044376D01*
X002863Y044256D01*
X002825Y044131D01*
X002800Y044002D01*
X002788Y043887D01*
X004037Y043887D01*
X004037Y043727D01*
X004197Y043727D01*
X004197Y042479D01*
X004312Y042490D01*
X004441Y042515D01*
X004566Y042553D01*
X004686Y042603D01*
X004802Y042665D01*
X004910Y042738D01*
X005011Y042820D01*
X005104Y042913D01*
X005187Y043014D01*
X005259Y043123D01*
X005321Y043238D01*
X005371Y043358D01*
X005409Y043484D01*
X005434Y043612D01*
X006479Y043612D01*
X006479Y043454D02*
X005400Y043454D01*
X005434Y043612D02*
X005446Y043727D01*
X004197Y043727D01*
X004197Y043887D01*
X004037Y043887D01*
X004037Y045136D01*
X004037Y044880D02*
X004197Y044880D01*
X004197Y044722D02*
X004037Y044722D01*
X004037Y044563D02*
X004197Y044563D01*
X004197Y044405D02*
X004037Y044405D01*
X004037Y044246D02*
X004197Y044246D01*
X004197Y044088D02*
X004037Y044088D01*
X004037Y043929D02*
X004197Y043929D01*
X004197Y043771D02*
X006479Y043771D01*
X006479Y043929D02*
X005441Y043929D01*
X005417Y044088D02*
X006479Y044088D01*
X006479Y044246D02*
X005374Y044246D01*
X005306Y044405D02*
X006479Y044405D01*
X006479Y044563D02*
X005211Y044563D01*
X005083Y044722D02*
X006479Y044722D01*
X006479Y044880D02*
X004905Y044880D01*
X003615Y045039D02*
X000660Y045039D01*
X000660Y044880D02*
X003329Y044880D01*
X003151Y044722D02*
X000660Y044722D01*
X000660Y044563D02*
X003023Y044563D01*
X002928Y044405D02*
X000660Y044405D01*
X000660Y044246D02*
X002860Y044246D01*
X002817Y044088D02*
X000660Y044088D01*
X000660Y043929D02*
X002793Y043929D01*
X002788Y043727D02*
X002800Y043612D01*
X000660Y043612D01*
X000660Y043454D02*
X002834Y043454D01*
X002825Y043484D02*
X002863Y043358D01*
X002913Y043238D01*
X002975Y043123D01*
X003047Y043014D01*
X003130Y042913D01*
X003223Y042820D01*
X003324Y042738D01*
X003432Y042665D01*
X003548Y042603D01*
X003668Y042553D01*
X003793Y042515D01*
X003922Y042490D01*
X004037Y042479D01*
X004037Y043727D01*
X002788Y043727D01*
X002800Y043612D02*
X002825Y043484D01*
X002890Y043295D02*
X000660Y043295D01*
X000660Y043137D02*
X002967Y043137D01*
X003077Y042978D02*
X000660Y042978D01*
X000660Y042820D02*
X003224Y042820D01*
X003440Y042661D02*
X000660Y042661D01*
X000660Y042503D02*
X003858Y042503D01*
X004037Y042503D02*
X004197Y042503D01*
X004197Y042661D02*
X004037Y042661D01*
X004037Y042820D02*
X004197Y042820D01*
X004197Y042978D02*
X004037Y042978D01*
X004037Y043137D02*
X004197Y043137D01*
X004197Y043295D02*
X004037Y043295D01*
X004037Y043454D02*
X004197Y043454D01*
X004197Y043612D02*
X004037Y043612D01*
X004037Y043771D02*
X000660Y043771D01*
X000660Y042344D02*
X006264Y042344D01*
X006358Y042503D02*
X004376Y042503D01*
X004794Y042661D02*
X006422Y042661D01*
X006460Y042820D02*
X005010Y042820D01*
X005157Y042978D02*
X006476Y042978D01*
X006479Y043137D02*
X005267Y043137D01*
X005345Y043295D02*
X006479Y043295D01*
X006130Y042186D02*
X000660Y042186D01*
X000660Y042027D02*
X005938Y042027D01*
X005549Y041869D02*
X000660Y041869D01*
X000660Y041710D02*
X002799Y041710D01*
X002558Y041552D02*
X000660Y041552D01*
X000660Y041393D02*
X002409Y041393D01*
X002302Y041235D02*
X000660Y041235D01*
X000660Y041076D02*
X002228Y041076D01*
X002181Y040918D02*
X000660Y040918D01*
X000660Y040759D02*
X002156Y040759D01*
X002149Y040601D02*
X000660Y040601D01*
X000660Y040442D02*
X002149Y040442D01*
X002149Y040284D02*
X000660Y040284D01*
X000660Y040125D02*
X002149Y040125D01*
X002149Y039967D02*
X000660Y039967D01*
X000660Y039808D02*
X002149Y039808D01*
X002149Y039650D02*
X000660Y039650D01*
X000660Y039491D02*
X002149Y039491D01*
X002149Y039333D02*
X000660Y039333D01*
X000660Y039174D02*
X002149Y039174D01*
X002149Y039016D02*
X000660Y039016D01*
X000660Y038857D02*
X002149Y038857D01*
X002149Y038699D02*
X000660Y038699D01*
X000660Y038540D02*
X002149Y038540D01*
X002149Y038382D02*
X000660Y038382D01*
X000660Y038223D02*
X002149Y038223D01*
X002149Y038065D02*
X000660Y038065D01*
X000660Y037906D02*
X002149Y037906D01*
X002149Y037748D02*
X000660Y037748D01*
X000660Y037589D02*
X002149Y037589D01*
X002149Y037431D02*
X000660Y037431D01*
X000660Y037272D02*
X002149Y037272D01*
X002149Y037114D02*
X000660Y037114D01*
X000660Y036955D02*
X002149Y036955D01*
X002149Y036797D02*
X000660Y036797D01*
X000660Y036638D02*
X002149Y036638D01*
X002149Y036480D02*
X000660Y036480D01*
X000660Y036321D02*
X002149Y036321D01*
X002149Y036163D02*
X000660Y036163D01*
X000660Y036004D02*
X002149Y036004D01*
X002149Y035846D02*
X000660Y035846D01*
X000660Y035687D02*
X002149Y035687D01*
X002149Y035529D02*
X000660Y035529D01*
X000660Y035370D02*
X002149Y035370D01*
X002149Y035212D02*
X000660Y035212D01*
X000660Y035053D02*
X002149Y035053D01*
X002149Y034895D02*
X000660Y034895D01*
X000660Y034736D02*
X002149Y034736D01*
X002149Y034578D02*
X000660Y034578D01*
X000660Y034419D02*
X002149Y034419D01*
X002149Y034261D02*
X000660Y034261D01*
X000660Y034102D02*
X002149Y034102D01*
X002149Y033944D02*
X000660Y033944D01*
X000660Y033785D02*
X002149Y033785D01*
X002149Y033627D02*
X000660Y033627D01*
X000660Y033468D02*
X002149Y033468D01*
X002149Y033310D02*
X000660Y033310D01*
X000660Y033151D02*
X002149Y033151D01*
X002149Y032993D02*
X000660Y032993D01*
X000660Y032834D02*
X002149Y032834D01*
X002149Y032676D02*
X000660Y032676D01*
X000660Y032517D02*
X002149Y032517D01*
X002149Y032359D02*
X000660Y032359D01*
X000660Y032200D02*
X002149Y032200D01*
X002149Y032042D02*
X000660Y032042D01*
X000660Y031883D02*
X002149Y031883D01*
X002149Y031725D02*
X000660Y031725D01*
X000660Y031566D02*
X002149Y031566D01*
X002149Y031408D02*
X000660Y031408D01*
X000660Y031249D02*
X002149Y031249D01*
X002149Y031091D02*
X000660Y031091D01*
X000660Y030932D02*
X002149Y030932D01*
X002149Y030774D02*
X000660Y030774D01*
X000660Y030615D02*
X002149Y030615D01*
X002149Y030457D02*
X000660Y030457D01*
X000660Y030298D02*
X002149Y030298D01*
X002149Y030140D02*
X000660Y030140D01*
X000660Y029981D02*
X002149Y029981D01*
X002149Y029823D02*
X000660Y029823D01*
X000660Y029664D02*
X002149Y029664D01*
X002149Y029506D02*
X000660Y029506D01*
X000660Y029347D02*
X002149Y029347D01*
X002149Y029189D02*
X000660Y029189D01*
X000660Y029030D02*
X002149Y029030D01*
X002149Y028872D02*
X000660Y028872D01*
X000660Y028713D02*
X002149Y028713D01*
X002149Y028555D02*
X000660Y028555D01*
X000660Y028396D02*
X002149Y028396D01*
X002149Y028238D02*
X000660Y028238D01*
X000660Y028079D02*
X002149Y028079D01*
X002149Y027921D02*
X000660Y027921D01*
X000660Y027762D02*
X002149Y027762D01*
X002149Y027604D02*
X000660Y027604D01*
X000660Y027445D02*
X002149Y027445D01*
X002149Y027287D02*
X000660Y027287D01*
X000660Y027128D02*
X002149Y027128D01*
X002149Y026970D02*
X000660Y026970D01*
X000660Y026811D02*
X002149Y026811D01*
X002149Y026653D02*
X000660Y026653D01*
X000660Y026494D02*
X002149Y026494D01*
X002149Y026336D02*
X000660Y026336D01*
X000660Y026177D02*
X002149Y026177D01*
X002149Y026019D02*
X000660Y026019D01*
X000660Y025860D02*
X002149Y025860D01*
X002149Y025702D02*
X000660Y025702D01*
X000660Y025543D02*
X002149Y025543D01*
X002149Y025385D02*
X000660Y025385D01*
X000660Y025226D02*
X002149Y025226D01*
X002149Y025068D02*
X000660Y025068D01*
X000660Y024909D02*
X002149Y024909D01*
X002149Y024751D02*
X000660Y024751D01*
X000660Y024592D02*
X002149Y024592D01*
X002149Y024434D02*
X000660Y024434D01*
X000660Y024275D02*
X002149Y024275D01*
X002149Y024117D02*
X000660Y024117D01*
X000660Y023958D02*
X002149Y023958D01*
X002149Y023800D02*
X000660Y023800D01*
X000660Y023641D02*
X002149Y023641D01*
X002149Y023483D02*
X000660Y023483D01*
X000660Y023324D02*
X002149Y023324D01*
X002149Y023166D02*
X000660Y023166D01*
X000660Y023007D02*
X002149Y023007D01*
X002149Y022849D02*
X000660Y022849D01*
X000660Y022690D02*
X002149Y022690D01*
X002149Y022532D02*
X000660Y022532D01*
X000660Y022373D02*
X002149Y022373D01*
X002149Y022215D02*
X000660Y022215D01*
X000660Y022056D02*
X002149Y022056D01*
X002149Y021898D02*
X000660Y021898D01*
X000660Y021739D02*
X002149Y021739D01*
X002149Y021581D02*
X000660Y021581D01*
X000660Y021422D02*
X002149Y021422D01*
X002149Y021264D02*
X000660Y021264D01*
X000660Y021105D02*
X002149Y021105D01*
X002149Y020947D02*
X000660Y020947D01*
X000660Y020788D02*
X002149Y020788D01*
X002149Y020630D02*
X000660Y020630D01*
X000660Y020471D02*
X002149Y020471D01*
X002149Y020313D02*
X000660Y020313D01*
X000660Y020154D02*
X002149Y020154D01*
X002149Y019996D02*
X000660Y019996D01*
X000660Y019837D02*
X002149Y019837D01*
X002149Y019679D02*
X000660Y019679D01*
X000660Y019520D02*
X002149Y019520D01*
X002149Y019362D02*
X000660Y019362D01*
X000660Y019203D02*
X002149Y019203D01*
X002149Y019045D02*
X000660Y019045D01*
X000660Y018886D02*
X002149Y018886D01*
X002149Y018728D02*
X000660Y018728D01*
X000660Y018569D02*
X002149Y018569D01*
X002149Y018411D02*
X000660Y018411D01*
X000660Y018252D02*
X002149Y018252D01*
X002149Y018094D02*
X000660Y018094D01*
X000660Y017935D02*
X002149Y017935D01*
X002149Y017777D02*
X000660Y017777D01*
X000660Y017618D02*
X002149Y017618D01*
X002149Y017460D02*
X000660Y017460D01*
X000660Y017301D02*
X002149Y017301D01*
X002149Y017143D02*
X000660Y017143D01*
X000660Y016984D02*
X002149Y016984D01*
X002149Y016826D02*
X000660Y016826D01*
X000660Y016667D02*
X002149Y016667D01*
X002149Y016509D02*
X000660Y016509D01*
X000660Y016350D02*
X002149Y016350D01*
X002149Y016192D02*
X000660Y016192D01*
X000660Y016033D02*
X002149Y016033D01*
X002149Y015875D02*
X000660Y015875D01*
X000660Y015716D02*
X002149Y015716D01*
X002149Y015558D02*
X000660Y015558D01*
X000660Y015399D02*
X002149Y015399D01*
X002149Y015241D02*
X000660Y015241D01*
X000660Y015082D02*
X002149Y015082D01*
X002149Y014924D02*
X000660Y014924D01*
X000660Y014765D02*
X002149Y014765D01*
X002149Y014607D02*
X000660Y014607D01*
X000660Y014448D02*
X002149Y014448D01*
X002149Y014290D02*
X000660Y014290D01*
X000660Y014131D02*
X002149Y014131D01*
X002149Y013973D02*
X000660Y013973D01*
X000660Y013814D02*
X002149Y013814D01*
X002149Y013656D02*
X000660Y013656D01*
X000660Y013497D02*
X002149Y013497D01*
X002149Y013339D02*
X000660Y013339D01*
X000660Y013180D02*
X002149Y013180D01*
X002149Y013022D02*
X000660Y013022D01*
X000660Y012863D02*
X002149Y012863D01*
X002149Y012705D02*
X000660Y012705D01*
X000660Y012546D02*
X002149Y012546D01*
X002149Y012388D02*
X000660Y012388D01*
X000660Y012229D02*
X002149Y012229D01*
X002149Y012071D02*
X000660Y012071D01*
X000660Y011912D02*
X002149Y011912D01*
X002149Y011754D02*
X000660Y011754D01*
X000660Y011595D02*
X002149Y011595D01*
X002149Y011437D02*
X000660Y011437D01*
X000660Y011278D02*
X002149Y011278D01*
X002149Y011120D02*
X000660Y011120D01*
X000660Y010961D02*
X002149Y010961D01*
X002149Y010803D02*
X000660Y010803D01*
X000660Y010644D02*
X002149Y010644D01*
X002149Y010486D02*
X000660Y010486D01*
X000660Y010327D02*
X002149Y010327D01*
X002149Y010169D02*
X000660Y010169D01*
X000660Y010010D02*
X002149Y010010D01*
X002149Y009852D02*
X000660Y009852D01*
X000660Y009693D02*
X002149Y009693D01*
X002149Y009535D02*
X000660Y009535D01*
X000660Y009376D02*
X002149Y009376D01*
X002149Y009218D02*
X000660Y009218D01*
X000660Y009059D02*
X002149Y009059D01*
X002149Y008901D02*
X000660Y008901D01*
X000660Y008742D02*
X002149Y008742D01*
X002149Y008584D02*
X000660Y008584D01*
X000660Y008425D02*
X002149Y008425D01*
X002149Y008267D02*
X000660Y008267D01*
X000660Y008108D02*
X002149Y008108D01*
X002149Y007950D02*
X000660Y007950D01*
X000660Y007791D02*
X002149Y007791D01*
X002149Y007633D02*
X000660Y007633D01*
X003953Y009555D02*
X003983Y009585D01*
X004028Y009646D01*
X004062Y009713D01*
X004085Y009785D01*
X004097Y009860D01*
X004097Y009878D01*
X003637Y009878D01*
X003637Y009918D01*
X003597Y009918D01*
X003597Y010378D01*
X003579Y010378D01*
X003505Y010366D01*
X003433Y010342D01*
X003365Y010308D01*
X003330Y010282D01*
X003330Y010513D01*
X003365Y010487D01*
X003433Y010453D01*
X003505Y010429D01*
X003579Y010418D01*
X003597Y010418D01*
X003597Y010878D01*
X003637Y010878D01*
X003637Y010918D01*
X004097Y010918D01*
X004097Y010935D01*
X004085Y011010D01*
X004062Y011082D01*
X004037Y011130D01*
X004197Y011130D01*
X004172Y011082D01*
X004149Y011010D01*
X004137Y010935D01*
X004137Y010918D01*
X004597Y010918D01*
X004597Y010878D01*
X004137Y010878D01*
X004137Y010860D01*
X004149Y010785D01*
X004172Y010713D01*
X004206Y010646D01*
X004251Y010585D01*
X004304Y010532D01*
X004365Y010487D01*
X004433Y010453D01*
X004505Y010429D01*
X004579Y010418D01*
X004597Y010418D01*
X004597Y010878D01*
X004637Y010878D01*
X004637Y010918D01*
X005097Y010918D01*
X005097Y010935D01*
X005085Y011010D01*
X005062Y011082D01*
X005037Y011130D01*
X005298Y011130D01*
X005298Y009555D01*
X004953Y009555D01*
X004983Y009585D01*
X005028Y009646D01*
X005062Y009713D01*
X005085Y009785D01*
X005097Y009860D01*
X005097Y009878D01*
X004637Y009878D01*
X004637Y009918D01*
X004597Y009918D01*
X004597Y010378D01*
X004579Y010378D01*
X004505Y010366D01*
X004433Y010342D01*
X004365Y010308D01*
X004304Y010264D01*
X004251Y010210D01*
X004206Y010149D01*
X004172Y010082D01*
X004149Y010010D01*
X004085Y010010D01*
X004062Y010082D01*
X004028Y010149D01*
X003983Y010210D01*
X003930Y010264D01*
X003869Y010308D01*
X003801Y010342D01*
X003729Y010366D01*
X003655Y010378D01*
X003637Y010378D01*
X003637Y009918D01*
X004097Y009918D01*
X004097Y009935D01*
X004085Y010010D01*
X004149Y010010D02*
X004137Y009935D01*
X004137Y009918D01*
X004597Y009918D01*
X004597Y009878D01*
X004137Y009878D01*
X004137Y009860D01*
X004149Y009785D01*
X004172Y009713D01*
X004206Y009646D01*
X004251Y009585D01*
X004281Y009555D01*
X003953Y009555D01*
X004051Y009693D02*
X004183Y009693D01*
X004138Y009852D02*
X004096Y009852D01*
X004014Y010169D02*
X004221Y010169D01*
X004402Y010327D02*
X003832Y010327D01*
X003801Y010453D02*
X003869Y010487D01*
X003930Y010532D01*
X003983Y010585D01*
X004028Y010646D01*
X004062Y010713D01*
X004085Y010785D01*
X004097Y010860D01*
X004097Y010878D01*
X003637Y010878D01*
X003637Y010418D01*
X003655Y010418D01*
X003729Y010429D01*
X003801Y010453D01*
X003865Y010486D02*
X004369Y010486D01*
X004208Y010644D02*
X004026Y010644D01*
X004088Y010803D02*
X004146Y010803D01*
X004141Y010961D02*
X004093Y010961D01*
X004043Y011120D02*
X004191Y011120D01*
X004637Y010878D02*
X004637Y010418D01*
X004655Y010418D01*
X004729Y010429D01*
X004801Y010453D01*
X004869Y010487D01*
X004930Y010532D01*
X004983Y010585D01*
X005028Y010646D01*
X005062Y010713D01*
X005085Y010785D01*
X005097Y010860D01*
X005097Y010878D01*
X004637Y010878D01*
X004637Y010803D02*
X004597Y010803D01*
X004597Y010644D02*
X004637Y010644D01*
X004637Y010486D02*
X004597Y010486D01*
X004637Y010378D02*
X004637Y009918D01*
X005097Y009918D01*
X005097Y009935D01*
X005085Y010010D01*
X005062Y010082D01*
X005028Y010149D01*
X004983Y010210D01*
X004930Y010264D01*
X004869Y010308D01*
X004801Y010342D01*
X004729Y010366D01*
X004655Y010378D01*
X004637Y010378D01*
X004637Y010327D02*
X004597Y010327D01*
X004597Y010169D02*
X004637Y010169D01*
X004637Y010010D02*
X004597Y010010D01*
X004832Y010327D02*
X005298Y010327D01*
X005298Y010169D02*
X005014Y010169D01*
X005085Y010010D02*
X005298Y010010D01*
X005298Y009852D02*
X005096Y009852D01*
X005051Y009693D02*
X005298Y009693D01*
X003637Y010010D02*
X003597Y010010D01*
X003597Y010169D02*
X003637Y010169D01*
X003637Y010327D02*
X003597Y010327D01*
X003597Y010486D02*
X003637Y010486D01*
X003637Y010644D02*
X003597Y010644D01*
X003597Y010803D02*
X003637Y010803D01*
X003369Y010486D02*
X003330Y010486D01*
X003330Y010327D02*
X003402Y010327D01*
X004865Y010486D02*
X005298Y010486D01*
X005298Y010644D02*
X005026Y010644D01*
X005088Y010803D02*
X005298Y010803D01*
X005298Y010961D02*
X005093Y010961D01*
X005043Y011120D02*
X005298Y011120D01*
X010810Y010569D02*
X010810Y010226D01*
X010848Y010264D01*
X010909Y010308D01*
X010976Y010342D01*
X011048Y010366D01*
X011123Y010378D01*
X011140Y010378D01*
X011140Y009918D01*
X011180Y009918D01*
X011180Y010378D01*
X011198Y010378D01*
X011273Y010366D01*
X011345Y010342D01*
X011412Y010308D01*
X011473Y010264D01*
X011526Y010210D01*
X011571Y010149D01*
X011605Y010082D01*
X011628Y010010D01*
X011640Y009935D01*
X011640Y009918D01*
X011180Y009918D01*
X011180Y009878D01*
X011640Y009878D01*
X011640Y009860D01*
X011628Y009785D01*
X011605Y009713D01*
X011571Y009646D01*
X011526Y009585D01*
X011497Y009555D01*
X011824Y009555D01*
X011794Y009585D01*
X011750Y009646D01*
X011715Y009713D01*
X011692Y009785D01*
X011680Y009860D01*
X011680Y009878D01*
X012140Y009878D01*
X012140Y009918D01*
X012140Y010378D01*
X012123Y010378D01*
X012048Y010366D01*
X011976Y010342D01*
X011909Y010308D01*
X011848Y010264D01*
X011794Y010210D01*
X011750Y010149D01*
X011715Y010082D01*
X011692Y010010D01*
X011628Y010010D01*
X011692Y010010D02*
X011680Y009935D01*
X011680Y009918D01*
X012140Y009918D01*
X012180Y009918D01*
X012180Y010378D01*
X012198Y010378D01*
X012273Y010366D01*
X012345Y010342D01*
X012385Y010322D01*
X012385Y010473D01*
X012345Y010453D01*
X012273Y010429D01*
X012198Y010418D01*
X012180Y010418D01*
X012180Y010878D01*
X012140Y010878D01*
X011680Y010878D01*
X011680Y010860D01*
X011692Y010785D01*
X011715Y010713D01*
X011750Y010646D01*
X011794Y010585D01*
X011848Y010532D01*
X011909Y010487D01*
X011976Y010453D01*
X012048Y010429D01*
X012123Y010418D01*
X012140Y010418D01*
X012140Y010878D01*
X012140Y010918D01*
X011680Y010918D01*
X011680Y010935D01*
X011692Y011010D01*
X011715Y011082D01*
X011740Y011130D01*
X011581Y011130D01*
X011605Y011082D01*
X011628Y011010D01*
X011640Y010935D01*
X011640Y010918D01*
X011180Y010918D01*
X011180Y010878D01*
X011640Y010878D01*
X011640Y010860D01*
X011628Y010785D01*
X011605Y010713D01*
X011571Y010646D01*
X011526Y010585D01*
X011473Y010532D01*
X011412Y010487D01*
X011345Y010453D01*
X011273Y010429D01*
X011198Y010418D01*
X011180Y010418D01*
X011180Y010878D01*
X011140Y010878D01*
X011140Y010418D01*
X011123Y010418D01*
X011048Y010429D01*
X010976Y010453D01*
X010909Y010487D01*
X010848Y010532D01*
X010810Y010569D01*
X010810Y010486D02*
X010912Y010486D01*
X010946Y010327D02*
X010810Y010327D01*
X011140Y010327D02*
X011180Y010327D01*
X011180Y010169D02*
X011140Y010169D01*
X011140Y010010D02*
X011180Y010010D01*
X011375Y010327D02*
X011946Y010327D01*
X011912Y010486D02*
X011409Y010486D01*
X011569Y010644D02*
X011751Y010644D01*
X011689Y010803D02*
X011631Y010803D01*
X011636Y010961D02*
X011684Y010961D01*
X011735Y011120D02*
X011586Y011120D01*
X011180Y010803D02*
X011140Y010803D01*
X011140Y010644D02*
X011180Y010644D01*
X011180Y010486D02*
X011140Y010486D01*
X011557Y010169D02*
X011764Y010169D01*
X011682Y009852D02*
X011639Y009852D01*
X011595Y009693D02*
X011726Y009693D01*
X012140Y010010D02*
X012180Y010010D01*
X012180Y010169D02*
X012140Y010169D01*
X012140Y010327D02*
X012180Y010327D01*
X012180Y010486D02*
X012140Y010486D01*
X012140Y010644D02*
X012180Y010644D01*
X012180Y010803D02*
X012140Y010803D01*
X012375Y010327D02*
X012385Y010327D01*
X042560Y002561D02*
X055634Y002561D01*
X055363Y002719D02*
X042832Y002719D01*
X043003Y002878D02*
X055192Y002878D01*
X055078Y003036D02*
X043116Y003036D01*
X043197Y003195D02*
X054998Y003195D01*
X054944Y003353D02*
X043250Y003353D01*
X043280Y003512D02*
X054914Y003512D01*
X054904Y003670D02*
X043290Y003670D01*
X043290Y003829D02*
X054904Y003829D01*
X054904Y003987D02*
X043290Y003987D01*
X043290Y004146D02*
X054904Y004146D01*
X054904Y004304D02*
X043290Y004304D01*
X043290Y004463D02*
X054904Y004463D01*
X054904Y004621D02*
X043290Y004621D01*
X043290Y004780D02*
X054904Y004780D01*
X054904Y004938D02*
X043290Y004938D01*
X043290Y005097D02*
X043641Y005097D01*
X043411Y005255D02*
X043290Y005255D01*
X044159Y005255D02*
X044319Y005255D01*
X044319Y005097D02*
X044159Y005097D01*
X044159Y005414D02*
X044319Y005414D01*
X044319Y005572D02*
X044159Y005572D01*
X044159Y005731D02*
X044319Y005731D01*
X044319Y005889D02*
X044159Y005889D01*
X044159Y006048D02*
X044319Y006048D01*
X044319Y006206D02*
X053742Y006206D01*
X053742Y006048D02*
X053902Y006048D01*
X053902Y005889D02*
X053742Y005889D01*
X053742Y005731D02*
X053902Y005731D01*
X053902Y005572D02*
X053742Y005572D01*
X053742Y005414D02*
X053902Y005414D01*
X053902Y005255D02*
X053742Y005255D01*
X053742Y005097D02*
X053902Y005097D01*
X054420Y005097D02*
X054904Y005097D01*
X054904Y005255D02*
X054650Y005255D01*
X054803Y005414D02*
X054904Y005414D01*
X053224Y005097D02*
X044837Y005097D01*
X045067Y005255D02*
X052993Y005255D01*
X052841Y005414D02*
X045220Y005414D01*
X045330Y005572D02*
X052730Y005572D01*
X052653Y005731D02*
X045408Y005731D01*
X045462Y005889D02*
X052599Y005889D01*
X052569Y006048D02*
X045492Y006048D01*
X045492Y006365D02*
X052568Y006365D01*
X052598Y006523D02*
X045463Y006523D01*
X045410Y006682D02*
X052651Y006682D01*
X052727Y006840D02*
X045333Y006840D01*
X045224Y006999D02*
X052836Y006999D01*
X052987Y007157D02*
X045074Y007157D01*
X055692Y010282D02*
X055692Y010513D01*
X055728Y010487D01*
X055795Y010453D01*
X055867Y010429D01*
X055941Y010418D01*
X055959Y010418D01*
X055959Y010878D01*
X055999Y010878D01*
X055999Y010918D01*
X056459Y010918D01*
X056459Y010935D01*
X056447Y011010D01*
X056424Y011082D01*
X056400Y011130D01*
X056559Y011130D01*
X056534Y011082D01*
X056511Y011010D01*
X056499Y010935D01*
X056499Y010918D01*
X056959Y010918D01*
X056959Y010878D01*
X056499Y010878D01*
X056499Y010860D01*
X056511Y010785D01*
X056534Y010713D01*
X056569Y010646D01*
X056613Y010585D01*
X056667Y010532D01*
X056728Y010487D01*
X056795Y010453D01*
X056867Y010429D01*
X056941Y010418D01*
X056959Y010418D01*
X056959Y010878D01*
X056999Y010878D01*
X056999Y010418D01*
X057017Y010418D01*
X057092Y010429D01*
X057163Y010453D01*
X057231Y010487D01*
X057267Y010513D01*
X057267Y010282D01*
X057231Y010308D01*
X057163Y010342D01*
X057092Y010366D01*
X057017Y010378D01*
X056999Y010378D01*
X056999Y009918D01*
X056959Y009918D01*
X056959Y010378D01*
X056941Y010378D01*
X056867Y010366D01*
X056795Y010342D01*
X056728Y010308D01*
X056667Y010264D01*
X056613Y010210D01*
X056569Y010149D01*
X056534Y010082D01*
X056511Y010010D01*
X056447Y010010D01*
X056424Y010082D01*
X056390Y010149D01*
X056345Y010210D01*
X056292Y010264D01*
X056231Y010308D01*
X056163Y010342D01*
X056092Y010366D01*
X056017Y010378D01*
X055999Y010378D01*
X055999Y009918D01*
X055959Y009918D01*
X055959Y010378D01*
X055941Y010378D01*
X055867Y010366D01*
X055795Y010342D01*
X055728Y010308D01*
X055692Y010282D01*
X055692Y010327D02*
X055765Y010327D01*
X055731Y010486D02*
X055692Y010486D01*
X055959Y010486D02*
X055999Y010486D01*
X055999Y010418D02*
X056017Y010418D01*
X056092Y010429D01*
X056163Y010453D01*
X056231Y010487D01*
X056292Y010532D01*
X056345Y010585D01*
X056390Y010646D01*
X056424Y010713D01*
X056447Y010785D01*
X056459Y010860D01*
X056459Y010878D01*
X055999Y010878D01*
X055999Y010418D01*
X055999Y010327D02*
X055959Y010327D01*
X055959Y010169D02*
X055999Y010169D01*
X055999Y010010D02*
X055959Y010010D01*
X055999Y009918D02*
X056459Y009918D01*
X056459Y009935D01*
X056447Y010010D01*
X056511Y010010D02*
X056499Y009935D01*
X056499Y009918D01*
X056959Y009918D01*
X056959Y009878D01*
X056499Y009878D01*
X056499Y009860D01*
X056511Y009785D01*
X056534Y009713D01*
X056569Y009646D01*
X056613Y009585D01*
X056643Y009555D01*
X056316Y009555D01*
X056345Y009585D01*
X056390Y009646D01*
X056424Y009713D01*
X056447Y009785D01*
X056459Y009860D01*
X056459Y009878D01*
X055999Y009878D01*
X055999Y009918D01*
X056376Y010169D02*
X056583Y010169D01*
X056765Y010327D02*
X056194Y010327D01*
X056228Y010486D02*
X056731Y010486D01*
X056570Y010644D02*
X056388Y010644D01*
X056450Y010803D02*
X056508Y010803D01*
X056503Y010961D02*
X056455Y010961D01*
X056405Y011120D02*
X056554Y011120D01*
X056959Y010803D02*
X056999Y010803D01*
X056999Y010644D02*
X056959Y010644D01*
X056959Y010486D02*
X056999Y010486D01*
X056999Y010327D02*
X056959Y010327D01*
X056959Y010169D02*
X056999Y010169D01*
X056999Y010010D02*
X056959Y010010D01*
X057194Y010327D02*
X057267Y010327D01*
X057267Y010486D02*
X057228Y010486D01*
X055999Y010644D02*
X055959Y010644D01*
X055959Y010803D02*
X055999Y010803D01*
X056458Y009852D02*
X056501Y009852D01*
X056545Y009693D02*
X056414Y009693D01*
X087245Y002561D02*
X100516Y002561D01*
X100245Y002719D02*
X087517Y002719D01*
X087688Y002878D02*
X100074Y002878D01*
X099960Y003036D02*
X087801Y003036D01*
X087882Y003195D02*
X099880Y003195D01*
X099826Y003353D02*
X087935Y003353D01*
X087965Y003512D02*
X099796Y003512D01*
X099786Y003670D02*
X087975Y003670D01*
X087975Y003829D02*
X099786Y003829D01*
X099786Y003987D02*
X087975Y003987D01*
X087975Y004146D02*
X099786Y004146D01*
X099786Y004304D02*
X087975Y004304D01*
X087975Y004463D02*
X099786Y004463D01*
X099786Y004621D02*
X087975Y004621D01*
X087975Y004780D02*
X099786Y004780D01*
X099786Y004938D02*
X087975Y004938D01*
X087975Y005097D02*
X088460Y005097D01*
X088230Y005255D02*
X087975Y005255D01*
X087975Y005414D02*
X088077Y005414D01*
X088978Y005414D02*
X089138Y005414D01*
X089138Y005572D02*
X088978Y005572D01*
X088978Y005731D02*
X089138Y005731D01*
X089138Y005889D02*
X088978Y005889D01*
X088978Y006048D02*
X089138Y006048D01*
X089138Y006206D02*
X098624Y006206D01*
X098624Y006048D02*
X098784Y006048D01*
X098784Y005889D02*
X098624Y005889D01*
X098624Y005731D02*
X098784Y005731D01*
X098784Y005572D02*
X098624Y005572D01*
X098624Y005414D02*
X098784Y005414D01*
X098784Y005255D02*
X098624Y005255D01*
X098624Y005097D02*
X098784Y005097D01*
X099302Y005097D02*
X099786Y005097D01*
X099786Y005255D02*
X099532Y005255D01*
X099685Y005414D02*
X099786Y005414D01*
X098106Y005097D02*
X089656Y005097D01*
X089886Y005255D02*
X097875Y005255D01*
X097723Y005414D02*
X090039Y005414D01*
X090149Y005572D02*
X097612Y005572D01*
X097535Y005731D02*
X090227Y005731D01*
X090280Y005889D02*
X097481Y005889D01*
X097451Y006048D02*
X090311Y006048D01*
X090311Y006365D02*
X097450Y006365D01*
X097479Y006523D02*
X090282Y006523D01*
X090229Y006682D02*
X097533Y006682D01*
X097609Y006840D02*
X090152Y006840D01*
X090043Y006999D02*
X097718Y006999D01*
X097869Y007157D02*
X089893Y007157D01*
X089138Y005255D02*
X088978Y005255D01*
X088978Y005097D02*
X089138Y005097D01*
X131282Y002193D02*
X131282Y002193D01*
X131282Y002085D02*
X131282Y002085D01*
X131282Y001927D02*
X131282Y001927D01*
X131704Y001927D02*
X131747Y001927D01*
X132168Y001927D02*
X132168Y001927D01*
X132168Y002085D02*
X132168Y002085D01*
X139672Y004621D02*
X142220Y004621D01*
X142220Y004463D02*
X139816Y004463D01*
X139921Y004304D02*
X142220Y004304D01*
X142220Y004146D02*
X139997Y004146D01*
X140050Y003987D02*
X142220Y003987D01*
X142220Y003829D02*
X140081Y003829D01*
X139031Y009555D02*
X138703Y009555D01*
X138733Y009585D01*
X138778Y009646D01*
X138812Y009713D01*
X138835Y009785D01*
X138847Y009860D01*
X138847Y009878D01*
X138387Y009878D01*
X138387Y009918D01*
X138347Y009918D01*
X138347Y010378D01*
X138329Y010378D01*
X138255Y010366D01*
X138183Y010342D01*
X138115Y010308D01*
X138054Y010264D01*
X138001Y010210D01*
X137975Y010175D01*
X137975Y010620D01*
X138001Y010585D01*
X138054Y010532D01*
X138115Y010487D01*
X138183Y010453D01*
X138255Y010429D01*
X138329Y010418D01*
X138347Y010418D01*
X138347Y010878D01*
X138387Y010878D01*
X138387Y010918D01*
X138847Y010918D01*
X138847Y010935D01*
X138835Y011010D01*
X138812Y011082D01*
X138787Y011130D01*
X138947Y011130D01*
X138922Y011082D01*
X138899Y011010D01*
X138887Y010935D01*
X138887Y010918D01*
X139347Y010918D01*
X139347Y010878D01*
X138887Y010878D01*
X138887Y010860D01*
X138899Y010785D01*
X138922Y010713D01*
X138956Y010646D01*
X139001Y010585D01*
X139054Y010532D01*
X139115Y010487D01*
X139183Y010453D01*
X139255Y010429D01*
X139329Y010418D01*
X139347Y010418D01*
X139347Y010878D01*
X139387Y010878D01*
X139387Y010418D01*
X139405Y010418D01*
X139479Y010429D01*
X139551Y010453D01*
X139619Y010487D01*
X139680Y010532D01*
X139733Y010585D01*
X139747Y010604D01*
X139747Y010191D01*
X139733Y010210D01*
X139680Y010264D01*
X139619Y010308D01*
X139551Y010342D01*
X139479Y010366D01*
X139405Y010378D01*
X139387Y010378D01*
X139387Y009918D01*
X139347Y009918D01*
X139347Y010378D01*
X139329Y010378D01*
X139255Y010366D01*
X139183Y010342D01*
X139115Y010308D01*
X139054Y010264D01*
X139001Y010210D01*
X138956Y010149D01*
X138922Y010082D01*
X138899Y010010D01*
X138835Y010010D01*
X138812Y010082D01*
X138778Y010149D01*
X138733Y010210D01*
X138680Y010264D01*
X138619Y010308D01*
X138551Y010342D01*
X138479Y010366D01*
X138405Y010378D01*
X138387Y010378D01*
X138387Y009918D01*
X138847Y009918D01*
X138847Y009935D01*
X138835Y010010D01*
X138899Y010010D02*
X138887Y009935D01*
X138887Y009918D01*
X139347Y009918D01*
X139347Y009878D01*
X138887Y009878D01*
X138887Y009860D01*
X138899Y009785D01*
X138922Y009713D01*
X138956Y009646D01*
X139001Y009585D01*
X139031Y009555D01*
X138933Y009693D02*
X138801Y009693D01*
X138846Y009852D02*
X138888Y009852D01*
X138971Y010169D02*
X138764Y010169D01*
X138582Y010327D02*
X139152Y010327D01*
X139119Y010486D02*
X138615Y010486D01*
X138619Y010487D02*
X138680Y010532D01*
X138733Y010585D01*
X138778Y010646D01*
X138812Y010713D01*
X138835Y010785D01*
X138847Y010860D01*
X138847Y010878D01*
X138387Y010878D01*
X138387Y010418D01*
X138405Y010418D01*
X138479Y010429D01*
X138551Y010453D01*
X138619Y010487D01*
X138776Y010644D02*
X138958Y010644D01*
X138896Y010803D02*
X138838Y010803D01*
X138843Y010961D02*
X138891Y010961D01*
X138941Y011120D02*
X138793Y011120D01*
X138387Y010803D02*
X138347Y010803D01*
X138347Y010644D02*
X138387Y010644D01*
X138387Y010486D02*
X138347Y010486D01*
X138347Y010327D02*
X138387Y010327D01*
X138387Y010169D02*
X138347Y010169D01*
X138347Y010010D02*
X138387Y010010D01*
X138152Y010327D02*
X137975Y010327D01*
X137975Y010486D02*
X138119Y010486D01*
X139347Y010486D02*
X139387Y010486D01*
X139387Y010644D02*
X139347Y010644D01*
X139347Y010803D02*
X139387Y010803D01*
X139615Y010486D02*
X139747Y010486D01*
X139747Y010327D02*
X139582Y010327D01*
X139387Y010327D02*
X139347Y010327D01*
X139347Y010169D02*
X139387Y010169D01*
X139387Y010010D02*
X139347Y010010D01*
X095706Y041869D02*
X093630Y041869D01*
X093241Y042027D02*
X096095Y042027D01*
X096288Y042186D02*
X093049Y042186D01*
X092915Y042344D02*
X096421Y042344D01*
X096516Y042503D02*
X094927Y042503D01*
X094864Y042490D02*
X094992Y042515D01*
X095117Y042553D01*
X095238Y042603D01*
X095353Y042665D01*
X095461Y042738D01*
X095562Y042820D01*
X095655Y042913D01*
X095738Y043014D01*
X095810Y043123D01*
X095872Y043238D01*
X095922Y043358D01*
X095960Y043484D01*
X095985Y043612D01*
X096637Y043612D01*
X096637Y043454D02*
X095951Y043454D01*
X095985Y043612D02*
X095997Y043727D01*
X094748Y043727D01*
X094748Y042479D01*
X094864Y042490D01*
X094748Y042503D02*
X094588Y042503D01*
X094588Y042479D02*
X094588Y043727D01*
X093340Y043727D01*
X093351Y043612D01*
X092700Y043612D01*
X092700Y043454D02*
X093386Y043454D01*
X093376Y043484D02*
X093414Y043358D01*
X093464Y043238D01*
X093526Y043123D01*
X093599Y043014D01*
X093682Y042913D01*
X093774Y042820D01*
X093875Y042738D01*
X093984Y042665D01*
X094099Y042603D01*
X094220Y042553D01*
X094345Y042515D01*
X094473Y042490D01*
X094588Y042479D01*
X094409Y042503D02*
X092821Y042503D01*
X092757Y042661D02*
X093991Y042661D01*
X093775Y042820D02*
X092719Y042820D01*
X092703Y042978D02*
X093628Y042978D01*
X093519Y043137D02*
X092700Y043137D01*
X092700Y043295D02*
X093441Y043295D01*
X093376Y043484D02*
X093351Y043612D01*
X093340Y043887D02*
X094588Y043887D01*
X094588Y043727D01*
X094748Y043727D01*
X094748Y043887D01*
X094588Y043887D01*
X094588Y045136D01*
X094473Y045124D01*
X094345Y045099D01*
X094220Y045061D01*
X094099Y045011D01*
X093984Y044949D01*
X093875Y044877D01*
X093774Y044794D01*
X093682Y044701D01*
X093599Y044600D01*
X093526Y044492D01*
X093464Y044376D01*
X093414Y044256D01*
X093376Y044131D01*
X093351Y044002D01*
X093340Y043887D01*
X093344Y043929D02*
X092700Y043929D01*
X092700Y043771D02*
X094588Y043771D01*
X094588Y043929D02*
X094748Y043929D01*
X094748Y043887D02*
X094748Y045136D01*
X094864Y045124D01*
X094992Y045099D01*
X095117Y045061D01*
X095238Y045011D01*
X095353Y044949D01*
X095461Y044877D01*
X095562Y044794D01*
X095655Y044701D01*
X095738Y044600D01*
X095810Y044492D01*
X095872Y044376D01*
X095922Y044256D01*
X095960Y044131D01*
X095985Y044002D01*
X095997Y043887D01*
X094748Y043887D01*
X094748Y043771D02*
X096637Y043771D01*
X096637Y043929D02*
X095993Y043929D01*
X095968Y044088D02*
X096637Y044088D01*
X096637Y044246D02*
X095925Y044246D01*
X095857Y044405D02*
X096637Y044405D01*
X096637Y044563D02*
X095763Y044563D01*
X095635Y044722D02*
X096637Y044722D01*
X096637Y044880D02*
X095456Y044880D01*
X095171Y045039D02*
X096637Y045039D01*
X096637Y045197D02*
X092700Y045197D01*
X092700Y045039D02*
X094166Y045039D01*
X093880Y044880D02*
X092700Y044880D01*
X092700Y044722D02*
X093702Y044722D01*
X093574Y044563D02*
X092700Y044563D01*
X092700Y044405D02*
X093479Y044405D01*
X093412Y044246D02*
X092700Y044246D01*
X092700Y044088D02*
X093368Y044088D01*
X094588Y044088D02*
X094748Y044088D01*
X094748Y044246D02*
X094588Y044246D01*
X094588Y044405D02*
X094748Y044405D01*
X094748Y044563D02*
X094588Y044563D01*
X094588Y044722D02*
X094748Y044722D01*
X094748Y044880D02*
X094588Y044880D01*
X094588Y045039D02*
X094748Y045039D01*
X096637Y045356D02*
X092700Y045356D01*
X092700Y045514D02*
X096637Y045514D01*
X096637Y045673D02*
X092700Y045673D01*
X092700Y045831D02*
X096637Y045831D01*
X096637Y045990D02*
X092700Y045990D01*
X092700Y046148D02*
X096637Y046148D01*
X096637Y046307D02*
X092700Y046307D01*
X092700Y046465D02*
X094303Y046465D01*
X094345Y046452D02*
X094473Y046427D01*
X094588Y046416D01*
X094588Y047664D01*
X093340Y047664D01*
X093351Y047549D01*
X093376Y047421D01*
X093414Y047295D01*
X093464Y047175D01*
X093526Y047060D01*
X093599Y046951D01*
X093682Y046850D01*
X093774Y046757D01*
X093875Y046675D01*
X093984Y046602D01*
X094099Y046540D01*
X094220Y046490D01*
X094345Y046452D01*
X094588Y046465D02*
X094748Y046465D01*
X094748Y046416D02*
X094864Y046427D01*
X094992Y046452D01*
X095117Y046490D01*
X095238Y046540D01*
X095353Y046602D01*
X095461Y046675D01*
X095562Y046757D01*
X095655Y046850D01*
X095738Y046951D01*
X095810Y047060D01*
X095872Y047175D01*
X095922Y047295D01*
X095960Y047421D01*
X095985Y047549D01*
X095997Y047664D01*
X094748Y047664D01*
X094748Y046416D01*
X094748Y046624D02*
X094588Y046624D01*
X094588Y046782D02*
X094748Y046782D01*
X094748Y046941D02*
X094588Y046941D01*
X094588Y047099D02*
X094748Y047099D01*
X094748Y047258D02*
X094588Y047258D01*
X094588Y047416D02*
X094748Y047416D01*
X094748Y047575D02*
X094588Y047575D01*
X094588Y047664D02*
X094748Y047664D01*
X094748Y047824D01*
X094588Y047824D01*
X094588Y047664D01*
X094588Y047733D02*
X092700Y047733D01*
X092700Y047575D02*
X093348Y047575D01*
X093378Y047416D02*
X092700Y047416D01*
X092700Y047258D02*
X093430Y047258D01*
X093505Y047099D02*
X092700Y047099D01*
X092700Y046941D02*
X093607Y046941D01*
X093749Y046782D02*
X092700Y046782D01*
X092700Y046624D02*
X093951Y046624D01*
X095034Y046465D02*
X096637Y046465D01*
X096637Y046624D02*
X095385Y046624D01*
X095587Y046782D02*
X096637Y046782D01*
X096637Y046941D02*
X095729Y046941D01*
X095831Y047099D02*
X096637Y047099D01*
X096637Y047258D02*
X095906Y047258D01*
X095959Y047416D02*
X096637Y047416D01*
X096637Y047575D02*
X095988Y047575D01*
X095997Y047824D02*
X094748Y047824D01*
X094748Y049073D01*
X094864Y049061D01*
X094992Y049036D01*
X095117Y048998D01*
X095238Y048948D01*
X095353Y048886D01*
X095461Y048814D01*
X095562Y048731D01*
X095655Y048638D01*
X095738Y048537D01*
X095810Y048429D01*
X095872Y048313D01*
X095922Y048193D01*
X095960Y048068D01*
X095985Y047939D01*
X095997Y047824D01*
X095990Y047892D02*
X096637Y047892D01*
X096637Y048050D02*
X095963Y048050D01*
X095915Y048209D02*
X096637Y048209D01*
X096637Y048367D02*
X095843Y048367D01*
X095746Y048526D02*
X096637Y048526D01*
X096637Y048684D02*
X095609Y048684D01*
X095418Y048843D02*
X096637Y048843D01*
X096637Y049001D02*
X095106Y049001D01*
X094748Y049001D02*
X094588Y049001D01*
X094588Y049073D02*
X094473Y049061D01*
X094345Y049036D01*
X094220Y048998D01*
X094099Y048948D01*
X093984Y048886D01*
X093875Y048814D01*
X093774Y048731D01*
X093682Y048638D01*
X093599Y048537D01*
X093526Y048429D01*
X093464Y048313D01*
X093414Y048193D01*
X093376Y048068D01*
X093351Y047939D01*
X093340Y047824D01*
X094588Y047824D01*
X094588Y049073D01*
X094588Y048843D02*
X094748Y048843D01*
X094748Y048684D02*
X094588Y048684D01*
X094588Y048526D02*
X094748Y048526D01*
X094748Y048367D02*
X094588Y048367D01*
X094588Y048209D02*
X094748Y048209D01*
X094748Y048050D02*
X094588Y048050D01*
X094588Y047892D02*
X094748Y047892D01*
X094748Y047733D02*
X096637Y047733D01*
X096637Y049160D02*
X092700Y049160D01*
X092700Y049318D02*
X096637Y049318D01*
X096637Y049477D02*
X092700Y049477D01*
X092700Y049635D02*
X096637Y049635D01*
X094230Y049001D02*
X092700Y049001D01*
X092700Y048843D02*
X093918Y048843D01*
X093727Y048684D02*
X092700Y048684D01*
X092700Y048526D02*
X093591Y048526D01*
X093493Y048367D02*
X092700Y048367D01*
X092700Y048209D02*
X093421Y048209D01*
X093373Y048050D02*
X092700Y048050D01*
X092700Y047892D02*
X093346Y047892D01*
X094588Y043612D02*
X094748Y043612D01*
X094748Y043454D02*
X094588Y043454D01*
X094588Y043295D02*
X094748Y043295D01*
X094748Y043137D02*
X094588Y043137D01*
X094588Y042978D02*
X094748Y042978D01*
X094748Y042820D02*
X094588Y042820D01*
X094588Y042661D02*
X094748Y042661D01*
X095346Y042661D02*
X096579Y042661D01*
X096618Y042820D02*
X095561Y042820D01*
X095708Y042978D02*
X096634Y042978D01*
X096637Y043137D02*
X095818Y043137D01*
X095896Y043295D02*
X096637Y043295D01*
X051558Y045039D02*
X050500Y045039D01*
X050535Y045091D02*
X050596Y045206D01*
X050646Y045327D01*
X050684Y045452D01*
X050710Y045580D01*
X050721Y045696D01*
X049473Y045696D01*
X049473Y045856D01*
X050721Y045856D01*
X050710Y045971D01*
X050684Y046099D01*
X050646Y046224D01*
X050596Y046345D01*
X050535Y046460D01*
X050462Y046569D01*
X050379Y046670D01*
X050287Y046762D01*
X050186Y046845D01*
X050077Y046918D01*
X049962Y046979D01*
X049841Y047029D01*
X049716Y047067D01*
X049588Y047093D01*
X049473Y047104D01*
X049473Y045856D01*
X049313Y045856D01*
X049313Y047104D01*
X049197Y047093D01*
X049069Y047067D01*
X048944Y047029D01*
X048823Y046979D01*
X048708Y046918D01*
X048599Y046845D01*
X048498Y046762D01*
X048406Y046670D01*
X048323Y046569D01*
X048250Y046460D01*
X048189Y046345D01*
X048139Y046224D01*
X048101Y046099D01*
X048075Y045971D01*
X048064Y045856D01*
X049313Y045856D01*
X049313Y045696D01*
X049473Y045696D01*
X049473Y044447D01*
X049588Y044458D01*
X049716Y044484D01*
X049841Y044522D01*
X049962Y044572D01*
X050077Y044633D01*
X050186Y044706D01*
X050287Y044789D01*
X050379Y044881D01*
X050462Y044982D01*
X050535Y045091D01*
X050591Y045197D02*
X051558Y045197D01*
X051558Y045356D02*
X050655Y045356D01*
X050697Y045514D02*
X051558Y045514D01*
X051558Y045673D02*
X050719Y045673D01*
X050706Y045990D02*
X051558Y045990D01*
X051558Y046148D02*
X050669Y046148D01*
X050612Y046307D02*
X051558Y046307D01*
X051558Y046465D02*
X050531Y046465D01*
X050417Y046624D02*
X051558Y046624D01*
X051558Y046782D02*
X050263Y046782D01*
X050034Y046941D02*
X051558Y046941D01*
X051558Y047099D02*
X049524Y047099D01*
X049473Y047099D02*
X049313Y047099D01*
X049261Y047099D02*
X047424Y047099D01*
X047424Y046941D02*
X048751Y046941D01*
X048523Y046782D02*
X047424Y046782D01*
X047424Y046624D02*
X048368Y046624D01*
X048254Y046465D02*
X047424Y046465D01*
X047424Y046307D02*
X048173Y046307D01*
X048116Y046148D02*
X047424Y046148D01*
X047424Y045990D02*
X048079Y045990D01*
X048064Y045696D02*
X048075Y045580D01*
X048101Y045452D01*
X048139Y045327D01*
X048189Y045206D01*
X048250Y045091D01*
X048323Y044982D01*
X048406Y044881D01*
X048498Y044789D01*
X048599Y044706D01*
X048708Y044633D01*
X048823Y044572D01*
X048944Y044522D01*
X049069Y044484D01*
X049197Y044458D01*
X049313Y044447D01*
X049313Y045696D01*
X048064Y045696D01*
X048066Y045673D02*
X047424Y045673D01*
X047424Y045831D02*
X049313Y045831D01*
X049313Y045673D02*
X049473Y045673D01*
X049473Y045831D02*
X051558Y045831D01*
X049473Y045990D02*
X049313Y045990D01*
X049313Y046148D02*
X049473Y046148D01*
X049473Y046307D02*
X049313Y046307D01*
X049313Y046465D02*
X049473Y046465D01*
X049473Y046624D02*
X049313Y046624D01*
X049313Y046782D02*
X049473Y046782D01*
X049473Y046941D02*
X049313Y046941D01*
X047424Y047258D02*
X051558Y047258D01*
X051558Y047416D02*
X047424Y047416D01*
X047424Y047575D02*
X051558Y047575D01*
X051558Y047733D02*
X047424Y047733D01*
X047424Y047892D02*
X051558Y047892D01*
X051558Y048050D02*
X047424Y048050D01*
X047424Y048209D02*
X051558Y048209D01*
X051558Y048367D02*
X047424Y048367D01*
X047424Y048526D02*
X051558Y048526D01*
X051558Y048684D02*
X047424Y048684D01*
X047424Y048843D02*
X051558Y048843D01*
X051558Y049001D02*
X047424Y049001D01*
X047424Y049160D02*
X051558Y049160D01*
X051558Y049318D02*
X047424Y049318D01*
X047424Y049477D02*
X051558Y049477D01*
X051558Y049635D02*
X047424Y049635D01*
X047424Y045514D02*
X048089Y045514D01*
X048130Y045356D02*
X047424Y045356D01*
X047424Y045197D02*
X048194Y045197D01*
X048285Y045039D02*
X047424Y045039D01*
X047432Y044880D02*
X048407Y044880D01*
X048580Y044722D02*
X047458Y044722D01*
X047506Y044563D02*
X048844Y044563D01*
X049313Y044563D02*
X049473Y044563D01*
X049473Y044722D02*
X049313Y044722D01*
X049313Y044880D02*
X049473Y044880D01*
X049473Y045039D02*
X049313Y045039D01*
X049313Y045197D02*
X049473Y045197D01*
X049473Y045356D02*
X049313Y045356D01*
X049313Y045514D02*
X049473Y045514D01*
X050205Y044722D02*
X051524Y044722D01*
X051550Y044880D02*
X050378Y044880D01*
X049941Y044563D02*
X051476Y044563D01*
X051400Y044405D02*
X047582Y044405D01*
X047689Y044246D02*
X051293Y044246D01*
X051140Y044088D02*
X047842Y044088D01*
X048087Y043929D02*
X050895Y043929D01*
D22*
X131282Y004437D02*
X131282Y002941D01*
X132168Y002941D01*
D23*
X129019Y003157D02*
X128822Y002764D01*
X128428Y002764D02*
X128625Y003157D01*
X128625Y003945D01*
X128231Y003157D02*
X129019Y003157D01*
X128231Y003157D02*
X128034Y002764D01*
M02*
