G75*
G70*
%OFA0B0*%
%FSLAX24Y24*%
%IPPOS*%
%LPD*%
%AMOC8*
5,1,8,0,0,1.08239X$1,22.5*
%
%ADD10C,0.0000*%
D10*
X000705Y001281D02*
X000705Y033565D01*
X000705Y001281D01*
X000705Y033565D01*
X000707Y033631D01*
X000712Y033697D01*
X000722Y033763D01*
X000735Y033828D01*
X000751Y033892D01*
X000771Y033955D01*
X000795Y034017D01*
X000822Y034077D01*
X000852Y034136D01*
X000886Y034193D01*
X000923Y034248D01*
X000963Y034301D01*
X001005Y034352D01*
X001051Y034400D01*
X001099Y034446D01*
X001150Y034488D01*
X001203Y034528D01*
X001258Y034565D01*
X001315Y034599D01*
X001374Y034629D01*
X001434Y034656D01*
X001496Y034680D01*
X001559Y034700D01*
X001623Y034716D01*
X001688Y034729D01*
X001754Y034739D01*
X001820Y034744D01*
X001886Y034746D01*
X004446Y034746D01*
X004512Y034744D01*
X004578Y034739D01*
X004644Y034729D01*
X004709Y034716D01*
X004773Y034700D01*
X004836Y034680D01*
X004898Y034656D01*
X004958Y034629D01*
X005017Y034599D01*
X005074Y034565D01*
X005129Y034528D01*
X005182Y034488D01*
X005233Y034446D01*
X005281Y034400D01*
X005327Y034352D01*
X005369Y034301D01*
X005409Y034248D01*
X005446Y034193D01*
X005480Y034136D01*
X005510Y034077D01*
X005537Y034017D01*
X005561Y033955D01*
X005581Y033892D01*
X005597Y033828D01*
X005610Y033763D01*
X005620Y033697D01*
X005625Y033631D01*
X005627Y033565D01*
X005627Y001281D01*
X005625Y001215D01*
X005620Y001149D01*
X005610Y001083D01*
X005597Y001018D01*
X005581Y000954D01*
X005561Y000891D01*
X005537Y000829D01*
X005510Y000769D01*
X005480Y000710D01*
X005446Y000653D01*
X005409Y000598D01*
X005369Y000545D01*
X005327Y000494D01*
X005281Y000446D01*
X005233Y000400D01*
X005182Y000358D01*
X005129Y000318D01*
X005074Y000281D01*
X005017Y000247D01*
X004958Y000217D01*
X004898Y000190D01*
X004836Y000166D01*
X004773Y000146D01*
X004709Y000130D01*
X004644Y000117D01*
X004578Y000107D01*
X004512Y000102D01*
X004446Y000100D01*
X001886Y000100D01*
X001820Y000102D01*
X001754Y000107D01*
X001688Y000117D01*
X001623Y000130D01*
X001559Y000146D01*
X001496Y000166D01*
X001434Y000190D01*
X001374Y000217D01*
X001315Y000247D01*
X001258Y000281D01*
X001203Y000318D01*
X001150Y000358D01*
X001099Y000400D01*
X001051Y000446D01*
X001005Y000494D01*
X000963Y000545D01*
X000923Y000598D01*
X000886Y000653D01*
X000852Y000710D01*
X000822Y000769D01*
X000795Y000829D01*
X000771Y000891D01*
X000751Y000954D01*
X000735Y001018D01*
X000722Y001083D01*
X000712Y001149D01*
X000707Y001215D01*
X000705Y001281D01*
M02*
