%
M48
M72
T01C0.0400
T02C0.1260
%
T01
X1583Y6104
X1583Y7104
X1583Y8104
X1583Y9104
X1583Y10104
X1583Y11104
X1583Y12104
X1583Y13104
X1583Y14104
X1583Y15104
X1583Y16104
X1583Y17104
X1583Y18104
X1583Y19104
X1583Y20104
X1583Y21104
X1583Y22104
X1583Y23104
X1583Y24104
X1583Y25104
X1583Y26104
X1583Y27104
X1583Y28104
X1583Y29104
X1583Y30104
X1583Y31104
X2583Y31104
X2583Y30104
X2583Y29104
X2583Y28104
X2583Y27104
X2583Y26104
X2583Y25104
X2583Y24104
X2583Y23104
X2583Y22104
X2583Y21104
X2583Y20104
X2583Y19104
X2583Y18104
X2583Y17104
X2583Y16104
X2583Y15104
X2583Y14104
X2583Y13104
X2583Y12104
X2583Y11104
X2583Y10104
X2583Y9104
X2583Y8104
X2583Y7104
X2583Y6104
T02
X2083Y3643
X2083Y33565
M30
