G75*
G70*
%OFA0B0*%
%FSLAX24Y24*%
%IPPOS*%
%LPD*%
%AMOC8*
5,1,8,0,0,1.08239X$1,22.5*
%
%ADD10C,0.1969*%
%ADD11C,0.2300*%
%ADD12C,0.1575*%
%ADD13C,0.0240*%
D10*
X007600Y005979D03*
X012028Y005979D03*
X005386Y009814D03*
X012029Y013650D03*
X021774Y013650D03*
X026202Y013650D03*
X028416Y009815D03*
X021773Y005979D03*
D11*
X029893Y003515D03*
X029893Y016114D03*
X003909Y016114D03*
X003909Y003515D03*
D12*
X015720Y015720D03*
X018082Y015720D03*
D13*
X003416Y003081D02*
X003430Y003056D01*
X003450Y003037D01*
X003474Y003023D01*
X003501Y003015D01*
X003515Y003014D01*
X030287Y003014D01*
X030301Y003015D01*
X030328Y003023D01*
X030352Y003037D01*
X030372Y003056D01*
X030386Y003081D01*
X030386Y003081D01*
X030394Y003108D01*
X030394Y003122D01*
X030394Y016508D01*
X030394Y016522D01*
X030386Y016549D01*
X030372Y016573D01*
X030352Y016593D01*
X030328Y016607D01*
X030301Y016614D01*
X030287Y016615D01*
X019897Y016615D01*
X019897Y014098D01*
X019861Y014009D01*
X019793Y013942D01*
X019705Y013905D01*
X014098Y013905D01*
X014009Y013942D01*
X013942Y014009D01*
X013905Y014098D01*
X013905Y016615D01*
X003515Y016615D01*
X003501Y016614D01*
X003474Y016607D01*
X003450Y016593D01*
X003430Y016573D01*
X003416Y016549D01*
X003409Y016522D01*
X003408Y016508D01*
X003408Y003122D01*
X003409Y003108D01*
X003416Y003081D01*
X003437Y003050D02*
X030366Y003050D01*
X030394Y003288D02*
X003408Y003288D01*
X003408Y003527D02*
X030394Y003527D01*
X030394Y003765D02*
X003408Y003765D01*
X003408Y004004D02*
X030394Y004004D01*
X030394Y004242D02*
X003408Y004242D01*
X003408Y004481D02*
X006866Y004481D01*
X006958Y004428D02*
X007381Y004315D01*
X007819Y004315D01*
X008242Y004428D01*
X008622Y004647D01*
X008932Y004957D01*
X009151Y005337D01*
X009264Y005760D01*
X009264Y006198D01*
X009151Y006621D01*
X008932Y007001D01*
X008622Y007311D01*
X008242Y007530D01*
X007819Y007643D01*
X007381Y007643D01*
X006958Y007530D01*
X006578Y007311D01*
X006268Y007001D01*
X006049Y006621D01*
X005936Y006198D01*
X005936Y005760D01*
X006049Y005337D01*
X006268Y004957D01*
X006578Y004647D01*
X006958Y004428D01*
X006506Y004719D02*
X003408Y004719D01*
X003408Y004958D02*
X006268Y004958D01*
X006130Y005196D02*
X003408Y005196D01*
X003408Y005435D02*
X006023Y005435D01*
X005959Y005673D02*
X003408Y005673D01*
X003408Y005912D02*
X005936Y005912D01*
X005936Y006150D02*
X003408Y006150D01*
X003408Y006389D02*
X005987Y006389D01*
X006053Y006627D02*
X003408Y006627D01*
X003408Y006866D02*
X006190Y006866D01*
X006372Y007104D02*
X003408Y007104D01*
X003408Y007343D02*
X006634Y007343D01*
X007150Y007581D02*
X003408Y007581D01*
X003408Y007820D02*
X030394Y007820D01*
X030394Y007581D02*
X022223Y007581D01*
X022416Y007530D02*
X021992Y007643D01*
X021554Y007643D01*
X021131Y007530D01*
X020751Y007311D01*
X020442Y007001D01*
X020222Y006621D01*
X020109Y006198D01*
X020109Y005760D01*
X020222Y005337D01*
X020442Y004957D01*
X020751Y004647D01*
X021131Y004428D01*
X021554Y004315D01*
X021992Y004315D01*
X022416Y004428D01*
X022795Y004647D01*
X023105Y004957D01*
X023324Y005337D01*
X023438Y005760D01*
X023438Y006198D01*
X023324Y006621D01*
X023105Y007001D01*
X022795Y007311D01*
X022416Y007530D01*
X022739Y007343D02*
X030394Y007343D01*
X030394Y007104D02*
X023001Y007104D01*
X023183Y006866D02*
X030394Y006866D01*
X030394Y006627D02*
X023321Y006627D01*
X023386Y006389D02*
X030394Y006389D01*
X030394Y006150D02*
X023438Y006150D01*
X023438Y005912D02*
X030394Y005912D01*
X030394Y005673D02*
X023414Y005673D01*
X023350Y005435D02*
X030394Y005435D01*
X030394Y005196D02*
X023243Y005196D01*
X023106Y004958D02*
X030394Y004958D01*
X030394Y004719D02*
X022867Y004719D01*
X022507Y004481D02*
X030394Y004481D01*
X030394Y008058D02*
X003408Y008058D01*
X003408Y008297D02*
X004686Y008297D01*
X004744Y008263D02*
X004365Y008482D01*
X004055Y008792D01*
X003836Y009172D01*
X003722Y009595D01*
X003722Y010033D01*
X003836Y010456D01*
X004055Y010836D01*
X004365Y011146D01*
X004744Y011365D01*
X005167Y011478D01*
X005606Y011478D01*
X006029Y011365D01*
X006408Y011146D01*
X006718Y010836D01*
X006937Y010456D01*
X007051Y010033D01*
X007051Y009595D01*
X006937Y009172D01*
X006718Y008792D01*
X006408Y008482D01*
X006029Y008263D01*
X005606Y008150D01*
X005167Y008150D01*
X004744Y008263D01*
X004312Y008535D02*
X003408Y008535D01*
X003408Y008774D02*
X004073Y008774D01*
X003928Y009012D02*
X003408Y009012D01*
X003408Y009251D02*
X003814Y009251D01*
X003751Y009489D02*
X003408Y009489D01*
X003408Y009728D02*
X003722Y009728D01*
X003722Y009966D02*
X003408Y009966D01*
X003408Y010205D02*
X003768Y010205D01*
X003832Y010443D02*
X003408Y010443D01*
X003408Y010682D02*
X003966Y010682D01*
X004139Y010920D02*
X003408Y010920D01*
X003408Y011159D02*
X004387Y011159D01*
X004865Y011397D02*
X003408Y011397D01*
X003408Y011636D02*
X030394Y011636D01*
X030394Y011874D02*
X003408Y011874D01*
X003408Y012113D02*
X011364Y012113D01*
X011387Y012100D02*
X011810Y011986D01*
X012248Y011986D01*
X012672Y012100D01*
X013051Y012319D01*
X013361Y012629D01*
X013580Y013008D01*
X013693Y013431D01*
X013693Y013869D01*
X013580Y014293D01*
X013361Y014672D01*
X013051Y014982D01*
X012672Y015201D01*
X012248Y015315D01*
X011810Y015315D01*
X011387Y015201D01*
X011007Y014982D01*
X010697Y014672D01*
X010478Y014293D01*
X010365Y013869D01*
X010365Y013431D01*
X010478Y013008D01*
X010697Y012629D01*
X011007Y012319D01*
X011387Y012100D01*
X010975Y012351D02*
X003408Y012351D01*
X003408Y012590D02*
X010736Y012590D01*
X010582Y012828D02*
X003408Y012828D01*
X003408Y013067D02*
X010463Y013067D01*
X010399Y013305D02*
X003408Y013305D01*
X003408Y013544D02*
X010365Y013544D01*
X010365Y013782D02*
X003408Y013782D01*
X003408Y014021D02*
X010406Y014021D01*
X010469Y014259D02*
X003408Y014259D01*
X003408Y014498D02*
X010597Y014498D01*
X010762Y014736D02*
X003408Y014736D01*
X003408Y014975D02*
X011000Y014975D01*
X011432Y015213D02*
X003408Y015213D01*
X003408Y015452D02*
X013905Y015452D01*
X013905Y015690D02*
X003408Y015690D01*
X003408Y015929D02*
X013905Y015929D01*
X013905Y016167D02*
X003408Y016167D01*
X003408Y016406D02*
X013905Y016406D01*
X013905Y015213D02*
X012626Y015213D01*
X013058Y014975D02*
X013905Y014975D01*
X013905Y014736D02*
X013297Y014736D01*
X013462Y014498D02*
X013905Y014498D01*
X013905Y014259D02*
X013589Y014259D01*
X013653Y014021D02*
X013937Y014021D01*
X013693Y013782D02*
X020110Y013782D01*
X020110Y013869D02*
X020110Y013431D01*
X020223Y013007D01*
X020443Y012628D01*
X020752Y012318D01*
X021132Y012099D01*
X021555Y011986D01*
X021993Y011986D01*
X022417Y012099D01*
X022796Y012318D01*
X023106Y012628D01*
X023325Y013007D01*
X023439Y013431D01*
X023439Y013869D01*
X023325Y014292D01*
X023106Y014672D01*
X022796Y014982D01*
X022417Y015201D01*
X021993Y015314D01*
X021555Y015314D01*
X021132Y015201D01*
X020752Y014982D01*
X020443Y014672D01*
X020223Y014292D01*
X020110Y013869D01*
X020151Y014021D02*
X019865Y014021D01*
X019897Y014259D02*
X020215Y014259D01*
X020342Y014498D02*
X019897Y014498D01*
X019897Y014736D02*
X020507Y014736D01*
X020746Y014975D02*
X019897Y014975D01*
X019897Y015213D02*
X021179Y015213D01*
X022369Y015213D02*
X025605Y015213D01*
X025560Y015201D02*
X025181Y014982D01*
X024871Y014672D01*
X024652Y014293D01*
X024538Y013869D01*
X024538Y013431D01*
X024652Y013008D01*
X024871Y012629D01*
X025181Y012319D01*
X025560Y012100D01*
X025983Y011986D01*
X026422Y011986D01*
X026845Y012100D01*
X027224Y012319D01*
X027534Y012629D01*
X027753Y013008D01*
X027867Y013431D01*
X027867Y013869D01*
X027753Y014293D01*
X027534Y014672D01*
X027224Y014982D01*
X026845Y015201D01*
X026422Y015315D01*
X025983Y015315D01*
X025560Y015201D01*
X025173Y014975D02*
X022803Y014975D01*
X023041Y014736D02*
X024935Y014736D01*
X024770Y014498D02*
X023206Y014498D01*
X023334Y014259D02*
X024643Y014259D01*
X024579Y014021D02*
X023398Y014021D01*
X023439Y013782D02*
X024538Y013782D01*
X024538Y013544D02*
X023439Y013544D01*
X023405Y013305D02*
X024572Y013305D01*
X024636Y013067D02*
X023341Y013067D01*
X023222Y012828D02*
X024755Y012828D01*
X024909Y012590D02*
X023068Y012590D01*
X022829Y012351D02*
X025148Y012351D01*
X025537Y012113D02*
X022441Y012113D01*
X021108Y012113D02*
X012695Y012113D01*
X013084Y012351D02*
X020719Y012351D01*
X020481Y012590D02*
X013322Y012590D01*
X013476Y012828D02*
X020327Y012828D01*
X020208Y013067D02*
X013596Y013067D01*
X013660Y013305D02*
X020144Y013305D01*
X020110Y013544D02*
X013693Y013544D01*
X019897Y015452D02*
X030394Y015452D01*
X030394Y015690D02*
X019897Y015690D01*
X019897Y015929D02*
X030394Y015929D01*
X030394Y016167D02*
X019897Y016167D01*
X019897Y016406D02*
X030394Y016406D01*
X030394Y015213D02*
X026800Y015213D01*
X027232Y014975D02*
X030394Y014975D01*
X030394Y014736D02*
X027470Y014736D01*
X027635Y014498D02*
X030394Y014498D01*
X030394Y014259D02*
X027762Y014259D01*
X027826Y014021D02*
X030394Y014021D01*
X030394Y013782D02*
X027867Y013782D01*
X027867Y013544D02*
X030394Y013544D01*
X030394Y013305D02*
X027833Y013305D01*
X027769Y013067D02*
X030394Y013067D01*
X030394Y012828D02*
X027650Y012828D01*
X027496Y012590D02*
X030394Y012590D01*
X030394Y012351D02*
X027257Y012351D01*
X026868Y012113D02*
X030394Y012113D01*
X030394Y011397D02*
X028942Y011397D01*
X029058Y011366D02*
X028635Y011479D01*
X028197Y011479D01*
X027774Y011366D01*
X027394Y011147D01*
X027084Y010837D01*
X026865Y010458D01*
X026752Y010034D01*
X026752Y009596D01*
X026865Y009173D01*
X027084Y008793D01*
X027394Y008483D01*
X027774Y008264D01*
X028197Y008151D01*
X028635Y008151D01*
X029058Y008264D01*
X029438Y008483D01*
X029748Y008793D01*
X029967Y009173D01*
X030080Y009596D01*
X030080Y010034D01*
X029967Y010458D01*
X029748Y010837D01*
X029438Y011147D01*
X029058Y011366D01*
X029417Y011159D02*
X030394Y011159D01*
X030394Y010920D02*
X029665Y010920D01*
X029837Y010682D02*
X030394Y010682D01*
X030394Y010443D02*
X029971Y010443D01*
X030035Y010205D02*
X030394Y010205D01*
X030394Y009966D02*
X030080Y009966D01*
X030080Y009728D02*
X030394Y009728D01*
X030394Y009489D02*
X030052Y009489D01*
X029988Y009251D02*
X030394Y009251D01*
X030394Y009012D02*
X029874Y009012D01*
X029728Y008774D02*
X030394Y008774D01*
X030394Y008535D02*
X029490Y008535D01*
X029115Y008297D02*
X030394Y008297D01*
X027717Y008297D02*
X006087Y008297D01*
X006461Y008535D02*
X027342Y008535D01*
X027104Y008774D02*
X006700Y008774D01*
X006845Y009012D02*
X026958Y009012D01*
X026844Y009251D02*
X006958Y009251D01*
X007022Y009489D02*
X026780Y009489D01*
X026752Y009728D02*
X007051Y009728D01*
X007051Y009966D02*
X026752Y009966D01*
X026798Y010205D02*
X007005Y010205D01*
X006941Y010443D02*
X026861Y010443D01*
X026995Y010682D02*
X006807Y010682D01*
X006634Y010920D02*
X027168Y010920D01*
X027415Y011159D02*
X006386Y011159D01*
X005908Y011397D02*
X027891Y011397D01*
X021323Y007581D02*
X012480Y007581D01*
X012671Y007530D02*
X012247Y007644D01*
X011809Y007644D01*
X011386Y007530D01*
X011006Y007311D01*
X010697Y007001D01*
X010477Y006622D01*
X010364Y006199D01*
X010364Y005760D01*
X010477Y005337D01*
X010697Y004958D01*
X011006Y004648D01*
X011386Y004429D01*
X011809Y004315D01*
X012247Y004315D01*
X012671Y004429D01*
X013050Y004648D01*
X013360Y004958D01*
X020441Y004958D01*
X020303Y005196D02*
X013498Y005196D01*
X013579Y005337D02*
X013360Y004958D01*
X013122Y004719D02*
X020679Y004719D01*
X021040Y004481D02*
X012761Y004481D01*
X011295Y004481D02*
X008334Y004481D01*
X008694Y004719D02*
X010935Y004719D01*
X010696Y004958D02*
X008932Y004958D01*
X009070Y005196D02*
X010559Y005196D01*
X010451Y005435D02*
X009177Y005435D01*
X009241Y005673D02*
X010387Y005673D01*
X010364Y005912D02*
X009264Y005912D01*
X009264Y006150D02*
X010364Y006150D01*
X010415Y006389D02*
X009213Y006389D01*
X009147Y006627D02*
X010481Y006627D01*
X010618Y006866D02*
X009010Y006866D01*
X008828Y007104D02*
X010800Y007104D01*
X011061Y007343D02*
X008566Y007343D01*
X008050Y007581D02*
X011576Y007581D01*
X012671Y007530D02*
X013050Y007311D01*
X013360Y007001D01*
X013579Y006622D01*
X013693Y006199D01*
X013693Y005760D01*
X013579Y005337D01*
X013605Y005435D02*
X020196Y005435D01*
X020132Y005673D02*
X013669Y005673D01*
X013693Y005912D02*
X020109Y005912D01*
X020109Y006150D02*
X013693Y006150D01*
X013642Y006389D02*
X020160Y006389D01*
X020226Y006627D02*
X013576Y006627D01*
X013438Y006866D02*
X020364Y006866D01*
X020545Y007104D02*
X013257Y007104D01*
X012995Y007343D02*
X020807Y007343D01*
M02*
