G75*
G70*
%OFA0B0*%
%FSLAX24Y24*%
%IPPOS*%
%LPD*%
%AMOC8*
5,1,8,0,0,1.08239X$1,22.5*
%
%ADD10C,0.0160*%
%ADD11C,0.0050*%
D10*
X009815Y003909D02*
X023988Y003909D01*
X018082Y006271D02*
X018082Y007846D01*
X018016Y007844D01*
X017950Y007839D01*
X017884Y007829D01*
X017819Y007816D01*
X017755Y007800D01*
X017692Y007780D01*
X017630Y007756D01*
X017570Y007729D01*
X017511Y007699D01*
X017454Y007665D01*
X017399Y007628D01*
X017346Y007588D01*
X017295Y007546D01*
X017247Y007500D01*
X017201Y007452D01*
X017159Y007401D01*
X017119Y007348D01*
X017082Y007293D01*
X017048Y007236D01*
X017018Y007177D01*
X016991Y007117D01*
X016967Y007055D01*
X016947Y006992D01*
X016931Y006928D01*
X016918Y006863D01*
X016908Y006797D01*
X016903Y006731D01*
X016901Y006665D01*
X016901Y006271D01*
X015720Y006271D02*
X015720Y007846D01*
X015786Y007844D01*
X015852Y007839D01*
X015918Y007829D01*
X015983Y007816D01*
X016047Y007800D01*
X016110Y007780D01*
X016172Y007756D01*
X016232Y007729D01*
X016291Y007699D01*
X016348Y007665D01*
X016403Y007628D01*
X016456Y007588D01*
X016507Y007546D01*
X016555Y007500D01*
X016601Y007452D01*
X016643Y007401D01*
X016683Y007348D01*
X016720Y007293D01*
X016754Y007236D01*
X016784Y007177D01*
X016811Y007117D01*
X016835Y007055D01*
X016855Y006992D01*
X016871Y006928D01*
X016884Y006863D01*
X016894Y006797D01*
X016899Y006731D01*
X016901Y006665D01*
X019657Y010208D02*
X019657Y012571D01*
X018476Y011389D02*
X020838Y011389D01*
X023988Y015721D02*
X024269Y015714D01*
X024549Y015694D01*
X024829Y015661D01*
X025106Y015614D01*
X025380Y015555D01*
X025652Y015482D01*
X025920Y015396D01*
X026183Y015298D01*
X026441Y015187D01*
X026694Y015064D01*
X026941Y014930D01*
X027181Y014783D01*
X027414Y014626D01*
X027639Y014457D01*
X027856Y014278D01*
X028064Y014089D01*
X028262Y013891D01*
X028451Y013683D01*
X028630Y013466D01*
X028799Y013241D01*
X028956Y013008D01*
X029103Y012768D01*
X029237Y012521D01*
X029360Y012268D01*
X029471Y012010D01*
X029569Y011747D01*
X029655Y011479D01*
X029728Y011207D01*
X029787Y010933D01*
X029834Y010656D01*
X029867Y010376D01*
X029887Y010096D01*
X029894Y009815D01*
X029887Y009534D01*
X029867Y009254D01*
X029834Y008974D01*
X029787Y008697D01*
X029728Y008423D01*
X029655Y008151D01*
X029569Y007883D01*
X029471Y007620D01*
X029360Y007362D01*
X029237Y007109D01*
X029103Y006862D01*
X028956Y006622D01*
X028799Y006389D01*
X028630Y006164D01*
X028451Y005947D01*
X028262Y005739D01*
X028064Y005541D01*
X027856Y005352D01*
X027639Y005173D01*
X027414Y005004D01*
X027181Y004847D01*
X026941Y004700D01*
X026694Y004566D01*
X026441Y004443D01*
X026183Y004332D01*
X025920Y004234D01*
X025652Y004148D01*
X025380Y004075D01*
X025106Y004016D01*
X024829Y003969D01*
X024549Y003936D01*
X024269Y003916D01*
X023988Y003909D01*
X015326Y011389D02*
X012964Y011389D01*
X009815Y015721D02*
X009534Y015714D01*
X009254Y015694D01*
X008974Y015661D01*
X008697Y015614D01*
X008423Y015555D01*
X008151Y015482D01*
X007883Y015396D01*
X007620Y015298D01*
X007362Y015187D01*
X007109Y015064D01*
X006862Y014930D01*
X006622Y014783D01*
X006389Y014626D01*
X006164Y014457D01*
X005947Y014278D01*
X005739Y014089D01*
X005541Y013891D01*
X005352Y013683D01*
X005173Y013466D01*
X005004Y013241D01*
X004847Y013008D01*
X004700Y012768D01*
X004566Y012521D01*
X004443Y012268D01*
X004332Y012010D01*
X004234Y011747D01*
X004148Y011479D01*
X004075Y011207D01*
X004016Y010933D01*
X003969Y010656D01*
X003936Y010376D01*
X003916Y010096D01*
X003909Y009815D01*
X003916Y009534D01*
X003936Y009254D01*
X003969Y008974D01*
X004016Y008697D01*
X004075Y008423D01*
X004148Y008151D01*
X004234Y007883D01*
X004332Y007620D01*
X004443Y007362D01*
X004566Y007109D01*
X004700Y006862D01*
X004847Y006622D01*
X005004Y006389D01*
X005173Y006164D01*
X005352Y005947D01*
X005541Y005739D01*
X005739Y005541D01*
X005947Y005352D01*
X006164Y005173D01*
X006389Y005004D01*
X006622Y004847D01*
X006862Y004700D01*
X007109Y004566D01*
X007362Y004443D01*
X007620Y004332D01*
X007883Y004234D01*
X008151Y004148D01*
X008423Y004075D01*
X008697Y004016D01*
X008974Y003969D01*
X009254Y003936D01*
X009534Y003916D01*
X009815Y003909D01*
X009815Y015720D02*
X023988Y015720D01*
D11*
X016901Y009815D02*
X016910Y010163D01*
X016935Y010510D01*
X016978Y010855D01*
X017037Y011198D01*
X017113Y011537D01*
X017206Y011872D01*
X017315Y012203D01*
X017440Y012527D01*
X017581Y012845D01*
X017738Y013156D01*
X017909Y013458D01*
X018095Y013752D01*
X018296Y014037D01*
X018510Y014311D01*
X018737Y014574D01*
X018977Y014826D01*
X019229Y015066D01*
X019492Y015293D01*
X019766Y015507D01*
X020051Y015708D01*
X020345Y015894D01*
X020647Y016065D01*
X020958Y016222D01*
X021276Y016363D01*
X021600Y016488D01*
X021931Y016597D01*
X022266Y016690D01*
X022605Y016766D01*
X022948Y016825D01*
X023293Y016868D01*
X023640Y016893D01*
X023988Y016902D01*
X024336Y016893D01*
X024683Y016868D01*
X025028Y016825D01*
X025371Y016766D01*
X025710Y016690D01*
X026045Y016597D01*
X026376Y016488D01*
X026700Y016363D01*
X027018Y016222D01*
X027329Y016065D01*
X027631Y015894D01*
X027925Y015708D01*
X028210Y015507D01*
X028484Y015293D01*
X028747Y015066D01*
X028999Y014826D01*
X029239Y014574D01*
X029466Y014311D01*
X029680Y014037D01*
X029881Y013752D01*
X030067Y013458D01*
X030238Y013156D01*
X030395Y012845D01*
X030536Y012527D01*
X030661Y012203D01*
X030770Y011872D01*
X030863Y011537D01*
X030939Y011198D01*
X030998Y010855D01*
X031041Y010510D01*
X031066Y010163D01*
X031075Y009815D01*
X031066Y009467D01*
X031041Y009120D01*
X030998Y008775D01*
X030939Y008432D01*
X030863Y008093D01*
X030770Y007758D01*
X030661Y007427D01*
X030536Y007103D01*
X030395Y006785D01*
X030238Y006474D01*
X030067Y006172D01*
X029881Y005878D01*
X029680Y005593D01*
X029466Y005319D01*
X029239Y005056D01*
X028999Y004804D01*
X028747Y004564D01*
X028484Y004337D01*
X028210Y004123D01*
X027925Y003922D01*
X027631Y003736D01*
X027329Y003565D01*
X027018Y003408D01*
X026700Y003267D01*
X026376Y003142D01*
X026045Y003033D01*
X025710Y002940D01*
X025371Y002864D01*
X025028Y002805D01*
X024683Y002762D01*
X024336Y002737D01*
X023988Y002728D01*
X023640Y002737D01*
X023293Y002762D01*
X022948Y002805D01*
X022605Y002864D01*
X022266Y002940D01*
X021931Y003033D01*
X021600Y003142D01*
X021276Y003267D01*
X020958Y003408D01*
X020647Y003565D01*
X020345Y003736D01*
X020051Y003922D01*
X019766Y004123D01*
X019492Y004337D01*
X019229Y004564D01*
X018977Y004804D01*
X018737Y005056D01*
X018510Y005319D01*
X018296Y005593D01*
X018095Y005878D01*
X017909Y006172D01*
X017738Y006474D01*
X017581Y006785D01*
X017440Y007103D01*
X017315Y007427D01*
X017206Y007758D01*
X017113Y008093D01*
X017037Y008432D01*
X016978Y008775D01*
X016935Y009120D01*
X016910Y009467D01*
X016901Y009815D01*
X002728Y009815D02*
X002737Y010163D01*
X002762Y010510D01*
X002805Y010855D01*
X002864Y011198D01*
X002940Y011537D01*
X003033Y011872D01*
X003142Y012203D01*
X003267Y012527D01*
X003408Y012845D01*
X003565Y013156D01*
X003736Y013458D01*
X003922Y013752D01*
X004123Y014037D01*
X004337Y014311D01*
X004564Y014574D01*
X004804Y014826D01*
X005056Y015066D01*
X005319Y015293D01*
X005593Y015507D01*
X005878Y015708D01*
X006172Y015894D01*
X006474Y016065D01*
X006785Y016222D01*
X007103Y016363D01*
X007427Y016488D01*
X007758Y016597D01*
X008093Y016690D01*
X008432Y016766D01*
X008775Y016825D01*
X009120Y016868D01*
X009467Y016893D01*
X009815Y016902D01*
X010163Y016893D01*
X010510Y016868D01*
X010855Y016825D01*
X011198Y016766D01*
X011537Y016690D01*
X011872Y016597D01*
X012203Y016488D01*
X012527Y016363D01*
X012845Y016222D01*
X013156Y016065D01*
X013458Y015894D01*
X013752Y015708D01*
X014037Y015507D01*
X014311Y015293D01*
X014574Y015066D01*
X014826Y014826D01*
X015066Y014574D01*
X015293Y014311D01*
X015507Y014037D01*
X015708Y013752D01*
X015894Y013458D01*
X016065Y013156D01*
X016222Y012845D01*
X016363Y012527D01*
X016488Y012203D01*
X016597Y011872D01*
X016690Y011537D01*
X016766Y011198D01*
X016825Y010855D01*
X016868Y010510D01*
X016893Y010163D01*
X016902Y009815D01*
X016893Y009467D01*
X016868Y009120D01*
X016825Y008775D01*
X016766Y008432D01*
X016690Y008093D01*
X016597Y007758D01*
X016488Y007427D01*
X016363Y007103D01*
X016222Y006785D01*
X016065Y006474D01*
X015894Y006172D01*
X015708Y005878D01*
X015507Y005593D01*
X015293Y005319D01*
X015066Y005056D01*
X014826Y004804D01*
X014574Y004564D01*
X014311Y004337D01*
X014037Y004123D01*
X013752Y003922D01*
X013458Y003736D01*
X013156Y003565D01*
X012845Y003408D01*
X012527Y003267D01*
X012203Y003142D01*
X011872Y003033D01*
X011537Y002940D01*
X011198Y002864D01*
X010855Y002805D01*
X010510Y002762D01*
X010163Y002737D01*
X009815Y002728D01*
X009467Y002737D01*
X009120Y002762D01*
X008775Y002805D01*
X008432Y002864D01*
X008093Y002940D01*
X007758Y003033D01*
X007427Y003142D01*
X007103Y003267D01*
X006785Y003408D01*
X006474Y003565D01*
X006172Y003736D01*
X005878Y003922D01*
X005593Y004123D01*
X005319Y004337D01*
X005056Y004564D01*
X004804Y004804D01*
X004564Y005056D01*
X004337Y005319D01*
X004123Y005593D01*
X003922Y005878D01*
X003736Y006172D01*
X003565Y006474D01*
X003408Y006785D01*
X003267Y007103D01*
X003142Y007427D01*
X003033Y007758D01*
X002940Y008093D01*
X002864Y008432D01*
X002805Y008775D01*
X002762Y009120D01*
X002737Y009467D01*
X002728Y009815D01*
M02*
