G75*
G70*
%OFA0B0*%
%FSLAX24Y24*%
%IPPOS*%
%LPD*%
%AMOC8*
5,1,8,0,0,1.08239X$1,22.5*
%
%ADD10C,0.1969*%
%ADD11C,0.2300*%
%ADD12R,0.0787X0.2362*%
%ADD13C,0.1575*%
%ADD14C,0.0160*%
D10*
X007600Y005979D03*
X012028Y005979D03*
X005386Y009814D03*
X012029Y013650D03*
X021774Y013650D03*
X026202Y013650D03*
X028416Y009815D03*
X021773Y005979D03*
D11*
X003909Y003515D03*
X003909Y016114D03*
X029893Y016114D03*
X029893Y003515D03*
D12*
X018082Y008634D03*
X015720Y008634D03*
X016901Y005878D03*
D13*
X015720Y015720D03*
X018082Y015720D03*
D14*
X017295Y015648D02*
X027332Y015648D01*
X027513Y015490D02*
X017295Y015490D01*
X017295Y015331D02*
X027694Y015331D01*
X027875Y015173D02*
X017295Y015173D01*
X017295Y015014D02*
X028057Y015014D01*
X028238Y014856D02*
X017295Y014856D01*
X017295Y014697D02*
X028419Y014697D01*
X028600Y014539D02*
X017295Y014539D01*
X017295Y014380D02*
X028781Y014380D01*
X028962Y014222D02*
X017295Y014222D01*
X017295Y014063D02*
X029143Y014063D01*
X029325Y013905D02*
X017295Y013905D01*
X017295Y013746D02*
X029500Y013746D01*
X029500Y013752D02*
X029500Y008634D01*
X017295Y008634D01*
X017295Y016508D01*
X026350Y016508D01*
X029500Y013752D01*
X029500Y013588D02*
X017295Y013588D01*
X017295Y013429D02*
X029500Y013429D01*
X029500Y013271D02*
X017295Y013271D01*
X017295Y013112D02*
X029500Y013112D01*
X029500Y012954D02*
X017295Y012954D01*
X017295Y012795D02*
X029500Y012795D01*
X029500Y012637D02*
X017295Y012637D01*
X017295Y012478D02*
X029500Y012478D01*
X029500Y012320D02*
X017295Y012320D01*
X017295Y012161D02*
X029500Y012161D01*
X029500Y012003D02*
X017295Y012003D01*
X017295Y011844D02*
X029500Y011844D01*
X029500Y011686D02*
X017295Y011686D01*
X017295Y011527D02*
X029500Y011527D01*
X029500Y011369D02*
X017295Y011369D01*
X017295Y011210D02*
X029500Y011210D01*
X029500Y011052D02*
X017295Y011052D01*
X017295Y010893D02*
X029500Y010893D01*
X029500Y010735D02*
X017295Y010735D01*
X017295Y010576D02*
X029500Y010576D01*
X029500Y010418D02*
X017295Y010418D01*
X017295Y010259D02*
X029500Y010259D01*
X029500Y010101D02*
X017295Y010101D01*
X017295Y009942D02*
X029500Y009942D01*
X029500Y009784D02*
X017295Y009784D01*
X017295Y009625D02*
X029500Y009625D01*
X029500Y009467D02*
X017295Y009467D01*
X017295Y009308D02*
X029500Y009308D01*
X029500Y009150D02*
X017295Y009150D01*
X017295Y008991D02*
X029500Y008991D01*
X029500Y008833D02*
X017295Y008833D01*
X017295Y008674D02*
X029500Y008674D01*
X022807Y007059D02*
X022807Y004697D01*
X006665Y004697D01*
X004303Y007452D01*
X004303Y010746D01*
X005591Y010746D01*
X008634Y007059D01*
X022807Y007059D01*
X022807Y006931D02*
X004750Y006931D01*
X004614Y007089D02*
X008608Y007089D01*
X008477Y007248D02*
X004478Y007248D01*
X004342Y007406D02*
X008347Y007406D01*
X008216Y007565D02*
X004303Y007565D01*
X004303Y007723D02*
X008085Y007723D01*
X007954Y007882D02*
X004303Y007882D01*
X004303Y008040D02*
X007823Y008040D01*
X007693Y008199D02*
X004303Y008199D01*
X004303Y008357D02*
X007562Y008357D01*
X007431Y008516D02*
X004303Y008516D01*
X004303Y008674D02*
X007300Y008674D01*
X007169Y008833D02*
X004303Y008833D01*
X004303Y008991D02*
X007039Y008991D01*
X006908Y009150D02*
X004303Y009150D01*
X004303Y009308D02*
X006777Y009308D01*
X006646Y009467D02*
X004303Y009467D01*
X004303Y009625D02*
X006515Y009625D01*
X006384Y009784D02*
X004303Y009784D01*
X004303Y009942D02*
X006254Y009942D01*
X006123Y010101D02*
X004303Y010101D01*
X004303Y010259D02*
X005992Y010259D01*
X005861Y010418D02*
X004303Y010418D01*
X004303Y010576D02*
X005730Y010576D01*
X005600Y010735D02*
X004303Y010735D01*
X006271Y011389D02*
X006271Y016508D01*
X016508Y016508D01*
X016508Y008634D01*
X008634Y008634D01*
X006271Y011389D01*
X006289Y011369D02*
X016508Y011369D01*
X016508Y011527D02*
X006271Y011527D01*
X006271Y011686D02*
X016508Y011686D01*
X016508Y011844D02*
X006271Y011844D01*
X006271Y012003D02*
X016508Y012003D01*
X016508Y012161D02*
X006271Y012161D01*
X006271Y012320D02*
X016508Y012320D01*
X016508Y012478D02*
X006271Y012478D01*
X006271Y012637D02*
X016508Y012637D01*
X016508Y012795D02*
X006271Y012795D01*
X006271Y012954D02*
X016508Y012954D01*
X016508Y013112D02*
X006271Y013112D01*
X006271Y013271D02*
X016508Y013271D01*
X016508Y013429D02*
X006271Y013429D01*
X006271Y013588D02*
X016508Y013588D01*
X016508Y013746D02*
X006271Y013746D01*
X006271Y013905D02*
X016508Y013905D01*
X016508Y014063D02*
X006271Y014063D01*
X006271Y014222D02*
X016508Y014222D01*
X016508Y014380D02*
X006271Y014380D01*
X006271Y014539D02*
X016508Y014539D01*
X016508Y014697D02*
X006271Y014697D01*
X006271Y014856D02*
X016508Y014856D01*
X016508Y015014D02*
X006271Y015014D01*
X006271Y015173D02*
X016508Y015173D01*
X016508Y015331D02*
X006271Y015331D01*
X006271Y015490D02*
X016508Y015490D01*
X016508Y015648D02*
X006271Y015648D01*
X006271Y015807D02*
X016508Y015807D01*
X016508Y015965D02*
X006271Y015965D01*
X006271Y016124D02*
X016508Y016124D01*
X016508Y016282D02*
X006271Y016282D01*
X006271Y016441D02*
X016508Y016441D01*
X017295Y016441D02*
X026426Y016441D01*
X026607Y016282D02*
X017295Y016282D01*
X017295Y016124D02*
X026789Y016124D01*
X026970Y015965D02*
X017295Y015965D01*
X017295Y015807D02*
X027151Y015807D01*
X016508Y011210D02*
X006425Y011210D01*
X006561Y011052D02*
X016508Y011052D01*
X016508Y010893D02*
X006697Y010893D01*
X006832Y010735D02*
X016508Y010735D01*
X016508Y010576D02*
X006968Y010576D01*
X007104Y010418D02*
X016508Y010418D01*
X016508Y010259D02*
X007240Y010259D01*
X007376Y010101D02*
X016508Y010101D01*
X016508Y009942D02*
X007512Y009942D01*
X007648Y009784D02*
X016508Y009784D01*
X016508Y009625D02*
X007783Y009625D01*
X007919Y009467D02*
X016508Y009467D01*
X016508Y009308D02*
X008055Y009308D01*
X008191Y009150D02*
X016508Y009150D01*
X016508Y008991D02*
X008327Y008991D01*
X008463Y008833D02*
X016508Y008833D01*
X016508Y008674D02*
X008599Y008674D01*
X005022Y006614D02*
X022807Y006614D01*
X022807Y006772D02*
X004886Y006772D01*
X005157Y006455D02*
X022807Y006455D01*
X022807Y006297D02*
X005293Y006297D01*
X005429Y006138D02*
X022807Y006138D01*
X022807Y005980D02*
X005565Y005980D01*
X005701Y005821D02*
X022807Y005821D01*
X022807Y005663D02*
X005837Y005663D01*
X005973Y005504D02*
X022807Y005504D01*
X022807Y005346D02*
X006108Y005346D01*
X006244Y005187D02*
X022807Y005187D01*
X022807Y005029D02*
X006380Y005029D01*
X006516Y004870D02*
X022807Y004870D01*
X022807Y004712D02*
X006652Y004712D01*
M02*
