G75*
G70*
%OFA0B0*%
%FSLAX24Y24*%
%IPPOS*%
%LPD*%
%AMOC8*
5,1,8,0,0,1.08239X$1,22.5*
%
%ADD10C,0.0000*%
D10*
X000852Y001331D02*
X000852Y033615D01*
X000853Y033615D02*
X000855Y033681D01*
X000860Y033747D01*
X000870Y033813D01*
X000883Y033878D01*
X000899Y033942D01*
X000919Y034005D01*
X000943Y034067D01*
X000970Y034127D01*
X001000Y034186D01*
X001034Y034243D01*
X001071Y034298D01*
X001111Y034351D01*
X001153Y034402D01*
X001199Y034450D01*
X001247Y034496D01*
X001298Y034538D01*
X001351Y034578D01*
X001406Y034615D01*
X001463Y034649D01*
X001522Y034679D01*
X001582Y034706D01*
X001644Y034730D01*
X001707Y034750D01*
X001771Y034766D01*
X001836Y034779D01*
X001902Y034789D01*
X001968Y034794D01*
X002034Y034796D01*
X036679Y034796D01*
X036745Y034794D01*
X036811Y034789D01*
X036877Y034779D01*
X036942Y034766D01*
X037006Y034750D01*
X037069Y034730D01*
X037131Y034706D01*
X037191Y034679D01*
X037250Y034649D01*
X037307Y034615D01*
X037362Y034578D01*
X037415Y034538D01*
X037466Y034496D01*
X037514Y034450D01*
X037560Y034402D01*
X037602Y034351D01*
X037642Y034298D01*
X037679Y034243D01*
X037713Y034186D01*
X037743Y034127D01*
X037770Y034067D01*
X037794Y034005D01*
X037814Y033942D01*
X037830Y033878D01*
X037843Y033813D01*
X037853Y033747D01*
X037858Y033681D01*
X037860Y033615D01*
X037860Y003693D01*
X037858Y003627D01*
X037853Y003561D01*
X037843Y003495D01*
X037830Y003430D01*
X037814Y003366D01*
X037794Y003303D01*
X037770Y003241D01*
X037743Y003181D01*
X037713Y003122D01*
X037679Y003065D01*
X037642Y003010D01*
X037602Y002957D01*
X037560Y002906D01*
X037514Y002858D01*
X037466Y002812D01*
X037415Y002770D01*
X037362Y002730D01*
X037307Y002693D01*
X037250Y002659D01*
X037191Y002629D01*
X037131Y002602D01*
X037069Y002578D01*
X037006Y002558D01*
X036942Y002542D01*
X036877Y002529D01*
X036811Y002519D01*
X036745Y002514D01*
X036679Y002512D01*
X029593Y002512D01*
X029539Y002510D01*
X029486Y002505D01*
X029433Y002496D01*
X029381Y002483D01*
X029329Y002467D01*
X029279Y002447D01*
X029231Y002424D01*
X029184Y002397D01*
X029139Y002368D01*
X029096Y002335D01*
X029056Y002300D01*
X029018Y002262D01*
X028983Y002222D01*
X028950Y002179D01*
X028921Y002134D01*
X028894Y002087D01*
X028871Y002039D01*
X028851Y001989D01*
X028835Y001937D01*
X028822Y001885D01*
X028813Y001832D01*
X028808Y001779D01*
X028806Y001725D01*
X028805Y001725D02*
X028805Y000150D01*
X002034Y000150D01*
X001968Y000152D01*
X001902Y000157D01*
X001836Y000167D01*
X001771Y000180D01*
X001707Y000196D01*
X001644Y000216D01*
X001582Y000240D01*
X001522Y000267D01*
X001463Y000297D01*
X001406Y000331D01*
X001351Y000368D01*
X001298Y000408D01*
X001247Y000450D01*
X001199Y000496D01*
X001153Y000544D01*
X001111Y000595D01*
X001071Y000648D01*
X001034Y000703D01*
X001000Y000760D01*
X000970Y000819D01*
X000943Y000879D01*
X000919Y000941D01*
X000899Y001004D01*
X000883Y001068D01*
X000870Y001133D01*
X000860Y001199D01*
X000855Y001265D01*
X000853Y001331D01*
X025884Y027744D02*
X025886Y027792D01*
X025892Y027840D01*
X025902Y027887D01*
X025915Y027933D01*
X025933Y027978D01*
X025953Y028022D01*
X025978Y028064D01*
X026006Y028103D01*
X026036Y028140D01*
X026070Y028174D01*
X026107Y028206D01*
X026145Y028235D01*
X026186Y028260D01*
X026229Y028282D01*
X026274Y028300D01*
X026320Y028314D01*
X026367Y028325D01*
X026415Y028332D01*
X026463Y028335D01*
X026511Y028334D01*
X026559Y028329D01*
X026607Y028320D01*
X026653Y028308D01*
X026698Y028291D01*
X026742Y028271D01*
X026784Y028248D01*
X026824Y028221D01*
X026862Y028191D01*
X026897Y028158D01*
X026929Y028122D01*
X026959Y028084D01*
X026985Y028043D01*
X027007Y028000D01*
X027027Y027956D01*
X027042Y027911D01*
X027054Y027864D01*
X027062Y027816D01*
X027066Y027768D01*
X027066Y027720D01*
X027062Y027672D01*
X027054Y027624D01*
X027042Y027577D01*
X027027Y027532D01*
X027007Y027488D01*
X026985Y027445D01*
X026959Y027404D01*
X026929Y027366D01*
X026897Y027330D01*
X026862Y027297D01*
X026824Y027267D01*
X026784Y027240D01*
X026742Y027217D01*
X026698Y027197D01*
X026653Y027180D01*
X026607Y027168D01*
X026559Y027159D01*
X026511Y027154D01*
X026463Y027153D01*
X026415Y027156D01*
X026367Y027163D01*
X026320Y027174D01*
X026274Y027188D01*
X026229Y027206D01*
X026186Y027228D01*
X026145Y027253D01*
X026107Y027282D01*
X026070Y027314D01*
X026036Y027348D01*
X026006Y027385D01*
X025978Y027424D01*
X025953Y027466D01*
X025933Y027510D01*
X025915Y027555D01*
X025902Y027601D01*
X025892Y027648D01*
X025886Y027696D01*
X025884Y027744D01*
X029635Y027744D02*
X029637Y027792D01*
X029643Y027840D01*
X029653Y027887D01*
X029666Y027933D01*
X029684Y027978D01*
X029704Y028022D01*
X029729Y028064D01*
X029757Y028103D01*
X029787Y028140D01*
X029821Y028174D01*
X029858Y028206D01*
X029896Y028235D01*
X029937Y028260D01*
X029980Y028282D01*
X030025Y028300D01*
X030071Y028314D01*
X030118Y028325D01*
X030166Y028332D01*
X030214Y028335D01*
X030262Y028334D01*
X030310Y028329D01*
X030358Y028320D01*
X030404Y028308D01*
X030449Y028291D01*
X030493Y028271D01*
X030535Y028248D01*
X030575Y028221D01*
X030613Y028191D01*
X030648Y028158D01*
X030680Y028122D01*
X030710Y028084D01*
X030736Y028043D01*
X030758Y028000D01*
X030778Y027956D01*
X030793Y027911D01*
X030805Y027864D01*
X030813Y027816D01*
X030817Y027768D01*
X030817Y027720D01*
X030813Y027672D01*
X030805Y027624D01*
X030793Y027577D01*
X030778Y027532D01*
X030758Y027488D01*
X030736Y027445D01*
X030710Y027404D01*
X030680Y027366D01*
X030648Y027330D01*
X030613Y027297D01*
X030575Y027267D01*
X030535Y027240D01*
X030493Y027217D01*
X030449Y027197D01*
X030404Y027180D01*
X030358Y027168D01*
X030310Y027159D01*
X030262Y027154D01*
X030214Y027153D01*
X030166Y027156D01*
X030118Y027163D01*
X030071Y027174D01*
X030025Y027188D01*
X029980Y027206D01*
X029937Y027228D01*
X029896Y027253D01*
X029858Y027282D01*
X029821Y027314D01*
X029787Y027348D01*
X029757Y027385D01*
X029729Y027424D01*
X029704Y027466D01*
X029684Y027510D01*
X029666Y027555D01*
X029653Y027601D01*
X029643Y027648D01*
X029637Y027696D01*
X029635Y027744D01*
M02*
