G75*
G70*
%OFA0B0*%
%FSLAX24Y24*%
%IPPOS*%
%LPD*%
%AMOC8*
5,1,8,0,0,1.08239X$1,22.5*
%
%ADD10R,3.7000X1.8500*%
%ADD11R,0.6000X1.6500*%
%ADD12R,0.4500X0.5500*%
%ADD13R,0.1000X0.8000*%
%ADD14R,0.7000X0.5000*%
%ADD15R,0.7000X0.4500*%
%ADD16R,0.3000X0.4000*%
%ADD17R,0.3000X0.8500*%
%ADD18R,2.5500X0.2000*%
%ADD19R,2.1000X0.8000*%
%ADD20R,0.3000X0.4500*%
%ADD21R,0.5000X0.5000*%
%ADD22R,0.3500X0.5500*%
%ADD23R,0.3000X0.1500*%
%ADD24R,0.5500X0.8500*%
%ADD25R,1.1000X0.6500*%
%ADD26R,0.1500X0.8500*%
%ADD27R,0.0513X0.0257*%
%ADD28R,0.1237X0.1489*%
%ADD29R,0.0474X0.0257*%
%ADD30R,0.0730X0.1200*%
%ADD31R,0.0560X0.0324*%
%ADD32R,0.0324X0.0560*%
%ADD33R,0.0434X0.0190*%
%ADD34R,0.0702X0.1655*%
%ADD35R,0.0395X0.0631*%
%ADD36R,0.0474X0.1458*%
%ADD37R,0.0946X0.0867*%
%ADD38R,0.1655X0.1340*%
%ADD39R,0.1316X0.0686*%
%ADD40R,0.0686X0.1316*%
%ADD41R,0.0986X0.0552*%
%ADD42R,0.1064X0.0749*%
%ADD43R,0.0356X0.0513*%
%ADD44R,0.0513X0.0356*%
%ADD45R,0.0907X0.0631*%
%ADD46R,0.0698X0.0781*%
%ADD47R,0.0356X0.0671*%
%ADD48R,0.0631X0.0395*%
%ADD49C,0.0416*%
%ADD50R,0.1261X0.0867*%
%ADD51C,0.0740*%
%ADD52C,0.2380*%
%ADD53C,0.1261*%
%ADD54C,0.1580*%
%ADD55R,0.0237X0.0474*%
%ADD56R,0.0336X0.0946*%
%ADD57C,0.0680*%
%ADD58R,0.0631X0.0474*%
%ADD59R,0.0631X0.0907*%
%ADD60R,0.0867X0.2442*%
%ADD61R,0.0820X0.0820*%
%ADD62C,0.0820*%
%ADD63R,0.0671X0.1480*%
%ADD64R,0.1480X0.0671*%
%ADD65R,0.1025X0.1745*%
%ADD66R,0.4411X0.4411*%
%ADD67R,0.0189X0.0008*%
%ADD68R,0.0181X0.0008*%
%ADD69R,0.0173X0.0008*%
%ADD70R,0.0291X0.0008*%
%ADD71R,0.0283X0.0008*%
%ADD72R,0.0276X0.0008*%
%ADD73R,0.0370X0.0008*%
%ADD74R,0.0346X0.0008*%
%ADD75R,0.0433X0.0008*%
%ADD76R,0.0402X0.0008*%
%ADD77R,0.0480X0.0008*%
%ADD78R,0.0457X0.0008*%
%ADD79R,0.0449X0.0008*%
%ADD80R,0.0386X0.0008*%
%ADD81R,0.0520X0.0008*%
%ADD82R,0.0488X0.0008*%
%ADD83R,0.0496X0.0008*%
%ADD84R,0.0559X0.0008*%
%ADD85R,0.0528X0.0008*%
%ADD86R,0.0591X0.0008*%
%ADD87R,0.0567X0.0008*%
%ADD88R,0.0622X0.0008*%
%ADD89R,0.0598X0.0008*%
%ADD90R,0.0654X0.0008*%
%ADD91R,0.0685X0.0008*%
%ADD92R,0.0646X0.0008*%
%ADD93R,0.0701X0.0008*%
%ADD94R,0.0677X0.0008*%
%ADD95R,0.0732X0.0008*%
%ADD96R,0.0693X0.0008*%
%ADD97R,0.0748X0.0008*%
%ADD98R,0.0724X0.0008*%
%ADD99R,0.0717X0.0008*%
%ADD100R,0.0772X0.0008*%
%ADD101R,0.0740X0.0008*%
%ADD102R,0.0795X0.0008*%
%ADD103R,0.0756X0.0008*%
%ADD104R,0.0764X0.0008*%
%ADD105R,0.0811X0.0008*%
%ADD106R,0.0780X0.0008*%
%ADD107R,0.0827X0.0008*%
%ADD108R,0.0803X0.0008*%
%ADD109R,0.0843X0.0008*%
%ADD110R,0.0819X0.0008*%
%ADD111R,0.0858X0.0008*%
%ADD112R,0.0835X0.0008*%
%ADD113R,0.0874X0.0008*%
%ADD114R,0.0850X0.0008*%
%ADD115R,0.0890X0.0008*%
%ADD116R,0.0866X0.0008*%
%ADD117R,0.0906X0.0008*%
%ADD118R,0.0921X0.0008*%
%ADD119R,0.0937X0.0008*%
%ADD120R,0.0945X0.0008*%
%ADD121R,0.0913X0.0008*%
%ADD122R,0.0953X0.0008*%
%ADD123R,0.0929X0.0008*%
%ADD124R,0.0969X0.0008*%
%ADD125R,0.0976X0.0008*%
%ADD126R,0.0984X0.0008*%
%ADD127R,0.0961X0.0008*%
%ADD128R,0.1000X0.0008*%
%ADD129R,0.1008X0.0008*%
%ADD130R,0.1016X0.0008*%
%ADD131R,0.0992X0.0008*%
%ADD132R,0.1024X0.0008*%
%ADD133R,0.1031X0.0008*%
%ADD134R,0.1039X0.0008*%
%ADD135R,0.1047X0.0008*%
%ADD136R,0.1055X0.0008*%
%ADD137R,0.1063X0.0008*%
%ADD138R,0.1071X0.0008*%
%ADD139R,0.1079X0.0008*%
%ADD140R,0.1087X0.0008*%
%ADD141R,0.0465X0.0008*%
%ADD142R,0.0441X0.0008*%
%ADD143R,0.0425X0.0008*%
%ADD144R,0.0417X0.0008*%
%ADD145R,0.0409X0.0008*%
%ADD146R,0.0394X0.0008*%
%ADD147R,0.0378X0.0008*%
%ADD148R,0.0362X0.0008*%
%ADD149R,0.0354X0.0008*%
%ADD150R,0.0299X0.0008*%
%ADD151R,0.0236X0.0008*%
%ADD152R,0.0244X0.0008*%
%ADD153R,0.0134X0.0008*%
%ADD154R,0.0126X0.0008*%
%ADD155R,0.0079X0.0008*%
%ADD156R,0.0071X0.0008*%
%ADD157R,0.0024X0.0008*%
%ADD158R,0.0016X0.0008*%
%ADD159R,0.0087X0.0008*%
%ADD160R,0.0472X0.0008*%
%ADD161R,0.0039X0.0008*%
%ADD162R,0.0165X0.0008*%
%ADD163R,0.0118X0.0008*%
%ADD164R,0.0031X0.0008*%
%ADD165R,0.0008X0.0008*%
%ADD166R,0.0504X0.0008*%
%ADD167R,0.0512X0.0008*%
%ADD168R,0.0063X0.0008*%
%ADD169R,0.0197X0.0008*%
%ADD170R,0.0213X0.0008*%
%ADD171R,0.0339X0.0008*%
%ADD172R,0.0535X0.0008*%
%ADD173R,0.0307X0.0008*%
%ADD174R,0.0543X0.0008*%
%ADD175R,0.0551X0.0008*%
%ADD176R,0.0157X0.0008*%
%ADD177R,0.0142X0.0008*%
%ADD178R,0.0150X0.0008*%
%ADD179R,0.0102X0.0008*%
%ADD180R,0.0094X0.0008*%
%ADD181R,0.0315X0.0008*%
%ADD182R,0.0323X0.0008*%
%ADD183R,0.0575X0.0008*%
%ADD184R,0.0220X0.0008*%
%ADD185R,0.0228X0.0008*%
%ADD186R,0.0205X0.0008*%
%ADD187R,0.0047X0.0008*%
%ADD188R,0.0331X0.0008*%
%ADD189R,0.0110X0.0008*%
%ADD190R,0.0055X0.0008*%
%ADD191R,0.0268X0.0008*%
%ADD192R,0.0898X0.0008*%
%ADD193R,0.0882X0.0008*%
%ADD194R,0.0661X0.0008*%
%ADD195R,0.0669X0.0008*%
%ADD196R,0.0638X0.0008*%
%ADD197R,0.0630X0.0008*%
%ADD198R,0.0606X0.0008*%
%ADD199C,0.0476*%
%ADD200C,0.0358*%
%ADD201C,0.0397*%
%ADD202C,0.0594*%
%ADD203R,0.0476X0.0476*%
D10*
X019352Y025900D03*
D11*
X003852Y008400D03*
D12*
X009102Y010900D03*
D13*
X006852Y004150D03*
D14*
X010852Y002650D03*
D15*
X017352Y002400D03*
D16*
X021852Y002150D03*
D17*
X011852Y012400D03*
D18*
X025102Y016150D03*
D19*
X026852Y011650D03*
D20*
X012852Y006400D03*
D21*
X014852Y010150D03*
D22*
X019102Y005900D03*
D23*
X021852Y007900D03*
D24*
X026102Y004400D03*
D25*
X032352Y005400D03*
D26*
X037102Y012400D03*
D27*
X010455Y007546D03*
X010455Y007290D03*
X010455Y007034D03*
X010455Y006778D03*
X010455Y006522D03*
X010455Y006266D03*
X010455Y006010D03*
X010455Y005754D03*
X008250Y005754D03*
X008250Y006010D03*
X008250Y006266D03*
X008250Y006522D03*
X008250Y006778D03*
X008250Y007034D03*
X008250Y007290D03*
X008250Y007546D03*
X007250Y014254D03*
X007250Y014510D03*
X007250Y014766D03*
X007250Y015022D03*
X007250Y015278D03*
X007250Y015534D03*
X007250Y015790D03*
X007250Y016046D03*
X009455Y016046D03*
X009455Y015790D03*
X009455Y015534D03*
X009455Y015278D03*
X009455Y015022D03*
X009455Y014766D03*
X009455Y014510D03*
X009455Y014254D03*
D28*
X008352Y015150D03*
X009352Y006650D03*
D29*
X015026Y006534D03*
X015026Y006790D03*
X015026Y006278D03*
X015026Y006022D03*
X015026Y005766D03*
X015026Y005510D03*
X016679Y005510D03*
X016679Y005766D03*
X016679Y006022D03*
X016679Y006278D03*
X016679Y006534D03*
X016679Y006790D03*
X015679Y013198D03*
X015679Y013454D03*
X015679Y013710D03*
X015679Y013965D03*
X015679Y014221D03*
X015679Y014477D03*
X014026Y014477D03*
X014026Y014221D03*
X014026Y013965D03*
X014026Y013710D03*
X014026Y013454D03*
X014026Y013198D03*
D30*
X014852Y013838D03*
X015852Y006150D03*
D31*
X016087Y024526D03*
X016087Y024900D03*
X016087Y025274D03*
X017118Y025274D03*
X017118Y024526D03*
X020587Y026276D03*
X020587Y026650D03*
X020587Y027024D03*
X020587Y027776D03*
X020587Y028150D03*
X020587Y028524D03*
X021618Y028524D03*
X021618Y027776D03*
X021618Y027024D03*
X021618Y026276D03*
D32*
X027853Y018166D03*
X028601Y018166D03*
X028601Y017134D03*
X028227Y017134D03*
X027853Y017134D03*
X028853Y009166D03*
X029601Y009166D03*
X029601Y008134D03*
X029227Y008134D03*
X028853Y008134D03*
D33*
X022463Y006178D03*
X022463Y005981D03*
X022463Y005784D03*
X022463Y005588D03*
X022463Y005391D03*
X022463Y005194D03*
X022463Y004997D03*
X021242Y004997D03*
X021242Y005194D03*
X021242Y005391D03*
X021242Y005588D03*
X021242Y005784D03*
X021242Y005981D03*
X021242Y006178D03*
D34*
X021852Y005588D03*
D35*
X008838Y004525D03*
X007617Y004525D03*
X007838Y013025D03*
X006617Y013025D03*
X022867Y028525D03*
X022867Y029650D03*
X024088Y029650D03*
X024088Y028525D03*
X024617Y018525D03*
X025838Y018525D03*
D36*
X022319Y008150D03*
X021386Y008150D03*
D37*
X005415Y006989D03*
X005415Y009311D03*
X004602Y015489D03*
X004602Y017811D03*
D38*
X020352Y018506D03*
X020352Y014294D03*
D39*
X008227Y011074D03*
X008227Y008476D03*
X007227Y016976D03*
X007227Y019574D03*
D40*
X014741Y017150D03*
X017339Y017150D03*
D41*
X023852Y015530D03*
X023852Y014270D03*
X024102Y007530D03*
X025290Y007530D03*
X026477Y007530D03*
X026477Y006270D03*
X025290Y006270D03*
X024102Y006270D03*
X019727Y005645D03*
X018602Y005645D03*
X018602Y006905D03*
X019727Y006905D03*
X010102Y008395D03*
X010102Y009655D03*
X009102Y016895D03*
X009102Y018155D03*
D42*
X025102Y015937D03*
X025102Y014363D03*
D43*
X029182Y018150D03*
X029773Y018150D03*
X030182Y009400D03*
X030773Y009400D03*
X016335Y011775D03*
X015745Y011775D03*
X015710Y012463D03*
X015120Y012463D03*
X014398Y012463D03*
X013807Y012463D03*
X012273Y011400D03*
X011682Y011400D03*
X010960Y011963D03*
X010370Y011963D03*
X010557Y014025D03*
X011148Y014025D03*
X011148Y014650D03*
X010557Y014650D03*
X010620Y016650D03*
X011210Y016650D03*
X007273Y013775D03*
X006682Y013775D03*
X011495Y008150D03*
X012085Y008150D03*
X012023Y006025D03*
X011432Y006025D03*
X011432Y005400D03*
X012023Y005400D03*
X008273Y005275D03*
X007682Y005275D03*
X007648Y023150D03*
X007057Y023150D03*
X009307Y023650D03*
X009898Y023650D03*
D44*
X008852Y027355D03*
X008852Y027945D03*
X005852Y027945D03*
X005852Y027355D03*
X005977Y023945D03*
X005977Y023355D03*
X003852Y023445D03*
X003852Y022855D03*
X009977Y017445D03*
X009977Y016855D03*
X010477Y016008D03*
X010477Y015417D03*
X011102Y015167D03*
X011102Y015758D03*
X009477Y013820D03*
X009477Y013230D03*
X010602Y013445D03*
X010602Y012855D03*
X011602Y012570D03*
X011602Y011980D03*
X012227Y011980D03*
X012227Y012570D03*
X012977Y011320D03*
X012977Y010730D03*
X013602Y010730D03*
X013602Y011320D03*
X014290Y010695D03*
X014290Y010105D03*
X015415Y009855D03*
X015415Y010445D03*
X016102Y010445D03*
X016102Y009855D03*
X018415Y009855D03*
X018415Y010445D03*
X019102Y009945D03*
X019102Y009355D03*
X017665Y006695D03*
X017665Y006105D03*
X021227Y002945D03*
X021227Y002355D03*
X022977Y004042D03*
X022977Y004633D03*
X023727Y004633D03*
X023727Y004042D03*
X023727Y005105D03*
X023727Y005695D03*
X025290Y012230D03*
X025290Y012820D03*
X013727Y007695D03*
X013727Y007105D03*
X013727Y006570D03*
X013727Y005980D03*
X012102Y006605D03*
X012102Y007195D03*
X011477Y006917D03*
X011477Y007508D03*
X010977Y008855D03*
X010977Y009445D03*
X010477Y005320D03*
X010477Y004730D03*
X011415Y004883D03*
X011415Y004292D03*
X017227Y023355D03*
X017227Y023945D03*
D45*
X026852Y018516D03*
X026852Y016784D03*
X027852Y009516D03*
X027852Y007784D03*
X017102Y012909D03*
X017102Y014641D03*
D46*
X020831Y013088D03*
X021749Y013088D03*
X024019Y016775D03*
X024936Y016775D03*
D47*
X017101Y015400D03*
X016353Y015400D03*
X007164Y003025D03*
X006416Y003025D03*
X006416Y002150D03*
X007164Y002150D03*
X007478Y028650D03*
X008226Y028650D03*
X004226Y028650D03*
X003478Y028650D03*
D48*
X018852Y025510D03*
X018852Y024290D03*
X013915Y005198D03*
X013915Y003977D03*
D49*
X036665Y012435D03*
X036665Y012928D03*
X036665Y013420D03*
X036665Y013912D03*
X036665Y014404D03*
X036665Y014896D03*
X036665Y015388D03*
X036665Y015880D03*
X036665Y016372D03*
X036665Y016865D03*
X036665Y020928D03*
X036665Y021420D03*
X036665Y021912D03*
X036665Y022404D03*
X036665Y022896D03*
X036665Y023388D03*
X036665Y023880D03*
X036665Y024372D03*
X017075Y033650D03*
X016583Y033650D03*
X016091Y033650D03*
X015599Y033650D03*
X015106Y033650D03*
X014614Y033650D03*
X014122Y033650D03*
X013630Y033650D03*
D50*
X024977Y023331D03*
X026977Y023331D03*
X028977Y023331D03*
X028977Y020969D03*
X026977Y020969D03*
X024977Y020969D03*
D51*
X023352Y022900D03*
X023352Y023900D03*
X023352Y025650D03*
X023352Y026650D03*
X016602Y027900D03*
X016602Y028900D03*
X016602Y030400D03*
X016602Y031400D03*
X002852Y020275D03*
X002852Y019275D03*
X002852Y013650D03*
X002852Y012650D03*
X002852Y011150D03*
X003852Y011150D03*
X026852Y012150D03*
X026852Y013150D03*
X026852Y014650D03*
X026852Y015650D03*
X027852Y006775D03*
X027852Y005775D03*
D52*
X004396Y003693D03*
X034317Y003693D03*
X034317Y033615D03*
X004396Y033615D03*
D53*
X026475Y027744D03*
X030226Y027744D03*
D54*
X031557Y025563D03*
X027506Y025563D03*
X025136Y025563D03*
D55*
X020233Y010583D03*
X019977Y010583D03*
X019722Y010583D03*
X019722Y009717D03*
X019977Y009717D03*
X020233Y009717D03*
X017233Y009717D03*
X016977Y009717D03*
X016722Y009717D03*
X016722Y010583D03*
X016977Y010583D03*
X017233Y010583D03*
D56*
X008102Y025626D03*
X007602Y025626D03*
X007102Y025626D03*
X006602Y025626D03*
X005102Y025626D03*
X004602Y025626D03*
X004102Y025626D03*
X003602Y025626D03*
X003602Y027674D03*
X004102Y027674D03*
X004602Y027674D03*
X005102Y027674D03*
X006602Y027674D03*
X007102Y027674D03*
X007602Y027674D03*
X008102Y027674D03*
D57*
X033817Y028154D03*
X034817Y028154D03*
X034817Y027154D03*
X033817Y027154D03*
X033817Y026154D03*
X034817Y026154D03*
X034817Y025154D03*
X033817Y025154D03*
X033817Y024154D03*
X034817Y024154D03*
X034817Y023154D03*
X033817Y023154D03*
X033817Y022154D03*
X034817Y022154D03*
X034817Y021154D03*
X033817Y021154D03*
X033817Y020154D03*
X034817Y020154D03*
X034817Y019154D03*
X033817Y019154D03*
X033817Y018154D03*
X034817Y018154D03*
X034817Y017154D03*
X033817Y017154D03*
X033817Y016154D03*
X034817Y016154D03*
X034817Y015154D03*
X033817Y015154D03*
X033817Y014154D03*
X034817Y014154D03*
X034817Y013154D03*
X033817Y013154D03*
X033817Y012154D03*
X034817Y012154D03*
X034817Y011154D03*
X033817Y011154D03*
X033817Y010154D03*
X034817Y010154D03*
X034817Y009154D03*
X033817Y009154D03*
X033817Y008154D03*
X034817Y008154D03*
X034817Y007154D03*
X033817Y007154D03*
X033817Y006154D03*
X034817Y006154D03*
X034817Y029154D03*
X033817Y029154D03*
X033817Y030154D03*
X034817Y030154D03*
X034817Y031154D03*
X033817Y031154D03*
D58*
X008661Y024399D03*
X008661Y023651D03*
X007794Y024025D03*
X005286Y023776D03*
X005286Y024524D03*
X004419Y024150D03*
D59*
X015736Y026275D03*
X017469Y026275D03*
X020486Y029650D03*
X022219Y029650D03*
D60*
X007352Y030650D03*
X006352Y030650D03*
X005352Y030650D03*
D61*
X020349Y001650D03*
D62*
X019349Y001650D03*
X018349Y001650D03*
D63*
X026602Y009338D03*
X036665Y010900D03*
X022352Y024900D03*
X011852Y033150D03*
X010852Y033150D03*
X009852Y033150D03*
X002852Y023150D03*
X003852Y012463D03*
D64*
X018352Y012150D03*
X019102Y022025D03*
D65*
X012602Y030650D03*
X010602Y030650D03*
D66*
X011602Y026766D03*
D67*
X018297Y033134D03*
X018494Y033063D03*
X019809Y033512D03*
X021164Y033512D03*
X022282Y034150D03*
X022573Y033063D03*
D68*
X022766Y033134D03*
X021789Y033189D03*
X021789Y032835D03*
X020860Y034150D03*
X018498Y032953D03*
X018293Y032890D03*
D69*
X018502Y032937D03*
X018502Y032945D03*
X018502Y033071D03*
X018502Y033079D03*
X018502Y033087D03*
X019510Y034150D03*
X021998Y033252D03*
X021998Y032772D03*
X022565Y032937D03*
X022565Y032953D03*
X022770Y032890D03*
D70*
X022624Y033008D03*
X022624Y033024D03*
X022278Y034142D03*
X021215Y033528D03*
X018443Y033016D03*
X018349Y032859D03*
D71*
X018345Y032867D03*
X018345Y032874D03*
X018345Y032882D03*
X018345Y033142D03*
X018345Y033150D03*
X018345Y033158D03*
X019148Y033260D03*
X020856Y034142D03*
X021943Y032764D03*
X022620Y033016D03*
X022715Y032859D03*
D72*
X022719Y032867D03*
X022719Y032874D03*
X022719Y032882D03*
X022719Y033142D03*
X022719Y033150D03*
X022719Y033158D03*
X021947Y033260D03*
X019506Y034142D03*
D73*
X019112Y033701D03*
X019112Y033693D03*
X019104Y033685D03*
X019104Y033678D03*
X019104Y033670D03*
X019104Y033662D03*
X019104Y033654D03*
X019104Y033583D03*
X019104Y033575D03*
X019104Y033567D03*
X019104Y033559D03*
X019104Y033552D03*
X019104Y033544D03*
X019900Y033544D03*
X019900Y033552D03*
X019900Y033559D03*
X020451Y033567D03*
X020451Y033575D03*
X020451Y033583D03*
X020451Y033591D03*
X020451Y033599D03*
X020451Y033607D03*
X020451Y033615D03*
X020451Y033622D03*
X020451Y033630D03*
X020451Y033638D03*
X020451Y033646D03*
X020451Y033654D03*
X020459Y033678D03*
X020459Y033685D03*
X020459Y033693D03*
X021246Y033583D03*
X022278Y034134D03*
X021215Y032496D03*
X021215Y032489D03*
X021215Y032481D03*
X021215Y032473D03*
X021215Y032465D03*
X021215Y032457D03*
X021215Y032426D03*
X021215Y032418D03*
X021215Y032410D03*
X021215Y032402D03*
X021215Y032394D03*
X021215Y032386D03*
X021215Y032378D03*
X021215Y032370D03*
X021207Y032347D03*
X020475Y032402D03*
X020475Y032410D03*
X020475Y032418D03*
X020475Y032426D03*
X019868Y032426D03*
X019868Y032433D03*
X019868Y032441D03*
X019868Y032449D03*
X019868Y032457D03*
X019868Y032465D03*
X019868Y032473D03*
X019860Y032489D03*
X019860Y032496D03*
X019860Y032504D03*
X019860Y032512D03*
X019868Y032418D03*
X019868Y032410D03*
X019868Y032402D03*
X019860Y032378D03*
X019860Y032370D03*
X019860Y032363D03*
X019860Y032355D03*
X019482Y031914D03*
X019128Y032386D03*
X019120Y032418D03*
X019120Y032426D03*
D74*
X020486Y032433D03*
X021242Y033536D03*
X020856Y034134D03*
X019502Y034134D03*
D75*
X019821Y033780D03*
X019829Y033772D03*
X019160Y033788D03*
X019167Y033370D03*
X019175Y033363D03*
X019797Y032670D03*
X019813Y032252D03*
X019191Y032252D03*
X019183Y032260D03*
X020522Y033363D03*
X020514Y033378D03*
X021175Y033780D03*
X021939Y033788D03*
X022278Y034126D03*
X022616Y033788D03*
X021144Y032678D03*
X021144Y032670D03*
X021152Y032662D03*
X021939Y032260D03*
X020837Y031922D03*
D76*
X020514Y032292D03*
X020506Y032300D03*
X019837Y032284D03*
X019829Y032276D03*
X019837Y032591D03*
X019837Y032599D03*
X019829Y032607D03*
X019719Y032733D03*
X019160Y032300D03*
X019160Y032292D03*
X019136Y033433D03*
X019136Y033441D03*
X019128Y033449D03*
X019128Y033457D03*
X019136Y033756D03*
X019498Y034126D03*
X019852Y033733D03*
X019860Y033717D03*
X020490Y033764D03*
X020482Y033449D03*
X020482Y033441D03*
X020490Y033426D03*
X021207Y033717D03*
X021207Y033725D03*
X021215Y033709D03*
X020852Y034126D03*
X021908Y033733D03*
X021908Y033725D03*
X021915Y033741D03*
X021915Y033748D03*
X022640Y033748D03*
X022648Y033741D03*
X022648Y033733D03*
X021183Y032599D03*
X021183Y032284D03*
X021183Y032276D03*
X021908Y032315D03*
X021915Y032300D03*
X022278Y031914D03*
X022640Y032292D03*
X022640Y032300D03*
X022648Y032307D03*
X022648Y032315D03*
D77*
X022585Y033811D03*
X022278Y034119D03*
X021971Y033811D03*
X021136Y033811D03*
X020545Y033811D03*
X019789Y033811D03*
D78*
X019809Y033796D03*
X019179Y033804D03*
X019203Y033315D03*
X019211Y033307D03*
X019770Y032709D03*
X019793Y032237D03*
X020557Y033315D03*
X020549Y033323D03*
X021116Y032717D03*
X021124Y032709D03*
X021959Y033804D03*
X022597Y033804D03*
X022604Y032244D03*
X020849Y034119D03*
D79*
X021160Y033796D03*
X021167Y033788D03*
X021947Y033796D03*
X022608Y033796D03*
X021955Y032244D03*
X022278Y031922D03*
X021128Y032701D03*
X020545Y032244D03*
X019782Y032693D03*
X019774Y032701D03*
X019719Y032819D03*
X019223Y033268D03*
X019199Y033323D03*
X019191Y033331D03*
X019498Y034119D03*
X020538Y033339D03*
X020545Y033331D03*
X019199Y032244D03*
D80*
X019144Y032331D03*
X019144Y032339D03*
X019136Y032347D03*
X019136Y032355D03*
X019845Y032307D03*
X019852Y032323D03*
X019852Y032544D03*
X019852Y032552D03*
X019845Y032559D03*
X019845Y032567D03*
X020482Y032370D03*
X020490Y032347D03*
X020490Y032339D03*
X020498Y032323D03*
X021199Y032315D03*
X021199Y032307D03*
X021207Y032528D03*
X021199Y032552D03*
X021199Y032559D03*
X021892Y032559D03*
X021892Y032552D03*
X021892Y032544D03*
X021892Y032536D03*
X021892Y032528D03*
X021892Y032520D03*
X021892Y032512D03*
X021892Y032504D03*
X021892Y032496D03*
X021892Y032489D03*
X021892Y032481D03*
X021892Y032473D03*
X021892Y032465D03*
X021892Y032457D03*
X021892Y032449D03*
X021892Y032441D03*
X021892Y032433D03*
X021892Y032426D03*
X021892Y032418D03*
X021892Y032410D03*
X021892Y032402D03*
X021892Y032394D03*
X021892Y032386D03*
X021892Y032378D03*
X021900Y032355D03*
X021900Y032347D03*
X021892Y032567D03*
X021892Y032575D03*
X021892Y032583D03*
X021892Y032591D03*
X021892Y032599D03*
X021892Y032607D03*
X021892Y032615D03*
X021892Y032622D03*
X021892Y032630D03*
X021892Y032638D03*
X021892Y032646D03*
X021892Y032654D03*
X021892Y032662D03*
X021892Y032670D03*
X021892Y032678D03*
X021892Y032685D03*
X021892Y032693D03*
X021892Y032701D03*
X021892Y032709D03*
X021892Y032717D03*
X021892Y032725D03*
X021892Y032733D03*
X021892Y032741D03*
X021892Y032748D03*
X021892Y032756D03*
X021892Y032859D03*
X021892Y032867D03*
X021892Y032874D03*
X021892Y032882D03*
X021892Y032890D03*
X021892Y032898D03*
X021892Y032906D03*
X021892Y032914D03*
X021892Y032922D03*
X021892Y032930D03*
X021892Y032937D03*
X021892Y032945D03*
X021892Y032953D03*
X021892Y032961D03*
X021892Y032969D03*
X021892Y032977D03*
X021892Y032985D03*
X021892Y032993D03*
X021892Y033000D03*
X021892Y033008D03*
X021892Y033016D03*
X021892Y033024D03*
X021892Y033032D03*
X021892Y033040D03*
X021892Y033048D03*
X021892Y033056D03*
X021892Y033063D03*
X021892Y033071D03*
X021892Y033079D03*
X021892Y033087D03*
X021892Y033095D03*
X021892Y033103D03*
X021892Y033111D03*
X021892Y033119D03*
X021892Y033126D03*
X021892Y033134D03*
X021892Y033142D03*
X021892Y033150D03*
X021892Y033158D03*
X021892Y033166D03*
X021892Y033268D03*
X021892Y033276D03*
X021892Y033284D03*
X021892Y033292D03*
X021892Y033300D03*
X021892Y033307D03*
X021892Y033315D03*
X021892Y033323D03*
X021892Y033331D03*
X021892Y033339D03*
X021892Y033347D03*
X021892Y033355D03*
X021892Y033363D03*
X021892Y033370D03*
X021892Y033378D03*
X021892Y033386D03*
X021892Y033394D03*
X021892Y033402D03*
X021892Y033410D03*
X021892Y033418D03*
X021892Y033426D03*
X021892Y033433D03*
X021892Y033441D03*
X021892Y033449D03*
X021892Y033457D03*
X021892Y033465D03*
X021892Y033473D03*
X021892Y033481D03*
X021892Y033489D03*
X021892Y033496D03*
X021892Y033504D03*
X021892Y033512D03*
X021892Y033520D03*
X021892Y033528D03*
X021892Y033536D03*
X021892Y033544D03*
X021892Y033552D03*
X021892Y033559D03*
X021892Y033567D03*
X021892Y033575D03*
X021892Y033583D03*
X021892Y033591D03*
X021892Y033599D03*
X021892Y033607D03*
X021892Y033615D03*
X021892Y033622D03*
X021892Y033630D03*
X021892Y033638D03*
X021892Y033646D03*
X021892Y033654D03*
X021892Y033662D03*
X021900Y033693D03*
X021238Y033638D03*
X021238Y033630D03*
X021238Y033622D03*
X021230Y033654D03*
X021230Y033662D03*
X021223Y033685D03*
X020475Y033733D03*
X020475Y033741D03*
X020459Y033528D03*
X020467Y033496D03*
X020467Y033489D03*
X019892Y033607D03*
X019892Y033615D03*
X019884Y033638D03*
X019884Y033646D03*
X019884Y033654D03*
X019876Y033670D03*
X019876Y033678D03*
X019128Y033741D03*
X019120Y033733D03*
X019120Y033725D03*
X019112Y033512D03*
X019112Y033504D03*
X019112Y033496D03*
X019120Y033489D03*
X019120Y033481D03*
X018396Y033481D03*
X018396Y033489D03*
X018396Y033496D03*
X018396Y033504D03*
X018396Y033512D03*
X018396Y033520D03*
X018396Y033528D03*
X018396Y033536D03*
X018396Y033544D03*
X018396Y033552D03*
X018396Y033559D03*
X018396Y033567D03*
X018396Y033575D03*
X018396Y033583D03*
X018396Y033591D03*
X018396Y033599D03*
X018396Y033607D03*
X018396Y033615D03*
X018396Y033622D03*
X018396Y033630D03*
X018396Y033638D03*
X018396Y033646D03*
X018396Y033654D03*
X018396Y033662D03*
X018396Y033670D03*
X018396Y033678D03*
X018396Y033685D03*
X018396Y033693D03*
X018396Y033701D03*
X018396Y033709D03*
X018396Y033717D03*
X018396Y033725D03*
X018396Y033733D03*
X018396Y033741D03*
X018396Y033748D03*
X018396Y033756D03*
X018396Y033764D03*
X018396Y033772D03*
X018396Y033780D03*
X018396Y033788D03*
X018396Y033796D03*
X018396Y033804D03*
X018396Y033811D03*
X018396Y033819D03*
X018396Y033827D03*
X018396Y033835D03*
X018396Y033843D03*
X018396Y033851D03*
X018396Y033859D03*
X018396Y033867D03*
X018396Y033874D03*
X018396Y033882D03*
X018396Y033890D03*
X018396Y033898D03*
X018396Y033906D03*
X018396Y033914D03*
X018396Y033922D03*
X018396Y033930D03*
X018396Y033937D03*
X018396Y033945D03*
X018396Y033953D03*
X018396Y033961D03*
X018396Y033969D03*
X018396Y033977D03*
X018396Y033985D03*
X018396Y033993D03*
X018396Y034000D03*
X018396Y034008D03*
X018396Y034016D03*
X018396Y034024D03*
X018396Y034032D03*
X018396Y034040D03*
X018396Y034048D03*
X018396Y034056D03*
X018396Y034063D03*
X018396Y034071D03*
X018396Y034079D03*
X018396Y034087D03*
X018396Y034095D03*
X018396Y034103D03*
X018396Y034111D03*
X018396Y034119D03*
X018396Y033473D03*
X018396Y033465D03*
X018396Y033457D03*
X018396Y033449D03*
X018396Y033441D03*
X018396Y033433D03*
X018396Y033426D03*
X018396Y033418D03*
X018396Y033410D03*
X018396Y033402D03*
X018396Y033394D03*
X018396Y033386D03*
X018396Y033378D03*
X018396Y033370D03*
X018396Y033363D03*
X018396Y033355D03*
X018396Y033347D03*
X018396Y033339D03*
X018396Y033331D03*
X018396Y033323D03*
X018396Y033315D03*
X018396Y033307D03*
X018396Y033300D03*
X018396Y033292D03*
X018396Y033284D03*
X018396Y033276D03*
X018396Y033268D03*
X018396Y033260D03*
X018396Y033252D03*
X018396Y033244D03*
X018396Y033237D03*
X018396Y033229D03*
X018396Y033221D03*
X018396Y033213D03*
X018396Y033205D03*
X018396Y033197D03*
X018396Y033189D03*
X018396Y033181D03*
X018396Y033174D03*
X018396Y032843D03*
X018396Y032835D03*
X018396Y032827D03*
X018396Y032819D03*
X018396Y032811D03*
X018396Y032804D03*
X018396Y032796D03*
X018396Y032788D03*
X018396Y032780D03*
X018396Y032772D03*
X018396Y032764D03*
X018396Y032756D03*
X018396Y032748D03*
X018396Y032741D03*
X018396Y032733D03*
X018396Y032725D03*
X018396Y032717D03*
X018396Y032709D03*
X018396Y032701D03*
X018396Y032693D03*
X018396Y032685D03*
X018396Y032678D03*
X018396Y032670D03*
X018396Y032662D03*
X018396Y032654D03*
X018396Y032646D03*
X018396Y032638D03*
X018396Y032630D03*
X018396Y032622D03*
X018396Y032615D03*
X018396Y032607D03*
X018396Y032599D03*
X018396Y032591D03*
X018396Y032583D03*
X018396Y032575D03*
X018396Y032567D03*
X018396Y032559D03*
X018396Y032552D03*
X018396Y032544D03*
X018396Y032536D03*
X018396Y032528D03*
X018396Y032520D03*
X018396Y032512D03*
X018396Y032504D03*
X018396Y032496D03*
X018396Y032489D03*
X018396Y032481D03*
X018396Y032473D03*
X018396Y032465D03*
X018396Y032457D03*
X018396Y032449D03*
X018396Y032441D03*
X018396Y032433D03*
X018396Y032426D03*
X018396Y032418D03*
X018396Y032410D03*
X018396Y032402D03*
X018396Y032394D03*
X018396Y032386D03*
X018396Y032378D03*
X018396Y032370D03*
X018396Y032363D03*
X018396Y032355D03*
X018396Y032347D03*
X018396Y032339D03*
X018396Y032331D03*
X018396Y032323D03*
X018396Y032315D03*
X018396Y032307D03*
X018396Y032300D03*
X018396Y032292D03*
X018396Y032284D03*
X018396Y032276D03*
X018396Y032268D03*
X018396Y032260D03*
X018396Y032252D03*
X018396Y032244D03*
X018396Y032237D03*
X018396Y032229D03*
X018396Y032221D03*
X018396Y032213D03*
X018396Y032205D03*
X018396Y032197D03*
X018396Y032189D03*
X018396Y032181D03*
X018396Y032174D03*
X018396Y032166D03*
X018396Y032158D03*
X018396Y032150D03*
X018396Y032142D03*
X018396Y032134D03*
X018396Y032126D03*
X018396Y032119D03*
X018396Y032111D03*
X018396Y032103D03*
X018396Y032095D03*
X018396Y032087D03*
X018396Y032079D03*
X018396Y032071D03*
X018396Y032063D03*
X018396Y032056D03*
X018396Y032048D03*
X018396Y032040D03*
X018396Y032032D03*
X018396Y032024D03*
X018396Y032016D03*
X018396Y032008D03*
X018396Y032000D03*
X018396Y031993D03*
X018396Y031985D03*
X018396Y031977D03*
X018396Y031969D03*
X018396Y031961D03*
X018396Y031953D03*
X018396Y031945D03*
X018396Y031937D03*
X018396Y031930D03*
X018396Y031922D03*
X022656Y032339D03*
X022664Y032370D03*
X022664Y032378D03*
X022664Y032386D03*
X022664Y032394D03*
X022664Y032402D03*
X022664Y032410D03*
X022664Y032418D03*
X022664Y032426D03*
X022664Y032433D03*
X022664Y033615D03*
X022664Y033622D03*
X022664Y033630D03*
X022664Y033638D03*
X022664Y033646D03*
X022664Y033654D03*
X022664Y033662D03*
X022664Y033670D03*
X022656Y033701D03*
D81*
X022282Y034111D03*
X020667Y033181D03*
X020660Y033189D03*
X020652Y033197D03*
X020644Y033205D03*
X019675Y032827D03*
X019667Y032835D03*
D82*
X019778Y032229D03*
X019226Y032229D03*
X019195Y033811D03*
X020849Y034111D03*
X021124Y032229D03*
D83*
X020577Y032229D03*
X020624Y033229D03*
X019498Y034111D03*
X022278Y031930D03*
D84*
X020931Y032922D03*
X020923Y032930D03*
X020750Y033095D03*
X020845Y034095D03*
X022278Y034103D03*
X019601Y032906D03*
X019593Y032914D03*
X019585Y032922D03*
X019577Y032930D03*
X019569Y032937D03*
X019561Y032945D03*
X019427Y033071D03*
X019419Y033079D03*
X019412Y033087D03*
X019404Y033095D03*
X019396Y033103D03*
X019388Y033111D03*
D85*
X019333Y033166D03*
X019325Y033174D03*
X019656Y032851D03*
X019664Y032843D03*
X021002Y032851D03*
X021010Y032843D03*
X021018Y032835D03*
X020845Y034103D03*
X019498Y034103D03*
D86*
X020845Y034087D03*
X022278Y034095D03*
D87*
X020912Y032945D03*
X020919Y032937D03*
X020904Y032953D03*
X020896Y032961D03*
X020888Y032969D03*
X020880Y032977D03*
X020809Y033040D03*
X020801Y033048D03*
X020793Y033056D03*
X020786Y033063D03*
X020778Y033071D03*
X020770Y033079D03*
X020762Y033087D03*
X019549Y032953D03*
X019541Y032961D03*
X019534Y032969D03*
X019526Y032977D03*
X019518Y032985D03*
X019510Y032993D03*
X019502Y033000D03*
X019494Y033008D03*
X019486Y033016D03*
X019478Y033024D03*
X019471Y033032D03*
X019463Y033040D03*
X019455Y033048D03*
X019447Y033056D03*
X019439Y033063D03*
X019494Y034095D03*
D88*
X019490Y034079D03*
X020845Y034079D03*
X022278Y034087D03*
D89*
X019494Y034087D03*
D90*
X020845Y034071D03*
X022278Y034079D03*
X020845Y031977D03*
D91*
X022278Y034071D03*
D92*
X019494Y034071D03*
D93*
X019490Y034056D03*
X019498Y031993D03*
X020845Y031993D03*
X022278Y034063D03*
D94*
X020841Y034063D03*
X019494Y034063D03*
X019494Y031985D03*
X020849Y031985D03*
D95*
X022278Y034056D03*
D96*
X020841Y034056D03*
X022282Y031977D03*
D97*
X022278Y034048D03*
X019490Y034040D03*
X019498Y032008D03*
D98*
X019494Y032000D03*
X020849Y032000D03*
X020841Y034048D03*
D99*
X019490Y034048D03*
X022278Y031985D03*
D100*
X020849Y032024D03*
X022282Y034040D03*
D101*
X020841Y034040D03*
X020849Y032008D03*
X022282Y031993D03*
D102*
X022278Y032016D03*
X020852Y032032D03*
X019498Y032032D03*
X019490Y034016D03*
X022278Y034032D03*
D103*
X020841Y034032D03*
X020849Y032016D03*
D104*
X022278Y032000D03*
X019498Y032016D03*
X019490Y034032D03*
D105*
X019490Y034008D03*
X019498Y032040D03*
X020852Y032040D03*
X022278Y034024D03*
D106*
X020837Y034024D03*
X019490Y034024D03*
X019498Y032024D03*
X022278Y032008D03*
D107*
X020852Y032048D03*
X019498Y032048D03*
X019490Y034000D03*
X022278Y034016D03*
D108*
X020841Y034016D03*
D109*
X022278Y034008D03*
X020852Y032056D03*
X019498Y032056D03*
X019490Y033993D03*
D110*
X020841Y034008D03*
X022282Y032024D03*
D111*
X022278Y032040D03*
X022278Y034000D03*
X019490Y033985D03*
D112*
X020841Y034000D03*
X022282Y032032D03*
D113*
X022278Y032048D03*
X022278Y033993D03*
X020837Y033977D03*
X019490Y033977D03*
D114*
X020841Y033993D03*
X020849Y032063D03*
X019502Y032063D03*
D115*
X019498Y032087D03*
X020852Y032087D03*
X020837Y033969D03*
X022278Y033985D03*
X019490Y033969D03*
D116*
X020841Y033985D03*
X020849Y032071D03*
X019502Y032071D03*
D117*
X020852Y032095D03*
X022278Y032071D03*
X022278Y033977D03*
X020837Y033961D03*
X019490Y033961D03*
D118*
X020852Y032111D03*
X022278Y032079D03*
X022278Y033969D03*
D119*
X022278Y033961D03*
X020837Y033937D03*
X019490Y033937D03*
X020852Y032119D03*
X022278Y032087D03*
D120*
X020849Y032126D03*
X019502Y032126D03*
X022282Y033953D03*
D121*
X020841Y033953D03*
X019486Y033953D03*
X019502Y032103D03*
X020849Y032103D03*
D122*
X020852Y032134D03*
X022278Y032095D03*
X022278Y033945D03*
X020837Y033930D03*
X019490Y033930D03*
X019498Y032134D03*
D123*
X019502Y032119D03*
X019502Y032111D03*
X019486Y033945D03*
X020841Y033945D03*
D124*
X020837Y033914D03*
X022278Y033937D03*
X022278Y032111D03*
X020852Y032150D03*
X019490Y033914D03*
D125*
X019502Y032158D03*
X019502Y032150D03*
X022282Y033930D03*
D126*
X022278Y033922D03*
X020837Y033906D03*
X019490Y033906D03*
X020852Y032166D03*
X020852Y032158D03*
X022278Y032119D03*
D127*
X022282Y032103D03*
X020849Y032142D03*
X019502Y032142D03*
X019486Y033922D03*
X020841Y033922D03*
D128*
X020837Y033890D03*
X022278Y033914D03*
X022278Y032134D03*
X020852Y032174D03*
X020852Y032181D03*
X019498Y032181D03*
X019490Y033890D03*
D129*
X019486Y033882D03*
X020841Y033882D03*
X022282Y033906D03*
X020849Y032189D03*
X019502Y032189D03*
D130*
X019498Y032197D03*
X020852Y032197D03*
X022278Y032150D03*
X022278Y032142D03*
X022278Y033898D03*
X019490Y033874D03*
D131*
X019486Y033898D03*
X020841Y033898D03*
X019502Y032174D03*
X019502Y032166D03*
X022282Y032126D03*
D132*
X020849Y032205D03*
X019502Y032205D03*
X020841Y033867D03*
X020841Y033874D03*
X022282Y033890D03*
D133*
X022278Y033882D03*
X020852Y032221D03*
X020852Y032213D03*
X022278Y032166D03*
X022278Y032158D03*
X019498Y032213D03*
X019498Y032221D03*
X019490Y033859D03*
X019490Y033867D03*
D134*
X020841Y033859D03*
X020841Y033851D03*
X022282Y033874D03*
D135*
X022278Y033867D03*
X022278Y032181D03*
X022278Y032174D03*
X019490Y033843D03*
X019490Y033851D03*
D136*
X020841Y033843D03*
X020841Y033835D03*
X022282Y033859D03*
D137*
X022278Y033851D03*
X022278Y032197D03*
X022278Y032189D03*
X019490Y033819D03*
X019490Y033827D03*
X019490Y033835D03*
D138*
X020841Y033827D03*
X020841Y033819D03*
X022282Y033843D03*
X022282Y032205D03*
D139*
X022278Y032213D03*
X022278Y032221D03*
X022278Y033827D03*
X022278Y033835D03*
D140*
X022282Y033819D03*
D141*
X021152Y033804D03*
X020530Y033804D03*
X020561Y033307D03*
X021026Y032804D03*
X021144Y032237D03*
X020561Y032237D03*
X019766Y032717D03*
X019758Y032725D03*
X019207Y032237D03*
X019230Y033276D03*
X019223Y033292D03*
X019215Y033300D03*
X019797Y033804D03*
D142*
X019817Y033788D03*
X019171Y033796D03*
X019179Y033355D03*
X019179Y033347D03*
X019187Y033339D03*
X019786Y032685D03*
X019793Y032678D03*
X019801Y032244D03*
X020541Y032252D03*
X021132Y032693D03*
X021140Y032685D03*
X021156Y032244D03*
X021943Y032252D03*
X022612Y032252D03*
X020534Y033347D03*
X020526Y033355D03*
X020518Y033796D03*
D143*
X020510Y033788D03*
X020502Y033780D03*
X020510Y033386D03*
X020518Y033370D03*
X021179Y033772D03*
X021187Y033764D03*
X021935Y033780D03*
X022620Y033780D03*
X021156Y032654D03*
X021164Y032252D03*
X020534Y032260D03*
X020526Y032268D03*
X019809Y032646D03*
X019809Y032654D03*
X019801Y032662D03*
X019368Y033181D03*
X019164Y033378D03*
X019156Y033394D03*
X019833Y033764D03*
X019841Y033756D03*
X019486Y031922D03*
X022620Y032260D03*
D144*
X022624Y032268D03*
X022632Y032276D03*
X021931Y032268D03*
X021175Y032268D03*
X021167Y032260D03*
X021167Y032630D03*
X021167Y032638D03*
X021160Y032646D03*
X020522Y032276D03*
X019821Y032260D03*
X019821Y032630D03*
X019813Y032638D03*
X019175Y032268D03*
X019160Y033386D03*
X019152Y033402D03*
X019144Y033418D03*
X019152Y033780D03*
X019845Y033748D03*
X020498Y033410D03*
X020498Y033402D03*
X020506Y033394D03*
X021191Y033756D03*
X021923Y033764D03*
X021931Y033772D03*
X022632Y033772D03*
X022632Y033764D03*
D145*
X022636Y033756D03*
X021919Y033756D03*
X021203Y033741D03*
X021203Y033733D03*
X021195Y033748D03*
X020494Y033772D03*
X020486Y033433D03*
X020494Y033418D03*
X019856Y033725D03*
X019849Y033741D03*
X019148Y033772D03*
X019140Y033764D03*
X019140Y033426D03*
X019148Y033410D03*
X019825Y032622D03*
X019825Y032615D03*
X019825Y032268D03*
X019171Y032276D03*
X019164Y032284D03*
X020518Y032284D03*
X021179Y032607D03*
X021179Y032615D03*
X021171Y032622D03*
X021919Y032292D03*
X021919Y032284D03*
X021927Y032276D03*
X022636Y032284D03*
D146*
X022652Y032323D03*
X022652Y032331D03*
X022660Y032347D03*
X022660Y032355D03*
X022660Y032363D03*
X021912Y032307D03*
X021904Y032323D03*
X021904Y032331D03*
X021904Y032339D03*
X021896Y032363D03*
X021896Y032370D03*
X021195Y032300D03*
X021187Y032292D03*
X021195Y032567D03*
X021195Y032575D03*
X021187Y032583D03*
X021187Y032591D03*
X020502Y032315D03*
X020502Y032307D03*
X020494Y032331D03*
X019841Y032300D03*
X019841Y032292D03*
X019841Y032575D03*
X019841Y032583D03*
X019156Y032307D03*
X019148Y032315D03*
X019148Y032323D03*
X019124Y033465D03*
X019124Y033473D03*
X019132Y033748D03*
X019864Y033709D03*
X019864Y033701D03*
X019872Y033693D03*
X019872Y033685D03*
X019880Y033662D03*
X020478Y033748D03*
X020486Y033756D03*
X020471Y033481D03*
X020471Y033473D03*
X020478Y033465D03*
X020478Y033457D03*
X021219Y033693D03*
X021219Y033701D03*
X021226Y033678D03*
X021226Y033670D03*
X021896Y033670D03*
X021896Y033678D03*
X021896Y033685D03*
X021904Y033701D03*
X021904Y033709D03*
X021904Y033717D03*
X022652Y033717D03*
X022652Y033725D03*
X022652Y033709D03*
X022660Y033693D03*
X022660Y033685D03*
X022660Y033678D03*
D147*
X022667Y033607D03*
X022667Y033599D03*
X022667Y033591D03*
X022667Y033583D03*
X022667Y033575D03*
X022667Y033567D03*
X022667Y033559D03*
X022667Y033552D03*
X022667Y033544D03*
X022667Y033536D03*
X022667Y033528D03*
X022667Y033520D03*
X022667Y033512D03*
X022667Y033504D03*
X022667Y033496D03*
X022667Y033489D03*
X022667Y033481D03*
X022667Y033473D03*
X022667Y033465D03*
X022667Y033457D03*
X022667Y033449D03*
X022667Y033441D03*
X022667Y033433D03*
X022667Y033426D03*
X022667Y033418D03*
X022667Y033410D03*
X022667Y033402D03*
X022667Y033394D03*
X022667Y033386D03*
X022667Y033378D03*
X022667Y033370D03*
X022667Y033363D03*
X022667Y033355D03*
X022667Y033347D03*
X022667Y033339D03*
X022667Y033331D03*
X022667Y033323D03*
X022667Y033315D03*
X022667Y033307D03*
X022667Y033300D03*
X022667Y033292D03*
X022667Y033284D03*
X022667Y033276D03*
X022667Y033268D03*
X022667Y033260D03*
X022667Y033252D03*
X022667Y033244D03*
X022667Y033237D03*
X022667Y033229D03*
X022667Y033221D03*
X022667Y033213D03*
X022667Y033205D03*
X022667Y033197D03*
X022667Y033189D03*
X022667Y033181D03*
X022667Y032843D03*
X022667Y032835D03*
X022667Y032827D03*
X022667Y032819D03*
X022667Y032811D03*
X022667Y032804D03*
X022667Y032796D03*
X022667Y032788D03*
X022667Y032780D03*
X022667Y032772D03*
X022667Y032764D03*
X022667Y032756D03*
X022667Y032748D03*
X022667Y032741D03*
X022667Y032733D03*
X022667Y032725D03*
X022667Y032717D03*
X022667Y032709D03*
X022667Y032701D03*
X022667Y032693D03*
X022667Y032685D03*
X022667Y032678D03*
X022667Y032670D03*
X022667Y032662D03*
X022667Y032654D03*
X022667Y032646D03*
X022667Y032638D03*
X022667Y032630D03*
X022667Y032622D03*
X022667Y032615D03*
X022667Y032607D03*
X022667Y032599D03*
X022667Y032591D03*
X022667Y032583D03*
X022667Y032575D03*
X022667Y032567D03*
X022667Y032559D03*
X022667Y032552D03*
X022667Y032544D03*
X022667Y032536D03*
X022667Y032528D03*
X022667Y032520D03*
X022667Y032512D03*
X022667Y032504D03*
X022667Y032496D03*
X022667Y032489D03*
X022667Y032481D03*
X022667Y032473D03*
X022667Y032465D03*
X022667Y032457D03*
X022667Y032449D03*
X022667Y032441D03*
X021211Y032504D03*
X021211Y032512D03*
X021211Y032520D03*
X021203Y032536D03*
X021203Y032544D03*
X021211Y032363D03*
X021211Y032355D03*
X021203Y032339D03*
X021203Y032331D03*
X021203Y032323D03*
X020833Y031914D03*
X020486Y032355D03*
X020486Y032363D03*
X020478Y032378D03*
X020478Y032386D03*
X020478Y032394D03*
X019856Y032347D03*
X019856Y032339D03*
X019856Y032331D03*
X019849Y032315D03*
X019856Y032520D03*
X019856Y032528D03*
X019856Y032536D03*
X019132Y032378D03*
X019132Y032370D03*
X019132Y032363D03*
X019124Y032394D03*
X019124Y032402D03*
X019124Y032410D03*
X019108Y033520D03*
X019108Y033528D03*
X019108Y033536D03*
X019116Y033709D03*
X019116Y033717D03*
X019888Y033630D03*
X019888Y033622D03*
X019896Y033599D03*
X019896Y033591D03*
X019896Y033583D03*
X019896Y033575D03*
X019896Y033567D03*
X020455Y033559D03*
X020455Y033552D03*
X020455Y033544D03*
X020455Y033536D03*
X020463Y033520D03*
X020463Y033512D03*
X020463Y033504D03*
X020463Y033701D03*
X020463Y033709D03*
X020471Y033717D03*
X020471Y033725D03*
X021234Y033646D03*
X021242Y033615D03*
X021242Y033607D03*
X021242Y033599D03*
X021242Y033591D03*
X021250Y033575D03*
X021250Y033567D03*
X021250Y033559D03*
X021250Y033552D03*
X021250Y033544D03*
D148*
X020455Y033662D03*
X020455Y033670D03*
X019392Y033189D03*
X019101Y033591D03*
X019101Y033599D03*
X019101Y033607D03*
X019101Y033615D03*
X019101Y033622D03*
X019101Y033630D03*
X019101Y033638D03*
X019101Y033646D03*
X019864Y032481D03*
X019864Y032394D03*
X019864Y032386D03*
X021219Y032433D03*
X021219Y032441D03*
X021219Y032449D03*
D149*
X019892Y033536D03*
D150*
X019864Y033528D03*
X020951Y032796D03*
X022628Y032993D03*
X022628Y033000D03*
X022628Y033032D03*
X022707Y033166D03*
X018439Y033024D03*
X018439Y033008D03*
X018439Y033000D03*
D151*
X021187Y033520D03*
D152*
X019837Y033520D03*
X022278Y031898D03*
D153*
X022789Y032922D03*
X022789Y032930D03*
X022789Y032937D03*
X022789Y033087D03*
X022789Y033095D03*
X022789Y033119D03*
X021136Y033504D03*
X018270Y033111D03*
X018270Y033103D03*
X018270Y033095D03*
X018270Y032930D03*
X018270Y032922D03*
X018270Y032914D03*
X018270Y032906D03*
D154*
X019242Y032457D03*
X019786Y033504D03*
X022022Y033244D03*
X022022Y032780D03*
X022793Y032906D03*
X022793Y032914D03*
X022793Y033103D03*
X022793Y033111D03*
D155*
X022620Y033134D03*
X022612Y033111D03*
X022612Y033103D03*
X022518Y033095D03*
X022518Y032930D03*
X022612Y032922D03*
X021998Y033213D03*
X021998Y033221D03*
X021998Y033229D03*
X021849Y033244D03*
X021849Y033252D03*
X021841Y033197D03*
X021841Y032827D03*
X021841Y032819D03*
X021841Y032811D03*
X021841Y032804D03*
X021841Y032796D03*
X021841Y032788D03*
X021841Y032780D03*
X020904Y032741D03*
X021108Y033496D03*
X019880Y032741D03*
X019573Y032748D03*
X019573Y032756D03*
X019573Y032764D03*
X019573Y032772D03*
X019573Y032780D03*
X019250Y033205D03*
X019250Y033213D03*
X019250Y033221D03*
X019101Y033181D03*
X018549Y033095D03*
X018455Y033095D03*
X018447Y033126D03*
X018455Y032930D03*
D156*
X019758Y033496D03*
X020908Y032733D03*
D157*
X021081Y033489D03*
X019530Y033213D03*
X019451Y032804D03*
X018577Y032898D03*
X018577Y032906D03*
X018577Y032914D03*
X018577Y033111D03*
X018577Y033119D03*
X018577Y033126D03*
X018215Y033040D03*
X018215Y033032D03*
X018215Y033024D03*
X018215Y032993D03*
X018215Y032985D03*
X022490Y032914D03*
X022490Y032906D03*
X022490Y032898D03*
X022490Y032890D03*
X022490Y033111D03*
X022490Y033119D03*
X022490Y033126D03*
X022490Y033134D03*
X022845Y033040D03*
X022845Y033032D03*
X022845Y032993D03*
X022845Y032985D03*
D158*
X022849Y033000D03*
X022849Y033008D03*
X022849Y033016D03*
X022849Y033024D03*
X019730Y033489D03*
X019526Y033221D03*
X018211Y033016D03*
X018211Y033008D03*
X018211Y033000D03*
D159*
X018451Y032922D03*
X018451Y032914D03*
X018451Y032906D03*
X018443Y032890D03*
X018545Y032930D03*
X018451Y033103D03*
X018451Y033111D03*
X018451Y033119D03*
X018443Y033134D03*
X019097Y033189D03*
X019097Y033197D03*
X019097Y033205D03*
X019097Y033213D03*
X019097Y033221D03*
X019097Y033229D03*
X019097Y033237D03*
X019246Y033237D03*
X019246Y033244D03*
X019246Y033252D03*
X019246Y033229D03*
X019254Y033197D03*
X019404Y033205D03*
X019404Y033213D03*
X019404Y033221D03*
X019404Y033229D03*
X019404Y033237D03*
X019404Y033244D03*
X019404Y033252D03*
X019404Y033260D03*
X019577Y032811D03*
X019577Y032804D03*
X019577Y032796D03*
X019577Y032788D03*
X019726Y032788D03*
X019726Y032796D03*
X019726Y032804D03*
X019726Y032780D03*
X019726Y032772D03*
X019726Y032764D03*
X019726Y032756D03*
X019726Y032748D03*
X019726Y032741D03*
X019884Y032748D03*
X019884Y032756D03*
X019884Y032764D03*
X019884Y032772D03*
X019884Y032780D03*
X019884Y032788D03*
X019884Y032796D03*
X020435Y033237D03*
X020435Y033244D03*
X020435Y033252D03*
X020435Y033260D03*
X020435Y033268D03*
X020435Y033276D03*
X020435Y033284D03*
X020435Y033292D03*
X020435Y033300D03*
X020593Y033300D03*
X020593Y033292D03*
X020593Y033284D03*
X020593Y033276D03*
X020593Y033268D03*
X020593Y033260D03*
X020593Y033252D03*
X020593Y033244D03*
X020593Y033237D03*
X020750Y033237D03*
X020750Y033244D03*
X020750Y033252D03*
X020750Y033260D03*
X020750Y033268D03*
X020750Y033276D03*
X020750Y033284D03*
X020750Y033292D03*
X020750Y033300D03*
X020900Y032788D03*
X020900Y032780D03*
X020900Y032772D03*
X020900Y032764D03*
X020900Y032756D03*
X020900Y032748D03*
X021057Y032748D03*
X021057Y032741D03*
X021057Y032733D03*
X021057Y032756D03*
X021057Y032764D03*
X021057Y032772D03*
X021057Y032780D03*
X021057Y032788D03*
X021215Y032788D03*
X021215Y032796D03*
X021215Y032780D03*
X021215Y032772D03*
X021215Y032764D03*
X021215Y032756D03*
X021215Y032748D03*
X021215Y032741D03*
X021215Y032733D03*
X021845Y032772D03*
X021994Y032788D03*
X021994Y032796D03*
X021994Y032804D03*
X021994Y032811D03*
X021994Y032819D03*
X021994Y032827D03*
X021994Y032835D03*
X021994Y032843D03*
X021994Y033181D03*
X021994Y033189D03*
X021994Y033197D03*
X021994Y033205D03*
X022002Y033237D03*
X021845Y033237D03*
X021845Y033229D03*
X021845Y033221D03*
X021845Y033213D03*
X021845Y033205D03*
X022608Y033095D03*
X022616Y033119D03*
X022616Y033126D03*
X022608Y032930D03*
X022616Y032914D03*
X022616Y032906D03*
X022616Y032898D03*
X022616Y032890D03*
D160*
X022589Y032237D03*
X021967Y032237D03*
X020841Y031930D03*
X019486Y031930D03*
X019226Y033284D03*
D161*
X019443Y032819D03*
X018569Y033103D03*
X018223Y033063D03*
X018223Y032961D03*
X021719Y032827D03*
X021719Y032764D03*
X021719Y033237D03*
X021719Y033244D03*
X021719Y033252D03*
X021719Y033260D03*
X022498Y033103D03*
X022837Y033063D03*
X022837Y032961D03*
D162*
X022561Y032945D03*
X022561Y033071D03*
X022561Y033079D03*
X022561Y033087D03*
X019089Y033252D03*
X018286Y033126D03*
D163*
X019073Y033244D03*
X020593Y032457D03*
D164*
X021715Y032772D03*
X021715Y032780D03*
X021715Y032788D03*
X021715Y032796D03*
X021715Y032804D03*
X021715Y032811D03*
X021715Y032819D03*
X021715Y033197D03*
X021715Y033205D03*
X021715Y033213D03*
X021715Y033221D03*
X021715Y033229D03*
X022494Y033174D03*
X022494Y033166D03*
X022494Y033158D03*
X022494Y033150D03*
X022494Y033142D03*
X022494Y032882D03*
X022494Y032874D03*
X022494Y032867D03*
X022494Y032859D03*
X022494Y032851D03*
X022841Y032969D03*
X022841Y032977D03*
X022841Y033048D03*
X022841Y033056D03*
X019447Y032811D03*
X018573Y032851D03*
X018573Y032859D03*
X018573Y032867D03*
X018573Y032874D03*
X018573Y032882D03*
X018573Y032890D03*
X018573Y033134D03*
X018573Y033142D03*
X018573Y033150D03*
X018573Y033158D03*
X018573Y033166D03*
X018219Y033056D03*
X018219Y033048D03*
X018219Y032977D03*
X018219Y032969D03*
D165*
X019459Y032796D03*
X019522Y033229D03*
D166*
X020628Y033221D03*
D167*
X020640Y033213D03*
X021026Y032827D03*
X021034Y032819D03*
X021041Y032811D03*
X020837Y031937D03*
X021986Y032229D03*
X022569Y032229D03*
X019490Y031937D03*
D168*
X019518Y033205D03*
X020912Y032725D03*
D169*
X020553Y032449D03*
X019459Y033197D03*
X019207Y032449D03*
X022577Y032961D03*
D170*
X022585Y033056D03*
X021805Y033181D03*
X018482Y033056D03*
D171*
X019136Y032433D03*
X021868Y033174D03*
X022687Y033174D03*
D172*
X022282Y031937D03*
X020998Y032859D03*
X020990Y032867D03*
X020982Y032874D03*
X020699Y033150D03*
X020691Y033158D03*
X020683Y033166D03*
X020675Y033174D03*
X019644Y032859D03*
X019636Y032867D03*
X019337Y033158D03*
D173*
X018435Y033032D03*
X018435Y032993D03*
X018356Y033166D03*
X020829Y031906D03*
X022632Y032985D03*
X022632Y033040D03*
D174*
X020971Y032882D03*
X020703Y033142D03*
X019632Y032874D03*
X019624Y032882D03*
X019616Y032890D03*
X019372Y033126D03*
X019364Y033134D03*
X019356Y033142D03*
X019349Y033150D03*
X019490Y031945D03*
D175*
X019604Y032898D03*
X019376Y033119D03*
X020715Y033134D03*
X020723Y033126D03*
X020730Y033119D03*
X020738Y033111D03*
X020746Y033103D03*
X020943Y032914D03*
X020951Y032906D03*
X020959Y032898D03*
X020967Y032890D03*
X020841Y031945D03*
D176*
X022778Y033126D03*
X018282Y032898D03*
D177*
X018274Y032937D03*
X018274Y032945D03*
X018274Y033079D03*
X018274Y033087D03*
X018274Y033119D03*
X019581Y032741D03*
X022786Y032945D03*
X022786Y032953D03*
X022786Y033071D03*
X022786Y033079D03*
D178*
X022782Y032898D03*
X018278Y032953D03*
X018278Y033071D03*
D179*
X018301Y033063D03*
X018301Y032961D03*
X022758Y032961D03*
X022758Y033063D03*
D180*
X022754Y033056D03*
X022754Y032969D03*
X018447Y032898D03*
X018305Y032969D03*
X018305Y033056D03*
D181*
X018431Y033040D03*
X018431Y032985D03*
X019786Y032811D03*
X019478Y031906D03*
X022636Y032977D03*
X022636Y033048D03*
D182*
X022695Y032851D03*
X018427Y032977D03*
X018427Y033048D03*
D183*
X019490Y031953D03*
X020845Y031953D03*
X020868Y032985D03*
X020860Y032993D03*
X020852Y033000D03*
X020845Y033008D03*
X020837Y033016D03*
X020829Y033024D03*
X020821Y033032D03*
X022278Y031945D03*
D184*
X022589Y032969D03*
D185*
X021813Y032843D03*
X020829Y031898D03*
X019475Y031898D03*
X018475Y032969D03*
D186*
X018486Y032961D03*
D187*
X018565Y032922D03*
X020628Y032465D03*
X022502Y032922D03*
D188*
X021864Y032851D03*
X021179Y032725D03*
X022282Y031906D03*
X018368Y032851D03*
D189*
X019896Y032804D03*
D190*
X019278Y032465D03*
X021309Y032733D03*
D191*
X020518Y032441D03*
X019171Y032441D03*
D192*
X019502Y032095D03*
X022282Y032063D03*
D193*
X022282Y032056D03*
X020849Y032079D03*
X019502Y032079D03*
D194*
X019494Y031977D03*
D195*
X022278Y031969D03*
D196*
X022278Y031961D03*
X020845Y031969D03*
D197*
X019494Y031969D03*
D198*
X019490Y031961D03*
X020845Y031961D03*
X022278Y031953D03*
D199*
X014352Y032150D03*
X013852Y032150D03*
X013852Y031650D03*
X014352Y031650D03*
X008852Y033150D03*
X008852Y029150D03*
X006352Y026650D03*
X005852Y026650D03*
X005352Y026650D03*
X014852Y019650D03*
X015352Y019650D03*
X015852Y019650D03*
X023852Y018650D03*
X023852Y018150D03*
X023852Y017650D03*
X029352Y014650D03*
X029352Y014150D03*
X029352Y013650D03*
X026852Y008150D03*
X026352Y008150D03*
X025852Y008150D03*
X025352Y008150D03*
X024852Y008150D03*
X024352Y008150D03*
X029352Y007650D03*
X029852Y007650D03*
X030352Y007650D03*
X030352Y007150D03*
X029852Y007150D03*
X029352Y007150D03*
X024852Y002150D03*
X024852Y001650D03*
X024352Y001650D03*
X023852Y001650D03*
X023352Y001650D03*
X022852Y001650D03*
X022852Y002150D03*
X023352Y002150D03*
X023852Y002150D03*
X024352Y002150D03*
X015852Y002150D03*
X015352Y002150D03*
X014852Y002150D03*
X014852Y001650D03*
X015352Y001650D03*
X015852Y001650D03*
X007665Y002088D03*
X007665Y002588D03*
X007665Y003088D03*
X024790Y023900D03*
X025290Y023900D03*
X025790Y023900D03*
X026290Y023900D03*
X026790Y023900D03*
X027290Y023900D03*
X027790Y023900D03*
X028290Y023900D03*
X028790Y023900D03*
X029290Y023900D03*
X031727Y020588D03*
X032227Y020588D03*
D200*
X030852Y014150D03*
X030602Y011775D03*
X030540Y011400D03*
X030227Y011150D03*
X030540Y010838D03*
X030227Y010525D03*
X032477Y010963D03*
X032852Y011150D03*
X027852Y003650D03*
X022477Y004525D03*
X021852Y004525D03*
X021852Y004963D03*
X021852Y005338D03*
X021852Y005713D03*
X021852Y006025D03*
X021852Y006400D03*
X021665Y006713D03*
X021665Y007025D03*
X021977Y007025D03*
X022290Y007025D03*
X022040Y006713D03*
X021352Y007025D03*
X020477Y005088D03*
X020790Y004588D03*
X021352Y003650D03*
X018227Y004963D03*
X017102Y006463D03*
X016852Y007150D03*
X016227Y006650D03*
X015852Y006650D03*
X015477Y006650D03*
X015477Y006150D03*
X015852Y006150D03*
X016227Y006150D03*
X016227Y005650D03*
X015852Y005650D03*
X015477Y005650D03*
X014477Y005900D03*
X014352Y006650D03*
X014852Y008650D03*
X014352Y009650D03*
X014790Y011025D03*
X014227Y011338D03*
X014540Y013400D03*
X014852Y013400D03*
X015165Y013400D03*
X015165Y013838D03*
X014852Y013838D03*
X014540Y013838D03*
X014540Y014275D03*
X014852Y014275D03*
X015165Y014275D03*
X016852Y011150D03*
X017852Y009650D03*
X017852Y009150D03*
X017352Y009150D03*
X016102Y009400D03*
X019852Y011150D03*
X021540Y010838D03*
X022477Y010525D03*
X022665Y009400D03*
X009727Y007150D03*
X009352Y007150D03*
X008977Y007150D03*
X008977Y006650D03*
X009352Y006650D03*
X009727Y006650D03*
X009727Y006150D03*
X009352Y006150D03*
X008977Y006150D03*
X007852Y005963D03*
X006852Y005650D03*
X006790Y014463D03*
X007977Y014650D03*
X008352Y014650D03*
X008727Y014650D03*
X008727Y015150D03*
X008352Y015150D03*
X007977Y015150D03*
X007977Y015650D03*
X008352Y015650D03*
X008727Y015650D03*
X012915Y022213D03*
X017915Y024275D03*
X018290Y024275D03*
X018290Y024775D03*
X017915Y024775D03*
X019602Y026088D03*
X019602Y026463D03*
X019977Y026463D03*
X019977Y026088D03*
X020040Y027525D03*
X020040Y027900D03*
X019665Y027900D03*
X019665Y027525D03*
X023602Y027775D03*
X024040Y027775D03*
X024540Y027775D03*
X019602Y023338D03*
X019852Y021150D03*
X006165Y024463D03*
D201*
X014727Y022213D03*
X014977Y022650D03*
X017165Y022650D03*
X017290Y022213D03*
X005790Y014213D03*
X013852Y010150D03*
X013352Y003150D03*
X023790Y009463D03*
X029352Y009713D03*
X031352Y007150D03*
X031352Y006150D03*
X032477Y008650D03*
D202*
X030852Y020150D03*
X015477Y029713D03*
D203*
X011540Y032088D03*
M02*
