G75*
G70*
%OFA0B0*%
%FSLAX24Y24*%
%IPPOS*%
%LPD*%
%AMOC8*
5,1,8,0,0,1.08239X$1,22.5*
%
%ADD10C,0.0000*%
D10*
X000150Y001331D02*
X000150Y033615D01*
X000152Y033681D01*
X000157Y033747D01*
X000167Y033813D01*
X000180Y033878D01*
X000196Y033942D01*
X000216Y034005D01*
X000240Y034067D01*
X000267Y034127D01*
X000297Y034186D01*
X000331Y034243D01*
X000368Y034298D01*
X000408Y034351D01*
X000450Y034402D01*
X000496Y034450D01*
X000544Y034496D01*
X000595Y034538D01*
X000648Y034578D01*
X000703Y034615D01*
X000760Y034649D01*
X000819Y034679D01*
X000879Y034706D01*
X000941Y034730D01*
X001004Y034750D01*
X001068Y034766D01*
X001133Y034779D01*
X001199Y034789D01*
X001265Y034794D01*
X001331Y034796D01*
X035977Y034796D01*
X036043Y034794D01*
X036109Y034789D01*
X036175Y034779D01*
X036240Y034766D01*
X036304Y034750D01*
X036367Y034730D01*
X036429Y034706D01*
X036489Y034679D01*
X036548Y034649D01*
X036605Y034615D01*
X036660Y034578D01*
X036713Y034538D01*
X036764Y034496D01*
X036812Y034450D01*
X036858Y034402D01*
X036900Y034351D01*
X036940Y034298D01*
X036977Y034243D01*
X037011Y034186D01*
X037041Y034127D01*
X037068Y034067D01*
X037092Y034005D01*
X037112Y033942D01*
X037128Y033878D01*
X037141Y033813D01*
X037151Y033747D01*
X037156Y033681D01*
X037158Y033615D01*
X037158Y003693D01*
X037156Y003627D01*
X037151Y003561D01*
X037141Y003495D01*
X037128Y003430D01*
X037112Y003366D01*
X037092Y003303D01*
X037068Y003241D01*
X037041Y003181D01*
X037011Y003122D01*
X036977Y003065D01*
X036940Y003010D01*
X036900Y002957D01*
X036858Y002906D01*
X036812Y002858D01*
X036764Y002812D01*
X036713Y002770D01*
X036660Y002730D01*
X036605Y002693D01*
X036548Y002659D01*
X036489Y002629D01*
X036429Y002602D01*
X036367Y002578D01*
X036304Y002558D01*
X036240Y002542D01*
X036175Y002529D01*
X036109Y002519D01*
X036043Y002514D01*
X035977Y002512D01*
X028890Y002512D01*
X028836Y002510D01*
X028783Y002505D01*
X028730Y002496D01*
X028678Y002483D01*
X028626Y002467D01*
X028576Y002447D01*
X028528Y002424D01*
X028481Y002397D01*
X028436Y002368D01*
X028393Y002335D01*
X028353Y002300D01*
X028315Y002262D01*
X028280Y002222D01*
X028247Y002179D01*
X028218Y002134D01*
X028191Y002087D01*
X028168Y002039D01*
X028148Y001989D01*
X028132Y001937D01*
X028119Y001885D01*
X028110Y001832D01*
X028105Y001779D01*
X028103Y001725D01*
X028103Y000150D01*
X001331Y000150D01*
X001265Y000152D01*
X001199Y000157D01*
X001133Y000167D01*
X001068Y000180D01*
X001004Y000196D01*
X000941Y000216D01*
X000879Y000240D01*
X000819Y000267D01*
X000760Y000297D01*
X000703Y000331D01*
X000648Y000368D01*
X000595Y000408D01*
X000544Y000450D01*
X000496Y000496D01*
X000450Y000544D01*
X000408Y000595D01*
X000368Y000648D01*
X000331Y000703D01*
X000297Y000760D01*
X000267Y000819D01*
X000240Y000879D01*
X000216Y000941D01*
X000196Y001004D01*
X000180Y001068D01*
X000167Y001133D01*
X000157Y001199D01*
X000152Y001265D01*
X000150Y001331D01*
X025181Y027744D02*
X025183Y027792D01*
X025189Y027840D01*
X025199Y027887D01*
X025212Y027933D01*
X025230Y027978D01*
X025250Y028022D01*
X025275Y028064D01*
X025303Y028103D01*
X025333Y028140D01*
X025367Y028174D01*
X025404Y028206D01*
X025442Y028235D01*
X025483Y028260D01*
X025526Y028282D01*
X025571Y028300D01*
X025617Y028314D01*
X025664Y028325D01*
X025712Y028332D01*
X025760Y028335D01*
X025808Y028334D01*
X025856Y028329D01*
X025904Y028320D01*
X025950Y028308D01*
X025995Y028291D01*
X026039Y028271D01*
X026081Y028248D01*
X026121Y028221D01*
X026159Y028191D01*
X026194Y028158D01*
X026226Y028122D01*
X026256Y028084D01*
X026282Y028043D01*
X026304Y028000D01*
X026324Y027956D01*
X026339Y027911D01*
X026351Y027864D01*
X026359Y027816D01*
X026363Y027768D01*
X026363Y027720D01*
X026359Y027672D01*
X026351Y027624D01*
X026339Y027577D01*
X026324Y027532D01*
X026304Y027488D01*
X026282Y027445D01*
X026256Y027404D01*
X026226Y027366D01*
X026194Y027330D01*
X026159Y027297D01*
X026121Y027267D01*
X026081Y027240D01*
X026039Y027217D01*
X025995Y027197D01*
X025950Y027180D01*
X025904Y027168D01*
X025856Y027159D01*
X025808Y027154D01*
X025760Y027153D01*
X025712Y027156D01*
X025664Y027163D01*
X025617Y027174D01*
X025571Y027188D01*
X025526Y027206D01*
X025483Y027228D01*
X025442Y027253D01*
X025404Y027282D01*
X025367Y027314D01*
X025333Y027348D01*
X025303Y027385D01*
X025275Y027424D01*
X025250Y027466D01*
X025230Y027510D01*
X025212Y027555D01*
X025199Y027601D01*
X025189Y027648D01*
X025183Y027696D01*
X025181Y027744D01*
X028933Y027744D02*
X028935Y027792D01*
X028941Y027840D01*
X028951Y027887D01*
X028964Y027933D01*
X028982Y027978D01*
X029002Y028022D01*
X029027Y028064D01*
X029055Y028103D01*
X029085Y028140D01*
X029119Y028174D01*
X029156Y028206D01*
X029194Y028235D01*
X029235Y028260D01*
X029278Y028282D01*
X029323Y028300D01*
X029369Y028314D01*
X029416Y028325D01*
X029464Y028332D01*
X029512Y028335D01*
X029560Y028334D01*
X029608Y028329D01*
X029656Y028320D01*
X029702Y028308D01*
X029747Y028291D01*
X029791Y028271D01*
X029833Y028248D01*
X029873Y028221D01*
X029911Y028191D01*
X029946Y028158D01*
X029978Y028122D01*
X030008Y028084D01*
X030034Y028043D01*
X030056Y028000D01*
X030076Y027956D01*
X030091Y027911D01*
X030103Y027864D01*
X030111Y027816D01*
X030115Y027768D01*
X030115Y027720D01*
X030111Y027672D01*
X030103Y027624D01*
X030091Y027577D01*
X030076Y027532D01*
X030056Y027488D01*
X030034Y027445D01*
X030008Y027404D01*
X029978Y027366D01*
X029946Y027330D01*
X029911Y027297D01*
X029873Y027267D01*
X029833Y027240D01*
X029791Y027217D01*
X029747Y027197D01*
X029702Y027180D01*
X029656Y027168D01*
X029608Y027159D01*
X029560Y027154D01*
X029512Y027153D01*
X029464Y027156D01*
X029416Y027163D01*
X029369Y027174D01*
X029323Y027188D01*
X029278Y027206D01*
X029235Y027228D01*
X029194Y027253D01*
X029156Y027282D01*
X029119Y027314D01*
X029085Y027348D01*
X029055Y027385D01*
X029027Y027424D01*
X029002Y027466D01*
X028982Y027510D01*
X028964Y027555D01*
X028951Y027601D01*
X028941Y027648D01*
X028935Y027696D01*
X028933Y027744D01*
M02*
