G75*
G70*
%OFA0B0*%
%FSLAX24Y24*%
%IPPOS*%
%LPD*%
%AMOC8*
5,1,8,0,0,1.08239X$1,22.5*
%
%ADD10C,0.0040*%
%ADD11C,0.2300*%
%ADD12C,0.0600*%
%ADD13C,0.0827*%
%ADD14C,0.0740*%
%ADD15C,0.0100*%
%ADD16C,0.0400*%
%ADD17C,0.0160*%
%ADD18C,0.0396*%
D10*
X035920Y002920D02*
X035920Y003227D01*
X035920Y003380D02*
X036380Y003380D01*
X036380Y003687D01*
X036380Y003841D02*
X035920Y003841D01*
X036073Y003994D01*
X035920Y004148D01*
X036380Y004148D01*
X036380Y004301D02*
X035920Y004301D01*
X035920Y004531D01*
X035996Y004608D01*
X036150Y004608D01*
X036227Y004531D01*
X036227Y004301D01*
X036380Y004762D02*
X036073Y005068D01*
X035996Y005068D01*
X035920Y004992D01*
X035920Y004838D01*
X035996Y004762D01*
X036380Y004762D02*
X036380Y005068D01*
X035920Y003687D02*
X035920Y003380D01*
X036150Y003380D02*
X036150Y003534D01*
X036380Y003073D02*
X035920Y003073D01*
X035920Y013420D02*
X035920Y013727D01*
X035920Y013880D02*
X036380Y013880D01*
X036380Y014187D01*
X036380Y014341D02*
X035920Y014341D01*
X036073Y014494D01*
X035920Y014648D01*
X036380Y014648D01*
X036380Y014801D02*
X035920Y014801D01*
X035920Y015031D01*
X035996Y015108D01*
X036150Y015108D01*
X036227Y015031D01*
X036227Y014801D01*
X035920Y014187D02*
X035920Y013880D01*
X036150Y013880D02*
X036150Y014034D01*
X036380Y013573D02*
X035920Y013573D01*
X036073Y015722D02*
X035920Y015875D01*
X036380Y015875D01*
X036380Y015722D02*
X036380Y016029D01*
D11*
X003693Y003693D03*
X003693Y010583D03*
X001528Y014061D03*
X001528Y023247D03*
X003693Y028300D03*
X003693Y033615D03*
X012059Y033615D03*
X021804Y033615D03*
X025150Y028937D03*
X025150Y025150D03*
X029650Y025150D03*
X033615Y033615D03*
X033615Y003693D03*
X027315Y003693D03*
X026823Y001331D03*
X013733Y001331D03*
D12*
X033115Y006154D03*
X034115Y006154D03*
X034115Y007154D03*
X034115Y008154D03*
X034115Y009154D03*
X034115Y010154D03*
X034115Y011154D03*
X034115Y012154D03*
X034115Y013154D03*
X034115Y014154D03*
X034115Y015154D03*
X034115Y016154D03*
X034115Y017154D03*
X034115Y018154D03*
X034115Y019154D03*
X034115Y020154D03*
X034115Y021154D03*
X034115Y022154D03*
X034115Y023154D03*
X034115Y024154D03*
X034115Y025154D03*
X034115Y026154D03*
X034115Y027154D03*
X034115Y028154D03*
X034115Y029154D03*
X034115Y030154D03*
X034115Y031154D03*
X033115Y031154D03*
X033115Y030154D03*
X033115Y029154D03*
X033115Y028154D03*
X033115Y027154D03*
X033115Y026154D03*
X033115Y025154D03*
X033115Y024154D03*
X033115Y023154D03*
X033115Y022154D03*
X033115Y021154D03*
X033115Y020154D03*
X033115Y019154D03*
X033115Y018154D03*
X033115Y017154D03*
X033115Y016154D03*
X033115Y015154D03*
X033115Y014154D03*
X033115Y013154D03*
X033115Y012154D03*
X033115Y011154D03*
X033115Y010154D03*
X033115Y009154D03*
X033115Y008154D03*
X033115Y007154D03*
D13*
X029693Y028524D02*
X029693Y029351D01*
X027693Y029351D02*
X027693Y028524D01*
D14*
X036150Y012400D03*
X036150Y011400D03*
X036150Y010400D03*
X036150Y008150D03*
X036150Y007150D03*
X036150Y006150D03*
D15*
X030900Y023900D02*
X028400Y023900D01*
X028400Y026650D01*
X028900Y026650D01*
X028900Y030150D01*
X030900Y030150D01*
X030900Y023900D01*
X030900Y023987D02*
X028400Y023987D01*
X028400Y024086D02*
X030900Y024086D01*
X030900Y024184D02*
X028400Y024184D01*
X028400Y024283D02*
X030900Y024283D01*
X030900Y024381D02*
X028400Y024381D01*
X028400Y024480D02*
X030900Y024480D01*
X030900Y024578D02*
X028400Y024578D01*
X028400Y024677D02*
X030900Y024677D01*
X030900Y024775D02*
X028400Y024775D01*
X028400Y024874D02*
X030900Y024874D01*
X030900Y024972D02*
X028400Y024972D01*
X028400Y025071D02*
X030900Y025071D01*
X030900Y025169D02*
X028400Y025169D01*
X028400Y025268D02*
X030900Y025268D01*
X030900Y025366D02*
X028400Y025366D01*
X028400Y025465D02*
X030900Y025465D01*
X030900Y025563D02*
X028400Y025563D01*
X028400Y025662D02*
X030900Y025662D01*
X030900Y025760D02*
X028400Y025760D01*
X028400Y025859D02*
X030900Y025859D01*
X030900Y025957D02*
X028400Y025957D01*
X028400Y026056D02*
X030900Y026056D01*
X030900Y026154D02*
X028400Y026154D01*
X028400Y026253D02*
X030900Y026253D01*
X030900Y026351D02*
X028400Y026351D01*
X028400Y026450D02*
X030900Y026450D01*
X030900Y026548D02*
X028400Y026548D01*
X028400Y026647D02*
X030900Y026647D01*
X030900Y026745D02*
X028900Y026745D01*
X028900Y026844D02*
X030900Y026844D01*
X030900Y026942D02*
X028900Y026942D01*
X028900Y027041D02*
X030900Y027041D01*
X030900Y027139D02*
X028900Y027139D01*
X028900Y027238D02*
X030900Y027238D01*
X030900Y027336D02*
X028900Y027336D01*
X028900Y027435D02*
X030900Y027435D01*
X030900Y027533D02*
X028900Y027533D01*
X028900Y027632D02*
X030900Y027632D01*
X030900Y027730D02*
X028900Y027730D01*
X028900Y027829D02*
X030900Y027829D01*
X030900Y027927D02*
X028900Y027927D01*
X028900Y028026D02*
X030900Y028026D01*
X030900Y028124D02*
X028900Y028124D01*
X028900Y028223D02*
X030900Y028223D01*
X030900Y028321D02*
X028900Y028321D01*
X028900Y028420D02*
X030900Y028420D01*
X030900Y028518D02*
X028900Y028518D01*
X028900Y028617D02*
X030900Y028617D01*
X030900Y028715D02*
X028900Y028715D01*
X028900Y028814D02*
X030900Y028814D01*
X030900Y028912D02*
X028900Y028912D01*
X028900Y029011D02*
X030900Y029011D01*
X030900Y029109D02*
X028900Y029109D01*
X028900Y029208D02*
X030900Y029208D01*
X030900Y029306D02*
X028900Y029306D01*
X028900Y029405D02*
X030900Y029405D01*
X030900Y029503D02*
X028900Y029503D01*
X028900Y029602D02*
X030900Y029602D01*
X030900Y029700D02*
X028900Y029700D01*
X028900Y029799D02*
X030900Y029799D01*
X030900Y029897D02*
X028900Y029897D01*
X028900Y029996D02*
X030900Y029996D01*
X030900Y030094D02*
X028900Y030094D01*
X028400Y030094D02*
X024025Y030094D01*
X024025Y030150D02*
X028400Y030150D01*
X028400Y027650D01*
X024025Y027650D01*
X024025Y030150D01*
X024025Y029996D02*
X028400Y029996D01*
X028400Y029897D02*
X024025Y029897D01*
X024025Y029799D02*
X028400Y029799D01*
X028400Y029700D02*
X024025Y029700D01*
X024025Y029602D02*
X028400Y029602D01*
X028400Y029503D02*
X024025Y029503D01*
X024025Y029405D02*
X028400Y029405D01*
X028400Y029306D02*
X024025Y029306D01*
X024025Y029208D02*
X028400Y029208D01*
X028400Y029109D02*
X024025Y029109D01*
X024025Y029011D02*
X028400Y029011D01*
X028400Y028912D02*
X024025Y028912D01*
X024025Y028814D02*
X028400Y028814D01*
X028400Y028715D02*
X024025Y028715D01*
X024025Y028617D02*
X028400Y028617D01*
X028400Y028518D02*
X024025Y028518D01*
X024025Y028420D02*
X028400Y028420D01*
X028400Y028321D02*
X024025Y028321D01*
X024025Y028223D02*
X028400Y028223D01*
X028400Y028124D02*
X024025Y028124D01*
X024025Y028026D02*
X028400Y028026D01*
X028400Y027927D02*
X024025Y027927D01*
X024025Y027829D02*
X028400Y027829D01*
X028400Y027730D02*
X024025Y027730D01*
X032900Y027730D02*
X034400Y027730D01*
X034400Y027632D02*
X032900Y027632D01*
X032900Y027533D02*
X034400Y027533D01*
X034400Y027435D02*
X032900Y027435D01*
X032900Y027336D02*
X034400Y027336D01*
X034400Y027238D02*
X032900Y027238D01*
X032900Y027139D02*
X034400Y027139D01*
X034400Y027041D02*
X032900Y027041D01*
X032900Y026942D02*
X034400Y026942D01*
X034400Y026900D02*
X032900Y026900D01*
X032900Y028400D01*
X034400Y028400D01*
X034400Y026900D01*
X034400Y027829D02*
X032900Y027829D01*
X032900Y027927D02*
X034400Y027927D01*
X034400Y028026D02*
X032900Y028026D01*
X032900Y028124D02*
X034400Y028124D01*
X034400Y028223D02*
X032900Y028223D01*
X032900Y028321D02*
X034400Y028321D01*
X034400Y028900D02*
X032900Y028900D01*
X032900Y030400D01*
X034400Y030400D01*
X034400Y028900D01*
X034400Y028912D02*
X032900Y028912D01*
X032900Y029011D02*
X034400Y029011D01*
X034400Y029109D02*
X032900Y029109D01*
X032900Y029208D02*
X034400Y029208D01*
X034400Y029306D02*
X032900Y029306D01*
X032900Y029405D02*
X034400Y029405D01*
X034400Y029503D02*
X032900Y029503D01*
X032900Y029602D02*
X034400Y029602D01*
X034400Y029700D02*
X032900Y029700D01*
X032900Y029799D02*
X034400Y029799D01*
X034400Y029897D02*
X032900Y029897D01*
X032900Y029996D02*
X034400Y029996D01*
X034400Y030094D02*
X032900Y030094D01*
X032900Y030193D02*
X034400Y030193D01*
X034400Y030291D02*
X032900Y030291D01*
X032900Y030390D02*
X034400Y030390D01*
X002275Y033775D02*
X002088Y033400D01*
X001650Y033400D01*
X001838Y033775D01*
X001650Y033400D02*
X001213Y033400D01*
X001400Y033775D01*
X001650Y033338D02*
X001650Y032588D01*
D16*
X033115Y026154D02*
X034115Y026154D01*
X034115Y009154D02*
X033115Y009154D01*
D17*
X032150Y008650D02*
X032150Y011150D01*
X032650Y011650D01*
X035650Y011650D01*
X035900Y011400D01*
X036150Y011400D01*
X035400Y011150D02*
X035400Y009650D01*
X034654Y009154D01*
X034646Y009154D01*
X035650Y008150D01*
X036150Y008150D01*
X036150Y007150D02*
X035150Y007150D01*
X034650Y007650D01*
X033650Y007650D01*
X033154Y007154D01*
X033115Y007154D01*
X033115Y008154D02*
X032646Y008154D01*
X032150Y008650D01*
X034115Y009154D02*
X034646Y009154D01*
D18*
X035400Y011150D03*
M02*
