%
M48
M72
T01C0.0098
T02C0.0118
T03C0.0157
T04C0.0236
T05C0.0276
T06C0.0591
T07C0.0669
T08C0.1260
%
T01
X8608Y20785
T02
X9858Y21535
X9858Y22160
X8108Y22160
X6983Y21035
X6983Y20660
X6983Y20285
X6608Y20285
X6608Y20660
X6608Y21035
X6233Y21035
X6233Y20660
X6233Y20285
X8358Y19160
X7733Y18160
X6983Y17160
X8733Y16410
X8858Y15035
X9358Y14160
X10733Y16160
X10733Y16535
X10733Y17785
X10733Y18160
X11483Y19410
X12233Y20035
X11733Y20785
X12858Y21160
X11983Y22910
X12233Y24535
X13233Y24535
X14108Y23660
X14858Y23660
X15358Y23160
X16358Y22160
X16358Y21160
X17858Y21160
X17858Y22160
X19358Y22160
X19358Y21160
X20858Y21160
X20858Y22160
X22358Y22160
X23858Y22160
X23858Y21160
X25358Y21160
X25358Y22160
X26858Y22160
X26858Y21160
X28858Y21160
X28858Y22160
X30358Y22160
X30358Y21160
X31858Y21160
X31858Y22160
X31858Y23660
X31108Y24785
X31858Y25160
X31858Y26660
X31108Y26535
X31858Y28160
X31358Y29160
X30358Y28160
X29358Y29160
X29358Y30160
X29358Y31660
X27858Y31660
X26358Y31660
X24858Y31660
X23358Y31660
X21858Y31660
X20858Y30785
X20358Y31660
X19358Y30785
X18858Y31660
X17858Y30785
X17358Y31660
X15858Y31660
X16358Y30160
X17858Y29410
X18608Y29410
X18608Y27160
X17358Y27160
X17358Y25535
X15983Y25535
X15608Y24410
X15358Y27035
X14483Y27035
X14483Y28160
X15733Y28160
X14358Y29660
X12858Y28160
X12858Y27160
X10858Y27160
X10858Y28160
X10358Y29660
X8858Y28160
X8858Y27160
X7358Y27160
X6858Y28160
X5358Y27660
X4358Y26660
X3358Y25660
X4358Y25160
X5358Y25160
X6358Y26160
X7858Y25535
X8983Y24660
X9983Y24660
X11233Y24535
X7858Y24160
X6358Y24160
X5358Y23660
X3358Y22160
X1358Y21660
X1358Y19660
X1358Y17660
X1358Y15660
X1358Y13160
X1358Y11160
X1358Y9160
X1358Y7660
X1358Y5660
X1358Y3660
X3358Y3660
X3358Y4660
X5358Y4660
X5358Y3660
X5858Y6660
X4733Y8660
X4358Y8660
X4358Y9160
X4733Y9160
X5858Y9660
X4608Y12160
X3858Y12160
X5608Y14410
X5858Y15160
X6358Y14660
X5108Y17160
X4358Y17160
X1358Y23660
X1358Y25660
X1358Y27660
X2858Y27660
X2858Y29160
X3858Y30160
X4358Y29160
X6358Y29660
X8358Y29660
X8358Y31660
X9858Y31660
X11358Y31660
X12858Y31660
X14358Y31660
X12358Y29660
X6858Y31660
X5358Y31660
X3858Y31660
X1358Y29160
X12608Y17660
X13233Y17660
X13233Y18410
X12858Y16410
X13858Y16410
X15608Y15035
X17483Y16035
X17483Y16660
X20358Y15535
X20358Y15160
X21358Y13660
X22358Y13660
X19858Y11160
X19858Y10785
X19483Y10785
X19483Y11160
X13358Y10910
X13358Y11410
X12858Y11410
X12858Y10910
X20108Y24660
X18858Y25535
X21108Y27160
X21108Y28285
X21108Y29410
X22358Y30160
X22858Y28660
X23233Y27160
X24108Y27160
X24358Y28160
X26358Y28160
X28358Y28160
X29358Y24535
X27358Y24535
X25858Y24535
X24483Y24535
X23858Y25535
X22358Y25535
X21608Y24660
T03
X22858Y16660
X24733Y16410
X17983Y14910
X17858Y14285
X16358Y12160
X16608Y11785
X13733Y12660
X12858Y12660
X12358Y12785
X12858Y10160
X13358Y9660
X16358Y8160
X16858Y8035
X17358Y7910
X17733Y8160
X18858Y8035
X20358Y7535
X20483Y8160
X20858Y6660
X21108Y6285
X23108Y6285
X23608Y6535
X24608Y6285
X25108Y6660
X19858Y9660
X14358Y5160
X13858Y5160
X12108Y4535
X11858Y3160
X8358Y6285
X8983Y6535
X8858Y7660
X8108Y7785
X8608Y10660
X5858Y10660
X2358Y10285
T04
X28358Y6660
X28358Y6160
X28358Y5660
X28858Y5660
X29358Y5660
X29358Y6160
X28858Y6160
X28858Y6660
X29358Y6660
X29858Y6660
X29858Y6160
X29858Y5660
T05
X18358Y4785
X17858Y4785
X17358Y4785
X16858Y4785
X16358Y4785
X16358Y2785
X16858Y2785
X17358Y2785
X17858Y2785
X18358Y2785
T06
X29358Y26285
T07
X30358Y25285
X28358Y25285
X28358Y27285
X30358Y27285
T08
X1539Y1341
X31460Y1341
X31460Y31262
X1539Y31262
M30
