G75*
G70*
%OFA0B0*%
%FSLAX24Y24*%
%IPPOS*%
%LPD*%
%AMOC8*
5,1,8,0,0,1.08239X$1,22.5*
%
%ADD10C,0.0966*%
%ADD11C,0.1084*%
%ADD12C,0.2380*%
%ADD13R,0.0356X0.0513*%
%ADD14C,0.0556*%
%ADD15C,0.0397*%
%ADD16C,0.0358*%
%ADD17C,0.0476*%
%ADD18C,0.0338*%
D10*
X029358Y026285D03*
D11*
X030358Y025285D03*
X028358Y025285D03*
X028358Y027285D03*
X030358Y027285D03*
D12*
X001539Y001341D03*
X031460Y001341D03*
X031460Y031262D03*
X001539Y031262D03*
D13*
X012938Y012160D03*
X013528Y012160D03*
D14*
X016358Y004785D03*
X016858Y004785D03*
X017358Y004785D03*
X017858Y004785D03*
X018358Y004785D03*
X018358Y002785D03*
X017858Y002785D03*
X017358Y002785D03*
X016858Y002785D03*
X016358Y002785D03*
D15*
X014358Y005160D03*
X013858Y005160D03*
X012108Y004535D03*
X011858Y003160D03*
X008358Y006285D03*
X008983Y006535D03*
X008858Y007660D03*
X008108Y007785D03*
X008608Y010660D03*
X005858Y010660D03*
X002358Y010285D03*
X012358Y012785D03*
X012858Y012660D03*
X013733Y012660D03*
X012858Y010160D03*
X013358Y009660D03*
X016358Y008160D03*
X016858Y008035D03*
X017358Y007910D03*
X017733Y008160D03*
X018858Y008035D03*
X020358Y007535D03*
X020483Y008160D03*
X020858Y006660D03*
X021108Y006285D03*
X023108Y006285D03*
X023608Y006535D03*
X024608Y006285D03*
X025108Y006660D03*
X019858Y009660D03*
X016608Y011785D03*
X016358Y012160D03*
X017858Y014285D03*
X017983Y014910D03*
X022858Y016660D03*
X024733Y016410D03*
D16*
X022358Y013660D03*
X021358Y013660D03*
X020358Y015160D03*
X020358Y015535D03*
X017483Y016035D03*
X017483Y016660D03*
X015608Y015035D03*
X013858Y016410D03*
X012858Y016410D03*
X012608Y017660D03*
X013233Y017660D03*
X013233Y018410D03*
X012233Y020035D03*
X011733Y020785D03*
X012858Y021160D03*
X011483Y019410D03*
X010733Y018160D03*
X010733Y017785D03*
X010733Y016535D03*
X010733Y016160D03*
X008733Y016410D03*
X008858Y015035D03*
X009358Y014160D03*
X006358Y014660D03*
X005858Y015160D03*
X005608Y014410D03*
X004608Y012160D03*
X003858Y012160D03*
X001358Y011160D03*
X001358Y009160D03*
X001358Y007660D03*
X001358Y005660D03*
X001358Y003660D03*
X003358Y003660D03*
X003358Y004660D03*
X005358Y004660D03*
X005358Y003660D03*
X005858Y006660D03*
X004733Y008660D03*
X004358Y008660D03*
X004358Y009160D03*
X004733Y009160D03*
X005858Y009660D03*
X001358Y013160D03*
X001358Y015660D03*
X001358Y017660D03*
X001358Y019660D03*
X001358Y021660D03*
X001358Y023660D03*
X001358Y025660D03*
X003358Y025660D03*
X004358Y025160D03*
X005358Y025160D03*
X006358Y026160D03*
X007358Y027160D03*
X006858Y028160D03*
X005358Y027660D03*
X004358Y026660D03*
X002858Y027660D03*
X001358Y027660D03*
X001358Y029160D03*
X002858Y029160D03*
X003858Y030160D03*
X004358Y029160D03*
X006358Y029660D03*
X008358Y029660D03*
X008858Y028160D03*
X008858Y027160D03*
X007858Y025535D03*
X008983Y024660D03*
X009983Y024660D03*
X011233Y024535D03*
X012233Y024535D03*
X013233Y024535D03*
X014108Y023660D03*
X014858Y023660D03*
X015358Y023160D03*
X016358Y022160D03*
X016358Y021160D03*
X017858Y021160D03*
X017858Y022160D03*
X019358Y022160D03*
X019358Y021160D03*
X020858Y021160D03*
X020858Y022160D03*
X022358Y022160D03*
X023858Y022160D03*
X023858Y021160D03*
X025358Y021160D03*
X025358Y022160D03*
X026858Y022160D03*
X026858Y021160D03*
X028858Y021160D03*
X028858Y022160D03*
X030358Y022160D03*
X030358Y021160D03*
X031858Y021160D03*
X031858Y022160D03*
X031858Y023660D03*
X031108Y024785D03*
X031858Y025160D03*
X031858Y026660D03*
X031108Y026535D03*
X031858Y028160D03*
X031358Y029160D03*
X030358Y028160D03*
X029358Y029160D03*
X029358Y030160D03*
X029358Y031660D03*
X027858Y031660D03*
X026358Y031660D03*
X024858Y031660D03*
X023358Y031660D03*
X021858Y031660D03*
X020858Y030785D03*
X020358Y031660D03*
X019358Y030785D03*
X018858Y031660D03*
X017858Y030785D03*
X017358Y031660D03*
X015858Y031660D03*
X016358Y030160D03*
X017858Y029410D03*
X018608Y029410D03*
X018608Y027160D03*
X017358Y027160D03*
X017358Y025535D03*
X015983Y025535D03*
X015608Y024410D03*
X015358Y027035D03*
X014483Y027035D03*
X014483Y028160D03*
X015733Y028160D03*
X014358Y029660D03*
X012858Y028160D03*
X012858Y027160D03*
X010858Y027160D03*
X010858Y028160D03*
X010358Y029660D03*
X012358Y029660D03*
X012858Y031660D03*
X011358Y031660D03*
X009858Y031660D03*
X008358Y031660D03*
X006858Y031660D03*
X005358Y031660D03*
X003858Y031660D03*
X006358Y024160D03*
X005358Y023660D03*
X003358Y022160D03*
X006233Y021035D03*
X006233Y020660D03*
X006233Y020285D03*
X006608Y020285D03*
X006983Y020285D03*
X006983Y020660D03*
X006608Y020660D03*
X006608Y021035D03*
X006983Y021035D03*
X008108Y022160D03*
X009858Y022160D03*
X009858Y021535D03*
X011983Y022910D03*
X008358Y019160D03*
X007733Y018160D03*
X006983Y017160D03*
X005108Y017160D03*
X004358Y017160D03*
X007858Y024160D03*
X014358Y031660D03*
X018858Y025535D03*
X020108Y024660D03*
X021608Y024660D03*
X022358Y025535D03*
X023858Y025535D03*
X024483Y024535D03*
X025858Y024535D03*
X027358Y024535D03*
X029358Y024535D03*
X028358Y028160D03*
X026358Y028160D03*
X024358Y028160D03*
X024108Y027160D03*
X023233Y027160D03*
X022858Y028660D03*
X022358Y030160D03*
X021108Y029410D03*
X021108Y028285D03*
X021108Y027160D03*
X019858Y011160D03*
X019858Y010785D03*
X019483Y010785D03*
X019483Y011160D03*
X013358Y010910D03*
X013358Y011410D03*
X012858Y011410D03*
X012858Y010910D03*
D17*
X028358Y006660D03*
X028358Y006160D03*
X028358Y005660D03*
X028858Y005660D03*
X029358Y005660D03*
X029358Y006160D03*
X028858Y006160D03*
X028858Y006660D03*
X029358Y006660D03*
X029858Y006660D03*
X029858Y006160D03*
X029858Y005660D03*
D18*
X008608Y020785D03*
M02*
