G75*
G70*
%OFA0B0*%
%FSLAX24Y24*%
%IPPOS*%
%LPD*%
%AMOC8*
5,1,8,0,0,1.08239X$1,22.5*
%
%ADD10R,0.0394X0.0315*%
%ADD11R,0.0433X0.0276*%
%ADD12R,0.0709X0.0276*%
%ADD13C,0.0039*%
%ADD14R,0.0276X0.0433*%
%ADD15R,0.1000X0.0402*%
%ADD16R,0.0551X0.0394*%
%ADD17C,0.0886*%
%ADD18C,0.1004*%
%ADD19C,0.2300*%
%ADD20R,0.0256X0.0866*%
%ADD21R,0.0866X0.0236*%
%ADD22R,0.0846X0.1358*%
%ADD23R,0.0551X0.0118*%
%ADD24R,0.0118X0.0551*%
%ADD25R,0.0394X0.0709*%
%ADD26C,0.0476*%
%ADD27R,0.0866X0.0256*%
%ADD28R,0.0236X0.0480*%
%ADD29R,0.0480X0.0236*%
%ADD30R,0.0591X0.0276*%
%ADD31R,0.0177X0.0315*%
%ADD32C,0.0063*%
%ADD33R,0.2008X0.2008*%
%ADD34R,0.0591X0.0709*%
%ADD35R,0.0276X0.0787*%
%ADD36R,0.0630X0.0866*%
%ADD37R,0.0276X0.0591*%
%ADD38R,0.0472X0.0906*%
%ADD39R,0.0315X0.0315*%
%ADD40R,0.0189X0.0008*%
%ADD41R,0.0181X0.0008*%
%ADD42R,0.0173X0.0008*%
%ADD43R,0.0291X0.0008*%
%ADD44R,0.0283X0.0008*%
%ADD45R,0.0276X0.0008*%
%ADD46R,0.0370X0.0008*%
%ADD47R,0.0346X0.0008*%
%ADD48R,0.0433X0.0008*%
%ADD49R,0.0402X0.0008*%
%ADD50R,0.0480X0.0008*%
%ADD51R,0.0457X0.0008*%
%ADD52R,0.0449X0.0008*%
%ADD53R,0.0386X0.0008*%
%ADD54R,0.0520X0.0008*%
%ADD55R,0.0488X0.0008*%
%ADD56R,0.0496X0.0008*%
%ADD57R,0.0559X0.0008*%
%ADD58R,0.0528X0.0008*%
%ADD59R,0.0591X0.0008*%
%ADD60R,0.0567X0.0008*%
%ADD61R,0.0622X0.0008*%
%ADD62R,0.0598X0.0008*%
%ADD63R,0.0654X0.0008*%
%ADD64R,0.0685X0.0008*%
%ADD65R,0.0646X0.0008*%
%ADD66R,0.0701X0.0008*%
%ADD67R,0.0677X0.0008*%
%ADD68R,0.0732X0.0008*%
%ADD69R,0.0693X0.0008*%
%ADD70R,0.0748X0.0008*%
%ADD71R,0.0724X0.0008*%
%ADD72R,0.0717X0.0008*%
%ADD73R,0.0772X0.0008*%
%ADD74R,0.0740X0.0008*%
%ADD75R,0.0795X0.0008*%
%ADD76R,0.0756X0.0008*%
%ADD77R,0.0764X0.0008*%
%ADD78R,0.0811X0.0008*%
%ADD79R,0.0780X0.0008*%
%ADD80R,0.0827X0.0008*%
%ADD81R,0.0803X0.0008*%
%ADD82R,0.0843X0.0008*%
%ADD83R,0.0819X0.0008*%
%ADD84R,0.0858X0.0008*%
%ADD85R,0.0835X0.0008*%
%ADD86R,0.0874X0.0008*%
%ADD87R,0.0850X0.0008*%
%ADD88R,0.0890X0.0008*%
%ADD89R,0.0866X0.0008*%
%ADD90R,0.0906X0.0008*%
%ADD91R,0.0921X0.0008*%
%ADD92R,0.0937X0.0008*%
%ADD93R,0.0945X0.0008*%
%ADD94R,0.0913X0.0008*%
%ADD95R,0.0953X0.0008*%
%ADD96R,0.0929X0.0008*%
%ADD97R,0.0969X0.0008*%
%ADD98R,0.0976X0.0008*%
%ADD99R,0.0984X0.0008*%
%ADD100R,0.0961X0.0008*%
%ADD101R,0.1000X0.0008*%
%ADD102R,0.1008X0.0008*%
%ADD103R,0.1016X0.0008*%
%ADD104R,0.0992X0.0008*%
%ADD105R,0.1024X0.0008*%
%ADD106R,0.1031X0.0008*%
%ADD107R,0.1039X0.0008*%
%ADD108R,0.1047X0.0008*%
%ADD109R,0.1055X0.0008*%
%ADD110R,0.1063X0.0008*%
%ADD111R,0.1071X0.0008*%
%ADD112R,0.1079X0.0008*%
%ADD113R,0.1087X0.0008*%
%ADD114R,0.0465X0.0008*%
%ADD115R,0.0441X0.0008*%
%ADD116R,0.0425X0.0008*%
%ADD117R,0.0417X0.0008*%
%ADD118R,0.0409X0.0008*%
%ADD119R,0.0394X0.0008*%
%ADD120R,0.0378X0.0008*%
%ADD121R,0.0362X0.0008*%
%ADD122R,0.0354X0.0008*%
%ADD123R,0.0299X0.0008*%
%ADD124R,0.0236X0.0008*%
%ADD125R,0.0244X0.0008*%
%ADD126R,0.0134X0.0008*%
%ADD127R,0.0126X0.0008*%
%ADD128R,0.0079X0.0008*%
%ADD129R,0.0071X0.0008*%
%ADD130R,0.0024X0.0008*%
%ADD131R,0.0016X0.0008*%
%ADD132R,0.0087X0.0008*%
%ADD133R,0.0472X0.0008*%
%ADD134R,0.0039X0.0008*%
%ADD135R,0.0165X0.0008*%
%ADD136R,0.0118X0.0008*%
%ADD137R,0.0031X0.0008*%
%ADD138R,0.0008X0.0008*%
%ADD139R,0.0504X0.0008*%
%ADD140R,0.0512X0.0008*%
%ADD141R,0.0063X0.0008*%
%ADD142R,0.0197X0.0008*%
%ADD143R,0.0213X0.0008*%
%ADD144R,0.0339X0.0008*%
%ADD145R,0.0535X0.0008*%
%ADD146R,0.0307X0.0008*%
%ADD147R,0.0543X0.0008*%
%ADD148R,0.0551X0.0008*%
%ADD149R,0.0157X0.0008*%
%ADD150R,0.0142X0.0008*%
%ADD151R,0.0150X0.0008*%
%ADD152R,0.0102X0.0008*%
%ADD153R,0.0094X0.0008*%
%ADD154R,0.0315X0.0008*%
%ADD155R,0.0323X0.0008*%
%ADD156R,0.0575X0.0008*%
%ADD157R,0.0220X0.0008*%
%ADD158R,0.0228X0.0008*%
%ADD159R,0.0205X0.0008*%
%ADD160R,0.0047X0.0008*%
%ADD161R,0.0331X0.0008*%
%ADD162R,0.0110X0.0008*%
%ADD163R,0.0055X0.0008*%
%ADD164R,0.0268X0.0008*%
%ADD165R,0.0898X0.0008*%
%ADD166R,0.0882X0.0008*%
%ADD167R,0.0661X0.0008*%
%ADD168R,0.0669X0.0008*%
%ADD169R,0.0638X0.0008*%
%ADD170R,0.0630X0.0008*%
%ADD171R,0.0606X0.0008*%
%ADD172R,0.0591X0.1400*%
%ADD173C,0.0240*%
%ADD174C,0.0400*%
%ADD175C,0.0500*%
%ADD176C,0.0160*%
%ADD177C,0.0100*%
%ADD178C,0.0317*%
%ADD179C,0.0120*%
%ADD180C,0.0278*%
%ADD181C,0.0396*%
%ADD182C,0.0110*%
%ADD183C,0.0320*%
%ADD184C,0.0258*%
D10*
X014386Y025661D03*
X014386Y026409D03*
X015330Y026035D03*
D11*
X014858Y024830D03*
X014858Y024240D03*
X014108Y024240D03*
X014108Y024830D03*
X013233Y024990D03*
X013233Y025580D03*
X012233Y025580D03*
X012233Y024990D03*
X011233Y024990D03*
X011233Y025580D03*
X010483Y025580D03*
X010483Y024990D03*
X010483Y024205D03*
X010483Y023615D03*
X009858Y023615D03*
X009858Y024205D03*
X009233Y024205D03*
X008608Y024205D03*
X008608Y023615D03*
X009233Y023615D03*
X009483Y024990D03*
X009483Y025580D03*
X008483Y025580D03*
X008483Y024990D03*
X007108Y024455D03*
X007108Y023865D03*
X009233Y021580D03*
X009233Y020990D03*
X009858Y021205D03*
X009858Y020615D03*
X010483Y020615D03*
X010483Y021205D03*
X010483Y021740D03*
X010483Y022330D03*
X011108Y022330D03*
X011108Y021740D03*
X011108Y021205D03*
X011108Y020615D03*
X009108Y019455D03*
X009108Y018865D03*
X007608Y017705D03*
X007608Y017115D03*
X006983Y017490D03*
X006983Y018080D03*
X005108Y016580D03*
X005108Y015990D03*
X005108Y015455D03*
X005108Y014865D03*
X004358Y015990D03*
X004358Y016580D03*
X005858Y011705D03*
X005858Y011115D03*
X004358Y010455D03*
X004358Y009865D03*
X010483Y007580D03*
X010483Y006990D03*
X011108Y007615D03*
X011108Y008205D03*
X011983Y008205D03*
X011983Y007615D03*
X012608Y007580D03*
X012608Y006990D03*
X012608Y004580D03*
X012608Y003990D03*
X018358Y008115D03*
X018358Y008705D03*
X015608Y013865D03*
X015608Y014455D03*
X013858Y015365D03*
X013858Y015955D03*
X012858Y015955D03*
X012858Y015365D03*
X019858Y015080D03*
X019858Y014490D03*
X024483Y019240D03*
X024483Y019830D03*
X025233Y019830D03*
X025233Y019240D03*
X020358Y019490D03*
X020358Y020080D03*
X024858Y024990D03*
X024858Y025580D03*
X025858Y025580D03*
X025858Y024990D03*
X026733Y024990D03*
X026733Y025580D03*
X022108Y028740D03*
X022108Y029330D03*
X019358Y029490D03*
X019358Y030080D03*
X019358Y028830D03*
X019358Y028240D03*
X019358Y027580D03*
X019358Y026990D03*
X020044Y026376D03*
X020044Y025194D03*
X016358Y028240D03*
X016358Y028830D03*
X013858Y028830D03*
X013858Y028240D03*
X013858Y027580D03*
X013858Y026990D03*
D12*
X020182Y025785D03*
D13*
X020300Y025667D02*
X019946Y025667D01*
X019946Y025903D01*
X020300Y025903D01*
X020576Y026179D01*
X021678Y026179D01*
X021678Y025391D01*
X020576Y025391D01*
X020300Y025667D01*
X020320Y025647D02*
X021678Y025647D01*
X021678Y025685D02*
X019946Y025685D01*
X019946Y025722D02*
X021678Y025722D01*
X021678Y025760D02*
X019946Y025760D01*
X019946Y025798D02*
X021678Y025798D01*
X021678Y025836D02*
X019946Y025836D01*
X019946Y025874D02*
X021678Y025874D01*
X021678Y025912D02*
X020309Y025912D01*
X020346Y025950D02*
X021678Y025950D01*
X021678Y025988D02*
X020384Y025988D01*
X020422Y026025D02*
X021678Y026025D01*
X021678Y026063D02*
X020460Y026063D01*
X020498Y026101D02*
X021678Y026101D01*
X021678Y026139D02*
X020536Y026139D01*
X020574Y026177D02*
X021678Y026177D01*
X021678Y025609D02*
X020358Y025609D01*
X020396Y025571D02*
X021678Y025571D01*
X021678Y025533D02*
X020434Y025533D01*
X020472Y025495D02*
X021678Y025495D01*
X021678Y025457D02*
X020509Y025457D01*
X020547Y025420D02*
X021678Y025420D01*
D14*
X022313Y026285D03*
X022903Y026285D03*
X023563Y026285D03*
X024153Y026285D03*
X024813Y026285D03*
X025403Y026285D03*
X026063Y026285D03*
X026653Y026285D03*
X026653Y027285D03*
X026063Y027285D03*
X025403Y027285D03*
X024813Y027285D03*
X020653Y028285D03*
X020063Y028285D03*
X019153Y026285D03*
X018563Y026285D03*
X017903Y026285D03*
X017313Y026285D03*
X013153Y026285D03*
X012563Y026285D03*
X011903Y026285D03*
X011313Y026285D03*
X010403Y026285D03*
X009813Y026285D03*
X009153Y026285D03*
X008563Y026285D03*
X007805Y023160D03*
X007214Y023160D03*
X008813Y022160D03*
X009403Y022160D03*
X009813Y022910D03*
X010403Y022910D03*
X010938Y022910D03*
X011528Y022910D03*
X012313Y020660D03*
X012903Y020660D03*
X010903Y020035D03*
X010313Y020035D03*
X010438Y019410D03*
X011028Y019410D03*
X009903Y015535D03*
X009313Y015535D03*
X008028Y010785D03*
X007438Y010785D03*
X007938Y010160D03*
X008528Y010160D03*
X008653Y009535D03*
X008063Y009535D03*
X008028Y008910D03*
X007438Y008910D03*
X003903Y008160D03*
X003313Y008160D03*
X002778Y007160D03*
X002188Y007160D03*
X001938Y012410D03*
X002528Y012410D03*
X004313Y022160D03*
X004903Y022160D03*
X003903Y022910D03*
X003313Y022910D03*
X003313Y023660D03*
X003903Y023660D03*
X003903Y024285D03*
X003313Y024285D03*
X015063Y022035D03*
X015653Y022035D03*
X015653Y021285D03*
X015063Y021285D03*
X018063Y016535D03*
X018653Y016535D03*
X018653Y015910D03*
X019188Y015910D03*
X019778Y015910D03*
X018063Y015910D03*
X018063Y013660D03*
X018653Y013660D03*
X019188Y013660D03*
X019778Y013660D03*
X018653Y013035D03*
X018063Y013035D03*
X017153Y013160D03*
X016563Y013160D03*
X018313Y009410D03*
X018903Y009410D03*
X022063Y020660D03*
X022653Y020660D03*
D15*
X022108Y026959D03*
X022108Y027861D03*
X016358Y027236D03*
X016358Y026334D03*
D16*
X017425Y028285D03*
X018291Y027911D03*
X018291Y028659D03*
X004291Y007534D03*
X003425Y007160D03*
X004291Y006786D03*
D17*
X029358Y026285D03*
D18*
X030358Y025285D03*
X028358Y025285D03*
X028358Y027285D03*
X030358Y027285D03*
D19*
X001539Y001341D03*
X031460Y001341D03*
X031460Y031262D03*
X001539Y031262D03*
D20*
X002108Y011184D03*
X002608Y011184D03*
X003108Y011184D03*
X003608Y011184D03*
X003608Y009136D03*
X003108Y009136D03*
X002608Y009136D03*
X002108Y009136D03*
D21*
X004358Y013410D03*
X004358Y013910D03*
X004358Y014410D03*
X004358Y014910D03*
X004358Y015410D03*
D22*
X001917Y014410D03*
D23*
X011075Y012636D03*
X011075Y012440D03*
X011075Y012243D03*
X011075Y012046D03*
X011075Y011849D03*
X011075Y011652D03*
X011075Y011455D03*
X011075Y011258D03*
X011075Y011062D03*
X011075Y010865D03*
X011075Y010668D03*
X011075Y010471D03*
X011075Y010274D03*
X011075Y010077D03*
X011075Y009880D03*
X011075Y009684D03*
X015641Y009684D03*
X015641Y009880D03*
X015641Y010077D03*
X015641Y010274D03*
X015641Y010471D03*
X015641Y010668D03*
X015641Y010865D03*
X015641Y011062D03*
X015641Y011258D03*
X015641Y011455D03*
X015641Y011652D03*
X015641Y011849D03*
X015641Y012046D03*
X015641Y012243D03*
X015641Y012440D03*
X015641Y012636D03*
D24*
X014834Y013443D03*
X014638Y013443D03*
X014441Y013443D03*
X014244Y013443D03*
X014047Y013443D03*
X013850Y013443D03*
X013653Y013443D03*
X013456Y013443D03*
X013260Y013443D03*
X013063Y013443D03*
X012866Y013443D03*
X012669Y013443D03*
X012472Y013443D03*
X012275Y013443D03*
X012078Y013443D03*
X011882Y013443D03*
X011882Y008877D03*
X012078Y008877D03*
X012275Y008877D03*
X012472Y008877D03*
X012669Y008877D03*
X012866Y008877D03*
X013063Y008877D03*
X013260Y008877D03*
X013456Y008877D03*
X013653Y008877D03*
X013850Y008877D03*
X014047Y008877D03*
X014244Y008877D03*
X014441Y008877D03*
X014638Y008877D03*
X014834Y008877D03*
D25*
X013850Y014660D03*
X012866Y014660D03*
D26*
X016358Y004785D03*
X016858Y004785D03*
X017358Y004785D03*
X017858Y004785D03*
X018358Y004785D03*
X018358Y002785D03*
X017858Y002785D03*
X017358Y002785D03*
X016858Y002785D03*
X016358Y002785D03*
D27*
X021334Y018410D03*
X021334Y018910D03*
X021334Y019410D03*
X021334Y019910D03*
X023382Y019910D03*
X023382Y019410D03*
X023382Y018910D03*
X023382Y018410D03*
D28*
X018982Y011172D03*
X018608Y011172D03*
X018234Y011172D03*
X018234Y010148D03*
X018982Y010148D03*
D29*
X018370Y019411D03*
X018370Y019785D03*
X018370Y020159D03*
X017346Y020159D03*
X017346Y019411D03*
D30*
X016483Y019411D03*
X016483Y020159D03*
X014358Y021286D03*
X014358Y022034D03*
X019483Y020159D03*
X019483Y019411D03*
D31*
X019242Y015317D03*
X018986Y015317D03*
X018730Y015317D03*
X018474Y015317D03*
X018474Y014254D03*
X018730Y014254D03*
X018986Y014254D03*
X019242Y014254D03*
D32*
X008004Y019609D02*
X007830Y019609D01*
X008004Y019609D02*
X008004Y019545D01*
X007830Y019545D01*
X007830Y019609D01*
X007830Y019607D02*
X008004Y019607D01*
X008014Y019806D02*
X007800Y019806D01*
X008014Y019806D02*
X008014Y019742D01*
X007800Y019742D01*
X007800Y019806D01*
X007800Y019804D02*
X008014Y019804D01*
X008014Y020003D02*
X007800Y020003D01*
X008014Y020003D02*
X008014Y019939D01*
X007800Y019939D01*
X007800Y020003D01*
X007800Y020001D02*
X008014Y020001D01*
X008014Y020200D02*
X007800Y020200D01*
X008014Y020200D02*
X008014Y020136D01*
X007800Y020136D01*
X007800Y020200D01*
X007800Y020198D02*
X008014Y020198D01*
X008014Y020397D02*
X007800Y020397D01*
X008014Y020397D02*
X008014Y020333D01*
X007800Y020333D01*
X007800Y020397D01*
X007800Y020395D02*
X008014Y020395D01*
X008014Y020594D02*
X007800Y020594D01*
X008014Y020594D02*
X008014Y020530D01*
X007800Y020530D01*
X007800Y020594D01*
X007800Y020592D02*
X008014Y020592D01*
X008014Y020790D02*
X007800Y020790D01*
X008014Y020790D02*
X008014Y020726D01*
X007800Y020726D01*
X007800Y020790D01*
X007800Y020788D02*
X008014Y020788D01*
X008014Y020987D02*
X007800Y020987D01*
X008014Y020987D02*
X008014Y020923D01*
X007800Y020923D01*
X007800Y020987D01*
X007800Y020985D02*
X008014Y020985D01*
X008014Y021184D02*
X007800Y021184D01*
X008014Y021184D02*
X008014Y021120D01*
X007800Y021120D01*
X007800Y021184D01*
X007800Y021182D02*
X008014Y021182D01*
X008014Y021381D02*
X007800Y021381D01*
X008014Y021381D02*
X008014Y021317D01*
X007800Y021317D01*
X007800Y021381D01*
X007800Y021379D02*
X008014Y021379D01*
X008014Y021578D02*
X007800Y021578D01*
X008014Y021578D02*
X008014Y021514D01*
X007800Y021514D01*
X007800Y021578D01*
X007800Y021576D02*
X008014Y021576D01*
X008004Y021775D02*
X007830Y021775D01*
X008004Y021775D02*
X008004Y021711D01*
X007830Y021711D01*
X007830Y021775D01*
X007830Y021773D02*
X008004Y021773D01*
X007659Y021882D02*
X007659Y022056D01*
X007723Y022056D01*
X007723Y021882D01*
X007659Y021882D01*
X007659Y021944D02*
X007723Y021944D01*
X007723Y022006D02*
X007659Y022006D01*
X007462Y022066D02*
X007462Y021852D01*
X007462Y022066D02*
X007526Y022066D01*
X007526Y021852D01*
X007462Y021852D01*
X007462Y021914D02*
X007526Y021914D01*
X007526Y021976D02*
X007462Y021976D01*
X007462Y022038D02*
X007526Y022038D01*
X007265Y022066D02*
X007265Y021852D01*
X007265Y022066D02*
X007329Y022066D01*
X007329Y021852D01*
X007265Y021852D01*
X007265Y021914D02*
X007329Y021914D01*
X007329Y021976D02*
X007265Y021976D01*
X007265Y022038D02*
X007329Y022038D01*
X007068Y022066D02*
X007068Y021852D01*
X007068Y022066D02*
X007132Y022066D01*
X007132Y021852D01*
X007068Y021852D01*
X007068Y021914D02*
X007132Y021914D01*
X007132Y021976D02*
X007068Y021976D01*
X007068Y022038D02*
X007132Y022038D01*
X006871Y022066D02*
X006871Y021852D01*
X006871Y022066D02*
X006935Y022066D01*
X006935Y021852D01*
X006871Y021852D01*
X006871Y021914D02*
X006935Y021914D01*
X006935Y021976D02*
X006871Y021976D01*
X006871Y022038D02*
X006935Y022038D01*
X006674Y022066D02*
X006674Y021852D01*
X006674Y022066D02*
X006738Y022066D01*
X006738Y021852D01*
X006674Y021852D01*
X006674Y021914D02*
X006738Y021914D01*
X006738Y021976D02*
X006674Y021976D01*
X006674Y022038D02*
X006738Y022038D01*
X006478Y022066D02*
X006478Y021852D01*
X006478Y022066D02*
X006542Y022066D01*
X006542Y021852D01*
X006478Y021852D01*
X006478Y021914D02*
X006542Y021914D01*
X006542Y021976D02*
X006478Y021976D01*
X006478Y022038D02*
X006542Y022038D01*
X006281Y022066D02*
X006281Y021852D01*
X006281Y022066D02*
X006345Y022066D01*
X006345Y021852D01*
X006281Y021852D01*
X006281Y021914D02*
X006345Y021914D01*
X006345Y021976D02*
X006281Y021976D01*
X006281Y022038D02*
X006345Y022038D01*
X006084Y022066D02*
X006084Y021852D01*
X006084Y022066D02*
X006148Y022066D01*
X006148Y021852D01*
X006084Y021852D01*
X006084Y021914D02*
X006148Y021914D01*
X006148Y021976D02*
X006084Y021976D01*
X006084Y022038D02*
X006148Y022038D01*
X005887Y022066D02*
X005887Y021852D01*
X005887Y022066D02*
X005951Y022066D01*
X005951Y021852D01*
X005887Y021852D01*
X005887Y021914D02*
X005951Y021914D01*
X005951Y021976D02*
X005887Y021976D01*
X005887Y022038D02*
X005951Y022038D01*
X005690Y022066D02*
X005690Y021852D01*
X005690Y022066D02*
X005754Y022066D01*
X005754Y021852D01*
X005690Y021852D01*
X005690Y021914D02*
X005754Y021914D01*
X005754Y021976D02*
X005690Y021976D01*
X005690Y022038D02*
X005754Y022038D01*
X005493Y022056D02*
X005493Y021882D01*
X005493Y022056D02*
X005557Y022056D01*
X005557Y021882D01*
X005493Y021882D01*
X005493Y021944D02*
X005557Y021944D01*
X005557Y022006D02*
X005493Y022006D01*
X005386Y021711D02*
X005212Y021711D01*
X005212Y021775D01*
X005386Y021775D01*
X005386Y021711D01*
X005386Y021773D02*
X005212Y021773D01*
X005202Y021514D02*
X005416Y021514D01*
X005202Y021514D02*
X005202Y021578D01*
X005416Y021578D01*
X005416Y021514D01*
X005416Y021576D02*
X005202Y021576D01*
X005202Y021317D02*
X005416Y021317D01*
X005202Y021317D02*
X005202Y021381D01*
X005416Y021381D01*
X005416Y021317D01*
X005416Y021379D02*
X005202Y021379D01*
X005202Y021120D02*
X005416Y021120D01*
X005202Y021120D02*
X005202Y021184D01*
X005416Y021184D01*
X005416Y021120D01*
X005416Y021182D02*
X005202Y021182D01*
X005202Y020923D02*
X005416Y020923D01*
X005202Y020923D02*
X005202Y020987D01*
X005416Y020987D01*
X005416Y020923D01*
X005416Y020985D02*
X005202Y020985D01*
X005202Y020726D02*
X005416Y020726D01*
X005202Y020726D02*
X005202Y020790D01*
X005416Y020790D01*
X005416Y020726D01*
X005416Y020788D02*
X005202Y020788D01*
X005202Y020530D02*
X005416Y020530D01*
X005202Y020530D02*
X005202Y020594D01*
X005416Y020594D01*
X005416Y020530D01*
X005416Y020592D02*
X005202Y020592D01*
X005202Y020333D02*
X005416Y020333D01*
X005202Y020333D02*
X005202Y020397D01*
X005416Y020397D01*
X005416Y020333D01*
X005416Y020395D02*
X005202Y020395D01*
X005202Y020136D02*
X005416Y020136D01*
X005202Y020136D02*
X005202Y020200D01*
X005416Y020200D01*
X005416Y020136D01*
X005416Y020198D02*
X005202Y020198D01*
X005202Y019939D02*
X005416Y019939D01*
X005202Y019939D02*
X005202Y020003D01*
X005416Y020003D01*
X005416Y019939D01*
X005416Y020001D02*
X005202Y020001D01*
X005202Y019742D02*
X005416Y019742D01*
X005202Y019742D02*
X005202Y019806D01*
X005416Y019806D01*
X005416Y019742D01*
X005416Y019804D02*
X005202Y019804D01*
X005212Y019545D02*
X005386Y019545D01*
X005212Y019545D02*
X005212Y019609D01*
X005386Y019609D01*
X005386Y019545D01*
X005386Y019607D02*
X005212Y019607D01*
X005557Y019438D02*
X005557Y019264D01*
X005493Y019264D01*
X005493Y019438D01*
X005557Y019438D01*
X005557Y019326D02*
X005493Y019326D01*
X005493Y019388D02*
X005557Y019388D01*
X005754Y019468D02*
X005754Y019254D01*
X005690Y019254D01*
X005690Y019468D01*
X005754Y019468D01*
X005754Y019316D02*
X005690Y019316D01*
X005690Y019378D02*
X005754Y019378D01*
X005754Y019440D02*
X005690Y019440D01*
X005951Y019468D02*
X005951Y019254D01*
X005887Y019254D01*
X005887Y019468D01*
X005951Y019468D01*
X005951Y019316D02*
X005887Y019316D01*
X005887Y019378D02*
X005951Y019378D01*
X005951Y019440D02*
X005887Y019440D01*
X006148Y019468D02*
X006148Y019254D01*
X006084Y019254D01*
X006084Y019468D01*
X006148Y019468D01*
X006148Y019316D02*
X006084Y019316D01*
X006084Y019378D02*
X006148Y019378D01*
X006148Y019440D02*
X006084Y019440D01*
X006345Y019468D02*
X006345Y019254D01*
X006281Y019254D01*
X006281Y019468D01*
X006345Y019468D01*
X006345Y019316D02*
X006281Y019316D01*
X006281Y019378D02*
X006345Y019378D01*
X006345Y019440D02*
X006281Y019440D01*
X006542Y019468D02*
X006542Y019254D01*
X006478Y019254D01*
X006478Y019468D01*
X006542Y019468D01*
X006542Y019316D02*
X006478Y019316D01*
X006478Y019378D02*
X006542Y019378D01*
X006542Y019440D02*
X006478Y019440D01*
X006738Y019468D02*
X006738Y019254D01*
X006674Y019254D01*
X006674Y019468D01*
X006738Y019468D01*
X006738Y019316D02*
X006674Y019316D01*
X006674Y019378D02*
X006738Y019378D01*
X006738Y019440D02*
X006674Y019440D01*
X006935Y019468D02*
X006935Y019254D01*
X006871Y019254D01*
X006871Y019468D01*
X006935Y019468D01*
X006935Y019316D02*
X006871Y019316D01*
X006871Y019378D02*
X006935Y019378D01*
X006935Y019440D02*
X006871Y019440D01*
X007132Y019468D02*
X007132Y019254D01*
X007068Y019254D01*
X007068Y019468D01*
X007132Y019468D01*
X007132Y019316D02*
X007068Y019316D01*
X007068Y019378D02*
X007132Y019378D01*
X007132Y019440D02*
X007068Y019440D01*
X007329Y019468D02*
X007329Y019254D01*
X007265Y019254D01*
X007265Y019468D01*
X007329Y019468D01*
X007329Y019316D02*
X007265Y019316D01*
X007265Y019378D02*
X007329Y019378D01*
X007329Y019440D02*
X007265Y019440D01*
X007526Y019468D02*
X007526Y019254D01*
X007462Y019254D01*
X007462Y019468D01*
X007526Y019468D01*
X007526Y019316D02*
X007462Y019316D01*
X007462Y019378D02*
X007526Y019378D01*
X007526Y019440D02*
X007462Y019440D01*
X007723Y019438D02*
X007723Y019264D01*
X007659Y019264D01*
X007659Y019438D01*
X007723Y019438D01*
X007723Y019326D02*
X007659Y019326D01*
X007659Y019388D02*
X007723Y019388D01*
D33*
X006608Y020660D03*
D34*
X009076Y017987D03*
X010139Y017987D03*
X010139Y016333D03*
X009076Y016333D03*
D35*
X022143Y005160D03*
X022636Y005160D03*
X023128Y005160D03*
X023620Y005160D03*
X024112Y005160D03*
X024604Y005160D03*
X025096Y005160D03*
X025588Y005160D03*
X026080Y005160D03*
X026573Y005160D03*
D36*
X027458Y003861D03*
X021258Y003861D03*
D37*
X003232Y017410D03*
X002484Y017410D03*
D38*
X002103Y018410D03*
X003363Y018410D03*
D39*
X012608Y003455D03*
X012608Y002865D03*
D40*
X011413Y003926D03*
X011216Y003997D03*
X009901Y003548D03*
X008547Y003548D03*
X007429Y002910D03*
X007138Y003997D03*
D41*
X006945Y003926D03*
X007921Y003871D03*
X007921Y004225D03*
X008850Y002910D03*
X011212Y004107D03*
X011417Y004170D03*
D42*
X011208Y004123D03*
X011208Y004115D03*
X011208Y003989D03*
X011208Y003981D03*
X011208Y003973D03*
X010201Y002910D03*
X007712Y003808D03*
X007712Y004288D03*
X007145Y004123D03*
X007145Y004107D03*
X006941Y004170D03*
D43*
X007086Y004052D03*
X007086Y004036D03*
X007433Y002918D03*
X008496Y003532D03*
X011267Y004044D03*
X011362Y004201D03*
D44*
X011366Y004193D03*
X011366Y004186D03*
X011366Y004178D03*
X011366Y003918D03*
X011366Y003910D03*
X011366Y003902D03*
X010563Y003800D03*
X008854Y002918D03*
X007767Y004296D03*
X007090Y004044D03*
X006996Y004201D03*
D45*
X006992Y004193D03*
X006992Y004186D03*
X006992Y004178D03*
X006992Y003918D03*
X006992Y003910D03*
X006992Y003902D03*
X007763Y003800D03*
X010204Y002918D03*
D46*
X010598Y003359D03*
X010598Y003367D03*
X010606Y003375D03*
X010606Y003382D03*
X010606Y003390D03*
X010606Y003398D03*
X010606Y003406D03*
X010606Y003477D03*
X010606Y003485D03*
X010606Y003493D03*
X010606Y003501D03*
X010606Y003508D03*
X010606Y003516D03*
X009811Y003516D03*
X009811Y003508D03*
X009811Y003501D03*
X009260Y003493D03*
X009260Y003485D03*
X009260Y003477D03*
X009260Y003469D03*
X009260Y003461D03*
X009260Y003453D03*
X009260Y003445D03*
X009260Y003438D03*
X009260Y003430D03*
X009260Y003422D03*
X009260Y003414D03*
X009260Y003406D03*
X009252Y003382D03*
X009252Y003375D03*
X009252Y003367D03*
X008464Y003477D03*
X008496Y004564D03*
X008496Y004571D03*
X008496Y004579D03*
X008496Y004587D03*
X008496Y004595D03*
X008496Y004603D03*
X008496Y004634D03*
X008496Y004642D03*
X008496Y004650D03*
X008496Y004658D03*
X008496Y004666D03*
X008496Y004674D03*
X008496Y004682D03*
X008496Y004690D03*
X008504Y004713D03*
X009236Y004658D03*
X009236Y004650D03*
X009236Y004642D03*
X009236Y004634D03*
X009842Y004634D03*
X009842Y004627D03*
X009842Y004619D03*
X009842Y004611D03*
X009842Y004603D03*
X009842Y004595D03*
X009842Y004587D03*
X009850Y004571D03*
X009850Y004564D03*
X009850Y004556D03*
X009850Y004548D03*
X009842Y004642D03*
X009842Y004650D03*
X009842Y004658D03*
X009850Y004682D03*
X009850Y004690D03*
X009850Y004697D03*
X009850Y004705D03*
X010228Y005146D03*
X010582Y004674D03*
X010590Y004642D03*
X010590Y004634D03*
X007433Y002926D03*
D47*
X008468Y003524D03*
X008854Y002926D03*
X010208Y002926D03*
X009224Y004627D03*
D48*
X008874Y005138D03*
X008559Y004398D03*
X008567Y004390D03*
X008567Y004382D03*
X007771Y004800D03*
X007771Y003272D03*
X007433Y002934D03*
X007094Y003272D03*
X008535Y003280D03*
X009197Y003682D03*
X009189Y003697D03*
X009882Y003288D03*
X009889Y003280D03*
X010551Y003272D03*
X010543Y003690D03*
X010535Y003697D03*
X009913Y004390D03*
X009897Y004808D03*
X010519Y004808D03*
X010527Y004800D03*
D49*
X010551Y004768D03*
X010551Y004760D03*
X009992Y004327D03*
X009882Y004453D03*
X009874Y004461D03*
X009874Y004469D03*
X009874Y004776D03*
X009882Y004784D03*
X009204Y004760D03*
X009197Y004768D03*
X008527Y004776D03*
X008527Y004784D03*
X008527Y004461D03*
X007803Y004745D03*
X007795Y004760D03*
X007433Y005146D03*
X007071Y004768D03*
X007071Y004760D03*
X007063Y004753D03*
X007063Y004745D03*
X007063Y003327D03*
X007063Y003319D03*
X007071Y003312D03*
X007795Y003312D03*
X007795Y003319D03*
X007803Y003327D03*
X007803Y003335D03*
X008496Y003351D03*
X008504Y003343D03*
X008504Y003335D03*
X008858Y002934D03*
X009220Y003296D03*
X009228Y003611D03*
X009228Y003619D03*
X009220Y003634D03*
X009850Y003343D03*
X009858Y003327D03*
X010212Y002934D03*
X010575Y003304D03*
X010582Y003603D03*
X010582Y003611D03*
X010575Y003619D03*
X010575Y003627D03*
D50*
X009921Y003249D03*
X009165Y003249D03*
X008575Y003249D03*
X007740Y003249D03*
X007433Y002942D03*
X007126Y003249D03*
D51*
X007114Y003256D03*
X007752Y003256D03*
X008862Y002942D03*
X009161Y003737D03*
X009153Y003745D03*
X008594Y004343D03*
X008586Y004351D03*
X009941Y004351D03*
X009917Y004823D03*
X010500Y003753D03*
X010508Y003745D03*
X010531Y003256D03*
X009901Y003264D03*
X007106Y004816D03*
D52*
X007433Y005138D03*
X007756Y004816D03*
X008582Y004359D03*
X009165Y004816D03*
X009929Y004367D03*
X009937Y004359D03*
X009992Y004241D03*
X010488Y003792D03*
X010512Y003737D03*
X010519Y003729D03*
X010212Y002942D03*
X009173Y003721D03*
X009165Y003729D03*
X008551Y003264D03*
X008543Y003272D03*
X007763Y003264D03*
X007102Y003264D03*
X010512Y004816D03*
D53*
X010567Y004729D03*
X010567Y004721D03*
X010575Y004713D03*
X010575Y004705D03*
X011315Y004705D03*
X011315Y004697D03*
X011315Y004690D03*
X011315Y004682D03*
X011315Y004674D03*
X011315Y004666D03*
X011315Y004658D03*
X011315Y004650D03*
X011315Y004642D03*
X011315Y004634D03*
X011315Y004627D03*
X011315Y004619D03*
X011315Y004611D03*
X011315Y004603D03*
X011315Y004595D03*
X011315Y004587D03*
X011315Y004579D03*
X011315Y004571D03*
X011315Y004564D03*
X011315Y004556D03*
X011315Y004548D03*
X011315Y004540D03*
X011315Y004532D03*
X011315Y004524D03*
X011315Y004516D03*
X011315Y004508D03*
X011315Y004501D03*
X011315Y004493D03*
X011315Y004485D03*
X011315Y004477D03*
X011315Y004469D03*
X011315Y004461D03*
X011315Y004453D03*
X011315Y004445D03*
X011315Y004438D03*
X011315Y004430D03*
X011315Y004422D03*
X011315Y004414D03*
X011315Y004406D03*
X011315Y004398D03*
X011315Y004390D03*
X011315Y004382D03*
X011315Y004375D03*
X011315Y004367D03*
X011315Y004359D03*
X011315Y004351D03*
X011315Y004343D03*
X011315Y004335D03*
X011315Y004327D03*
X011315Y004319D03*
X011315Y004312D03*
X011315Y004304D03*
X011315Y004296D03*
X011315Y004288D03*
X011315Y004280D03*
X011315Y004272D03*
X011315Y004264D03*
X011315Y004256D03*
X011315Y004249D03*
X011315Y004241D03*
X011315Y004233D03*
X011315Y004225D03*
X011315Y004217D03*
X011315Y003886D03*
X011315Y003879D03*
X011315Y003871D03*
X011315Y003863D03*
X011315Y003855D03*
X011315Y003847D03*
X011315Y003839D03*
X011315Y003831D03*
X011315Y003823D03*
X011315Y003816D03*
X011315Y003808D03*
X011315Y003800D03*
X011315Y003792D03*
X011315Y003784D03*
X011315Y003776D03*
X011315Y003768D03*
X011315Y003760D03*
X011315Y003753D03*
X011315Y003745D03*
X011315Y003737D03*
X011315Y003729D03*
X011315Y003721D03*
X011315Y003713D03*
X011315Y003705D03*
X011315Y003697D03*
X011315Y003690D03*
X011315Y003682D03*
X011315Y003674D03*
X011315Y003666D03*
X011315Y003658D03*
X011315Y003650D03*
X011315Y003642D03*
X011315Y003634D03*
X011315Y003627D03*
X011315Y003619D03*
X011315Y003611D03*
X011315Y003603D03*
X011315Y003595D03*
X011315Y003587D03*
X011315Y003579D03*
X011315Y003571D03*
X011315Y003564D03*
X011315Y003556D03*
X011315Y003548D03*
X011315Y003540D03*
X011315Y003532D03*
X011315Y003524D03*
X011315Y003516D03*
X011315Y003508D03*
X011315Y003501D03*
X011315Y003493D03*
X011315Y003485D03*
X011315Y003477D03*
X011315Y003469D03*
X011315Y003461D03*
X011315Y003453D03*
X011315Y003445D03*
X011315Y003438D03*
X011315Y003430D03*
X011315Y003422D03*
X011315Y003414D03*
X011315Y003406D03*
X011315Y003398D03*
X011315Y003390D03*
X011315Y003382D03*
X011315Y003375D03*
X011315Y003367D03*
X011315Y003359D03*
X011315Y003351D03*
X011315Y003343D03*
X011315Y003335D03*
X011315Y003327D03*
X011315Y003319D03*
X011315Y003312D03*
X011315Y003304D03*
X011315Y003296D03*
X011315Y003288D03*
X011315Y003280D03*
X011315Y003272D03*
X011315Y003264D03*
X011315Y003256D03*
X011315Y003249D03*
X011315Y003241D03*
X011315Y003233D03*
X011315Y003225D03*
X011315Y003217D03*
X011315Y003209D03*
X011315Y003201D03*
X011315Y003193D03*
X011315Y003186D03*
X011315Y003178D03*
X011315Y003170D03*
X011315Y003162D03*
X011315Y003154D03*
X011315Y003146D03*
X011315Y003138D03*
X011315Y003130D03*
X011315Y003123D03*
X011315Y003115D03*
X011315Y003107D03*
X011315Y003099D03*
X011315Y003091D03*
X011315Y003083D03*
X011315Y003075D03*
X011315Y003067D03*
X011315Y003060D03*
X011315Y003052D03*
X011315Y003044D03*
X011315Y003036D03*
X011315Y003028D03*
X011315Y003020D03*
X011315Y003012D03*
X011315Y003005D03*
X011315Y002997D03*
X011315Y002989D03*
X011315Y002981D03*
X011315Y002973D03*
X011315Y002965D03*
X011315Y002957D03*
X011315Y002949D03*
X011315Y002942D03*
X010590Y003327D03*
X010590Y003335D03*
X010582Y003319D03*
X010598Y003548D03*
X010598Y003556D03*
X010598Y003564D03*
X010590Y003571D03*
X010590Y003579D03*
X009834Y003390D03*
X009834Y003382D03*
X009826Y003406D03*
X009826Y003414D03*
X009826Y003422D03*
X009819Y003445D03*
X009819Y003453D03*
X009252Y003532D03*
X009244Y003564D03*
X009244Y003571D03*
X009236Y003327D03*
X009236Y003319D03*
X008488Y003375D03*
X008480Y003398D03*
X008480Y003406D03*
X008472Y003422D03*
X008472Y003430D03*
X008472Y003438D03*
X007819Y003438D03*
X007819Y003445D03*
X007819Y003453D03*
X007819Y003461D03*
X007819Y003469D03*
X007819Y003477D03*
X007819Y003485D03*
X007819Y003493D03*
X007819Y003501D03*
X007819Y003508D03*
X007819Y003516D03*
X007819Y003524D03*
X007819Y003532D03*
X007819Y003540D03*
X007819Y003548D03*
X007819Y003556D03*
X007819Y003564D03*
X007819Y003571D03*
X007819Y003579D03*
X007819Y003587D03*
X007819Y003595D03*
X007819Y003603D03*
X007819Y003611D03*
X007819Y003619D03*
X007819Y003627D03*
X007819Y003634D03*
X007819Y003642D03*
X007819Y003650D03*
X007819Y003658D03*
X007819Y003666D03*
X007819Y003674D03*
X007819Y003682D03*
X007819Y003690D03*
X007819Y003697D03*
X007819Y003705D03*
X007819Y003713D03*
X007819Y003721D03*
X007819Y003729D03*
X007819Y003737D03*
X007819Y003745D03*
X007819Y003753D03*
X007819Y003760D03*
X007819Y003768D03*
X007819Y003776D03*
X007819Y003784D03*
X007819Y003792D03*
X007819Y003894D03*
X007819Y003902D03*
X007819Y003910D03*
X007819Y003918D03*
X007819Y003926D03*
X007819Y003934D03*
X007819Y003942D03*
X007819Y003949D03*
X007819Y003957D03*
X007819Y003965D03*
X007819Y003973D03*
X007819Y003981D03*
X007819Y003989D03*
X007819Y003997D03*
X007819Y004005D03*
X007819Y004012D03*
X007819Y004020D03*
X007819Y004028D03*
X007819Y004036D03*
X007819Y004044D03*
X007819Y004052D03*
X007819Y004060D03*
X007819Y004067D03*
X007819Y004075D03*
X007819Y004083D03*
X007819Y004091D03*
X007819Y004099D03*
X007819Y004107D03*
X007819Y004115D03*
X007819Y004123D03*
X007819Y004130D03*
X007819Y004138D03*
X007819Y004146D03*
X007819Y004154D03*
X007819Y004162D03*
X007819Y004170D03*
X007819Y004178D03*
X007819Y004186D03*
X007819Y004193D03*
X007819Y004201D03*
X007819Y004304D03*
X007819Y004312D03*
X007819Y004319D03*
X007819Y004327D03*
X007819Y004335D03*
X007819Y004343D03*
X007819Y004351D03*
X007819Y004359D03*
X007819Y004367D03*
X007819Y004375D03*
X007819Y004382D03*
X007819Y004390D03*
X007819Y004398D03*
X007819Y004406D03*
X007819Y004414D03*
X007819Y004422D03*
X007819Y004430D03*
X007819Y004438D03*
X007819Y004445D03*
X007819Y004453D03*
X007819Y004461D03*
X007819Y004469D03*
X007819Y004477D03*
X007819Y004485D03*
X007819Y004493D03*
X007819Y004501D03*
X007819Y004508D03*
X007819Y004516D03*
X007819Y004524D03*
X007819Y004532D03*
X007819Y004540D03*
X007819Y004548D03*
X007819Y004556D03*
X007819Y004564D03*
X007819Y004571D03*
X007819Y004579D03*
X007819Y004587D03*
X007819Y004595D03*
X007819Y004603D03*
X007819Y004611D03*
X007819Y004619D03*
X007819Y004627D03*
X007819Y004634D03*
X007819Y004642D03*
X007819Y004650D03*
X007819Y004658D03*
X007819Y004666D03*
X007819Y004674D03*
X007819Y004682D03*
X007811Y004705D03*
X007811Y004713D03*
X008512Y004745D03*
X008512Y004753D03*
X008504Y004532D03*
X008512Y004508D03*
X008512Y004501D03*
X009212Y004737D03*
X009220Y004721D03*
X009220Y004713D03*
X009228Y004690D03*
X009858Y004737D03*
X009866Y004753D03*
X009858Y004516D03*
X009858Y004508D03*
X009866Y004501D03*
X009866Y004493D03*
X011315Y004713D03*
X011315Y004721D03*
X011315Y004729D03*
X011315Y004737D03*
X011315Y004745D03*
X011315Y004753D03*
X011315Y004760D03*
X011315Y004768D03*
X011315Y004776D03*
X011315Y004784D03*
X011315Y004792D03*
X011315Y004800D03*
X011315Y004808D03*
X011315Y004816D03*
X011315Y004823D03*
X011315Y004831D03*
X011315Y004839D03*
X011315Y004847D03*
X011315Y004855D03*
X011315Y004863D03*
X011315Y004871D03*
X011315Y004879D03*
X011315Y004886D03*
X011315Y004894D03*
X011315Y004902D03*
X011315Y004910D03*
X011315Y004918D03*
X011315Y004926D03*
X011315Y004934D03*
X011315Y004942D03*
X011315Y004949D03*
X011315Y004957D03*
X011315Y004965D03*
X011315Y004973D03*
X011315Y004981D03*
X011315Y004989D03*
X011315Y004997D03*
X011315Y005005D03*
X011315Y005012D03*
X011315Y005020D03*
X011315Y005028D03*
X011315Y005036D03*
X011315Y005044D03*
X011315Y005052D03*
X011315Y005060D03*
X011315Y005067D03*
X011315Y005075D03*
X011315Y005083D03*
X011315Y005091D03*
X011315Y005099D03*
X011315Y005107D03*
X011315Y005115D03*
X011315Y005123D03*
X011315Y005130D03*
X011315Y005138D03*
X007819Y003430D03*
X007819Y003422D03*
X007819Y003414D03*
X007819Y003406D03*
X007819Y003398D03*
X007811Y003367D03*
X007055Y003359D03*
X007047Y003390D03*
X007047Y003398D03*
X007047Y003406D03*
X007047Y003414D03*
X007047Y003422D03*
X007047Y003430D03*
X007047Y003438D03*
X007047Y003445D03*
X007047Y004627D03*
X007047Y004634D03*
X007047Y004642D03*
X007047Y004650D03*
X007047Y004658D03*
X007047Y004666D03*
X007047Y004674D03*
X007047Y004682D03*
X007047Y004690D03*
X007055Y004721D03*
D54*
X007429Y002949D03*
X009043Y003879D03*
X009051Y003871D03*
X009059Y003863D03*
X009067Y003855D03*
X010035Y004233D03*
X010043Y004225D03*
D55*
X009933Y004831D03*
X010484Y004831D03*
X010515Y003249D03*
X008862Y002949D03*
X008586Y004831D03*
D56*
X009134Y004831D03*
X009086Y003831D03*
X010212Y002949D03*
X007433Y005130D03*
D57*
X008779Y004138D03*
X008787Y004130D03*
X008960Y003965D03*
X008866Y002965D03*
X007433Y002957D03*
X010110Y004154D03*
X010118Y004146D03*
X010126Y004138D03*
X010134Y004130D03*
X010141Y004123D03*
X010149Y004115D03*
X010283Y003989D03*
X010291Y003981D03*
X010299Y003973D03*
X010307Y003965D03*
X010315Y003957D03*
X010323Y003949D03*
D58*
X010378Y003894D03*
X010386Y003886D03*
X010055Y004209D03*
X010047Y004217D03*
X010212Y002957D03*
X008866Y002957D03*
X008708Y004209D03*
X008701Y004217D03*
X008693Y004225D03*
D59*
X008866Y002973D03*
X007433Y002965D03*
D60*
X008791Y004123D03*
X008799Y004115D03*
X008807Y004107D03*
X008815Y004099D03*
X008823Y004091D03*
X008830Y004083D03*
X008901Y004020D03*
X008909Y004012D03*
X008917Y004005D03*
X008925Y003997D03*
X008933Y003989D03*
X008941Y003981D03*
X008949Y003973D03*
X010161Y004107D03*
X010169Y004099D03*
X010177Y004091D03*
X010185Y004083D03*
X010193Y004075D03*
X010201Y004067D03*
X010208Y004060D03*
X010216Y004052D03*
X010224Y004044D03*
X010232Y004036D03*
X010240Y004028D03*
X010248Y004020D03*
X010256Y004012D03*
X010263Y004005D03*
X010271Y003997D03*
X010216Y002965D03*
D61*
X010220Y002981D03*
X008866Y002981D03*
X007433Y002973D03*
D62*
X010216Y002973D03*
D63*
X008866Y002989D03*
X007433Y002981D03*
X008866Y005083D03*
D64*
X007433Y002989D03*
D65*
X010216Y002989D03*
D66*
X010220Y003005D03*
X010212Y005067D03*
X008866Y005067D03*
X007433Y002997D03*
D67*
X008870Y002997D03*
X010216Y002997D03*
X010216Y005075D03*
X008862Y005075D03*
D68*
X007433Y003005D03*
D69*
X008870Y003005D03*
X007429Y005083D03*
D70*
X007433Y003012D03*
X010220Y003020D03*
X010212Y005052D03*
D71*
X010216Y005060D03*
X008862Y005060D03*
X008870Y003012D03*
D72*
X010220Y003012D03*
X007433Y005075D03*
D73*
X008862Y005036D03*
X007429Y003020D03*
D74*
X008870Y003020D03*
X008862Y005052D03*
X007429Y005067D03*
D75*
X007433Y005044D03*
X008858Y005028D03*
X010212Y005028D03*
X010220Y003044D03*
X007433Y003028D03*
D76*
X008870Y003028D03*
X008862Y005044D03*
D77*
X010212Y005044D03*
X010220Y003028D03*
X007433Y005060D03*
D78*
X008858Y005020D03*
X010212Y005020D03*
X010220Y003052D03*
X007433Y003036D03*
D79*
X008874Y003036D03*
X010220Y003036D03*
X010212Y005036D03*
X007433Y005052D03*
D80*
X008858Y005012D03*
X010212Y005012D03*
X010220Y003060D03*
X007433Y003044D03*
D81*
X008870Y003044D03*
D82*
X010220Y003067D03*
X010212Y005005D03*
X008858Y005005D03*
X007433Y003052D03*
D83*
X008870Y003052D03*
X007429Y005036D03*
D84*
X007433Y005020D03*
X007433Y003060D03*
X010220Y003075D03*
D85*
X008870Y003060D03*
X007429Y005028D03*
D86*
X007433Y005012D03*
X007433Y003067D03*
X008874Y003083D03*
X010220Y003083D03*
D87*
X008870Y003067D03*
X008862Y004997D03*
X010208Y004997D03*
D88*
X010212Y004973D03*
X008858Y004973D03*
X008874Y003091D03*
X010220Y003091D03*
X007433Y003075D03*
D89*
X008870Y003075D03*
X008862Y004989D03*
X010208Y004989D03*
D90*
X008858Y004965D03*
X007433Y004989D03*
X007433Y003083D03*
X008874Y003099D03*
X010220Y003099D03*
D91*
X008858Y004949D03*
X007433Y004981D03*
X007433Y003091D03*
D92*
X007433Y003099D03*
X008874Y003123D03*
X010220Y003123D03*
X008858Y004942D03*
X007433Y004973D03*
D93*
X008862Y004934D03*
X010208Y004934D03*
X007429Y003107D03*
D94*
X008870Y003107D03*
X010224Y003107D03*
X010208Y004957D03*
X008862Y004957D03*
D95*
X008858Y004926D03*
X010212Y004926D03*
X010220Y003130D03*
X008874Y003130D03*
X007433Y003115D03*
X007433Y004965D03*
D96*
X008870Y003115D03*
X010224Y003115D03*
X010208Y004942D03*
X010208Y004949D03*
D97*
X008858Y004910D03*
X007433Y004949D03*
X007433Y003123D03*
X008874Y003146D03*
X010220Y003146D03*
D98*
X010208Y004902D03*
X010208Y004910D03*
X007429Y003130D03*
D99*
X007433Y003138D03*
X008874Y003154D03*
X010220Y003154D03*
X008858Y004894D03*
X008858Y004902D03*
X007433Y004942D03*
D100*
X007429Y004957D03*
X008862Y004918D03*
X010208Y004918D03*
X010224Y003138D03*
X008870Y003138D03*
D101*
X008874Y003170D03*
X010220Y003170D03*
X010212Y004879D03*
X008858Y004879D03*
X008858Y004886D03*
X007433Y004926D03*
X007433Y003146D03*
D102*
X007429Y003154D03*
X008870Y003178D03*
X010224Y003178D03*
X010208Y004871D03*
X008862Y004871D03*
D103*
X008858Y004863D03*
X010212Y004863D03*
X010220Y003186D03*
X007433Y003162D03*
X007433Y004910D03*
X007433Y004918D03*
D104*
X007429Y004934D03*
X008870Y003162D03*
X010224Y003162D03*
X010208Y004886D03*
X010208Y004894D03*
D105*
X010208Y004855D03*
X008862Y004855D03*
X008870Y003193D03*
X008870Y003186D03*
X007429Y003170D03*
D106*
X007433Y003178D03*
X007433Y004894D03*
X007433Y004902D03*
X008858Y004847D03*
X008858Y004839D03*
X010212Y004839D03*
X010212Y004847D03*
X010220Y003201D03*
X010220Y003193D03*
D107*
X008870Y003201D03*
X008870Y003209D03*
X007429Y003186D03*
D108*
X007433Y003193D03*
X007433Y004879D03*
X007433Y004886D03*
X010220Y003217D03*
X010220Y003209D03*
D109*
X008870Y003217D03*
X008870Y003225D03*
X007429Y003201D03*
D110*
X007433Y003209D03*
X007433Y004863D03*
X007433Y004871D03*
X010220Y003241D03*
X010220Y003233D03*
X010220Y003225D03*
D111*
X008870Y003233D03*
X008870Y003241D03*
X007429Y003217D03*
X007429Y004855D03*
D112*
X007433Y004847D03*
X007433Y004839D03*
X007433Y003233D03*
X007433Y003225D03*
D113*
X007429Y003241D03*
D114*
X008559Y003256D03*
X009181Y003256D03*
X009149Y003753D03*
X008685Y004256D03*
X008567Y004823D03*
X009149Y004823D03*
X009945Y004343D03*
X009952Y004335D03*
X010504Y004823D03*
X010480Y003784D03*
X010488Y003768D03*
X010496Y003760D03*
X009913Y003256D03*
D115*
X009893Y003272D03*
X010539Y003264D03*
X010531Y003705D03*
X010531Y003713D03*
X010523Y003721D03*
X009925Y004375D03*
X009917Y004382D03*
X009909Y004816D03*
X009169Y004808D03*
X008555Y004816D03*
X008571Y004375D03*
X008578Y004367D03*
X009177Y003713D03*
X009185Y003705D03*
X009193Y003264D03*
X007767Y004808D03*
X007098Y004808D03*
D116*
X007090Y004800D03*
X008547Y004808D03*
X008555Y004406D03*
X009177Y004800D03*
X009185Y004792D03*
X009901Y004414D03*
X009901Y004406D03*
X009909Y004398D03*
X010342Y003879D03*
X010547Y003682D03*
X010555Y003666D03*
X009878Y003296D03*
X009870Y003304D03*
X009208Y003280D03*
X009201Y003272D03*
X009201Y003674D03*
X009193Y003690D03*
X008531Y003288D03*
X008523Y003296D03*
X007775Y003280D03*
X007090Y003280D03*
X010224Y005138D03*
D117*
X010535Y004792D03*
X009889Y004800D03*
X009889Y004430D03*
X009897Y004422D03*
X009189Y004784D03*
X008543Y004800D03*
X008535Y004792D03*
X008543Y004430D03*
X008543Y004422D03*
X008551Y004414D03*
X007779Y004792D03*
X007086Y004792D03*
X007078Y004784D03*
X007078Y003296D03*
X007078Y003288D03*
X007779Y003288D03*
X007787Y003296D03*
X008519Y003304D03*
X009212Y003650D03*
X009212Y003658D03*
X009204Y003666D03*
X009866Y003312D03*
X010559Y003280D03*
X010567Y003642D03*
X010559Y003658D03*
X010551Y003674D03*
D118*
X010563Y003650D03*
X010571Y003634D03*
X010571Y003296D03*
X010563Y003288D03*
X009862Y003319D03*
X009854Y003335D03*
X009216Y003288D03*
X009224Y003627D03*
X009216Y003642D03*
X008515Y003312D03*
X008508Y003319D03*
X008508Y003327D03*
X007791Y003304D03*
X007075Y003304D03*
X007075Y004776D03*
X007783Y004784D03*
X007791Y004776D03*
X007791Y004768D03*
X008531Y004453D03*
X008531Y004445D03*
X008539Y004438D03*
X009193Y004776D03*
X009886Y004792D03*
X009886Y004445D03*
X009886Y004438D03*
X010539Y004784D03*
X010547Y004776D03*
D119*
X010555Y004753D03*
X010563Y004745D03*
X010563Y004737D03*
X009870Y004760D03*
X009870Y004768D03*
X009870Y004485D03*
X009870Y004477D03*
X009216Y004729D03*
X009208Y004745D03*
X009208Y004753D03*
X008523Y004768D03*
X008515Y004760D03*
X008515Y004493D03*
X008515Y004485D03*
X008523Y004477D03*
X008523Y004469D03*
X007815Y004690D03*
X007815Y004697D03*
X007807Y004721D03*
X007807Y004729D03*
X007807Y004737D03*
X007799Y004753D03*
X007059Y004737D03*
X007059Y004729D03*
X007051Y004713D03*
X007051Y004705D03*
X007051Y004697D03*
X007051Y003382D03*
X007051Y003375D03*
X007051Y003367D03*
X007059Y003351D03*
X007059Y003343D03*
X007059Y003335D03*
X007807Y003343D03*
X007807Y003351D03*
X007807Y003359D03*
X007815Y003375D03*
X007815Y003382D03*
X007815Y003390D03*
X008484Y003390D03*
X008484Y003382D03*
X008492Y003367D03*
X008492Y003359D03*
X009224Y003304D03*
X009232Y003312D03*
X009240Y003579D03*
X009240Y003587D03*
X009232Y003595D03*
X009232Y003603D03*
X009830Y003398D03*
X009838Y003375D03*
X009838Y003367D03*
X009846Y003359D03*
X009846Y003351D03*
X010578Y003312D03*
X010586Y003587D03*
X010586Y003595D03*
D120*
X010602Y003540D03*
X010602Y003532D03*
X010602Y003524D03*
X010594Y003351D03*
X010594Y003343D03*
X009823Y003430D03*
X009823Y003438D03*
X009815Y003461D03*
X009815Y003469D03*
X009815Y003477D03*
X009815Y003485D03*
X009815Y003493D03*
X009256Y003501D03*
X009256Y003508D03*
X009256Y003516D03*
X009256Y003524D03*
X009248Y003540D03*
X009248Y003548D03*
X009248Y003556D03*
X009248Y003359D03*
X009248Y003351D03*
X009240Y003343D03*
X009240Y003335D03*
X008476Y003414D03*
X008468Y003445D03*
X008468Y003453D03*
X008468Y003461D03*
X008468Y003469D03*
X008460Y003485D03*
X008460Y003493D03*
X008460Y003501D03*
X008460Y003508D03*
X008460Y003516D03*
X008508Y004516D03*
X008508Y004524D03*
X008500Y004540D03*
X008500Y004548D03*
X008500Y004556D03*
X008500Y004697D03*
X008500Y004705D03*
X008508Y004721D03*
X008508Y004729D03*
X008508Y004737D03*
X008878Y005146D03*
X009224Y004705D03*
X009224Y004697D03*
X009232Y004682D03*
X009232Y004674D03*
X009232Y004666D03*
X009854Y004713D03*
X009854Y004721D03*
X009854Y004729D03*
X009862Y004745D03*
X009854Y004540D03*
X009854Y004532D03*
X009854Y004524D03*
X010578Y004682D03*
X010578Y004690D03*
X010578Y004697D03*
X010586Y004666D03*
X010586Y004658D03*
X010586Y004650D03*
X007043Y004619D03*
X007043Y004611D03*
X007043Y004603D03*
X007043Y004595D03*
X007043Y004587D03*
X007043Y004579D03*
X007043Y004571D03*
X007043Y004564D03*
X007043Y004556D03*
X007043Y004548D03*
X007043Y004540D03*
X007043Y004532D03*
X007043Y004524D03*
X007043Y004516D03*
X007043Y004508D03*
X007043Y004501D03*
X007043Y004493D03*
X007043Y004485D03*
X007043Y004477D03*
X007043Y004469D03*
X007043Y004461D03*
X007043Y004453D03*
X007043Y004445D03*
X007043Y004438D03*
X007043Y004430D03*
X007043Y004422D03*
X007043Y004414D03*
X007043Y004406D03*
X007043Y004398D03*
X007043Y004390D03*
X007043Y004382D03*
X007043Y004375D03*
X007043Y004367D03*
X007043Y004359D03*
X007043Y004351D03*
X007043Y004343D03*
X007043Y004335D03*
X007043Y004327D03*
X007043Y004319D03*
X007043Y004312D03*
X007043Y004304D03*
X007043Y004296D03*
X007043Y004288D03*
X007043Y004280D03*
X007043Y004272D03*
X007043Y004264D03*
X007043Y004256D03*
X007043Y004249D03*
X007043Y004241D03*
X007043Y004233D03*
X007043Y004225D03*
X007043Y004217D03*
X007043Y003879D03*
X007043Y003871D03*
X007043Y003863D03*
X007043Y003855D03*
X007043Y003847D03*
X007043Y003839D03*
X007043Y003831D03*
X007043Y003823D03*
X007043Y003816D03*
X007043Y003808D03*
X007043Y003800D03*
X007043Y003792D03*
X007043Y003784D03*
X007043Y003776D03*
X007043Y003768D03*
X007043Y003760D03*
X007043Y003753D03*
X007043Y003745D03*
X007043Y003737D03*
X007043Y003729D03*
X007043Y003721D03*
X007043Y003713D03*
X007043Y003705D03*
X007043Y003697D03*
X007043Y003690D03*
X007043Y003682D03*
X007043Y003674D03*
X007043Y003666D03*
X007043Y003658D03*
X007043Y003650D03*
X007043Y003642D03*
X007043Y003634D03*
X007043Y003627D03*
X007043Y003619D03*
X007043Y003611D03*
X007043Y003603D03*
X007043Y003595D03*
X007043Y003587D03*
X007043Y003579D03*
X007043Y003571D03*
X007043Y003564D03*
X007043Y003556D03*
X007043Y003548D03*
X007043Y003540D03*
X007043Y003532D03*
X007043Y003524D03*
X007043Y003516D03*
X007043Y003508D03*
X007043Y003501D03*
X007043Y003493D03*
X007043Y003485D03*
X007043Y003477D03*
X007043Y003469D03*
X007043Y003461D03*
X007043Y003453D03*
D121*
X008492Y004611D03*
X008492Y004619D03*
X008492Y004627D03*
X009846Y004666D03*
X009846Y004674D03*
X009846Y004579D03*
X010319Y003871D03*
X010610Y003469D03*
X010610Y003461D03*
X010610Y003453D03*
X010610Y003445D03*
X010610Y003438D03*
X010610Y003430D03*
X010610Y003422D03*
X010610Y003414D03*
X009256Y003398D03*
X009256Y003390D03*
D122*
X009819Y003524D03*
D123*
X009846Y003532D03*
X008760Y004264D03*
X007082Y004067D03*
X007082Y004060D03*
X007082Y004028D03*
X007004Y003894D03*
X011271Y004036D03*
X011271Y004052D03*
X011271Y004060D03*
D124*
X008523Y003540D03*
D125*
X009874Y003540D03*
X007433Y005162D03*
D126*
X006921Y004138D03*
X006921Y004130D03*
X006921Y004123D03*
X006921Y003973D03*
X006921Y003965D03*
X006921Y003942D03*
X008575Y003556D03*
X011441Y003949D03*
X011441Y003957D03*
X011441Y003965D03*
X011441Y004130D03*
X011441Y004138D03*
X011441Y004146D03*
X011441Y004154D03*
D127*
X010468Y004603D03*
X009925Y003556D03*
X007689Y003816D03*
X007689Y004280D03*
X006917Y004154D03*
X006917Y004146D03*
X006917Y003957D03*
X006917Y003949D03*
D128*
X007090Y003926D03*
X007098Y003949D03*
X007098Y003957D03*
X007193Y003965D03*
X007193Y004130D03*
X007098Y004138D03*
X007712Y003847D03*
X007712Y003839D03*
X007712Y003831D03*
X007862Y003816D03*
X007862Y003808D03*
X007870Y003863D03*
X007870Y004233D03*
X007870Y004241D03*
X007870Y004249D03*
X007870Y004256D03*
X007870Y004264D03*
X007870Y004272D03*
X007870Y004280D03*
X008807Y004319D03*
X008602Y003564D03*
X009830Y004319D03*
X010138Y004312D03*
X010138Y004304D03*
X010138Y004296D03*
X010138Y004288D03*
X010138Y004280D03*
X010460Y003855D03*
X010460Y003847D03*
X010460Y003839D03*
X010610Y003879D03*
X011161Y003965D03*
X011256Y003965D03*
X011263Y003934D03*
X011256Y004130D03*
D129*
X009952Y003564D03*
X008803Y004327D03*
D130*
X008630Y003571D03*
X010181Y003847D03*
X010260Y004256D03*
X011134Y004162D03*
X011134Y004154D03*
X011134Y004146D03*
X011134Y003949D03*
X011134Y003942D03*
X011134Y003934D03*
X011496Y004020D03*
X011496Y004028D03*
X011496Y004036D03*
X011496Y004067D03*
X011496Y004075D03*
X007220Y004146D03*
X007220Y004154D03*
X007220Y004162D03*
X007220Y004170D03*
X007220Y003949D03*
X007220Y003942D03*
X007220Y003934D03*
X007220Y003926D03*
X006866Y004020D03*
X006866Y004028D03*
X006866Y004067D03*
X006866Y004075D03*
D131*
X006862Y004060D03*
X006862Y004052D03*
X006862Y004044D03*
X006862Y004036D03*
X009980Y003571D03*
X010185Y003839D03*
X011500Y004044D03*
X011500Y004052D03*
X011500Y004060D03*
D132*
X011260Y004138D03*
X011260Y004146D03*
X011260Y004154D03*
X011267Y004170D03*
X011165Y004130D03*
X011260Y003957D03*
X011260Y003949D03*
X011260Y003942D03*
X011267Y003926D03*
X010614Y003871D03*
X010614Y003863D03*
X010614Y003855D03*
X010614Y003847D03*
X010614Y003839D03*
X010614Y003831D03*
X010614Y003823D03*
X010464Y003823D03*
X010464Y003816D03*
X010464Y003808D03*
X010464Y003831D03*
X010456Y003863D03*
X010307Y003855D03*
X010307Y003847D03*
X010307Y003839D03*
X010307Y003831D03*
X010307Y003823D03*
X010307Y003816D03*
X010307Y003808D03*
X010307Y003800D03*
X010134Y004249D03*
X010134Y004256D03*
X010134Y004264D03*
X010134Y004272D03*
X009984Y004272D03*
X009984Y004264D03*
X009984Y004256D03*
X009984Y004280D03*
X009984Y004288D03*
X009984Y004296D03*
X009984Y004304D03*
X009984Y004312D03*
X009984Y004319D03*
X009826Y004312D03*
X009826Y004304D03*
X009826Y004296D03*
X009826Y004288D03*
X009826Y004280D03*
X009826Y004272D03*
X009826Y004264D03*
X009275Y003823D03*
X009275Y003816D03*
X009275Y003808D03*
X009275Y003800D03*
X009275Y003792D03*
X009275Y003784D03*
X009275Y003776D03*
X009275Y003768D03*
X009275Y003760D03*
X009118Y003760D03*
X009118Y003768D03*
X009118Y003776D03*
X009118Y003784D03*
X009118Y003792D03*
X009118Y003800D03*
X009118Y003808D03*
X009118Y003816D03*
X009118Y003823D03*
X008960Y003823D03*
X008960Y003816D03*
X008960Y003808D03*
X008960Y003800D03*
X008960Y003792D03*
X008960Y003784D03*
X008960Y003776D03*
X008960Y003768D03*
X008960Y003760D03*
X008811Y004272D03*
X008811Y004280D03*
X008811Y004288D03*
X008811Y004296D03*
X008811Y004304D03*
X008811Y004312D03*
X008653Y004312D03*
X008653Y004319D03*
X008653Y004327D03*
X008653Y004304D03*
X008653Y004296D03*
X008653Y004288D03*
X008653Y004280D03*
X008653Y004272D03*
X008496Y004272D03*
X008496Y004264D03*
X008496Y004280D03*
X008496Y004288D03*
X008496Y004296D03*
X008496Y004304D03*
X008496Y004312D03*
X008496Y004319D03*
X008496Y004327D03*
X007866Y004288D03*
X007716Y004272D03*
X007716Y004264D03*
X007716Y004256D03*
X007716Y004249D03*
X007716Y004241D03*
X007716Y004233D03*
X007716Y004225D03*
X007716Y004217D03*
X007716Y003879D03*
X007716Y003871D03*
X007716Y003863D03*
X007716Y003855D03*
X007708Y003823D03*
X007866Y003823D03*
X007866Y003831D03*
X007866Y003839D03*
X007866Y003847D03*
X007866Y003855D03*
X007102Y003965D03*
X007094Y003942D03*
X007094Y003934D03*
X007102Y004130D03*
X007094Y004146D03*
X007094Y004154D03*
X007094Y004162D03*
X007094Y004170D03*
D133*
X007122Y004823D03*
X007744Y004823D03*
X008870Y005130D03*
X010224Y005130D03*
X010484Y003776D03*
D134*
X010267Y004241D03*
X011141Y003957D03*
X011488Y003997D03*
X011488Y004099D03*
X007992Y004233D03*
X007992Y004296D03*
X007992Y003823D03*
X007992Y003816D03*
X007992Y003808D03*
X007992Y003800D03*
X007212Y003957D03*
X006874Y003997D03*
X006874Y004099D03*
D135*
X007149Y004115D03*
X007149Y003989D03*
X007149Y003981D03*
X007149Y003973D03*
X010622Y003808D03*
X011425Y003934D03*
D136*
X010638Y003816D03*
X009118Y004603D03*
D137*
X007996Y004288D03*
X007996Y004280D03*
X007996Y004272D03*
X007996Y004264D03*
X007996Y004256D03*
X007996Y004249D03*
X007996Y004241D03*
X007996Y003863D03*
X007996Y003855D03*
X007996Y003847D03*
X007996Y003839D03*
X007996Y003831D03*
X007216Y003886D03*
X007216Y003894D03*
X007216Y003902D03*
X007216Y003910D03*
X007216Y003918D03*
X007216Y004178D03*
X007216Y004186D03*
X007216Y004193D03*
X007216Y004201D03*
X007216Y004209D03*
X006870Y004091D03*
X006870Y004083D03*
X006870Y004012D03*
X006870Y004005D03*
X010263Y004249D03*
X011138Y004209D03*
X011138Y004201D03*
X011138Y004193D03*
X011138Y004186D03*
X011138Y004178D03*
X011138Y004170D03*
X011138Y003926D03*
X011138Y003918D03*
X011138Y003910D03*
X011138Y003902D03*
X011138Y003894D03*
X011492Y004005D03*
X011492Y004012D03*
X011492Y004083D03*
X011492Y004091D03*
D138*
X010252Y004264D03*
X010189Y003831D03*
D139*
X009082Y003839D03*
D140*
X009071Y003847D03*
X008685Y004233D03*
X008677Y004241D03*
X008669Y004249D03*
X008874Y005123D03*
X007724Y004831D03*
X007141Y004831D03*
X010220Y005123D03*
D141*
X010193Y003855D03*
X008799Y004335D03*
D142*
X009157Y004611D03*
X010252Y003863D03*
X010504Y004611D03*
X007134Y004099D03*
D143*
X007126Y004005D03*
X007905Y003879D03*
X011228Y004005D03*
D144*
X010575Y004627D03*
X007842Y003886D03*
X007023Y003886D03*
D145*
X007429Y005123D03*
X008712Y004201D03*
X008720Y004193D03*
X008728Y004186D03*
X009012Y003910D03*
X009019Y003902D03*
X009027Y003894D03*
X009035Y003886D03*
X010067Y004201D03*
X010075Y004193D03*
X010374Y003902D03*
D146*
X011275Y004028D03*
X011275Y004067D03*
X011354Y003894D03*
X008882Y005154D03*
X007078Y004075D03*
X007078Y004020D03*
D147*
X008740Y004178D03*
X009008Y003918D03*
X010078Y004186D03*
X010086Y004178D03*
X010094Y004170D03*
X010338Y003934D03*
X010346Y003926D03*
X010354Y003918D03*
X010362Y003910D03*
X010220Y005115D03*
D148*
X010106Y004162D03*
X010334Y003942D03*
X008996Y003926D03*
X008988Y003934D03*
X008980Y003942D03*
X008972Y003949D03*
X008964Y003957D03*
X008767Y004146D03*
X008760Y004154D03*
X008752Y004162D03*
X008744Y004170D03*
X008870Y005115D03*
D149*
X006933Y003934D03*
X011429Y004162D03*
D150*
X011437Y004123D03*
X011437Y004115D03*
X011437Y003981D03*
X011437Y003973D03*
X011437Y003942D03*
X010130Y004319D03*
X006925Y004115D03*
X006925Y004107D03*
X006925Y003989D03*
X006925Y003981D03*
D151*
X006929Y004162D03*
X011433Y004107D03*
X011433Y003989D03*
D152*
X011409Y003997D03*
X011409Y004099D03*
X006952Y004099D03*
X006952Y003997D03*
D153*
X006956Y004005D03*
X006956Y004091D03*
X011263Y004162D03*
X011405Y004091D03*
X011405Y004005D03*
D154*
X011279Y004020D03*
X011279Y004075D03*
X009925Y004249D03*
X010232Y005154D03*
X007075Y004083D03*
X007075Y004012D03*
D155*
X007015Y004209D03*
X011283Y004083D03*
X011283Y004012D03*
D156*
X010220Y005107D03*
X008866Y005107D03*
X008842Y004075D03*
X008850Y004067D03*
X008858Y004060D03*
X008866Y004052D03*
X008874Y004044D03*
X008882Y004036D03*
X008889Y004028D03*
X007433Y005115D03*
D157*
X007122Y004091D03*
D158*
X007897Y004217D03*
X008882Y005162D03*
X010236Y005162D03*
X011236Y004091D03*
D159*
X011224Y004099D03*
D160*
X011145Y004138D03*
X009082Y004595D03*
X007208Y004138D03*
D161*
X007846Y004209D03*
X008531Y004335D03*
X007429Y005154D03*
X011342Y004209D03*
D162*
X009815Y004256D03*
D163*
X010433Y004595D03*
X008401Y004327D03*
D164*
X009193Y004619D03*
X010539Y004619D03*
D165*
X010208Y004965D03*
X007429Y004997D03*
D166*
X007429Y005005D03*
X008862Y004981D03*
X010208Y004981D03*
D167*
X010216Y005083D03*
D168*
X007433Y005091D03*
D169*
X007433Y005099D03*
X008866Y005091D03*
D170*
X010216Y005091D03*
D171*
X010220Y005099D03*
X008866Y005099D03*
X007433Y005107D03*
D172*
X013608Y003160D03*
X014358Y003160D03*
X015108Y003160D03*
D173*
X010358Y006910D02*
X008358Y006910D01*
X007358Y007910D01*
X007358Y008160D01*
X007358Y010785D01*
X007358Y011160D01*
X006264Y010332D02*
X006264Y006220D01*
X003090Y006220D01*
X002726Y006583D01*
X002988Y006583D01*
X003056Y006612D01*
X003078Y006603D01*
X003655Y006603D01*
X003655Y006518D01*
X003710Y006385D01*
X003812Y006284D01*
X003944Y006229D01*
X004638Y006229D01*
X004771Y006284D01*
X004862Y006375D01*
X004940Y006375D01*
X005090Y006437D01*
X005206Y006553D01*
X005581Y006928D01*
X005643Y007078D01*
X005643Y010188D01*
X005755Y010141D01*
X005961Y010141D01*
X006152Y010220D01*
X006264Y010332D01*
X006264Y010177D02*
X006047Y010177D01*
X006264Y009939D02*
X005643Y009939D01*
X005643Y010177D02*
X005668Y010177D01*
X005643Y009700D02*
X006264Y009700D01*
X006264Y009462D02*
X005643Y009462D01*
X005643Y009223D02*
X006264Y009223D01*
X006264Y008985D02*
X005643Y008985D01*
X005643Y008746D02*
X006264Y008746D01*
X006264Y008508D02*
X005643Y008508D01*
X005643Y008269D02*
X006264Y008269D01*
X006264Y008031D02*
X005643Y008031D01*
X005643Y007792D02*
X006264Y007792D01*
X006264Y007554D02*
X005643Y007554D01*
X005643Y007315D02*
X006264Y007315D01*
X006264Y007077D02*
X005642Y007077D01*
X005491Y006838D02*
X006264Y006838D01*
X006264Y006600D02*
X005252Y006600D01*
X004848Y006361D02*
X006264Y006361D01*
X006264Y005100D02*
X006264Y003310D01*
X000878Y003310D01*
X000878Y029508D01*
X003188Y029508D01*
X003294Y029613D01*
X003294Y031923D01*
X029706Y031923D01*
X029706Y029613D01*
X029811Y029508D01*
X032121Y029508D01*
X032121Y021814D01*
X015561Y021814D01*
X015561Y022323D01*
X015506Y022455D01*
X015404Y022557D01*
X015272Y022612D01*
X014853Y022612D01*
X014721Y022557D01*
X014696Y022532D01*
X014515Y022532D01*
X014461Y022554D01*
X014449Y022554D01*
X014174Y022830D01*
X013028Y023976D01*
X012931Y024016D01*
X012925Y024022D01*
X012749Y024095D01*
X010814Y024095D01*
X010771Y024113D01*
X010195Y024113D01*
X010170Y024102D01*
X010146Y024113D01*
X009570Y024113D01*
X009545Y024102D01*
X009521Y024113D01*
X008945Y024113D01*
X008920Y024102D01*
X008896Y024113D01*
X008320Y024113D01*
X008277Y024095D01*
X008263Y024095D01*
X008196Y024067D01*
X008127Y024046D01*
X008108Y024031D01*
X008086Y024022D01*
X008035Y023971D01*
X007750Y023737D01*
X007685Y023737D01*
X007685Y024074D01*
X007649Y024160D01*
X007685Y024246D01*
X007685Y024665D01*
X007630Y024797D01*
X007588Y024839D01*
X007588Y025410D01*
X007593Y025472D01*
X007631Y025589D01*
X007704Y025689D01*
X007804Y025762D01*
X007909Y025796D01*
X007906Y025790D01*
X007906Y025371D01*
X007961Y025239D01*
X008063Y025137D01*
X008195Y025082D01*
X008771Y025082D01*
X008903Y025137D01*
X008983Y025217D01*
X009063Y025137D01*
X009195Y025082D01*
X009771Y025082D01*
X009903Y025137D01*
X009983Y025217D01*
X010063Y025137D01*
X010195Y025082D01*
X010771Y025082D01*
X010858Y025118D01*
X010945Y025082D01*
X011521Y025082D01*
X011653Y025137D01*
X011733Y025217D01*
X011813Y025137D01*
X011945Y025082D01*
X012521Y025082D01*
X012653Y025137D01*
X012733Y025217D01*
X012813Y025137D01*
X012945Y025082D01*
X013521Y025082D01*
X013555Y025097D01*
X013531Y025040D01*
X013531Y024621D01*
X013586Y024489D01*
X013688Y024387D01*
X013820Y024332D01*
X014396Y024332D01*
X014439Y024350D01*
X014527Y024350D01*
X014570Y024332D01*
X015146Y024332D01*
X015278Y024387D01*
X015380Y024489D01*
X015435Y024621D01*
X015435Y025040D01*
X015380Y025172D01*
X015278Y025273D01*
X015146Y025328D01*
X014899Y025328D01*
X014942Y025432D01*
X014942Y025567D01*
X015062Y025518D01*
X015599Y025518D01*
X015731Y025572D01*
X015832Y025674D01*
X015874Y025773D01*
X016930Y025773D01*
X016952Y025783D01*
X016971Y025763D01*
X017103Y025708D01*
X017522Y025708D01*
X017608Y025744D01*
X017694Y025708D01*
X018113Y025708D01*
X018233Y025758D01*
X018353Y025708D01*
X018772Y025708D01*
X018858Y025744D01*
X018944Y025708D01*
X019363Y025708D01*
X019467Y025752D01*
X019467Y025576D01*
X019522Y025443D01*
X019624Y025342D01*
X019756Y025287D01*
X020143Y025287D01*
X020360Y025069D01*
X020500Y025012D01*
X021753Y025012D01*
X021893Y025069D01*
X022000Y025176D01*
X022058Y025316D01*
X022058Y025443D01*
X022323Y025708D01*
X022522Y025708D01*
X022608Y025744D01*
X022694Y025708D01*
X023113Y025708D01*
X023233Y025758D01*
X023353Y025708D01*
X023772Y025708D01*
X023858Y025744D01*
X023944Y025708D01*
X024281Y025708D01*
X024281Y025371D01*
X024336Y025239D01*
X024438Y025137D01*
X024570Y025082D01*
X025146Y025082D01*
X025278Y025137D01*
X025358Y025217D01*
X025438Y025137D01*
X025570Y025082D01*
X026146Y025082D01*
X026278Y025137D01*
X026295Y025154D01*
X026313Y025137D01*
X026445Y025082D01*
X027021Y025082D01*
X027153Y025137D01*
X027255Y025239D01*
X027310Y025371D01*
X027310Y025790D01*
X027303Y025805D01*
X028702Y025805D01*
X028903Y025604D01*
X029198Y025482D01*
X029518Y025482D01*
X029813Y025604D01*
X030039Y025830D01*
X030161Y026125D01*
X030161Y026445D01*
X030039Y026740D01*
X029813Y026966D01*
X029518Y027088D01*
X029198Y027088D01*
X028903Y026966D01*
X028702Y026765D01*
X027133Y026765D01*
X027133Y026954D01*
X027151Y026997D01*
X027151Y027573D01*
X027096Y027705D01*
X026995Y027807D01*
X026863Y027862D01*
X026444Y027862D01*
X026358Y027826D01*
X026272Y027862D01*
X025853Y027862D01*
X025733Y027812D01*
X025613Y027862D01*
X025194Y027862D01*
X025108Y027826D01*
X025022Y027862D01*
X024603Y027862D01*
X024471Y027807D01*
X024370Y027705D01*
X024315Y027573D01*
X024315Y026997D01*
X024333Y026954D01*
X024333Y026862D01*
X023944Y026862D01*
X023858Y026826D01*
X023772Y026862D01*
X023353Y026862D01*
X023233Y026812D01*
X023113Y026862D01*
X022968Y026862D01*
X022968Y027232D01*
X022913Y027364D01*
X022867Y027410D01*
X022913Y027456D01*
X022968Y027588D01*
X022968Y028133D01*
X022913Y028266D01*
X022812Y028367D01*
X022680Y028422D01*
X022668Y028422D01*
X022668Y028490D01*
X022685Y028530D01*
X022685Y028949D01*
X022649Y029035D01*
X022685Y029121D01*
X022685Y029540D01*
X022630Y029672D01*
X022528Y029773D01*
X022406Y029824D01*
X021675Y030555D01*
X021469Y030640D01*
X017497Y030640D01*
X017291Y030555D01*
X016126Y029390D01*
X005292Y029390D01*
X005086Y029305D01*
X002041Y026260D01*
X001883Y026102D01*
X001798Y025896D01*
X001798Y020549D01*
X001883Y020343D01*
X002798Y019428D01*
X002798Y019010D01*
X002767Y018934D01*
X002767Y017886D01*
X002773Y017870D01*
X002734Y017777D01*
X002734Y017043D01*
X002789Y016911D01*
X002798Y016902D01*
X002798Y015049D01*
X002883Y014843D01*
X003041Y014685D01*
X003291Y014435D01*
X003497Y014350D01*
X003719Y014350D01*
X003816Y014390D01*
X004461Y014390D01*
X004545Y014425D01*
X004685Y014425D01*
X004688Y014422D01*
X004769Y014388D01*
X004458Y014388D01*
X004453Y014390D01*
X004263Y014390D01*
X004258Y014388D01*
X003853Y014388D01*
X003721Y014333D01*
X003620Y014232D01*
X003615Y014220D01*
X003443Y014220D01*
X003418Y014228D01*
X003333Y014220D01*
X003247Y014220D01*
X003222Y014210D01*
X003196Y014208D01*
X003120Y014168D01*
X003041Y014135D01*
X003022Y014116D01*
X002999Y014104D01*
X002944Y014038D01*
X002883Y013977D01*
X002873Y013953D01*
X002460Y013457D01*
X002387Y013427D01*
X002216Y013256D01*
X002123Y013031D01*
X002123Y012868D01*
X002085Y012830D01*
X002030Y012698D01*
X002030Y012122D01*
X002085Y011990D01*
X002098Y011977D01*
X001908Y011977D01*
X001776Y011922D01*
X001675Y011821D01*
X001620Y011688D01*
X001620Y010679D01*
X001675Y010547D01*
X001698Y010523D01*
X001698Y010453D01*
X001760Y010303D01*
X001839Y010224D01*
X001839Y010182D01*
X001918Y009991D01*
X001980Y009929D01*
X001908Y009929D01*
X001776Y009875D01*
X001675Y009773D01*
X001620Y009641D01*
X001620Y009422D01*
X001548Y009248D01*
X001548Y006299D01*
X001633Y006093D01*
X002383Y005343D01*
X002541Y005185D01*
X002747Y005100D01*
X006264Y005100D01*
X006264Y004930D02*
X000878Y004930D01*
X000878Y004692D02*
X006264Y004692D01*
X006264Y004453D02*
X000878Y004453D01*
X000878Y004215D02*
X006264Y004215D01*
X006264Y003976D02*
X000878Y003976D01*
X000878Y003738D02*
X006264Y003738D01*
X006264Y003499D02*
X000878Y003499D01*
X000878Y005169D02*
X002581Y005169D01*
X002319Y005407D02*
X000878Y005407D01*
X000878Y005646D02*
X002081Y005646D01*
X001842Y005884D02*
X000878Y005884D01*
X000878Y006123D02*
X001621Y006123D01*
X001548Y006361D02*
X000878Y006361D01*
X000878Y006600D02*
X001548Y006600D01*
X001548Y006838D02*
X000878Y006838D01*
X000878Y007077D02*
X001548Y007077D01*
X001548Y007315D02*
X000878Y007315D01*
X000878Y007554D02*
X001548Y007554D01*
X001548Y007792D02*
X000878Y007792D01*
X000878Y008031D02*
X001548Y008031D01*
X001548Y008269D02*
X000878Y008269D01*
X000878Y008508D02*
X001548Y008508D01*
X001548Y008746D02*
X000878Y008746D01*
X000878Y008985D02*
X001548Y008985D01*
X001548Y009223D02*
X000878Y009223D01*
X000878Y009462D02*
X001620Y009462D01*
X001644Y009700D02*
X000878Y009700D01*
X000878Y009939D02*
X001971Y009939D01*
X001841Y010177D02*
X000878Y010177D01*
X000878Y010416D02*
X001714Y010416D01*
X001630Y010654D02*
X000878Y010654D01*
X000878Y010893D02*
X001620Y010893D01*
X001620Y011131D02*
X000878Y011131D01*
X000878Y011370D02*
X001620Y011370D01*
X001620Y011608D02*
X000878Y011608D01*
X000878Y011847D02*
X001701Y011847D01*
X002046Y012085D02*
X000878Y012085D01*
X000878Y012324D02*
X002030Y012324D01*
X002030Y012562D02*
X000878Y012562D01*
X000878Y012801D02*
X002073Y012801D01*
X002126Y013039D02*
X000878Y013039D01*
X000878Y013278D02*
X002238Y013278D01*
X002509Y013516D02*
X000878Y013516D01*
X000878Y013755D02*
X002708Y013755D01*
X002899Y013993D02*
X000878Y013993D01*
X000878Y014232D02*
X003620Y014232D01*
X003256Y014470D02*
X000878Y014470D01*
X000878Y014709D02*
X003018Y014709D01*
X002840Y014947D02*
X000878Y014947D01*
X000878Y015186D02*
X002798Y015186D01*
X002798Y015424D02*
X000878Y015424D01*
X000878Y015663D02*
X002798Y015663D01*
X002798Y015901D02*
X000878Y015901D01*
X000878Y016140D02*
X002798Y016140D01*
X002798Y016378D02*
X000878Y016378D01*
X000878Y016617D02*
X002798Y016617D01*
X002798Y016855D02*
X000878Y016855D01*
X000878Y017094D02*
X002734Y017094D01*
X002734Y017332D02*
X000878Y017332D01*
X000878Y017571D02*
X002734Y017571D01*
X002748Y017809D02*
X000878Y017809D01*
X000878Y018048D02*
X002767Y018048D01*
X002767Y018286D02*
X000878Y018286D01*
X000878Y018525D02*
X002767Y018525D01*
X002767Y018763D02*
X000878Y018763D01*
X000878Y019002D02*
X002795Y019002D01*
X002798Y019240D02*
X000878Y019240D01*
X000878Y019479D02*
X002748Y019479D01*
X002509Y019717D02*
X000878Y019717D01*
X000878Y019956D02*
X002271Y019956D01*
X002032Y020194D02*
X000878Y020194D01*
X000878Y020433D02*
X001846Y020433D01*
X001798Y020671D02*
X000878Y020671D01*
X000878Y020910D02*
X001798Y020910D01*
X001798Y021148D02*
X000878Y021148D01*
X000878Y021387D02*
X001798Y021387D01*
X001798Y021625D02*
X000878Y021625D01*
X000878Y021864D02*
X001798Y021864D01*
X001798Y022102D02*
X000878Y022102D01*
X000878Y022341D02*
X001798Y022341D01*
X001798Y022579D02*
X000878Y022579D01*
X000878Y022818D02*
X001798Y022818D01*
X001798Y023056D02*
X000878Y023056D01*
X000878Y023295D02*
X001798Y023295D01*
X001798Y023533D02*
X000878Y023533D01*
X000878Y023772D02*
X001798Y023772D01*
X001798Y024010D02*
X000878Y024010D01*
X000878Y024249D02*
X001798Y024249D01*
X001798Y024487D02*
X000878Y024487D01*
X000878Y024726D02*
X001798Y024726D01*
X001798Y024964D02*
X000878Y024964D01*
X000878Y025203D02*
X001798Y025203D01*
X001798Y025441D02*
X000878Y025441D01*
X000878Y025680D02*
X001798Y025680D01*
X001807Y025918D02*
X000878Y025918D01*
X000878Y026157D02*
X001938Y026157D01*
X002176Y026395D02*
X000878Y026395D01*
X000878Y026634D02*
X002415Y026634D01*
X002653Y026872D02*
X000878Y026872D01*
X000878Y027111D02*
X002892Y027111D01*
X003130Y027349D02*
X000878Y027349D01*
X000878Y027588D02*
X003369Y027588D01*
X003607Y027826D02*
X000878Y027826D01*
X000878Y028065D02*
X003846Y028065D01*
X004084Y028303D02*
X000878Y028303D01*
X000878Y028542D02*
X004323Y028542D01*
X004561Y028780D02*
X000878Y028780D01*
X000878Y029019D02*
X004800Y029019D01*
X005038Y029257D02*
X000878Y029257D01*
X000878Y029496D02*
X016231Y029496D01*
X016470Y029734D02*
X003294Y029734D01*
X003294Y029973D02*
X016708Y029973D01*
X016947Y030211D02*
X003294Y030211D01*
X003294Y030450D02*
X017185Y030450D01*
X017840Y029520D02*
X018781Y029520D01*
X018781Y029280D01*
X018831Y029160D01*
X018814Y029118D01*
X018771Y029161D01*
X018638Y029216D01*
X017944Y029216D01*
X017812Y029161D01*
X017710Y029060D01*
X017655Y028927D01*
X017655Y028391D01*
X017699Y028285D01*
X017655Y028179D01*
X017655Y027643D01*
X017710Y027510D01*
X017812Y027409D01*
X017944Y027354D01*
X018638Y027354D01*
X018771Y027409D01*
X018781Y027420D01*
X018781Y027371D01*
X018817Y027285D01*
X018781Y027199D01*
X018781Y026858D01*
X018772Y026862D01*
X018353Y026862D01*
X018233Y026812D01*
X018113Y026862D01*
X017694Y026862D01*
X017608Y026826D01*
X017522Y026862D01*
X017176Y026862D01*
X017218Y026963D01*
X017218Y027508D01*
X017163Y027641D01*
X017062Y027742D01*
X016930Y027797D01*
X016838Y027797D01*
X016838Y027856D01*
X016880Y027898D01*
X016935Y028030D01*
X016935Y028449D01*
X016899Y028535D01*
X016930Y028611D01*
X017840Y029520D01*
X017815Y029496D02*
X018781Y029496D01*
X018791Y029257D02*
X017577Y029257D01*
X017693Y029019D02*
X017338Y029019D01*
X017100Y028780D02*
X017655Y028780D01*
X017655Y028542D02*
X016902Y028542D01*
X016935Y028303D02*
X017692Y028303D01*
X017655Y028065D02*
X016935Y028065D01*
X016838Y027826D02*
X017655Y027826D01*
X017678Y027588D02*
X017185Y027588D01*
X017218Y027349D02*
X018790Y027349D01*
X018781Y027111D02*
X017218Y027111D01*
X017180Y026872D02*
X018781Y026872D01*
X019358Y026990D02*
X019358Y026376D01*
X019244Y026376D01*
X019153Y026285D01*
X019358Y026376D02*
X020044Y026376D01*
X019935Y026873D02*
X019935Y027199D01*
X019899Y027285D01*
X019935Y027371D01*
X019935Y027708D01*
X020272Y027708D01*
X020404Y027763D01*
X020506Y027865D01*
X020561Y027997D01*
X020561Y028573D01*
X020506Y028705D01*
X020404Y028807D01*
X020272Y028862D01*
X019935Y028862D01*
X019935Y029040D01*
X019885Y029160D01*
X019935Y029280D01*
X019935Y029520D01*
X021126Y029520D01*
X021536Y029111D01*
X021567Y029035D01*
X021531Y028949D01*
X021531Y028530D01*
X021548Y028490D01*
X021548Y028422D01*
X021536Y028422D01*
X021404Y028367D01*
X021303Y028266D01*
X021248Y028133D01*
X021248Y027588D01*
X021303Y027456D01*
X021349Y027410D01*
X021303Y027364D01*
X021248Y027232D01*
X021248Y026687D01*
X021301Y026558D01*
X020621Y026558D01*
X020621Y026585D01*
X020566Y026717D01*
X020464Y026819D01*
X020332Y026873D01*
X019935Y026873D01*
X019935Y027111D02*
X021248Y027111D01*
X021248Y026872D02*
X020335Y026872D01*
X020600Y026634D02*
X021270Y026634D01*
X021297Y027349D02*
X019925Y027349D01*
X019935Y027588D02*
X021248Y027588D01*
X021248Y027826D02*
X020467Y027826D01*
X020561Y028065D02*
X021248Y028065D01*
X021340Y028303D02*
X020561Y028303D01*
X020561Y028542D02*
X021531Y028542D01*
X021531Y028780D02*
X020431Y028780D01*
X019935Y029019D02*
X021560Y029019D01*
X021389Y029257D02*
X019925Y029257D01*
X019935Y029496D02*
X021151Y029496D01*
X022019Y030211D02*
X029706Y030211D01*
X029706Y029973D02*
X022258Y029973D01*
X022568Y029734D02*
X029706Y029734D01*
X029706Y030450D02*
X021781Y030450D01*
X022685Y029496D02*
X032121Y029496D01*
X032121Y029257D02*
X022685Y029257D01*
X022656Y029019D02*
X032121Y029019D01*
X032121Y028780D02*
X022685Y028780D01*
X022685Y028542D02*
X032121Y028542D01*
X032121Y028303D02*
X022876Y028303D01*
X022968Y028065D02*
X032121Y028065D01*
X032121Y027826D02*
X026948Y027826D01*
X027145Y027588D02*
X032121Y027588D01*
X032121Y027349D02*
X027151Y027349D01*
X027151Y027111D02*
X032121Y027111D01*
X032121Y026872D02*
X029906Y026872D01*
X030083Y026634D02*
X032121Y026634D01*
X032121Y026395D02*
X030161Y026395D01*
X030161Y026157D02*
X032121Y026157D01*
X032121Y025918D02*
X030075Y025918D01*
X029888Y025680D02*
X032121Y025680D01*
X032121Y025441D02*
X027310Y025441D01*
X027310Y025680D02*
X028828Y025680D01*
X029358Y026285D02*
X026653Y026285D01*
X026653Y025660D01*
X026733Y025580D01*
X027219Y025203D02*
X032121Y025203D01*
X032121Y024964D02*
X015435Y024964D01*
X015435Y024726D02*
X032121Y024726D01*
X032121Y024487D02*
X015378Y024487D01*
X014858Y024830D02*
X014483Y024830D01*
X014386Y024928D01*
X014386Y025661D01*
X013829Y025432D02*
X013872Y025328D01*
X013820Y025328D01*
X013786Y025314D01*
X013810Y025371D01*
X013810Y025790D01*
X013803Y025805D01*
X013829Y025805D01*
X013829Y025432D01*
X013829Y025441D02*
X013810Y025441D01*
X013810Y025680D02*
X013829Y025680D01*
X013233Y025580D02*
X013153Y025660D01*
X013153Y026285D01*
X013858Y026285D01*
X013858Y026990D01*
X013281Y026872D02*
X004237Y026872D01*
X003998Y026634D02*
X007364Y026634D01*
X007360Y026632D02*
X007013Y026380D01*
X007013Y026380D01*
X006761Y026033D01*
X006628Y025625D01*
X006628Y025505D01*
X006628Y024839D01*
X006586Y024797D01*
X006531Y024665D01*
X006531Y024246D01*
X006567Y024160D01*
X006531Y024074D01*
X006531Y023691D01*
X005590Y024633D01*
X005440Y024695D01*
X004351Y024695D01*
X004346Y024705D01*
X004245Y024807D01*
X004113Y024862D01*
X003694Y024862D01*
X003562Y024807D01*
X003460Y024705D01*
X003405Y024573D01*
X003405Y023997D01*
X003416Y023973D01*
X003405Y023948D01*
X003405Y023372D01*
X003441Y023285D01*
X003405Y023198D01*
X003405Y022622D01*
X003460Y022490D01*
X003562Y022388D01*
X003694Y022333D01*
X004113Y022333D01*
X004245Y022388D01*
X004346Y022490D01*
X004351Y022500D01*
X004427Y022500D01*
X004405Y022448D01*
X004405Y021872D01*
X004460Y021740D01*
X004562Y021638D01*
X004694Y021583D01*
X004811Y021583D01*
X004811Y020649D01*
X004847Y020562D01*
X004811Y020474D01*
X004811Y020059D01*
X004847Y019971D01*
X004811Y019884D01*
X004811Y019665D01*
X004821Y019641D01*
X004821Y019468D01*
X004843Y019415D01*
X004823Y019367D01*
X004823Y018078D01*
X004885Y017928D01*
X005073Y017740D01*
X005073Y016488D01*
X004820Y016488D01*
X004733Y016452D01*
X004646Y016488D01*
X004070Y016488D01*
X003938Y016433D01*
X003918Y016413D01*
X003918Y017786D01*
X003959Y017886D01*
X003959Y018934D01*
X003918Y019034D01*
X003918Y019771D01*
X003833Y019977D01*
X003675Y020135D01*
X002918Y020892D01*
X002918Y025553D01*
X005635Y028270D01*
X013281Y028270D01*
X013281Y028030D01*
X013331Y027910D01*
X013281Y027790D01*
X013281Y027371D01*
X013317Y027285D01*
X013281Y027199D01*
X013281Y026862D01*
X012944Y026862D01*
X012858Y026826D01*
X012772Y026862D01*
X012353Y026862D01*
X012233Y026812D01*
X012113Y026862D01*
X011694Y026862D01*
X011608Y026826D01*
X011522Y026862D01*
X011103Y026862D01*
X010971Y026807D01*
X010929Y026765D01*
X010787Y026765D01*
X010745Y026807D01*
X010613Y026862D01*
X010194Y026862D01*
X010108Y026826D01*
X010022Y026862D01*
X009603Y026862D01*
X009483Y026812D01*
X009363Y026862D01*
X008944Y026862D01*
X008858Y026826D01*
X008772Y026862D01*
X008353Y026862D01*
X008221Y026807D01*
X008179Y026765D01*
X007768Y026765D01*
X007360Y026632D01*
X007033Y026395D02*
X003760Y026395D01*
X003521Y026157D02*
X006850Y026157D01*
X006761Y026033D02*
X006761Y026033D01*
X006723Y025918D02*
X003283Y025918D01*
X003044Y025680D02*
X006646Y025680D01*
X006628Y025441D02*
X002918Y025441D01*
X002918Y025203D02*
X006628Y025203D01*
X006628Y024964D02*
X002918Y024964D01*
X002918Y024726D02*
X003480Y024726D01*
X003405Y024487D02*
X002918Y024487D01*
X002918Y024249D02*
X003405Y024249D01*
X003405Y024010D02*
X002918Y024010D01*
X002918Y023772D02*
X003405Y023772D01*
X003405Y023533D02*
X002918Y023533D01*
X002918Y023295D02*
X003437Y023295D01*
X003405Y023056D02*
X002918Y023056D01*
X002918Y022818D02*
X003405Y022818D01*
X003423Y022579D02*
X002918Y022579D01*
X002918Y022341D02*
X003677Y022341D01*
X004130Y022341D02*
X004405Y022341D01*
X004405Y022102D02*
X002918Y022102D01*
X002918Y021864D02*
X004409Y021864D01*
X004594Y021625D02*
X002918Y021625D01*
X002918Y021387D02*
X004811Y021387D01*
X004811Y021148D02*
X002918Y021148D01*
X002918Y020910D02*
X004811Y020910D01*
X004811Y020671D02*
X003139Y020671D01*
X003377Y020433D02*
X004811Y020433D01*
X004811Y020194D02*
X003616Y020194D01*
X003842Y019956D02*
X004841Y019956D01*
X004811Y019717D02*
X003918Y019717D01*
X003918Y019479D02*
X004821Y019479D01*
X004823Y019240D02*
X003918Y019240D01*
X003931Y019002D02*
X004823Y019002D01*
X004823Y018763D02*
X003959Y018763D01*
X003959Y018525D02*
X004823Y018525D01*
X004823Y018286D02*
X003959Y018286D01*
X003959Y018048D02*
X004836Y018048D01*
X005004Y017809D02*
X003927Y017809D01*
X003918Y017571D02*
X005073Y017571D01*
X005073Y017332D02*
X003918Y017332D01*
X003918Y017094D02*
X005073Y017094D01*
X005073Y016855D02*
X003918Y016855D01*
X003918Y016617D02*
X005073Y016617D01*
X005685Y015629D02*
X006010Y015303D01*
X006126Y015187D01*
X006276Y015125D01*
X006323Y015125D01*
X006323Y013999D01*
X006264Y013940D01*
X006264Y012695D01*
X005526Y012695D01*
X005376Y012633D01*
X005001Y012258D01*
X004885Y012142D01*
X004823Y011992D01*
X004823Y010854D01*
X004778Y010898D01*
X004653Y010950D01*
X004653Y011119D01*
X004589Y011273D01*
X004322Y011540D01*
X004168Y011604D01*
X004096Y011604D01*
X004096Y011688D01*
X004041Y011821D01*
X003940Y011922D01*
X003808Y011977D01*
X003408Y011977D01*
X003358Y011956D01*
X003343Y011962D01*
X003343Y012767D01*
X003617Y013096D01*
X003620Y013088D01*
X003721Y012987D01*
X003853Y012932D01*
X004863Y012932D01*
X004995Y012987D01*
X005096Y013088D01*
X005151Y013220D01*
X005151Y013600D01*
X005126Y013660D01*
X005151Y013720D01*
X005151Y014100D01*
X005096Y014232D01*
X004995Y014333D01*
X004914Y014367D01*
X005019Y014367D01*
X005133Y014253D01*
X005185Y014127D01*
X005325Y013987D01*
X005509Y013911D01*
X005707Y013911D01*
X005891Y013987D01*
X006031Y014127D01*
X006107Y014311D01*
X006107Y014509D01*
X006031Y014693D01*
X005891Y014833D01*
X005707Y014909D01*
X005685Y014909D01*
X005685Y015074D01*
X005649Y015160D01*
X005685Y015246D01*
X005685Y015629D01*
X005685Y015424D02*
X005889Y015424D01*
X005660Y015186D02*
X006130Y015186D01*
X006323Y014947D02*
X005685Y014947D01*
X006015Y014709D02*
X006323Y014709D01*
X006323Y014470D02*
X006107Y014470D01*
X006074Y014232D02*
X006323Y014232D01*
X006317Y013993D02*
X005897Y013993D01*
X006264Y013755D02*
X005151Y013755D01*
X005151Y013993D02*
X005319Y013993D01*
X005142Y014232D02*
X005096Y014232D01*
X005151Y013516D02*
X006264Y013516D01*
X006264Y013278D02*
X005151Y013278D01*
X005047Y013039D02*
X006264Y013039D01*
X006264Y012801D02*
X003371Y012801D01*
X003343Y012562D02*
X005305Y012562D01*
X005067Y012324D02*
X003343Y012324D01*
X003343Y012085D02*
X004862Y012085D01*
X004823Y011847D02*
X004015Y011847D01*
X004096Y011608D02*
X004823Y011608D01*
X004823Y011370D02*
X004492Y011370D01*
X004648Y011131D02*
X004823Y011131D01*
X004823Y010893D02*
X004784Y010893D01*
X004823Y010057D02*
X004823Y007330D01*
X004776Y007283D01*
X004771Y007288D01*
X004638Y007343D01*
X004061Y007343D01*
X004061Y007428D01*
X004006Y007561D01*
X003904Y007662D01*
X003772Y007717D01*
X003733Y007717D01*
X003756Y007740D01*
X003811Y007872D01*
X003811Y008448D01*
X003756Y008580D01*
X003654Y008682D01*
X003596Y008706D01*
X003596Y009641D01*
X003541Y009773D01*
X003440Y009875D01*
X003308Y009929D01*
X002908Y009929D01*
X002858Y009909D01*
X002808Y009929D01*
X002736Y009929D01*
X002798Y009991D01*
X002877Y010182D01*
X002877Y010388D01*
X002869Y010407D01*
X002908Y010391D01*
X003308Y010391D01*
X003358Y010411D01*
X003408Y010391D01*
X003781Y010391D01*
X003781Y010246D01*
X003836Y010114D01*
X003938Y010012D01*
X004070Y009957D01*
X004646Y009957D01*
X004778Y010012D01*
X004823Y010057D01*
X004823Y009939D02*
X002745Y009939D01*
X002875Y010177D02*
X003810Y010177D01*
X003572Y009700D02*
X004823Y009700D01*
X004823Y009462D02*
X003596Y009462D01*
X003596Y009223D02*
X004823Y009223D01*
X004823Y008985D02*
X003596Y008985D01*
X003596Y008746D02*
X004823Y008746D01*
X004823Y008508D02*
X003786Y008508D01*
X003811Y008269D02*
X004823Y008269D01*
X004823Y008031D02*
X003811Y008031D01*
X003777Y007792D02*
X004823Y007792D01*
X004823Y007554D02*
X004009Y007554D01*
X004705Y007315D02*
X004808Y007315D01*
X003655Y006600D02*
X003026Y006600D01*
X002949Y006361D02*
X003734Y006361D01*
X002668Y007737D02*
X002668Y007737D01*
X002668Y008343D01*
X002668Y008343D01*
X002668Y007737D01*
X002668Y007792D02*
X002668Y007792D01*
X002668Y008031D02*
X002668Y008031D01*
X002668Y008269D02*
X002668Y008269D01*
X002608Y009136D02*
X002108Y009136D01*
X002608Y011184D02*
X002858Y011184D01*
X003108Y011184D01*
X003569Y013039D02*
X003669Y013039D01*
X004358Y013660D02*
X004358Y013910D01*
X004358Y014410D02*
X002983Y014410D01*
X006893Y017080D02*
X006893Y017582D01*
X007031Y017582D01*
X007031Y017496D01*
X007086Y017364D01*
X007188Y017262D01*
X007320Y017207D01*
X007698Y017207D01*
X007698Y017055D01*
X007663Y017070D01*
X006903Y017070D01*
X006893Y017080D01*
X006893Y017094D02*
X007698Y017094D01*
X007118Y017332D02*
X006893Y017332D01*
X006893Y017571D02*
X007031Y017571D01*
X008082Y019109D02*
X008531Y018790D01*
X008531Y019074D01*
X008567Y019160D01*
X008531Y019246D01*
X008531Y019561D01*
X008395Y019561D01*
X008395Y019468D01*
X008336Y019324D01*
X008225Y019214D01*
X008104Y019164D01*
X008082Y019109D01*
X008233Y019002D02*
X008531Y019002D01*
X008534Y019240D02*
X008252Y019240D01*
X008395Y019479D02*
X008531Y019479D01*
X007409Y019859D02*
X006400Y019859D01*
X006313Y019822D01*
X006225Y019859D01*
X005807Y019859D01*
X005807Y019884D01*
X005770Y019971D01*
X005807Y020059D01*
X005807Y020474D01*
X005770Y020562D01*
X005807Y020649D01*
X005807Y021461D01*
X006422Y021461D01*
X006566Y021521D01*
X006676Y021631D01*
X006706Y021704D01*
X006737Y021631D01*
X006847Y021521D01*
X006991Y021461D01*
X007411Y021461D01*
X007409Y021458D01*
X007409Y021240D01*
X007446Y021152D01*
X007409Y021065D01*
X007409Y019859D01*
X007409Y019956D02*
X005777Y019956D01*
X005807Y020194D02*
X007409Y020194D01*
X007409Y020433D02*
X005807Y020433D01*
X005807Y020671D02*
X007409Y020671D01*
X007409Y020910D02*
X005807Y020910D01*
X005807Y021148D02*
X007444Y021148D01*
X007409Y021387D02*
X005807Y021387D01*
X006670Y021625D02*
X006743Y021625D01*
X007805Y023160D02*
X008358Y023615D01*
X008608Y023615D01*
X009233Y023615D01*
X009858Y023615D01*
X010483Y023615D01*
X012653Y023615D01*
X012733Y023535D01*
X012945Y024010D02*
X032121Y024010D01*
X032121Y023772D02*
X013232Y023772D01*
X013470Y023533D02*
X032121Y023533D01*
X032121Y023295D02*
X013709Y023295D01*
X013947Y023056D02*
X032121Y023056D01*
X032121Y022818D02*
X014186Y022818D01*
X014424Y022579D02*
X014775Y022579D01*
X015351Y022579D02*
X032121Y022579D01*
X032121Y022341D02*
X015553Y022341D01*
X015561Y022102D02*
X032121Y022102D01*
X032121Y021864D02*
X015561Y021864D01*
X015063Y022035D02*
X014359Y022035D01*
X014358Y022034D01*
X014358Y021286D02*
X014359Y021285D01*
X015063Y021285D01*
X014358Y021286D02*
X014358Y020660D01*
X015607Y019411D01*
X016483Y019411D01*
X017346Y019411D01*
X017346Y018672D01*
X017858Y018160D01*
X019858Y018160D01*
X021858Y016160D01*
X021858Y014660D01*
X021688Y014490D01*
X019858Y014490D01*
X021858Y014660D02*
X021858Y012160D01*
X021608Y011910D01*
X017483Y011910D01*
X016608Y012785D01*
X016608Y013160D01*
X016563Y013160D01*
X016483Y013160D01*
X018982Y010148D02*
X021346Y010148D01*
X021858Y010660D01*
X021858Y008410D01*
X020358Y006910D01*
X010358Y006910D01*
X008885Y014713D02*
X008768Y014830D01*
X008768Y015457D01*
X008815Y015411D01*
X008815Y015247D01*
X008870Y015115D01*
X008873Y015112D01*
X008873Y014743D01*
X008885Y014713D01*
X008873Y014947D02*
X008768Y014947D01*
X008768Y015186D02*
X008840Y015186D01*
X008801Y015424D02*
X008768Y015424D01*
X009753Y015112D02*
X009753Y015013D01*
X009790Y014975D01*
X010801Y014975D01*
X011168Y015342D01*
X011168Y017748D01*
X011235Y017909D01*
X011794Y018468D01*
X011727Y018470D01*
X011645Y018470D01*
X011640Y018472D01*
X011634Y018472D01*
X011595Y018490D01*
X010024Y018490D01*
X009870Y018554D01*
X009752Y018672D01*
X009685Y018740D01*
X009685Y018655D01*
X009650Y018572D01*
X009677Y018545D01*
X009732Y018413D01*
X009732Y017561D01*
X009677Y017429D01*
X009576Y017327D01*
X009443Y017272D01*
X008768Y017272D01*
X008768Y017048D01*
X009443Y017048D01*
X009576Y016993D01*
X009677Y016891D01*
X009732Y016759D01*
X009732Y015979D01*
X009756Y015955D01*
X009811Y015823D01*
X009811Y015247D01*
X009756Y015115D01*
X009753Y015112D01*
X009785Y015186D02*
X011011Y015186D01*
X011168Y015424D02*
X009811Y015424D01*
X009811Y015663D02*
X011168Y015663D01*
X011168Y015901D02*
X009778Y015901D01*
X009732Y016140D02*
X011168Y016140D01*
X011168Y016378D02*
X009732Y016378D01*
X009732Y016617D02*
X011168Y016617D01*
X011168Y016855D02*
X009692Y016855D01*
X009580Y017332D02*
X011168Y017332D01*
X011168Y017094D02*
X008768Y017094D01*
X009732Y017571D02*
X011168Y017571D01*
X011193Y017809D02*
X009732Y017809D01*
X009732Y018048D02*
X011373Y018048D01*
X011612Y018286D02*
X009732Y018286D01*
X009685Y018525D02*
X009941Y018525D01*
X010936Y019330D02*
X010936Y019698D01*
X010881Y019830D01*
X010811Y019901D01*
X010811Y020121D01*
X010820Y020117D01*
X011396Y020117D01*
X011528Y020172D01*
X011630Y020273D01*
X011685Y020405D01*
X011685Y020824D01*
X011649Y020910D01*
X011685Y020996D01*
X011685Y021415D01*
X011661Y021473D01*
X011685Y021530D01*
X011685Y021949D01*
X011630Y022081D01*
X011528Y022183D01*
X011396Y022238D01*
X010820Y022238D01*
X010795Y022227D01*
X010771Y022238D01*
X010735Y022238D01*
X010706Y022267D01*
X010632Y022341D01*
X010711Y022341D01*
X010728Y022333D02*
X011147Y022333D01*
X011279Y022388D01*
X011381Y022490D01*
X011436Y022622D01*
X011436Y023135D01*
X012398Y023135D01*
X013293Y022240D01*
X013293Y020907D01*
X012732Y019972D01*
X012732Y020134D01*
X012708Y020192D01*
X012756Y020240D01*
X012811Y020372D01*
X012811Y020948D01*
X012756Y021080D01*
X012654Y021182D01*
X012522Y021237D01*
X012103Y021237D01*
X011971Y021182D01*
X011870Y021080D01*
X011815Y020948D01*
X011815Y020372D01*
X011823Y020352D01*
X011823Y020331D01*
X011810Y020318D01*
X011734Y020134D01*
X011734Y019996D01*
X011438Y019330D01*
X010936Y019330D01*
X010936Y019479D02*
X011504Y019479D01*
X011610Y019717D02*
X010928Y019717D01*
X010811Y019956D02*
X011716Y019956D01*
X011759Y020194D02*
X011551Y020194D01*
X011685Y020433D02*
X011815Y020433D01*
X011815Y020671D02*
X011685Y020671D01*
X011649Y020910D02*
X011815Y020910D01*
X011937Y021148D02*
X011685Y021148D01*
X011685Y021387D02*
X013293Y021387D01*
X013293Y021625D02*
X011685Y021625D01*
X011685Y021864D02*
X013293Y021864D01*
X013293Y022102D02*
X011609Y022102D01*
X011164Y022341D02*
X013192Y022341D01*
X012954Y022579D02*
X011418Y022579D01*
X011436Y022818D02*
X012715Y022818D01*
X012477Y023056D02*
X011436Y023056D01*
X010728Y022333D02*
X010670Y022357D01*
X010632Y022341D01*
X009906Y021625D02*
X009906Y021530D01*
X009930Y021473D01*
X009906Y021415D01*
X009906Y021113D01*
X009810Y021113D01*
X009810Y021199D01*
X009774Y021285D01*
X009810Y021371D01*
X009810Y021661D01*
X009815Y021661D01*
X009901Y021625D01*
X009810Y021625D01*
X009901Y021625D02*
X009906Y021625D01*
X009906Y021387D02*
X009810Y021387D01*
X009810Y021148D02*
X009906Y021148D01*
X012688Y021148D02*
X013293Y021148D01*
X013293Y020910D02*
X012811Y020910D01*
X012811Y020671D02*
X013151Y020671D01*
X013008Y020433D02*
X012811Y020433D01*
X012865Y020194D02*
X012710Y020194D01*
X013350Y019292D02*
X013350Y017575D01*
X012275Y017575D01*
X012123Y017512D01*
X012048Y017437D01*
X012048Y017478D01*
X012857Y018287D01*
X012857Y018287D01*
X012981Y018411D01*
X013048Y018572D01*
X013048Y018788D01*
X013350Y019292D01*
X013350Y019240D02*
X013319Y019240D01*
X013350Y019002D02*
X013176Y019002D01*
X013048Y018763D02*
X013350Y018763D01*
X013350Y018525D02*
X013028Y018525D01*
X012856Y018286D02*
X013350Y018286D01*
X013350Y018048D02*
X012618Y018048D01*
X012379Y017809D02*
X013350Y017809D01*
X012265Y017571D02*
X012141Y017571D01*
X017858Y019785D02*
X017858Y020910D01*
X017858Y019785D02*
X018370Y019785D01*
X018370Y019411D02*
X018858Y019411D01*
X019483Y019411D01*
X020279Y019411D01*
X020358Y019490D01*
X020358Y019410D01*
X021334Y019410D01*
X021334Y018910D01*
X023382Y018910D02*
X023382Y018410D01*
X023382Y019410D02*
X023983Y019410D01*
X024153Y019240D01*
X024483Y019240D01*
X025233Y019240D01*
X025233Y019830D02*
X024483Y019830D01*
X024403Y019910D01*
X023382Y019910D01*
X024372Y025203D02*
X022011Y025203D01*
X022058Y025441D02*
X024281Y025441D01*
X024281Y025680D02*
X022294Y025680D01*
X022313Y026285D02*
X022108Y026285D01*
X021608Y025785D02*
X020182Y025785D01*
X020227Y025203D02*
X015349Y025203D01*
X014942Y025441D02*
X019525Y025441D01*
X019467Y025680D02*
X015835Y025680D01*
X015330Y026035D02*
X015630Y026334D01*
X016358Y026334D01*
X017263Y026334D01*
X017313Y026285D01*
X017903Y026285D02*
X018563Y026285D01*
X019358Y027580D02*
X019358Y028240D01*
X019063Y028240D01*
X018733Y027910D01*
X018292Y027910D01*
X018291Y027911D01*
X019358Y028240D02*
X020017Y028240D01*
X020063Y028285D01*
X019358Y028830D02*
X019358Y029490D01*
X016358Y028240D02*
X016358Y027236D01*
X015878Y027797D02*
X015786Y027797D01*
X015654Y027742D01*
X015553Y027641D01*
X015498Y027508D01*
X015498Y026963D01*
X015553Y026831D01*
X015570Y026814D01*
X015534Y026814D01*
X015358Y026741D01*
X015169Y026552D01*
X015062Y026552D01*
X014942Y026503D01*
X014942Y026638D01*
X014888Y026770D01*
X014786Y026872D01*
X014654Y026927D01*
X014435Y026927D01*
X014435Y027199D01*
X014399Y027285D01*
X014435Y027371D01*
X014435Y027790D01*
X014385Y027910D01*
X014435Y028030D01*
X014435Y028270D01*
X015781Y028270D01*
X015781Y028030D01*
X015836Y027898D01*
X015878Y027856D01*
X015878Y027797D01*
X015878Y027826D02*
X014419Y027826D01*
X014435Y027588D02*
X015531Y027588D01*
X015498Y027349D02*
X014425Y027349D01*
X014435Y027111D02*
X015498Y027111D01*
X015536Y026872D02*
X014786Y026872D01*
X014942Y026634D02*
X015250Y026634D01*
X014386Y026409D02*
X014262Y026285D01*
X013858Y026285D01*
X013281Y027111D02*
X004475Y027111D01*
X004714Y027349D02*
X013290Y027349D01*
X013281Y027588D02*
X004952Y027588D01*
X005191Y027826D02*
X013297Y027826D01*
X013281Y028065D02*
X005429Y028065D01*
X007697Y025680D02*
X007906Y025680D01*
X007906Y025441D02*
X007590Y025441D01*
X007588Y025203D02*
X007997Y025203D01*
X007108Y025410D02*
X007110Y025467D01*
X007115Y025524D01*
X007125Y025581D01*
X007138Y025636D01*
X007154Y025691D01*
X007175Y025745D01*
X007198Y025797D01*
X007225Y025848D01*
X007255Y025896D01*
X007289Y025943D01*
X007325Y025987D01*
X007364Y026029D01*
X007406Y026068D01*
X007450Y026104D01*
X007497Y026138D01*
X007546Y026168D01*
X007596Y026195D01*
X007648Y026218D01*
X007702Y026239D01*
X007757Y026255D01*
X007812Y026268D01*
X007869Y026278D01*
X007926Y026283D01*
X007983Y026285D01*
X008563Y026285D01*
X008563Y025660D01*
X008483Y025580D01*
X008969Y025203D02*
X008997Y025203D01*
X009483Y025580D02*
X009483Y026160D01*
X009608Y026285D01*
X009813Y026285D01*
X009608Y026285D02*
X009153Y026285D01*
X009969Y025203D02*
X009997Y025203D01*
X010403Y025660D02*
X010483Y025580D01*
X010403Y025660D02*
X010403Y026285D01*
X011313Y026285D01*
X011313Y025660D01*
X011233Y025580D01*
X011719Y025203D02*
X011747Y025203D01*
X012233Y025580D02*
X012233Y026285D01*
X012563Y026285D01*
X012233Y026285D02*
X011903Y026285D01*
X012719Y025203D02*
X012747Y025203D01*
X013531Y024964D02*
X007588Y024964D01*
X007659Y024726D02*
X013531Y024726D01*
X013588Y024487D02*
X007685Y024487D01*
X007685Y024249D02*
X032121Y024249D01*
X028810Y026872D02*
X027133Y026872D01*
X026653Y027285D02*
X026653Y026285D01*
X026063Y026285D02*
X026063Y025785D01*
X025858Y025580D01*
X025372Y025203D02*
X025344Y025203D01*
X024858Y025580D02*
X024813Y025626D01*
X024813Y026285D01*
X024813Y027285D01*
X025403Y027285D02*
X025733Y027285D01*
X026063Y027285D01*
X025733Y027285D02*
X025733Y026285D01*
X025403Y026285D01*
X025733Y026285D02*
X026063Y026285D01*
X024813Y026285D02*
X024153Y026285D01*
X023563Y026285D02*
X022903Y026285D01*
X022968Y026872D02*
X024333Y026872D01*
X024315Y027111D02*
X022968Y027111D01*
X022919Y027349D02*
X024315Y027349D01*
X024321Y027588D02*
X022968Y027588D01*
X022968Y027826D02*
X024518Y027826D01*
X025108Y027826D02*
X025108Y027826D01*
X025698Y027826D02*
X025768Y027826D01*
X026358Y027826D02*
X026358Y027826D01*
X029706Y030688D02*
X003294Y030688D01*
X003294Y030927D02*
X029706Y030927D01*
X029706Y031165D02*
X003294Y031165D01*
X003294Y031404D02*
X029706Y031404D01*
X029706Y031642D02*
X003294Y031642D01*
X003294Y031881D02*
X029706Y031881D01*
X015781Y028065D02*
X014435Y028065D01*
X013858Y028240D02*
X013858Y027580D01*
X014108Y024830D02*
X014483Y024830D01*
X008074Y024010D02*
X007685Y024010D01*
X007685Y023772D02*
X007793Y023772D01*
X007108Y024455D02*
X007108Y025410D01*
X006557Y024726D02*
X004326Y024726D01*
X005736Y024487D02*
X006531Y024487D01*
X006531Y024249D02*
X005974Y024249D01*
X006213Y024010D02*
X006531Y024010D01*
X006531Y023772D02*
X006451Y023772D01*
X021858Y012160D02*
X021858Y010660D01*
X021858Y006160D02*
X022358Y006160D01*
X022636Y005882D01*
X022636Y005160D01*
X024112Y005160D02*
X024112Y003906D01*
X024358Y003660D01*
X025358Y003660D02*
X025588Y003890D01*
X025588Y005160D01*
D174*
X022143Y005160D02*
X021858Y005160D01*
X021358Y005660D01*
X002858Y005660D01*
X002108Y006410D01*
X002108Y009136D01*
X002733Y012910D02*
X003358Y013660D01*
X004358Y013660D01*
X003608Y014910D02*
X003358Y015160D01*
X003358Y018160D01*
X003358Y018280D01*
X003363Y018410D02*
X003358Y018415D01*
X003358Y019660D01*
X002358Y020660D01*
X002358Y025785D01*
X005403Y028830D01*
X013858Y028830D01*
X016358Y028830D01*
X017608Y030080D01*
X019358Y030080D01*
X021358Y030080D01*
X022108Y029330D01*
X022108Y028740D02*
X022108Y027861D01*
X022108Y026959D02*
X022108Y026285D01*
X021608Y025785D01*
X023382Y018410D02*
X023382Y013660D01*
X023382Y008184D01*
X021858Y006660D01*
X021858Y006160D01*
X021858Y005445D01*
X022143Y005160D01*
D175*
X002983Y014410D02*
X001917Y014410D01*
X002733Y012910D02*
X002733Y012660D01*
X002733Y011285D01*
X002858Y011160D01*
X002858Y011184D01*
D176*
X002528Y012410D02*
X002653Y012455D01*
X002733Y012660D01*
X004358Y013410D02*
X004358Y013660D01*
X004403Y014865D02*
X004358Y014910D01*
X004403Y014865D02*
X005108Y014865D01*
X005108Y015455D02*
X004403Y015455D01*
X004358Y015410D01*
X004358Y015990D01*
X005108Y015990D02*
X005108Y015455D01*
X003232Y017410D02*
X003232Y018034D01*
X003358Y018160D01*
X009076Y017987D02*
X009076Y018833D01*
X009077Y018833D02*
X009079Y018843D01*
X009083Y018851D01*
X009090Y018858D01*
X009098Y018862D01*
X009108Y018864D01*
X010139Y017987D02*
X010139Y016333D01*
X009076Y016333D02*
X009076Y015771D01*
X009313Y015535D01*
X009313Y014830D01*
X009608Y014535D01*
X010983Y014535D01*
X011608Y015160D01*
X011608Y017660D01*
X012608Y018660D01*
X012608Y018910D01*
X011733Y018910D01*
X012233Y020035D01*
X012608Y018910D02*
X013733Y020785D01*
X013733Y022535D01*
X010903Y020035D02*
X010903Y019535D01*
X011028Y019410D01*
X012858Y015365D02*
X012866Y015357D01*
X012866Y014660D01*
X013850Y014660D02*
X013850Y015357D01*
X013858Y015365D01*
X015187Y013443D02*
X016279Y013443D01*
X016563Y013160D01*
X018994Y010160D02*
X018982Y010148D01*
X018903Y010069D01*
X018903Y009410D01*
X018994Y010160D02*
X019858Y010160D01*
X013608Y003160D02*
X013313Y002865D01*
X012608Y002865D01*
X007438Y010785D02*
X007358Y010785D01*
X007358Y011160D02*
X007358Y011285D01*
X006858Y011660D01*
X005858Y011660D01*
X005858Y011705D01*
X003108Y009136D02*
X003108Y008160D01*
X003313Y008160D01*
X003108Y008160D02*
X003108Y007160D01*
X002778Y007160D01*
X003108Y007160D02*
X003425Y007160D01*
D177*
X004233Y006785D02*
X004234Y006786D01*
X004291Y006786D01*
X004233Y006785D02*
X004358Y006660D01*
X004483Y006785D01*
X004858Y006785D01*
X005233Y007160D01*
X005233Y011910D01*
X005608Y012285D01*
X007483Y012285D01*
X009100Y010668D01*
X011075Y010668D01*
X011075Y010865D02*
X009278Y010865D01*
X008108Y012035D01*
X008108Y012410D01*
X006733Y013785D01*
X006733Y015410D01*
X006608Y015535D01*
X006358Y015535D01*
X005483Y016410D01*
X005483Y017910D01*
X005233Y018160D01*
X005233Y019285D01*
X005299Y019351D01*
X005299Y019577D01*
X005525Y019351D02*
X005525Y018243D01*
X005733Y018035D01*
X005733Y016535D01*
X006358Y015910D01*
X006858Y015910D01*
X006983Y015785D01*
X006983Y014035D01*
X008483Y012535D01*
X008483Y012035D01*
X009456Y011062D01*
X011075Y011062D01*
X011075Y011258D02*
X009760Y011258D01*
X008858Y012160D01*
X008858Y012660D01*
X007233Y014285D01*
X007233Y016035D01*
X007108Y016160D01*
X006483Y016160D01*
X005983Y016660D01*
X005983Y018285D01*
X005733Y018535D01*
X005733Y019361D01*
X005722Y019361D01*
X005919Y019361D02*
X005919Y018776D01*
X005956Y018687D02*
X006196Y018447D01*
X006233Y018358D02*
X006233Y016837D01*
X006270Y016748D02*
X006571Y016447D01*
X006660Y016410D02*
X007306Y016410D01*
X007395Y016373D02*
X007446Y016322D01*
X007483Y016233D02*
X007483Y014462D01*
X007520Y014373D02*
X009071Y012822D01*
X009108Y012733D02*
X009108Y012337D01*
X009145Y012248D02*
X009901Y011492D01*
X009989Y011455D02*
X011075Y011455D01*
X011075Y011652D02*
X010168Y011652D01*
X010079Y011689D02*
X009395Y012373D01*
X009358Y012462D02*
X009358Y012858D01*
X009321Y012947D02*
X007770Y014498D01*
X007733Y014587D02*
X007733Y016483D01*
X007696Y016572D02*
X007645Y016623D01*
X007556Y016660D02*
X006785Y016660D01*
X006696Y016697D02*
X006520Y016873D01*
X006483Y016962D02*
X006483Y018483D01*
X006446Y018572D02*
X006152Y018866D01*
X006116Y018954D02*
X006116Y019361D01*
X006313Y019361D02*
X006313Y020205D01*
X006157Y020361D01*
X006358Y020562D01*
X006510Y020562D01*
X006608Y020660D01*
X005525Y021743D01*
X005525Y021969D01*
X005722Y021959D02*
X005722Y022296D01*
X005608Y022410D01*
X005153Y022410D01*
X004903Y022160D01*
X005608Y022910D02*
X003903Y022910D01*
X003903Y023660D02*
X005358Y023660D01*
X005358Y024285D02*
X006313Y023330D01*
X006313Y021959D01*
X006510Y021959D02*
X006510Y020758D01*
X006608Y020660D01*
X006903Y020955D01*
X006903Y020705D01*
X006858Y020660D01*
X006858Y020910D02*
X006608Y020660D01*
X006358Y020562D02*
X005309Y020562D01*
X005309Y019971D02*
X005767Y019971D01*
X006157Y020361D01*
X006858Y020910D02*
X006858Y021160D01*
X007244Y021546D01*
X007907Y021546D01*
X007917Y021743D02*
X008566Y021743D01*
X008733Y021910D01*
X008733Y022080D01*
X008813Y022160D01*
X009063Y021535D02*
X009233Y021580D01*
X009063Y021535D02*
X008483Y021535D01*
X008047Y021349D01*
X007907Y021349D01*
X007907Y021152D02*
X006911Y021152D01*
X006903Y021160D01*
X006903Y020955D01*
X006903Y021160D02*
X006903Y021959D01*
X006706Y021959D02*
X006706Y021312D01*
X006858Y021160D01*
X007297Y021959D02*
X007297Y022527D01*
X007555Y022785D01*
X007733Y022785D01*
X007858Y022910D01*
X007858Y023115D01*
X007805Y023160D01*
X007214Y023160D02*
X007100Y023160D01*
X007733Y022535D02*
X007494Y022296D01*
X007494Y021959D01*
X007691Y021969D02*
X007691Y022118D01*
X007858Y022160D01*
X008108Y022160D01*
X008108Y022535D02*
X007733Y022535D01*
X008108Y022535D02*
X008358Y022785D01*
X009119Y022785D01*
X009403Y022501D01*
X009813Y022910D01*
X009403Y022501D02*
X009403Y022160D01*
X009858Y022160D02*
X009983Y022035D01*
X010358Y022035D01*
X010483Y021910D01*
X010483Y021740D01*
X010483Y021205D01*
X010483Y020615D02*
X011108Y020615D01*
X011108Y021205D02*
X011108Y021740D01*
X010483Y020615D02*
X009858Y020615D01*
X009805Y020562D01*
X007907Y020562D01*
X007907Y020758D02*
X008581Y020758D01*
X008608Y020785D01*
X008483Y021035D02*
X009233Y021035D01*
X009358Y020910D01*
X009233Y020990D01*
X009108Y021035D01*
X008483Y021035D02*
X007907Y020955D01*
X007907Y021152D02*
X008483Y021285D01*
X009858Y021285D01*
X009805Y021152D01*
X009858Y021205D01*
X009403Y020365D02*
X009608Y020160D01*
X010233Y020160D01*
X010358Y020035D01*
X010313Y020035D01*
X010438Y019410D02*
X009983Y019410D01*
X009225Y020168D01*
X007907Y020168D01*
X007907Y020365D02*
X009403Y020365D01*
X008592Y019971D02*
X007907Y019971D01*
X007494Y019361D02*
X007494Y019089D01*
X007546Y018987D02*
X008305Y018447D01*
X008358Y018346D02*
X008358Y014712D01*
X008395Y014623D02*
X009821Y013197D01*
X009858Y013108D02*
X009858Y012712D01*
X009895Y012623D02*
X010436Y012082D01*
X010524Y012046D02*
X011075Y012046D01*
X011075Y011849D02*
X010346Y011849D01*
X010257Y011886D02*
X009645Y012498D01*
X009608Y012587D02*
X009608Y012983D01*
X009571Y013072D02*
X008145Y014498D01*
X008108Y014587D02*
X008108Y018219D01*
X008054Y018322D02*
X007351Y018809D01*
X007297Y018912D02*
X007297Y019361D01*
X007494Y019089D02*
X007496Y019069D01*
X007500Y019050D01*
X007508Y019032D01*
X007518Y019015D01*
X007531Y019000D01*
X007547Y018987D01*
X007297Y018912D02*
X007299Y018892D01*
X007303Y018872D01*
X007311Y018854D01*
X007322Y018837D01*
X007335Y018822D01*
X007351Y018809D01*
X007108Y018602D02*
X007110Y018582D01*
X007115Y018562D01*
X007123Y018543D01*
X007134Y018526D01*
X007148Y018511D01*
X007164Y018498D01*
X007427Y018322D01*
X007483Y018218D02*
X007483Y018160D01*
X007483Y017705D01*
X007608Y017705D01*
X007483Y018218D02*
X007481Y018238D01*
X007476Y018258D01*
X007468Y018277D01*
X007457Y018294D01*
X007443Y018309D01*
X007427Y018322D01*
X007108Y018602D02*
X007108Y018858D01*
X007071Y018947D02*
X006903Y019115D01*
X006903Y019361D01*
X006706Y019361D02*
X006706Y018988D01*
X006743Y018900D02*
X006821Y018822D01*
X006858Y018733D02*
X006858Y018080D01*
X006983Y018080D01*
X006858Y017660D02*
X006893Y017582D01*
X006483Y016962D02*
X006485Y016942D01*
X006489Y016923D01*
X006497Y016905D01*
X006507Y016889D01*
X006520Y016874D01*
X006270Y016749D02*
X006257Y016764D01*
X006247Y016780D01*
X006239Y016798D01*
X006235Y016817D01*
X006233Y016837D01*
X006572Y016447D02*
X006587Y016434D01*
X006603Y016424D01*
X006621Y016416D01*
X006640Y016412D01*
X006660Y016410D01*
X006785Y016660D02*
X006765Y016662D01*
X006746Y016666D01*
X006728Y016674D01*
X006712Y016684D01*
X006697Y016697D01*
X007306Y016410D02*
X007326Y016408D01*
X007345Y016404D01*
X007363Y016396D01*
X007379Y016386D01*
X007394Y016373D01*
X007446Y016321D02*
X007459Y016306D01*
X007469Y016290D01*
X007477Y016272D01*
X007481Y016253D01*
X007483Y016233D01*
X007733Y016483D02*
X007731Y016503D01*
X007727Y016522D01*
X007719Y016540D01*
X007709Y016556D01*
X007696Y016571D01*
X007644Y016623D02*
X007629Y016636D01*
X007613Y016646D01*
X007595Y016654D01*
X007576Y016658D01*
X007556Y016660D01*
X008108Y018219D02*
X008106Y018239D01*
X008102Y018259D01*
X008094Y018277D01*
X008083Y018294D01*
X008070Y018309D01*
X008054Y018322D01*
X008305Y018448D02*
X008321Y018435D01*
X008334Y018420D01*
X008344Y018403D01*
X008352Y018385D01*
X008356Y018366D01*
X008358Y018346D01*
X009108Y019455D02*
X009106Y019498D01*
X009101Y019540D01*
X009092Y019582D01*
X009080Y019623D01*
X009065Y019662D01*
X009046Y019701D01*
X009024Y019737D01*
X008999Y019772D01*
X008972Y019804D01*
X008941Y019835D01*
X008909Y019862D01*
X008874Y019887D01*
X008838Y019909D01*
X008799Y019928D01*
X008760Y019943D01*
X008719Y019955D01*
X008677Y019964D01*
X008635Y019969D01*
X008592Y019971D01*
X007071Y018946D02*
X007084Y018931D01*
X007094Y018915D01*
X007102Y018897D01*
X007106Y018878D01*
X007108Y018858D01*
X006743Y018900D02*
X006730Y018915D01*
X006720Y018931D01*
X006712Y018949D01*
X006708Y018968D01*
X006706Y018988D01*
X006821Y018821D02*
X006834Y018806D01*
X006844Y018790D01*
X006852Y018772D01*
X006856Y018753D01*
X006858Y018733D01*
X006446Y018571D02*
X006459Y018556D01*
X006469Y018540D01*
X006477Y018522D01*
X006481Y018503D01*
X006483Y018483D01*
X006233Y018358D02*
X006231Y018378D01*
X006227Y018397D01*
X006219Y018415D01*
X006209Y018431D01*
X006196Y018446D01*
X005956Y018688D02*
X005943Y018703D01*
X005933Y018719D01*
X005925Y018737D01*
X005921Y018756D01*
X005919Y018776D01*
X006153Y018866D02*
X006140Y018881D01*
X006130Y018897D01*
X006122Y018915D01*
X006118Y018934D01*
X006116Y018954D01*
X005919Y021959D02*
X005919Y022599D01*
X005608Y022910D01*
X005358Y024285D02*
X003903Y024285D01*
X007100Y023857D02*
X007108Y023865D01*
X012233Y020580D02*
X012233Y020035D01*
X012858Y020160D02*
X012811Y020372D01*
X012313Y020660D02*
X012233Y020580D01*
X018063Y016535D02*
X018063Y015910D01*
X018653Y015910D02*
X018653Y016535D01*
X018653Y015910D02*
X018858Y015910D01*
X018730Y015782D01*
X018730Y015317D01*
X018858Y015910D02*
X019188Y015910D01*
X019858Y014490D02*
X019622Y014254D01*
X019242Y014254D01*
X019188Y013660D02*
X018858Y013660D01*
X018653Y013455D01*
X018653Y013035D01*
X018063Y013035D02*
X018063Y013660D01*
X018474Y013839D02*
X018653Y013660D01*
X018858Y013660D01*
X018474Y013839D02*
X018474Y014254D01*
X019778Y013660D02*
X021358Y013660D01*
X022358Y013660D02*
X023382Y013660D01*
X019858Y010160D02*
X019858Y009660D01*
X018313Y009410D02*
X018313Y008751D01*
X018358Y008705D01*
X018358Y008115D02*
X018778Y008115D01*
X018858Y008035D01*
X019903Y007580D02*
X020483Y008160D01*
X020358Y007535D02*
X020108Y007285D01*
X011233Y007285D01*
X011108Y007410D01*
X011108Y007615D01*
X011108Y008205D02*
X011075Y008239D01*
X011075Y009684D01*
X011075Y009880D02*
X008999Y009880D01*
X008653Y009535D01*
X008528Y010160D02*
X009039Y010274D01*
X011075Y010274D01*
X011075Y010471D02*
X009047Y010471D01*
X008608Y010660D01*
X007938Y010160D02*
X007858Y010160D01*
X007733Y010035D01*
X007733Y008160D01*
X008108Y007785D01*
X008063Y008455D02*
X008858Y007660D01*
X008063Y008455D02*
X008063Y009069D01*
X008983Y006535D02*
X020733Y006535D01*
X020858Y006660D01*
X021108Y006285D02*
X020983Y006160D01*
X008483Y006160D01*
X008358Y006285D01*
X010358Y006910D02*
X010438Y006990D01*
X010483Y006990D01*
X011882Y008229D02*
X011983Y008205D01*
X011882Y008229D02*
X011882Y008877D01*
X012608Y007580D02*
X019903Y007580D01*
X018313Y009410D02*
X018234Y009489D01*
X018234Y010148D01*
X018234Y010159D01*
X018233Y010160D01*
X017983Y010160D01*
X017858Y010285D01*
X017858Y011160D01*
X017563Y011455D01*
X015641Y011455D01*
X015641Y011258D02*
X017385Y011258D01*
X017608Y011035D01*
X017608Y008285D01*
X017733Y008160D01*
X017358Y007910D02*
X017358Y010785D01*
X017081Y011062D01*
X015641Y011062D01*
X015641Y010865D02*
X016903Y010865D01*
X017108Y010660D01*
X017108Y008535D01*
X016858Y008035D01*
X016358Y008160D02*
X016858Y008660D01*
X016858Y010535D01*
X016725Y010668D01*
X015641Y010668D01*
X015641Y010471D02*
X015172Y010471D01*
X014983Y010660D01*
X014983Y012160D01*
X015108Y012285D01*
X015599Y012285D01*
X015641Y012243D01*
X015641Y012636D02*
X015641Y012943D01*
X015858Y013160D01*
X016483Y013160D01*
X015608Y013865D02*
X015187Y013443D01*
X014834Y013443D01*
X013858Y014660D02*
X013821Y014658D01*
X013784Y014653D01*
X013748Y014645D01*
X013713Y014633D01*
X013679Y014618D01*
X013646Y014600D01*
X013616Y014579D01*
X013587Y014555D01*
X013561Y014529D01*
X013537Y014500D01*
X013516Y014470D01*
X013498Y014437D01*
X013483Y014403D01*
X013471Y014368D01*
X013463Y014332D01*
X013458Y014295D01*
X013456Y014258D01*
X013456Y013443D01*
X013260Y013443D02*
X013260Y014266D01*
X013850Y014660D02*
X013858Y014660D01*
X013260Y014266D02*
X013258Y014305D01*
X013252Y014343D01*
X013243Y014380D01*
X013230Y014417D01*
X013213Y014452D01*
X013194Y014485D01*
X013171Y014516D01*
X013145Y014545D01*
X013116Y014571D01*
X013085Y014594D01*
X013052Y014613D01*
X013017Y014630D01*
X012980Y014643D01*
X012943Y014652D01*
X012905Y014658D01*
X012866Y014660D01*
X012472Y013443D02*
X012472Y012899D01*
X012358Y012785D01*
X010524Y012046D02*
X010504Y012048D01*
X010485Y012052D01*
X010467Y012060D01*
X010451Y012070D01*
X010436Y012083D01*
X010346Y011849D02*
X010326Y011851D01*
X010307Y011855D01*
X010289Y011863D01*
X010273Y011873D01*
X010258Y011886D01*
X010168Y011652D02*
X010148Y011654D01*
X010129Y011658D01*
X010111Y011666D01*
X010095Y011676D01*
X010080Y011689D01*
X009989Y011455D02*
X009969Y011457D01*
X009950Y011461D01*
X009932Y011469D01*
X009916Y011479D01*
X009901Y011492D01*
X009145Y012249D02*
X009132Y012264D01*
X009122Y012280D01*
X009114Y012298D01*
X009110Y012317D01*
X009108Y012337D01*
X009358Y012462D02*
X009360Y012442D01*
X009364Y012423D01*
X009372Y012405D01*
X009382Y012389D01*
X009395Y012374D01*
X009645Y012499D02*
X009632Y012514D01*
X009622Y012530D01*
X009614Y012548D01*
X009610Y012567D01*
X009608Y012587D01*
X009858Y012712D02*
X009860Y012692D01*
X009864Y012673D01*
X009872Y012655D01*
X009882Y012639D01*
X009895Y012624D01*
X009608Y012983D02*
X009606Y013003D01*
X009602Y013022D01*
X009594Y013040D01*
X009584Y013056D01*
X009571Y013071D01*
X009821Y013196D02*
X009834Y013181D01*
X009844Y013165D01*
X009852Y013147D01*
X009856Y013128D01*
X009858Y013108D01*
X009358Y012858D02*
X009356Y012878D01*
X009352Y012897D01*
X009344Y012915D01*
X009334Y012931D01*
X009321Y012946D01*
X009071Y012821D02*
X009084Y012806D01*
X009094Y012790D01*
X009102Y012772D01*
X009106Y012753D01*
X009108Y012733D01*
X008145Y014499D02*
X008132Y014514D01*
X008122Y014530D01*
X008114Y014548D01*
X008110Y014567D01*
X008108Y014587D01*
X007770Y014499D02*
X007757Y014514D01*
X007747Y014530D01*
X007739Y014548D01*
X007735Y014567D01*
X007733Y014587D01*
X007483Y014462D02*
X007485Y014442D01*
X007489Y014423D01*
X007497Y014405D01*
X007507Y014389D01*
X007520Y014374D01*
X008358Y014712D02*
X008360Y014692D01*
X008364Y014673D01*
X008372Y014655D01*
X008382Y014639D01*
X008395Y014624D01*
X005858Y011115D02*
X005858Y010660D01*
X002358Y010285D02*
X002108Y010535D01*
X002108Y011184D01*
X002188Y007160D02*
X002188Y006490D01*
X002108Y006410D01*
X012108Y004535D02*
X012813Y004535D01*
X012608Y004580D01*
X012608Y003990D02*
X012608Y003455D01*
X023108Y005180D02*
X023128Y005160D01*
X023108Y005180D02*
X023108Y006285D01*
X023608Y006535D02*
X023608Y005172D01*
X023620Y005160D01*
X024608Y005160D02*
X024608Y006285D01*
X025108Y006660D02*
X025108Y005172D01*
X025096Y005160D01*
X018858Y019411D02*
X018858Y020160D01*
X018857Y020159D01*
X018370Y020159D01*
X021334Y019910D02*
X021334Y020511D01*
X021483Y020660D01*
X022063Y020660D01*
D178*
X022858Y016660D03*
X024733Y016410D03*
X017983Y014910D03*
X017858Y014285D03*
X016358Y012160D03*
X016608Y011785D03*
X013733Y012660D03*
X012858Y012660D03*
X012358Y012785D03*
X012858Y010160D03*
X013358Y009660D03*
X016358Y008160D03*
X016858Y008035D03*
X017358Y007910D03*
X017733Y008160D03*
X018858Y008035D03*
X020358Y007535D03*
X020483Y008160D03*
X020858Y006660D03*
X021108Y006285D03*
X023108Y006285D03*
X023608Y006535D03*
X024608Y006285D03*
X025108Y006660D03*
X019858Y009660D03*
X014358Y005160D03*
X013858Y005160D03*
X012108Y004535D03*
X011858Y003160D03*
X008358Y006285D03*
X008983Y006535D03*
X008858Y007660D03*
X008108Y007785D03*
X008608Y010660D03*
X005858Y010660D03*
X002358Y010285D03*
D179*
X003608Y011184D02*
X004084Y011184D01*
X004233Y011035D01*
X004233Y010580D01*
X004358Y010455D01*
X007938Y010705D02*
X007938Y010160D01*
X007938Y010705D02*
X008108Y010785D01*
X008028Y010785D01*
X008063Y009535D02*
X008063Y009069D01*
X008028Y008910D01*
X010483Y007580D02*
X011074Y007580D01*
X011108Y007615D01*
X011983Y007615D02*
X012574Y007615D01*
X012608Y007580D01*
X012275Y008877D02*
X012275Y009577D01*
X012358Y009660D01*
X013358Y009660D01*
X012858Y010160D02*
X012358Y010160D01*
X012078Y009880D01*
X012078Y008877D01*
X012858Y012660D02*
X012858Y013436D01*
X012866Y013443D01*
X013653Y013443D02*
X013653Y012740D01*
X013733Y012660D01*
X009076Y016333D02*
X009000Y016410D01*
X008733Y016410D01*
X006983Y017160D02*
X006983Y017490D01*
X007483Y018160D02*
X007733Y018160D01*
X009983Y019035D02*
X010108Y018910D01*
X011733Y018910D01*
X009983Y019035D02*
X009983Y019410D01*
X007100Y021959D02*
X007100Y023160D01*
X007100Y023857D01*
X006116Y022902D02*
X005358Y023660D01*
X006116Y022902D02*
X006116Y021959D01*
X010403Y022910D02*
X010938Y022910D01*
X015501Y021410D02*
X015501Y021009D01*
X015455Y020899D01*
X015370Y020814D01*
X015358Y020809D01*
X015358Y020254D01*
X015781Y019831D01*
X016085Y019831D01*
X016128Y019849D01*
X016838Y019849D01*
X016881Y019831D01*
X016892Y019831D01*
X016852Y019871D01*
X016806Y019981D01*
X016806Y020337D01*
X016852Y020447D01*
X016936Y020531D01*
X017046Y020577D01*
X017646Y020577D01*
X017756Y020531D01*
X017841Y020447D01*
X017858Y020405D01*
X017875Y020447D01*
X017960Y020531D01*
X018070Y020577D01*
X018670Y020577D01*
X018780Y020531D01*
X018801Y020510D01*
X018928Y020510D01*
X019056Y020457D01*
X019155Y020358D01*
X019208Y020230D01*
X019208Y019849D01*
X019838Y019849D01*
X019881Y019831D01*
X019921Y019831D01*
X019881Y019831D01*
X019921Y019831D02*
X019972Y019882D01*
X020082Y019928D01*
X020601Y019928D01*
X020601Y020098D01*
X020647Y020208D01*
X020731Y020292D01*
X020842Y020338D01*
X020984Y020338D01*
X020984Y020581D01*
X021038Y020710D01*
X021186Y020858D01*
X021285Y020957D01*
X021413Y021010D01*
X021655Y021010D01*
X021671Y021046D01*
X021755Y021131D01*
X021865Y021177D01*
X022260Y021177D01*
X022370Y021131D01*
X022455Y021046D01*
X022501Y020936D01*
X022501Y020384D01*
X022455Y020274D01*
X022370Y020189D01*
X022260Y020143D01*
X022048Y020143D01*
X022067Y020098D01*
X022067Y019722D01*
X022042Y019660D01*
X022674Y019660D01*
X022694Y019708D01*
X022779Y019792D01*
X022889Y019838D01*
X023874Y019838D01*
X023894Y019830D01*
X024067Y019830D01*
X024221Y019766D01*
X024309Y019678D01*
X024759Y019678D01*
X024801Y019660D01*
X024914Y019660D01*
X024957Y019678D01*
X025509Y019678D01*
X025551Y019660D01*
X025858Y019660D01*
X025858Y008169D01*
X026913Y007114D01*
X026968Y006982D01*
X026968Y005716D01*
X027010Y005613D01*
X027010Y004707D01*
X026965Y004596D01*
X026880Y004512D01*
X026770Y004466D01*
X026375Y004466D01*
X026326Y004486D01*
X026278Y004466D01*
X025883Y004466D01*
X025773Y004512D01*
X025688Y004596D01*
X025643Y004707D01*
X025643Y005160D01*
X025534Y005160D01*
X025534Y004707D01*
X025488Y004596D01*
X025404Y004512D01*
X025294Y004466D01*
X024899Y004466D01*
X024850Y004486D01*
X024802Y004466D01*
X024407Y004466D01*
X024296Y004512D01*
X024212Y004596D01*
X024166Y004707D01*
X024166Y005160D01*
X024058Y005160D01*
X024058Y004707D01*
X024012Y004596D01*
X023928Y004512D01*
X023817Y004466D01*
X023422Y004466D01*
X023374Y004486D01*
X023325Y004466D01*
X022930Y004466D01*
X022882Y004486D01*
X022833Y004466D01*
X022438Y004466D01*
X022389Y004486D01*
X022341Y004466D01*
X021946Y004466D01*
X021836Y004512D01*
X021751Y004596D01*
X021718Y004677D01*
X021575Y004736D01*
X021434Y004877D01*
X021151Y005160D01*
X020358Y005160D01*
X020358Y002660D01*
X029766Y002660D01*
X029766Y002966D01*
X029836Y003036D01*
X032181Y003036D01*
X032181Y021410D01*
X015501Y021410D01*
X015501Y021372D02*
X032181Y021372D01*
X032181Y021253D02*
X015501Y021253D01*
X015501Y021135D02*
X021764Y021135D01*
X021658Y021016D02*
X015501Y021016D01*
X015454Y020898D02*
X021226Y020898D01*
X021107Y020779D02*
X015358Y020779D01*
X015358Y020661D02*
X021017Y020661D01*
X020984Y020542D02*
X018754Y020542D01*
X019089Y020424D02*
X020984Y020424D01*
X020762Y020305D02*
X019177Y020305D01*
X019208Y020187D02*
X020638Y020187D01*
X020601Y020068D02*
X019208Y020068D01*
X019208Y019950D02*
X020601Y019950D01*
X022067Y019950D02*
X032181Y019950D01*
X032181Y020068D02*
X022067Y020068D01*
X022067Y019831D02*
X022872Y019831D01*
X022699Y019713D02*
X022063Y019713D01*
X022364Y020187D02*
X032181Y020187D01*
X032181Y020305D02*
X022468Y020305D01*
X022501Y020424D02*
X032181Y020424D01*
X032181Y020542D02*
X022501Y020542D01*
X022501Y020661D02*
X032181Y020661D01*
X032181Y020779D02*
X022501Y020779D01*
X022501Y020898D02*
X032181Y020898D01*
X032181Y021016D02*
X022467Y021016D01*
X022362Y021135D02*
X032181Y021135D01*
X032181Y019831D02*
X023891Y019831D01*
X024274Y019713D02*
X032181Y019713D01*
X032181Y019594D02*
X025858Y019594D01*
X025858Y019476D02*
X032181Y019476D01*
X032181Y019357D02*
X025858Y019357D01*
X025858Y019239D02*
X032181Y019239D01*
X032181Y019120D02*
X025858Y019120D01*
X025858Y019002D02*
X032181Y019002D01*
X032181Y018883D02*
X025858Y018883D01*
X025858Y018765D02*
X032181Y018765D01*
X032181Y018646D02*
X025858Y018646D01*
X025858Y018528D02*
X032181Y018528D01*
X032181Y018409D02*
X025858Y018409D01*
X025858Y018291D02*
X032181Y018291D01*
X032181Y018172D02*
X025858Y018172D01*
X025858Y018054D02*
X032181Y018054D01*
X032181Y017935D02*
X025858Y017935D01*
X025858Y017817D02*
X032181Y017817D01*
X032181Y017698D02*
X025858Y017698D01*
X025858Y017580D02*
X032181Y017580D01*
X032181Y017461D02*
X025858Y017461D01*
X025858Y017343D02*
X032181Y017343D01*
X032181Y017224D02*
X025858Y017224D01*
X025858Y017106D02*
X032181Y017106D01*
X032181Y016987D02*
X025858Y016987D01*
X025858Y016869D02*
X032181Y016869D01*
X032181Y016750D02*
X025858Y016750D01*
X025858Y016632D02*
X032181Y016632D01*
X032181Y016513D02*
X025858Y016513D01*
X025858Y016395D02*
X032181Y016395D01*
X032181Y016276D02*
X025858Y016276D01*
X025858Y016158D02*
X032181Y016158D01*
X032181Y016039D02*
X025858Y016039D01*
X025858Y015921D02*
X032181Y015921D01*
X032181Y015802D02*
X025858Y015802D01*
X025858Y015684D02*
X032181Y015684D01*
X032181Y015565D02*
X025858Y015565D01*
X025858Y015447D02*
X032181Y015447D01*
X032181Y015328D02*
X025858Y015328D01*
X025858Y015210D02*
X032181Y015210D01*
X032181Y015091D02*
X025858Y015091D01*
X025858Y014973D02*
X032181Y014973D01*
X032181Y014854D02*
X025858Y014854D01*
X025858Y014736D02*
X032181Y014736D01*
X032181Y014617D02*
X025858Y014617D01*
X025858Y014499D02*
X032181Y014499D01*
X032181Y014380D02*
X025858Y014380D01*
X025858Y014262D02*
X032181Y014262D01*
X032181Y014143D02*
X025858Y014143D01*
X025858Y014025D02*
X032181Y014025D01*
X032181Y013906D02*
X025858Y013906D01*
X025858Y013788D02*
X032181Y013788D01*
X032181Y013669D02*
X025858Y013669D01*
X025858Y013551D02*
X032181Y013551D01*
X032181Y013432D02*
X025858Y013432D01*
X025858Y013314D02*
X032181Y013314D01*
X032181Y013195D02*
X025858Y013195D01*
X025858Y013077D02*
X032181Y013077D01*
X032181Y012958D02*
X025858Y012958D01*
X025858Y012840D02*
X032181Y012840D01*
X032181Y012721D02*
X025858Y012721D01*
X025858Y012603D02*
X032181Y012603D01*
X032181Y012484D02*
X025858Y012484D01*
X025858Y012366D02*
X032181Y012366D01*
X032181Y012247D02*
X025858Y012247D01*
X025858Y012129D02*
X032181Y012129D01*
X032181Y012010D02*
X025858Y012010D01*
X025858Y011892D02*
X032181Y011892D01*
X032181Y011773D02*
X025858Y011773D01*
X025858Y011655D02*
X032181Y011655D01*
X032181Y011536D02*
X025858Y011536D01*
X025858Y011418D02*
X032181Y011418D01*
X032181Y011299D02*
X025858Y011299D01*
X025858Y011181D02*
X032181Y011181D01*
X032181Y011062D02*
X025858Y011062D01*
X025858Y010944D02*
X032181Y010944D01*
X032181Y010825D02*
X025858Y010825D01*
X025858Y010707D02*
X032181Y010707D01*
X032181Y010588D02*
X025858Y010588D01*
X025858Y010470D02*
X032181Y010470D01*
X032181Y010351D02*
X025858Y010351D01*
X025858Y010233D02*
X032181Y010233D01*
X032181Y010114D02*
X025858Y010114D01*
X025858Y009996D02*
X032181Y009996D01*
X032181Y009877D02*
X025858Y009877D01*
X025858Y009759D02*
X032181Y009759D01*
X032181Y009640D02*
X025858Y009640D01*
X025858Y009522D02*
X032181Y009522D01*
X032181Y009403D02*
X025858Y009403D01*
X025858Y009285D02*
X032181Y009285D01*
X032181Y009166D02*
X025858Y009166D01*
X025858Y009048D02*
X032181Y009048D01*
X032181Y008929D02*
X025858Y008929D01*
X025858Y008811D02*
X032181Y008811D01*
X032181Y008692D02*
X025858Y008692D01*
X025858Y008574D02*
X032181Y008574D01*
X032181Y008455D02*
X025858Y008455D01*
X025858Y008337D02*
X032181Y008337D01*
X032181Y008218D02*
X025858Y008218D01*
X025928Y008100D02*
X032181Y008100D01*
X032181Y007981D02*
X026046Y007981D01*
X026165Y007863D02*
X032181Y007863D01*
X032181Y007744D02*
X026283Y007744D01*
X026402Y007626D02*
X032181Y007626D01*
X032181Y007507D02*
X026520Y007507D01*
X026639Y007389D02*
X032181Y007389D01*
X032181Y007270D02*
X026757Y007270D01*
X026876Y007152D02*
X032181Y007152D01*
X032181Y007033D02*
X026947Y007033D01*
X026968Y006915D02*
X032181Y006915D01*
X032181Y006796D02*
X026968Y006796D01*
X026968Y006678D02*
X032181Y006678D01*
X032181Y006559D02*
X026968Y006559D01*
X026968Y006441D02*
X032181Y006441D01*
X032181Y006322D02*
X026968Y006322D01*
X026968Y006204D02*
X032181Y006204D01*
X032181Y006085D02*
X026968Y006085D01*
X026968Y005967D02*
X032181Y005967D01*
X032181Y005848D02*
X026968Y005848D01*
X026968Y005730D02*
X032181Y005730D01*
X032181Y005611D02*
X027010Y005611D01*
X027010Y005493D02*
X032181Y005493D01*
X032181Y005374D02*
X027010Y005374D01*
X027010Y005256D02*
X032181Y005256D01*
X032181Y005137D02*
X027010Y005137D01*
X027010Y005019D02*
X032181Y005019D01*
X032181Y004900D02*
X027010Y004900D01*
X027010Y004782D02*
X032181Y004782D01*
X032181Y004663D02*
X026992Y004663D01*
X027084Y004594D02*
X026973Y004548D01*
X026889Y004464D01*
X026843Y004354D01*
X026843Y003368D01*
X026889Y003258D01*
X026973Y003173D01*
X027084Y003128D01*
X027833Y003128D01*
X027943Y003173D01*
X028028Y003258D01*
X028073Y003368D01*
X028073Y004354D01*
X028028Y004464D01*
X027943Y004548D01*
X027833Y004594D01*
X027084Y004594D01*
X026970Y004545D02*
X026913Y004545D01*
X026873Y004426D02*
X021843Y004426D01*
X021827Y004464D02*
X021742Y004548D01*
X021632Y004594D01*
X020883Y004594D01*
X020773Y004548D01*
X020688Y004464D01*
X020643Y004354D01*
X020643Y003368D01*
X020688Y003258D01*
X020773Y003173D01*
X020883Y003128D01*
X021632Y003128D01*
X021742Y003173D01*
X021827Y003258D01*
X021873Y003368D01*
X021873Y004354D01*
X021827Y004464D01*
X021803Y004545D02*
X021746Y004545D01*
X021724Y004663D02*
X020358Y004663D01*
X020358Y004545D02*
X020769Y004545D01*
X020673Y004426D02*
X020358Y004426D01*
X020358Y004308D02*
X020643Y004308D01*
X020643Y004189D02*
X020358Y004189D01*
X020358Y004071D02*
X020643Y004071D01*
X020643Y003952D02*
X020358Y003952D01*
X020358Y003834D02*
X020643Y003834D01*
X020643Y003715D02*
X020358Y003715D01*
X020358Y003597D02*
X020643Y003597D01*
X020643Y003478D02*
X020358Y003478D01*
X020358Y003360D02*
X020646Y003360D01*
X020705Y003241D02*
X020358Y003241D01*
X020358Y003123D02*
X032181Y003123D01*
X032181Y003241D02*
X028011Y003241D01*
X028070Y003360D02*
X032181Y003360D01*
X032181Y003478D02*
X028073Y003478D01*
X028073Y003597D02*
X032181Y003597D01*
X032181Y003715D02*
X028073Y003715D01*
X028073Y003834D02*
X032181Y003834D01*
X032181Y003952D02*
X028073Y003952D01*
X028073Y004071D02*
X032181Y004071D01*
X032181Y004189D02*
X028073Y004189D01*
X028073Y004308D02*
X032181Y004308D01*
X032181Y004426D02*
X028043Y004426D01*
X027947Y004545D02*
X032181Y004545D01*
X029804Y003004D02*
X020358Y003004D01*
X020358Y002886D02*
X029766Y002886D01*
X029766Y002767D02*
X020358Y002767D01*
X021810Y003241D02*
X026906Y003241D01*
X026847Y003360D02*
X021869Y003360D01*
X021873Y003478D02*
X026843Y003478D01*
X026843Y003597D02*
X021873Y003597D01*
X021873Y003715D02*
X026843Y003715D01*
X026843Y003834D02*
X021873Y003834D01*
X021873Y003952D02*
X026843Y003952D01*
X026843Y004071D02*
X021873Y004071D01*
X021873Y004189D02*
X026843Y004189D01*
X026843Y004308D02*
X021873Y004308D01*
X021529Y004782D02*
X020358Y004782D01*
X020358Y004900D02*
X021411Y004900D01*
X021292Y005019D02*
X020358Y005019D01*
X020358Y005137D02*
X021174Y005137D01*
X023960Y004545D02*
X024264Y004545D01*
X024184Y004663D02*
X024040Y004663D01*
X024058Y004782D02*
X024166Y004782D01*
X024166Y004900D02*
X024058Y004900D01*
X024058Y005019D02*
X024166Y005019D01*
X024166Y005137D02*
X024058Y005137D01*
X024604Y005160D02*
X024608Y005160D01*
X025534Y005137D02*
X025643Y005137D01*
X025643Y005019D02*
X025534Y005019D01*
X025534Y004900D02*
X025643Y004900D01*
X025643Y004782D02*
X025534Y004782D01*
X025516Y004663D02*
X025661Y004663D01*
X025740Y004545D02*
X025436Y004545D01*
X026080Y005160D02*
X026108Y005188D01*
X026108Y006660D01*
X024733Y008035D01*
X024733Y016410D01*
X022858Y016660D02*
X021334Y018184D01*
X021334Y018410D01*
X017964Y019785D02*
X017960Y019783D01*
X017875Y019699D01*
X017859Y019660D01*
X017857Y019660D01*
X017841Y019699D01*
X017756Y019783D01*
X017752Y019785D01*
X017756Y019787D01*
X017841Y019871D01*
X017858Y019913D01*
X017875Y019871D01*
X017960Y019787D01*
X017964Y019785D01*
X017915Y019831D02*
X017801Y019831D01*
X017827Y019713D02*
X017889Y019713D01*
X017866Y020424D02*
X017850Y020424D01*
X017731Y020542D02*
X017985Y020542D01*
X016962Y020542D02*
X015358Y020542D01*
X015358Y020424D02*
X016842Y020424D01*
X016806Y020305D02*
X015358Y020305D01*
X015425Y020187D02*
X016806Y020187D01*
X016806Y020068D02*
X015544Y020068D01*
X015662Y019950D02*
X016819Y019950D01*
X016881Y019831D02*
X016892Y019831D01*
X016085Y019831D02*
X015781Y019831D01*
X018986Y015317D02*
X018986Y015288D01*
X018983Y015285D01*
X018986Y015288D02*
X019014Y015317D01*
X019242Y015317D01*
X018986Y014254D02*
X018730Y014254D01*
X025233Y019240D02*
X025233Y008285D01*
X026608Y006910D01*
X026608Y005160D01*
X026573Y005160D01*
X014983Y004535D02*
X014983Y003410D01*
X015108Y003160D01*
X014358Y003160D02*
X014358Y004660D01*
X013858Y005160D01*
X014358Y005160D02*
X014983Y004535D01*
D180*
X013358Y010910D03*
X013358Y011410D03*
X012858Y011410D03*
X012858Y010910D03*
X009358Y014160D03*
X008858Y015035D03*
X008733Y016410D03*
X006983Y017160D03*
X007733Y018160D03*
X008358Y019160D03*
X006983Y020285D03*
X006608Y020285D03*
X006608Y020660D03*
X006983Y020660D03*
X006983Y021035D03*
X006608Y021035D03*
X006233Y021035D03*
X006233Y020660D03*
X006233Y020285D03*
X008108Y022160D03*
X009858Y022160D03*
X009858Y021535D03*
X011733Y020785D03*
X012233Y020035D03*
X011483Y019410D03*
X010733Y018160D03*
X010733Y017785D03*
X010733Y016535D03*
X010733Y016160D03*
X012858Y016410D03*
X013858Y016410D03*
X013233Y017660D03*
X012608Y017660D03*
X013233Y018410D03*
X012858Y021160D03*
X011983Y022910D03*
X012233Y024535D03*
X013233Y024535D03*
X014108Y023660D03*
X014858Y023660D03*
X015358Y023160D03*
X016358Y022160D03*
X016358Y021160D03*
X017858Y021160D03*
X017858Y022160D03*
X019358Y022160D03*
X019358Y021160D03*
X020858Y021160D03*
X020858Y022160D03*
X022358Y022160D03*
X023858Y022160D03*
X023858Y021160D03*
X025358Y021160D03*
X025358Y022160D03*
X026858Y022160D03*
X026858Y021160D03*
X028858Y021160D03*
X028858Y022160D03*
X030358Y022160D03*
X030358Y021160D03*
X031858Y021160D03*
X031858Y022160D03*
X031858Y023660D03*
X031108Y024785D03*
X031858Y025160D03*
X031858Y026660D03*
X031108Y026535D03*
X031858Y028160D03*
X031358Y029160D03*
X030358Y028160D03*
X029358Y029160D03*
X029358Y030160D03*
X029358Y031660D03*
X027858Y031660D03*
X026358Y031660D03*
X024858Y031660D03*
X023358Y031660D03*
X021858Y031660D03*
X020858Y030785D03*
X020358Y031660D03*
X019358Y030785D03*
X018858Y031660D03*
X017858Y030785D03*
X017358Y031660D03*
X015858Y031660D03*
X016358Y030160D03*
X017858Y029410D03*
X018608Y029410D03*
X018608Y027160D03*
X017358Y027160D03*
X017358Y025535D03*
X015983Y025535D03*
X015608Y024410D03*
X015358Y027035D03*
X014483Y027035D03*
X014483Y028160D03*
X015733Y028160D03*
X014358Y029660D03*
X012858Y028160D03*
X012858Y027160D03*
X010858Y027160D03*
X010858Y028160D03*
X010358Y029660D03*
X008858Y028160D03*
X008858Y027160D03*
X007358Y027160D03*
X006858Y028160D03*
X005358Y027660D03*
X004358Y026660D03*
X003358Y025660D03*
X004358Y025160D03*
X005358Y025160D03*
X006358Y026160D03*
X007858Y025535D03*
X008983Y024660D03*
X009983Y024660D03*
X011233Y024535D03*
X007858Y024160D03*
X006358Y024160D03*
X005358Y023660D03*
X003358Y022160D03*
X001358Y021660D03*
X001358Y019660D03*
X001358Y017660D03*
X001358Y015660D03*
X001358Y013160D03*
X001358Y011160D03*
X001358Y009160D03*
X001358Y007660D03*
X001358Y005660D03*
X001358Y003660D03*
X003358Y003660D03*
X003358Y004660D03*
X005358Y004660D03*
X005358Y003660D03*
X005858Y006660D03*
X004733Y008660D03*
X004358Y008660D03*
X004358Y009160D03*
X004733Y009160D03*
X005858Y009660D03*
X004608Y012160D03*
X003858Y012160D03*
X005608Y014410D03*
X005858Y015160D03*
X006358Y014660D03*
X005108Y017160D03*
X004358Y017160D03*
X001358Y023660D03*
X001358Y025660D03*
X001358Y027660D03*
X002858Y027660D03*
X002858Y029160D03*
X003858Y030160D03*
X004358Y029160D03*
X006358Y029660D03*
X008358Y029660D03*
X008358Y031660D03*
X009858Y031660D03*
X011358Y031660D03*
X012858Y031660D03*
X014358Y031660D03*
X012358Y029660D03*
X006858Y031660D03*
X005358Y031660D03*
X003858Y031660D03*
X001358Y029160D03*
X015608Y015035D03*
X017483Y016035D03*
X017483Y016660D03*
X020358Y015535D03*
X020358Y015160D03*
X021358Y013660D03*
X022358Y013660D03*
X019858Y011160D03*
X019858Y010785D03*
X019483Y010785D03*
X019483Y011160D03*
X020108Y024660D03*
X018858Y025535D03*
X021108Y027160D03*
X021108Y028285D03*
X021108Y029410D03*
X022358Y030160D03*
X022858Y028660D03*
X023233Y027160D03*
X024108Y027160D03*
X024358Y028160D03*
X026358Y028160D03*
X028358Y028160D03*
X029358Y024535D03*
X027358Y024535D03*
X025858Y024535D03*
X024483Y024535D03*
X023858Y025535D03*
X022358Y025535D03*
X021608Y024660D03*
D181*
X028358Y006660D03*
X028358Y006160D03*
X028358Y005660D03*
X028858Y005660D03*
X029358Y005660D03*
X029358Y006160D03*
X028858Y006160D03*
X028858Y006660D03*
X029358Y006660D03*
X029858Y006660D03*
X029858Y006160D03*
X029858Y005660D03*
D182*
X020858Y010483D02*
X020858Y011575D01*
X018493Y011575D01*
X018501Y011567D01*
X018604Y011567D01*
X018604Y011176D01*
X018612Y011176D01*
X018612Y011567D01*
X018747Y011567D01*
X018786Y011556D01*
X018795Y011551D01*
X018804Y011556D01*
X018843Y011567D01*
X018978Y011567D01*
X018978Y011176D01*
X018986Y011176D01*
X018986Y011567D01*
X019121Y011567D01*
X019160Y011556D01*
X019195Y011536D01*
X019224Y011507D01*
X019245Y011472D01*
X019255Y011432D01*
X019255Y011176D01*
X018986Y011176D01*
X018986Y011168D01*
X019255Y011168D01*
X019255Y010911D01*
X019245Y010872D01*
X019224Y010836D01*
X019195Y010808D01*
X019160Y010787D01*
X019121Y010777D01*
X018986Y010777D01*
X018986Y011168D01*
X018978Y011168D01*
X018612Y011168D01*
X018612Y011176D01*
X018881Y011176D01*
X018978Y011176D01*
X018978Y011168D01*
X018978Y010777D01*
X018843Y010777D01*
X018804Y010787D01*
X018795Y010792D01*
X018786Y010787D01*
X018747Y010777D01*
X018612Y010777D01*
X018612Y011168D01*
X018604Y011168D01*
X018604Y010777D01*
X018501Y010777D01*
X018441Y010717D01*
X018123Y010717D01*
X018123Y010603D01*
X018441Y010603D01*
X018567Y010477D01*
X018567Y009819D01*
X018565Y009817D01*
X018608Y009817D01*
X018565Y009817D02*
X018608Y009773D01*
X018608Y009773D01*
X018608Y010128D01*
X018649Y010226D01*
X018649Y010477D01*
X018775Y010603D01*
X019189Y010603D01*
X019309Y010483D01*
X020858Y010483D01*
X020858Y010576D02*
X019216Y010576D01*
X019170Y010793D02*
X020858Y010793D01*
X020858Y010685D02*
X018123Y010685D01*
X018468Y010576D02*
X018748Y010576D01*
X018649Y010468D02*
X018567Y010468D01*
X018567Y010359D02*
X018649Y010359D01*
X018649Y010251D02*
X018567Y010251D01*
X018567Y010142D02*
X018614Y010142D01*
X018608Y010034D02*
X018567Y010034D01*
X018567Y009925D02*
X018608Y009925D01*
X018604Y010793D02*
X018612Y010793D01*
X018604Y010902D02*
X018612Y010902D01*
X018604Y011010D02*
X018612Y011010D01*
X018604Y011119D02*
X018612Y011119D01*
X018604Y011227D02*
X018612Y011227D01*
X018604Y011336D02*
X018612Y011336D01*
X018604Y011444D02*
X018612Y011444D01*
X018604Y011553D02*
X018612Y011553D01*
X018793Y011553D02*
X018797Y011553D01*
X018978Y011553D02*
X018986Y011553D01*
X018978Y011444D02*
X018986Y011444D01*
X018978Y011336D02*
X018986Y011336D01*
X018978Y011227D02*
X018986Y011227D01*
X018978Y011119D02*
X018986Y011119D01*
X018978Y011010D02*
X018986Y011010D01*
X018978Y010902D02*
X018986Y010902D01*
X018978Y010793D02*
X018986Y010793D01*
X019253Y010902D02*
X020858Y010902D01*
X020858Y011010D02*
X019255Y011010D01*
X019255Y011119D02*
X020858Y011119D01*
X020858Y011227D02*
X019255Y011227D01*
X019255Y011336D02*
X020858Y011336D01*
X020858Y011444D02*
X019252Y011444D01*
X019167Y011553D02*
X020858Y011553D01*
X020858Y012245D02*
X017622Y012245D01*
X017078Y012788D01*
X017139Y012788D01*
X017139Y013146D01*
X017167Y013146D01*
X017167Y012788D01*
X017311Y012788D01*
X017351Y012799D01*
X017386Y012819D01*
X017415Y012848D01*
X017435Y012884D01*
X017446Y012923D01*
X017446Y013146D01*
X017167Y013146D01*
X017167Y013174D01*
X017139Y013174D01*
X017139Y013532D01*
X016995Y013532D01*
X016956Y013521D01*
X016920Y013501D01*
X016900Y013481D01*
X016790Y013592D01*
X016548Y013592D01*
X016446Y013694D01*
X016338Y013738D01*
X016040Y013738D01*
X016040Y014092D01*
X015929Y014202D01*
X015949Y014222D01*
X015969Y014258D01*
X015980Y014297D01*
X015980Y014441D01*
X015622Y014441D01*
X015622Y014469D01*
X015980Y014469D01*
X015980Y014613D01*
X015969Y014653D01*
X015949Y014688D01*
X015920Y014717D01*
X015884Y014738D01*
X015845Y014748D01*
X015622Y014748D01*
X015622Y014469D01*
X015594Y014469D01*
X015594Y014441D01*
X015236Y014441D01*
X015236Y014297D01*
X015247Y014258D01*
X015267Y014222D01*
X015287Y014202D01*
X015176Y014092D01*
X015176Y013808D01*
X015108Y013740D01*
X015108Y013808D01*
X014982Y013934D01*
X013721Y013934D01*
X013721Y014091D01*
X014136Y014091D01*
X014262Y014217D01*
X014262Y015103D01*
X014258Y015107D01*
X014290Y015138D01*
X014290Y015592D01*
X014179Y015702D01*
X014199Y015722D01*
X014219Y015758D01*
X014230Y015797D01*
X014230Y015941D01*
X013872Y015941D01*
X013872Y015969D01*
X014230Y015969D01*
X014230Y016113D01*
X014219Y016153D01*
X014199Y016188D01*
X014170Y016217D01*
X014134Y016238D01*
X014095Y016248D01*
X013872Y016248D01*
X013872Y015969D01*
X013844Y015969D01*
X013844Y015941D01*
X013486Y015941D01*
X013486Y015797D01*
X013497Y015758D01*
X013517Y015722D01*
X013537Y015702D01*
X013426Y015592D01*
X013426Y015138D01*
X013450Y015115D01*
X013438Y015103D01*
X013438Y014781D01*
X013360Y014703D01*
X013278Y014786D01*
X013278Y015103D01*
X013266Y015115D01*
X013290Y015138D01*
X013290Y015592D01*
X013179Y015702D01*
X013199Y015722D01*
X013219Y015758D01*
X013230Y015797D01*
X013230Y015941D01*
X012872Y015941D01*
X012872Y015969D01*
X013230Y015969D01*
X013230Y016113D01*
X013219Y016153D01*
X013199Y016188D01*
X013170Y016217D01*
X013134Y016238D01*
X013095Y016248D01*
X012872Y016248D01*
X012872Y015969D01*
X012844Y015969D01*
X012844Y015941D01*
X012486Y015941D01*
X012486Y015797D01*
X012497Y015758D01*
X012517Y015722D01*
X012537Y015702D01*
X012426Y015592D01*
X012426Y015138D01*
X012457Y015107D01*
X012454Y015103D01*
X012454Y014217D01*
X012580Y014091D01*
X012995Y014091D01*
X012995Y013934D01*
X012915Y013934D01*
X012866Y013885D01*
X012817Y013934D01*
X011764Y013934D01*
X012087Y014257D01*
X012128Y014356D01*
X012128Y016430D01*
X012358Y016660D01*
X016858Y016660D01*
X017358Y017160D01*
X019476Y017160D01*
X019508Y017128D01*
X019508Y016298D01*
X019483Y016273D01*
X019415Y016342D01*
X019006Y016342D01*
X019006Y016841D01*
X018880Y016967D01*
X018426Y016967D01*
X018316Y016856D01*
X018296Y016876D01*
X018260Y016896D01*
X018221Y016907D01*
X018077Y016907D01*
X018077Y016549D01*
X018049Y016549D01*
X018049Y016907D01*
X017905Y016907D01*
X017865Y016896D01*
X017830Y016876D01*
X017801Y016847D01*
X017780Y016811D01*
X017770Y016772D01*
X017770Y016549D01*
X018049Y016549D01*
X018049Y016521D01*
X018077Y016521D01*
X018077Y016163D01*
X018077Y015924D01*
X018049Y015924D01*
X018049Y016521D01*
X017770Y016521D01*
X017770Y016298D01*
X017780Y016259D01*
X017801Y016223D01*
X017802Y016223D01*
X017801Y016222D01*
X017780Y016186D01*
X017770Y016147D01*
X017770Y015924D01*
X018049Y015924D01*
X018049Y015896D01*
X018077Y015896D01*
X018077Y015538D01*
X018221Y015538D01*
X018248Y015546D01*
X018241Y015534D01*
X018231Y015494D01*
X018231Y015317D01*
X018426Y015317D01*
X018426Y015317D01*
X018231Y015317D01*
X018231Y015191D01*
X018195Y015227D01*
X018057Y015284D01*
X017909Y015284D01*
X017771Y015227D01*
X017666Y015122D01*
X017609Y014984D01*
X017609Y014836D01*
X017666Y014698D01*
X017729Y014636D01*
X017646Y014602D01*
X017541Y014497D01*
X017484Y014359D01*
X017484Y014211D01*
X017541Y014073D01*
X017646Y013968D01*
X017775Y013915D01*
X017770Y013897D01*
X017770Y013674D01*
X018049Y013674D01*
X018049Y013646D01*
X018077Y013646D01*
X018077Y013049D01*
X018049Y013049D01*
X018049Y013288D01*
X018049Y013646D01*
X017770Y013646D01*
X017770Y013423D01*
X017780Y013384D01*
X017801Y013348D01*
X017802Y013348D01*
X017801Y013347D01*
X017780Y013311D01*
X017770Y013272D01*
X017770Y013049D01*
X018049Y013049D01*
X018049Y013021D01*
X018077Y013021D01*
X018077Y012663D01*
X018221Y012663D01*
X018260Y012674D01*
X018296Y012694D01*
X018316Y012714D01*
X018426Y012603D01*
X018880Y012603D01*
X019006Y012729D01*
X019006Y013228D01*
X019415Y013228D01*
X019483Y013297D01*
X019551Y013228D01*
X020005Y013228D01*
X020131Y013354D01*
X020131Y013395D01*
X020858Y013395D01*
X020858Y012245D01*
X020858Y012312D02*
X017555Y012312D01*
X017446Y012421D02*
X020858Y012421D01*
X020858Y012529D02*
X017338Y012529D01*
X017229Y012638D02*
X018392Y012638D01*
X018077Y012746D02*
X018049Y012746D01*
X018049Y012663D02*
X018049Y013021D01*
X017770Y013021D01*
X017770Y012798D01*
X017780Y012759D01*
X017801Y012723D01*
X017830Y012694D01*
X017865Y012674D01*
X017905Y012663D01*
X018049Y012663D01*
X018049Y012855D02*
X018077Y012855D01*
X018077Y012963D02*
X018049Y012963D01*
X018049Y013072D02*
X018077Y013072D01*
X018077Y013180D02*
X018049Y013180D01*
X018049Y013289D02*
X018077Y013289D01*
X018077Y013397D02*
X018049Y013397D01*
X018049Y013506D02*
X018077Y013506D01*
X018077Y013614D02*
X018049Y013614D01*
X017770Y013614D02*
X016526Y013614D01*
X016376Y013723D02*
X017770Y013723D01*
X017770Y013831D02*
X016040Y013831D01*
X016040Y013940D02*
X017715Y013940D01*
X017566Y014048D02*
X016040Y014048D01*
X015975Y014157D02*
X017507Y014157D01*
X017484Y014265D02*
X015971Y014265D01*
X015980Y014374D02*
X017490Y014374D01*
X017535Y014482D02*
X015980Y014482D01*
X015980Y014591D02*
X017635Y014591D01*
X017666Y014699D02*
X015938Y014699D01*
X015622Y014699D02*
X015594Y014699D01*
X015594Y014748D02*
X015371Y014748D01*
X015332Y014738D01*
X015296Y014717D01*
X015267Y014688D01*
X015247Y014653D01*
X015236Y014613D01*
X015236Y014469D01*
X015594Y014469D01*
X015594Y014748D01*
X015594Y014591D02*
X015622Y014591D01*
X015622Y014482D02*
X015594Y014482D01*
X015236Y014482D02*
X014262Y014482D01*
X014262Y014374D02*
X015236Y014374D01*
X015245Y014265D02*
X014262Y014265D01*
X014202Y014157D02*
X015241Y014157D01*
X015176Y014048D02*
X013721Y014048D01*
X013721Y013940D02*
X015176Y013940D01*
X015176Y013831D02*
X015085Y013831D01*
X015108Y013157D02*
X015128Y013148D01*
X015472Y013148D01*
X015417Y013094D01*
X015376Y012996D01*
X015376Y012910D01*
X015277Y012910D01*
X015151Y012785D01*
X015151Y012488D01*
X015211Y012428D01*
X015211Y012360D01*
X015216Y012341D01*
X015211Y012322D01*
X015211Y012254D01*
X015151Y012194D01*
X015151Y010520D01*
X015200Y010471D01*
X015151Y010422D01*
X015151Y009536D01*
X015277Y009410D01*
X016006Y009410D01*
X016132Y009536D01*
X016132Y010403D01*
X016593Y010403D01*
X016593Y008770D01*
X016483Y008660D01*
X015108Y008660D01*
X015108Y009241D01*
X014982Y009367D01*
X013594Y009367D01*
X013675Y009448D01*
X013732Y009586D01*
X013732Y009734D01*
X013675Y009872D01*
X013570Y009977D01*
X013432Y010034D01*
X013284Y010034D01*
X013195Y009997D01*
X013232Y010086D01*
X013232Y010234D01*
X013175Y010372D01*
X013070Y010477D01*
X012932Y010534D01*
X012784Y010534D01*
X012646Y010477D01*
X012604Y010435D01*
X012303Y010435D01*
X012202Y010393D01*
X011923Y010114D01*
X011845Y010036D01*
X011803Y009935D01*
X011803Y009367D01*
X011733Y009367D01*
X011608Y009241D01*
X011608Y008660D01*
X011358Y008660D01*
X011340Y008678D01*
X011340Y009410D01*
X011439Y009410D01*
X011565Y009536D01*
X011565Y012785D01*
X011439Y012910D01*
X010858Y012910D01*
X010858Y013160D01*
X011338Y013640D01*
X011412Y013640D01*
X011511Y013681D01*
X011587Y013757D01*
X011608Y013778D01*
X011608Y013079D01*
X011733Y012953D01*
X012023Y012953D01*
X011984Y012859D01*
X011984Y012711D01*
X012041Y012573D01*
X012146Y012468D01*
X012284Y012411D01*
X012432Y012411D01*
X012570Y012468D01*
X012675Y012573D01*
X012732Y012711D01*
X012732Y012833D01*
X012737Y012846D01*
X012737Y012953D01*
X012817Y012953D01*
X012866Y013002D01*
X012915Y012953D01*
X013378Y012953D01*
X013378Y012780D01*
X013359Y012734D01*
X013359Y012586D01*
X013416Y012448D01*
X013521Y012343D01*
X013659Y012286D01*
X013807Y012286D01*
X013945Y012343D01*
X014050Y012448D01*
X014107Y012586D01*
X014107Y012734D01*
X014050Y012872D01*
X013969Y012953D01*
X014982Y012953D01*
X015108Y013079D01*
X015108Y013157D01*
X015101Y013072D02*
X015408Y013072D01*
X015376Y012963D02*
X014993Y012963D01*
X015221Y012855D02*
X014057Y012855D01*
X014102Y012746D02*
X015151Y012746D01*
X015151Y012638D02*
X014107Y012638D01*
X014083Y012529D02*
X015151Y012529D01*
X015211Y012421D02*
X014022Y012421D01*
X013870Y012312D02*
X015211Y012312D01*
X015108Y012285D02*
X015263Y012440D01*
X015641Y012440D01*
X015160Y012204D02*
X011565Y012204D01*
X011565Y012312D02*
X013596Y012312D01*
X013444Y012421D02*
X012455Y012421D01*
X012261Y012421D02*
X011565Y012421D01*
X011565Y012529D02*
X012085Y012529D01*
X012015Y012638D02*
X011565Y012638D01*
X011565Y012746D02*
X011984Y012746D01*
X011984Y012855D02*
X011495Y012855D01*
X011615Y013072D02*
X010858Y013072D01*
X010858Y012963D02*
X011723Y012963D01*
X011608Y013180D02*
X010878Y013180D01*
X010987Y013289D02*
X011608Y013289D01*
X011608Y013397D02*
X011095Y013397D01*
X011204Y013506D02*
X011608Y013506D01*
X011608Y013614D02*
X011312Y013614D01*
X011552Y013723D02*
X011608Y013723D01*
X011769Y013940D02*
X012995Y013940D01*
X012995Y014048D02*
X011878Y014048D01*
X011986Y014157D02*
X012514Y014157D01*
X012454Y014265D02*
X012090Y014265D01*
X012128Y014374D02*
X012454Y014374D01*
X012454Y014482D02*
X012128Y014482D01*
X012128Y014591D02*
X012454Y014591D01*
X012454Y014699D02*
X012128Y014699D01*
X012128Y014808D02*
X012454Y014808D01*
X012454Y014916D02*
X012128Y014916D01*
X012128Y015025D02*
X012454Y015025D01*
X012431Y015133D02*
X012128Y015133D01*
X012128Y015242D02*
X012426Y015242D01*
X012426Y015350D02*
X012128Y015350D01*
X012128Y015459D02*
X012426Y015459D01*
X012426Y015567D02*
X012128Y015567D01*
X012128Y015676D02*
X012510Y015676D01*
X012490Y015784D02*
X012128Y015784D01*
X012128Y015893D02*
X012486Y015893D01*
X012486Y015969D02*
X012844Y015969D01*
X012844Y016248D01*
X012621Y016248D01*
X012582Y016238D01*
X012546Y016217D01*
X012517Y016188D01*
X012497Y016153D01*
X012486Y016113D01*
X012486Y015969D01*
X012486Y016001D02*
X012128Y016001D01*
X012128Y016110D02*
X012486Y016110D01*
X012548Y016218D02*
X012128Y016218D01*
X012128Y016327D02*
X017770Y016327D01*
X017770Y016435D02*
X012133Y016435D01*
X012242Y016544D02*
X018049Y016544D01*
X018049Y016652D02*
X018077Y016652D01*
X018077Y016761D02*
X018049Y016761D01*
X018049Y016869D02*
X018077Y016869D01*
X018302Y016869D02*
X018329Y016869D01*
X018077Y016435D02*
X018049Y016435D01*
X018049Y016327D02*
X018077Y016327D01*
X018077Y016218D02*
X018049Y016218D01*
X018049Y016110D02*
X018077Y016110D01*
X018077Y016001D02*
X018049Y016001D01*
X018049Y015896D02*
X017770Y015896D01*
X017770Y015673D01*
X017780Y015634D01*
X017801Y015598D01*
X017830Y015569D01*
X017865Y015549D01*
X017905Y015538D01*
X018049Y015538D01*
X018049Y015896D01*
X018049Y015893D02*
X018077Y015893D01*
X018077Y015784D02*
X018049Y015784D01*
X018049Y015676D02*
X018077Y015676D01*
X018077Y015567D02*
X018049Y015567D01*
X018231Y015459D02*
X014290Y015459D01*
X014290Y015567D02*
X017834Y015567D01*
X017770Y015676D02*
X014206Y015676D01*
X014226Y015784D02*
X017770Y015784D01*
X017770Y015893D02*
X014230Y015893D01*
X014230Y016001D02*
X017770Y016001D01*
X017770Y016110D02*
X014230Y016110D01*
X014168Y016218D02*
X017799Y016218D01*
X017770Y016652D02*
X012350Y016652D01*
X012844Y016218D02*
X012872Y016218D01*
X012872Y016110D02*
X012844Y016110D01*
X012844Y016001D02*
X012872Y016001D01*
X013168Y016218D02*
X013548Y016218D01*
X013546Y016217D02*
X013517Y016188D01*
X013497Y016153D01*
X013486Y016113D01*
X013486Y015969D01*
X013844Y015969D01*
X013844Y016248D01*
X013621Y016248D01*
X013582Y016238D01*
X013546Y016217D01*
X013486Y016110D02*
X013230Y016110D01*
X013230Y016001D02*
X013486Y016001D01*
X013486Y015893D02*
X013230Y015893D01*
X013226Y015784D02*
X013490Y015784D01*
X013510Y015676D02*
X013206Y015676D01*
X013290Y015567D02*
X013426Y015567D01*
X013426Y015459D02*
X013290Y015459D01*
X013290Y015350D02*
X013426Y015350D01*
X013426Y015242D02*
X013290Y015242D01*
X013285Y015133D02*
X013431Y015133D01*
X013438Y015025D02*
X013278Y015025D01*
X013278Y014916D02*
X013438Y014916D01*
X013438Y014808D02*
X013278Y014808D01*
X014262Y014808D02*
X017621Y014808D01*
X017609Y014916D02*
X014262Y014916D01*
X014262Y015025D02*
X017626Y015025D01*
X017677Y015133D02*
X014285Y015133D01*
X014290Y015242D02*
X017807Y015242D01*
X018159Y015242D02*
X018231Y015242D01*
X018231Y015350D02*
X014290Y015350D01*
X014262Y014699D02*
X015278Y014699D01*
X015236Y014591D02*
X014262Y014591D01*
X013872Y016001D02*
X013844Y016001D01*
X013844Y016110D02*
X013872Y016110D01*
X013872Y016218D02*
X013844Y016218D01*
X012358Y017160D02*
X011858Y016660D01*
X011858Y014410D01*
X011358Y013910D01*
X009608Y013910D01*
X009358Y014160D01*
X011565Y012095D02*
X015151Y012095D01*
X015151Y011987D02*
X011565Y011987D01*
X011565Y011878D02*
X015151Y011878D01*
X015151Y011770D02*
X011565Y011770D01*
X011565Y011661D02*
X015151Y011661D01*
X015151Y011553D02*
X011565Y011553D01*
X011565Y011444D02*
X015151Y011444D01*
X015151Y011336D02*
X011565Y011336D01*
X011565Y011227D02*
X015151Y011227D01*
X015151Y011119D02*
X011565Y011119D01*
X011565Y011010D02*
X015151Y011010D01*
X015151Y010902D02*
X011565Y010902D01*
X011565Y010793D02*
X015151Y010793D01*
X015151Y010685D02*
X011565Y010685D01*
X011565Y010576D02*
X015151Y010576D01*
X015196Y010468D02*
X013079Y010468D01*
X013180Y010359D02*
X015151Y010359D01*
X015151Y010251D02*
X013225Y010251D01*
X013232Y010142D02*
X015151Y010142D01*
X015151Y010034D02*
X013433Y010034D01*
X013283Y010034D02*
X013210Y010034D01*
X013622Y009925D02*
X015151Y009925D01*
X015151Y009817D02*
X013698Y009817D01*
X013732Y009708D02*
X015151Y009708D01*
X015151Y009600D02*
X013732Y009600D01*
X013693Y009491D02*
X015195Y009491D01*
X015076Y009274D02*
X016593Y009274D01*
X016593Y009166D02*
X015108Y009166D01*
X015108Y009057D02*
X016593Y009057D01*
X016593Y008949D02*
X015108Y008949D01*
X015108Y008840D02*
X016593Y008840D01*
X016555Y008732D02*
X015108Y008732D01*
X016088Y009491D02*
X016593Y009491D01*
X016593Y009383D02*
X013609Y009383D01*
X012637Y010468D02*
X011565Y010468D01*
X011565Y010359D02*
X012168Y010359D01*
X012060Y010251D02*
X011565Y010251D01*
X011565Y010142D02*
X011951Y010142D01*
X011844Y010034D02*
X011565Y010034D01*
X011565Y009925D02*
X011803Y009925D01*
X011803Y009817D02*
X011565Y009817D01*
X011565Y009708D02*
X011803Y009708D01*
X011803Y009600D02*
X011565Y009600D01*
X011521Y009491D02*
X011803Y009491D01*
X011803Y009383D02*
X011340Y009383D01*
X011340Y009274D02*
X011640Y009274D01*
X011608Y009166D02*
X011340Y009166D01*
X011340Y009057D02*
X011608Y009057D01*
X011608Y008949D02*
X011340Y008949D01*
X011340Y008840D02*
X011608Y008840D01*
X011608Y008732D02*
X011340Y008732D01*
X010483Y006990D02*
X012608Y006990D01*
X016132Y009600D02*
X016593Y009600D01*
X016593Y009708D02*
X016132Y009708D01*
X016132Y009817D02*
X016593Y009817D01*
X016593Y009925D02*
X016132Y009925D01*
X016132Y010034D02*
X016593Y010034D01*
X016593Y010142D02*
X016132Y010142D01*
X016132Y010251D02*
X016593Y010251D01*
X016593Y010359D02*
X016132Y010359D01*
X016475Y011652D02*
X015641Y011652D01*
X015641Y011849D02*
X016047Y011849D01*
X016358Y012160D01*
X016608Y011785D02*
X016475Y011652D01*
X017121Y012746D02*
X017788Y012746D01*
X017770Y012855D02*
X017419Y012855D01*
X017446Y012963D02*
X017770Y012963D01*
X017770Y013072D02*
X017446Y013072D01*
X017446Y013174D02*
X017446Y013397D01*
X017777Y013397D01*
X017774Y013289D02*
X017446Y013289D01*
X017446Y013397D02*
X017435Y013436D01*
X017415Y013472D01*
X017386Y013501D01*
X017351Y013521D01*
X017311Y013532D01*
X017167Y013532D01*
X017167Y013174D01*
X017446Y013174D01*
X017446Y013180D02*
X017770Y013180D01*
X017770Y013506D02*
X017378Y013506D01*
X017167Y013506D02*
X017139Y013506D01*
X017139Y013397D02*
X017167Y013397D01*
X017167Y013289D02*
X017139Y013289D01*
X017139Y013180D02*
X017167Y013180D01*
X017167Y013072D02*
X017139Y013072D01*
X017139Y012963D02*
X017167Y012963D01*
X017167Y012855D02*
X017139Y012855D01*
X016929Y013506D02*
X016876Y013506D01*
X017858Y014285D02*
X018233Y014660D01*
X018608Y014660D01*
X018733Y014535D01*
X018733Y014256D01*
X018730Y014254D01*
X018858Y014910D02*
X017983Y014910D01*
X018858Y014910D02*
X018983Y015035D01*
X018983Y015285D01*
X019545Y015341D02*
X019545Y015484D01*
X019551Y015478D01*
X020005Y015478D01*
X020131Y015604D01*
X020131Y016216D01*
X020048Y016298D01*
X020048Y016970D01*
X020858Y016160D01*
X020858Y014825D01*
X020181Y014825D01*
X020179Y014827D01*
X020199Y014847D01*
X020219Y014883D01*
X020230Y014922D01*
X020230Y015066D01*
X019872Y015066D01*
X019872Y015094D01*
X020230Y015094D01*
X020230Y015238D01*
X020219Y015278D01*
X020199Y015313D01*
X020170Y015342D01*
X020134Y015363D01*
X020095Y015373D01*
X019872Y015373D01*
X019872Y015094D01*
X019844Y015094D01*
X019844Y015373D01*
X019621Y015373D01*
X019582Y015363D01*
X019546Y015342D01*
X019545Y015341D01*
X019545Y015350D02*
X019560Y015350D01*
X019545Y015459D02*
X020858Y015459D01*
X020858Y015567D02*
X020094Y015567D01*
X020131Y015676D02*
X020858Y015676D01*
X020858Y015784D02*
X020131Y015784D01*
X020131Y015893D02*
X020858Y015893D01*
X020858Y016001D02*
X020131Y016001D01*
X020131Y016110D02*
X020858Y016110D01*
X020800Y016218D02*
X020129Y016218D01*
X020048Y016327D02*
X020691Y016327D01*
X020583Y016435D02*
X020048Y016435D01*
X020048Y016544D02*
X020474Y016544D01*
X020366Y016652D02*
X020048Y016652D01*
X020048Y016761D02*
X020257Y016761D01*
X020149Y016869D02*
X020048Y016869D01*
X019778Y017240D02*
X019358Y017660D01*
X016858Y017660D01*
X016358Y017160D01*
X012358Y017160D01*
X012827Y012963D02*
X012904Y012963D01*
X012737Y012855D02*
X013378Y012855D01*
X013364Y012746D02*
X012732Y012746D01*
X012701Y012638D02*
X013359Y012638D01*
X013383Y012529D02*
X012631Y012529D01*
X016959Y016761D02*
X017770Y016761D01*
X017823Y016869D02*
X017067Y016869D01*
X017176Y016978D02*
X019508Y016978D01*
X019508Y017086D02*
X017284Y017086D01*
X018978Y016869D02*
X019508Y016869D01*
X019508Y016761D02*
X019006Y016761D01*
X019006Y016652D02*
X019508Y016652D01*
X019508Y016544D02*
X019006Y016544D01*
X019006Y016435D02*
X019508Y016435D01*
X019508Y016327D02*
X019430Y016327D01*
X019778Y015910D02*
X019778Y017240D01*
X019844Y015350D02*
X019872Y015350D01*
X019872Y015242D02*
X019844Y015242D01*
X019844Y015133D02*
X019872Y015133D01*
X020156Y015350D02*
X020858Y015350D01*
X020858Y015242D02*
X020229Y015242D01*
X020230Y015133D02*
X020858Y015133D01*
X020858Y015025D02*
X020230Y015025D01*
X020228Y014916D02*
X020858Y014916D01*
X020858Y013289D02*
X020065Y013289D01*
X019491Y013289D02*
X019475Y013289D01*
X019006Y013180D02*
X020858Y013180D01*
X020858Y013072D02*
X019006Y013072D01*
X019006Y012963D02*
X020858Y012963D01*
X020858Y012855D02*
X019006Y012855D01*
X019006Y012746D02*
X020858Y012746D01*
X020858Y012638D02*
X018914Y012638D01*
X011858Y003160D02*
X012153Y002865D01*
X012608Y002865D01*
X007358Y008160D02*
X007438Y008240D01*
X007438Y008910D01*
X005608Y014410D02*
X005563Y014410D01*
X005108Y014865D01*
D183*
X004358Y014910D02*
X003608Y014910D01*
X003358Y018280D02*
X003363Y018410D01*
X012733Y023535D02*
X013733Y022535D01*
X014234Y022034D01*
X014358Y022034D01*
D184*
X008608Y020785D03*
M02*
