G75*
G70*
%OFA0B0*%
%FSLAX24Y24*%
%IPPOS*%
%LPD*%
%AMOC8*
5,1,8,0,0,1.08239X$1,22.5*
%
%ADD10C,0.0886*%
%ADD11C,0.1004*%
%ADD12C,0.2300*%
%ADD13R,0.0276X0.0433*%
%ADD14C,0.0476*%
%ADD15C,0.0120*%
%ADD16C,0.0317*%
%ADD17C,0.0278*%
%ADD18C,0.0396*%
%ADD19C,0.0100*%
%ADD20C,0.0110*%
%ADD21C,0.0258*%
D10*
X029358Y026285D03*
D11*
X030358Y025285D03*
X028358Y025285D03*
X028358Y027285D03*
X030358Y027285D03*
D12*
X001539Y001341D03*
X031460Y001341D03*
X031460Y031262D03*
X001539Y031262D03*
D13*
X012938Y012160D03*
X013528Y012160D03*
D14*
X016358Y004785D03*
X016858Y004785D03*
X017358Y004785D03*
X017858Y004785D03*
X018358Y004785D03*
X018358Y002785D03*
X017858Y002785D03*
X017358Y002785D03*
X016858Y002785D03*
X016358Y002785D03*
D15*
X015608Y002589D02*
X004473Y002589D01*
X004055Y002477D01*
X003681Y002261D01*
X003375Y001955D01*
X003234Y001710D01*
X003234Y002966D01*
X003164Y003036D01*
X000818Y003036D01*
X000818Y029568D01*
X003164Y029568D01*
X003234Y029638D01*
X003234Y031983D01*
X029766Y031983D01*
X029766Y029638D01*
X029836Y029568D01*
X032181Y029568D01*
X032181Y003036D01*
X029836Y003036D01*
X029766Y002966D01*
X029766Y001710D01*
X029624Y001955D01*
X029624Y001955D01*
X029318Y002261D01*
X028944Y002477D01*
X028527Y002589D01*
X018397Y002589D01*
X018431Y002671D01*
X018431Y002899D01*
X018344Y003110D01*
X018244Y003210D01*
X018244Y003862D01*
X018185Y004003D01*
X018076Y004112D01*
X017975Y004213D01*
X018108Y004268D01*
X018244Y004212D01*
X018472Y004212D01*
X018683Y004299D01*
X018844Y004460D01*
X018931Y004671D01*
X018931Y004813D01*
X019185Y005067D01*
X019244Y005208D01*
X019244Y007722D01*
X019277Y007755D01*
X019352Y007937D01*
X019352Y008133D01*
X019277Y008315D01*
X019138Y008454D01*
X018956Y008529D01*
X018857Y008529D01*
X019812Y009166D01*
X019956Y009166D01*
X020138Y009241D01*
X020277Y009380D01*
X020352Y009562D01*
X020352Y009758D01*
X020277Y009940D01*
X020138Y010079D01*
X019956Y010154D01*
X019760Y010154D01*
X019578Y010079D01*
X019439Y009940D01*
X019384Y009807D01*
X018176Y009002D01*
X018140Y008987D01*
X018112Y008960D01*
X018080Y008938D01*
X018059Y008906D01*
X018031Y008878D01*
X018016Y008843D01*
X017995Y008811D01*
X017987Y008773D01*
X017972Y008737D01*
X017972Y008698D01*
X017965Y008660D01*
X017972Y008622D01*
X017972Y008596D01*
X017831Y008654D01*
X017635Y008654D01*
X017453Y008579D01*
X017314Y008440D01*
X017299Y008404D01*
X017260Y008404D01*
X017209Y008383D01*
X017138Y008454D01*
X016956Y008529D01*
X016760Y008529D01*
X016709Y008508D01*
X016638Y008579D01*
X016456Y008654D01*
X016260Y008654D01*
X016078Y008579D01*
X015939Y008440D01*
X015864Y008258D01*
X015864Y008062D01*
X015939Y007880D01*
X015972Y007847D01*
X015972Y007603D01*
X014666Y006623D01*
X014640Y006612D01*
X014605Y006577D01*
X014565Y006547D01*
X014551Y006523D01*
X014531Y006503D01*
X014512Y006458D01*
X014487Y006415D01*
X014483Y006388D01*
X014472Y006362D01*
X014472Y006312D01*
X014465Y006264D01*
X014472Y006236D01*
X014472Y005648D01*
X014456Y005654D01*
X014423Y005654D01*
X013754Y006324D01*
X013754Y009357D01*
X013777Y009380D01*
X013852Y009562D01*
X013852Y009758D01*
X013777Y009940D01*
X013638Y010079D01*
X013456Y010154D01*
X013352Y010154D01*
X013352Y010258D01*
X013277Y010440D01*
X013138Y010579D01*
X012956Y010654D01*
X012760Y010654D01*
X012578Y010579D01*
X012439Y010440D01*
X012364Y010258D01*
X012364Y010062D01*
X012439Y009880D01*
X012462Y009857D01*
X012462Y006081D01*
X012523Y005936D01*
X012634Y005825D01*
X013364Y005095D01*
X013364Y005062D01*
X013439Y004880D01*
X013578Y004741D01*
X013760Y004666D01*
X013956Y004666D01*
X014108Y004729D01*
X014260Y004666D01*
X014456Y004666D01*
X014472Y004672D01*
X014472Y003712D01*
X014466Y003688D01*
X014472Y003636D01*
X014472Y003583D01*
X014482Y003561D01*
X014485Y003536D01*
X014511Y003490D01*
X014531Y003442D01*
X014549Y003424D01*
X014561Y003403D01*
X014602Y003370D01*
X014640Y003333D01*
X014662Y003324D01*
X015608Y002589D01*
X015530Y002649D02*
X003234Y002649D01*
X003234Y002767D02*
X015378Y002767D01*
X015226Y002886D02*
X003234Y002886D01*
X003195Y003004D02*
X015073Y003004D01*
X014921Y003123D02*
X000818Y003123D01*
X000818Y003241D02*
X014769Y003241D01*
X014613Y003360D02*
X000818Y003360D01*
X000818Y003478D02*
X014516Y003478D01*
X014472Y003597D02*
X000818Y003597D01*
X000818Y003715D02*
X014472Y003715D01*
X014472Y003834D02*
X000818Y003834D01*
X000818Y003952D02*
X014472Y003952D01*
X014472Y004071D02*
X012278Y004071D01*
X012206Y004041D02*
X012388Y004116D01*
X012527Y004255D01*
X012602Y004437D01*
X012602Y004633D01*
X012527Y004815D01*
X012388Y004954D01*
X012373Y004960D01*
X012244Y005348D01*
X012244Y012297D01*
X012260Y012291D01*
X012456Y012291D01*
X012638Y012366D01*
X012777Y012505D01*
X012852Y012687D01*
X012852Y012883D01*
X012777Y013065D01*
X012638Y013204D01*
X012456Y013279D01*
X012260Y013279D01*
X012078Y013204D01*
X012044Y013171D01*
X011906Y013171D01*
X011765Y013112D01*
X011640Y012987D01*
X011531Y012878D01*
X011472Y012737D01*
X011472Y005299D01*
X011468Y005236D01*
X011472Y005222D01*
X011472Y005208D01*
X011497Y005150D01*
X011644Y004707D01*
X011614Y004633D01*
X011614Y004437D01*
X011689Y004255D01*
X011828Y004116D01*
X012010Y004041D01*
X012206Y004041D01*
X011938Y004071D02*
X000818Y004071D01*
X000818Y004189D02*
X011755Y004189D01*
X011667Y004308D02*
X000818Y004308D01*
X000818Y004426D02*
X011618Y004426D01*
X011614Y004545D02*
X000818Y004545D01*
X000818Y004663D02*
X011626Y004663D01*
X011619Y004782D02*
X000818Y004782D01*
X000818Y004900D02*
X011580Y004900D01*
X011540Y005019D02*
X000818Y005019D01*
X000818Y005137D02*
X011501Y005137D01*
X011469Y005256D02*
X000818Y005256D01*
X000818Y005374D02*
X011472Y005374D01*
X011472Y005493D02*
X000818Y005493D01*
X000818Y005611D02*
X011472Y005611D01*
X011472Y005730D02*
X000818Y005730D01*
X000818Y005848D02*
X008121Y005848D01*
X008078Y005866D02*
X008260Y005791D01*
X008456Y005791D01*
X008638Y005866D01*
X008777Y006005D01*
X008805Y006074D01*
X008885Y006041D01*
X009081Y006041D01*
X009263Y006116D01*
X009402Y006255D01*
X009477Y006437D01*
X009477Y006633D01*
X009402Y006815D01*
X009263Y006954D01*
X009244Y006962D01*
X009244Y007347D01*
X009277Y007380D01*
X009352Y007562D01*
X009352Y007758D01*
X009277Y007940D01*
X009138Y008079D01*
X008956Y008154D01*
X008760Y008154D01*
X008578Y008079D01*
X008538Y008039D01*
X008527Y008065D01*
X008388Y008204D01*
X008206Y008279D01*
X008010Y008279D01*
X007828Y008204D01*
X007689Y008065D01*
X007614Y007883D01*
X007614Y007687D01*
X007689Y007505D01*
X007722Y007472D01*
X007722Y006458D01*
X007781Y006317D01*
X007864Y006234D01*
X007864Y006187D01*
X007939Y006005D01*
X008078Y005866D01*
X007977Y005967D02*
X000818Y005967D01*
X000818Y006085D02*
X007906Y006085D01*
X007864Y006204D02*
X000818Y006204D01*
X000818Y006322D02*
X007779Y006322D01*
X007730Y006441D02*
X000818Y006441D01*
X000818Y006559D02*
X007722Y006559D01*
X007722Y006678D02*
X000818Y006678D01*
X000818Y006796D02*
X007722Y006796D01*
X007722Y006915D02*
X000818Y006915D01*
X000818Y007033D02*
X007722Y007033D01*
X007722Y007152D02*
X000818Y007152D01*
X000818Y007270D02*
X007722Y007270D01*
X007722Y007389D02*
X000818Y007389D01*
X000818Y007507D02*
X007688Y007507D01*
X007639Y007626D02*
X000818Y007626D01*
X000818Y007744D02*
X007614Y007744D01*
X007614Y007863D02*
X000818Y007863D01*
X000818Y007981D02*
X007654Y007981D01*
X007723Y008100D02*
X000818Y008100D01*
X000818Y008218D02*
X007862Y008218D01*
X008354Y008218D02*
X011472Y008218D01*
X011472Y008100D02*
X009089Y008100D01*
X009236Y007981D02*
X011472Y007981D01*
X011472Y007863D02*
X009309Y007863D01*
X009352Y007744D02*
X011472Y007744D01*
X011472Y007626D02*
X009352Y007626D01*
X009330Y007507D02*
X011472Y007507D01*
X011472Y007389D02*
X009281Y007389D01*
X009244Y007270D02*
X011472Y007270D01*
X011472Y007152D02*
X009244Y007152D01*
X009244Y007033D02*
X011472Y007033D01*
X011472Y006915D02*
X009303Y006915D01*
X009410Y006796D02*
X011472Y006796D01*
X011472Y006678D02*
X009459Y006678D01*
X009477Y006559D02*
X011472Y006559D01*
X011472Y006441D02*
X009477Y006441D01*
X009430Y006322D02*
X011472Y006322D01*
X011472Y006204D02*
X009351Y006204D01*
X009188Y006085D02*
X011472Y006085D01*
X011472Y005967D02*
X008739Y005967D01*
X008595Y005848D02*
X011472Y005848D01*
X012244Y005848D02*
X012611Y005848D01*
X012634Y005825D02*
X012634Y005825D01*
X012729Y005730D02*
X012244Y005730D01*
X012244Y005611D02*
X012848Y005611D01*
X012966Y005493D02*
X012244Y005493D01*
X012244Y005374D02*
X013085Y005374D01*
X013203Y005256D02*
X012274Y005256D01*
X012314Y005137D02*
X013322Y005137D01*
X013382Y005019D02*
X012353Y005019D01*
X012442Y004900D02*
X013431Y004900D01*
X013537Y004782D02*
X012541Y004782D01*
X012590Y004663D02*
X014472Y004663D01*
X014472Y004545D02*
X012602Y004545D01*
X012598Y004426D02*
X014472Y004426D01*
X014472Y004308D02*
X012549Y004308D01*
X012461Y004189D02*
X014472Y004189D01*
X014358Y005160D02*
X013358Y006160D01*
X013358Y009660D01*
X013554Y010114D02*
X019662Y010114D01*
X019494Y009996D02*
X013722Y009996D01*
X013803Y009877D02*
X019413Y009877D01*
X019311Y009759D02*
X013852Y009759D01*
X013852Y009640D02*
X019133Y009640D01*
X018955Y009522D02*
X013836Y009522D01*
X013787Y009403D02*
X018777Y009403D01*
X018600Y009285D02*
X013754Y009285D01*
X013754Y009166D02*
X018422Y009166D01*
X018244Y009048D02*
X013754Y009048D01*
X013754Y008929D02*
X018074Y008929D01*
X017995Y008811D02*
X013754Y008811D01*
X013754Y008692D02*
X017971Y008692D01*
X017447Y008574D02*
X016644Y008574D01*
X017136Y008455D02*
X017329Y008455D01*
X016072Y008574D02*
X013754Y008574D01*
X013754Y008455D02*
X015954Y008455D01*
X015896Y008337D02*
X013754Y008337D01*
X013754Y008218D02*
X015864Y008218D01*
X015864Y008100D02*
X013754Y008100D01*
X013754Y007981D02*
X015897Y007981D01*
X015956Y007863D02*
X013754Y007863D01*
X013754Y007744D02*
X015972Y007744D01*
X015972Y007626D02*
X013754Y007626D01*
X013754Y007507D02*
X015845Y007507D01*
X015687Y007389D02*
X013754Y007389D01*
X013754Y007270D02*
X015529Y007270D01*
X015371Y007152D02*
X013754Y007152D01*
X013754Y007033D02*
X015213Y007033D01*
X015055Y006915D02*
X013754Y006915D01*
X013754Y006796D02*
X014897Y006796D01*
X014739Y006678D02*
X013754Y006678D01*
X013754Y006559D02*
X014581Y006559D01*
X014502Y006441D02*
X013754Y006441D01*
X013755Y006322D02*
X014472Y006322D01*
X014472Y006204D02*
X013874Y006204D01*
X013992Y006085D02*
X014472Y006085D01*
X014472Y005967D02*
X014111Y005967D01*
X014229Y005848D02*
X014472Y005848D01*
X014472Y005730D02*
X014348Y005730D01*
X013858Y005160D02*
X012858Y006160D01*
X012858Y010160D01*
X012402Y010351D02*
X012244Y010351D01*
X012244Y010233D02*
X012364Y010233D01*
X012364Y010114D02*
X012244Y010114D01*
X012244Y009996D02*
X012391Y009996D01*
X012442Y009877D02*
X012244Y009877D01*
X012244Y009759D02*
X012462Y009759D01*
X012462Y009640D02*
X012244Y009640D01*
X012244Y009522D02*
X012462Y009522D01*
X012462Y009403D02*
X012244Y009403D01*
X012244Y009285D02*
X012462Y009285D01*
X012462Y009166D02*
X012244Y009166D01*
X012244Y009048D02*
X012462Y009048D01*
X012462Y008929D02*
X012244Y008929D01*
X012244Y008811D02*
X012462Y008811D01*
X012462Y008692D02*
X012244Y008692D01*
X012244Y008574D02*
X012462Y008574D01*
X012462Y008455D02*
X012244Y008455D01*
X012244Y008337D02*
X012462Y008337D01*
X012462Y008218D02*
X012244Y008218D01*
X012244Y008100D02*
X012462Y008100D01*
X012462Y007981D02*
X012244Y007981D01*
X012244Y007863D02*
X012462Y007863D01*
X012462Y007744D02*
X012244Y007744D01*
X012244Y007626D02*
X012462Y007626D01*
X012462Y007507D02*
X012244Y007507D01*
X012244Y007389D02*
X012462Y007389D01*
X012462Y007270D02*
X012244Y007270D01*
X012244Y007152D02*
X012462Y007152D01*
X012462Y007033D02*
X012244Y007033D01*
X012244Y006915D02*
X012462Y006915D01*
X012462Y006796D02*
X012244Y006796D01*
X012244Y006678D02*
X012462Y006678D01*
X012462Y006559D02*
X012244Y006559D01*
X012244Y006441D02*
X012462Y006441D01*
X012462Y006322D02*
X012244Y006322D01*
X012244Y006204D02*
X012462Y006204D01*
X012462Y006085D02*
X012244Y006085D01*
X012244Y005967D02*
X012510Y005967D01*
X011472Y008337D02*
X000818Y008337D01*
X000818Y008455D02*
X011472Y008455D01*
X011472Y008574D02*
X000818Y008574D01*
X000818Y008692D02*
X011472Y008692D01*
X011472Y008811D02*
X000818Y008811D01*
X000818Y008929D02*
X011472Y008929D01*
X011472Y009048D02*
X000818Y009048D01*
X000818Y009166D02*
X011472Y009166D01*
X011472Y009285D02*
X000818Y009285D01*
X000818Y009403D02*
X011472Y009403D01*
X011472Y009522D02*
X000818Y009522D01*
X000818Y009640D02*
X011472Y009640D01*
X011472Y009759D02*
X000818Y009759D01*
X000818Y009877D02*
X002067Y009877D01*
X002078Y009866D02*
X002260Y009791D01*
X002456Y009791D01*
X002638Y009866D01*
X002671Y009899D01*
X005560Y009899D01*
X005701Y009958D01*
X005909Y010166D01*
X005956Y010166D01*
X006138Y010241D01*
X006171Y010274D01*
X008294Y010274D01*
X008328Y010241D01*
X008510Y010166D01*
X008706Y010166D01*
X008888Y010241D01*
X009027Y010380D01*
X009102Y010562D01*
X009102Y010758D01*
X009027Y010940D01*
X008888Y011079D01*
X008706Y011154D01*
X008510Y011154D01*
X008328Y011079D01*
X008294Y011046D01*
X006171Y011046D01*
X006138Y011079D01*
X005956Y011154D01*
X005760Y011154D01*
X005578Y011079D01*
X005439Y010940D01*
X005364Y010758D01*
X005364Y010711D01*
X005323Y010671D01*
X002671Y010671D01*
X002638Y010704D01*
X002456Y010779D01*
X002260Y010779D01*
X002078Y010704D01*
X001939Y010565D01*
X001864Y010383D01*
X001864Y010187D01*
X001939Y010005D01*
X002078Y009866D01*
X001948Y009996D02*
X000818Y009996D01*
X000818Y010114D02*
X001894Y010114D01*
X001864Y010233D02*
X000818Y010233D01*
X000818Y010351D02*
X001864Y010351D01*
X001899Y010470D02*
X000818Y010470D01*
X000818Y010588D02*
X001962Y010588D01*
X002084Y010707D02*
X000818Y010707D01*
X000818Y010825D02*
X005391Y010825D01*
X005359Y010707D02*
X002632Y010707D01*
X002649Y009877D02*
X011472Y009877D01*
X011472Y009996D02*
X005739Y009996D01*
X005857Y010114D02*
X011472Y010114D01*
X011472Y010233D02*
X008868Y010233D01*
X008998Y010351D02*
X011472Y010351D01*
X011472Y010470D02*
X009064Y010470D01*
X009102Y010588D02*
X011472Y010588D01*
X011472Y010707D02*
X009102Y010707D01*
X009075Y010825D02*
X011472Y010825D01*
X011472Y010944D02*
X009024Y010944D01*
X008905Y011062D02*
X011472Y011062D01*
X011472Y011181D02*
X000818Y011181D01*
X000818Y011299D02*
X011472Y011299D01*
X011472Y011418D02*
X000818Y011418D01*
X000818Y011536D02*
X011472Y011536D01*
X011472Y011655D02*
X000818Y011655D01*
X000818Y011773D02*
X011472Y011773D01*
X011472Y011892D02*
X000818Y011892D01*
X000818Y012010D02*
X011472Y012010D01*
X011472Y012129D02*
X000818Y012129D01*
X000818Y012247D02*
X011472Y012247D01*
X011472Y012366D02*
X000818Y012366D01*
X000818Y012484D02*
X011472Y012484D01*
X011472Y012603D02*
X000818Y012603D01*
X000818Y012721D02*
X011472Y012721D01*
X011515Y012840D02*
X000818Y012840D01*
X000818Y012958D02*
X011611Y012958D01*
X011729Y013077D02*
X000818Y013077D01*
X000818Y013195D02*
X012069Y013195D01*
X012647Y013195D02*
X016967Y013195D01*
X016967Y013077D02*
X014016Y013077D01*
X014013Y013079D02*
X013831Y013154D01*
X013635Y013154D01*
X013453Y013079D01*
X013314Y012940D01*
X013239Y012758D01*
X013239Y012677D01*
X013200Y012661D01*
X013106Y012567D01*
X013055Y012443D01*
X013055Y011877D01*
X013106Y011753D01*
X013200Y011659D01*
X013324Y011608D01*
X013733Y011608D01*
X013856Y011659D01*
X013951Y011753D01*
X014002Y011877D01*
X014002Y012077D01*
X014004Y012081D01*
X014004Y012121D01*
X014068Y012186D01*
X014129Y012331D01*
X014129Y012357D01*
X014152Y012380D01*
X014227Y012562D01*
X014227Y012758D01*
X014152Y012940D01*
X014013Y013079D01*
X014134Y012958D02*
X016967Y012958D01*
X016967Y012840D02*
X014194Y012840D01*
X014227Y012721D02*
X016867Y012721D01*
X016967Y012822D02*
X016696Y012551D01*
X016666Y012551D01*
X016638Y012579D01*
X016456Y012654D01*
X016260Y012654D01*
X016078Y012579D01*
X015939Y012440D01*
X015864Y012258D01*
X015864Y012062D01*
X015939Y011880D01*
X016078Y011741D01*
X016114Y011726D01*
X016114Y011687D01*
X016189Y011505D01*
X016328Y011366D01*
X016510Y011291D01*
X016706Y011291D01*
X016888Y011366D01*
X016916Y011394D01*
X017061Y011394D01*
X017204Y011454D01*
X017954Y012204D01*
X018064Y012314D01*
X018124Y012457D01*
X018124Y013860D01*
X018138Y013866D01*
X018277Y014005D01*
X018352Y014187D01*
X018352Y014383D01*
X018295Y014523D01*
X018402Y014630D01*
X018477Y014812D01*
X018477Y015008D01*
X018402Y015190D01*
X018263Y015329D01*
X018081Y015404D01*
X017885Y015404D01*
X017703Y015329D01*
X017564Y015190D01*
X017489Y015008D01*
X017489Y014968D01*
X017027Y014506D01*
X016967Y014363D01*
X016967Y012822D01*
X016748Y012603D02*
X016581Y012603D01*
X016135Y012603D02*
X014227Y012603D01*
X014195Y012484D02*
X015983Y012484D01*
X015908Y012366D02*
X014138Y012366D01*
X014094Y012247D02*
X015864Y012247D01*
X015864Y012129D02*
X014011Y012129D01*
X014002Y012010D02*
X015885Y012010D01*
X015934Y011892D02*
X014002Y011892D01*
X013959Y011773D02*
X016046Y011773D01*
X016127Y011655D02*
X013845Y011655D01*
X013211Y011655D02*
X012244Y011655D01*
X012244Y011773D02*
X013098Y011773D01*
X013055Y011892D02*
X012244Y011892D01*
X012244Y012010D02*
X013055Y012010D01*
X013055Y012129D02*
X012244Y012129D01*
X012244Y012247D02*
X013055Y012247D01*
X013055Y012366D02*
X012637Y012366D01*
X012756Y012484D02*
X013072Y012484D01*
X013142Y012603D02*
X012817Y012603D01*
X012858Y012660D02*
X012938Y012580D01*
X012938Y012160D01*
X013483Y012160D02*
X013528Y012160D01*
X013608Y012160D01*
X013483Y012160D02*
X013733Y012410D01*
X013733Y012660D01*
X013272Y012840D02*
X012852Y012840D01*
X012852Y012721D02*
X013239Y012721D01*
X013332Y012958D02*
X012821Y012958D01*
X012766Y013077D02*
X013450Y013077D01*
X012244Y011536D02*
X016176Y011536D01*
X016276Y011418D02*
X012244Y011418D01*
X012244Y011299D02*
X016489Y011299D01*
X016726Y011299D02*
X032181Y011299D01*
X032181Y011181D02*
X012244Y011181D01*
X012244Y011062D02*
X032181Y011062D01*
X032181Y010944D02*
X012244Y010944D01*
X012244Y010825D02*
X032181Y010825D01*
X032181Y010707D02*
X012244Y010707D01*
X012244Y010588D02*
X012600Y010588D01*
X012468Y010470D02*
X012244Y010470D01*
X013116Y010588D02*
X032181Y010588D01*
X032181Y010470D02*
X013248Y010470D01*
X013314Y010351D02*
X032181Y010351D01*
X032181Y010233D02*
X013352Y010233D01*
X017116Y011418D02*
X032181Y011418D01*
X032181Y011536D02*
X017286Y011536D01*
X017405Y011655D02*
X032181Y011655D01*
X032181Y011773D02*
X017523Y011773D01*
X017642Y011892D02*
X032181Y011892D01*
X032181Y012010D02*
X017760Y012010D01*
X017879Y012129D02*
X032181Y012129D01*
X032181Y012247D02*
X017997Y012247D01*
X018086Y012366D02*
X032181Y012366D01*
X032181Y012484D02*
X018124Y012484D01*
X018124Y012603D02*
X032181Y012603D01*
X032181Y012721D02*
X018124Y012721D01*
X018124Y012840D02*
X032181Y012840D01*
X032181Y012958D02*
X018124Y012958D01*
X018124Y013077D02*
X032181Y013077D01*
X032181Y013195D02*
X022476Y013195D01*
X022452Y013185D02*
X022627Y013258D01*
X022760Y013391D01*
X022833Y013566D01*
X022833Y013754D01*
X022760Y013929D01*
X022627Y014062D01*
X022452Y014135D01*
X022264Y014135D01*
X022089Y014062D01*
X022072Y014046D01*
X021644Y014046D01*
X021627Y014062D01*
X021452Y014135D01*
X021264Y014135D01*
X021089Y014062D01*
X020956Y013929D01*
X020883Y013754D01*
X020883Y013566D01*
X020956Y013391D01*
X021089Y013258D01*
X021264Y013185D01*
X021452Y013185D01*
X021627Y013258D01*
X021644Y013274D01*
X022072Y013274D01*
X022089Y013258D01*
X022264Y013185D01*
X022452Y013185D01*
X022240Y013195D02*
X021476Y013195D01*
X021240Y013195D02*
X018124Y013195D01*
X018124Y013314D02*
X021033Y013314D01*
X020939Y013432D02*
X018124Y013432D01*
X018124Y013551D02*
X020890Y013551D01*
X020883Y013669D02*
X018124Y013669D01*
X018124Y013788D02*
X020897Y013788D01*
X020946Y013906D02*
X018178Y013906D01*
X018285Y014025D02*
X021051Y014025D01*
X022665Y014025D02*
X032181Y014025D01*
X032181Y014143D02*
X018334Y014143D01*
X018352Y014262D02*
X032181Y014262D01*
X032181Y014380D02*
X018352Y014380D01*
X018305Y014499D02*
X032181Y014499D01*
X032181Y014617D02*
X018389Y014617D01*
X018446Y014736D02*
X032181Y014736D01*
X032181Y014854D02*
X018477Y014854D01*
X018477Y014973D02*
X032181Y014973D01*
X032181Y015091D02*
X018443Y015091D01*
X018383Y015210D02*
X032181Y015210D01*
X032181Y015328D02*
X018264Y015328D01*
X017702Y015328D02*
X000818Y015328D01*
X000818Y015210D02*
X017583Y015210D01*
X017523Y015091D02*
X000818Y015091D01*
X000818Y014973D02*
X017489Y014973D01*
X017375Y014854D02*
X005776Y014854D01*
X005702Y014885D02*
X005514Y014885D01*
X005339Y014812D01*
X005206Y014679D01*
X005133Y014504D01*
X005133Y014316D01*
X005206Y014141D01*
X005339Y014008D01*
X005514Y013935D01*
X005530Y013935D01*
X005637Y013829D01*
X005780Y013769D01*
X009077Y013769D01*
X009089Y013758D01*
X009264Y013685D01*
X009452Y013685D01*
X009627Y013758D01*
X009760Y013891D01*
X009833Y014066D01*
X009833Y014254D01*
X009760Y014429D01*
X009627Y014562D01*
X009452Y014635D01*
X009264Y014635D01*
X009089Y014562D01*
X009077Y014551D01*
X006064Y014551D01*
X006010Y014679D01*
X005877Y014812D01*
X005702Y014885D01*
X005440Y014854D02*
X000818Y014854D01*
X000818Y014736D02*
X005262Y014736D01*
X005180Y014617D02*
X000818Y014617D01*
X000818Y014499D02*
X005133Y014499D01*
X005133Y014380D02*
X000818Y014380D01*
X000818Y014262D02*
X005156Y014262D01*
X005205Y014143D02*
X000818Y014143D01*
X000818Y014025D02*
X005322Y014025D01*
X005560Y013906D02*
X000818Y013906D01*
X000818Y013788D02*
X005737Y013788D01*
X006036Y014617D02*
X009221Y014617D01*
X009495Y014617D02*
X017138Y014617D01*
X017024Y014499D02*
X009691Y014499D01*
X009781Y014380D02*
X016975Y014380D01*
X016967Y014262D02*
X009830Y014262D01*
X009833Y014143D02*
X016967Y014143D01*
X016967Y014025D02*
X009816Y014025D01*
X009767Y013906D02*
X016967Y013906D01*
X016967Y013788D02*
X009657Y013788D01*
X008827Y015935D02*
X009002Y016008D01*
X009135Y016141D01*
X009208Y016316D01*
X009208Y016504D01*
X009135Y016679D01*
X009002Y016812D01*
X008827Y016885D01*
X008639Y016885D01*
X008464Y016812D01*
X008457Y016806D01*
X008147Y016806D01*
X008129Y016824D01*
X008129Y017884D01*
X008135Y017891D01*
X008208Y018066D01*
X008208Y018254D01*
X008135Y018429D01*
X008002Y018562D01*
X007827Y018635D01*
X007639Y018635D01*
X007464Y018562D01*
X007457Y018556D01*
X005022Y018556D01*
X004754Y018824D01*
X004754Y022996D01*
X005022Y023264D01*
X005082Y023264D01*
X005089Y023258D01*
X005264Y023185D01*
X005452Y023185D01*
X005627Y023258D01*
X005760Y023391D01*
X005833Y023566D01*
X005833Y023754D01*
X005760Y023929D01*
X005627Y024062D01*
X005452Y024135D01*
X005264Y024135D01*
X005089Y024062D01*
X005082Y024056D01*
X004779Y024056D01*
X004634Y023995D01*
X004134Y023495D01*
X004023Y023384D01*
X003962Y023239D01*
X003962Y018581D01*
X004023Y018436D01*
X004523Y017936D01*
X004634Y017825D01*
X004779Y017764D01*
X007337Y017764D01*
X007337Y016581D01*
X007398Y016436D01*
X007759Y016075D01*
X007904Y016014D01*
X008457Y016014D01*
X008464Y016008D01*
X008639Y015935D01*
X008827Y015935D01*
X009033Y016039D02*
X024405Y016039D01*
X024453Y015991D02*
X024314Y016130D01*
X024258Y016264D01*
X023161Y016264D01*
X023138Y016241D01*
X022956Y016166D01*
X022760Y016166D01*
X022578Y016241D01*
X022439Y016380D01*
X022364Y016562D01*
X022364Y016758D01*
X022439Y016940D01*
X022578Y017079D01*
X022760Y017154D01*
X022956Y017154D01*
X023138Y017079D01*
X023161Y017056D01*
X024562Y017056D01*
X024707Y016995D01*
X024798Y016904D01*
X024831Y016904D01*
X025013Y016829D01*
X025152Y016690D01*
X025227Y016508D01*
X025227Y016312D01*
X025152Y016130D01*
X025013Y015991D01*
X024831Y015916D01*
X024635Y015916D01*
X024453Y015991D01*
X024623Y015921D02*
X000818Y015921D01*
X000818Y016039D02*
X007845Y016039D01*
X007676Y016158D02*
X000818Y016158D01*
X000818Y016276D02*
X007558Y016276D01*
X007439Y016395D02*
X000818Y016395D01*
X000818Y016513D02*
X007366Y016513D01*
X007337Y016632D02*
X000818Y016632D01*
X000818Y016750D02*
X007337Y016750D01*
X007337Y016869D02*
X000818Y016869D01*
X000818Y016987D02*
X007337Y016987D01*
X007337Y017106D02*
X000818Y017106D01*
X000818Y017224D02*
X007337Y017224D01*
X007337Y017343D02*
X000818Y017343D01*
X000818Y017461D02*
X007337Y017461D01*
X007337Y017580D02*
X000818Y017580D01*
X000818Y017698D02*
X007337Y017698D01*
X007733Y018160D02*
X007733Y016660D01*
X007983Y016410D01*
X008733Y016410D01*
X009064Y016750D02*
X022364Y016750D01*
X022364Y016632D02*
X009155Y016632D01*
X009204Y016513D02*
X022384Y016513D01*
X022433Y016395D02*
X009208Y016395D01*
X009191Y016276D02*
X022543Y016276D01*
X022858Y016660D02*
X024483Y016660D01*
X024733Y016410D01*
X024918Y016869D02*
X032181Y016869D01*
X032181Y016987D02*
X024715Y016987D01*
X025092Y016750D02*
X032181Y016750D01*
X032181Y016632D02*
X025176Y016632D01*
X025225Y016513D02*
X032181Y016513D01*
X032181Y016395D02*
X025227Y016395D01*
X025213Y016276D02*
X032181Y016276D01*
X032181Y016158D02*
X025163Y016158D01*
X025061Y016039D02*
X032181Y016039D01*
X032181Y015921D02*
X024843Y015921D01*
X024303Y016158D02*
X009142Y016158D01*
X008866Y016869D02*
X022409Y016869D01*
X022486Y016987D02*
X008129Y016987D01*
X008129Y016869D02*
X008600Y016869D01*
X008129Y017106D02*
X022642Y017106D01*
X023074Y017106D02*
X032181Y017106D01*
X032181Y017224D02*
X008129Y017224D01*
X008129Y017343D02*
X032181Y017343D01*
X032181Y017461D02*
X008129Y017461D01*
X008129Y017580D02*
X032181Y017580D01*
X032181Y017698D02*
X008129Y017698D01*
X008129Y017817D02*
X032181Y017817D01*
X032181Y017935D02*
X008154Y017935D01*
X008203Y018054D02*
X032181Y018054D01*
X032181Y018172D02*
X008208Y018172D01*
X008193Y018291D02*
X032181Y018291D01*
X032181Y018409D02*
X008144Y018409D01*
X008037Y018528D02*
X032181Y018528D01*
X032181Y018646D02*
X004931Y018646D01*
X004813Y018765D02*
X032181Y018765D01*
X032181Y018883D02*
X004754Y018883D01*
X004754Y019002D02*
X032181Y019002D01*
X032181Y019120D02*
X004754Y019120D01*
X004754Y019239D02*
X032181Y019239D01*
X032181Y019357D02*
X004754Y019357D01*
X004754Y019476D02*
X032181Y019476D01*
X032181Y019594D02*
X012409Y019594D01*
X012327Y019560D02*
X012502Y019633D01*
X012635Y019766D01*
X012708Y019941D01*
X012708Y020129D01*
X012635Y020304D01*
X012502Y020437D01*
X012327Y020510D01*
X012139Y020510D01*
X011964Y020437D01*
X011885Y020359D01*
X011570Y020296D01*
X010018Y020296D01*
X009201Y021112D01*
X009060Y021171D01*
X008880Y021171D01*
X008871Y021179D01*
X008700Y021250D01*
X008516Y021250D01*
X008345Y021179D01*
X008214Y021048D01*
X008143Y020877D01*
X008143Y020693D01*
X008214Y020522D01*
X008345Y020391D01*
X008516Y020320D01*
X008700Y020320D01*
X008843Y020379D01*
X009531Y019692D01*
X009640Y019583D01*
X009781Y019524D01*
X011570Y019524D01*
X011608Y019517D01*
X011646Y019524D01*
X011685Y019524D01*
X011721Y019539D01*
X012037Y019603D01*
X012139Y019560D01*
X012327Y019560D01*
X012057Y019594D02*
X011994Y019594D01*
X012582Y019713D02*
X032181Y019713D01*
X032181Y019831D02*
X012662Y019831D01*
X012708Y019950D02*
X032181Y019950D01*
X032181Y020068D02*
X012708Y020068D01*
X012684Y020187D02*
X032181Y020187D01*
X032181Y020305D02*
X012634Y020305D01*
X012516Y020424D02*
X032181Y020424D01*
X032181Y020542D02*
X009771Y020542D01*
X009653Y020661D02*
X032181Y020661D01*
X032181Y020779D02*
X009534Y020779D01*
X009416Y020898D02*
X032181Y020898D01*
X032181Y021016D02*
X009297Y021016D01*
X009147Y021135D02*
X032181Y021135D01*
X032181Y021253D02*
X004754Y021253D01*
X004754Y021135D02*
X008300Y021135D01*
X008201Y021016D02*
X004754Y021016D01*
X004754Y020898D02*
X008152Y020898D01*
X008143Y020779D02*
X004754Y020779D01*
X004754Y020661D02*
X008156Y020661D01*
X008206Y020542D02*
X004754Y020542D01*
X004754Y020424D02*
X008312Y020424D01*
X008918Y020305D02*
X004754Y020305D01*
X004754Y020187D02*
X009036Y020187D01*
X009155Y020068D02*
X004754Y020068D01*
X004754Y019950D02*
X009273Y019950D01*
X009392Y019831D02*
X004754Y019831D01*
X004754Y019713D02*
X009510Y019713D01*
X009629Y019594D02*
X004754Y019594D01*
X003962Y019594D02*
X000818Y019594D01*
X000818Y019476D02*
X003962Y019476D01*
X003962Y019357D02*
X000818Y019357D01*
X000818Y019239D02*
X003962Y019239D01*
X003962Y019120D02*
X000818Y019120D01*
X000818Y019002D02*
X003962Y019002D01*
X003962Y018883D02*
X000818Y018883D01*
X000818Y018765D02*
X003962Y018765D01*
X003962Y018646D02*
X000818Y018646D01*
X000818Y018528D02*
X003985Y018528D01*
X004049Y018409D02*
X000818Y018409D01*
X000818Y018291D02*
X004168Y018291D01*
X004286Y018172D02*
X000818Y018172D01*
X000818Y018054D02*
X004405Y018054D01*
X004524Y017935D02*
X000818Y017935D01*
X000818Y017817D02*
X004653Y017817D01*
X004858Y018160D02*
X007733Y018160D01*
X009890Y020424D02*
X011950Y020424D01*
X011617Y020305D02*
X010008Y020305D01*
X009952Y021685D02*
X009764Y021685D01*
X009589Y021758D01*
X009572Y021774D01*
X008394Y021774D01*
X008377Y021758D01*
X008202Y021685D01*
X008014Y021685D01*
X007839Y021758D01*
X007706Y021891D01*
X007633Y022066D01*
X007633Y022254D01*
X007706Y022429D01*
X007839Y022562D01*
X008014Y022635D01*
X008202Y022635D01*
X008377Y022562D01*
X008394Y022546D01*
X009572Y022546D01*
X009589Y022562D01*
X009764Y022635D01*
X009952Y022635D01*
X010127Y022562D01*
X010260Y022429D01*
X010333Y022254D01*
X010333Y022066D01*
X010260Y021891D01*
X010127Y021758D01*
X009952Y021685D01*
X010053Y021727D02*
X032181Y021727D01*
X032181Y021609D02*
X004754Y021609D01*
X004754Y021727D02*
X007913Y021727D01*
X007751Y021846D02*
X004754Y021846D01*
X004754Y021964D02*
X007675Y021964D01*
X007633Y022083D02*
X004754Y022083D01*
X004754Y022201D02*
X007633Y022201D01*
X007660Y022320D02*
X004754Y022320D01*
X004754Y022438D02*
X007715Y022438D01*
X007833Y022557D02*
X004754Y022557D01*
X004754Y022675D02*
X032181Y022675D01*
X032181Y022557D02*
X010133Y022557D01*
X010251Y022438D02*
X032181Y022438D01*
X032181Y022320D02*
X010306Y022320D01*
X010333Y022201D02*
X032181Y022201D01*
X032181Y022083D02*
X010333Y022083D01*
X010291Y021964D02*
X032181Y021964D01*
X032181Y021846D02*
X010215Y021846D01*
X009663Y021727D02*
X008303Y021727D01*
X008383Y022557D02*
X009583Y022557D01*
X005807Y023505D02*
X032181Y023505D01*
X032181Y023623D02*
X005833Y023623D01*
X005833Y023742D02*
X032181Y023742D01*
X032181Y023860D02*
X005789Y023860D01*
X005711Y023979D02*
X032181Y023979D01*
X032181Y024097D02*
X005543Y024097D01*
X005173Y024097D02*
X000818Y024097D01*
X000818Y023979D02*
X004617Y023979D01*
X004499Y023860D02*
X000818Y023860D01*
X000818Y023742D02*
X004380Y023742D01*
X004262Y023623D02*
X000818Y023623D01*
X000818Y023505D02*
X004143Y023505D01*
X004025Y023386D02*
X000818Y023386D01*
X000818Y023268D02*
X003974Y023268D01*
X003962Y023149D02*
X000818Y023149D01*
X000818Y023031D02*
X003962Y023031D01*
X003962Y022912D02*
X000818Y022912D01*
X000818Y022794D02*
X003962Y022794D01*
X003962Y022675D02*
X000818Y022675D01*
X000818Y022557D02*
X003962Y022557D01*
X003962Y022438D02*
X000818Y022438D01*
X000818Y022320D02*
X003962Y022320D01*
X003962Y022201D02*
X000818Y022201D01*
X000818Y022083D02*
X003962Y022083D01*
X003962Y021964D02*
X000818Y021964D01*
X000818Y021846D02*
X003962Y021846D01*
X003962Y021727D02*
X000818Y021727D01*
X000818Y021609D02*
X003962Y021609D01*
X003962Y021490D02*
X000818Y021490D01*
X000818Y021372D02*
X003962Y021372D01*
X003962Y021253D02*
X000818Y021253D01*
X000818Y021135D02*
X003962Y021135D01*
X003962Y021016D02*
X000818Y021016D01*
X000818Y020898D02*
X003962Y020898D01*
X003962Y020779D02*
X000818Y020779D01*
X000818Y020661D02*
X003962Y020661D01*
X003962Y020542D02*
X000818Y020542D01*
X000818Y020424D02*
X003962Y020424D01*
X003962Y020305D02*
X000818Y020305D01*
X000818Y020187D02*
X003962Y020187D01*
X003962Y020068D02*
X000818Y020068D01*
X000818Y019950D02*
X003962Y019950D01*
X003962Y019831D02*
X000818Y019831D01*
X000818Y019713D02*
X003962Y019713D01*
X004358Y018660D02*
X004858Y018160D01*
X004358Y018660D02*
X004358Y023160D01*
X004858Y023660D01*
X005358Y023660D01*
X005637Y023268D02*
X032181Y023268D01*
X032181Y023386D02*
X005755Y023386D01*
X004906Y023149D02*
X032181Y023149D01*
X032181Y023031D02*
X004788Y023031D01*
X004754Y022912D02*
X032181Y022912D01*
X032181Y022794D02*
X004754Y022794D01*
X004754Y021490D02*
X032181Y021490D01*
X032181Y021372D02*
X004754Y021372D01*
X000818Y024216D02*
X032181Y024216D01*
X032181Y024334D02*
X000818Y024334D01*
X000818Y024453D02*
X032181Y024453D01*
X032181Y024571D02*
X000818Y024571D01*
X000818Y024690D02*
X032181Y024690D01*
X032181Y024808D02*
X000818Y024808D01*
X000818Y024927D02*
X032181Y024927D01*
X032181Y025045D02*
X000818Y025045D01*
X000818Y025164D02*
X032181Y025164D01*
X032181Y025282D02*
X000818Y025282D01*
X000818Y025401D02*
X032181Y025401D01*
X032181Y025519D02*
X029543Y025519D01*
X029513Y025507D02*
X029799Y025625D01*
X030018Y025844D01*
X030136Y026130D01*
X030136Y026440D01*
X030018Y026726D01*
X029799Y026945D01*
X029513Y027064D01*
X029203Y027064D01*
X028917Y026945D01*
X028698Y026726D01*
X028579Y026440D01*
X028579Y026130D01*
X028698Y025844D01*
X028917Y025625D01*
X029203Y025507D01*
X029513Y025507D01*
X029812Y025638D02*
X032181Y025638D01*
X032181Y025756D02*
X029930Y025756D01*
X030031Y025875D02*
X032181Y025875D01*
X032181Y025993D02*
X030080Y025993D01*
X030129Y026112D02*
X032181Y026112D01*
X032181Y026230D02*
X030136Y026230D01*
X030136Y026349D02*
X032181Y026349D01*
X032181Y026467D02*
X030125Y026467D01*
X030076Y026586D02*
X032181Y026586D01*
X032181Y026704D02*
X030027Y026704D01*
X029921Y026823D02*
X032181Y026823D01*
X032181Y026941D02*
X029803Y026941D01*
X029522Y027060D02*
X032181Y027060D01*
X032181Y027178D02*
X000818Y027178D01*
X000818Y027060D02*
X029194Y027060D01*
X028913Y026941D02*
X000818Y026941D01*
X000818Y026823D02*
X028795Y026823D01*
X028689Y026704D02*
X000818Y026704D01*
X000818Y026586D02*
X028640Y026586D01*
X028591Y026467D02*
X000818Y026467D01*
X000818Y026349D02*
X028579Y026349D01*
X028579Y026230D02*
X000818Y026230D01*
X000818Y026112D02*
X028587Y026112D01*
X028636Y025993D02*
X000818Y025993D01*
X000818Y025875D02*
X028685Y025875D01*
X028786Y025756D02*
X000818Y025756D01*
X000818Y025638D02*
X028904Y025638D01*
X029173Y025519D02*
X000818Y025519D01*
X000818Y027297D02*
X032181Y027297D01*
X032181Y027415D02*
X000818Y027415D01*
X000818Y027534D02*
X032181Y027534D01*
X032181Y027652D02*
X000818Y027652D01*
X000818Y027771D02*
X032181Y027771D01*
X032181Y027889D02*
X000818Y027889D01*
X000818Y028008D02*
X032181Y028008D01*
X032181Y028126D02*
X000818Y028126D01*
X000818Y028245D02*
X032181Y028245D01*
X032181Y028363D02*
X000818Y028363D01*
X000818Y028482D02*
X032181Y028482D01*
X032181Y028600D02*
X000818Y028600D01*
X000818Y028719D02*
X032181Y028719D01*
X032181Y028837D02*
X000818Y028837D01*
X000818Y028956D02*
X032181Y028956D01*
X032181Y029074D02*
X000818Y029074D01*
X000818Y029193D02*
X032181Y029193D01*
X032181Y029311D02*
X000818Y029311D01*
X000818Y029430D02*
X032181Y029430D01*
X032181Y029548D02*
X000818Y029548D01*
X003234Y029667D02*
X029766Y029667D01*
X029766Y029785D02*
X003234Y029785D01*
X003234Y029904D02*
X029766Y029904D01*
X029766Y030022D02*
X003234Y030022D01*
X003234Y030141D02*
X029766Y030141D01*
X029766Y030259D02*
X003234Y030259D01*
X003234Y030378D02*
X029766Y030378D01*
X029766Y030496D02*
X003234Y030496D01*
X003234Y030615D02*
X029766Y030615D01*
X029766Y030733D02*
X003234Y030733D01*
X003234Y030852D02*
X029766Y030852D01*
X029766Y030970D02*
X003234Y030970D01*
X003234Y031089D02*
X029766Y031089D01*
X029766Y031207D02*
X003234Y031207D01*
X003234Y031326D02*
X029766Y031326D01*
X029766Y031444D02*
X003234Y031444D01*
X003234Y031563D02*
X029766Y031563D01*
X029766Y031681D02*
X003234Y031681D01*
X003234Y031800D02*
X029766Y031800D01*
X029766Y031918D02*
X003234Y031918D01*
X000818Y015802D02*
X032181Y015802D01*
X032181Y015684D02*
X000818Y015684D01*
X000818Y015565D02*
X032181Y015565D01*
X032181Y015447D02*
X000818Y015447D01*
X000818Y013669D02*
X016967Y013669D01*
X016967Y013551D02*
X000818Y013551D01*
X000818Y013432D02*
X016967Y013432D01*
X016967Y013314D02*
X000818Y013314D01*
X000818Y011062D02*
X005561Y011062D01*
X005442Y010944D02*
X000818Y010944D01*
X006155Y011062D02*
X008311Y011062D01*
X008348Y010233D02*
X006118Y010233D01*
X008493Y008100D02*
X008627Y008100D01*
X004254Y002530D02*
X003234Y002530D01*
X003234Y002412D02*
X003942Y002412D01*
X004055Y002477D02*
X004055Y002477D01*
X003737Y002293D02*
X003234Y002293D01*
X003234Y002175D02*
X003595Y002175D01*
X003681Y002261D02*
X003681Y002261D01*
X003476Y002056D02*
X003234Y002056D01*
X003234Y001938D02*
X003365Y001938D01*
X003375Y001955D02*
X003375Y001955D01*
X003297Y001819D02*
X003234Y001819D01*
X005954Y014736D02*
X017256Y014736D01*
X020054Y010114D02*
X032181Y010114D01*
X032181Y009996D02*
X020222Y009996D01*
X020303Y009877D02*
X032181Y009877D01*
X032181Y009759D02*
X020352Y009759D01*
X020352Y009640D02*
X032181Y009640D01*
X032181Y009522D02*
X020336Y009522D01*
X020287Y009403D02*
X032181Y009403D01*
X032181Y009285D02*
X020182Y009285D01*
X019957Y009166D02*
X032181Y009166D01*
X032181Y009048D02*
X019634Y009048D01*
X019457Y008929D02*
X032181Y008929D01*
X032181Y008811D02*
X019279Y008811D01*
X019101Y008692D02*
X032181Y008692D01*
X032181Y008574D02*
X020769Y008574D01*
X020763Y008579D02*
X020581Y008654D01*
X020385Y008654D01*
X020203Y008579D01*
X020064Y008440D01*
X019989Y008258D01*
X019989Y008062D01*
X020046Y007922D01*
X019939Y007815D01*
X019864Y007633D01*
X019864Y007437D01*
X019939Y007255D01*
X020078Y007116D01*
X020260Y007041D01*
X020456Y007041D01*
X020638Y007116D01*
X020671Y007149D01*
X020748Y007149D01*
X020578Y007079D01*
X020439Y006940D01*
X020364Y006758D01*
X020364Y006562D01*
X020439Y006380D01*
X020578Y006241D01*
X020614Y006226D01*
X020614Y006187D01*
X020689Y006005D01*
X020828Y005866D01*
X021010Y005791D01*
X021206Y005791D01*
X021388Y005866D01*
X021527Y006005D01*
X021602Y006187D01*
X021602Y006234D01*
X021768Y006399D01*
X022448Y006399D01*
X022614Y006234D01*
X022614Y006187D01*
X022689Y006005D01*
X022828Y005866D01*
X023010Y005791D01*
X023206Y005791D01*
X023388Y005866D01*
X023527Y006005D01*
X023542Y006041D01*
X023706Y006041D01*
X023888Y006116D01*
X024027Y006255D01*
X024046Y006301D01*
X024114Y006234D01*
X024114Y006187D01*
X024189Y006005D01*
X024328Y005866D01*
X024510Y005791D01*
X024706Y005791D01*
X024888Y005866D01*
X025027Y006005D01*
X025094Y006166D01*
X025206Y006166D01*
X025388Y006241D01*
X025527Y006380D01*
X025602Y006562D01*
X025602Y006758D01*
X025527Y006940D01*
X025388Y007079D01*
X025206Y007154D01*
X025159Y007154D01*
X023826Y008487D01*
X023685Y008546D01*
X020796Y008546D01*
X020763Y008579D01*
X020197Y008574D02*
X018923Y008574D01*
X019136Y008455D02*
X020079Y008455D01*
X020021Y008337D02*
X019256Y008337D01*
X019317Y008218D02*
X019989Y008218D01*
X019989Y008100D02*
X019352Y008100D01*
X019352Y007981D02*
X020022Y007981D01*
X019986Y007863D02*
X019322Y007863D01*
X019266Y007744D02*
X019910Y007744D01*
X019864Y007626D02*
X019244Y007626D01*
X019244Y007507D02*
X019864Y007507D01*
X019884Y007389D02*
X019244Y007389D01*
X019244Y007270D02*
X019933Y007270D01*
X020042Y007152D02*
X019244Y007152D01*
X019244Y007033D02*
X020532Y007033D01*
X020428Y006915D02*
X019244Y006915D01*
X019244Y006796D02*
X020379Y006796D01*
X020364Y006678D02*
X019244Y006678D01*
X019244Y006559D02*
X020365Y006559D01*
X020414Y006441D02*
X019244Y006441D01*
X019244Y006322D02*
X020497Y006322D01*
X020614Y006204D02*
X019244Y006204D01*
X019244Y006085D02*
X020656Y006085D01*
X020727Y005967D02*
X019244Y005967D01*
X019244Y005848D02*
X020871Y005848D01*
X021345Y005848D02*
X022871Y005848D01*
X022727Y005967D02*
X021489Y005967D01*
X021560Y006085D02*
X022656Y006085D01*
X022614Y006204D02*
X021602Y006204D01*
X021690Y006322D02*
X022526Y006322D01*
X023345Y005848D02*
X024371Y005848D01*
X024227Y005967D02*
X023489Y005967D01*
X023813Y006085D02*
X024156Y006085D01*
X024114Y006204D02*
X023976Y006204D01*
X024845Y005848D02*
X032181Y005848D01*
X032181Y005730D02*
X019244Y005730D01*
X019244Y005611D02*
X032181Y005611D01*
X032181Y005493D02*
X019244Y005493D01*
X019244Y005374D02*
X032181Y005374D01*
X032181Y005256D02*
X019244Y005256D01*
X019214Y005137D02*
X032181Y005137D01*
X032181Y005019D02*
X019137Y005019D01*
X019018Y004900D02*
X032181Y004900D01*
X032181Y004782D02*
X018931Y004782D01*
X018928Y004663D02*
X032181Y004663D01*
X032181Y004545D02*
X018879Y004545D01*
X018810Y004426D02*
X032181Y004426D01*
X032181Y004308D02*
X018691Y004308D01*
X018206Y003952D02*
X032181Y003952D01*
X032181Y003834D02*
X018244Y003834D01*
X018244Y003715D02*
X032181Y003715D01*
X032181Y003597D02*
X018244Y003597D01*
X018244Y003478D02*
X032181Y003478D01*
X032181Y003360D02*
X018244Y003360D01*
X018244Y003241D02*
X032181Y003241D01*
X032181Y003123D02*
X018331Y003123D01*
X018388Y003004D02*
X029804Y003004D01*
X029766Y002886D02*
X018431Y002886D01*
X018431Y002767D02*
X029766Y002767D01*
X029766Y002649D02*
X018422Y002649D01*
X018118Y004071D02*
X032181Y004071D01*
X032181Y004189D02*
X017999Y004189D01*
X023858Y008455D02*
X032181Y008455D01*
X032181Y008337D02*
X023977Y008337D01*
X024095Y008218D02*
X032181Y008218D01*
X032181Y008100D02*
X024214Y008100D01*
X024332Y007981D02*
X032181Y007981D01*
X032181Y007863D02*
X024451Y007863D01*
X024569Y007744D02*
X032181Y007744D01*
X032181Y007626D02*
X024688Y007626D01*
X024806Y007507D02*
X032181Y007507D01*
X032181Y007389D02*
X024925Y007389D01*
X025043Y007270D02*
X032181Y007270D01*
X032181Y007152D02*
X025213Y007152D01*
X025434Y007033D02*
X032181Y007033D01*
X032181Y006915D02*
X025538Y006915D01*
X025587Y006796D02*
X032181Y006796D01*
X032181Y006678D02*
X025602Y006678D01*
X025601Y006559D02*
X032181Y006559D01*
X032181Y006441D02*
X025552Y006441D01*
X025469Y006322D02*
X032181Y006322D01*
X032181Y006204D02*
X025298Y006204D01*
X025060Y006085D02*
X032181Y006085D01*
X032181Y005967D02*
X024989Y005967D01*
X028745Y002530D02*
X029766Y002530D01*
X029766Y002412D02*
X029057Y002412D01*
X028944Y002477D02*
X028944Y002477D01*
X029262Y002293D02*
X029766Y002293D01*
X029766Y002175D02*
X029405Y002175D01*
X029318Y002261D02*
X029318Y002261D01*
X029318Y002261D01*
X029523Y002056D02*
X029766Y002056D01*
X029766Y001938D02*
X029634Y001938D01*
X029703Y001819D02*
X029766Y001819D01*
X032181Y013314D02*
X022683Y013314D01*
X022777Y013432D02*
X032181Y013432D01*
X032181Y013551D02*
X022826Y013551D01*
X022833Y013669D02*
X032181Y013669D01*
X032181Y013788D02*
X022819Y013788D01*
X022770Y013906D02*
X032181Y013906D01*
D16*
X025108Y006660D03*
X024608Y006285D03*
X023608Y006535D03*
X023108Y006285D03*
X021108Y006285D03*
X020858Y006660D03*
X020358Y007535D03*
X020483Y008160D03*
X019858Y009660D03*
X018858Y008035D03*
X017733Y008160D03*
X017358Y007910D03*
X016858Y008035D03*
X016358Y008160D03*
X013358Y009660D03*
X012858Y010160D03*
X012858Y012660D03*
X012358Y012785D03*
X013733Y012660D03*
X016358Y012160D03*
X016608Y011785D03*
X017858Y014285D03*
X017983Y014910D03*
X022858Y016660D03*
X024733Y016410D03*
X014358Y005160D03*
X013858Y005160D03*
X012108Y004535D03*
X011858Y003160D03*
X008358Y006285D03*
X008983Y006535D03*
X008858Y007660D03*
X008108Y007785D03*
X008608Y010660D03*
X005858Y010660D03*
X002358Y010285D03*
D17*
X001358Y011160D03*
X001358Y009160D03*
X001358Y007660D03*
X001358Y005660D03*
X001358Y003660D03*
X003358Y003660D03*
X003358Y004660D03*
X005358Y004660D03*
X005358Y003660D03*
X005858Y006660D03*
X004733Y008660D03*
X004358Y008660D03*
X004358Y009160D03*
X004733Y009160D03*
X005858Y009660D03*
X004608Y012160D03*
X003858Y012160D03*
X001358Y013160D03*
X001358Y015660D03*
X001358Y017660D03*
X001358Y019660D03*
X001358Y021660D03*
X001358Y023660D03*
X001358Y025660D03*
X003358Y025660D03*
X004358Y025160D03*
X005358Y025160D03*
X006358Y026160D03*
X007358Y027160D03*
X006858Y028160D03*
X005358Y027660D03*
X004358Y026660D03*
X002858Y027660D03*
X001358Y027660D03*
X001358Y029160D03*
X002858Y029160D03*
X003858Y030160D03*
X004358Y029160D03*
X006358Y029660D03*
X008358Y029660D03*
X008858Y028160D03*
X008858Y027160D03*
X007858Y025535D03*
X008983Y024660D03*
X009983Y024660D03*
X011233Y024535D03*
X012233Y024535D03*
X013233Y024535D03*
X014108Y023660D03*
X014858Y023660D03*
X015358Y023160D03*
X016358Y022160D03*
X016358Y021160D03*
X017858Y021160D03*
X017858Y022160D03*
X019358Y022160D03*
X019358Y021160D03*
X020858Y021160D03*
X020858Y022160D03*
X022358Y022160D03*
X023858Y022160D03*
X023858Y021160D03*
X025358Y021160D03*
X025358Y022160D03*
X026858Y022160D03*
X026858Y021160D03*
X028858Y021160D03*
X028858Y022160D03*
X030358Y022160D03*
X030358Y021160D03*
X031858Y021160D03*
X031858Y022160D03*
X031858Y023660D03*
X031108Y024785D03*
X031858Y025160D03*
X031858Y026660D03*
X031108Y026535D03*
X031858Y028160D03*
X031358Y029160D03*
X030358Y028160D03*
X029358Y029160D03*
X029358Y030160D03*
X029358Y031660D03*
X027858Y031660D03*
X026358Y031660D03*
X024858Y031660D03*
X023358Y031660D03*
X021858Y031660D03*
X020858Y030785D03*
X020358Y031660D03*
X019358Y030785D03*
X018858Y031660D03*
X017858Y030785D03*
X017358Y031660D03*
X015858Y031660D03*
X016358Y030160D03*
X017858Y029410D03*
X018608Y029410D03*
X018608Y027160D03*
X017358Y027160D03*
X017358Y025535D03*
X015983Y025535D03*
X015608Y024410D03*
X015358Y027035D03*
X014483Y027035D03*
X014483Y028160D03*
X015733Y028160D03*
X014358Y029660D03*
X012858Y028160D03*
X012858Y027160D03*
X010858Y027160D03*
X010858Y028160D03*
X010358Y029660D03*
X012358Y029660D03*
X012858Y031660D03*
X011358Y031660D03*
X009858Y031660D03*
X008358Y031660D03*
X006858Y031660D03*
X005358Y031660D03*
X003858Y031660D03*
X006358Y024160D03*
X005358Y023660D03*
X003358Y022160D03*
X006233Y021035D03*
X006233Y020660D03*
X006233Y020285D03*
X006608Y020285D03*
X006983Y020285D03*
X006983Y020660D03*
X006608Y020660D03*
X006608Y021035D03*
X006983Y021035D03*
X008108Y022160D03*
X009858Y022160D03*
X009858Y021535D03*
X011733Y020785D03*
X012233Y020035D03*
X011483Y019410D03*
X010733Y018160D03*
X010733Y017785D03*
X010733Y016535D03*
X010733Y016160D03*
X008733Y016410D03*
X008858Y015035D03*
X009358Y014160D03*
X006358Y014660D03*
X005858Y015160D03*
X005608Y014410D03*
X005108Y017160D03*
X004358Y017160D03*
X006983Y017160D03*
X007733Y018160D03*
X008358Y019160D03*
X011983Y022910D03*
X012858Y021160D03*
X013233Y018410D03*
X013233Y017660D03*
X012608Y017660D03*
X012858Y016410D03*
X013858Y016410D03*
X015608Y015035D03*
X017483Y016035D03*
X017483Y016660D03*
X020358Y015535D03*
X020358Y015160D03*
X021358Y013660D03*
X022358Y013660D03*
X019858Y011160D03*
X019858Y010785D03*
X019483Y010785D03*
X019483Y011160D03*
X013358Y010910D03*
X013358Y011410D03*
X012858Y011410D03*
X012858Y010910D03*
X007858Y024160D03*
X014358Y031660D03*
X018858Y025535D03*
X020108Y024660D03*
X021608Y024660D03*
X022358Y025535D03*
X023858Y025535D03*
X024483Y024535D03*
X025858Y024535D03*
X027358Y024535D03*
X029358Y024535D03*
X028358Y028160D03*
X026358Y028160D03*
X024358Y028160D03*
X024108Y027160D03*
X023233Y027160D03*
X022858Y028660D03*
X022358Y030160D03*
X021108Y029410D03*
X021108Y028285D03*
X021108Y027160D03*
D18*
X028358Y006660D03*
X028358Y006160D03*
X028358Y005660D03*
X028858Y005660D03*
X029358Y005660D03*
X029358Y006160D03*
X028858Y006160D03*
X028858Y006660D03*
X029358Y006660D03*
X029858Y006660D03*
X029858Y006160D03*
X029858Y005660D03*
D19*
X025108Y006660D02*
X023608Y008160D01*
X020483Y008160D01*
X020358Y007535D02*
X023358Y007535D01*
X024608Y006285D01*
X023608Y006535D02*
X022983Y007160D01*
X021358Y007160D01*
X020858Y006660D01*
X021108Y006285D02*
X021608Y006785D01*
X022608Y006785D01*
X023108Y006285D01*
X019858Y009660D02*
X018358Y008660D01*
X018358Y006785D01*
X016858Y005660D01*
X016858Y004785D01*
X017358Y004285D02*
X017858Y003785D01*
X017858Y002910D01*
X017733Y002785D01*
X017858Y002785D01*
X017358Y002785D02*
X017358Y003535D01*
X017108Y003785D01*
X016233Y003785D01*
X015358Y004410D01*
X015358Y005785D01*
X017233Y007160D01*
X017358Y007910D01*
X017733Y008160D02*
X017733Y007035D01*
X015608Y005535D01*
X015608Y004660D01*
X016108Y004285D01*
X017358Y004285D01*
X016733Y003410D02*
X016858Y003285D01*
X016858Y002785D01*
X016358Y002785D02*
X015983Y002785D01*
X014858Y003660D01*
X014858Y006285D01*
X016358Y007410D01*
X016358Y008160D01*
X016858Y008035D02*
X016858Y007285D01*
X015108Y006035D01*
X015108Y004035D01*
X015983Y003410D01*
X016733Y003410D01*
X018358Y004785D02*
X018858Y005285D01*
X018858Y008035D01*
X021358Y013660D02*
X022358Y013660D01*
X012358Y012785D02*
X011983Y012785D01*
X011858Y012660D01*
X011858Y005285D01*
X012108Y004535D01*
X008983Y006535D02*
X008858Y006660D01*
X008858Y007660D01*
X008108Y007785D02*
X008108Y006535D01*
X008358Y006285D01*
X005483Y010285D02*
X005858Y010660D01*
X008608Y010660D01*
X005483Y010285D02*
X002358Y010285D01*
X009858Y019910D02*
X011608Y019910D01*
X012233Y020035D01*
X009858Y019910D02*
X008983Y020785D01*
X008608Y020785D01*
X008108Y022160D02*
X009858Y022160D01*
D20*
X005608Y014410D02*
X005858Y014160D01*
X009358Y014160D01*
X016358Y012160D02*
X016858Y012160D01*
X017358Y012660D01*
X017358Y014285D01*
X017983Y014910D01*
X017858Y014285D02*
X017733Y014160D01*
X017733Y012535D01*
X016983Y011785D01*
X016608Y011785D01*
D21*
X008608Y020785D03*
M02*
