G75*
G70*
%OFA0B0*%
%FSLAX24Y24*%
%IPPOS*%
%LPD*%
%AMOC8*
5,1,8,0,0,1.08239X$1,22.5*
%
%ADD10C,0.0000*%
D10*
X000358Y001341D02*
X000358Y031262D01*
X000360Y031328D01*
X000365Y031394D01*
X000375Y031460D01*
X000388Y031525D01*
X000404Y031589D01*
X000424Y031652D01*
X000448Y031714D01*
X000475Y031774D01*
X000505Y031833D01*
X000539Y031890D01*
X000576Y031945D01*
X000616Y031998D01*
X000658Y032049D01*
X000704Y032097D01*
X000752Y032143D01*
X000803Y032185D01*
X000856Y032225D01*
X000911Y032262D01*
X000968Y032296D01*
X001027Y032326D01*
X001087Y032353D01*
X001149Y032377D01*
X001212Y032397D01*
X001276Y032413D01*
X001341Y032426D01*
X001407Y032436D01*
X001473Y032441D01*
X001539Y032443D01*
X031460Y032443D01*
X031526Y032441D01*
X031592Y032436D01*
X031658Y032426D01*
X031723Y032413D01*
X031787Y032397D01*
X031850Y032377D01*
X031912Y032353D01*
X031972Y032326D01*
X032031Y032296D01*
X032088Y032262D01*
X032143Y032225D01*
X032196Y032185D01*
X032247Y032143D01*
X032295Y032097D01*
X032341Y032049D01*
X032383Y031998D01*
X032423Y031945D01*
X032460Y031890D01*
X032494Y031833D01*
X032524Y031774D01*
X032551Y031714D01*
X032575Y031652D01*
X032595Y031589D01*
X032611Y031525D01*
X032624Y031460D01*
X032634Y031394D01*
X032639Y031328D01*
X032641Y031262D01*
X032641Y001341D01*
X032639Y001275D01*
X032634Y001209D01*
X032624Y001143D01*
X032611Y001078D01*
X032595Y001014D01*
X032575Y000951D01*
X032551Y000889D01*
X032524Y000829D01*
X032494Y000770D01*
X032460Y000713D01*
X032423Y000658D01*
X032383Y000605D01*
X032341Y000554D01*
X032295Y000506D01*
X032247Y000460D01*
X032196Y000418D01*
X032143Y000378D01*
X032088Y000341D01*
X032031Y000307D01*
X031972Y000277D01*
X031912Y000250D01*
X031850Y000226D01*
X031787Y000206D01*
X031723Y000190D01*
X031658Y000177D01*
X031592Y000167D01*
X031526Y000162D01*
X031460Y000160D01*
X029886Y000160D01*
X029847Y000162D01*
X029809Y000168D01*
X029772Y000177D01*
X029735Y000190D01*
X029700Y000207D01*
X029667Y000226D01*
X029636Y000249D01*
X029607Y000275D01*
X029581Y000304D01*
X029558Y000335D01*
X029539Y000368D01*
X029522Y000403D01*
X029509Y000440D01*
X029500Y000477D01*
X029494Y000515D01*
X029492Y000554D01*
X029492Y000947D01*
X029490Y001013D01*
X029485Y001079D01*
X029475Y001145D01*
X029462Y001210D01*
X029446Y001274D01*
X029426Y001337D01*
X029402Y001399D01*
X029375Y001459D01*
X029345Y001518D01*
X029311Y001575D01*
X029274Y001630D01*
X029234Y001683D01*
X029192Y001734D01*
X029146Y001782D01*
X029098Y001828D01*
X029047Y001870D01*
X028994Y001910D01*
X028939Y001947D01*
X028882Y001981D01*
X028823Y002011D01*
X028763Y002038D01*
X028701Y002062D01*
X028638Y002082D01*
X028574Y002098D01*
X028509Y002111D01*
X028443Y002121D01*
X028377Y002126D01*
X028311Y002128D01*
X028311Y002129D02*
X004689Y002129D01*
X004689Y002128D02*
X004623Y002126D01*
X004557Y002121D01*
X004491Y002111D01*
X004426Y002098D01*
X004362Y002082D01*
X004299Y002062D01*
X004237Y002038D01*
X004177Y002011D01*
X004118Y001981D01*
X004061Y001947D01*
X004006Y001910D01*
X003953Y001870D01*
X003902Y001828D01*
X003854Y001782D01*
X003808Y001734D01*
X003766Y001683D01*
X003726Y001630D01*
X003689Y001575D01*
X003655Y001518D01*
X003625Y001459D01*
X003598Y001399D01*
X003574Y001337D01*
X003554Y001274D01*
X003538Y001210D01*
X003525Y001145D01*
X003515Y001079D01*
X003510Y001013D01*
X003508Y000947D01*
X003508Y000554D01*
X003506Y000515D01*
X003500Y000477D01*
X003491Y000440D01*
X003478Y000403D01*
X003461Y000368D01*
X003442Y000335D01*
X003419Y000304D01*
X003393Y000275D01*
X003364Y000249D01*
X003333Y000226D01*
X003300Y000207D01*
X003265Y000190D01*
X003228Y000177D01*
X003191Y000168D01*
X003153Y000162D01*
X003114Y000160D01*
X001539Y000160D01*
X001473Y000162D01*
X001407Y000167D01*
X001341Y000177D01*
X001276Y000190D01*
X001212Y000206D01*
X001149Y000226D01*
X001087Y000250D01*
X001027Y000277D01*
X000968Y000307D01*
X000911Y000341D01*
X000856Y000378D01*
X000803Y000418D01*
X000752Y000460D01*
X000704Y000506D01*
X000658Y000554D01*
X000616Y000605D01*
X000576Y000658D01*
X000539Y000713D01*
X000505Y000770D01*
X000475Y000829D01*
X000448Y000889D01*
X000424Y000951D01*
X000404Y001014D01*
X000388Y001078D01*
X000375Y001143D01*
X000365Y001209D01*
X000360Y001275D01*
X000358Y001341D01*
M02*
