G75*
G70*
%OFA0B0*%
%FSLAX24Y24*%
%IPPOS*%
%LPD*%
%AMOC8*
5,1,8,0,0,1.08239X$1,22.5*
%
%ADD10C,0.1500*%
%ADD11C,0.0886*%
%ADD12C,0.1004*%
%ADD13R,0.0276X0.0591*%
%ADD14R,0.0591X0.0276*%
%ADD15R,0.0591X0.1400*%
%ADD16R,0.2362X0.0787*%
%ADD17OC8,0.0520*%
%ADD18R,0.1400X0.0591*%
%ADD19C,0.0160*%
%ADD20C,0.0400*%
%ADD21C,0.0240*%
%ADD22C,0.0400*%
%ADD23C,0.0320*%
%ADD24C,0.0100*%
%ADD25C,0.0317*%
%ADD26C,0.0591*%
D10*
X023543Y026231D03*
X022151Y027623D03*
X024378Y029851D03*
X025770Y028459D03*
D11*
X030415Y016489D03*
X026183Y006548D03*
D12*
X027183Y007548D03*
X025183Y007548D03*
X025183Y005548D03*
X027183Y005548D03*
X029415Y015489D03*
X031415Y015489D03*
X031415Y017489D03*
X029415Y017489D03*
D13*
X032403Y016489D03*
X033151Y016489D03*
X033151Y015701D03*
X032403Y015701D03*
X032698Y014815D03*
X033446Y014815D03*
X033446Y017473D03*
X032698Y017473D03*
D14*
X025100Y016567D03*
X025100Y015819D03*
D15*
X025100Y019048D03*
X023919Y019048D03*
X026183Y019048D03*
D16*
X021655Y026233D03*
X020277Y027611D03*
D17*
X019754Y004579D03*
X023754Y004579D03*
D18*
X024116Y006548D03*
D19*
X015848Y003693D02*
X015848Y002315D01*
X016286Y002315D01*
X016075Y002526D01*
X015939Y002855D01*
X015939Y003210D01*
X016075Y003538D01*
X016326Y003790D01*
X016655Y003926D01*
X017010Y003926D01*
X017338Y003790D01*
X017590Y003538D01*
X017726Y003210D01*
X017726Y002855D01*
X017590Y002526D01*
X017379Y002315D01*
X022191Y002315D01*
X021980Y002526D01*
X021844Y002855D01*
X021844Y003210D01*
X021980Y003538D01*
X022232Y003790D01*
X022560Y003926D01*
X022916Y003926D01*
X023244Y003790D01*
X023495Y003538D01*
X023631Y003210D01*
X023631Y002855D01*
X023495Y002526D01*
X023284Y002315D01*
X031596Y002315D01*
X031596Y003693D01*
X031596Y003693D01*
X031596Y008418D01*
X024903Y008418D01*
X024903Y014717D01*
X023178Y014717D01*
X023178Y008396D01*
X023065Y007973D01*
X023065Y007973D01*
X022847Y007595D01*
X022847Y007595D01*
X022537Y007285D01*
X022537Y007285D01*
X022158Y007067D01*
X022158Y007067D01*
X021736Y006953D01*
X015848Y006953D01*
X015848Y003693D01*
X015848Y003693D01*
X015848Y003637D02*
X016174Y003637D01*
X016050Y003479D02*
X015848Y003479D01*
X015848Y003320D02*
X015984Y003320D01*
X015939Y003162D02*
X015848Y003162D01*
X015848Y003003D02*
X015939Y003003D01*
X015943Y002845D02*
X015848Y002845D01*
X015848Y002686D02*
X016009Y002686D01*
X016074Y002528D02*
X015848Y002528D01*
X015848Y002369D02*
X016232Y002369D01*
X017432Y002369D02*
X022138Y002369D01*
X021980Y002528D02*
X017590Y002528D01*
X017656Y002686D02*
X021914Y002686D01*
X021849Y002845D02*
X017721Y002845D01*
X017726Y003003D02*
X021844Y003003D01*
X021844Y003162D02*
X017726Y003162D01*
X017680Y003320D02*
X021890Y003320D01*
X021956Y003479D02*
X017614Y003479D01*
X017491Y003637D02*
X022079Y003637D01*
X022246Y003796D02*
X017324Y003796D01*
X016340Y003796D02*
X015848Y003796D01*
X015848Y003954D02*
X019445Y003954D01*
X019480Y003919D02*
X020027Y003919D01*
X020414Y004306D01*
X020414Y004853D01*
X020027Y005239D01*
X019480Y005239D01*
X019094Y004853D01*
X019094Y004306D01*
X019480Y003919D01*
X019287Y004113D02*
X015848Y004113D01*
X015848Y004271D02*
X019128Y004271D01*
X019094Y004430D02*
X015848Y004430D01*
X015848Y004588D02*
X019094Y004588D01*
X019094Y004747D02*
X015848Y004747D01*
X015848Y004905D02*
X019146Y004905D01*
X019305Y005064D02*
X015848Y005064D01*
X015848Y005222D02*
X019463Y005222D01*
X020044Y005222D02*
X031596Y005222D01*
X031596Y005064D02*
X020203Y005064D01*
X020361Y004905D02*
X031596Y004905D01*
X031596Y004747D02*
X020414Y004747D01*
X020414Y004588D02*
X031596Y004588D01*
X031596Y004430D02*
X020414Y004430D01*
X020379Y004271D02*
X031596Y004271D01*
X031596Y004113D02*
X020220Y004113D01*
X020062Y003954D02*
X031596Y003954D01*
X031596Y003796D02*
X023230Y003796D01*
X023397Y003637D02*
X031596Y003637D01*
X031596Y003479D02*
X023520Y003479D01*
X023586Y003320D02*
X031596Y003320D01*
X031596Y003162D02*
X023631Y003162D01*
X023631Y003003D02*
X031596Y003003D01*
X031596Y002845D02*
X023627Y002845D01*
X023561Y002686D02*
X031596Y002686D01*
X031596Y002528D02*
X023496Y002528D01*
X023338Y002369D02*
X031596Y002369D01*
X031596Y005381D02*
X015848Y005381D01*
X015848Y005539D02*
X031596Y005539D01*
X031596Y005698D02*
X029908Y005698D01*
X029957Y005711D02*
X030210Y005857D01*
X030417Y006063D01*
X030563Y006316D01*
X030639Y006599D01*
X030639Y006891D01*
X030563Y007173D01*
X030417Y007426D01*
X030210Y007633D01*
X029957Y007779D01*
X029675Y007855D01*
X029383Y007855D01*
X029100Y007779D01*
X028847Y007633D01*
X028641Y007426D01*
X028494Y007173D01*
X028419Y006891D01*
X028419Y006599D01*
X028494Y006316D01*
X028641Y006063D01*
X028847Y005857D01*
X029100Y005711D01*
X029383Y005635D01*
X029675Y005635D01*
X029957Y005711D01*
X030209Y005856D02*
X031596Y005856D01*
X031596Y006015D02*
X030368Y006015D01*
X030480Y006173D02*
X031596Y006173D01*
X031596Y006332D02*
X030567Y006332D01*
X030610Y006490D02*
X031596Y006490D01*
X031596Y006649D02*
X030639Y006649D01*
X030639Y006807D02*
X031596Y006807D01*
X031596Y006966D02*
X030619Y006966D01*
X030576Y007124D02*
X031596Y007124D01*
X031596Y007283D02*
X030500Y007283D01*
X030402Y007441D02*
X031596Y007441D01*
X031596Y007600D02*
X030244Y007600D01*
X029994Y007758D02*
X031596Y007758D01*
X031596Y007917D02*
X023032Y007917D01*
X023092Y008075D02*
X031596Y008075D01*
X031596Y008234D02*
X023135Y008234D01*
X023177Y008392D02*
X031596Y008392D01*
X029064Y007758D02*
X022941Y007758D01*
X022849Y007600D02*
X028814Y007600D01*
X028655Y007441D02*
X022693Y007441D01*
X022532Y007283D02*
X025754Y007283D01*
X025705Y007262D02*
X025686Y007243D01*
X023336Y007243D01*
X023189Y007182D01*
X023077Y007069D01*
X023016Y006922D01*
X023016Y006173D01*
X015848Y006173D01*
X015848Y006015D02*
X023088Y006015D01*
X023077Y006026D02*
X023189Y005913D01*
X023336Y005852D01*
X025686Y005852D01*
X025705Y005833D01*
X026015Y005705D01*
X026350Y005705D01*
X026660Y005833D01*
X026897Y006070D01*
X027026Y006380D01*
X027026Y006715D01*
X026897Y007025D01*
X026660Y007262D01*
X026350Y007391D01*
X026015Y007391D01*
X025705Y007262D01*
X026611Y007283D02*
X028558Y007283D01*
X028481Y007124D02*
X026798Y007124D01*
X026922Y006966D02*
X028439Y006966D01*
X028419Y006807D02*
X026988Y006807D01*
X027026Y006649D02*
X028419Y006649D01*
X028448Y006490D02*
X027026Y006490D01*
X027006Y006332D02*
X028490Y006332D01*
X028577Y006173D02*
X026940Y006173D01*
X026842Y006015D02*
X028689Y006015D01*
X028848Y005856D02*
X026683Y005856D01*
X029149Y005698D02*
X015848Y005698D01*
X015848Y005856D02*
X023327Y005856D01*
X023077Y006026D02*
X023016Y006173D01*
X023016Y006332D02*
X015848Y006332D01*
X015848Y006490D02*
X023016Y006490D01*
X023016Y006649D02*
X015848Y006649D01*
X015848Y006807D02*
X023016Y006807D01*
X023034Y006966D02*
X021781Y006966D01*
X022258Y007124D02*
X023131Y007124D01*
X023178Y008551D02*
X024903Y008551D01*
X024903Y008709D02*
X023178Y008709D01*
X023178Y008868D02*
X024903Y008868D01*
X024903Y009026D02*
X023178Y009026D01*
X023178Y009185D02*
X024903Y009185D01*
X024903Y009343D02*
X023178Y009343D01*
X023178Y009502D02*
X024903Y009502D01*
X024903Y009660D02*
X023178Y009660D01*
X023178Y009819D02*
X024903Y009819D01*
X024903Y009977D02*
X023178Y009977D01*
X023178Y010136D02*
X024903Y010136D01*
X024903Y010294D02*
X023178Y010294D01*
X023178Y010453D02*
X024903Y010453D01*
X024903Y010611D02*
X023178Y010611D01*
X023178Y010770D02*
X024903Y010770D01*
X024903Y010928D02*
X023178Y010928D01*
X023178Y011087D02*
X024903Y011087D01*
X024903Y011245D02*
X023178Y011245D01*
X023178Y011404D02*
X024903Y011404D01*
X024903Y011562D02*
X023178Y011562D01*
X023178Y011721D02*
X024903Y011721D01*
X024903Y011879D02*
X023178Y011879D01*
X023178Y012038D02*
X024903Y012038D01*
X024903Y012196D02*
X023178Y012196D01*
X023178Y012355D02*
X024903Y012355D01*
X024903Y012513D02*
X023178Y012513D01*
X023178Y012672D02*
X024903Y012672D01*
X024903Y012830D02*
X023178Y012830D01*
X023178Y012989D02*
X024903Y012989D01*
X024903Y013147D02*
X023178Y013147D01*
X023178Y013306D02*
X024903Y013306D01*
X024903Y013464D02*
X023178Y013464D01*
X023178Y013623D02*
X024903Y013623D01*
X024903Y013781D02*
X023178Y013781D01*
X023178Y013940D02*
X024903Y013940D01*
X024903Y014098D02*
X023178Y014098D01*
X023178Y014257D02*
X024903Y014257D01*
X024903Y014415D02*
X023178Y014415D01*
X023178Y014574D02*
X024903Y014574D01*
X025100Y015307D02*
X025100Y015819D01*
X025612Y015819D01*
X025691Y015898D01*
X025691Y016882D01*
X025100Y017473D01*
X025100Y019048D01*
X025795Y019012D02*
X026872Y019012D01*
X026872Y019170D02*
X025795Y019170D01*
X025795Y019329D02*
X026872Y019329D01*
X026872Y019487D02*
X025795Y019487D01*
X025795Y019646D02*
X026872Y019646D01*
X026872Y019804D02*
X025795Y019804D01*
X025795Y019827D02*
X025734Y019974D01*
X025622Y020087D01*
X025475Y020148D01*
X024725Y020148D01*
X024578Y020087D01*
X024509Y020018D01*
X024441Y020087D01*
X024294Y020148D01*
X023544Y020148D01*
X023397Y020087D01*
X023285Y019974D01*
X023224Y019827D01*
X023224Y018268D01*
X023285Y018121D01*
X023397Y018009D01*
X023439Y017991D01*
X023439Y017971D01*
X023360Y017781D01*
X023360Y017559D01*
X023445Y017353D01*
X023602Y017196D01*
X023808Y017111D01*
X024030Y017111D01*
X024235Y017196D01*
X024393Y017353D01*
X024478Y017559D01*
X024478Y017781D01*
X024399Y017971D01*
X024399Y017991D01*
X024441Y018009D01*
X024509Y018077D01*
X024578Y018009D01*
X024620Y017991D01*
X024620Y017377D01*
X024693Y017201D01*
X024828Y017066D01*
X025211Y016683D01*
X025211Y016357D01*
X024725Y016357D01*
X024578Y016296D01*
X024466Y016184D01*
X024405Y016037D01*
X024405Y015602D01*
X024445Y015504D01*
X023178Y015504D01*
X023178Y024559D01*
X026872Y024559D01*
X026872Y015504D01*
X025976Y015504D01*
X026097Y015626D01*
X026171Y015803D01*
X026171Y016978D01*
X026097Y017154D01*
X025580Y017672D01*
X025580Y017991D01*
X025622Y018009D01*
X025734Y018121D01*
X025795Y018268D01*
X025795Y019827D01*
X025739Y019963D02*
X026872Y019963D01*
X026872Y020121D02*
X025539Y020121D01*
X024661Y020121D02*
X024358Y020121D01*
X023480Y020121D02*
X023178Y020121D01*
X023178Y019963D02*
X023280Y019963D01*
X023224Y019804D02*
X023178Y019804D01*
X023178Y019646D02*
X023224Y019646D01*
X023224Y019487D02*
X023178Y019487D01*
X023178Y019329D02*
X023224Y019329D01*
X023224Y019170D02*
X023178Y019170D01*
X023178Y019012D02*
X023224Y019012D01*
X023224Y018853D02*
X023178Y018853D01*
X023178Y018695D02*
X023224Y018695D01*
X023224Y018536D02*
X023178Y018536D01*
X023178Y018378D02*
X023224Y018378D01*
X023244Y018219D02*
X023178Y018219D01*
X023178Y018061D02*
X023345Y018061D01*
X023410Y017902D02*
X023178Y017902D01*
X023178Y017744D02*
X023360Y017744D01*
X023360Y017585D02*
X023178Y017585D01*
X023178Y017427D02*
X023415Y017427D01*
X023530Y017268D02*
X023178Y017268D01*
X023178Y017110D02*
X024784Y017110D01*
X024665Y017268D02*
X024307Y017268D01*
X024423Y017427D02*
X024620Y017427D01*
X024620Y017585D02*
X024478Y017585D01*
X024478Y017744D02*
X024620Y017744D01*
X024620Y017902D02*
X024427Y017902D01*
X024493Y018061D02*
X024526Y018061D01*
X023919Y017670D02*
X023919Y019048D01*
X023178Y020280D02*
X026872Y020280D01*
X026872Y020438D02*
X023178Y020438D01*
X023178Y020597D02*
X026872Y020597D01*
X026872Y020755D02*
X023178Y020755D01*
X023178Y020914D02*
X026872Y020914D01*
X026872Y021072D02*
X023178Y021072D01*
X023178Y021231D02*
X026872Y021231D01*
X026872Y021389D02*
X023178Y021389D01*
X023178Y021548D02*
X026872Y021548D01*
X026872Y021706D02*
X023178Y021706D01*
X023178Y021865D02*
X026872Y021865D01*
X026872Y022023D02*
X023178Y022023D01*
X023178Y022182D02*
X026872Y022182D01*
X026872Y022340D02*
X023178Y022340D01*
X023178Y022499D02*
X026872Y022499D01*
X026872Y022657D02*
X023178Y022657D01*
X023178Y022816D02*
X026872Y022816D01*
X026872Y022974D02*
X023178Y022974D01*
X023178Y023133D02*
X026872Y023133D01*
X026872Y023291D02*
X023178Y023291D01*
X023178Y023450D02*
X026872Y023450D01*
X026872Y023608D02*
X023178Y023608D01*
X023178Y023767D02*
X026872Y023767D01*
X026872Y023925D02*
X023178Y023925D01*
X023178Y024084D02*
X026872Y024084D01*
X026872Y024242D02*
X023178Y024242D01*
X023178Y024401D02*
X026872Y024401D01*
X026872Y024559D02*
X028053Y024559D01*
X028053Y028890D01*
X028053Y028890D01*
X028053Y030662D01*
X023328Y030662D01*
X023328Y029909D01*
X025486Y027752D01*
X025486Y027752D01*
X025553Y027684D01*
X025676Y027562D01*
X025676Y027562D01*
X025809Y027240D01*
X025809Y026893D01*
X025676Y026572D01*
X025676Y026572D01*
X025587Y026482D01*
X025553Y026449D01*
X025430Y026326D01*
X025430Y026326D01*
X025109Y026193D01*
X024903Y026193D01*
X024903Y024559D01*
X023178Y024559D01*
X023328Y026134D02*
X023328Y026231D01*
X023543Y026231D01*
X023328Y026233D02*
X023328Y026231D01*
X023328Y026233D02*
X021655Y026233D01*
X022151Y027611D02*
X020277Y027611D01*
X022151Y027611D02*
X022151Y027623D01*
X024082Y029156D02*
X028053Y029156D01*
X028053Y029314D02*
X023923Y029314D01*
X023765Y029473D02*
X028053Y029473D01*
X028053Y029631D02*
X023606Y029631D01*
X023448Y029790D02*
X028053Y029790D01*
X028053Y029948D02*
X023328Y029948D01*
X023328Y030107D02*
X028053Y030107D01*
X028053Y030265D02*
X023328Y030265D01*
X023328Y030424D02*
X028053Y030424D01*
X028053Y030582D02*
X023328Y030582D01*
X024240Y028997D02*
X028053Y028997D01*
X028053Y028839D02*
X024399Y028839D01*
X024557Y028680D02*
X028053Y028680D01*
X028053Y028522D02*
X024716Y028522D01*
X024874Y028363D02*
X028053Y028363D01*
X028053Y028205D02*
X025033Y028205D01*
X025191Y028046D02*
X028053Y028046D01*
X028053Y027888D02*
X025350Y027888D01*
X025508Y027729D02*
X028053Y027729D01*
X028053Y027571D02*
X025667Y027571D01*
X025738Y027412D02*
X028053Y027412D01*
X028053Y027254D02*
X025803Y027254D01*
X025809Y027095D02*
X028053Y027095D01*
X028053Y026937D02*
X025809Y026937D01*
X025761Y026778D02*
X028053Y026778D01*
X028053Y026620D02*
X025696Y026620D01*
X025810Y026449D02*
X025553Y026192D01*
X025414Y025856D01*
X025414Y025493D01*
X025553Y025157D01*
X025810Y024901D01*
X026146Y024762D01*
X026509Y024762D01*
X026844Y024901D01*
X027101Y025157D01*
X027240Y025493D01*
X027240Y025856D01*
X027101Y026192D01*
X026844Y026449D01*
X026509Y026588D01*
X026146Y026588D01*
X025810Y026449D01*
X025840Y026461D02*
X025565Y026461D01*
X025664Y026303D02*
X025374Y026303D01*
X025533Y026144D02*
X024903Y026144D01*
X024903Y025986D02*
X025468Y025986D01*
X025414Y025827D02*
X024903Y025827D01*
X024903Y025669D02*
X025414Y025669D01*
X025414Y025510D02*
X024903Y025510D01*
X024903Y025352D02*
X025473Y025352D01*
X025538Y025193D02*
X024903Y025193D01*
X024903Y025035D02*
X025676Y025035D01*
X025869Y024876D02*
X024903Y024876D01*
X024903Y024718D02*
X028053Y024718D01*
X028053Y024876D02*
X026785Y024876D01*
X026978Y025035D02*
X028053Y025035D01*
X028053Y025193D02*
X027116Y025193D01*
X027182Y025352D02*
X028053Y025352D01*
X028053Y025510D02*
X027240Y025510D01*
X027240Y025669D02*
X028053Y025669D01*
X028053Y025827D02*
X027240Y025827D01*
X027187Y025986D02*
X028053Y025986D01*
X028053Y026144D02*
X027121Y026144D01*
X026991Y026303D02*
X028053Y026303D01*
X028053Y026461D02*
X026815Y026461D01*
X027659Y023378D02*
X035927Y023378D01*
X035927Y009599D01*
X027659Y009599D01*
X027659Y009778D01*
X027992Y009970D01*
X028272Y010250D01*
X028470Y010593D01*
X028572Y010976D01*
X028572Y011372D01*
X028470Y011754D01*
X028272Y012097D01*
X027992Y012377D01*
X027659Y012569D01*
X027659Y023378D01*
X027659Y023291D02*
X035927Y023291D01*
X035927Y023133D02*
X027659Y023133D01*
X027659Y022974D02*
X035927Y022974D01*
X035927Y022816D02*
X027659Y022816D01*
X027659Y022657D02*
X035927Y022657D01*
X035927Y022499D02*
X027659Y022499D01*
X027659Y022340D02*
X035927Y022340D01*
X035927Y022182D02*
X027659Y022182D01*
X027659Y022023D02*
X035927Y022023D01*
X035927Y021865D02*
X027659Y021865D01*
X027659Y021706D02*
X035927Y021706D01*
X035927Y021548D02*
X027659Y021548D01*
X027659Y021389D02*
X035927Y021389D01*
X035927Y021231D02*
X027659Y021231D01*
X027659Y021072D02*
X031806Y021072D01*
X031927Y021122D02*
X031599Y020986D01*
X031348Y020735D01*
X031212Y020406D01*
X031212Y020051D01*
X031348Y019723D01*
X031599Y019471D01*
X031927Y019335D01*
X032283Y019335D01*
X032611Y019471D01*
X032862Y019723D01*
X032999Y020051D01*
X032999Y020406D01*
X032862Y020735D01*
X032611Y020986D01*
X032283Y021122D01*
X031927Y021122D01*
X031526Y020914D02*
X027659Y020914D01*
X027659Y020755D02*
X031368Y020755D01*
X031290Y020597D02*
X027659Y020597D01*
X027659Y020438D02*
X031225Y020438D01*
X031212Y020280D02*
X027659Y020280D01*
X027659Y020121D02*
X031212Y020121D01*
X031248Y019963D02*
X027659Y019963D01*
X027659Y019804D02*
X031314Y019804D01*
X031425Y019646D02*
X027659Y019646D01*
X027659Y019487D02*
X031583Y019487D01*
X032627Y019487D02*
X035927Y019487D01*
X035927Y019329D02*
X033741Y019329D01*
X033684Y019352D02*
X033445Y019352D01*
X033225Y019261D01*
X033056Y019092D01*
X032965Y018872D01*
X032965Y018633D01*
X033005Y018536D01*
X027659Y018536D01*
X027659Y018378D02*
X033005Y018378D01*
X033005Y018536D02*
X033005Y018030D01*
X032970Y017995D01*
X032909Y017848D01*
X032909Y017173D01*
X032787Y017123D01*
X032777Y017113D01*
X032768Y017123D01*
X032621Y017184D01*
X032186Y017184D01*
X032039Y017123D01*
X032004Y017089D01*
X031007Y017089D01*
X030892Y017203D01*
X030583Y017331D01*
X030247Y017331D01*
X029937Y017203D01*
X029700Y016966D01*
X029572Y016656D01*
X029572Y016321D01*
X029700Y016011D01*
X029937Y015774D01*
X030247Y015646D01*
X030583Y015646D01*
X030892Y015774D01*
X031007Y015889D01*
X031865Y015889D01*
X031865Y015326D01*
X031926Y015179D01*
X032039Y015067D01*
X032186Y015006D01*
X032621Y015006D01*
X032768Y015067D01*
X032777Y015076D01*
X032787Y015067D01*
X032909Y015016D01*
X032909Y014441D01*
X032965Y014306D01*
X032965Y014105D01*
X033056Y013885D01*
X033225Y013716D01*
X033445Y013625D01*
X033684Y013625D01*
X033904Y013716D01*
X034073Y013885D01*
X034165Y014105D01*
X034165Y014344D01*
X034125Y014441D01*
X034125Y015442D01*
X034029Y015735D01*
X033848Y015985D01*
X033696Y016095D01*
X033848Y016205D01*
X033848Y016205D01*
X033848Y016205D01*
X034029Y016455D01*
X034125Y016748D01*
X034125Y018536D01*
X035927Y018536D01*
X035927Y018378D02*
X034125Y018378D01*
X034125Y018536D02*
X034165Y018633D01*
X034165Y018872D01*
X034073Y019092D01*
X033904Y019261D01*
X033684Y019352D01*
X033388Y019329D02*
X027659Y019329D01*
X027659Y019170D02*
X033134Y019170D01*
X033022Y019012D02*
X027659Y019012D01*
X027659Y018853D02*
X032965Y018853D01*
X032965Y018695D02*
X027659Y018695D01*
X027659Y018219D02*
X033005Y018219D01*
X033005Y018061D02*
X027659Y018061D01*
X027659Y017902D02*
X032931Y017902D01*
X032909Y017744D02*
X027659Y017744D01*
X027659Y017585D02*
X032909Y017585D01*
X032909Y017427D02*
X027659Y017427D01*
X027659Y017268D02*
X030094Y017268D01*
X029844Y017110D02*
X027659Y017110D01*
X027659Y016951D02*
X029694Y016951D01*
X029628Y016793D02*
X027659Y016793D01*
X027659Y016634D02*
X029572Y016634D01*
X029572Y016476D02*
X027659Y016476D01*
X027659Y016317D02*
X029574Y016317D01*
X029639Y016159D02*
X027659Y016159D01*
X027659Y016000D02*
X029711Y016000D01*
X029870Y015842D02*
X027659Y015842D01*
X027659Y015683D02*
X030157Y015683D01*
X030673Y015683D02*
X031865Y015683D01*
X031865Y015525D02*
X027659Y015525D01*
X027659Y015366D02*
X031865Y015366D01*
X031915Y015208D02*
X027659Y015208D01*
X027659Y015049D02*
X032082Y015049D01*
X032725Y015049D02*
X032830Y015049D01*
X032909Y014891D02*
X027659Y014891D01*
X027659Y014732D02*
X032909Y014732D01*
X032909Y014574D02*
X027659Y014574D01*
X027659Y014415D02*
X032919Y014415D01*
X032965Y014257D02*
X027659Y014257D01*
X027659Y014098D02*
X032968Y014098D01*
X033033Y013940D02*
X027659Y013940D01*
X027659Y013781D02*
X033160Y013781D01*
X032811Y013306D02*
X035927Y013306D01*
X035927Y013464D02*
X032653Y013464D01*
X032611Y013506D02*
X032283Y013642D01*
X031927Y013642D01*
X031599Y013506D01*
X031348Y013254D01*
X031212Y012926D01*
X031212Y012571D01*
X031348Y012242D01*
X031599Y011991D01*
X031927Y011855D01*
X032283Y011855D01*
X032611Y011991D01*
X032862Y012242D01*
X032999Y012571D01*
X032999Y012926D01*
X032862Y013254D01*
X032611Y013506D01*
X032329Y013623D02*
X035927Y013623D01*
X035927Y013781D02*
X033969Y013781D01*
X034096Y013940D02*
X035927Y013940D01*
X035927Y014098D02*
X034161Y014098D01*
X034165Y014257D02*
X035927Y014257D01*
X035927Y014415D02*
X034135Y014415D01*
X034125Y014574D02*
X035927Y014574D01*
X035927Y014732D02*
X034125Y014732D01*
X034125Y014891D02*
X035927Y014891D01*
X035927Y015049D02*
X034125Y015049D01*
X034125Y015208D02*
X035927Y015208D01*
X035927Y015366D02*
X034125Y015366D01*
X034098Y015525D02*
X035927Y015525D01*
X035927Y015683D02*
X034046Y015683D01*
X034029Y015735D02*
X034029Y015735D01*
X033952Y015842D02*
X035927Y015842D01*
X035927Y016000D02*
X033827Y016000D01*
X033848Y015985D02*
X033848Y015985D01*
X033784Y016159D02*
X035927Y016159D01*
X035927Y016317D02*
X033929Y016317D01*
X034029Y016455D02*
X034029Y016455D01*
X034036Y016476D02*
X035927Y016476D01*
X035927Y016634D02*
X034088Y016634D01*
X034125Y016793D02*
X035927Y016793D01*
X035927Y016951D02*
X034125Y016951D01*
X034125Y017110D02*
X035927Y017110D01*
X035927Y017268D02*
X034125Y017268D01*
X034125Y017427D02*
X035927Y017427D01*
X035927Y017585D02*
X034125Y017585D01*
X034125Y017744D02*
X035927Y017744D01*
X035927Y017902D02*
X034125Y017902D01*
X034125Y018061D02*
X035927Y018061D01*
X035927Y018219D02*
X034125Y018219D01*
X034165Y018695D02*
X035927Y018695D01*
X035927Y018853D02*
X034165Y018853D01*
X034107Y019012D02*
X035927Y019012D01*
X035927Y019170D02*
X033995Y019170D01*
X032962Y019963D02*
X035927Y019963D01*
X035927Y020121D02*
X032999Y020121D01*
X032999Y020280D02*
X035927Y020280D01*
X035927Y020438D02*
X032985Y020438D01*
X032920Y020597D02*
X035927Y020597D01*
X035927Y020755D02*
X032842Y020755D01*
X032684Y020914D02*
X035927Y020914D01*
X035927Y021072D02*
X032404Y021072D01*
X032896Y019804D02*
X035927Y019804D01*
X035927Y019646D02*
X032785Y019646D01*
X032909Y017268D02*
X030736Y017268D01*
X030986Y017110D02*
X032025Y017110D01*
X031865Y015842D02*
X030960Y015842D01*
X031881Y013623D02*
X027659Y013623D01*
X027659Y013464D02*
X031557Y013464D01*
X031399Y013306D02*
X027659Y013306D01*
X027659Y013147D02*
X031303Y013147D01*
X031238Y012989D02*
X027659Y012989D01*
X027659Y012830D02*
X031212Y012830D01*
X031212Y012672D02*
X027659Y012672D01*
X027756Y012513D02*
X031236Y012513D01*
X031301Y012355D02*
X028014Y012355D01*
X028173Y012196D02*
X031394Y012196D01*
X031553Y012038D02*
X028306Y012038D01*
X028397Y011879D02*
X031870Y011879D01*
X032341Y011879D02*
X035927Y011879D01*
X035927Y011721D02*
X028479Y011721D01*
X028521Y011562D02*
X035927Y011562D01*
X035927Y011404D02*
X028564Y011404D01*
X028572Y011245D02*
X035927Y011245D01*
X035927Y011087D02*
X028572Y011087D01*
X028559Y010928D02*
X035927Y010928D01*
X035927Y010770D02*
X028517Y010770D01*
X028474Y010611D02*
X035927Y010611D01*
X035927Y010453D02*
X028388Y010453D01*
X028297Y010294D02*
X035927Y010294D01*
X035927Y010136D02*
X028157Y010136D01*
X027998Y009977D02*
X035927Y009977D01*
X035927Y009819D02*
X027729Y009819D01*
X027659Y009660D02*
X035927Y009660D01*
X035927Y012038D02*
X032658Y012038D01*
X032816Y012196D02*
X035927Y012196D01*
X035927Y012355D02*
X032909Y012355D01*
X032975Y012513D02*
X035927Y012513D01*
X035927Y012672D02*
X032999Y012672D01*
X032999Y012830D02*
X035927Y012830D01*
X035927Y012989D02*
X032973Y012989D01*
X032907Y013147D02*
X035927Y013147D01*
X026872Y015525D02*
X025996Y015525D01*
X026121Y015683D02*
X026872Y015683D01*
X026872Y015842D02*
X026171Y015842D01*
X026171Y016000D02*
X026872Y016000D01*
X026872Y016159D02*
X026171Y016159D01*
X026171Y016317D02*
X026872Y016317D01*
X026872Y016476D02*
X026171Y016476D01*
X026171Y016634D02*
X026872Y016634D01*
X026872Y016793D02*
X026171Y016793D01*
X026171Y016951D02*
X026872Y016951D01*
X026872Y017110D02*
X026116Y017110D01*
X025984Y017268D02*
X026872Y017268D01*
X026872Y017427D02*
X025825Y017427D01*
X025667Y017585D02*
X026872Y017585D01*
X026872Y017744D02*
X025580Y017744D01*
X025580Y017902D02*
X026872Y017902D01*
X026872Y018061D02*
X025674Y018061D01*
X025775Y018219D02*
X026872Y018219D01*
X026872Y018378D02*
X025795Y018378D01*
X025795Y018536D02*
X026872Y018536D01*
X026872Y018695D02*
X025795Y018695D01*
X025795Y018853D02*
X026872Y018853D01*
X024943Y016951D02*
X023178Y016951D01*
X023178Y016793D02*
X025101Y016793D01*
X025211Y016634D02*
X023178Y016634D01*
X023178Y016476D02*
X025211Y016476D01*
X024628Y016317D02*
X023178Y016317D01*
X023178Y016159D02*
X024455Y016159D01*
X024405Y016000D02*
X023178Y016000D01*
X023178Y015842D02*
X024405Y015842D01*
X024405Y015683D02*
X023178Y015683D01*
X023178Y015525D02*
X024437Y015525D01*
D20*
X030415Y016489D02*
X032403Y016489D01*
D21*
X032403Y015701D01*
D22*
X033565Y014225D03*
X033565Y018752D03*
D23*
X033565Y016902D01*
X033564Y016902D02*
X033562Y016864D01*
X033557Y016826D01*
X033548Y016789D01*
X033536Y016753D01*
X033521Y016718D01*
X033502Y016685D01*
X033481Y016653D01*
X033456Y016624D01*
X033429Y016597D01*
X033400Y016572D01*
X033368Y016551D01*
X033335Y016532D01*
X033300Y016517D01*
X033264Y016505D01*
X033227Y016496D01*
X033189Y016491D01*
X033151Y016489D01*
X033151Y015701D02*
X033189Y015699D01*
X033227Y015694D01*
X033264Y015685D01*
X033300Y015673D01*
X033335Y015658D01*
X033368Y015639D01*
X033400Y015618D01*
X033429Y015593D01*
X033456Y015566D01*
X033481Y015537D01*
X033502Y015505D01*
X033521Y015472D01*
X033536Y015437D01*
X033548Y015401D01*
X033557Y015364D01*
X033562Y015326D01*
X033564Y015288D01*
X033565Y015288D02*
X033565Y015111D01*
X033565Y014225D01*
D24*
X033446Y014815D02*
X033446Y014993D01*
X033447Y014993D02*
X033449Y015013D01*
X033454Y015033D01*
X033463Y015052D01*
X033475Y015069D01*
X033489Y015083D01*
X033506Y015095D01*
X033525Y015104D01*
X033545Y015109D01*
X033565Y015111D01*
X033565Y016902D02*
X033565Y017355D01*
X033564Y017355D02*
X033562Y017375D01*
X033557Y017395D01*
X033548Y017414D01*
X033536Y017431D01*
X033522Y017445D01*
X033505Y017457D01*
X033486Y017466D01*
X033466Y017471D01*
X033446Y017473D01*
D25*
X025100Y015307D03*
X023919Y017670D03*
D26*
X024116Y006548D02*
X026183Y006548D01*
M02*
