G75*
G70*
%OFA0B0*%
%FSLAX24Y24*%
%IPPOS*%
%LPD*%
%AMOC8*
5,1,8,0,0,1.08239X$1,22.5*
%
%ADD10C,0.0100*%
%ADD11C,0.0039*%
%ADD12C,0.0050*%
D10*
X015848Y001851D02*
X023722Y001851D01*
X023722Y004213D01*
X015848Y004213D01*
X015848Y001851D01*
X030923Y009599D02*
X033285Y009599D01*
X033285Y023378D01*
X030923Y023378D01*
X030923Y009599D01*
D11*
X019924Y030129D02*
X019785Y030268D01*
X018801Y030268D02*
X018803Y030330D01*
X018809Y030393D01*
X018819Y030454D01*
X018833Y030515D01*
X018850Y030575D01*
X018871Y030634D01*
X018897Y030691D01*
X018925Y030746D01*
X018957Y030800D01*
X018993Y030851D01*
X019031Y030901D01*
X019073Y030947D01*
X019117Y030991D01*
X019165Y031032D01*
X019214Y031070D01*
X019266Y031104D01*
X019320Y031135D01*
X019376Y031163D01*
X019434Y031187D01*
X019493Y031208D01*
X019553Y031224D01*
X019614Y031237D01*
X019676Y031246D01*
X019738Y031251D01*
X019801Y031252D01*
X019863Y031249D01*
X019925Y031242D01*
X019987Y031231D01*
X020047Y031216D01*
X020107Y031198D01*
X020165Y031176D01*
X020222Y031150D01*
X020277Y031120D01*
X020330Y031087D01*
X020381Y031051D01*
X020429Y031012D01*
X020475Y030969D01*
X020518Y030924D01*
X020558Y030876D01*
X020595Y030826D01*
X020629Y030773D01*
X020660Y030719D01*
X020686Y030663D01*
X020710Y030605D01*
X020729Y030545D01*
X020745Y030485D01*
X020757Y030423D01*
X020765Y030362D01*
X020769Y030299D01*
X020769Y030237D01*
X020765Y030174D01*
X020757Y030113D01*
X020745Y030051D01*
X020729Y029991D01*
X020710Y029931D01*
X020686Y029873D01*
X020660Y029817D01*
X020629Y029763D01*
X020595Y029710D01*
X020558Y029660D01*
X020518Y029612D01*
X020475Y029567D01*
X020429Y029524D01*
X020381Y029485D01*
X020330Y029449D01*
X020277Y029416D01*
X020222Y029386D01*
X020165Y029360D01*
X020107Y029338D01*
X020047Y029320D01*
X019987Y029305D01*
X019925Y029294D01*
X019863Y029287D01*
X019801Y029284D01*
X019738Y029285D01*
X019676Y029290D01*
X019614Y029299D01*
X019553Y029312D01*
X019493Y029328D01*
X019434Y029349D01*
X019376Y029373D01*
X019320Y029401D01*
X019266Y029432D01*
X019214Y029466D01*
X019165Y029504D01*
X019117Y029545D01*
X019073Y029589D01*
X019031Y029635D01*
X018993Y029685D01*
X018957Y029736D01*
X018925Y029790D01*
X018897Y029845D01*
X018871Y029902D01*
X018850Y029961D01*
X018833Y030021D01*
X018819Y030082D01*
X018809Y030143D01*
X018803Y030206D01*
X018801Y030268D01*
X019646Y030129D02*
X019785Y030268D01*
X019646Y030407D01*
X019785Y030268D02*
X020759Y031242D01*
D12*
X023537Y017276D02*
X023537Y016111D01*
X023887Y015705D02*
X023946Y015705D01*
X024309Y016099D02*
X024309Y017276D01*
X024218Y017276D01*
X023620Y017276D02*
X023537Y017276D01*
M02*
