%
M48
M72
T01C0.0118
T02C0.0122
T03C0.0150
T04C0.0150
T05C0.0157
T06C0.0197
T07C0.0236
T08C0.0276
T09C0.0315
T10C0.0360
T11C0.0400
T12C0.0520
T13C0.1260
%
T01
X21360Y20474
X21704Y20720
X22000Y20966
X22344Y21212
X22639Y21458
X22935Y21704
X23230Y21950
T02
X13387Y28446
X12551Y26084
X11025Y24017
X9057Y27167
X10631Y29529
X10238Y31891
T03
X12994Y31891
X13387Y31891
X13781Y31891
X14175Y31891
X14175Y30710
X13781Y30710
X13387Y30710
X12994Y30710
X16045Y26429
X14716Y23820
X14348Y23943
X14569Y23230
X15389Y21995
X12256Y23476
X20671Y30317
X21261Y31891
X21655Y33860
X20080Y34647
X18506Y34647
X25198Y34647
X25100Y21458
X23476Y16340
X23033Y16340
X23328Y14372
X23919Y14372
X27265Y14519
X32285Y18112
X31104Y9057
X29923Y7482
X29529Y7088
X29135Y6694
X30710Y6694
X31104Y7088
X25986Y8663
X25986Y9057
X19539Y8761
X18899Y8122
X15061Y3840
X3299Y23378
X2265Y23673
X11025Y35828
T04
X12989Y32895
X10754Y31898
X6389Y29145
X6689Y26895
X4689Y25995
X9489Y24795
X9889Y24495
X9889Y25195
X11489Y23695
X11289Y21795
X10189Y18695
X9289Y18695
X9989Y16195
X12689Y15695
X13289Y15695
X14089Y13995
X14789Y13995
X17839Y13095
X21261Y5513
X22644Y2659
X30232Y10395
X30626Y9995
X31020Y9495
X30126Y10895
X30089Y12595
X28489Y13395
X27839Y11695
X28139Y11195
X29739Y15595
X29589Y15995
X32689Y17095
X32589Y23595
X25187Y20407
X25089Y24295
X25089Y25345
X22889Y24539
X21789Y24589
X20689Y25089
X20789Y25589
X20789Y26289
X20689Y27295
X20989Y27695
X21989Y26489
X22889Y27695
X23465Y29419
X24989Y28895
X25089Y27845
X18889Y27995
X16689Y26295
X16389Y25895
X15740Y25696
X15283Y26692
X15337Y22902
X15735Y22906
X16183Y22909
X16591Y22909
X26489Y36195
X31183Y30902
X32689Y32095
X13889Y4395
T05
X22443Y36567
X24411Y36567
T06
X28454Y34303
X28454Y33803
X28954Y33803
X29454Y33803
X29954Y33803
X29954Y34303
X29454Y34303
X28954Y34303
X27889Y29595
X27889Y28745
X27889Y27995
X27889Y27195
X27889Y25995
X27889Y25195
X27889Y24445
X27889Y23645
X27889Y22845
X27889Y21959
X27889Y21024
X27889Y20089
X28789Y16595
X30489Y16595
X27989Y12195
X23883Y8186
X23483Y8186
X23483Y8598
X23102Y9039
X23059Y8186
X14837Y6849
X14837Y6398
X5339Y15545
X5339Y16045
X5339Y17645
X5339Y18145
X3539Y24045
X3539Y25445
X5339Y25395
X5339Y24395
X7339Y27745
X7839Y27745
X7839Y28245
X7339Y28245
X11939Y25045
X11939Y24545
X12439Y24545
X12439Y25045
X12730Y28439
X17689Y28511
X18440Y26014
X20989Y28395
X21389Y28395
X23489Y24039
X18989Y17308
X18989Y16858
X18489Y16858
X18489Y17308
X15589Y20558
X14047Y17558
X18562Y34106
T07
X26689Y31308
X31089Y29495
T08
X14076Y34395
X13576Y34395
X13076Y34395
X12576Y34395
X12076Y34395
X12076Y36395
X12576Y36395
X13076Y36395
X13576Y36395
X14076Y36395
T09
X17817Y35895
X18801Y35895
X19785Y35895
X20769Y35895
T10
X16151Y35927
X15151Y35927
T11
X33754Y31399
X34754Y31399
X34754Y30399
X33754Y30399
X33754Y29399
X34754Y29399
X34754Y28399
X33754Y28399
X33754Y27399
X34754Y27399
X34754Y26399
X33754Y26399
X33754Y25399
X34754Y25399
X34754Y24399
X34754Y23399
X33754Y23399
X33754Y22399
X34754Y22399
X34754Y21399
X33754Y21399
X33754Y20399
X34754Y20399
X34754Y19399
X33754Y19399
X33754Y18399
X34754Y18399
X34754Y17399
X34754Y16399
X33754Y16399
X33754Y17399
X33754Y15399
X34754Y15399
X34754Y14399
X33754Y14399
X33754Y13399
X34754Y13399
X34754Y12399
X33754Y12399
X33754Y11399
X34754Y11399
X34754Y10399
X34754Y9399
X33754Y9399
X33754Y10399
X33754Y8399
X34754Y8399
X34754Y7399
X33754Y7399
X33754Y6399
X34754Y6399
X15929Y15405
X14929Y15405
X13929Y15405
X33754Y24399
T12
X30189Y8368
X22315Y8368
T13
X4332Y3939
X34254Y3939
X34254Y33860
X4332Y33860
M30
